<svg width="600" height="300" viewBox="0 0 600 300" fill="none" xmlns="http://www.w3.org/2000/svg">
<g clip-path="url(#clip0_217:1)">
<rect width="600" height="300" fill="white"/>
<rect x="231.5" y="31.5" width="98.0741" height="40" rx="3.5" fill="white" stroke="black"/>
<path d="M267.687 47.1061H264.488V55.9792H263.182V47.1061H259.99V46.026H267.687V47.1061ZM272.753 55.9792C272.68 55.8333 272.621 55.5736 272.575 55.1999C271.987 55.8105 271.285 56.1159 270.47 56.1159C269.74 56.1159 269.141 55.9108 268.672 55.5006C268.207 55.0859 267.974 54.5618 267.974 53.9284C267.974 53.1582 268.266 52.5612 268.849 52.1374C269.437 51.709 270.262 51.4948 271.324 51.4948H272.555V50.9137C272.555 50.4717 272.422 50.1208 272.158 49.861C271.894 49.5967 271.504 49.4645 270.989 49.4645C270.538 49.4645 270.16 49.5784 269.854 49.8063C269.549 50.0342 269.396 50.3099 269.396 50.6335H268.125C268.125 50.2643 268.255 49.9088 268.514 49.567C268.779 49.2207 269.134 48.9473 269.581 48.7467C270.032 48.5462 270.527 48.446 271.064 48.446C271.917 48.446 272.584 48.6601 273.067 49.0885C273.55 49.5124 273.801 50.098 273.819 50.8454V54.2497C273.819 54.9287 273.906 55.4687 274.079 55.8698V55.9792H272.753ZM270.654 55.0153C271.051 55.0153 271.427 54.9128 271.782 54.7077C272.138 54.5026 272.395 54.236 272.555 53.9079V52.3903H271.563C270.014 52.3903 269.239 52.8437 269.239 53.7506C269.239 54.1471 269.371 54.457 269.636 54.6803C269.9 54.9036 270.239 55.0153 270.654 55.0153ZM280.108 54.0172C280.108 53.6754 279.978 53.4111 279.719 53.2243C279.463 53.0329 279.014 52.8688 278.372 52.7321C277.734 52.5954 277.226 52.4313 276.848 52.2399C276.474 52.0485 276.196 51.8206 276.014 51.5563C275.836 51.292 275.747 50.9775 275.747 50.6129C275.747 50.0068 276.002 49.4941 276.513 49.0749C277.028 48.6556 277.684 48.446 278.481 48.446C279.32 48.446 279.999 48.6624 280.518 49.0954C281.042 49.5283 281.305 50.082 281.305 50.7565H280.033C280.033 50.4101 279.885 50.1116 279.589 49.861C279.297 49.6103 278.928 49.485 278.481 49.485C278.021 49.485 277.661 49.5853 277.401 49.7858C277.141 49.9863 277.012 50.2484 277.012 50.5719C277.012 50.8773 277.132 51.1074 277.374 51.2624C277.615 51.4173 278.051 51.5654 278.68 51.7067C279.313 51.848 279.826 52.0166 280.218 52.2126C280.61 52.4085 280.899 52.6455 281.086 52.9235C281.277 53.1969 281.373 53.5319 281.373 53.9284C281.373 54.5892 281.109 55.1201 280.58 55.5211C280.051 55.9176 279.365 56.1159 278.522 56.1159C277.93 56.1159 277.406 56.0111 276.95 55.8014C276.494 55.5918 276.137 55.3001 275.877 54.9264C275.622 54.5482 275.494 54.1403 275.494 53.7028H276.759C276.781 54.1266 276.95 54.4639 277.264 54.7145C277.584 54.9606 278.003 55.0836 278.522 55.0836C279.001 55.0836 279.384 54.9879 279.671 54.7965C279.962 54.6006 280.108 54.3408 280.108 54.0172ZM285.085 52.5544L284.292 53.3815V55.9792H283.027V45.4792H284.292V51.8297L284.969 51.0163L287.272 48.5827H288.81L285.932 51.6725L289.145 55.9792H287.662L285.085 52.5544ZM297.615 55.9792H296.344V47.5504L293.794 48.487V47.3385L297.417 45.9782H297.615V55.9792Z" fill="black"/>
<rect x="350.5" y="37.5" width="98.0741" height="69" rx="3.5" fill="white" stroke="black"/>
<path d="M386.687 68.3353H383.488V77.2083H382.182V68.3353H378.99V67.2552H386.687V68.3353ZM391.753 77.2083C391.68 77.0625 391.621 76.8027 391.575 76.429C390.987 77.0397 390.285 77.345 389.47 77.345C388.74 77.345 388.141 77.14 387.672 76.7298C387.207 76.3151 386.974 75.791 386.974 75.1575C386.974 74.3873 387.266 73.7903 387.849 73.3665C388.437 72.9381 389.262 72.7239 390.324 72.7239H391.555V72.1429C391.555 71.7008 391.422 71.3499 391.158 71.0901C390.894 70.8258 390.504 70.6937 389.989 70.6937C389.538 70.6937 389.16 70.8076 388.854 71.0355C388.549 71.2633 388.396 71.539 388.396 71.8626H387.125C387.125 71.4935 387.255 71.138 387.514 70.7962C387.779 70.4498 388.134 70.1764 388.581 69.9759C389.032 69.7754 389.527 69.6751 390.064 69.6751C390.917 69.6751 391.584 69.8893 392.067 70.3177C392.55 70.7415 392.801 71.3271 392.819 72.0745V75.4788C392.819 76.1579 392.906 76.6979 393.079 77.0989V77.2083H391.753ZM389.654 76.2444C390.051 76.2444 390.427 76.1419 390.782 75.9368C391.138 75.7318 391.395 75.4651 391.555 75.137V73.6194H390.563C389.014 73.6194 388.239 74.0729 388.239 74.9798C388.239 75.3763 388.371 75.6862 388.636 75.9095C388.9 76.1328 389.239 76.2444 389.654 76.2444ZM399.108 75.2464C399.108 74.9046 398.978 74.6403 398.719 74.4534C398.463 74.262 398.014 74.098 397.372 73.9612C396.734 73.8245 396.226 73.6605 395.848 73.4691C395.474 73.2776 395.196 73.0498 395.014 72.7855C394.836 72.5211 394.747 72.2067 394.747 71.8421C394.747 71.236 395.002 70.7233 395.513 70.304C396.028 69.8847 396.684 69.6751 397.481 69.6751C398.32 69.6751 398.999 69.8916 399.518 70.3245C400.042 70.7575 400.305 71.3112 400.305 71.9857H399.033C399.033 71.6393 398.885 71.3408 398.589 71.0901C398.297 70.8395 397.928 70.7142 397.481 70.7142C397.021 70.7142 396.661 70.8144 396.401 71.015C396.141 71.2155 396.012 71.4775 396.012 71.8011C396.012 72.1064 396.132 72.3366 396.374 72.4915C396.615 72.6465 397.051 72.7946 397.68 72.9359C398.313 73.0771 398.826 73.2457 399.218 73.4417C399.61 73.6377 399.899 73.8747 400.086 74.1526C400.277 74.4261 400.373 74.761 400.373 75.1575C400.373 75.8183 400.109 76.3493 399.58 76.7503C399.051 77.1468 398.365 77.345 397.522 77.345C396.93 77.345 396.406 77.2402 395.95 77.0306C395.494 76.8209 395.137 76.5293 394.877 76.1556C394.622 75.7773 394.494 75.3694 394.494 74.9319H395.759C395.781 75.3558 395.95 75.693 396.264 75.9437C396.584 76.1898 397.003 76.3128 397.522 76.3128C398.001 76.3128 398.384 76.2171 398.671 76.0257C398.962 75.8297 399.108 75.57 399.108 75.2464ZM404.085 73.7835L403.292 74.6107V77.2083H402.027V66.7083H403.292V73.0589L403.969 72.2454L406.272 69.8118H407.81L404.932 72.9017L408.145 77.2083H406.662L404.085 73.7835ZM418.98 77.2083H412.459V76.2991L415.904 72.471C416.415 71.8922 416.765 71.4228 416.957 71.0628C417.153 70.6982 417.251 70.3222 417.251 69.9349C417.251 69.4153 417.094 68.9892 416.779 68.6566C416.465 68.3239 416.045 68.1575 415.521 68.1575C414.892 68.1575 414.403 68.3375 414.052 68.6976C413.705 69.053 413.532 69.5498 413.532 70.1878H412.267C412.267 69.2718 412.561 68.5312 413.149 67.9661C413.742 67.401 414.532 67.1185 415.521 67.1185C416.446 67.1185 417.178 67.3623 417.716 67.8499C418.253 68.333 418.522 68.9778 418.522 69.7845C418.522 70.7643 417.898 71.931 416.649 73.2845L413.983 76.1761H418.98V77.2083Z" fill="black"/>
<rect x="463.5" y="43.5" width="98.0741" height="86" rx="3.5" fill="white" stroke="black"/>
<path d="M499.687 82.8145H496.488V91.6875H495.182V82.8145H491.99V81.7344H499.687V82.8145ZM504.753 91.6875C504.68 91.5417 504.621 91.2819 504.575 90.9082C503.987 91.5189 503.285 91.8242 502.47 91.8242C501.74 91.8242 501.141 91.6191 500.672 91.209C500.207 90.7943 499.974 90.2702 499.974 89.6367C499.974 88.8665 500.266 88.2695 500.849 87.8457C501.437 87.4173 502.262 87.2031 503.324 87.2031H504.555V86.6221C504.555 86.18 504.422 85.8291 504.158 85.5693C503.894 85.305 503.504 85.1729 502.989 85.1729C502.538 85.1729 502.16 85.2868 501.854 85.5146C501.549 85.7425 501.396 86.0182 501.396 86.3418H500.125C500.125 85.9727 500.255 85.6172 500.514 85.2754C500.779 84.929 501.134 84.6556 501.581 84.4551C502.032 84.2546 502.527 84.1543 503.064 84.1543C503.917 84.1543 504.584 84.3685 505.067 84.7969C505.55 85.2207 505.801 85.8063 505.819 86.5537V89.958C505.819 90.637 505.906 91.1771 506.079 91.5781V91.6875H504.753ZM502.654 90.7236C503.051 90.7236 503.427 90.6211 503.782 90.416C504.138 90.2109 504.395 89.9443 504.555 89.6162V88.0986H503.563C502.014 88.0986 501.239 88.5521 501.239 89.459C501.239 89.8555 501.371 90.1654 501.636 90.3887C501.9 90.612 502.239 90.7236 502.654 90.7236ZM512.108 89.7256C512.108 89.3838 511.978 89.1195 511.719 88.9326C511.463 88.7412 511.014 88.5771 510.372 88.4404C509.734 88.3037 509.226 88.1396 508.848 87.9482C508.474 87.7568 508.196 87.529 508.014 87.2646C507.836 87.0003 507.747 86.6859 507.747 86.3213C507.747 85.7152 508.002 85.2025 508.513 84.7832C509.028 84.3639 509.684 84.1543 510.481 84.1543C511.32 84.1543 511.999 84.3708 512.518 84.8037C513.042 85.2367 513.305 85.7904 513.305 86.4648H512.033C512.033 86.1185 511.885 85.82 511.589 85.5693C511.297 85.3187 510.928 85.1934 510.481 85.1934C510.021 85.1934 509.661 85.2936 509.401 85.4941C509.141 85.6947 509.012 85.9567 509.012 86.2803C509.012 86.5856 509.132 86.8158 509.374 86.9707C509.615 87.1257 510.051 87.2738 510.68 87.415C511.313 87.5563 511.826 87.7249 512.218 87.9209C512.61 88.1169 512.899 88.3538 513.086 88.6318C513.277 88.9053 513.373 89.2402 513.373 89.6367C513.373 90.2975 513.109 90.8285 512.58 91.2295C512.051 91.626 511.365 91.8242 510.522 91.8242C509.93 91.8242 509.406 91.7194 508.95 91.5098C508.494 91.3001 508.137 91.0085 507.877 90.6348C507.622 90.2565 507.494 89.8486 507.494 89.4111H508.759C508.781 89.835 508.95 90.1722 509.264 90.4229C509.584 90.6689 510.003 90.792 510.522 90.792C511.001 90.792 511.384 90.6963 511.671 90.5049C511.962 90.3089 512.108 90.0492 512.108 89.7256ZM517.085 88.2627L516.292 89.0898V91.6875H515.027V81.1875H516.292V87.5381L516.969 86.7246L519.272 84.291H520.81L517.932 87.3809L521.145 91.6875H519.662L517.085 88.2627ZM527.298 86.0957H528.248C528.845 86.0866 529.314 85.9294 529.656 85.624C529.998 85.3187 530.169 84.9062 530.169 84.3867C530.169 83.2201 529.588 82.6367 528.426 82.6367C527.879 82.6367 527.441 82.7939 527.113 83.1084C526.79 83.4183 526.628 83.8307 526.628 84.3457H525.363C525.363 83.5573 525.65 82.9033 526.224 82.3838C526.803 81.8597 527.537 81.5977 528.426 81.5977C529.364 81.5977 530.1 81.846 530.634 82.3428C531.167 82.8395 531.433 83.5299 531.433 84.4141C531.433 84.847 531.292 85.2663 531.01 85.6719C530.732 86.0775 530.351 86.3805 529.868 86.5811C530.415 86.7542 530.836 87.0413 531.133 87.4424C531.433 87.8434 531.584 88.3333 531.584 88.9121C531.584 89.8053 531.292 90.514 530.709 91.0381C530.126 91.5622 529.367 91.8242 528.432 91.8242C527.498 91.8242 526.737 91.5713 526.149 91.0654C525.566 90.5596 525.274 89.8919 525.274 89.0625H526.546C526.546 89.5866 526.717 90.0059 527.058 90.3203C527.4 90.6348 527.858 90.792 528.432 90.792C529.043 90.792 529.51 90.6325 529.834 90.3135C530.157 89.9945 530.319 89.5365 530.319 88.9395C530.319 88.3607 530.141 87.9163 529.786 87.6064C529.431 87.2965 528.918 87.137 528.248 87.1279H527.298V86.0957Z" fill="black"/>
<rect x="463.5" y="137.5" width="98.0741" height="27.7731" rx="3.5" fill="white" stroke="black"/>
<path d="M499.687 147.323H496.488V156.196H495.182V147.323H491.99V146.243H499.687V147.323ZM504.753 156.196C504.68 156.05 504.621 155.79 504.575 155.417C503.987 156.027 503.285 156.333 502.47 156.333C501.74 156.333 501.141 156.128 500.672 155.718C500.207 155.303 499.974 154.779 499.974 154.145C499.974 153.375 500.266 152.778 500.849 152.354C501.437 151.926 502.262 151.712 503.324 151.712H504.555V151.131C504.555 150.689 504.422 150.338 504.158 150.078C503.894 149.814 503.504 149.681 502.989 149.681C502.538 149.681 502.16 149.795 501.854 150.023C501.549 150.251 501.396 150.527 501.396 150.85H500.125C500.125 150.481 500.255 150.126 500.514 149.784C500.779 149.438 501.134 149.164 501.581 148.964C502.032 148.763 502.527 148.663 503.064 148.663C503.917 148.663 504.584 148.877 505.067 149.305C505.55 149.729 505.801 150.315 505.819 151.062V154.467C505.819 155.146 505.906 155.686 506.079 156.087V156.196H504.753ZM502.654 155.232C503.051 155.232 503.427 155.13 503.782 154.925C504.138 154.72 504.395 154.453 504.555 154.125V152.607H503.563C502.014 152.607 501.239 153.061 501.239 153.968C501.239 154.364 501.371 154.674 501.636 154.897C501.9 155.121 502.239 155.232 502.654 155.232ZM512.108 154.234C512.108 153.892 511.978 153.628 511.719 153.441C511.463 153.25 511.014 153.086 510.372 152.949C509.734 152.812 509.226 152.648 508.848 152.457C508.474 152.265 508.196 152.038 508.014 151.773C507.836 151.509 507.747 151.194 507.747 150.83C507.747 150.224 508.002 149.711 508.513 149.292C509.028 148.873 509.684 148.663 510.481 148.663C511.32 148.663 511.999 148.879 512.518 149.312C513.042 149.745 513.305 150.299 513.305 150.973H512.033C512.033 150.627 511.885 150.329 511.589 150.078C511.297 149.827 510.928 149.702 510.481 149.702C510.021 149.702 509.661 149.802 509.401 150.003C509.141 150.203 509.012 150.465 509.012 150.789C509.012 151.094 509.132 151.324 509.374 151.479C509.615 151.634 510.051 151.782 510.68 151.924C511.313 152.065 511.826 152.234 512.218 152.429C512.61 152.625 512.899 152.862 513.086 153.14C513.277 153.414 513.373 153.749 513.373 154.145C513.373 154.806 513.109 155.337 512.58 155.738C512.051 156.135 511.365 156.333 510.522 156.333C509.93 156.333 509.406 156.228 508.95 156.018C508.494 155.809 508.137 155.517 507.877 155.143C507.622 154.765 507.494 154.357 507.494 153.92H508.759C508.781 154.344 508.95 154.681 509.264 154.931C509.584 155.178 510.003 155.301 510.522 155.301C511.001 155.301 511.384 155.205 511.671 155.013C511.962 154.817 512.108 154.558 512.108 154.234ZM517.085 152.771L516.292 153.598V156.196H515.027V145.696H516.292V152.047L516.969 151.233L519.272 148.8H520.81L517.932 151.889L521.145 156.196H519.662L517.085 152.771ZM530.422 146.236V147.309H530.189C529.205 147.328 528.421 147.619 527.838 148.184C527.254 148.749 526.917 149.545 526.826 150.57C527.35 149.969 528.066 149.668 528.973 149.668C529.838 149.668 530.529 149.973 531.044 150.584C531.563 151.194 531.823 151.983 531.823 152.949C531.823 153.974 531.543 154.795 530.982 155.41C530.426 156.025 529.679 156.333 528.74 156.333C527.788 156.333 527.015 155.968 526.423 155.239C525.83 154.505 525.534 153.562 525.534 152.409V151.924C525.534 150.092 525.924 148.692 526.703 147.726C527.487 146.756 528.651 146.259 530.196 146.236H530.422ZM528.761 150.72C528.328 150.72 527.929 150.85 527.564 151.11C527.2 151.37 526.947 151.696 526.806 152.088V152.553C526.806 153.373 526.99 154.034 527.359 154.535C527.728 155.036 528.189 155.287 528.74 155.287C529.31 155.287 529.756 155.077 530.08 154.658C530.408 154.239 530.572 153.69 530.572 153.011C530.572 152.327 530.406 151.776 530.073 151.356C529.745 150.932 529.307 150.72 528.761 150.72Z" fill="black"/>
<rect x="350.5" y="112.5" width="98.0741" height="49" rx="3.5" fill="white" stroke="black"/>
<path d="M386.687 132.419H383.488V141.292H382.182V132.419H378.99V131.339H386.687V132.419ZM391.753 141.292C391.68 141.146 391.621 140.886 391.575 140.512C390.987 141.123 390.285 141.428 389.47 141.428C388.74 141.428 388.141 141.223 387.672 140.813C387.207 140.398 386.974 139.874 386.974 139.241C386.974 138.471 387.266 137.874 387.849 137.45C388.437 137.022 389.262 136.807 390.324 136.807H391.555V136.226C391.555 135.784 391.422 135.433 391.158 135.174C390.894 134.909 390.504 134.777 389.989 134.777C389.538 134.777 389.16 134.891 388.854 135.119C388.549 135.347 388.396 135.622 388.396 135.946H387.125C387.125 135.577 387.255 135.221 387.514 134.88C387.779 134.533 388.134 134.26 388.581 134.059C389.032 133.859 389.527 133.758 390.064 133.758C390.917 133.758 391.584 133.973 392.067 134.401C392.55 134.825 392.801 135.411 392.819 136.158V139.562C392.819 140.241 392.906 140.781 393.079 141.182V141.292H391.753ZM389.654 140.328C390.051 140.328 390.427 140.225 390.782 140.02C391.138 139.815 391.395 139.549 391.555 139.22V137.703H390.563C389.014 137.703 388.239 138.156 388.239 139.063C388.239 139.46 388.371 139.77 388.636 139.993C388.9 140.216 389.239 140.328 389.654 140.328ZM399.108 139.33C399.108 138.988 398.978 138.724 398.719 138.537C398.463 138.345 398.014 138.181 397.372 138.045C396.734 137.908 396.226 137.744 395.848 137.552C395.474 137.361 395.196 137.133 395.014 136.869C394.836 136.605 394.747 136.29 394.747 135.925C394.747 135.319 395.002 134.807 395.513 134.387C396.028 133.968 396.684 133.758 397.481 133.758C398.32 133.758 398.999 133.975 399.518 134.408C400.042 134.841 400.305 135.395 400.305 136.069H399.033C399.033 135.723 398.885 135.424 398.589 135.174C398.297 134.923 397.928 134.798 397.481 134.798C397.021 134.798 396.661 134.898 396.401 135.098C396.141 135.299 396.012 135.561 396.012 135.884C396.012 136.19 396.132 136.42 396.374 136.575C396.615 136.73 397.051 136.878 397.68 137.019C398.313 137.161 398.826 137.329 399.218 137.525C399.61 137.721 399.899 137.958 400.086 138.236C400.277 138.509 400.373 138.844 400.373 139.241C400.373 139.902 400.109 140.433 399.58 140.834C399.051 141.23 398.365 141.428 397.522 141.428C396.93 141.428 396.406 141.324 395.95 141.114C395.494 140.904 395.137 140.613 394.877 140.239C394.622 139.861 394.494 139.453 394.494 139.015H395.759C395.781 139.439 395.95 139.776 396.264 140.027C396.584 140.273 397.003 140.396 397.522 140.396C398.001 140.396 398.384 140.3 398.671 140.109C398.962 139.913 399.108 139.653 399.108 139.33ZM404.085 137.867L403.292 138.694V141.292H402.027V130.792H403.292V137.142L403.969 136.329L406.272 133.895H407.81L404.932 136.985L408.145 141.292H406.662L404.085 137.867ZM413.04 136.301L413.546 131.339H418.645V132.508H414.619L414.318 135.221C414.806 134.934 415.36 134.791 415.979 134.791C416.886 134.791 417.606 135.091 418.139 135.693C418.673 136.29 418.939 137.099 418.939 138.12C418.939 139.145 418.661 139.954 418.105 140.547C417.554 141.134 416.781 141.428 415.788 141.428C414.908 141.428 414.191 141.185 413.635 140.697C413.079 140.209 412.762 139.535 412.684 138.674H413.881C413.958 139.243 414.161 139.674 414.489 139.966C414.817 140.253 415.25 140.396 415.788 140.396C416.376 140.396 416.836 140.196 417.169 139.795C417.506 139.394 417.675 138.84 417.675 138.133C417.675 137.468 417.492 136.935 417.128 136.534C416.768 136.128 416.287 135.925 415.685 135.925C415.134 135.925 414.701 136.046 414.387 136.288L414.052 136.561L413.04 136.301Z" fill="black"/>
<rect x="231.5" y="78.5" width="98.0741" height="67" rx="3.5" fill="white" stroke="black"/>
<path d="M267.687 108.044H264.488V116.917H263.182V108.044H259.99V106.964H267.687V108.044ZM272.753 116.917C272.68 116.771 272.621 116.511 272.575 116.137C271.987 116.748 271.285 117.053 270.47 117.053C269.74 117.053 269.141 116.848 268.672 116.438C268.207 116.023 267.974 115.499 267.974 114.866C267.974 114.096 268.266 113.499 268.849 113.075C269.437 112.646 270.262 112.432 271.324 112.432H272.555V111.851C272.555 111.409 272.422 111.058 272.158 110.798C271.894 110.534 271.504 110.402 270.989 110.402C270.538 110.402 270.16 110.516 269.854 110.744C269.549 110.972 269.396 111.247 269.396 111.571H268.125C268.125 111.202 268.255 110.846 268.514 110.505C268.779 110.158 269.134 109.885 269.581 109.684C270.032 109.484 270.527 109.383 271.064 109.383C271.917 109.383 272.584 109.598 273.067 110.026C273.55 110.45 273.801 111.035 273.819 111.783V115.187C273.819 115.866 273.906 116.406 274.079 116.807V116.917H272.753ZM270.654 115.953C271.051 115.953 271.427 115.85 271.782 115.645C272.138 115.44 272.395 115.173 272.555 114.845V113.328H271.563C270.014 113.328 269.239 113.781 269.239 114.688C269.239 115.085 269.371 115.395 269.636 115.618C269.9 115.841 270.239 115.953 270.654 115.953ZM280.108 114.955C280.108 114.613 279.978 114.349 279.719 114.162C279.463 113.97 279.014 113.806 278.372 113.67C277.734 113.533 277.226 113.369 276.848 113.177C276.474 112.986 276.196 112.758 276.014 112.494C275.836 112.229 275.747 111.915 275.747 111.55C275.747 110.944 276.002 110.432 276.513 110.012C277.028 109.593 277.684 109.383 278.481 109.383C279.32 109.383 279.999 109.6 280.518 110.033C281.042 110.466 281.305 111.02 281.305 111.694H280.033C280.033 111.348 279.885 111.049 279.589 110.798C279.297 110.548 278.928 110.423 278.481 110.423C278.021 110.423 277.661 110.523 277.401 110.723C277.141 110.924 277.012 111.186 277.012 111.509C277.012 111.815 277.132 112.045 277.374 112.2C277.615 112.355 278.051 112.503 278.68 112.644C279.313 112.785 279.826 112.954 280.218 113.15C280.61 113.346 280.899 113.583 281.086 113.861C281.277 114.134 281.373 114.469 281.373 114.866C281.373 115.527 281.109 116.058 280.58 116.459C280.051 116.855 279.365 117.053 278.522 117.053C277.93 117.053 277.406 116.949 276.95 116.739C276.494 116.529 276.137 116.238 275.877 115.864C275.622 115.486 275.494 115.078 275.494 114.64H276.759C276.781 115.064 276.95 115.401 277.264 115.652C277.584 115.898 278.003 116.021 278.522 116.021C279.001 116.021 279.384 115.925 279.671 115.734C279.962 115.538 280.108 115.278 280.108 114.955ZM285.085 113.492L284.292 114.319V116.917H283.027V106.417H284.292V112.767L284.969 111.954L287.272 109.52H288.81L285.932 112.61L289.145 116.917H287.662L285.085 113.492ZM298.798 113.574H300.179V114.606H298.798V116.917H297.526V114.606H292.994V113.861L297.451 106.964H298.798V113.574ZM294.43 113.574H297.526V108.693L297.376 108.966L294.43 113.574Z" fill="black"/>
<line x1="221.5" y1="226" x2="221.5" y2="16" stroke="black"/>
<line x1="339.5" y1="226" x2="339.5" y2="16" stroke="black"/>
<line x1="455.25" y1="226" x2="455.25" y2="16" stroke="black"/>
<line x1="568.5" y1="226" x2="568.5" y2="16" stroke="black"/>
<path d="M271.18 181.925C271.711 181.925 272.121 182.078 272.41 182.382C272.699 182.679 272.844 183.054 272.844 183.507C272.844 183.953 272.699 184.324 272.41 184.621C272.121 184.91 271.711 185.054 271.18 185.054C270.672 185.054 270.27 184.91 269.973 184.621C269.676 184.332 269.527 183.961 269.527 183.507C269.527 183.054 269.672 182.679 269.961 182.382C270.25 182.078 270.656 181.925 271.18 181.925ZM277.883 181.925C278.414 181.925 278.824 182.078 279.113 182.382C279.402 182.679 279.547 183.054 279.547 183.507C279.547 183.953 279.402 184.324 279.113 184.621C278.824 184.91 278.414 185.054 277.883 185.054C277.375 185.054 276.973 184.91 276.676 184.621C276.379 184.332 276.23 183.961 276.23 183.507C276.23 183.054 276.375 182.679 276.664 182.382C276.953 182.078 277.359 181.925 277.883 181.925ZM284.586 181.925C285.117 181.925 285.527 182.078 285.816 182.382C286.105 182.679 286.25 183.054 286.25 183.507C286.25 183.953 286.105 184.324 285.816 184.621C285.527 184.91 285.117 185.054 284.586 185.054C284.078 185.054 283.676 184.91 283.379 184.621C283.082 184.332 282.934 183.961 282.934 183.507C282.934 183.054 283.078 182.679 283.367 182.382C283.656 182.078 284.062 181.925 284.586 181.925Z" fill="black"/>
<path d="M503.18 181.925C503.711 181.925 504.121 182.078 504.41 182.382C504.699 182.679 504.844 183.054 504.844 183.507C504.844 183.953 504.699 184.324 504.41 184.621C504.121 184.91 503.711 185.054 503.18 185.054C502.672 185.054 502.27 184.91 501.973 184.621C501.676 184.332 501.527 183.961 501.527 183.507C501.527 183.054 501.672 182.679 501.961 182.382C502.25 182.078 502.656 181.925 503.18 181.925ZM509.883 181.925C510.414 181.925 510.824 182.078 511.113 182.382C511.402 182.679 511.547 183.054 511.547 183.507C511.547 183.953 511.402 184.324 511.113 184.621C510.824 184.91 510.414 185.054 509.883 185.054C509.375 185.054 508.973 184.91 508.676 184.621C508.379 184.332 508.23 183.961 508.23 183.507C508.23 183.054 508.375 182.679 508.664 182.382C508.953 182.078 509.359 181.925 509.883 181.925ZM516.586 181.925C517.117 181.925 517.527 182.078 517.816 182.382C518.105 182.679 518.25 183.054 518.25 183.507C518.25 183.953 518.105 184.324 517.816 184.621C517.527 184.91 517.117 185.054 516.586 185.054C516.078 185.054 515.676 184.91 515.379 184.621C515.082 184.332 514.934 183.961 514.934 183.507C514.934 183.054 515.078 182.679 515.367 182.382C515.656 182.078 516.063 181.925 516.586 181.925Z" fill="black"/>
<path d="M387.18 181.925C387.711 181.925 388.121 182.078 388.41 182.382C388.699 182.679 388.844 183.054 388.844 183.507C388.844 183.953 388.699 184.324 388.41 184.621C388.121 184.91 387.711 185.054 387.18 185.054C386.672 185.054 386.27 184.91 385.973 184.621C385.676 184.332 385.527 183.961 385.527 183.507C385.527 183.054 385.672 182.679 385.961 182.382C386.25 182.078 386.656 181.925 387.18 181.925ZM393.883 181.925C394.414 181.925 394.824 182.078 395.113 182.382C395.402 182.679 395.547 183.054 395.547 183.507C395.547 183.953 395.402 184.324 395.113 184.621C394.824 184.91 394.414 185.054 393.883 185.054C393.375 185.054 392.973 184.91 392.676 184.621C392.379 184.332 392.23 183.961 392.23 183.507C392.23 183.054 392.375 182.679 392.664 182.382C392.953 182.078 393.359 181.925 393.883 181.925ZM400.586 181.925C401.117 181.925 401.527 182.078 401.816 182.382C402.105 182.679 402.25 183.054 402.25 183.507C402.25 183.953 402.105 184.324 401.816 184.621C401.527 184.91 401.117 185.054 400.586 185.054C400.078 185.054 399.676 184.91 399.379 184.621C399.082 184.332 398.934 183.961 398.934 183.507C398.934 183.054 399.078 182.679 399.367 182.382C399.656 182.078 400.063 181.925 400.586 181.925Z" fill="black"/>
<rect x="45.5" y="20.5" width="98.0741" height="45" rx="3.5" fill="white" stroke="black"/>
<path d="M81.6874 38.8353H78.4881V47.7083H77.1825V38.8353H73.9901V37.7552H81.6874V38.8353ZM86.7528 47.7083C86.6799 47.5625 86.6206 47.3027 86.575 46.929C85.9872 47.5397 85.2853 47.8451 84.4696 47.8451C83.7404 47.8451 83.1411 47.64 82.6717 47.2298C82.2069 46.8151 81.9745 46.291 81.9745 45.6576C81.9745 44.8874 82.2661 44.2904 82.8495 43.8665C83.4374 43.4382 84.2622 43.224 85.3241 43.224H86.5545V42.6429C86.5545 42.2009 86.4224 41.8499 86.1581 41.5902C85.8937 41.3259 85.5041 41.1937 84.9891 41.1937C84.5379 41.1937 84.1597 41.3076 83.8543 41.5355C83.549 41.7634 83.3963 42.0391 83.3963 42.3626H82.1249C82.1249 41.9935 82.2547 41.638 82.5145 41.2962C82.7788 40.9499 83.1343 40.6764 83.5809 40.4759C84.0321 40.2754 84.5265 40.1751 85.0643 40.1751C85.9165 40.1751 86.5842 40.3893 87.0672 40.8177C87.5503 41.2415 87.801 41.8272 87.8192 42.5746V45.9789C87.8192 46.6579 87.9058 47.1979 88.079 47.599V47.7083H86.7528ZM84.6541 46.7445C85.0506 46.7445 85.4266 46.6419 85.7821 46.4369C86.1375 46.2318 86.395 45.9652 86.5545 45.6371V44.1195H85.5633C84.0138 44.1195 83.2391 44.5729 83.2391 45.4798C83.2391 45.8763 83.3713 46.1862 83.6356 46.4095C83.8999 46.6328 84.2394 46.7445 84.6541 46.7445ZM94.1082 45.7464C94.1082 45.4046 93.9784 45.1403 93.7186 44.9535C93.4634 44.7621 93.0145 44.598 92.3719 44.4613C91.7339 44.3246 91.2258 44.1605 90.8475 43.9691C90.4738 43.7777 90.1958 43.5498 90.0135 43.2855C89.8358 43.0212 89.7469 42.7067 89.7469 42.3421C89.7469 41.736 90.0021 41.2233 90.5125 40.804C91.0275 40.3848 91.6838 40.1751 92.4813 40.1751C93.3198 40.1751 93.9989 40.3916 94.5184 40.8246C95.0425 41.2575 95.3045 41.8112 95.3045 42.4857H94.0331C94.0331 42.1393 93.8849 41.8408 93.5887 41.5902C93.2971 41.3395 92.9279 41.2142 92.4813 41.2142C92.021 41.2142 91.661 41.3145 91.4012 41.515C91.1415 41.7155 91.0116 41.9775 91.0116 42.3011C91.0116 42.6065 91.1323 42.8366 91.3739 42.9915C91.6154 43.1465 92.0506 43.2946 92.6795 43.4359C93.313 43.5772 93.8257 43.7458 94.2176 43.9417C94.6096 44.1377 94.8989 44.3747 95.0858 44.6527C95.2772 44.9261 95.3729 45.2611 95.3729 45.6576C95.3729 46.3184 95.1086 46.8493 94.5799 47.2503C94.0513 47.6468 93.3654 47.8451 92.5223 47.8451C91.9299 47.8451 91.4058 47.7402 90.95 47.5306C90.4943 47.321 90.1366 47.0293 89.8768 46.6556C89.6216 46.2774 89.494 45.8695 89.494 45.432H90.7586C90.7814 45.8558 90.95 46.193 91.2645 46.4437C91.5835 46.6898 92.0028 46.8128 92.5223 46.8128C93.0008 46.8128 93.3836 46.7171 93.6707 46.5257C93.9624 46.3298 94.1082 46.07 94.1082 45.7464ZM99.0848 44.2835L98.2918 45.1107V47.7083H97.0272V37.2083H98.2918V43.5589L98.9686 42.7455L101.272 40.3119H102.81L99.9325 43.4017L103.145 47.7083H101.662L99.0848 44.2835ZM111.615 47.7083H110.344V39.2796L107.794 40.2162V39.0677L111.417 37.7074H111.615V47.7083Z" fill="black"/>
<rect x="45.5" y="72.5" width="98.0741" height="27.7731" rx="3.5" fill="white" stroke="black"/>
<path d="M81.6874 82.3231H78.4881V91.1961H77.1825V82.3231H73.9901V81.243H81.6874V82.3231ZM86.7528 91.1961C86.6799 91.0503 86.6206 90.7905 86.575 90.4168C85.9872 91.0275 85.2853 91.3328 84.4696 91.3328C83.7404 91.3328 83.1411 91.1277 82.6717 90.7176C82.2069 90.3029 81.9745 89.7788 81.9745 89.1453C81.9745 88.3751 82.2661 87.7781 82.8495 87.3543C83.4374 86.9259 84.2622 86.7117 85.3241 86.7117H86.5545V86.1307C86.5545 85.6886 86.4224 85.3377 86.1581 85.0779C85.8937 84.8136 85.5041 84.6815 84.9891 84.6815C84.5379 84.6815 84.1597 84.7954 83.8543 85.0233C83.549 85.2511 83.3963 85.5268 83.3963 85.8504H82.1249C82.1249 85.4813 82.2547 85.1258 82.5145 84.784C82.7788 84.4376 83.1343 84.1642 83.5809 83.9637C84.0321 83.7632 84.5265 83.6629 85.0643 83.6629C85.9165 83.6629 86.5842 83.8771 87.0672 84.3055C87.5503 84.7293 87.801 85.3149 87.8192 86.0623V89.4666C87.8192 90.1457 87.9058 90.6857 88.079 91.0867V91.1961H86.7528ZM84.6541 90.2322C85.0506 90.2322 85.4266 90.1297 85.7821 89.9246C86.1375 89.7195 86.395 89.4529 86.5545 89.1248V87.6072H85.5633C84.0138 87.6072 83.2391 88.0607 83.2391 88.9676C83.2391 89.3641 83.3713 89.674 83.6356 89.8973C83.8999 90.1206 84.2394 90.2322 84.6541 90.2322ZM94.1082 89.2342C94.1082 88.8924 93.9784 88.6281 93.7186 88.4412C93.4634 88.2498 93.0145 88.0858 92.3719 87.949C91.7339 87.8123 91.2258 87.6483 90.8475 87.4568C90.4738 87.2654 90.1958 87.0376 90.0135 86.7733C89.8358 86.5089 89.7469 86.1945 89.7469 85.8299C89.7469 85.2238 90.0021 84.7111 90.5125 84.2918C91.0275 83.8725 91.6838 83.6629 92.4813 83.6629C93.3198 83.6629 93.9989 83.8794 94.5184 84.3123C95.0425 84.7453 95.3045 85.299 95.3045 85.9734H94.0331C94.0331 85.6271 93.8849 85.3286 93.5887 85.0779C93.2971 84.8273 92.9279 84.702 92.4813 84.702C92.021 84.702 91.661 84.8022 91.4012 85.0027C91.1415 85.2033 91.0116 85.4653 91.0116 85.7889C91.0116 86.0942 91.1323 86.3244 91.3739 86.4793C91.6154 86.6343 92.0506 86.7824 92.6795 86.9236C93.313 87.0649 93.8257 87.2335 94.2176 87.4295C94.6096 87.6255 94.8989 87.8624 95.0858 88.1404C95.2772 88.4139 95.3729 88.7488 95.3729 89.1453C95.3729 89.8061 95.1086 90.3371 94.5799 90.7381C94.0513 91.1346 93.3654 91.3328 92.5223 91.3328C91.9299 91.3328 91.4058 91.228 90.95 91.0184C90.4943 90.8087 90.1366 90.5171 89.8768 90.1434C89.6216 89.7651 89.494 89.3572 89.494 88.9197H90.7586C90.7814 89.3436 90.95 89.6808 91.2645 89.9315C91.5835 90.1776 92.0028 90.3006 92.5223 90.3006C93.0008 90.3006 93.3836 90.2049 93.6707 90.0135C93.9624 89.8175 94.1082 89.5578 94.1082 89.2342ZM99.0848 87.7713L98.2918 88.5984V91.1961H97.0272V80.6961H98.2918V87.0467L98.9686 86.2332L101.272 83.7996H102.81L99.9325 86.8895L103.145 91.1961H101.662L99.0848 87.7713ZM113.98 91.1961H107.459V90.2869L110.904 86.4588C111.415 85.88 111.765 85.4106 111.957 85.0506C112.153 84.686 112.251 84.31 112.251 83.9227C112.251 83.4031 112.094 82.977 111.779 82.6443C111.465 82.3117 111.045 82.1453 110.521 82.1453C109.892 82.1453 109.403 82.3253 109.052 82.6854C108.705 83.0408 108.532 83.5376 108.532 84.1756H107.267C107.267 83.2596 107.561 82.519 108.149 81.9539C108.742 81.3888 109.532 81.1063 110.521 81.1063C111.446 81.1063 112.178 81.3501 112.716 81.8377C113.253 82.3208 113.522 82.9656 113.522 83.7723C113.522 84.7521 112.898 85.9188 111.649 87.2723L108.983 90.1639H113.98V91.1961Z" fill="black"/>
<rect x="45.5" y="107.5" width="98.0741" height="54" rx="3.5" fill="white" stroke="black"/>
<path d="M81.6874 130.148H78.4881V139.021H77.1825V130.148H73.9901V129.068H81.6874V130.148ZM86.7528 139.021C86.6799 138.875 86.6206 138.615 86.575 138.242C85.9872 138.852 85.2853 139.158 84.4696 139.158C83.7404 139.158 83.1411 138.952 82.6717 138.542C82.2069 138.128 81.9745 137.603 81.9745 136.97C81.9745 136.2 82.2661 135.603 82.8495 135.179C83.4374 134.751 84.2622 134.536 85.3241 134.536H86.5545V133.955C86.5545 133.513 86.4224 133.162 86.1581 132.903C85.8937 132.638 85.5041 132.506 84.9891 132.506C84.5379 132.506 84.1597 132.62 83.8543 132.848C83.549 133.076 83.3963 133.352 83.3963 133.675H82.1249C82.1249 133.306 82.2547 132.951 82.5145 132.609C82.7788 132.262 83.1343 131.989 83.5809 131.788C84.0321 131.588 84.5265 131.488 85.0643 131.488C85.9165 131.488 86.5842 131.702 87.0672 132.13C87.5503 132.554 87.801 133.14 87.8192 133.887V137.291C87.8192 137.97 87.9058 138.51 88.079 138.911V139.021H86.7528ZM84.6541 138.057C85.0506 138.057 85.4266 137.954 85.7821 137.749C86.1375 137.544 86.395 137.278 86.5545 136.95V135.432H85.5633C84.0138 135.432 83.2391 135.885 83.2391 136.792C83.2391 137.189 83.3713 137.499 83.6356 137.722C83.8999 137.945 84.2394 138.057 84.6541 138.057ZM94.1082 137.059C94.1082 136.717 93.9784 136.453 93.7186 136.266C93.4634 136.075 93.0145 135.91 92.3719 135.774C91.7339 135.637 91.2258 135.473 90.8475 135.282C90.4738 135.09 90.1958 134.862 90.0135 134.598C89.8358 134.334 89.7469 134.019 89.7469 133.655C89.7469 133.048 90.0021 132.536 90.5125 132.117C91.0275 131.697 91.6838 131.488 92.4813 131.488C93.3198 131.488 93.9989 131.704 94.5184 132.137C95.0425 132.57 95.3045 133.124 95.3045 133.798H94.0331C94.0331 133.452 93.8849 133.153 93.5887 132.903C93.2971 132.652 92.9279 132.527 92.4813 132.527C92.021 132.527 91.661 132.627 91.4012 132.827C91.1415 133.028 91.0116 133.29 91.0116 133.614C91.0116 133.919 91.1323 134.149 91.3739 134.304C91.6154 134.459 92.0506 134.607 92.6795 134.748C93.313 134.89 93.8257 135.058 94.2176 135.254C94.6096 135.45 94.8989 135.687 95.0858 135.965C95.2772 136.239 95.3729 136.574 95.3729 136.97C95.3729 137.631 95.1086 138.162 94.5799 138.563C94.0513 138.959 93.3654 139.158 92.5223 139.158C91.9299 139.158 91.4058 139.053 90.95 138.843C90.4943 138.633 90.1366 138.342 89.8768 137.968C89.6216 137.59 89.494 137.182 89.494 136.744H90.7586C90.7814 137.168 90.95 137.506 91.2645 137.756C91.5835 138.002 92.0028 138.125 92.5223 138.125C93.0008 138.125 93.3836 138.03 93.6707 137.838C93.9624 137.642 94.1082 137.382 94.1082 137.059ZM99.0848 135.596L98.2918 136.423V139.021H97.0272V128.521H98.2918V134.871L98.9686 134.058L101.272 131.624H102.81L99.9325 134.714L103.145 139.021H101.662L99.0848 135.596ZM109.298 133.429H110.248C110.845 133.42 111.314 133.263 111.656 132.957C111.998 132.652 112.169 132.24 112.169 131.72C112.169 130.553 111.588 129.97 110.426 129.97C109.879 129.97 109.441 130.127 109.113 130.442C108.79 130.752 108.628 131.164 108.628 131.679H107.363C107.363 130.891 107.65 130.237 108.224 129.717C108.803 129.193 109.537 128.931 110.426 128.931C111.364 128.931 112.1 129.179 112.634 129.676C113.167 130.173 113.433 130.863 113.433 131.747C113.433 132.18 113.292 132.6 113.01 133.005C112.732 133.411 112.351 133.714 111.868 133.914C112.415 134.088 112.836 134.375 113.133 134.776C113.433 135.177 113.584 135.667 113.584 136.245C113.584 137.139 113.292 137.847 112.709 138.371C112.126 138.895 111.367 139.158 110.432 139.158C109.498 139.158 108.737 138.905 108.149 138.399C107.566 137.893 107.274 137.225 107.274 136.396H108.546C108.546 136.92 108.717 137.339 109.058 137.654C109.4 137.968 109.858 138.125 110.432 138.125C111.043 138.125 111.51 137.966 111.834 137.647C112.157 137.328 112.319 136.87 112.319 136.273C112.319 135.694 112.141 135.25 111.786 134.94C111.431 134.63 110.918 134.47 110.248 134.461H109.298V133.429Z" fill="black"/>
<rect x="44.5" y="168.5" width="98.0741" height="27.7731" rx="3.5" fill="white" stroke="black"/>
<path d="M80.6874 178.323H77.4881V187.196H76.1825V178.323H72.9901V177.243H80.6874V178.323ZM85.7528 187.196C85.6799 187.05 85.6206 186.79 85.575 186.417C84.9872 187.027 84.2853 187.333 83.4696 187.333C82.7404 187.333 82.1411 187.128 81.6717 186.718C81.2069 186.303 80.9745 185.779 80.9745 185.145C80.9745 184.375 81.2661 183.778 81.8495 183.354C82.4374 182.926 83.2622 182.712 84.3241 182.712H85.5545V182.131C85.5545 181.689 85.4224 181.338 85.1581 181.078C84.8937 180.814 84.5041 180.681 83.9891 180.681C83.5379 180.681 83.1597 180.795 82.8543 181.023C82.549 181.251 82.3963 181.527 82.3963 181.85H81.1249C81.1249 181.481 81.2547 181.126 81.5145 180.784C81.7788 180.438 82.1343 180.164 82.5809 179.964C83.0321 179.763 83.5265 179.663 84.0643 179.663C84.9165 179.663 85.5842 179.877 86.0672 180.305C86.5503 180.729 86.801 181.315 86.8192 182.062V185.467C86.8192 186.146 86.9058 186.686 87.079 187.087V187.196H85.7528ZM83.6541 186.232C84.0506 186.232 84.4266 186.13 84.7821 185.925C85.1375 185.72 85.395 185.453 85.5545 185.125V183.607H84.5633C83.0138 183.607 82.2391 184.061 82.2391 184.968C82.2391 185.364 82.3713 185.674 82.6356 185.897C82.8999 186.121 83.2394 186.232 83.6541 186.232ZM93.1082 185.234C93.1082 184.892 92.9784 184.628 92.7186 184.441C92.4634 184.25 92.0145 184.086 91.3719 183.949C90.7339 183.812 90.2258 183.648 89.8475 183.457C89.4738 183.265 89.1958 183.038 89.0135 182.773C88.8358 182.509 88.7469 182.194 88.7469 181.83C88.7469 181.224 89.0021 180.711 89.5125 180.292C90.0275 179.873 90.6838 179.663 91.4813 179.663C92.3198 179.663 92.9989 179.879 93.5184 180.312C94.0425 180.745 94.3045 181.299 94.3045 181.973H93.0331C93.0331 181.627 92.8849 181.329 92.5887 181.078C92.2971 180.827 91.9279 180.702 91.4813 180.702C91.021 180.702 90.661 180.802 90.4012 181.003C90.1415 181.203 90.0116 181.465 90.0116 181.789C90.0116 182.094 90.1323 182.324 90.3739 182.479C90.6154 182.634 91.0506 182.782 91.6795 182.924C92.313 183.065 92.8257 183.234 93.2176 183.429C93.6096 183.625 93.8989 183.862 94.0858 184.14C94.2772 184.414 94.3729 184.749 94.3729 185.145C94.3729 185.806 94.1086 186.337 93.5799 186.738C93.0513 187.135 92.3654 187.333 91.5223 187.333C90.9299 187.333 90.4058 187.228 89.95 187.018C89.4943 186.809 89.1366 186.517 88.8768 186.143C88.6216 185.765 88.494 185.357 88.494 184.92H89.7586C89.7814 185.344 89.95 185.681 90.2645 185.931C90.5835 186.178 91.0028 186.301 91.5223 186.301C92.0008 186.301 92.3836 186.205 92.6707 186.013C92.9624 185.817 93.1082 185.558 93.1082 185.234ZM98.0848 183.771L97.2918 184.598V187.196H96.0272V176.696H97.2918V183.047L97.9686 182.233L100.272 179.8H101.81L98.9325 182.889L102.145 187.196H100.662L98.0848 183.771ZM111.798 183.853H113.179V184.886H111.798V187.196H110.526V184.886H105.994V184.14L110.451 177.243H111.798V183.853ZM107.43 183.853H110.526V178.972L110.376 179.246L107.43 183.853Z" fill="black"/>
<line x1="32.5" y1="226" x2="32.5" y2="16" stroke="black"/>
<line x1="157.5" y1="226" x2="157.5" y2="16" stroke="black"/>
<path d="M88.3464 213C88.8776 213 89.2878 213.152 89.5768 213.457C89.8659 213.754 90.0104 214.129 90.0104 214.582C90.0104 215.027 89.8659 215.398 89.5768 215.695C89.2878 215.984 88.8776 216.129 88.3464 216.129C87.8385 216.129 87.4362 215.984 87.1393 215.695C86.8424 215.406 86.694 215.035 86.694 214.582C86.694 214.129 86.8385 213.754 87.1276 213.457C87.4167 213.152 87.8229 213 88.3464 213ZM95.0495 213C95.5807 213 95.9909 213.152 96.2799 213.457C96.569 213.754 96.7135 214.129 96.7135 214.582C96.7135 215.027 96.569 215.398 96.2799 215.695C95.9909 215.984 95.5807 216.129 95.0495 216.129C94.5417 216.129 94.1393 215.984 93.8424 215.695C93.5456 215.406 93.3971 215.035 93.3971 214.582C93.3971 214.129 93.5417 213.754 93.8307 213.457C94.1198 213.152 94.526 213 95.0495 213ZM101.753 213C102.284 213 102.694 213.152 102.983 213.457C103.272 213.754 103.417 214.129 103.417 214.582C103.417 215.027 103.272 215.398 102.983 215.695C102.694 215.984 102.284 216.129 101.753 216.129C101.245 216.129 100.842 215.984 100.546 215.695C100.249 215.406 100.1 215.035 100.1 214.582C100.1 214.129 100.245 213.754 100.534 213.457C100.823 213.152 101.229 213 101.753 213Z" fill="black"/>
<path d="M37.7773 274.704C37.7773 274.142 37.5781 273.708 37.1797 273.403C36.7871 273.099 36.0752 272.791 35.0439 272.48C34.0127 272.17 33.1924 271.824 32.583 271.443C31.417 270.711 30.834 269.756 30.834 268.578C30.834 267.547 31.2529 266.697 32.0908 266.029C32.9346 265.361 34.0273 265.027 35.3691 265.027C36.2598 265.027 37.0537 265.191 37.751 265.52C38.4482 265.848 38.9961 266.316 39.3945 266.926C39.793 267.529 39.9922 268.2 39.9922 268.938H37.7773C37.7773 268.271 37.5664 267.749 37.1445 267.374C36.7285 266.993 36.1309 266.803 35.3516 266.803C34.625 266.803 34.0596 266.958 33.6553 267.269C33.2568 267.579 33.0576 268.013 33.0576 268.569C33.0576 269.038 33.2744 269.431 33.708 269.747C34.1416 270.058 34.8564 270.362 35.8525 270.661C36.8486 270.954 37.6484 271.291 38.252 271.672C38.8555 272.047 39.2979 272.48 39.5791 272.973C39.8604 273.459 40.001 274.03 40.001 274.687C40.001 275.753 39.5908 276.603 38.7705 277.235C37.9561 277.862 36.8486 278.176 35.4482 278.176C34.5225 278.176 33.6699 278.006 32.8906 277.666C32.1172 277.32 31.5137 276.846 31.0801 276.242C30.6523 275.639 30.4385 274.936 30.4385 274.133H32.6621C32.6621 274.859 32.9023 275.422 33.3828 275.82C33.8633 276.219 34.5518 276.418 35.4482 276.418C36.2217 276.418 36.8018 276.263 37.1885 275.952C37.5811 275.636 37.7773 275.22 37.7773 274.704ZM44.0176 278H41.8818V268.49H44.0176V278ZM41.75 266.021C41.75 265.692 41.8525 265.42 42.0576 265.203C42.2686 264.986 42.5674 264.878 42.9541 264.878C43.3408 264.878 43.6396 264.986 43.8506 265.203C44.0615 265.42 44.167 265.692 44.167 266.021C44.167 266.343 44.0615 266.612 43.8506 266.829C43.6396 267.04 43.3408 267.146 42.9541 267.146C42.5674 267.146 42.2686 267.04 42.0576 266.829C41.8525 266.612 41.75 266.343 41.75 266.021ZM48.333 268.49L48.3945 269.589C49.0977 268.739 50.0205 268.314 51.1631 268.314C53.1436 268.314 54.1514 269.448 54.1865 271.716V278H52.0508V271.839C52.0508 271.235 51.9189 270.79 51.6553 270.503C51.3975 270.21 50.9727 270.063 50.3809 270.063C49.5195 270.063 48.8779 270.453 48.4561 271.232V278H46.3203V268.49H48.333ZM55.9971 273.175C55.9971 271.698 56.3428 270.521 57.0342 269.642C57.7314 268.757 58.6543 268.314 59.8027 268.314C60.8867 268.314 61.7393 268.692 62.3604 269.448L62.457 268.49H64.3818V277.71C64.3818 278.958 63.9922 279.942 63.2129 280.663C62.4395 281.384 61.3936 281.744 60.0752 281.744C59.3779 281.744 58.6953 281.598 58.0273 281.305C57.3652 281.018 56.8613 280.64 56.5156 280.171L57.5264 278.888C58.1826 279.667 58.9912 280.057 59.9521 280.057C60.6611 280.057 61.2207 279.863 61.6309 279.477C62.041 279.096 62.2461 278.533 62.2461 277.789V277.147C61.6309 277.833 60.8105 278.176 59.7852 278.176C58.6719 278.176 57.7607 277.733 57.0518 276.849C56.3486 275.964 55.9971 274.739 55.9971 273.175ZM58.124 273.359C58.124 274.314 58.3174 275.067 58.7041 275.618C59.0967 276.163 59.6387 276.436 60.3301 276.436C61.1914 276.436 61.8301 276.066 62.2461 275.328V271.145C61.8418 270.424 61.209 270.063 60.3477 270.063C59.6445 270.063 59.0967 270.342 58.7041 270.898C58.3174 271.455 58.124 272.275 58.124 273.359ZM68.8555 278H66.7197V264.5H68.8555V278ZM75.377 278.176C74.0234 278.176 72.9248 277.751 72.0811 276.901C71.2432 276.046 70.8242 274.909 70.8242 273.491V273.228C70.8242 272.278 71.0059 271.432 71.3691 270.688C71.7383 269.938 72.2539 269.354 72.916 268.938C73.5781 268.522 74.3164 268.314 75.1309 268.314C76.4258 268.314 77.4248 268.728 78.1279 269.554C78.8369 270.38 79.1914 271.549 79.1914 273.061V273.922H72.9775C73.042 274.707 73.3027 275.328 73.7598 275.785C74.2227 276.242 74.8027 276.471 75.5 276.471C76.4785 276.471 77.2754 276.075 77.8906 275.284L79.042 276.383C78.6611 276.951 78.1514 277.394 77.5127 277.71C76.8799 278.021 76.168 278.176 75.377 278.176ZM75.1221 270.028C74.5361 270.028 74.0615 270.233 73.6982 270.644C73.3408 271.054 73.1123 271.625 73.0127 272.357H77.082V272.199C77.0352 271.484 76.8447 270.945 76.5107 270.582C76.1768 270.213 75.7139 270.028 75.1221 270.028ZM85.001 273.421H80.3867V271.698H85.001V273.421ZM89.4395 266.179V268.49H91.1182V270.072H89.4395V275.381C89.4395 275.744 89.5098 276.008 89.6504 276.172C89.7969 276.33 90.0547 276.409 90.4238 276.409C90.6699 276.409 90.9189 276.38 91.1709 276.321V277.974C90.6846 278.108 90.2158 278.176 89.7646 278.176C88.124 278.176 87.3037 277.271 87.3037 275.46V270.072H85.7393V268.49H87.3037V266.179H89.4395ZM94.8623 269.527C95.5596 268.719 96.4414 268.314 97.5078 268.314C99.5352 268.314 100.563 269.472 100.593 271.786V278H98.457V271.865C98.457 271.209 98.3135 270.746 98.0264 270.477C97.7451 270.201 97.3291 270.063 96.7783 270.063C95.9229 270.063 95.2842 270.444 94.8623 271.206V278H92.7266V264.5H94.8623V269.527ZM107.738 270.441C107.457 270.395 107.167 270.371 106.868 270.371C105.89 270.371 105.23 270.746 104.891 271.496V278H102.755V268.49H104.794L104.847 269.554C105.362 268.728 106.077 268.314 106.991 268.314C107.296 268.314 107.548 268.355 107.747 268.438L107.738 270.441ZM113.1 278.176C111.746 278.176 110.647 277.751 109.804 276.901C108.966 276.046 108.547 274.909 108.547 273.491V273.228C108.547 272.278 108.729 271.432 109.092 270.688C109.461 269.938 109.977 269.354 110.639 268.938C111.301 268.522 112.039 268.314 112.854 268.314C114.148 268.314 115.147 268.728 115.851 269.554C116.56 270.38 116.914 271.549 116.914 273.061V273.922H110.7C110.765 274.707 111.025 275.328 111.482 275.785C111.945 276.242 112.525 276.471 113.223 276.471C114.201 276.471 114.998 276.075 115.613 275.284L116.765 276.383C116.384 276.951 115.874 277.394 115.235 277.71C114.603 278.021 113.891 278.176 113.1 278.176ZM112.845 270.028C112.259 270.028 111.784 270.233 111.421 270.644C111.063 271.054 110.835 271.625 110.735 272.357H114.805V272.199C114.758 271.484 114.567 270.945 114.233 270.582C113.899 270.213 113.437 270.028 112.845 270.028ZM124.262 278C124.168 277.818 124.086 277.522 124.016 277.112C123.336 277.821 122.504 278.176 121.52 278.176C120.564 278.176 119.785 277.903 119.182 277.358C118.578 276.813 118.276 276.14 118.276 275.337C118.276 274.323 118.651 273.547 119.401 273.008C120.157 272.463 121.235 272.19 122.636 272.19H123.945V271.566C123.945 271.074 123.808 270.682 123.532 270.389C123.257 270.09 122.838 269.94 122.275 269.94C121.789 269.94 121.391 270.063 121.08 270.31C120.77 270.55 120.614 270.857 120.614 271.232H118.479C118.479 270.711 118.651 270.225 118.997 269.773C119.343 269.316 119.812 268.959 120.403 268.701C121.001 268.443 121.666 268.314 122.398 268.314C123.512 268.314 124.399 268.596 125.062 269.158C125.724 269.715 126.063 270.5 126.081 271.514V275.803C126.081 276.658 126.201 277.341 126.441 277.851V278H124.262ZM121.915 276.462C122.337 276.462 122.732 276.359 123.102 276.154C123.477 275.949 123.758 275.674 123.945 275.328V273.535H122.794C122.003 273.535 121.408 273.673 121.01 273.948C120.611 274.224 120.412 274.613 120.412 275.117C120.412 275.527 120.547 275.855 120.816 276.102C121.092 276.342 121.458 276.462 121.915 276.462ZM127.918 273.175C127.918 271.71 128.258 270.535 128.938 269.65C129.617 268.76 130.528 268.314 131.671 268.314C132.679 268.314 133.493 268.666 134.114 269.369V264.5H136.25V278H134.316L134.211 277.016C133.572 277.789 132.72 278.176 131.653 278.176C130.54 278.176 129.638 277.728 128.946 276.831C128.261 275.935 127.918 274.716 127.918 273.175ZM130.054 273.359C130.054 274.326 130.238 275.082 130.607 275.627C130.982 276.166 131.513 276.436 132.198 276.436C133.071 276.436 133.71 276.046 134.114 275.267V271.206C133.722 270.444 133.089 270.063 132.216 270.063C131.524 270.063 130.991 270.339 130.616 270.89C130.241 271.435 130.054 272.258 130.054 273.359ZM142.666 278.176C141.312 278.176 140.214 277.751 139.37 276.901C138.532 276.046 138.113 274.909 138.113 273.491V273.228C138.113 272.278 138.295 271.432 138.658 270.688C139.027 269.938 139.543 269.354 140.205 268.938C140.867 268.522 141.605 268.314 142.42 268.314C143.715 268.314 144.714 268.728 145.417 269.554C146.126 270.38 146.48 271.549 146.48 273.061V273.922H140.267C140.331 274.707 140.592 275.328 141.049 275.785C141.512 276.242 142.092 276.471 142.789 276.471C143.768 276.471 144.564 276.075 145.18 275.284L146.331 276.383C145.95 276.951 145.44 277.394 144.802 277.71C144.169 278.021 143.457 278.176 142.666 278.176ZM142.411 270.028C141.825 270.028 141.351 270.233 140.987 270.644C140.63 271.054 140.401 271.625 140.302 272.357H144.371V272.199C144.324 271.484 144.134 270.945 143.8 270.582C143.466 270.213 143.003 270.028 142.411 270.028ZM147.746 273.175C147.746 271.71 148.086 270.535 148.766 269.65C149.445 268.76 150.356 268.314 151.499 268.314C152.507 268.314 153.321 268.666 153.942 269.369V264.5H156.078V278H154.145L154.039 277.016C153.4 277.789 152.548 278.176 151.481 278.176C150.368 278.176 149.466 277.728 148.774 276.831C148.089 275.935 147.746 274.716 147.746 273.175ZM149.882 273.359C149.882 274.326 150.066 275.082 150.436 275.627C150.811 276.166 151.341 276.436 152.026 276.436C152.899 276.436 153.538 276.046 153.942 275.267V271.206C153.55 270.444 152.917 270.063 152.044 270.063C151.353 270.063 150.819 270.339 150.444 270.89C150.069 271.435 149.882 272.258 149.882 273.359Z" fill="black"/>
<path d="M263.938 266.203L267.63 276.012L271.312 266.203H274.187V279H271.972V274.781L272.191 269.139L268.412 279H266.821L263.051 269.147L263.271 274.781V279H261.056V266.203H263.938ZM282.378 278.068C281.751 278.807 280.86 279.176 279.706 279.176C278.675 279.176 277.893 278.874 277.359 278.271C276.832 277.667 276.568 276.794 276.568 275.651V269.49H278.704V275.625C278.704 276.832 279.205 277.436 280.207 277.436C281.244 277.436 281.944 277.063 282.308 276.319V269.49H284.443V279H282.431L282.378 278.068ZM288.891 279H286.755V265.5H288.891V279ZM293.9 267.179V269.49H295.579V271.072H293.9V276.381C293.9 276.744 293.971 277.008 294.111 277.172C294.258 277.33 294.516 277.409 294.885 277.409C295.131 277.409 295.38 277.38 295.632 277.321V278.974C295.146 279.108 294.677 279.176 294.226 279.176C292.585 279.176 291.765 278.271 291.765 276.46V271.072H290.2V269.49H291.765V267.179H293.9ZM299.49 279H297.354V269.49H299.49V279ZM297.223 267.021C297.223 266.692 297.325 266.42 297.53 266.203C297.741 265.986 298.04 265.878 298.427 265.878C298.813 265.878 299.112 265.986 299.323 266.203C299.534 266.42 299.64 266.692 299.64 267.021C299.64 267.343 299.534 267.612 299.323 267.829C299.112 268.04 298.813 268.146 298.427 268.146C298.04 268.146 297.741 268.04 297.53 267.829C297.325 267.612 297.223 267.343 297.223 267.021ZM304.5 267.179V269.49H306.179V271.072H304.5V276.381C304.5 276.744 304.57 277.008 304.711 277.172C304.857 277.33 305.115 277.409 305.484 277.409C305.73 277.409 305.979 277.38 306.231 277.321V278.974C305.745 279.108 305.276 279.176 304.825 279.176C303.185 279.176 302.364 278.271 302.364 276.46V271.072H300.8V269.49H302.364V267.179H304.5ZM309.923 270.527C310.62 269.719 311.502 269.314 312.568 269.314C314.596 269.314 315.624 270.472 315.653 272.786V279H313.518V272.865C313.518 272.209 313.374 271.746 313.087 271.477C312.806 271.201 312.39 271.063 311.839 271.063C310.983 271.063 310.345 271.444 309.923 272.206V279H307.787V265.5H309.923V270.527ZM322.799 271.441C322.518 271.395 322.228 271.371 321.929 271.371C320.95 271.371 320.291 271.746 319.951 272.496V279H317.815V269.49H319.854L319.907 270.554C320.423 269.728 321.138 269.314 322.052 269.314C322.356 269.314 322.608 269.355 322.808 269.438L322.799 271.441ZM328.16 279.176C326.807 279.176 325.708 278.751 324.864 277.901C324.026 277.046 323.607 275.909 323.607 274.491V274.228C323.607 273.278 323.789 272.432 324.152 271.688C324.521 270.938 325.037 270.354 325.699 269.938C326.361 269.522 327.1 269.314 327.914 269.314C329.209 269.314 330.208 269.728 330.911 270.554C331.62 271.38 331.975 272.549 331.975 274.061V274.922H325.761C325.825 275.707 326.086 276.328 326.543 276.785C327.006 277.242 327.586 277.471 328.283 277.471C329.262 277.471 330.059 277.075 330.674 276.284L331.825 277.383C331.444 277.951 330.935 278.394 330.296 278.71C329.663 279.021 328.951 279.176 328.16 279.176ZM327.905 271.028C327.319 271.028 326.845 271.233 326.481 271.644C326.124 272.054 325.896 272.625 325.796 273.357H329.865V273.199C329.818 272.484 329.628 271.945 329.294 271.582C328.96 271.213 328.497 271.028 327.905 271.028ZM339.322 279C339.229 278.818 339.146 278.522 339.076 278.112C338.396 278.821 337.564 279.176 336.58 279.176C335.625 279.176 334.846 278.903 334.242 278.358C333.639 277.813 333.337 277.14 333.337 276.337C333.337 275.323 333.712 274.547 334.462 274.008C335.218 273.463 336.296 273.19 337.696 273.19H339.006V272.566C339.006 272.074 338.868 271.682 338.593 271.389C338.317 271.09 337.898 270.94 337.336 270.94C336.85 270.94 336.451 271.063 336.141 271.31C335.83 271.55 335.675 271.857 335.675 272.232H333.539C333.539 271.711 333.712 271.225 334.058 270.773C334.403 270.316 334.872 269.959 335.464 269.701C336.062 269.443 336.727 269.314 337.459 269.314C338.572 269.314 339.46 269.596 340.122 270.158C340.784 270.715 341.124 271.5 341.142 272.514V276.803C341.142 277.658 341.262 278.341 341.502 278.851V279H339.322ZM336.976 277.462C337.397 277.462 337.793 277.359 338.162 277.154C338.537 276.949 338.818 276.674 339.006 276.328V274.535H337.854C337.063 274.535 336.469 274.673 336.07 274.948C335.672 275.224 335.473 275.613 335.473 276.117C335.473 276.527 335.607 276.855 335.877 277.102C336.152 277.342 336.519 277.462 336.976 277.462ZM342.979 274.175C342.979 272.71 343.318 271.535 343.998 270.65C344.678 269.76 345.589 269.314 346.731 269.314C347.739 269.314 348.554 269.666 349.175 270.369V265.5H351.311V279H349.377L349.271 278.016C348.633 278.789 347.78 279.176 346.714 279.176C345.601 279.176 344.698 278.728 344.007 277.831C343.321 276.935 342.979 275.716 342.979 274.175ZM345.114 274.359C345.114 275.326 345.299 276.082 345.668 276.627C346.043 277.166 346.573 277.436 347.259 277.436C348.132 277.436 348.771 277.046 349.175 276.267V272.206C348.782 271.444 348.149 271.063 347.276 271.063C346.585 271.063 346.052 271.339 345.677 271.89C345.302 272.435 345.114 273.258 345.114 274.359ZM357.727 279.176C356.373 279.176 355.274 278.751 354.431 277.901C353.593 277.046 353.174 275.909 353.174 274.491V274.228C353.174 273.278 353.355 272.432 353.719 271.688C354.088 270.938 354.604 270.354 355.266 269.938C355.928 269.522 356.666 269.314 357.48 269.314C358.775 269.314 359.774 269.728 360.478 270.554C361.187 271.38 361.541 272.549 361.541 274.061V274.922H355.327C355.392 275.707 355.652 276.328 356.109 276.785C356.572 277.242 357.152 277.471 357.85 277.471C358.828 277.471 359.625 277.075 360.24 276.284L361.392 277.383C361.011 277.951 360.501 278.394 359.862 278.71C359.229 279.021 358.518 279.176 357.727 279.176ZM357.472 271.028C356.886 271.028 356.411 271.233 356.048 271.644C355.69 272.054 355.462 272.625 355.362 273.357H359.432V273.199C359.385 272.484 359.194 271.945 358.86 271.582C358.526 271.213 358.063 271.028 357.472 271.028ZM362.807 274.175C362.807 272.71 363.146 271.535 363.826 270.65C364.506 269.76 365.417 269.314 366.56 269.314C367.567 269.314 368.382 269.666 369.003 270.369V265.5H371.139V279H369.205L369.1 278.016C368.461 278.789 367.608 279.176 366.542 279.176C365.429 279.176 364.526 278.728 363.835 277.831C363.149 276.935 362.807 275.716 362.807 274.175ZM364.942 274.359C364.942 275.326 365.127 276.082 365.496 276.627C365.871 277.166 366.401 277.436 367.087 277.436C367.96 277.436 368.599 277.046 369.003 276.267V272.206C368.61 271.444 367.978 271.063 367.104 271.063C366.413 271.063 365.88 271.339 365.505 271.89C365.13 272.435 364.942 273.258 364.942 274.359ZM377.88 273.797C377.88 272.443 378.062 271.16 378.425 269.947C378.788 268.729 379.321 267.642 380.024 266.687C380.728 265.726 381.472 265.052 382.257 264.665L382.679 265.913C381.853 266.54 381.182 267.498 380.666 268.787C380.156 270.07 379.878 271.541 379.831 273.199L379.822 273.955C379.822 275.73 380.071 277.315 380.569 278.71C381.073 280.099 381.776 281.156 382.679 281.883L382.257 283.069C381.472 282.683 380.725 282.006 380.016 281.039C379.312 280.078 378.779 278.994 378.416 277.787C378.059 276.574 377.88 275.244 377.88 273.797ZM389.455 276.416C389.455 276.035 389.297 275.745 388.98 275.546C388.67 275.347 388.151 275.171 387.425 275.019C386.698 274.866 386.092 274.673 385.605 274.438C384.539 273.923 384.006 273.176 384.006 272.197C384.006 271.377 384.352 270.691 385.043 270.141C385.734 269.59 386.613 269.314 387.68 269.314C388.816 269.314 389.733 269.596 390.431 270.158C391.134 270.721 391.485 271.45 391.485 272.347H389.35C389.35 271.937 389.197 271.597 388.893 271.327C388.588 271.052 388.184 270.914 387.68 270.914C387.211 270.914 386.827 271.022 386.528 271.239C386.235 271.456 386.089 271.746 386.089 272.109C386.089 272.438 386.227 272.692 386.502 272.874C386.777 273.056 387.334 273.24 388.172 273.428C389.01 273.609 389.666 273.829 390.141 274.087C390.621 274.339 390.976 274.644 391.204 275.001C391.438 275.358 391.556 275.792 391.556 276.302C391.556 277.157 391.201 277.852 390.492 278.385C389.783 278.912 388.854 279.176 387.706 279.176C386.927 279.176 386.232 279.035 385.623 278.754C385.014 278.473 384.539 278.086 384.199 277.594C383.859 277.102 383.689 276.571 383.689 276.003H385.764C385.793 276.507 385.983 276.896 386.335 277.172C386.687 277.441 387.152 277.576 387.732 277.576C388.295 277.576 388.723 277.471 389.016 277.26C389.309 277.043 389.455 276.762 389.455 276.416ZM396.1 267.179V269.49H397.778V271.072H396.1V276.381C396.1 276.744 396.17 277.008 396.311 277.172C396.457 277.33 396.715 277.409 397.084 277.409C397.33 277.409 397.579 277.38 397.831 277.321V278.974C397.345 279.108 396.876 279.176 396.425 279.176C394.784 279.176 393.964 278.271 393.964 276.46V271.072H392.399V269.49H393.964V267.179H396.1ZM399.018 274.175C399.018 272.71 399.357 271.535 400.037 270.65C400.717 269.76 401.628 269.314 402.771 269.314C403.778 269.314 404.593 269.666 405.214 270.369V265.5H407.35V279H405.416L405.311 278.016C404.672 278.789 403.819 279.176 402.753 279.176C401.64 279.176 400.737 278.728 400.046 277.831C399.36 276.935 399.018 275.716 399.018 274.175ZM401.153 274.359C401.153 275.326 401.338 276.082 401.707 276.627C402.082 277.166 402.612 277.436 403.298 277.436C404.171 277.436 404.81 277.046 405.214 276.267V272.206C404.821 271.444 404.188 271.063 403.315 271.063C402.624 271.063 402.091 271.339 401.716 271.89C401.341 272.435 401.153 273.258 401.153 274.359ZM410.865 276.75C411.264 276.75 411.571 276.864 411.788 277.093C412.005 277.315 412.113 277.597 412.113 277.937C412.113 278.271 412.005 278.549 411.788 278.771C411.571 278.988 411.264 279.097 410.865 279.097C410.484 279.097 410.183 278.988 409.96 278.771C409.737 278.555 409.626 278.276 409.626 277.937C409.626 277.597 409.734 277.315 409.951 277.093C410.168 276.864 410.473 276.75 410.865 276.75ZM410.865 269.288C411.264 269.288 411.571 269.402 411.788 269.631C412.005 269.854 412.113 270.135 412.113 270.475C412.113 270.809 412.005 271.087 411.788 271.31C411.571 271.526 411.264 271.635 410.865 271.635C410.484 271.635 410.183 271.526 409.96 271.31C409.737 271.093 409.626 270.814 409.626 270.475C409.626 270.135 409.734 269.854 409.951 269.631C410.168 269.402 410.473 269.288 410.865 269.288ZM415.646 276.75C416.045 276.75 416.353 276.864 416.569 277.093C416.786 277.315 416.895 277.597 416.895 277.937C416.895 278.271 416.786 278.549 416.569 278.771C416.353 278.988 416.045 279.097 415.646 279.097C415.266 279.097 414.964 278.988 414.741 278.771C414.519 278.555 414.407 278.276 414.407 277.937C414.407 277.597 414.516 277.315 414.732 277.093C414.949 276.864 415.254 276.75 415.646 276.75ZM415.646 269.288C416.045 269.288 416.353 269.402 416.569 269.631C416.786 269.854 416.895 270.135 416.895 270.475C416.895 270.809 416.786 271.087 416.569 271.31C416.353 271.526 416.045 271.635 415.646 271.635C415.266 271.635 414.964 271.526 414.741 271.31C414.519 271.093 414.407 270.814 414.407 270.475C414.407 270.135 414.516 269.854 414.732 269.631C414.949 269.402 415.254 269.288 415.646 269.288ZM421.816 267.179V269.49H423.495V271.072H421.816V276.381C421.816 276.744 421.887 277.008 422.027 277.172C422.174 277.33 422.432 277.409 422.801 277.409C423.047 277.409 423.296 277.38 423.548 277.321V278.974C423.062 279.108 422.593 279.176 422.142 279.176C420.501 279.176 419.681 278.271 419.681 276.46V271.072H418.116V269.49H419.681V267.179H421.816ZM427.239 270.527C427.937 269.719 428.818 269.314 429.885 269.314C431.912 269.314 432.94 270.472 432.97 272.786V279H430.834V272.865C430.834 272.209 430.69 271.746 430.403 271.477C430.122 271.201 429.706 271.063 429.155 271.063C428.3 271.063 427.661 271.444 427.239 272.206V279H425.104V265.5H427.239V270.527ZM440.115 271.441C439.834 271.395 439.544 271.371 439.245 271.371C438.267 271.371 437.607 271.746 437.268 272.496V279H435.132V269.49H437.171L437.224 270.554C437.739 269.728 438.454 269.314 439.368 269.314C439.673 269.314 439.925 269.355 440.124 269.438L440.115 271.441ZM445.477 279.176C444.123 279.176 443.024 278.751 442.181 277.901C441.343 277.046 440.924 275.909 440.924 274.491V274.228C440.924 273.278 441.105 272.432 441.469 271.688C441.838 270.938 442.354 270.354 443.016 269.938C443.678 269.522 444.416 269.314 445.23 269.314C446.525 269.314 447.524 269.728 448.228 270.554C448.937 271.38 449.291 272.549 449.291 274.061V274.922H443.077C443.142 275.707 443.402 276.328 443.859 276.785C444.322 277.242 444.902 277.471 445.6 277.471C446.578 277.471 447.375 277.075 447.99 276.284L449.142 277.383C448.761 277.951 448.251 278.394 447.612 278.71C446.979 279.021 446.268 279.176 445.477 279.176ZM445.222 271.028C444.636 271.028 444.161 271.233 443.798 271.644C443.44 272.054 443.212 272.625 443.112 273.357H447.182V273.199C447.135 272.484 446.944 271.945 446.61 271.582C446.276 271.213 445.813 271.028 445.222 271.028ZM456.639 279C456.545 278.818 456.463 278.522 456.393 278.112C455.713 278.821 454.881 279.176 453.896 279.176C452.941 279.176 452.162 278.903 451.559 278.358C450.955 277.813 450.653 277.14 450.653 276.337C450.653 275.323 451.028 274.547 451.778 274.008C452.534 273.463 453.612 273.19 455.013 273.19H456.322V272.566C456.322 272.074 456.185 271.682 455.909 271.389C455.634 271.09 455.215 270.94 454.652 270.94C454.166 270.94 453.768 271.063 453.457 271.31C453.146 271.55 452.991 271.857 452.991 272.232H450.855C450.855 271.711 451.028 271.225 451.374 270.773C451.72 270.316 452.188 269.959 452.78 269.701C453.378 269.443 454.043 269.314 454.775 269.314C455.889 269.314 456.776 269.596 457.438 270.158C458.101 270.715 458.44 271.5 458.458 272.514V276.803C458.458 277.658 458.578 278.341 458.818 278.851V279H456.639ZM454.292 277.462C454.714 277.462 455.109 277.359 455.479 277.154C455.854 276.949 456.135 276.674 456.322 276.328V274.535H455.171C454.38 274.535 453.785 274.673 453.387 274.948C452.988 275.224 452.789 275.613 452.789 276.117C452.789 276.527 452.924 276.855 453.193 277.102C453.469 277.342 453.835 277.462 454.292 277.462ZM460.295 274.175C460.295 272.71 460.635 271.535 461.314 270.65C461.994 269.76 462.905 269.314 464.048 269.314C465.056 269.314 465.87 269.666 466.491 270.369V265.5H468.627V279H466.693L466.588 278.016C465.949 278.789 465.097 279.176 464.03 279.176C462.917 279.176 462.015 278.728 461.323 277.831C460.638 276.935 460.295 275.716 460.295 274.175ZM462.431 274.359C462.431 275.326 462.615 276.082 462.984 276.627C463.359 277.166 463.89 277.436 464.575 277.436C465.448 277.436 466.087 277.046 466.491 276.267V272.206C466.099 271.444 465.466 271.063 464.593 271.063C463.901 271.063 463.368 271.339 462.993 271.89C462.618 272.435 462.431 273.258 462.431 274.359ZM472.143 276.75C472.541 276.75 472.849 276.864 473.065 277.093C473.282 277.315 473.391 277.597 473.391 277.937C473.391 278.271 473.282 278.549 473.065 278.771C472.849 278.988 472.541 279.097 472.143 279.097C471.762 279.097 471.46 278.988 471.237 278.771C471.015 278.555 470.903 278.276 470.903 277.937C470.903 277.597 471.012 277.315 471.229 277.093C471.445 276.864 471.75 276.75 472.143 276.75ZM472.143 269.288C472.541 269.288 472.849 269.402 473.065 269.631C473.282 269.854 473.391 270.135 473.391 270.475C473.391 270.809 473.282 271.087 473.065 271.31C472.849 271.526 472.541 271.635 472.143 271.635C471.762 271.635 471.46 271.526 471.237 271.31C471.015 271.093 470.903 270.814 470.903 270.475C470.903 270.135 471.012 269.854 471.229 269.631C471.445 269.402 471.75 269.288 472.143 269.288ZM476.924 276.75C477.322 276.75 477.63 276.864 477.847 277.093C478.063 277.315 478.172 277.597 478.172 277.937C478.172 278.271 478.063 278.549 477.847 278.771C477.63 278.988 477.322 279.097 476.924 279.097C476.543 279.097 476.241 278.988 476.019 278.771C475.796 278.555 475.685 278.276 475.685 277.937C475.685 277.597 475.793 277.315 476.01 277.093C476.227 276.864 476.531 276.75 476.924 276.75ZM476.924 269.288C477.322 269.288 477.63 269.402 477.847 269.631C478.063 269.854 478.172 270.135 478.172 270.475C478.172 270.809 478.063 271.087 477.847 271.31C477.63 271.526 477.322 271.635 476.924 271.635C476.543 271.635 476.241 271.526 476.019 271.31C475.796 271.093 475.685 270.814 475.685 270.475C475.685 270.135 475.793 269.854 476.01 269.631C476.227 269.402 476.531 269.288 476.924 269.288ZM485.748 276.416C485.748 276.035 485.59 275.745 485.273 275.546C484.963 275.347 484.444 275.171 483.718 275.019C482.991 274.866 482.385 274.673 481.898 274.438C480.832 273.923 480.299 273.176 480.299 272.197C480.299 271.377 480.645 270.691 481.336 270.141C482.027 269.59 482.906 269.314 483.973 269.314C485.109 269.314 486.026 269.596 486.724 270.158C487.427 270.721 487.778 271.45 487.778 272.347H485.643C485.643 271.937 485.49 271.597 485.186 271.327C484.881 271.052 484.477 270.914 483.973 270.914C483.504 270.914 483.12 271.022 482.821 271.239C482.528 271.456 482.382 271.746 482.382 272.109C482.382 272.438 482.52 272.692 482.795 272.874C483.07 273.056 483.627 273.24 484.465 273.428C485.303 273.609 485.959 273.829 486.434 274.087C486.914 274.339 487.269 274.644 487.497 275.001C487.731 275.358 487.849 275.792 487.849 276.302C487.849 277.157 487.494 277.852 486.785 278.385C486.076 278.912 485.147 279.176 483.999 279.176C483.22 279.176 482.525 279.035 481.916 278.754C481.307 278.473 480.832 278.086 480.492 277.594C480.152 277.102 479.982 276.571 479.982 276.003H482.057C482.086 276.507 482.276 276.896 482.628 277.172C482.979 277.441 483.445 277.576 484.025 277.576C484.588 277.576 485.016 277.471 485.309 277.26C485.602 277.043 485.748 276.762 485.748 276.416ZM498.044 274.342C498.044 275.812 497.71 276.987 497.042 277.866C496.374 278.739 495.478 279.176 494.353 279.176C493.31 279.176 492.475 278.833 491.848 278.147V282.656H489.712V269.49H491.681L491.769 270.457C492.396 269.695 493.248 269.314 494.326 269.314C495.486 269.314 496.395 269.748 497.051 270.615C497.713 271.477 498.044 272.675 498.044 274.21V274.342ZM495.917 274.157C495.917 273.208 495.727 272.455 495.346 271.898C494.971 271.342 494.432 271.063 493.729 271.063C492.855 271.063 492.229 271.424 491.848 272.145V276.363C492.234 277.102 492.867 277.471 493.746 277.471C494.426 277.471 494.956 277.198 495.337 276.653C495.724 276.103 495.917 275.271 495.917 274.157ZM505.541 279C505.447 278.818 505.365 278.522 505.295 278.112C504.615 278.821 503.783 279.176 502.799 279.176C501.844 279.176 501.064 278.903 500.461 278.358C499.857 277.813 499.556 277.14 499.556 276.337C499.556 275.323 499.931 274.547 500.681 274.008C501.437 273.463 502.515 273.19 503.915 273.19H505.225V272.566C505.225 272.074 505.087 271.682 504.812 271.389C504.536 271.09 504.117 270.94 503.555 270.94C503.068 270.94 502.67 271.063 502.359 271.31C502.049 271.55 501.894 271.857 501.894 272.232H499.758C499.758 271.711 499.931 271.225 500.276 270.773C500.622 270.316 501.091 269.959 501.683 269.701C502.28 269.443 502.945 269.314 503.678 269.314C504.791 269.314 505.679 269.596 506.341 270.158C507.003 270.715 507.343 271.5 507.36 272.514V276.803C507.36 277.658 507.48 278.341 507.721 278.851V279H505.541ZM503.194 277.462C503.616 277.462 504.012 277.359 504.381 277.154C504.756 276.949 505.037 276.674 505.225 276.328V274.535H504.073C503.282 274.535 502.688 274.673 502.289 274.948C501.891 275.224 501.691 275.613 501.691 276.117C501.691 276.527 501.826 276.855 502.096 277.102C502.371 277.342 502.737 277.462 503.194 277.462ZM517.951 276.056L519.463 269.49H521.546L518.953 279H517.195L515.156 272.47L513.152 279H511.395L508.793 269.49H510.876L512.414 275.985L514.365 269.49H515.974L517.951 276.056ZM524.956 269.49L525.018 270.589C525.721 269.739 526.644 269.314 527.786 269.314C529.767 269.314 530.774 270.448 530.81 272.716V279H528.674V272.839C528.674 272.235 528.542 271.79 528.278 271.503C528.021 271.21 527.596 271.063 527.004 271.063C526.143 271.063 525.501 271.453 525.079 272.232V279H522.943V269.49H524.956ZM537.111 273.938C537.111 275.238 536.933 276.495 536.575 277.708C536.218 278.915 535.676 280.014 534.949 281.004C534.223 282 533.464 282.688 532.673 283.069L532.251 281.883C533.13 281.203 533.824 280.166 534.334 278.771C534.85 277.371 535.107 275.774 535.107 273.981V273.779C535.107 272.15 534.885 270.668 534.439 269.332C533.994 267.99 533.355 266.915 532.523 266.106L532.251 265.86L532.673 264.665C533.423 265.028 534.149 265.673 534.853 266.599C535.556 267.524 536.095 268.562 536.47 269.71C536.845 270.853 537.056 272.033 537.103 273.252L537.111 273.938Z" fill="black"/>
<path d="M255.449 211.52H252.346V220.078H250.63V211.52H247.554V210.125H255.449V211.52ZM258.238 213.489C258.781 212.86 259.466 212.545 260.296 212.545C261.873 212.545 262.673 213.445 262.695 215.245V220.078H261.034V215.307C261.034 214.796 260.923 214.436 260.699 214.227C260.48 214.013 260.157 213.906 259.729 213.906C259.063 213.906 258.566 214.202 258.238 214.794V220.078H256.577V209.578H258.238V213.489ZM268.253 214.199C268.034 214.163 267.809 214.145 267.576 214.145C266.815 214.145 266.302 214.436 266.038 215.02V220.078H264.377V212.682H265.963L266.004 213.509C266.405 212.866 266.961 212.545 267.672 212.545C267.909 212.545 268.105 212.577 268.26 212.641L268.253 214.199ZM272.423 220.215C271.37 220.215 270.516 219.885 269.859 219.224C269.208 218.559 268.882 217.674 268.882 216.572V216.366C268.882 215.628 269.023 214.97 269.306 214.391C269.593 213.808 269.994 213.354 270.509 213.031C271.024 212.707 271.598 212.545 272.231 212.545C273.239 212.545 274.016 212.866 274.562 213.509C275.114 214.152 275.39 215.061 275.39 216.237V216.906H270.557C270.607 217.517 270.81 218 271.165 218.356C271.525 218.711 271.976 218.889 272.519 218.889C273.28 218.889 273.899 218.581 274.378 217.966L275.273 218.821C274.977 219.263 274.581 219.607 274.084 219.853C273.592 220.094 273.038 220.215 272.423 220.215ZM272.225 213.878C271.769 213.878 271.4 214.038 271.117 214.357C270.839 214.676 270.661 215.12 270.584 215.69H273.749V215.567C273.713 215.011 273.564 214.591 273.305 214.309C273.045 214.022 272.685 213.878 272.225 213.878ZM281.104 220.078C281.032 219.937 280.968 219.707 280.913 219.388C280.384 219.939 279.737 220.215 278.972 220.215C278.229 220.215 277.623 220.003 277.153 219.579C276.684 219.156 276.449 218.631 276.449 218.007C276.449 217.219 276.741 216.615 277.324 216.196C277.912 215.772 278.751 215.56 279.84 215.56H280.858V215.074C280.858 214.692 280.751 214.386 280.537 214.158C280.323 213.926 279.997 213.81 279.56 213.81C279.181 213.81 278.871 213.906 278.63 214.097C278.388 214.284 278.268 214.523 278.268 214.815H276.606C276.606 214.409 276.741 214.031 277.01 213.68C277.279 213.324 277.643 213.046 278.104 212.846C278.568 212.645 279.086 212.545 279.655 212.545C280.521 212.545 281.212 212.764 281.727 213.201C282.242 213.634 282.506 214.245 282.52 215.033V218.369C282.52 219.035 282.613 219.566 282.8 219.962V220.078H281.104ZM279.279 218.882C279.607 218.882 279.915 218.802 280.202 218.643C280.494 218.483 280.713 218.269 280.858 218V216.606H279.963C279.348 216.606 278.885 216.713 278.575 216.927C278.265 217.141 278.11 217.444 278.11 217.836C278.11 218.155 278.215 218.41 278.425 218.602C278.639 218.789 278.924 218.882 279.279 218.882ZM283.948 216.325C283.948 215.186 284.213 214.272 284.741 213.584C285.27 212.892 285.979 212.545 286.867 212.545C287.651 212.545 288.285 212.819 288.768 213.365V209.578H290.429V220.078H288.925L288.843 219.313C288.346 219.914 287.683 220.215 286.854 220.215C285.988 220.215 285.286 219.866 284.748 219.169C284.215 218.472 283.948 217.524 283.948 216.325ZM285.609 216.469C285.609 217.221 285.753 217.809 286.04 218.233C286.332 218.652 286.744 218.862 287.277 218.862C287.956 218.862 288.453 218.559 288.768 217.952V214.794C288.462 214.202 287.97 213.906 287.291 213.906C286.753 213.906 286.339 214.12 286.047 214.548C285.755 214.972 285.609 215.612 285.609 216.469ZM300.04 220.078H298.386V212.087L295.945 212.921V211.52L299.828 210.091H300.04V220.078Z" fill="black"/>
<path d="M380.449 211.52H377.346V220.078H375.63V211.52H372.554V210.125H380.449V211.52ZM383.238 213.489C383.781 212.86 384.466 212.545 385.296 212.545C386.873 212.545 387.673 213.445 387.695 215.245V220.078H386.034V215.307C386.034 214.796 385.923 214.436 385.699 214.227C385.48 214.013 385.157 213.906 384.729 213.906C384.063 213.906 383.566 214.202 383.238 214.794V220.078H381.577V209.578H383.238V213.489ZM393.253 214.199C393.034 214.163 392.809 214.145 392.576 214.145C391.815 214.145 391.302 214.436 391.038 215.02V220.078H389.377V212.682H390.963L391.004 213.509C391.405 212.866 391.961 212.545 392.672 212.545C392.909 212.545 393.105 212.577 393.26 212.641L393.253 214.199ZM397.423 220.215C396.37 220.215 395.516 219.885 394.859 219.224C394.208 218.559 393.882 217.674 393.882 216.572V216.366C393.882 215.628 394.023 214.97 394.306 214.391C394.593 213.808 394.994 213.354 395.509 213.031C396.024 212.707 396.598 212.545 397.231 212.545C398.239 212.545 399.016 212.866 399.562 213.509C400.114 214.152 400.39 215.061 400.39 216.237V216.906H395.557C395.607 217.517 395.81 218 396.165 218.356C396.525 218.711 396.976 218.889 397.519 218.889C398.28 218.889 398.899 218.581 399.378 217.966L400.273 218.821C399.977 219.263 399.581 219.607 399.084 219.853C398.592 220.094 398.038 220.215 397.423 220.215ZM397.225 213.878C396.769 213.878 396.4 214.038 396.117 214.357C395.839 214.676 395.661 215.12 395.584 215.69H398.749V215.567C398.713 215.011 398.564 214.591 398.305 214.309C398.045 214.022 397.685 213.878 397.225 213.878ZM406.104 220.078C406.032 219.937 405.968 219.707 405.913 219.388C405.384 219.939 404.737 220.215 403.972 220.215C403.229 220.215 402.623 220.003 402.153 219.579C401.684 219.156 401.449 218.631 401.449 218.007C401.449 217.219 401.741 216.615 402.324 216.196C402.912 215.772 403.751 215.56 404.84 215.56H405.858V215.074C405.858 214.692 405.751 214.386 405.537 214.158C405.323 213.926 404.997 213.81 404.56 213.81C404.181 213.81 403.871 213.906 403.63 214.097C403.388 214.284 403.268 214.523 403.268 214.815H401.606C401.606 214.409 401.741 214.031 402.01 213.68C402.279 213.324 402.643 213.046 403.104 212.846C403.568 212.645 404.086 212.545 404.655 212.545C405.521 212.545 406.212 212.764 406.727 213.201C407.242 213.634 407.506 214.245 407.52 215.033V218.369C407.52 219.035 407.613 219.566 407.8 219.962V220.078H406.104ZM404.279 218.882C404.607 218.882 404.915 218.802 405.202 218.643C405.494 218.483 405.713 218.269 405.858 218V216.606H404.963C404.348 216.606 403.885 216.713 403.575 216.927C403.265 217.141 403.11 217.444 403.11 217.836C403.11 218.155 403.215 218.41 403.425 218.602C403.639 218.789 403.924 218.882 404.279 218.882ZM408.948 216.325C408.948 215.186 409.213 214.272 409.741 213.584C410.27 212.892 410.979 212.545 411.867 212.545C412.651 212.545 413.285 212.819 413.768 213.365V209.578H415.429V220.078H413.925L413.843 219.313C413.346 219.914 412.683 220.215 411.854 220.215C410.988 220.215 410.286 219.866 409.748 219.169C409.215 218.472 408.948 217.524 408.948 216.325ZM410.609 216.469C410.609 217.221 410.753 217.809 411.04 218.233C411.332 218.652 411.744 218.862 412.277 218.862C412.956 218.862 413.453 218.559 413.768 217.952V214.794C413.462 214.202 412.97 213.906 412.291 213.906C411.753 213.906 411.339 214.12 411.047 214.548C410.755 214.972 410.609 215.612 410.609 216.469ZM427.234 220.078H420.542V218.937L423.857 215.321C424.336 214.787 424.675 214.343 424.876 213.988C425.081 213.628 425.184 213.267 425.184 212.907C425.184 212.434 425.049 212.051 424.78 211.759C424.516 211.467 424.158 211.322 423.707 211.322C423.169 211.322 422.752 211.486 422.456 211.814C422.16 212.142 422.012 212.591 422.012 213.16H420.351C420.351 212.554 420.487 212.01 420.761 211.527C421.039 211.039 421.433 210.661 421.943 210.392C422.458 210.123 423.051 209.989 423.721 209.989C424.687 209.989 425.448 210.232 426.004 210.72C426.564 211.203 426.845 211.873 426.845 212.73C426.845 213.226 426.703 213.748 426.421 214.295C426.143 214.837 425.685 215.455 425.047 216.148L422.613 218.752H427.234V220.078Z" fill="black"/>
<path d="M505.449 211.52H502.346V220.078H500.63V211.52H497.554V210.125H505.449V211.52ZM508.238 213.489C508.781 212.86 509.466 212.545 510.296 212.545C511.873 212.545 512.673 213.445 512.695 215.245V220.078H511.034V215.307C511.034 214.796 510.923 214.436 510.699 214.227C510.48 214.013 510.157 213.906 509.729 213.906C509.063 213.906 508.566 214.202 508.238 214.794V220.078H506.577V209.578H508.238V213.489ZM518.253 214.199C518.034 214.163 517.809 214.145 517.576 214.145C516.815 214.145 516.302 214.436 516.038 215.02V220.078H514.377V212.682H515.963L516.004 213.509C516.405 212.866 516.961 212.545 517.672 212.545C517.909 212.545 518.105 212.577 518.26 212.641L518.253 214.199ZM522.423 220.215C521.37 220.215 520.516 219.885 519.859 219.224C519.208 218.559 518.882 217.674 518.882 216.572V216.366C518.882 215.628 519.023 214.97 519.306 214.391C519.593 213.808 519.994 213.354 520.509 213.031C521.024 212.707 521.598 212.545 522.231 212.545C523.239 212.545 524.016 212.866 524.562 213.509C525.114 214.152 525.39 215.061 525.39 216.237V216.906H520.557C520.607 217.517 520.81 218 521.165 218.356C521.525 218.711 521.976 218.889 522.519 218.889C523.28 218.889 523.899 218.581 524.378 217.966L525.273 218.821C524.977 219.263 524.581 219.607 524.084 219.853C523.592 220.094 523.038 220.215 522.423 220.215ZM522.225 213.878C521.769 213.878 521.4 214.038 521.117 214.357C520.839 214.676 520.661 215.12 520.584 215.69H523.749V215.567C523.713 215.011 523.564 214.591 523.305 214.309C523.045 214.022 522.685 213.878 522.225 213.878ZM531.104 220.078C531.032 219.937 530.968 219.707 530.913 219.388C530.384 219.939 529.737 220.215 528.972 220.215C528.229 220.215 527.623 220.003 527.153 219.579C526.684 219.156 526.449 218.631 526.449 218.007C526.449 217.219 526.741 216.615 527.324 216.196C527.912 215.772 528.751 215.56 529.84 215.56H530.858V215.074C530.858 214.692 530.751 214.386 530.537 214.158C530.323 213.926 529.997 213.81 529.56 213.81C529.181 213.81 528.871 213.906 528.63 214.097C528.388 214.284 528.268 214.523 528.268 214.815H526.606C526.606 214.409 526.741 214.031 527.01 213.68C527.279 213.324 527.643 213.046 528.104 212.846C528.568 212.645 529.086 212.545 529.655 212.545C530.521 212.545 531.212 212.764 531.727 213.201C532.242 213.634 532.506 214.245 532.52 215.033V218.369C532.52 219.035 532.613 219.566 532.8 219.962V220.078H531.104ZM529.279 218.882C529.607 218.882 529.915 218.802 530.202 218.643C530.494 218.483 530.713 218.269 530.858 218V216.606H529.963C529.348 216.606 528.885 216.713 528.575 216.927C528.265 217.141 528.11 217.444 528.11 217.836C528.11 218.155 528.215 218.41 528.425 218.602C528.639 218.789 528.924 218.882 529.279 218.882ZM533.948 216.325C533.948 215.186 534.213 214.272 534.741 213.584C535.27 212.892 535.979 212.545 536.867 212.545C537.651 212.545 538.285 212.819 538.768 213.365V209.578H540.429V220.078H538.925L538.843 219.313C538.346 219.914 537.683 220.215 536.854 220.215C535.988 220.215 535.286 219.866 534.748 219.169C534.215 218.472 533.948 217.524 533.948 216.325ZM535.609 216.469C535.609 217.221 535.753 217.809 536.04 218.233C536.332 218.652 536.744 218.862 537.277 218.862C537.956 218.862 538.453 218.559 538.768 217.952V214.794C538.462 214.202 537.97 213.906 537.291 213.906C536.753 213.906 536.339 214.12 536.047 214.548C535.755 214.972 535.609 215.612 535.609 216.469ZM547.463 214.343H548.475C548.985 214.338 549.388 214.206 549.685 213.947C549.985 213.687 550.136 213.311 550.136 212.819C550.136 212.345 550.01 211.978 549.76 211.718C549.514 211.454 549.135 211.322 548.625 211.322C548.178 211.322 547.812 211.451 547.524 211.711C547.237 211.966 547.094 212.301 547.094 212.716H545.433C545.433 212.206 545.567 211.741 545.836 211.322C546.109 210.902 546.488 210.576 546.971 210.344C547.458 210.107 548.003 209.989 548.604 209.989C549.598 209.989 550.377 210.239 550.942 210.74C551.512 211.237 551.797 211.93 551.797 212.819C551.797 213.265 551.653 213.687 551.366 214.083C551.084 214.475 550.717 214.771 550.266 214.972C550.812 215.159 551.227 215.453 551.51 215.854C551.797 216.255 551.94 216.733 551.94 217.289C551.94 218.183 551.633 218.893 551.018 219.422C550.407 219.951 549.603 220.215 548.604 220.215C547.647 220.215 546.864 219.96 546.253 219.449C545.642 218.939 545.337 218.26 545.337 217.412H546.998C546.998 217.85 547.144 218.205 547.436 218.479C547.732 218.752 548.128 218.889 548.625 218.889C549.14 218.889 549.546 218.752 549.842 218.479C550.138 218.205 550.286 217.809 550.286 217.289C550.286 216.765 550.131 216.362 549.821 216.079C549.511 215.797 549.051 215.656 548.44 215.656H547.463V214.343Z" fill="black"/>
<line x1="192" y1="6" x2="192" y2="294" stroke="black" stroke-opacity="0.75" stroke-width="2"/>
</g>
<defs>
<clipPath id="clip0_217:1">
<rect width="600" height="300" fill="white"/>
</clipPath>
</defs>
</svg>
