<svg width="600" height="98" viewBox="0 0 600 98" fill="none" xmlns="http://www.w3.org/2000/svg">
<rect width="600" height="98" fill="white"/>
<path d="M10.1182 47.0283C8.34928 46.5199 7.06022 45.8968 6.25098 45.1592C5.44889 44.4144 5.04785 43.4977 5.04785 42.4092C5.04785 41.1774 5.53841 40.1605 6.51953 39.3584C7.50781 38.5492 8.78971 38.1445 10.3652 38.1445C11.4395 38.1445 12.3955 38.3522 13.2334 38.7676C14.0785 39.1829 14.7301 39.7559 15.1885 40.4863C15.654 41.2168 15.8867 42.0153 15.8867 42.8818H13.8135C13.8135 41.9365 13.5127 41.1953 12.9111 40.6582C12.3096 40.1139 11.4609 39.8418 10.3652 39.8418C9.34831 39.8418 8.55339 40.0674 7.98047 40.5186C7.41471 40.9626 7.13184 41.582 7.13184 42.377C7.13184 43.0143 7.40039 43.555 7.9375 43.999C8.48177 44.4359 9.40202 44.8369 10.6982 45.2021C12.0016 45.5674 13.0186 45.972 13.749 46.416C14.4867 46.8529 15.0309 47.3649 15.3818 47.9521C15.7399 48.5394 15.9189 49.2305 15.9189 50.0254C15.9189 51.293 15.4248 52.3099 14.4365 53.0762C13.4482 53.8353 12.127 54.2148 10.4727 54.2148C9.39844 54.2148 8.39583 54.0107 7.46484 53.6025C6.53385 53.1872 5.81413 52.6214 5.30566 51.9053C4.80436 51.1891 4.55371 50.3763 4.55371 49.4668H6.62695C6.62695 50.4121 6.97428 51.1605 7.66895 51.7119C8.37077 52.2562 9.30534 52.5283 10.4727 52.5283C11.5612 52.5283 12.3955 52.3063 12.9756 51.8623C13.5557 51.4183 13.8457 50.8132 13.8457 50.0469C13.8457 49.2806 13.5771 48.6898 13.04 48.2744C12.5029 47.8519 11.529 47.4365 10.1182 47.0283ZM25.4365 52.8506C24.6631 53.7601 23.528 54.2148 22.0312 54.2148C20.7923 54.2148 19.847 53.8568 19.1953 53.1406C18.5508 52.4173 18.2249 51.3503 18.2178 49.9395V42.377H20.2051V49.8857C20.2051 51.6475 20.9212 52.5283 22.3535 52.5283C23.8717 52.5283 24.8815 51.9626 25.3828 50.8311V42.377H27.3701V54H25.4795L25.4365 52.8506ZM40.2393 48.3174C40.2393 50.0934 39.8311 51.5221 39.0146 52.6035C38.1982 53.6777 37.1025 54.2148 35.7275 54.2148C34.2594 54.2148 33.1243 53.6956 32.3223 52.6572L32.2256 54H30.3994V37.5H32.3867V43.6553C33.1888 42.6598 34.2952 42.1621 35.7061 42.1621C37.1169 42.1621 38.2233 42.6956 39.0254 43.7627C39.8346 44.8298 40.2393 46.2907 40.2393 48.1455V48.3174ZM38.252 48.0918C38.252 46.7383 37.9906 45.6927 37.4678 44.9551C36.945 44.2174 36.193 43.8486 35.2119 43.8486C33.9014 43.8486 32.9596 44.4574 32.3867 45.6748V50.7021C32.9954 51.9196 33.9443 52.5283 35.2334 52.5283C36.1859 52.5283 36.9271 52.1595 37.457 51.4219C37.987 50.6842 38.252 49.5742 38.252 48.0918ZM42.2695 48.0918C42.2695 46.3086 42.6921 44.8763 43.5371 43.7949C44.3822 42.7064 45.4886 42.1621 46.8564 42.1621C48.2171 42.1621 49.2949 42.6276 50.0898 43.5586V37.5H52.0771V54H50.251L50.1543 52.7539C49.3594 53.7279 48.2529 54.2148 46.835 54.2148C45.4886 54.2148 44.3893 53.6634 43.5371 52.5605C42.6921 51.4577 42.2695 50.0182 42.2695 48.2422V48.0918ZM44.2568 48.3174C44.2568 49.6351 44.529 50.6663 45.0732 51.4111C45.6175 52.1559 46.3695 52.5283 47.3291 52.5283C48.5895 52.5283 49.5098 51.9626 50.0898 50.8311V45.4922C49.4954 44.3965 48.5824 43.8486 47.3506 43.8486C46.3766 43.8486 45.6175 44.2246 45.0732 44.9766C44.529 45.7285 44.2568 46.8421 44.2568 48.3174ZM54.6445 48.0811C54.6445 46.9424 54.8665 45.9183 55.3105 45.0088C55.7617 44.0993 56.3848 43.3975 57.1797 42.9033C57.9818 42.4092 58.8949 42.1621 59.9189 42.1621C61.5016 42.1621 62.7799 42.71 63.7539 43.8057C64.735 44.9014 65.2256 46.3587 65.2256 48.1777V48.3174C65.2256 49.4489 65.0072 50.4658 64.5703 51.3682C64.1406 52.2633 63.5212 52.9616 62.7119 53.4629C61.9098 53.9642 60.986 54.2148 59.9404 54.2148C58.3649 54.2148 57.0866 53.667 56.1055 52.5713C55.1315 51.4756 54.6445 50.0254 54.6445 48.2207V48.0811ZM56.6426 48.3174C56.6426 49.6064 56.9398 50.6413 57.5342 51.4219C58.1357 52.2025 58.9378 52.5928 59.9404 52.5928C60.9502 52.5928 61.7523 52.1989 62.3467 51.4111C62.9411 50.6162 63.2383 49.5062 63.2383 48.0811C63.2383 46.8063 62.9339 45.7751 62.3252 44.9873C61.7236 44.1924 60.9215 43.7949 59.9189 43.7949C58.9378 43.7949 58.1465 44.1852 57.5449 44.9658C56.9434 45.7464 56.6426 46.8636 56.6426 48.3174ZM69.5869 42.377L69.6406 43.666C70.4928 42.6634 71.6423 42.1621 73.0889 42.1621C74.7145 42.1621 75.821 42.7852 76.4082 44.0312C76.7949 43.4727 77.2962 43.0215 77.9121 42.6777C78.5352 42.334 79.2692 42.1621 80.1143 42.1621C82.6637 42.1621 83.96 43.512 84.0029 46.2119V54H82.0156V46.3301C82.0156 45.4993 81.8258 44.8799 81.4463 44.4717C81.0667 44.0563 80.4294 43.8486 79.5342 43.8486C78.7965 43.8486 78.1842 44.0706 77.6973 44.5146C77.2103 44.9515 76.9274 45.5423 76.8486 46.2871V54H74.8506V46.3838C74.8506 44.6937 74.0234 43.8486 72.3691 43.8486C71.0658 43.8486 70.1742 44.4036 69.6943 45.5137V54H67.707V42.377H69.5869ZM94.1865 54C94.0719 53.7708 93.9788 53.3626 93.9072 52.7754C92.9834 53.735 91.8805 54.2148 90.5986 54.2148C89.4528 54.2148 88.5111 53.8926 87.7734 53.248C87.043 52.5964 86.6777 51.7728 86.6777 50.7773C86.6777 49.5671 87.1361 48.6289 88.0527 47.9629C88.9766 47.2897 90.2728 46.9531 91.9414 46.9531H93.875V46.04C93.875 45.3454 93.6673 44.7939 93.252 44.3857C92.8366 43.9704 92.2243 43.7627 91.415 43.7627C90.7061 43.7627 90.1117 43.9417 89.6318 44.2998C89.152 44.6579 88.9121 45.0911 88.9121 45.5996H86.9141C86.9141 45.0195 87.1182 44.4609 87.5264 43.9238C87.9417 43.3796 88.5003 42.9499 89.2021 42.6348C89.9111 42.3197 90.6882 42.1621 91.5332 42.1621C92.8724 42.1621 93.9215 42.4987 94.6807 43.1719C95.4398 43.8379 95.8337 44.7581 95.8623 45.9326V51.2822C95.8623 52.3493 95.9984 53.1979 96.2705 53.8281V54H94.1865ZM90.8887 52.4854C91.5117 52.4854 92.1025 52.3242 92.6611 52.002C93.2197 51.6797 93.6243 51.2607 93.875 50.7451V48.3604H92.3174C89.8825 48.3604 88.665 49.0729 88.665 50.498C88.665 51.1211 88.8727 51.6081 89.2881 51.959C89.7035 52.3099 90.237 52.4854 90.8887 52.4854ZM101.137 54H99.1494V42.377H101.137V54ZM98.9883 39.2939C98.9883 38.9717 99.085 38.6995 99.2783 38.4775C99.4788 38.2555 99.7725 38.1445 100.159 38.1445C100.546 38.1445 100.84 38.2555 101.04 38.4775C101.241 38.6995 101.341 38.9717 101.341 39.2939C101.341 39.6162 101.241 39.8848 101.04 40.0996C100.84 40.3145 100.546 40.4219 100.159 40.4219C99.7725 40.4219 99.4788 40.3145 99.2783 40.0996C99.085 39.8848 98.9883 39.6162 98.9883 39.2939ZM106.207 42.377L106.271 43.8379C107.16 42.7207 108.32 42.1621 109.752 42.1621C112.208 42.1621 113.447 43.5479 113.469 46.3193V54H111.481V46.3086C111.474 45.4707 111.281 44.8512 110.901 44.4502C110.529 44.0492 109.945 43.8486 109.15 43.8486C108.506 43.8486 107.94 44.0205 107.453 44.3643C106.966 44.708 106.587 45.1592 106.314 45.7178V54H104.327V42.377H106.207ZM123.233 50.917C123.233 50.3799 123.029 49.9645 122.621 49.6709C122.22 49.3701 121.515 49.1123 120.505 48.8975C119.502 48.6826 118.704 48.4248 118.109 48.124C117.522 47.8232 117.085 47.4652 116.799 47.0498C116.52 46.6344 116.38 46.1403 116.38 45.5674C116.38 44.6149 116.781 43.8092 117.583 43.1504C118.392 42.4915 119.424 42.1621 120.677 42.1621C121.994 42.1621 123.062 42.5023 123.878 43.1826C124.701 43.863 125.113 44.7331 125.113 45.793H123.115C123.115 45.2487 122.882 44.7796 122.417 44.3857C121.959 43.9919 121.379 43.7949 120.677 43.7949C119.953 43.7949 119.388 43.9525 118.979 44.2676C118.571 44.5827 118.367 44.9945 118.367 45.5029C118.367 45.9827 118.557 46.3444 118.937 46.5879C119.316 46.8314 120 47.0641 120.988 47.2861C121.984 47.5081 122.789 47.7731 123.405 48.0811C124.021 48.389 124.476 48.7614 124.77 49.1982C125.07 49.6279 125.221 50.1543 125.221 50.7773C125.221 51.8158 124.805 52.6501 123.975 53.2803C123.144 53.9033 122.066 54.2148 120.741 54.2148C119.81 54.2148 118.987 54.0501 118.271 53.7207C117.554 53.3913 116.992 52.9329 116.584 52.3457C116.183 51.7513 115.982 51.1104 115.982 50.4229H117.97C118.006 51.0889 118.271 51.6188 118.765 52.0127C119.266 52.3994 119.925 52.5928 120.741 52.5928C121.493 52.5928 122.095 52.4424 122.546 52.1416C123.004 51.8337 123.233 51.4255 123.233 50.917Z" fill="black"/>
<path d="M256.711 47.0283C254.942 46.5199 253.653 45.8968 252.844 45.1592C252.042 44.4144 251.641 43.4977 251.641 42.4092C251.641 41.1774 252.131 40.1605 253.112 39.3584C254.101 38.5492 255.382 38.1445 256.958 38.1445C258.032 38.1445 258.988 38.3522 259.826 38.7676C260.671 39.1829 261.323 39.7559 261.781 40.4863C262.247 41.2168 262.479 42.0153 262.479 42.8818H260.406C260.406 41.9365 260.105 41.1953 259.504 40.6582C258.902 40.1139 258.054 39.8418 256.958 39.8418C255.941 39.8418 255.146 40.0674 254.573 40.5186C254.007 40.9626 253.725 41.582 253.725 42.377C253.725 43.0143 253.993 43.555 254.53 43.999C255.075 44.4359 255.995 44.8369 257.291 45.2021C258.594 45.5674 259.611 45.972 260.342 46.416C261.079 46.8529 261.624 47.3649 261.975 47.9521C262.333 48.5394 262.512 49.2305 262.512 50.0254C262.512 51.293 262.018 52.3099 261.029 53.0762C260.041 53.8353 258.72 54.2148 257.065 54.2148C255.991 54.2148 254.989 54.0107 254.058 53.6025C253.127 53.1872 252.407 52.6214 251.898 51.9053C251.397 51.1891 251.146 50.3763 251.146 49.4668H253.22C253.22 50.4121 253.567 51.1605 254.262 51.7119C254.964 52.2562 255.898 52.5283 257.065 52.5283C258.154 52.5283 258.988 52.3063 259.568 51.8623C260.148 51.4183 260.438 50.8132 260.438 50.0469C260.438 49.2806 260.17 48.6898 259.633 48.2744C259.096 47.8519 258.122 47.4365 256.711 47.0283ZM267.55 39.5625V42.377H269.72V43.9131H267.55V51.1211C267.55 51.5866 267.646 51.9375 267.84 52.1738C268.033 52.403 268.363 52.5176 268.828 52.5176C269.057 52.5176 269.372 52.4746 269.773 52.3887V54C269.251 54.1432 268.742 54.2148 268.248 54.2148C267.36 54.2148 266.69 53.9463 266.239 53.4092C265.788 52.8721 265.562 52.1094 265.562 51.1211V43.9131H263.446V42.377H265.562V39.5625H267.55ZM277.669 44.1602C277.368 44.11 277.042 44.085 276.691 44.085C275.388 44.085 274.504 44.64 274.038 45.75V54H272.051V42.377H273.984L274.017 43.7197C274.668 42.6813 275.592 42.1621 276.788 42.1621C277.175 42.1621 277.468 42.2122 277.669 42.3125V44.1602ZM284.114 54.2148C282.539 54.2148 281.257 53.6992 280.269 52.668C279.28 51.6296 278.786 50.2438 278.786 48.5107V48.1455C278.786 46.9925 279.005 45.9648 279.441 45.0625C279.885 44.153 280.501 43.444 281.289 42.9355C282.084 42.4199 282.943 42.1621 283.867 42.1621C285.378 42.1621 286.553 42.6598 287.391 43.6553C288.229 44.6507 288.647 46.0758 288.647 47.9307V48.7578H280.773C280.802 49.9036 281.135 50.8311 281.772 51.54C282.417 52.2419 283.233 52.5928 284.222 52.5928C284.924 52.5928 285.518 52.4495 286.005 52.1631C286.492 51.8766 286.918 51.4971 287.283 51.0244L288.497 51.9697C287.523 53.4665 286.062 54.2148 284.114 54.2148ZM283.867 43.7949C283.065 43.7949 282.392 44.0885 281.848 44.6758C281.303 45.2559 280.967 46.0723 280.838 47.125H286.66V46.9746C286.603 45.9648 286.331 45.1842 285.844 44.6328C285.357 44.0742 284.698 43.7949 283.867 43.7949ZM298.133 54C298.018 53.7708 297.925 53.3626 297.854 52.7754C296.93 53.735 295.827 54.2148 294.545 54.2148C293.399 54.2148 292.457 53.8926 291.72 53.248C290.989 52.5964 290.624 51.7728 290.624 50.7773C290.624 49.5671 291.082 48.6289 291.999 47.9629C292.923 47.2897 294.219 46.9531 295.888 46.9531H297.821V46.04C297.821 45.3454 297.614 44.7939 297.198 44.3857C296.783 43.9704 296.171 43.7627 295.361 43.7627C294.652 43.7627 294.058 43.9417 293.578 44.2998C293.098 44.6579 292.858 45.0911 292.858 45.5996H290.86C290.86 45.0195 291.064 44.4609 291.473 43.9238C291.888 43.3796 292.447 42.9499 293.148 42.6348C293.857 42.3197 294.634 42.1621 295.479 42.1621C296.819 42.1621 297.868 42.4987 298.627 43.1719C299.386 43.8379 299.78 44.7581 299.809 45.9326V51.2822C299.809 52.3493 299.945 53.1979 300.217 53.8281V54H298.133ZM294.835 52.4854C295.458 52.4854 296.049 52.3242 296.607 52.002C297.166 51.6797 297.571 51.2607 297.821 50.7451V48.3604H296.264C293.829 48.3604 292.611 49.0729 292.611 50.498C292.611 51.1211 292.819 51.6081 293.234 51.959C293.65 52.3099 294.183 52.4854 294.835 52.4854ZM304.793 42.377L304.847 43.666C305.699 42.6634 306.848 42.1621 308.295 42.1621C309.921 42.1621 311.027 42.7852 311.614 44.0312C312.001 43.4727 312.502 43.0215 313.118 42.6777C313.741 42.334 314.475 42.1621 315.32 42.1621C317.87 42.1621 319.166 43.512 319.209 46.2119V54H317.222V46.3301C317.222 45.4993 317.032 44.8799 316.652 44.4717C316.273 44.0563 315.635 43.8486 314.74 43.8486C314.003 43.8486 313.39 44.0706 312.903 44.5146C312.416 44.9515 312.133 45.5423 312.055 46.2871V54H310.057V46.3838C310.057 44.6937 309.229 43.8486 307.575 43.8486C306.272 43.8486 305.38 44.4036 304.9 45.5137V54H302.913V42.377H304.793Z" fill="black"/>
<path d="M155.436 70.0381C155.436 69.6963 155.306 69.432 155.046 69.2451C154.791 69.0537 154.342 68.8896 153.699 68.7529C153.061 68.6162 152.553 68.4521 152.175 68.2607C151.801 68.0693 151.523 67.8415 151.341 67.5771C151.163 67.3128 151.074 66.9984 151.074 66.6338C151.074 66.0277 151.329 65.515 151.84 65.0957C152.355 64.6764 153.011 64.4668 153.809 64.4668C154.647 64.4668 155.326 64.6833 155.846 65.1162C156.37 65.5492 156.632 66.1029 156.632 66.7773H155.36C155.36 66.431 155.212 66.1325 154.916 65.8818C154.624 65.6312 154.255 65.5059 153.809 65.5059C153.348 65.5059 152.988 65.6061 152.729 65.8066C152.469 66.0072 152.339 66.2692 152.339 66.5928C152.339 66.8981 152.46 67.1283 152.701 67.2832C152.943 67.4382 153.378 67.5863 154.007 67.7275C154.64 67.8688 155.153 68.0374 155.545 68.2334C155.937 68.4294 156.226 68.6663 156.413 68.9443C156.604 69.2178 156.7 69.5527 156.7 69.9492C156.7 70.61 156.436 71.141 155.907 71.542C155.379 71.9385 154.693 72.1367 153.85 72.1367C153.257 72.1367 152.733 72.0319 152.277 71.8223C151.822 71.6126 151.464 71.321 151.204 70.9473C150.949 70.569 150.821 70.1611 150.821 69.7236H152.086C152.109 70.1475 152.277 70.4847 152.592 70.7354C152.911 70.9814 153.33 71.1045 153.85 71.1045C154.328 71.1045 154.711 71.0088 154.998 70.8174C155.29 70.6214 155.436 70.3617 155.436 70.0381ZM160.063 62.8125V64.6035H161.444V65.5811H160.063V70.168C160.063 70.4642 160.125 70.6875 160.248 70.8379C160.371 70.9837 160.581 71.0566 160.877 71.0566C161.023 71.0566 161.223 71.0293 161.479 70.9746V72C161.146 72.0911 160.822 72.1367 160.508 72.1367C159.943 72.1367 159.517 71.9658 159.229 71.624C158.942 71.2822 158.799 70.7969 158.799 70.168V65.5811H157.452V64.6035H158.799V62.8125H160.063ZM166.503 65.7383C166.312 65.7064 166.104 65.6904 165.881 65.6904C165.051 65.6904 164.489 66.0436 164.192 66.75V72H162.928V64.6035H164.158L164.179 65.458C164.593 64.7972 165.181 64.4668 165.942 64.4668C166.188 64.4668 166.375 64.4987 166.503 64.5625V65.7383ZM170.604 72.1367C169.602 72.1367 168.786 71.8086 168.157 71.1523C167.528 70.4915 167.214 69.6097 167.214 68.5068V68.2744C167.214 67.5407 167.353 66.8867 167.631 66.3125C167.913 65.7337 168.305 65.2826 168.807 64.959C169.312 64.6309 169.859 64.4668 170.447 64.4668C171.409 64.4668 172.156 64.7835 172.689 65.417C173.223 66.0505 173.489 66.9574 173.489 68.1377V68.6641H168.479C168.497 69.3932 168.709 69.9834 169.114 70.4346C169.524 70.8812 170.044 71.1045 170.673 71.1045C171.119 71.1045 171.498 71.0133 171.808 70.8311C172.118 70.6488 172.389 70.4072 172.621 70.1064L173.394 70.708C172.774 71.6605 171.844 72.1367 170.604 72.1367ZM170.447 65.5059C169.937 65.5059 169.508 65.6927 169.162 66.0664C168.816 66.4355 168.602 66.9551 168.52 67.625H172.225V67.5293C172.188 66.8867 172.015 66.39 171.705 66.0391C171.395 65.6836 170.976 65.5059 170.447 65.5059ZM179.525 72C179.452 71.8542 179.393 71.5944 179.348 71.2207C178.76 71.8314 178.058 72.1367 177.242 72.1367C176.513 72.1367 175.914 71.9316 175.444 71.5215C174.979 71.1068 174.747 70.5827 174.747 69.9492C174.747 69.179 175.039 68.582 175.622 68.1582C176.21 67.7298 177.035 67.5156 178.097 67.5156H179.327V66.9346C179.327 66.4925 179.195 66.1416 178.931 65.8818C178.666 65.6175 178.277 65.4854 177.762 65.4854C177.311 65.4854 176.932 65.5993 176.627 65.8271C176.322 66.055 176.169 66.3307 176.169 66.6543H174.897C174.897 66.2852 175.027 65.9297 175.287 65.5879C175.551 65.2415 175.907 64.9681 176.354 64.7676C176.805 64.5671 177.299 64.4668 177.837 64.4668C178.689 64.4668 179.357 64.681 179.84 65.1094C180.323 65.5332 180.574 66.1188 180.592 66.8662V70.2705C180.592 70.9495 180.678 71.4896 180.852 71.8906V72H179.525ZM177.427 71.0361C177.823 71.0361 178.199 70.9336 178.555 70.7285C178.91 70.5234 179.168 70.2568 179.327 69.9287V68.4111H178.336C176.786 68.4111 176.012 68.8646 176.012 69.7715C176.012 70.168 176.144 70.4779 176.408 70.7012C176.673 70.9245 177.012 71.0361 177.427 71.0361ZM183.764 64.6035L183.798 65.4238C184.34 64.7858 185.072 64.4668 185.992 64.4668C187.027 64.4668 187.731 64.8633 188.104 65.6562C188.351 65.3008 188.67 65.0137 189.062 64.7949C189.458 64.5762 189.925 64.4668 190.463 64.4668C192.085 64.4668 192.91 65.3258 192.938 67.0439V72H191.673V67.1191C191.673 66.5905 191.552 66.1963 191.311 65.9365C191.069 65.6722 190.663 65.54 190.094 65.54C189.624 65.54 189.235 65.6813 188.925 65.9639C188.615 66.2419 188.435 66.6178 188.385 67.0918V72H187.113V67.1533C187.113 66.0778 186.587 65.54 185.534 65.54C184.705 65.54 184.137 65.8932 183.832 66.5996V72H182.567V64.6035H183.764ZM194.811 71.3369C194.811 71.1182 194.874 70.9359 195.002 70.79C195.134 70.6442 195.33 70.5713 195.59 70.5713C195.85 70.5713 196.046 70.6442 196.178 70.79C196.314 70.9359 196.383 71.1182 196.383 71.3369C196.383 71.5465 196.314 71.722 196.178 71.8633C196.046 72.0046 195.85 72.0752 195.59 72.0752C195.33 72.0752 195.134 72.0046 195.002 71.8633C194.874 71.722 194.811 71.5465 194.811 71.3369ZM194.817 65.3008C194.817 65.082 194.881 64.8997 195.009 64.7539C195.141 64.6081 195.337 64.5352 195.597 64.5352C195.856 64.5352 196.052 64.6081 196.185 64.7539C196.321 64.8997 196.39 65.082 196.39 65.3008C196.39 65.5104 196.321 65.6859 196.185 65.8271C196.052 65.9684 195.856 66.0391 195.597 66.0391C195.337 66.0391 195.141 65.9684 195.009 65.8271C194.881 65.6859 194.817 65.5104 194.817 65.3008ZM198.201 71.3369C198.201 71.1182 198.265 70.9359 198.393 70.79C198.525 70.6442 198.721 70.5713 198.98 70.5713C199.24 70.5713 199.436 70.6442 199.568 70.79C199.705 70.9359 199.773 71.1182 199.773 71.3369C199.773 71.5465 199.705 71.722 199.568 71.8633C199.436 72.0046 199.24 72.0752 198.98 72.0752C198.721 72.0752 198.525 72.0046 198.393 71.8633C198.265 71.722 198.201 71.5465 198.201 71.3369ZM198.208 65.3008C198.208 65.082 198.272 64.8997 198.399 64.7539C198.532 64.6081 198.728 64.5352 198.987 64.5352C199.247 64.5352 199.443 64.6081 199.575 64.7539C199.712 64.8997 199.78 65.082 199.78 65.3008C199.78 65.5104 199.712 65.6859 199.575 65.8271C199.443 65.9684 199.247 66.0391 198.987 66.0391C198.728 66.0391 198.532 65.9684 198.399 65.8271C198.272 65.6859 198.208 65.5104 198.208 65.3008ZM203.007 72H201.742V64.6035H203.007V72ZM201.64 62.6416C201.64 62.4365 201.701 62.2633 201.824 62.1221C201.952 61.9808 202.139 61.9102 202.385 61.9102C202.631 61.9102 202.818 61.9808 202.945 62.1221C203.073 62.2633 203.137 62.4365 203.137 62.6416C203.137 62.8467 203.073 63.0176 202.945 63.1543C202.818 63.291 202.631 63.3594 202.385 63.3594C202.139 63.3594 201.952 63.291 201.824 63.1543C201.701 63.0176 201.64 62.8467 201.64 62.6416ZM206.753 62.8125V64.6035H208.134V65.5811H206.753V70.168C206.753 70.4642 206.814 70.6875 206.938 70.8379C207.061 70.9837 207.27 71.0566 207.566 71.0566C207.712 71.0566 207.913 71.0293 208.168 70.9746V72C207.835 72.0911 207.512 72.1367 207.197 72.1367C206.632 72.1367 206.206 71.9658 205.919 71.624C205.632 71.2822 205.488 70.7969 205.488 70.168V65.5811H204.142V64.6035H205.488V62.8125H206.753ZM212.687 72.1367C211.684 72.1367 210.868 71.8086 210.239 71.1523C209.61 70.4915 209.296 69.6097 209.296 68.5068V68.2744C209.296 67.5407 209.435 66.8867 209.713 66.3125C209.995 65.7337 210.387 65.2826 210.889 64.959C211.395 64.6309 211.941 64.4668 212.529 64.4668C213.491 64.4668 214.238 64.7835 214.771 65.417C215.305 66.0505 215.571 66.9574 215.571 68.1377V68.6641H210.561C210.579 69.3932 210.791 69.9834 211.196 70.4346C211.606 70.8812 212.126 71.1045 212.755 71.1045C213.201 71.1045 213.58 71.0133 213.89 70.8311C214.2 70.6488 214.471 70.4072 214.703 70.1064L215.476 70.708C214.856 71.6605 213.926 72.1367 212.687 72.1367ZM212.529 65.5059C212.019 65.5059 211.59 65.6927 211.244 66.0664C210.898 66.4355 210.684 66.9551 210.602 67.625H214.307V67.5293C214.27 66.8867 214.097 66.39 213.787 66.0391C213.477 65.6836 213.058 65.5059 212.529 65.5059ZM220.616 65.7383C220.425 65.7064 220.217 65.6904 219.994 65.6904C219.165 65.6904 218.602 66.0436 218.306 66.75V72H217.041V64.6035H218.271L218.292 65.458C218.707 64.7972 219.295 64.4668 220.056 64.4668C220.302 64.4668 220.489 64.4987 220.616 64.5625V65.7383Z" fill="black"/>
<path d="M235.707 47.7071C236.098 47.3166 236.098 46.6834 235.707 46.2929L229.343 39.9289C228.953 39.5384 228.319 39.5384 227.929 39.9289C227.538 40.3195 227.538 40.9526 227.929 41.3431L233.586 47L227.929 52.6569C227.538 53.0474 227.538 53.6805 227.929 54.0711C228.319 54.4616 228.953 54.4616 229.343 54.0711L235.707 47.7071ZM135 48H235V46H135V48Z" fill="black"/>
<path d="M331.841 72V65.5811H330.672V64.6035H331.841V63.8447C331.841 63.0518 332.053 62.4388 332.477 62.0059C332.9 61.5729 333.5 61.3564 334.274 61.3564C334.566 61.3564 334.855 61.3952 335.143 61.4727L335.074 62.498C334.86 62.457 334.632 62.4365 334.391 62.4365C333.98 62.4365 333.664 62.5573 333.44 62.7988C333.217 63.0358 333.105 63.3776 333.105 63.8242V64.6035H334.685V65.5811H333.105V72H331.841ZM335.751 68.2334C335.751 67.5088 335.892 66.8571 336.175 66.2783C336.462 65.6995 336.858 65.2529 337.364 64.9385C337.875 64.624 338.456 64.4668 339.107 64.4668C340.115 64.4668 340.928 64.8154 341.548 65.5127C342.172 66.21 342.484 67.1374 342.484 68.2949V68.3838C342.484 69.1038 342.345 69.751 342.067 70.3252C341.794 70.8949 341.4 71.3392 340.885 71.6582C340.374 71.9772 339.786 72.1367 339.121 72.1367C338.118 72.1367 337.305 71.7881 336.681 71.0908C336.061 70.3936 335.751 69.4707 335.751 68.3223V68.2334ZM337.022 68.3838C337.022 69.2041 337.212 69.8626 337.59 70.3594C337.973 70.8561 338.483 71.1045 339.121 71.1045C339.764 71.1045 340.274 70.8538 340.652 70.3525C341.031 69.8467 341.22 69.1403 341.22 68.2334C341.22 67.4222 341.026 66.766 340.639 66.2646C340.256 65.7588 339.745 65.5059 339.107 65.5059C338.483 65.5059 337.979 65.7542 337.597 66.251C337.214 66.7477 337.022 67.4587 337.022 68.3838ZM347.646 65.7383C347.454 65.7064 347.247 65.6904 347.023 65.6904C346.194 65.6904 345.631 66.0436 345.335 66.75V72H344.07V64.6035H345.301L345.321 65.458C345.736 64.7972 346.324 64.4668 347.085 64.4668C347.331 64.4668 347.518 64.4987 347.646 64.5625V65.7383ZM354.146 73.0322H347.885V72H354.146V73.0322ZM358.2 72.1367C357.198 72.1367 356.382 71.8086 355.753 71.1523C355.124 70.4915 354.81 69.6097 354.81 68.5068V68.2744C354.81 67.5407 354.949 66.8867 355.227 66.3125C355.509 65.7337 355.901 65.2826 356.402 64.959C356.908 64.6309 357.455 64.4668 358.043 64.4668C359.005 64.4668 359.752 64.7835 360.285 65.417C360.818 66.0505 361.085 66.9574 361.085 68.1377V68.6641H356.074C356.092 69.3932 356.304 69.9834 356.71 70.4346C357.12 70.8812 357.64 71.1045 358.269 71.1045C358.715 71.1045 359.093 71.0133 359.403 70.8311C359.713 70.6488 359.984 70.4072 360.217 70.1064L360.989 70.708C360.369 71.6605 359.44 72.1367 358.2 72.1367ZM358.043 65.5059C357.533 65.5059 357.104 65.6927 356.758 66.0664C356.411 66.4355 356.197 66.9551 356.115 67.625H359.82V67.5293C359.784 66.8867 359.611 66.39 359.301 66.0391C358.991 65.6836 358.572 65.5059 358.043 65.5059ZM367.121 72C367.048 71.8542 366.989 71.5944 366.943 71.2207C366.355 71.8314 365.654 72.1367 364.838 72.1367C364.109 72.1367 363.509 71.9316 363.04 71.5215C362.575 71.1068 362.343 70.5827 362.343 69.9492C362.343 69.179 362.634 68.582 363.218 68.1582C363.806 67.7298 364.631 67.5156 365.692 67.5156H366.923V66.9346C366.923 66.4925 366.791 66.1416 366.526 65.8818C366.262 65.6175 365.872 65.4854 365.357 65.4854C364.906 65.4854 364.528 65.5993 364.223 65.8271C363.917 66.055 363.765 66.3307 363.765 66.6543H362.493C362.493 66.2852 362.623 65.9297 362.883 65.5879C363.147 65.2415 363.503 64.9681 363.949 64.7676C364.4 64.5671 364.895 64.4668 365.433 64.4668C366.285 64.4668 366.952 64.681 367.436 65.1094C367.919 65.5332 368.169 66.1188 368.188 66.8662V70.2705C368.188 70.9495 368.274 71.4896 368.447 71.8906V72H367.121ZM365.022 71.0361C365.419 71.0361 365.795 70.9336 366.15 70.7285C366.506 70.5234 366.763 70.2568 366.923 69.9287V68.4111H365.932C364.382 68.4111 363.607 68.8646 363.607 69.7715C363.607 70.168 363.74 70.4779 364.004 70.7012C364.268 70.9245 364.608 71.0361 365.022 71.0361ZM373.137 71.1045C373.588 71.1045 373.982 70.9678 374.319 70.6943C374.657 70.4209 374.843 70.0791 374.88 69.6689H376.076C376.053 70.0928 375.908 70.4961 375.639 70.8789C375.37 71.2617 375.01 71.5671 374.559 71.7949C374.112 72.0228 373.638 72.1367 373.137 72.1367C372.13 72.1367 371.327 71.8018 370.73 71.1318C370.138 70.4574 369.842 69.5368 369.842 68.3701V68.1582C369.842 67.4382 369.974 66.7979 370.238 66.2373C370.503 65.6768 370.881 65.2415 371.373 64.9316C371.87 64.6217 372.455 64.4668 373.13 64.4668C373.959 64.4668 374.647 64.7152 375.194 65.2119C375.746 65.7087 376.04 66.3535 376.076 67.1465H374.88C374.843 66.668 374.661 66.276 374.333 65.9707C374.009 65.6608 373.608 65.5059 373.13 65.5059C372.487 65.5059 371.988 65.7383 371.633 66.2031C371.282 66.6634 371.106 67.3311 371.106 68.2061V68.4453C371.106 69.2975 371.282 69.9538 371.633 70.4141C371.984 70.8743 372.485 71.1045 373.137 71.1045ZM378.763 65.499C379.323 64.8109 380.052 64.4668 380.95 64.4668C382.513 64.4668 383.302 65.3486 383.315 67.1123V72H382.051V67.1055C382.046 66.5723 381.923 66.1781 381.682 65.9229C381.445 65.6676 381.073 65.54 380.567 65.54C380.157 65.54 379.797 65.6494 379.487 65.8682C379.177 66.0869 378.936 66.374 378.763 66.7295V72H377.498V61.5H378.763V65.499ZM390.541 73.0322H384.279V72H390.541V73.0322ZM394.492 71.1045C394.943 71.1045 395.338 70.9678 395.675 70.6943C396.012 70.4209 396.199 70.0791 396.235 69.6689H397.432C397.409 70.0928 397.263 70.4961 396.994 70.8789C396.725 71.2617 396.365 71.5671 395.914 71.7949C395.467 72.0228 394.993 72.1367 394.492 72.1367C393.485 72.1367 392.683 71.8018 392.086 71.1318C391.493 70.4574 391.197 69.5368 391.197 68.3701V68.1582C391.197 67.4382 391.329 66.7979 391.594 66.2373C391.858 65.6768 392.236 65.2415 392.729 64.9316C393.225 64.6217 393.811 64.4668 394.485 64.4668C395.315 64.4668 396.003 64.7152 396.55 65.2119C397.101 65.7087 397.395 66.3535 397.432 67.1465H396.235C396.199 66.668 396.017 66.276 395.688 65.9707C395.365 65.6608 394.964 65.5059 394.485 65.5059C393.843 65.5059 393.344 65.7383 392.988 66.2031C392.637 66.6634 392.462 67.3311 392.462 68.2061V68.4453C392.462 69.2975 392.637 69.9538 392.988 70.4141C393.339 70.8743 393.84 71.1045 394.492 71.1045ZM398.519 68.2334C398.519 67.5088 398.66 66.8571 398.942 66.2783C399.229 65.6995 399.626 65.2529 400.132 64.9385C400.642 64.624 401.223 64.4668 401.875 64.4668C402.882 64.4668 403.696 64.8154 404.315 65.5127C404.94 66.21 405.252 67.1374 405.252 68.2949V68.3838C405.252 69.1038 405.113 69.751 404.835 70.3252C404.562 70.8949 404.167 71.3392 403.652 71.6582C403.142 71.9772 402.554 72.1367 401.889 72.1367C400.886 72.1367 400.073 71.7881 399.448 71.0908C398.828 70.3936 398.519 69.4707 398.519 68.3223V68.2334ZM399.79 68.3838C399.79 69.2041 399.979 69.8626 400.357 70.3594C400.74 70.8561 401.251 71.1045 401.889 71.1045C402.531 71.1045 403.042 70.8538 403.42 70.3525C403.798 69.8467 403.987 69.1403 403.987 68.2334C403.987 67.4222 403.794 66.766 403.406 66.2646C403.023 65.7588 402.513 65.5059 401.875 65.5059C401.251 65.5059 400.747 65.7542 400.364 66.251C399.981 66.7477 399.79 67.4587 399.79 68.3838ZM408.034 64.6035L408.075 65.5332C408.64 64.8223 409.379 64.4668 410.29 64.4668C411.853 64.4668 412.642 65.3486 412.655 67.1123V72H411.391V67.1055C411.386 66.5723 411.263 66.1781 411.021 65.9229C410.785 65.6676 410.413 65.54 409.907 65.54C409.497 65.54 409.137 65.6494 408.827 65.8682C408.517 66.0869 408.276 66.374 408.103 66.7295V72H406.838V64.6035H408.034ZM417.529 71.1045C417.98 71.1045 418.375 70.9678 418.712 70.6943C419.049 70.4209 419.236 70.0791 419.272 69.6689H420.469C420.446 70.0928 420.3 70.4961 420.031 70.8789C419.762 71.2617 419.402 71.5671 418.951 71.7949C418.505 72.0228 418.031 72.1367 417.529 72.1367C416.522 72.1367 415.72 71.8018 415.123 71.1318C414.531 70.4574 414.234 69.5368 414.234 68.3701V68.1582C414.234 67.4382 414.367 66.7979 414.631 66.2373C414.895 65.6768 415.273 65.2415 415.766 64.9316C416.262 64.6217 416.848 64.4668 417.522 64.4668C418.352 64.4668 419.04 64.7152 419.587 65.2119C420.138 65.7087 420.432 66.3535 420.469 67.1465H419.272C419.236 66.668 419.054 66.276 418.726 65.9707C418.402 65.6608 418.001 65.5059 417.522 65.5059C416.88 65.5059 416.381 65.7383 416.025 66.2031C415.674 66.6634 415.499 67.3311 415.499 68.2061V68.4453C415.499 69.2975 415.674 69.9538 416.025 70.4141C416.376 70.8743 416.878 71.1045 417.529 71.1045ZM426.457 71.2686C425.965 71.8473 425.243 72.1367 424.29 72.1367C423.502 72.1367 422.9 71.9089 422.485 71.4531C422.075 70.9928 421.868 70.3138 421.863 69.416V64.6035H423.128V69.3818C423.128 70.5029 423.584 71.0635 424.495 71.0635C425.461 71.0635 426.104 70.7035 426.423 69.9834V64.6035H427.688V72H426.484L426.457 71.2686ZM433.19 65.7383C432.999 65.7064 432.792 65.6904 432.568 65.6904C431.739 65.6904 431.176 66.0436 430.88 66.75V72H429.615V64.6035H430.846L430.866 65.458C431.281 64.7972 431.869 64.4668 432.63 64.4668C432.876 64.4668 433.063 64.4987 433.19 64.5625V65.7383ZM437.935 65.7383C437.743 65.7064 437.536 65.6904 437.312 65.6904C436.483 65.6904 435.92 66.0436 435.624 66.75V72H434.359V64.6035H435.59L435.61 65.458C436.025 64.7972 436.613 64.4668 437.374 64.4668C437.62 64.4668 437.807 64.4987 437.935 64.5625V65.7383ZM442.036 72.1367C441.034 72.1367 440.218 71.8086 439.589 71.1523C438.96 70.4915 438.646 69.6097 438.646 68.5068V68.2744C438.646 67.5407 438.785 66.8867 439.062 66.3125C439.345 65.7337 439.737 65.2826 440.238 64.959C440.744 64.6309 441.291 64.4668 441.879 64.4668C442.84 64.4668 443.588 64.7835 444.121 65.417C444.654 66.0505 444.921 66.9574 444.921 68.1377V68.6641H439.91C439.928 69.3932 440.14 69.9834 440.546 70.4346C440.956 70.8812 441.476 71.1045 442.104 71.1045C442.551 71.1045 442.929 71.0133 443.239 70.8311C443.549 70.6488 443.82 70.4072 444.053 70.1064L444.825 70.708C444.205 71.6605 443.276 72.1367 442.036 72.1367ZM441.879 65.5059C441.368 65.5059 440.94 65.6927 440.594 66.0664C440.247 66.4355 440.033 66.9551 439.951 67.625H443.656V67.5293C443.62 66.8867 443.447 66.39 443.137 66.0391C442.827 65.6836 442.408 65.5059 441.879 65.5059ZM447.587 64.6035L447.628 65.5332C448.193 64.8223 448.931 64.4668 449.843 64.4668C451.406 64.4668 452.194 65.3486 452.208 67.1123V72H450.943V67.1055C450.939 66.5723 450.816 66.1781 450.574 65.9229C450.337 65.6676 449.966 65.54 449.46 65.54C449.05 65.54 448.69 65.6494 448.38 65.8682C448.07 66.0869 447.828 66.374 447.655 66.7295V72H446.391V64.6035H447.587ZM455.831 62.8125V64.6035H457.212V65.5811H455.831V70.168C455.831 70.4642 455.893 70.6875 456.016 70.8379C456.139 70.9837 456.348 71.0566 456.645 71.0566C456.79 71.0566 456.991 71.0293 457.246 70.9746V72C456.913 72.0911 456.59 72.1367 456.275 72.1367C455.71 72.1367 455.284 71.9658 454.997 71.624C454.71 71.2822 454.566 70.7969 454.566 70.168V65.5811H453.22V64.6035H454.566V62.8125H455.831Z" fill="black"/>
<path d="M502.853 41.3174C502.853 43.0863 502.448 44.5114 501.639 45.5928C500.829 46.6742 499.734 47.2148 498.352 47.2148C496.941 47.2148 495.831 46.7673 495.021 45.8721V51.4688H493.034V35.377H494.85L494.946 36.666C495.756 35.6634 496.88 35.1621 498.319 35.1621C499.716 35.1621 500.819 35.6885 501.628 36.7412C502.444 37.7939 502.853 39.2585 502.853 41.1348V41.3174ZM500.865 41.0918C500.865 39.7812 500.586 38.7464 500.027 37.9873C499.469 37.2282 498.702 36.8486 497.729 36.8486C496.525 36.8486 495.623 37.3822 495.021 38.4492V44.0029C495.616 45.0628 496.525 45.5928 497.75 45.5928C498.702 45.5928 499.458 45.2168 500.017 44.4648C500.582 43.7057 500.865 42.5814 500.865 41.0918ZM512.563 45.8506C511.79 46.7601 510.655 47.2148 509.158 47.2148C507.919 47.2148 506.974 46.8568 506.322 46.1406C505.678 45.4173 505.352 44.3503 505.345 42.9395V35.377H507.332V42.8857C507.332 44.6475 508.048 45.5283 509.48 45.5283C510.999 45.5283 512.008 44.9626 512.51 43.8311V35.377H514.497V47H512.606L512.563 45.8506ZM524.294 43.917C524.294 43.3799 524.09 42.9645 523.682 42.6709C523.281 42.3701 522.575 42.1123 521.565 41.8975C520.563 41.6826 519.764 41.4248 519.17 41.124C518.583 40.8232 518.146 40.4652 517.859 40.0498C517.58 39.6344 517.44 39.1403 517.44 38.5674C517.44 37.6149 517.841 36.8092 518.644 36.1504C519.453 35.4915 520.484 35.1621 521.737 35.1621C523.055 35.1621 524.122 35.5023 524.938 36.1826C525.762 36.863 526.174 37.7331 526.174 38.793H524.176C524.176 38.2487 523.943 37.7796 523.478 37.3857C523.019 36.9919 522.439 36.7949 521.737 36.7949C521.014 36.7949 520.448 36.9525 520.04 37.2676C519.632 37.5827 519.428 37.9945 519.428 38.5029C519.428 38.9827 519.618 39.3444 519.997 39.5879C520.377 39.8314 521.061 40.0641 522.049 40.2861C523.044 40.5081 523.85 40.7731 524.466 41.0811C525.082 41.389 525.536 41.7614 525.83 42.1982C526.131 42.6279 526.281 43.1543 526.281 43.7773C526.281 44.8158 525.866 45.6501 525.035 46.2803C524.204 46.9033 523.127 47.2148 521.802 47.2148C520.871 47.2148 520.047 47.0501 519.331 46.7207C518.615 46.3913 518.053 45.9329 517.645 45.3457C517.243 44.7513 517.043 44.1104 517.043 43.4229H519.03C519.066 44.0889 519.331 44.6188 519.825 45.0127C520.326 45.3994 520.985 45.5928 521.802 45.5928C522.554 45.5928 523.155 45.4424 523.606 45.1416C524.065 44.8337 524.294 44.4255 524.294 43.917ZM530.857 36.7842C531.738 35.7028 532.884 35.1621 534.295 35.1621C536.751 35.1621 537.99 36.5479 538.012 39.3193V47H536.024V39.3086C536.017 38.4707 535.824 37.8512 535.444 37.4502C535.072 37.0492 534.488 36.8486 533.693 36.8486C533.049 36.8486 532.483 37.0205 531.996 37.3643C531.509 37.708 531.13 38.1592 530.857 38.7178V47H528.87V30.5H530.857V36.7842ZM549.141 32.5625V35.377H551.311V36.9131H549.141V44.1211C549.141 44.5866 549.237 44.9375 549.431 45.1738C549.624 45.403 549.953 45.5176 550.419 45.5176C550.648 45.5176 550.963 45.4746 551.364 45.3887V47C550.841 47.1432 550.333 47.2148 549.839 47.2148C548.951 47.2148 548.281 46.9463 547.83 46.4092C547.379 45.8721 547.153 45.1094 547.153 44.1211V36.9131H545.037V35.377H547.153V32.5625H549.141ZM552.9 41.0811C552.9 39.9424 553.122 38.9183 553.566 38.0088C554.018 37.0993 554.641 36.3975 555.436 35.9033C556.238 35.4092 557.151 35.1621 558.175 35.1621C559.757 35.1621 561.036 35.71 562.01 36.8057C562.991 37.9014 563.481 39.3587 563.481 41.1777V41.3174C563.481 42.4489 563.263 43.4658 562.826 44.3682C562.396 45.2633 561.777 45.9616 560.968 46.4629C560.166 46.9642 559.242 47.2148 558.196 47.2148C556.621 47.2148 555.342 46.667 554.361 45.5713C553.387 44.4756 552.9 43.0254 552.9 41.2207V41.0811ZM554.898 41.3174C554.898 42.6064 555.196 43.6413 555.79 44.4219C556.392 45.2025 557.194 45.5928 558.196 45.5928C559.206 45.5928 560.008 45.1989 560.603 44.4111C561.197 43.6162 561.494 42.5062 561.494 41.0811C561.494 39.8063 561.19 38.7751 560.581 37.9873C559.979 37.1924 559.177 36.7949 558.175 36.7949C557.194 36.7949 556.402 37.1852 555.801 37.9658C555.199 38.7464 554.898 39.8636 554.898 41.3174ZM469.963 60.4023H465.793L464.856 63H463.503L467.304 53.0469H468.452L472.26 63H470.913L469.963 60.4023ZM466.189 59.3223H469.573L467.878 54.667L466.189 59.3223ZM476.977 56.7383C476.785 56.7064 476.578 56.6904 476.354 56.6904C475.525 56.6904 474.962 57.0436 474.666 57.75V63H473.401V55.6035H474.632L474.652 56.458C475.067 55.7972 475.655 55.4668 476.416 55.4668C476.662 55.4668 476.849 55.4987 476.977 55.5625V56.7383ZM480.976 62.1045C481.427 62.1045 481.821 61.9678 482.158 61.6943C482.495 61.4209 482.682 61.0791 482.719 60.6689H483.915C483.892 61.0928 483.746 61.4961 483.478 61.8789C483.209 62.2617 482.849 62.5671 482.397 62.7949C481.951 63.0228 481.477 63.1367 480.976 63.1367C479.968 63.1367 479.166 62.8018 478.569 62.1318C477.977 61.4574 477.681 60.5368 477.681 59.3701V59.1582C477.681 58.4382 477.813 57.7979 478.077 57.2373C478.341 56.6768 478.72 56.2415 479.212 55.9316C479.709 55.6217 480.294 55.4668 480.969 55.4668C481.798 55.4668 482.486 55.7152 483.033 56.2119C483.585 56.7087 483.879 57.3535 483.915 58.1465H482.719C482.682 57.668 482.5 57.276 482.172 56.9707C481.848 56.6608 481.447 56.5059 480.969 56.5059C480.326 56.5059 479.827 56.7383 479.472 57.2031C479.121 57.6634 478.945 58.3311 478.945 59.2061V59.4453C478.945 60.2975 479.121 60.9538 479.472 61.4141C479.823 61.8743 480.324 62.1045 480.976 62.1045ZM486.185 58.5977L490.464 60.3271V61.667L484.872 59.0762V58.0781L490.464 55.4941V56.834L486.185 58.5977ZM494.354 53.0469L497.607 61.168L500.861 53.0469H502.563V63H501.251V59.124L501.374 54.9404L498.106 63H497.102L493.841 54.9609L493.971 59.124V63H492.658V53.0469H494.354ZM509.249 62.2686C508.757 62.8473 508.035 63.1367 507.082 63.1367C506.294 63.1367 505.692 62.9089 505.277 62.4531C504.867 61.9928 504.66 61.3138 504.655 60.416V55.6035H505.92V60.3818C505.92 61.5029 506.376 62.0635 507.287 62.0635C508.253 62.0635 508.896 61.7035 509.215 60.9834V55.6035H510.479V63H509.276L509.249 62.2686ZM514.123 53.8125V55.6035H515.504V56.5811H514.123V61.168C514.123 61.4642 514.185 61.6875 514.308 61.8379C514.431 61.9837 514.64 62.0566 514.937 62.0566C515.082 62.0566 515.283 62.0293 515.538 61.9746V63C515.205 63.0911 514.882 63.1367 514.567 63.1367C514.002 63.1367 513.576 62.9658 513.289 62.624C513.002 62.2822 512.858 61.7969 512.858 61.168V56.5811H511.512V55.6035H512.858V53.8125H514.123ZM520.057 63.1367C519.054 63.1367 518.238 62.8086 517.609 62.1523C516.98 61.4915 516.666 60.6097 516.666 59.5068V59.2744C516.666 58.5407 516.805 57.8867 517.083 57.3125C517.366 56.7337 517.757 56.2826 518.259 55.959C518.765 55.6309 519.312 55.4668 519.899 55.4668C520.861 55.4668 521.608 55.7835 522.142 56.417C522.675 57.0505 522.941 57.9574 522.941 59.1377V59.6641H517.931C517.949 60.3932 518.161 60.9834 518.566 61.4346C518.977 61.8812 519.496 62.1045 520.125 62.1045C520.572 62.1045 520.95 62.0133 521.26 61.8311C521.57 61.6488 521.841 61.4072 522.073 61.1064L522.846 61.708C522.226 62.6605 521.296 63.1367 520.057 63.1367ZM519.899 56.5059C519.389 56.5059 518.961 56.6927 518.614 57.0664C518.268 57.4355 518.054 57.9551 517.972 58.625H521.677V58.5293C521.64 57.8867 521.467 57.39 521.157 57.0391C520.847 56.6836 520.428 56.5059 519.899 56.5059ZM526.893 58.3037L528.533 55.6035H530.01L527.59 59.2607L530.085 63H528.622L526.913 60.2314L525.204 63H523.734L526.229 59.2607L523.81 55.6035H525.272L526.893 58.3037ZM532.204 58.5977L536.483 60.3271V61.667L530.892 59.0762V58.0781L536.483 55.4941V56.834L532.204 58.5977ZM541.973 61.2568L544.816 53.0469H546.252L542.561 63H541.398L537.714 53.0469H539.143L541.973 61.2568ZM550.162 63.1367C549.16 63.1367 548.344 62.8086 547.715 62.1523C547.086 61.4915 546.771 60.6097 546.771 59.5068V59.2744C546.771 58.5407 546.91 57.8867 547.188 57.3125C547.471 56.7337 547.863 56.2826 548.364 55.959C548.87 55.6309 549.417 55.4668 550.005 55.4668C550.966 55.4668 551.714 55.7835 552.247 56.417C552.78 57.0505 553.047 57.9574 553.047 59.1377V59.6641H548.036C548.054 60.3932 548.266 60.9834 548.672 61.4346C549.082 61.8812 549.602 62.1045 550.23 62.1045C550.677 62.1045 551.055 62.0133 551.365 61.8311C551.675 61.6488 551.946 61.4072 552.179 61.1064L552.951 61.708C552.331 62.6605 551.402 63.1367 550.162 63.1367ZM550.005 56.5059C549.494 56.5059 549.066 56.6927 548.72 57.0664C548.373 57.4355 548.159 57.9551 548.077 58.625H551.782V58.5293C551.746 57.8867 551.573 57.39 551.263 57.0391C550.953 56.6836 550.534 56.5059 550.005 56.5059ZM557.483 62.1045C557.935 62.1045 558.329 61.9678 558.666 61.6943C559.003 61.4209 559.19 61.0791 559.227 60.6689H560.423C560.4 61.0928 560.254 61.4961 559.985 61.8789C559.716 62.2617 559.356 62.5671 558.905 62.7949C558.459 63.0228 557.985 63.1367 557.483 63.1367C556.476 63.1367 555.674 62.8018 555.077 62.1318C554.485 61.4574 554.188 60.5368 554.188 59.3701V59.1582C554.188 58.4382 554.321 57.7979 554.585 57.2373C554.849 56.6768 555.228 56.2415 555.72 55.9316C556.216 55.6217 556.802 55.4668 557.477 55.4668C558.306 55.4668 558.994 55.7152 559.541 56.2119C560.092 56.7087 560.386 57.3535 560.423 58.1465H559.227C559.19 57.668 559.008 57.276 558.68 56.9707C558.356 56.6608 557.955 56.5059 557.477 56.5059C556.834 56.5059 556.335 56.7383 555.979 57.2031C555.629 57.6634 555.453 58.3311 555.453 59.2061V59.4453C555.453 60.2975 555.629 60.9538 555.979 61.4141C556.33 61.8743 556.832 62.1045 557.483 62.1045ZM563.561 53.8125V55.6035H564.941V56.5811H563.561V61.168C563.561 61.4642 563.622 61.6875 563.745 61.8379C563.868 61.9837 564.078 62.0566 564.374 62.0566C564.52 62.0566 564.72 62.0293 564.976 61.9746V63C564.643 63.0911 564.319 63.1367 564.005 63.1367C563.44 63.1367 563.014 62.9658 562.727 62.624C562.439 62.2822 562.296 61.7969 562.296 61.168V56.5811H560.949V55.6035H562.296V53.8125H563.561ZM565.953 59.2334C565.953 58.5088 566.094 57.8571 566.377 57.2783C566.664 56.6995 567.061 56.2529 567.566 55.9385C568.077 55.624 568.658 55.4668 569.31 55.4668C570.317 55.4668 571.13 55.8154 571.75 56.5127C572.374 57.21 572.687 58.1374 572.687 59.2949V59.3838C572.687 60.1038 572.548 60.751 572.27 61.3252C571.996 61.8949 571.602 62.3392 571.087 62.6582C570.576 62.9772 569.989 63.1367 569.323 63.1367C568.321 63.1367 567.507 62.7881 566.883 62.0908C566.263 61.3936 565.953 60.4707 565.953 59.3223V59.2334ZM567.225 59.3838C567.225 60.2041 567.414 60.8626 567.792 61.3594C568.175 61.8561 568.685 62.1045 569.323 62.1045C569.966 62.1045 570.476 61.8538 570.854 61.3525C571.233 60.8467 571.422 60.1403 571.422 59.2334C571.422 58.4222 571.228 57.766 570.841 57.2646C570.458 56.7588 569.948 56.5059 569.31 56.5059C568.685 56.5059 568.182 56.7542 567.799 57.251C567.416 57.7477 567.225 58.4587 567.225 59.3838ZM577.848 56.7383C577.656 56.7064 577.449 56.6904 577.226 56.6904C576.396 56.6904 575.833 57.0436 575.537 57.75V63H574.272V55.6035H575.503L575.523 56.458C575.938 55.7972 576.526 55.4668 577.287 55.4668C577.533 55.4668 577.72 55.4987 577.848 55.5625V56.7383ZM583.494 58.5566L578.976 56.7861V55.4873L584.813 58.0713V59.0693L578.976 61.6602V60.3477L583.494 58.5566ZM590.809 58.5566L586.29 56.7861V55.4873L592.128 58.0713V59.0693L586.29 61.6602V60.3477L590.809 58.5566Z" fill="black"/>
<path d="M444.707 47.7071C445.098 47.3166 445.098 46.6834 444.707 46.2929L438.343 39.9289C437.953 39.5384 437.319 39.5384 436.929 39.9289C436.538 40.3195 436.538 40.9526 436.929 41.3431L442.586 47L436.929 52.6569C436.538 53.0474 436.538 53.6805 436.929 54.0711C437.319 54.4616 437.953 54.4616 438.343 54.0711L444.707 47.7071ZM344 48H444V46H344V48Z" fill="black"/>
</svg>
