<svg width="600" height="300" viewBox="0 0 600 300" fill="none" xmlns="http://www.w3.org/2000/svg">
<rect width="600" height="300" fill="white"/>
<circle cx="123" cy="223" r="49.5" fill="white" stroke="black"/>
<path d="M105.21 209.939C105.052 211.293 104.551 212.339 103.707 213.077C102.869 213.81 101.753 214.176 100.358 214.176C98.8467 214.176 97.6338 213.634 96.7197 212.55C95.8115 211.466 95.3574 210.016 95.3574 208.199V206.969C95.3574 205.779 95.5684 204.733 95.9902 203.831C96.418 202.929 97.0215 202.237 97.8008 201.757C98.5801 201.271 99.4824 201.027 100.508 201.027C101.867 201.027 102.957 201.408 103.777 202.17C104.598 202.926 105.075 203.975 105.21 205.316H103.514C103.367 204.297 103.048 203.559 102.556 203.102C102.069 202.645 101.387 202.416 100.508 202.416C99.4297 202.416 98.583 202.814 97.9678 203.611C97.3584 204.408 97.0537 205.542 97.0537 207.013V208.252C97.0537 209.641 97.3438 210.745 97.9238 211.565C98.5039 212.386 99.3154 212.796 100.358 212.796C101.296 212.796 102.014 212.585 102.512 212.163C103.016 211.735 103.35 210.994 103.514 209.939H105.21ZM106.836 209.157C106.836 208.226 107.018 207.388 107.381 206.644C107.75 205.899 108.26 205.325 108.91 204.921C109.566 204.517 110.313 204.314 111.151 204.314C112.446 204.314 113.492 204.763 114.289 205.659C115.092 206.556 115.493 207.748 115.493 209.236V209.351C115.493 210.276 115.314 211.108 114.957 211.847C114.605 212.579 114.099 213.15 113.437 213.561C112.78 213.971 112.024 214.176 111.169 214.176C109.88 214.176 108.834 213.728 108.031 212.831C107.234 211.935 106.836 210.748 106.836 209.271V209.157ZM108.471 209.351C108.471 210.405 108.714 211.252 109.2 211.891C109.692 212.529 110.349 212.849 111.169 212.849C111.995 212.849 112.651 212.526 113.138 211.882C113.624 211.231 113.867 210.323 113.867 209.157C113.867 208.114 113.618 207.271 113.12 206.626C112.628 205.976 111.972 205.65 111.151 205.65C110.349 205.65 109.701 205.97 109.209 206.608C108.717 207.247 108.471 208.161 108.471 209.351ZM119.07 204.49L119.123 205.686C119.85 204.771 120.799 204.314 121.971 204.314C123.98 204.314 124.994 205.448 125.012 207.716V214H123.386V207.707C123.38 207.021 123.222 206.515 122.911 206.187C122.606 205.858 122.129 205.694 121.479 205.694C120.951 205.694 120.488 205.835 120.09 206.116C119.691 206.397 119.381 206.767 119.158 207.224V214H117.532V204.49H119.07ZM129.67 202.188V204.49H131.445V205.747H129.67V211.645C129.67 212.025 129.749 212.312 129.907 212.506C130.065 212.693 130.335 212.787 130.716 212.787C130.903 212.787 131.161 212.752 131.489 212.682V214C131.062 214.117 130.646 214.176 130.241 214.176C129.515 214.176 128.967 213.956 128.598 213.517C128.229 213.077 128.044 212.453 128.044 211.645V205.747H126.312V204.49H128.044V202.188H129.67ZM137.949 205.949C137.703 205.908 137.437 205.888 137.149 205.888C136.083 205.888 135.359 206.342 134.979 207.25V214H133.353V204.49H134.935L134.961 205.589C135.494 204.739 136.25 204.314 137.229 204.314C137.545 204.314 137.785 204.355 137.949 204.438V205.949ZM138.846 209.157C138.846 208.226 139.027 207.388 139.391 206.644C139.76 205.899 140.27 205.325 140.92 204.921C141.576 204.517 142.323 204.314 143.161 204.314C144.456 204.314 145.502 204.763 146.299 205.659C147.102 206.556 147.503 207.748 147.503 209.236V209.351C147.503 210.276 147.324 211.108 146.967 211.847C146.615 212.579 146.108 213.15 145.446 213.561C144.79 213.971 144.034 214.176 143.179 214.176C141.89 214.176 140.844 213.728 140.041 212.831C139.244 211.935 138.846 210.748 138.846 209.271V209.157ZM140.48 209.351C140.48 210.405 140.724 211.252 141.21 211.891C141.702 212.529 142.358 212.849 143.179 212.849C144.005 212.849 144.661 212.526 145.147 211.882C145.634 211.231 145.877 210.323 145.877 209.157C145.877 208.114 145.628 207.271 145.13 206.626C144.638 205.976 143.981 205.65 143.161 205.65C142.358 205.65 141.711 205.97 141.219 206.608C140.727 207.247 140.48 208.161 140.48 209.351ZM151.309 214H149.683V200.5H151.309V214ZM108.989 235H107.363V221.5H108.989V235ZM111.169 230.157C111.169 229.226 111.351 228.388 111.714 227.644C112.083 226.899 112.593 226.325 113.243 225.921C113.899 225.517 114.646 225.314 115.484 225.314C116.779 225.314 117.825 225.763 118.622 226.659C119.425 227.556 119.826 228.748 119.826 230.236V230.351C119.826 231.276 119.647 232.108 119.29 232.847C118.938 233.579 118.432 234.15 117.77 234.561C117.113 234.971 116.357 235.176 115.502 235.176C114.213 235.176 113.167 234.728 112.364 233.831C111.567 232.935 111.169 231.748 111.169 230.271V230.157ZM112.804 230.351C112.804 231.405 113.047 232.252 113.533 232.891C114.025 233.529 114.682 233.849 115.502 233.849C116.328 233.849 116.984 233.526 117.471 232.882C117.957 232.231 118.2 231.323 118.2 230.157C118.2 229.114 117.951 228.271 117.453 227.626C116.961 226.976 116.305 226.65 115.484 226.65C114.682 226.65 114.034 226.97 113.542 227.608C113.05 228.247 112.804 229.161 112.804 230.351ZM121.435 230.157C121.435 229.226 121.616 228.388 121.979 227.644C122.349 226.899 122.858 226.325 123.509 225.921C124.165 225.517 124.912 225.314 125.75 225.314C127.045 225.314 128.091 225.763 128.888 226.659C129.69 227.556 130.092 228.748 130.092 230.236V230.351C130.092 231.276 129.913 232.108 129.556 232.847C129.204 233.579 128.697 234.15 128.035 234.561C127.379 234.971 126.623 235.176 125.768 235.176C124.479 235.176 123.433 234.728 122.63 233.831C121.833 232.935 121.435 231.748 121.435 230.271V230.157ZM123.069 230.351C123.069 231.405 123.312 232.252 123.799 232.891C124.291 233.529 124.947 233.849 125.768 233.849C126.594 233.849 127.25 233.526 127.736 232.882C128.223 232.231 128.466 231.323 128.466 230.157C128.466 229.114 128.217 228.271 127.719 227.626C127.227 226.976 126.57 226.65 125.75 226.65C124.947 226.65 124.3 226.97 123.808 227.608C123.315 228.247 123.069 229.161 123.069 230.351ZM140.164 230.351C140.164 231.798 139.833 232.964 139.171 233.849C138.509 234.733 137.612 235.176 136.481 235.176C135.327 235.176 134.419 234.81 133.757 234.077V238.656H132.131V225.49H133.616L133.695 226.545C134.357 225.725 135.277 225.314 136.455 225.314C137.598 225.314 138.5 225.745 139.162 226.606C139.83 227.468 140.164 228.666 140.164 230.201V230.351ZM138.538 230.166C138.538 229.094 138.31 228.247 137.853 227.626C137.396 227.005 136.769 226.694 135.972 226.694C134.987 226.694 134.249 227.131 133.757 228.004V232.548C134.243 233.415 134.987 233.849 135.989 233.849C136.769 233.849 137.387 233.541 137.844 232.926C138.307 232.305 138.538 231.385 138.538 230.166Z" fill="black"/>
<rect x="264.5" y="25.5" width="149" height="59" rx="3.5" fill="white" stroke="black"/>
<path d="M287.953 61V48.2031H291.565C292.679 48.2031 293.663 48.4492 294.519 48.9414C295.374 49.4336 296.033 50.1338 296.496 51.042C296.965 51.9502 297.202 52.9932 297.208 54.1709V54.9883C297.208 56.1953 296.974 57.2529 296.505 58.1611C296.042 59.0693 295.377 59.7666 294.51 60.2529C293.648 60.7393 292.644 60.9883 291.495 61H287.953ZM289.641 49.5918V59.6201H291.416C292.717 59.6201 293.728 59.2158 294.448 58.4072C295.175 57.5986 295.538 56.4473 295.538 54.9531V54.2061C295.538 52.7529 295.195 51.625 294.51 50.8223C293.83 50.0137 292.863 49.6035 291.609 49.5918H289.641ZM299.08 56.1572C299.08 55.2256 299.262 54.3877 299.625 53.6436C299.994 52.8994 300.504 52.3252 301.154 51.9209C301.811 51.5166 302.558 51.3145 303.396 51.3145C304.69 51.3145 305.736 51.7627 306.533 52.6592C307.336 53.5557 307.737 54.748 307.737 56.2363V56.3506C307.737 57.2764 307.559 58.1084 307.201 58.8467C306.85 59.5791 306.343 60.1504 305.681 60.5605C305.024 60.9707 304.269 61.1758 303.413 61.1758C302.124 61.1758 301.078 60.7275 300.275 59.8311C299.479 58.9346 299.08 57.748 299.08 56.2715V56.1572ZM300.715 56.3506C300.715 57.4053 300.958 58.252 301.444 58.8906C301.937 59.5293 302.593 59.8486 303.413 59.8486C304.239 59.8486 304.896 59.5264 305.382 58.8818C305.868 58.2314 306.111 57.3232 306.111 56.1572C306.111 55.1143 305.862 54.2705 305.364 53.626C304.872 52.9756 304.216 52.6504 303.396 52.6504C302.593 52.6504 301.945 52.9697 301.453 53.6084C300.961 54.2471 300.715 55.1611 300.715 56.3506ZM318.196 58.7588L320.024 51.4902H321.65L318.882 61H317.563L315.252 53.793L313.002 61H311.684L308.924 51.4902H310.541L312.413 58.6094L314.628 51.4902H315.938L318.196 58.7588ZM324.85 51.4902L324.902 52.6855C325.629 51.7715 326.578 51.3145 327.75 51.3145C329.76 51.3145 330.773 52.4482 330.791 54.7158V61H329.165V54.707C329.159 54.0215 329.001 53.5146 328.69 53.1865C328.386 52.8584 327.908 52.6943 327.258 52.6943C326.73 52.6943 326.268 52.835 325.869 53.1162C325.471 53.3975 325.16 53.7666 324.938 54.2236V61H323.312V51.4902H324.85ZM335.01 61H333.384V47.5H335.01V61ZM337.189 56.1572C337.189 55.2256 337.371 54.3877 337.734 53.6436C338.104 52.8994 338.613 52.3252 339.264 51.9209C339.92 51.5166 340.667 51.3145 341.505 51.3145C342.8 51.3145 343.846 51.7627 344.643 52.6592C345.445 53.5557 345.847 54.748 345.847 56.2363V56.3506C345.847 57.2764 345.668 58.1084 345.311 58.8467C344.959 59.5791 344.452 60.1504 343.79 60.5605C343.134 60.9707 342.378 61.1758 341.522 61.1758C340.233 61.1758 339.188 60.7275 338.385 59.8311C337.588 58.9346 337.189 57.748 337.189 56.2715V56.1572ZM338.824 56.3506C338.824 57.4053 339.067 58.252 339.554 58.8906C340.046 59.5293 340.702 59.8486 341.522 59.8486C342.349 59.8486 343.005 59.5264 343.491 58.8818C343.978 58.2314 344.221 57.3232 344.221 56.1572C344.221 55.1143 343.972 54.2705 343.474 53.626C342.981 52.9756 342.325 52.6504 341.505 52.6504C340.702 52.6504 340.055 52.9697 339.562 53.6084C339.07 54.2471 338.824 55.1611 338.824 56.3506ZM353.757 61C353.663 60.8125 353.587 60.4785 353.528 59.998C352.772 60.7832 351.87 61.1758 350.821 61.1758C349.884 61.1758 349.113 60.9121 348.51 60.3848C347.912 59.8516 347.613 59.1777 347.613 58.3633C347.613 57.373 347.988 56.6055 348.738 56.0605C349.494 55.5098 350.555 55.2344 351.92 55.2344H353.502V54.4873C353.502 53.9189 353.332 53.4678 352.992 53.1338C352.652 52.7939 352.151 52.624 351.489 52.624C350.909 52.624 350.423 52.7705 350.03 53.0635C349.638 53.3564 349.441 53.7109 349.441 54.127H347.807C347.807 53.6523 347.974 53.1953 348.308 52.7559C348.647 52.3105 349.104 51.959 349.679 51.7012C350.259 51.4434 350.895 51.3145 351.586 51.3145C352.682 51.3145 353.54 51.5898 354.161 52.1406C354.782 52.6855 355.104 53.4385 355.128 54.3994V58.7764C355.128 59.6494 355.239 60.3438 355.462 60.8594V61H353.757ZM351.059 59.7607C351.568 59.7607 352.052 59.6289 352.509 59.3652C352.966 59.1016 353.297 58.7588 353.502 58.3369V56.3857H352.228C350.235 56.3857 349.239 56.9688 349.239 58.1348C349.239 58.6445 349.409 59.043 349.749 59.3301C350.089 59.6172 350.525 59.7607 351.059 59.7607ZM357.281 56.166C357.281 54.707 357.627 53.5352 358.318 52.6504C359.01 51.7598 359.915 51.3145 361.034 51.3145C362.147 51.3145 363.029 51.6953 363.68 52.457V47.5H365.306V61H363.812L363.732 59.9805C363.082 60.7773 362.177 61.1758 361.017 61.1758C359.915 61.1758 359.016 60.7246 358.318 59.8223C357.627 58.9199 357.281 57.7422 357.281 56.2891V56.166ZM358.907 56.3506C358.907 57.4287 359.13 58.2725 359.575 58.8818C360.021 59.4912 360.636 59.7959 361.421 59.7959C362.452 59.7959 363.205 59.333 363.68 58.4072V54.0391C363.193 53.1426 362.446 52.6943 361.438 52.6943C360.642 52.6943 360.021 53.002 359.575 53.6172C359.13 54.2324 358.907 55.1436 358.907 56.3506ZM371.783 61.1758C370.494 61.1758 369.445 60.7539 368.637 59.9102C367.828 59.0605 367.424 57.9268 367.424 56.5088V56.21C367.424 55.2666 367.603 54.4258 367.96 53.6875C368.323 52.9434 368.827 52.3633 369.472 51.9473C370.122 51.5254 370.825 51.3145 371.581 51.3145C372.817 51.3145 373.778 51.7217 374.464 52.5361C375.149 53.3506 375.492 54.5166 375.492 56.0342V56.7109H369.05C369.073 57.6484 369.346 58.4072 369.867 58.9873C370.395 59.5615 371.062 59.8486 371.871 59.8486C372.445 59.8486 372.932 59.7314 373.33 59.4971C373.729 59.2627 374.077 58.9521 374.376 58.5654L375.369 59.3389C374.572 60.5635 373.377 61.1758 371.783 61.1758ZM371.581 52.6504C370.925 52.6504 370.374 52.8906 369.929 53.3711C369.483 53.8457 369.208 54.5137 369.103 55.375H373.866V55.252C373.819 54.4258 373.597 53.7871 373.198 53.3359C372.8 52.8789 372.261 52.6504 371.581 52.6504ZM381.979 52.9492C381.732 52.9082 381.466 52.8877 381.179 52.8877C380.112 52.8877 379.389 53.3418 379.008 54.25V61H377.382V51.4902H378.964L378.99 52.5889C379.523 51.7393 380.279 51.3145 381.258 51.3145C381.574 51.3145 381.814 51.3555 381.979 51.4375V52.9492ZM389.019 58.4775C389.019 58.0381 388.852 57.6982 388.518 57.458C388.189 57.2119 387.612 57.001 386.786 56.8252C385.966 56.6494 385.312 56.4385 384.826 56.1924C384.346 55.9463 383.988 55.6533 383.754 55.3135C383.525 54.9736 383.411 54.5693 383.411 54.1006C383.411 53.3213 383.739 52.6621 384.396 52.123C385.058 51.584 385.901 51.3145 386.927 51.3145C388.005 51.3145 388.878 51.5928 389.546 52.1494C390.22 52.7061 390.557 53.418 390.557 54.2852H388.922C388.922 53.8398 388.731 53.4561 388.351 53.1338C387.976 52.8115 387.501 52.6504 386.927 52.6504C386.335 52.6504 385.872 52.7793 385.538 53.0371C385.204 53.2949 385.037 53.6318 385.037 54.0479C385.037 54.4404 385.192 54.7363 385.503 54.9355C385.813 55.1348 386.373 55.3252 387.182 55.5068C387.996 55.6885 388.655 55.9053 389.159 56.1572C389.663 56.4092 390.035 56.7139 390.275 57.0713C390.521 57.4229 390.645 57.8535 390.645 58.3633C390.645 59.2129 390.305 59.8955 389.625 60.4111C388.945 60.9209 388.063 61.1758 386.979 61.1758C386.218 61.1758 385.544 61.041 384.958 60.7715C384.372 60.502 383.912 60.127 383.578 59.6465C383.25 59.1602 383.086 58.6357 383.086 58.0732H384.712C384.741 58.6182 384.958 59.0518 385.362 59.374C385.772 59.6904 386.312 59.8486 386.979 59.8486C387.595 59.8486 388.087 59.7256 388.456 59.4795C388.831 59.2275 389.019 58.8936 389.019 58.4775Z" fill="black"/>
<rect x="289.5" y="236.5" width="99" height="49" rx="3.5" fill="white" stroke="black"/>
<path d="M296.812 261.99V267H295.125V254.203H299.845C301.245 254.203 302.341 254.561 303.132 255.275C303.929 255.99 304.327 256.937 304.327 258.114C304.327 259.356 303.938 260.314 303.158 260.988C302.385 261.656 301.274 261.99 299.827 261.99H296.812ZM296.812 260.61H299.845C300.747 260.61 301.438 260.399 301.919 259.978C302.399 259.55 302.64 258.935 302.64 258.132C302.64 257.37 302.399 256.761 301.919 256.304C301.438 255.847 300.779 255.609 299.941 255.592H296.812V260.61ZM310.822 258.949C310.576 258.908 310.31 258.888 310.022 258.888C308.956 258.888 308.232 259.342 307.852 260.25V267H306.226V257.49H307.808L307.834 258.589C308.367 257.739 309.123 257.314 310.102 257.314C310.418 257.314 310.658 257.355 310.822 257.438V258.949ZM311.719 262.157C311.719 261.226 311.9 260.388 312.264 259.644C312.633 258.899 313.143 258.325 313.793 257.921C314.449 257.517 315.196 257.314 316.034 257.314C317.329 257.314 318.375 257.763 319.172 258.659C319.975 259.556 320.376 260.748 320.376 262.236V262.351C320.376 263.276 320.197 264.108 319.84 264.847C319.488 265.579 318.981 266.15 318.319 266.561C317.663 266.971 316.907 267.176 316.052 267.176C314.763 267.176 313.717 266.728 312.914 265.831C312.117 264.935 311.719 263.748 311.719 262.271V262.157ZM313.354 262.351C313.354 263.405 313.597 264.252 314.083 264.891C314.575 265.529 315.231 265.849 316.052 265.849C316.878 265.849 317.534 265.526 318.021 264.882C318.507 264.231 318.75 263.323 318.75 262.157C318.75 261.114 318.501 260.271 318.003 259.626C317.511 258.976 316.854 258.65 316.034 258.65C315.231 258.65 314.584 258.97 314.092 259.608C313.6 260.247 313.354 261.161 313.354 262.351ZM326.229 265.849C326.81 265.849 327.316 265.673 327.75 265.321C328.184 264.97 328.424 264.53 328.471 264.003H330.009C329.979 264.548 329.792 265.066 329.446 265.559C329.101 266.051 328.638 266.443 328.058 266.736C327.483 267.029 326.874 267.176 326.229 267.176C324.935 267.176 323.903 266.745 323.136 265.884C322.374 265.017 321.993 263.833 321.993 262.333V262.061C321.993 261.135 322.163 260.312 322.503 259.591C322.843 258.87 323.329 258.311 323.962 257.912C324.601 257.514 325.354 257.314 326.221 257.314C327.287 257.314 328.172 257.634 328.875 258.272C329.584 258.911 329.962 259.74 330.009 260.76H328.471C328.424 260.145 328.189 259.641 327.768 259.248C327.352 258.85 326.836 258.65 326.221 258.65C325.395 258.65 324.753 258.949 324.296 259.547C323.845 260.139 323.619 260.997 323.619 262.122V262.43C323.619 263.525 323.845 264.369 324.296 264.961C324.747 265.553 325.392 265.849 326.229 265.849ZM335.783 267.176C334.494 267.176 333.445 266.754 332.637 265.91C331.828 265.061 331.424 263.927 331.424 262.509V262.21C331.424 261.267 331.603 260.426 331.96 259.688C332.323 258.943 332.827 258.363 333.472 257.947C334.122 257.525 334.825 257.314 335.581 257.314C336.817 257.314 337.778 257.722 338.464 258.536C339.149 259.351 339.492 260.517 339.492 262.034V262.711H333.05C333.073 263.648 333.346 264.407 333.867 264.987C334.395 265.562 335.062 265.849 335.871 265.849C336.445 265.849 336.932 265.731 337.33 265.497C337.729 265.263 338.077 264.952 338.376 264.565L339.369 265.339C338.572 266.563 337.377 267.176 335.783 267.176ZM335.581 258.65C334.925 258.65 334.374 258.891 333.929 259.371C333.483 259.846 333.208 260.514 333.103 261.375H337.866V261.252C337.819 260.426 337.597 259.787 337.198 259.336C336.8 258.879 336.261 258.65 335.581 258.65ZM346.919 264.478C346.919 264.038 346.752 263.698 346.418 263.458C346.09 263.212 345.513 263.001 344.687 262.825C343.866 262.649 343.213 262.438 342.727 262.192C342.246 261.946 341.889 261.653 341.654 261.313C341.426 260.974 341.312 260.569 341.312 260.101C341.312 259.321 341.64 258.662 342.296 258.123C342.958 257.584 343.802 257.314 344.827 257.314C345.905 257.314 346.778 257.593 347.446 258.149C348.12 258.706 348.457 259.418 348.457 260.285H346.822C346.822 259.84 346.632 259.456 346.251 259.134C345.876 258.812 345.401 258.65 344.827 258.65C344.235 258.65 343.772 258.779 343.438 259.037C343.104 259.295 342.938 259.632 342.938 260.048C342.938 260.44 343.093 260.736 343.403 260.936C343.714 261.135 344.273 261.325 345.082 261.507C345.896 261.688 346.556 261.905 347.06 262.157C347.563 262.409 347.936 262.714 348.176 263.071C348.422 263.423 348.545 263.854 348.545 264.363C348.545 265.213 348.205 265.896 347.525 266.411C346.846 266.921 345.964 267.176 344.88 267.176C344.118 267.176 343.444 267.041 342.858 266.771C342.272 266.502 341.812 266.127 341.479 265.646C341.15 265.16 340.986 264.636 340.986 264.073H342.612C342.642 264.618 342.858 265.052 343.263 265.374C343.673 265.69 344.212 265.849 344.88 265.849C345.495 265.849 345.987 265.726 346.356 265.479C346.731 265.228 346.919 264.894 346.919 264.478ZM356.2 264.478C356.2 264.038 356.033 263.698 355.699 263.458C355.371 263.212 354.794 263.001 353.968 262.825C353.147 262.649 352.494 262.438 352.008 262.192C351.527 261.946 351.17 261.653 350.936 261.313C350.707 260.974 350.593 260.569 350.593 260.101C350.593 259.321 350.921 258.662 351.577 258.123C352.239 257.584 353.083 257.314 354.108 257.314C355.187 257.314 356.06 257.593 356.728 258.149C357.401 258.706 357.738 259.418 357.738 260.285H356.104C356.104 259.84 355.913 259.456 355.532 259.134C355.157 258.812 354.683 258.65 354.108 258.65C353.517 258.65 353.054 258.779 352.72 259.037C352.386 259.295 352.219 259.632 352.219 260.048C352.219 260.44 352.374 260.736 352.685 260.936C352.995 261.135 353.555 261.325 354.363 261.507C355.178 261.688 355.837 261.905 356.341 262.157C356.845 262.409 357.217 262.714 357.457 263.071C357.703 263.423 357.826 263.854 357.826 264.363C357.826 265.213 357.486 265.896 356.807 266.411C356.127 266.921 355.245 267.176 354.161 267.176C353.399 267.176 352.726 267.041 352.14 266.771C351.554 266.502 351.094 266.127 350.76 265.646C350.432 265.16 350.268 264.636 350.268 264.073H351.894C351.923 264.618 352.14 265.052 352.544 265.374C352.954 265.69 353.493 265.849 354.161 265.849C354.776 265.849 355.269 265.726 355.638 265.479C356.013 265.228 356.2 264.894 356.2 264.478ZM359.514 262.157C359.514 261.226 359.695 260.388 360.059 259.644C360.428 258.899 360.938 258.325 361.588 257.921C362.244 257.517 362.991 257.314 363.829 257.314C365.124 257.314 366.17 257.763 366.967 258.659C367.77 259.556 368.171 260.748 368.171 262.236V262.351C368.171 263.276 367.992 264.108 367.635 264.847C367.283 265.579 366.776 266.15 366.114 266.561C365.458 266.971 364.702 267.176 363.847 267.176C362.558 267.176 361.512 266.728 360.709 265.831C359.912 264.935 359.514 263.748 359.514 262.271V262.157ZM361.148 262.351C361.148 263.405 361.392 264.252 361.878 264.891C362.37 265.529 363.026 265.849 363.847 265.849C364.673 265.849 365.329 265.526 365.815 264.882C366.302 264.231 366.545 263.323 366.545 262.157C366.545 261.114 366.296 260.271 365.798 259.626C365.306 258.976 364.649 258.65 363.829 258.65C363.026 258.65 362.379 258.97 361.887 259.608C361.395 260.247 361.148 261.161 361.148 262.351ZM374.807 258.949C374.561 258.908 374.294 258.888 374.007 258.888C372.94 258.888 372.217 259.342 371.836 260.25V267H370.21V257.49H371.792L371.818 258.589C372.352 257.739 373.107 257.314 374.086 257.314C374.402 257.314 374.643 257.355 374.807 257.438V258.949ZM381.847 264.478C381.847 264.038 381.68 263.698 381.346 263.458C381.018 263.212 380.44 263.001 379.614 262.825C378.794 262.649 378.141 262.438 377.654 262.192C377.174 261.946 376.816 261.653 376.582 261.313C376.354 260.974 376.239 260.569 376.239 260.101C376.239 259.321 376.567 258.662 377.224 258.123C377.886 257.584 378.729 257.314 379.755 257.314C380.833 257.314 381.706 257.593 382.374 258.149C383.048 258.706 383.385 259.418 383.385 260.285H381.75C381.75 259.84 381.56 259.456 381.179 259.134C380.804 258.812 380.329 258.65 379.755 258.65C379.163 258.65 378.7 258.779 378.366 259.037C378.032 259.295 377.865 259.632 377.865 260.048C377.865 260.44 378.021 260.736 378.331 260.936C378.642 261.135 379.201 261.325 380.01 261.507C380.824 261.688 381.483 261.905 381.987 262.157C382.491 262.409 382.863 262.714 383.104 263.071C383.35 263.423 383.473 263.854 383.473 264.363C383.473 265.213 383.133 265.896 382.453 266.411C381.773 266.921 380.892 267.176 379.808 267.176C379.046 267.176 378.372 267.041 377.786 266.771C377.2 266.502 376.74 266.127 376.406 265.646C376.078 265.16 375.914 264.636 375.914 264.073H377.54C377.569 264.618 377.786 265.052 378.19 265.374C378.601 265.69 379.14 265.849 379.808 265.849C380.423 265.849 380.915 265.726 381.284 265.479C381.659 265.228 381.847 264.894 381.847 264.478Z" fill="black"/>
<path d="M203.779 159.203V167.904C203.773 169.111 203.393 170.099 202.637 170.866C201.887 171.634 200.867 172.064 199.578 172.158L199.13 172.176C197.729 172.176 196.613 171.798 195.781 171.042C194.949 170.286 194.527 169.246 194.516 167.922V159.203H196.186V167.869C196.186 168.795 196.44 169.516 196.95 170.031C197.46 170.541 198.187 170.796 199.13 170.796C200.085 170.796 200.814 170.541 201.318 170.031C201.828 169.521 202.083 168.804 202.083 167.878V159.203H203.779ZM210.784 163.949C210.538 163.908 210.271 163.888 209.984 163.888C208.918 163.888 208.194 164.342 207.813 165.25V172H206.188V162.49H207.77L207.796 163.589C208.329 162.739 209.085 162.314 210.063 162.314C210.38 162.314 210.62 162.355 210.784 162.438V163.949ZM214.054 172H212.428V158.5H214.054V172ZM222.201 169.478C222.201 169.038 222.034 168.698 221.7 168.458C221.372 168.212 220.795 168.001 219.969 167.825C219.148 167.649 218.495 167.438 218.009 167.192C217.528 166.946 217.171 166.653 216.937 166.313C216.708 165.974 216.594 165.569 216.594 165.101C216.594 164.321 216.922 163.662 217.578 163.123C218.24 162.584 219.084 162.314 220.109 162.314C221.188 162.314 222.061 162.593 222.729 163.149C223.402 163.706 223.739 164.418 223.739 165.285H222.104C222.104 164.84 221.914 164.456 221.533 164.134C221.158 163.812 220.684 163.65 220.109 163.65C219.518 163.65 219.055 163.779 218.721 164.037C218.387 164.295 218.22 164.632 218.22 165.048C218.22 165.44 218.375 165.736 218.686 165.936C218.996 166.135 219.556 166.325 220.364 166.507C221.179 166.688 221.838 166.905 222.342 167.157C222.846 167.409 223.218 167.714 223.458 168.071C223.704 168.423 223.827 168.854 223.827 169.363C223.827 170.213 223.487 170.896 222.808 171.411C222.128 171.921 221.246 172.176 220.162 172.176C219.4 172.176 218.727 172.041 218.141 171.771C217.555 171.502 217.095 171.127 216.761 170.646C216.433 170.16 216.269 169.636 216.269 169.073H217.895C217.924 169.618 218.141 170.052 218.545 170.374C218.955 170.69 219.494 170.849 220.162 170.849C220.777 170.849 221.27 170.726 221.639 170.479C222.014 170.228 222.201 169.894 222.201 169.478Z" fill="black"/>
<path d="M410.594 206H408.906V193.203H410.594V206ZM415.639 194.188V196.49H417.414V197.747H415.639V203.645C415.639 204.025 415.718 204.312 415.876 204.506C416.034 204.693 416.304 204.787 416.685 204.787C416.872 204.787 417.13 204.752 417.458 204.682V206C417.03 206.117 416.614 206.176 416.21 206.176C415.483 206.176 414.936 205.956 414.566 205.517C414.197 205.077 414.013 204.453 414.013 203.645V197.747H412.281V196.49H414.013V194.188H415.639ZM423.268 206.176C421.979 206.176 420.93 205.754 420.121 204.91C419.312 204.061 418.908 202.927 418.908 201.509V201.21C418.908 200.267 419.087 199.426 419.444 198.688C419.808 197.943 420.312 197.363 420.956 196.947C421.606 196.525 422.31 196.314 423.065 196.314C424.302 196.314 425.263 196.722 425.948 197.536C426.634 198.351 426.977 199.517 426.977 201.034V201.711H420.534C420.558 202.648 420.83 203.407 421.352 203.987C421.879 204.562 422.547 204.849 423.355 204.849C423.93 204.849 424.416 204.731 424.814 204.497C425.213 204.263 425.562 203.952 425.86 203.565L426.854 204.339C426.057 205.563 424.861 206.176 423.268 206.176ZM423.065 197.65C422.409 197.65 421.858 197.891 421.413 198.371C420.968 198.846 420.692 199.514 420.587 200.375H425.351V200.252C425.304 199.426 425.081 198.787 424.683 198.336C424.284 197.879 423.745 197.65 423.065 197.65ZM430.396 196.49L430.439 197.545C431.137 196.725 432.077 196.314 433.261 196.314C434.591 196.314 435.496 196.824 435.977 197.844C436.293 197.387 436.703 197.018 437.207 196.736C437.717 196.455 438.317 196.314 439.009 196.314C441.095 196.314 442.155 197.419 442.19 199.628V206H440.564V199.725C440.564 199.045 440.409 198.538 440.099 198.204C439.788 197.864 439.267 197.694 438.534 197.694C437.931 197.694 437.43 197.876 437.031 198.239C436.633 198.597 436.401 199.08 436.337 199.689V206H434.702V199.769C434.702 198.386 434.025 197.694 432.672 197.694C431.605 197.694 430.876 198.148 430.483 199.057V206H428.857V196.49H430.396ZM450.188 203.478C450.188 203.038 450.021 202.698 449.688 202.458C449.359 202.212 448.782 202.001 447.956 201.825C447.136 201.649 446.482 201.438 445.996 201.192C445.516 200.946 445.158 200.653 444.924 200.313C444.695 199.974 444.581 199.569 444.581 199.101C444.581 198.321 444.909 197.662 445.565 197.123C446.228 196.584 447.071 196.314 448.097 196.314C449.175 196.314 450.048 196.593 450.716 197.149C451.39 197.706 451.727 198.418 451.727 199.285H450.092C450.092 198.84 449.901 198.456 449.521 198.134C449.146 197.812 448.671 197.65 448.097 197.65C447.505 197.65 447.042 197.779 446.708 198.037C446.374 198.295 446.207 198.632 446.207 199.048C446.207 199.44 446.362 199.736 446.673 199.936C446.983 200.135 447.543 200.325 448.352 200.507C449.166 200.688 449.825 200.905 450.329 201.157C450.833 201.409 451.205 201.714 451.445 202.071C451.691 202.423 451.814 202.854 451.814 203.363C451.814 204.213 451.475 204.896 450.795 205.411C450.115 205.921 449.233 206.176 448.149 206.176C447.388 206.176 446.714 206.041 446.128 205.771C445.542 205.502 445.082 205.127 444.748 204.646C444.42 204.16 444.256 203.636 444.256 203.073H445.882C445.911 203.618 446.128 204.052 446.532 204.374C446.942 204.69 447.481 204.849 448.149 204.849C448.765 204.849 449.257 204.726 449.626 204.479C450.001 204.228 450.188 203.894 450.188 203.478ZM362.351 221.806C362.351 220.481 362.526 219.21 362.878 217.991C363.235 216.772 363.766 215.665 364.469 214.669C365.172 213.673 365.901 212.97 366.657 212.56L366.991 213.632C366.136 214.288 365.433 215.29 364.882 216.638C364.337 217.985 364.038 219.494 363.985 221.164L363.977 221.911C363.977 224.173 364.39 226.136 365.216 227.8C365.714 228.796 366.306 229.575 366.991 230.138L366.657 231.131C365.878 230.697 365.134 229.971 364.425 228.951C363.042 226.959 362.351 224.577 362.351 221.806ZM372.59 221.296C371.143 220.88 370.088 220.37 369.426 219.767C368.77 219.157 368.441 218.407 368.441 217.517C368.441 216.509 368.843 215.677 369.646 215.021C370.454 214.358 371.503 214.027 372.792 214.027C373.671 214.027 374.453 214.197 375.139 214.537C375.83 214.877 376.363 215.346 376.738 215.943C377.119 216.541 377.31 217.194 377.31 217.903H375.613C375.613 217.13 375.367 216.523 374.875 216.084C374.383 215.639 373.688 215.416 372.792 215.416C371.96 215.416 371.31 215.601 370.841 215.97C370.378 216.333 370.146 216.84 370.146 217.49C370.146 218.012 370.366 218.454 370.806 218.817C371.251 219.175 372.004 219.503 373.064 219.802C374.131 220.101 374.963 220.432 375.561 220.795C376.164 221.152 376.609 221.571 376.896 222.052C377.189 222.532 377.336 223.098 377.336 223.748C377.336 224.785 376.932 225.617 376.123 226.244C375.314 226.865 374.233 227.176 372.88 227.176C372.001 227.176 371.181 227.009 370.419 226.675C369.657 226.335 369.068 225.872 368.652 225.286C368.242 224.7 368.037 224.035 368.037 223.291H369.733C369.733 224.064 370.018 224.677 370.586 225.128C371.16 225.573 371.925 225.796 372.88 225.796C373.771 225.796 374.453 225.614 374.928 225.251C375.402 224.888 375.64 224.393 375.64 223.766C375.64 223.139 375.42 222.655 374.98 222.315C374.541 221.97 373.744 221.63 372.59 221.296ZM381.458 215.188V217.49H383.233V218.747H381.458V224.645C381.458 225.025 381.537 225.312 381.695 225.506C381.854 225.693 382.123 225.787 382.504 225.787C382.691 225.787 382.949 225.752 383.277 225.682V227C382.85 227.117 382.434 227.176 382.029 227.176C381.303 227.176 380.755 226.956 380.386 226.517C380.017 226.077 379.832 225.453 379.832 224.645V218.747H378.101V217.49H379.832V215.188H381.458ZM389.737 218.949C389.491 218.908 389.225 218.888 388.938 218.888C387.871 218.888 387.147 219.342 386.767 220.25V227H385.141V217.49H386.723L386.749 218.589C387.282 217.739 388.038 217.314 389.017 217.314C389.333 217.314 389.573 217.355 389.737 217.438V218.949ZM397.111 226.06C396.479 226.804 395.55 227.176 394.325 227.176C393.312 227.176 392.538 226.883 392.005 226.297C391.478 225.705 391.211 224.832 391.205 223.678V217.49H392.831V223.634C392.831 225.075 393.417 225.796 394.589 225.796C395.831 225.796 396.657 225.333 397.067 224.407V217.49H398.693V227H397.146L397.111 226.06ZM404.986 225.849C405.566 225.849 406.073 225.673 406.507 225.321C406.94 224.97 407.181 224.53 407.228 224.003H408.766C408.736 224.548 408.549 225.066 408.203 225.559C407.857 226.051 407.395 226.443 406.814 226.736C406.24 227.029 405.631 227.176 404.986 227.176C403.691 227.176 402.66 226.745 401.893 225.884C401.131 225.017 400.75 223.833 400.75 222.333V222.061C400.75 221.135 400.92 220.312 401.26 219.591C401.6 218.87 402.086 218.311 402.719 217.912C403.357 217.514 404.11 217.314 404.978 217.314C406.044 217.314 406.929 217.634 407.632 218.272C408.341 218.911 408.719 219.74 408.766 220.76H407.228C407.181 220.145 406.946 219.641 406.524 219.248C406.108 218.85 405.593 218.65 404.978 218.65C404.151 218.65 403.51 218.949 403.053 219.547C402.602 220.139 402.376 220.997 402.376 222.122V222.43C402.376 223.525 402.602 224.369 403.053 224.961C403.504 225.553 404.148 225.849 404.986 225.849ZM412.8 215.188V217.49H414.575V218.747H412.8V224.645C412.8 225.025 412.879 225.312 413.037 225.506C413.195 225.693 413.465 225.787 413.846 225.787C414.033 225.787 414.291 225.752 414.619 225.682V227C414.191 227.117 413.775 227.176 413.371 227.176C412.645 227.176 412.097 226.956 411.728 226.517C411.358 226.077 411.174 225.453 411.174 224.645V218.747H409.442V217.49H411.174V215.188H412.8ZM422.354 226.06C421.721 226.804 420.792 227.176 419.567 227.176C418.554 227.176 417.78 226.883 417.247 226.297C416.72 225.705 416.453 224.832 416.447 223.678V217.49H418.073V223.634C418.073 225.075 418.659 225.796 419.831 225.796C421.073 225.796 421.899 225.333 422.31 224.407V217.49H423.936V227H422.389L422.354 226.06ZM431.011 218.949C430.765 218.908 430.498 218.888 430.211 218.888C429.145 218.888 428.421 219.342 428.04 220.25V227H426.414V217.49H427.996L428.022 218.589C428.556 217.739 429.312 217.314 430.29 217.314C430.606 217.314 430.847 217.355 431.011 217.438V218.949ZM436.284 227.176C434.995 227.176 433.946 226.754 433.138 225.91C432.329 225.061 431.925 223.927 431.925 222.509V222.21C431.925 221.267 432.104 220.426 432.461 219.688C432.824 218.943 433.328 218.363 433.973 217.947C434.623 217.525 435.326 217.314 436.082 217.314C437.318 217.314 438.279 217.722 438.965 218.536C439.65 219.351 439.993 220.517 439.993 222.034V222.711H433.551C433.574 223.648 433.847 224.407 434.368 224.987C434.896 225.562 435.563 225.849 436.372 225.849C436.946 225.849 437.433 225.731 437.831 225.497C438.229 225.263 438.578 224.952 438.877 224.565L439.87 225.339C439.073 226.563 437.878 227.176 436.284 227.176ZM436.082 218.65C435.426 218.65 434.875 218.891 434.43 219.371C433.984 219.846 433.709 220.514 433.604 221.375H438.367V221.252C438.32 220.426 438.098 219.787 437.699 219.336C437.301 218.879 436.762 218.65 436.082 218.65ZM441.487 222.166C441.487 220.707 441.833 219.535 442.524 218.65C443.216 217.76 444.121 217.314 445.24 217.314C446.354 217.314 447.235 217.695 447.886 218.457V213.5H449.512V227H448.018L447.938 225.98C447.288 226.777 446.383 227.176 445.223 227.176C444.121 227.176 443.222 226.725 442.524 225.822C441.833 224.92 441.487 223.742 441.487 222.289V222.166ZM443.113 222.351C443.113 223.429 443.336 224.272 443.781 224.882C444.227 225.491 444.842 225.796 445.627 225.796C446.658 225.796 447.411 225.333 447.886 224.407V220.039C447.399 219.143 446.652 218.694 445.645 218.694C444.848 218.694 444.227 219.002 443.781 219.617C443.336 220.232 443.113 221.144 443.113 222.351ZM456.763 227V214.203H460.375C461.488 214.203 462.473 214.449 463.328 214.941C464.184 215.434 464.843 216.134 465.306 217.042C465.774 217.95 466.012 218.993 466.018 220.171V220.988C466.018 222.195 465.783 223.253 465.314 224.161C464.852 225.069 464.187 225.767 463.319 226.253C462.458 226.739 461.453 226.988 460.305 227H456.763ZM458.45 215.592V225.62H460.226C461.526 225.62 462.537 225.216 463.258 224.407C463.984 223.599 464.348 222.447 464.348 220.953V220.206C464.348 218.753 464.005 217.625 463.319 216.822C462.64 216.014 461.673 215.604 460.419 215.592H458.45ZM474.191 227C474.098 226.812 474.021 226.479 473.963 225.998C473.207 226.783 472.305 227.176 471.256 227.176C470.318 227.176 469.548 226.912 468.944 226.385C468.347 225.852 468.048 225.178 468.048 224.363C468.048 223.373 468.423 222.605 469.173 222.061C469.929 221.51 470.989 221.234 472.354 221.234H473.937V220.487C473.937 219.919 473.767 219.468 473.427 219.134C473.087 218.794 472.586 218.624 471.924 218.624C471.344 218.624 470.857 218.771 470.465 219.063C470.072 219.356 469.876 219.711 469.876 220.127H468.241C468.241 219.652 468.408 219.195 468.742 218.756C469.082 218.311 469.539 217.959 470.113 217.701C470.693 217.443 471.329 217.314 472.021 217.314C473.116 217.314 473.975 217.59 474.596 218.141C475.217 218.686 475.539 219.438 475.562 220.399V224.776C475.562 225.649 475.674 226.344 475.896 226.859V227H474.191ZM471.493 225.761C472.003 225.761 472.486 225.629 472.943 225.365C473.4 225.102 473.731 224.759 473.937 224.337V222.386H472.662C470.67 222.386 469.674 222.969 469.674 224.135C469.674 224.645 469.844 225.043 470.184 225.33C470.523 225.617 470.96 225.761 471.493 225.761ZM480.317 215.188V217.49H482.093V218.747H480.317V224.645C480.317 225.025 480.396 225.312 480.555 225.506C480.713 225.693 480.982 225.787 481.363 225.787C481.551 225.787 481.809 225.752 482.137 225.682V227C481.709 227.117 481.293 227.176 480.889 227.176C480.162 227.176 479.614 226.956 479.245 226.517C478.876 226.077 478.691 225.453 478.691 224.645V218.747H476.96V217.49H478.691V215.188H480.317ZM489.871 227C489.777 226.812 489.701 226.479 489.643 225.998C488.887 226.783 487.984 227.176 486.936 227.176C485.998 227.176 485.228 226.912 484.624 226.385C484.026 225.852 483.728 225.178 483.728 224.363C483.728 223.373 484.103 222.605 484.853 222.061C485.608 221.51 486.669 221.234 488.034 221.234H489.616V220.487C489.616 219.919 489.446 219.468 489.106 219.134C488.767 218.794 488.266 218.624 487.604 218.624C487.023 218.624 486.537 218.771 486.145 219.063C485.752 219.356 485.556 219.711 485.556 220.127H483.921C483.921 219.652 484.088 219.195 484.422 218.756C484.762 218.311 485.219 217.959 485.793 217.701C486.373 217.443 487.009 217.314 487.7 217.314C488.796 217.314 489.654 217.59 490.275 218.141C490.896 218.686 491.219 219.438 491.242 220.399V224.776C491.242 225.649 491.354 226.344 491.576 226.859V227H489.871ZM487.173 225.761C487.683 225.761 488.166 225.629 488.623 225.365C489.08 225.102 489.411 224.759 489.616 224.337V222.386H488.342C486.35 222.386 485.354 222.969 485.354 224.135C485.354 224.645 485.523 225.043 485.863 225.33C486.203 225.617 486.64 225.761 487.173 225.761ZM497.544 221.894C497.544 223.2 497.371 224.454 497.025 225.655C496.686 226.851 496.161 227.955 495.452 228.969C494.749 229.982 494.011 230.703 493.237 231.131L492.895 230.138C493.797 229.446 494.521 228.374 495.065 226.921C495.616 225.462 495.897 223.845 495.909 222.069V221.788C495.909 220.558 495.78 219.415 495.522 218.36C495.265 217.3 494.904 216.351 494.441 215.513C493.984 214.675 493.469 214.021 492.895 213.553L493.237 212.56C494.011 212.987 494.746 213.702 495.443 214.704C496.146 215.706 496.671 216.811 497.017 218.018C497.368 219.225 497.544 220.517 497.544 221.894Z" fill="black"/>
<path d="M266.053 84.1134C266.082 83.5619 265.658 83.0912 265.107 83.0622L256.119 82.5887C255.568 82.5597 255.097 82.9832 255.068 83.5347C255.039 84.0863 255.463 84.5569 256.014 84.586L264.003 85.0068L263.582 92.9957C263.553 93.5473 263.977 94.0179 264.528 94.047C265.08 94.076 265.55 93.6525 265.579 93.101L266.053 84.1134ZM154.669 184.743L265.723 84.8041L264.385 83.3175L153.331 183.257L154.669 184.743Z" fill="black"/>
<path d="M165.171 196.441C164.862 196.899 164.983 197.521 165.441 197.829L172.906 202.857C173.364 203.165 173.986 203.044 174.294 202.586C174.603 202.128 174.482 201.506 174.024 201.198L167.388 196.729L171.857 190.094C172.165 189.636 172.044 189.014 171.586 188.706C171.128 188.397 170.506 188.518 170.198 188.976L165.171 196.441ZM288.808 172.019L165.808 196.019L166.192 197.981L289.192 173.981L288.808 172.019Z" fill="black"/>
<path d="M338.293 235.707C338.683 236.098 339.317 236.098 339.707 235.707L346.071 229.343C346.462 228.953 346.462 228.319 346.071 227.929C345.681 227.538 345.047 227.538 344.657 227.929L339 233.586L333.343 227.929C332.953 227.538 332.319 227.538 331.929 227.929C331.538 228.319 331.538 228.953 331.929 229.343L338.293 235.707ZM338 194V235H340V194H338Z" fill="black"/>
<rect x="289.5" y="147.5" width="99" height="49" rx="3.5" fill="white" stroke="black"/>
<path d="M308.915 173.296C307.468 172.88 306.413 172.37 305.751 171.767C305.095 171.157 304.767 170.407 304.767 169.517C304.767 168.509 305.168 167.677 305.971 167.021C306.779 166.358 307.828 166.027 309.117 166.027C309.996 166.027 310.778 166.197 311.464 166.537C312.155 166.877 312.688 167.346 313.063 167.943C313.444 168.541 313.635 169.194 313.635 169.903H311.938C311.938 169.13 311.692 168.523 311.2 168.084C310.708 167.639 310.014 167.416 309.117 167.416C308.285 167.416 307.635 167.601 307.166 167.97C306.703 168.333 306.472 168.84 306.472 169.49C306.472 170.012 306.691 170.454 307.131 170.817C307.576 171.175 308.329 171.503 309.39 171.802C310.456 172.101 311.288 172.432 311.886 172.795C312.489 173.152 312.935 173.571 313.222 174.052C313.515 174.532 313.661 175.098 313.661 175.748C313.661 176.785 313.257 177.617 312.448 178.244C311.64 178.865 310.559 179.176 309.205 179.176C308.326 179.176 307.506 179.009 306.744 178.675C305.982 178.335 305.394 177.872 304.978 177.286C304.567 176.7 304.362 176.035 304.362 175.291H306.059C306.059 176.064 306.343 176.677 306.911 177.128C307.485 177.573 308.25 177.796 309.205 177.796C310.096 177.796 310.778 177.614 311.253 177.251C311.728 176.888 311.965 176.393 311.965 175.766C311.965 175.139 311.745 174.655 311.306 174.315C310.866 173.97 310.069 173.63 308.915 173.296ZM319.392 177.849C319.972 177.849 320.479 177.673 320.912 177.321C321.346 176.97 321.586 176.53 321.633 176.003H323.171C323.142 176.548 322.954 177.066 322.608 177.559C322.263 178.051 321.8 178.443 321.22 178.736C320.646 179.029 320.036 179.176 319.392 179.176C318.097 179.176 317.065 178.745 316.298 177.884C315.536 177.017 315.155 175.833 315.155 174.333V174.061C315.155 173.135 315.325 172.312 315.665 171.591C316.005 170.87 316.491 170.311 317.124 169.912C317.763 169.514 318.516 169.314 319.383 169.314C320.449 169.314 321.334 169.634 322.037 170.272C322.746 170.911 323.124 171.74 323.171 172.76H321.633C321.586 172.145 321.352 171.641 320.93 171.248C320.514 170.85 319.998 170.65 319.383 170.65C318.557 170.65 317.915 170.949 317.458 171.547C317.007 172.139 316.781 172.997 316.781 174.122V174.43C316.781 175.525 317.007 176.369 317.458 176.961C317.909 177.553 318.554 177.849 319.392 177.849ZM329.596 170.949C329.35 170.908 329.083 170.888 328.796 170.888C327.729 170.888 327.006 171.342 326.625 172.25V179H324.999V169.49H326.581L326.607 170.589C327.141 169.739 327.896 169.314 328.875 169.314C329.191 169.314 329.432 169.355 329.596 169.438V170.949ZM336.618 179C336.524 178.812 336.448 178.479 336.39 177.998C335.634 178.783 334.731 179.176 333.683 179.176C332.745 179.176 331.975 178.912 331.371 178.385C330.773 177.852 330.475 177.178 330.475 176.363C330.475 175.373 330.85 174.605 331.6 174.061C332.355 173.51 333.416 173.234 334.781 173.234H336.363V172.487C336.363 171.919 336.193 171.468 335.854 171.134C335.514 170.794 335.013 170.624 334.351 170.624C333.771 170.624 333.284 170.771 332.892 171.063C332.499 171.356 332.303 171.711 332.303 172.127H330.668C330.668 171.652 330.835 171.195 331.169 170.756C331.509 170.311 331.966 169.959 332.54 169.701C333.12 169.443 333.756 169.314 334.447 169.314C335.543 169.314 336.401 169.59 337.022 170.141C337.644 170.686 337.966 171.438 337.989 172.399V176.776C337.989 177.649 338.101 178.344 338.323 178.859V179H336.618ZM333.92 177.761C334.43 177.761 334.913 177.629 335.37 177.365C335.827 177.102 336.158 176.759 336.363 176.337V174.386H335.089C333.097 174.386 332.101 174.969 332.101 176.135C332.101 176.645 332.271 177.043 332.61 177.33C332.95 177.617 333.387 177.761 333.92 177.761ZM348.571 174.351C348.571 175.798 348.24 176.964 347.578 177.849C346.916 178.733 346.02 179.176 344.889 179.176C343.734 179.176 342.826 178.81 342.164 178.077V182.656H340.538V169.49H342.023L342.103 170.545C342.765 169.725 343.685 169.314 344.862 169.314C346.005 169.314 346.907 169.745 347.569 170.606C348.237 171.468 348.571 172.666 348.571 174.201V174.351ZM346.945 174.166C346.945 173.094 346.717 172.247 346.26 171.626C345.803 171.005 345.176 170.694 344.379 170.694C343.395 170.694 342.656 171.131 342.164 172.004V176.548C342.65 177.415 343.395 177.849 344.396 177.849C345.176 177.849 345.794 177.541 346.251 176.926C346.714 176.305 346.945 175.385 346.945 174.166ZM354.592 179.176C353.303 179.176 352.254 178.754 351.445 177.91C350.637 177.061 350.232 175.927 350.232 174.509V174.21C350.232 173.267 350.411 172.426 350.769 171.688C351.132 170.943 351.636 170.363 352.28 169.947C352.931 169.525 353.634 169.314 354.39 169.314C355.626 169.314 356.587 169.722 357.272 170.536C357.958 171.351 358.301 172.517 358.301 174.034V174.711H351.858C351.882 175.648 352.154 176.407 352.676 176.987C353.203 177.562 353.871 177.849 354.68 177.849C355.254 177.849 355.74 177.731 356.139 177.497C356.537 177.263 356.886 176.952 357.185 176.565L358.178 177.339C357.381 178.563 356.186 179.176 354.592 179.176ZM354.39 170.65C353.733 170.65 353.183 170.891 352.737 171.371C352.292 171.846 352.017 172.514 351.911 173.375H356.675V173.252C356.628 172.426 356.405 171.787 356.007 171.336C355.608 170.879 355.069 170.65 354.39 170.65ZM364.787 170.949C364.541 170.908 364.274 170.888 363.987 170.888C362.921 170.888 362.197 171.342 361.816 172.25V179H360.19V169.49H361.772L361.799 170.589C362.332 169.739 363.088 169.314 364.066 169.314C364.383 169.314 364.623 169.355 364.787 169.438V170.949ZM371.827 176.478C371.827 176.038 371.66 175.698 371.326 175.458C370.998 175.212 370.421 175.001 369.595 174.825C368.774 174.649 368.121 174.438 367.635 174.192C367.154 173.946 366.797 173.653 366.562 173.313C366.334 172.974 366.22 172.569 366.22 172.101C366.22 171.321 366.548 170.662 367.204 170.123C367.866 169.584 368.71 169.314 369.735 169.314C370.813 169.314 371.687 169.593 372.354 170.149C373.028 170.706 373.365 171.418 373.365 172.285H371.73C371.73 171.84 371.54 171.456 371.159 171.134C370.784 170.812 370.31 170.65 369.735 170.65C369.144 170.65 368.681 170.779 368.347 171.037C368.013 171.295 367.846 171.632 367.846 172.048C367.846 172.44 368.001 172.736 368.312 172.936C368.622 173.135 369.182 173.325 369.99 173.507C370.805 173.688 371.464 173.905 371.968 174.157C372.472 174.409 372.844 174.714 373.084 175.071C373.33 175.423 373.453 175.854 373.453 176.363C373.453 177.213 373.113 177.896 372.434 178.411C371.754 178.921 370.872 179.176 369.788 179.176C369.026 179.176 368.353 179.041 367.767 178.771C367.181 178.502 366.721 178.127 366.387 177.646C366.059 177.16 365.895 176.636 365.895 176.073H367.521C367.55 176.618 367.767 177.052 368.171 177.374C368.581 177.69 369.12 177.849 369.788 177.849C370.403 177.849 370.896 177.726 371.265 177.479C371.64 177.228 371.827 176.894 371.827 176.478Z" fill="black"/>
<path d="M386.548 118H384.852V112.085H378.4V118H376.713V105.203H378.4V110.705H384.852V105.203H386.548V118ZM398.123 106.592H394.01V118H392.331V106.592H388.227V105.203H398.123V106.592ZM409.004 106.592H404.891V118H403.212V106.592H399.107V105.203H409.004V106.592ZM412.59 112.99V118H410.902V105.203H415.622C417.022 105.203 418.118 105.561 418.909 106.275C419.706 106.99 420.104 107.937 420.104 109.114C420.104 110.356 419.715 111.314 418.936 111.988C418.162 112.656 417.052 112.99 415.604 112.99H412.59ZM412.59 111.61H415.622C416.524 111.61 417.216 111.399 417.696 110.978C418.177 110.55 418.417 109.935 418.417 109.132C418.417 108.37 418.177 107.761 417.696 107.304C417.216 106.847 416.557 106.609 415.719 106.592H412.59V111.61ZM360.014 133.823H357.008V139H355.312V126.203H359.548C360.989 126.203 362.097 126.531 362.87 127.188C363.649 127.844 364.039 128.799 364.039 130.053C364.039 130.85 363.822 131.544 363.389 132.136C362.961 132.728 362.363 133.17 361.596 133.463L364.602 138.895V139H362.791L360.014 133.823ZM357.008 132.443H359.601C360.438 132.443 361.104 132.227 361.596 131.793C362.094 131.359 362.343 130.779 362.343 130.053C362.343 129.262 362.105 128.655 361.631 128.233C361.162 127.812 360.482 127.598 359.592 127.592H357.008V132.443ZM370.104 139.176C368.814 139.176 367.766 138.754 366.957 137.91C366.148 137.061 365.744 135.927 365.744 134.509V134.21C365.744 133.267 365.923 132.426 366.28 131.688C366.644 130.943 367.147 130.363 367.792 129.947C368.442 129.525 369.146 129.314 369.901 129.314C371.138 129.314 372.099 129.722 372.784 130.536C373.47 131.351 373.812 132.517 373.812 134.034V134.711H367.37C367.394 135.648 367.666 136.407 368.188 136.987C368.715 137.562 369.383 137.849 370.191 137.849C370.766 137.849 371.252 137.731 371.65 137.497C372.049 137.263 372.397 136.952 372.696 136.565L373.689 137.339C372.893 138.563 371.697 139.176 370.104 139.176ZM369.901 130.65C369.245 130.65 368.694 130.891 368.249 131.371C367.804 131.846 367.528 132.514 367.423 133.375H372.187V133.252C372.14 132.426 371.917 131.787 371.519 131.336C371.12 130.879 370.581 130.65 369.901 130.65ZM381.239 136.478C381.239 136.038 381.072 135.698 380.738 135.458C380.41 135.212 379.833 135.001 379.007 134.825C378.187 134.649 377.533 134.438 377.047 134.192C376.566 133.946 376.209 133.653 375.975 133.313C375.746 132.974 375.632 132.569 375.632 132.101C375.632 131.321 375.96 130.662 376.616 130.123C377.278 129.584 378.122 129.314 379.147 129.314C380.226 129.314 381.099 129.593 381.767 130.149C382.44 130.706 382.777 131.418 382.777 132.285H381.143C381.143 131.84 380.952 131.456 380.571 131.134C380.196 130.812 379.722 130.65 379.147 130.65C378.556 130.65 378.093 130.779 377.759 131.037C377.425 131.295 377.258 131.632 377.258 132.048C377.258 132.44 377.413 132.736 377.724 132.936C378.034 133.135 378.594 133.325 379.402 133.507C380.217 133.688 380.876 133.905 381.38 134.157C381.884 134.409 382.256 134.714 382.496 135.071C382.742 135.423 382.865 135.854 382.865 136.363C382.865 137.213 382.525 137.896 381.846 138.411C381.166 138.921 380.284 139.176 379.2 139.176C378.438 139.176 377.765 139.041 377.179 138.771C376.593 138.502 376.133 138.127 375.799 137.646C375.471 137.16 375.307 136.636 375.307 136.073H376.933C376.962 136.618 377.179 137.052 377.583 137.374C377.993 137.69 378.532 137.849 379.2 137.849C379.815 137.849 380.308 137.726 380.677 137.479C381.052 137.228 381.239 136.894 381.239 136.478ZM393.017 134.351C393.017 135.798 392.686 136.964 392.023 137.849C391.361 138.733 390.465 139.176 389.334 139.176C388.18 139.176 387.271 138.81 386.609 138.077V142.656H384.983V129.49H386.469L386.548 130.545C387.21 129.725 388.13 129.314 389.308 129.314C390.45 129.314 391.353 129.745 392.015 130.606C392.683 131.468 393.017 132.666 393.017 134.201V134.351ZM391.391 134.166C391.391 133.094 391.162 132.247 390.705 131.626C390.248 131.005 389.621 130.694 388.824 130.694C387.84 130.694 387.102 131.131 386.609 132.004V136.548C387.096 137.415 387.84 137.849 388.842 137.849C389.621 137.849 390.239 137.541 390.696 136.926C391.159 136.305 391.391 135.385 391.391 134.166ZM394.66 134.157C394.66 133.226 394.842 132.388 395.205 131.644C395.574 130.899 396.084 130.325 396.734 129.921C397.391 129.517 398.138 129.314 398.976 129.314C400.271 129.314 401.316 129.763 402.113 130.659C402.916 131.556 403.317 132.748 403.317 134.236V134.351C403.317 135.276 403.139 136.108 402.781 136.847C402.43 137.579 401.923 138.15 401.261 138.561C400.604 138.971 399.849 139.176 398.993 139.176C397.704 139.176 396.658 138.728 395.855 137.831C395.059 136.935 394.66 135.748 394.66 134.271V134.157ZM396.295 134.351C396.295 135.405 396.538 136.252 397.024 136.891C397.517 137.529 398.173 137.849 398.993 137.849C399.819 137.849 400.476 137.526 400.962 136.882C401.448 136.231 401.691 135.323 401.691 134.157C401.691 133.114 401.442 132.271 400.944 131.626C400.452 130.976 399.796 130.65 398.976 130.65C398.173 130.65 397.525 130.97 397.033 131.608C396.541 132.247 396.295 133.161 396.295 134.351ZM406.895 129.49L406.947 130.686C407.674 129.771 408.623 129.314 409.795 129.314C411.805 129.314 412.818 130.448 412.836 132.716V139H411.21V132.707C411.204 132.021 411.046 131.515 410.735 131.187C410.431 130.858 409.953 130.694 409.303 130.694C408.775 130.694 408.312 130.835 407.914 131.116C407.516 131.397 407.205 131.767 406.982 132.224V139H405.356V129.49H406.895ZM420.825 136.478C420.825 136.038 420.658 135.698 420.324 135.458C419.996 135.212 419.419 135.001 418.593 134.825C417.772 134.649 417.119 134.438 416.633 134.192C416.152 133.946 415.795 133.653 415.561 133.313C415.332 132.974 415.218 132.569 415.218 132.101C415.218 131.321 415.546 130.662 416.202 130.123C416.864 129.584 417.708 129.314 418.733 129.314C419.812 129.314 420.685 129.593 421.353 130.149C422.026 130.706 422.363 131.418 422.363 132.285H420.729C420.729 131.84 420.538 131.456 420.157 131.134C419.782 130.812 419.308 130.65 418.733 130.65C418.142 130.65 417.679 130.779 417.345 131.037C417.011 131.295 416.844 131.632 416.844 132.048C416.844 132.44 416.999 132.736 417.31 132.936C417.62 133.135 418.18 133.325 418.988 133.507C419.803 133.688 420.462 133.905 420.966 134.157C421.47 134.409 421.842 134.714 422.082 135.071C422.328 135.423 422.451 135.854 422.451 136.363C422.451 137.213 422.111 137.896 421.432 138.411C420.752 138.921 419.87 139.176 418.786 139.176C418.024 139.176 417.351 139.041 416.765 138.771C416.179 138.502 415.719 138.127 415.385 137.646C415.057 137.16 414.893 136.636 414.893 136.073H416.519C416.548 136.618 416.765 137.052 417.169 137.374C417.579 137.69 418.118 137.849 418.786 137.849C419.401 137.849 419.894 137.726 420.263 137.479C420.638 137.228 420.825 136.894 420.825 136.478ZM428.516 139.176C427.227 139.176 426.178 138.754 425.369 137.91C424.561 137.061 424.156 135.927 424.156 134.509V134.21C424.156 133.267 424.335 132.426 424.692 131.688C425.056 130.943 425.56 130.363 426.204 129.947C426.854 129.525 427.558 129.314 428.313 129.314C429.55 129.314 430.511 129.722 431.196 130.536C431.882 131.351 432.225 132.517 432.225 134.034V134.711H425.782C425.806 135.648 426.078 136.407 426.6 136.987C427.127 137.562 427.795 137.849 428.604 137.849C429.178 137.849 429.664 137.731 430.062 137.497C430.461 137.263 430.81 136.952 431.108 136.565L432.102 137.339C431.305 138.563 430.109 139.176 428.516 139.176ZM428.313 130.65C427.657 130.65 427.106 130.891 426.661 131.371C426.216 131.846 425.94 132.514 425.835 133.375H430.599V133.252C430.552 132.426 430.329 131.787 429.931 131.336C429.532 130.879 428.993 130.65 428.313 130.65ZM439.651 136.478C439.651 136.038 439.484 135.698 439.15 135.458C438.822 135.212 438.245 135.001 437.419 134.825C436.599 134.649 435.945 134.438 435.459 134.192C434.979 133.946 434.621 133.653 434.387 133.313C434.158 132.974 434.044 132.569 434.044 132.101C434.044 131.321 434.372 130.662 435.028 130.123C435.69 129.584 436.534 129.314 437.56 129.314C438.638 129.314 439.511 129.593 440.179 130.149C440.853 130.706 441.189 131.418 441.189 132.285H439.555C439.555 131.84 439.364 131.456 438.983 131.134C438.608 130.812 438.134 130.65 437.56 130.65C436.968 130.65 436.505 130.779 436.171 131.037C435.837 131.295 435.67 131.632 435.67 132.048C435.67 132.44 435.825 132.736 436.136 132.936C436.446 133.135 437.006 133.325 437.814 133.507C438.629 133.688 439.288 133.905 439.792 134.157C440.296 134.409 440.668 134.714 440.908 135.071C441.154 135.423 441.277 135.854 441.277 136.363C441.277 137.213 440.938 137.896 440.258 138.411C439.578 138.921 438.696 139.176 437.612 139.176C436.851 139.176 436.177 139.041 435.591 138.771C435.005 138.502 434.545 138.127 434.211 137.646C433.883 137.16 433.719 136.636 433.719 136.073H435.345C435.374 136.618 435.591 137.052 435.995 137.374C436.405 137.69 436.944 137.849 437.612 137.849C438.228 137.849 438.72 137.726 439.089 137.479C439.464 137.228 439.651 136.894 439.651 136.478Z" fill="black"/>
<path d="M338.293 146.707C338.683 147.098 339.317 147.098 339.707 146.707L346.071 140.343C346.462 139.953 346.462 139.319 346.071 138.929C345.681 138.538 345.047 138.538 344.657 138.929L339 144.586L333.343 138.929C332.953 138.538 332.319 138.538 331.929 138.929C331.538 139.319 331.538 139.953 331.929 140.343L338.293 146.707ZM338 85V146H340V85H338Z" fill="black"/>
<rect x="260" y="98" width="287" height="197" rx="3" stroke="black" stroke-opacity="0.6" stroke-width="2"/>
<path d="M468.452 163.896C468.452 163.288 468.237 162.822 467.808 162.5C467.378 162.171 466.604 161.827 465.487 161.469C464.37 161.104 463.486 160.745 462.834 160.395C461.058 159.435 460.17 158.142 460.17 156.517C460.17 155.672 460.406 154.92 460.879 154.261C461.359 153.595 462.043 153.076 462.931 152.703C463.826 152.331 464.828 152.145 465.938 152.145C467.056 152.145 468.051 152.349 468.925 152.757C469.799 153.158 470.475 153.727 470.955 154.465C471.442 155.202 471.686 156.04 471.686 156.979H468.463C468.463 156.262 468.237 155.707 467.786 155.313C467.335 154.912 466.701 154.712 465.885 154.712C465.097 154.712 464.485 154.88 464.048 155.217C463.611 155.546 463.393 155.983 463.393 156.527C463.393 157.036 463.647 157.462 464.155 157.806C464.671 158.149 465.426 158.472 466.422 158.772C468.255 159.324 469.591 160.008 470.429 160.824C471.267 161.641 471.686 162.658 471.686 163.875C471.686 165.229 471.174 166.292 470.149 167.065C469.125 167.832 467.747 168.215 466.014 168.215C464.811 168.215 463.715 167.996 462.727 167.56C461.738 167.116 460.983 166.51 460.46 165.744C459.944 164.978 459.687 164.09 459.687 163.08H462.92C462.92 164.806 463.951 165.669 466.014 165.669C466.78 165.669 467.378 165.515 467.808 165.207C468.237 164.892 468.452 164.455 468.452 163.896ZM484.136 162.296C484.136 164.086 483.728 165.522 482.911 166.604C482.102 167.678 481.006 168.215 479.624 168.215C478.45 168.215 477.501 167.807 476.777 166.99V172.469H473.673V156.377H476.552L476.659 157.516C477.411 156.613 478.392 156.162 479.603 156.162C481.035 156.162 482.148 156.692 482.943 157.752C483.738 158.812 484.136 160.273 484.136 162.135V162.296ZM481.031 162.07C481.031 160.989 480.838 160.155 480.451 159.567C480.072 158.98 479.517 158.687 478.786 158.687C477.812 158.687 477.143 159.059 476.777 159.804V164.562C477.157 165.329 477.834 165.712 478.808 165.712C480.29 165.712 481.031 164.498 481.031 162.07ZM489.346 168H486.23V156.377H489.346V168ZM486.048 153.369C486.048 152.904 486.202 152.521 486.51 152.22C486.825 151.919 487.251 151.769 487.788 151.769C488.318 151.769 488.741 151.919 489.056 152.22C489.371 152.521 489.528 152.904 489.528 153.369C489.528 153.842 489.367 154.229 489.045 154.529C488.73 154.83 488.311 154.98 487.788 154.98C487.265 154.98 486.843 154.83 486.521 154.529C486.205 154.229 486.048 153.842 486.048 153.369ZM491.43 162.103C491.43 160.291 491.834 158.848 492.644 157.773C493.46 156.699 494.574 156.162 495.984 156.162C497.116 156.162 498.05 156.585 498.788 157.43V151.5H501.903V168H499.1L498.949 166.765C498.176 167.731 497.18 168.215 495.963 168.215C494.595 168.215 493.496 167.678 492.665 166.604C491.841 165.522 491.43 164.022 491.43 162.103ZM494.534 162.328C494.534 163.417 494.724 164.251 495.104 164.831C495.483 165.411 496.035 165.701 496.758 165.701C497.717 165.701 498.394 165.297 498.788 164.487V159.9C498.401 159.091 497.732 158.687 496.779 158.687C495.283 158.687 494.534 159.9 494.534 162.328ZM509.659 168.215C507.955 168.215 506.565 167.692 505.491 166.646C504.424 165.601 503.891 164.208 503.891 162.468V162.167C503.891 161 504.116 159.958 504.567 159.041C505.019 158.117 505.656 157.408 506.479 156.914C507.31 156.413 508.256 156.162 509.315 156.162C510.905 156.162 512.155 156.663 513.064 157.666C513.981 158.669 514.439 160.09 514.439 161.931V163.198H507.038C507.138 163.957 507.439 164.566 507.94 165.024C508.449 165.483 509.09 165.712 509.863 165.712C511.059 165.712 511.994 165.279 512.667 164.412L514.192 166.12C513.727 166.779 513.097 167.295 512.302 167.667C511.507 168.032 510.626 168.215 509.659 168.215ZM509.305 158.676C508.689 158.676 508.188 158.883 507.801 159.299C507.421 159.714 507.178 160.309 507.07 161.082H511.389V160.835C511.374 160.147 511.188 159.618 510.83 159.245C510.472 158.866 509.964 158.676 509.305 158.676ZM522.743 159.288C522.321 159.231 521.948 159.202 521.626 159.202C520.451 159.202 519.682 159.6 519.316 160.395V168H516.212V156.377H519.145L519.23 157.763C519.854 156.696 520.716 156.162 521.819 156.162C522.163 156.162 522.485 156.209 522.786 156.302L522.743 159.288Z" fill="black" fill-opacity="0.6"/>
<path d="M173.416 36V23.2031H177.028C178.142 23.2031 179.126 23.4492 179.981 23.9414C180.837 24.4336 181.496 25.1338 181.959 26.042C182.428 26.9502 182.665 27.9932 182.671 29.1709V29.9883C182.671 31.1953 182.437 32.2529 181.968 33.1611C181.505 34.0693 180.84 34.7666 179.973 35.2529C179.111 35.7393 178.106 35.9883 176.958 36H173.416ZM175.104 24.5918V34.6201H176.879C178.18 34.6201 179.19 34.2158 179.911 33.4072C180.638 32.5986 181.001 31.4473 181.001 29.9531V29.2061C181.001 27.7529 180.658 26.625 179.973 25.8223C179.293 25.0137 178.326 24.6035 177.072 24.5918H175.104ZM184.543 31.1572C184.543 30.2256 184.725 29.3877 185.088 28.6436C185.457 27.8994 185.967 27.3252 186.617 26.9209C187.273 26.5166 188.021 26.3145 188.858 26.3145C190.153 26.3145 191.199 26.7627 191.996 27.6592C192.799 28.5557 193.2 29.748 193.2 31.2363V31.3506C193.2 32.2764 193.021 33.1084 192.664 33.8467C192.312 34.5791 191.806 35.1504 191.144 35.5605C190.487 35.9707 189.731 36.1758 188.876 36.1758C187.587 36.1758 186.541 35.7275 185.738 34.8311C184.941 33.9346 184.543 32.748 184.543 31.2715V31.1572ZM186.178 31.3506C186.178 32.4053 186.421 33.252 186.907 33.8906C187.399 34.5293 188.056 34.8486 188.876 34.8486C189.702 34.8486 190.358 34.5264 190.845 33.8818C191.331 33.2314 191.574 32.3232 191.574 31.1572C191.574 30.1143 191.325 29.2705 190.827 28.626C190.335 27.9756 189.679 27.6504 188.858 27.6504C188.056 27.6504 187.408 27.9697 186.916 28.6084C186.424 29.2471 186.178 30.1611 186.178 31.3506ZM203.659 33.7588L205.487 26.4902H207.113L204.345 36H203.026L200.715 28.793L198.465 36H197.146L194.387 26.4902H196.004L197.876 33.6094L200.091 26.4902H201.4L203.659 33.7588ZM210.312 26.4902L210.365 27.6855C211.092 26.7715 212.041 26.3145 213.213 26.3145C215.223 26.3145 216.236 27.4482 216.254 29.7158V36H214.628V29.707C214.622 29.0215 214.464 28.5146 214.153 28.1865C213.849 27.8584 213.371 27.6943 212.721 27.6943C212.193 27.6943 211.73 27.835 211.332 28.1162C210.934 28.3975 210.623 28.7666 210.4 29.2236V36H208.774V26.4902H210.312ZM220.473 36H218.847V22.5H220.473V36ZM222.652 31.1572C222.652 30.2256 222.834 29.3877 223.197 28.6436C223.566 27.8994 224.076 27.3252 224.727 26.9209C225.383 26.5166 226.13 26.3145 226.968 26.3145C228.263 26.3145 229.309 26.7627 230.105 27.6592C230.908 28.5557 231.31 29.748 231.31 31.2363V31.3506C231.31 32.2764 231.131 33.1084 230.773 33.8467C230.422 34.5791 229.915 35.1504 229.253 35.5605C228.597 35.9707 227.841 36.1758 226.985 36.1758C225.696 36.1758 224.65 35.7275 223.848 34.8311C223.051 33.9346 222.652 32.748 222.652 31.2715V31.1572ZM224.287 31.3506C224.287 32.4053 224.53 33.252 225.017 33.8906C225.509 34.5293 226.165 34.8486 226.985 34.8486C227.812 34.8486 228.468 34.5264 228.954 33.8818C229.44 33.2314 229.684 32.3232 229.684 31.1572C229.684 30.1143 229.435 29.2705 228.937 28.626C228.444 27.9756 227.788 27.6504 226.968 27.6504C226.165 27.6504 225.518 27.9697 225.025 28.6084C224.533 29.2471 224.287 30.1611 224.287 31.3506ZM239.22 36C239.126 35.8125 239.05 35.4785 238.991 34.998C238.235 35.7832 237.333 36.1758 236.284 36.1758C235.347 36.1758 234.576 35.9121 233.973 35.3848C233.375 34.8516 233.076 34.1777 233.076 33.3633C233.076 32.373 233.451 31.6055 234.201 31.0605C234.957 30.5098 236.018 30.2344 237.383 30.2344H238.965V29.4873C238.965 28.9189 238.795 28.4678 238.455 28.1338C238.115 27.7939 237.614 27.624 236.952 27.624C236.372 27.624 235.886 27.7705 235.493 28.0635C235.101 28.3564 234.904 28.7109 234.904 29.127H233.27C233.27 28.6523 233.437 28.1953 233.771 27.7559C234.11 27.3105 234.567 26.959 235.142 26.7012C235.722 26.4434 236.357 26.3145 237.049 26.3145C238.145 26.3145 239.003 26.5898 239.624 27.1406C240.245 27.6855 240.567 28.4385 240.591 29.3994V33.7764C240.591 34.6494 240.702 35.3438 240.925 35.8594V36H239.22ZM236.521 34.7607C237.031 34.7607 237.515 34.6289 237.972 34.3652C238.429 34.1016 238.76 33.7588 238.965 33.3369V31.3857H237.69C235.698 31.3857 234.702 31.9688 234.702 33.1348C234.702 33.6445 234.872 34.043 235.212 34.3301C235.552 34.6172 235.988 34.7607 236.521 34.7607ZM242.744 31.166C242.744 29.707 243.09 28.5352 243.781 27.6504C244.473 26.7598 245.378 26.3145 246.497 26.3145C247.61 26.3145 248.492 26.6953 249.143 27.457V22.5H250.769V36H249.274L249.195 34.9805C248.545 35.7773 247.64 36.1758 246.479 36.1758C245.378 36.1758 244.479 35.7246 243.781 34.8223C243.09 33.9199 242.744 32.7422 242.744 31.2891V31.166ZM244.37 31.3506C244.37 32.4287 244.593 33.2725 245.038 33.8818C245.483 34.4912 246.099 34.7959 246.884 34.7959C247.915 34.7959 248.668 34.333 249.143 33.4072V29.0391C248.656 28.1426 247.909 27.6943 246.901 27.6943C246.104 27.6943 245.483 28.002 245.038 28.6172C244.593 29.2324 244.37 30.1436 244.37 31.3506Z" fill="black"/>
<path d="M159.291 54.2929C158.9 54.6834 158.9 55.3166 159.291 55.7071L165.654 62.0711C166.045 62.4616 166.678 62.4616 167.069 62.0711C167.459 61.6805 167.459 61.0474 167.069 60.6569L161.412 55L167.069 49.3431C167.459 48.9526 167.459 48.3195 167.069 47.9289C166.678 47.5384 166.045 47.5384 165.654 47.9289L159.291 54.2929ZM264.002 54L159.998 54V56L264.002 56V54Z" fill="black"/>
<circle cx="110" cy="55" r="49.5" fill="white" stroke="black"/>
<path d="M96.5703 56.9658L96.8164 58.6533L97.1768 57.1328L99.708 48.2031H101.132L103.602 57.1328L103.953 58.6797L104.226 56.957L106.212 48.2031H107.908L104.806 61H103.268L100.631 51.6748L100.429 50.6992L100.227 51.6748L97.4932 61H95.9551L92.8613 48.2031H94.5488L96.5703 56.9658ZM113.199 61.1758C111.91 61.1758 110.861 60.7539 110.053 59.9102C109.244 59.0605 108.84 57.9268 108.84 56.5088V56.21C108.84 55.2666 109.019 54.4258 109.376 53.6875C109.739 52.9434 110.243 52.3633 110.888 51.9473C111.538 51.5254 112.241 51.3145 112.997 51.3145C114.233 51.3145 115.194 51.7217 115.88 52.5361C116.565 53.3506 116.908 54.5166 116.908 56.0342V56.7109H110.466C110.489 57.6484 110.762 58.4072 111.283 58.9873C111.811 59.5615 112.479 59.8486 113.287 59.8486C113.861 59.8486 114.348 59.7314 114.746 59.4971C115.145 59.2627 115.493 58.9521 115.792 58.5654L116.785 59.3389C115.988 60.5635 114.793 61.1758 113.199 61.1758ZM112.997 52.6504C112.341 52.6504 111.79 52.8906 111.345 53.3711C110.899 53.8457 110.624 54.5137 110.519 55.375H115.282V55.252C115.235 54.4258 115.013 53.7871 114.614 53.3359C114.216 52.8789 113.677 52.6504 112.997 52.6504ZM126.849 56.3506C126.849 57.8037 126.515 58.9727 125.847 59.8574C125.179 60.7363 124.282 61.1758 123.157 61.1758C121.956 61.1758 121.027 60.751 120.371 59.9014L120.292 61H118.798V47.5H120.424V52.5361C121.08 51.7217 121.985 51.3145 123.14 51.3145C124.294 51.3145 125.199 51.751 125.855 52.624C126.518 53.4971 126.849 54.6924 126.849 56.21V56.3506ZM125.223 56.166C125.223 55.0586 125.009 54.2031 124.581 53.5996C124.153 52.9961 123.538 52.6943 122.735 52.6943C121.663 52.6943 120.893 53.1924 120.424 54.1885V58.3018C120.922 59.2979 121.698 59.7959 122.753 59.7959C123.532 59.7959 124.139 59.4941 124.572 58.8906C125.006 58.2871 125.223 57.3789 125.223 56.166Z" fill="black"/>
</svg>
