<svg width="600" height="300" viewBox="0 0 600 300" fill="none" xmlns="http://www.w3.org/2000/svg">
<rect width="600" height="300" fill="white"/>
<circle cx="78" cy="150" r="49.5" fill="white" stroke="black"/>
<path d="M66.5703 153.966L66.8164 155.653L67.1768 154.133L69.708 145.203H71.1318L73.6016 154.133L73.9531 155.68L74.2256 153.957L76.2119 145.203H77.9082L74.8057 158H73.2676L70.6309 148.675L70.4287 147.699L70.2266 148.675L67.4932 158H65.9551L62.8613 145.203H64.5488L66.5703 153.966ZM83.1992 158.176C81.9102 158.176 80.8613 157.754 80.0527 156.91C79.2441 156.061 78.8398 154.927 78.8398 153.509V153.21C78.8398 152.267 79.0186 151.426 79.376 150.688C79.7393 149.943 80.2432 149.363 80.8877 148.947C81.5381 148.525 82.2412 148.314 82.9971 148.314C84.2334 148.314 85.1943 148.722 85.8799 149.536C86.5654 150.351 86.9082 151.517 86.9082 153.034V153.711H80.4658C80.4893 154.648 80.7617 155.407 81.2832 155.987C81.8105 156.562 82.4785 156.849 83.2871 156.849C83.8613 156.849 84.3477 156.731 84.7461 156.497C85.1445 156.263 85.4932 155.952 85.792 155.565L86.7852 156.339C85.9883 157.563 84.793 158.176 83.1992 158.176ZM82.9971 149.65C82.3408 149.65 81.79 149.891 81.3447 150.371C80.8994 150.846 80.624 151.514 80.5186 152.375H85.2822V152.252C85.2354 151.426 85.0127 150.787 84.6143 150.336C84.2158 149.879 83.6768 149.65 82.9971 149.65ZM96.8486 153.351C96.8486 154.804 96.5146 155.973 95.8467 156.857C95.1787 157.736 94.2822 158.176 93.1572 158.176C91.9561 158.176 91.0273 157.751 90.3711 156.901L90.292 158H88.7979V144.5H90.4238V149.536C91.0801 148.722 91.9854 148.314 93.1396 148.314C94.2939 148.314 95.1992 148.751 95.8555 149.624C96.5176 150.497 96.8486 151.692 96.8486 153.21V153.351ZM95.2227 153.166C95.2227 152.059 95.0088 151.203 94.5811 150.6C94.1533 149.996 93.5381 149.694 92.7354 149.694C91.6631 149.694 90.8926 150.192 90.4238 151.188V155.302C90.9219 156.298 91.6982 156.796 92.7529 156.796C93.5322 156.796 94.1387 156.494 94.5723 155.891C95.0059 155.287 95.2227 154.379 95.2227 153.166Z" fill="black"/>
<rect x="176.5" y="127.5" width="99" height="49" rx="3.5" fill="white" stroke="black"/>
<path d="M206.488 153.939C206.33 155.293 205.829 156.339 204.985 157.077C204.147 157.81 203.031 158.176 201.637 158.176C200.125 158.176 198.912 157.634 197.998 156.55C197.09 155.466 196.636 154.016 196.636 152.199V150.969C196.636 149.779 196.847 148.733 197.269 147.831C197.696 146.929 198.3 146.237 199.079 145.757C199.858 145.271 200.761 145.027 201.786 145.027C203.146 145.027 204.235 145.408 205.056 146.17C205.876 146.926 206.354 147.975 206.488 149.316H204.792C204.646 148.297 204.326 147.559 203.834 147.102C203.348 146.645 202.665 146.416 201.786 146.416C200.708 146.416 199.861 146.814 199.246 147.611C198.637 148.408 198.332 149.542 198.332 151.013V152.252C198.332 153.641 198.622 154.745 199.202 155.565C199.782 156.386 200.594 156.796 201.637 156.796C202.574 156.796 203.292 156.585 203.79 156.163C204.294 155.735 204.628 154.994 204.792 153.939H206.488ZM213.142 149.949C212.896 149.908 212.629 149.888 212.342 149.888C211.275 149.888 210.552 150.342 210.171 151.25V158H208.545V148.49H210.127L210.153 149.589C210.687 148.739 211.442 148.314 212.421 148.314C212.737 148.314 212.978 148.355 213.142 148.438V149.949ZM220.164 158C220.07 157.812 219.994 157.479 219.936 156.998C219.18 157.783 218.277 158.176 217.229 158.176C216.291 158.176 215.521 157.912 214.917 157.385C214.319 156.852 214.021 156.178 214.021 155.363C214.021 154.373 214.396 153.605 215.146 153.061C215.901 152.51 216.962 152.234 218.327 152.234H219.909V151.487C219.909 150.919 219.739 150.468 219.399 150.134C219.06 149.794 218.559 149.624 217.896 149.624C217.316 149.624 216.83 149.771 216.438 150.063C216.045 150.356 215.849 150.711 215.849 151.127H214.214C214.214 150.652 214.381 150.195 214.715 149.756C215.055 149.311 215.512 148.959 216.086 148.701C216.666 148.443 217.302 148.314 217.993 148.314C219.089 148.314 219.947 148.59 220.568 149.141C221.189 149.686 221.512 150.438 221.535 151.399V155.776C221.535 156.649 221.646 157.344 221.869 157.859V158H220.164ZM217.466 156.761C217.976 156.761 218.459 156.629 218.916 156.365C219.373 156.102 219.704 155.759 219.909 155.337V153.386H218.635C216.643 153.386 215.646 153.969 215.646 155.135C215.646 155.645 215.816 156.043 216.156 156.33C216.496 156.617 216.933 156.761 217.466 156.761ZM232.504 155.759L234.332 148.49H235.958L233.189 158H231.871L229.56 150.793L227.31 158H225.991L223.231 148.49H224.849L226.721 155.609L228.936 148.49H230.245L232.504 155.759ZM239.386 158H237.76V144.5H239.386V158ZM245.942 158.176C244.653 158.176 243.604 157.754 242.796 156.91C241.987 156.061 241.583 154.927 241.583 153.509V153.21C241.583 152.267 241.762 151.426 242.119 150.688C242.482 149.943 242.986 149.363 243.631 148.947C244.281 148.525 244.984 148.314 245.74 148.314C246.977 148.314 247.938 148.722 248.623 149.536C249.309 150.351 249.651 151.517 249.651 153.034V153.711H243.209C243.232 154.648 243.505 155.407 244.026 155.987C244.554 156.562 245.222 156.849 246.03 156.849C246.604 156.849 247.091 156.731 247.489 156.497C247.888 156.263 248.236 155.952 248.535 155.565L249.528 156.339C248.731 157.563 247.536 158.176 245.942 158.176ZM245.74 149.65C245.084 149.65 244.533 149.891 244.088 150.371C243.643 150.846 243.367 151.514 243.262 152.375H248.025V152.252C247.979 151.426 247.756 150.787 247.357 150.336C246.959 149.879 246.42 149.65 245.74 149.65ZM256.138 149.949C255.892 149.908 255.625 149.888 255.338 149.888C254.271 149.888 253.548 150.342 253.167 151.25V158H251.541V148.49H253.123L253.149 149.589C253.683 148.739 254.438 148.314 255.417 148.314C255.733 148.314 255.974 148.355 256.138 148.438V149.949Z" fill="black"/>
<rect x="324.5" y="127.5" width="99" height="49" rx="3.5" fill="white" stroke="black"/>
<path d="M355.561 158H353.873V145.203H355.561V158ZM359.938 148.49L359.99 149.686C360.717 148.771 361.666 148.314 362.838 148.314C364.848 148.314 365.861 149.448 365.879 151.716V158H364.253V151.707C364.247 151.021 364.089 150.515 363.778 150.187C363.474 149.858 362.996 149.694 362.346 149.694C361.818 149.694 361.355 149.835 360.957 150.116C360.559 150.397 360.248 150.767 360.025 151.224V158H358.399V148.49H359.938ZM367.936 153.166C367.936 151.707 368.281 150.535 368.973 149.65C369.664 148.76 370.569 148.314 371.688 148.314C372.802 148.314 373.684 148.695 374.334 149.457V144.5H375.96V158H374.466L374.387 156.98C373.736 157.777 372.831 158.176 371.671 158.176C370.569 158.176 369.67 157.725 368.973 156.822C368.281 155.92 367.936 154.742 367.936 153.289V153.166ZM369.562 153.351C369.562 154.429 369.784 155.272 370.229 155.882C370.675 156.491 371.29 156.796 372.075 156.796C373.106 156.796 373.859 156.333 374.334 155.407V151.039C373.848 150.143 373.101 149.694 372.093 149.694C371.296 149.694 370.675 150.002 370.229 150.617C369.784 151.232 369.562 152.144 369.562 153.351ZM382.438 158.176C381.148 158.176 380.1 157.754 379.291 156.91C378.482 156.061 378.078 154.927 378.078 153.509V153.21C378.078 152.267 378.257 151.426 378.614 150.688C378.978 149.943 379.481 149.363 380.126 148.947C380.776 148.525 381.479 148.314 382.235 148.314C383.472 148.314 384.433 148.722 385.118 149.536C385.804 150.351 386.146 151.517 386.146 153.034V153.711H379.704C379.728 154.648 380 155.407 380.521 155.987C381.049 156.562 381.717 156.849 382.525 156.849C383.1 156.849 383.586 156.731 383.984 156.497C384.383 156.263 384.731 155.952 385.03 155.565L386.023 156.339C385.227 157.563 384.031 158.176 382.438 158.176ZM382.235 149.65C381.579 149.65 381.028 149.891 380.583 150.371C380.138 150.846 379.862 151.514 379.757 152.375H384.521V152.252C384.474 151.426 384.251 150.787 383.853 150.336C383.454 149.879 382.915 149.65 382.235 149.65ZM391.227 151.962L393.336 148.49H395.234L392.123 153.192L395.331 158H393.45L391.253 154.44L389.056 158H387.166L390.374 153.192L387.263 148.49H389.144L391.227 151.962Z" fill="black"/>
<rect x="472.5" y="127.5" width="99" height="49" rx="3.5" fill="white" stroke="black"/>
<path d="M499.614 142.296C498.167 141.88 497.112 141.37 496.45 140.767C495.794 140.157 495.466 139.407 495.466 138.517C495.466 137.509 495.867 136.677 496.67 136.021C497.479 135.358 498.527 135.027 499.816 135.027C500.695 135.027 501.478 135.197 502.163 135.537C502.854 135.877 503.388 136.346 503.763 136.943C504.144 137.541 504.334 138.194 504.334 138.903H502.638C502.638 138.13 502.392 137.523 501.899 137.084C501.407 136.639 500.713 136.416 499.816 136.416C498.984 136.416 498.334 136.601 497.865 136.97C497.402 137.333 497.171 137.84 497.171 138.49C497.171 139.012 497.391 139.454 497.83 139.817C498.275 140.175 499.028 140.503 500.089 140.802C501.155 141.101 501.987 141.432 502.585 141.795C503.188 142.152 503.634 142.571 503.921 143.052C504.214 143.532 504.36 144.098 504.36 144.748C504.36 145.785 503.956 146.617 503.147 147.244C502.339 147.865 501.258 148.176 499.904 148.176C499.025 148.176 498.205 148.009 497.443 147.675C496.682 147.335 496.093 146.872 495.677 146.286C495.267 145.7 495.062 145.035 495.062 144.291H496.758C496.758 145.064 497.042 145.677 497.61 146.128C498.185 146.573 498.949 146.796 499.904 146.796C500.795 146.796 501.478 146.614 501.952 146.251C502.427 145.888 502.664 145.393 502.664 144.766C502.664 144.139 502.444 143.655 502.005 143.315C501.565 142.97 500.769 142.63 499.614 142.296ZM510.223 148.176C508.934 148.176 507.885 147.754 507.076 146.91C506.268 146.061 505.863 144.927 505.863 143.509V143.21C505.863 142.267 506.042 141.426 506.399 140.688C506.763 139.943 507.267 139.363 507.911 138.947C508.562 138.525 509.265 138.314 510.021 138.314C511.257 138.314 512.218 138.722 512.903 139.536C513.589 140.351 513.932 141.517 513.932 143.034V143.711H507.489C507.513 144.648 507.785 145.407 508.307 145.987C508.834 146.562 509.502 146.849 510.311 146.849C510.885 146.849 511.371 146.731 511.77 146.497C512.168 146.263 512.517 145.952 512.815 145.565L513.809 146.339C513.012 147.563 511.816 148.176 510.223 148.176ZM510.021 139.65C509.364 139.65 508.813 139.891 508.368 140.371C507.923 140.846 507.647 141.514 507.542 142.375H512.306V142.252C512.259 141.426 512.036 140.787 511.638 140.336C511.239 139.879 510.7 139.65 510.021 139.65ZM521.692 148C521.599 147.812 521.522 147.479 521.464 146.998C520.708 147.783 519.806 148.176 518.757 148.176C517.819 148.176 517.049 147.912 516.445 147.385C515.848 146.852 515.549 146.178 515.549 145.363C515.549 144.373 515.924 143.605 516.674 143.061C517.43 142.51 518.49 142.234 519.855 142.234H521.438V141.487C521.438 140.919 521.268 140.468 520.928 140.134C520.588 139.794 520.087 139.624 519.425 139.624C518.845 139.624 518.358 139.771 517.966 140.063C517.573 140.356 517.377 140.711 517.377 141.127H515.742C515.742 140.652 515.909 140.195 516.243 139.756C516.583 139.311 517.04 138.959 517.614 138.701C518.194 138.443 518.83 138.314 519.521 138.314C520.617 138.314 521.476 138.59 522.097 139.141C522.718 139.686 523.04 140.438 523.063 141.399V145.776C523.063 146.649 523.175 147.344 523.397 147.859V148H521.692ZM518.994 146.761C519.504 146.761 519.987 146.629 520.444 146.365C520.901 146.102 521.232 145.759 521.438 145.337V143.386H520.163C518.171 143.386 517.175 143.969 517.175 145.135C517.175 145.645 517.345 146.043 517.685 146.33C518.024 146.617 518.461 146.761 518.994 146.761ZM530.209 139.949C529.963 139.908 529.696 139.888 529.409 139.888C528.343 139.888 527.619 140.342 527.238 141.25V148H525.612V138.49H527.194L527.221 139.589C527.754 138.739 528.51 138.314 529.488 138.314C529.805 138.314 530.045 138.355 530.209 138.438V139.949ZM535.351 146.849C535.931 146.849 536.438 146.673 536.871 146.321C537.305 145.97 537.545 145.53 537.592 145.003H539.13C539.101 145.548 538.913 146.066 538.567 146.559C538.222 147.051 537.759 147.443 537.179 147.736C536.604 148.029 535.995 148.176 535.351 148.176C534.056 148.176 533.024 147.745 532.257 146.884C531.495 146.017 531.114 144.833 531.114 143.333V143.061C531.114 142.135 531.284 141.312 531.624 140.591C531.964 139.87 532.45 139.311 533.083 138.912C533.722 138.514 534.475 138.314 535.342 138.314C536.408 138.314 537.293 138.634 537.996 139.272C538.705 139.911 539.083 140.74 539.13 141.76H537.592C537.545 141.145 537.311 140.641 536.889 140.248C536.473 139.85 535.957 139.65 535.342 139.65C534.516 139.65 533.874 139.949 533.417 140.547C532.966 141.139 532.74 141.997 532.74 143.122V143.43C532.74 144.525 532.966 145.369 533.417 145.961C533.868 146.553 534.513 146.849 535.351 146.849ZM542.584 139.642C543.305 138.757 544.242 138.314 545.396 138.314C547.406 138.314 548.42 139.448 548.438 141.716V148H546.812V141.707C546.806 141.021 546.647 140.515 546.337 140.187C546.032 139.858 545.555 139.694 544.904 139.694C544.377 139.694 543.914 139.835 543.516 140.116C543.117 140.397 542.807 140.767 542.584 141.224V148H540.958V134.5H542.584V139.642ZM489.533 169H487.846V156.203H489.533V169ZM493.91 159.49L493.963 160.686C494.689 159.771 495.639 159.314 496.811 159.314C498.82 159.314 499.834 160.448 499.852 162.716V169H498.226V162.707C498.22 162.021 498.062 161.515 497.751 161.187C497.446 160.858 496.969 160.694 496.318 160.694C495.791 160.694 495.328 160.835 494.93 161.116C494.531 161.397 494.221 161.767 493.998 162.224V169H492.372V159.49H493.91ZM504.51 157.188V159.49H506.285V160.747H504.51V166.645C504.51 167.025 504.589 167.312 504.747 167.506C504.905 167.693 505.175 167.787 505.556 167.787C505.743 167.787 506.001 167.752 506.329 167.682V169C505.901 169.117 505.485 169.176 505.081 169.176C504.354 169.176 503.807 168.956 503.438 168.517C503.068 168.077 502.884 167.453 502.884 166.645V160.747H501.152V159.49H502.884V157.188H504.51ZM512.139 169.176C510.85 169.176 509.801 168.754 508.992 167.91C508.184 167.061 507.779 165.927 507.779 164.509V164.21C507.779 163.267 507.958 162.426 508.315 161.688C508.679 160.943 509.183 160.363 509.827 159.947C510.478 159.525 511.181 159.314 511.937 159.314C513.173 159.314 514.134 159.722 514.819 160.536C515.505 161.351 515.848 162.517 515.848 164.034V164.711H509.405C509.429 165.648 509.701 166.407 510.223 166.987C510.75 167.562 511.418 167.849 512.227 167.849C512.801 167.849 513.287 167.731 513.686 167.497C514.084 167.263 514.433 166.952 514.731 166.565L515.725 167.339C514.928 168.563 513.732 169.176 512.139 169.176ZM511.937 160.65C511.28 160.65 510.729 160.891 510.284 161.371C509.839 161.846 509.563 162.514 509.458 163.375H514.222V163.252C514.175 162.426 513.952 161.787 513.554 161.336C513.155 160.879 512.616 160.65 511.937 160.65ZM522.334 160.949C522.088 160.908 521.821 160.888 521.534 160.888C520.468 160.888 519.744 161.342 519.363 162.25V169H517.737V159.49H519.319L519.346 160.589C519.879 159.739 520.635 159.314 521.613 159.314C521.93 159.314 522.17 159.355 522.334 159.438V160.949ZM524.777 169V160.747H523.274V159.49H524.777V158.515C524.777 157.495 525.05 156.707 525.595 156.15C526.14 155.594 526.91 155.315 527.906 155.315C528.281 155.315 528.653 155.365 529.022 155.465L528.935 156.783C528.659 156.73 528.366 156.704 528.056 156.704C527.528 156.704 527.121 156.859 526.834 157.17C526.547 157.475 526.403 157.914 526.403 158.488V159.49H528.434V160.747H526.403V169H524.777ZM536.106 169C536.013 168.812 535.937 168.479 535.878 167.998C535.122 168.783 534.22 169.176 533.171 169.176C532.233 169.176 531.463 168.912 530.859 168.385C530.262 167.852 529.963 167.178 529.963 166.363C529.963 165.373 530.338 164.605 531.088 164.061C531.844 163.51 532.904 163.234 534.27 163.234H535.852V162.487C535.852 161.919 535.682 161.468 535.342 161.134C535.002 160.794 534.501 160.624 533.839 160.624C533.259 160.624 532.772 160.771 532.38 161.063C531.987 161.356 531.791 161.711 531.791 162.127H530.156C530.156 161.652 530.323 161.195 530.657 160.756C530.997 160.311 531.454 159.959 532.028 159.701C532.608 159.443 533.244 159.314 533.936 159.314C535.031 159.314 535.89 159.59 536.511 160.141C537.132 160.686 537.454 161.438 537.478 162.399V166.776C537.478 167.649 537.589 168.344 537.812 168.859V169H536.106ZM533.408 167.761C533.918 167.761 534.401 167.629 534.858 167.365C535.315 167.102 535.646 166.759 535.852 166.337V164.386H534.577C532.585 164.386 531.589 164.969 531.589 166.135C531.589 166.645 531.759 167.043 532.099 167.33C532.438 167.617 532.875 167.761 533.408 167.761ZM543.841 167.849C544.421 167.849 544.928 167.673 545.361 167.321C545.795 166.97 546.035 166.53 546.082 166.003H547.62C547.591 166.548 547.403 167.066 547.058 167.559C546.712 168.051 546.249 168.443 545.669 168.736C545.095 169.029 544.485 169.176 543.841 169.176C542.546 169.176 541.515 168.745 540.747 167.884C539.985 167.017 539.604 165.833 539.604 164.333V164.061C539.604 163.135 539.774 162.312 540.114 161.591C540.454 160.87 540.94 160.311 541.573 159.912C542.212 159.514 542.965 159.314 543.832 159.314C544.898 159.314 545.783 159.634 546.486 160.272C547.195 160.911 547.573 161.74 547.62 162.76H546.082C546.035 162.145 545.801 161.641 545.379 161.248C544.963 160.85 544.447 160.65 543.832 160.65C543.006 160.65 542.364 160.949 541.907 161.547C541.456 162.139 541.23 162.997 541.23 164.122V164.43C541.23 165.525 541.456 166.369 541.907 166.961C542.358 167.553 543.003 167.849 543.841 167.849ZM553.395 169.176C552.105 169.176 551.057 168.754 550.248 167.91C549.439 167.061 549.035 165.927 549.035 164.509V164.21C549.035 163.267 549.214 162.426 549.571 161.688C549.935 160.943 550.438 160.363 551.083 159.947C551.733 159.525 552.437 159.314 553.192 159.314C554.429 159.314 555.39 159.722 556.075 160.536C556.761 161.351 557.104 162.517 557.104 164.034V164.711H550.661C550.685 165.648 550.957 166.407 551.479 166.987C552.006 167.562 552.674 167.849 553.482 167.849C554.057 167.849 554.543 167.731 554.941 167.497C555.34 167.263 555.688 166.952 555.987 166.565L556.98 167.339C556.184 168.563 554.988 169.176 553.395 169.176ZM553.192 160.65C552.536 160.65 551.985 160.891 551.54 161.371C551.095 161.846 550.819 162.514 550.714 163.375H555.478V163.252C555.431 162.426 555.208 161.787 554.81 161.336C554.411 160.879 553.872 160.65 553.192 160.65Z" fill="black"/>
<path d="M128.293 150.293C127.902 150.683 127.902 151.317 128.293 151.707L134.657 158.071C135.047 158.462 135.681 158.462 136.071 158.071C136.462 157.681 136.462 157.047 136.071 156.657L130.414 151L136.071 145.343C136.462 144.953 136.462 144.319 136.071 143.929C135.681 143.538 135.047 143.538 134.657 143.929L128.293 150.293ZM176 150H129V152H176V150Z" fill="black"/>
<path d="M323.707 152.707C324.098 152.317 324.098 151.683 323.707 151.293L317.343 144.929C316.953 144.538 316.319 144.538 315.929 144.929C315.538 145.319 315.538 145.953 315.929 146.343L321.586 152L315.929 157.657C315.538 158.047 315.538 158.681 315.929 159.071C316.319 159.462 316.953 159.462 317.343 159.071L323.707 152.707ZM276 153H323V151H276V153Z" fill="black"/>
<path d="M471.707 150.707C472.098 150.317 472.098 149.683 471.707 149.293L465.343 142.929C464.953 142.538 464.319 142.538 463.929 142.929C463.538 143.319 463.538 143.953 463.929 144.343L469.586 150L463.929 155.657C463.538 156.047 463.538 156.681 463.929 157.071C464.319 157.462 464.953 157.462 465.343 157.071L471.707 150.707ZM424 151H471V149H424V151Z" fill="black"/>
</svg>
