<svg width="600" height="300" viewBox="0 0 600 300" fill="none" xmlns="http://www.w3.org/2000/svg">
<rect width="600" height="300" fill="white"/>
<path d="M73.0523 158.678L72.4337 157.396C72.4369 157.348 72.4393 157.299 72.4393 157.25C72.4393 155.798 70.9288 154.459 68.3875 153.387V154.278C68.1397 154.18 67.8817 154.084 67.6129 153.992V153.576C63.981 152.266 58.5743 151.435 52.5348 151.435C47.258 151.435 42.4638 152.07 38.9145 153.104V154.551H38.9144V152.799C35.2782 153.955 33.0237 155.56 33.0237 157.335C33.0237 157.615 33.0801 157.89 33.1886 158.161L32.8182 158.82C32.8182 158.82 32.5214 159.205 33.044 160.017C33.5049 160.733 35.8136 163.537 37.0321 165.005C37.5555 165.758 37.9105 166.221 37.9415 166.176C37.9905 166.105 37.6161 164.692 36.5766 163.08C36.0916 162.214 35.5124 161.067 35.1646 160.22C36.1353 160.834 41.8382 163.706 53.4707 163.694C65.359 163.682 70.6433 159.961 71.2233 159.454C71.0207 160.268 70.3282 161.916 69.7759 163.074C68.8686 164.731 68.5399 166.173 68.5822 166.244C68.609 166.289 68.9186 165.812 69.3752 165.038C70.4375 163.524 72.4507 160.634 72.853 159.898C73.3089 159.063 73.0523 158.678 73.0523 158.678Z" fill="#A52B00"/>
<path d="M76.646 158.67L72.5801 155.675C72.5419 155.542 72.5038 155.408 72.4643 155.276L73.7998 153.341C73.9361 153.145 73.9636 152.889 73.8751 152.664C73.7864 152.441 73.5925 152.281 73.3632 152.242L71.105 151.858C71.0175 151.68 70.9258 151.504 70.8338 151.33L71.7825 149.158C71.8801 148.936 71.8597 148.679 71.7302 148.478C71.6012 148.277 71.3824 148.159 71.1492 148.168L68.8573 148.251C68.7387 148.097 68.6182 147.944 68.4952 147.793L69.0219 145.465C69.0753 145.229 69.0078 144.981 68.8432 144.81C68.6795 144.638 68.4415 144.568 68.2153 144.623L65.983 145.172C65.8385 145.044 65.6915 144.918 65.5429 144.794L65.6232 142.404C65.6318 142.162 65.519 141.932 65.3254 141.798C65.1318 141.663 64.8862 141.643 64.6745 141.743L62.5921 142.733C62.4243 142.637 62.2557 142.542 62.0852 142.449L61.7172 140.094C61.6798 139.856 61.5263 139.653 61.3114 139.56C61.0969 139.467 60.8514 139.497 60.6632 139.639L58.8066 141.032C58.6237 140.971 58.44 140.913 58.2542 140.858L57.4539 138.624C57.3726 138.396 57.1849 138.229 56.956 138.182C56.728 138.136 56.4934 138.215 56.3353 138.391L54.7724 140.14C54.5835 140.118 54.3943 140.098 54.2048 140.082L52.998 138.049C52.8759 137.843 52.66 137.717 52.4272 137.717C52.1952 137.717 51.9789 137.843 51.8575 138.049L50.6505 140.082C50.4608 140.098 50.2708 140.118 50.0823 140.14L48.5194 138.391C48.361 138.215 48.1256 138.136 47.8982 138.182C47.6696 138.23 47.4817 138.396 47.4008 138.624L46.5999 140.858C46.4143 140.913 46.2307 140.972 46.0475 141.032L44.1914 139.639C44.0027 139.497 43.7569 139.467 43.5422 139.56C43.328 139.653 43.1739 139.856 43.1367 140.094L42.7685 142.449C42.5983 142.542 42.4296 142.636 42.2614 142.733L40.1792 141.743C39.9677 141.642 39.7208 141.663 39.5282 141.798C39.3348 141.932 39.2217 142.162 39.2305 142.404L39.3105 144.794C39.1622 144.918 39.0155 145.044 38.8703 145.172L36.6384 144.623C36.4117 144.568 36.174 144.638 36.0099 144.81C35.8448 144.981 35.7779 145.229 35.831 145.465L36.3566 147.793C36.2347 147.944 36.114 148.097 35.9957 148.251L33.7039 148.168C33.4726 148.161 33.2519 148.277 33.1226 148.478C32.9931 148.679 32.9735 148.936 33.0699 149.158L34.0193 151.33C33.9272 151.504 33.8356 151.68 33.7473 151.858L31.4893 152.242C31.2598 152.28 31.0665 152.44 30.9772 152.664C30.8886 152.889 30.9174 153.145 31.0527 153.341L32.3884 155.276C32.3781 155.31 32.3686 155.345 32.3584 155.379L28.5819 159.391C28.5819 159.391 28.003 159.844 28.8456 160.91C29.5887 161.851 33.4038 165.578 35.4188 167.531C36.2697 168.523 36.8528 169.137 36.9137 169.083C37.0098 168.999 36.5051 167.195 34.8289 165.079C33.5368 163.18 31.8598 160.259 32.2531 159.923C32.2531 159.923 32.7004 159.355 33.5978 158.946C33.6307 158.972 33.5639 158.92 33.5978 158.946C33.5978 158.946 52.5374 167.683 70.1056 159.094C72.1125 158.734 73.3274 159.809 73.3274 159.809C73.7464 160.052 72.6615 163.055 71.7693 165.043C70.5559 167.3 70.3779 169.062 70.4808 169.123C70.5458 169.162 70.9872 168.49 71.617 167.421C73.1709 165.255 76.1083 161.128 76.646 160.125C77.2555 158.988 76.646 158.67 76.646 158.67Z" fill="#F74C00"/>
<path d="M68.3643 157.549C68.3643 157.549 71.0894 157.423 74.6689 153.785L75.1762 152.658C75.1762 152.658 69.6204 147.132 78.2568 143.317C78.2568 143.317 77.5007 144.553 77.7226 149.327C77.7226 149.327 80.3265 148.422 81.09 144.205C81.09 144.205 84.8882 149.213 76.9648 153.91C76.9648 153.91 73.2475 159.869 68.0071 159.298L68.3643 157.549Z" fill="#F74C00"/>
<path d="M56.0197 154.117C56.0197 154.117 57.9124 152.044 59.8051 154.117C59.8051 154.117 61.2923 156.88 59.8051 158.262C59.8051 158.262 57.3717 160.196 56.0197 158.262C56.0197 158.262 54.3974 156.742 56.0197 154.117Z" fill="black"/>
<path d="M58.2115 154.886C58.2115 155.693 57.7359 156.347 57.1491 156.347C56.5625 156.347 56.0868 155.693 56.0868 154.886C56.0868 154.079 56.5625 153.425 57.1491 153.425C57.7359 153.425 58.2115 154.079 58.2115 154.886Z" fill="white"/>
<path d="M47.5721 153.55C47.5721 153.55 50.8186 152.113 51.7048 155.322C51.7048 155.322 52.633 159.061 49.0386 159.272C49.0386 159.272 44.4551 158.39 47.5721 153.55Z" fill="black"/>
<path d="M49.2027 154.939C49.2027 155.771 48.7122 156.446 48.1071 156.446C47.5022 156.446 47.0115 155.771 47.0115 154.939C47.0115 154.107 47.5022 153.432 48.1071 153.432C48.7122 153.432 49.2027 154.107 49.2027 154.939Z" fill="white"/>
<path d="M51.7331 160.58L55.8734 160.248C55.8734 160.248 55.7331 160.914 55.1929 161.415C55.1929 161.415 53.7688 162.976 52.135 161.285C52.135 161.285 51.8677 160.996 51.7331 160.58Z" fill="black"/>
<path d="M35.1538 156.747C35.1196 156.747 35.0861 156.75 35.0527 156.752C33.7083 156.446 29.9296 155.462 28.9308 153.864C28.9308 153.864 34.0156 148.08 26.0683 144.383L26.9937 150.782C26.9937 150.782 24.5437 149.145 24.015 145.589C24.015 145.589 18.049 149.919 26.6482 154.068C26.6482 154.068 27.4281 156.999 34.9164 159.337L34.9218 159.315C34.9972 159.329 35.0744 159.337 35.1538 159.337C35.8613 159.337 36.435 158.757 36.435 158.042C36.435 157.327 35.8613 156.747 35.1538 156.747Z" fill="#F74C00"/>
<path d="M66.8314 151.015C69.62 147.415 83.908 137.591 72.488 141.107C72.488 141.107 70.6109 141.608 69.6597 141.524C67.2244 141.311 65.5375 139.578 64.4746 137.77C63.136 135.492 62.2274 133.211 60.1143 131.408C56.406 128.244 48.5761 128.152 44.3938 131.408C42.1871 133.126 41.3721 135.492 40.0336 137.77C38.9707 139.578 37.2838 141.311 34.8484 141.524C33.8973 141.608 32.0201 141.107 32.0201 141.107C20.6002 137.591 34.8881 147.415 37.6766 151.015C47.395 148.711 57.1133 148.87 66.8314 151.015V151.015Z" fill="black"/>
<path d="M56.5805 139.189C56.5805 141.292 54.6547 142.996 52.2791 142.996C49.9036 142.996 47.9778 141.292 47.9778 139.189C47.9778 137.087 49.9036 135.383 52.2791 135.383C54.6547 135.383 56.5805 137.087 56.5805 139.189Z" fill="white"/>
<path d="M55.4073 142.947C55.4073 144.476 54.0068 145.715 52.2791 145.715C50.5514 145.715 49.1509 144.476 49.1509 142.947C49.1509 141.418 50.5514 140.178 52.2791 140.178C54.0068 140.178 55.4073 141.418 55.4073 142.947V142.947Z" fill="white"/>
<path d="M51.9663 139.19C51.9663 139.954 51.266 140.574 50.4022 140.574C49.5383 140.574 48.838 139.954 48.838 139.19C48.838 138.425 49.5383 137.805 50.4022 137.805C51.266 137.805 51.9663 138.425 51.9663 139.19Z" fill="black"/>
<path d="M55.7201 139.19C55.7201 139.954 55.0199 140.574 54.156 140.574C53.2922 140.574 52.5919 139.954 52.5919 139.19C52.5919 138.425 53.2922 137.805 54.156 137.805C55.0199 137.805 55.7201 138.425 55.7201 139.19Z" fill="black"/>
<path d="M47.1278 136.606C47.3916 137.429 47.1979 138.187 46.6953 138.3C46.1926 138.412 45.5714 137.837 45.3076 137.014C45.0439 136.191 45.2376 135.433 45.7402 135.321C46.2428 135.208 46.8641 135.784 47.1278 136.606V136.606Z" fill="white"/>
<path d="M45.7584 138.8C44.8544 139.003 43.9978 138.781 43.845 138.305C43.6922 137.828 44.3011 137.279 45.2051 137.076C46.109 136.874 46.9657 137.096 47.1184 137.572C47.2712 138.048 46.6623 138.598 45.7584 138.8Z" fill="white"/>
<path d="M46.4735 136.817L45.6291 138.137L48.4037 139.573L49.2482 138.252L46.4735 136.817Z" fill="white"/>
<path d="M46.4141 141.999C47.3181 142.202 47.927 142.751 47.7742 143.227C47.6214 143.703 46.7648 143.925 45.8608 143.723C44.9569 143.521 44.3479 142.971 44.5007 142.495C44.6535 142.019 45.5102 141.797 46.4141 141.999Z" fill="white"/>
<path d="M47.7836 144.193C47.5199 145.016 46.8986 145.592 46.396 145.479C45.8934 145.367 45.6997 144.608 45.9634 143.786C46.2272 142.963 46.8484 142.387 47.3511 142.5C47.8537 142.613 48.0474 143.371 47.7836 144.193Z" fill="white"/>
<path d="M46.2932 142.675L47.1376 143.996L49.9123 142.56L49.0678 141.24L46.2932 142.675Z" fill="white"/>
<path d="M58.8039 138.807C57.8999 138.604 57.291 138.055 57.4438 137.579C57.5966 137.103 58.4532 136.881 59.3572 137.083C60.2611 137.285 60.8701 137.835 60.7173 138.311C60.5645 138.787 59.7078 139.009 58.8039 138.807V138.807Z" fill="white"/>
<path d="M57.4343 136.613C57.6981 135.79 58.3193 135.214 58.822 135.327C59.3246 135.44 59.5183 136.198 59.2545 137.02C58.9908 137.843 58.3695 138.419 57.8669 138.306C57.3643 138.193 57.1706 137.435 57.4343 136.613Z" fill="white"/>
<path d="M58.9248 138.131L58.0803 136.81L55.3057 138.246L56.1501 139.566L58.9248 138.131Z" fill="white"/>
<path d="M56.7762 144.2C56.5125 143.377 56.7062 142.619 57.2088 142.506C57.7114 142.394 58.3327 142.97 58.5964 143.792C58.8602 144.615 58.6665 145.373 58.1639 145.486C57.6612 145.598 57.04 145.023 56.7762 144.2Z" fill="white"/>
<path d="M58.1457 142.006C59.0496 141.804 59.9063 142.026 60.0591 142.502C60.2119 142.978 59.6029 143.528 58.699 143.73C57.7951 143.932 56.9384 143.71 56.7856 143.234C56.6328 142.758 57.2418 142.208 58.1457 142.006Z" fill="white"/>
<path d="M57.4305 143.989L58.275 142.669L55.5003 141.234L54.6559 142.554L57.4305 143.989Z" fill="white"/>
<path d="M51.4125 141.733L52.2791 140.494L53.1457 141.733H51.4125V141.733Z" fill="black"/>
<rect x="230.5" y="103.5" width="99" height="99" rx="3.5" fill="white" stroke="black"/>
<path d="M264.83 136.592H260.717V148H259.038V136.592H254.934V135.203H264.83V136.592ZM271.343 148C271.249 147.812 271.173 147.479 271.114 146.998C270.358 147.783 269.456 148.176 268.407 148.176C267.47 148.176 266.699 147.912 266.096 147.385C265.498 146.852 265.199 146.178 265.199 145.363C265.199 144.373 265.574 143.605 266.324 143.061C267.08 142.51 268.141 142.234 269.506 142.234H271.088V141.487C271.088 140.919 270.918 140.468 270.578 140.134C270.238 139.794 269.737 139.624 269.075 139.624C268.495 139.624 268.009 139.771 267.616 140.063C267.224 140.356 267.027 140.711 267.027 141.127H265.393C265.393 140.652 265.56 140.195 265.894 139.756C266.233 139.311 266.69 138.959 267.265 138.701C267.845 138.443 268.48 138.314 269.172 138.314C270.268 138.314 271.126 138.59 271.747 139.141C272.368 139.686 272.69 140.438 272.714 141.399V145.776C272.714 146.649 272.825 147.344 273.048 147.859V148H271.343ZM268.645 146.761C269.154 146.761 269.638 146.629 270.095 146.365C270.552 146.102 270.883 145.759 271.088 145.337V143.386H269.813C267.821 143.386 266.825 143.969 266.825 145.135C266.825 145.645 266.995 146.043 267.335 146.33C267.675 146.617 268.111 146.761 268.645 146.761ZM279.859 139.949C279.613 139.908 279.347 139.888 279.06 139.888C277.993 139.888 277.27 140.342 276.889 141.25V148H275.263V138.49H276.845L276.871 139.589C277.404 138.739 278.16 138.314 279.139 138.314C279.455 138.314 279.695 138.355 279.859 138.438V139.949ZM280.8 143.166C280.8 141.684 281.143 140.506 281.828 139.633C282.514 138.754 283.422 138.314 284.553 138.314C285.713 138.314 286.618 138.725 287.269 139.545L287.348 138.49H288.833V147.771C288.833 149.002 288.467 149.972 287.734 150.681C287.008 151.39 286.029 151.744 284.799 151.744C284.113 151.744 283.442 151.598 282.786 151.305C282.13 151.012 281.629 150.61 281.283 150.101L282.127 149.125C282.824 149.986 283.677 150.417 284.685 150.417C285.476 150.417 286.091 150.194 286.53 149.749C286.976 149.304 287.198 148.677 287.198 147.868V147.051C286.548 147.801 285.66 148.176 284.535 148.176C283.422 148.176 282.52 147.728 281.828 146.831C281.143 145.935 280.8 144.713 280.8 143.166ZM282.435 143.351C282.435 144.423 282.654 145.267 283.094 145.882C283.533 146.491 284.148 146.796 284.939 146.796C285.965 146.796 286.718 146.33 287.198 145.398V141.057C286.7 140.148 285.953 139.694 284.957 139.694C284.166 139.694 283.548 140.002 283.103 140.617C282.657 141.232 282.435 142.144 282.435 143.351ZM295.24 148.176C293.951 148.176 292.902 147.754 292.094 146.91C291.285 146.061 290.881 144.927 290.881 143.509V143.21C290.881 142.267 291.06 141.426 291.417 140.688C291.78 139.943 292.284 139.363 292.929 138.947C293.579 138.525 294.282 138.314 295.038 138.314C296.274 138.314 297.235 138.722 297.921 139.536C298.606 140.351 298.949 141.517 298.949 143.034V143.711H292.507C292.53 144.648 292.803 145.407 293.324 145.987C293.852 146.562 294.52 146.849 295.328 146.849C295.902 146.849 296.389 146.731 296.787 146.497C297.186 146.263 297.534 145.952 297.833 145.565L298.826 146.339C298.029 147.563 296.834 148.176 295.24 148.176ZM295.038 139.65C294.382 139.65 293.831 139.891 293.386 140.371C292.94 140.846 292.665 141.514 292.56 142.375H297.323V142.252C297.276 141.426 297.054 140.787 296.655 140.336C296.257 139.879 295.718 139.65 295.038 139.65ZM303.045 136.188V138.49H304.82V139.747H303.045V145.645C303.045 146.025 303.124 146.312 303.282 146.506C303.44 146.693 303.71 146.787 304.091 146.787C304.278 146.787 304.536 146.752 304.864 146.682V148C304.437 148.117 304.021 148.176 303.616 148.176C302.89 148.176 302.342 147.956 301.973 147.517C301.604 147.077 301.419 146.453 301.419 145.645V139.747H299.688V138.49H301.419V136.188H303.045ZM258.511 166.759L260.339 159.49H261.965L259.196 169H257.878L255.566 161.793L253.316 169H251.998L249.238 159.49H250.855L252.728 166.609L254.942 159.49H256.252L258.511 166.759ZM267.572 169.176C266.283 169.176 265.234 168.754 264.426 167.91C263.617 167.061 263.213 165.927 263.213 164.509V164.21C263.213 163.267 263.392 162.426 263.749 161.688C264.112 160.943 264.616 160.363 265.261 159.947C265.911 159.525 266.614 159.314 267.37 159.314C268.606 159.314 269.567 159.722 270.253 160.536C270.938 161.351 271.281 162.517 271.281 164.034V164.711H264.839C264.862 165.648 265.135 166.407 265.656 166.987C266.184 167.562 266.852 167.849 267.66 167.849C268.234 167.849 268.721 167.731 269.119 167.497C269.518 167.263 269.866 166.952 270.165 166.565L271.158 167.339C270.361 168.563 269.166 169.176 267.572 169.176ZM267.37 160.65C266.714 160.65 266.163 160.891 265.718 161.371C265.272 161.846 264.997 162.514 264.892 163.375H269.655V163.252C269.608 162.426 269.386 161.787 268.987 161.336C268.589 160.879 268.05 160.65 267.37 160.65ZM281.222 164.351C281.222 165.804 280.888 166.973 280.22 167.857C279.552 168.736 278.655 169.176 277.53 169.176C276.329 169.176 275.4 168.751 274.744 167.901L274.665 169H273.171V155.5H274.797V160.536C275.453 159.722 276.358 159.314 277.513 159.314C278.667 159.314 279.572 159.751 280.229 160.624C280.891 161.497 281.222 162.692 281.222 164.21V164.351ZM279.596 164.166C279.596 163.059 279.382 162.203 278.954 161.6C278.526 160.996 277.911 160.694 277.108 160.694C276.036 160.694 275.266 161.192 274.797 162.188V166.302C275.295 167.298 276.071 167.796 277.126 167.796C277.905 167.796 278.512 167.494 278.945 166.891C279.379 166.287 279.596 165.379 279.596 164.166ZM288.815 166.478C288.815 166.038 288.648 165.698 288.314 165.458C287.986 165.212 287.409 165.001 286.583 164.825C285.763 164.649 285.109 164.438 284.623 164.192C284.143 163.946 283.785 163.653 283.551 163.313C283.322 162.974 283.208 162.569 283.208 162.101C283.208 161.321 283.536 160.662 284.192 160.123C284.854 159.584 285.698 159.314 286.724 159.314C287.802 159.314 288.675 159.593 289.343 160.149C290.017 160.706 290.354 161.418 290.354 162.285H288.719C288.719 161.84 288.528 161.456 288.147 161.134C287.772 160.812 287.298 160.65 286.724 160.65C286.132 160.65 285.669 160.779 285.335 161.037C285.001 161.295 284.834 161.632 284.834 162.048C284.834 162.44 284.989 162.736 285.3 162.936C285.61 163.135 286.17 163.325 286.979 163.507C287.793 163.688 288.452 163.905 288.956 164.157C289.46 164.409 289.832 164.714 290.072 165.071C290.318 165.423 290.441 165.854 290.441 166.363C290.441 167.213 290.102 167.896 289.422 168.411C288.742 168.921 287.86 169.176 286.776 169.176C286.015 169.176 285.341 169.041 284.755 168.771C284.169 168.502 283.709 168.127 283.375 167.646C283.047 167.16 282.883 166.636 282.883 166.073H284.509C284.538 166.618 284.755 167.052 285.159 167.374C285.569 167.69 286.108 167.849 286.776 167.849C287.392 167.849 287.884 167.726 288.253 167.479C288.628 167.228 288.815 166.894 288.815 166.478ZM294.326 169H292.7V159.49H294.326V169ZM292.568 156.968C292.568 156.704 292.647 156.481 292.806 156.3C292.97 156.118 293.21 156.027 293.526 156.027C293.843 156.027 294.083 156.118 294.247 156.3C294.411 156.481 294.493 156.704 294.493 156.968C294.493 157.231 294.411 157.451 294.247 157.627C294.083 157.803 293.843 157.891 293.526 157.891C293.21 157.891 292.97 157.803 292.806 157.627C292.647 157.451 292.568 157.231 292.568 156.968ZM299.143 157.188V159.49H300.918V160.747H299.143V166.645C299.143 167.025 299.222 167.312 299.38 167.506C299.538 167.693 299.808 167.787 300.188 167.787C300.376 167.787 300.634 167.752 300.962 167.682V169C300.534 169.117 300.118 169.176 299.714 169.176C298.987 169.176 298.439 168.956 298.07 168.517C297.701 168.077 297.517 167.453 297.517 166.645V160.747H295.785V159.49H297.517V157.188H299.143ZM306.771 169.176C305.482 169.176 304.434 168.754 303.625 167.91C302.816 167.061 302.412 165.927 302.412 164.509V164.21C302.412 163.267 302.591 162.426 302.948 161.688C303.312 160.943 303.815 160.363 304.46 159.947C305.11 159.525 305.813 159.314 306.569 159.314C307.806 159.314 308.767 159.722 309.452 160.536C310.138 161.351 310.48 162.517 310.48 164.034V164.711H304.038C304.062 165.648 304.334 166.407 304.855 166.987C305.383 167.562 306.051 167.849 306.859 167.849C307.434 167.849 307.92 167.731 308.318 167.497C308.717 167.263 309.065 166.952 309.364 166.565L310.357 167.339C309.561 168.563 308.365 169.176 306.771 169.176ZM306.569 160.65C305.913 160.65 305.362 160.891 304.917 161.371C304.472 161.846 304.196 162.514 304.091 163.375H308.854V163.252C308.808 162.426 308.585 161.787 308.187 161.336C307.788 160.879 307.249 160.65 306.569 160.65Z" fill="black"/>
<rect x="478.5" y="103.5" width="99" height="99" rx="49.5" fill="white" stroke="black"/>
<path d="M491.481 159V146.203H495.094C496.207 146.203 497.191 146.449 498.047 146.941C498.902 147.434 499.562 148.134 500.024 149.042C500.493 149.95 500.73 150.993 500.736 152.171V152.988C500.736 154.195 500.502 155.253 500.033 156.161C499.57 157.069 498.905 157.767 498.038 158.253C497.177 158.739 496.172 158.988 495.023 159H491.481ZM493.169 147.592V157.62H494.944C496.245 157.62 497.256 157.216 497.977 156.407C498.703 155.599 499.066 154.447 499.066 152.953V152.206C499.066 150.753 498.724 149.625 498.038 148.822C497.358 148.014 496.392 147.604 495.138 147.592H493.169ZM508.91 159C508.816 158.812 508.74 158.479 508.682 157.998C507.926 158.783 507.023 159.176 505.975 159.176C505.037 159.176 504.267 158.912 503.663 158.385C503.065 157.852 502.767 157.178 502.767 156.363C502.767 155.373 503.142 154.605 503.892 154.061C504.647 153.51 505.708 153.234 507.073 153.234H508.655V152.487C508.655 151.919 508.485 151.468 508.146 151.134C507.806 150.794 507.305 150.624 506.643 150.624C506.062 150.624 505.576 150.771 505.184 151.063C504.791 151.356 504.595 151.711 504.595 152.127H502.96C502.96 151.652 503.127 151.195 503.461 150.756C503.801 150.311 504.258 149.959 504.832 149.701C505.412 149.443 506.048 149.314 506.739 149.314C507.835 149.314 508.693 149.59 509.314 150.141C509.936 150.686 510.258 151.438 510.281 152.399V156.776C510.281 157.649 510.393 158.344 510.615 158.859V159H508.91ZM506.212 157.761C506.722 157.761 507.205 157.629 507.662 157.365C508.119 157.102 508.45 156.759 508.655 156.337V154.386H507.381C505.389 154.386 504.393 154.969 504.393 156.135C504.393 156.645 504.562 157.043 504.902 157.33C505.242 157.617 505.679 157.761 506.212 157.761ZM515.036 147.188V149.49H516.812V150.747H515.036V156.645C515.036 157.025 515.115 157.312 515.273 157.506C515.432 157.693 515.701 157.787 516.082 157.787C516.27 157.787 516.527 157.752 516.855 157.682V159C516.428 159.117 516.012 159.176 515.607 159.176C514.881 159.176 514.333 158.956 513.964 158.517C513.595 158.077 513.41 157.453 513.41 156.645V150.747H511.679V149.49H513.41V147.188H515.036ZM524.59 159C524.496 158.812 524.42 158.479 524.361 157.998C523.605 158.783 522.703 159.176 521.654 159.176C520.717 159.176 519.946 158.912 519.343 158.385C518.745 157.852 518.446 157.178 518.446 156.363C518.446 155.373 518.821 154.605 519.571 154.061C520.327 153.51 521.388 153.234 522.753 153.234H524.335V152.487C524.335 151.919 524.165 151.468 523.825 151.134C523.485 150.794 522.984 150.624 522.322 150.624C521.742 150.624 521.256 150.771 520.863 151.063C520.471 151.356 520.274 151.711 520.274 152.127H518.64C518.64 151.652 518.807 151.195 519.141 150.756C519.48 150.311 519.938 149.959 520.512 149.701C521.092 149.443 521.728 149.314 522.419 149.314C523.515 149.314 524.373 149.59 524.994 150.141C525.615 150.686 525.938 151.438 525.961 152.399V156.776C525.961 157.649 526.072 158.344 526.295 158.859V159H524.59ZM521.892 157.761C522.401 157.761 522.885 157.629 523.342 157.365C523.799 157.102 524.13 156.759 524.335 156.337V154.386H523.061C521.068 154.386 520.072 154.969 520.072 156.135C520.072 156.645 520.242 157.043 520.582 157.33C520.922 157.617 521.358 157.761 521.892 157.761ZM536.561 154.351C536.561 155.804 536.227 156.973 535.559 157.857C534.891 158.736 533.994 159.176 532.869 159.176C531.668 159.176 530.739 158.751 530.083 157.901L530.004 159H528.51V145.5H530.136V150.536C530.792 149.722 531.697 149.314 532.852 149.314C534.006 149.314 534.911 149.751 535.567 150.624C536.229 151.497 536.561 152.692 536.561 154.21V154.351ZM534.935 154.166C534.935 153.059 534.721 152.203 534.293 151.6C533.865 150.996 533.25 150.694 532.447 150.694C531.375 150.694 530.604 151.192 530.136 152.188V156.302C530.634 157.298 531.41 157.796 532.465 157.796C533.244 157.796 533.851 157.494 534.284 156.891C534.718 156.287 534.935 155.379 534.935 154.166ZM544.488 159C544.395 158.812 544.318 158.479 544.26 157.998C543.504 158.783 542.602 159.176 541.553 159.176C540.615 159.176 539.845 158.912 539.241 158.385C538.644 157.852 538.345 157.178 538.345 156.363C538.345 155.373 538.72 154.605 539.47 154.061C540.226 153.51 541.286 153.234 542.651 153.234H544.233V152.487C544.233 151.919 544.063 151.468 543.724 151.134C543.384 150.794 542.883 150.624 542.221 150.624C541.641 150.624 541.154 150.771 540.762 151.063C540.369 151.356 540.173 151.711 540.173 152.127H538.538C538.538 151.652 538.705 151.195 539.039 150.756C539.379 150.311 539.836 149.959 540.41 149.701C540.99 149.443 541.626 149.314 542.317 149.314C543.413 149.314 544.271 149.59 544.893 150.141C545.514 150.686 545.836 151.438 545.859 152.399V156.776C545.859 157.649 545.971 158.344 546.193 158.859V159H544.488ZM541.79 157.761C542.3 157.761 542.783 157.629 543.24 157.365C543.697 157.102 544.028 156.759 544.233 156.337V154.386H542.959C540.967 154.386 539.971 154.969 539.971 156.135C539.971 156.645 540.141 157.043 540.48 157.33C540.82 157.617 541.257 157.761 541.79 157.761ZM553.945 156.478C553.945 156.038 553.778 155.698 553.444 155.458C553.116 155.212 552.539 155.001 551.713 154.825C550.893 154.649 550.239 154.438 549.753 154.192C549.272 153.946 548.915 153.653 548.681 153.313C548.452 152.974 548.338 152.569 548.338 152.101C548.338 151.321 548.666 150.662 549.322 150.123C549.984 149.584 550.828 149.314 551.854 149.314C552.932 149.314 553.805 149.593 554.473 150.149C555.146 150.706 555.483 151.418 555.483 152.285H553.849C553.849 151.84 553.658 151.456 553.277 151.134C552.902 150.812 552.428 150.65 551.854 150.65C551.262 150.65 550.799 150.779 550.465 151.037C550.131 151.295 549.964 151.632 549.964 152.048C549.964 152.44 550.119 152.736 550.43 152.936C550.74 153.135 551.3 153.325 552.108 153.507C552.923 153.688 553.582 153.905 554.086 154.157C554.59 154.409 554.962 154.714 555.202 155.071C555.448 155.423 555.571 155.854 555.571 156.363C555.571 157.213 555.231 157.896 554.552 158.411C553.872 158.921 552.99 159.176 551.906 159.176C551.145 159.176 550.471 159.041 549.885 158.771C549.299 158.502 548.839 158.127 548.505 157.646C548.177 157.16 548.013 156.636 548.013 156.073H549.639C549.668 156.618 549.885 157.052 550.289 157.374C550.699 157.69 551.238 157.849 551.906 157.849C552.521 157.849 553.014 157.726 553.383 157.479C553.758 157.228 553.945 156.894 553.945 156.478ZM561.636 159.176C560.347 159.176 559.298 158.754 558.489 157.91C557.681 157.061 557.276 155.927 557.276 154.509V154.21C557.276 153.267 557.455 152.426 557.812 151.688C558.176 150.943 558.68 150.363 559.324 149.947C559.975 149.525 560.678 149.314 561.434 149.314C562.67 149.314 563.631 149.722 564.316 150.536C565.002 151.351 565.345 152.517 565.345 154.034V154.711H558.902C558.926 155.648 559.198 156.407 559.72 156.987C560.247 157.562 560.915 157.849 561.724 157.849C562.298 157.849 562.784 157.731 563.183 157.497C563.581 157.263 563.93 156.952 564.229 156.565L565.222 157.339C564.425 158.563 563.229 159.176 561.636 159.176ZM561.434 150.65C560.777 150.65 560.227 150.891 559.781 151.371C559.336 151.846 559.061 152.514 558.955 153.375H563.719V153.252C563.672 152.426 563.449 151.787 563.051 151.336C562.652 150.879 562.113 150.65 561.434 150.65Z" fill="black"/>
<path d="M216.707 142.707C217.098 142.317 217.098 141.683 216.707 141.293L210.343 134.929C209.953 134.538 209.319 134.538 208.929 134.929C208.538 135.319 208.538 135.953 208.929 136.343L214.586 142L208.929 147.657C208.538 148.047 208.538 148.681 208.929 149.071C209.319 149.462 209.953 149.462 210.343 149.071L216.707 142.707ZM96 143H216V141H96V143Z" fill="black"/>
<path d="M95.2929 162.293C94.9024 162.683 94.9024 163.317 95.2929 163.707L101.657 170.071C102.047 170.462 102.681 170.462 103.071 170.071C103.462 169.681 103.462 169.047 103.071 168.657L97.4142 163L103.071 157.343C103.462 156.953 103.462 156.319 103.071 155.929C102.681 155.538 102.047 155.538 101.657 155.929L95.2929 162.293ZM216 162H96V164H216V162Z" fill="#FF0000"/>
<path d="M81.7588 78.2031L85.9424 88.6445L90.126 78.2031H92.3145V91H90.627V86.0166L90.7852 80.6377L86.584 91H85.292L81.0996 80.6641L81.2666 86.0166V91H79.5791V78.2031H81.7588ZM100.91 91C100.816 90.8125 100.74 90.4785 100.682 89.998C99.9258 90.7832 99.0234 91.1758 97.9746 91.1758C97.0371 91.1758 96.2666 90.9121 95.6631 90.3848C95.0654 89.8516 94.7666 89.1777 94.7666 88.3633C94.7666 87.373 95.1416 86.6055 95.8916 86.0605C96.6475 85.5098 97.708 85.2344 99.0732 85.2344H100.655V84.4873C100.655 83.9189 100.485 83.4678 100.146 83.1338C99.8057 82.7939 99.3047 82.624 98.6426 82.624C98.0625 82.624 97.5762 82.7705 97.1836 83.0635C96.791 83.3564 96.5947 83.7109 96.5947 84.127H94.96C94.96 83.6523 95.127 83.1953 95.4609 82.7559C95.8008 82.3105 96.2578 81.959 96.832 81.7012C97.4121 81.4434 98.0479 81.3145 98.7393 81.3145C99.835 81.3145 100.693 81.5898 101.314 82.1406C101.936 82.6855 102.258 83.4385 102.281 84.3994V88.7764C102.281 89.6494 102.393 90.3438 102.615 90.8594V91H100.91ZM98.2119 89.7607C98.7217 89.7607 99.2051 89.6289 99.6621 89.3652C100.119 89.1016 100.45 88.7588 100.655 88.3369V86.3857H99.3809C97.3887 86.3857 96.3926 86.9688 96.3926 88.1348C96.3926 88.6445 96.5625 89.043 96.9023 89.3301C97.2422 89.6172 97.6787 89.7607 98.2119 89.7607ZM106.597 91H104.971V77.5H106.597V91ZM110.974 91H109.348V81.4902H110.974V91ZM109.216 78.9678C109.216 78.7041 109.295 78.4814 109.453 78.2998C109.617 78.1182 109.857 78.0273 110.174 78.0273C110.49 78.0273 110.73 78.1182 110.895 78.2998C111.059 78.4814 111.141 78.7041 111.141 78.9678C111.141 79.2314 111.059 79.4512 110.895 79.627C110.73 79.8027 110.49 79.8906 110.174 79.8906C109.857 79.8906 109.617 79.8027 109.453 79.627C109.295 79.4512 109.216 79.2314 109.216 78.9678ZM117.398 89.8486C117.979 89.8486 118.485 89.6729 118.919 89.3213C119.353 88.9697 119.593 88.5303 119.64 88.0029H121.178C121.148 88.5479 120.961 89.0664 120.615 89.5586C120.27 90.0508 119.807 90.4434 119.227 90.7363C118.652 91.0293 118.043 91.1758 117.398 91.1758C116.104 91.1758 115.072 90.7451 114.305 89.8838C113.543 89.0166 113.162 87.833 113.162 86.333V86.0605C113.162 85.1348 113.332 84.3115 113.672 83.5908C114.012 82.8701 114.498 82.3105 115.131 81.9121C115.77 81.5137 116.522 81.3145 117.39 81.3145C118.456 81.3145 119.341 81.6338 120.044 82.2725C120.753 82.9111 121.131 83.7402 121.178 84.7598H119.64C119.593 84.1445 119.358 83.6406 118.937 83.248C118.521 82.8496 118.005 82.6504 117.39 82.6504C116.563 82.6504 115.922 82.9492 115.465 83.5469C115.014 84.1387 114.788 84.9971 114.788 86.1221V86.4297C114.788 87.5254 115.014 88.3691 115.465 88.9609C115.916 89.5527 116.561 89.8486 117.398 89.8486ZM124.772 91H123.146V81.4902H124.772V91ZM123.015 78.9678C123.015 78.7041 123.094 78.4814 123.252 78.2998C123.416 78.1182 123.656 78.0273 123.973 78.0273C124.289 78.0273 124.529 78.1182 124.693 78.2998C124.857 78.4814 124.939 78.7041 124.939 78.9678C124.939 79.2314 124.857 79.4512 124.693 79.627C124.529 79.8027 124.289 79.8906 123.973 79.8906C123.656 79.8906 123.416 79.8027 123.252 79.627C123.094 79.4512 123.015 79.2314 123.015 78.9678ZM126.952 86.1572C126.952 85.2256 127.134 84.3877 127.497 83.6436C127.866 82.8994 128.376 82.3252 129.026 81.9209C129.683 81.5166 130.43 81.3145 131.268 81.3145C132.562 81.3145 133.608 81.7627 134.405 82.6592C135.208 83.5557 135.609 84.748 135.609 86.2363V86.3506C135.609 87.2764 135.431 88.1084 135.073 88.8467C134.722 89.5791 134.215 90.1504 133.553 90.5605C132.896 90.9707 132.141 91.1758 131.285 91.1758C129.996 91.1758 128.95 90.7275 128.147 89.8311C127.351 88.9346 126.952 87.748 126.952 86.2715V86.1572ZM128.587 86.3506C128.587 87.4053 128.83 88.252 129.316 88.8906C129.809 89.5293 130.465 89.8486 131.285 89.8486C132.111 89.8486 132.768 89.5264 133.254 88.8818C133.74 88.2314 133.983 87.3232 133.983 86.1572C133.983 85.1143 133.734 84.2705 133.236 83.626C132.744 82.9756 132.088 82.6504 131.268 82.6504C130.465 82.6504 129.817 82.9697 129.325 83.6084C128.833 84.2471 128.587 85.1611 128.587 86.3506ZM143.52 90.0596C142.887 90.8037 141.958 91.1758 140.733 91.1758C139.72 91.1758 138.946 90.8828 138.413 90.2969C137.886 89.7051 137.619 88.832 137.613 87.6777V81.4902H139.239V87.6338C139.239 89.0752 139.825 89.7959 140.997 89.7959C142.239 89.7959 143.065 89.333 143.476 88.4072V81.4902H145.102V91H143.555L143.52 90.0596ZM153.117 88.4775C153.117 88.0381 152.95 87.6982 152.616 87.458C152.288 87.2119 151.711 87.001 150.885 86.8252C150.064 86.6494 149.411 86.4385 148.925 86.1924C148.444 85.9463 148.087 85.6533 147.853 85.3135C147.624 84.9736 147.51 84.5693 147.51 84.1006C147.51 83.3213 147.838 82.6621 148.494 82.123C149.156 81.584 150 81.3145 151.025 81.3145C152.104 81.3145 152.977 81.5928 153.645 82.1494C154.318 82.7061 154.655 83.418 154.655 84.2852H153.021C153.021 83.8398 152.83 83.4561 152.449 83.1338C152.074 82.8115 151.6 82.6504 151.025 82.6504C150.434 82.6504 149.971 82.7793 149.637 83.0371C149.303 83.2949 149.136 83.6318 149.136 84.0479C149.136 84.4404 149.291 84.7363 149.602 84.9355C149.912 85.1348 150.472 85.3252 151.28 85.5068C152.095 85.6885 152.754 85.9053 153.258 86.1572C153.762 86.4092 154.134 86.7139 154.374 87.0713C154.62 87.4229 154.743 87.8535 154.743 88.3633C154.743 89.2129 154.403 89.8955 153.724 90.4111C153.044 90.9209 152.162 91.1758 151.078 91.1758C150.316 91.1758 149.643 91.041 149.057 90.7715C148.471 90.502 148.011 90.127 147.677 89.6465C147.349 89.1602 147.185 88.6357 147.185 88.0732H148.811C148.84 88.6182 149.057 89.0518 149.461 89.374C149.871 89.6904 150.41 89.8486 151.078 89.8486C151.693 89.8486 152.186 89.7256 152.555 89.4795C152.93 89.2275 153.117 88.8936 153.117 88.4775ZM170.388 82.9492C170.142 82.9082 169.875 82.8877 169.588 82.8877C168.521 82.8877 167.798 83.3418 167.417 84.25V91H165.791V81.4902H167.373L167.399 82.5889C167.933 81.7393 168.688 81.3145 169.667 81.3145C169.983 81.3145 170.224 81.3555 170.388 81.4375V82.9492ZM175.661 91.1758C174.372 91.1758 173.323 90.7539 172.515 89.9102C171.706 89.0605 171.302 87.9268 171.302 86.5088V86.21C171.302 85.2666 171.48 84.4258 171.838 83.6875C172.201 82.9434 172.705 82.3633 173.35 81.9473C174 81.5254 174.703 81.3145 175.459 81.3145C176.695 81.3145 177.656 81.7217 178.342 82.5361C179.027 83.3506 179.37 84.5166 179.37 86.0342V86.7109H172.928C172.951 87.6484 173.224 88.4072 173.745 88.9873C174.272 89.5615 174.94 89.8486 175.749 89.8486C176.323 89.8486 176.81 89.7314 177.208 89.4971C177.606 89.2627 177.955 88.9521 178.254 88.5654L179.247 89.3389C178.45 90.5635 177.255 91.1758 175.661 91.1758ZM175.459 82.6504C174.803 82.6504 174.252 82.8906 173.807 83.3711C173.361 83.8457 173.086 84.5137 172.98 85.375H177.744V85.252C177.697 84.4258 177.475 83.7871 177.076 83.3359C176.678 82.8789 176.139 82.6504 175.459 82.6504ZM180.864 86.166C180.864 84.6719 181.207 83.4912 181.893 82.624C182.578 81.751 183.498 81.3145 184.652 81.3145C185.777 81.3145 186.665 81.6924 187.315 82.4482L187.386 81.4902H188.88V94.6562H187.254V90.1211C186.598 90.8242 185.725 91.1758 184.635 91.1758C183.486 91.1758 182.569 90.7305 181.884 89.8398C181.204 88.9434 180.864 87.7568 180.864 86.2803V86.166ZM182.49 86.3506C182.49 87.4404 182.719 88.2959 183.176 88.917C183.639 89.5381 184.26 89.8486 185.039 89.8486C186.006 89.8486 186.744 89.4209 187.254 88.5654V83.9072C186.738 83.0693 186.006 82.6504 185.057 82.6504C184.271 82.6504 183.647 82.9639 183.185 83.5908C182.722 84.2119 182.49 85.1318 182.49 86.3506ZM197.361 90.0596C196.729 90.8037 195.8 91.1758 194.575 91.1758C193.562 91.1758 192.788 90.8828 192.255 90.2969C191.728 89.7051 191.461 88.832 191.455 87.6777V81.4902H193.081V87.6338C193.081 89.0752 193.667 89.7959 194.839 89.7959C196.081 89.7959 196.907 89.333 197.317 88.4072V81.4902H198.943V91H197.396L197.361 90.0596ZM205.368 91.1758C204.079 91.1758 203.03 90.7539 202.222 89.9102C201.413 89.0605 201.009 87.9268 201.009 86.5088V86.21C201.009 85.2666 201.188 84.4258 201.545 83.6875C201.908 82.9434 202.412 82.3633 203.057 81.9473C203.707 81.5254 204.41 81.3145 205.166 81.3145C206.402 81.3145 207.363 81.7217 208.049 82.5361C208.734 83.3506 209.077 84.5166 209.077 86.0342V86.7109H202.635C202.658 87.6484 202.931 88.4072 203.452 88.9873C203.979 89.5615 204.647 89.8486 205.456 89.8486C206.03 89.8486 206.517 89.7314 206.915 89.4971C207.313 89.2627 207.662 88.9521 207.961 88.5654L208.954 89.3389C208.157 90.5635 206.962 91.1758 205.368 91.1758ZM205.166 82.6504C204.51 82.6504 203.959 82.8906 203.514 83.3711C203.068 83.8457 202.793 84.5137 202.688 85.375H207.451V85.252C207.404 84.4258 207.182 83.7871 206.783 83.3359C206.385 82.8789 205.846 82.6504 205.166 82.6504ZM216.504 88.4775C216.504 88.0381 216.337 87.6982 216.003 87.458C215.675 87.2119 215.098 87.001 214.271 86.8252C213.451 86.6494 212.798 86.4385 212.312 86.1924C211.831 85.9463 211.474 85.6533 211.239 85.3135C211.011 84.9736 210.896 84.5693 210.896 84.1006C210.896 83.3213 211.225 82.6621 211.881 82.123C212.543 81.584 213.387 81.3145 214.412 81.3145C215.49 81.3145 216.363 81.5928 217.031 82.1494C217.705 82.7061 218.042 83.418 218.042 84.2852H216.407C216.407 83.8398 216.217 83.4561 215.836 83.1338C215.461 82.8115 214.986 82.6504 214.412 82.6504C213.82 82.6504 213.357 82.7793 213.023 83.0371C212.689 83.2949 212.522 83.6318 212.522 84.0479C212.522 84.4404 212.678 84.7363 212.988 84.9355C213.299 85.1348 213.858 85.3252 214.667 85.5068C215.481 85.6885 216.141 85.9053 216.645 86.1572C217.148 86.4092 217.521 86.7139 217.761 87.0713C218.007 87.4229 218.13 87.8535 218.13 88.3633C218.13 89.2129 217.79 89.8955 217.11 90.4111C216.431 90.9209 215.549 91.1758 214.465 91.1758C213.703 91.1758 213.029 91.041 212.443 90.7715C211.857 90.502 211.397 90.127 211.063 89.6465C210.735 89.1602 210.571 88.6357 210.571 88.0732H212.197C212.227 88.6182 212.443 89.0518 212.848 89.374C213.258 89.6904 213.797 89.8486 214.465 89.8486C215.08 89.8486 215.572 89.7256 215.941 89.4795C216.316 89.2275 216.504 88.8936 216.504 88.4775ZM222.454 79.1875V81.4902H224.229V82.7471H222.454V88.6445C222.454 89.0254 222.533 89.3125 222.691 89.5059C222.85 89.6934 223.119 89.7871 223.5 89.7871C223.688 89.7871 223.945 89.752 224.273 89.6816V91C223.846 91.1172 223.43 91.1758 223.025 91.1758C222.299 91.1758 221.751 90.9561 221.382 90.5166C221.013 90.0771 220.828 89.4531 220.828 88.6445V82.7471H219.097V81.4902H220.828V79.1875H222.454ZM125.687 109.759L127.515 102.49H129.141L126.372 112H125.054L122.742 104.793L120.492 112H119.174L116.414 102.49H118.031L119.903 109.609L122.118 102.49H123.428L125.687 109.759ZM132.568 112H130.942V102.49H132.568V112ZM130.811 99.9678C130.811 99.7041 130.89 99.4814 131.048 99.2998C131.212 99.1182 131.452 99.0273 131.769 99.0273C132.085 99.0273 132.325 99.1182 132.489 99.2998C132.653 99.4814 132.735 99.7041 132.735 99.9678C132.735 100.231 132.653 100.451 132.489 100.627C132.325 100.803 132.085 100.891 131.769 100.891C131.452 100.891 131.212 100.803 131.048 100.627C130.89 100.451 130.811 100.231 130.811 99.9678ZM137.385 100.188V102.49H139.16V103.747H137.385V109.645C137.385 110.025 137.464 110.312 137.622 110.506C137.78 110.693 138.05 110.787 138.431 110.787C138.618 110.787 138.876 110.752 139.204 110.682V112C138.776 112.117 138.36 112.176 137.956 112.176C137.229 112.176 136.682 111.956 136.312 111.517C135.943 111.077 135.759 110.453 135.759 109.645V103.747H134.027V102.49H135.759V100.188H137.385ZM142.693 103.642C143.414 102.757 144.352 102.314 145.506 102.314C147.516 102.314 148.529 103.448 148.547 105.716V112H146.921V105.707C146.915 105.021 146.757 104.515 146.446 104.187C146.142 103.858 145.664 103.694 145.014 103.694C144.486 103.694 144.023 103.835 143.625 104.116C143.227 104.397 142.916 104.767 142.693 105.224V112H141.067V98.5H142.693V103.642ZM159.472 106.296C158.024 105.88 156.97 105.37 156.308 104.767C155.651 104.157 155.323 103.407 155.323 102.517C155.323 101.509 155.725 100.677 156.527 100.021C157.336 99.3584 158.385 99.0273 159.674 99.0273C160.553 99.0273 161.335 99.1973 162.021 99.5371C162.712 99.877 163.245 100.346 163.62 100.943C164.001 101.541 164.191 102.194 164.191 102.903H162.495C162.495 102.13 162.249 101.523 161.757 101.084C161.265 100.639 160.57 100.416 159.674 100.416C158.842 100.416 158.191 100.601 157.723 100.97C157.26 101.333 157.028 101.84 157.028 102.49C157.028 103.012 157.248 103.454 157.688 103.817C158.133 104.175 158.886 104.503 159.946 104.802C161.013 105.101 161.845 105.432 162.442 105.795C163.046 106.152 163.491 106.571 163.778 107.052C164.071 107.532 164.218 108.098 164.218 108.748C164.218 109.785 163.813 110.617 163.005 111.244C162.196 111.865 161.115 112.176 159.762 112.176C158.883 112.176 158.062 112.009 157.301 111.675C156.539 111.335 155.95 110.872 155.534 110.286C155.124 109.7 154.919 109.035 154.919 108.291H156.615C156.615 109.064 156.899 109.677 157.468 110.128C158.042 110.573 158.807 110.796 159.762 110.796C160.652 110.796 161.335 110.614 161.81 110.251C162.284 109.888 162.521 109.393 162.521 108.766C162.521 108.139 162.302 107.655 161.862 107.315C161.423 106.97 160.626 106.63 159.472 106.296ZM176.162 106.015C176.162 107.251 175.966 108.317 175.573 109.214C175.181 110.104 174.63 110.802 173.921 111.306L176.206 113.099L175.055 114.162L172.356 112.018C171.935 112.123 171.489 112.176 171.021 112.176C170.013 112.176 169.119 111.93 168.34 111.438C167.561 110.939 166.954 110.233 166.521 109.319C166.093 108.399 165.873 107.336 165.861 106.129V105.206C165.861 103.976 166.075 102.889 166.503 101.945C166.931 101.002 167.534 100.281 168.313 99.7832C169.099 99.2793 169.995 99.0273 171.003 99.0273C172.034 99.0273 172.939 99.2764 173.719 99.7744C174.504 100.272 175.107 100.99 175.529 101.928C175.951 102.859 176.162 103.949 176.162 105.197V106.015ZM174.475 105.188C174.475 103.683 174.173 102.522 173.569 101.708C172.972 100.888 172.116 100.478 171.003 100.478C169.942 100.478 169.104 100.885 168.489 101.699C167.88 102.508 167.566 103.633 167.549 105.074V106.015C167.549 107.479 167.854 108.634 168.463 109.478C169.078 110.321 169.931 110.743 171.021 110.743C172.11 110.743 172.954 110.348 173.552 109.557C174.149 108.76 174.457 107.62 174.475 106.138V105.188ZM180.46 110.62H186.524V112H178.764V99.2031H180.46V110.62Z" fill="black"/>
<path d="M464.707 142.707C465.098 142.317 465.098 141.683 464.707 141.293L458.343 134.929C457.953 134.538 457.319 134.538 456.929 134.929C456.538 135.319 456.538 135.953 456.929 136.343L462.586 142L456.929 147.657C456.538 148.047 456.538 148.681 456.929 149.071C457.319 149.462 457.953 149.462 458.343 149.071L464.707 142.707ZM344 143H464V141H344V143Z" fill="black"/>
<path d="M343.293 162.293C342.902 162.683 342.902 163.317 343.293 163.707L349.657 170.071C350.047 170.462 350.681 170.462 351.071 170.071C351.462 169.681 351.462 169.047 351.071 168.657L345.414 163L351.071 157.343C351.462 156.953 351.462 156.319 351.071 155.929C350.681 155.538 350.047 155.538 349.657 155.929L343.293 162.293ZM464 162L344 162V164L464 164V162Z" fill="#FF0000"/>
</svg>
