<svg width="600" height="300" viewBox="0 0 600 300" fill="none" xmlns="http://www.w3.org/2000/svg">
<rect width="600" height="300" fill="white"/>
<path d="M162.815 102.097L162.042 100.496C162.046 100.435 162.049 100.374 162.049 100.313C162.049 98.4971 160.161 96.8236 156.984 95.4837V96.5978C156.675 96.4749 156.352 96.3553 156.016 96.2396V95.7202C151.476 94.083 144.718 93.0441 137.168 93.0441C130.573 93.0441 124.58 93.8371 120.143 95.1294V96.9387H120.143V94.7488C115.598 96.1932 112.78 98.1999 112.78 100.419C112.78 100.768 112.85 101.113 112.986 101.451L112.523 102.275C112.523 102.275 112.152 102.756 112.805 103.771C113.381 104.667 116.267 108.171 117.79 110.006C118.444 110.947 118.888 111.526 118.927 111.47C118.988 111.382 118.52 109.615 117.221 107.6C116.614 106.518 115.89 105.084 115.456 104.025C116.669 104.793 123.798 108.382 138.338 108.368C153.199 108.353 159.804 103.701 160.529 103.068C160.276 104.086 159.41 106.145 158.72 107.593C157.586 109.663 157.175 111.466 157.228 111.556C157.261 111.612 157.648 111.015 158.219 110.048C159.547 108.155 162.063 104.543 162.566 103.623C163.136 102.579 162.815 102.097 162.815 102.097Z" fill="#A52B00"/>
<path d="M167.307 102.087L162.225 98.3434C162.177 98.1769 162.13 98.0103 162.08 97.845L163.75 95.4267C163.92 95.1807 163.954 94.861 163.844 94.5805C163.733 94.3013 163.491 94.1012 163.204 94.0522L160.381 93.5731C160.272 93.3499 160.157 93.1301 160.042 92.9121L161.228 90.197C161.35 89.9204 161.325 89.599 161.163 89.348C161.001 89.0958 160.728 88.9485 160.436 88.9599L157.572 89.064C157.423 88.8708 157.273 88.6795 157.119 88.4916L157.777 85.5814C157.844 85.286 157.76 84.9765 157.554 84.7619C157.349 84.548 157.052 84.4594 156.769 84.5288L153.979 85.2148C153.798 85.0551 153.614 84.8975 153.429 84.743L153.529 81.7554C153.54 81.453 153.399 81.1656 153.157 80.9977C152.915 80.8288 152.608 80.8035 152.343 80.9289L149.74 82.1665C149.53 82.0462 149.32 81.9271 149.106 81.8118L148.646 78.8678C148.6 78.5696 148.408 78.3162 148.139 78.2005C147.871 78.0841 147.564 78.1218 147.329 78.2989L145.008 80.0402C144.78 79.9643 144.55 79.8916 144.318 79.822L143.317 77.0301C143.216 76.7455 142.981 76.5365 142.695 76.4777C142.41 76.4195 142.117 76.5182 141.919 76.7391L139.965 78.9246C139.729 78.8975 139.493 78.8727 139.256 78.8521L137.748 76.3107C137.595 76.0533 137.325 75.8966 137.034 75.8966C136.744 75.8966 136.474 76.0533 136.322 76.3107L134.813 78.8521C134.576 78.8727 134.339 78.8975 134.103 78.9246L132.149 76.7391C131.951 76.5182 131.657 76.4195 131.373 76.4777C131.087 76.5373 130.852 76.7455 130.751 77.0301L129.75 79.822C129.518 79.8916 129.288 79.9648 129.059 80.0402L126.739 78.2989C126.503 78.1212 126.196 78.0836 125.928 78.2005C125.66 78.3162 125.467 78.5696 125.421 78.8678L124.961 81.8118C124.748 81.9271 124.537 82.0456 124.327 82.1665L121.724 80.9289C121.46 80.803 121.151 80.8288 120.91 80.9977C120.669 81.1656 120.527 81.453 120.538 81.7554L120.638 84.743C120.453 84.8975 120.269 85.0551 120.088 85.2148L117.298 84.5288C117.015 84.46 116.718 84.548 116.512 84.7619C116.306 84.9765 116.222 85.286 116.289 85.5814L116.946 88.4916C116.793 88.6802 116.643 88.8708 116.495 89.064L113.63 88.9599C113.341 88.9513 113.065 89.0958 112.903 89.348C112.741 89.599 112.717 89.9204 112.837 90.197L114.024 92.9121C113.909 93.1301 113.794 93.3499 113.684 93.5731L110.862 94.0522C110.575 94.1005 110.333 94.3005 110.221 94.5805C110.111 94.861 110.147 95.1807 110.316 95.4267L111.986 97.845C111.973 97.8877 111.961 97.9308 111.948 97.9736L107.227 102.988C107.227 102.988 106.504 103.555 107.557 104.888C108.486 106.063 113.255 110.723 115.773 113.164C116.837 114.403 117.566 115.171 117.642 115.104C117.762 114.999 117.131 112.744 115.036 110.099C113.421 107.725 111.325 104.074 111.816 103.653C111.816 103.653 112.375 102.944 113.497 102.433C113.538 102.466 113.455 102.4 113.497 102.433C113.497 102.433 137.172 113.354 159.132 102.617C161.641 102.167 163.159 103.511 163.159 103.511C163.683 103.815 162.327 107.569 161.212 110.054C159.695 112.875 159.472 115.077 159.601 115.153C159.682 115.202 160.234 114.362 161.021 113.026C162.964 110.319 166.635 105.16 167.307 103.906C168.069 102.485 167.307 102.087 167.307 102.087Z" fill="#F74C00"/>
<path d="M156.955 100.687C156.955 100.687 160.362 100.529 164.836 95.981L165.47 94.5731C165.47 94.5731 158.526 87.6649 169.321 82.8964C169.321 82.8964 168.376 84.4409 168.653 90.4083C168.653 90.4083 171.908 89.2778 172.863 84.0066C172.863 84.0066 177.61 90.2663 167.706 96.1372C167.706 96.1372 163.059 103.586 156.509 102.873L156.955 100.687Z" fill="#F74C00"/>
<path d="M141.525 96.3958C141.525 96.3958 143.89 93.8052 146.256 96.3958C146.256 96.3958 148.115 99.8501 146.256 101.577C146.256 101.577 143.215 103.995 141.525 101.577C141.525 101.577 139.497 99.6772 141.525 96.3958Z" fill="black"/>
<path d="M144.264 97.3574C144.264 98.366 143.67 99.1839 142.936 99.1839C142.203 99.1839 141.609 98.366 141.609 97.3574C141.609 96.3486 142.203 95.5307 142.936 95.5307C143.67 95.5307 144.264 96.3486 144.264 97.3574Z" fill="white"/>
<path d="M130.965 95.688C130.965 95.688 135.023 93.8911 136.131 97.9019C136.131 97.9019 137.291 102.577 132.798 102.84C132.798 102.84 127.069 101.737 130.965 95.688Z" fill="black"/>
<path d="M133.003 97.4239C133.003 98.4641 132.39 99.3077 131.634 99.3077C130.878 99.3077 130.264 98.4641 130.264 97.4239C130.264 96.3834 130.878 95.54 131.634 95.54C132.39 95.54 133.003 96.3834 133.003 97.4239Z" fill="white"/>
<path d="M136.166 104.475L141.342 104.06C141.342 104.06 141.166 104.893 140.491 105.518C140.491 105.518 138.711 107.47 136.669 105.356C136.669 105.356 136.335 104.996 136.166 104.475Z" fill="black"/>
<path d="M115.442 99.6841C115.399 99.6841 115.358 99.6872 115.316 99.6906C113.635 99.3081 108.912 98.0773 107.664 96.0802C107.664 96.0802 114.02 88.8502 104.085 84.2288L105.242 92.2279C105.242 92.2279 102.18 90.1814 101.519 85.7362C101.519 85.7362 94.0613 91.1484 104.81 96.3356C104.81 96.3356 105.785 99.9987 115.145 102.921L115.152 102.894C115.247 102.911 115.343 102.921 115.442 102.921C116.327 102.921 117.044 102.197 117.044 101.303C117.044 100.409 116.327 99.6841 115.442 99.6841Z" fill="#F74C00"/>
<path d="M155.039 92.5187C158.525 88.0188 176.385 75.7387 162.11 80.1338C162.11 80.1338 159.764 80.7595 158.575 80.6552C155.531 80.3882 153.422 78.2221 152.093 75.962C150.42 73.1156 149.284 70.2632 146.643 68.0096C142.007 64.0545 132.22 63.9395 126.992 68.0096C124.234 70.1571 123.215 73.1156 121.542 75.962C120.213 78.2221 118.105 80.3882 115.06 80.6552C113.872 80.7595 111.525 80.1338 111.525 80.1338C97.2502 75.7387 115.11 88.0188 118.596 92.5187C130.744 89.639 142.892 89.8376 155.039 92.5187V92.5187Z" fill="black"/>
<path d="M142.226 77.7369C142.226 80.3649 139.818 82.4954 136.849 82.4954C133.879 82.4954 131.472 80.3649 131.472 77.7369C131.472 75.1089 133.879 72.9785 136.849 72.9785C139.818 72.9785 142.226 75.1089 142.226 77.7369Z" fill="white"/>
<path d="M140.759 82.4336C140.759 84.3449 139.008 85.8943 136.849 85.8943C134.689 85.8943 132.939 84.3449 132.939 82.4336C132.939 80.5223 134.689 78.9729 136.849 78.9729C139.008 78.9729 140.759 80.5223 140.759 82.4336V82.4336Z" fill="white"/>
<path d="M136.458 77.737C136.458 78.6926 135.582 79.4673 134.503 79.4673C133.423 79.4673 132.548 78.6926 132.548 77.737C132.548 76.7813 133.423 76.0066 134.503 76.0066C135.582 76.0066 136.458 76.7813 136.458 77.737Z" fill="black"/>
<path d="M141.15 77.737C141.15 78.6926 140.275 79.4673 139.195 79.4673C138.115 79.4673 137.24 78.6926 137.24 77.737C137.24 76.7813 138.115 76.0066 139.195 76.0066C140.275 76.0066 141.15 76.7813 141.15 77.737Z" fill="black"/>
<path d="M130.41 74.5077C130.739 75.5361 130.497 76.4837 129.869 76.6245C129.241 76.7652 128.464 76.0456 128.135 75.0173C127.805 73.989 128.047 73.0413 128.675 72.9006C129.304 72.7599 130.08 73.4794 130.41 74.5077V74.5077Z" fill="white"/>
<path d="M128.698 77.2503C127.568 77.5031 126.497 77.2256 126.306 76.6305C126.115 76.0355 126.876 75.3482 128.006 75.0954C129.136 74.8427 130.207 75.1202 130.398 75.7152C130.589 76.3103 129.828 76.9976 128.698 77.2503Z" fill="white"/>
<path d="M129.592 74.7708L128.536 76.4213L132.005 78.2156L133.06 76.5651L129.592 74.7708Z" fill="white"/>
<path d="M129.518 81.2493C130.648 81.502 131.409 82.1893 131.218 82.7844C131.027 83.3794 129.956 83.6569 128.826 83.4041C127.696 83.1514 126.935 82.4641 127.126 81.869C127.317 81.274 128.388 80.9965 129.518 81.2493Z" fill="white"/>
<path d="M131.23 83.9918C130.9 85.0202 130.123 85.7397 129.495 85.599C128.867 85.4583 128.625 84.5106 128.954 83.4823C129.284 82.454 130.061 81.7344 130.689 81.8751C131.317 82.0158 131.559 82.9635 131.23 83.9918Z" fill="white"/>
<path d="M129.366 82.0941L130.422 83.7447L133.89 81.9503L132.835 80.2998L129.366 82.0941Z" fill="white"/>
<path d="M145.005 77.2582C143.875 77.0055 143.114 76.3182 143.305 75.7232C143.496 75.1281 144.567 74.8506 145.696 75.1034C146.826 75.3561 147.588 76.0434 147.397 76.6385C147.206 77.2335 146.135 77.511 145.005 77.2582V77.2582Z" fill="white"/>
<path d="M143.293 74.5157C143.623 73.4873 144.399 72.7678 145.027 72.9085C145.656 73.0492 145.898 73.9969 145.568 75.0252C145.239 76.0535 144.462 76.7731 143.834 76.6324C143.205 76.4917 142.963 75.544 143.293 74.5157Z" fill="white"/>
<path d="M145.156 76.4134L144.1 74.7628L140.632 76.5571L141.688 78.2077L145.156 76.4134Z" fill="white"/>
<path d="M142.47 83.9999C142.141 82.9716 142.383 82.0239 143.011 81.8832C143.639 81.7425 144.416 82.4621 144.746 83.4904C145.075 84.5187 144.833 85.4664 144.205 85.6071C143.577 85.7478 142.8 85.0283 142.47 83.9999Z" fill="white"/>
<path d="M144.182 81.2574C145.312 81.0046 146.383 81.2821 146.574 81.8772C146.765 82.4722 146.004 83.1595 144.874 83.4122C143.744 83.665 142.673 83.3875 142.482 82.7925C142.291 82.1974 143.052 81.5101 144.182 81.2574Z" fill="white"/>
<path d="M143.288 83.7369L144.344 82.0864L140.875 80.2921L139.82 81.9426L143.288 83.7369Z" fill="white"/>
<path d="M135.766 80.9166L136.849 79.368L137.932 80.9166H135.766V80.9166Z" fill="black"/>
<rect x="420.5" y="55.5" width="79" height="79" rx="3.5" fill="white" stroke="black"/>
<path d="M444.83 79.5918H440.717V91H439.038V79.5918H434.934V78.2031H444.83V79.5918ZM451.343 91C451.249 90.8125 451.173 90.4785 451.114 89.998C450.358 90.7832 449.456 91.1758 448.407 91.1758C447.47 91.1758 446.699 90.9121 446.096 90.3848C445.498 89.8516 445.199 89.1777 445.199 88.3633C445.199 87.373 445.574 86.6055 446.324 86.0605C447.08 85.5098 448.141 85.2344 449.506 85.2344H451.088V84.4873C451.088 83.9189 450.918 83.4678 450.578 83.1338C450.238 82.7939 449.737 82.624 449.075 82.624C448.495 82.624 448.009 82.7705 447.616 83.0635C447.224 83.3564 447.027 83.7109 447.027 84.127H445.393C445.393 83.6523 445.56 83.1953 445.894 82.7559C446.233 82.3105 446.69 81.959 447.265 81.7012C447.845 81.4434 448.48 81.3145 449.172 81.3145C450.268 81.3145 451.126 81.5898 451.747 82.1406C452.368 82.6855 452.69 83.4385 452.714 84.3994V88.7764C452.714 89.6494 452.825 90.3438 453.048 90.8594V91H451.343ZM448.645 89.7607C449.154 89.7607 449.638 89.6289 450.095 89.3652C450.552 89.1016 450.883 88.7588 451.088 88.3369V86.3857H449.813C447.821 86.3857 446.825 86.9688 446.825 88.1348C446.825 88.6445 446.995 89.043 447.335 89.3301C447.675 89.6172 448.111 89.7607 448.645 89.7607ZM459.859 82.9492C459.613 82.9082 459.347 82.8877 459.06 82.8877C457.993 82.8877 457.27 83.3418 456.889 84.25V91H455.263V81.4902H456.845L456.871 82.5889C457.404 81.7393 458.16 81.3145 459.139 81.3145C459.455 81.3145 459.695 81.3555 459.859 81.4375V82.9492ZM460.8 86.166C460.8 84.6836 461.143 83.5059 461.828 82.6328C462.514 81.7539 463.422 81.3145 464.553 81.3145C465.713 81.3145 466.618 81.7246 467.269 82.5449L467.348 81.4902H468.833V90.7715C468.833 92.002 468.467 92.9717 467.734 93.6807C467.008 94.3896 466.029 94.7441 464.799 94.7441C464.113 94.7441 463.442 94.5977 462.786 94.3047C462.13 94.0117 461.629 93.6104 461.283 93.1006L462.127 92.125C462.824 92.9863 463.677 93.417 464.685 93.417C465.476 93.417 466.091 93.1943 466.53 92.749C466.976 92.3037 467.198 91.6768 467.198 90.8682V90.0508C466.548 90.8008 465.66 91.1758 464.535 91.1758C463.422 91.1758 462.52 90.7275 461.828 89.8311C461.143 88.9346 460.8 87.7129 460.8 86.166ZM462.435 86.3506C462.435 87.4229 462.654 88.2666 463.094 88.8818C463.533 89.4912 464.148 89.7959 464.939 89.7959C465.965 89.7959 466.718 89.3301 467.198 88.3984V84.0566C466.7 83.1484 465.953 82.6943 464.957 82.6943C464.166 82.6943 463.548 83.002 463.103 83.6172C462.657 84.2324 462.435 85.1436 462.435 86.3506ZM475.24 91.1758C473.951 91.1758 472.902 90.7539 472.094 89.9102C471.285 89.0605 470.881 87.9268 470.881 86.5088V86.21C470.881 85.2666 471.06 84.4258 471.417 83.6875C471.78 82.9434 472.284 82.3633 472.929 81.9473C473.579 81.5254 474.282 81.3145 475.038 81.3145C476.274 81.3145 477.235 81.7217 477.921 82.5361C478.606 83.3506 478.949 84.5166 478.949 86.0342V86.7109H472.507C472.53 87.6484 472.803 88.4072 473.324 88.9873C473.852 89.5615 474.52 89.8486 475.328 89.8486C475.902 89.8486 476.389 89.7314 476.787 89.4971C477.186 89.2627 477.534 88.9521 477.833 88.5654L478.826 89.3389C478.029 90.5635 476.834 91.1758 475.24 91.1758ZM475.038 82.6504C474.382 82.6504 473.831 82.8906 473.386 83.3711C472.94 83.8457 472.665 84.5137 472.56 85.375H477.323V85.252C477.276 84.4258 477.054 83.7871 476.655 83.3359C476.257 82.8789 475.718 82.6504 475.038 82.6504ZM483.045 79.1875V81.4902H484.82V82.7471H483.045V88.6445C483.045 89.0254 483.124 89.3125 483.282 89.5059C483.44 89.6934 483.71 89.7871 484.091 89.7871C484.278 89.7871 484.536 89.752 484.864 89.6816V91C484.437 91.1172 484.021 91.1758 483.616 91.1758C482.89 91.1758 482.342 90.9561 481.973 90.5166C481.604 90.0771 481.419 89.4531 481.419 88.6445V82.7471H479.688V81.4902H481.419V79.1875H483.045ZM438.511 109.759L440.339 102.49H441.965L439.196 112H437.878L435.566 104.793L433.316 112H431.998L429.238 102.49H430.855L432.728 109.609L434.942 102.49H436.252L438.511 109.759ZM447.572 112.176C446.283 112.176 445.234 111.754 444.426 110.91C443.617 110.061 443.213 108.927 443.213 107.509V107.21C443.213 106.267 443.392 105.426 443.749 104.688C444.112 103.943 444.616 103.363 445.261 102.947C445.911 102.525 446.614 102.314 447.37 102.314C448.606 102.314 449.567 102.722 450.253 103.536C450.938 104.351 451.281 105.517 451.281 107.034V107.711H444.839C444.862 108.648 445.135 109.407 445.656 109.987C446.184 110.562 446.852 110.849 447.66 110.849C448.234 110.849 448.721 110.731 449.119 110.497C449.518 110.263 449.866 109.952 450.165 109.565L451.158 110.339C450.361 111.563 449.166 112.176 447.572 112.176ZM447.37 103.65C446.714 103.65 446.163 103.891 445.718 104.371C445.272 104.846 444.997 105.514 444.892 106.375H449.655V106.252C449.608 105.426 449.386 104.787 448.987 104.336C448.589 103.879 448.05 103.65 447.37 103.65ZM461.222 107.351C461.222 108.804 460.888 109.973 460.22 110.857C459.552 111.736 458.655 112.176 457.53 112.176C456.329 112.176 455.4 111.751 454.744 110.901L454.665 112H453.171V98.5H454.797V103.536C455.453 102.722 456.358 102.314 457.513 102.314C458.667 102.314 459.572 102.751 460.229 103.624C460.891 104.497 461.222 105.692 461.222 107.21V107.351ZM459.596 107.166C459.596 106.059 459.382 105.203 458.954 104.6C458.526 103.996 457.911 103.694 457.108 103.694C456.036 103.694 455.266 104.192 454.797 105.188V109.302C455.295 110.298 456.071 110.796 457.126 110.796C457.905 110.796 458.512 110.494 458.945 109.891C459.379 109.287 459.596 108.379 459.596 107.166ZM468.815 109.478C468.815 109.038 468.648 108.698 468.314 108.458C467.986 108.212 467.409 108.001 466.583 107.825C465.763 107.649 465.109 107.438 464.623 107.192C464.143 106.946 463.785 106.653 463.551 106.313C463.322 105.974 463.208 105.569 463.208 105.101C463.208 104.321 463.536 103.662 464.192 103.123C464.854 102.584 465.698 102.314 466.724 102.314C467.802 102.314 468.675 102.593 469.343 103.149C470.017 103.706 470.354 104.418 470.354 105.285H468.719C468.719 104.84 468.528 104.456 468.147 104.134C467.772 103.812 467.298 103.65 466.724 103.65C466.132 103.65 465.669 103.779 465.335 104.037C465.001 104.295 464.834 104.632 464.834 105.048C464.834 105.44 464.989 105.736 465.3 105.936C465.61 106.135 466.17 106.325 466.979 106.507C467.793 106.688 468.452 106.905 468.956 107.157C469.46 107.409 469.832 107.714 470.072 108.071C470.318 108.423 470.441 108.854 470.441 109.363C470.441 110.213 470.102 110.896 469.422 111.411C468.742 111.921 467.86 112.176 466.776 112.176C466.015 112.176 465.341 112.041 464.755 111.771C464.169 111.502 463.709 111.127 463.375 110.646C463.047 110.16 462.883 109.636 462.883 109.073H464.509C464.538 109.618 464.755 110.052 465.159 110.374C465.569 110.69 466.108 110.849 466.776 110.849C467.392 110.849 467.884 110.726 468.253 110.479C468.628 110.228 468.815 109.894 468.815 109.478ZM474.326 112H472.7V102.49H474.326V112ZM472.568 99.9678C472.568 99.7041 472.647 99.4814 472.806 99.2998C472.97 99.1182 473.21 99.0273 473.526 99.0273C473.843 99.0273 474.083 99.1182 474.247 99.2998C474.411 99.4814 474.493 99.7041 474.493 99.9678C474.493 100.231 474.411 100.451 474.247 100.627C474.083 100.803 473.843 100.891 473.526 100.891C473.21 100.891 472.97 100.803 472.806 100.627C472.647 100.451 472.568 100.231 472.568 99.9678ZM479.143 100.188V102.49H480.918V103.747H479.143V109.645C479.143 110.025 479.222 110.312 479.38 110.506C479.538 110.693 479.808 110.787 480.188 110.787C480.376 110.787 480.634 110.752 480.962 110.682V112C480.534 112.117 480.118 112.176 479.714 112.176C478.987 112.176 478.439 111.956 478.07 111.517C477.701 111.077 477.517 110.453 477.517 109.645V103.747H475.785V102.49H477.517V100.188H479.143ZM486.771 112.176C485.482 112.176 484.434 111.754 483.625 110.91C482.816 110.061 482.412 108.927 482.412 107.509V107.21C482.412 106.267 482.591 105.426 482.948 104.688C483.312 103.943 483.815 103.363 484.46 102.947C485.11 102.525 485.813 102.314 486.569 102.314C487.806 102.314 488.767 102.722 489.452 103.536C490.138 104.351 490.48 105.517 490.48 107.034V107.711H484.038C484.062 108.648 484.334 109.407 484.855 109.987C485.383 110.562 486.051 110.849 486.859 110.849C487.434 110.849 487.92 110.731 488.318 110.497C488.717 110.263 489.065 109.952 489.364 109.565L490.357 110.339C489.561 111.563 488.365 112.176 486.771 112.176ZM486.569 103.65C485.913 103.65 485.362 103.891 484.917 104.371C484.472 104.846 484.196 105.514 484.091 106.375H488.854V106.252C488.808 105.426 488.585 104.787 488.187 104.336C487.788 103.879 487.249 103.65 486.569 103.65Z" fill="black"/>
<path d="M409.717 89.1064C410.108 88.7158 410.108 88.0827 409.717 87.6922L403.353 81.3282C402.963 80.9377 402.329 80.9377 401.939 81.3282C401.548 81.7187 401.548 82.3519 401.939 82.7424L407.596 88.3993L401.939 94.0561C401.548 94.4466 401.548 95.0798 401.939 95.4703C402.329 95.8609 402.963 95.8609 403.353 95.4703L409.717 89.1064ZM185.97 89.3993H409.01V87.3993H185.97V89.3993Z" fill="black"/>
<path d="M185.142 156.041C184.86 156.517 185.014 157.131 185.488 157.412L193.206 162C193.68 162.281 194.293 162.124 194.576 161.648C194.859 161.172 194.704 160.558 194.23 160.276L187.37 156.198L191.467 149.305C191.75 148.829 191.595 148.215 191.122 147.934C190.648 147.652 190.035 147.81 189.752 148.286L185.142 156.041ZM409.756 98.0303L185.756 155.581L186.244 157.52L410.244 99.9697L409.756 98.0303Z" fill="#FF0000"/>
<path d="M195.032 224.749C194.894 225.284 195.215 225.83 195.749 225.968L204.462 228.223C204.997 228.362 205.543 228.04 205.681 227.506C205.819 226.971 205.498 226.425 204.963 226.287L197.219 224.282L199.223 216.538C199.362 216.003 199.04 215.457 198.506 215.319C197.971 215.181 197.425 215.502 197.287 216.037L195.032 224.749ZM409.493 98.1383L195.493 224.138L196.507 225.862L410.507 99.8617L409.493 98.1383Z" fill="#FF0000"/>
<path d="M134 130.259C101.057 130.259 100.271 167.192 100.271 174.507C100.271 181.817 115.374 187.741 134 187.741C152.631 187.741 167.729 181.812 167.729 174.507C167.729 167.192 166.948 130.259 134 130.259Z" fill="#FCC21B"/>
<path d="M130.09 154.814C130.09 154.83 130.085 154.846 130.085 154.862C130.085 154.846 130.085 154.83 130.09 154.814Z" fill="#2F2F2F"/>
<path d="M121.601 152.939H115.629C114.747 152.939 114.036 153.651 114.036 154.533C114.036 155.415 114.747 156.126 115.629 156.126H121.903C121.659 155.489 121.521 154.788 121.516 154.049C121.505 153.667 121.537 153.295 121.601 152.939Z" fill="#2F2F2F"/>
<path d="M128.523 156.126H121.898C122.583 157.927 124.113 159.175 125.872 159.154C128.002 159.133 129.75 157.279 130.079 154.856C129.936 155.584 129.293 156.126 128.523 156.126Z" fill="#2F2F2F"/>
<path d="M130.085 154.856C130.085 154.84 130.09 154.824 130.09 154.808C130.106 154.718 130.117 154.623 130.117 154.527C130.117 153.645 129.405 152.933 128.523 152.933H121.601C121.537 153.289 121.505 153.661 121.51 154.043C121.516 154.787 121.659 155.488 121.898 156.121H128.523C129.293 156.126 129.936 155.584 130.085 154.856Z" fill="#2F2F2F"/>
<path d="M153.938 154.814C153.938 154.83 153.932 154.846 153.932 154.862C153.938 154.846 153.932 154.83 153.938 154.814Z" fill="#2F2F2F"/>
<path d="M145.448 152.939H139.477C138.595 152.939 137.883 153.651 137.883 154.533C137.883 155.415 138.595 156.126 139.477 156.126H145.751C145.507 155.489 145.369 154.788 145.363 154.049C145.353 153.667 145.39 153.295 145.448 152.939Z" fill="#2F2F2F"/>
<path d="M152.371 156.126H145.746C146.431 157.927 147.961 159.175 149.72 159.154C151.85 159.133 153.598 157.279 153.927 154.856C153.784 155.584 153.141 156.126 152.371 156.126Z" fill="#2F2F2F"/>
<path d="M153.932 154.856C153.932 154.84 153.938 154.824 153.938 154.808C153.954 154.718 153.964 154.623 153.964 154.527C153.964 153.645 153.252 152.933 152.371 152.933H145.448C145.385 153.289 145.353 153.661 145.358 154.043C145.363 154.787 145.507 155.488 145.746 156.121H152.371C153.141 156.126 153.784 155.584 153.932 154.856Z" fill="#2F2F2F"/>
<path d="M126.573 170.215C130.472 166.517 137.527 166.517 141.422 170.215" stroke="#2F2F2F" stroke-width="6" stroke-miterlimit="10" stroke-linecap="round"/>
<path d="M138 198.259C105.057 198.259 104.271 235.192 104.271 242.507C104.271 249.817 119.374 255.741 138 255.741C156.631 255.741 171.729 249.812 171.729 242.507C171.729 235.192 170.948 198.259 138 198.259Z" fill="#FCC21B"/>
<path d="M134.09 222.814C134.09 222.83 134.085 222.846 134.085 222.862C134.085 222.846 134.085 222.83 134.09 222.814Z" fill="#2F2F2F"/>
<path d="M125.601 220.939H119.629C118.747 220.939 118.036 221.651 118.036 222.533C118.036 223.415 118.747 224.126 119.629 224.126H125.903C125.659 223.489 125.521 222.788 125.516 222.049C125.505 221.667 125.537 221.295 125.601 220.939Z" fill="#2F2F2F"/>
<path d="M132.523 224.126H125.898C126.583 225.927 128.113 227.175 129.872 227.154C132.002 227.133 133.75 225.279 134.079 222.856C133.936 223.584 133.293 224.126 132.523 224.126Z" fill="#2F2F2F"/>
<path d="M134.085 222.856C134.085 222.84 134.09 222.824 134.09 222.808C134.106 222.718 134.117 222.623 134.117 222.527C134.117 221.645 133.405 220.933 132.523 220.933H125.601C125.537 221.289 125.505 221.661 125.51 222.043C125.516 222.787 125.659 223.488 125.898 224.121H132.523C133.293 224.126 133.936 223.584 134.085 222.856Z" fill="#2F2F2F"/>
<path d="M157.938 222.814C157.938 222.83 157.932 222.846 157.932 222.862C157.938 222.846 157.932 222.83 157.938 222.814Z" fill="#2F2F2F"/>
<path d="M149.448 220.939H143.477C142.595 220.939 141.883 221.651 141.883 222.533C141.883 223.415 142.595 224.126 143.477 224.126H149.751C149.507 223.489 149.369 222.788 149.363 222.049C149.353 221.667 149.39 221.295 149.448 220.939Z" fill="#2F2F2F"/>
<path d="M156.371 224.126H149.746C150.431 225.927 151.961 227.175 153.72 227.154C155.85 227.133 157.598 225.279 157.927 222.856C157.784 223.584 157.141 224.126 156.371 224.126Z" fill="#2F2F2F"/>
<path d="M157.932 222.856C157.932 222.84 157.938 222.824 157.938 222.808C157.954 222.718 157.964 222.623 157.964 222.527C157.964 221.645 157.252 220.933 156.371 220.933H149.448C149.385 221.289 149.353 221.661 149.358 222.043C149.363 222.787 149.507 223.488 149.746 224.121H156.371C157.141 224.126 157.784 223.584 157.932 222.856Z" fill="#2F2F2F"/>
<path d="M130.573 238.215C134.472 234.517 141.527 234.517 145.422 238.215" stroke="#2F2F2F" stroke-width="6" stroke-miterlimit="10" stroke-linecap="round"/>
<path d="M240.832 38.8232H237.826V44H236.13V31.2031H240.366C241.808 31.2031 242.915 31.5312 243.688 32.1875C244.468 32.8438 244.857 33.7988 244.857 35.0527C244.857 35.8496 244.641 36.5439 244.207 37.1357C243.779 37.7275 243.182 38.1699 242.414 38.4629L245.42 43.8945V44H243.609L240.832 38.8232ZM237.826 37.4434H240.419C241.257 37.4434 241.922 37.2266 242.414 36.793C242.912 36.3594 243.161 35.7793 243.161 35.0527C243.161 34.2617 242.924 33.6553 242.449 33.2334C241.98 32.8115 241.301 32.5977 240.41 32.5918H237.826V37.4434ZM250.922 44.1758C249.633 44.1758 248.584 43.7539 247.775 42.9102C246.967 42.0605 246.562 40.9268 246.562 39.5088V39.21C246.562 38.2666 246.741 37.4258 247.099 36.6875C247.462 35.9434 247.966 35.3633 248.61 34.9473C249.261 34.5254 249.964 34.3145 250.72 34.3145C251.956 34.3145 252.917 34.7217 253.603 35.5361C254.288 36.3506 254.631 37.5166 254.631 39.0342V39.7109H248.188C248.212 40.6484 248.484 41.4072 249.006 41.9873C249.533 42.5615 250.201 42.8486 251.01 42.8486C251.584 42.8486 252.07 42.7314 252.469 42.4971C252.867 42.2627 253.216 41.9521 253.515 41.5654L254.508 42.3389C253.711 43.5635 252.516 44.1758 250.922 44.1758ZM250.72 35.6504C250.063 35.6504 249.513 35.8906 249.067 36.3711C248.622 36.8457 248.347 37.5137 248.241 38.375H253.005V38.252C252.958 37.4258 252.735 36.7871 252.337 36.3359C251.938 35.8789 251.399 35.6504 250.72 35.6504ZM256.125 39.166C256.125 37.6719 256.468 36.4912 257.153 35.624C257.839 34.751 258.759 34.3145 259.913 34.3145C261.038 34.3145 261.926 34.6924 262.576 35.4482L262.646 34.4902H264.141V47.6562H262.515V43.1211C261.858 43.8242 260.985 44.1758 259.896 44.1758C258.747 44.1758 257.83 43.7305 257.145 42.8398C256.465 41.9434 256.125 40.7568 256.125 39.2803V39.166ZM257.751 39.3506C257.751 40.4404 257.979 41.2959 258.437 41.917C258.899 42.5381 259.521 42.8486 260.3 42.8486C261.267 42.8486 262.005 42.4209 262.515 41.5654V36.9072C261.999 36.0693 261.267 35.6504 260.317 35.6504C259.532 35.6504 258.908 35.9639 258.445 36.5908C257.982 37.2119 257.751 38.1318 257.751 39.3506ZM272.622 43.0596C271.989 43.8037 271.061 44.1758 269.836 44.1758C268.822 44.1758 268.049 43.8828 267.516 43.2969C266.988 42.7051 266.722 41.832 266.716 40.6777V34.4902H268.342V40.6338C268.342 42.0752 268.928 42.7959 270.1 42.7959C271.342 42.7959 272.168 42.333 272.578 41.4072V34.4902H274.204V44H272.657L272.622 43.0596ZM280.629 44.1758C279.34 44.1758 278.291 43.7539 277.482 42.9102C276.674 42.0605 276.27 40.9268 276.27 39.5088V39.21C276.27 38.2666 276.448 37.4258 276.806 36.6875C277.169 35.9434 277.673 35.3633 278.317 34.9473C278.968 34.5254 279.671 34.3145 280.427 34.3145C281.663 34.3145 282.624 34.7217 283.31 35.5361C283.995 36.3506 284.338 37.5166 284.338 39.0342V39.7109H277.896C277.919 40.6484 278.191 41.4072 278.713 41.9873C279.24 42.5615 279.908 42.8486 280.717 42.8486C281.291 42.8486 281.777 42.7314 282.176 42.4971C282.574 42.2627 282.923 41.9521 283.222 41.5654L284.215 42.3389C283.418 43.5635 282.223 44.1758 280.629 44.1758ZM280.427 35.6504C279.771 35.6504 279.22 35.8906 278.774 36.3711C278.329 36.8457 278.054 37.5137 277.948 38.375H282.712V38.252C282.665 37.4258 282.442 36.7871 282.044 36.3359C281.646 35.8789 281.106 35.6504 280.427 35.6504ZM291.765 41.4775C291.765 41.0381 291.598 40.6982 291.264 40.458C290.936 40.2119 290.358 40.001 289.532 39.8252C288.712 39.6494 288.059 39.4385 287.572 39.1924C287.092 38.9463 286.734 38.6533 286.5 38.3135C286.271 37.9736 286.157 37.5693 286.157 37.1006C286.157 36.3213 286.485 35.6621 287.142 35.123C287.804 34.584 288.647 34.3145 289.673 34.3145C290.751 34.3145 291.624 34.5928 292.292 35.1494C292.966 35.7061 293.303 36.418 293.303 37.2852H291.668C291.668 36.8398 291.478 36.4561 291.097 36.1338C290.722 35.8115 290.247 35.6504 289.673 35.6504C289.081 35.6504 288.618 35.7793 288.284 36.0371C287.95 36.2949 287.783 36.6318 287.783 37.0479C287.783 37.4404 287.938 37.7363 288.249 37.9355C288.56 38.1348 289.119 38.3252 289.928 38.5068C290.742 38.6885 291.401 38.9053 291.905 39.1572C292.409 39.4092 292.781 39.7139 293.021 40.0713C293.268 40.4229 293.391 40.8535 293.391 41.3633C293.391 42.2129 293.051 42.8955 292.371 43.4111C291.691 43.9209 290.81 44.1758 289.726 44.1758C288.964 44.1758 288.29 44.041 287.704 43.7715C287.118 43.502 286.658 43.127 286.324 42.6465C285.996 42.1602 285.832 41.6357 285.832 41.0732H287.458C287.487 41.6182 287.704 42.0518 288.108 42.374C288.519 42.6904 289.058 42.8486 289.726 42.8486C290.341 42.8486 290.833 42.7256 291.202 42.4795C291.577 42.2275 291.765 41.8936 291.765 41.4775ZM297.715 32.1875V34.4902H299.49V35.7471H297.715V41.6445C297.715 42.0254 297.794 42.3125 297.952 42.5059C298.11 42.6934 298.38 42.7871 298.761 42.7871C298.948 42.7871 299.206 42.752 299.534 42.6816V44C299.106 44.1172 298.69 44.1758 298.286 44.1758C297.56 44.1758 297.012 43.9561 296.643 43.5166C296.273 43.0771 296.089 42.4531 296.089 41.6445V35.7471H294.357V34.4902H296.089V32.1875H297.715ZM314.282 41.7588L316.11 34.4902H317.736L314.968 44H313.649L311.338 36.793L309.088 44H307.77L305.01 34.4902H306.627L308.499 41.6094L310.714 34.4902H312.023L314.282 41.7588ZM321.164 44H319.538V34.4902H321.164V44ZM319.406 31.9678C319.406 31.7041 319.485 31.4814 319.644 31.2998C319.808 31.1182 320.048 31.0273 320.364 31.0273C320.681 31.0273 320.921 31.1182 321.085 31.2998C321.249 31.4814 321.331 31.7041 321.331 31.9678C321.331 32.2314 321.249 32.4512 321.085 32.627C320.921 32.8027 320.681 32.8906 320.364 32.8906C320.048 32.8906 319.808 32.8027 319.644 32.627C319.485 32.4512 319.406 32.2314 319.406 31.9678ZM325.98 32.1875V34.4902H327.756V35.7471H325.98V41.6445C325.98 42.0254 326.06 42.3125 326.218 42.5059C326.376 42.6934 326.646 42.7871 327.026 42.7871C327.214 42.7871 327.472 42.752 327.8 42.6816V44C327.372 44.1172 326.956 44.1758 326.552 44.1758C325.825 44.1758 325.277 43.9561 324.908 43.5166C324.539 43.0771 324.354 42.4531 324.354 41.6445V35.7471H322.623V34.4902H324.354V32.1875H325.98ZM331.289 35.6416C332.01 34.7568 332.947 34.3145 334.102 34.3145C336.111 34.3145 337.125 35.4482 337.143 37.7158V44H335.517V37.707C335.511 37.0215 335.353 36.5146 335.042 36.1865C334.737 35.8584 334.26 35.6943 333.609 35.6943C333.082 35.6943 332.619 35.835 332.221 36.1162C331.822 36.3975 331.512 36.7666 331.289 37.2236V44H329.663V30.5H331.289V35.6416ZM223.869 55.4902L223.913 56.5449C224.61 55.7246 225.551 55.3145 226.734 55.3145C228.064 55.3145 228.97 55.8242 229.45 56.8438C229.767 56.3867 230.177 56.0176 230.681 55.7363C231.19 55.4551 231.791 55.3145 232.482 55.3145C234.568 55.3145 235.629 56.4189 235.664 58.6279V65H234.038V58.7246C234.038 58.0449 233.883 57.5381 233.572 57.2041C233.262 56.8643 232.74 56.6943 232.008 56.6943C231.404 56.6943 230.903 56.876 230.505 57.2393C230.106 57.5967 229.875 58.0801 229.811 58.6895V65H228.176V58.7686C228.176 57.3857 227.499 56.6943 226.146 56.6943C225.079 56.6943 224.35 57.1484 223.957 58.0566V65H222.331V55.4902H223.869ZM243.996 65C243.902 64.8125 243.826 64.4785 243.768 63.998C243.012 64.7832 242.109 65.1758 241.061 65.1758C240.123 65.1758 239.353 64.9121 238.749 64.3848C238.151 63.8516 237.853 63.1777 237.853 62.3633C237.853 61.373 238.228 60.6055 238.978 60.0605C239.733 59.5098 240.794 59.2344 242.159 59.2344H243.741V58.4873C243.741 57.9189 243.571 57.4678 243.231 57.1338C242.892 56.7939 242.391 56.624 241.729 56.624C241.148 56.624 240.662 56.7705 240.27 57.0635C239.877 57.3564 239.681 57.7109 239.681 58.127H238.046C238.046 57.6523 238.213 57.1953 238.547 56.7559C238.887 56.3105 239.344 55.959 239.918 55.7012C240.498 55.4434 241.134 55.3145 241.825 55.3145C242.921 55.3145 243.779 55.5898 244.4 56.1406C245.021 56.6855 245.344 57.4385 245.367 58.3994V62.7764C245.367 63.6494 245.479 64.3438 245.701 64.8594V65H243.996ZM241.298 63.7607C241.808 63.7607 242.291 63.6289 242.748 63.3652C243.205 63.1016 243.536 62.7588 243.741 62.3369V60.3857H242.467C240.475 60.3857 239.479 60.9688 239.479 62.1348C239.479 62.6445 239.648 63.043 239.988 63.3301C240.328 63.6172 240.765 63.7607 241.298 63.7607ZM249.683 65H248.057V51.5H249.683V65ZM254.06 65H252.434V55.4902H254.06V65ZM252.302 52.9678C252.302 52.7041 252.381 52.4814 252.539 52.2998C252.703 52.1182 252.943 52.0273 253.26 52.0273C253.576 52.0273 253.816 52.1182 253.98 52.2998C254.145 52.4814 254.227 52.7041 254.227 52.9678C254.227 53.2314 254.145 53.4512 253.98 53.627C253.816 53.8027 253.576 53.8906 253.26 53.8906C252.943 53.8906 252.703 53.8027 252.539 53.627C252.381 53.4512 252.302 53.2314 252.302 52.9678ZM260.484 63.8486C261.064 63.8486 261.571 63.6729 262.005 63.3213C262.438 62.9697 262.679 62.5303 262.726 62.0029H264.264C264.234 62.5479 264.047 63.0664 263.701 63.5586C263.355 64.0508 262.893 64.4434 262.312 64.7363C261.738 65.0293 261.129 65.1758 260.484 65.1758C259.189 65.1758 258.158 64.7451 257.391 63.8838C256.629 63.0166 256.248 61.833 256.248 60.333V60.0605C256.248 59.1348 256.418 58.3115 256.758 57.5908C257.098 56.8701 257.584 56.3105 258.217 55.9121C258.855 55.5137 259.608 55.3145 260.476 55.3145C261.542 55.3145 262.427 55.6338 263.13 56.2725C263.839 56.9111 264.217 57.7402 264.264 58.7598H262.726C262.679 58.1445 262.444 57.6406 262.022 57.248C261.606 56.8496 261.091 56.6504 260.476 56.6504C259.649 56.6504 259.008 56.9492 258.551 57.5469C258.1 58.1387 257.874 58.9971 257.874 60.1221V60.4297C257.874 61.5254 258.1 62.3691 258.551 62.9609C259.002 63.5527 259.646 63.8486 260.484 63.8486ZM267.858 65H266.232V55.4902H267.858V65ZM266.101 52.9678C266.101 52.7041 266.18 52.4814 266.338 52.2998C266.502 52.1182 266.742 52.0273 267.059 52.0273C267.375 52.0273 267.615 52.1182 267.779 52.2998C267.943 52.4814 268.025 52.7041 268.025 52.9678C268.025 53.2314 267.943 53.4512 267.779 53.627C267.615 53.8027 267.375 53.8906 267.059 53.8906C266.742 53.8906 266.502 53.8027 266.338 53.627C266.18 53.4512 266.101 53.2314 266.101 52.9678ZM270.038 60.1572C270.038 59.2256 270.22 58.3877 270.583 57.6436C270.952 56.8994 271.462 56.3252 272.112 55.9209C272.769 55.5166 273.516 55.3145 274.354 55.3145C275.648 55.3145 276.694 55.7627 277.491 56.6592C278.294 57.5557 278.695 58.748 278.695 60.2363V60.3506C278.695 61.2764 278.517 62.1084 278.159 62.8467C277.808 63.5791 277.301 64.1504 276.639 64.5605C275.982 64.9707 275.227 65.1758 274.371 65.1758C273.082 65.1758 272.036 64.7275 271.233 63.8311C270.437 62.9346 270.038 61.748 270.038 60.2715V60.1572ZM271.673 60.3506C271.673 61.4053 271.916 62.252 272.402 62.8906C272.895 63.5293 273.551 63.8486 274.371 63.8486C275.197 63.8486 275.854 63.5264 276.34 62.8818C276.826 62.2314 277.069 61.3232 277.069 60.1572C277.069 59.1143 276.82 58.2705 276.322 57.626C275.83 56.9756 275.174 56.6504 274.354 56.6504C273.551 56.6504 272.903 56.9697 272.411 57.6084C271.919 58.2471 271.673 59.1611 271.673 60.3506ZM286.605 64.0596C285.973 64.8037 285.044 65.1758 283.819 65.1758C282.806 65.1758 282.032 64.8828 281.499 64.2969C280.972 63.7051 280.705 62.832 280.699 61.6777V55.4902H282.325V61.6338C282.325 63.0752 282.911 63.7959 284.083 63.7959C285.325 63.7959 286.151 63.333 286.562 62.4072V55.4902H288.188V65H286.641L286.605 64.0596ZM296.203 62.4775C296.203 62.0381 296.036 61.6982 295.702 61.458C295.374 61.2119 294.797 61.001 293.971 60.8252C293.15 60.6494 292.497 60.4385 292.011 60.1924C291.53 59.9463 291.173 59.6533 290.938 59.3135C290.71 58.9736 290.596 58.5693 290.596 58.1006C290.596 57.3213 290.924 56.6621 291.58 56.123C292.242 55.584 293.086 55.3145 294.111 55.3145C295.189 55.3145 296.062 55.5928 296.73 56.1494C297.404 56.7061 297.741 57.418 297.741 58.2852H296.106C296.106 57.8398 295.916 57.4561 295.535 57.1338C295.16 56.8115 294.686 56.6504 294.111 56.6504C293.52 56.6504 293.057 56.7793 292.723 57.0371C292.389 57.2949 292.222 57.6318 292.222 58.0479C292.222 58.4404 292.377 58.7363 292.688 58.9355C292.998 59.1348 293.558 59.3252 294.366 59.5068C295.181 59.6885 295.84 59.9053 296.344 60.1572C296.848 60.4092 297.22 60.7139 297.46 61.0713C297.706 61.4229 297.829 61.8535 297.829 62.3633C297.829 63.2129 297.489 63.8955 296.81 64.4111C296.13 64.9209 295.248 65.1758 294.164 65.1758C293.402 65.1758 292.729 65.041 292.143 64.7715C291.557 64.502 291.097 64.127 290.763 63.6465C290.435 63.1602 290.271 62.6357 290.271 62.0732H291.896C291.926 62.6182 292.143 63.0518 292.547 63.374C292.957 63.6904 293.496 63.8486 294.164 63.8486C294.779 63.8486 295.271 63.7256 295.641 63.4795C296.016 63.2275 296.203 62.8936 296.203 62.4775ZM314.502 65H312.806V59.085H306.354V65H304.667V52.2031H306.354V57.7051H312.806V52.2031H314.502V65ZM326.077 53.5918H321.964V65H320.285V53.5918H316.181V52.2031H326.077V53.5918ZM330.155 52.2031L334.339 62.6445L338.522 52.2031H340.711V65H339.023V60.0166L339.182 54.6377L334.98 65H333.688L329.496 54.6641L329.663 60.0166V65H327.976V52.2031H330.155ZM345.387 63.6201H351.451V65H343.69V52.2031H345.387V63.6201Z" fill="black"/>
<path d="M294.884 219V206.203H298.496C299.609 206.203 300.594 206.449 301.449 206.941C302.305 207.434 302.964 208.134 303.427 209.042C303.896 209.95 304.133 210.993 304.139 212.171V212.988C304.139 214.195 303.904 215.253 303.436 216.161C302.973 217.069 302.308 217.767 301.44 218.253C300.579 218.739 299.574 218.988 298.426 219H294.884ZM296.571 207.592V217.62H298.347C299.647 217.62 300.658 217.216 301.379 216.407C302.105 215.599 302.469 214.447 302.469 212.953V212.206C302.469 210.753 302.126 209.625 301.44 208.822C300.761 208.014 299.794 207.604 298.54 207.592H296.571ZM308.208 219H306.582V209.49H308.208V219ZM306.45 206.968C306.45 206.704 306.529 206.481 306.688 206.3C306.852 206.118 307.092 206.027 307.408 206.027C307.725 206.027 307.965 206.118 308.129 206.3C308.293 206.481 308.375 206.704 308.375 206.968C308.375 207.231 308.293 207.451 308.129 207.627C307.965 207.803 307.725 207.891 307.408 207.891C307.092 207.891 306.852 207.803 306.688 207.627C306.529 207.451 306.45 207.231 306.45 206.968ZM316.355 216.478C316.355 216.038 316.188 215.698 315.854 215.458C315.526 215.212 314.949 215.001 314.123 214.825C313.303 214.649 312.649 214.438 312.163 214.192C311.683 213.946 311.325 213.653 311.091 213.313C310.862 212.974 310.748 212.569 310.748 212.101C310.748 211.321 311.076 210.662 311.732 210.123C312.395 209.584 313.238 209.314 314.264 209.314C315.342 209.314 316.215 209.593 316.883 210.149C317.557 210.706 317.894 211.418 317.894 212.285H316.259C316.259 211.84 316.068 211.456 315.688 211.134C315.312 210.812 314.838 210.65 314.264 210.65C313.672 210.65 313.209 210.779 312.875 211.037C312.541 211.295 312.374 211.632 312.374 212.048C312.374 212.44 312.529 212.736 312.84 212.936C313.15 213.135 313.71 213.325 314.519 213.507C315.333 213.688 315.992 213.905 316.496 214.157C317 214.409 317.372 214.714 317.612 215.071C317.858 215.423 317.981 215.854 317.981 216.363C317.981 217.213 317.642 217.896 316.962 218.411C316.282 218.921 315.4 219.176 314.316 219.176C313.555 219.176 312.881 219.041 312.295 218.771C311.709 218.502 311.249 218.127 310.915 217.646C310.587 217.16 310.423 216.636 310.423 216.073H312.049C312.078 216.618 312.295 217.052 312.699 217.374C313.109 217.69 313.648 217.849 314.316 217.849C314.932 217.849 315.424 217.726 315.793 217.479C316.168 217.228 316.355 216.894 316.355 216.478ZM328.133 214.351C328.133 215.798 327.802 216.964 327.14 217.849C326.478 218.733 325.581 219.176 324.45 219.176C323.296 219.176 322.388 218.81 321.726 218.077V222.656H320.1V209.49H321.585L321.664 210.545C322.326 209.725 323.246 209.314 324.424 209.314C325.566 209.314 326.469 209.745 327.131 210.606C327.799 211.468 328.133 212.666 328.133 214.201V214.351ZM326.507 214.166C326.507 213.094 326.278 212.247 325.821 211.626C325.364 211.005 324.737 210.694 323.94 210.694C322.956 210.694 322.218 211.131 321.726 212.004V216.548C322.212 217.415 322.956 217.849 323.958 217.849C324.737 217.849 325.355 217.541 325.812 216.926C326.275 216.305 326.507 215.385 326.507 214.166ZM331.974 219H330.348V205.5H331.974V219ZM340.455 219C340.361 218.812 340.285 218.479 340.227 217.998C339.471 218.783 338.568 219.176 337.52 219.176C336.582 219.176 335.812 218.912 335.208 218.385C334.61 217.852 334.312 217.178 334.312 216.363C334.312 215.373 334.687 214.605 335.437 214.061C336.192 213.51 337.253 213.234 338.618 213.234H340.2V212.487C340.2 211.919 340.03 211.468 339.69 211.134C339.351 210.794 338.85 210.624 338.188 210.624C337.607 210.624 337.121 210.771 336.729 211.063C336.336 211.356 336.14 211.711 336.14 212.127H334.505C334.505 211.652 334.672 211.195 335.006 210.756C335.346 210.311 335.803 209.959 336.377 209.701C336.957 209.443 337.593 209.314 338.284 209.314C339.38 209.314 340.238 209.59 340.859 210.141C341.48 210.686 341.803 211.438 341.826 212.399V216.776C341.826 217.649 341.938 218.344 342.16 218.859V219H340.455ZM337.757 217.761C338.267 217.761 338.75 217.629 339.207 217.365C339.664 217.102 339.995 216.759 340.2 216.337V214.386H338.926C336.934 214.386 335.938 214.969 335.938 216.135C335.938 216.645 336.107 217.043 336.447 217.33C336.787 217.617 337.224 217.761 337.757 217.761ZM347.346 216.618L349.561 209.49H351.301L347.478 220.468C346.886 222.05 345.945 222.841 344.656 222.841L344.349 222.814L343.742 222.7V221.382L344.182 221.417C344.732 221.417 345.16 221.306 345.465 221.083C345.775 220.86 346.03 220.453 346.229 219.861L346.59 218.895L343.197 209.49H344.973L347.346 216.618ZM358.754 209.49L358.798 210.545C359.495 209.725 360.436 209.314 361.619 209.314C362.949 209.314 363.854 209.824 364.335 210.844C364.651 210.387 365.062 210.018 365.565 209.736C366.075 209.455 366.676 209.314 367.367 209.314C369.453 209.314 370.514 210.419 370.549 212.628V219H368.923V212.725C368.923 212.045 368.768 211.538 368.457 211.204C368.146 210.864 367.625 210.694 366.893 210.694C366.289 210.694 365.788 210.876 365.39 211.239C364.991 211.597 364.76 212.08 364.695 212.689V219H363.061V212.769C363.061 211.386 362.384 210.694 361.03 210.694C359.964 210.694 359.234 211.148 358.842 212.057V219H357.216V209.49H358.754ZM378.881 219C378.787 218.812 378.711 218.479 378.652 217.998C377.896 218.783 376.994 219.176 375.945 219.176C375.008 219.176 374.237 218.912 373.634 218.385C373.036 217.852 372.737 217.178 372.737 216.363C372.737 215.373 373.112 214.605 373.862 214.061C374.618 213.51 375.679 213.234 377.044 213.234H378.626V212.487C378.626 211.919 378.456 211.468 378.116 211.134C377.776 210.794 377.275 210.624 376.613 210.624C376.033 210.624 375.547 210.771 375.154 211.063C374.762 211.356 374.565 211.711 374.565 212.127H372.931C372.931 211.652 373.098 211.195 373.432 210.756C373.771 210.311 374.229 209.959 374.803 209.701C375.383 209.443 376.019 209.314 376.71 209.314C377.806 209.314 378.664 209.59 379.285 210.141C379.906 210.686 380.229 211.438 380.252 212.399V216.776C380.252 217.649 380.363 218.344 380.586 218.859V219H378.881ZM376.183 217.761C376.692 217.761 377.176 217.629 377.633 217.365C378.09 217.102 378.421 216.759 378.626 216.337V214.386H377.352C375.359 214.386 374.363 214.969 374.363 216.135C374.363 216.645 374.533 217.043 374.873 217.33C375.213 217.617 375.649 217.761 376.183 217.761ZM384.567 219H382.941V205.5H384.567V219ZM388.944 219H387.318V209.49H388.944V219ZM387.187 206.968C387.187 206.704 387.266 206.481 387.424 206.3C387.588 206.118 387.828 206.027 388.145 206.027C388.461 206.027 388.701 206.118 388.865 206.3C389.029 206.481 389.111 206.704 389.111 206.968C389.111 207.231 389.029 207.451 388.865 207.627C388.701 207.803 388.461 207.891 388.145 207.891C387.828 207.891 387.588 207.803 387.424 207.627C387.266 207.451 387.187 207.231 387.187 206.968ZM395.369 217.849C395.949 217.849 396.456 217.673 396.89 217.321C397.323 216.97 397.563 216.53 397.61 216.003H399.148C399.119 216.548 398.932 217.066 398.586 217.559C398.24 218.051 397.777 218.443 397.197 218.736C396.623 219.029 396.014 219.176 395.369 219.176C394.074 219.176 393.043 218.745 392.275 217.884C391.514 217.017 391.133 215.833 391.133 214.333V214.061C391.133 213.135 391.303 212.312 391.643 211.591C391.982 210.87 392.469 210.311 393.102 209.912C393.74 209.514 394.493 209.314 395.36 209.314C396.427 209.314 397.312 209.634 398.015 210.272C398.724 210.911 399.102 211.74 399.148 212.76H397.61C397.563 212.145 397.329 211.641 396.907 211.248C396.491 210.85 395.976 210.65 395.36 210.65C394.534 210.65 393.893 210.949 393.436 211.547C392.984 212.139 392.759 212.997 392.759 214.122V214.43C392.759 215.525 392.984 216.369 393.436 216.961C393.887 217.553 394.531 217.849 395.369 217.849ZM402.743 219H401.117V209.49H402.743V219ZM400.985 206.968C400.985 206.704 401.064 206.481 401.223 206.3C401.387 206.118 401.627 206.027 401.943 206.027C402.26 206.027 402.5 206.118 402.664 206.3C402.828 206.481 402.91 206.704 402.91 206.968C402.91 207.231 402.828 207.451 402.664 207.627C402.5 207.803 402.26 207.891 401.943 207.891C401.627 207.891 401.387 207.803 401.223 207.627C401.064 207.451 400.985 207.231 400.985 206.968ZM404.923 214.157C404.923 213.226 405.104 212.388 405.468 211.644C405.837 210.899 406.347 210.325 406.997 209.921C407.653 209.517 408.4 209.314 409.238 209.314C410.533 209.314 411.579 209.763 412.376 210.659C413.179 211.556 413.58 212.748 413.58 214.236V214.351C413.58 215.276 413.401 216.108 413.044 216.847C412.692 217.579 412.186 218.15 411.523 218.561C410.867 218.971 410.111 219.176 409.256 219.176C407.967 219.176 406.921 218.728 406.118 217.831C405.321 216.935 404.923 215.748 404.923 214.271V214.157ZM406.558 214.351C406.558 215.405 406.801 216.252 407.287 216.891C407.779 217.529 408.436 217.849 409.256 217.849C410.082 217.849 410.738 217.526 411.225 216.882C411.711 216.231 411.954 215.323 411.954 214.157C411.954 213.114 411.705 212.271 411.207 211.626C410.715 210.976 410.059 210.65 409.238 210.65C408.436 210.65 407.788 210.97 407.296 211.608C406.804 212.247 406.558 213.161 406.558 214.351ZM421.49 218.06C420.857 218.804 419.929 219.176 418.704 219.176C417.69 219.176 416.917 218.883 416.384 218.297C415.856 217.705 415.59 216.832 415.584 215.678V209.49H417.21V215.634C417.21 217.075 417.796 217.796 418.968 217.796C420.21 217.796 421.036 217.333 421.446 216.407V209.49H423.072V219H421.525L421.49 218.06ZM431.088 216.478C431.088 216.038 430.921 215.698 430.587 215.458C430.259 215.212 429.682 215.001 428.855 214.825C428.035 214.649 427.382 214.438 426.896 214.192C426.415 213.946 426.058 213.653 425.823 213.313C425.595 212.974 425.48 212.569 425.48 212.101C425.48 211.321 425.809 210.662 426.465 210.123C427.127 209.584 427.971 209.314 428.996 209.314C430.074 209.314 430.947 209.593 431.615 210.149C432.289 210.706 432.626 211.418 432.626 212.285H430.991C430.991 211.84 430.801 211.456 430.42 211.134C430.045 210.812 429.57 210.65 428.996 210.65C428.404 210.65 427.941 210.779 427.607 211.037C427.273 211.295 427.106 211.632 427.106 212.048C427.106 212.44 427.262 212.736 427.572 212.936C427.883 213.135 428.442 213.325 429.251 213.507C430.065 213.688 430.725 213.905 431.229 214.157C431.732 214.409 432.104 214.714 432.345 215.071C432.591 215.423 432.714 215.854 432.714 216.363C432.714 217.213 432.374 217.896 431.694 218.411C431.015 218.921 430.133 219.176 429.049 219.176C428.287 219.176 427.613 219.041 427.027 218.771C426.441 218.502 425.981 218.127 425.647 217.646C425.319 217.16 425.155 216.636 425.155 216.073H426.781C426.811 216.618 427.027 217.052 427.432 217.374C427.842 217.69 428.381 217.849 429.049 217.849C429.664 217.849 430.156 217.726 430.525 217.479C430.9 217.228 431.088 216.894 431.088 216.478ZM309.087 240H307.391V234.085H300.939V240H299.252V227.203H300.939V232.705H307.391V227.203H309.087V240ZM320.662 228.592H316.549V240H314.87V228.592H310.766V227.203H320.662V228.592ZM324.74 227.203L328.924 237.645L333.107 227.203H335.296V240H333.608V235.017L333.767 229.638L329.565 240H328.273L324.081 229.664L324.248 235.017V240H322.561V227.203H324.74ZM339.972 238.62H346.036V240H338.275V227.203H339.972V238.62ZM354.377 228.188V230.49H356.152V231.747H354.377V237.645C354.377 238.025 354.456 238.312 354.614 238.506C354.772 238.693 355.042 238.787 355.423 238.787C355.61 238.787 355.868 238.752 356.196 238.682V240C355.769 240.117 355.353 240.176 354.948 240.176C354.222 240.176 353.674 239.956 353.305 239.517C352.936 239.077 352.751 238.453 352.751 237.645V231.747H351.02V230.49H352.751V228.188H354.377ZM357.453 235.157C357.453 234.226 357.635 233.388 357.998 232.644C358.367 231.899 358.877 231.325 359.527 230.921C360.184 230.517 360.931 230.314 361.769 230.314C363.063 230.314 364.109 230.763 364.906 231.659C365.709 232.556 366.11 233.748 366.11 235.236V235.351C366.11 236.276 365.932 237.108 365.574 237.847C365.223 238.579 364.716 239.15 364.054 239.561C363.397 239.971 362.642 240.176 361.786 240.176C360.497 240.176 359.451 239.728 358.648 238.831C357.852 237.935 357.453 236.748 357.453 235.271V235.157ZM359.088 235.351C359.088 236.405 359.331 237.252 359.817 237.891C360.31 238.529 360.966 238.849 361.786 238.849C362.612 238.849 363.269 238.526 363.755 237.882C364.241 237.231 364.484 236.323 364.484 235.157C364.484 234.114 364.235 233.271 363.737 232.626C363.245 231.976 362.589 231.65 361.769 231.65C360.966 231.65 360.318 231.97 359.826 232.608C359.334 233.247 359.088 234.161 359.088 235.351ZM375.752 237.794L378.107 230.49H379.769L376.358 240H375.119L371.674 230.49H373.335L375.752 237.794ZM383.1 240H381.474V230.49H383.1V240ZM381.342 227.968C381.342 227.704 381.421 227.481 381.579 227.3C381.743 227.118 381.983 227.027 382.3 227.027C382.616 227.027 382.856 227.118 383.021 227.3C383.185 227.481 383.267 227.704 383.267 227.968C383.267 228.231 383.185 228.451 383.021 228.627C382.856 228.803 382.616 228.891 382.3 228.891C381.983 228.891 381.743 228.803 381.579 228.627C381.421 228.451 381.342 228.231 381.342 227.968ZM389.524 238.849C390.104 238.849 390.611 238.673 391.045 238.321C391.479 237.97 391.719 237.53 391.766 237.003H393.304C393.274 237.548 393.087 238.066 392.741 238.559C392.396 239.051 391.933 239.443 391.353 239.736C390.778 240.029 390.169 240.176 389.524 240.176C388.229 240.176 387.198 239.745 386.431 238.884C385.669 238.017 385.288 236.833 385.288 235.333V235.061C385.288 234.135 385.458 233.312 385.798 232.591C386.138 231.87 386.624 231.311 387.257 230.912C387.896 230.514 388.648 230.314 389.516 230.314C390.582 230.314 391.467 230.634 392.17 231.272C392.879 231.911 393.257 232.74 393.304 233.76H391.766C391.719 233.145 391.484 232.641 391.062 232.248C390.646 231.85 390.131 231.65 389.516 231.65C388.689 231.65 388.048 231.949 387.591 232.547C387.14 233.139 386.914 233.997 386.914 235.122V235.43C386.914 236.525 387.14 237.369 387.591 237.961C388.042 238.553 388.687 238.849 389.524 238.849ZM397.338 228.188V230.49H399.113V231.747H397.338V237.645C397.338 238.025 397.417 238.312 397.575 238.506C397.733 238.693 398.003 238.787 398.384 238.787C398.571 238.787 398.829 238.752 399.157 238.682V240C398.729 240.117 398.313 240.176 397.909 240.176C397.183 240.176 396.635 239.956 396.266 239.517C395.896 239.077 395.712 238.453 395.712 237.645V231.747H393.98V230.49H395.712V228.188H397.338ZM402.787 240H401.161V230.49H402.787V240ZM401.029 227.968C401.029 227.704 401.108 227.481 401.267 227.3C401.431 227.118 401.671 227.027 401.987 227.027C402.304 227.027 402.544 227.118 402.708 227.3C402.872 227.481 402.954 227.704 402.954 227.968C402.954 228.231 402.872 228.451 402.708 228.627C402.544 228.803 402.304 228.891 401.987 228.891C401.671 228.891 401.431 228.803 401.267 228.627C401.108 228.451 401.029 228.231 401.029 227.968ZM406.927 230.49L406.971 231.545C407.668 230.725 408.608 230.314 409.792 230.314C411.122 230.314 412.027 230.824 412.508 231.844C412.824 231.387 413.234 231.018 413.738 230.736C414.248 230.455 414.849 230.314 415.54 230.314C417.626 230.314 418.687 231.419 418.722 233.628V240H417.096V233.725C417.096 233.045 416.94 232.538 416.63 232.204C416.319 231.864 415.798 231.694 415.065 231.694C414.462 231.694 413.961 231.876 413.562 232.239C413.164 232.597 412.933 233.08 412.868 233.689V240H411.233V233.769C411.233 232.386 410.557 231.694 409.203 231.694C408.137 231.694 407.407 232.148 407.015 233.057V240H405.389V230.49H406.927ZM426.72 237.478C426.72 237.038 426.553 236.698 426.219 236.458C425.891 236.212 425.313 236.001 424.487 235.825C423.667 235.649 423.014 235.438 422.527 235.192C422.047 234.946 421.689 234.653 421.455 234.313C421.227 233.974 421.112 233.569 421.112 233.101C421.112 232.321 421.44 231.662 422.097 231.123C422.759 230.584 423.603 230.314 424.628 230.314C425.706 230.314 426.579 230.593 427.247 231.149C427.921 231.706 428.258 232.418 428.258 233.285H426.623C426.623 232.84 426.433 232.456 426.052 232.134C425.677 231.812 425.202 231.65 424.628 231.65C424.036 231.65 423.573 231.779 423.239 232.037C422.905 232.295 422.738 232.632 422.738 233.048C422.738 233.44 422.894 233.736 423.204 233.936C423.515 234.135 424.074 234.325 424.883 234.507C425.697 234.688 426.356 234.905 426.86 235.157C427.364 235.409 427.736 235.714 427.977 236.071C428.223 236.423 428.346 236.854 428.346 237.363C428.346 238.213 428.006 238.896 427.326 239.411C426.646 239.921 425.765 240.176 424.681 240.176C423.919 240.176 423.245 240.041 422.659 239.771C422.073 239.502 421.613 239.127 421.279 238.646C420.951 238.16 420.787 237.636 420.787 237.073H422.413C422.442 237.618 422.659 238.052 423.063 238.374C423.474 238.69 424.013 238.849 424.681 238.849C425.296 238.849 425.788 238.726 426.157 238.479C426.532 238.228 426.72 237.894 426.72 237.478Z" fill="black"/>
</svg>
