<svg width="600" height="300" viewBox="0 0 600 300" fill="none" xmlns="http://www.w3.org/2000/svg">
<rect width="600" height="300" fill="white"/>
<path d="M546.815 225.097L546.042 223.495C546.046 223.435 546.049 223.374 546.049 223.313C546.049 221.497 544.161 219.823 540.984 218.484V219.598C540.675 219.475 540.352 219.355 540.016 219.239V218.72C535.476 217.083 528.718 216.044 521.168 216.044C514.573 216.044 508.58 216.837 504.143 218.129V219.938H504.143V217.749C499.598 219.193 496.78 221.2 496.78 223.418C496.78 223.768 496.85 224.113 496.986 224.451L496.523 225.275C496.523 225.275 496.152 225.756 496.805 226.771C497.381 227.666 500.267 231.171 501.79 233.006C502.444 233.947 502.888 234.526 502.927 234.47C502.988 234.381 502.52 232.615 501.221 230.6C500.614 229.518 499.89 228.084 499.456 227.024C500.669 227.792 507.798 231.382 522.338 231.367C537.199 231.352 543.804 226.701 544.529 226.068C544.276 227.085 543.41 229.144 542.72 230.592C541.586 232.663 541.175 234.466 541.228 234.555C541.261 234.612 541.648 234.015 542.219 233.047C543.547 231.155 546.063 227.543 546.566 226.622C547.136 225.579 546.815 225.097 546.815 225.097Z" fill="#A52B00"/>
<path d="M551.307 225.087L546.225 221.343C546.177 221.177 546.13 221.01 546.08 220.845L547.75 218.427C547.92 218.181 547.954 217.861 547.844 217.58C547.733 217.301 547.491 217.101 547.204 217.052L544.381 216.573C544.272 216.35 544.157 216.13 544.042 215.912L545.228 213.197C545.35 212.92 545.325 212.599 545.163 212.348C545.001 212.096 544.728 211.948 544.436 211.96L541.572 212.064C541.423 211.871 541.273 211.679 541.119 211.491L541.777 208.581C541.844 208.286 541.76 207.976 541.554 207.762C541.349 207.548 541.052 207.459 540.769 207.529L537.979 208.215C537.798 208.055 537.614 207.897 537.429 207.743L537.529 204.755C537.54 204.453 537.399 204.165 537.157 203.998C536.915 203.829 536.608 203.803 536.343 203.929L533.74 205.166C533.53 205.046 533.32 204.927 533.106 204.812L532.646 201.868C532.6 201.569 532.408 201.316 532.139 201.2C531.871 201.084 531.564 201.122 531.329 201.299L529.008 203.04C528.78 202.964 528.55 202.891 528.318 202.822L527.317 200.03C527.216 199.745 526.981 199.536 526.695 199.478C526.41 199.419 526.117 199.518 525.919 199.739L523.965 201.924C523.729 201.897 523.493 201.873 523.256 201.852L521.748 199.311C521.595 199.053 521.325 198.896 521.034 198.896C520.744 198.896 520.474 199.053 520.322 199.311L518.813 201.852C518.576 201.873 518.339 201.897 518.103 201.924L516.149 199.739C515.951 199.518 515.657 199.419 515.373 199.478C515.087 199.537 514.852 199.745 514.751 200.03L513.75 202.822C513.518 202.891 513.288 202.965 513.059 203.04L510.739 201.299C510.503 201.121 510.196 201.083 509.928 201.2C509.66 201.316 509.467 201.569 509.421 201.868L508.961 204.812C508.748 204.927 508.537 205.045 508.327 205.166L505.724 203.929C505.46 203.803 505.151 203.829 504.91 203.998C504.669 204.165 504.527 204.453 504.538 204.755L504.638 207.743C504.453 207.897 504.269 208.055 504.088 208.215L501.298 207.529C501.015 207.46 500.718 207.548 500.512 207.762C500.306 207.976 500.222 208.286 500.289 208.581L500.946 211.491C500.793 211.68 500.643 211.871 500.495 212.064L497.63 211.96C497.341 211.951 497.065 212.096 496.903 212.348C496.741 212.599 496.717 212.92 496.837 213.197L498.024 215.912C497.909 216.13 497.794 216.35 497.684 216.573L494.862 217.052C494.575 217.1 494.333 217.3 494.221 217.58C494.111 217.861 494.147 218.181 494.316 218.427L495.986 220.845C495.973 220.888 495.961 220.931 495.948 220.974L491.227 225.988C491.227 225.988 490.504 226.555 491.557 227.888C492.486 229.063 497.255 233.723 499.773 236.164C500.837 237.403 501.566 238.171 501.642 238.104C501.762 237.999 501.131 235.744 499.036 233.098C497.421 230.725 495.325 227.074 495.816 226.653C495.816 226.653 496.375 225.943 497.497 225.433C497.538 225.465 497.455 225.4 497.497 225.433C497.497 225.433 521.172 236.353 543.132 225.617C545.641 225.167 547.159 226.511 547.159 226.511C547.683 226.815 546.327 230.569 545.212 233.054C543.695 235.875 543.472 238.077 543.601 238.153C543.682 238.202 544.234 237.362 545.021 236.026C546.964 233.319 550.635 228.159 551.307 226.906C552.069 225.485 551.307 225.087 551.307 225.087Z" fill="#F74C00"/>
<path d="M540.955 223.686C540.955 223.686 544.362 223.528 548.836 218.981L549.47 217.573C549.47 217.573 542.526 210.665 553.321 205.896C553.321 205.896 552.376 207.441 552.653 213.408C552.653 213.408 555.908 212.278 556.863 207.006C556.863 207.006 561.61 213.266 551.706 219.137C551.706 219.137 547.059 226.586 540.509 225.872L540.955 223.686Z" fill="#F74C00"/>
<path d="M525.525 219.396C525.525 219.396 527.89 216.805 530.256 219.396C530.256 219.396 532.115 222.85 530.256 224.577C530.256 224.577 527.215 226.995 525.525 224.577C525.525 224.577 523.497 222.677 525.525 219.396Z" fill="black"/>
<path d="M528.264 220.357C528.264 221.366 527.67 222.184 526.936 222.184C526.203 222.184 525.609 221.366 525.609 220.357C525.609 219.348 526.203 218.531 526.936 218.531C527.67 218.531 528.264 219.348 528.264 220.357Z" fill="white"/>
<path d="M514.965 218.688C514.965 218.688 519.023 216.891 520.131 220.902C520.131 220.902 521.291 225.577 516.798 225.84C516.798 225.84 511.069 224.737 514.965 218.688Z" fill="black"/>
<path d="M517.003 220.424C517.003 221.464 516.39 222.307 515.634 222.307C514.878 222.307 514.264 221.464 514.264 220.424C514.264 219.383 514.878 218.54 515.634 218.54C516.39 218.54 517.003 219.383 517.003 220.424Z" fill="white"/>
<path d="M520.166 227.475L525.342 227.06C525.342 227.06 525.166 227.893 524.491 228.518C524.491 228.518 522.711 230.47 520.669 228.356C520.669 228.356 520.335 227.995 520.166 227.475Z" fill="black"/>
<path d="M499.442 222.684C499.399 222.684 499.358 222.687 499.316 222.69C497.635 222.308 492.912 221.077 491.664 219.08C491.664 219.08 498.02 211.85 488.085 207.229L489.242 215.228C489.242 215.228 486.18 213.181 485.519 208.736C485.519 208.736 478.061 214.148 488.81 219.336C488.81 219.336 489.785 222.999 499.145 225.921L499.152 225.893C499.247 225.911 499.343 225.921 499.442 225.921C500.327 225.921 501.044 225.197 501.044 224.303C501.044 223.409 500.327 222.684 499.442 222.684Z" fill="#F74C00"/>
<path d="M539.039 215.519C542.525 211.019 560.385 198.739 546.11 203.134C546.11 203.134 543.764 203.76 542.575 203.655C539.531 203.388 537.422 201.222 536.093 198.962C534.42 196.116 533.284 193.263 530.643 191.01C526.007 187.055 516.22 186.94 510.992 191.01C508.234 193.157 507.215 196.116 505.542 198.962C504.213 201.222 502.105 203.388 499.06 203.655C497.872 203.76 495.525 203.134 495.525 203.134C481.25 198.739 499.11 211.019 502.596 215.519C514.744 212.639 526.892 212.838 539.039 215.519Z" fill="black"/>
<path d="M526.226 200.737C526.226 203.365 523.818 205.495 520.849 205.495C517.879 205.495 515.472 203.365 515.472 200.737C515.472 198.109 517.879 195.979 520.849 195.979C523.818 195.979 526.226 198.109 526.226 200.737Z" fill="white"/>
<path d="M524.759 205.434C524.759 207.345 523.008 208.894 520.849 208.894C518.689 208.894 516.939 207.345 516.939 205.434C516.939 203.522 518.689 201.973 520.849 201.973C523.008 201.973 524.759 203.522 524.759 205.434Z" fill="white"/>
<path d="M520.458 200.737C520.458 201.693 519.582 202.467 518.503 202.467C517.423 202.467 516.548 201.693 516.548 200.737C516.548 199.781 517.423 199.007 518.503 199.007C519.582 199.007 520.458 199.781 520.458 200.737Z" fill="black"/>
<path d="M525.15 200.737C525.15 201.693 524.275 202.467 523.195 202.467C522.115 202.467 521.24 201.693 521.24 200.737C521.24 199.781 522.115 199.007 523.195 199.007C524.275 199.007 525.15 199.781 525.15 200.737Z" fill="black"/>
<path d="M514.41 197.508C514.739 198.536 514.497 199.484 513.869 199.624C513.241 199.765 512.464 199.046 512.135 198.017C511.805 196.989 512.047 196.041 512.675 195.901C513.304 195.76 514.08 196.479 514.41 197.508Z" fill="white"/>
<path d="M512.698 200.25C511.568 200.503 510.497 200.226 510.306 199.631C510.115 199.036 510.876 198.348 512.006 198.096C513.136 197.843 514.207 198.12 514.398 198.715C514.589 199.31 513.828 199.998 512.698 200.25Z" fill="white"/>
<path d="M513.592 197.771L512.536 199.421L516.005 201.216L517.06 199.565L513.592 197.771Z" fill="white"/>
<path d="M513.518 204.249C514.648 204.502 515.409 205.189 515.218 205.784C515.027 206.379 513.956 206.657 512.826 206.404C511.696 206.151 510.935 205.464 511.126 204.869C511.317 204.274 512.388 203.996 513.518 204.249Z" fill="white"/>
<path d="M515.23 206.992C514.9 208.02 514.123 208.739 513.495 208.599C512.867 208.458 512.625 207.51 512.954 206.482C513.284 205.454 514.061 204.734 514.689 204.875C515.317 205.016 515.559 205.963 515.23 206.992Z" fill="white"/>
<path d="M513.366 205.094L514.422 206.745L517.89 204.95L516.835 203.3L513.366 205.094Z" fill="white"/>
<path d="M529.005 200.258C527.875 200.005 527.114 199.318 527.305 198.723C527.496 198.128 528.567 197.851 529.696 198.103C530.826 198.356 531.588 199.043 531.397 199.638C531.206 200.234 530.135 200.511 529.005 200.258Z" fill="white"/>
<path d="M527.293 197.515C527.623 196.487 528.399 195.768 529.027 195.908C529.656 196.049 529.898 196.997 529.568 198.025C529.239 199.053 528.462 199.773 527.834 199.632C527.205 199.491 526.963 198.544 527.293 197.515Z" fill="white"/>
<path d="M529.156 199.413L528.1 197.763L524.632 199.557L525.688 201.208L529.156 199.413Z" fill="white"/>
<path d="M526.47 207C526.141 205.972 526.383 205.024 527.011 204.883C527.639 204.743 528.416 205.462 528.746 206.491C529.075 207.519 528.833 208.467 528.205 208.607C527.577 208.748 526.8 208.028 526.47 207Z" fill="white"/>
<path d="M528.182 204.257C529.312 204.005 530.383 204.282 530.574 204.877C530.765 205.472 530.004 206.159 528.874 206.412C527.744 206.665 526.673 206.388 526.482 205.792C526.291 205.197 527.052 204.51 528.182 204.257Z" fill="white"/>
<path d="M527.288 206.737L528.344 205.086L524.875 203.292L523.82 204.943L527.288 206.737Z" fill="white"/>
<path d="M519.766 203.917L520.849 202.368L521.932 203.917H519.766Z" fill="black"/>
<rect x="30.5" y="14.5" width="129" height="129" rx="3.5" fill="white" stroke="black"/>
<path d="M56.9907 73.8438V76.0186H58.6675V77.2056H56.9907V82.7754C56.9907 83.1351 57.0654 83.4062 57.2148 83.5889C57.3643 83.766 57.6188 83.8545 57.9785 83.8545C58.1556 83.8545 58.3991 83.8213 58.709 83.7549V85C58.305 85.1107 57.9121 85.166 57.5303 85.166C56.8441 85.166 56.3267 84.9585 55.978 84.5435C55.6294 84.1284 55.4551 83.5391 55.4551 82.7754V77.2056H53.8198V76.0186H55.4551V73.8438H56.9907ZM66.0137 85C65.9251 84.8229 65.8532 84.5075 65.7979 84.0537C65.084 84.7952 64.2318 85.166 63.2412 85.166C62.3558 85.166 61.6281 84.917 61.0581 84.4189C60.4937 83.9154 60.2114 83.279 60.2114 82.5098C60.2114 81.5745 60.5656 80.8496 61.2739 80.335C61.9878 79.8148 62.9894 79.5547 64.2788 79.5547H65.7729V78.8491C65.7729 78.3123 65.6125 77.8862 65.2915 77.5708C64.9705 77.2498 64.4974 77.0894 63.8721 77.0894C63.3242 77.0894 62.8649 77.2277 62.4941 77.5044C62.1234 77.7811 61.938 78.1159 61.938 78.5088H60.394C60.394 78.0605 60.5518 77.6289 60.8672 77.2139C61.1882 76.7933 61.6198 76.4613 62.1621 76.2178C62.71 75.9743 63.3104 75.8525 63.9634 75.8525C64.9982 75.8525 65.8089 76.1126 66.3955 76.6328C66.9821 77.1475 67.2865 77.8586 67.3086 78.7661V82.8999C67.3086 83.7244 67.4137 84.3802 67.624 84.8672V85H66.0137ZM63.4653 83.8296C63.9468 83.8296 64.4033 83.7051 64.835 83.4561C65.2666 83.207 65.5793 82.8833 65.7729 82.4849V80.6421H64.5693C62.6878 80.6421 61.7471 81.1927 61.7471 82.2939C61.7471 82.7754 61.9076 83.1517 62.2285 83.4229C62.5495 83.694 62.9618 83.8296 63.4653 83.8296ZM74.0571 77.3965C73.8247 77.3577 73.5729 77.3384 73.3018 77.3384C72.2946 77.3384 71.6112 77.7673 71.2515 78.625V85H69.7158V76.0186H71.21L71.2349 77.0562C71.7384 76.2537 72.4523 75.8525 73.3765 75.8525C73.6753 75.8525 73.9022 75.8913 74.0571 75.9688V77.3965ZM74.9453 80.4346C74.9453 79.0345 75.269 77.9222 75.9165 77.0977C76.564 76.2676 77.4217 75.8525 78.4897 75.8525C79.5854 75.8525 80.4404 76.2399 81.0547 77.0146L81.1294 76.0186H82.5322V84.7842C82.5322 85.9463 82.1864 86.8621 81.4946 87.5317C80.8084 88.2013 79.8843 88.5361 78.7222 88.5361C78.0747 88.5361 77.4411 88.3978 76.8213 88.1211C76.2015 87.8444 75.7284 87.4653 75.4019 86.9839L76.1987 86.0625C76.8573 86.876 77.6624 87.2827 78.6143 87.2827C79.3613 87.2827 79.9424 87.0724 80.3574 86.6519C80.778 86.2313 80.9883 85.6392 80.9883 84.8755V84.1035C80.374 84.8118 79.5356 85.166 78.4731 85.166C77.4217 85.166 76.5695 84.7427 75.9165 83.896C75.269 83.0493 74.9453 81.8955 74.9453 80.4346ZM76.4893 80.6089C76.4893 81.6216 76.6968 82.4185 77.1118 82.9995C77.5269 83.575 78.1079 83.8628 78.855 83.8628C79.8234 83.8628 80.5345 83.4229 80.9883 82.543V78.4424C80.5179 77.5846 79.8123 77.1558 78.8716 77.1558C78.1245 77.1558 77.5407 77.4463 77.1201 78.0273C76.6995 78.6084 76.4893 79.4689 76.4893 80.6089ZM88.5835 85.166C87.366 85.166 86.3755 84.7676 85.6118 83.9707C84.8481 83.1683 84.4663 82.0975 84.4663 80.7583V80.4761C84.4663 79.5851 84.6351 78.791 84.9727 78.0938C85.3158 77.391 85.7917 76.8431 86.4004 76.4502C87.0146 76.0518 87.6787 75.8525 88.3926 75.8525C89.5602 75.8525 90.4678 76.2371 91.1152 77.0063C91.7627 77.7756 92.0864 78.8768 92.0864 80.3101V80.9492H86.002C86.0241 81.8346 86.2814 82.5513 86.7739 83.0991C87.272 83.6414 87.9028 83.9126 88.6665 83.9126C89.2088 83.9126 89.6681 83.8019 90.0444 83.5806C90.4207 83.3592 90.75 83.0659 91.0322 82.7007L91.9702 83.4312C91.2176 84.5877 90.0887 85.166 88.5835 85.166ZM88.3926 77.1143C87.7728 77.1143 87.2526 77.3411 86.832 77.7949C86.4115 78.2432 86.1514 78.874 86.0518 79.6875H90.5508V79.5713C90.5065 78.791 90.2962 78.1878 89.9199 77.7617C89.5436 77.3301 89.0345 77.1143 88.3926 77.1143ZM95.9546 73.8438V76.0186H97.6313V77.2056H95.9546V82.7754C95.9546 83.1351 96.0293 83.4062 96.1787 83.5889C96.3281 83.766 96.5827 83.8545 96.9424 83.8545C97.1195 83.8545 97.363 83.8213 97.6729 83.7549V85C97.2689 85.1107 96.876 85.166 96.4941 85.166C95.8079 85.166 95.2905 84.9585 94.9419 84.5435C94.5933 84.1284 94.4189 83.5391 94.4189 82.7754V77.2056H92.7837V76.0186H94.4189V73.8438H95.9546ZM99.4658 84.1948C99.4658 83.9292 99.5433 83.7078 99.6982 83.5308C99.8587 83.3537 100.097 83.2651 100.412 83.2651C100.728 83.2651 100.965 83.3537 101.126 83.5308C101.292 83.7078 101.375 83.9292 101.375 84.1948C101.375 84.4494 101.292 84.6624 101.126 84.834C100.965 85.0055 100.728 85.0913 100.412 85.0913C100.097 85.0913 99.8587 85.0055 99.6982 84.834C99.5433 84.6624 99.4658 84.4494 99.4658 84.1948ZM107.518 83.9126C108.065 83.9126 108.544 83.7466 108.954 83.4146C109.363 83.0825 109.59 82.6675 109.634 82.1694H111.087C111.059 82.6841 110.882 83.1738 110.556 83.6387C110.229 84.1035 109.792 84.4743 109.244 84.751C108.702 85.0277 108.126 85.166 107.518 85.166C106.295 85.166 105.321 84.7593 104.596 83.9458C103.876 83.1268 103.517 82.009 103.517 80.5923V80.335C103.517 79.4606 103.677 78.6831 103.998 78.0024C104.319 77.3218 104.778 76.7933 105.376 76.417C105.979 76.0407 106.69 75.8525 107.509 75.8525C108.516 75.8525 109.352 76.1541 110.016 76.7573C110.686 77.3605 111.043 78.1436 111.087 79.1064H109.634C109.59 78.5254 109.369 78.0495 108.97 77.6787C108.577 77.3024 108.09 77.1143 107.509 77.1143C106.729 77.1143 106.123 77.3965 105.691 77.9609C105.265 78.5199 105.052 79.3306 105.052 80.3931V80.6836C105.052 81.7184 105.265 82.5153 105.691 83.0742C106.118 83.6331 106.726 83.9126 107.518 83.9126ZM112.407 80.4263C112.407 79.5464 112.578 78.755 112.921 78.0522C113.27 77.3494 113.751 76.8071 114.366 76.4253C114.986 76.0435 115.691 75.8525 116.482 75.8525C117.705 75.8525 118.693 76.2759 119.446 77.1226C120.204 77.9692 120.583 79.0954 120.583 80.501V80.6089C120.583 81.4832 120.414 82.269 120.077 82.9663C119.745 83.658 119.266 84.1976 118.641 84.585C118.021 84.9723 117.307 85.166 116.499 85.166C115.282 85.166 114.294 84.7427 113.536 83.896C112.783 83.0493 112.407 81.9287 112.407 80.5342V80.4263ZM113.951 80.6089C113.951 81.605 114.18 82.4046 114.64 83.0078C115.104 83.611 115.724 83.9126 116.499 83.9126C117.279 83.9126 117.899 83.6082 118.358 82.9995C118.818 82.3853 119.047 81.5275 119.047 80.4263C119.047 79.4412 118.812 78.6444 118.342 78.0356C117.877 77.4214 117.257 77.1143 116.482 77.1143C115.724 77.1143 115.113 77.4159 114.648 78.019C114.183 78.6222 113.951 79.4855 113.951 80.6089ZM123.953 76.0186L123.995 77.0146C124.653 76.2399 125.541 75.8525 126.659 75.8525C127.915 75.8525 128.77 76.334 129.224 77.2969C129.523 76.8652 129.91 76.5166 130.386 76.251C130.868 75.9854 131.435 75.8525 132.088 75.8525C134.058 75.8525 135.06 76.8957 135.093 78.9819V85H133.557V79.0732C133.557 78.4313 133.41 77.9526 133.117 77.6372C132.824 77.3162 132.331 77.1558 131.64 77.1558C131.07 77.1558 130.597 77.3273 130.22 77.6704C129.844 78.008 129.625 78.4645 129.564 79.04V85H128.021V79.1147C128.021 77.8088 127.381 77.1558 126.103 77.1558C125.096 77.1558 124.407 77.5846 124.036 78.4424V85H122.5V76.0186H123.953Z" fill="black"/>
<rect x="30.5" y="156.5" width="129" height="129" rx="3.5" fill="white" stroke="black"/>
<path d="M43.8091 222.609C43.8091 223.981 43.4937 225.085 42.8628 225.921C42.2319 226.751 41.3853 227.166 40.3228 227.166C39.1883 227.166 38.3112 226.765 37.6914 225.962L37.6167 227H36.2056V214.25H37.7412V219.006C38.361 218.237 39.216 217.853 40.3062 217.853C41.3963 217.853 42.2513 218.265 42.8711 219.089C43.4964 219.914 43.8091 221.043 43.8091 222.476V222.609ZM42.2734 222.435C42.2734 221.389 42.0715 220.581 41.6675 220.011C41.2635 219.441 40.6825 219.156 39.9243 219.156C38.9116 219.156 38.1839 219.626 37.7412 220.567V224.452C38.2116 225.392 38.9448 225.863 39.9409 225.863C40.6769 225.863 41.2497 225.578 41.6592 225.008C42.0687 224.438 42.2734 223.58 42.2734 222.435ZM47.4199 227H45.8843V214.25H47.4199V227ZM49.4785 222.426C49.4785 221.546 49.6501 220.755 49.9932 220.052C50.3418 219.349 50.8232 218.807 51.4375 218.425C52.0573 218.043 52.7629 217.853 53.5542 217.853C54.7772 217.853 55.765 218.276 56.5176 219.123C57.2757 219.969 57.6548 221.095 57.6548 222.501V222.609C57.6548 223.483 57.486 224.269 57.1484 224.966C56.8164 225.658 56.3377 226.198 55.7124 226.585C55.0926 226.972 54.3787 227.166 53.5708 227.166C52.3534 227.166 51.3656 226.743 50.6074 225.896C49.8548 225.049 49.4785 223.929 49.4785 222.534V222.426ZM51.0225 222.609C51.0225 223.605 51.2521 224.405 51.7114 225.008C52.1763 225.611 52.7961 225.913 53.5708 225.913C54.3511 225.913 54.9709 225.608 55.4302 225C55.8895 224.385 56.1191 223.528 56.1191 222.426C56.1191 221.441 55.884 220.644 55.4136 220.036C54.9487 219.421 54.3289 219.114 53.5542 219.114C52.7961 219.114 52.1846 219.416 51.7197 220.019C51.2549 220.622 51.0225 221.486 51.0225 222.609ZM59.2153 222.435C59.2153 221.035 59.5391 219.922 60.1865 219.098C60.834 218.268 61.6917 217.853 62.7598 217.853C63.8555 217.853 64.7104 218.24 65.3247 219.015L65.3994 218.019H66.8022V226.784C66.8022 227.946 66.4564 228.862 65.7646 229.532C65.0785 230.201 64.1543 230.536 62.9922 230.536C62.3447 230.536 61.7111 230.398 61.0913 230.121C60.4715 229.844 59.9984 229.465 59.6719 228.984L60.4688 228.062C61.1273 228.876 61.9325 229.283 62.8843 229.283C63.6313 229.283 64.2124 229.072 64.6274 228.652C65.048 228.231 65.2583 227.639 65.2583 226.875V226.104C64.644 226.812 63.8057 227.166 62.7432 227.166C61.6917 227.166 60.8395 226.743 60.1865 225.896C59.5391 225.049 59.2153 223.896 59.2153 222.435ZM60.7593 222.609C60.7593 223.622 60.9668 224.418 61.3818 225C61.7969 225.575 62.3779 225.863 63.125 225.863C64.0934 225.863 64.8045 225.423 65.2583 224.543V220.442C64.7879 219.585 64.0824 219.156 63.1416 219.156C62.3945 219.156 61.8107 219.446 61.3901 220.027C60.9696 220.608 60.7593 221.469 60.7593 222.609ZM69.1597 226.195C69.1597 225.929 69.2371 225.708 69.3921 225.531C69.5526 225.354 69.7905 225.265 70.106 225.265C70.4214 225.265 70.6593 225.354 70.8198 225.531C70.9858 225.708 71.0688 225.929 71.0688 226.195C71.0688 226.449 70.9858 226.662 70.8198 226.834C70.6593 227.006 70.4214 227.091 70.106 227.091C69.7905 227.091 69.5526 227.006 69.3921 226.834C69.2371 226.662 69.1597 226.449 69.1597 226.195ZM75.6924 215.844V218.019H77.3691V219.206H75.6924V224.775C75.6924 225.135 75.7671 225.406 75.9165 225.589C76.0659 225.766 76.3205 225.854 76.6802 225.854C76.8573 225.854 77.1007 225.821 77.4106 225.755V227C77.0067 227.111 76.6138 227.166 76.2319 227.166C75.5457 227.166 75.0283 226.958 74.6797 226.543C74.3311 226.128 74.1567 225.539 74.1567 224.775V219.206H72.5215V218.019H74.1567V215.844H75.6924ZM84.7153 227C84.6268 226.823 84.5549 226.507 84.4995 226.054C83.7856 226.795 82.9334 227.166 81.9429 227.166C81.0575 227.166 80.3298 226.917 79.7598 226.419C79.1953 225.915 78.9131 225.279 78.9131 224.51C78.9131 223.575 79.2673 222.85 79.9756 222.335C80.6895 221.815 81.6911 221.555 82.9805 221.555H84.4746V220.849C84.4746 220.312 84.3141 219.886 83.9932 219.571C83.6722 219.25 83.1991 219.089 82.5737 219.089C82.0259 219.089 81.5666 219.228 81.1958 219.504C80.825 219.781 80.6396 220.116 80.6396 220.509H79.0957C79.0957 220.061 79.2534 219.629 79.5688 219.214C79.8898 218.793 80.3215 218.461 80.8638 218.218C81.4116 217.974 82.012 217.853 82.665 217.853C83.6999 217.853 84.5106 218.113 85.0972 218.633C85.6838 219.147 85.9881 219.859 86.0103 220.766V224.9C86.0103 225.724 86.1154 226.38 86.3257 226.867V227H84.7153ZM82.167 225.83C82.6484 225.83 83.105 225.705 83.5366 225.456C83.9683 225.207 84.2809 224.883 84.4746 224.485V222.642H83.271C81.3895 222.642 80.4487 223.193 80.4487 224.294C80.4487 224.775 80.6092 225.152 80.9302 225.423C81.2511 225.694 81.6634 225.83 82.167 225.83ZM92.7588 219.396C92.5264 219.358 92.2746 219.338 92.0034 219.338C90.9963 219.338 90.3128 219.767 89.9531 220.625V227H88.4175V218.019H89.9116L89.9365 219.056C90.4401 218.254 91.154 217.853 92.0781 217.853C92.377 217.853 92.6038 217.891 92.7588 217.969V219.396ZM93.647 222.435C93.647 221.035 93.9707 219.922 94.6182 219.098C95.2656 218.268 96.1234 217.853 97.1914 217.853C98.2871 217.853 99.1421 218.24 99.7563 219.015L99.8311 218.019H101.234V226.784C101.234 227.946 100.888 228.862 100.196 229.532C99.5101 230.201 98.5859 230.536 97.4238 230.536C96.7764 230.536 96.1427 230.398 95.5229 230.121C94.9032 229.844 94.43 229.465 94.1035 228.984L94.9004 228.062C95.5589 228.876 96.3641 229.283 97.3159 229.283C98.063 229.283 98.644 229.072 99.0591 228.652C99.4797 228.231 99.6899 227.639 99.6899 226.875V226.104C99.0757 226.812 98.2373 227.166 97.1748 227.166C96.1234 227.166 95.2712 226.743 94.6182 225.896C93.9707 225.049 93.647 223.896 93.647 222.435ZM95.1909 222.609C95.1909 223.622 95.3984 224.418 95.8135 225C96.2285 225.575 96.8096 225.863 97.5566 225.863C98.5251 225.863 99.2362 225.423 99.6899 224.543V220.442C99.2196 219.585 98.514 219.156 97.5732 219.156C96.8262 219.156 96.2424 219.446 95.8218 220.027C95.4012 220.608 95.1909 221.469 95.1909 222.609ZM107.285 227.166C106.068 227.166 105.077 226.768 104.313 225.971C103.55 225.168 103.168 224.097 103.168 222.758V222.476C103.168 221.585 103.337 220.791 103.674 220.094C104.017 219.391 104.493 218.843 105.102 218.45C105.716 218.052 106.38 217.853 107.094 217.853C108.262 217.853 109.169 218.237 109.817 219.006C110.464 219.776 110.788 220.877 110.788 222.31V222.949H104.704C104.726 223.835 104.983 224.551 105.476 225.099C105.974 225.641 106.604 225.913 107.368 225.913C107.91 225.913 108.37 225.802 108.746 225.581C109.122 225.359 109.452 225.066 109.734 224.701L110.672 225.431C109.919 226.588 108.79 227.166 107.285 227.166ZM107.094 219.114C106.474 219.114 105.954 219.341 105.534 219.795C105.113 220.243 104.853 220.874 104.753 221.688H109.252V221.571C109.208 220.791 108.998 220.188 108.622 219.762C108.245 219.33 107.736 219.114 107.094 219.114ZM114.656 215.844V218.019H116.333V219.206H114.656V224.775C114.656 225.135 114.731 225.406 114.88 225.589C115.03 225.766 115.284 225.854 115.644 225.854C115.821 225.854 116.065 225.821 116.375 225.755V227C115.971 227.111 115.578 227.166 115.196 227.166C114.51 227.166 113.992 226.958 113.644 226.543C113.295 226.128 113.121 225.539 113.121 224.775V219.206H111.485V218.019H113.121V215.844H114.656ZM118.167 226.195C118.167 225.929 118.245 225.708 118.4 225.531C118.56 225.354 118.798 225.265 119.114 225.265C119.429 225.265 119.667 225.354 119.828 225.531C119.994 225.708 120.077 225.929 120.077 226.195C120.077 226.449 119.994 226.662 119.828 226.834C119.667 227.006 119.429 227.091 119.114 227.091C118.798 227.091 118.56 227.006 118.4 226.834C118.245 226.662 118.167 226.449 118.167 226.195ZM126.219 225.913C126.767 225.913 127.246 225.747 127.655 225.415C128.065 225.083 128.292 224.667 128.336 224.169H129.789C129.761 224.684 129.584 225.174 129.257 225.639C128.931 226.104 128.494 226.474 127.946 226.751C127.403 227.028 126.828 227.166 126.219 227.166C124.996 227.166 124.022 226.759 123.297 225.946C122.578 225.127 122.218 224.009 122.218 222.592V222.335C122.218 221.461 122.379 220.683 122.7 220.002C123.021 219.322 123.48 218.793 124.078 218.417C124.681 218.041 125.392 217.853 126.211 217.853C127.218 217.853 128.054 218.154 128.718 218.757C129.387 219.361 129.744 220.144 129.789 221.106H128.336C128.292 220.525 128.07 220.049 127.672 219.679C127.279 219.302 126.792 219.114 126.211 219.114C125.431 219.114 124.825 219.396 124.393 219.961C123.967 220.52 123.754 221.331 123.754 222.393V222.684C123.754 223.718 123.967 224.515 124.393 225.074C124.819 225.633 125.428 225.913 126.219 225.913ZM131.108 222.426C131.108 221.546 131.28 220.755 131.623 220.052C131.972 219.349 132.453 218.807 133.067 218.425C133.687 218.043 134.393 217.853 135.184 217.853C136.407 217.853 137.395 218.276 138.147 219.123C138.906 219.969 139.285 221.095 139.285 222.501V222.609C139.285 223.483 139.116 224.269 138.778 224.966C138.446 225.658 137.968 226.198 137.342 226.585C136.722 226.972 136.009 227.166 135.201 227.166C133.983 227.166 132.995 226.743 132.237 225.896C131.485 225.049 131.108 223.929 131.108 222.534V222.426ZM132.652 222.609C132.652 223.605 132.882 224.405 133.341 225.008C133.806 225.611 134.426 225.913 135.201 225.913C135.981 225.913 136.601 225.608 137.06 225C137.519 224.385 137.749 223.528 137.749 222.426C137.749 221.441 137.514 220.644 137.043 220.036C136.579 219.421 135.959 219.114 135.184 219.114C134.426 219.114 133.814 219.416 133.35 220.019C132.885 220.622 132.652 221.486 132.652 222.609ZM142.655 218.019L142.696 219.015C143.355 218.24 144.243 217.853 145.361 217.853C146.617 217.853 147.472 218.334 147.926 219.297C148.225 218.865 148.612 218.517 149.088 218.251C149.569 217.985 150.137 217.853 150.79 217.853C152.76 217.853 153.761 218.896 153.794 220.982V227H152.259V221.073C152.259 220.431 152.112 219.953 151.819 219.637C151.526 219.316 151.033 219.156 150.341 219.156C149.771 219.156 149.298 219.327 148.922 219.67C148.546 220.008 148.327 220.465 148.266 221.04V227H146.722V221.115C146.722 219.809 146.083 219.156 144.805 219.156C143.798 219.156 143.109 219.585 142.738 220.442V227H141.202V218.019H142.655Z" fill="black"/>
<rect x="254.5" y="156.5" width="129" height="129" rx="3.5" fill="white" stroke="black"/>
<path d="M311.91 214.9C311.91 215.869 311.688 216.648 311.242 217.238C310.797 217.824 310.199 218.117 309.449 218.117C308.648 218.117 308.029 217.834 307.592 217.268L307.539 218H306.543V209H307.627V212.357C308.064 211.814 308.668 211.543 309.438 211.543C310.207 211.543 310.811 211.834 311.248 212.416C311.689 212.998 311.91 213.795 311.91 214.807V214.9ZM310.826 214.777C310.826 214.039 310.684 213.469 310.398 213.066C310.113 212.664 309.703 212.463 309.168 212.463C308.453 212.463 307.939 212.795 307.627 213.459V216.201C307.959 216.865 308.477 217.197 309.18 217.197C309.699 217.197 310.104 216.996 310.393 216.594C310.682 216.191 310.826 215.586 310.826 214.777ZM314.459 218H313.375V209H314.459V218ZM315.912 214.771C315.912 214.15 316.033 213.592 316.275 213.096C316.521 212.6 316.861 212.217 317.295 211.947C317.732 211.678 318.23 211.543 318.789 211.543C319.652 211.543 320.35 211.842 320.881 212.439C321.416 213.037 321.684 213.832 321.684 214.824V214.9C321.684 215.518 321.564 216.072 321.326 216.564C321.092 217.053 320.754 217.434 320.312 217.707C319.875 217.98 319.371 218.117 318.801 218.117C317.941 218.117 317.244 217.818 316.709 217.221C316.178 216.623 315.912 215.832 315.912 214.848V214.771ZM317.002 214.9C317.002 215.604 317.164 216.168 317.488 216.594C317.816 217.02 318.254 217.232 318.801 217.232C319.352 217.232 319.789 217.018 320.113 216.588C320.438 216.154 320.6 215.549 320.6 214.771C320.6 214.076 320.434 213.514 320.102 213.084C319.773 212.65 319.336 212.434 318.789 212.434C318.254 212.434 317.822 212.646 317.494 213.072C317.166 213.498 317.002 214.107 317.002 214.9ZM322.785 214.777C322.785 213.789 323.014 213.004 323.471 212.422C323.928 211.836 324.533 211.543 325.287 211.543C326.061 211.543 326.664 211.816 327.098 212.363L327.15 211.66H328.141V217.848C328.141 218.668 327.896 219.314 327.408 219.787C326.924 220.26 326.271 220.496 325.451 220.496C324.994 220.496 324.547 220.398 324.109 220.203C323.672 220.008 323.338 219.74 323.107 219.4L323.67 218.75C324.135 219.324 324.703 219.611 325.375 219.611C325.902 219.611 326.312 219.463 326.605 219.166C326.902 218.869 327.051 218.451 327.051 217.912V217.367C326.617 217.867 326.025 218.117 325.275 218.117C324.533 218.117 323.932 217.818 323.471 217.221C323.014 216.623 322.785 215.809 322.785 214.777ZM323.875 214.9C323.875 215.615 324.021 216.178 324.314 216.588C324.607 216.994 325.018 217.197 325.545 217.197C326.229 217.197 326.73 216.887 327.051 216.266V213.371C326.719 212.766 326.221 212.463 325.557 212.463C325.029 212.463 324.617 212.668 324.32 213.078C324.023 213.488 323.875 214.096 323.875 214.9ZM332.037 214.818H329.178V213.934H332.037V214.818ZM262.352 224.125V225.66H263.535V226.498H262.352V230.43C262.352 230.684 262.404 230.875 262.51 231.004C262.615 231.129 262.795 231.191 263.049 231.191C263.174 231.191 263.346 231.168 263.564 231.121V232C263.279 232.078 263.002 232.117 262.732 232.117C262.248 232.117 261.883 231.971 261.637 231.678C261.391 231.385 261.268 230.969 261.268 230.43V226.498H260.113V225.66H261.268V224.125H262.352ZM268.721 232C268.658 231.875 268.607 231.652 268.568 231.332C268.064 231.855 267.463 232.117 266.764 232.117C266.139 232.117 265.625 231.941 265.223 231.59C264.824 231.234 264.625 230.785 264.625 230.242C264.625 229.582 264.875 229.07 265.375 228.707C265.879 228.34 266.586 228.156 267.496 228.156H268.551V227.658C268.551 227.279 268.438 226.979 268.211 226.756C267.984 226.529 267.65 226.416 267.209 226.416C266.822 226.416 266.498 226.514 266.236 226.709C265.975 226.904 265.844 227.141 265.844 227.418H264.754C264.754 227.102 264.865 226.797 265.088 226.504C265.314 226.207 265.619 225.973 266.002 225.801C266.389 225.629 266.812 225.543 267.273 225.543C268.004 225.543 268.576 225.727 268.99 226.094C269.404 226.457 269.619 226.959 269.635 227.6V230.518C269.635 231.1 269.709 231.562 269.857 231.906V232H268.721ZM266.922 231.174C267.262 231.174 267.584 231.086 267.889 230.91C268.193 230.734 268.414 230.506 268.551 230.225V228.924H267.701C266.373 228.924 265.709 229.312 265.709 230.09C265.709 230.43 265.822 230.695 266.049 230.887C266.275 231.078 266.566 231.174 266.922 231.174ZM274.398 226.633C274.234 226.605 274.057 226.592 273.865 226.592C273.154 226.592 272.672 226.895 272.418 227.5V232H271.334V225.66H272.389L272.406 226.393C272.762 225.826 273.266 225.543 273.918 225.543C274.129 225.543 274.289 225.57 274.398 225.625V226.633ZM275.025 228.777C275.025 227.789 275.254 227.004 275.711 226.422C276.168 225.836 276.773 225.543 277.527 225.543C278.301 225.543 278.904 225.816 279.338 226.363L279.391 225.66H280.381V231.848C280.381 232.668 280.137 233.314 279.648 233.787C279.164 234.26 278.512 234.496 277.691 234.496C277.234 234.496 276.787 234.398 276.35 234.203C275.912 234.008 275.578 233.74 275.348 233.4L275.91 232.75C276.375 233.324 276.943 233.611 277.615 233.611C278.143 233.611 278.553 233.463 278.846 233.166C279.143 232.869 279.291 232.451 279.291 231.912V231.367C278.857 231.867 278.266 232.117 277.516 232.117C276.773 232.117 276.172 231.818 275.711 231.221C275.254 230.623 275.025 229.809 275.025 228.777ZM276.115 228.9C276.115 229.615 276.262 230.178 276.555 230.588C276.848 230.994 277.258 231.197 277.785 231.197C278.469 231.197 278.971 230.887 279.291 230.266V227.371C278.959 226.766 278.461 226.463 277.797 226.463C277.27 226.463 276.857 226.668 276.561 227.078C276.264 227.488 276.115 228.096 276.115 228.9ZM284.652 232.117C283.793 232.117 283.094 231.836 282.555 231.273C282.016 230.707 281.746 229.951 281.746 229.006V228.807C281.746 228.178 281.865 227.617 282.104 227.125C282.346 226.629 282.682 226.242 283.111 225.965C283.545 225.684 284.014 225.543 284.518 225.543C285.342 225.543 285.982 225.814 286.439 226.357C286.896 226.9 287.125 227.678 287.125 228.689V229.141H282.83C282.846 229.766 283.027 230.271 283.375 230.658C283.727 231.041 284.172 231.232 284.711 231.232C285.094 231.232 285.418 231.154 285.684 230.998C285.949 230.842 286.182 230.635 286.381 230.377L287.043 230.893C286.512 231.709 285.715 232.117 284.652 232.117ZM284.518 226.434C284.08 226.434 283.713 226.594 283.416 226.914C283.119 227.23 282.936 227.676 282.865 228.25H286.041V228.168C286.01 227.617 285.861 227.191 285.596 226.891C285.33 226.586 284.971 226.434 284.518 226.434ZM289.855 224.125V225.66H291.039V226.498H289.855V230.43C289.855 230.684 289.908 230.875 290.014 231.004C290.119 231.129 290.299 231.191 290.553 231.191C290.678 231.191 290.85 231.168 291.068 231.121V232C290.783 232.078 290.506 232.117 290.236 232.117C289.752 232.117 289.387 231.971 289.141 231.678C288.895 231.385 288.771 230.969 288.771 230.43V226.498H287.617V225.66H288.771V224.125H289.855ZM292.334 231.432C292.334 231.244 292.389 231.088 292.498 230.963C292.611 230.838 292.779 230.775 293.002 230.775C293.225 230.775 293.393 230.838 293.506 230.963C293.623 231.088 293.682 231.244 293.682 231.432C293.682 231.611 293.623 231.762 293.506 231.883C293.393 232.004 293.225 232.064 293.002 232.064C292.779 232.064 292.611 232.004 292.498 231.883C292.389 231.762 292.334 231.611 292.334 231.432ZM296.559 226.428C297.039 225.838 297.664 225.543 298.434 225.543C299.773 225.543 300.449 226.299 300.461 227.811V232H299.377V227.805C299.373 227.348 299.268 227.01 299.061 226.791C298.857 226.572 298.539 226.463 298.105 226.463C297.754 226.463 297.445 226.557 297.18 226.744C296.914 226.932 296.707 227.178 296.559 227.482V232H295.475V223H296.559V226.428ZM304.715 232.117C303.855 232.117 303.156 231.836 302.617 231.273C302.078 230.707 301.809 229.951 301.809 229.006V228.807C301.809 228.178 301.928 227.617 302.166 227.125C302.408 226.629 302.744 226.242 303.174 225.965C303.607 225.684 304.076 225.543 304.58 225.543C305.404 225.543 306.045 225.814 306.502 226.357C306.959 226.9 307.188 227.678 307.188 228.689V229.141H302.893C302.908 229.766 303.09 230.271 303.438 230.658C303.789 231.041 304.234 231.232 304.773 231.232C305.156 231.232 305.48 231.154 305.746 230.998C306.012 230.842 306.244 230.635 306.443 230.377L307.105 230.893C306.574 231.709 305.777 232.117 304.715 232.117ZM304.58 226.434C304.143 226.434 303.775 226.594 303.479 226.914C303.182 227.23 302.998 227.676 302.928 228.25H306.104V228.168C306.072 227.617 305.924 227.191 305.658 226.891C305.393 226.586 305.033 226.434 304.58 226.434ZM311.512 226.633C311.348 226.605 311.17 226.592 310.979 226.592C310.268 226.592 309.785 226.895 309.531 227.5V232H308.447V225.66H309.502L309.52 226.393C309.875 225.826 310.379 225.543 311.031 225.543C311.242 225.543 311.402 225.57 311.512 225.625V226.633ZM312.109 228.771C312.109 228.15 312.23 227.592 312.473 227.096C312.719 226.6 313.059 226.217 313.492 225.947C313.93 225.678 314.428 225.543 314.986 225.543C315.85 225.543 316.547 225.842 317.078 226.439C317.613 227.037 317.881 227.832 317.881 228.824V228.9C317.881 229.518 317.762 230.072 317.523 230.564C317.289 231.053 316.951 231.434 316.51 231.707C316.072 231.98 315.568 232.117 314.998 232.117C314.139 232.117 313.441 231.818 312.906 231.221C312.375 230.623 312.109 229.832 312.109 228.848V228.771ZM313.199 228.9C313.199 229.604 313.361 230.168 313.686 230.594C314.014 231.02 314.451 231.232 314.998 231.232C315.549 231.232 315.986 231.018 316.311 230.588C316.635 230.154 316.797 229.549 316.797 228.771C316.797 228.076 316.631 227.514 316.299 227.084C315.971 226.65 315.533 226.434 314.986 226.434C314.451 226.434 314.02 226.646 313.691 227.072C313.363 227.498 313.199 228.107 313.199 228.9ZM321.01 229.064L320.33 229.773V232H319.246V223H320.33V228.443L320.91 227.746L322.885 225.66H324.203L321.736 228.309L324.49 232H323.219L321.01 229.064ZM329.236 231.373C328.814 231.869 328.195 232.117 327.379 232.117C326.703 232.117 326.188 231.922 325.832 231.531C325.48 231.137 325.303 230.555 325.299 229.785V225.66H326.383V229.756C326.383 230.717 326.773 231.197 327.555 231.197C328.383 231.197 328.934 230.889 329.207 230.271V225.66H330.291V232H329.26L329.236 231.373ZM335.857 232C335.795 231.875 335.744 231.652 335.705 231.332C335.201 231.855 334.6 232.117 333.9 232.117C333.275 232.117 332.762 231.941 332.359 231.59C331.961 231.234 331.762 230.785 331.762 230.242C331.762 229.582 332.012 229.07 332.512 228.707C333.016 228.34 333.723 228.156 334.633 228.156H335.688V227.658C335.688 227.279 335.574 226.979 335.348 226.756C335.121 226.529 334.787 226.416 334.346 226.416C333.959 226.416 333.635 226.514 333.373 226.709C333.111 226.904 332.98 227.141 332.98 227.418H331.891C331.891 227.102 332.002 226.797 332.225 226.504C332.451 226.207 332.756 225.973 333.139 225.801C333.525 225.629 333.949 225.543 334.41 225.543C335.141 225.543 335.713 225.727 336.127 226.094C336.541 226.457 336.756 226.959 336.771 227.6V230.518C336.771 231.1 336.846 231.562 336.994 231.906V232H335.857ZM334.059 231.174C334.398 231.174 334.721 231.086 335.025 230.91C335.33 230.734 335.551 230.506 335.688 230.225V228.924H334.838C333.51 228.924 332.846 229.312 332.846 230.09C332.846 230.43 332.959 230.695 333.186 230.887C333.412 231.078 333.703 231.174 334.059 231.174ZM343.826 228.9C343.826 229.865 343.605 230.643 343.164 231.232C342.723 231.822 342.125 232.117 341.371 232.117C340.602 232.117 339.996 231.873 339.555 231.385V234.438H338.471V225.66H339.461L339.514 226.363C339.955 225.816 340.568 225.543 341.354 225.543C342.115 225.543 342.717 225.83 343.158 226.404C343.604 226.979 343.826 227.777 343.826 228.801V228.9ZM342.742 228.777C342.742 228.062 342.59 227.498 342.285 227.084C341.98 226.67 341.562 226.463 341.031 226.463C340.375 226.463 339.883 226.754 339.555 227.336V230.365C339.879 230.943 340.375 231.232 341.043 231.232C341.562 231.232 341.975 231.027 342.279 230.617C342.588 230.203 342.742 229.59 342.742 228.777ZM350.564 228.9C350.564 229.865 350.344 230.643 349.902 231.232C349.461 231.822 348.863 232.117 348.109 232.117C347.34 232.117 346.734 231.873 346.293 231.385V234.438H345.209V225.66H346.199L346.252 226.363C346.693 225.816 347.307 225.543 348.092 225.543C348.854 225.543 349.455 225.83 349.896 226.404C350.342 226.979 350.564 227.777 350.564 228.801V228.9ZM349.48 228.777C349.48 228.062 349.328 227.498 349.023 227.084C348.719 226.67 348.301 226.463 347.77 226.463C347.113 226.463 346.621 226.754 346.293 227.336V230.365C346.617 230.943 347.113 231.232 347.781 231.232C348.301 231.232 348.713 231.027 349.018 230.617C349.326 230.203 349.48 229.59 349.48 228.777ZM351.971 231.432C351.971 231.244 352.025 231.088 352.135 230.963C352.248 230.838 352.416 230.775 352.639 230.775C352.861 230.775 353.029 230.838 353.143 230.963C353.26 231.088 353.318 231.244 353.318 231.432C353.318 231.611 353.26 231.762 353.143 231.883C353.029 232.004 352.861 232.064 352.639 232.064C352.416 232.064 352.248 232.004 352.135 231.883C352.025 231.762 351.971 231.611 351.971 231.432ZM357.654 231.232C358.041 231.232 358.379 231.115 358.668 230.881C358.957 230.646 359.117 230.354 359.148 230.002H360.174C360.154 230.365 360.029 230.711 359.799 231.039C359.568 231.367 359.26 231.629 358.873 231.824C358.49 232.02 358.084 232.117 357.654 232.117C356.791 232.117 356.104 231.83 355.592 231.256C355.084 230.678 354.83 229.889 354.83 228.889V228.707C354.83 228.09 354.943 227.541 355.17 227.061C355.396 226.58 355.721 226.207 356.143 225.941C356.568 225.676 357.07 225.543 357.648 225.543C358.359 225.543 358.949 225.756 359.418 226.182C359.891 226.607 360.143 227.16 360.174 227.84H359.148C359.117 227.43 358.961 227.094 358.68 226.832C358.402 226.566 358.059 226.434 357.648 226.434C357.098 226.434 356.67 226.633 356.365 227.031C356.064 227.426 355.914 227.998 355.914 228.748V228.953C355.914 229.684 356.064 230.246 356.365 230.641C356.666 231.035 357.096 231.232 357.654 231.232ZM361.105 228.771C361.105 228.15 361.227 227.592 361.469 227.096C361.715 226.6 362.055 226.217 362.488 225.947C362.926 225.678 363.424 225.543 363.982 225.543C364.846 225.543 365.543 225.842 366.074 226.439C366.609 227.037 366.877 227.832 366.877 228.824V228.9C366.877 229.518 366.758 230.072 366.52 230.564C366.285 231.053 365.947 231.434 365.506 231.707C365.068 231.98 364.564 232.117 363.994 232.117C363.135 232.117 362.438 231.818 361.902 231.221C361.371 230.623 361.105 229.832 361.105 228.848V228.771ZM362.195 228.9C362.195 229.604 362.357 230.168 362.682 230.594C363.01 231.02 363.447 231.232 363.994 231.232C364.545 231.232 364.982 231.018 365.307 230.588C365.631 230.154 365.793 229.549 365.793 228.771C365.793 228.076 365.627 227.514 365.295 227.084C364.967 226.65 364.529 226.434 363.982 226.434C363.447 226.434 363.016 226.646 362.688 227.072C362.359 227.498 362.195 228.107 362.195 228.9ZM369.256 225.66L369.285 226.363C369.75 225.816 370.377 225.543 371.166 225.543C372.053 225.543 372.656 225.883 372.977 226.562C373.188 226.258 373.461 226.012 373.797 225.824C374.137 225.637 374.537 225.543 374.998 225.543C376.389 225.543 377.096 226.279 377.119 227.752V232H376.035V227.816C376.035 227.363 375.932 227.025 375.725 226.803C375.518 226.576 375.17 226.463 374.682 226.463C374.279 226.463 373.945 226.584 373.68 226.826C373.414 227.064 373.26 227.387 373.217 227.793V232H372.127V227.846C372.127 226.924 371.676 226.463 370.773 226.463C370.062 226.463 369.576 226.766 369.314 227.371V232H368.23V225.66H369.256Z" fill="black"/>
<path d="M247.707 221.707C248.098 221.317 248.098 220.683 247.707 220.293L241.343 213.929C240.953 213.538 240.319 213.538 239.929 213.929C239.538 214.319 239.538 214.953 239.929 215.343L245.586 221L239.929 226.657C239.538 227.047 239.538 227.681 239.929 228.071C240.319 228.462 240.953 228.462 241.343 228.071L247.707 221.707ZM167 222H247V220H167V222Z" fill="black"/>
<path d="M474.707 220.707C475.098 220.317 475.098 219.683 474.707 219.293L468.343 212.929C467.953 212.538 467.319 212.538 466.929 212.929C466.538 213.319 466.538 213.953 466.929 214.343L472.586 220L466.929 225.657C466.538 226.047 466.538 226.681 466.929 227.071C467.319 227.462 467.953 227.462 468.343 227.071L474.707 220.707ZM394 221H474V219H394V221Z" fill="black"/>
<path d="M174.463 246.99V252H172.775V239.203H177.495C178.896 239.203 179.991 239.561 180.782 240.275C181.579 240.99 181.978 241.937 181.978 243.114C181.978 244.356 181.588 245.314 180.809 245.988C180.035 246.656 178.925 246.99 177.478 246.99H174.463ZM174.463 245.61H177.495C178.397 245.61 179.089 245.399 179.569 244.978C180.05 244.55 180.29 243.935 180.29 243.132C180.29 242.37 180.05 241.761 179.569 241.304C179.089 240.847 178.43 240.609 177.592 240.592H174.463V245.61ZM183.322 247.157C183.322 246.226 183.504 245.388 183.867 244.644C184.236 243.899 184.746 243.325 185.396 242.921C186.053 242.517 186.8 242.314 187.638 242.314C188.933 242.314 189.979 242.763 190.775 243.659C191.578 244.556 191.979 245.748 191.979 247.236V247.351C191.979 248.276 191.801 249.108 191.443 249.847C191.092 250.579 190.585 251.15 189.923 251.561C189.267 251.971 188.511 252.176 187.655 252.176C186.366 252.176 185.32 251.728 184.518 250.831C183.721 249.935 183.322 248.748 183.322 247.271V247.157ZM184.957 247.351C184.957 248.405 185.2 249.252 185.687 249.891C186.179 250.529 186.835 250.849 187.655 250.849C188.481 250.849 189.138 250.526 189.624 249.882C190.11 249.231 190.354 248.323 190.354 247.157C190.354 246.114 190.104 245.271 189.606 244.626C189.114 243.976 188.458 243.65 187.638 243.65C186.835 243.65 186.188 243.97 185.695 244.608C185.203 245.247 184.957 246.161 184.957 247.351ZM195.785 252H194.159V242.49H195.785V252ZM194.027 239.968C194.027 239.704 194.106 239.481 194.265 239.3C194.429 239.118 194.669 239.027 194.985 239.027C195.302 239.027 195.542 239.118 195.706 239.3C195.87 239.481 195.952 239.704 195.952 239.968C195.952 240.231 195.87 240.451 195.706 240.627C195.542 240.803 195.302 240.891 194.985 240.891C194.669 240.891 194.429 240.803 194.265 240.627C194.106 240.451 194.027 240.231 194.027 239.968ZM199.934 242.49L199.986 243.686C200.713 242.771 201.662 242.314 202.834 242.314C204.844 242.314 205.857 243.448 205.875 245.716V252H204.249V245.707C204.243 245.021 204.085 244.515 203.774 244.187C203.47 243.858 202.992 243.694 202.342 243.694C201.814 243.694 201.352 243.835 200.953 244.116C200.555 244.397 200.244 244.767 200.021 245.224V252H198.396V242.49H199.934ZM210.533 240.188V242.49H212.309V243.747H210.533V249.645C210.533 250.025 210.612 250.312 210.771 250.506C210.929 250.693 211.198 250.787 211.579 250.787C211.767 250.787 212.024 250.752 212.353 250.682V252C211.925 252.117 211.509 252.176 211.104 252.176C210.378 252.176 209.83 251.956 209.461 251.517C209.092 251.077 208.907 250.453 208.907 249.645V243.747H207.176V242.49H208.907V240.188H210.533ZM219.753 249.478C219.753 249.038 219.586 248.698 219.252 248.458C218.924 248.212 218.347 248.001 217.521 247.825C216.7 247.649 216.047 247.438 215.561 247.192C215.08 246.946 214.723 246.653 214.488 246.313C214.26 245.974 214.146 245.569 214.146 245.101C214.146 244.321 214.474 243.662 215.13 243.123C215.792 242.584 216.636 242.314 217.661 242.314C218.739 242.314 219.612 242.593 220.28 243.149C220.954 243.706 221.291 244.418 221.291 245.285H219.656C219.656 244.84 219.466 244.456 219.085 244.134C218.71 243.812 218.235 243.65 217.661 243.65C217.069 243.65 216.606 243.779 216.272 244.037C215.938 244.295 215.771 244.632 215.771 245.048C215.771 245.44 215.927 245.736 216.237 245.936C216.548 246.135 217.107 246.325 217.916 246.507C218.73 246.688 219.39 246.905 219.894 247.157C220.397 247.409 220.77 247.714 221.01 248.071C221.256 248.423 221.379 248.854 221.379 249.363C221.379 250.213 221.039 250.896 220.359 251.411C219.68 251.921 218.798 252.176 217.714 252.176C216.952 252.176 216.278 252.041 215.692 251.771C215.106 251.502 214.646 251.127 214.312 250.646C213.984 250.16 213.82 249.636 213.82 249.073H215.446C215.476 249.618 215.692 250.052 216.097 250.374C216.507 250.69 217.046 250.849 217.714 250.849C218.329 250.849 218.821 250.726 219.19 250.479C219.565 250.228 219.753 249.894 219.753 249.478ZM230.168 240.188V242.49H231.943V243.747H230.168V249.645C230.168 250.025 230.247 250.312 230.405 250.506C230.563 250.693 230.833 250.787 231.214 250.787C231.401 250.787 231.659 250.752 231.987 250.682V252C231.56 252.117 231.144 252.176 230.739 252.176C230.013 252.176 229.465 251.956 229.096 251.517C228.727 251.077 228.542 250.453 228.542 249.645V243.747H226.811V242.49H228.542V240.188H230.168ZM233.244 247.157C233.244 246.226 233.426 245.388 233.789 244.644C234.158 243.899 234.668 243.325 235.318 242.921C235.975 242.517 236.722 242.314 237.56 242.314C238.854 242.314 239.9 242.763 240.697 243.659C241.5 244.556 241.901 245.748 241.901 247.236V247.351C241.901 248.276 241.723 249.108 241.365 249.847C241.014 250.579 240.507 251.15 239.845 251.561C239.188 251.971 238.433 252.176 237.577 252.176C236.288 252.176 235.242 251.728 234.439 250.831C233.643 249.935 233.244 248.748 233.244 247.271V247.157ZM234.879 247.351C234.879 248.405 235.122 249.252 235.608 249.891C236.101 250.529 236.757 250.849 237.577 250.849C238.403 250.849 239.06 250.526 239.546 249.882C240.032 249.231 240.275 248.323 240.275 247.157C240.275 246.114 240.026 245.271 239.528 244.626C239.036 243.976 238.38 243.65 237.56 243.65C236.757 243.65 236.109 243.97 235.617 244.608C235.125 245.247 234.879 246.161 234.879 247.351Z" fill="black"/>
<path d="M401.173 246.939C401.015 248.293 400.514 249.339 399.67 250.077C398.832 250.81 397.716 251.176 396.321 251.176C394.81 251.176 393.597 250.634 392.683 249.55C391.774 248.466 391.32 247.016 391.32 245.199V243.969C391.32 242.779 391.531 241.733 391.953 240.831C392.381 239.929 392.984 239.237 393.764 238.757C394.543 238.271 395.445 238.027 396.471 238.027C397.83 238.027 398.92 238.408 399.74 239.17C400.561 239.926 401.038 240.975 401.173 242.316H399.477C399.33 241.297 399.011 240.559 398.519 240.102C398.032 239.645 397.35 239.416 396.471 239.416C395.393 239.416 394.546 239.814 393.931 240.611C393.321 241.408 393.017 242.542 393.017 244.013V245.252C393.017 246.641 393.307 247.745 393.887 248.565C394.467 249.386 395.278 249.796 396.321 249.796C397.259 249.796 397.977 249.585 398.475 249.163C398.979 248.735 399.312 247.994 399.477 246.939H401.173ZM402.799 246.157C402.799 245.226 402.98 244.388 403.344 243.644C403.713 242.899 404.223 242.325 404.873 241.921C405.529 241.517 406.276 241.314 407.114 241.314C408.409 241.314 409.455 241.763 410.252 242.659C411.055 243.556 411.456 244.748 411.456 246.236V246.351C411.456 247.276 411.277 248.108 410.92 248.847C410.568 249.579 410.062 250.15 409.399 250.561C408.743 250.971 407.987 251.176 407.132 251.176C405.843 251.176 404.797 250.728 403.994 249.831C403.197 248.935 402.799 247.748 402.799 246.271V246.157ZM404.434 246.351C404.434 247.405 404.677 248.252 405.163 248.891C405.655 249.529 406.312 249.849 407.132 249.849C407.958 249.849 408.614 249.526 409.101 248.882C409.587 248.231 409.83 247.323 409.83 246.157C409.83 245.114 409.581 244.271 409.083 243.626C408.591 242.976 407.935 242.65 407.114 242.65C406.312 242.65 405.664 242.97 405.172 243.608C404.68 244.247 404.434 245.161 404.434 246.351ZM415.033 241.49L415.086 242.686C415.812 241.771 416.762 241.314 417.934 241.314C419.943 241.314 420.957 242.448 420.975 244.716V251H419.349V244.707C419.343 244.021 419.185 243.515 418.874 243.187C418.569 242.858 418.092 242.694 417.441 242.694C416.914 242.694 416.451 242.835 416.053 243.116C415.654 243.397 415.344 243.767 415.121 244.224V251H413.495V241.49H415.033ZM425.633 239.188V241.49H427.408V242.747H425.633V248.645C425.633 249.025 425.712 249.312 425.87 249.506C426.028 249.693 426.298 249.787 426.679 249.787C426.866 249.787 427.124 249.752 427.452 249.682V251C427.024 251.117 426.608 251.176 426.204 251.176C425.478 251.176 424.93 250.956 424.561 250.517C424.191 250.077 424.007 249.453 424.007 248.645V242.747H422.275V241.49H424.007V239.188H425.633ZM433.912 242.949C433.666 242.908 433.399 242.888 433.112 242.888C432.046 242.888 431.322 243.342 430.941 244.25V251H429.315V241.49H430.897L430.924 242.589C431.457 241.739 432.213 241.314 433.191 241.314C433.508 241.314 433.748 241.355 433.912 241.438V242.949ZM434.809 246.157C434.809 245.226 434.99 244.388 435.354 243.644C435.723 242.899 436.232 242.325 436.883 241.921C437.539 241.517 438.286 241.314 439.124 241.314C440.419 241.314 441.465 241.763 442.262 242.659C443.064 243.556 443.466 244.748 443.466 246.236V246.351C443.466 247.276 443.287 248.108 442.93 248.847C442.578 249.579 442.071 250.15 441.409 250.561C440.753 250.971 439.997 251.176 439.142 251.176C437.853 251.176 436.807 250.728 436.004 249.831C435.207 248.935 434.809 247.748 434.809 246.271V246.157ZM436.443 246.351C436.443 247.405 436.687 248.252 437.173 248.891C437.665 249.529 438.321 249.849 439.142 249.849C439.968 249.849 440.624 249.526 441.11 248.882C441.597 248.231 441.84 247.323 441.84 246.157C441.84 245.114 441.591 244.271 441.093 243.626C440.601 242.976 439.944 242.65 439.124 242.65C438.321 242.65 437.674 242.97 437.182 243.608C436.689 244.247 436.443 245.161 436.443 246.351ZM447.271 251H445.646V237.5H447.271V251ZM451.648 251H450.022V237.5H451.648V251ZM458.205 251.176C456.916 251.176 455.867 250.754 455.059 249.91C454.25 249.061 453.846 247.927 453.846 246.509V246.21C453.846 245.267 454.024 244.426 454.382 243.688C454.745 242.943 455.249 242.363 455.894 241.947C456.544 241.525 457.247 241.314 458.003 241.314C459.239 241.314 460.2 241.722 460.886 242.536C461.571 243.351 461.914 244.517 461.914 246.034V246.711H455.472C455.495 247.648 455.768 248.407 456.289 248.987C456.816 249.562 457.484 249.849 458.293 249.849C458.867 249.849 459.354 249.731 459.752 249.497C460.15 249.263 460.499 248.952 460.798 248.565L461.791 249.339C460.994 250.563 459.799 251.176 458.205 251.176ZM458.003 242.65C457.347 242.65 456.796 242.891 456.351 243.371C455.905 243.846 455.63 244.514 455.524 245.375H460.288V245.252C460.241 244.426 460.019 243.787 459.62 243.336C459.222 242.879 458.683 242.65 458.003 242.65ZM463.408 246.166C463.408 244.707 463.754 243.535 464.445 242.65C465.137 241.76 466.042 241.314 467.161 241.314C468.274 241.314 469.156 241.695 469.807 242.457V237.5H471.433V251H469.938L469.859 249.98C469.209 250.777 468.304 251.176 467.144 251.176C466.042 251.176 465.143 250.725 464.445 249.822C463.754 248.92 463.408 247.742 463.408 246.289V246.166ZM465.034 246.351C465.034 247.429 465.257 248.272 465.702 248.882C466.147 249.491 466.763 249.796 467.548 249.796C468.579 249.796 469.332 249.333 469.807 248.407V244.039C469.32 243.143 468.573 242.694 467.565 242.694C466.769 242.694 466.147 243.002 465.702 243.617C465.257 244.232 465.034 245.144 465.034 246.351ZM486.479 246.351C486.479 247.804 486.146 248.973 485.478 249.857C484.81 250.736 483.913 251.176 482.788 251.176C481.587 251.176 480.658 250.751 480.002 249.901L479.923 251H478.429V237.5H480.055V242.536C480.711 241.722 481.616 241.314 482.771 241.314C483.925 241.314 484.83 241.751 485.486 242.624C486.148 243.497 486.479 244.692 486.479 246.21V246.351ZM484.854 246.166C484.854 245.059 484.64 244.203 484.212 243.6C483.784 242.996 483.169 242.694 482.366 242.694C481.294 242.694 480.523 243.192 480.055 244.188V248.302C480.553 249.298 481.329 249.796 482.384 249.796C483.163 249.796 483.77 249.494 484.203 248.891C484.637 248.287 484.854 247.379 484.854 246.166ZM491.542 248.618L493.757 241.49H495.497L491.674 252.468C491.082 254.05 490.142 254.841 488.853 254.841L488.545 254.814L487.938 254.7V253.382L488.378 253.417C488.929 253.417 489.356 253.306 489.661 253.083C489.972 252.86 490.227 252.453 490.426 251.861L490.786 250.895L487.394 241.49H489.169L491.542 248.618Z" fill="black"/>
</svg>
