<svg width="600" height="300" viewBox="0 0 600 300" fill="none" xmlns="http://www.w3.org/2000/svg">
<rect width="600" height="300" fill="white"/>
<rect x="240.5" y="8.5" width="119" height="39" rx="7.5" fill="white" stroke="black"/>
<rect x="240.5" y="174.5" width="119" height="39" rx="7.5" fill="white" stroke="black"/>
<rect x="240.5" y="213.5" width="119" height="39" rx="7.5" fill="white" stroke="black"/>
<rect x="241.5" y="252.5" width="119" height="39" rx="7.5" fill="white" stroke="black"/>
<rect x="240.5" y="47.5" width="119" height="39" rx="7.5" fill="white" stroke="black"/>
<rect x="240.5" y="145.5" width="119" height="29" rx="7.5" fill="white" stroke="black"/>
<rect x="240.5" y="86.5" width="119" height="59" rx="7.5" fill="white" stroke="black"/>
<path d="M271.386 28.3994H267.072V31.9268H272.083V33H265.76V23.0469H272.015V24.127H267.072V27.3262H271.386V28.3994ZM275.036 31.9268H279.753V33H273.717V23.0469H275.036V31.9268ZM286.739 28.6045H282.562V33H281.25V23.0469H287.416V24.127H282.562V27.5312H286.739V28.6045ZM300.11 33H298.791V28.3994H293.773V33H292.461V23.0469H293.773V27.3262H298.791V23.0469H300.11V33ZM305.312 33.1367C304.31 33.1367 303.494 32.8086 302.865 32.1523C302.236 31.4915 301.922 30.6097 301.922 29.5068V29.2744C301.922 28.5407 302.061 27.8867 302.339 27.3125C302.621 26.7337 303.013 26.2826 303.515 25.959C304.021 25.6309 304.567 25.4668 305.155 25.4668C306.117 25.4668 306.864 25.7835 307.397 26.417C307.931 27.0505 308.197 27.9574 308.197 29.1377V29.6641H303.187C303.205 30.3932 303.417 30.9834 303.822 31.4346C304.232 31.8812 304.752 32.1045 305.381 32.1045C305.827 32.1045 306.206 32.0133 306.516 31.8311C306.826 31.6488 307.097 31.4072 307.329 31.1064L308.102 31.708C307.482 32.6605 306.552 33.1367 305.312 33.1367ZM305.155 26.5059C304.645 26.5059 304.216 26.6927 303.87 27.0664C303.524 27.4355 303.31 27.9551 303.228 28.625H306.933V28.5293C306.896 27.8867 306.723 27.39 306.413 27.0391C306.103 26.6836 305.684 26.5059 305.155 26.5059ZM314.233 33C314.16 32.8542 314.101 32.5944 314.056 32.2207C313.468 32.8314 312.766 33.1367 311.95 33.1367C311.221 33.1367 310.622 32.9316 310.152 32.5215C309.688 32.1068 309.455 31.5827 309.455 30.9492C309.455 30.179 309.747 29.582 310.33 29.1582C310.918 28.7298 311.743 28.5156 312.805 28.5156H314.035V27.9346C314.035 27.4925 313.903 27.1416 313.639 26.8818C313.374 26.6175 312.985 26.4854 312.47 26.4854C312.019 26.4854 311.64 26.5993 311.335 26.8271C311.03 27.055 310.877 27.3307 310.877 27.6543H309.605C309.605 27.2852 309.735 26.9297 309.995 26.5879C310.259 26.2415 310.615 25.9681 311.062 25.7676C311.513 25.5671 312.007 25.4668 312.545 25.4668C313.397 25.4668 314.065 25.681 314.548 26.1094C315.031 26.5332 315.282 27.1188 315.3 27.8662V31.2705C315.3 31.9495 315.386 32.4896 315.56 32.8906V33H314.233ZM312.135 32.0361C312.531 32.0361 312.907 31.9336 313.263 31.7285C313.618 31.5234 313.876 31.2568 314.035 30.9287V29.4111H313.044C311.494 29.4111 310.72 29.8646 310.72 30.7715C310.72 31.168 310.852 31.4779 311.116 31.7012C311.381 31.9245 311.72 32.0361 312.135 32.0361ZM316.975 29.2402C316.975 28.1055 317.243 27.194 317.781 26.5059C318.319 25.8132 319.023 25.4668 319.894 25.4668C320.759 25.4668 321.445 25.763 321.951 26.3555V22.5H323.216V33H322.054L321.992 32.207C321.486 32.8268 320.782 33.1367 319.88 33.1367C319.023 33.1367 318.324 32.7858 317.781 32.084C317.243 31.3822 316.975 30.4661 316.975 29.3359V29.2402ZM318.239 29.3838C318.239 30.2223 318.412 30.8786 318.759 31.3525C319.105 31.8265 319.584 32.0635 320.194 32.0635C320.996 32.0635 321.582 31.7035 321.951 30.9834V27.5859C321.573 26.8887 320.992 26.54 320.208 26.54C319.588 26.54 319.105 26.7793 318.759 27.2578C318.412 27.7363 318.239 28.445 318.239 29.3838ZM328.254 33.1367C327.251 33.1367 326.436 32.8086 325.807 32.1523C325.178 31.4915 324.863 30.6097 324.863 29.5068V29.2744C324.863 28.5407 325.002 27.8867 325.28 27.3125C325.563 26.7337 325.955 26.2826 326.456 25.959C326.962 25.6309 327.509 25.4668 328.097 25.4668C329.058 25.4668 329.806 25.7835 330.339 26.417C330.872 27.0505 331.139 27.9574 331.139 29.1377V29.6641H326.128C326.146 30.3932 326.358 30.9834 326.764 31.4346C327.174 31.8812 327.693 32.1045 328.322 32.1045C328.769 32.1045 329.147 32.0133 329.457 31.8311C329.767 31.6488 330.038 31.4072 330.271 31.1064L331.043 31.708C330.423 32.6605 329.493 33.1367 328.254 33.1367ZM328.097 26.5059C327.586 26.5059 327.158 26.6927 326.812 27.0664C326.465 27.4355 326.251 27.9551 326.169 28.625H329.874V28.5293C329.838 27.8867 329.664 27.39 329.354 27.0391C329.045 26.6836 328.625 26.5059 328.097 26.5059ZM336.184 26.7383C335.992 26.7064 335.785 26.6904 335.562 26.6904C334.732 26.6904 334.169 27.0436 333.873 27.75V33H332.608V25.6035H333.839L333.859 26.458C334.274 25.7972 334.862 25.4668 335.623 25.4668C335.869 25.4668 336.056 25.4987 336.184 25.5625V26.7383Z" fill="black"/>
<path d="M252.997 60.1035V64H251.685V54.0469H255.355C256.445 54.0469 257.297 54.3249 257.912 54.8809C258.532 55.4368 258.842 56.1729 258.842 57.0889C258.842 58.055 258.539 58.8001 257.933 59.3242C257.331 59.8438 256.467 60.1035 255.342 60.1035H252.997ZM252.997 59.0303H255.355C256.057 59.0303 256.595 58.8662 256.969 58.5381C257.342 58.2054 257.529 57.7269 257.529 57.1025C257.529 56.5101 257.342 56.0361 256.969 55.6807C256.595 55.3252 256.082 55.1406 255.431 55.127H252.997V59.0303ZM263.894 57.7383C263.702 57.7064 263.495 57.6904 263.271 57.6904C262.442 57.6904 261.879 58.0436 261.583 58.75V64H260.318V56.6035H261.549L261.569 57.458C261.984 56.7972 262.572 56.4668 263.333 56.4668C263.579 56.4668 263.766 56.4987 263.894 56.5625V57.7383ZM264.591 60.2334C264.591 59.5088 264.732 58.8571 265.015 58.2783C265.302 57.6995 265.698 57.2529 266.204 56.9385C266.715 56.624 267.296 56.4668 267.947 56.4668C268.954 56.4668 269.768 56.8154 270.388 57.5127C271.012 58.21 271.324 59.1374 271.324 60.2949V60.3838C271.324 61.1038 271.185 61.751 270.907 62.3252C270.634 62.8949 270.24 63.3392 269.725 63.6582C269.214 63.9772 268.626 64.1367 267.961 64.1367C266.958 64.1367 266.145 63.7881 265.521 63.0908C264.901 62.3936 264.591 61.4707 264.591 60.3223V60.2334ZM265.862 60.3838C265.862 61.2041 266.051 61.8626 266.43 62.3594C266.812 62.8561 267.323 63.1045 267.961 63.1045C268.604 63.1045 269.114 62.8538 269.492 62.3525C269.87 61.8467 270.06 61.1403 270.06 60.2334C270.06 59.4222 269.866 58.766 269.479 58.2646C269.096 57.7588 268.585 57.5059 267.947 57.5059C267.323 57.5059 266.819 57.7542 266.437 58.251C266.054 58.7477 265.862 59.4587 265.862 60.3838ZM272.609 60.2402C272.609 59.0872 272.876 58.1712 273.409 57.4922C273.942 56.8086 274.649 56.4668 275.528 56.4668C276.431 56.4668 277.135 56.7858 277.641 57.4238L277.702 56.6035H278.857V63.8223C278.857 64.7793 278.573 65.5335 278.003 66.085C277.438 66.6364 276.677 66.9121 275.72 66.9121C275.187 66.9121 274.665 66.7982 274.154 66.5703C273.644 66.3424 273.254 66.0303 272.985 65.6338L273.642 64.875C274.184 65.5449 274.847 65.8799 275.631 65.8799C276.246 65.8799 276.725 65.7067 277.066 65.3604C277.413 65.014 277.586 64.5264 277.586 63.8975V63.2617C277.08 63.8451 276.39 64.1367 275.515 64.1367C274.649 64.1367 273.947 63.7881 273.409 63.0908C272.876 62.3936 272.609 61.4434 272.609 60.2402ZM273.881 60.3838C273.881 61.2178 274.052 61.874 274.394 62.3525C274.735 62.8265 275.214 63.0635 275.829 63.0635C276.627 63.0635 277.212 62.7012 277.586 61.9766V58.5996C277.199 57.8932 276.618 57.54 275.843 57.54C275.228 57.54 274.747 57.7793 274.4 58.2578C274.054 58.7363 273.881 59.445 273.881 60.3838ZM284.347 57.7383C284.155 57.7064 283.948 57.6904 283.725 57.6904C282.895 57.6904 282.332 58.0436 282.036 58.75V64H280.771V56.6035H282.002L282.022 57.458C282.437 56.7972 283.025 56.4668 283.786 56.4668C284.032 56.4668 284.219 56.4987 284.347 56.5625V57.7383ZM289.809 64C289.736 63.8542 289.676 63.5944 289.631 63.2207C289.043 63.8314 288.341 64.1367 287.525 64.1367C286.796 64.1367 286.197 63.9316 285.728 63.5215C285.263 63.1068 285.03 62.5827 285.03 61.9492C285.03 61.179 285.322 60.582 285.905 60.1582C286.493 59.7298 287.318 59.5156 288.38 59.5156H289.61V58.9346C289.61 58.4925 289.478 58.1416 289.214 57.8818C288.95 57.6175 288.56 57.4854 288.045 57.4854C287.594 57.4854 287.215 57.5993 286.91 57.8271C286.605 58.055 286.452 58.3307 286.452 58.6543H285.181C285.181 58.2852 285.311 57.9297 285.57 57.5879C285.835 57.2415 286.19 56.9681 286.637 56.7676C287.088 56.5671 287.582 56.4668 288.12 56.4668C288.972 56.4668 289.64 56.681 290.123 57.1094C290.606 57.5332 290.857 58.1188 290.875 58.8662V62.2705C290.875 62.9495 290.962 63.4896 291.135 63.8906V64H289.809ZM287.71 63.0361C288.106 63.0361 288.482 62.9336 288.838 62.7285C289.193 62.5234 289.451 62.2568 289.61 61.9287V60.4111H288.619C287.07 60.4111 286.295 60.8646 286.295 61.7715C286.295 62.168 286.427 62.4779 286.691 62.7012C286.956 62.9245 287.295 63.0361 287.71 63.0361ZM294.047 56.6035L294.081 57.4238C294.623 56.7858 295.355 56.4668 296.275 56.4668C297.31 56.4668 298.014 56.8633 298.388 57.6562C298.634 57.3008 298.953 57.0137 299.345 56.7949C299.741 56.5762 300.208 56.4668 300.746 56.4668C302.368 56.4668 303.193 57.3258 303.221 59.0439V64H301.956V59.1191C301.956 58.5905 301.835 58.1963 301.594 57.9365C301.352 57.6722 300.947 57.54 300.377 57.54C299.908 57.54 299.518 57.6813 299.208 57.9639C298.898 58.2419 298.718 58.6178 298.668 59.0918V64H297.396V59.1533C297.396 58.0778 296.87 57.54 295.817 57.54C294.988 57.54 294.421 57.8932 294.115 58.5996V64H292.851V56.6035H294.047ZM309.872 57.499C310.433 56.8109 311.162 56.4668 312.06 56.4668C313.623 56.4668 314.411 57.3486 314.425 59.1123V64H313.16V59.1055C313.156 58.5723 313.033 58.1781 312.791 57.9229C312.554 57.6676 312.183 57.54 311.677 57.54C311.267 57.54 310.907 57.6494 310.597 57.8682C310.287 58.0869 310.045 58.374 309.872 58.7295V64H308.607V53.5H309.872V57.499ZM319.388 64.1367C318.385 64.1367 317.569 63.8086 316.94 63.1523C316.312 62.4915 315.997 61.6097 315.997 60.5068V60.2744C315.997 59.5407 316.136 58.8867 316.414 58.3125C316.697 57.7337 317.089 57.2826 317.59 56.959C318.096 56.6309 318.643 56.4668 319.23 56.4668C320.192 56.4668 320.939 56.7835 321.473 57.417C322.006 58.0505 322.272 58.9574 322.272 60.1377V60.6641H317.262C317.28 61.3932 317.492 61.9834 317.897 62.4346C318.308 62.8812 318.827 63.1045 319.456 63.1045C319.903 63.1045 320.281 63.0133 320.591 62.8311C320.901 62.6488 321.172 62.4072 321.404 62.1064L322.177 62.708C321.557 63.6605 320.627 64.1367 319.388 64.1367ZM319.23 57.5059C318.72 57.5059 318.292 57.6927 317.945 58.0664C317.599 58.4355 317.385 58.9551 317.303 59.625H321.008V59.5293C320.971 58.8867 320.798 58.39 320.488 58.0391C320.178 57.6836 319.759 57.5059 319.23 57.5059ZM328.309 64C328.236 63.8542 328.176 63.5944 328.131 63.2207C327.543 63.8314 326.841 64.1367 326.025 64.1367C325.296 64.1367 324.697 63.9316 324.228 63.5215C323.763 63.1068 323.53 62.5827 323.53 61.9492C323.53 61.179 323.822 60.582 324.405 60.1582C324.993 59.7298 325.818 59.5156 326.88 59.5156H328.11V58.9346C328.11 58.4925 327.978 58.1416 327.714 57.8818C327.45 57.6175 327.06 57.4854 326.545 57.4854C326.094 57.4854 325.715 57.5993 325.41 57.8271C325.105 58.055 324.952 58.3307 324.952 58.6543H323.681C323.681 58.2852 323.811 57.9297 324.07 57.5879C324.335 57.2415 324.69 56.9681 325.137 56.7676C325.588 56.5671 326.082 56.4668 326.62 56.4668C327.472 56.4668 328.14 56.681 328.623 57.1094C329.106 57.5332 329.357 58.1188 329.375 58.8662V62.2705C329.375 62.9495 329.462 63.4896 329.635 63.8906V64H328.309ZM326.21 63.0361C326.606 63.0361 326.982 62.9336 327.338 62.7285C327.693 62.5234 327.951 62.2568 328.11 61.9287V60.4111H327.119C325.57 60.4111 324.795 60.8646 324.795 61.7715C324.795 62.168 324.927 62.4779 325.191 62.7012C325.456 62.9245 325.795 63.0361 326.21 63.0361ZM331.05 60.2402C331.05 59.1055 331.319 58.194 331.856 57.5059C332.394 56.8132 333.098 56.4668 333.969 56.4668C334.835 56.4668 335.521 56.763 336.026 57.3555V53.5H337.291V64H336.129L336.067 63.207C335.562 63.8268 334.857 64.1367 333.955 64.1367C333.098 64.1367 332.399 63.7858 331.856 63.084C331.319 62.3822 331.05 61.4661 331.05 60.3359V60.2402ZM332.314 60.3838C332.314 61.2223 332.488 61.8786 332.834 62.3525C333.18 62.8265 333.659 63.0635 334.27 63.0635C335.072 63.0635 335.657 62.7035 336.026 61.9834V58.5859C335.648 57.8887 335.067 57.54 334.283 57.54C333.663 57.54 333.18 57.7793 332.834 58.2578C332.488 58.7363 332.314 59.445 332.314 60.3838ZM342.329 64.1367C341.326 64.1367 340.511 63.8086 339.882 63.1523C339.253 62.4915 338.938 61.6097 338.938 60.5068V60.2744C338.938 59.5407 339.077 58.8867 339.355 58.3125C339.638 57.7337 340.03 57.2826 340.531 56.959C341.037 56.6309 341.584 56.4668 342.172 56.4668C343.133 56.4668 343.881 56.7835 344.414 57.417C344.947 58.0505 345.214 58.9574 345.214 60.1377V60.6641H340.203C340.221 61.3932 340.433 61.9834 340.839 62.4346C341.249 62.8812 341.769 63.1045 342.397 63.1045C342.844 63.1045 343.222 63.0133 343.532 62.8311C343.842 62.6488 344.113 62.4072 344.346 62.1064L345.118 62.708C344.498 63.6605 343.569 64.1367 342.329 64.1367ZM342.172 57.5059C341.661 57.5059 341.233 57.6927 340.887 58.0664C340.54 58.4355 340.326 58.9551 340.244 59.625H343.949V59.5293C343.913 58.8867 343.74 58.39 343.43 58.0391C343.12 57.6836 342.701 57.5059 342.172 57.5059ZM350.259 57.7383C350.067 57.7064 349.86 57.6904 349.637 57.6904C348.807 57.6904 348.244 58.0436 347.948 58.75V64H346.684V56.6035H347.914L347.935 57.458C348.349 56.7972 348.937 56.4668 349.698 56.4668C349.944 56.4668 350.131 56.4987 350.259 56.5625V57.7383ZM287.73 70.8125V72.6035H289.111V73.5811H287.73V78.168C287.73 78.4642 287.792 78.6875 287.915 78.8379C288.038 78.9837 288.248 79.0566 288.544 79.0566C288.69 79.0566 288.89 79.0293 289.146 78.9746V80C288.813 80.0911 288.489 80.1367 288.175 80.1367C287.61 80.1367 287.184 79.9658 286.896 79.624C286.609 79.2822 286.466 78.7969 286.466 78.168V73.5811H285.119V72.6035H286.466V70.8125H287.73ZM295.161 80C295.088 79.8542 295.029 79.5944 294.983 79.2207C294.396 79.8314 293.694 80.1367 292.878 80.1367C292.149 80.1367 291.549 79.9316 291.08 79.5215C290.615 79.1068 290.383 78.5827 290.383 77.9492C290.383 77.179 290.674 76.582 291.258 76.1582C291.846 75.7298 292.671 75.5156 293.732 75.5156H294.963V74.9346C294.963 74.4925 294.831 74.1416 294.566 73.8818C294.302 73.6175 293.912 73.4854 293.397 73.4854C292.946 73.4854 292.568 73.5993 292.263 73.8271C291.957 74.055 291.805 74.3307 291.805 74.6543H290.533C290.533 74.2852 290.663 73.9297 290.923 73.5879C291.187 73.2415 291.543 72.9681 291.989 72.7676C292.44 72.5671 292.935 72.4668 293.473 72.4668C294.325 72.4668 294.993 72.681 295.476 73.1094C295.959 73.5332 296.209 74.1188 296.228 74.8662V78.2705C296.228 78.9495 296.314 79.4896 296.487 79.8906V80H295.161ZM293.062 79.0361C293.459 79.0361 293.835 78.9336 294.19 78.7285C294.546 78.5234 294.803 78.2568 294.963 77.9287V76.4111H293.972C292.422 76.4111 291.647 76.8646 291.647 77.7715C291.647 78.168 291.78 78.4779 292.044 78.7012C292.308 78.9245 292.648 79.0361 293.062 79.0361ZM304.472 76.3838C304.472 77.514 304.212 78.4232 303.692 79.1113C303.173 79.7949 302.476 80.1367 301.601 80.1367C300.666 80.1367 299.944 79.8063 299.434 79.1455L299.372 80H298.21V69.5H299.475V73.417C299.985 72.7835 300.689 72.4668 301.587 72.4668C302.485 72.4668 303.189 72.8063 303.699 73.4854C304.214 74.1644 304.472 75.0941 304.472 76.2744V76.3838ZM303.207 76.2402C303.207 75.3789 303.041 74.7135 302.708 74.2441C302.375 73.7747 301.897 73.54 301.272 73.54C300.438 73.54 299.839 73.9274 299.475 74.7021V77.9014C299.862 78.6761 300.466 79.0635 301.286 79.0635C301.892 79.0635 302.364 78.8288 302.701 78.3594C303.038 77.89 303.207 77.1836 303.207 76.2402ZM307.445 80H306.181V69.5H307.445V80ZM312.545 80.1367C311.542 80.1367 310.727 79.8086 310.098 79.1523C309.469 78.4915 309.154 77.6097 309.154 76.5068V76.2744C309.154 75.5407 309.293 74.8867 309.571 74.3125C309.854 73.7337 310.246 73.2826 310.747 72.959C311.253 72.6309 311.8 72.4668 312.388 72.4668C313.349 72.4668 314.097 72.7835 314.63 73.417C315.163 74.0505 315.43 74.9574 315.43 76.1377V76.6641H310.419C310.437 77.3932 310.649 77.9834 311.055 78.4346C311.465 78.8812 311.984 79.1045 312.613 79.1045C313.06 79.1045 313.438 79.0133 313.748 78.8311C314.058 78.6488 314.329 78.4072 314.562 78.1064L315.334 78.708C314.714 79.6605 313.785 80.1367 312.545 80.1367ZM312.388 73.5059C311.877 73.5059 311.449 73.6927 311.103 74.0664C310.756 74.4355 310.542 74.9551 310.46 75.625H314.165V75.5293C314.129 74.8867 313.955 74.39 313.646 74.0391C313.336 73.6836 312.916 73.5059 312.388 73.5059Z" fill="black"/>
<path d="M285.782 237.337C285.782 237.118 285.846 236.936 285.974 236.79C286.106 236.644 286.302 236.571 286.562 236.571C286.821 236.571 287.017 236.644 287.149 236.79C287.286 236.936 287.354 237.118 287.354 237.337C287.354 237.547 287.286 237.722 287.149 237.863C287.017 238.005 286.821 238.075 286.562 238.075C286.302 238.075 286.106 238.005 285.974 237.863C285.846 237.722 285.782 237.547 285.782 237.337ZM289.139 234.24C289.139 233.105 289.408 232.194 289.945 231.506C290.483 230.813 291.187 230.467 292.058 230.467C292.924 230.467 293.609 230.763 294.115 231.355V227.5H295.38V238H294.218L294.156 237.207C293.65 237.827 292.946 238.137 292.044 238.137C291.187 238.137 290.488 237.786 289.945 237.084C289.408 236.382 289.139 235.466 289.139 234.336V234.24ZM290.403 234.384C290.403 235.222 290.576 235.879 290.923 236.353C291.269 236.826 291.748 237.063 292.358 237.063C293.16 237.063 293.746 236.703 294.115 235.983V232.586C293.737 231.889 293.156 231.54 292.372 231.54C291.752 231.54 291.269 231.779 290.923 232.258C290.576 232.736 290.403 233.445 290.403 234.384ZM301.915 238C301.842 237.854 301.783 237.594 301.737 237.221C301.149 237.831 300.448 238.137 299.632 238.137C298.903 238.137 298.303 237.932 297.834 237.521C297.369 237.107 297.137 236.583 297.137 235.949C297.137 235.179 297.428 234.582 298.012 234.158C298.6 233.73 299.424 233.516 300.486 233.516H301.717V232.935C301.717 232.493 301.585 232.142 301.32 231.882C301.056 231.618 300.666 231.485 300.151 231.485C299.7 231.485 299.322 231.599 299.017 231.827C298.711 232.055 298.559 232.331 298.559 232.654H297.287C297.287 232.285 297.417 231.93 297.677 231.588C297.941 231.242 298.297 230.968 298.743 230.768C299.194 230.567 299.689 230.467 300.227 230.467C301.079 230.467 301.746 230.681 302.229 231.109C302.713 231.533 302.963 232.119 302.981 232.866V236.271C302.981 236.95 303.068 237.49 303.241 237.891V238H301.915ZM299.816 237.036C300.213 237.036 300.589 236.934 300.944 236.729C301.3 236.523 301.557 236.257 301.717 235.929V234.411H300.726C299.176 234.411 298.401 234.865 298.401 235.771C298.401 236.168 298.534 236.478 298.798 236.701C299.062 236.924 299.402 237.036 299.816 237.036ZM306.68 228.812V230.604H308.061V231.581H306.68V236.168C306.68 236.464 306.741 236.688 306.864 236.838C306.987 236.984 307.197 237.057 307.493 237.057C307.639 237.057 307.84 237.029 308.095 236.975V238C307.762 238.091 307.438 238.137 307.124 238.137C306.559 238.137 306.133 237.966 305.846 237.624C305.559 237.282 305.415 236.797 305.415 236.168V231.581H304.068V230.604H305.415V228.812H306.68ZM314.11 238C314.037 237.854 313.978 237.594 313.933 237.221C313.345 237.831 312.643 238.137 311.827 238.137C311.098 238.137 310.499 237.932 310.029 237.521C309.564 237.107 309.332 236.583 309.332 235.949C309.332 235.179 309.624 234.582 310.207 234.158C310.795 233.73 311.62 233.516 312.682 233.516H313.912V232.935C313.912 232.493 313.78 232.142 313.516 231.882C313.251 231.618 312.862 231.485 312.347 231.485C311.896 231.485 311.517 231.599 311.212 231.827C310.907 232.055 310.754 232.331 310.754 232.654H309.482C309.482 232.285 309.612 231.93 309.872 231.588C310.136 231.242 310.492 230.968 310.938 230.768C311.39 230.567 311.884 230.467 312.422 230.467C313.274 230.467 313.942 230.681 314.425 231.109C314.908 231.533 315.159 232.119 315.177 232.866V236.271C315.177 236.95 315.263 237.49 315.437 237.891V238H314.11ZM312.012 237.036C312.408 237.036 312.784 236.934 313.14 236.729C313.495 236.523 313.753 236.257 313.912 235.929V234.411H312.921C311.371 234.411 310.597 234.865 310.597 235.771C310.597 236.168 310.729 236.478 310.993 236.701C311.257 236.924 311.597 237.036 312.012 237.036Z" fill="black"/>
<path d="M258.062 265.563C256.937 265.24 256.117 264.843 255.602 264.374C255.091 263.9 254.836 263.317 254.836 262.624C254.836 261.84 255.148 261.193 255.772 260.683C256.401 260.168 257.217 259.91 258.22 259.91C258.903 259.91 259.512 260.042 260.045 260.307C260.583 260.571 260.997 260.936 261.289 261.4C261.585 261.865 261.733 262.373 261.733 262.925H260.414C260.414 262.323 260.223 261.852 259.84 261.51C259.457 261.163 258.917 260.99 258.22 260.99C257.573 260.99 257.067 261.134 256.702 261.421C256.342 261.703 256.162 262.098 256.162 262.604C256.162 263.009 256.333 263.353 256.675 263.636C257.021 263.914 257.607 264.169 258.432 264.401C259.261 264.634 259.908 264.891 260.373 265.174C260.842 265.452 261.189 265.778 261.412 266.151C261.64 266.525 261.754 266.965 261.754 267.471C261.754 268.277 261.439 268.924 260.811 269.412C260.182 269.895 259.341 270.137 258.288 270.137C257.604 270.137 256.966 270.007 256.374 269.747C255.782 269.483 255.324 269.123 255 268.667C254.681 268.211 254.521 267.694 254.521 267.115H255.841C255.841 267.717 256.062 268.193 256.504 268.544C256.951 268.89 257.545 269.063 258.288 269.063C258.981 269.063 259.512 268.922 259.881 268.64C260.25 268.357 260.435 267.972 260.435 267.484C260.435 266.997 260.264 266.621 259.922 266.356C259.58 266.088 258.96 265.823 258.062 265.563ZM266.313 270.137C265.311 270.137 264.495 269.809 263.866 269.152C263.237 268.492 262.923 267.61 262.923 266.507V266.274C262.923 265.541 263.062 264.887 263.34 264.312C263.622 263.734 264.014 263.283 264.516 262.959C265.021 262.631 265.568 262.467 266.156 262.467C267.118 262.467 267.865 262.784 268.398 263.417C268.932 264.05 269.198 264.957 269.198 266.138V266.664H264.188C264.206 267.393 264.418 267.983 264.823 268.435C265.233 268.881 265.753 269.104 266.382 269.104C266.828 269.104 267.207 269.013 267.517 268.831C267.826 268.649 268.098 268.407 268.33 268.106L269.103 268.708C268.483 269.66 267.553 270.137 266.313 270.137ZM266.156 263.506C265.646 263.506 265.217 263.693 264.871 264.066C264.525 264.436 264.311 264.955 264.229 265.625H267.934V265.529C267.897 264.887 267.724 264.39 267.414 264.039C267.104 263.684 266.685 263.506 266.156 263.506ZM273.635 269.104C274.086 269.104 274.48 268.968 274.817 268.694C275.155 268.421 275.341 268.079 275.378 267.669H276.574C276.551 268.093 276.406 268.496 276.137 268.879C275.868 269.262 275.508 269.567 275.057 269.795C274.61 270.023 274.136 270.137 273.635 270.137C272.628 270.137 271.826 269.802 271.229 269.132C270.636 268.457 270.34 267.537 270.34 266.37V266.158C270.34 265.438 270.472 264.798 270.736 264.237C271.001 263.677 271.379 263.242 271.871 262.932C272.368 262.622 272.953 262.467 273.628 262.467C274.457 262.467 275.146 262.715 275.692 263.212C276.244 263.709 276.538 264.354 276.574 265.146H275.378C275.341 264.668 275.159 264.276 274.831 263.971C274.507 263.661 274.106 263.506 273.628 263.506C272.985 263.506 272.486 263.738 272.131 264.203C271.78 264.663 271.604 265.331 271.604 266.206V266.445C271.604 267.298 271.78 267.954 272.131 268.414C272.482 268.874 272.983 269.104 273.635 269.104ZM279.712 260.812V262.604H281.093V263.581H279.712V268.168C279.712 268.464 279.773 268.688 279.896 268.838C280.02 268.984 280.229 269.057 280.525 269.057C280.671 269.057 280.872 269.029 281.127 268.975V270C280.794 270.091 280.471 270.137 280.156 270.137C279.591 270.137 279.165 269.966 278.878 269.624C278.591 269.282 278.447 268.797 278.447 268.168V263.581H277.101V262.604H278.447V260.812H279.712ZM283.95 270H282.686V262.604H283.95V270ZM282.583 260.642C282.583 260.437 282.645 260.263 282.768 260.122C282.895 259.981 283.082 259.91 283.328 259.91C283.574 259.91 283.761 259.981 283.889 260.122C284.016 260.263 284.08 260.437 284.08 260.642C284.08 260.847 284.016 261.018 283.889 261.154C283.761 261.291 283.574 261.359 283.328 261.359C283.082 261.359 282.895 261.291 282.768 261.154C282.645 261.018 282.583 260.847 282.583 260.642ZM285.646 266.233C285.646 265.509 285.787 264.857 286.069 264.278C286.356 263.7 286.753 263.253 287.259 262.938C287.769 262.624 288.35 262.467 289.002 262.467C290.009 262.467 290.823 262.815 291.442 263.513C292.067 264.21 292.379 265.137 292.379 266.295V266.384C292.379 267.104 292.24 267.751 291.962 268.325C291.688 268.895 291.294 269.339 290.779 269.658C290.269 269.977 289.681 270.137 289.016 270.137C288.013 270.137 287.2 269.788 286.575 269.091C285.955 268.394 285.646 267.471 285.646 266.322V266.233ZM286.917 266.384C286.917 267.204 287.106 267.863 287.484 268.359C287.867 268.856 288.378 269.104 289.016 269.104C289.658 269.104 290.169 268.854 290.547 268.353C290.925 267.847 291.114 267.14 291.114 266.233C291.114 265.422 290.921 264.766 290.533 264.265C290.15 263.759 289.64 263.506 289.002 263.506C288.378 263.506 287.874 263.754 287.491 264.251C287.108 264.748 286.917 265.459 286.917 266.384ZM295.161 262.604L295.202 263.533C295.767 262.822 296.506 262.467 297.417 262.467C298.98 262.467 299.769 263.349 299.782 265.112V270H298.518V265.105C298.513 264.572 298.39 264.178 298.148 263.923C297.911 263.668 297.54 263.54 297.034 263.54C296.624 263.54 296.264 263.649 295.954 263.868C295.644 264.087 295.403 264.374 295.229 264.729V270H293.965V262.604H295.161ZM306.427 263.499C306.987 262.811 307.716 262.467 308.614 262.467C310.177 262.467 310.966 263.349 310.979 265.112V270H309.715V265.105C309.71 264.572 309.587 264.178 309.346 263.923C309.109 263.668 308.737 263.54 308.231 263.54C307.821 263.54 307.461 263.649 307.151 263.868C306.841 264.087 306.6 264.374 306.427 264.729V270H305.162V259.5H306.427V263.499ZM315.942 270.137C314.94 270.137 314.124 269.809 313.495 269.152C312.866 268.492 312.552 267.61 312.552 266.507V266.274C312.552 265.541 312.691 264.887 312.969 264.312C313.251 263.734 313.643 263.283 314.145 262.959C314.65 262.631 315.197 262.467 315.785 262.467C316.747 262.467 317.494 262.784 318.027 263.417C318.561 264.05 318.827 264.957 318.827 266.138V266.664H313.816C313.835 267.393 314.047 267.983 314.452 268.435C314.862 268.881 315.382 269.104 316.011 269.104C316.457 269.104 316.836 269.013 317.146 268.831C317.455 268.649 317.727 268.407 317.959 268.106L318.731 268.708C318.112 269.66 317.182 270.137 315.942 270.137ZM315.785 263.506C315.275 263.506 314.846 263.693 314.5 264.066C314.154 264.436 313.939 264.955 313.857 265.625H317.562V265.529C317.526 264.887 317.353 264.39 317.043 264.039C316.733 263.684 316.314 263.506 315.785 263.506ZM324.863 270C324.79 269.854 324.731 269.594 324.686 269.221C324.098 269.831 323.396 270.137 322.58 270.137C321.851 270.137 321.252 269.932 320.782 269.521C320.317 269.107 320.085 268.583 320.085 267.949C320.085 267.179 320.377 266.582 320.96 266.158C321.548 265.73 322.373 265.516 323.435 265.516H324.665V264.935C324.665 264.493 324.533 264.142 324.269 263.882C324.004 263.618 323.615 263.485 323.1 263.485C322.648 263.485 322.27 263.599 321.965 263.827C321.66 264.055 321.507 264.331 321.507 264.654H320.235C320.235 264.285 320.365 263.93 320.625 263.588C320.889 263.242 321.245 262.968 321.691 262.768C322.143 262.567 322.637 262.467 323.175 262.467C324.027 262.467 324.695 262.681 325.178 263.109C325.661 263.533 325.911 264.119 325.93 264.866V268.271C325.93 268.95 326.016 269.49 326.189 269.891V270H324.863ZM322.765 269.036C323.161 269.036 323.537 268.934 323.893 268.729C324.248 268.523 324.506 268.257 324.665 267.929V266.411H323.674C322.124 266.411 321.35 266.865 321.35 267.771C321.35 268.168 321.482 268.478 321.746 268.701C322.01 268.924 322.35 269.036 322.765 269.036ZM327.604 266.24C327.604 265.105 327.873 264.194 328.411 263.506C328.949 262.813 329.653 262.467 330.523 262.467C331.389 262.467 332.075 262.763 332.581 263.355V259.5H333.846V270H332.684L332.622 269.207C332.116 269.827 331.412 270.137 330.51 270.137C329.653 270.137 328.953 269.786 328.411 269.084C327.873 268.382 327.604 267.466 327.604 266.336V266.24ZM328.869 266.384C328.869 267.222 329.042 267.879 329.389 268.353C329.735 268.826 330.214 269.063 330.824 269.063C331.626 269.063 332.212 268.703 332.581 267.983V264.586C332.203 263.889 331.622 263.54 330.838 263.54C330.218 263.54 329.735 263.779 329.389 264.258C329.042 264.736 328.869 265.445 328.869 266.384ZM338.884 270.137C337.881 270.137 337.065 269.809 336.437 269.152C335.808 268.492 335.493 267.61 335.493 266.507V266.274C335.493 265.541 335.632 264.887 335.91 264.312C336.193 263.734 336.585 263.283 337.086 262.959C337.592 262.631 338.139 262.467 338.727 262.467C339.688 262.467 340.436 262.784 340.969 263.417C341.502 264.05 341.769 264.957 341.769 266.138V266.664H336.758C336.776 267.393 336.988 267.983 337.394 268.435C337.804 268.881 338.323 269.104 338.952 269.104C339.399 269.104 339.777 269.013 340.087 268.831C340.397 268.649 340.668 268.407 340.9 268.106L341.673 268.708C341.053 269.66 340.123 270.137 338.884 270.137ZM338.727 263.506C338.216 263.506 337.788 263.693 337.441 264.066C337.095 264.436 336.881 264.955 336.799 265.625H340.504V265.529C340.467 264.887 340.294 264.39 339.984 264.039C339.674 263.684 339.255 263.506 338.727 263.506ZM346.813 263.738C346.622 263.706 346.415 263.69 346.191 263.69C345.362 263.69 344.799 264.044 344.503 264.75V270H343.238V262.604H344.469L344.489 263.458C344.904 262.797 345.492 262.467 346.253 262.467C346.499 262.467 346.686 262.499 346.813 262.562V263.738ZM287.73 276.812V278.604H289.111V279.581H287.73V284.168C287.73 284.464 287.792 284.688 287.915 284.838C288.038 284.984 288.248 285.057 288.544 285.057C288.69 285.057 288.89 285.029 289.146 284.975V286C288.813 286.091 288.489 286.137 288.175 286.137C287.61 286.137 287.184 285.966 286.896 285.624C286.609 285.282 286.466 284.797 286.466 284.168V279.581H285.119V278.604H286.466V276.812H287.73ZM295.161 286C295.088 285.854 295.029 285.594 294.983 285.221C294.396 285.831 293.694 286.137 292.878 286.137C292.149 286.137 291.549 285.932 291.08 285.521C290.615 285.107 290.383 284.583 290.383 283.949C290.383 283.179 290.674 282.582 291.258 282.158C291.846 281.73 292.671 281.516 293.732 281.516H294.963V280.935C294.963 280.493 294.831 280.142 294.566 279.882C294.302 279.618 293.912 279.485 293.397 279.485C292.946 279.485 292.568 279.599 292.263 279.827C291.957 280.055 291.805 280.331 291.805 280.654H290.533C290.533 280.285 290.663 279.93 290.923 279.588C291.187 279.242 291.543 278.968 291.989 278.768C292.44 278.567 292.935 278.467 293.473 278.467C294.325 278.467 294.993 278.681 295.476 279.109C295.959 279.533 296.209 280.119 296.228 280.866V284.271C296.228 284.95 296.314 285.49 296.487 285.891V286H295.161ZM293.062 285.036C293.459 285.036 293.835 284.934 294.19 284.729C294.546 284.523 294.803 284.257 294.963 283.929V282.411H293.972C292.422 282.411 291.647 282.865 291.647 283.771C291.647 284.168 291.78 284.478 292.044 284.701C292.308 284.924 292.648 285.036 293.062 285.036ZM304.472 282.384C304.472 283.514 304.212 284.423 303.692 285.111C303.173 285.795 302.476 286.137 301.601 286.137C300.666 286.137 299.944 285.806 299.434 285.146L299.372 286H298.21V275.5H299.475V279.417C299.985 278.784 300.689 278.467 301.587 278.467C302.485 278.467 303.189 278.806 303.699 279.485C304.214 280.164 304.472 281.094 304.472 282.274V282.384ZM303.207 282.24C303.207 281.379 303.041 280.714 302.708 280.244C302.375 279.775 301.897 279.54 301.272 279.54C300.438 279.54 299.839 279.927 299.475 280.702V283.901C299.862 284.676 300.466 285.063 301.286 285.063C301.892 285.063 302.364 284.829 302.701 284.359C303.038 283.89 303.207 283.184 303.207 282.24ZM307.445 286H306.181V275.5H307.445V286ZM312.545 286.137C311.542 286.137 310.727 285.809 310.098 285.152C309.469 284.492 309.154 283.61 309.154 282.507V282.274C309.154 281.541 309.293 280.887 309.571 280.312C309.854 279.734 310.246 279.283 310.747 278.959C311.253 278.631 311.8 278.467 312.388 278.467C313.349 278.467 314.097 278.784 314.63 279.417C315.163 280.05 315.43 280.957 315.43 282.138V282.664H310.419C310.437 283.393 310.649 283.983 311.055 284.435C311.465 284.881 311.984 285.104 312.613 285.104C313.06 285.104 313.438 285.013 313.748 284.831C314.058 284.649 314.329 284.407 314.562 284.106L315.334 284.708C314.714 285.66 313.785 286.137 312.545 286.137ZM312.388 279.506C311.877 279.506 311.449 279.693 311.103 280.066C310.756 280.436 310.542 280.955 310.46 281.625H314.165V281.529C314.129 280.887 313.955 280.39 313.646 280.039C313.336 279.684 312.916 279.506 312.388 279.506Z" fill="black"/>
<path d="M287.874 121.337C287.874 121.118 287.938 120.936 288.065 120.79C288.198 120.644 288.394 120.571 288.653 120.571C288.913 120.571 289.109 120.644 289.241 120.79C289.378 120.936 289.446 121.118 289.446 121.337C289.446 121.547 289.378 121.722 289.241 121.863C289.109 122.005 288.913 122.075 288.653 122.075C288.394 122.075 288.198 122.005 288.065 121.863C287.938 121.722 287.874 121.547 287.874 121.337ZM293.254 112.812V114.604H294.635V115.581H293.254V120.168C293.254 120.464 293.315 120.688 293.438 120.838C293.562 120.984 293.771 121.057 294.067 121.057C294.213 121.057 294.414 121.029 294.669 120.975V122C294.336 122.091 294.013 122.137 293.698 122.137C293.133 122.137 292.707 121.966 292.42 121.624C292.133 121.282 291.989 120.797 291.989 120.168V115.581H290.643V114.604H291.989V112.812H293.254ZM299.188 122.137C298.185 122.137 297.369 121.809 296.74 121.152C296.111 120.492 295.797 119.61 295.797 118.507V118.274C295.797 117.541 295.936 116.887 296.214 116.312C296.496 115.734 296.888 115.283 297.39 114.959C297.896 114.631 298.442 114.467 299.03 114.467C299.992 114.467 300.739 114.784 301.272 115.417C301.806 116.05 302.072 116.957 302.072 118.138V118.664H297.062C297.08 119.393 297.292 119.983 297.697 120.435C298.107 120.881 298.627 121.104 299.256 121.104C299.702 121.104 300.081 121.013 300.391 120.831C300.701 120.649 300.972 120.407 301.204 120.106L301.977 120.708C301.357 121.66 300.427 122.137 299.188 122.137ZM299.03 115.506C298.52 115.506 298.091 115.693 297.745 116.066C297.399 116.436 297.185 116.955 297.103 117.625H300.808V117.529C300.771 116.887 300.598 116.39 300.288 116.039C299.978 115.684 299.559 115.506 299.03 115.506ZM306.023 117.304L307.664 114.604H309.141L306.721 118.261L309.216 122H307.753L306.044 119.231L304.335 122H302.865L305.36 118.261L302.94 114.604H304.403L306.023 117.304ZM312.203 112.812V114.604H313.584V115.581H312.203V120.168C312.203 120.464 312.265 120.688 312.388 120.838C312.511 120.984 312.72 121.057 313.017 121.057C313.162 121.057 313.363 121.029 313.618 120.975V122C313.285 122.091 312.962 122.137 312.647 122.137C312.082 122.137 311.656 121.966 311.369 121.624C311.082 121.282 310.938 120.797 310.938 120.168V115.581H309.592V114.604H310.938V112.812H312.203Z" fill="black"/>
<path d="M279.486 163.337C279.486 163.118 279.55 162.936 279.678 162.79C279.81 162.644 280.006 162.571 280.266 162.571C280.525 162.571 280.721 162.644 280.854 162.79C280.99 162.936 281.059 163.118 281.059 163.337C281.059 163.547 280.99 163.722 280.854 163.863C280.721 164.005 280.525 164.075 280.266 164.075C280.006 164.075 279.81 164.005 279.678 163.863C279.55 163.722 279.486 163.547 279.486 163.337ZM286.726 157.738C286.534 157.706 286.327 157.69 286.104 157.69C285.274 157.69 284.711 158.044 284.415 158.75V164H283.15V156.604H284.381L284.401 157.458C284.816 156.797 285.404 156.467 286.165 156.467C286.411 156.467 286.598 156.499 286.726 156.562V157.738ZM287.423 160.233C287.423 159.509 287.564 158.857 287.847 158.278C288.134 157.7 288.53 157.253 289.036 156.938C289.547 156.624 290.128 156.467 290.779 156.467C291.786 156.467 292.6 156.815 293.22 157.513C293.844 158.21 294.156 159.137 294.156 160.295V160.384C294.156 161.104 294.017 161.751 293.739 162.325C293.466 162.895 293.072 163.339 292.557 163.658C292.046 163.977 291.458 164.137 290.793 164.137C289.79 164.137 288.977 163.788 288.353 163.091C287.733 162.394 287.423 161.471 287.423 160.322V160.233ZM288.694 160.384C288.694 161.204 288.883 161.863 289.262 162.359C289.645 162.856 290.155 163.104 290.793 163.104C291.436 163.104 291.946 162.854 292.324 162.353C292.702 161.847 292.892 161.14 292.892 160.233C292.892 159.422 292.698 158.766 292.311 158.265C291.928 157.759 291.417 157.506 290.779 157.506C290.155 157.506 289.651 157.754 289.269 158.251C288.886 158.748 288.694 159.459 288.694 160.384ZM295.435 160.24C295.435 159.105 295.703 158.194 296.241 157.506C296.779 156.813 297.483 156.467 298.354 156.467C299.219 156.467 299.905 156.763 300.411 157.355V153.5H301.676V164H300.514L300.452 163.207C299.946 163.827 299.242 164.137 298.34 164.137C297.483 164.137 296.784 163.786 296.241 163.084C295.703 162.382 295.435 161.466 295.435 160.336V160.24ZM296.699 160.384C296.699 161.222 296.872 161.879 297.219 162.353C297.565 162.826 298.044 163.063 298.654 163.063C299.456 163.063 300.042 162.703 300.411 161.983V158.586C300.033 157.889 299.452 157.54 298.668 157.54C298.048 157.54 297.565 157.779 297.219 158.258C296.872 158.736 296.699 159.445 296.699 160.384ZM308.211 164C308.138 163.854 308.079 163.594 308.033 163.221C307.445 163.831 306.743 164.137 305.928 164.137C305.199 164.137 304.599 163.932 304.13 163.521C303.665 163.107 303.433 162.583 303.433 161.949C303.433 161.179 303.724 160.582 304.308 160.158C304.896 159.73 305.72 159.516 306.782 159.516H308.013V158.935C308.013 158.493 307.881 158.142 307.616 157.882C307.352 157.618 306.962 157.485 306.447 157.485C305.996 157.485 305.618 157.599 305.312 157.827C305.007 158.055 304.854 158.331 304.854 158.654H303.583C303.583 158.285 303.713 157.93 303.973 157.588C304.237 157.242 304.592 156.968 305.039 156.768C305.49 156.567 305.985 156.467 306.522 156.467C307.375 156.467 308.042 156.681 308.525 157.109C309.008 157.533 309.259 158.119 309.277 158.866V162.271C309.277 162.95 309.364 163.49 309.537 163.891V164H308.211ZM306.112 163.036C306.509 163.036 306.885 162.934 307.24 162.729C307.596 162.523 307.853 162.257 308.013 161.929V160.411H307.021C305.472 160.411 304.697 160.865 304.697 161.771C304.697 162.168 304.829 162.478 305.094 162.701C305.358 162.924 305.698 163.036 306.112 163.036ZM312.976 154.812V156.604H314.356V157.581H312.976V162.168C312.976 162.464 313.037 162.688 313.16 162.838C313.283 162.984 313.493 163.057 313.789 163.057C313.935 163.057 314.135 163.029 314.391 162.975V164C314.058 164.091 313.734 164.137 313.42 164.137C312.855 164.137 312.429 163.966 312.142 163.624C311.854 163.282 311.711 162.797 311.711 162.168V157.581H310.364V156.604H311.711V154.812H312.976ZM320.406 164C320.333 163.854 320.274 163.594 320.229 163.221C319.641 163.831 318.939 164.137 318.123 164.137C317.394 164.137 316.795 163.932 316.325 163.521C315.86 163.107 315.628 162.583 315.628 161.949C315.628 161.179 315.92 160.582 316.503 160.158C317.091 159.73 317.916 159.516 318.978 159.516H320.208V158.935C320.208 158.493 320.076 158.142 319.812 157.882C319.547 157.618 319.158 157.485 318.643 157.485C318.191 157.485 317.813 157.599 317.508 157.827C317.202 158.055 317.05 158.331 317.05 158.654H315.778C315.778 158.285 315.908 157.93 316.168 157.588C316.432 157.242 316.788 156.968 317.234 156.768C317.686 156.567 318.18 156.467 318.718 156.467C319.57 156.467 320.238 156.681 320.721 157.109C321.204 157.533 321.454 158.119 321.473 158.866V162.271C321.473 162.95 321.559 163.49 321.732 163.891V164H320.406ZM318.308 163.036C318.704 163.036 319.08 162.934 319.436 162.729C319.791 162.523 320.049 162.257 320.208 161.929V160.411H319.217C317.667 160.411 316.893 160.865 316.893 161.771C316.893 162.168 317.025 162.478 317.289 162.701C317.553 162.924 317.893 163.036 318.308 163.036Z" fill="black"/>
<path d="M295.947 197.337C295.947 197.118 296.011 196.936 296.139 196.79C296.271 196.644 296.467 196.571 296.727 196.571C296.986 196.571 297.182 196.644 297.314 196.79C297.451 196.936 297.52 197.118 297.52 197.337C297.52 197.547 297.451 197.722 297.314 197.863C297.182 198.005 296.986 198.075 296.727 198.075C296.467 198.075 296.271 198.005 296.139 197.863C296.011 197.722 295.947 197.547 295.947 197.337ZM299.639 197.337C299.639 197.118 299.702 196.936 299.83 196.79C299.962 196.644 300.158 196.571 300.418 196.571C300.678 196.571 300.874 196.644 301.006 196.79C301.143 196.936 301.211 197.118 301.211 197.337C301.211 197.547 301.143 197.722 301.006 197.863C300.874 198.005 300.678 198.075 300.418 198.075C300.158 198.075 299.962 198.005 299.83 197.863C299.702 197.722 299.639 197.547 299.639 197.337ZM303.33 197.337C303.33 197.118 303.394 196.936 303.521 196.79C303.654 196.644 303.85 196.571 304.109 196.571C304.369 196.571 304.565 196.644 304.697 196.79C304.834 196.936 304.902 197.118 304.902 197.337C304.902 197.547 304.834 197.722 304.697 197.863C304.565 198.005 304.369 198.075 304.109 198.075C303.85 198.075 303.654 198.005 303.521 197.863C303.394 197.722 303.33 197.547 303.33 197.337Z" fill="black"/>
</svg>
