<svg width="600" height="300" viewBox="0 0 600 300" fill="none" xmlns="http://www.w3.org/2000/svg">
<rect width="600" height="300" fill="white"/>
<path d="M150.128 67.5C146.441 76.3922 146.858 82.9892 146.858 92.7896C146.858 101.176 148.066 109.203 148.493 117.314C148.883 124.725 155.033 132.447 155.033 140.203C155.033 149.702 151.867 159.327 145.223 166.362C138.536 173.442 130.636 181.788 121.062 185.617C114.324 188.313 112.318 196.104 115.431 202.33C117.81 207.089 135.356 207.442 140.318 205.237C152.114 199.994 150.128 210.021 150.128 218.679" stroke="black" stroke-width="3" stroke-linecap="round"/>
<path d="M150.128 218.679V244.838" stroke="white" stroke-width="3" stroke-linecap="round"/>
<path d="M150.128 218.679C150.128 219.259 152.174 242.8 157.031 235.029C158.388 232.858 171.148 231.008 173.925 230.215C179.864 228.518 206.413 218.67 209.803 226.127C212.715 232.534 212 239.934 204.898 239.934C198.346 239.934 192.346 241.568 186.096 241.568C179.601 241.568 173.43 243.203 167.295 243.203C165.456 243.203 149.95 244.11 155.033 241.568" stroke="black" stroke-width="3" stroke-linecap="round"/>
<path d="M153.398 248.108C153.671 259.314 162.336 284.077 176.287 284.077" stroke="black" stroke-width="3" stroke-linecap="round"/>
<path d="M176.287 141.838C173.525 148.915 170.929 160.297 171.382 167.997C171.463 169.383 187.659 168.193 191.001 167.997C193.775 167.833 194.494 153.584 189.366 153.282C185.647 153.063 179.639 146.784 176.287 145.108" stroke="black" stroke-width="3" stroke-linecap="round"/>
<path d="M180.647 160.12C176.174 156.905 177.748 159.863 179.853 160.915" stroke="black" stroke-width="3" stroke-linecap="round"/>
<path d="M369.383 84C369.383 102.294 357.165 119.022 337.06 131.228C316.972 143.424 289.158 151 258.383 151C227.607 151 199.793 143.424 179.706 131.228C159.6 119.022 147.383 102.294 147.383 84C147.383 65.7057 159.6 48.9783 179.706 36.7715C199.793 24.5758 227.607 17 258.383 17C289.158 17 316.972 24.5758 337.06 36.7715C357.165 48.9783 369.383 65.7057 369.383 84Z" fill="#4267B2" stroke="black" stroke-width="2"/>
<path d="M221.32 46H219.624L213.182 36.1387V46H211.485V33.2031H213.182L219.642 43.1084V33.2031H221.32V46ZM228.009 46.1758C226.72 46.1758 225.671 45.7539 224.862 44.9102C224.054 44.0605 223.649 42.9268 223.649 41.5088V41.21C223.649 40.2666 223.828 39.4258 224.186 38.6875C224.549 37.9434 225.053 37.3633 225.697 36.9473C226.348 36.5254 227.051 36.3145 227.807 36.3145C229.043 36.3145 230.004 36.7217 230.689 37.5361C231.375 38.3506 231.718 39.5166 231.718 41.0342V41.7109H225.275C225.299 42.6484 225.571 43.4072 226.093 43.9873C226.62 44.5615 227.288 44.8486 228.097 44.8486C228.671 44.8486 229.157 44.7314 229.556 44.4971C229.954 44.2627 230.303 43.9521 230.602 43.5654L231.595 44.3389C230.798 45.5635 229.603 46.1758 228.009 46.1758ZM227.807 37.6504C227.15 37.6504 226.6 37.8906 226.154 38.3711C225.709 38.8457 225.434 39.5137 225.328 40.375H230.092V40.252C230.045 39.4258 229.822 38.7871 229.424 38.3359C229.025 37.8789 228.486 37.6504 227.807 37.6504ZM233.177 41.1572C233.177 40.2256 233.358 39.3877 233.722 38.6436C234.091 37.8994 234.601 37.3252 235.251 36.9209C235.907 36.5166 236.654 36.3145 237.492 36.3145C238.787 36.3145 239.833 36.7627 240.63 37.6592C241.433 38.5557 241.834 39.748 241.834 41.2363V41.3506C241.834 42.2764 241.655 43.1084 241.298 43.8467C240.946 44.5791 240.439 45.1504 239.777 45.5605C239.121 45.9707 238.365 46.1758 237.51 46.1758C236.221 46.1758 235.175 45.7275 234.372 44.8311C233.575 43.9346 233.177 42.748 233.177 41.2715V41.1572ZM234.812 41.3506C234.812 42.4053 235.055 43.252 235.541 43.8906C236.033 44.5293 236.689 44.8486 237.51 44.8486C238.336 44.8486 238.992 44.5264 239.479 43.8818C239.965 43.2314 240.208 42.3232 240.208 41.1572C240.208 40.1143 239.959 39.2705 239.461 38.626C238.969 37.9756 238.312 37.6504 237.492 37.6504C236.689 37.6504 236.042 37.9697 235.55 38.6084C235.058 39.2471 234.812 40.1611 234.812 41.3506ZM247.688 44.8486C248.268 44.8486 248.774 44.6729 249.208 44.3213C249.642 43.9697 249.882 43.5303 249.929 43.0029H251.467C251.438 43.5479 251.25 44.0664 250.904 44.5586C250.559 45.0508 250.096 45.4434 249.516 45.7363C248.941 46.0293 248.332 46.1758 247.688 46.1758C246.393 46.1758 245.361 45.7451 244.594 44.8838C243.832 44.0166 243.451 42.833 243.451 41.333V41.0605C243.451 40.1348 243.621 39.3115 243.961 38.5908C244.301 37.8701 244.787 37.3105 245.42 36.9121C246.059 36.5137 246.812 36.3145 247.679 36.3145C248.745 36.3145 249.63 36.6338 250.333 37.2725C251.042 37.9111 251.42 38.7402 251.467 39.7598H249.929C249.882 39.1445 249.647 38.6406 249.226 38.248C248.81 37.8496 248.294 37.6504 247.679 37.6504C246.853 37.6504 246.211 37.9492 245.754 38.5469C245.303 39.1387 245.077 39.9971 245.077 41.1221V41.4297C245.077 42.5254 245.303 43.3691 245.754 43.9609C246.205 44.5527 246.85 44.8486 247.688 44.8486ZM252.864 41.1572C252.864 40.2256 253.046 39.3877 253.409 38.6436C253.778 37.8994 254.288 37.3252 254.938 36.9209C255.595 36.5166 256.342 36.3145 257.18 36.3145C258.475 36.3145 259.521 36.7627 260.317 37.6592C261.12 38.5557 261.521 39.748 261.521 41.2363V41.3506C261.521 42.2764 261.343 43.1084 260.985 43.8467C260.634 44.5791 260.127 45.1504 259.465 45.5605C258.809 45.9707 258.053 46.1758 257.197 46.1758C255.908 46.1758 254.862 45.7275 254.06 44.8311C253.263 43.9346 252.864 42.748 252.864 41.2715V41.1572ZM254.499 41.3506C254.499 42.4053 254.742 43.252 255.229 43.8906C255.721 44.5293 256.377 44.8486 257.197 44.8486C258.023 44.8486 258.68 44.5264 259.166 43.8818C259.652 43.2314 259.896 42.3232 259.896 41.1572C259.896 40.1143 259.646 39.2705 259.148 38.626C258.656 37.9756 258 37.6504 257.18 37.6504C256.377 37.6504 255.729 37.9697 255.237 38.6084C254.745 39.2471 254.499 40.1611 254.499 41.3506ZM268.157 37.9492C267.911 37.9082 267.645 37.8877 267.357 37.8877C266.291 37.8877 265.567 38.3418 265.187 39.25V46H263.561V36.4902H265.143L265.169 37.5889C265.702 36.7393 266.458 36.3145 267.437 36.3145C267.753 36.3145 267.993 36.3555 268.157 36.4375V37.9492ZM272.306 34.1875V36.4902H274.081V37.7471H272.306V43.6445C272.306 44.0254 272.385 44.3125 272.543 44.5059C272.701 44.6934 272.971 44.7871 273.352 44.7871C273.539 44.7871 273.797 44.752 274.125 44.6816V46C273.697 46.1172 273.281 46.1758 272.877 46.1758C272.15 46.1758 271.603 45.9561 271.233 45.5166C270.864 45.0771 270.68 44.4531 270.68 43.6445V37.7471H268.948V36.4902H270.68V34.1875H272.306ZM279.935 46.1758C278.646 46.1758 277.597 45.7539 276.788 44.9102C275.979 44.0605 275.575 42.9268 275.575 41.5088V41.21C275.575 40.2666 275.754 39.4258 276.111 38.6875C276.475 37.9434 276.979 37.3633 277.623 36.9473C278.273 36.5254 278.977 36.3145 279.732 36.3145C280.969 36.3145 281.93 36.7217 282.615 37.5361C283.301 38.3506 283.644 39.5166 283.644 41.0342V41.7109H277.201C277.225 42.6484 277.497 43.4072 278.019 43.9873C278.546 44.5615 279.214 44.8486 280.022 44.8486C280.597 44.8486 281.083 44.7314 281.481 44.4971C281.88 44.2627 282.229 43.9521 282.527 43.5654L283.521 44.3389C282.724 45.5635 281.528 46.1758 279.935 46.1758ZM279.732 37.6504C279.076 37.6504 278.525 37.8906 278.08 38.3711C277.635 38.8457 277.359 39.5137 277.254 40.375H282.018V40.252C281.971 39.4258 281.748 38.7871 281.35 38.3359C280.951 37.8789 280.412 37.6504 279.732 37.6504ZM288.724 39.9619L290.833 36.4902H292.731L289.62 41.1924L292.828 46H290.947L288.75 42.4404L286.553 46H284.663L287.871 41.1924L284.76 36.4902H286.641L288.724 39.9619Z" fill="white"/>
<path d="M326 91.5C326 100.126 318.391 108.252 305.346 114.28C292.385 120.269 274.409 124 254.5 124C234.591 124 216.615 120.269 203.654 114.28C190.609 108.252 183 100.126 183 91.5C183 82.8738 190.609 74.7476 203.654 68.7197C216.615 62.7308 234.591 59 254.5 59C274.409 59 292.385 62.7308 305.346 68.7197C318.391 74.7476 326 82.8738 326 91.5Z" fill="#84FF70" stroke="black" stroke-width="2"/>
<path d="M205.32 97H203.624V91.085H197.173V97H195.485V84.2031H197.173V89.7051H203.624V84.2031H205.32V97ZM211.174 94.6182L213.389 87.4902H215.129L211.306 98.4678C210.714 100.05 209.773 100.841 208.484 100.841L208.177 100.814L207.57 100.7V99.3818L208.01 99.417C208.561 99.417 208.988 99.3057 209.293 99.083C209.604 98.8604 209.858 98.4531 210.058 97.8613L210.418 96.8945L207.025 87.4902H208.801L211.174 94.6182ZM224.621 92.3506C224.621 93.7979 224.29 94.9639 223.628 95.8486C222.966 96.7334 222.069 97.1758 220.938 97.1758C219.784 97.1758 218.876 96.8096 218.214 96.0771V100.656H216.588V87.4902H218.073L218.152 88.5449C218.814 87.7246 219.734 87.3145 220.912 87.3145C222.055 87.3145 222.957 87.7451 223.619 88.6064C224.287 89.4678 224.621 90.666 224.621 92.2012V92.3506ZM222.995 92.166C222.995 91.0938 222.767 90.2471 222.31 89.626C221.853 89.0049 221.226 88.6943 220.429 88.6943C219.444 88.6943 218.706 89.1309 218.214 90.0039V94.5479C218.7 95.415 219.444 95.8486 220.446 95.8486C221.226 95.8486 221.844 95.541 222.301 94.9258C222.764 94.3047 222.995 93.3848 222.995 92.166ZM226.265 92.1572C226.265 91.2256 226.446 90.3877 226.81 89.6436C227.179 88.8994 227.688 88.3252 228.339 87.9209C228.995 87.5166 229.742 87.3145 230.58 87.3145C231.875 87.3145 232.921 87.7627 233.718 88.6592C234.521 89.5557 234.922 90.748 234.922 92.2363V92.3506C234.922 93.2764 234.743 94.1084 234.386 94.8467C234.034 95.5791 233.527 96.1504 232.865 96.5605C232.209 96.9707 231.453 97.1758 230.598 97.1758C229.309 97.1758 228.263 96.7275 227.46 95.8311C226.663 94.9346 226.265 93.748 226.265 92.2715V92.1572ZM227.899 92.3506C227.899 93.4053 228.143 94.252 228.629 94.8906C229.121 95.5293 229.777 95.8486 230.598 95.8486C231.424 95.8486 232.08 95.5264 232.566 94.8818C233.053 94.2314 233.296 93.3232 233.296 92.1572C233.296 91.1143 233.047 90.2705 232.549 89.626C232.057 88.9756 231.4 88.6504 230.58 88.6504C229.777 88.6504 229.13 88.9697 228.638 89.6084C228.146 90.2471 227.899 91.1611 227.899 92.3506ZM239.167 85.1875V87.4902H240.942V88.7471H239.167V94.6445C239.167 95.0254 239.246 95.3125 239.404 95.5059C239.562 95.6934 239.832 95.7871 240.213 95.7871C240.4 95.7871 240.658 95.752 240.986 95.6816V97C240.559 97.1172 240.143 97.1758 239.738 97.1758C239.012 97.1758 238.464 96.9561 238.095 96.5166C237.726 96.0771 237.541 95.4531 237.541 94.6445V88.7471H235.81V87.4902H237.541V85.1875H239.167ZM244.476 88.6416C245.196 87.7568 246.134 87.3145 247.288 87.3145C249.298 87.3145 250.312 88.4482 250.329 90.7158V97H248.703V90.707C248.697 90.0215 248.539 89.5146 248.229 89.1865C247.924 88.8584 247.446 88.6943 246.796 88.6943C246.269 88.6943 245.806 88.835 245.407 89.1162C245.009 89.3975 244.698 89.7666 244.476 90.2236V97H242.85V83.5H244.476V88.6416ZM258.635 97C258.541 96.8125 258.465 96.4785 258.406 95.998C257.65 96.7832 256.748 97.1758 255.699 97.1758C254.762 97.1758 253.991 96.9121 253.388 96.3848C252.79 95.8516 252.491 95.1777 252.491 94.3633C252.491 93.373 252.866 92.6055 253.616 92.0605C254.372 91.5098 255.433 91.2344 256.798 91.2344H258.38V90.4873C258.38 89.9189 258.21 89.4678 257.87 89.1338C257.53 88.7939 257.029 88.624 256.367 88.624C255.787 88.624 255.301 88.7705 254.908 89.0635C254.516 89.3564 254.319 89.7109 254.319 90.127H252.685C252.685 89.6523 252.852 89.1953 253.186 88.7559C253.525 88.3105 253.982 87.959 254.557 87.7012C255.137 87.4434 255.772 87.3145 256.464 87.3145C257.56 87.3145 258.418 87.5898 259.039 88.1406C259.66 88.6855 259.982 89.4385 260.006 90.3994V94.7764C260.006 95.6494 260.117 96.3438 260.34 96.8594V97H258.635ZM255.937 95.7607C256.446 95.7607 256.93 95.6289 257.387 95.3652C257.844 95.1016 258.175 94.7588 258.38 94.3369V92.3857H257.105C255.113 92.3857 254.117 92.9688 254.117 94.1348C254.117 94.6445 254.287 95.043 254.627 95.3301C254.967 95.6172 255.403 95.7607 255.937 95.7607ZM264.321 97H262.695V83.5H264.321V97ZM272.803 97C272.709 96.8125 272.633 96.4785 272.574 95.998C271.818 96.7832 270.916 97.1758 269.867 97.1758C268.93 97.1758 268.159 96.9121 267.556 96.3848C266.958 95.8516 266.659 95.1777 266.659 94.3633C266.659 93.373 267.034 92.6055 267.784 92.0605C268.54 91.5098 269.601 91.2344 270.966 91.2344H272.548V90.4873C272.548 89.9189 272.378 89.4678 272.038 89.1338C271.698 88.7939 271.197 88.624 270.535 88.624C269.955 88.624 269.469 88.7705 269.076 89.0635C268.684 89.3564 268.487 89.7109 268.487 90.127H266.853C266.853 89.6523 267.02 89.1953 267.354 88.7559C267.693 88.3105 268.15 87.959 268.725 87.7012C269.305 87.4434 269.94 87.3145 270.632 87.3145C271.728 87.3145 272.586 87.5898 273.207 88.1406C273.828 88.6855 274.15 89.4385 274.174 90.3994V94.7764C274.174 95.6494 274.285 96.3438 274.508 96.8594V97H272.803ZM270.104 95.7607C270.614 95.7607 271.098 95.6289 271.555 95.3652C272.012 95.1016 272.343 94.7588 272.548 94.3369V92.3857H271.273C269.281 92.3857 268.285 92.9688 268.285 94.1348C268.285 94.6445 268.455 95.043 268.795 95.3301C269.135 95.6172 269.571 95.7607 270.104 95.7607ZM278.252 87.4902L278.296 88.5449C278.993 87.7246 279.934 87.3145 281.117 87.3145C282.447 87.3145 283.353 87.8242 283.833 88.8438C284.149 88.3867 284.56 88.0176 285.063 87.7363C285.573 87.4551 286.174 87.3145 286.865 87.3145C288.951 87.3145 290.012 88.4189 290.047 90.6279V97H288.421V90.7246C288.421 90.0449 288.266 89.5381 287.955 89.2041C287.645 88.8643 287.123 88.6943 286.391 88.6943C285.787 88.6943 285.286 88.876 284.888 89.2393C284.489 89.5967 284.258 90.0801 284.193 90.6895V97H282.559V90.7686C282.559 89.3857 281.882 88.6943 280.528 88.6943C279.462 88.6943 278.732 89.1484 278.34 90.0566V97H276.714V87.4902H278.252ZM298.379 96.0596C297.746 96.8037 296.817 97.1758 295.593 97.1758C294.579 97.1758 293.806 96.8828 293.272 96.2969C292.745 95.7051 292.479 94.832 292.473 93.6777V87.4902H294.099V93.6338C294.099 95.0752 294.685 95.7959 295.856 95.7959C297.099 95.7959 297.925 95.333 298.335 94.4072V87.4902H299.961V97H298.414L298.379 96.0596ZM307.977 94.4775C307.977 94.0381 307.81 93.6982 307.476 93.458C307.147 93.2119 306.57 93.001 305.744 92.8252C304.924 92.6494 304.271 92.4385 303.784 92.1924C303.304 91.9463 302.946 91.6533 302.712 91.3135C302.483 90.9736 302.369 90.5693 302.369 90.1006C302.369 89.3213 302.697 88.6621 303.354 88.123C304.016 87.584 304.859 87.3145 305.885 87.3145C306.963 87.3145 307.836 87.5928 308.504 88.1494C309.178 88.7061 309.515 89.418 309.515 90.2852H307.88C307.88 89.8398 307.689 89.4561 307.309 89.1338C306.934 88.8115 306.459 88.6504 305.885 88.6504C305.293 88.6504 304.83 88.7793 304.496 89.0371C304.162 89.2949 303.995 89.6318 303.995 90.0479C303.995 90.4404 304.15 90.7363 304.461 90.9355C304.771 91.1348 305.331 91.3252 306.14 91.5068C306.954 91.6885 307.613 91.9053 308.117 92.1572C308.621 92.4092 308.993 92.7139 309.233 93.0713C309.479 93.4229 309.603 93.8535 309.603 94.3633C309.603 95.2129 309.263 95.8955 308.583 96.4111C307.903 96.9209 307.021 97.1758 305.938 97.1758C305.176 97.1758 304.502 97.041 303.916 96.7715C303.33 96.502 302.87 96.127 302.536 95.6465C302.208 95.1602 302.044 94.6357 302.044 94.0732H303.67C303.699 94.6182 303.916 95.0518 304.32 95.374C304.73 95.6904 305.27 95.8486 305.938 95.8486C306.553 95.8486 307.045 95.7256 307.414 95.4795C307.789 95.2275 307.977 94.8936 307.977 94.4775Z" fill="black"/>
<path d="M365.898 171.939C365.74 173.293 365.239 174.339 364.396 175.077C363.558 175.81 362.441 176.176 361.047 176.176C359.535 176.176 358.322 175.634 357.408 174.55C356.5 173.466 356.046 172.016 356.046 170.199V168.969C356.046 167.779 356.257 166.733 356.679 165.831C357.106 164.929 357.71 164.237 358.489 163.757C359.269 163.271 360.171 163.027 361.196 163.027C362.556 163.027 363.646 163.408 364.466 164.17C365.286 164.926 365.764 165.975 365.898 167.316H364.202C364.056 166.297 363.736 165.559 363.244 165.102C362.758 164.645 362.075 164.416 361.196 164.416C360.118 164.416 359.271 164.814 358.656 165.611C358.047 166.408 357.742 167.542 357.742 169.013V170.252C357.742 171.641 358.032 172.745 358.612 173.565C359.192 174.386 360.004 174.796 361.047 174.796C361.984 174.796 362.702 174.585 363.2 174.163C363.704 173.735 364.038 172.994 364.202 171.939H365.898ZM371.901 176.176C370.612 176.176 369.563 175.754 368.755 174.91C367.946 174.061 367.542 172.927 367.542 171.509V171.21C367.542 170.267 367.721 169.426 368.078 168.688C368.441 167.943 368.945 167.363 369.59 166.947C370.24 166.525 370.943 166.314 371.699 166.314C372.936 166.314 373.896 166.722 374.582 167.536C375.268 168.351 375.61 169.517 375.61 171.034V171.711H369.168C369.191 172.648 369.464 173.407 369.985 173.987C370.513 174.562 371.181 174.849 371.989 174.849C372.563 174.849 373.05 174.731 373.448 174.497C373.847 174.263 374.195 173.952 374.494 173.565L375.487 174.339C374.69 175.563 373.495 176.176 371.901 176.176ZM371.699 167.65C371.043 167.65 370.492 167.891 370.047 168.371C369.602 168.846 369.326 169.514 369.221 170.375H373.984V170.252C373.938 169.426 373.715 168.787 373.316 168.336C372.918 167.879 372.379 167.65 371.699 167.65ZM382.097 167.949C381.851 167.908 381.584 167.888 381.297 167.888C380.23 167.888 379.507 168.342 379.126 169.25V176H377.5V166.49H379.082L379.108 167.589C379.642 166.739 380.397 166.314 381.376 166.314C381.692 166.314 381.933 166.355 382.097 166.438V167.949ZM387.37 176.176C386.081 176.176 385.032 175.754 384.224 174.91C383.415 174.061 383.011 172.927 383.011 171.509V171.21C383.011 170.267 383.189 169.426 383.547 168.688C383.91 167.943 384.414 167.363 385.059 166.947C385.709 166.525 386.412 166.314 387.168 166.314C388.404 166.314 389.365 166.722 390.051 167.536C390.736 168.351 391.079 169.517 391.079 171.034V171.711H384.637C384.66 172.648 384.933 173.407 385.454 173.987C385.981 174.562 386.649 174.849 387.458 174.849C388.032 174.849 388.519 174.731 388.917 174.497C389.315 174.263 389.664 173.952 389.963 173.565L390.956 174.339C390.159 175.563 388.964 176.176 387.37 176.176ZM387.168 167.65C386.512 167.65 385.961 167.891 385.516 168.371C385.07 168.846 384.795 169.514 384.689 170.375H389.453V170.252C389.406 169.426 389.184 168.787 388.785 168.336C388.387 167.879 387.848 167.65 387.168 167.65ZM401.02 171.351C401.02 172.804 400.686 173.973 400.018 174.857C399.35 175.736 398.453 176.176 397.328 176.176C396.127 176.176 395.198 175.751 394.542 174.901L394.463 176H392.969V162.5H394.595V167.536C395.251 166.722 396.156 166.314 397.311 166.314C398.465 166.314 399.37 166.751 400.026 167.624C400.688 168.497 401.02 169.692 401.02 171.21V171.351ZM399.394 171.166C399.394 170.059 399.18 169.203 398.752 168.6C398.324 167.996 397.709 167.694 396.906 167.694C395.834 167.694 395.063 168.192 394.595 169.188V173.302C395.093 174.298 395.869 174.796 396.924 174.796C397.703 174.796 398.31 174.494 398.743 173.891C399.177 173.287 399.394 172.379 399.394 171.166ZM407.022 176.176C405.733 176.176 404.685 175.754 403.876 174.91C403.067 174.061 402.663 172.927 402.663 171.509V171.21C402.663 170.267 402.842 169.426 403.199 168.688C403.562 167.943 404.066 167.363 404.711 166.947C405.361 166.525 406.064 166.314 406.82 166.314C408.057 166.314 409.018 166.722 409.703 167.536C410.389 168.351 410.731 169.517 410.731 171.034V171.711H404.289C404.312 172.648 404.585 173.407 405.106 173.987C405.634 174.562 406.302 174.849 407.11 174.849C407.685 174.849 408.171 174.731 408.569 174.497C408.968 174.263 409.316 173.952 409.615 173.565L410.608 174.339C409.812 175.563 408.616 176.176 407.022 176.176ZM406.82 167.65C406.164 167.65 405.613 167.891 405.168 168.371C404.723 168.846 404.447 169.514 404.342 170.375H409.105V170.252C409.059 169.426 408.836 168.787 408.438 168.336C408.039 167.879 407.5 167.65 406.82 167.65ZM414.388 176H412.762V162.5H414.388V176ZM418.765 176H417.139V162.5H418.765V176ZM427.246 175.06C426.613 175.804 425.685 176.176 424.46 176.176C423.446 176.176 422.673 175.883 422.14 175.297C421.612 174.705 421.346 173.832 421.34 172.678V166.49H422.966V172.634C422.966 174.075 423.552 174.796 424.724 174.796C425.966 174.796 426.792 174.333 427.202 173.407V166.49H428.828V176H427.281L427.246 175.06ZM432.836 166.49L432.88 167.545C433.577 166.725 434.518 166.314 435.701 166.314C437.031 166.314 437.937 166.824 438.417 167.844C438.733 167.387 439.144 167.018 439.647 166.736C440.157 166.455 440.758 166.314 441.449 166.314C443.535 166.314 444.596 167.419 444.631 169.628V176H443.005V169.725C443.005 169.045 442.85 168.538 442.539 168.204C442.229 167.864 441.707 167.694 440.975 167.694C440.371 167.694 439.87 167.876 439.472 168.239C439.073 168.597 438.842 169.08 438.777 169.689V176H437.143V169.769C437.143 168.386 436.466 167.694 435.112 167.694C434.046 167.694 433.316 168.148 432.924 169.057V176H431.298V166.49H432.836ZM451.214 172.563C451.214 171.948 451.384 171.383 451.724 170.867C452.069 170.352 452.726 169.751 453.692 169.065C453.124 168.374 452.743 167.817 452.55 167.396C452.356 166.974 452.26 166.555 452.26 166.139C452.26 165.166 452.547 164.404 453.121 163.854C453.695 163.303 454.475 163.027 455.459 163.027C456.338 163.027 457.064 163.285 457.639 163.801C458.213 164.311 458.5 164.955 458.5 165.734C458.5 166.25 458.368 166.728 458.104 167.167C457.847 167.601 457.393 168.058 456.742 168.538L455.802 169.232L458.649 172.634C459.048 171.872 459.247 171.025 459.247 170.094H460.715C460.715 171.588 460.354 172.827 459.634 173.812L461.462 176H459.511L458.658 174.989C458.225 175.376 457.715 175.672 457.129 175.877C456.549 176.076 455.957 176.176 455.354 176.176C454.105 176.176 453.104 175.845 452.348 175.183C451.592 174.521 451.214 173.647 451.214 172.563ZM455.354 174.849C456.215 174.849 457.003 174.521 457.718 173.864L454.598 170.129L454.308 170.34C453.329 171.061 452.84 171.802 452.84 172.563C452.84 173.255 453.062 173.809 453.508 174.225C453.959 174.641 454.574 174.849 455.354 174.849ZM453.886 166.086C453.886 166.648 454.231 167.352 454.923 168.195L455.96 167.466C456.358 167.185 456.631 166.918 456.777 166.666C456.924 166.408 456.997 166.098 456.997 165.734C456.997 165.342 456.851 165.017 456.558 164.759C456.265 164.495 455.896 164.363 455.45 164.363C454.97 164.363 454.589 164.527 454.308 164.855C454.026 165.178 453.886 165.588 453.886 166.086ZM364.281 192.351C364.281 193.804 363.947 194.973 363.279 195.857C362.611 196.736 361.715 197.176 360.59 197.176C359.389 197.176 358.46 196.751 357.804 195.901L357.725 197H356.23V183.5H357.856V188.536C358.513 187.722 359.418 187.314 360.572 187.314C361.727 187.314 362.632 187.751 363.288 188.624C363.95 189.497 364.281 190.692 364.281 192.21V192.351ZM362.655 192.166C362.655 191.059 362.441 190.203 362.014 189.6C361.586 188.996 360.971 188.694 360.168 188.694C359.096 188.694 358.325 189.192 357.856 190.188V194.302C358.354 195.298 359.131 195.796 360.186 195.796C360.965 195.796 361.571 195.494 362.005 194.891C362.438 194.287 362.655 193.379 362.655 192.166ZM370.935 188.949C370.688 188.908 370.422 188.888 370.135 188.888C369.068 188.888 368.345 189.342 367.964 190.25V197H366.338V187.49H367.92L367.946 188.589C368.479 187.739 369.235 187.314 370.214 187.314C370.53 187.314 370.771 187.355 370.935 187.438V188.949ZM377.957 197C377.863 196.812 377.787 196.479 377.729 195.998C376.973 196.783 376.07 197.176 375.021 197.176C374.084 197.176 373.313 196.912 372.71 196.385C372.112 195.852 371.813 195.178 371.813 194.363C371.813 193.373 372.188 192.605 372.938 192.061C373.694 191.51 374.755 191.234 376.12 191.234H377.702V190.487C377.702 189.919 377.532 189.468 377.192 189.134C376.853 188.794 376.352 188.624 375.689 188.624C375.109 188.624 374.623 188.771 374.23 189.063C373.838 189.356 373.642 189.711 373.642 190.127H372.007C372.007 189.652 372.174 189.195 372.508 188.756C372.848 188.311 373.305 187.959 373.879 187.701C374.459 187.443 375.095 187.314 375.786 187.314C376.882 187.314 377.74 187.59 378.361 188.141C378.982 188.686 379.305 189.438 379.328 190.399V194.776C379.328 195.649 379.439 196.344 379.662 196.859V197H377.957ZM375.259 195.761C375.769 195.761 376.252 195.629 376.709 195.365C377.166 195.102 377.497 194.759 377.702 194.337V192.386H376.428C374.436 192.386 373.439 192.969 373.439 194.135C373.439 194.645 373.609 195.043 373.949 195.33C374.289 195.617 374.726 195.761 375.259 195.761ZM383.644 197H382.018V187.49H383.644V197ZM381.886 184.968C381.886 184.704 381.965 184.481 382.123 184.3C382.287 184.118 382.527 184.027 382.844 184.027C383.16 184.027 383.4 184.118 383.564 184.3C383.729 184.481 383.811 184.704 383.811 184.968C383.811 185.231 383.729 185.451 383.564 185.627C383.4 185.803 383.16 185.891 382.844 185.891C382.527 185.891 382.287 185.803 382.123 185.627C381.965 185.451 381.886 185.231 381.886 184.968ZM387.792 187.49L387.845 188.686C388.571 187.771 389.521 187.314 390.692 187.314C392.702 187.314 393.716 188.448 393.733 190.716V197H392.107V190.707C392.102 190.021 391.943 189.515 391.633 189.187C391.328 188.858 390.851 188.694 390.2 188.694C389.673 188.694 389.21 188.835 388.812 189.116C388.413 189.397 388.103 189.767 387.88 190.224V197H386.254V187.49H387.792ZM401.723 194.478C401.723 194.038 401.556 193.698 401.222 193.458C400.894 193.212 400.316 193.001 399.49 192.825C398.67 192.649 398.017 192.438 397.53 192.192C397.05 191.946 396.692 191.653 396.458 191.313C396.229 190.974 396.115 190.569 396.115 190.101C396.115 189.321 396.443 188.662 397.1 188.123C397.762 187.584 398.605 187.314 399.631 187.314C400.709 187.314 401.582 187.593 402.25 188.149C402.924 188.706 403.261 189.418 403.261 190.285H401.626C401.626 189.84 401.436 189.456 401.055 189.134C400.68 188.812 400.205 188.65 399.631 188.65C399.039 188.65 398.576 188.779 398.242 189.037C397.908 189.295 397.741 189.632 397.741 190.048C397.741 190.44 397.896 190.736 398.207 190.936C398.518 191.135 399.077 191.325 399.886 191.507C400.7 191.688 401.359 191.905 401.863 192.157C402.367 192.409 402.739 192.714 402.979 193.071C403.226 193.423 403.349 193.854 403.349 194.363C403.349 195.213 403.009 195.896 402.329 196.411C401.649 196.921 400.768 197.176 399.684 197.176C398.922 197.176 398.248 197.041 397.662 196.771C397.076 196.502 396.616 196.127 396.282 195.646C395.954 195.16 395.79 194.636 395.79 194.073H397.416C397.445 194.618 397.662 195.052 398.066 195.374C398.477 195.69 399.016 195.849 399.684 195.849C400.299 195.849 400.791 195.726 401.16 195.479C401.535 195.228 401.723 194.894 401.723 194.478ZM407.673 185.188V187.49H409.448V188.747H407.673V194.645C407.673 195.025 407.752 195.312 407.91 195.506C408.068 195.693 408.338 195.787 408.719 195.787C408.906 195.787 409.164 195.752 409.492 195.682V197C409.064 197.117 408.648 197.176 408.244 197.176C407.518 197.176 406.97 196.956 406.601 196.517C406.231 196.077 406.047 195.453 406.047 194.645V188.747H404.315V187.49H406.047V185.188H407.673ZM415.302 197.176C414.013 197.176 412.964 196.754 412.155 195.91C411.347 195.061 410.942 193.927 410.942 192.509V192.21C410.942 191.267 411.121 190.426 411.479 189.688C411.842 188.943 412.346 188.363 412.99 187.947C413.641 187.525 414.344 187.314 415.1 187.314C416.336 187.314 417.297 187.722 417.982 188.536C418.668 189.351 419.011 190.517 419.011 192.034V192.711H412.568C412.592 193.648 412.864 194.407 413.386 194.987C413.913 195.562 414.581 195.849 415.39 195.849C415.964 195.849 416.45 195.731 416.849 195.497C417.247 195.263 417.596 194.952 417.895 194.565L418.888 195.339C418.091 196.563 416.896 197.176 415.302 197.176ZM415.1 188.65C414.443 188.65 413.893 188.891 413.447 189.371C413.002 189.846 412.727 190.514 412.621 191.375H417.385V191.252C417.338 190.426 417.115 189.787 416.717 189.336C416.318 188.879 415.779 188.65 415.1 188.65ZM422.43 187.49L422.474 188.545C423.171 187.725 424.111 187.314 425.295 187.314C426.625 187.314 427.53 187.824 428.011 188.844C428.327 188.387 428.737 188.018 429.241 187.736C429.751 187.455 430.352 187.314 431.043 187.314C433.129 187.314 434.189 188.419 434.225 190.628V197H432.599V190.725C432.599 190.045 432.443 189.538 432.133 189.204C431.822 188.864 431.301 188.694 430.568 188.694C429.965 188.694 429.464 188.876 429.065 189.239C428.667 189.597 428.436 190.08 428.371 190.689V197H426.736V190.769C426.736 189.386 426.06 188.694 424.706 188.694C423.64 188.694 422.91 189.148 422.518 190.057V197H420.892V187.49H422.43Z" fill="black"/>
<ellipse cx="300" cy="129" rx="35" ry="14" fill="#FF6464"/>
<ellipse cx="326" cy="160" rx="35" ry="14" transform="rotate(-90 326 160)" fill="#FF6464"/>
<path d="M434.002 36.5664C434.002 38.5169 433.665 40.2305 432.99 41.707C432.316 43.1745 431.35 44.3047 430.092 45.0977C428.843 45.8815 427.403 46.2734 425.771 46.2734C424.158 46.2734 422.718 45.8815 421.451 45.0977C420.193 44.3047 419.218 43.179 418.525 41.7207C417.842 40.2624 417.495 38.5807 417.486 36.6758V35.5547C417.486 33.6133 417.828 31.8997 418.512 30.4141C419.204 28.9284 420.175 27.7936 421.424 27.0098C422.682 26.2168 424.122 25.8203 425.744 25.8203C427.367 25.8203 428.802 26.2122 430.051 26.9961C431.309 27.7708 432.279 28.8919 432.963 30.3594C433.646 31.8177 433.993 33.5176 434.002 35.459V36.5664ZM430.543 35.5273C430.543 33.3216 430.124 31.6309 429.285 30.4551C428.456 29.2793 427.275 28.6914 425.744 28.6914C424.249 28.6914 423.078 29.2793 422.23 30.4551C421.392 31.6217 420.964 33.276 420.945 35.418V36.5664C420.945 38.7539 421.369 40.4447 422.217 41.6387C423.074 42.8327 424.258 43.4297 425.771 43.4297C427.303 43.4297 428.479 42.8464 429.299 41.6797C430.128 40.513 430.543 38.8086 430.543 36.5664V35.5273ZM446.088 44.5508C445.113 45.6992 443.727 46.2734 441.932 46.2734C440.327 46.2734 439.111 45.804 438.281 44.8652C437.461 43.9264 437.051 42.5684 437.051 40.791V31.207H440.373V40.75C440.373 42.6276 441.152 43.5664 442.711 43.5664C444.324 43.5664 445.413 42.9876 445.979 41.8301V31.207H449.301V46H446.17L446.088 44.5508ZM460.43 34.2422C459.992 34.1693 459.541 34.1328 459.076 34.1328C457.554 34.1328 456.529 34.7161 456 35.8828V46H452.678V31.207H455.85L455.932 32.8613C456.734 31.5762 457.846 30.9336 459.268 30.9336C459.742 30.9336 460.133 30.9974 460.443 31.125L460.43 34.2422ZM482.482 38.7539C482.482 41.0508 481.967 42.8783 480.938 44.2363C479.917 45.5944 478.508 46.2734 476.713 46.2734C474.981 46.2734 473.632 45.6491 472.666 44.4004L472.502 46H469.494V25H472.816V32.6289C473.773 31.4987 475.063 30.9336 476.686 30.9336C478.49 30.9336 479.908 31.6035 480.938 32.9434C481.967 34.2832 482.482 36.1562 482.482 38.5625V38.7539ZM479.16 38.4668C479.16 36.8626 478.878 35.6595 478.312 34.8574C477.747 34.0553 476.927 33.6543 475.852 33.6543C474.411 33.6543 473.4 34.2832 472.816 35.541V41.6387C473.409 42.9238 474.43 43.5664 475.879 43.5664C476.918 43.5664 477.72 43.179 478.285 42.4043C478.85 41.6296 479.142 40.4583 479.16 38.8906V38.4668ZM493.023 34.2422C492.586 34.1693 492.135 34.1328 491.67 34.1328C490.148 34.1328 489.122 34.7161 488.594 35.8828V46H485.271V31.207H488.443L488.525 32.8613C489.327 31.5762 490.439 30.9336 491.861 30.9336C492.335 30.9336 492.727 30.9974 493.037 31.125L493.023 34.2422ZM503.551 46C503.405 45.7174 503.277 45.2572 503.168 44.6191C502.111 45.722 500.816 46.2734 499.285 46.2734C497.799 46.2734 496.587 45.8496 495.648 45.002C494.71 44.1543 494.24 43.1061 494.24 41.8574C494.24 40.2806 494.824 39.0729 495.99 38.2344C497.166 37.3867 498.843 36.9629 501.021 36.9629H503.059V35.9922C503.059 35.2266 502.844 34.6159 502.416 34.1602C501.988 33.6953 501.336 33.4629 500.461 33.4629C499.704 33.4629 499.085 33.6543 498.602 34.0371C498.118 34.4108 497.877 34.8893 497.877 35.4727H494.555C494.555 34.6615 494.824 33.9049 495.361 33.2031C495.899 32.4922 496.628 31.9362 497.549 31.5352C498.479 31.1341 499.513 30.9336 500.652 30.9336C502.384 30.9336 503.765 31.3711 504.795 32.2461C505.825 33.112 506.354 34.3333 506.381 35.9102V42.582C506.381 43.9128 506.568 44.9746 506.941 45.7676V46H503.551ZM499.9 43.6074C500.557 43.6074 501.172 43.4479 501.746 43.1289C502.329 42.8099 502.767 42.3815 503.059 41.8438V39.0547H501.268C500.037 39.0547 499.112 39.2689 498.492 39.6973C497.872 40.1257 497.562 40.7318 497.562 41.5156C497.562 42.1536 497.772 42.6641 498.191 43.0469C498.62 43.4206 499.189 43.6074 499.9 43.6074ZM513.395 46H510.072V31.207H513.395V46ZM509.867 27.3652C509.867 26.8548 510.027 26.431 510.346 26.0938C510.674 25.7565 511.139 25.5879 511.74 25.5879C512.342 25.5879 512.807 25.7565 513.135 26.0938C513.463 26.431 513.627 26.8548 513.627 27.3652C513.627 27.8665 513.463 28.2858 513.135 28.623C512.807 28.9512 512.342 29.1152 511.74 29.1152C511.139 29.1152 510.674 28.9512 510.346 28.623C510.027 28.2858 509.867 27.8665 509.867 27.3652ZM520.107 31.207L520.203 32.916C521.297 31.5944 522.732 30.9336 524.51 30.9336C527.59 30.9336 529.158 32.6973 529.213 36.2246V46H525.891V36.416C525.891 35.4772 525.686 34.7845 525.275 34.3379C524.874 33.8822 524.214 33.6543 523.293 33.6543C521.953 33.6543 520.955 34.2604 520.299 35.4727V46H516.977V31.207H520.107Z" fill="black"/>
</svg>
