<svg width="600" height="300" viewBox="0 0 600 300" fill="none" xmlns="http://www.w3.org/2000/svg">
<rect width="600" height="300" fill="white"/>
<path d="M263.514 158V139.516H269.988C272.231 139.516 273.932 139.947 275.092 140.811C276.251 141.665 276.831 142.922 276.831 144.581C276.831 145.487 276.598 146.286 276.133 146.98C275.667 147.666 275.02 148.17 274.19 148.491C275.138 148.728 275.883 149.206 276.425 149.926C276.975 150.645 277.25 151.525 277.25 152.566C277.25 154.344 276.683 155.689 275.549 156.604C274.415 157.518 272.798 157.983 270.699 158H263.514ZM267.322 149.951V154.94H270.585C271.482 154.94 272.18 154.729 272.68 154.306C273.188 153.874 273.441 153.282 273.441 152.528C273.441 150.836 272.565 149.977 270.813 149.951H267.322ZM267.322 147.26H270.141C272.062 147.226 273.022 146.46 273.022 144.962C273.022 144.124 272.777 143.523 272.286 143.159C271.804 142.787 271.038 142.601 269.988 142.601H267.322V147.26ZM283.75 158H280.068V144.264H283.75V158ZM279.853 140.709C279.853 140.159 280.035 139.706 280.398 139.351C280.771 138.995 281.274 138.817 281.909 138.817C282.535 138.817 283.035 138.995 283.407 139.351C283.78 139.706 283.966 140.159 283.966 140.709C283.966 141.268 283.775 141.725 283.395 142.08C283.022 142.436 282.527 142.613 281.909 142.613C281.291 142.613 280.792 142.436 280.411 142.08C280.039 141.725 279.853 141.268 279.853 140.709ZM291.177 140.887V144.264H293.525V146.955H291.177V153.811C291.177 154.318 291.274 154.682 291.469 154.902C291.663 155.122 292.036 155.232 292.586 155.232C292.992 155.232 293.352 155.203 293.665 155.144V157.924C292.946 158.144 292.205 158.254 291.443 158.254C288.87 158.254 287.559 156.955 287.508 154.356V146.955H285.502V144.264H287.508V140.887H291.177ZM311.248 141.344C310.52 141.259 309.843 141.217 309.217 141.217C307.558 141.217 306.729 141.924 306.729 143.337V144.264H309.458V146.955H306.729V158H303.047V146.955H301.003V144.264H303.047V143.197C303.064 141.606 303.563 140.383 304.545 139.528C305.527 138.665 306.915 138.233 308.709 138.233C309.987 138.233 312.061 138.369 314.93 138.64V158H311.248V141.344ZM321.861 158H318.18V144.264H321.861V158ZM317.964 140.709C317.964 140.159 318.146 139.706 318.51 139.351C318.882 138.995 319.386 138.817 320.021 138.817C320.647 138.817 321.146 138.995 321.519 139.351C321.891 139.706 322.077 140.159 322.077 140.709C322.077 141.268 321.887 141.725 321.506 142.08C321.133 142.436 320.638 142.613 320.021 142.613C319.403 142.613 318.903 142.436 318.522 142.08C318.15 141.725 317.964 141.268 317.964 140.709ZM337.261 151.259C337.261 153.375 336.778 155.072 335.813 156.35C334.857 157.619 333.562 158.254 331.929 158.254C330.541 158.254 329.419 157.771 328.564 156.807V163.281H324.896V144.264H328.298L328.425 145.609C329.313 144.543 330.473 144.01 331.903 144.01C333.596 144.01 334.912 144.636 335.852 145.889C336.791 147.141 337.261 148.868 337.261 151.068V151.259ZM333.592 150.992C333.592 149.714 333.363 148.728 332.906 148.034C332.458 147.34 331.802 146.993 330.938 146.993C329.787 146.993 328.996 147.433 328.564 148.313V153.938C329.013 154.843 329.813 155.296 330.964 155.296C332.716 155.296 333.592 153.861 333.592 150.992Z" fill="black"/>
<rect x="27" y="44" width="78" height="78" fill="white" stroke="black" stroke-width="2"/>
<rect x="105" y="44" width="78" height="78" stroke="black" stroke-width="2"/>
<rect x="183" y="44" width="78" height="78" stroke="black" stroke-width="2"/>
<rect x="261" y="44" width="78" height="78" stroke="black" stroke-width="2"/>
<rect x="339" y="44" width="78" height="78" stroke="black" stroke-width="2"/>
<rect x="417" y="44" width="78" height="78" stroke="black" stroke-width="2"/>
<rect x="495" y="44" width="78" height="78" stroke="black" stroke-width="2"/>
<path d="M69.4316 92C69.2858 91.7083 69.1673 91.1888 69.0762 90.4414C67.9004 91.6628 66.4967 92.2734 64.8652 92.2734C63.4069 92.2734 62.2083 91.8633 61.2695 91.043C60.3398 90.2135 59.875 89.1654 59.875 87.8984C59.875 86.3581 60.4583 85.1641 61.625 84.3164C62.8008 83.4596 64.4505 83.0312 66.5742 83.0312H69.0352V81.8691C69.0352 80.985 68.7708 80.2832 68.2422 79.7637C67.7135 79.235 66.9342 78.9707 65.9043 78.9707C65.002 78.9707 64.2454 79.1986 63.6348 79.6543C63.0241 80.11 62.7188 80.6615 62.7188 81.3086H60.1758C60.1758 80.5703 60.4355 79.8594 60.9551 79.1758C61.4837 78.4831 62.1947 77.9362 63.0879 77.5352C63.9902 77.1341 64.9792 76.9336 66.0547 76.9336C67.7591 76.9336 69.0944 77.362 70.0605 78.2188C71.0267 79.0664 71.528 80.2376 71.5645 81.7324V88.541C71.5645 89.8991 71.7376 90.9792 72.084 91.7812V92H69.4316ZM65.2344 90.0723C66.0273 90.0723 66.7793 89.8672 67.4902 89.457C68.2012 89.0469 68.7161 88.5137 69.0352 87.8574V84.8223H67.0527C63.9538 84.8223 62.4043 85.7292 62.4043 87.543C62.4043 88.3359 62.6686 88.9557 63.1973 89.4023C63.7259 89.849 64.4049 90.0723 65.2344 90.0723Z" fill="black"/>
<path d="M150.576 84.7676C150.576 87.028 150.057 88.8464 149.018 90.2227C147.979 91.5898 146.584 92.2734 144.834 92.2734C142.965 92.2734 141.521 91.6126 140.5 90.291L140.377 92H138.053V71H140.582V78.834C141.603 77.5671 143.011 76.9336 144.807 76.9336C146.602 76.9336 148.01 77.6126 149.031 78.9707C150.061 80.3288 150.576 82.1882 150.576 84.5488V84.7676ZM148.047 84.4805C148.047 82.7578 147.714 81.4271 147.049 80.4883C146.383 79.5495 145.426 79.0801 144.178 79.0801C142.51 79.0801 141.311 79.8548 140.582 81.4043V87.8027C141.357 89.3522 142.564 90.127 144.205 90.127C145.417 90.127 146.361 89.6576 147.035 88.7188C147.71 87.7799 148.047 86.3672 148.047 84.4805Z" fill="black"/>
<path d="M222.52 90.209C223.422 90.209 224.21 89.9355 224.885 89.3887C225.559 88.8418 225.933 88.1582 226.006 87.3379H228.398C228.353 88.1855 228.061 88.9922 227.523 89.7578C226.986 90.5234 226.266 91.1341 225.363 91.5898C224.47 92.0456 223.522 92.2734 222.52 92.2734C220.505 92.2734 218.901 91.6035 217.707 90.2637C216.522 88.9147 215.93 87.0736 215.93 84.7402V84.3164C215.93 82.8763 216.194 81.5957 216.723 80.4746C217.251 79.3535 218.008 78.4831 218.992 77.8633C219.986 77.2435 221.157 76.9336 222.506 76.9336C224.165 76.9336 225.541 77.4303 226.635 78.4238C227.738 79.4173 228.326 80.707 228.398 82.293H226.006C225.933 81.3359 225.568 80.5521 224.912 79.9414C224.265 79.3216 223.463 79.0117 222.506 79.0117C221.221 79.0117 220.223 79.4766 219.512 80.4062C218.81 81.3268 218.459 82.6621 218.459 84.4121V84.8906C218.459 86.5951 218.81 87.9076 219.512 88.8281C220.214 89.7487 221.216 90.209 222.52 90.209Z" fill="black"/>
<path d="M298.277 90.6738C298.277 90.2363 298.405 89.8717 298.66 89.5801C298.924 89.2884 299.316 89.1426 299.836 89.1426C300.355 89.1426 300.747 89.2884 301.012 89.5801C301.285 89.8717 301.422 90.2363 301.422 90.6738C301.422 91.0931 301.285 91.444 301.012 91.7266C300.747 92.0091 300.355 92.1504 299.836 92.1504C299.316 92.1504 298.924 92.0091 298.66 91.7266C298.405 91.444 298.277 91.0931 298.277 90.6738Z" fill="black"/>
<path d="M378.52 90.209C379.422 90.209 380.21 89.9355 380.885 89.3887C381.559 88.8418 381.933 88.1582 382.006 87.3379H384.398C384.353 88.1855 384.061 88.9922 383.523 89.7578C382.986 90.5234 382.266 91.1341 381.363 91.5898C380.47 92.0456 379.522 92.2734 378.52 92.2734C376.505 92.2734 374.901 91.6035 373.707 90.2637C372.522 88.9147 371.93 87.0736 371.93 84.7402V84.3164C371.93 82.8763 372.194 81.5957 372.723 80.4746C373.251 79.3535 374.008 78.4831 374.992 77.8633C375.986 77.2435 377.157 76.9336 378.506 76.9336C380.165 76.9336 381.541 77.4303 382.635 78.4238C383.738 79.4173 384.326 80.707 384.398 82.293H382.006C381.933 81.3359 381.568 80.5521 380.912 79.9414C380.265 79.3216 379.463 79.0117 378.506 79.0117C377.221 79.0117 376.223 79.4766 375.512 80.4062C374.81 81.3268 374.459 82.6621 374.459 84.4121V84.8906C374.459 86.5951 374.81 87.9076 375.512 88.8281C376.214 89.7487 377.216 90.209 378.52 90.209Z" fill="black"/>
<path d="M449.26 84.4668C449.26 83.0176 449.542 81.7142 450.107 80.5566C450.682 79.3991 451.475 78.5059 452.486 77.877C453.507 77.248 454.669 76.9336 455.973 76.9336C457.987 76.9336 459.614 77.6309 460.854 79.0254C462.102 80.4199 462.727 82.2747 462.727 84.5898V84.7676C462.727 86.2077 462.449 87.502 461.893 88.6504C461.346 89.7897 460.557 90.6784 459.527 91.3164C458.507 91.9544 457.331 92.2734 456 92.2734C453.995 92.2734 452.368 91.5762 451.119 90.1816C449.88 88.7871 449.26 86.9414 449.26 84.6445V84.4668ZM451.803 84.7676C451.803 86.4082 452.181 87.7253 452.938 88.7188C453.703 89.7122 454.724 90.209 456 90.209C457.285 90.209 458.306 89.7077 459.062 88.7051C459.819 87.6934 460.197 86.2806 460.197 84.4668C460.197 82.8444 459.81 81.5319 459.035 80.5293C458.27 79.5176 457.249 79.0117 455.973 79.0117C454.724 79.0117 453.717 79.5085 452.951 80.502C452.186 81.4954 451.803 82.9173 451.803 84.7676Z" fill="black"/>
<path d="M526.016 77.207L526.084 78.8477C527.169 77.5716 528.632 76.9336 530.473 76.9336C532.542 76.9336 533.95 77.7266 534.697 79.3125C535.189 78.6016 535.827 78.0273 536.611 77.5898C537.404 77.1523 538.339 76.9336 539.414 76.9336C542.659 76.9336 544.309 78.6517 544.363 82.0879V92H541.834V82.2383C541.834 81.181 541.592 80.3926 541.109 79.873C540.626 79.3444 539.815 79.0801 538.676 79.0801C537.737 79.0801 536.958 79.3626 536.338 79.9277C535.718 80.4837 535.358 81.2357 535.258 82.1836V92H532.715V82.3066C532.715 80.1556 531.662 79.0801 529.557 79.0801C527.898 79.0801 526.763 79.7865 526.152 81.1992V92H523.623V77.207H526.016Z" fill="black"/>
<path d="M45.6055 30.3613C45.6055 31.6309 45.3887 32.5742 44.9551 33.1914C44.5215 33.8086 43.8438 34.1172 42.9219 34.1172C42.0117 34.1172 41.3379 33.8164 40.9004 33.2148C40.4629 32.6094 40.2363 31.707 40.2207 30.5078V29.0605C40.2207 27.8066 40.4375 26.875 40.8711 26.2656C41.3047 25.6562 41.9844 25.3516 42.9102 25.3516C43.8281 25.3516 44.5039 25.6465 44.9375 26.2363C45.3711 26.8223 45.5938 27.7285 45.6055 28.9551V30.3613ZM44.5215 28.8789C44.5215 27.9609 44.3926 27.293 44.1348 26.875C43.877 26.4531 43.4688 26.2422 42.9102 26.2422C42.3555 26.2422 41.9512 26.4512 41.6973 26.8691C41.4434 27.2871 41.3125 27.9297 41.3047 28.7969V30.5312C41.3047 31.4531 41.4375 32.1348 41.7031 32.5762C41.9727 33.0137 42.3789 33.2324 42.9219 33.2324C43.457 33.2324 43.8535 33.0254 44.1113 32.6113C44.373 32.1973 44.5098 31.5449 44.5215 30.6543V28.8789ZM50.5566 34H49.4668V26.7754L47.2812 27.5781V26.5938L50.3867 25.4277H50.5566V34ZM57.2949 34H56.2051V26.7754L54.0195 27.5781V26.5938L57.125 25.4277H57.2949V34ZM65.8203 30.3613C65.8203 31.6309 65.6035 32.5742 65.1699 33.1914C64.7363 33.8086 64.0586 34.1172 63.1367 34.1172C62.2266 34.1172 61.5527 33.8164 61.1152 33.2148C60.6777 32.6094 60.4512 31.707 60.4355 30.5078V29.0605C60.4355 27.8066 60.6523 26.875 61.0859 26.2656C61.5195 25.6562 62.1992 25.3516 63.125 25.3516C64.043 25.3516 64.7188 25.6465 65.1523 26.2363C65.5859 26.8223 65.8086 27.7285 65.8203 28.9551V30.3613ZM64.7363 28.8789C64.7363 27.9609 64.6074 27.293 64.3496 26.875C64.0918 26.4531 63.6836 26.2422 63.125 26.2422C62.5703 26.2422 62.166 26.4512 61.9121 26.8691C61.6582 27.2871 61.5273 27.9297 61.5195 28.7969V30.5312C61.5195 31.4531 61.6523 32.1348 61.918 32.5762C62.1875 33.0137 62.5938 33.2324 63.1367 33.2324C63.6719 33.2324 64.0684 33.0254 64.3262 32.6113C64.5879 32.1973 64.7246 31.5449 64.7363 30.6543V28.8789ZM72.5586 30.3613C72.5586 31.6309 72.3418 32.5742 71.9082 33.1914C71.4746 33.8086 70.7969 34.1172 69.875 34.1172C68.9648 34.1172 68.291 33.8164 67.8535 33.2148C67.416 32.6094 67.1895 31.707 67.1738 30.5078V29.0605C67.1738 27.8066 67.3906 26.875 67.8242 26.2656C68.2578 25.6562 68.9375 25.3516 69.8633 25.3516C70.7812 25.3516 71.457 25.6465 71.8906 26.2363C72.3242 26.8223 72.5469 27.7285 72.5586 28.9551V30.3613ZM71.4746 28.8789C71.4746 27.9609 71.3457 27.293 71.0879 26.875C70.8301 26.4531 70.4219 26.2422 69.8633 26.2422C69.3086 26.2422 68.9043 26.4512 68.6504 26.8691C68.3965 27.2871 68.2656 27.9297 68.2578 28.7969V30.5312C68.2578 31.4531 68.3906 32.1348 68.6562 32.5762C68.9258 33.0137 69.332 33.2324 69.875 33.2324C70.4102 33.2324 70.8066 33.0254 71.0645 32.6113C71.3262 32.1973 71.4629 31.5449 71.4746 30.6543V28.8789ZM79.2969 30.3613C79.2969 31.6309 79.0801 32.5742 78.6465 33.1914C78.2129 33.8086 77.5352 34.1172 76.6133 34.1172C75.7031 34.1172 75.0293 33.8164 74.5918 33.2148C74.1543 32.6094 73.9277 31.707 73.9121 30.5078V29.0605C73.9121 27.8066 74.1289 26.875 74.5625 26.2656C74.9961 25.6562 75.6758 25.3516 76.6016 25.3516C77.5195 25.3516 78.1953 25.6465 78.6289 26.2363C79.0625 26.8223 79.2852 27.7285 79.2969 28.9551V30.3613ZM78.2129 28.8789C78.2129 27.9609 78.084 27.293 77.8262 26.875C77.5684 26.4531 77.1602 26.2422 76.6016 26.2422C76.0469 26.2422 75.6426 26.4512 75.3887 26.8691C75.1348 27.2871 75.0039 27.9297 74.9961 28.7969V30.5312C74.9961 31.4531 75.1289 32.1348 75.3945 32.5762C75.6641 33.0137 76.0703 33.2324 76.6133 33.2324C77.1484 33.2324 77.5449 33.0254 77.8027 32.6113C78.0645 32.1973 78.2012 31.5449 78.2129 30.6543V28.8789ZM86.0352 30.3613C86.0352 31.6309 85.8184 32.5742 85.3848 33.1914C84.9512 33.8086 84.2734 34.1172 83.3516 34.1172C82.4414 34.1172 81.7676 33.8164 81.3301 33.2148C80.8926 32.6094 80.666 31.707 80.6504 30.5078V29.0605C80.6504 27.8066 80.8672 26.875 81.3008 26.2656C81.7344 25.6562 82.4141 25.3516 83.3398 25.3516C84.2578 25.3516 84.9336 25.6465 85.3672 26.2363C85.8008 26.8223 86.0234 27.7285 86.0352 28.9551V30.3613ZM84.9512 28.8789C84.9512 27.9609 84.8223 27.293 84.5645 26.875C84.3066 26.4531 83.8984 26.2422 83.3398 26.2422C82.7852 26.2422 82.3809 26.4512 82.127 26.8691C81.873 27.2871 81.7422 27.9297 81.7344 28.7969V30.5312C81.7344 31.4531 81.8672 32.1348 82.1328 32.5762C82.4023 33.0137 82.8086 33.2324 83.3516 33.2324C83.8867 33.2324 84.2832 33.0254 84.541 32.6113C84.8027 32.1973 84.9395 31.5449 84.9512 30.6543V28.8789ZM90.9863 34H89.8965V26.7754L87.7109 27.5781V26.5938L90.8164 25.4277H90.9863V34Z" fill="black"/>
<path d="M123.605 30.3613C123.605 31.6309 123.389 32.5742 122.955 33.1914C122.521 33.8086 121.844 34.1172 120.922 34.1172C120.012 34.1172 119.338 33.8164 118.9 33.2148C118.463 32.6094 118.236 31.707 118.221 30.5078V29.0605C118.221 27.8066 118.438 26.875 118.871 26.2656C119.305 25.6562 119.984 25.3516 120.91 25.3516C121.828 25.3516 122.504 25.6465 122.938 26.2363C123.371 26.8223 123.594 27.7285 123.605 28.9551V30.3613ZM122.521 28.8789C122.521 27.9609 122.393 27.293 122.135 26.875C121.877 26.4531 121.469 26.2422 120.91 26.2422C120.355 26.2422 119.951 26.4512 119.697 26.8691C119.443 27.2871 119.312 27.9297 119.305 28.7969V30.5312C119.305 31.4531 119.438 32.1348 119.703 32.5762C119.973 33.0137 120.379 33.2324 120.922 33.2324C121.457 33.2324 121.854 33.0254 122.111 32.6113C122.373 32.1973 122.51 31.5449 122.521 30.6543V28.8789ZM128.557 34H127.467V26.7754L125.281 27.5781V26.5938L128.387 25.4277H128.557V34ZM135.295 34H134.205V26.7754L132.02 27.5781V26.5938L135.125 25.4277H135.295V34ZM143.82 30.3613C143.82 31.6309 143.604 32.5742 143.17 33.1914C142.736 33.8086 142.059 34.1172 141.137 34.1172C140.227 34.1172 139.553 33.8164 139.115 33.2148C138.678 32.6094 138.451 31.707 138.436 30.5078V29.0605C138.436 27.8066 138.652 26.875 139.086 26.2656C139.52 25.6562 140.199 25.3516 141.125 25.3516C142.043 25.3516 142.719 25.6465 143.152 26.2363C143.586 26.8223 143.809 27.7285 143.82 28.9551V30.3613ZM142.736 28.8789C142.736 27.9609 142.607 27.293 142.35 26.875C142.092 26.4531 141.684 26.2422 141.125 26.2422C140.57 26.2422 140.166 26.4512 139.912 26.8691C139.658 27.2871 139.527 27.9297 139.52 28.7969V30.5312C139.52 31.4531 139.652 32.1348 139.918 32.5762C140.188 33.0137 140.594 33.2324 141.137 33.2324C141.672 33.2324 142.068 33.0254 142.326 32.6113C142.588 32.1973 142.725 31.5449 142.736 30.6543V28.8789ZM150.559 30.3613C150.559 31.6309 150.342 32.5742 149.908 33.1914C149.475 33.8086 148.797 34.1172 147.875 34.1172C146.965 34.1172 146.291 33.8164 145.854 33.2148C145.416 32.6094 145.189 31.707 145.174 30.5078V29.0605C145.174 27.8066 145.391 26.875 145.824 26.2656C146.258 25.6562 146.938 25.3516 147.863 25.3516C148.781 25.3516 149.457 25.6465 149.891 26.2363C150.324 26.8223 150.547 27.7285 150.559 28.9551V30.3613ZM149.475 28.8789C149.475 27.9609 149.346 27.293 149.088 26.875C148.83 26.4531 148.422 26.2422 147.863 26.2422C147.309 26.2422 146.904 26.4512 146.65 26.8691C146.396 27.2871 146.266 27.9297 146.258 28.7969V30.5312C146.258 31.4531 146.391 32.1348 146.656 32.5762C146.926 33.0137 147.332 33.2324 147.875 33.2324C148.41 33.2324 148.807 33.0254 149.064 32.6113C149.326 32.1973 149.463 31.5449 149.475 30.6543V28.8789ZM157.297 30.3613C157.297 31.6309 157.08 32.5742 156.646 33.1914C156.213 33.8086 155.535 34.1172 154.613 34.1172C153.703 34.1172 153.029 33.8164 152.592 33.2148C152.154 32.6094 151.928 31.707 151.912 30.5078V29.0605C151.912 27.8066 152.129 26.875 152.562 26.2656C152.996 25.6562 153.676 25.3516 154.602 25.3516C155.52 25.3516 156.195 25.6465 156.629 26.2363C157.062 26.8223 157.285 27.7285 157.297 28.9551V30.3613ZM156.213 28.8789C156.213 27.9609 156.084 27.293 155.826 26.875C155.568 26.4531 155.16 26.2422 154.602 26.2422C154.047 26.2422 153.643 26.4512 153.389 26.8691C153.135 27.2871 153.004 27.9297 152.996 28.7969V30.5312C152.996 31.4531 153.129 32.1348 153.395 32.5762C153.664 33.0137 154.07 33.2324 154.613 33.2324C155.148 33.2324 155.545 33.0254 155.803 32.6113C156.064 32.1973 156.201 31.5449 156.213 30.6543V28.8789ZM162.248 34H161.158V26.7754L158.973 27.5781V26.5938L162.078 25.4277H162.248V34ZM170.773 30.3613C170.773 31.6309 170.557 32.5742 170.123 33.1914C169.689 33.8086 169.012 34.1172 168.09 34.1172C167.18 34.1172 166.506 33.8164 166.068 33.2148C165.631 32.6094 165.404 31.707 165.389 30.5078V29.0605C165.389 27.8066 165.605 26.875 166.039 26.2656C166.473 25.6562 167.152 25.3516 168.078 25.3516C168.996 25.3516 169.672 25.6465 170.105 26.2363C170.539 26.8223 170.762 27.7285 170.773 28.9551V30.3613ZM169.689 28.8789C169.689 27.9609 169.561 27.293 169.303 26.875C169.045 26.4531 168.637 26.2422 168.078 26.2422C167.523 26.2422 167.119 26.4512 166.865 26.8691C166.611 27.2871 166.48 27.9297 166.473 28.7969V30.5312C166.473 31.4531 166.605 32.1348 166.871 32.5762C167.141 33.0137 167.547 33.2324 168.09 33.2324C168.625 33.2324 169.021 33.0254 169.279 32.6113C169.541 32.1973 169.678 31.5449 169.689 30.6543V28.8789Z" fill="black"/>
<path d="M201.605 29.3613C201.605 30.6309 201.389 31.5742 200.955 32.1914C200.521 32.8086 199.844 33.1172 198.922 33.1172C198.012 33.1172 197.338 32.8164 196.9 32.2148C196.463 31.6094 196.236 30.707 196.221 29.5078V28.0605C196.221 26.8066 196.438 25.875 196.871 25.2656C197.305 24.6562 197.984 24.3516 198.91 24.3516C199.828 24.3516 200.504 24.6465 200.938 25.2363C201.371 25.8223 201.594 26.7285 201.605 27.9551V29.3613ZM200.521 27.8789C200.521 26.9609 200.393 26.293 200.135 25.875C199.877 25.4531 199.469 25.2422 198.91 25.2422C198.355 25.2422 197.951 25.4512 197.697 25.8691C197.443 26.2871 197.312 26.9297 197.305 27.7969V29.5312C197.305 30.4531 197.438 31.1348 197.703 31.5762C197.973 32.0137 198.379 32.2324 198.922 32.2324C199.457 32.2324 199.854 32.0254 200.111 31.6113C200.373 31.1973 200.51 30.5449 200.521 29.6543V27.8789ZM206.557 33H205.467V25.7754L203.281 26.5781V25.5938L206.387 24.4277H206.557V33ZM213.295 33H212.205V25.7754L210.02 26.5781V25.5938L213.125 24.4277H213.295V33ZM221.82 29.3613C221.82 30.6309 221.604 31.5742 221.17 32.1914C220.736 32.8086 220.059 33.1172 219.137 33.1172C218.227 33.1172 217.553 32.8164 217.115 32.2148C216.678 31.6094 216.451 30.707 216.436 29.5078V28.0605C216.436 26.8066 216.652 25.875 217.086 25.2656C217.52 24.6562 218.199 24.3516 219.125 24.3516C220.043 24.3516 220.719 24.6465 221.152 25.2363C221.586 25.8223 221.809 26.7285 221.82 27.9551V29.3613ZM220.736 27.8789C220.736 26.9609 220.607 26.293 220.35 25.875C220.092 25.4531 219.684 25.2422 219.125 25.2422C218.57 25.2422 218.166 25.4512 217.912 25.8691C217.658 26.2871 217.527 26.9297 217.52 27.7969V29.5312C217.52 30.4531 217.652 31.1348 217.918 31.5762C218.188 32.0137 218.594 32.2324 219.137 32.2324C219.672 32.2324 220.068 32.0254 220.326 31.6113C220.588 31.1973 220.725 30.5449 220.736 29.6543V27.8789ZM228.559 29.3613C228.559 30.6309 228.342 31.5742 227.908 32.1914C227.475 32.8086 226.797 33.1172 225.875 33.1172C224.965 33.1172 224.291 32.8164 223.854 32.2148C223.416 31.6094 223.189 30.707 223.174 29.5078V28.0605C223.174 26.8066 223.391 25.875 223.824 25.2656C224.258 24.6562 224.938 24.3516 225.863 24.3516C226.781 24.3516 227.457 24.6465 227.891 25.2363C228.324 25.8223 228.547 26.7285 228.559 27.9551V29.3613ZM227.475 27.8789C227.475 26.9609 227.346 26.293 227.088 25.875C226.83 25.4531 226.422 25.2422 225.863 25.2422C225.309 25.2422 224.904 25.4512 224.65 25.8691C224.396 26.2871 224.266 26.9297 224.258 27.7969V29.5312C224.258 30.4531 224.391 31.1348 224.656 31.5762C224.926 32.0137 225.332 32.2324 225.875 32.2324C226.41 32.2324 226.807 32.0254 227.064 31.6113C227.326 31.1973 227.463 30.5449 227.475 29.6543V27.8789ZM235.297 29.3613C235.297 30.6309 235.08 31.5742 234.646 32.1914C234.213 32.8086 233.535 33.1172 232.613 33.1172C231.703 33.1172 231.029 32.8164 230.592 32.2148C230.154 31.6094 229.928 30.707 229.912 29.5078V28.0605C229.912 26.8066 230.129 25.875 230.562 25.2656C230.996 24.6562 231.676 24.3516 232.602 24.3516C233.52 24.3516 234.195 24.6465 234.629 25.2363C235.062 25.8223 235.285 26.7285 235.297 27.9551V29.3613ZM234.213 27.8789C234.213 26.9609 234.084 26.293 233.826 25.875C233.568 25.4531 233.16 25.2422 232.602 25.2422C232.047 25.2422 231.643 25.4512 231.389 25.8691C231.135 26.2871 231.004 26.9297 230.996 27.7969V29.5312C230.996 30.4531 231.129 31.1348 231.395 31.5762C231.664 32.0137 232.07 32.2324 232.613 32.2324C233.148 32.2324 233.545 32.0254 233.803 31.6113C234.064 31.1973 234.201 30.5449 234.213 29.6543V27.8789ZM240.248 33H239.158V25.7754L236.973 26.5781V25.5938L240.078 24.4277H240.248V33ZM246.986 33H245.896V25.7754L243.711 26.5781V25.5938L246.816 24.4277H246.986V33Z" fill="black"/>
<path d="M279.605 28.3613C279.605 29.6309 279.389 30.5742 278.955 31.1914C278.521 31.8086 277.844 32.1172 276.922 32.1172C276.012 32.1172 275.338 31.8164 274.9 31.2148C274.463 30.6094 274.236 29.707 274.221 28.5078V27.0605C274.221 25.8066 274.438 24.875 274.871 24.2656C275.305 23.6562 275.984 23.3516 276.91 23.3516C277.828 23.3516 278.504 23.6465 278.938 24.2363C279.371 24.8223 279.594 25.7285 279.605 26.9551V28.3613ZM278.521 26.8789C278.521 25.9609 278.393 25.293 278.135 24.875C277.877 24.4531 277.469 24.2422 276.91 24.2422C276.355 24.2422 275.951 24.4512 275.697 24.8691C275.443 25.2871 275.312 25.9297 275.305 26.7969V28.5312C275.305 29.4531 275.438 30.1348 275.703 30.5762C275.973 31.0137 276.379 31.2324 276.922 31.2324C277.457 31.2324 277.854 31.0254 278.111 30.6113C278.373 30.1973 278.51 29.5449 278.521 28.6543V26.8789ZM286.344 28.3613C286.344 29.6309 286.127 30.5742 285.693 31.1914C285.26 31.8086 284.582 32.1172 283.66 32.1172C282.75 32.1172 282.076 31.8164 281.639 31.2148C281.201 30.6094 280.975 29.707 280.959 28.5078V27.0605C280.959 25.8066 281.176 24.875 281.609 24.2656C282.043 23.6562 282.723 23.3516 283.648 23.3516C284.566 23.3516 285.242 23.6465 285.676 24.2363C286.109 24.8223 286.332 25.7285 286.344 26.9551V28.3613ZM285.26 26.8789C285.26 25.9609 285.131 25.293 284.873 24.875C284.615 24.4531 284.207 24.2422 283.648 24.2422C283.094 24.2422 282.689 24.4512 282.436 24.8691C282.182 25.2871 282.051 25.9297 282.043 26.7969V28.5312C282.043 29.4531 282.176 30.1348 282.441 30.5762C282.711 31.0137 283.117 31.2324 283.66 31.2324C284.195 31.2324 284.592 31.0254 284.85 30.6113C285.111 30.1973 285.248 29.5449 285.26 28.6543V26.8789ZM291.295 32H290.205V24.7754L288.02 25.5781V24.5938L291.125 23.4277H291.295V32ZM299.82 28.3613C299.82 29.6309 299.604 30.5742 299.17 31.1914C298.736 31.8086 298.059 32.1172 297.137 32.1172C296.227 32.1172 295.553 31.8164 295.115 31.2148C294.678 30.6094 294.451 29.707 294.436 28.5078V27.0605C294.436 25.8066 294.652 24.875 295.086 24.2656C295.52 23.6562 296.199 23.3516 297.125 23.3516C298.043 23.3516 298.719 23.6465 299.152 24.2363C299.586 24.8223 299.809 25.7285 299.82 26.9551V28.3613ZM298.736 26.8789C298.736 25.9609 298.607 25.293 298.35 24.875C298.092 24.4531 297.684 24.2422 297.125 24.2422C296.57 24.2422 296.166 24.4512 295.912 24.8691C295.658 25.2871 295.527 25.9297 295.52 26.7969V28.5312C295.52 29.4531 295.652 30.1348 295.918 30.5762C296.188 31.0137 296.594 31.2324 297.137 31.2324C297.672 31.2324 298.068 31.0254 298.326 30.6113C298.588 30.1973 298.725 29.5449 298.736 28.6543V26.8789ZM304.771 32H303.682V24.7754L301.496 25.5781V24.5938L304.602 23.4277H304.771V32ZM311.51 32H310.42V24.7754L308.234 25.5781V24.5938L311.34 23.4277H311.51V32ZM318.248 32H317.158V24.7754L314.973 25.5781V24.5938L318.078 23.4277H318.248V32ZM326.773 28.3613C326.773 29.6309 326.557 30.5742 326.123 31.1914C325.689 31.8086 325.012 32.1172 324.09 32.1172C323.18 32.1172 322.506 31.8164 322.068 31.2148C321.631 30.6094 321.404 29.707 321.389 28.5078V27.0605C321.389 25.8066 321.605 24.875 322.039 24.2656C322.473 23.6562 323.152 23.3516 324.078 23.3516C324.996 23.3516 325.672 23.6465 326.105 24.2363C326.539 24.8223 326.762 25.7285 326.773 26.9551V28.3613ZM325.689 26.8789C325.689 25.9609 325.561 25.293 325.303 24.875C325.045 24.4531 324.637 24.2422 324.078 24.2422C323.523 24.2422 323.119 24.4512 322.865 24.8691C322.611 25.2871 322.48 25.9297 322.473 26.7969V28.5312C322.473 29.4531 322.605 30.1348 322.871 30.5762C323.141 31.0137 323.547 31.2324 324.09 31.2324C324.625 31.2324 325.021 31.0254 325.279 30.6113C325.541 30.1973 325.678 29.5449 325.689 28.6543V26.8789Z" fill="black"/>
<path d="M359.094 28.3613C359.094 29.6309 358.877 30.5742 358.443 31.1914C358.01 31.8086 357.332 32.1172 356.41 32.1172C355.5 32.1172 354.826 31.8164 354.389 31.2148C353.951 30.6094 353.725 29.707 353.709 28.5078V27.0605C353.709 25.8066 353.926 24.875 354.359 24.2656C354.793 23.6562 355.473 23.3516 356.398 23.3516C357.316 23.3516 357.992 23.6465 358.426 24.2363C358.859 24.8223 359.082 25.7285 359.094 26.9551V28.3613ZM358.01 26.8789C358.01 25.9609 357.881 25.293 357.623 24.875C357.365 24.4531 356.957 24.2422 356.398 24.2422C355.844 24.2422 355.439 24.4512 355.186 24.8691C354.932 25.2871 354.801 25.9297 354.793 26.7969V28.5312C354.793 29.4531 354.926 30.1348 355.191 30.5762C355.461 31.0137 355.867 31.2324 356.41 31.2324C356.945 31.2324 357.342 31.0254 357.6 30.6113C357.861 30.1973 357.998 29.5449 358.01 28.6543V26.8789ZM364.045 32H362.955V24.7754L360.77 25.5781V24.5938L363.875 23.4277H364.045V32ZM370.783 32H369.693V24.7754L367.508 25.5781V24.5938L370.613 23.4277H370.783V32ZM379.309 28.3613C379.309 29.6309 379.092 30.5742 378.658 31.1914C378.225 31.8086 377.547 32.1172 376.625 32.1172C375.715 32.1172 375.041 31.8164 374.604 31.2148C374.166 30.6094 373.939 29.707 373.924 28.5078V27.0605C373.924 25.8066 374.141 24.875 374.574 24.2656C375.008 23.6562 375.688 23.3516 376.613 23.3516C377.531 23.3516 378.207 23.6465 378.641 24.2363C379.074 24.8223 379.297 25.7285 379.309 26.9551V28.3613ZM378.225 26.8789C378.225 25.9609 378.096 25.293 377.838 24.875C377.58 24.4531 377.172 24.2422 376.613 24.2422C376.059 24.2422 375.654 24.4512 375.4 24.8691C375.146 25.2871 375.016 25.9297 375.008 26.7969V28.5312C375.008 29.4531 375.141 30.1348 375.406 30.5762C375.676 31.0137 376.082 31.2324 376.625 31.2324C377.16 31.2324 377.557 31.0254 377.814 30.6113C378.076 30.1973 378.213 29.5449 378.225 28.6543V26.8789ZM386.047 28.3613C386.047 29.6309 385.83 30.5742 385.396 31.1914C384.963 31.8086 384.285 32.1172 383.363 32.1172C382.453 32.1172 381.779 31.8164 381.342 31.2148C380.904 30.6094 380.678 29.707 380.662 28.5078V27.0605C380.662 25.8066 380.879 24.875 381.312 24.2656C381.746 23.6562 382.426 23.3516 383.352 23.3516C384.27 23.3516 384.945 23.6465 385.379 24.2363C385.812 24.8223 386.035 25.7285 386.047 26.9551V28.3613ZM384.963 26.8789C384.963 25.9609 384.834 25.293 384.576 24.875C384.318 24.4531 383.91 24.2422 383.352 24.2422C382.797 24.2422 382.393 24.4512 382.139 24.8691C381.885 25.2871 381.754 25.9297 381.746 26.7969V28.5312C381.746 29.4531 381.879 30.1348 382.145 30.5762C382.414 31.0137 382.82 31.2324 383.363 31.2324C383.898 31.2324 384.295 31.0254 384.553 30.6113C384.814 30.1973 384.951 29.5449 384.963 28.6543V26.8789ZM392.785 28.3613C392.785 29.6309 392.568 30.5742 392.135 31.1914C391.701 31.8086 391.023 32.1172 390.102 32.1172C389.191 32.1172 388.518 31.8164 388.08 31.2148C387.643 30.6094 387.416 29.707 387.4 28.5078V27.0605C387.4 25.8066 387.617 24.875 388.051 24.2656C388.484 23.6562 389.164 23.3516 390.09 23.3516C391.008 23.3516 391.684 23.6465 392.117 24.2363C392.551 24.8223 392.773 25.7285 392.785 26.9551V28.3613ZM391.701 26.8789C391.701 25.9609 391.572 25.293 391.314 24.875C391.057 24.4531 390.648 24.2422 390.09 24.2422C389.535 24.2422 389.131 24.4512 388.877 24.8691C388.623 25.2871 388.492 25.9297 388.484 26.7969V28.5312C388.484 29.4531 388.617 30.1348 388.883 30.5762C389.152 31.0137 389.559 31.2324 390.102 31.2324C390.637 31.2324 391.033 31.0254 391.291 30.6113C391.553 30.1973 391.689 29.5449 391.701 28.6543V26.8789ZM397.736 32H396.646V24.7754L394.461 25.5781V24.5938L397.566 23.4277H397.736V32ZM404.475 32H403.385V24.7754L401.199 25.5781V24.5938L404.305 23.4277H404.475V32Z" fill="black"/>
<path d="M437.094 28.3613C437.094 29.6309 436.877 30.5742 436.443 31.1914C436.01 31.8086 435.332 32.1172 434.41 32.1172C433.5 32.1172 432.826 31.8164 432.389 31.2148C431.951 30.6094 431.725 29.707 431.709 28.5078V27.0605C431.709 25.8066 431.926 24.875 432.359 24.2656C432.793 23.6562 433.473 23.3516 434.398 23.3516C435.316 23.3516 435.992 23.6465 436.426 24.2363C436.859 24.8223 437.082 25.7285 437.094 26.9551V28.3613ZM436.01 26.8789C436.01 25.9609 435.881 25.293 435.623 24.875C435.365 24.4531 434.957 24.2422 434.398 24.2422C433.844 24.2422 433.439 24.4512 433.186 24.8691C432.932 25.2871 432.801 25.9297 432.793 26.7969V28.5312C432.793 29.4531 432.926 30.1348 433.191 30.5762C433.461 31.0137 433.867 31.2324 434.41 31.2324C434.945 31.2324 435.342 31.0254 435.6 30.6113C435.861 30.1973 435.998 29.5449 436.01 28.6543V26.8789ZM442.045 32H440.955V24.7754L438.77 25.5781V24.5938L441.875 23.4277H442.045V32ZM448.783 32H447.693V24.7754L445.508 25.5781V24.5938L448.613 23.4277H448.783V32ZM457.309 28.3613C457.309 29.6309 457.092 30.5742 456.658 31.1914C456.225 31.8086 455.547 32.1172 454.625 32.1172C453.715 32.1172 453.041 31.8164 452.604 31.2148C452.166 30.6094 451.939 29.707 451.924 28.5078V27.0605C451.924 25.8066 452.141 24.875 452.574 24.2656C453.008 23.6562 453.688 23.3516 454.613 23.3516C455.531 23.3516 456.207 23.6465 456.641 24.2363C457.074 24.8223 457.297 25.7285 457.309 26.9551V28.3613ZM456.225 26.8789C456.225 25.9609 456.096 25.293 455.838 24.875C455.58 24.4531 455.172 24.2422 454.613 24.2422C454.059 24.2422 453.654 24.4512 453.4 24.8691C453.146 25.2871 453.016 25.9297 453.008 26.7969V28.5312C453.008 29.4531 453.141 30.1348 453.406 30.5762C453.676 31.0137 454.082 31.2324 454.625 31.2324C455.16 31.2324 455.557 31.0254 455.814 30.6113C456.076 30.1973 456.213 29.5449 456.225 28.6543V26.8789ZM462.26 32H461.17V24.7754L458.984 25.5781V24.5938L462.09 23.4277H462.26V32ZM468.998 32H467.908V24.7754L465.723 25.5781V24.5938L468.828 23.4277H468.998V32ZM475.736 32H474.646V24.7754L472.461 25.5781V24.5938L475.566 23.4277H475.736V32ZM482.475 32H481.385V24.7754L479.199 25.5781V24.5938L482.305 23.4277H482.475V32Z" fill="black"/>
<path d="M513.605 27.3613C513.605 28.6309 513.389 29.5742 512.955 30.1914C512.521 30.8086 511.844 31.1172 510.922 31.1172C510.012 31.1172 509.338 30.8164 508.9 30.2148C508.463 29.6094 508.236 28.707 508.221 27.5078V26.0605C508.221 24.8066 508.438 23.875 508.871 23.2656C509.305 22.6562 509.984 22.3516 510.91 22.3516C511.828 22.3516 512.504 22.6465 512.938 23.2363C513.371 23.8223 513.594 24.7285 513.605 25.9551V27.3613ZM512.521 25.8789C512.521 24.9609 512.393 24.293 512.135 23.875C511.877 23.4531 511.469 23.2422 510.91 23.2422C510.355 23.2422 509.951 23.4512 509.697 23.8691C509.443 24.2871 509.312 24.9297 509.305 25.7969V27.5312C509.305 28.4531 509.438 29.1348 509.703 29.5762C509.973 30.0137 510.379 30.2324 510.922 30.2324C511.457 30.2324 511.854 30.0254 512.111 29.6113C512.373 29.1973 512.51 28.5449 512.521 27.6543V25.8789ZM518.557 31H517.467V23.7754L515.281 24.5781V23.5938L518.387 22.4277H518.557V31ZM525.295 31H524.205V23.7754L522.02 24.5781V23.5938L525.125 22.4277H525.295V31ZM533.82 27.3613C533.82 28.6309 533.604 29.5742 533.17 30.1914C532.736 30.8086 532.059 31.1172 531.137 31.1172C530.227 31.1172 529.553 30.8164 529.115 30.2148C528.678 29.6094 528.451 28.707 528.436 27.5078V26.0605C528.436 24.8066 528.652 23.875 529.086 23.2656C529.52 22.6562 530.199 22.3516 531.125 22.3516C532.043 22.3516 532.719 22.6465 533.152 23.2363C533.586 23.8223 533.809 24.7285 533.82 25.9551V27.3613ZM532.736 25.8789C532.736 24.9609 532.607 24.293 532.35 23.875C532.092 23.4531 531.684 23.2422 531.125 23.2422C530.57 23.2422 530.166 23.4512 529.912 23.8691C529.658 24.2871 529.527 24.9297 529.52 25.7969V27.5312C529.52 28.4531 529.652 29.1348 529.918 29.5762C530.188 30.0137 530.594 30.2324 531.137 30.2324C531.672 30.2324 532.068 30.0254 532.326 29.6113C532.588 29.1973 532.725 28.5449 532.736 27.6543V25.8789ZM538.771 31H537.682V23.7754L535.496 24.5781V23.5938L538.602 22.4277H538.771V31ZM545.51 31H544.42V23.7754L542.234 24.5781V23.5938L545.34 22.4277H545.51V31ZM554.035 27.3613C554.035 28.6309 553.818 29.5742 553.385 30.1914C552.951 30.8086 552.273 31.1172 551.352 31.1172C550.441 31.1172 549.768 30.8164 549.33 30.2148C548.893 29.6094 548.666 28.707 548.65 27.5078V26.0605C548.65 24.8066 548.867 23.875 549.301 23.2656C549.734 22.6562 550.414 22.3516 551.34 22.3516C552.258 22.3516 552.934 22.6465 553.367 23.2363C553.801 23.8223 554.023 24.7285 554.035 25.9551V27.3613ZM552.951 25.8789C552.951 24.9609 552.822 24.293 552.564 23.875C552.307 23.4531 551.898 23.2422 551.34 23.2422C550.785 23.2422 550.381 23.4512 550.127 23.8691C549.873 24.2871 549.742 24.9297 549.734 25.7969V27.5312C549.734 28.4531 549.867 29.1348 550.133 29.5762C550.402 30.0137 550.809 30.2324 551.352 30.2324C551.887 30.2324 552.283 30.0254 552.541 29.6113C552.803 29.1973 552.939 28.5449 552.951 27.6543V25.8789ZM558.986 31H557.896V23.7754L555.711 24.5781V23.5938L558.816 22.4277H558.986V31Z" fill="black"/>
<rect x="27" y="199" width="78" height="78" fill="white" stroke="black" stroke-width="2"/>
<rect x="105" y="199" width="78" height="78" stroke="black" stroke-width="2"/>
<rect x="183" y="199" width="78" height="78" stroke="black" stroke-width="2"/>
<rect x="261" y="199" width="78" height="78" stroke="black" stroke-width="2"/>
<rect x="339" y="199" width="78" height="78" stroke="black" stroke-width="2"/>
<rect x="417" y="199" width="78" height="78" stroke="black" stroke-width="2"/>
<rect x="495" y="199" width="78" height="78" stroke="black" stroke-width="2"/>
<path d="M69.4316 247C69.2858 246.708 69.1673 246.189 69.0762 245.441C67.9004 246.663 66.4967 247.273 64.8652 247.273C63.4069 247.273 62.2083 246.863 61.2695 246.043C60.3398 245.214 59.875 244.165 59.875 242.898C59.875 241.358 60.4583 240.164 61.625 239.316C62.8008 238.46 64.4505 238.031 66.5742 238.031H69.0352V236.869C69.0352 235.985 68.7708 235.283 68.2422 234.764C67.7135 234.235 66.9342 233.971 65.9043 233.971C65.002 233.971 64.2454 234.199 63.6348 234.654C63.0241 235.11 62.7188 235.661 62.7188 236.309H60.1758C60.1758 235.57 60.4355 234.859 60.9551 234.176C61.4837 233.483 62.1947 232.936 63.0879 232.535C63.9902 232.134 64.9792 231.934 66.0547 231.934C67.7591 231.934 69.0944 232.362 70.0605 233.219C71.0267 234.066 71.528 235.238 71.5645 236.732V243.541C71.5645 244.899 71.7376 245.979 72.084 246.781V247H69.4316ZM65.2344 245.072C66.0273 245.072 66.7793 244.867 67.4902 244.457C68.2012 244.047 68.7161 243.514 69.0352 242.857V239.822H67.0527C63.9538 239.822 62.4043 240.729 62.4043 242.543C62.4043 243.336 62.6686 243.956 63.1973 244.402C63.7259 244.849 64.4049 245.072 65.2344 245.072Z" fill="black"/>
<path d="M144.52 245.209C145.422 245.209 146.21 244.936 146.885 244.389C147.559 243.842 147.933 243.158 148.006 242.338H150.398C150.353 243.186 150.061 243.992 149.523 244.758C148.986 245.523 148.266 246.134 147.363 246.59C146.47 247.046 145.522 247.273 144.52 247.273C142.505 247.273 140.901 246.604 139.707 245.264C138.522 243.915 137.93 242.074 137.93 239.74V239.316C137.93 237.876 138.194 236.596 138.723 235.475C139.251 234.354 140.008 233.483 140.992 232.863C141.986 232.243 143.157 231.934 144.506 231.934C146.165 231.934 147.541 232.43 148.635 233.424C149.738 234.417 150.326 235.707 150.398 237.293H148.006C147.933 236.336 147.568 235.552 146.912 234.941C146.265 234.322 145.463 234.012 144.506 234.012C143.221 234.012 142.223 234.477 141.512 235.406C140.81 236.327 140.459 237.662 140.459 239.412V239.891C140.459 241.595 140.81 242.908 141.512 243.828C142.214 244.749 143.216 245.209 144.52 245.209Z" fill="black"/>
<path d="M222.52 245.209C223.422 245.209 224.21 244.936 224.885 244.389C225.559 243.842 225.933 243.158 226.006 242.338H228.398C228.353 243.186 228.061 243.992 227.523 244.758C226.986 245.523 226.266 246.134 225.363 246.59C224.47 247.046 223.522 247.273 222.52 247.273C220.505 247.273 218.901 246.604 217.707 245.264C216.522 243.915 215.93 242.074 215.93 239.74V239.316C215.93 237.876 216.194 236.596 216.723 235.475C217.251 234.354 218.008 233.483 218.992 232.863C219.986 232.243 221.157 231.934 222.506 231.934C224.165 231.934 225.541 232.43 226.635 233.424C227.738 234.417 228.326 235.707 228.398 237.293H226.006C225.933 236.336 225.568 235.552 224.912 234.941C224.265 234.322 223.463 234.012 222.506 234.012C221.221 234.012 220.223 234.477 219.512 235.406C218.81 236.327 218.459 237.662 218.459 239.412V239.891C218.459 241.595 218.81 242.908 219.512 243.828C220.214 244.749 221.216 245.209 222.52 245.209Z" fill="black"/>
<path d="M298.277 245.674C298.277 245.236 298.405 244.872 298.66 244.58C298.924 244.288 299.316 244.143 299.836 244.143C300.355 244.143 300.747 244.288 301.012 244.58C301.285 244.872 301.422 245.236 301.422 245.674C301.422 246.093 301.285 246.444 301.012 246.727C300.747 247.009 300.355 247.15 299.836 247.15C299.316 247.15 298.924 247.009 298.66 246.727C298.405 246.444 298.277 246.093 298.277 245.674Z" fill="black"/>
<path d="M378.52 245.209C379.422 245.209 380.21 244.936 380.885 244.389C381.559 243.842 381.933 243.158 382.006 242.338H384.398C384.353 243.186 384.061 243.992 383.523 244.758C382.986 245.523 382.266 246.134 381.363 246.59C380.47 247.046 379.522 247.273 378.52 247.273C376.505 247.273 374.901 246.604 373.707 245.264C372.522 243.915 371.93 242.074 371.93 239.74V239.316C371.93 237.876 372.194 236.596 372.723 235.475C373.251 234.354 374.008 233.483 374.992 232.863C375.986 232.243 377.157 231.934 378.506 231.934C380.165 231.934 381.541 232.43 382.635 233.424C383.738 234.417 384.326 235.707 384.398 237.293H382.006C381.933 236.336 381.568 235.552 380.912 234.941C380.265 234.322 379.463 234.012 378.506 234.012C377.221 234.012 376.223 234.477 375.512 235.406C374.81 236.327 374.459 237.662 374.459 239.412V239.891C374.459 241.595 374.81 242.908 375.512 243.828C376.214 244.749 377.216 245.209 378.52 245.209Z" fill="black"/>
<path d="M449.26 239.467C449.26 238.018 449.542 236.714 450.107 235.557C450.682 234.399 451.475 233.506 452.486 232.877C453.507 232.248 454.669 231.934 455.973 231.934C457.987 231.934 459.614 232.631 460.854 234.025C462.102 235.42 462.727 237.275 462.727 239.59V239.768C462.727 241.208 462.449 242.502 461.893 243.65C461.346 244.79 460.557 245.678 459.527 246.316C458.507 246.954 457.331 247.273 456 247.273C453.995 247.273 452.368 246.576 451.119 245.182C449.88 243.787 449.26 241.941 449.26 239.645V239.467ZM451.803 239.768C451.803 241.408 452.181 242.725 452.938 243.719C453.703 244.712 454.724 245.209 456 245.209C457.285 245.209 458.306 244.708 459.062 243.705C459.819 242.693 460.197 241.281 460.197 239.467C460.197 237.844 459.81 236.532 459.035 235.529C458.27 234.518 457.249 234.012 455.973 234.012C454.724 234.012 453.717 234.508 452.951 235.502C452.186 236.495 451.803 237.917 451.803 239.768Z" fill="black"/>
<path d="M526.016 232.207L526.084 233.848C527.169 232.572 528.632 231.934 530.473 231.934C532.542 231.934 533.95 232.727 534.697 234.312C535.189 233.602 535.827 233.027 536.611 232.59C537.404 232.152 538.339 231.934 539.414 231.934C542.659 231.934 544.309 233.652 544.363 237.088V247H541.834V237.238C541.834 236.181 541.592 235.393 541.109 234.873C540.626 234.344 539.815 234.08 538.676 234.08C537.737 234.08 536.958 234.363 536.338 234.928C535.718 235.484 535.358 236.236 535.258 237.184V247H532.715V237.307C532.715 235.156 531.662 234.08 529.557 234.08C527.898 234.08 526.763 234.786 526.152 236.199V247H523.623V232.207H526.016Z" fill="black"/>
<path d="M45.6055 185.361C45.6055 186.631 45.3887 187.574 44.9551 188.191C44.5215 188.809 43.8438 189.117 42.9219 189.117C42.0117 189.117 41.3379 188.816 40.9004 188.215C40.4629 187.609 40.2363 186.707 40.2207 185.508V184.061C40.2207 182.807 40.4375 181.875 40.8711 181.266C41.3047 180.656 41.9844 180.352 42.9102 180.352C43.8281 180.352 44.5039 180.646 44.9375 181.236C45.3711 181.822 45.5938 182.729 45.6055 183.955V185.361ZM44.5215 183.879C44.5215 182.961 44.3926 182.293 44.1348 181.875C43.877 181.453 43.4688 181.242 42.9102 181.242C42.3555 181.242 41.9512 181.451 41.6973 181.869C41.4434 182.287 41.3125 182.93 41.3047 183.797V185.531C41.3047 186.453 41.4375 187.135 41.7031 187.576C41.9727 188.014 42.3789 188.232 42.9219 188.232C43.457 188.232 43.8535 188.025 44.1113 187.611C44.373 187.197 44.5098 186.545 44.5215 185.654V183.879ZM50.5566 189H49.4668V181.775L47.2812 182.578V181.594L50.3867 180.428H50.5566V189ZM57.2949 189H56.2051V181.775L54.0195 182.578V181.594L57.125 180.428H57.2949V189ZM65.8203 185.361C65.8203 186.631 65.6035 187.574 65.1699 188.191C64.7363 188.809 64.0586 189.117 63.1367 189.117C62.2266 189.117 61.5527 188.816 61.1152 188.215C60.6777 187.609 60.4512 186.707 60.4355 185.508V184.061C60.4355 182.807 60.6523 181.875 61.0859 181.266C61.5195 180.656 62.1992 180.352 63.125 180.352C64.043 180.352 64.7188 180.646 65.1523 181.236C65.5859 181.822 65.8086 182.729 65.8203 183.955V185.361ZM64.7363 183.879C64.7363 182.961 64.6074 182.293 64.3496 181.875C64.0918 181.453 63.6836 181.242 63.125 181.242C62.5703 181.242 62.166 181.451 61.9121 181.869C61.6582 182.287 61.5273 182.93 61.5195 183.797V185.531C61.5195 186.453 61.6523 187.135 61.918 187.576C62.1875 188.014 62.5938 188.232 63.1367 188.232C63.6719 188.232 64.0684 188.025 64.3262 187.611C64.5879 187.197 64.7246 186.545 64.7363 185.654V183.879ZM72.5586 185.361C72.5586 186.631 72.3418 187.574 71.9082 188.191C71.4746 188.809 70.7969 189.117 69.875 189.117C68.9648 189.117 68.291 188.816 67.8535 188.215C67.416 187.609 67.1895 186.707 67.1738 185.508V184.061C67.1738 182.807 67.3906 181.875 67.8242 181.266C68.2578 180.656 68.9375 180.352 69.8633 180.352C70.7812 180.352 71.457 180.646 71.8906 181.236C72.3242 181.822 72.5469 182.729 72.5586 183.955V185.361ZM71.4746 183.879C71.4746 182.961 71.3457 182.293 71.0879 181.875C70.8301 181.453 70.4219 181.242 69.8633 181.242C69.3086 181.242 68.9043 181.451 68.6504 181.869C68.3965 182.287 68.2656 182.93 68.2578 183.797V185.531C68.2578 186.453 68.3906 187.135 68.6562 187.576C68.9258 188.014 69.332 188.232 69.875 188.232C70.4102 188.232 70.8066 188.025 71.0645 187.611C71.3262 187.197 71.4629 186.545 71.4746 185.654V183.879ZM79.2969 185.361C79.2969 186.631 79.0801 187.574 78.6465 188.191C78.2129 188.809 77.5352 189.117 76.6133 189.117C75.7031 189.117 75.0293 188.816 74.5918 188.215C74.1543 187.609 73.9277 186.707 73.9121 185.508V184.061C73.9121 182.807 74.1289 181.875 74.5625 181.266C74.9961 180.656 75.6758 180.352 76.6016 180.352C77.5195 180.352 78.1953 180.646 78.6289 181.236C79.0625 181.822 79.2852 182.729 79.2969 183.955V185.361ZM78.2129 183.879C78.2129 182.961 78.084 182.293 77.8262 181.875C77.5684 181.453 77.1602 181.242 76.6016 181.242C76.0469 181.242 75.6426 181.451 75.3887 181.869C75.1348 182.287 75.0039 182.93 74.9961 183.797V185.531C74.9961 186.453 75.1289 187.135 75.3945 187.576C75.6641 188.014 76.0703 188.232 76.6133 188.232C77.1484 188.232 77.5449 188.025 77.8027 187.611C78.0645 187.197 78.2012 186.545 78.2129 185.654V183.879ZM86.0352 185.361C86.0352 186.631 85.8184 187.574 85.3848 188.191C84.9512 188.809 84.2734 189.117 83.3516 189.117C82.4414 189.117 81.7676 188.816 81.3301 188.215C80.8926 187.609 80.666 186.707 80.6504 185.508V184.061C80.6504 182.807 80.8672 181.875 81.3008 181.266C81.7344 180.656 82.4141 180.352 83.3398 180.352C84.2578 180.352 84.9336 180.646 85.3672 181.236C85.8008 181.822 86.0234 182.729 86.0352 183.955V185.361ZM84.9512 183.879C84.9512 182.961 84.8223 182.293 84.5645 181.875C84.3066 181.453 83.8984 181.242 83.3398 181.242C82.7852 181.242 82.3809 181.451 82.127 181.869C81.873 182.287 81.7422 182.93 81.7344 183.797V185.531C81.7344 186.453 81.8672 187.135 82.1328 187.576C82.4023 188.014 82.8086 188.232 83.3516 188.232C83.8867 188.232 84.2832 188.025 84.541 187.611C84.8027 187.197 84.9395 186.545 84.9512 185.654V183.879ZM90.9863 189H89.8965V181.775L87.7109 182.578V181.594L90.8164 180.428H90.9863V189Z" fill="black"/>
<path d="M123.529 185.361C123.529 186.631 123.312 187.574 122.879 188.191C122.445 188.809 121.768 189.117 120.846 189.117C119.936 189.117 119.262 188.816 118.824 188.215C118.387 187.609 118.16 186.707 118.145 185.508V184.061C118.145 182.807 118.361 181.875 118.795 181.266C119.229 180.656 119.908 180.352 120.834 180.352C121.752 180.352 122.428 180.646 122.861 181.236C123.295 181.822 123.518 182.729 123.529 183.955V185.361ZM122.445 183.879C122.445 182.961 122.316 182.293 122.059 181.875C121.801 181.453 121.393 181.242 120.834 181.242C120.279 181.242 119.875 181.451 119.621 181.869C119.367 182.287 119.236 182.93 119.229 183.797V185.531C119.229 186.453 119.361 187.135 119.627 187.576C119.896 188.014 120.303 188.232 120.846 188.232C121.381 188.232 121.777 188.025 122.035 187.611C122.297 187.197 122.434 186.545 122.445 185.654V183.879ZM128.48 189H127.391V181.775L125.205 182.578V181.594L128.311 180.428H128.48V189ZM135.219 189H134.129V181.775L131.943 182.578V181.594L135.049 180.428H135.219V189ZM143.744 185.361C143.744 186.631 143.527 187.574 143.094 188.191C142.66 188.809 141.982 189.117 141.061 189.117C140.15 189.117 139.477 188.816 139.039 188.215C138.602 187.609 138.375 186.707 138.359 185.508V184.061C138.359 182.807 138.576 181.875 139.01 181.266C139.443 180.656 140.123 180.352 141.049 180.352C141.967 180.352 142.643 180.646 143.076 181.236C143.51 181.822 143.732 182.729 143.744 183.955V185.361ZM142.66 183.879C142.66 182.961 142.531 182.293 142.273 181.875C142.016 181.453 141.607 181.242 141.049 181.242C140.494 181.242 140.09 181.451 139.836 181.869C139.582 182.287 139.451 182.93 139.443 183.797V185.531C139.443 186.453 139.576 187.135 139.842 187.576C140.111 188.014 140.518 188.232 141.061 188.232C141.596 188.232 141.992 188.025 142.25 187.611C142.512 187.197 142.648 186.545 142.66 185.654V183.879ZM150.482 185.361C150.482 186.631 150.266 187.574 149.832 188.191C149.398 188.809 148.721 189.117 147.799 189.117C146.889 189.117 146.215 188.816 145.777 188.215C145.34 187.609 145.113 186.707 145.098 185.508V184.061C145.098 182.807 145.314 181.875 145.748 181.266C146.182 180.656 146.861 180.352 147.787 180.352C148.705 180.352 149.381 180.646 149.814 181.236C150.248 181.822 150.471 182.729 150.482 183.955V185.361ZM149.398 183.879C149.398 182.961 149.27 182.293 149.012 181.875C148.754 181.453 148.346 181.242 147.787 181.242C147.232 181.242 146.828 181.451 146.574 181.869C146.32 182.287 146.189 182.93 146.182 183.797V185.531C146.182 186.453 146.314 187.135 146.58 187.576C146.85 188.014 147.256 188.232 147.799 188.232C148.334 188.232 148.73 188.025 148.988 187.611C149.25 187.197 149.387 186.545 149.398 185.654V183.879ZM157.221 185.361C157.221 186.631 157.004 187.574 156.57 188.191C156.137 188.809 155.459 189.117 154.537 189.117C153.627 189.117 152.953 188.816 152.516 188.215C152.078 187.609 151.852 186.707 151.836 185.508V184.061C151.836 182.807 152.053 181.875 152.486 181.266C152.92 180.656 153.6 180.352 154.525 180.352C155.443 180.352 156.119 180.646 156.553 181.236C156.986 181.822 157.209 182.729 157.221 183.955V185.361ZM156.137 183.879C156.137 182.961 156.008 182.293 155.75 181.875C155.492 181.453 155.084 181.242 154.525 181.242C153.971 181.242 153.566 181.451 153.312 181.869C153.059 182.287 152.928 182.93 152.92 183.797V185.531C152.92 186.453 153.053 187.135 153.318 187.576C153.588 188.014 153.994 188.232 154.537 188.232C155.072 188.232 155.469 188.025 155.727 187.611C155.988 187.197 156.125 186.545 156.137 185.654V183.879ZM162.172 189H161.082V181.775L158.896 182.578V181.594L162.002 180.428H162.172V189Z" fill="black"/>
<path d="M169.332 189H167.639V182.473L165.617 183.1V181.723L169.15 180.457H169.332V189Z" fill="#FF0000"/>
<path d="M201.605 184.361C201.605 185.631 201.389 186.574 200.955 187.191C200.521 187.809 199.844 188.117 198.922 188.117C198.012 188.117 197.338 187.816 196.9 187.215C196.463 186.609 196.236 185.707 196.221 184.508V183.061C196.221 181.807 196.438 180.875 196.871 180.266C197.305 179.656 197.984 179.352 198.91 179.352C199.828 179.352 200.504 179.646 200.938 180.236C201.371 180.822 201.594 181.729 201.605 182.955V184.361ZM200.521 182.879C200.521 181.961 200.393 181.293 200.135 180.875C199.877 180.453 199.469 180.242 198.91 180.242C198.355 180.242 197.951 180.451 197.697 180.869C197.443 181.287 197.312 181.93 197.305 182.797V184.531C197.305 185.453 197.438 186.135 197.703 186.576C197.973 187.014 198.379 187.232 198.922 187.232C199.457 187.232 199.854 187.025 200.111 186.611C200.373 186.197 200.51 185.545 200.521 184.654V182.879ZM206.557 188H205.467V180.775L203.281 181.578V180.594L206.387 179.428H206.557V188ZM213.295 188H212.205V180.775L210.02 181.578V180.594L213.125 179.428H213.295V188ZM221.82 184.361C221.82 185.631 221.604 186.574 221.17 187.191C220.736 187.809 220.059 188.117 219.137 188.117C218.227 188.117 217.553 187.816 217.115 187.215C216.678 186.609 216.451 185.707 216.436 184.508V183.061C216.436 181.807 216.652 180.875 217.086 180.266C217.52 179.656 218.199 179.352 219.125 179.352C220.043 179.352 220.719 179.646 221.152 180.236C221.586 180.822 221.809 181.729 221.82 182.955V184.361ZM220.736 182.879C220.736 181.961 220.607 181.293 220.35 180.875C220.092 180.453 219.684 180.242 219.125 180.242C218.57 180.242 218.166 180.451 217.912 180.869C217.658 181.287 217.527 181.93 217.52 182.797V184.531C217.52 185.453 217.652 186.135 217.918 186.576C218.188 187.014 218.594 187.232 219.137 187.232C219.672 187.232 220.068 187.025 220.326 186.611C220.588 186.197 220.725 185.545 220.736 184.654V182.879ZM228.559 184.361C228.559 185.631 228.342 186.574 227.908 187.191C227.475 187.809 226.797 188.117 225.875 188.117C224.965 188.117 224.291 187.816 223.854 187.215C223.416 186.609 223.189 185.707 223.174 184.508V183.061C223.174 181.807 223.391 180.875 223.824 180.266C224.258 179.656 224.938 179.352 225.863 179.352C226.781 179.352 227.457 179.646 227.891 180.236C228.324 180.822 228.547 181.729 228.559 182.955V184.361ZM227.475 182.879C227.475 181.961 227.346 181.293 227.088 180.875C226.83 180.453 226.422 180.242 225.863 180.242C225.309 180.242 224.904 180.451 224.65 180.869C224.396 181.287 224.266 181.93 224.258 182.797V184.531C224.258 185.453 224.391 186.135 224.656 186.576C224.926 187.014 225.332 187.232 225.875 187.232C226.41 187.232 226.807 187.025 227.064 186.611C227.326 186.197 227.463 185.545 227.475 184.654V182.879ZM235.297 184.361C235.297 185.631 235.08 186.574 234.646 187.191C234.213 187.809 233.535 188.117 232.613 188.117C231.703 188.117 231.029 187.816 230.592 187.215C230.154 186.609 229.928 185.707 229.912 184.508V183.061C229.912 181.807 230.129 180.875 230.562 180.266C230.996 179.656 231.676 179.352 232.602 179.352C233.52 179.352 234.195 179.646 234.629 180.236C235.062 180.822 235.285 181.729 235.297 182.955V184.361ZM234.213 182.879C234.213 181.961 234.084 181.293 233.826 180.875C233.568 180.453 233.16 180.242 232.602 180.242C232.047 180.242 231.643 180.451 231.389 180.869C231.135 181.287 231.004 181.93 230.996 182.797V184.531C230.996 185.453 231.129 186.135 231.395 186.576C231.664 187.014 232.07 187.232 232.613 187.232C233.148 187.232 233.545 187.025 233.803 186.611C234.064 186.197 234.201 185.545 234.213 184.654V182.879ZM240.248 188H239.158V180.775L236.973 181.578V180.594L240.078 179.428H240.248V188ZM246.986 188H245.896V180.775L243.711 181.578V180.594L246.816 179.428H246.986V188Z" fill="black"/>
<path d="M279.605 183.361C279.605 184.631 279.389 185.574 278.955 186.191C278.521 186.809 277.844 187.117 276.922 187.117C276.012 187.117 275.338 186.816 274.9 186.215C274.463 185.609 274.236 184.707 274.221 183.508V182.061C274.221 180.807 274.438 179.875 274.871 179.266C275.305 178.656 275.984 178.352 276.91 178.352C277.828 178.352 278.504 178.646 278.938 179.236C279.371 179.822 279.594 180.729 279.605 181.955V183.361ZM278.521 181.879C278.521 180.961 278.393 180.293 278.135 179.875C277.877 179.453 277.469 179.242 276.91 179.242C276.355 179.242 275.951 179.451 275.697 179.869C275.443 180.287 275.312 180.93 275.305 181.797V183.531C275.305 184.453 275.438 185.135 275.703 185.576C275.973 186.014 276.379 186.232 276.922 186.232C277.457 186.232 277.854 186.025 278.111 185.611C278.373 185.197 278.51 184.545 278.521 183.654V181.879ZM286.344 183.361C286.344 184.631 286.127 185.574 285.693 186.191C285.26 186.809 284.582 187.117 283.66 187.117C282.75 187.117 282.076 186.816 281.639 186.215C281.201 185.609 280.975 184.707 280.959 183.508V182.061C280.959 180.807 281.176 179.875 281.609 179.266C282.043 178.656 282.723 178.352 283.648 178.352C284.566 178.352 285.242 178.646 285.676 179.236C286.109 179.822 286.332 180.729 286.344 181.955V183.361ZM285.26 181.879C285.26 180.961 285.131 180.293 284.873 179.875C284.615 179.453 284.207 179.242 283.648 179.242C283.094 179.242 282.689 179.451 282.436 179.869C282.182 180.287 282.051 180.93 282.043 181.797V183.531C282.043 184.453 282.176 185.135 282.441 185.576C282.711 186.014 283.117 186.232 283.66 186.232C284.195 186.232 284.592 186.025 284.85 185.611C285.111 185.197 285.248 184.545 285.26 183.654V181.879ZM291.295 187H290.205V179.775L288.02 180.578V179.594L291.125 178.428H291.295V187ZM299.82 183.361C299.82 184.631 299.604 185.574 299.17 186.191C298.736 186.809 298.059 187.117 297.137 187.117C296.227 187.117 295.553 186.816 295.115 186.215C294.678 185.609 294.451 184.707 294.436 183.508V182.061C294.436 180.807 294.652 179.875 295.086 179.266C295.52 178.656 296.199 178.352 297.125 178.352C298.043 178.352 298.719 178.646 299.152 179.236C299.586 179.822 299.809 180.729 299.82 181.955V183.361ZM298.736 181.879C298.736 180.961 298.607 180.293 298.35 179.875C298.092 179.453 297.684 179.242 297.125 179.242C296.57 179.242 296.166 179.451 295.912 179.869C295.658 180.287 295.527 180.93 295.52 181.797V183.531C295.52 184.453 295.652 185.135 295.918 185.576C296.188 186.014 296.594 186.232 297.137 186.232C297.672 186.232 298.068 186.025 298.326 185.611C298.588 185.197 298.725 184.545 298.736 183.654V181.879ZM304.771 187H303.682V179.775L301.496 180.578V179.594L304.602 178.428H304.771V187ZM311.51 187H310.42V179.775L308.234 180.578V179.594L311.34 178.428H311.51V187ZM318.248 187H317.158V179.775L314.973 180.578V179.594L318.078 178.428H318.248V187ZM326.773 183.361C326.773 184.631 326.557 185.574 326.123 186.191C325.689 186.809 325.012 187.117 324.09 187.117C323.18 187.117 322.506 186.816 322.068 186.215C321.631 185.609 321.404 184.707 321.389 183.508V182.061C321.389 180.807 321.605 179.875 322.039 179.266C322.473 178.656 323.152 178.352 324.078 178.352C324.996 178.352 325.672 178.646 326.105 179.236C326.539 179.822 326.762 180.729 326.773 181.955V183.361ZM325.689 181.879C325.689 180.961 325.561 180.293 325.303 179.875C325.045 179.453 324.637 179.242 324.078 179.242C323.523 179.242 323.119 179.451 322.865 179.869C322.611 180.287 322.48 180.93 322.473 181.797V183.531C322.473 184.453 322.605 185.135 322.871 185.576C323.141 186.014 323.547 186.232 324.09 186.232C324.625 186.232 325.021 186.025 325.279 185.611C325.541 185.197 325.678 184.545 325.689 183.654V181.879Z" fill="black"/>
<path d="M359.094 183.361C359.094 184.631 358.877 185.574 358.443 186.191C358.01 186.809 357.332 187.117 356.41 187.117C355.5 187.117 354.826 186.816 354.389 186.215C353.951 185.609 353.725 184.707 353.709 183.508V182.061C353.709 180.807 353.926 179.875 354.359 179.266C354.793 178.656 355.473 178.352 356.398 178.352C357.316 178.352 357.992 178.646 358.426 179.236C358.859 179.822 359.082 180.729 359.094 181.955V183.361ZM358.01 181.879C358.01 180.961 357.881 180.293 357.623 179.875C357.365 179.453 356.957 179.242 356.398 179.242C355.844 179.242 355.439 179.451 355.186 179.869C354.932 180.287 354.801 180.93 354.793 181.797V183.531C354.793 184.453 354.926 185.135 355.191 185.576C355.461 186.014 355.867 186.232 356.41 186.232C356.945 186.232 357.342 186.025 357.6 185.611C357.861 185.197 357.998 184.545 358.01 183.654V181.879ZM364.045 187H362.955V179.775L360.77 180.578V179.594L363.875 178.428H364.045V187ZM370.783 187H369.693V179.775L367.508 180.578V179.594L370.613 178.428H370.783V187ZM379.309 183.361C379.309 184.631 379.092 185.574 378.658 186.191C378.225 186.809 377.547 187.117 376.625 187.117C375.715 187.117 375.041 186.816 374.604 186.215C374.166 185.609 373.939 184.707 373.924 183.508V182.061C373.924 180.807 374.141 179.875 374.574 179.266C375.008 178.656 375.688 178.352 376.613 178.352C377.531 178.352 378.207 178.646 378.641 179.236C379.074 179.822 379.297 180.729 379.309 181.955V183.361ZM378.225 181.879C378.225 180.961 378.096 180.293 377.838 179.875C377.58 179.453 377.172 179.242 376.613 179.242C376.059 179.242 375.654 179.451 375.4 179.869C375.146 180.287 375.016 180.93 375.008 181.797V183.531C375.008 184.453 375.141 185.135 375.406 185.576C375.676 186.014 376.082 186.232 376.625 186.232C377.16 186.232 377.557 186.025 377.814 185.611C378.076 185.197 378.213 184.545 378.225 183.654V181.879ZM386.047 183.361C386.047 184.631 385.83 185.574 385.396 186.191C384.963 186.809 384.285 187.117 383.363 187.117C382.453 187.117 381.779 186.816 381.342 186.215C380.904 185.609 380.678 184.707 380.662 183.508V182.061C380.662 180.807 380.879 179.875 381.312 179.266C381.746 178.656 382.426 178.352 383.352 178.352C384.27 178.352 384.945 178.646 385.379 179.236C385.812 179.822 386.035 180.729 386.047 181.955V183.361ZM384.963 181.879C384.963 180.961 384.834 180.293 384.576 179.875C384.318 179.453 383.91 179.242 383.352 179.242C382.797 179.242 382.393 179.451 382.139 179.869C381.885 180.287 381.754 180.93 381.746 181.797V183.531C381.746 184.453 381.879 185.135 382.145 185.576C382.414 186.014 382.82 186.232 383.363 186.232C383.898 186.232 384.295 186.025 384.553 185.611C384.814 185.197 384.951 184.545 384.963 183.654V181.879ZM392.785 183.361C392.785 184.631 392.568 185.574 392.135 186.191C391.701 186.809 391.023 187.117 390.102 187.117C389.191 187.117 388.518 186.816 388.08 186.215C387.643 185.609 387.416 184.707 387.4 183.508V182.061C387.4 180.807 387.617 179.875 388.051 179.266C388.484 178.656 389.164 178.352 390.09 178.352C391.008 178.352 391.684 178.646 392.117 179.236C392.551 179.822 392.773 180.729 392.785 181.955V183.361ZM391.701 181.879C391.701 180.961 391.572 180.293 391.314 179.875C391.057 179.453 390.648 179.242 390.09 179.242C389.535 179.242 389.131 179.451 388.877 179.869C388.623 180.287 388.492 180.93 388.484 181.797V183.531C388.484 184.453 388.617 185.135 388.883 185.576C389.152 186.014 389.559 186.232 390.102 186.232C390.637 186.232 391.033 186.025 391.291 185.611C391.553 185.197 391.689 184.545 391.701 183.654V181.879ZM397.736 187H396.646V179.775L394.461 180.578V179.594L397.566 178.428H397.736V187ZM404.475 187H403.385V179.775L401.199 180.578V179.594L404.305 178.428H404.475V187Z" fill="black"/>
<path d="M437.094 183.361C437.094 184.631 436.877 185.574 436.443 186.191C436.01 186.809 435.332 187.117 434.41 187.117C433.5 187.117 432.826 186.816 432.389 186.215C431.951 185.609 431.725 184.707 431.709 183.508V182.061C431.709 180.807 431.926 179.875 432.359 179.266C432.793 178.656 433.473 178.352 434.398 178.352C435.316 178.352 435.992 178.646 436.426 179.236C436.859 179.822 437.082 180.729 437.094 181.955V183.361ZM436.01 181.879C436.01 180.961 435.881 180.293 435.623 179.875C435.365 179.453 434.957 179.242 434.398 179.242C433.844 179.242 433.439 179.451 433.186 179.869C432.932 180.287 432.801 180.93 432.793 181.797V183.531C432.793 184.453 432.926 185.135 433.191 185.576C433.461 186.014 433.867 186.232 434.41 186.232C434.945 186.232 435.342 186.025 435.6 185.611C435.861 185.197 435.998 184.545 436.01 183.654V181.879ZM442.045 187H440.955V179.775L438.77 180.578V179.594L441.875 178.428H442.045V187ZM448.783 187H447.693V179.775L445.508 180.578V179.594L448.613 178.428H448.783V187ZM457.309 183.361C457.309 184.631 457.092 185.574 456.658 186.191C456.225 186.809 455.547 187.117 454.625 187.117C453.715 187.117 453.041 186.816 452.604 186.215C452.166 185.609 451.939 184.707 451.924 183.508V182.061C451.924 180.807 452.141 179.875 452.574 179.266C453.008 178.656 453.688 178.352 454.613 178.352C455.531 178.352 456.207 178.646 456.641 179.236C457.074 179.822 457.297 180.729 457.309 181.955V183.361ZM456.225 181.879C456.225 180.961 456.096 180.293 455.838 179.875C455.58 179.453 455.172 179.242 454.613 179.242C454.059 179.242 453.654 179.451 453.4 179.869C453.146 180.287 453.016 180.93 453.008 181.797V183.531C453.008 184.453 453.141 185.135 453.406 185.576C453.676 186.014 454.082 186.232 454.625 186.232C455.16 186.232 455.557 186.025 455.814 185.611C456.076 185.197 456.213 184.545 456.225 183.654V181.879ZM462.26 187H461.17V179.775L458.984 180.578V179.594L462.09 178.428H462.26V187ZM468.998 187H467.908V179.775L465.723 180.578V179.594L468.828 178.428H468.998V187ZM475.736 187H474.646V179.775L472.461 180.578V179.594L475.566 178.428H475.736V187ZM482.475 187H481.385V179.775L479.199 180.578V179.594L482.305 178.428H482.475V187Z" fill="black"/>
<path d="M513.605 182.361C513.605 183.631 513.389 184.574 512.955 185.191C512.521 185.809 511.844 186.117 510.922 186.117C510.012 186.117 509.338 185.816 508.9 185.215C508.463 184.609 508.236 183.707 508.221 182.508V181.061C508.221 179.807 508.438 178.875 508.871 178.266C509.305 177.656 509.984 177.352 510.91 177.352C511.828 177.352 512.504 177.646 512.938 178.236C513.371 178.822 513.594 179.729 513.605 180.955V182.361ZM512.521 180.879C512.521 179.961 512.393 179.293 512.135 178.875C511.877 178.453 511.469 178.242 510.91 178.242C510.355 178.242 509.951 178.451 509.697 178.869C509.443 179.287 509.312 179.93 509.305 180.797V182.531C509.305 183.453 509.438 184.135 509.703 184.576C509.973 185.014 510.379 185.232 510.922 185.232C511.457 185.232 511.854 185.025 512.111 184.611C512.373 184.197 512.51 183.545 512.521 182.654V180.879ZM518.557 186H517.467V178.775L515.281 179.578V178.594L518.387 177.428H518.557V186ZM525.295 186H524.205V178.775L522.02 179.578V178.594L525.125 177.428H525.295V186ZM533.82 182.361C533.82 183.631 533.604 184.574 533.17 185.191C532.736 185.809 532.059 186.117 531.137 186.117C530.227 186.117 529.553 185.816 529.115 185.215C528.678 184.609 528.451 183.707 528.436 182.508V181.061C528.436 179.807 528.652 178.875 529.086 178.266C529.52 177.656 530.199 177.352 531.125 177.352C532.043 177.352 532.719 177.646 533.152 178.236C533.586 178.822 533.809 179.729 533.82 180.955V182.361ZM532.736 180.879C532.736 179.961 532.607 179.293 532.35 178.875C532.092 178.453 531.684 178.242 531.125 178.242C530.57 178.242 530.166 178.451 529.912 178.869C529.658 179.287 529.527 179.93 529.52 180.797V182.531C529.52 183.453 529.652 184.135 529.918 184.576C530.188 185.014 530.594 185.232 531.137 185.232C531.672 185.232 532.068 185.025 532.326 184.611C532.588 184.197 532.725 183.545 532.736 182.654V180.879ZM538.771 186H537.682V178.775L535.496 179.578V178.594L538.602 177.428H538.771V186ZM545.51 186H544.42V178.775L542.234 179.578V178.594L545.34 177.428H545.51V186ZM554.035 182.361C554.035 183.631 553.818 184.574 553.385 185.191C552.951 185.809 552.273 186.117 551.352 186.117C550.441 186.117 549.768 185.816 549.33 185.215C548.893 184.609 548.666 183.707 548.65 182.508V181.061C548.65 179.807 548.867 178.875 549.301 178.266C549.734 177.656 550.414 177.352 551.34 177.352C552.258 177.352 552.934 177.646 553.367 178.236C553.801 178.822 554.023 179.729 554.035 180.955V182.361ZM552.951 180.879C552.951 179.961 552.822 179.293 552.564 178.875C552.307 178.453 551.898 178.242 551.34 178.242C550.785 178.242 550.381 178.451 550.127 178.869C549.873 179.287 549.742 179.93 549.734 180.797V182.531C549.734 183.453 549.867 184.135 550.133 184.576C550.402 185.014 550.809 185.232 551.352 185.232C551.887 185.232 552.283 185.025 552.541 184.611C552.803 184.197 552.939 183.545 552.951 182.654V180.879ZM558.986 186H557.896V178.775L555.711 179.578V178.594L558.816 177.428H558.986V186Z" fill="black"/>
</svg>
