<svg width="600" height="300" viewBox="0 0 600 300" fill="none" xmlns="http://www.w3.org/2000/svg">
<rect width="600" height="300" fill="white"/>
<path d="M259.891 234.994C260.44 235.054 260.934 234.658 260.994 234.109L261.975 225.163C262.035 224.614 261.639 224.12 261.09 224.06C260.541 223.999 260.047 224.396 259.987 224.945L259.115 232.897L251.163 232.025C250.614 231.965 250.12 232.361 250.06 232.91C249.999 233.459 250.396 233.953 250.945 234.013L259.891 234.994ZM190.22 148.626L259.22 234.626L260.78 233.374L191.78 147.374L190.22 148.626Z" fill="black"/>
<rect x="266.5" y="100.5" width="79" height="79" rx="3.5" fill="white" stroke="black"/>
<path d="M285.926 129.547H278.777L277.172 134H274.852L281.367 116.938H283.336L289.863 134H287.555L285.926 129.547ZM279.457 127.695H285.258L282.352 119.715L279.457 127.695ZM291.305 127.555C291.305 125.578 291.762 124.008 292.676 122.844C293.59 121.672 294.801 121.086 296.309 121.086C297.855 121.086 299.062 121.633 299.93 122.727L300.035 121.32H302.016V133.695C302.016 135.336 301.527 136.629 300.551 137.574C299.582 138.52 298.277 138.992 296.637 138.992C295.723 138.992 294.828 138.797 293.953 138.406C293.078 138.016 292.41 137.48 291.949 136.801L293.074 135.5C294.004 136.648 295.141 137.223 296.484 137.223C297.539 137.223 298.359 136.926 298.945 136.332C299.539 135.738 299.836 134.902 299.836 133.824V132.734C298.969 133.734 297.785 134.234 296.285 134.234C294.801 134.234 293.598 133.637 292.676 132.441C291.762 131.246 291.305 129.617 291.305 127.555ZM293.484 127.801C293.484 129.23 293.777 130.355 294.363 131.176C294.949 131.988 295.77 132.395 296.824 132.395C298.191 132.395 299.195 131.773 299.836 130.531V124.742C299.172 123.531 298.176 122.926 296.848 122.926C295.793 122.926 294.969 123.336 294.375 124.156C293.781 124.977 293.484 126.191 293.484 127.801ZM310.559 134.234C308.84 134.234 307.441 133.672 306.363 132.547C305.285 131.414 304.746 129.902 304.746 128.012V127.613C304.746 126.355 304.984 125.234 305.461 124.25C305.945 123.258 306.617 122.484 307.477 121.93C308.344 121.367 309.281 121.086 310.289 121.086C311.938 121.086 313.219 121.629 314.133 122.715C315.047 123.801 315.504 125.355 315.504 127.379V128.281H306.914C306.945 129.531 307.309 130.543 308.004 131.316C308.707 132.082 309.598 132.465 310.676 132.465C311.441 132.465 312.09 132.309 312.621 131.996C313.152 131.684 313.617 131.27 314.016 130.754L315.34 131.785C314.277 133.418 312.684 134.234 310.559 134.234ZM310.289 122.867C309.414 122.867 308.68 123.188 308.086 123.828C307.492 124.461 307.125 125.352 306.984 126.5H313.336V126.336C313.273 125.234 312.977 124.383 312.445 123.781C311.914 123.172 311.195 122.867 310.289 122.867ZM320.074 121.32L320.145 122.914C321.113 121.695 322.379 121.086 323.941 121.086C326.621 121.086 327.973 122.598 327.996 125.621V134H325.828V125.609C325.82 124.695 325.609 124.02 325.195 123.582C324.789 123.145 324.152 122.926 323.285 122.926C322.582 122.926 321.965 123.113 321.434 123.488C320.902 123.863 320.488 124.355 320.191 124.965V134H318.023V121.32H320.074ZM334.207 118.25V121.32H336.574V122.996H334.207V130.859C334.207 131.367 334.312 131.75 334.523 132.008C334.734 132.258 335.094 132.383 335.602 132.383C335.852 132.383 336.195 132.336 336.633 132.242V134C336.062 134.156 335.508 134.234 334.969 134.234C334 134.234 333.27 133.941 332.777 133.355C332.285 132.77 332.039 131.938 332.039 130.859V122.996H329.73V121.32H332.039V118.25H334.207ZM309.574 157.547H302.426L300.82 162H298.5L305.016 144.938H306.984L313.512 162H311.203L309.574 157.547ZM303.105 155.695H308.906L306 147.715L303.105 155.695Z" fill="black"/>
<rect x="395.5" y="9.5" width="79" height="79" rx="3.5" fill="white" stroke="black"/>
<path d="M414.926 38.5469H407.777L406.172 43H403.852L410.367 25.9375H412.336L418.863 43H416.555L414.926 38.5469ZM408.457 36.6953H414.258L411.352 28.7148L408.457 36.6953ZM420.305 36.5547C420.305 34.5781 420.762 33.0078 421.676 31.8438C422.59 30.6719 423.801 30.0859 425.309 30.0859C426.855 30.0859 428.062 30.6328 428.93 31.7266L429.035 30.3203H431.016V42.6953C431.016 44.3359 430.527 45.6289 429.551 46.5742C428.582 47.5195 427.277 47.9922 425.637 47.9922C424.723 47.9922 423.828 47.7969 422.953 47.4062C422.078 47.0156 421.41 46.4805 420.949 45.8008L422.074 44.5C423.004 45.6484 424.141 46.2227 425.484 46.2227C426.539 46.2227 427.359 45.9258 427.945 45.332C428.539 44.7383 428.836 43.9023 428.836 42.8242V41.7344C427.969 42.7344 426.785 43.2344 425.285 43.2344C423.801 43.2344 422.598 42.6367 421.676 41.4414C420.762 40.2461 420.305 38.6172 420.305 36.5547ZM422.484 36.8008C422.484 38.2305 422.777 39.3555 423.363 40.1758C423.949 40.9883 424.77 41.3945 425.824 41.3945C427.191 41.3945 428.195 40.7734 428.836 39.5312V33.7422C428.172 32.5312 427.176 31.9258 425.848 31.9258C424.793 31.9258 423.969 32.3359 423.375 33.1562C422.781 33.9766 422.484 35.1914 422.484 36.8008ZM439.559 43.2344C437.84 43.2344 436.441 42.6719 435.363 41.5469C434.285 40.4141 433.746 38.9023 433.746 37.0117V36.6133C433.746 35.3555 433.984 34.2344 434.461 33.25C434.945 32.2578 435.617 31.4844 436.477 30.9297C437.344 30.3672 438.281 30.0859 439.289 30.0859C440.938 30.0859 442.219 30.6289 443.133 31.7148C444.047 32.8008 444.504 34.3555 444.504 36.3789V37.2812H435.914C435.945 38.5312 436.309 39.543 437.004 40.3164C437.707 41.082 438.598 41.4648 439.676 41.4648C440.441 41.4648 441.09 41.3086 441.621 40.9961C442.152 40.6836 442.617 40.2695 443.016 39.7539L444.34 40.7852C443.277 42.418 441.684 43.2344 439.559 43.2344ZM439.289 31.8672C438.414 31.8672 437.68 32.1875 437.086 32.8281C436.492 33.4609 436.125 34.3516 435.984 35.5H442.336V35.3359C442.273 34.2344 441.977 33.3828 441.445 32.7812C440.914 32.1719 440.195 31.8672 439.289 31.8672ZM449.074 30.3203L449.145 31.9141C450.113 30.6953 451.379 30.0859 452.941 30.0859C455.621 30.0859 456.973 31.5977 456.996 34.6211V43H454.828V34.6094C454.82 33.6953 454.609 33.0195 454.195 32.582C453.789 32.1445 453.152 31.9258 452.285 31.9258C451.582 31.9258 450.965 32.1133 450.434 32.4883C449.902 32.8633 449.488 33.3555 449.191 33.9648V43H447.023V30.3203H449.074ZM463.207 27.25V30.3203H465.574V31.9961H463.207V39.8594C463.207 40.3672 463.312 40.75 463.523 41.0078C463.734 41.2578 464.094 41.3828 464.602 41.3828C464.852 41.3828 465.195 41.3359 465.633 41.2422V43C465.062 43.1562 464.508 43.2344 463.969 43.2344C463 43.2344 462.27 42.9414 461.777 42.3555C461.285 41.7695 461.039 40.9375 461.039 39.8594V31.9961H458.73V30.3203H461.039V27.25H463.207ZM429.504 71V53.9375H435.082C436.934 53.9375 438.324 54.3203 439.254 55.0859C440.191 55.8516 440.66 56.9844 440.66 58.4844C440.66 59.2812 440.434 59.9883 439.98 60.6055C439.527 61.2148 438.91 61.6875 438.129 62.0234C439.051 62.2812 439.777 62.7734 440.309 63.5C440.848 64.2188 441.117 65.0781 441.117 66.0781C441.117 67.6094 440.621 68.8125 439.629 69.6875C438.637 70.5625 437.234 71 435.422 71H429.504ZM431.754 63.0195V69.1602H435.469C436.516 69.1602 437.34 68.8906 437.941 68.3516C438.551 67.8047 438.855 67.0547 438.855 66.1016C438.855 64.0469 437.738 63.0195 435.504 63.0195H431.754ZM431.754 61.2148H435.152C436.137 61.2148 436.922 60.9688 437.508 60.4766C438.102 59.9844 438.398 59.3164 438.398 58.4727C438.398 57.5352 438.125 56.8555 437.578 56.4336C437.031 56.0039 436.199 55.7891 435.082 55.7891H431.754V61.2148Z" fill="black"/>
<rect x="504.5" y="106.5" width="79" height="79" rx="3.5" fill="white" stroke="black"/>
<path d="M523.926 135.547H516.777L515.172 140H512.852L519.367 122.938H521.336L527.863 140H525.555L523.926 135.547ZM517.457 133.695H523.258L520.352 125.715L517.457 133.695ZM529.305 133.555C529.305 131.578 529.762 130.008 530.676 128.844C531.59 127.672 532.801 127.086 534.309 127.086C535.855 127.086 537.062 127.633 537.93 128.727L538.035 127.32H540.016V139.695C540.016 141.336 539.527 142.629 538.551 143.574C537.582 144.52 536.277 144.992 534.637 144.992C533.723 144.992 532.828 144.797 531.953 144.406C531.078 144.016 530.41 143.48 529.949 142.801L531.074 141.5C532.004 142.648 533.141 143.223 534.484 143.223C535.539 143.223 536.359 142.926 536.945 142.332C537.539 141.738 537.836 140.902 537.836 139.824V138.734C536.969 139.734 535.785 140.234 534.285 140.234C532.801 140.234 531.598 139.637 530.676 138.441C529.762 137.246 529.305 135.617 529.305 133.555ZM531.484 133.801C531.484 135.23 531.777 136.355 532.363 137.176C532.949 137.988 533.77 138.395 534.824 138.395C536.191 138.395 537.195 137.773 537.836 136.531V130.742C537.172 129.531 536.176 128.926 534.848 128.926C533.793 128.926 532.969 129.336 532.375 130.156C531.781 130.977 531.484 132.191 531.484 133.801ZM548.559 140.234C546.84 140.234 545.441 139.672 544.363 138.547C543.285 137.414 542.746 135.902 542.746 134.012V133.613C542.746 132.355 542.984 131.234 543.461 130.25C543.945 129.258 544.617 128.484 545.477 127.93C546.344 127.367 547.281 127.086 548.289 127.086C549.938 127.086 551.219 127.629 552.133 128.715C553.047 129.801 553.504 131.355 553.504 133.379V134.281H544.914C544.945 135.531 545.309 136.543 546.004 137.316C546.707 138.082 547.598 138.465 548.676 138.465C549.441 138.465 550.09 138.309 550.621 137.996C551.152 137.684 551.617 137.27 552.016 136.754L553.34 137.785C552.277 139.418 550.684 140.234 548.559 140.234ZM548.289 128.867C547.414 128.867 546.68 129.188 546.086 129.828C545.492 130.461 545.125 131.352 544.984 132.5H551.336V132.336C551.273 131.234 550.977 130.383 550.445 129.781C549.914 129.172 549.195 128.867 548.289 128.867ZM558.074 127.32L558.145 128.914C559.113 127.695 560.379 127.086 561.941 127.086C564.621 127.086 565.973 128.598 565.996 131.621V140H563.828V131.609C563.82 130.695 563.609 130.02 563.195 129.582C562.789 129.145 562.152 128.926 561.285 128.926C560.582 128.926 559.965 129.113 559.434 129.488C558.902 129.863 558.488 130.355 558.191 130.965V140H556.023V127.32H558.074ZM572.207 124.25V127.32H574.574V128.996H572.207V136.859C572.207 137.367 572.312 137.75 572.523 138.008C572.734 138.258 573.094 138.383 573.602 138.383C573.852 138.383 574.195 138.336 574.633 138.242V140C574.062 140.156 573.508 140.234 572.969 140.234C572 140.234 571.27 139.941 570.777 139.355C570.285 138.77 570.039 137.938 570.039 136.859V128.996H567.73V127.32H570.039V124.25H572.207ZM550.715 162.586C550.504 164.391 549.836 165.785 548.711 166.77C547.594 167.746 546.105 168.234 544.246 168.234C542.23 168.234 540.613 167.512 539.395 166.066C538.184 164.621 537.578 162.688 537.578 160.266V158.625C537.578 157.039 537.859 155.645 538.422 154.441C538.992 153.238 539.797 152.316 540.836 151.676C541.875 151.027 543.078 150.703 544.445 150.703C546.258 150.703 547.711 151.211 548.805 152.227C549.898 153.234 550.535 154.633 550.715 156.422H548.453C548.258 155.062 547.832 154.078 547.176 153.469C546.527 152.859 545.617 152.555 544.445 152.555C543.008 152.555 541.879 153.086 541.059 154.148C540.246 155.211 539.84 156.723 539.84 158.684V160.336C539.84 162.188 540.227 163.66 541 164.754C541.773 165.848 542.855 166.395 544.246 166.395C545.496 166.395 546.453 166.113 547.117 165.551C547.789 164.98 548.234 163.992 548.453 162.586H550.715Z" fill="black"/>
<rect x="260.5" y="205.5" width="79" height="79" rx="3.5" fill="white" stroke="black"/>
<path d="M279.926 234.547H272.777L271.172 239H268.852L275.367 221.938H277.336L283.863 239H281.555L279.926 234.547ZM273.457 232.695H279.258L276.352 224.715L273.457 232.695ZM285.305 232.555C285.305 230.578 285.762 229.008 286.676 227.844C287.59 226.672 288.801 226.086 290.309 226.086C291.855 226.086 293.062 226.633 293.93 227.727L294.035 226.32H296.016V238.695C296.016 240.336 295.527 241.629 294.551 242.574C293.582 243.52 292.277 243.992 290.637 243.992C289.723 243.992 288.828 243.797 287.953 243.406C287.078 243.016 286.41 242.48 285.949 241.801L287.074 240.5C288.004 241.648 289.141 242.223 290.484 242.223C291.539 242.223 292.359 241.926 292.945 241.332C293.539 240.738 293.836 239.902 293.836 238.824V237.734C292.969 238.734 291.785 239.234 290.285 239.234C288.801 239.234 287.598 238.637 286.676 237.441C285.762 236.246 285.305 234.617 285.305 232.555ZM287.484 232.801C287.484 234.23 287.777 235.355 288.363 236.176C288.949 236.988 289.77 237.395 290.824 237.395C292.191 237.395 293.195 236.773 293.836 235.531V229.742C293.172 228.531 292.176 227.926 290.848 227.926C289.793 227.926 288.969 228.336 288.375 229.156C287.781 229.977 287.484 231.191 287.484 232.801ZM304.559 239.234C302.84 239.234 301.441 238.672 300.363 237.547C299.285 236.414 298.746 234.902 298.746 233.012V232.613C298.746 231.355 298.984 230.234 299.461 229.25C299.945 228.258 300.617 227.484 301.477 226.93C302.344 226.367 303.281 226.086 304.289 226.086C305.938 226.086 307.219 226.629 308.133 227.715C309.047 228.801 309.504 230.355 309.504 232.379V233.281H300.914C300.945 234.531 301.309 235.543 302.004 236.316C302.707 237.082 303.598 237.465 304.676 237.465C305.441 237.465 306.09 237.309 306.621 236.996C307.152 236.684 307.617 236.27 308.016 235.754L309.34 236.785C308.277 238.418 306.684 239.234 304.559 239.234ZM304.289 227.867C303.414 227.867 302.68 228.188 302.086 228.828C301.492 229.461 301.125 230.352 300.984 231.5H307.336V231.336C307.273 230.234 306.977 229.383 306.445 228.781C305.914 228.172 305.195 227.867 304.289 227.867ZM314.074 226.32L314.145 227.914C315.113 226.695 316.379 226.086 317.941 226.086C320.621 226.086 321.973 227.598 321.996 230.621V239H319.828V230.609C319.82 229.695 319.609 229.02 319.195 228.582C318.789 228.145 318.152 227.926 317.285 227.926C316.582 227.926 315.965 228.113 315.434 228.488C314.902 228.863 314.488 229.355 314.191 229.965V239H312.023V226.32H314.074ZM328.207 223.25V226.32H330.574V227.996H328.207V235.859C328.207 236.367 328.312 236.75 328.523 237.008C328.734 237.258 329.094 237.383 329.602 237.383C329.852 237.383 330.195 237.336 330.633 237.242V239C330.062 239.156 329.508 239.234 328.969 239.234C328 239.234 327.27 238.941 326.777 238.355C326.285 237.77 326.039 236.938 326.039 235.859V227.996H323.73V226.32H326.039V223.25H328.207ZM304.805 259.113H297.41V265.16H306V267H295.16V249.938H305.883V251.789H297.41V257.273H304.805V259.113Z" fill="black"/>
<path d="M359.621 269.823H356.615V275H354.919V262.203H359.155C360.597 262.203 361.704 262.531 362.478 263.188C363.257 263.844 363.646 264.799 363.646 266.053C363.646 266.85 363.43 267.544 362.996 268.136C362.568 268.728 361.971 269.17 361.203 269.463L364.209 274.895V275H362.398L359.621 269.823ZM356.615 268.443H359.208C360.046 268.443 360.711 268.227 361.203 267.793C361.701 267.359 361.95 266.779 361.95 266.053C361.95 265.262 361.713 264.655 361.238 264.233C360.77 263.812 360.09 263.598 359.199 263.592H356.615V268.443ZM369.711 275.176C368.422 275.176 367.373 274.754 366.564 273.91C365.756 273.061 365.352 271.927 365.352 270.509V270.21C365.352 269.267 365.53 268.426 365.888 267.688C366.251 266.943 366.755 266.363 367.399 265.947C368.05 265.525 368.753 265.314 369.509 265.314C370.745 265.314 371.706 265.722 372.392 266.536C373.077 267.351 373.42 268.517 373.42 270.034V270.711H366.978C367.001 271.648 367.273 272.407 367.795 272.987C368.322 273.562 368.99 273.849 369.799 273.849C370.373 273.849 370.859 273.731 371.258 273.497C371.656 273.263 372.005 272.952 372.304 272.565L373.297 273.339C372.5 274.563 371.305 275.176 369.711 275.176ZM369.509 266.65C368.853 266.65 368.302 266.891 367.856 267.371C367.411 267.846 367.136 268.514 367.03 269.375H371.794V269.252C371.747 268.426 371.524 267.787 371.126 267.336C370.728 266.879 370.188 266.65 369.509 266.65ZM380.847 272.478C380.847 272.038 380.68 271.698 380.346 271.458C380.018 271.212 379.44 271.001 378.614 270.825C377.794 270.649 377.141 270.438 376.654 270.192C376.174 269.946 375.816 269.653 375.582 269.313C375.354 268.974 375.239 268.569 375.239 268.101C375.239 267.321 375.567 266.662 376.224 266.123C376.886 265.584 377.729 265.314 378.755 265.314C379.833 265.314 380.706 265.593 381.374 266.149C382.048 266.706 382.385 267.418 382.385 268.285H380.75C380.75 267.84 380.56 267.456 380.179 267.134C379.804 266.812 379.329 266.65 378.755 266.65C378.163 266.65 377.7 266.779 377.366 267.037C377.032 267.295 376.865 267.632 376.865 268.048C376.865 268.44 377.021 268.736 377.331 268.936C377.642 269.135 378.201 269.325 379.01 269.507C379.824 269.688 380.483 269.905 380.987 270.157C381.491 270.409 381.863 270.714 382.104 271.071C382.35 271.423 382.473 271.854 382.473 272.363C382.473 273.213 382.133 273.896 381.453 274.411C380.773 274.921 379.892 275.176 378.808 275.176C378.046 275.176 377.372 275.041 376.786 274.771C376.2 274.502 375.74 274.127 375.406 273.646C375.078 273.16 374.914 272.636 374.914 272.073H376.54C376.569 272.618 376.786 273.052 377.19 273.374C377.601 273.69 378.14 273.849 378.808 273.849C379.423 273.849 379.915 273.726 380.284 273.479C380.659 273.228 380.847 272.894 380.847 272.478ZM390.462 274.06C389.829 274.804 388.9 275.176 387.676 275.176C386.662 275.176 385.889 274.883 385.355 274.297C384.828 273.705 384.562 272.832 384.556 271.678V265.49H386.182V271.634C386.182 273.075 386.768 273.796 387.939 273.796C389.182 273.796 390.008 273.333 390.418 272.407V265.49H392.044V275H390.497L390.462 274.06ZM396.289 275H394.663V261.5H396.289V275ZM401.105 263.188V265.49H402.881V266.747H401.105V272.645C401.105 273.025 401.185 273.312 401.343 273.506C401.501 273.693 401.771 273.787 402.151 273.787C402.339 273.787 402.597 273.752 402.925 273.682V275C402.497 275.117 402.081 275.176 401.677 275.176C400.95 275.176 400.402 274.956 400.033 274.517C399.664 274.077 399.479 273.453 399.479 272.645V266.747H397.748V265.49H399.479V263.188H401.105Z" fill="#FF0000"/>
<rect x="420.5" y="199.5" width="79" height="79" rx="3.5" fill="white" stroke="black"/>
<path d="M439.926 228.547H432.777L431.172 233H428.852L435.367 215.938H437.336L443.863 233H441.555L439.926 228.547ZM433.457 226.695H439.258L436.352 218.715L433.457 226.695ZM445.305 226.555C445.305 224.578 445.762 223.008 446.676 221.844C447.59 220.672 448.801 220.086 450.309 220.086C451.855 220.086 453.062 220.633 453.93 221.727L454.035 220.32H456.016V232.695C456.016 234.336 455.527 235.629 454.551 236.574C453.582 237.52 452.277 237.992 450.637 237.992C449.723 237.992 448.828 237.797 447.953 237.406C447.078 237.016 446.41 236.48 445.949 235.801L447.074 234.5C448.004 235.648 449.141 236.223 450.484 236.223C451.539 236.223 452.359 235.926 452.945 235.332C453.539 234.738 453.836 233.902 453.836 232.824V231.734C452.969 232.734 451.785 233.234 450.285 233.234C448.801 233.234 447.598 232.637 446.676 231.441C445.762 230.246 445.305 228.617 445.305 226.555ZM447.484 226.801C447.484 228.23 447.777 229.355 448.363 230.176C448.949 230.988 449.77 231.395 450.824 231.395C452.191 231.395 453.195 230.773 453.836 229.531V223.742C453.172 222.531 452.176 221.926 450.848 221.926C449.793 221.926 448.969 222.336 448.375 223.156C447.781 223.977 447.484 225.191 447.484 226.801ZM464.559 233.234C462.84 233.234 461.441 232.672 460.363 231.547C459.285 230.414 458.746 228.902 458.746 227.012V226.613C458.746 225.355 458.984 224.234 459.461 223.25C459.945 222.258 460.617 221.484 461.477 220.93C462.344 220.367 463.281 220.086 464.289 220.086C465.938 220.086 467.219 220.629 468.133 221.715C469.047 222.801 469.504 224.355 469.504 226.379V227.281H460.914C460.945 228.531 461.309 229.543 462.004 230.316C462.707 231.082 463.598 231.465 464.676 231.465C465.441 231.465 466.09 231.309 466.621 230.996C467.152 230.684 467.617 230.27 468.016 229.754L469.34 230.785C468.277 232.418 466.684 233.234 464.559 233.234ZM464.289 221.867C463.414 221.867 462.68 222.188 462.086 222.828C461.492 223.461 461.125 224.352 460.984 225.5H467.336V225.336C467.273 224.234 466.977 223.383 466.445 222.781C465.914 222.172 465.195 221.867 464.289 221.867ZM474.074 220.32L474.145 221.914C475.113 220.695 476.379 220.086 477.941 220.086C480.621 220.086 481.973 221.598 481.996 224.621V233H479.828V224.609C479.82 223.695 479.609 223.02 479.195 222.582C478.789 222.145 478.152 221.926 477.285 221.926C476.582 221.926 475.965 222.113 475.434 222.488C474.902 222.863 474.488 223.355 474.191 223.965V233H472.023V220.32H474.074ZM488.207 217.25V220.32H490.574V221.996H488.207V229.859C488.207 230.367 488.312 230.75 488.523 231.008C488.734 231.258 489.094 231.383 489.602 231.383C489.852 231.383 490.195 231.336 490.633 231.242V233C490.062 233.156 489.508 233.234 488.969 233.234C488 233.234 487.27 232.941 486.777 232.355C486.285 231.77 486.039 230.938 486.039 229.859V221.996H483.73V220.32H486.039V217.25H488.207ZM454.105 261V243.938H458.922C460.406 243.938 461.719 244.266 462.859 244.922C464 245.578 464.879 246.512 465.496 247.723C466.121 248.934 466.438 250.324 466.445 251.895V252.984C466.445 254.594 466.133 256.004 465.508 257.215C464.891 258.426 464.004 259.355 462.848 260.004C461.699 260.652 460.359 260.984 458.828 261H454.105ZM456.355 245.789V259.16H458.723C460.457 259.16 461.805 258.621 462.766 257.543C463.734 256.465 464.219 254.93 464.219 252.938V251.941C464.219 250.004 463.762 248.5 462.848 247.43C461.941 246.352 460.652 245.805 458.98 245.789H456.355Z" fill="black"/>
<rect x="111.5" y="110.5" width="79" height="79" rx="3.5" fill="white" stroke="black"/>
<path d="M134.969 152.586C134.758 154.391 134.09 155.785 132.965 156.77C131.848 157.746 130.359 158.234 128.5 158.234C126.484 158.234 124.867 157.512 123.648 156.066C122.438 154.621 121.832 152.688 121.832 150.266V148.625C121.832 147.039 122.113 145.645 122.676 144.441C123.246 143.238 124.051 142.316 125.09 141.676C126.129 141.027 127.332 140.703 128.699 140.703C130.512 140.703 131.965 141.211 133.059 142.227C134.152 143.234 134.789 144.633 134.969 146.422H132.707C132.512 145.062 132.086 144.078 131.43 143.469C130.781 142.859 129.871 142.555 128.699 142.555C127.262 142.555 126.133 143.086 125.312 144.148C124.5 145.211 124.094 146.723 124.094 148.684V150.336C124.094 152.188 124.48 153.66 125.254 154.754C126.027 155.848 127.109 156.395 128.5 156.395C129.75 156.395 130.707 156.113 131.371 155.551C132.043 154.98 132.488 153.992 132.707 152.586H134.969ZM140.066 158H137.898V140H140.066V158ZM145.902 158H143.734V145.32H145.902V158ZM143.559 141.957C143.559 141.605 143.664 141.309 143.875 141.066C144.094 140.824 144.414 140.703 144.836 140.703C145.258 140.703 145.578 140.824 145.797 141.066C146.016 141.309 146.125 141.605 146.125 141.957C146.125 142.309 146.016 142.602 145.797 142.836C145.578 143.07 145.258 143.188 144.836 143.188C144.414 143.188 144.094 143.07 143.875 142.836C143.664 142.602 143.559 142.309 143.559 141.957ZM154.645 158.234C152.926 158.234 151.527 157.672 150.449 156.547C149.371 155.414 148.832 153.902 148.832 152.012V151.613C148.832 150.355 149.07 149.234 149.547 148.25C150.031 147.258 150.703 146.484 151.562 145.93C152.43 145.367 153.367 145.086 154.375 145.086C156.023 145.086 157.305 145.629 158.219 146.715C159.133 147.801 159.59 149.355 159.59 151.379V152.281H151C151.031 153.531 151.395 154.543 152.09 155.316C152.793 156.082 153.684 156.465 154.762 156.465C155.527 156.465 156.176 156.309 156.707 155.996C157.238 155.684 157.703 155.27 158.102 154.754L159.426 155.785C158.363 157.418 156.77 158.234 154.645 158.234ZM154.375 146.867C153.5 146.867 152.766 147.188 152.172 147.828C151.578 148.461 151.211 149.352 151.07 150.5H157.422V150.336C157.359 149.234 157.062 148.383 156.531 147.781C156 147.172 155.281 146.867 154.375 146.867ZM164.16 145.32L164.23 146.914C165.199 145.695 166.465 145.086 168.027 145.086C170.707 145.086 172.059 146.598 172.082 149.621V158H169.914V149.609C169.906 148.695 169.695 148.02 169.281 147.582C168.875 147.145 168.238 146.926 167.371 146.926C166.668 146.926 166.051 147.113 165.52 147.488C164.988 147.863 164.574 148.355 164.277 148.965V158H162.109V145.32H164.16ZM178.293 142.25V145.32H180.66V146.996H178.293V154.859C178.293 155.367 178.398 155.75 178.609 156.008C178.82 156.258 179.18 156.383 179.688 156.383C179.938 156.383 180.281 156.336 180.719 156.242V158C180.148 158.156 179.594 158.234 179.055 158.234C178.086 158.234 177.355 157.941 176.863 157.355C176.371 156.77 176.125 155.938 176.125 154.859V146.996H173.816V145.32H176.125V142.25H178.293Z" fill="black"/>
<path d="M23.1758 191.02C23.1758 192.691 22.8945 194.152 22.332 195.402C21.7695 196.645 20.9727 197.594 19.9414 198.25C18.9102 198.906 17.707 199.234 16.332 199.234C14.9883 199.234 13.7969 198.906 12.7578 198.25C11.7188 197.586 10.9102 196.645 10.332 195.426C9.76172 194.199 9.46875 192.781 9.45312 191.172V189.941C9.45312 188.301 9.73828 186.852 10.3086 185.594C10.8789 184.336 11.6836 183.375 12.7227 182.711C13.7695 182.039 14.9648 181.703 16.3086 181.703C17.6758 181.703 18.8789 182.035 19.918 182.699C20.9648 183.355 21.7695 184.312 22.332 185.57C22.8945 186.82 23.1758 188.277 23.1758 189.941V191.02ZM20.9375 189.918C20.9375 187.895 20.5312 186.344 19.7188 185.266C18.9062 184.18 17.7695 183.637 16.3086 183.637C14.8867 183.637 13.7656 184.18 12.9453 185.266C12.1328 186.344 11.7148 187.844 11.6914 189.766V191.02C11.6914 192.98 12.1016 194.523 12.9219 195.648C13.75 196.766 14.8867 197.324 16.332 197.324C17.7852 197.324 18.9102 196.797 19.707 195.742C20.5039 194.68 20.9141 193.16 20.9375 191.184V189.918ZM36.9219 192.801C36.9219 194.73 36.4805 196.285 35.5977 197.465C34.7148 198.645 33.5195 199.234 32.0117 199.234C30.4727 199.234 29.2617 198.746 28.3789 197.77V203.875H26.2109V186.32H28.1914L28.2969 187.727C29.1797 186.633 30.4062 186.086 31.9766 186.086C33.5 186.086 34.7031 186.66 35.5859 187.809C36.4766 188.957 36.9219 190.555 36.9219 192.602V192.801ZM34.7539 192.555C34.7539 191.125 34.4492 189.996 33.8398 189.168C33.2305 188.34 32.3945 187.926 31.332 187.926C30.0195 187.926 29.0352 188.508 28.3789 189.672V195.73C29.0273 196.887 30.0195 197.465 31.3555 197.465C32.3945 197.465 33.2188 197.055 33.8281 196.234C34.4453 195.406 34.7539 194.18 34.7539 192.555ZM44.9492 199.234C43.2305 199.234 41.832 198.672 40.7539 197.547C39.6758 196.414 39.1367 194.902 39.1367 193.012V192.613C39.1367 191.355 39.375 190.234 39.8516 189.25C40.3359 188.258 41.0078 187.484 41.8672 186.93C42.7344 186.367 43.6719 186.086 44.6797 186.086C46.3281 186.086 47.6094 186.629 48.5234 187.715C49.4375 188.801 49.8945 190.355 49.8945 192.379V193.281H41.3047C41.3359 194.531 41.6992 195.543 42.3945 196.316C43.0977 197.082 43.9883 197.465 45.0664 197.465C45.832 197.465 46.4805 197.309 47.0117 196.996C47.543 196.684 48.0078 196.27 48.4062 195.754L49.7305 196.785C48.668 198.418 47.0742 199.234 44.9492 199.234ZM44.6797 187.867C43.8047 187.867 43.0703 188.188 42.4766 188.828C41.8828 189.461 41.5156 190.352 41.375 191.5H47.7266V191.336C47.6641 190.234 47.3672 189.383 46.8359 188.781C46.3047 188.172 45.5859 187.867 44.6797 187.867ZM58.543 188.266C58.2148 188.211 57.8594 188.184 57.4766 188.184C56.0547 188.184 55.0898 188.789 54.582 190V199H52.4141V186.32H54.5234L54.5586 187.785C55.2695 186.652 56.2773 186.086 57.582 186.086C58.0039 186.086 58.3242 186.141 58.543 186.25V188.266ZM67.9062 199C67.7812 198.75 67.6797 198.305 67.6016 197.664C66.5938 198.711 65.3906 199.234 63.9922 199.234C62.7422 199.234 61.7148 198.883 60.9102 198.18C60.1133 197.469 59.7148 196.57 59.7148 195.484C59.7148 194.164 60.2148 193.141 61.2148 192.414C62.2227 191.68 63.6367 191.312 65.457 191.312H67.5664V190.316C67.5664 189.559 67.3398 188.957 66.8867 188.512C66.4336 188.059 65.7656 187.832 64.8828 187.832C64.1094 187.832 63.4609 188.027 62.9375 188.418C62.4141 188.809 62.1523 189.281 62.1523 189.836H59.9727C59.9727 189.203 60.1953 188.594 60.6406 188.008C61.0938 187.414 61.7031 186.945 62.4688 186.602C63.2422 186.258 64.0898 186.086 65.0117 186.086C66.4727 186.086 67.6172 186.453 68.4453 187.188C69.2734 187.914 69.7031 188.918 69.7344 190.199V196.035C69.7344 197.199 69.8828 198.125 70.1797 198.812V199H67.9062ZM64.3086 197.348C64.9883 197.348 65.6328 197.172 66.2422 196.82C66.8516 196.469 67.293 196.012 67.5664 195.449V192.848H65.8672C63.2109 192.848 61.8828 193.625 61.8828 195.18C61.8828 195.859 62.1094 196.391 62.5625 196.773C63.0156 197.156 63.5977 197.348 64.3086 197.348ZM76.0742 183.25V186.32H78.4414V187.996H76.0742V195.859C76.0742 196.367 76.1797 196.75 76.3906 197.008C76.6016 197.258 76.9609 197.383 77.4688 197.383C77.7188 197.383 78.0625 197.336 78.5 197.242V199C77.9297 199.156 77.375 199.234 76.8359 199.234C75.8672 199.234 75.1367 198.941 74.6445 198.355C74.1523 197.77 73.9062 196.938 73.9062 195.859V187.996H71.5977V186.32H73.9062V183.25H76.0742ZM80.1758 192.543C80.1758 191.301 80.418 190.184 80.9023 189.191C81.3945 188.199 82.0742 187.434 82.9414 186.895C83.8164 186.355 84.8125 186.086 85.9297 186.086C87.6562 186.086 89.0508 186.684 90.1133 187.879C91.1836 189.074 91.7188 190.664 91.7188 192.648V192.801C91.7188 194.035 91.4805 195.145 91.0039 196.129C90.5352 197.105 89.8594 197.867 88.9766 198.414C88.1016 198.961 87.0938 199.234 85.9531 199.234C84.2344 199.234 82.8398 198.637 81.7695 197.441C80.707 196.246 80.1758 194.664 80.1758 192.695V192.543ZM82.3555 192.801C82.3555 194.207 82.6797 195.336 83.3281 196.188C83.9844 197.039 84.8594 197.465 85.9531 197.465C87.0547 197.465 87.9297 197.035 88.5781 196.176C89.2266 195.309 89.5508 194.098 89.5508 192.543C89.5508 191.152 89.2188 190.027 88.5547 189.168C87.8984 188.301 87.0234 187.867 85.9297 187.867C84.8594 187.867 83.9961 188.293 83.3398 189.145C82.6836 189.996 82.3555 191.215 82.3555 192.801ZM100.566 188.266C100.238 188.211 99.8828 188.184 99.5 188.184C98.0781 188.184 97.1133 188.789 96.6055 190V199H94.4375V186.32H96.5469L96.582 187.785C97.293 186.652 98.3008 186.086 99.6055 186.086C100.027 186.086 100.348 186.141 100.566 186.25V188.266Z" fill="black"/>
<path d="M70.0523 152.678L69.4336 151.396C69.4369 151.348 69.4393 151.299 69.4393 151.25C69.4393 149.798 67.9288 148.459 65.3875 147.387V148.278C65.1397 148.18 64.8817 148.084 64.6129 147.992V147.576C60.981 146.266 55.5743 145.435 49.5347 145.435C44.258 145.435 39.4638 146.07 35.9145 147.103V148.551H35.9144V146.799C32.2781 147.955 30.0237 149.56 30.0237 151.335C30.0237 151.615 30.0801 151.89 30.1886 152.161L29.8182 152.82C29.8182 152.82 29.5214 153.205 30.0439 154.017C30.5048 154.733 32.8136 157.537 34.0321 159.005C34.5555 159.758 34.9105 160.221 34.9415 160.176C34.9904 160.105 34.616 158.692 33.5766 157.08C33.0915 156.214 32.5124 155.067 32.1646 154.22C33.1353 154.834 38.8382 157.706 50.4707 157.694C62.359 157.682 67.6433 153.961 68.2233 153.454C68.0206 154.268 67.3282 155.916 66.7759 157.074C65.8686 158.731 65.5399 160.173 65.5821 160.244C65.609 160.289 65.9186 159.812 66.3752 159.038C67.4375 157.524 69.4507 154.634 69.853 153.898C70.3088 153.063 70.0523 152.678 70.0523 152.678Z" fill="#A52B00"/>
<path d="M73.646 152.67L69.5801 149.675C69.5419 149.541 69.5038 149.408 69.4643 149.276L70.7998 147.341C70.9361 147.145 70.9636 146.889 70.8751 146.664C70.7864 146.441 70.5925 146.281 70.3632 146.242L68.1051 145.858C68.0175 145.68 67.9258 145.504 67.8338 145.33L68.7826 143.158C68.8801 142.936 68.8597 142.679 68.7302 142.478C68.6012 142.277 68.3824 142.159 68.1492 142.168L65.8573 142.251C65.7387 142.097 65.6182 141.944 65.4952 141.793L66.0219 139.465C66.0753 139.229 66.0078 138.981 65.8432 138.809C65.6795 138.638 65.4415 138.567 65.2153 138.623L62.983 139.172C62.8385 139.044 62.6915 138.918 62.5429 138.794L62.6232 136.404C62.6318 136.162 62.519 135.932 62.3254 135.798C62.1318 135.663 61.8862 135.643 61.6745 135.743L59.5921 136.733C59.4244 136.637 59.2557 136.542 59.0852 136.449L58.7172 134.094C58.6798 133.856 58.5264 133.653 58.3114 133.56C58.0969 133.467 57.8514 133.497 57.6633 133.639L55.8066 135.032C55.6237 134.971 55.44 134.913 55.2542 134.858L54.4539 132.624C54.3726 132.396 54.1849 132.229 53.9561 132.182C53.728 132.136 53.4934 132.215 53.3353 132.391L51.7724 134.14C51.5836 134.118 51.3944 134.098 51.2048 134.082L49.9981 132.048C49.8759 131.843 49.66 131.717 49.4273 131.717C49.1952 131.717 48.9789 131.843 48.8575 132.048L47.6505 134.082C47.4608 134.098 47.2709 134.118 47.0823 134.14L45.5194 132.391C45.361 132.215 45.1256 132.136 44.8982 132.182C44.6697 132.23 44.4817 132.396 44.4008 132.624L43.5999 134.858C43.4143 134.913 43.2307 134.972 43.0475 135.032L41.1914 133.639C41.0027 133.497 40.757 133.467 40.5422 133.56C40.328 133.653 40.1739 133.856 40.1368 134.094L39.7685 136.449C39.5983 136.542 39.4296 136.636 39.2615 136.733L37.1792 135.743C36.9677 135.642 36.7208 135.663 36.5282 135.798C36.3349 135.932 36.2218 136.162 36.2305 136.404L36.3105 138.794C36.1622 138.918 36.0156 139.044 35.8703 139.172L33.6384 138.623C33.4117 138.568 33.174 138.638 33.0099 138.809C32.8448 138.981 32.7779 139.229 32.831 139.465L33.3566 141.793C33.2347 141.944 33.1141 142.097 32.9957 142.251L30.7039 142.168C30.4726 142.161 30.2519 142.277 30.1226 142.478C29.9931 142.679 29.9735 142.936 30.0699 143.158L31.0194 145.33C30.9272 145.504 30.8356 145.68 30.7473 145.858L28.4893 146.242C28.2598 146.28 28.0665 146.44 27.9772 146.664C27.8886 146.889 27.9174 147.145 28.0527 147.341L29.3885 149.276C29.3782 149.31 29.3686 149.345 29.3584 149.379L25.5819 153.391C25.5819 153.391 25.003 153.844 25.8456 154.91C26.5887 155.85 30.4039 159.578 32.4188 161.531C33.2697 162.523 33.8528 163.137 33.9137 163.083C34.0098 162.999 33.5052 161.195 31.829 159.079C30.5368 157.18 28.8598 154.259 29.2531 153.923C29.2531 153.923 29.7004 153.355 30.5978 152.946C30.6307 152.972 30.5639 152.92 30.5978 152.946C30.5978 152.946 49.5374 161.683 67.1056 153.094C69.1125 152.734 70.3275 153.809 70.3275 153.809C70.7464 154.052 69.6615 157.055 68.7693 159.043C67.5559 161.3 67.378 163.062 67.4808 163.123C67.5458 163.161 67.9873 162.49 68.617 161.421C70.1709 159.255 73.1083 155.128 73.646 154.125C74.2555 152.988 73.646 152.67 73.646 152.67Z" fill="#F74C00"/>
<path d="M65.3643 151.549C65.3643 151.549 68.0894 151.423 71.6689 147.785L72.1762 146.658C72.1762 146.658 66.6204 141.132 75.2568 137.317C75.2568 137.317 74.5007 138.553 74.7226 143.327C74.7226 143.327 77.3265 142.422 78.09 138.205C78.09 138.205 81.8882 143.213 73.9648 147.91C73.9648 147.91 70.2475 153.869 65.0071 153.298L65.3643 151.549Z" fill="#F74C00"/>
<path d="M53.0197 148.117C53.0197 148.117 54.9124 146.044 56.8051 148.117C56.8051 148.117 58.2923 150.88 56.8051 152.262C56.8051 152.262 54.3717 154.196 53.0197 152.262C53.0197 152.262 51.3974 150.742 53.0197 148.117Z" fill="black"/>
<path d="M55.2115 148.886C55.2115 149.693 54.7359 150.347 54.1491 150.347C53.5625 150.347 53.0869 149.693 53.0869 148.886C53.0869 148.079 53.5625 147.424 54.1491 147.424C54.7359 147.424 55.2115 148.079 55.2115 148.886Z" fill="white"/>
<path d="M44.5721 147.55C44.5721 147.55 47.8186 146.113 48.7048 149.321C48.7048 149.321 49.633 153.061 46.0386 153.272C46.0386 153.272 41.4551 152.39 44.5721 147.55Z" fill="black"/>
<path d="M46.2027 148.939C46.2027 149.771 45.7122 150.446 45.1071 150.446C44.5022 150.446 44.0115 149.771 44.0115 148.939C44.0115 148.107 44.5022 147.432 45.1071 147.432C45.7122 147.432 46.2027 148.107 46.2027 148.939Z" fill="white"/>
<path d="M48.7331 154.58L52.8734 154.248C52.8734 154.248 52.7331 154.914 52.1929 155.415C52.1929 155.415 50.7688 156.976 49.135 155.285C49.135 155.285 48.8677 154.996 48.7331 154.58Z" fill="black"/>
<path d="M32.1538 150.747C32.1196 150.747 32.0861 150.75 32.0527 150.752C30.7083 150.446 26.9296 149.462 25.9308 147.864C25.9308 147.864 31.0156 142.08 23.0683 138.383L23.9937 144.782C23.9937 144.782 21.5437 143.145 21.015 139.589C21.015 139.589 15.049 143.919 23.6482 148.068C23.6482 148.068 24.4281 150.999 31.9164 153.337L31.9218 153.315C31.9972 153.329 32.0744 153.337 32.1538 153.337C32.8613 153.337 33.435 152.757 33.435 152.042C33.435 151.327 32.8613 150.747 32.1538 150.747Z" fill="#F74C00"/>
<path d="M63.8314 145.015C66.62 141.415 80.908 131.591 69.488 135.107C69.488 135.107 67.6109 135.608 66.6597 135.524C64.2244 135.311 62.5375 133.578 61.4747 131.77C60.136 129.492 59.2274 127.211 57.1143 125.408C53.406 122.244 45.5761 122.152 41.3938 125.408C39.1871 127.126 38.3721 129.492 37.0336 131.77C35.9708 133.578 34.2838 135.311 31.8484 135.524C30.8973 135.608 29.0201 135.107 29.0201 135.107C17.6002 131.591 31.8881 141.415 34.6767 145.015C44.395 142.711 54.1133 142.87 63.8314 145.015V145.015Z" fill="black"/>
<path d="M53.5805 133.19C53.5805 135.292 51.6547 136.996 49.2792 136.996C46.9036 136.996 44.9778 135.292 44.9778 133.19C44.9778 131.087 46.9036 129.383 49.2792 129.383C51.6547 129.383 53.5805 131.087 53.5805 133.19Z" fill="white"/>
<path d="M52.4074 136.947C52.4074 138.476 51.0068 139.715 49.2792 139.715C47.5515 139.715 46.1509 138.476 46.1509 136.947C46.1509 135.418 47.5515 134.178 49.2792 134.178C51.0068 134.178 52.4074 135.418 52.4074 136.947V136.947Z" fill="white"/>
<path d="M48.9663 133.19C48.9663 133.954 48.266 134.574 47.4022 134.574C46.5383 134.574 45.838 133.954 45.838 133.19C45.838 132.425 46.5383 131.805 47.4022 131.805C48.266 131.805 48.9663 132.425 48.9663 133.19Z" fill="black"/>
<path d="M52.7202 133.19C52.7202 133.954 52.0199 134.574 51.156 134.574C50.2922 134.574 49.5919 133.954 49.5919 133.19C49.5919 132.425 50.2922 131.805 51.156 131.805C52.0199 131.805 52.7202 132.425 52.7202 133.19Z" fill="black"/>
<path d="M44.1278 130.606C44.3916 131.429 44.1979 132.187 43.6953 132.3C43.1926 132.412 42.5714 131.837 42.3076 131.014C42.0439 130.191 42.2376 129.433 42.7402 129.321C43.2428 129.208 43.8641 129.784 44.1278 130.606V130.606Z" fill="white"/>
<path d="M42.7584 132.8C41.8545 133.003 40.9978 132.781 40.845 132.304C40.6922 131.828 41.3012 131.279 42.2051 131.076C43.109 130.874 43.9657 131.096 44.1185 131.572C44.2713 132.048 43.6623 132.598 42.7584 132.8Z" fill="white"/>
<path d="M43.4736 130.817L42.6291 132.137L45.4038 133.573L46.2482 132.252L43.4736 130.817Z" fill="white"/>
<path d="M43.4141 135.999C44.3181 136.202 44.927 136.751 44.7742 137.227C44.6214 137.703 43.7648 137.925 42.8608 137.723C41.9569 137.521 41.348 136.971 41.5007 136.495C41.6535 136.019 42.5102 135.797 43.4141 135.999Z" fill="white"/>
<path d="M44.7837 138.193C44.5199 139.016 43.8987 139.592 43.396 139.479C42.8934 139.367 42.6997 138.608 42.9635 137.786C43.2272 136.963 43.8485 136.387 44.3511 136.5C44.8537 136.613 45.0474 137.371 44.7837 138.193Z" fill="white"/>
<path d="M43.2932 136.675L44.1376 137.996L46.9123 136.56L46.0678 135.24L43.2932 136.675Z" fill="white"/>
<path d="M55.8039 132.807C54.8999 132.604 54.291 132.055 54.4438 131.579C54.5966 131.103 55.4532 130.881 56.3572 131.083C57.2611 131.285 57.8701 131.835 57.7173 132.311C57.5645 132.787 56.7078 133.009 55.8039 132.807V132.807Z" fill="white"/>
<path d="M54.4344 130.613C54.6981 129.79 55.3194 129.214 55.822 129.327C56.3246 129.439 56.5183 130.198 56.2546 131.02C55.9908 131.843 55.3695 132.419 54.8669 132.306C54.3643 132.193 54.1706 131.435 54.4344 130.613Z" fill="white"/>
<path d="M55.9248 132.131L55.0804 130.81L52.3057 132.246L53.1502 133.566L55.9248 132.131Z" fill="white"/>
<path d="M53.7762 138.2C53.5125 137.377 53.7062 136.619 54.2088 136.506C54.7114 136.394 55.3327 136.97 55.5964 137.792C55.8602 138.615 55.6665 139.373 55.1639 139.486C54.6612 139.598 54.04 139.023 53.7762 138.2Z" fill="white"/>
<path d="M55.1457 136.006C56.0497 135.804 56.9063 136.026 57.0591 136.502C57.2119 136.978 56.603 137.528 55.699 137.73C54.7951 137.932 53.9384 137.71 53.7856 137.234C53.6328 136.758 54.2418 136.208 55.1457 136.006Z" fill="white"/>
<path d="M54.4305 137.989L55.275 136.669L52.5003 135.234L51.6559 136.554L54.4305 137.989Z" fill="white"/>
<path d="M48.4125 135.733L49.2791 134.494L50.1457 135.733H48.4125V135.733Z" fill="black"/>
<path d="M237.852 33H234.406V13.0938H237.852V33ZM244.865 18.207L244.961 19.916C246.055 18.5944 247.49 17.9336 249.268 17.9336C252.348 17.9336 253.916 19.6973 253.971 23.2246V33H250.648V23.416C250.648 22.4772 250.443 21.7845 250.033 21.3379C249.632 20.8822 248.971 20.6543 248.051 20.6543C246.711 20.6543 245.713 21.2604 245.057 22.4727V33H241.734V18.207H244.865ZM261.531 14.6113V18.207H264.143V20.668H261.531V28.9258C261.531 29.4909 261.641 29.901 261.859 30.1562C262.087 30.4023 262.488 30.5254 263.062 30.5254C263.445 30.5254 263.833 30.4798 264.225 30.3887V32.959C263.468 33.1686 262.739 33.2734 262.037 33.2734C259.485 33.2734 258.209 31.8652 258.209 29.0488V20.668H255.775V18.207H258.209V14.6113H261.531ZM273.207 33.2734C271.102 33.2734 269.393 32.6126 268.08 31.291C266.777 29.9603 266.125 28.1921 266.125 25.9863V25.5762C266.125 24.0996 266.408 22.7826 266.973 21.625C267.547 20.4583 268.349 19.5514 269.379 18.9043C270.409 18.2572 271.557 17.9336 272.824 17.9336C274.839 17.9336 276.393 18.5762 277.486 19.8613C278.589 21.1465 279.141 22.9648 279.141 25.3164V26.6562H269.475C269.575 27.8776 269.98 28.8438 270.691 29.5547C271.411 30.2656 272.314 30.6211 273.398 30.6211C274.921 30.6211 276.16 30.0059 277.117 28.7754L278.908 30.4844C278.316 31.3685 277.523 32.0566 276.529 32.5488C275.545 33.0319 274.438 33.2734 273.207 33.2734ZM272.811 20.5996C271.899 20.5996 271.161 20.9186 270.596 21.5566C270.04 22.1947 269.684 23.0833 269.529 24.2227H275.859V23.9766C275.786 22.8646 275.49 22.026 274.971 21.4609C274.451 20.8867 273.731 20.5996 272.811 20.5996ZM289.477 21.2422C289.039 21.1693 288.588 21.1328 288.123 21.1328C286.601 21.1328 285.576 21.7161 285.047 22.8828V33H281.725V18.207H284.896L284.979 19.8613C285.781 18.5762 286.893 17.9336 288.314 17.9336C288.788 17.9336 289.18 17.9974 289.49 18.125L289.477 21.2422ZM294.658 18.207L294.754 19.916C295.848 18.5944 297.283 17.9336 299.061 17.9336C302.141 17.9336 303.709 19.6973 303.764 23.2246V33H300.441V23.416C300.441 22.4772 300.236 21.7845 299.826 21.3379C299.425 20.8822 298.764 20.6543 297.844 20.6543C296.504 20.6543 295.506 21.2604 294.85 22.4727V33H291.527V18.207H294.658ZM313.676 33.2734C311.57 33.2734 309.861 32.6126 308.549 31.291C307.245 29.9603 306.594 28.1921 306.594 25.9863V25.5762C306.594 24.0996 306.876 22.7826 307.441 21.625C308.016 20.4583 308.818 19.5514 309.848 18.9043C310.878 18.2572 312.026 17.9336 313.293 17.9336C315.307 17.9336 316.861 18.5762 317.955 19.8613C319.058 21.1465 319.609 22.9648 319.609 25.3164V26.6562H309.943C310.044 27.8776 310.449 28.8438 311.16 29.5547C311.88 30.2656 312.783 30.6211 313.867 30.6211C315.389 30.6211 316.629 30.0059 317.586 28.7754L319.377 30.4844C318.785 31.3685 317.992 32.0566 316.998 32.5488C316.014 33.0319 314.906 33.2734 313.676 33.2734ZM313.279 20.5996C312.368 20.5996 311.63 20.9186 311.064 21.5566C310.508 22.1947 310.153 23.0833 309.998 24.2227H316.328V23.9766C316.255 22.8646 315.959 22.026 315.439 21.4609C314.92 20.8867 314.2 20.5996 313.279 20.5996ZM326.363 14.6113V18.207H328.975V20.668H326.363V28.9258C326.363 29.4909 326.473 29.901 326.691 30.1562C326.919 30.4023 327.32 30.5254 327.895 30.5254C328.277 30.5254 328.665 30.4798 329.057 30.3887V32.959C328.3 33.1686 327.571 33.2734 326.869 33.2734C324.317 33.2734 323.041 31.8652 323.041 29.0488V20.668H320.607V18.207H323.041V14.6113H326.363Z" fill="black"/>
<line x1="201" y1="19.0038" x2="200" y2="280.004" stroke="black" stroke-width="2"/>
<path d="M266.778 140.628C267.125 140.198 267.058 139.569 266.628 139.222L259.625 133.569C259.195 133.222 258.566 133.289 258.219 133.719C257.872 134.149 257.939 134.778 258.369 135.125L264.594 140.15L259.569 146.375C259.222 146.805 259.289 147.434 259.719 147.781C260.149 148.128 260.778 148.061 261.125 147.631L266.778 140.628ZM191.106 148.994L266.106 140.994L265.894 139.006L190.894 147.006L191.106 148.994Z" fill="black"/>
<path d="M419.725 228.714C420.106 228.314 420.09 227.681 419.69 227.3L413.169 221.098C412.769 220.717 412.136 220.733 411.755 221.133C411.374 221.533 411.39 222.166 411.79 222.547L417.587 228.06L412.073 233.857C411.693 234.257 411.708 234.89 412.108 235.271C412.509 235.651 413.142 235.635 413.522 235.235L419.725 228.714ZM340.025 231L419.026 229.025L418.976 227.025L339.975 229L340.025 231Z" fill="black"/>
<path d="M428.54 88.1584C428.075 87.8601 427.457 87.9951 427.158 88.4599L422.297 96.0342C421.999 96.499 422.134 97.1176 422.599 97.4159C423.064 97.7142 423.682 97.5792 423.98 97.1144L428.301 90.3817L435.034 94.7027C435.499 95.001 436.118 94.866 436.416 94.4012C436.714 93.9364 436.579 93.3178 436.114 93.0195L428.54 88.1584ZM452.977 198.787L428.977 88.7868L427.023 89.2132L451.023 199.213L452.977 198.787Z" fill="black"/>
<path d="M340.267 250.32C339.891 250.725 339.915 251.358 340.32 251.733L346.921 257.851C347.326 258.227 347.959 258.203 348.334 257.798C348.71 257.393 348.686 256.76 348.281 256.384L342.413 250.946L347.851 245.079C348.227 244.674 348.203 244.041 347.798 243.666C347.393 243.29 346.76 243.314 346.384 243.719L340.267 250.32ZM341.038 251.999L420.038 248.999L419.962 247.001L340.962 250.001L341.038 251.999Z" fill="#FF0000"/>
<path d="M397.966 51.7428C397.824 51.2091 397.276 50.8916 396.743 51.0337L388.046 53.3487C387.512 53.4908 387.194 54.0386 387.336 54.5723C387.479 55.106 388.026 55.4235 388.56 55.2814L396.291 53.2236L398.349 60.9544C398.491 61.4881 399.039 61.8056 399.572 61.6635C400.106 61.5214 400.423 60.9736 400.281 60.4399L397.966 51.7428ZM346.865 140.501L397.865 52.5014L396.135 51.4986L345.135 139.499L346.865 140.501Z" fill="black"/>
<path d="M466.461 198.843C466.927 199.14 467.545 199.004 467.843 198.539L472.689 190.955C472.987 190.49 472.851 189.871 472.385 189.574C471.92 189.276 471.301 189.413 471.004 189.878L466.696 196.619L459.955 192.311C459.49 192.013 458.871 192.149 458.574 192.615C458.276 193.08 458.413 193.699 458.878 193.996L466.461 198.843ZM467.977 197.785L443.977 88.785L442.023 89.215L466.023 198.215L467.977 197.785Z" fill="#FF0000"/>
<path d="M544.107 106.994C544.656 106.935 545.053 106.442 544.994 105.893L544.033 96.9447C543.974 96.3956 543.481 95.9982 542.932 96.0572C542.383 96.1162 541.985 96.6092 542.044 97.1583L542.899 105.113L534.945 105.967C534.396 106.026 533.998 106.519 534.057 107.068C534.116 107.617 534.609 108.015 535.158 107.956L544.107 106.994ZM544.628 105.221L477.628 51.2214L476.372 52.7786L543.372 106.779L544.628 105.221Z" fill="#FF0000"/>
<path d="M223.133 55.9395C222.975 57.293 222.474 58.3389 221.63 59.0771C220.792 59.8096 219.676 60.1758 218.281 60.1758C216.77 60.1758 215.557 59.6338 214.643 58.5498C213.734 57.4658 213.28 56.0156 213.28 54.1992V52.9688C213.28 51.7793 213.491 50.7334 213.913 49.8311C214.341 48.9287 214.944 48.2373 215.724 47.7568C216.503 47.2705 217.405 47.0273 218.431 47.0273C219.79 47.0273 220.88 47.4082 221.7 48.1699C222.521 48.9258 222.998 49.9746 223.133 51.3164H221.437C221.29 50.2969 220.971 49.5586 220.479 49.1016C219.992 48.6445 219.31 48.416 218.431 48.416C217.353 48.416 216.506 48.8145 215.891 49.6113C215.281 50.4082 214.977 51.542 214.977 53.0127V54.252C214.977 55.6406 215.267 56.7451 215.847 57.5654C216.427 58.3857 217.238 58.7959 218.281 58.7959C219.219 58.7959 219.937 58.585 220.435 58.1631C220.938 57.7354 221.272 56.9941 221.437 55.9395H223.133ZM224.759 55.1572C224.759 54.2256 224.94 53.3877 225.304 52.6436C225.673 51.8994 226.183 51.3252 226.833 50.9209C227.489 50.5166 228.236 50.3145 229.074 50.3145C230.369 50.3145 231.415 50.7627 232.212 51.6592C233.015 52.5557 233.416 53.748 233.416 55.2363V55.3506C233.416 56.2764 233.237 57.1084 232.88 57.8467C232.528 58.5791 232.021 59.1504 231.359 59.5605C230.703 59.9707 229.947 60.1758 229.092 60.1758C227.803 60.1758 226.757 59.7275 225.954 58.8311C225.157 57.9346 224.759 56.748 224.759 55.2715V55.1572ZM226.394 55.3506C226.394 56.4053 226.637 57.252 227.123 57.8906C227.615 58.5293 228.271 58.8486 229.092 58.8486C229.918 58.8486 230.574 58.5264 231.061 57.8818C231.547 57.2314 231.79 56.3232 231.79 55.1572C231.79 54.1143 231.541 53.2705 231.043 52.626C230.551 51.9756 229.895 51.6504 229.074 51.6504C228.271 51.6504 227.624 51.9697 227.132 52.6084C226.64 53.2471 226.394 54.1611 226.394 55.3506ZM236.984 50.4902L237.028 51.5449C237.726 50.7246 238.666 50.3145 239.85 50.3145C241.18 50.3145 242.085 50.8242 242.565 51.8438C242.882 51.3867 243.292 51.0176 243.796 50.7363C244.306 50.4551 244.906 50.3145 245.598 50.3145C247.684 50.3145 248.744 51.4189 248.779 53.6279V60H247.153V53.7246C247.153 53.0449 246.998 52.5381 246.688 52.2041C246.377 51.8643 245.855 51.6943 245.123 51.6943C244.52 51.6943 244.019 51.876 243.62 52.2393C243.222 52.5967 242.99 53.0801 242.926 53.6895V60H241.291V53.7686C241.291 52.3857 240.614 51.6943 239.261 51.6943C238.194 51.6943 237.465 52.1484 237.072 53.0566V60H235.446V50.4902H236.984ZM252.77 50.4902L252.813 51.5449C253.511 50.7246 254.451 50.3145 255.635 50.3145C256.965 50.3145 257.87 50.8242 258.351 51.8438C258.667 51.3867 259.077 51.0176 259.581 50.7363C260.091 50.4551 260.691 50.3145 261.383 50.3145C263.469 50.3145 264.529 51.4189 264.564 53.6279V60H262.938V53.7246C262.938 53.0449 262.783 52.5381 262.473 52.2041C262.162 51.8643 261.641 51.6943 260.908 51.6943C260.305 51.6943 259.804 51.876 259.405 52.2393C259.007 52.5967 258.775 53.0801 258.711 53.6895V60H257.076V53.7686C257.076 52.3857 256.399 51.6943 255.046 51.6943C253.979 51.6943 253.25 52.1484 252.857 53.0566V60H251.231V50.4902H252.77ZM272.896 60C272.803 59.8125 272.727 59.4785 272.668 58.998C271.912 59.7832 271.01 60.1758 269.961 60.1758C269.023 60.1758 268.253 59.9121 267.649 59.3848C267.052 58.8516 266.753 58.1777 266.753 57.3633C266.753 56.373 267.128 55.6055 267.878 55.0605C268.634 54.5098 269.694 54.2344 271.06 54.2344H272.642V53.4873C272.642 52.9189 272.472 52.4678 272.132 52.1338C271.792 51.7939 271.291 51.624 270.629 51.624C270.049 51.624 269.562 51.7705 269.17 52.0635C268.777 52.3564 268.581 52.7109 268.581 53.127H266.946C266.946 52.6523 267.113 52.1953 267.447 51.7559C267.787 51.3105 268.244 50.959 268.818 50.7012C269.398 50.4434 270.034 50.3145 270.726 50.3145C271.821 50.3145 272.68 50.5898 273.301 51.1406C273.922 51.6855 274.244 52.4385 274.268 53.3994V57.7764C274.268 58.6494 274.379 59.3438 274.602 59.8594V60H272.896ZM270.198 58.7607C270.708 58.7607 271.191 58.6289 271.648 58.3652C272.105 58.1016 272.437 57.7588 272.642 57.3369V55.3857H271.367C269.375 55.3857 268.379 55.9688 268.379 57.1348C268.379 57.6445 268.549 58.043 268.889 58.3301C269.229 58.6172 269.665 58.7607 270.198 58.7607ZM278.354 50.4902L278.407 51.6855C279.134 50.7715 280.083 50.3145 281.255 50.3145C283.265 50.3145 284.278 51.4482 284.296 53.7158V60H282.67V53.707C282.664 53.0215 282.506 52.5146 282.195 52.1865C281.891 51.8584 281.413 51.6943 280.763 51.6943C280.235 51.6943 279.772 51.835 279.374 52.1162C278.976 52.3975 278.665 52.7666 278.442 53.2236V60H276.816V50.4902H278.354ZM286.353 55.166C286.353 53.707 286.698 52.5352 287.39 51.6504C288.081 50.7598 288.986 50.3145 290.105 50.3145C291.219 50.3145 292.101 50.6953 292.751 51.457V46.5H294.377V60H292.883L292.804 58.9805C292.153 59.7773 291.248 60.1758 290.088 60.1758C288.986 60.1758 288.087 59.7246 287.39 58.8223C286.698 57.9199 286.353 56.7422 286.353 55.2891V55.166ZM287.979 55.3506C287.979 56.4287 288.201 57.2725 288.646 57.8818C289.092 58.4912 289.707 58.7959 290.492 58.7959C291.523 58.7959 292.276 58.333 292.751 57.4072V53.0391C292.265 52.1426 291.518 51.6943 290.51 51.6943C289.713 51.6943 289.092 52.002 288.646 52.6172C288.201 53.2324 287.979 54.1436 287.979 55.3506ZM302.173 60V51.7471H300.67V50.4902H302.173V49.5146C302.173 48.4951 302.445 47.707 302.99 47.1504C303.535 46.5938 304.306 46.3154 305.302 46.3154C305.677 46.3154 306.049 46.3652 306.418 46.4648L306.33 47.7832C306.055 47.7305 305.762 47.7041 305.451 47.7041C304.924 47.7041 304.517 47.8594 304.229 48.1699C303.942 48.4746 303.799 48.9141 303.799 49.4883V50.4902H305.829V51.7471H303.799V60H302.173ZM307.2 55.1572C307.2 54.2256 307.382 53.3877 307.745 52.6436C308.114 51.8994 308.624 51.3252 309.274 50.9209C309.931 50.5166 310.678 50.3145 311.516 50.3145C312.811 50.3145 313.856 50.7627 314.653 51.6592C315.456 52.5557 315.857 53.748 315.857 55.2363V55.3506C315.857 56.2764 315.679 57.1084 315.321 57.8467C314.97 58.5791 314.463 59.1504 313.801 59.5605C313.145 59.9707 312.389 60.1758 311.533 60.1758C310.244 60.1758 309.198 59.7275 308.396 58.8311C307.599 57.9346 307.2 56.748 307.2 55.2715V55.1572ZM308.835 55.3506C308.835 56.4053 309.078 57.252 309.564 57.8906C310.057 58.5293 310.713 58.8486 311.533 58.8486C312.359 58.8486 313.016 58.5264 313.502 57.8818C313.988 57.2314 314.231 56.3232 314.231 55.1572C314.231 54.1143 313.982 53.2705 313.484 52.626C312.992 51.9756 312.336 51.6504 311.516 51.6504C310.713 51.6504 310.065 51.9697 309.573 52.6084C309.081 53.2471 308.835 54.1611 308.835 55.3506ZM322.493 51.9492C322.247 51.9082 321.98 51.8877 321.693 51.8877C320.627 51.8877 319.903 52.3418 319.522 53.25V60H317.896V50.4902H319.479L319.505 51.5889C320.038 50.7393 320.794 50.3145 321.772 50.3145C322.089 50.3145 322.329 50.3555 322.493 50.4375V51.9492ZM244.13 81C244.036 80.8125 243.96 80.4785 243.901 79.998C243.146 80.7832 242.243 81.1758 241.194 81.1758C240.257 81.1758 239.486 80.9121 238.883 80.3848C238.285 79.8516 237.986 79.1777 237.986 78.3633C237.986 77.373 238.361 76.6055 239.111 76.0605C239.867 75.5098 240.928 75.2344 242.293 75.2344H243.875V74.4873C243.875 73.9189 243.705 73.4678 243.365 73.1338C243.025 72.7939 242.524 72.624 241.862 72.624C241.282 72.624 240.796 72.7705 240.403 73.0635C240.011 73.3564 239.814 73.7109 239.814 74.127H238.18C238.18 73.6523 238.347 73.1953 238.681 72.7559C239.021 72.3105 239.478 71.959 240.052 71.7012C240.632 71.4434 241.268 71.3145 241.959 71.3145C243.055 71.3145 243.913 71.5898 244.534 72.1406C245.155 72.6855 245.478 73.4385 245.501 74.3994V78.7764C245.501 79.6494 245.612 80.3438 245.835 80.8594V81H244.13ZM241.432 79.7607C241.941 79.7607 242.425 79.6289 242.882 79.3652C243.339 79.1016 243.67 78.7588 243.875 78.3369V76.3857H242.601C240.608 76.3857 239.612 76.9688 239.612 78.1348C239.612 78.6445 239.782 79.043 240.122 79.3301C240.462 79.6172 240.898 79.7607 241.432 79.7607ZM247.663 76.166C247.663 74.6836 248.006 73.5059 248.691 72.6328C249.377 71.7539 250.285 71.3145 251.416 71.3145C252.576 71.3145 253.481 71.7246 254.132 72.5449L254.211 71.4902H255.696V80.7715C255.696 82.002 255.33 82.9717 254.598 83.6807C253.871 84.3896 252.893 84.7441 251.662 84.7441C250.977 84.7441 250.306 84.5977 249.649 84.3047C248.993 84.0117 248.492 83.6104 248.146 83.1006L248.99 82.125C249.688 82.9863 250.54 83.417 251.548 83.417C252.339 83.417 252.954 83.1943 253.394 82.749C253.839 82.3037 254.062 81.6768 254.062 80.8682V80.0508C253.411 80.8008 252.523 81.1758 251.398 81.1758C250.285 81.1758 249.383 80.7275 248.691 79.8311C248.006 78.9346 247.663 77.7129 247.663 76.166ZM249.298 76.3506C249.298 77.4229 249.518 78.2666 249.957 78.8818C250.396 79.4912 251.012 79.7959 251.803 79.7959C252.828 79.7959 253.581 79.3301 254.062 78.3984V74.0566C253.563 73.1484 252.816 72.6943 251.82 72.6943C251.029 72.6943 250.411 73.002 249.966 73.6172C249.521 74.2324 249.298 75.1436 249.298 76.3506ZM262.104 81.1758C260.814 81.1758 259.766 80.7539 258.957 79.9102C258.148 79.0605 257.744 77.9268 257.744 76.5088V76.21C257.744 75.2666 257.923 74.4258 258.28 73.6875C258.644 72.9434 259.147 72.3633 259.792 71.9473C260.442 71.5254 261.146 71.3145 261.901 71.3145C263.138 71.3145 264.099 71.7217 264.784 72.5361C265.47 73.3506 265.812 74.5166 265.812 76.0342V76.7109H259.37C259.394 77.6484 259.666 78.4072 260.188 78.9873C260.715 79.5615 261.383 79.8486 262.191 79.8486C262.766 79.8486 263.252 79.7314 263.65 79.4971C264.049 79.2627 264.397 78.9521 264.696 78.5654L265.689 79.3389C264.893 80.5635 263.697 81.1758 262.104 81.1758ZM261.901 72.6504C261.245 72.6504 260.694 72.8906 260.249 73.3711C259.804 73.8457 259.528 74.5137 259.423 75.375H264.187V75.252C264.14 74.4258 263.917 73.7871 263.519 73.3359C263.12 72.8789 262.581 72.6504 261.901 72.6504ZM269.24 71.4902L269.293 72.6855C270.02 71.7715 270.969 71.3145 272.141 71.3145C274.15 71.3145 275.164 72.4482 275.182 74.7158V81H273.556V74.707C273.55 74.0215 273.392 73.5146 273.081 73.1865C272.776 72.8584 272.299 72.6943 271.648 72.6943C271.121 72.6943 270.658 72.835 270.26 73.1162C269.861 73.3975 269.551 73.7666 269.328 74.2236V81H267.702V71.4902H269.24ZM279.84 69.1875V71.4902H281.615V72.7471H279.84V78.6445C279.84 79.0254 279.919 79.3125 280.077 79.5059C280.235 79.6934 280.505 79.7871 280.886 79.7871C281.073 79.7871 281.331 79.752 281.659 79.6816V81C281.231 81.1172 280.815 81.1758 280.411 81.1758C279.685 81.1758 279.137 80.9561 278.768 80.5166C278.398 80.0771 278.214 79.4531 278.214 78.6445V72.7471H276.482V71.4902H278.214V69.1875H279.84ZM288.242 81V68.2031H292.426C293.814 68.2031 294.857 68.4902 295.555 69.0645C296.258 69.6387 296.609 70.4883 296.609 71.6133C296.609 72.2109 296.439 72.7412 296.1 73.2041C295.76 73.6611 295.297 74.0156 294.711 74.2676C295.402 74.4609 295.947 74.8301 296.346 75.375C296.75 75.9141 296.952 76.5586 296.952 77.3086C296.952 78.457 296.58 79.3594 295.836 80.0156C295.092 80.6719 294.04 81 292.681 81H288.242ZM289.93 75.0146V79.6201H292.716C293.501 79.6201 294.119 79.418 294.57 79.0137C295.027 78.6035 295.256 78.041 295.256 77.3262C295.256 75.7852 294.418 75.0146 292.742 75.0146H289.93ZM289.93 73.6611H292.479C293.217 73.6611 293.806 73.4766 294.245 73.1074C294.69 72.7383 294.913 72.2373 294.913 71.6045C294.913 70.9014 294.708 70.3916 294.298 70.0752C293.888 69.7529 293.264 69.5918 292.426 69.5918H289.93V73.6611Z" fill="black"/>
<path d="M191.115 167.007C190.566 166.943 190.07 167.337 190.007 167.885L188.975 176.826C188.912 177.375 189.305 177.871 189.854 177.934C190.402 177.997 190.898 177.604 190.962 177.055L191.879 169.108L199.826 170.025C200.375 170.088 200.871 169.695 200.934 169.146C200.997 168.598 200.604 168.102 200.055 168.038L191.115 167.007ZM190.217 168.621L259.217 255.621L260.783 254.379L191.783 167.379L190.217 168.621Z" fill="#FF0000"/>
<path d="M499.01 245.144C499.09 245.691 499.598 246.069 500.144 245.99L509.05 244.693C509.597 244.613 509.975 244.105 509.896 243.559C509.816 243.012 509.308 242.634 508.762 242.713L500.845 243.866L499.693 235.95C499.613 235.403 499.105 235.025 498.559 235.104C498.012 235.184 497.634 235.692 497.713 236.238L499.01 245.144ZM500.802 245.598L544.802 186.598L543.198 185.402L499.198 244.402L500.802 245.598Z" fill="#FF0000"/>
</svg>
