<svg width="600" height="300" viewBox="0 0 600 300" fill="none" xmlns="http://www.w3.org/2000/svg">
<g clip-path="url(#clip0_703:191)">
<rect width="600" height="300" fill="white"/>
<path d="M279.688 19.3945C277.758 18.8398 276.352 18.1602 275.469 17.3555C274.594 16.543 274.156 15.543 274.156 14.3555C274.156 13.0117 274.691 11.9023 275.762 11.0273C276.84 10.1445 278.238 9.70312 279.957 9.70312C281.129 9.70312 282.172 9.92969 283.086 10.3828C284.008 10.8359 284.719 11.4609 285.219 12.2578C285.727 13.0547 285.98 13.9258 285.98 14.8711H283.719C283.719 13.8398 283.391 13.0312 282.734 12.4453C282.078 11.8516 281.152 11.5547 279.957 11.5547C278.848 11.5547 277.98 11.8008 277.355 12.293C276.738 12.7773 276.43 13.4531 276.43 14.3203C276.43 15.0156 276.723 15.6055 277.309 16.0898C277.902 16.5664 278.906 17.0039 280.32 17.4023C281.742 17.8008 282.852 18.2422 283.648 18.7266C284.453 19.2031 285.047 19.7617 285.43 20.4023C285.82 21.043 286.016 21.7969 286.016 22.6641C286.016 24.0469 285.477 25.1562 284.398 25.9922C283.32 26.8203 281.879 27.2344 280.074 27.2344C278.902 27.2344 277.809 27.0117 276.793 26.5664C275.777 26.1133 274.992 25.4961 274.438 24.7148C273.891 23.9336 273.617 23.0469 273.617 22.0547H275.879C275.879 23.0859 276.258 23.9023 277.016 24.5039C277.781 25.0977 278.801 25.3945 280.074 25.3945C281.262 25.3945 282.172 25.1523 282.805 24.668C283.438 24.1836 283.754 23.5234 283.754 22.6875C283.754 21.8516 283.461 21.207 282.875 20.7539C282.289 20.293 281.227 19.8398 279.688 19.3945ZM293.832 27.2344C292.113 27.2344 290.715 26.6719 289.637 25.5469C288.559 24.4141 288.02 22.9023 288.02 21.0117V20.6133C288.02 19.3555 288.258 18.2344 288.734 17.25C289.219 16.2578 289.891 15.4844 290.75 14.9297C291.617 14.3672 292.555 14.0859 293.562 14.0859C295.211 14.0859 296.492 14.6289 297.406 15.7148C298.32 16.8008 298.777 18.3555 298.777 20.3789V21.2812H290.188C290.219 22.5312 290.582 23.543 291.277 24.3164C291.98 25.082 292.871 25.4648 293.949 25.4648C294.715 25.4648 295.363 25.3086 295.895 24.9961C296.426 24.6836 296.891 24.2695 297.289 23.7539L298.613 24.7852C297.551 26.418 295.957 27.2344 293.832 27.2344ZM293.562 15.8672C292.688 15.8672 291.953 16.1875 291.359 16.8281C290.766 17.4609 290.398 18.3516 290.258 19.5H296.609V19.3359C296.547 18.2344 296.25 17.3828 295.719 16.7812C295.188 16.1719 294.469 15.8672 293.562 15.8672ZM307.426 16.2656C307.098 16.2109 306.742 16.1836 306.359 16.1836C304.938 16.1836 303.973 16.7891 303.465 18V27H301.297V14.3203H303.406L303.441 15.7852C304.152 14.6523 305.16 14.0859 306.465 14.0859C306.887 14.0859 307.207 14.1406 307.426 14.25V16.2656ZM313.824 24.0586L316.965 14.3203H319.18L314.633 27H312.98L308.387 14.3203H310.602L313.824 24.0586ZM326.363 27.2344C324.645 27.2344 323.246 26.6719 322.168 25.5469C321.09 24.4141 320.551 22.9023 320.551 21.0117V20.6133C320.551 19.3555 320.789 18.2344 321.266 17.25C321.75 16.2578 322.422 15.4844 323.281 14.9297C324.148 14.3672 325.086 14.0859 326.094 14.0859C327.742 14.0859 329.023 14.6289 329.938 15.7148C330.852 16.8008 331.309 18.3555 331.309 20.3789V21.2812H322.719C322.75 22.5312 323.113 23.543 323.809 24.3164C324.512 25.082 325.402 25.4648 326.48 25.4648C327.246 25.4648 327.895 25.3086 328.426 24.9961C328.957 24.6836 329.422 24.2695 329.82 23.7539L331.145 24.7852C330.082 26.418 328.488 27.2344 326.363 27.2344ZM326.094 15.8672C325.219 15.8672 324.484 16.1875 323.891 16.8281C323.297 17.4609 322.93 18.3516 322.789 19.5H329.141V19.3359C329.078 18.2344 328.781 17.3828 328.25 16.7812C327.719 16.1719 327 15.8672 326.094 15.8672ZM339.957 16.2656C339.629 16.2109 339.273 16.1836 338.891 16.1836C337.469 16.1836 336.504 16.7891 335.996 18V27H333.828V14.3203H335.938L335.973 15.7852C336.684 14.6523 337.691 14.0859 338.996 14.0859C339.418 14.0859 339.738 14.1406 339.957 14.25V16.2656Z" fill="black"/>
<path d="M291.469 284.586C291.258 286.391 290.59 287.785 289.465 288.77C288.348 289.746 286.859 290.234 285 290.234C282.984 290.234 281.367 289.512 280.148 288.066C278.938 286.621 278.332 284.688 278.332 282.266V280.625C278.332 279.039 278.613 277.645 279.176 276.441C279.746 275.238 280.551 274.316 281.59 273.676C282.629 273.027 283.832 272.703 285.199 272.703C287.012 272.703 288.465 273.211 289.559 274.227C290.652 275.234 291.289 276.633 291.469 278.422H289.207C289.012 277.062 288.586 276.078 287.93 275.469C287.281 274.859 286.371 274.555 285.199 274.555C283.762 274.555 282.633 275.086 281.812 276.148C281 277.211 280.594 278.723 280.594 280.684V282.336C280.594 284.188 280.98 285.66 281.754 286.754C282.527 287.848 283.609 288.395 285 288.395C286.25 288.395 287.207 288.113 287.871 287.551C288.543 286.98 288.988 285.992 289.207 284.586H291.469ZM296.566 290H294.398V272H296.566V290ZM302.402 290H300.234V277.32H302.402V290ZM300.059 273.957C300.059 273.605 300.164 273.309 300.375 273.066C300.594 272.824 300.914 272.703 301.336 272.703C301.758 272.703 302.078 272.824 302.297 273.066C302.516 273.309 302.625 273.605 302.625 273.957C302.625 274.309 302.516 274.602 302.297 274.836C302.078 275.07 301.758 275.188 301.336 275.188C300.914 275.188 300.594 275.07 300.375 274.836C300.164 274.602 300.059 274.309 300.059 273.957ZM311.145 290.234C309.426 290.234 308.027 289.672 306.949 288.547C305.871 287.414 305.332 285.902 305.332 284.012V283.613C305.332 282.355 305.57 281.234 306.047 280.25C306.531 279.258 307.203 278.484 308.062 277.93C308.93 277.367 309.867 277.086 310.875 277.086C312.523 277.086 313.805 277.629 314.719 278.715C315.633 279.801 316.09 281.355 316.09 283.379V284.281H307.5C307.531 285.531 307.895 286.543 308.59 287.316C309.293 288.082 310.184 288.465 311.262 288.465C312.027 288.465 312.676 288.309 313.207 287.996C313.738 287.684 314.203 287.27 314.602 286.754L315.926 287.785C314.863 289.418 313.27 290.234 311.145 290.234ZM310.875 278.867C310 278.867 309.266 279.188 308.672 279.828C308.078 280.461 307.711 281.352 307.57 282.5H313.922V282.336C313.859 281.234 313.562 280.383 313.031 279.781C312.5 279.172 311.781 278.867 310.875 278.867ZM320.66 277.32L320.73 278.914C321.699 277.695 322.965 277.086 324.527 277.086C327.207 277.086 328.559 278.598 328.582 281.621V290H326.414V281.609C326.406 280.695 326.195 280.02 325.781 279.582C325.375 279.145 324.738 278.926 323.871 278.926C323.168 278.926 322.551 279.113 322.02 279.488C321.488 279.863 321.074 280.355 320.777 280.965V290H318.609V277.32H320.66ZM334.793 274.25V277.32H337.16V278.996H334.793V286.859C334.793 287.367 334.898 287.75 335.109 288.008C335.32 288.258 335.68 288.383 336.188 288.383C336.438 288.383 336.781 288.336 337.219 288.242V290C336.648 290.156 336.094 290.234 335.555 290.234C334.586 290.234 333.855 289.941 333.363 289.355C332.871 288.77 332.625 287.938 332.625 286.859V278.996H330.316V277.32H332.625V274.25H334.793Z" fill="black"/>
<path d="M39.3462 145.728H35.3408V149.003H39.9937V150H34.1221V140.758H39.9302V141.761H35.3408V144.731H39.3462V145.728ZM45.3257 148.178C45.3257 147.861 45.2051 147.615 44.9639 147.442C44.7269 147.264 44.3101 147.112 43.7134 146.985C43.1209 146.858 42.6491 146.706 42.2979 146.528C41.9508 146.35 41.6927 146.139 41.5234 145.893C41.3584 145.648 41.2759 145.356 41.2759 145.017C41.2759 144.454 41.5129 143.978 41.9868 143.589C42.465 143.2 43.0744 143.005 43.8149 143.005C44.5936 143.005 45.2241 143.206 45.7065 143.608C46.1932 144.01 46.4365 144.524 46.4365 145.15H45.2559C45.2559 144.829 45.1183 144.552 44.8433 144.319C44.5724 144.086 44.2297 143.97 43.8149 143.97C43.3875 143.97 43.0532 144.063 42.812 144.249C42.5708 144.435 42.4502 144.679 42.4502 144.979C42.4502 145.263 42.5623 145.476 42.7866 145.62C43.0109 145.764 43.415 145.902 43.999 146.033C44.5872 146.164 45.0633 146.32 45.4272 146.502C45.7912 146.684 46.0599 146.904 46.2334 147.163C46.4111 147.417 46.5 147.728 46.5 148.096C46.5 148.709 46.2546 149.202 45.7637 149.575C45.2728 149.943 44.6359 150.127 43.853 150.127C43.3029 150.127 42.8162 150.03 42.3931 149.835C41.9699 149.64 41.6377 149.369 41.3965 149.022C41.1595 148.671 41.041 148.292 41.041 147.886H42.2153C42.2365 148.28 42.3931 148.593 42.6851 148.826C42.9813 149.054 43.3706 149.168 43.853 149.168C44.2974 149.168 44.6528 149.08 44.9194 148.902C45.1903 148.72 45.3257 148.479 45.3257 148.178ZM49.623 141.469V143.132H50.9053V144.04H49.623V148.299C49.623 148.574 49.6802 148.781 49.7944 148.921C49.9087 149.056 50.1034 149.124 50.3784 149.124C50.5138 149.124 50.7 149.099 50.937 149.048V150C50.6281 150.085 50.3276 150.127 50.0356 150.127C49.5109 150.127 49.1152 149.968 48.8486 149.651C48.582 149.333 48.4487 148.883 48.4487 148.299V144.04H47.1982V143.132H48.4487V141.469H49.623ZM56.5229 150C56.4552 149.865 56.4002 149.623 56.3579 149.276C55.812 149.843 55.1603 150.127 54.4028 150.127C53.7257 150.127 53.1693 149.937 52.7334 149.556C52.3018 149.171 52.0859 148.684 52.0859 148.096C52.0859 147.381 52.3568 146.826 52.8984 146.433C53.4443 146.035 54.2103 145.836 55.1963 145.836H56.3389V145.296C56.3389 144.886 56.2161 144.56 55.9707 144.319C55.7253 144.073 55.3634 143.951 54.8853 143.951C54.4663 143.951 54.1151 144.056 53.8315 144.268C53.548 144.48 53.4062 144.736 53.4062 145.036H52.2256C52.2256 144.693 52.3462 144.363 52.5874 144.046C52.8328 143.724 53.1629 143.47 53.5776 143.284C53.9966 143.098 54.4557 143.005 54.9551 143.005C55.7464 143.005 56.3664 143.204 56.8149 143.602C57.2635 143.995 57.4963 144.539 57.5132 145.233V148.394C57.5132 149.025 57.5936 149.526 57.7544 149.898V150H56.5229ZM54.5742 149.105C54.9424 149.105 55.2915 149.01 55.6216 148.819C55.9517 148.629 56.1908 148.381 56.3389 148.077V146.667H55.4185C53.9797 146.667 53.2603 147.089 53.2603 147.931C53.2603 148.299 53.383 148.587 53.6284 148.794C53.8739 149.001 54.1891 149.105 54.5742 149.105ZM65.1685 146.642C65.1685 147.692 64.9272 148.536 64.4448 149.175C63.9624 149.81 63.3149 150.127 62.5024 150.127C61.6349 150.127 60.9642 149.82 60.4902 149.207L60.4331 150H59.354V140.25H60.5283V143.887C61.0023 143.299 61.6561 143.005 62.4897 143.005C63.3234 143.005 63.9772 143.32 64.4512 143.951C64.9294 144.581 65.1685 145.444 65.1685 146.541V146.642ZM63.9941 146.509C63.9941 145.709 63.8397 145.091 63.5308 144.655C63.2218 144.219 62.7775 144.001 62.1978 144.001C61.4233 144.001 60.8669 144.361 60.5283 145.081V148.051C60.888 148.771 61.4487 149.13 62.2104 149.13C62.7733 149.13 63.2113 148.912 63.5244 148.477C63.8376 148.041 63.9941 147.385 63.9941 146.509ZM67.9297 150H66.7554V140.25H67.9297V150ZM71.0908 150H69.9165V143.132H71.0908V150ZM69.8213 141.31C69.8213 141.12 69.8784 140.959 69.9927 140.828C70.1112 140.696 70.2847 140.631 70.5132 140.631C70.7417 140.631 70.9152 140.696 71.0337 140.828C71.1522 140.959 71.2114 141.12 71.2114 141.31C71.2114 141.5 71.1522 141.659 71.0337 141.786C70.9152 141.913 70.7417 141.977 70.5132 141.977C70.2847 141.977 70.1112 141.913 69.9927 141.786C69.8784 141.659 69.8213 141.5 69.8213 141.31ZM76.9751 148.178C76.9751 147.861 76.8545 147.615 76.6133 147.442C76.3763 147.264 75.9595 147.112 75.3628 146.985C74.7703 146.858 74.2985 146.706 73.9473 146.528C73.6003 146.35 73.3421 146.139 73.1729 145.893C73.0078 145.648 72.9253 145.356 72.9253 145.017C72.9253 144.454 73.1623 143.978 73.6362 143.589C74.1144 143.2 74.7238 143.005 75.4644 143.005C76.243 143.005 76.8735 143.206 77.356 143.608C77.8426 144.01 78.0859 144.524 78.0859 145.15H76.9053C76.9053 144.829 76.7677 144.552 76.4927 144.319C76.2218 144.086 75.8791 143.97 75.4644 143.97C75.0369 143.97 74.7026 144.063 74.4614 144.249C74.2202 144.435 74.0996 144.679 74.0996 144.979C74.0996 145.263 74.2118 145.476 74.436 145.62C74.6603 145.764 75.0645 145.902 75.6484 146.033C76.2367 146.164 76.7127 146.32 77.0767 146.502C77.4406 146.684 77.7093 146.904 77.8828 147.163C78.0605 147.417 78.1494 147.728 78.1494 148.096C78.1494 148.709 77.904 149.202 77.4131 149.575C76.9222 149.943 76.2853 150.127 75.5024 150.127C74.9523 150.127 74.4657 150.03 74.0425 149.835C73.6193 149.64 73.2871 149.369 73.0459 149.022C72.8089 148.671 72.6904 148.292 72.6904 147.886H73.8647C73.8859 148.28 74.0425 148.593 74.3345 148.826C74.6307 149.054 75.02 149.168 75.5024 149.168C75.9468 149.168 76.3022 149.08 76.5688 148.902C76.8397 148.72 76.9751 148.479 76.9751 148.178ZM80.8535 143.963C81.374 143.324 82.0511 143.005 82.8848 143.005C84.3363 143.005 85.0684 143.824 85.0811 145.461V150H83.9067V145.455C83.9025 144.96 83.7882 144.594 83.564 144.357C83.3439 144.12 82.999 144.001 82.5293 144.001C82.1484 144.001 81.8141 144.103 81.5264 144.306C81.2386 144.509 81.0143 144.776 80.8535 145.106V150H79.6792V140.25H80.8535V143.963ZM31.0117 164.168C31.4307 164.168 31.7967 164.042 32.1099 163.788C32.423 163.534 32.5965 163.216 32.6304 162.835H33.7412C33.7201 163.229 33.5846 163.604 33.335 163.959C33.0853 164.314 32.751 164.598 32.332 164.81C31.9173 165.021 31.4772 165.127 31.0117 165.127C30.0765 165.127 29.3317 164.816 28.7773 164.194C28.2272 163.568 27.9521 162.713 27.9521 161.629V161.433C27.9521 160.764 28.0749 160.169 28.3203 159.649C28.5658 159.128 28.917 158.724 29.374 158.437C29.8353 158.149 30.3791 158.005 31.0054 158.005C31.7756 158.005 32.4146 158.236 32.9224 158.697C33.4344 159.158 33.7074 159.757 33.7412 160.493H32.6304C32.5965 160.049 32.4272 159.685 32.1226 159.401C31.8221 159.114 31.4497 158.97 31.0054 158.97C30.4087 158.97 29.9453 159.186 29.6152 159.617C29.2894 160.045 29.1265 160.665 29.1265 161.477V161.699C29.1265 162.491 29.2894 163.1 29.6152 163.527C29.9411 163.955 30.4066 164.168 31.0117 164.168ZM34.7505 161.502C34.7505 160.83 34.8817 160.224 35.144 159.687C35.4106 159.15 35.7788 158.735 36.2485 158.443C36.7225 158.151 37.262 158.005 37.8672 158.005C38.8024 158.005 39.5578 158.329 40.1333 158.976C40.7131 159.624 41.0029 160.485 41.0029 161.56V161.642C41.0029 162.311 40.8739 162.912 40.6157 163.445C40.3618 163.974 39.9958 164.386 39.5176 164.683C39.0436 164.979 38.4977 165.127 37.8799 165.127C36.9489 165.127 36.1935 164.803 35.6138 164.156C35.0382 163.508 34.7505 162.651 34.7505 161.585V161.502ZM35.9312 161.642C35.9312 162.404 36.1068 163.015 36.458 163.477C36.8135 163.938 37.2874 164.168 37.8799 164.168C38.4766 164.168 38.9505 163.936 39.3018 163.47C39.653 163 39.8286 162.345 39.8286 161.502C39.8286 160.749 39.6488 160.14 39.2891 159.674C38.9336 159.205 38.4596 158.97 37.8672 158.97C37.2874 158.97 36.8198 159.2 36.4644 159.662C36.1089 160.123 35.9312 160.783 35.9312 161.642ZM43.5864 158.132L43.6245 158.995C44.1493 158.335 44.8348 158.005 45.6812 158.005C47.1326 158.005 47.8647 158.824 47.8774 160.461V165H46.7031V160.455C46.6989 159.96 46.5846 159.594 46.3604 159.357C46.1403 159.12 45.7954 159.001 45.3257 159.001C44.9448 159.001 44.6105 159.103 44.3228 159.306C44.035 159.509 43.8107 159.776 43.6499 160.106V165H42.4756V158.132H43.5864ZM50.7593 158.132L50.7974 158.995C51.3221 158.335 52.0076 158.005 52.854 158.005C54.3055 158.005 55.0376 158.824 55.0503 160.461V165H53.876V160.455C53.8717 159.96 53.7575 159.594 53.5332 159.357C53.3132 159.12 52.9683 159.001 52.4985 159.001C52.1177 159.001 51.7834 159.103 51.4956 159.306C51.2078 159.509 50.9836 159.776 50.8228 160.106V165H49.6484V158.132H50.7593ZM59.6714 165.127C58.7404 165.127 57.9829 164.822 57.3989 164.213C56.8149 163.599 56.5229 162.78 56.5229 161.756V161.541C56.5229 160.859 56.652 160.252 56.9102 159.719C57.1725 159.181 57.5365 158.762 58.002 158.462C58.4717 158.157 58.9795 158.005 59.5254 158.005C60.4183 158.005 61.1123 158.299 61.6074 158.887C62.1025 159.475 62.3501 160.318 62.3501 161.414V161.902H57.6973C57.7142 162.579 57.911 163.127 58.2876 163.546C58.6685 163.961 59.1509 164.168 59.7349 164.168C60.1496 164.168 60.5008 164.084 60.7886 163.915C61.0763 163.745 61.3281 163.521 61.5439 163.242L62.2612 163.8C61.6857 164.685 60.8224 165.127 59.6714 165.127ZM59.5254 158.97C59.0514 158.97 58.6536 159.143 58.332 159.49C58.0104 159.833 57.8115 160.315 57.7354 160.938H61.1758V160.849C61.1419 160.252 60.9811 159.791 60.6934 159.465C60.4056 159.135 60.0163 158.97 59.5254 158.97ZM66.4697 164.168C66.8887 164.168 67.2547 164.042 67.5679 163.788C67.881 163.534 68.0545 163.216 68.0884 162.835H69.1992C69.1781 163.229 69.0426 163.604 68.793 163.959C68.5433 164.314 68.209 164.598 67.79 164.81C67.3753 165.021 66.9352 165.127 66.4697 165.127C65.5345 165.127 64.7897 164.816 64.2354 164.194C63.6852 163.568 63.4102 162.713 63.4102 161.629V161.433C63.4102 160.764 63.5329 160.169 63.7783 159.649C64.0238 159.128 64.375 158.724 64.832 158.437C65.2933 158.149 65.8371 158.005 66.4634 158.005C67.2336 158.005 67.8726 158.236 68.3804 158.697C68.8924 159.158 69.1654 159.757 69.1992 160.493H68.0884C68.0545 160.049 67.8853 159.685 67.5806 159.401C67.2801 159.114 66.9077 158.97 66.4634 158.97C65.8667 158.97 65.4033 159.186 65.0732 159.617C64.7474 160.045 64.5845 160.665 64.5845 161.477V161.699C64.5845 162.491 64.7474 163.1 65.0732 163.527C65.3991 163.955 65.8646 164.168 66.4697 164.168ZM72.1128 156.469V158.132H73.395V159.04H72.1128V163.299C72.1128 163.574 72.1699 163.781 72.2842 163.921C72.3984 164.056 72.5931 164.124 72.8682 164.124C73.0036 164.124 73.1898 164.099 73.4268 164.048V165C73.1178 165.085 72.8174 165.127 72.5254 165.127C72.0007 165.127 71.605 164.968 71.3384 164.651C71.0718 164.333 70.9385 163.883 70.9385 163.299V159.04H69.688V158.132H70.9385V156.469H72.1128ZM76.0483 165H74.874V158.132H76.0483V165ZM74.7788 156.31C74.7788 156.12 74.8359 155.959 74.9502 155.828C75.0687 155.696 75.2422 155.631 75.4707 155.631C75.6992 155.631 75.8727 155.696 75.9912 155.828C76.1097 155.959 76.1689 156.12 76.1689 156.31C76.1689 156.5 76.1097 156.659 75.9912 156.786C75.8727 156.913 75.6992 156.977 75.4707 156.977C75.2422 156.977 75.0687 156.913 74.9502 156.786C74.8359 156.659 74.7788 156.5 74.7788 156.31ZM77.6226 161.502C77.6226 160.83 77.7537 160.224 78.0161 159.687C78.2827 159.15 78.6509 158.735 79.1206 158.443C79.5946 158.151 80.1341 158.005 80.7393 158.005C81.6745 158.005 82.4299 158.329 83.0054 158.976C83.5851 159.624 83.875 160.485 83.875 161.56V161.642C83.875 162.311 83.7459 162.912 83.4878 163.445C83.2339 163.974 82.8678 164.386 82.3896 164.683C81.9157 164.979 81.3698 165.127 80.752 165.127C79.821 165.127 79.0656 164.803 78.4858 164.156C77.9103 163.508 77.6226 162.651 77.6226 161.585V161.502ZM78.8032 161.642C78.8032 162.404 78.9788 163.015 79.3301 163.477C79.6855 163.938 80.1595 164.168 80.752 164.168C81.3486 164.168 81.8226 163.936 82.1738 163.47C82.5251 163 82.7007 162.345 82.7007 161.502C82.7007 160.749 82.5208 160.14 82.1611 159.674C81.8057 159.205 81.3317 158.97 80.7393 158.97C80.1595 158.97 79.6919 159.2 79.3364 159.662C78.981 160.123 78.8032 160.783 78.8032 161.642ZM86.4585 158.132L86.4966 158.995C87.0213 158.335 87.7069 158.005 88.5532 158.005C90.0047 158.005 90.7368 158.824 90.7495 160.461V165H89.5752V160.455C89.571 159.96 89.4567 159.594 89.2324 159.357C89.0124 159.12 88.6675 159.001 88.1978 159.001C87.8169 159.001 87.4826 159.103 87.1948 159.306C86.9071 159.509 86.6828 159.776 86.522 160.106V165H85.3477V158.132H86.4585Z" fill="black"/>
<path d="M159.111 158V148.758H161.72C162.524 148.758 163.235 148.936 163.853 149.291C164.471 149.646 164.947 150.152 165.281 150.808C165.62 151.464 165.791 152.217 165.795 153.068V153.658C165.795 154.53 165.626 155.294 165.288 155.95C164.953 156.606 164.473 157.109 163.847 157.46C163.225 157.812 162.499 157.992 161.669 158H159.111ZM160.33 149.761V157.003H161.612C162.552 157.003 163.282 156.711 163.802 156.127C164.327 155.543 164.589 154.712 164.589 153.633V153.093C164.589 152.044 164.342 151.229 163.847 150.649C163.356 150.065 162.658 149.769 161.752 149.761H160.33ZM171.699 158C171.631 157.865 171.576 157.623 171.534 157.276C170.988 157.843 170.336 158.127 169.579 158.127C168.901 158.127 168.345 157.937 167.909 157.556C167.478 157.171 167.262 156.684 167.262 156.096C167.262 155.381 167.533 154.826 168.074 154.433C168.62 154.035 169.386 153.836 170.372 153.836H171.515V153.296C171.515 152.886 171.392 152.56 171.146 152.319C170.901 152.073 170.539 151.951 170.061 151.951C169.642 151.951 169.291 152.056 169.007 152.268C168.724 152.48 168.582 152.736 168.582 153.036H167.401C167.401 152.693 167.522 152.363 167.763 152.046C168.009 151.724 168.339 151.47 168.753 151.284C169.172 151.098 169.631 151.005 170.131 151.005C170.922 151.005 171.542 151.204 171.991 151.602C172.439 151.995 172.672 152.539 172.689 153.233V156.394C172.689 157.025 172.769 157.526 172.93 157.898V158H171.699ZM169.75 157.105C170.118 157.105 170.467 157.01 170.797 156.819C171.127 156.629 171.367 156.381 171.515 156.077V154.667H170.594C169.155 154.667 168.436 155.089 168.436 155.931C168.436 156.299 168.559 156.587 168.804 156.794C169.05 157.001 169.365 157.105 169.75 157.105ZM176.123 149.469V151.132H177.405V152.04H176.123V156.299C176.123 156.574 176.18 156.781 176.294 156.921C176.409 157.056 176.603 157.124 176.878 157.124C177.014 157.124 177.2 157.099 177.437 157.048V158C177.128 158.085 176.828 158.127 176.536 158.127C176.011 158.127 175.615 157.968 175.349 157.651C175.082 157.333 174.949 156.883 174.949 156.299V152.04H173.698V151.132H174.949V149.469H176.123ZM183.023 158C182.955 157.865 182.9 157.623 182.858 157.276C182.312 157.843 181.66 158.127 180.903 158.127C180.226 158.127 179.669 157.937 179.233 157.556C178.802 157.171 178.586 156.684 178.586 156.096C178.586 155.381 178.857 154.826 179.398 154.433C179.944 154.035 180.71 153.836 181.696 153.836H182.839V153.296C182.839 152.886 182.716 152.56 182.471 152.319C182.225 152.073 181.863 151.951 181.385 151.951C180.966 151.951 180.615 152.056 180.332 152.268C180.048 152.48 179.906 152.736 179.906 153.036H178.726C178.726 152.693 178.846 152.363 179.087 152.046C179.333 151.724 179.663 151.47 180.078 151.284C180.497 151.098 180.956 151.005 181.455 151.005C182.246 151.005 182.866 151.204 183.315 151.602C183.763 151.995 183.996 152.539 184.013 153.233V156.394C184.013 157.025 184.094 157.526 184.254 157.898V158H183.023ZM181.074 157.105C181.442 157.105 181.791 157.01 182.122 156.819C182.452 156.629 182.691 156.381 182.839 156.077V154.667H181.918C180.48 154.667 179.76 155.089 179.76 155.931C179.76 156.299 179.883 156.587 180.128 156.794C180.374 157.001 180.689 157.105 181.074 157.105Z" fill="#FF0000"/>
<path d="M509.793 250.708C510.183 251.099 510.817 251.099 511.207 250.708L517.571 244.344C517.962 243.954 517.962 243.321 517.571 242.93C517.181 242.54 516.547 242.54 516.157 242.93L510.5 248.587L504.843 242.93C504.453 242.54 503.819 242.54 503.429 242.93C503.038 243.321 503.038 243.954 503.429 244.344L509.793 250.708ZM509.5 47.9988V250.001H511.5V47.9988H509.5Z" fill="#FF0000"/>
<path d="M106.709 49.3124C106.319 48.9219 105.685 48.9219 105.295 49.3124L98.9309 55.6764C98.5403 56.0669 98.5403 56.7001 98.9309 57.0906C99.3214 57.4811 99.9545 57.4811 100.345 57.0906L106.002 51.4337L111.659 57.0906C112.049 57.4811 112.682 57.4811 113.073 57.0906C113.464 56.7001 113.464 56.0669 113.073 55.6764L106.709 49.3124ZM107.002 250.02L107.002 50.0195H105.002L105.002 250.02H107.002Z" fill="black"/>
<path d="M128.295 249.707C128.685 250.098 129.319 250.098 129.709 249.707L136.073 243.343C136.464 242.953 136.464 242.319 136.073 241.929C135.682 241.538 135.049 241.538 134.659 241.929L129.002 247.586L123.345 241.929C122.955 241.538 122.321 241.538 121.931 241.929C121.54 242.319 121.54 242.953 121.931 243.343L128.295 249.707ZM128.002 49L128.002 249H130.002L130.002 49H128.002Z" fill="#FF0000"/>
<path d="M311.295 249.707C311.685 250.098 312.319 250.098 312.709 249.707L319.073 243.343C319.464 242.953 319.464 242.319 319.073 241.929C318.682 241.538 318.049 241.538 317.659 241.929L312.002 247.586L306.345 241.929C305.955 241.538 305.321 241.538 304.931 241.929C304.54 242.319 304.54 242.953 304.931 243.343L311.295 249.707ZM311.002 49V249H313.002V49H311.002Z" fill="#FF0000"/>
<path d="M377.295 249.707C377.685 250.098 378.319 250.098 378.709 249.707L385.073 243.343C385.464 242.953 385.464 242.319 385.073 241.929C384.682 241.538 384.049 241.538 383.659 241.929L378.002 247.586L372.345 241.929C371.955 241.538 371.321 241.538 370.931 241.929C370.54 242.319 370.54 242.953 370.931 243.343L377.295 249.707ZM377.002 49V249H379.002V49H377.002Z" fill="#FF0000"/>
<path d="M345.707 50.2929C345.317 49.9024 344.683 49.9024 344.293 50.2929L337.929 56.6569C337.538 57.0474 337.538 57.6805 337.929 58.0711C338.319 58.4616 338.953 58.4616 339.343 58.0711L345 52.4142L350.657 58.0711C351.047 58.4616 351.681 58.4616 352.071 58.0711C352.462 57.6805 352.462 57.0474 352.071 56.6569L345.707 50.2929ZM346 251L346 51H344L344 251H346Z" fill="#FF0000"/>
<path d="M444.707 51.2929C444.317 50.9024 443.683 50.9024 443.293 51.2929L436.929 57.6569C436.538 58.0474 436.538 58.6805 436.929 59.0711C437.319 59.4616 437.953 59.4616 438.343 59.0711L444 53.4142L449.657 59.0711C450.047 59.4616 450.681 59.4616 451.071 59.0711C451.462 58.6805 451.462 58.0474 451.071 57.6569L444.707 51.2929ZM445 252L445 52H443L443 252H445Z" fill="#FF0000"/>
<path d="M475.293 250.707C475.683 251.098 476.317 251.098 476.707 250.707L483.071 244.343C483.462 243.953 483.462 243.319 483.071 242.929C482.681 242.538 482.047 242.538 481.657 242.929L476 248.586L470.343 242.929C469.953 242.538 469.319 242.538 468.929 242.929C468.538 243.319 468.538 243.953 468.929 244.343L475.293 250.707ZM475 48V250H477V48H475Z" fill="#FF0000"/>
<path d="M209.707 49.2929C209.317 48.9024 208.683 48.9024 208.293 49.2929L201.929 55.6569C201.538 56.0474 201.538 56.6805 201.929 57.0711C202.319 57.4616 202.953 57.4616 203.343 57.0711L209 51.4142L214.657 57.0711C215.047 57.4616 215.681 57.4616 216.071 57.0711C216.462 56.6805 216.462 56.0474 216.071 55.6569L209.707 49.2929ZM210 252L210 50H208L208 252H210Z" fill="#FF0000"/>
<path d="M245.295 249.707C245.685 250.098 246.319 250.098 246.709 249.707L253.073 243.343C253.464 242.953 253.464 242.319 253.073 241.929C252.682 241.538 252.049 241.538 251.659 241.929L246.002 247.586L240.345 241.929C239.955 241.538 239.321 241.538 238.931 241.929C238.54 242.319 238.54 242.953 238.931 243.343L245.295 249.707ZM245.002 49L245.002 249H247.002L247.002 49H245.002Z" fill="#FF0000"/>
<path d="M578.065 253.061C578.65 252.475 578.65 251.525 578.065 250.939L568.519 241.393C567.933 240.808 566.983 240.808 566.397 241.393C565.811 241.979 565.811 242.929 566.397 243.515L574.883 252L566.397 260.485C565.811 261.071 565.811 262.021 566.397 262.607C566.983 263.192 567.933 263.192 568.519 262.607L578.065 253.061ZM58 253.5H577.004V250.5H58V253.5Z" fill="black"/>
<path d="M37 48H556.004" stroke="black" stroke-width="3"/>
</g>
<defs>
<clipPath id="clip0_703:191">
<rect width="600" height="300" fill="white"/>
</clipPath>
</defs>
</svg>
