<svg width="600" height="300" viewBox="0 0 600 300" fill="none" xmlns="http://www.w3.org/2000/svg">
<rect width="600" height="300" fill="white"/>
<path d="M272.689 18.3945C270.76 17.8398 269.353 17.1602 268.471 16.3555C267.596 15.543 267.158 14.543 267.158 13.3555C267.158 12.0117 267.693 10.9023 268.764 10.0273C269.842 9.14453 271.24 8.70312 272.959 8.70312C274.131 8.70312 275.174 8.92969 276.088 9.38281C277.01 9.83594 277.721 10.4609 278.221 11.2578C278.728 12.0547 278.982 12.9258 278.982 13.8711H276.721C276.721 12.8398 276.393 12.0312 275.736 11.4453C275.08 10.8516 274.154 10.5547 272.959 10.5547C271.85 10.5547 270.982 10.8008 270.357 11.293C269.74 11.7773 269.432 12.4531 269.432 13.3203C269.432 14.0156 269.725 14.6055 270.311 15.0898C270.904 15.5664 271.908 16.0039 273.322 16.4023C274.744 16.8008 275.853 17.2422 276.65 17.7266C277.455 18.2031 278.049 18.7617 278.432 19.4023C278.822 20.043 279.018 20.7969 279.018 21.6641C279.018 23.0469 278.478 24.1562 277.4 24.9922C276.322 25.8203 274.881 26.2344 273.076 26.2344C271.904 26.2344 270.811 26.0117 269.795 25.5664C268.779 25.1133 267.994 24.4961 267.439 23.7148C266.893 22.9336 266.619 22.0469 266.619 21.0547H268.881C268.881 22.0859 269.26 22.9023 270.018 23.5039C270.783 24.0977 271.803 24.3945 273.076 24.3945C274.264 24.3945 275.174 24.1523 275.807 23.668C276.439 23.1836 276.756 22.5234 276.756 21.6875C276.756 20.8516 276.463 20.207 275.877 19.7539C275.291 19.293 274.228 18.8398 272.689 18.3945ZM286.834 26.2344C285.115 26.2344 283.717 25.6719 282.639 24.5469C281.561 23.4141 281.021 21.9023 281.021 20.0117V19.6133C281.021 18.3555 281.26 17.2344 281.736 16.25C282.221 15.2578 282.893 14.4844 283.752 13.9297C284.619 13.3672 285.557 13.0859 286.564 13.0859C288.213 13.0859 289.494 13.6289 290.408 14.7148C291.322 15.8008 291.779 17.3555 291.779 19.3789V20.2812H283.189C283.221 21.5312 283.584 22.543 284.279 23.3164C284.982 24.082 285.873 24.4648 286.951 24.4648C287.717 24.4648 288.365 24.3086 288.896 23.9961C289.428 23.6836 289.893 23.2695 290.291 22.7539L291.615 23.7852C290.553 25.418 288.959 26.2344 286.834 26.2344ZM286.564 14.8672C285.689 14.8672 284.955 15.1875 284.361 15.8281C283.768 16.4609 283.4 17.3516 283.26 18.5H289.611V18.3359C289.549 17.2344 289.252 16.3828 288.721 15.7812C288.189 15.1719 287.471 14.8672 286.564 14.8672ZM300.428 15.2656C300.1 15.2109 299.744 15.1836 299.361 15.1836C297.939 15.1836 296.975 15.7891 296.467 17V26H294.299V13.3203H296.408L296.443 14.7852C297.154 13.6523 298.162 13.0859 299.467 13.0859C299.889 13.0859 300.209 13.1406 300.428 13.25V15.2656ZM306.826 23.0586L309.967 13.3203H312.182L307.635 26H305.982L301.389 13.3203H303.603L306.826 23.0586ZM319.365 26.2344C317.646 26.2344 316.248 25.6719 315.17 24.5469C314.092 23.4141 313.553 21.9023 313.553 20.0117V19.6133C313.553 18.3555 313.791 17.2344 314.268 16.25C314.752 15.2578 315.424 14.4844 316.283 13.9297C317.15 13.3672 318.088 13.0859 319.096 13.0859C320.744 13.0859 322.025 13.6289 322.939 14.7148C323.853 15.8008 324.311 17.3555 324.311 19.3789V20.2812H315.721C315.752 21.5312 316.115 22.543 316.811 23.3164C317.514 24.082 318.404 24.4648 319.482 24.4648C320.248 24.4648 320.896 24.3086 321.428 23.9961C321.959 23.6836 322.424 23.2695 322.822 22.7539L324.146 23.7852C323.084 25.418 321.49 26.2344 319.365 26.2344ZM319.096 14.8672C318.221 14.8672 317.486 15.1875 316.893 15.8281C316.299 16.4609 315.932 17.3516 315.791 18.5H322.143V18.3359C322.08 17.2344 321.783 16.3828 321.252 15.7812C320.721 15.1719 320.002 14.8672 319.096 14.8672ZM332.959 15.2656C332.631 15.2109 332.275 15.1836 331.893 15.1836C330.471 15.1836 329.506 15.7891 328.998 17V26H326.83V13.3203H328.939L328.975 14.7852C329.686 13.6523 330.693 13.0859 331.998 13.0859C332.42 13.0859 332.74 13.1406 332.959 13.25V15.2656Z" fill="black"/>
<path d="M286.471 282.586C286.26 284.391 285.592 285.785 284.467 286.77C283.35 287.746 281.861 288.234 280.002 288.234C277.986 288.234 276.369 287.512 275.15 286.066C273.939 284.621 273.334 282.688 273.334 280.266V278.625C273.334 277.039 273.615 275.645 274.178 274.441C274.748 273.238 275.553 272.316 276.592 271.676C277.631 271.027 278.834 270.703 280.201 270.703C282.014 270.703 283.467 271.211 284.561 272.227C285.654 273.234 286.291 274.633 286.471 276.422H284.209C284.014 275.062 283.588 274.078 282.932 273.469C282.283 272.859 281.373 272.555 280.201 272.555C278.764 272.555 277.635 273.086 276.814 274.148C276.002 275.211 275.596 276.723 275.596 278.684V280.336C275.596 282.188 275.982 283.66 276.756 284.754C277.529 285.848 278.611 286.395 280.002 286.395C281.252 286.395 282.209 286.113 282.873 285.551C283.545 284.98 283.99 283.992 284.209 282.586H286.471ZM291.568 288H289.4V270H291.568V288ZM297.404 288H295.236V275.32H297.404V288ZM295.061 271.957C295.061 271.605 295.166 271.309 295.377 271.066C295.596 270.824 295.916 270.703 296.338 270.703C296.76 270.703 297.08 270.824 297.299 271.066C297.518 271.309 297.627 271.605 297.627 271.957C297.627 272.309 297.518 272.602 297.299 272.836C297.08 273.07 296.76 273.188 296.338 273.188C295.916 273.188 295.596 273.07 295.377 272.836C295.166 272.602 295.061 272.309 295.061 271.957ZM306.146 288.234C304.428 288.234 303.029 287.672 301.951 286.547C300.873 285.414 300.334 283.902 300.334 282.012V281.613C300.334 280.355 300.572 279.234 301.049 278.25C301.533 277.258 302.205 276.484 303.064 275.93C303.932 275.367 304.869 275.086 305.877 275.086C307.525 275.086 308.807 275.629 309.721 276.715C310.635 277.801 311.092 279.355 311.092 281.379V282.281H302.502C302.533 283.531 302.896 284.543 303.592 285.316C304.295 286.082 305.186 286.465 306.264 286.465C307.029 286.465 307.678 286.309 308.209 285.996C308.74 285.684 309.205 285.27 309.603 284.754L310.928 285.785C309.865 287.418 308.271 288.234 306.146 288.234ZM305.877 276.867C305.002 276.867 304.268 277.188 303.674 277.828C303.08 278.461 302.713 279.352 302.572 280.5H308.924V280.336C308.861 279.234 308.564 278.383 308.033 277.781C307.502 277.172 306.783 276.867 305.877 276.867ZM315.662 275.32L315.732 276.914C316.701 275.695 317.967 275.086 319.529 275.086C322.209 275.086 323.561 276.598 323.584 279.621V288H321.416V279.609C321.408 278.695 321.197 278.02 320.783 277.582C320.377 277.145 319.74 276.926 318.873 276.926C318.17 276.926 317.553 277.113 317.021 277.488C316.49 277.863 316.076 278.355 315.779 278.965V288H313.611V275.32H315.662ZM329.795 272.25V275.32H332.162V276.996H329.795V284.859C329.795 285.367 329.9 285.75 330.111 286.008C330.322 286.258 330.682 286.383 331.189 286.383C331.439 286.383 331.783 286.336 332.221 286.242V288C331.65 288.156 331.096 288.234 330.557 288.234C329.588 288.234 328.857 287.941 328.365 287.355C327.873 286.77 327.627 285.938 327.627 284.859V276.996H325.318V275.32H327.627V272.25H329.795Z" fill="black"/>
<path d="M39.3047 153.261H37.1338V157H35.9087V147.758H38.9683C40.0093 147.758 40.8091 147.995 41.3677 148.469C41.9305 148.943 42.2119 149.632 42.2119 150.538C42.2119 151.114 42.0553 151.615 41.7422 152.042C41.4333 152.47 41.0016 152.789 40.4473 153.001L42.6182 156.924V157H41.3105L39.3047 153.261ZM37.1338 152.265H39.0063C39.6115 152.265 40.0918 152.108 40.4473 151.795C40.807 151.482 40.9868 151.063 40.9868 150.538C40.9868 149.967 40.8154 149.529 40.4727 149.224C40.1341 148.919 39.6432 148.765 39 148.761H37.1338V152.265ZM46.5918 157.127C45.6608 157.127 44.9033 156.822 44.3193 156.213C43.7354 155.599 43.4434 154.78 43.4434 153.756V153.541C43.4434 152.859 43.5724 152.252 43.8306 151.719C44.0929 151.181 44.4569 150.762 44.9224 150.462C45.3921 150.157 45.8999 150.005 46.4458 150.005C47.3387 150.005 48.0327 150.299 48.5278 150.887C49.0229 151.475 49.2705 152.318 49.2705 153.414V153.902H44.6177C44.6346 154.579 44.8314 155.127 45.208 155.546C45.5889 155.961 46.0713 156.168 46.6553 156.168C47.07 156.168 47.4212 156.084 47.709 155.915C47.9967 155.745 48.2485 155.521 48.4644 155.242L49.1816 155.8C48.6061 156.685 47.7428 157.127 46.5918 157.127ZM46.4458 150.97C45.9718 150.97 45.5741 151.143 45.2524 151.49C44.9308 151.833 44.7319 152.315 44.6558 152.938H48.0962V152.849C48.0623 152.252 47.9015 151.791 47.6138 151.465C47.326 151.135 46.9367 150.97 46.4458 150.97ZM50.3496 153.509C50.3496 152.43 50.5972 151.577 51.0923 150.951C51.5874 150.32 52.2518 150.005 53.0854 150.005C53.8979 150.005 54.5391 150.278 55.0088 150.824L55.0596 150.132H56.1387V159.641H54.9644V156.365C54.4904 156.873 53.8599 157.127 53.0728 157.127C52.2433 157.127 51.5811 156.805 51.0859 156.162C50.5951 155.515 50.3496 154.658 50.3496 153.591V153.509ZM51.5239 153.642C51.5239 154.429 51.689 155.047 52.019 155.496C52.3534 155.944 52.8019 156.168 53.3647 156.168C54.063 156.168 54.5962 155.86 54.9644 155.242V151.877C54.592 151.272 54.063 150.97 53.3774 150.97C52.8104 150.97 52.3597 151.196 52.0254 151.649C51.6911 152.097 51.5239 152.762 51.5239 153.642ZM62.2642 156.321C61.8071 156.858 61.1364 157.127 60.252 157.127C59.5199 157.127 58.9613 156.915 58.5762 156.492C58.1953 156.065 58.0028 155.434 57.9985 154.601V150.132H59.1729V154.569C59.1729 155.61 59.596 156.13 60.4424 156.13C61.3395 156.13 61.9362 155.796 62.2324 155.127V150.132H63.4067V157H62.2896L62.2642 156.321ZM68.0469 157.127C67.1159 157.127 66.3584 156.822 65.7744 156.213C65.1904 155.599 64.8984 154.78 64.8984 153.756V153.541C64.8984 152.859 65.0275 152.252 65.2856 151.719C65.548 151.181 65.9119 150.762 66.3774 150.462C66.8472 150.157 67.355 150.005 67.9009 150.005C68.7938 150.005 69.4878 150.299 69.9829 150.887C70.478 151.475 70.7256 152.318 70.7256 153.414V153.902H66.0728C66.0897 154.579 66.2865 155.127 66.6631 155.546C67.0439 155.961 67.5264 156.168 68.1104 156.168C68.5251 156.168 68.8763 156.084 69.1641 155.915C69.4518 155.745 69.7036 155.521 69.9194 155.242L70.6367 155.8C70.0612 156.685 69.1979 157.127 68.0469 157.127ZM67.9009 150.97C67.4269 150.97 67.0291 151.143 66.7075 151.49C66.3859 151.833 66.187 152.315 66.1108 152.938H69.5513V152.849C69.5174 152.252 69.3566 151.791 69.0688 151.465C68.7811 151.135 68.3918 150.97 67.9009 150.97ZM76.0894 155.178C76.0894 154.861 75.9688 154.615 75.7275 154.442C75.4906 154.264 75.0737 154.112 74.4771 153.985C73.8846 153.858 73.4128 153.706 73.0615 153.528C72.7145 153.35 72.4564 153.139 72.2871 152.893C72.1221 152.648 72.0396 152.356 72.0396 152.017C72.0396 151.454 72.2765 150.978 72.7505 150.589C73.2287 150.2 73.8381 150.005 74.5786 150.005C75.3573 150.005 75.9878 150.206 76.4702 150.608C76.9569 151.01 77.2002 151.524 77.2002 152.15H76.0195C76.0195 151.829 75.882 151.552 75.6069 151.319C75.3361 151.086 74.9933 150.97 74.5786 150.97C74.1512 150.97 73.8169 151.063 73.5757 151.249C73.3345 151.435 73.2139 151.679 73.2139 151.979C73.2139 152.263 73.326 152.476 73.5503 152.62C73.7746 152.764 74.1787 152.902 74.7627 153.033C75.3509 153.164 75.827 153.32 76.1909 153.502C76.5549 153.684 76.8236 153.904 76.9971 154.163C77.1748 154.417 77.2637 154.728 77.2637 155.096C77.2637 155.709 77.0182 156.202 76.5273 156.575C76.0365 156.943 75.3996 157.127 74.6167 157.127C74.0666 157.127 73.5799 157.03 73.1567 156.835C72.7336 156.64 72.4014 156.369 72.1602 156.022C71.9232 155.671 71.8047 155.292 71.8047 154.886H72.979C73.0002 155.28 73.1567 155.593 73.4487 155.826C73.745 156.054 74.1343 156.168 74.6167 156.168C75.061 156.168 75.4165 156.08 75.6831 155.902C75.9539 155.72 76.0894 155.479 76.0894 155.178ZM80.3867 148.469V150.132H81.6689V151.04H80.3867V155.299C80.3867 155.574 80.4438 155.781 80.5581 155.921C80.6724 156.056 80.867 156.124 81.1421 156.124C81.2775 156.124 81.4637 156.099 81.7007 156.048V157C81.3918 157.085 81.0913 157.127 80.7993 157.127C80.2746 157.127 79.8789 156.968 79.6123 156.651C79.3457 156.333 79.2124 155.883 79.2124 155.299V151.04H77.9619V150.132H79.2124V148.469H80.3867Z" fill="black"/>
<path d="M140.419 153.261H138.248V157H137.023V147.758H140.082C141.124 147.758 141.923 147.995 142.482 148.469C143.045 148.943 143.326 149.632 143.326 150.538C143.326 151.114 143.17 151.615 142.856 152.042C142.547 152.47 142.116 152.789 141.561 153.001L143.732 156.924V157H142.425L140.419 153.261ZM138.248 152.265H140.121C140.726 152.265 141.206 152.108 141.561 151.795C141.921 151.482 142.101 151.063 142.101 150.538C142.101 149.967 141.93 149.529 141.587 149.224C141.248 148.919 140.757 148.765 140.114 148.761H138.248V152.265ZM147.706 157.127C146.775 157.127 146.018 156.822 145.434 156.213C144.85 155.599 144.558 154.78 144.558 153.756V153.541C144.558 152.859 144.687 152.252 144.945 151.719C145.207 151.181 145.571 150.762 146.037 150.462C146.506 150.157 147.014 150.005 147.56 150.005C148.453 150.005 149.147 150.299 149.642 150.887C150.137 151.475 150.385 152.318 150.385 153.414V153.902H145.732C145.749 154.579 145.946 155.127 146.322 155.546C146.703 155.961 147.186 156.168 147.77 156.168C148.184 156.168 148.535 156.084 148.823 155.915C149.111 155.745 149.363 155.521 149.579 155.242L150.296 155.8C149.72 156.685 148.857 157.127 147.706 157.127ZM147.56 150.97C147.086 150.97 146.688 151.143 146.367 151.49C146.045 151.833 145.846 152.315 145.77 152.938H149.21V152.849C149.177 152.252 149.016 151.791 148.728 151.465C148.44 151.135 148.051 150.97 147.56 150.97ZM155.749 155.178C155.749 154.861 155.628 154.615 155.387 154.442C155.15 154.264 154.733 154.112 154.136 153.985C153.544 153.858 153.072 153.706 152.721 153.528C152.374 153.35 152.116 153.139 151.946 152.893C151.781 152.648 151.699 152.356 151.699 152.017C151.699 151.454 151.936 150.978 152.41 150.589C152.888 150.2 153.497 150.005 154.238 150.005C155.016 150.005 155.647 150.206 156.129 150.608C156.616 151.01 156.859 151.524 156.859 152.15H155.679C155.679 151.829 155.541 151.552 155.266 151.319C154.995 151.086 154.652 150.97 154.238 150.97C153.81 150.97 153.476 151.063 153.235 151.249C152.994 151.435 152.873 151.679 152.873 151.979C152.873 152.263 152.985 152.476 153.209 152.62C153.434 152.764 153.838 152.902 154.422 153.033C155.01 153.164 155.486 153.32 155.85 153.502C156.214 153.684 156.483 153.904 156.656 154.163C156.834 154.417 156.923 154.728 156.923 155.096C156.923 155.709 156.677 156.202 156.186 156.575C155.696 156.943 155.059 157.127 154.276 157.127C153.726 157.127 153.239 157.03 152.816 156.835C152.393 156.64 152.061 156.369 151.819 156.022C151.582 155.671 151.464 155.292 151.464 154.886H152.638C152.659 155.28 152.816 155.593 153.108 155.826C153.404 156.054 153.793 156.168 154.276 156.168C154.72 156.168 155.076 156.08 155.342 155.902C155.613 155.72 155.749 155.479 155.749 155.178ZM164.254 153.642C164.254 154.687 164.015 155.529 163.537 156.168C163.059 156.807 162.411 157.127 161.595 157.127C160.761 157.127 160.105 156.862 159.627 156.333V159.641H158.453V150.132H159.525L159.582 150.894C160.061 150.301 160.725 150.005 161.576 150.005C162.401 150.005 163.053 150.316 163.531 150.938C164.013 151.56 164.254 152.425 164.254 153.534V153.642ZM163.08 153.509C163.08 152.734 162.915 152.123 162.585 151.674C162.255 151.226 161.802 151.001 161.227 151.001C160.516 151.001 159.982 151.317 159.627 151.947V155.229C159.978 155.855 160.516 156.168 161.239 156.168C161.802 156.168 162.249 155.946 162.579 155.502C162.913 155.053 163.08 154.389 163.08 153.509ZM165.441 153.502C165.441 152.83 165.573 152.224 165.835 151.687C166.102 151.15 166.47 150.735 166.939 150.443C167.413 150.151 167.953 150.005 168.558 150.005C169.493 150.005 170.249 150.329 170.824 150.976C171.404 151.624 171.694 152.485 171.694 153.56V153.642C171.694 154.311 171.565 154.912 171.307 155.445C171.053 155.974 170.687 156.386 170.208 156.683C169.735 156.979 169.189 157.127 168.571 157.127C167.64 157.127 166.884 156.803 166.305 156.156C165.729 155.508 165.441 154.651 165.441 153.585V153.502ZM166.622 153.642C166.622 154.404 166.798 155.015 167.149 155.477C167.504 155.938 167.978 156.168 168.571 156.168C169.167 156.168 169.641 155.936 169.993 155.47C170.344 155 170.52 154.345 170.52 153.502C170.52 152.749 170.34 152.14 169.98 151.674C169.624 151.205 169.151 150.97 168.558 150.97C167.978 150.97 167.511 151.2 167.155 151.662C166.8 152.123 166.622 152.783 166.622 153.642ZM174.277 150.132L174.315 150.995C174.84 150.335 175.526 150.005 176.372 150.005C177.824 150.005 178.556 150.824 178.568 152.461V157H177.394V152.455C177.39 151.96 177.276 151.594 177.051 151.357C176.831 151.12 176.486 151.001 176.017 151.001C175.636 151.001 175.301 151.103 175.014 151.306C174.726 151.509 174.502 151.776 174.341 152.106V157H173.166V150.132H174.277ZM184.338 155.178C184.338 154.861 184.218 154.615 183.977 154.442C183.74 154.264 183.323 154.112 182.726 153.985C182.134 153.858 181.662 153.706 181.311 153.528C180.964 153.35 180.705 153.139 180.536 152.893C180.371 152.648 180.289 152.356 180.289 152.017C180.289 151.454 180.526 150.978 180.999 150.589C181.478 150.2 182.087 150.005 182.828 150.005C183.606 150.005 184.237 150.206 184.719 150.608C185.206 151.01 185.449 151.524 185.449 152.15H184.269C184.269 151.829 184.131 151.552 183.856 151.319C183.585 151.086 183.242 150.97 182.828 150.97C182.4 150.97 182.066 151.063 181.825 151.249C181.583 151.435 181.463 151.679 181.463 151.979C181.463 152.263 181.575 152.476 181.799 152.62C182.024 152.764 182.428 152.902 183.012 153.033C183.6 153.164 184.076 153.32 184.44 153.502C184.804 153.684 185.073 153.904 185.246 154.163C185.424 154.417 185.513 154.728 185.513 155.096C185.513 155.709 185.267 156.202 184.776 156.575C184.285 156.943 183.649 157.127 182.866 157.127C182.316 157.127 181.829 157.03 181.406 156.835C180.983 156.64 180.65 156.369 180.409 156.022C180.172 155.671 180.054 155.292 180.054 154.886H181.228C181.249 155.28 181.406 155.593 181.698 155.826C181.994 156.054 182.383 156.168 182.866 156.168C183.31 156.168 183.665 156.08 183.932 155.902C184.203 155.72 184.338 155.479 184.338 155.178ZM189.893 157.127C188.962 157.127 188.204 156.822 187.62 156.213C187.036 155.599 186.744 154.78 186.744 153.756V153.541C186.744 152.859 186.873 152.252 187.131 151.719C187.394 151.181 187.758 150.762 188.223 150.462C188.693 150.157 189.201 150.005 189.747 150.005C190.639 150.005 191.333 150.299 191.829 150.887C192.324 151.475 192.571 152.318 192.571 153.414V153.902H187.918C187.935 154.579 188.132 155.127 188.509 155.546C188.89 155.961 189.372 156.168 189.956 156.168C190.371 156.168 190.722 156.084 191.01 155.915C191.297 155.745 191.549 155.521 191.765 155.242L192.482 155.8C191.907 156.685 191.044 157.127 189.893 157.127ZM189.747 150.97C189.273 150.97 188.875 151.143 188.553 151.49C188.232 151.833 188.033 152.315 187.957 152.938H191.397V152.849C191.363 152.252 191.202 151.791 190.915 151.465C190.627 151.135 190.237 150.97 189.747 150.97Z" fill="#FF0000"/>
<path d="M481.707 49.3073C481.317 48.9167 480.683 48.9167 480.293 49.3073L473.929 55.6712C473.538 56.0617 473.538 56.6949 473.929 57.0854C474.319 57.476 474.953 57.476 475.343 57.0854L481 51.4286L486.657 57.0854C487.047 57.476 487.681 57.476 488.071 57.0854C488.462 56.6949 488.462 56.0617 488.071 55.6712L481.707 49.3073ZM482 249L482 50.0144H480L480 249H482Z" fill="black"/>
<path d="M504.293 248.693C504.683 249.083 505.317 249.083 505.707 248.693L512.071 242.329C512.462 241.938 512.462 241.305 512.071 240.915C511.681 240.524 511.047 240.524 510.657 240.915L505 246.571L499.343 240.915C498.953 240.524 498.319 240.524 497.929 240.915C497.538 241.305 497.538 241.938 497.929 242.329L504.293 248.693ZM504 49L504 247.986H506L506 49H504Z" fill="#FF0000"/>
<path d="M99.709 48.3124C99.3185 47.9219 98.6853 47.9219 98.2948 48.3124L91.9309 54.6764C91.5403 55.0669 91.5403 55.7001 91.9309 56.0906C92.3214 56.4811 92.9545 56.4811 93.3451 56.0906L99.0019 50.4337L104.659 56.0906C105.049 56.4811 105.682 56.4811 106.073 56.0906C106.464 55.7001 106.464 55.0669 106.073 54.6764L99.709 48.3124ZM100.002 249.02L100.002 49.0195H98.0019L98.0019 249.02H100.002Z" fill="black"/>
<path d="M121.295 248.707C121.685 249.098 122.319 249.098 122.709 248.707L129.073 242.343C129.464 241.953 129.464 241.319 129.073 240.929C128.682 240.538 128.049 240.538 127.659 240.929L122.002 246.586L116.345 240.929C115.955 240.538 115.321 240.538 114.931 240.929C114.54 241.319 114.54 241.953 114.931 242.343L121.295 248.707ZM121.002 48L121.002 248H123.002L123.002 48H121.002Z" fill="#FF0000"/>
<path d="M282.709 48.3124C282.319 47.9219 281.685 47.9219 281.295 48.3124L274.931 54.6764C274.54 55.0669 274.54 55.7001 274.931 56.0906C275.321 56.4811 275.955 56.4811 276.345 56.0906L282.002 50.4337L287.659 56.0906C288.049 56.4811 288.682 56.4811 289.073 56.0906C289.464 55.7001 289.464 55.0669 289.073 54.6764L282.709 48.3124ZM283.002 249.02L283.002 49.0195H281.002L281.002 249.02H283.002Z" fill="black"/>
<path d="M304.295 248.707C304.685 249.098 305.319 249.098 305.709 248.707L312.073 242.343C312.464 241.953 312.464 241.319 312.073 240.929C311.682 240.538 311.049 240.538 310.659 240.929L305.002 246.586L299.345 240.929C298.955 240.538 298.321 240.538 297.931 240.929C297.54 241.319 297.54 241.953 297.931 242.343L304.295 248.707ZM304.002 48V248H306.002V48H304.002Z" fill="#FF0000"/>
<path d="M348.709 48.3124C348.319 47.9219 347.685 47.9219 347.295 48.3124L340.931 54.6764C340.54 55.0669 340.54 55.7001 340.931 56.0906C341.321 56.4811 341.955 56.4811 342.345 56.0906L348.002 50.4337L353.659 56.0906C354.049 56.4811 354.682 56.4811 355.073 56.0906C355.464 55.7001 355.464 55.0669 355.073 54.6764L348.709 48.3124ZM349.002 249.02L349.002 49.0195H347.002L347.002 249.02H349.002Z" fill="black"/>
<path d="M370.295 248.707C370.685 249.098 371.319 249.098 371.709 248.707L378.073 242.343C378.464 241.953 378.464 241.319 378.073 240.929C377.682 240.538 377.049 240.538 376.659 240.929L371.002 246.586L365.345 240.929C364.955 240.538 364.321 240.538 363.931 240.929C363.54 241.319 363.54 241.953 363.931 242.343L370.295 248.707ZM370.002 48V248H372.002V48H370.002Z" fill="#FF0000"/>
<path d="M414.709 48.3124C414.319 47.9219 413.685 47.9219 413.295 48.3124L406.931 54.6764C406.54 55.0669 406.54 55.7001 406.931 56.0906C407.321 56.4811 407.955 56.4811 408.345 56.0906L414.002 50.4337L419.659 56.0906C420.049 56.4811 420.682 56.4811 421.073 56.0906C421.464 55.7001 421.464 55.0669 421.073 54.6764L414.709 48.3124ZM415.002 249.02L415.002 49.0195H413.002L413.002 249.02H415.002Z" fill="black"/>
<path d="M436.295 248.707C436.685 249.098 437.319 249.098 437.709 248.707L444.073 242.343C444.464 241.953 444.464 241.319 444.073 240.929C443.682 240.538 443.049 240.538 442.659 240.929L437.002 246.586L431.345 240.929C430.955 240.538 430.321 240.538 429.931 240.929C429.54 241.319 429.54 241.953 429.931 242.343L436.295 248.707ZM436.002 48V248H438.002V48H436.002Z" fill="#FF0000"/>
<path d="M216.709 48.3124C216.319 47.9219 215.685 47.9219 215.295 48.3124L208.931 54.6764C208.54 55.0669 208.54 55.7001 208.931 56.0906C209.321 56.4811 209.955 56.4811 210.345 56.0906L216.002 50.4337L221.659 56.0906C222.049 56.4811 222.682 56.4811 223.073 56.0906C223.464 55.7001 223.464 55.0669 223.073 54.6764L216.709 48.3124ZM217.002 249.02L217.002 49.0195H215.002L215.002 249.02H217.002Z" fill="black"/>
<path d="M238.295 248.707C238.685 249.098 239.319 249.098 239.709 248.707L246.073 242.343C246.464 241.953 246.464 241.319 246.073 240.929C245.682 240.538 245.049 240.538 244.659 240.929L239.002 246.586L233.345 240.929C232.955 240.538 232.321 240.538 231.931 240.929C231.54 241.319 231.54 241.953 231.931 242.343L238.295 248.707ZM238.002 48L238.002 248H240.002L240.002 48H238.002Z" fill="#FF0000"/>
<path d="M571.065 251.061C571.65 250.475 571.65 249.525 571.065 248.939L561.519 239.393C560.933 238.808 559.983 238.808 559.397 239.393C558.811 239.979 558.811 240.929 559.397 241.515L567.883 250L559.397 258.485C558.811 259.071 558.811 260.021 559.397 260.607C559.983 261.192 560.933 261.192 561.519 260.607L571.065 251.061ZM51 251.5H570.004V248.5H51V251.5Z" fill="black"/>
<path d="M30 47H549.004" stroke="black" stroke-width="3"/>
</svg>
