<svg width="600" height="300" viewBox="0 0 600 300" fill="none" xmlns="http://www.w3.org/2000/svg">
<rect width="600" height="300" fill="white"/>
<rect x="406.5" y="99.5" width="159" height="159" rx="3.5" fill="white" stroke="black"/>
<rect x="246.5" y="111.5" width="79" height="79" rx="3.5" fill="white" stroke="black"/>
<path d="M277.434 151.586C277.223 153.391 276.555 154.785 275.43 155.77C274.312 156.746 272.824 157.234 270.965 157.234C268.949 157.234 267.332 156.512 266.113 155.066C264.902 153.621 264.297 151.688 264.297 149.266V147.625C264.297 146.039 264.578 144.645 265.141 143.441C265.711 142.238 266.516 141.316 267.555 140.676C268.594 140.027 269.797 139.703 271.164 139.703C272.977 139.703 274.43 140.211 275.523 141.227C276.617 142.234 277.254 143.633 277.434 145.422H275.172C274.977 144.062 274.551 143.078 273.895 142.469C273.246 141.859 272.336 141.555 271.164 141.555C269.727 141.555 268.598 142.086 267.777 143.148C266.965 144.211 266.559 145.723 266.559 147.684V149.336C266.559 151.188 266.945 152.66 267.719 153.754C268.492 154.848 269.574 155.395 270.965 155.395C272.215 155.395 273.172 155.113 273.836 154.551C274.508 153.98 274.953 152.992 275.172 151.586H277.434ZM279.719 152.418C279.719 151.598 279.945 150.844 280.398 150.156C280.859 149.469 281.734 148.668 283.023 147.754C282.266 146.832 281.758 146.09 281.5 145.527C281.242 144.965 281.113 144.406 281.113 143.852C281.113 142.555 281.496 141.539 282.262 140.805C283.027 140.07 284.066 139.703 285.379 139.703C286.551 139.703 287.52 140.047 288.285 140.734C289.051 141.414 289.434 142.273 289.434 143.312C289.434 144 289.258 144.637 288.906 145.223C288.562 145.801 287.957 146.41 287.09 147.051L285.836 147.977L289.633 152.512C290.164 151.496 290.43 150.367 290.43 149.125H292.387C292.387 151.117 291.906 152.77 290.945 154.082L293.383 157H290.781L289.645 155.652C289.066 156.168 288.387 156.562 287.605 156.836C286.832 157.102 286.043 157.234 285.238 157.234C283.574 157.234 282.238 156.793 281.23 155.91C280.223 155.027 279.719 153.863 279.719 152.418ZM285.238 155.465C286.387 155.465 287.438 155.027 288.391 154.152L284.23 149.172L283.844 149.453C282.539 150.414 281.887 151.402 281.887 152.418C281.887 153.34 282.184 154.078 282.777 154.633C283.379 155.188 284.199 155.465 285.238 155.465ZM283.281 143.781C283.281 144.531 283.742 145.469 284.664 146.594L286.047 145.621C286.578 145.246 286.941 144.891 287.137 144.555C287.332 144.211 287.43 143.797 287.43 143.312C287.43 142.789 287.234 142.355 286.844 142.012C286.453 141.66 285.961 141.484 285.367 141.484C284.727 141.484 284.219 141.703 283.844 142.141C283.469 142.57 283.281 143.117 283.281 143.781ZM307.996 151.586C307.785 153.391 307.117 154.785 305.992 155.77C304.875 156.746 303.387 157.234 301.527 157.234C299.512 157.234 297.895 156.512 296.676 155.066C295.465 153.621 294.859 151.688 294.859 149.266V147.625C294.859 146.039 295.141 144.645 295.703 143.441C296.273 142.238 297.078 141.316 298.117 140.676C299.156 140.027 300.359 139.703 301.727 139.703C303.539 139.703 304.992 140.211 306.086 141.227C307.18 142.234 307.816 143.633 307.996 145.422H305.734C305.539 144.062 305.113 143.078 304.457 142.469C303.809 141.859 302.898 141.555 301.727 141.555C300.289 141.555 299.16 142.086 298.34 143.148C297.527 144.211 297.121 145.723 297.121 147.684V149.336C297.121 151.188 297.508 152.66 298.281 153.754C299.055 154.848 300.137 155.395 301.527 155.395C302.777 155.395 303.734 155.113 304.398 154.551C305.07 153.98 305.516 152.992 305.734 151.586H307.996Z" fill="black"/>
<path d="M196.677 94.9395C196.519 96.293 196.018 97.3389 195.174 98.0771C194.336 98.8096 193.22 99.1758 191.825 99.1758C190.313 99.1758 189.101 98.6338 188.187 97.5498C187.278 96.4658 186.824 95.0156 186.824 93.1992V91.9688C186.824 90.7793 187.035 89.7334 187.457 88.8311C187.885 87.9287 188.488 87.2373 189.268 86.7568C190.047 86.2705 190.949 86.0273 191.975 86.0273C193.334 86.0273 194.424 86.4082 195.244 87.1699C196.064 87.9258 196.542 88.9746 196.677 90.3164H194.98C194.834 89.2969 194.515 88.5586 194.022 88.1016C193.536 87.6445 192.854 87.416 191.975 87.416C190.896 87.416 190.05 87.8145 189.435 88.6113C188.825 89.4082 188.521 90.542 188.521 92.0127V93.252C188.521 94.6406 188.811 95.7451 189.391 96.5654C189.971 97.3857 190.782 97.7959 191.825 97.7959C192.763 97.7959 193.48 97.585 193.979 97.1631C194.482 96.7354 194.816 95.9941 194.98 94.9395H196.677ZM198.303 94.1572C198.303 93.2256 198.484 92.3877 198.848 91.6436C199.217 90.8994 199.727 90.3252 200.377 89.9209C201.033 89.5166 201.78 89.3145 202.618 89.3145C203.913 89.3145 204.959 89.7627 205.756 90.6592C206.559 91.5557 206.96 92.748 206.96 94.2363V94.3506C206.96 95.2764 206.781 96.1084 206.424 96.8467C206.072 97.5791 205.565 98.1504 204.903 98.5605C204.247 98.9707 203.491 99.1758 202.636 99.1758C201.347 99.1758 200.301 98.7275 199.498 97.8311C198.701 96.9346 198.303 95.748 198.303 94.2715V94.1572ZM199.938 94.3506C199.938 95.4053 200.181 96.252 200.667 96.8906C201.159 97.5293 201.815 97.8486 202.636 97.8486C203.462 97.8486 204.118 97.5264 204.604 96.8818C205.091 96.2314 205.334 95.3232 205.334 94.1572C205.334 93.1143 205.085 92.2705 204.587 91.626C204.095 90.9756 203.438 90.6504 202.618 90.6504C201.815 90.6504 201.168 90.9697 200.676 91.6084C200.184 92.2471 199.938 93.1611 199.938 94.3506ZM210.528 89.4902L210.572 90.5449C211.27 89.7246 212.21 89.3145 213.394 89.3145C214.724 89.3145 215.629 89.8242 216.109 90.8438C216.426 90.3867 216.836 90.0176 217.34 89.7363C217.85 89.4551 218.45 89.3145 219.142 89.3145C221.228 89.3145 222.288 90.4189 222.323 92.6279V99H220.697V92.7246C220.697 92.0449 220.542 91.5381 220.231 91.2041C219.921 90.8643 219.399 90.6943 218.667 90.6943C218.063 90.6943 217.562 90.876 217.164 91.2393C216.766 91.5967 216.534 92.0801 216.47 92.6895V99H214.835V92.7686C214.835 91.3857 214.158 90.6943 212.805 90.6943C211.738 90.6943 211.009 91.1484 210.616 92.0566V99H208.99V89.4902H210.528ZM226.313 89.4902L226.357 90.5449C227.055 89.7246 227.995 89.3145 229.179 89.3145C230.509 89.3145 231.414 89.8242 231.895 90.8438C232.211 90.3867 232.621 90.0176 233.125 89.7363C233.635 89.4551 234.235 89.3145 234.927 89.3145C237.013 89.3145 238.073 90.4189 238.108 92.6279V99H236.482V92.7246C236.482 92.0449 236.327 91.5381 236.017 91.2041C235.706 90.8643 235.185 90.6943 234.452 90.6943C233.849 90.6943 233.348 90.876 232.949 91.2393C232.551 91.5967 232.319 92.0801 232.255 92.6895V99H230.62V92.7686C230.62 91.3857 229.943 90.6943 228.59 90.6943C227.523 90.6943 226.794 91.1484 226.401 92.0566V99H224.775V89.4902H226.313ZM246.44 99C246.347 98.8125 246.271 98.4785 246.212 97.998C245.456 98.7832 244.554 99.1758 243.505 99.1758C242.567 99.1758 241.797 98.9121 241.193 98.3848C240.596 97.8516 240.297 97.1777 240.297 96.3633C240.297 95.373 240.672 94.6055 241.422 94.0605C242.178 93.5098 243.238 93.2344 244.604 93.2344H246.186V92.4873C246.186 91.9189 246.016 91.4678 245.676 91.1338C245.336 90.7939 244.835 90.624 244.173 90.624C243.593 90.624 243.106 90.7705 242.714 91.0635C242.321 91.3564 242.125 91.7109 242.125 92.127H240.49C240.49 91.6523 240.657 91.1953 240.991 90.7559C241.331 90.3105 241.788 89.959 242.362 89.7012C242.942 89.4434 243.578 89.3145 244.27 89.3145C245.365 89.3145 246.224 89.5898 246.845 90.1406C247.466 90.6855 247.788 91.4385 247.812 92.3994V96.7764C247.812 97.6494 247.923 98.3438 248.146 98.8594V99H246.44ZM243.742 97.7607C244.252 97.7607 244.735 97.6289 245.192 97.3652C245.649 97.1016 245.98 96.7588 246.186 96.3369V94.3857H244.911C242.919 94.3857 241.923 94.9688 241.923 96.1348C241.923 96.6445 242.093 97.043 242.433 97.3301C242.772 97.6172 243.209 97.7607 243.742 97.7607ZM251.898 89.4902L251.951 90.6855C252.678 89.7715 253.627 89.3145 254.799 89.3145C256.809 89.3145 257.822 90.4482 257.84 92.7158V99H256.214V92.707C256.208 92.0215 256.05 91.5146 255.739 91.1865C255.435 90.8584 254.957 90.6943 254.307 90.6943C253.779 90.6943 253.316 90.835 252.918 91.1162C252.52 91.3975 252.209 91.7666 251.986 92.2236V99H250.36V89.4902H251.898ZM259.896 94.166C259.896 92.707 260.242 91.5352 260.934 90.6504C261.625 89.7598 262.53 89.3145 263.649 89.3145C264.763 89.3145 265.645 89.6953 266.295 90.457V85.5H267.921V99H266.427L266.348 97.9805C265.697 98.7773 264.792 99.1758 263.632 99.1758C262.53 99.1758 261.631 98.7246 260.934 97.8223C260.242 96.9199 259.896 95.7422 259.896 94.2891V94.166ZM261.522 94.3506C261.522 95.4287 261.745 96.2725 262.19 96.8818C262.636 97.4912 263.251 97.7959 264.036 97.7959C265.067 97.7959 265.82 97.333 266.295 96.4072V92.0391C265.809 91.1426 265.062 90.6943 264.054 90.6943C263.257 90.6943 262.636 91.002 262.19 91.6172C261.745 92.2324 261.522 93.1436 261.522 94.3506Z" fill="black"/>
<path d="M204.621 209.823H201.615V215H199.919V202.203H204.155C205.597 202.203 206.704 202.531 207.478 203.188C208.257 203.844 208.646 204.799 208.646 206.053C208.646 206.85 208.43 207.544 207.996 208.136C207.568 208.728 206.971 209.17 206.203 209.463L209.209 214.895V215H207.398L204.621 209.823ZM201.615 208.443H204.208C205.046 208.443 205.711 208.227 206.203 207.793C206.701 207.359 206.95 206.779 206.95 206.053C206.95 205.262 206.713 204.655 206.238 204.233C205.77 203.812 205.09 203.598 204.199 203.592H201.615V208.443ZM214.711 215.176C213.422 215.176 212.373 214.754 211.564 213.91C210.756 213.061 210.352 211.927 210.352 210.509V210.21C210.352 209.267 210.53 208.426 210.888 207.688C211.251 206.943 211.755 206.363 212.399 205.947C213.05 205.525 213.753 205.314 214.509 205.314C215.745 205.314 216.706 205.722 217.392 206.536C218.077 207.351 218.42 208.517 218.42 210.034V210.711H211.978C212.001 211.648 212.273 212.407 212.795 212.987C213.322 213.562 213.99 213.849 214.799 213.849C215.373 213.849 215.859 213.731 216.258 213.497C216.656 213.263 217.005 212.952 217.304 212.565L218.297 213.339C217.5 214.563 216.305 215.176 214.711 215.176ZM214.509 206.65C213.853 206.65 213.302 206.891 212.856 207.371C212.411 207.846 212.136 208.514 212.03 209.375H216.794V209.252C216.747 208.426 216.524 207.787 216.126 207.336C215.728 206.879 215.188 206.65 214.509 206.65ZM225.847 212.478C225.847 212.038 225.68 211.698 225.346 211.458C225.018 211.212 224.44 211.001 223.614 210.825C222.794 210.649 222.141 210.438 221.654 210.192C221.174 209.946 220.816 209.653 220.582 209.313C220.354 208.974 220.239 208.569 220.239 208.101C220.239 207.321 220.567 206.662 221.224 206.123C221.886 205.584 222.729 205.314 223.755 205.314C224.833 205.314 225.706 205.593 226.374 206.149C227.048 206.706 227.385 207.418 227.385 208.285H225.75C225.75 207.84 225.56 207.456 225.179 207.134C224.804 206.812 224.329 206.65 223.755 206.65C223.163 206.65 222.7 206.779 222.366 207.037C222.032 207.295 221.865 207.632 221.865 208.048C221.865 208.44 222.021 208.736 222.331 208.936C222.642 209.135 223.201 209.325 224.01 209.507C224.824 209.688 225.483 209.905 225.987 210.157C226.491 210.409 226.863 210.714 227.104 211.071C227.35 211.423 227.473 211.854 227.473 212.363C227.473 213.213 227.133 213.896 226.453 214.411C225.773 214.921 224.892 215.176 223.808 215.176C223.046 215.176 222.372 215.041 221.786 214.771C221.2 214.502 220.74 214.127 220.406 213.646C220.078 213.16 219.914 212.636 219.914 212.073H221.54C221.569 212.618 221.786 213.052 222.19 213.374C222.601 213.69 223.14 213.849 223.808 213.849C224.423 213.849 224.915 213.726 225.284 213.479C225.659 213.228 225.847 212.894 225.847 212.478ZM235.462 214.06C234.829 214.804 233.9 215.176 232.676 215.176C231.662 215.176 230.889 214.883 230.355 214.297C229.828 213.705 229.562 212.832 229.556 211.678V205.49H231.182V211.634C231.182 213.075 231.768 213.796 232.939 213.796C234.182 213.796 235.008 213.333 235.418 212.407V205.49H237.044V215H235.497L235.462 214.06ZM241.289 215H239.663V201.5H241.289V215ZM246.105 203.188V205.49H247.881V206.747H246.105V212.645C246.105 213.025 246.185 213.312 246.343 213.506C246.501 213.693 246.771 213.787 247.151 213.787C247.339 213.787 247.597 213.752 247.925 213.682V215C247.497 215.117 247.081 215.176 246.677 215.176C245.95 215.176 245.402 214.956 245.033 214.517C244.664 214.077 244.479 213.453 244.479 212.645V206.747H242.748V205.49H244.479V203.188H246.105Z" fill="#FF0000"/>
<rect x="446.5" y="159.5" width="79" height="79" rx="3.5" fill="white" stroke="black"/>
<path d="M465.926 202.547H458.777L457.172 207H454.852L461.367 189.938H463.336L469.863 207H467.555L465.926 202.547ZM459.457 200.695H465.258L462.352 192.715L459.457 200.695ZM471.305 200.555C471.305 198.578 471.762 197.008 472.676 195.844C473.59 194.672 474.801 194.086 476.309 194.086C477.855 194.086 479.062 194.633 479.93 195.727L480.035 194.32H482.016V206.695C482.016 208.336 481.527 209.629 480.551 210.574C479.582 211.52 478.277 211.992 476.637 211.992C475.723 211.992 474.828 211.797 473.953 211.406C473.078 211.016 472.41 210.48 471.949 209.801L473.074 208.5C474.004 209.648 475.141 210.223 476.484 210.223C477.539 210.223 478.359 209.926 478.945 209.332C479.539 208.738 479.836 207.902 479.836 206.824V205.734C478.969 206.734 477.785 207.234 476.285 207.234C474.801 207.234 473.598 206.637 472.676 205.441C471.762 204.246 471.305 202.617 471.305 200.555ZM473.484 200.801C473.484 202.23 473.777 203.355 474.363 204.176C474.949 204.988 475.77 205.395 476.824 205.395C478.191 205.395 479.195 204.773 479.836 203.531V197.742C479.172 196.531 478.176 195.926 476.848 195.926C475.793 195.926 474.969 196.336 474.375 197.156C473.781 197.977 473.484 199.191 473.484 200.801ZM490.559 207.234C488.84 207.234 487.441 206.672 486.363 205.547C485.285 204.414 484.746 202.902 484.746 201.012V200.613C484.746 199.355 484.984 198.234 485.461 197.25C485.945 196.258 486.617 195.484 487.477 194.93C488.344 194.367 489.281 194.086 490.289 194.086C491.938 194.086 493.219 194.629 494.133 195.715C495.047 196.801 495.504 198.355 495.504 200.379V201.281H486.914C486.945 202.531 487.309 203.543 488.004 204.316C488.707 205.082 489.598 205.465 490.676 205.465C491.441 205.465 492.09 205.309 492.621 204.996C493.152 204.684 493.617 204.27 494.016 203.754L495.34 204.785C494.277 206.418 492.684 207.234 490.559 207.234ZM490.289 195.867C489.414 195.867 488.68 196.188 488.086 196.828C487.492 197.461 487.125 198.352 486.984 199.5H493.336V199.336C493.273 198.234 492.977 197.383 492.445 196.781C491.914 196.172 491.195 195.867 490.289 195.867ZM500.074 194.32L500.145 195.914C501.113 194.695 502.379 194.086 503.941 194.086C506.621 194.086 507.973 195.598 507.996 198.621V207H505.828V198.609C505.82 197.695 505.609 197.02 505.195 196.582C504.789 196.145 504.152 195.926 503.285 195.926C502.582 195.926 501.965 196.113 501.434 196.488C500.902 196.863 500.488 197.355 500.191 197.965V207H498.023V194.32H500.074ZM514.207 191.25V194.32H516.574V195.996H514.207V203.859C514.207 204.367 514.312 204.75 514.523 205.008C514.734 205.258 515.094 205.383 515.602 205.383C515.852 205.383 516.195 205.336 516.633 205.242V207C516.062 207.156 515.508 207.234 514.969 207.234C514 207.234 513.27 206.941 512.777 206.355C512.285 205.77 512.039 204.938 512.039 203.859V195.996H509.73V194.32H512.039V191.25H514.207Z" fill="black"/>
<rect x="122.5" y="111.5" width="79" height="79" rx="3.5" fill="white" stroke="black"/>
<path d="M145.969 153.586C145.758 155.391 145.09 156.785 143.965 157.77C142.848 158.746 141.359 159.234 139.5 159.234C137.484 159.234 135.867 158.512 134.648 157.066C133.438 155.621 132.832 153.688 132.832 151.266V149.625C132.832 148.039 133.113 146.645 133.676 145.441C134.246 144.238 135.051 143.316 136.09 142.676C137.129 142.027 138.332 141.703 139.699 141.703C141.512 141.703 142.965 142.211 144.059 143.227C145.152 144.234 145.789 145.633 145.969 147.422H143.707C143.512 146.062 143.086 145.078 142.43 144.469C141.781 143.859 140.871 143.555 139.699 143.555C138.262 143.555 137.133 144.086 136.312 145.148C135.5 146.211 135.094 147.723 135.094 149.684V151.336C135.094 153.188 135.48 154.66 136.254 155.754C137.027 156.848 138.109 157.395 139.5 157.395C140.75 157.395 141.707 157.113 142.371 156.551C143.043 155.98 143.488 154.992 143.707 153.586H145.969ZM151.066 159H148.898V141H151.066V159ZM156.902 159H154.734V146.32H156.902V159ZM154.559 142.957C154.559 142.605 154.664 142.309 154.875 142.066C155.094 141.824 155.414 141.703 155.836 141.703C156.258 141.703 156.578 141.824 156.797 142.066C157.016 142.309 157.125 142.605 157.125 142.957C157.125 143.309 157.016 143.602 156.797 143.836C156.578 144.07 156.258 144.188 155.836 144.188C155.414 144.188 155.094 144.07 154.875 143.836C154.664 143.602 154.559 143.309 154.559 142.957ZM165.645 159.234C163.926 159.234 162.527 158.672 161.449 157.547C160.371 156.414 159.832 154.902 159.832 153.012V152.613C159.832 151.355 160.07 150.234 160.547 149.25C161.031 148.258 161.703 147.484 162.562 146.93C163.43 146.367 164.367 146.086 165.375 146.086C167.023 146.086 168.305 146.629 169.219 147.715C170.133 148.801 170.59 150.355 170.59 152.379V153.281H162C162.031 154.531 162.395 155.543 163.09 156.316C163.793 157.082 164.684 157.465 165.762 157.465C166.527 157.465 167.176 157.309 167.707 156.996C168.238 156.684 168.703 156.27 169.102 155.754L170.426 156.785C169.363 158.418 167.77 159.234 165.645 159.234ZM165.375 147.867C164.5 147.867 163.766 148.188 163.172 148.828C162.578 149.461 162.211 150.352 162.07 151.5H168.422V151.336C168.359 150.234 168.062 149.383 167.531 148.781C167 148.172 166.281 147.867 165.375 147.867ZM175.16 146.32L175.23 147.914C176.199 146.695 177.465 146.086 179.027 146.086C181.707 146.086 183.059 147.598 183.082 150.621V159H180.914V150.609C180.906 149.695 180.695 149.02 180.281 148.582C179.875 148.145 179.238 147.926 178.371 147.926C177.668 147.926 177.051 148.113 176.52 148.488C175.988 148.863 175.574 149.355 175.277 149.965V159H173.109V146.32H175.16ZM189.293 143.25V146.32H191.66V147.996H189.293V155.859C189.293 156.367 189.398 156.75 189.609 157.008C189.82 157.258 190.18 157.383 190.688 157.383C190.938 157.383 191.281 157.336 191.719 157.242V159C191.148 159.156 190.594 159.234 190.055 159.234C189.086 159.234 188.355 158.941 187.863 158.355C187.371 157.77 187.125 156.938 187.125 155.859V147.996H184.816V146.32H187.125V143.25H189.293Z" fill="black"/>
<path d="M465.414 119.328H460.094V134H457.152V119.328H451.879V116.938H465.414V119.328ZM472.996 134C472.871 133.758 472.762 133.363 472.668 132.816C471.762 133.762 470.652 134.234 469.34 134.234C468.066 134.234 467.027 133.871 466.223 133.145C465.418 132.418 465.016 131.52 465.016 130.449C465.016 129.098 465.516 128.062 466.516 127.344C467.523 126.617 468.961 126.254 470.828 126.254H472.574V125.422C472.574 124.766 472.391 124.242 472.023 123.852C471.656 123.453 471.098 123.254 470.348 123.254C469.699 123.254 469.168 123.418 468.754 123.746C468.34 124.066 468.133 124.477 468.133 124.977H465.285C465.285 124.281 465.516 123.633 465.977 123.031C466.438 122.422 467.062 121.945 467.852 121.602C468.648 121.258 469.535 121.086 470.512 121.086C471.996 121.086 473.18 121.461 474.062 122.211C474.945 122.953 475.398 124 475.422 125.352V131.07C475.422 132.211 475.582 133.121 475.902 133.801V134H472.996ZM469.867 131.949C470.43 131.949 470.957 131.812 471.449 131.539C471.949 131.266 472.324 130.898 472.574 130.438V128.047H471.039C469.984 128.047 469.191 128.23 468.66 128.598C468.129 128.965 467.863 129.484 467.863 130.156C467.863 130.703 468.043 131.141 468.402 131.469C468.77 131.789 469.258 131.949 469.867 131.949ZM485.043 123.922C484.668 123.859 484.281 123.828 483.883 123.828C482.578 123.828 481.699 124.328 481.246 125.328V134H478.398V121.32H481.117L481.188 122.738C481.875 121.637 482.828 121.086 484.047 121.086C484.453 121.086 484.789 121.141 485.055 121.25L485.043 123.922ZM486.109 127.566C486.109 125.598 486.57 124.027 487.492 122.855C488.422 121.676 489.652 121.086 491.184 121.086C492.629 121.086 493.766 121.59 494.594 122.598L494.723 121.32H497.289V133.613C497.289 135.277 496.77 136.59 495.73 137.551C494.699 138.512 493.305 138.992 491.547 138.992C490.617 138.992 489.707 138.797 488.816 138.406C487.934 138.023 487.262 137.52 486.801 136.895L488.148 135.184C489.023 136.223 490.102 136.742 491.383 136.742C492.328 136.742 493.074 136.484 493.621 135.969C494.168 135.461 494.441 134.711 494.441 133.719V132.863C493.621 133.777 492.527 134.234 491.16 134.234C489.676 134.234 488.461 133.645 487.516 132.465C486.578 131.285 486.109 129.652 486.109 127.566ZM488.945 127.812C488.945 129.086 489.203 130.09 489.719 130.824C490.242 131.551 490.965 131.914 491.887 131.914C493.035 131.914 493.887 131.422 494.441 130.438V124.859C493.902 123.898 493.059 123.418 491.91 123.418C490.973 123.418 490.242 123.789 489.719 124.531C489.203 125.273 488.945 126.367 488.945 127.812ZM505.809 134.234C504.004 134.234 502.539 133.668 501.414 132.535C500.297 131.395 499.738 129.879 499.738 127.988V127.637C499.738 126.371 499.98 125.242 500.465 124.25C500.957 123.25 501.645 122.473 502.527 121.918C503.41 121.363 504.395 121.086 505.48 121.086C507.207 121.086 508.539 121.637 509.477 122.738C510.422 123.84 510.895 125.398 510.895 127.414V128.562H502.609C502.695 129.609 503.043 130.438 503.652 131.047C504.27 131.656 505.043 131.961 505.973 131.961C507.277 131.961 508.34 131.434 509.16 130.379L510.695 131.844C510.188 132.602 509.508 133.191 508.656 133.613C507.812 134.027 506.863 134.234 505.809 134.234ZM505.469 123.371C504.688 123.371 504.055 123.645 503.57 124.191C503.094 124.738 502.789 125.5 502.656 126.477H508.082V126.266C508.02 125.312 507.766 124.594 507.32 124.109C506.875 123.617 506.258 123.371 505.469 123.371ZM516.684 118.238V121.32H518.922V123.43H516.684V130.508C516.684 130.992 516.777 131.344 516.965 131.562C517.16 131.773 517.504 131.879 517.996 131.879C518.324 131.879 518.656 131.84 518.992 131.762V133.965C518.344 134.145 517.719 134.234 517.117 134.234C514.93 134.234 513.836 133.027 513.836 130.613V123.43H511.75V121.32H513.836V118.238H516.684Z" fill="black"/>
<path d="M34.1758 174.02C34.1758 175.691 33.8945 177.152 33.332 178.402C32.7695 179.645 31.9727 180.594 30.9414 181.25C29.9102 181.906 28.707 182.234 27.332 182.234C25.9883 182.234 24.7969 181.906 23.7578 181.25C22.7188 180.586 21.9102 179.645 21.332 178.426C20.7617 177.199 20.4688 175.781 20.4531 174.172V172.941C20.4531 171.301 20.7383 169.852 21.3086 168.594C21.8789 167.336 22.6836 166.375 23.7227 165.711C24.7695 165.039 25.9648 164.703 27.3086 164.703C28.6758 164.703 29.8789 165.035 30.918 165.699C31.9648 166.355 32.7695 167.312 33.332 168.57C33.8945 169.82 34.1758 171.277 34.1758 172.941V174.02ZM31.9375 172.918C31.9375 170.895 31.5312 169.344 30.7188 168.266C29.9062 167.18 28.7695 166.637 27.3086 166.637C25.8867 166.637 24.7656 167.18 23.9453 168.266C23.1328 169.344 22.7148 170.844 22.6914 172.766V174.02C22.6914 175.98 23.1016 177.523 23.9219 178.648C24.75 179.766 25.8867 180.324 27.332 180.324C28.7852 180.324 29.9102 179.797 30.707 178.742C31.5039 177.68 31.9141 176.16 31.9375 174.184V172.918ZM47.9219 175.801C47.9219 177.73 47.4805 179.285 46.5977 180.465C45.7148 181.645 44.5195 182.234 43.0117 182.234C41.4727 182.234 40.2617 181.746 39.3789 180.77V186.875H37.2109V169.32H39.1914L39.2969 170.727C40.1797 169.633 41.4062 169.086 42.9766 169.086C44.5 169.086 45.7031 169.66 46.5859 170.809C47.4766 171.957 47.9219 173.555 47.9219 175.602V175.801ZM45.7539 175.555C45.7539 174.125 45.4492 172.996 44.8398 172.168C44.2305 171.34 43.3945 170.926 42.332 170.926C41.0195 170.926 40.0352 171.508 39.3789 172.672V178.73C40.0273 179.887 41.0195 180.465 42.3555 180.465C43.3945 180.465 44.2188 180.055 44.8281 179.234C45.4453 178.406 45.7539 177.18 45.7539 175.555ZM55.9492 182.234C54.2305 182.234 52.832 181.672 51.7539 180.547C50.6758 179.414 50.1367 177.902 50.1367 176.012V175.613C50.1367 174.355 50.375 173.234 50.8516 172.25C51.3359 171.258 52.0078 170.484 52.8672 169.93C53.7344 169.367 54.6719 169.086 55.6797 169.086C57.3281 169.086 58.6094 169.629 59.5234 170.715C60.4375 171.801 60.8945 173.355 60.8945 175.379V176.281H52.3047C52.3359 177.531 52.6992 178.543 53.3945 179.316C54.0977 180.082 54.9883 180.465 56.0664 180.465C56.832 180.465 57.4805 180.309 58.0117 179.996C58.543 179.684 59.0078 179.27 59.4062 178.754L60.7305 179.785C59.668 181.418 58.0742 182.234 55.9492 182.234ZM55.6797 170.867C54.8047 170.867 54.0703 171.188 53.4766 171.828C52.8828 172.461 52.5156 173.352 52.375 174.5H58.7266V174.336C58.6641 173.234 58.3672 172.383 57.8359 171.781C57.3047 171.172 56.5859 170.867 55.6797 170.867ZM69.543 171.266C69.2148 171.211 68.8594 171.184 68.4766 171.184C67.0547 171.184 66.0898 171.789 65.582 173V182H63.4141V169.32H65.5234L65.5586 170.785C66.2695 169.652 67.2773 169.086 68.582 169.086C69.0039 169.086 69.3242 169.141 69.543 169.25V171.266ZM78.9062 182C78.7812 181.75 78.6797 181.305 78.6016 180.664C77.5938 181.711 76.3906 182.234 74.9922 182.234C73.7422 182.234 72.7148 181.883 71.9102 181.18C71.1133 180.469 70.7148 179.57 70.7148 178.484C70.7148 177.164 71.2148 176.141 72.2148 175.414C73.2227 174.68 74.6367 174.312 76.457 174.312H78.5664V173.316C78.5664 172.559 78.3398 171.957 77.8867 171.512C77.4336 171.059 76.7656 170.832 75.8828 170.832C75.1094 170.832 74.4609 171.027 73.9375 171.418C73.4141 171.809 73.1523 172.281 73.1523 172.836H70.9727C70.9727 172.203 71.1953 171.594 71.6406 171.008C72.0938 170.414 72.7031 169.945 73.4688 169.602C74.2422 169.258 75.0898 169.086 76.0117 169.086C77.4727 169.086 78.6172 169.453 79.4453 170.188C80.2734 170.914 80.7031 171.918 80.7344 173.199V179.035C80.7344 180.199 80.8828 181.125 81.1797 181.812V182H78.9062ZM75.3086 180.348C75.9883 180.348 76.6328 180.172 77.2422 179.82C77.8516 179.469 78.293 179.012 78.5664 178.449V175.848H76.8672C74.2109 175.848 72.8828 176.625 72.8828 178.18C72.8828 178.859 73.1094 179.391 73.5625 179.773C74.0156 180.156 74.5977 180.348 75.3086 180.348ZM87.0742 166.25V169.32H89.4414V170.996H87.0742V178.859C87.0742 179.367 87.1797 179.75 87.3906 180.008C87.6016 180.258 87.9609 180.383 88.4688 180.383C88.7188 180.383 89.0625 180.336 89.5 180.242V182C88.9297 182.156 88.375 182.234 87.8359 182.234C86.8672 182.234 86.1367 181.941 85.6445 181.355C85.1523 180.77 84.9062 179.938 84.9062 178.859V170.996H82.5977V169.32H84.9062V166.25H87.0742ZM91.1758 175.543C91.1758 174.301 91.418 173.184 91.9023 172.191C92.3945 171.199 93.0742 170.434 93.9414 169.895C94.8164 169.355 95.8125 169.086 96.9297 169.086C98.6562 169.086 100.051 169.684 101.113 170.879C102.184 172.074 102.719 173.664 102.719 175.648V175.801C102.719 177.035 102.48 178.145 102.004 179.129C101.535 180.105 100.859 180.867 99.9766 181.414C99.1016 181.961 98.0938 182.234 96.9531 182.234C95.2344 182.234 93.8398 181.637 92.7695 180.441C91.707 179.246 91.1758 177.664 91.1758 175.695V175.543ZM93.3555 175.801C93.3555 177.207 93.6797 178.336 94.3281 179.188C94.9844 180.039 95.8594 180.465 96.9531 180.465C98.0547 180.465 98.9297 180.035 99.5781 179.176C100.227 178.309 100.551 177.098 100.551 175.543C100.551 174.152 100.219 173.027 99.5547 172.168C98.8984 171.301 98.0234 170.867 96.9297 170.867C95.8594 170.867 94.9961 171.293 94.3398 172.145C93.6836 172.996 93.3555 174.215 93.3555 175.801ZM111.566 171.266C111.238 171.211 110.883 171.184 110.5 171.184C109.078 171.184 108.113 171.789 107.605 173V182H105.438V169.32H107.547L107.582 170.785C108.293 169.652 109.301 169.086 110.605 169.086C111.027 169.086 111.348 169.141 111.566 169.25V171.266Z" fill="black"/>
<path d="M85.0523 145.678L84.4336 144.396C84.4369 144.348 84.4393 144.299 84.4393 144.25C84.4393 142.798 82.9288 141.459 80.3875 140.387V141.278C80.1397 141.18 79.8817 141.084 79.6129 140.992V140.576C75.981 139.266 70.5743 138.435 64.5347 138.435C59.258 138.435 54.4638 139.07 50.9145 140.103V141.551H50.9144V139.799C47.2781 140.955 45.0237 142.56 45.0237 144.335C45.0237 144.615 45.0801 144.89 45.1886 145.161L44.8182 145.82C44.8182 145.82 44.5214 146.205 45.0439 147.017C45.5048 147.733 47.8136 150.537 49.0321 152.005C49.5555 152.758 49.9105 153.221 49.9415 153.176C49.9904 153.105 49.616 151.692 48.5766 150.08C48.0915 149.214 47.5124 148.067 47.1646 147.22C48.1353 147.834 53.8382 150.706 65.4707 150.694C77.359 150.682 82.6433 146.961 83.2233 146.454C83.0206 147.268 82.3282 148.916 81.7759 150.074C80.8686 151.731 80.5399 153.173 80.5821 153.244C80.609 153.289 80.9186 152.812 81.3752 152.038C82.4375 150.524 84.4507 147.634 84.853 146.898C85.3088 146.063 85.0523 145.678 85.0523 145.678Z" fill="#A52B00"/>
<path d="M88.646 145.67L84.5801 142.675C84.5419 142.541 84.5038 142.408 84.4643 142.276L85.7998 140.341C85.9361 140.145 85.9636 139.889 85.8751 139.664C85.7864 139.441 85.5925 139.281 85.3632 139.242L83.1051 138.858C83.0175 138.68 82.9258 138.504 82.8338 138.33L83.7826 136.158C83.8801 135.936 83.8597 135.679 83.7302 135.478C83.6012 135.277 83.3824 135.159 83.1492 135.168L80.8573 135.251C80.7387 135.097 80.6182 134.944 80.4952 134.793L81.0219 132.465C81.0753 132.229 81.0078 131.981 80.8432 131.809C80.6795 131.638 80.4415 131.567 80.2153 131.623L77.983 132.172C77.8385 132.044 77.6915 131.918 77.5429 131.794L77.6232 129.404C77.6318 129.162 77.519 128.932 77.3254 128.798C77.1318 128.663 76.8862 128.643 76.6745 128.743L74.5921 129.733C74.4244 129.637 74.2557 129.542 74.0852 129.449L73.7172 127.094C73.6798 126.856 73.5264 126.653 73.3114 126.56C73.0969 126.467 72.8514 126.497 72.6633 126.639L70.8066 128.032C70.6237 127.971 70.44 127.913 70.2542 127.858L69.4539 125.624C69.3726 125.396 69.1849 125.229 68.9561 125.182C68.728 125.136 68.4934 125.215 68.3353 125.391L66.7724 127.14C66.5836 127.118 66.3944 127.098 66.2048 127.082L64.9981 125.048C64.8759 124.843 64.66 124.717 64.4273 124.717C64.1952 124.717 63.9789 124.843 63.8575 125.048L62.6505 127.082C62.4608 127.098 62.2709 127.118 62.0823 127.14L60.5194 125.391C60.361 125.215 60.1256 125.136 59.8982 125.182C59.6697 125.23 59.4817 125.396 59.4008 125.624L58.5999 127.858C58.4143 127.913 58.2307 127.972 58.0475 128.032L56.1914 126.639C56.0027 126.497 55.757 126.467 55.5422 126.56C55.328 126.653 55.1739 126.856 55.1368 127.094L54.7685 129.449C54.5983 129.542 54.4296 129.636 54.2615 129.733L52.1792 128.743C51.9677 128.642 51.7208 128.663 51.5282 128.798C51.3349 128.932 51.2218 129.162 51.2305 129.404L51.3105 131.794C51.1622 131.918 51.0156 132.044 50.8703 132.172L48.6384 131.623C48.4117 131.568 48.174 131.638 48.0099 131.809C47.8448 131.981 47.7779 132.229 47.831 132.465L48.3566 134.793C48.2347 134.944 48.1141 135.097 47.9957 135.251L45.7039 135.168C45.4726 135.161 45.2519 135.277 45.1226 135.478C44.9931 135.679 44.9735 135.936 45.0699 136.158L46.0194 138.33C45.9272 138.504 45.8356 138.68 45.7473 138.858L43.4893 139.242C43.2598 139.28 43.0665 139.44 42.9772 139.664C42.8886 139.889 42.9174 140.145 43.0527 140.341L44.3885 142.276C44.3782 142.31 44.3686 142.345 44.3584 142.379L40.5819 146.391C40.5819 146.391 40.003 146.844 40.8456 147.91C41.5887 148.85 45.4039 152.578 47.4188 154.531C48.2697 155.523 48.8528 156.137 48.9137 156.083C49.0098 155.999 48.5052 154.195 46.829 152.079C45.5368 150.18 43.8598 147.259 44.2531 146.923C44.2531 146.923 44.7004 146.355 45.5978 145.946C45.6307 145.972 45.5639 145.92 45.5978 145.946C45.5978 145.946 64.5374 154.683 82.1056 146.094C84.1125 145.734 85.3275 146.809 85.3275 146.809C85.7464 147.052 84.6615 150.055 83.7693 152.043C82.5559 154.3 82.378 156.062 82.4808 156.123C82.5458 156.161 82.9873 155.49 83.617 154.421C85.1709 152.255 88.1083 148.128 88.646 147.125C89.2555 145.988 88.646 145.67 88.646 145.67Z" fill="#F74C00"/>
<path d="M80.3643 144.549C80.3643 144.549 83.0894 144.423 86.6689 140.785L87.1762 139.658C87.1762 139.658 81.6204 134.132 90.2568 130.317C90.2568 130.317 89.5007 131.553 89.7226 136.327C89.7226 136.327 92.3265 135.422 93.09 131.205C93.09 131.205 96.8882 136.213 88.9648 140.91C88.9648 140.91 85.2475 146.869 80.0071 146.298L80.3643 144.549Z" fill="#F74C00"/>
<path d="M68.0197 141.117C68.0197 141.117 69.9124 139.044 71.8051 141.117C71.8051 141.117 73.2923 143.88 71.8051 145.262C71.8051 145.262 69.3717 147.196 68.0197 145.262C68.0197 145.262 66.3974 143.742 68.0197 141.117Z" fill="black"/>
<path d="M70.2115 141.886C70.2115 142.693 69.7359 143.347 69.1491 143.347C68.5625 143.347 68.0868 142.693 68.0868 141.886C68.0868 141.079 68.5625 140.424 69.1491 140.424C69.7359 140.424 70.2115 141.079 70.2115 141.886Z" fill="white"/>
<path d="M59.5721 140.55C59.5721 140.55 62.8186 139.113 63.7048 142.321C63.7048 142.321 64.633 146.061 61.0386 146.272C61.0386 146.272 56.4551 145.39 59.5721 140.55Z" fill="black"/>
<path d="M61.2027 141.939C61.2027 142.771 60.7122 143.446 60.1071 143.446C59.5022 143.446 59.0115 142.771 59.0115 141.939C59.0115 141.107 59.5022 140.432 60.1071 140.432C60.7122 140.432 61.2027 141.107 61.2027 141.939Z" fill="white"/>
<path d="M63.7331 147.58L67.8734 147.248C67.8734 147.248 67.7331 147.914 67.1929 148.415C67.1929 148.415 65.7688 149.976 64.135 148.285C64.135 148.285 63.8677 147.996 63.7331 147.58Z" fill="black"/>
<path d="M47.1538 143.747C47.1196 143.747 47.0861 143.75 47.0527 143.752C45.7083 143.446 41.9296 142.462 40.9308 140.864C40.9308 140.864 46.0156 135.08 38.0683 131.383L38.9937 137.782C38.9937 137.782 36.5437 136.145 36.015 132.589C36.015 132.589 30.049 136.919 38.6482 141.068C38.6482 141.068 39.4281 143.999 46.9164 146.337L46.9218 146.315C46.9972 146.329 47.0744 146.337 47.1538 146.337C47.8613 146.337 48.435 145.757 48.435 145.042C48.435 144.327 47.8613 143.747 47.1538 143.747Z" fill="#F74C00"/>
<path d="M78.8314 138.015C81.62 134.415 95.908 124.591 84.488 128.107C84.488 128.107 82.6109 128.608 81.6597 128.524C79.2244 128.311 77.5375 126.578 76.4747 124.77C75.136 122.492 74.2274 120.211 72.1143 118.408C68.406 115.244 60.5761 115.152 56.3938 118.408C54.1871 120.126 53.3721 122.492 52.0336 124.77C50.9708 126.578 49.2838 128.311 46.8484 128.524C45.8973 128.608 44.0201 128.107 44.0201 128.107C32.6002 124.591 46.8881 134.415 49.6767 138.015C59.395 135.711 69.1133 135.87 78.8314 138.015Z" fill="black"/>
<path d="M68.5805 126.19C68.5805 128.292 66.6547 129.996 64.2791 129.996C61.9036 129.996 59.9778 128.292 59.9778 126.19C59.9778 124.087 61.9036 122.383 64.2791 122.383C66.6547 122.383 68.5805 124.087 68.5805 126.19Z" fill="white"/>
<path d="M67.4074 129.947C67.4074 131.476 66.0068 132.715 64.2791 132.715C62.5514 132.715 61.1509 131.476 61.1509 129.947C61.1509 128.418 62.5514 127.178 64.2791 127.178C66.0068 127.178 67.4074 128.418 67.4074 129.947Z" fill="white"/>
<path d="M63.9663 126.19C63.9663 126.954 63.266 127.574 62.4022 127.574C61.5383 127.574 60.838 126.954 60.838 126.19C60.838 125.425 61.5383 124.805 62.4022 124.805C63.266 124.805 63.9663 125.425 63.9663 126.19Z" fill="black"/>
<path d="M67.7202 126.19C67.7202 126.954 67.0199 127.574 66.156 127.574C65.2922 127.574 64.5919 126.954 64.5919 126.19C64.5919 125.425 65.2922 124.805 66.156 124.805C67.0199 124.805 67.7202 125.425 67.7202 126.19Z" fill="black"/>
<path d="M59.1279 123.606C59.3916 124.429 59.1979 125.187 58.6953 125.3C58.1927 125.412 57.5714 124.837 57.3077 124.014C57.0439 123.191 57.2376 122.433 57.7402 122.321C58.2429 122.208 58.8641 122.784 59.1279 123.606Z" fill="white"/>
<path d="M57.7584 125.8C56.8545 126.003 55.9978 125.781 55.845 125.304C55.6922 124.828 56.3012 124.279 57.2051 124.076C58.109 123.874 58.9657 124.096 59.1185 124.572C59.2713 125.048 58.6623 125.598 57.7584 125.8Z" fill="white"/>
<path d="M58.4736 123.817L57.6291 125.137L60.4037 126.573L61.2482 125.252L58.4736 123.817Z" fill="white"/>
<path d="M58.4141 128.999C59.3181 129.202 59.927 129.751 59.7742 130.227C59.6214 130.703 58.7648 130.925 57.8608 130.723C56.9569 130.521 56.348 129.971 56.5008 129.495C56.6535 129.019 57.5102 128.797 58.4141 128.999Z" fill="white"/>
<path d="M59.7837 131.193C59.5199 132.016 58.8987 132.592 58.396 132.479C57.8934 132.367 57.6997 131.608 57.9635 130.786C58.2272 129.963 58.8485 129.387 59.3511 129.5C59.8537 129.613 60.0474 130.371 59.7837 131.193Z" fill="white"/>
<path d="M58.2932 129.675L59.1376 130.996L61.9123 129.56L61.0678 128.24L58.2932 129.675Z" fill="white"/>
<path d="M70.8039 125.807C69.8999 125.604 69.291 125.055 69.4438 124.579C69.5966 124.103 70.4532 123.881 71.3572 124.083C72.2611 124.285 72.8701 124.835 72.7173 125.311C72.5645 125.787 71.7078 126.009 70.8039 125.807Z" fill="white"/>
<path d="M69.4344 123.613C69.6981 122.79 70.3194 122.214 70.822 122.327C71.3246 122.439 71.5183 123.198 71.2546 124.02C70.9908 124.843 70.3695 125.419 69.8669 125.306C69.3643 125.193 69.1706 124.435 69.4344 123.613Z" fill="white"/>
<path d="M70.9248 125.131L70.0804 123.81L67.3057 125.246L68.1502 126.566L70.9248 125.131Z" fill="white"/>
<path d="M68.7762 131.2C68.5125 130.377 68.7062 129.619 69.2088 129.506C69.7114 129.394 70.3327 129.97 70.5964 130.792C70.8602 131.615 70.6665 132.373 70.1639 132.486C69.6612 132.598 69.04 132.023 68.7762 131.2Z" fill="white"/>
<path d="M70.1457 129.006C71.0497 128.804 71.9063 129.026 72.0591 129.502C72.2119 129.978 71.603 130.528 70.699 130.73C69.7951 130.932 68.9384 130.71 68.7856 130.234C68.6328 129.758 69.2418 129.208 70.1457 129.006Z" fill="white"/>
<path d="M69.4306 130.989L70.275 129.669L67.5004 128.234L66.6559 129.554L69.4306 130.989Z" fill="white"/>
<path d="M63.4125 128.733L64.2791 127.494L65.1457 128.733H63.4125Z" fill="black"/>
<line x1="356" y1="20.0038" x2="355" y2="281.004" stroke="black" stroke-width="2"/>
<path d="M251.016 66H248.062V48.9375H251.016V66ZM257.027 53.3203L257.109 54.7852C258.047 53.6523 259.277 53.0859 260.801 53.0859C263.441 53.0859 264.785 54.5977 264.832 57.6211V66H261.984V57.7852C261.984 56.9805 261.809 56.3867 261.457 56.0039C261.113 55.6133 260.547 55.418 259.758 55.418C258.609 55.418 257.754 55.9375 257.191 56.9766V66H254.344V53.3203H257.027ZM271.312 50.2383V53.3203H273.551V55.4297H271.312V62.5078C271.312 62.9922 271.406 63.3438 271.594 63.5625C271.789 63.7734 272.133 63.8789 272.625 63.8789C272.953 63.8789 273.285 63.8398 273.621 63.7617V65.9648C272.973 66.1445 272.348 66.2344 271.746 66.2344C269.559 66.2344 268.465 65.0273 268.465 62.6133V55.4297H266.379V53.3203H268.465V50.2383H271.312ZM281.32 66.2344C279.516 66.2344 278.051 65.668 276.926 64.5352C275.809 63.3945 275.25 61.8789 275.25 59.9883V59.6367C275.25 58.3711 275.492 57.2422 275.977 56.25C276.469 55.25 277.156 54.4727 278.039 53.918C278.922 53.3633 279.906 53.0859 280.992 53.0859C282.719 53.0859 284.051 53.6367 284.988 54.7383C285.934 55.8398 286.406 57.3984 286.406 59.4141V60.5625H278.121C278.207 61.6094 278.555 62.4375 279.164 63.0469C279.781 63.6562 280.555 63.9609 281.484 63.9609C282.789 63.9609 283.852 63.4336 284.672 62.3789L286.207 63.8438C285.699 64.6016 285.02 65.1914 284.168 65.6133C283.324 66.0273 282.375 66.2344 281.32 66.2344ZM280.98 55.3711C280.199 55.3711 279.566 55.6445 279.082 56.1914C278.605 56.7383 278.301 57.5 278.168 58.4766H283.594V58.2656C283.531 57.3125 283.277 56.5938 282.832 56.1094C282.387 55.6172 281.77 55.3711 280.98 55.3711ZM295.266 55.9219C294.891 55.8594 294.504 55.8281 294.105 55.8281C292.801 55.8281 291.922 56.3281 291.469 57.3281V66H288.621V53.3203H291.34L291.41 54.7383C292.098 53.6367 293.051 53.0859 294.27 53.0859C294.676 53.0859 295.012 53.1406 295.277 53.25L295.266 55.9219ZM299.707 53.3203L299.789 54.7852C300.727 53.6523 301.957 53.0859 303.48 53.0859C306.121 53.0859 307.465 54.5977 307.512 57.6211V66H304.664V57.7852C304.664 56.9805 304.488 56.3867 304.137 56.0039C303.793 55.6133 303.227 55.418 302.438 55.418C301.289 55.418 300.434 55.9375 299.871 56.9766V66H297.023V53.3203H299.707ZM316.008 66.2344C314.203 66.2344 312.738 65.668 311.613 64.5352C310.496 63.3945 309.938 61.8789 309.938 59.9883V59.6367C309.938 58.3711 310.18 57.2422 310.664 56.25C311.156 55.25 311.844 54.4727 312.727 53.918C313.609 53.3633 314.594 53.0859 315.68 53.0859C317.406 53.0859 318.738 53.6367 319.676 54.7383C320.621 55.8398 321.094 57.3984 321.094 59.4141V60.5625H312.809C312.895 61.6094 313.242 62.4375 313.852 63.0469C314.469 63.6562 315.242 63.9609 316.172 63.9609C317.477 63.9609 318.539 63.4336 319.359 62.3789L320.895 63.8438C320.387 64.6016 319.707 65.1914 318.855 65.6133C318.012 66.0273 317.062 66.2344 316.008 66.2344ZM315.668 55.3711C314.887 55.3711 314.254 55.6445 313.77 56.1914C313.293 56.7383 312.988 57.5 312.855 58.4766H318.281V58.2656C318.219 57.3125 317.965 56.5938 317.52 56.1094C317.074 55.6172 316.457 55.3711 315.668 55.3711ZM326.883 50.2383V53.3203H329.121V55.4297H326.883V62.5078C326.883 62.9922 326.977 63.3438 327.164 63.5625C327.359 63.7734 327.703 63.8789 328.195 63.8789C328.523 63.8789 328.855 63.8398 329.191 63.7617V65.9648C328.543 66.1445 327.918 66.2344 327.316 66.2344C325.129 66.2344 324.035 65.0273 324.035 62.6133V55.4297H321.949V53.3203H324.035V50.2383H326.883Z" fill="black"/>
<path d="M410.145 51.3281H404.824V66H401.883V51.3281H396.609V48.9375H410.145V51.3281ZM417.727 66C417.602 65.7578 417.492 65.3633 417.398 64.8164C416.492 65.7617 415.383 66.2344 414.07 66.2344C412.797 66.2344 411.758 65.8711 410.953 65.1445C410.148 64.418 409.746 63.5195 409.746 62.4492C409.746 61.0977 410.246 60.0625 411.246 59.3438C412.254 58.6172 413.691 58.2539 415.559 58.2539H417.305V57.4219C417.305 56.7656 417.121 56.2422 416.754 55.8516C416.387 55.4531 415.828 55.2539 415.078 55.2539C414.43 55.2539 413.898 55.418 413.484 55.7461C413.07 56.0664 412.863 56.4766 412.863 56.9766H410.016C410.016 56.2812 410.246 55.6328 410.707 55.0312C411.168 54.4219 411.793 53.9453 412.582 53.6016C413.379 53.2578 414.266 53.0859 415.242 53.0859C416.727 53.0859 417.91 53.4609 418.793 54.2109C419.676 54.9531 420.129 56 420.152 57.3516V63.0703C420.152 64.2109 420.312 65.1211 420.633 65.8008V66H417.727ZM414.598 63.9492C415.16 63.9492 415.688 63.8125 416.18 63.5391C416.68 63.2656 417.055 62.8984 417.305 62.4375V60.0469H415.77C414.715 60.0469 413.922 60.2305 413.391 60.5977C412.859 60.9648 412.594 61.4844 412.594 62.1562C412.594 62.7031 412.773 63.1406 413.133 63.4688C413.5 63.7891 413.988 63.9492 414.598 63.9492ZM429.773 55.9219C429.398 55.8594 429.012 55.8281 428.613 55.8281C427.309 55.8281 426.43 56.3281 425.977 57.3281V66H423.129V53.3203H425.848L425.918 54.7383C426.605 53.6367 427.559 53.0859 428.777 53.0859C429.184 53.0859 429.52 53.1406 429.785 53.25L429.773 55.9219ZM430.84 59.5664C430.84 57.5977 431.301 56.0273 432.223 54.8555C433.152 53.6758 434.383 53.0859 435.914 53.0859C437.359 53.0859 438.496 53.5898 439.324 54.5977L439.453 53.3203H442.02V65.6133C442.02 67.2773 441.5 68.5898 440.461 69.5508C439.43 70.5117 438.035 70.9922 436.277 70.9922C435.348 70.9922 434.438 70.7969 433.547 70.4062C432.664 70.0234 431.992 69.5195 431.531 68.8945L432.879 67.1836C433.754 68.2227 434.832 68.7422 436.113 68.7422C437.059 68.7422 437.805 68.4844 438.352 67.9688C438.898 67.4609 439.172 66.7109 439.172 65.7188V64.8633C438.352 65.7773 437.258 66.2344 435.891 66.2344C434.406 66.2344 433.191 65.6445 432.246 64.4648C431.309 63.2852 430.84 61.6523 430.84 59.5664ZM433.676 59.8125C433.676 61.0859 433.934 62.0898 434.449 62.8242C434.973 63.5508 435.695 63.9141 436.617 63.9141C437.766 63.9141 438.617 63.4219 439.172 62.4375V56.8594C438.633 55.8984 437.789 55.418 436.641 55.418C435.703 55.418 434.973 55.7891 434.449 56.5312C433.934 57.2734 433.676 58.3672 433.676 59.8125ZM450.539 66.2344C448.734 66.2344 447.27 65.668 446.145 64.5352C445.027 63.3945 444.469 61.8789 444.469 59.9883V59.6367C444.469 58.3711 444.711 57.2422 445.195 56.25C445.688 55.25 446.375 54.4727 447.258 53.918C448.141 53.3633 449.125 53.0859 450.211 53.0859C451.938 53.0859 453.27 53.6367 454.207 54.7383C455.152 55.8398 455.625 57.3984 455.625 59.4141V60.5625H447.34C447.426 61.6094 447.773 62.4375 448.383 63.0469C449 63.6562 449.773 63.9609 450.703 63.9609C452.008 63.9609 453.07 63.4336 453.891 62.3789L455.426 63.8438C454.918 64.6016 454.238 65.1914 453.387 65.6133C452.543 66.0273 451.594 66.2344 450.539 66.2344ZM450.199 55.3711C449.418 55.3711 448.785 55.6445 448.301 56.1914C447.824 56.7383 447.52 57.5 447.387 58.4766H452.812V58.2656C452.75 57.3125 452.496 56.5938 452.051 56.1094C451.605 55.6172 450.988 55.3711 450.199 55.3711ZM461.414 50.2383V53.3203H463.652V55.4297H461.414V62.5078C461.414 62.9922 461.508 63.3438 461.695 63.5625C461.891 63.7734 462.234 63.8789 462.727 63.8789C463.055 63.8789 463.387 63.8398 463.723 63.7617V65.9648C463.074 66.1445 462.449 66.2344 461.848 66.2344C459.66 66.2344 458.566 65.0273 458.566 62.6133V55.4297H456.48V53.3203H458.566V50.2383H461.414ZM466.711 54L465.258 53.0977C465.961 52.0742 466.324 50.9922 466.348 49.8516V48H468.844V49.6172C468.844 50.4219 468.637 51.2344 468.223 52.0547C467.816 52.8672 467.312 53.5156 466.711 54ZM475.711 62.5547C475.711 62.0469 475.5 61.6602 475.078 61.3945C474.664 61.1289 473.973 60.8945 473.004 60.6914C472.035 60.4883 471.227 60.2305 470.578 59.918C469.156 59.2305 468.445 58.2344 468.445 56.9297C468.445 55.8359 468.906 54.9219 469.828 54.1875C470.75 53.4531 471.922 53.0859 473.344 53.0859C474.859 53.0859 476.082 53.4609 477.012 54.2109C477.949 54.9609 478.418 55.9336 478.418 57.1289H475.57C475.57 56.582 475.367 56.1289 474.961 55.7695C474.555 55.4023 474.016 55.2188 473.344 55.2188C472.719 55.2188 472.207 55.3633 471.809 55.6523C471.418 55.9414 471.223 56.3281 471.223 56.8125C471.223 57.25 471.406 57.5898 471.773 57.832C472.141 58.0742 472.883 58.3203 474 58.5703C475.117 58.8125 475.992 59.1055 476.625 59.4492C477.266 59.7852 477.738 60.1914 478.043 60.668C478.355 61.1445 478.512 61.7227 478.512 62.4023C478.512 63.543 478.039 64.4688 477.094 65.1797C476.148 65.8828 474.91 66.2344 473.379 66.2344C472.34 66.2344 471.414 66.0469 470.602 65.6719C469.789 65.2969 469.156 64.7812 468.703 64.125C468.25 63.4688 468.023 62.7617 468.023 62.0039H470.789C470.828 62.6758 471.082 63.1953 471.551 63.5625C472.02 63.9219 472.641 64.1016 473.414 64.1016C474.164 64.1016 474.734 63.9609 475.125 63.6797C475.516 63.3906 475.711 63.0156 475.711 62.5547ZM500.789 66H497.824L490.219 53.8945V66H487.254V48.9375H490.219L497.848 61.0898V48.9375H500.789V66ZM509.602 66.2344C507.797 66.2344 506.332 65.668 505.207 64.5352C504.09 63.3945 503.531 61.8789 503.531 59.9883V59.6367C503.531 58.3711 503.773 57.2422 504.258 56.25C504.75 55.25 505.438 54.4727 506.32 53.918C507.203 53.3633 508.188 53.0859 509.273 53.0859C511 53.0859 512.332 53.6367 513.27 54.7383C514.215 55.8398 514.688 57.3984 514.688 59.4141V60.5625H506.402C506.488 61.6094 506.836 62.4375 507.445 63.0469C508.062 63.6562 508.836 63.9609 509.766 63.9609C511.07 63.9609 512.133 63.4336 512.953 62.3789L514.488 63.8438C513.98 64.6016 513.301 65.1914 512.449 65.6133C511.605 66.0273 510.656 66.2344 509.602 66.2344ZM509.262 55.3711C508.48 55.3711 507.848 55.6445 507.363 56.1914C506.887 56.7383 506.582 57.5 506.449 58.4766H511.875V58.2656C511.812 57.3125 511.559 56.5938 511.113 56.1094C510.668 55.6172 510.051 55.3711 509.262 55.3711ZM520.477 50.2383V53.3203H522.715V55.4297H520.477V62.5078C520.477 62.9922 520.57 63.3438 520.758 63.5625C520.953 63.7734 521.297 63.8789 521.789 63.8789C522.117 63.8789 522.449 63.8398 522.785 63.7617V65.9648C522.137 66.1445 521.512 66.2344 520.91 66.2344C518.723 66.2344 517.629 65.0273 517.629 62.6133V55.4297H515.543V53.3203H517.629V50.2383H520.477ZM536.039 62.0742L538.055 53.3203H540.832L537.375 66H535.031L532.312 57.293L529.641 66H527.297L523.828 53.3203H526.605L528.656 61.9805L531.258 53.3203H533.402L536.039 62.0742ZM542.203 59.543C542.203 58.3008 542.449 57.1836 542.941 56.1914C543.434 55.1914 544.125 54.4258 545.016 53.8945C545.906 53.3555 546.93 53.0859 548.086 53.0859C549.797 53.0859 551.184 53.6367 552.246 54.7383C553.316 55.8398 553.895 57.3008 553.98 59.1211L553.992 59.7891C553.992 61.0391 553.75 62.1562 553.266 63.1406C552.789 64.125 552.102 64.8867 551.203 65.4258C550.312 65.9648 549.281 66.2344 548.109 66.2344C546.32 66.2344 544.887 65.6406 543.809 64.4531C542.738 63.2578 542.203 61.668 542.203 59.6836V59.543ZM545.051 59.7891C545.051 61.0938 545.32 62.1172 545.859 62.8594C546.398 63.5938 547.148 63.9609 548.109 63.9609C549.07 63.9609 549.816 63.5859 550.348 62.8359C550.887 62.0859 551.156 60.9883 551.156 59.543C551.156 58.2617 550.879 57.2461 550.324 56.4961C549.777 55.7461 549.031 55.3711 548.086 55.3711C547.156 55.3711 546.418 55.7422 545.871 56.4844C545.324 57.2188 545.051 58.3203 545.051 59.7891ZM563.039 55.9219C562.664 55.8594 562.277 55.8281 561.879 55.8281C560.574 55.8281 559.695 56.3281 559.242 57.3281V66H556.395V53.3203H559.113L559.184 54.7383C559.871 53.6367 560.824 53.0859 562.043 53.0859C562.449 53.0859 562.785 53.1406 563.051 53.25L563.039 55.9219ZM568.957 60.5625L567.691 61.8633V66H564.844V48H567.691V58.3828L568.582 57.2695L572.086 53.3203H575.508L570.797 58.6055L576.012 66H572.719L568.957 60.5625Z" fill="black"/>
<path d="M245.707 143.707C246.098 143.317 246.098 142.683 245.707 142.293L239.343 135.929C238.953 135.538 238.319 135.538 237.929 135.929C237.538 136.319 237.538 136.953 237.929 137.343L243.586 143L237.929 148.657C237.538 149.047 237.538 149.681 237.929 150.071C238.319 150.462 238.953 150.462 239.343 150.071L245.707 143.707ZM201 144H245V142H201V144Z" fill="black"/>
<path d="M202.293 161.293C201.902 161.683 201.902 162.317 202.293 162.707L208.657 169.071C209.047 169.462 209.681 169.462 210.071 169.071C210.462 168.681 210.462 168.047 210.071 167.657L204.414 162L210.071 156.343C210.462 155.953 210.462 155.319 210.071 154.929C209.681 154.538 209.047 154.538 208.657 154.929L202.293 161.293ZM246 161H203V163H246V161Z" fill="#FF0000"/>
<path d="M446.501 174.865C446.979 174.589 447.142 173.977 446.865 173.499L442.356 165.71C442.079 165.232 441.468 165.069 440.99 165.346C440.512 165.622 440.349 166.234 440.625 166.712L444.634 173.636L437.71 177.644C437.232 177.921 437.069 178.532 437.346 179.01C437.622 179.488 438.234 179.651 438.712 179.375L446.501 174.865ZM325.742 142.966L445.742 174.966L446.258 173.034L326.258 141.034L325.742 142.966Z" fill="black"/>
<path d="M326.514 162.065C326.037 162.345 325.877 162.957 326.156 163.434L330.706 171.199C330.985 171.676 331.598 171.836 332.074 171.556C332.551 171.277 332.711 170.665 332.431 170.188L328.388 163.286L335.29 159.242C335.767 158.962 335.927 158.35 335.648 157.873C335.368 157.397 334.756 157.237 334.279 157.516L326.514 162.065ZM446.253 193.032L327.272 161.961L326.767 163.896L445.747 194.968L446.253 193.032Z" fill="#FF0000"/>
</svg>
