<svg width="600" height="300" viewBox="0 0 600 300" fill="none" xmlns="http://www.w3.org/2000/svg">
<rect width="600" height="300" fill="white"/>
<path d="M104.989 26.1328L107.396 14.3594H110.092L106.482 30H103.883L100.907 18.5811L97.8672 30H95.2568L91.6475 14.3594H94.3438L96.7715 26.1113L99.7578 14.3594H102.035L104.989 26.1328ZM114.604 30H111.993V18.377H114.604V30ZM111.832 15.3584C111.832 14.9574 111.957 14.6243 112.208 14.3594C112.466 14.0944 112.831 13.9619 113.304 13.9619C113.776 13.9619 114.142 14.0944 114.399 14.3594C114.657 14.6243 114.786 14.9574 114.786 15.3584C114.786 15.7523 114.657 16.0817 114.399 16.3467C114.142 16.6045 113.776 16.7334 113.304 16.7334C112.831 16.7334 112.466 16.6045 112.208 16.3467C111.957 16.0817 111.832 15.7523 111.832 15.3584ZM120.727 15.5518V18.377H122.778V20.3105H120.727V26.7988C120.727 27.2428 120.812 27.5651 120.984 27.7656C121.163 27.959 121.479 28.0557 121.93 28.0557C122.23 28.0557 122.535 28.0199 122.843 27.9482V29.9678C122.248 30.1325 121.675 30.2148 121.124 30.2148C119.119 30.2148 118.116 29.1084 118.116 26.8955V20.3105H116.204V18.377H118.116V15.5518H120.727ZM127.354 19.6445C128.207 18.6562 129.285 18.1621 130.588 18.1621C133.066 18.1621 134.323 19.5765 134.358 22.4053V30H131.748V22.502C131.748 21.6999 131.573 21.1341 131.222 20.8047C130.878 20.4681 130.369 20.2998 129.696 20.2998C128.651 20.2998 127.87 20.7653 127.354 21.6963V30H124.744V13.5H127.354V19.6445ZM136.518 24.0811C136.518 22.9424 136.743 21.9183 137.194 21.0088C137.646 20.0921 138.279 19.3903 139.096 18.9033C139.912 18.4092 140.85 18.1621 141.91 18.1621C143.479 18.1621 144.75 18.667 145.724 19.6768C146.705 20.6865 147.235 22.0257 147.313 23.6943L147.324 24.3066C147.324 25.4525 147.102 26.4766 146.658 27.3789C146.221 28.2812 145.591 28.9795 144.768 29.4736C143.951 29.9678 143.006 30.2148 141.932 30.2148C140.292 30.2148 138.978 29.6706 137.989 28.582C137.008 27.4863 136.518 26.029 136.518 24.21V24.0811ZM139.128 24.3066C139.128 25.5026 139.375 26.4408 139.869 27.1211C140.363 27.7943 141.051 28.1309 141.932 28.1309C142.812 28.1309 143.496 27.7871 143.983 27.0996C144.478 26.4121 144.725 25.4059 144.725 24.0811C144.725 22.9066 144.47 21.9756 143.962 21.2881C143.461 20.6006 142.777 20.2568 141.91 20.2568C141.058 20.2568 140.381 20.597 139.88 21.2773C139.379 21.9505 139.128 22.9603 139.128 24.3066ZM156.573 28.8613C155.807 29.7637 154.718 30.2148 153.308 30.2148C152.047 30.2148 151.091 29.846 150.439 29.1084C149.795 28.3708 149.473 27.3037 149.473 25.9072V18.377H152.083V25.875C152.083 27.3503 152.695 28.0879 153.92 28.0879C155.188 28.0879 156.043 27.6331 156.487 26.7236V18.377H159.098V30H156.638L156.573 28.8613ZM165.027 15.5518V18.377H167.079V20.3105H165.027V26.7988C165.027 27.2428 165.113 27.5651 165.285 27.7656C165.464 27.959 165.779 28.0557 166.23 28.0557C166.531 28.0557 166.836 28.0199 167.144 27.9482V29.9678C166.549 30.1325 165.976 30.2148 165.425 30.2148C163.42 30.2148 162.417 29.1084 162.417 26.8955V20.3105H160.505V18.377H162.417V15.5518H165.027ZM184.739 24.3066C184.739 26.1042 184.331 27.54 183.515 28.6143C182.698 29.6813 181.603 30.2148 180.228 30.2148C178.953 30.2148 177.932 29.7959 177.166 28.958V34.4688H174.556V18.377H176.962L177.069 19.5586C177.836 18.6276 178.878 18.1621 180.195 18.1621C181.613 18.1621 182.723 18.6921 183.525 19.752C184.335 20.8047 184.739 22.2692 184.739 24.1455V24.3066ZM182.14 24.0811C182.14 22.9209 181.907 22.0007 181.441 21.3203C180.983 20.64 180.324 20.2998 179.465 20.2998C178.398 20.2998 177.632 20.7402 177.166 21.6211V26.7773C177.639 27.6797 178.412 28.1309 179.486 28.1309C180.317 28.1309 180.965 27.7979 181.431 27.1318C181.903 26.4587 182.14 25.4417 182.14 24.0811ZM193.902 30C193.788 29.778 193.688 29.4163 193.602 28.915C192.771 29.7816 191.754 30.2148 190.551 30.2148C189.383 30.2148 188.431 29.8818 187.693 29.2158C186.956 28.5498 186.587 27.7262 186.587 26.7451C186.587 25.5062 187.045 24.5573 187.962 23.8984C188.886 23.2324 190.203 22.8994 191.915 22.8994H193.516V22.1367C193.516 21.5352 193.347 21.0553 193.011 20.6973C192.674 20.332 192.162 20.1494 191.475 20.1494C190.88 20.1494 190.393 20.2998 190.014 20.6006C189.634 20.8942 189.444 21.2702 189.444 21.7285H186.834C186.834 21.0911 187.045 20.4967 187.468 19.9453C187.89 19.3867 188.463 18.9499 189.187 18.6348C189.917 18.3197 190.73 18.1621 191.625 18.1621C192.986 18.1621 194.071 18.5059 194.88 19.1934C195.689 19.8737 196.104 20.8333 196.126 22.0723V27.3145C196.126 28.36 196.273 29.1943 196.566 29.8174V30H193.902ZM191.034 28.1201C191.55 28.1201 192.033 27.9948 192.484 27.7441C192.943 27.4935 193.286 27.1569 193.516 26.7344V24.543H192.108C191.142 24.543 190.415 24.7113 189.928 25.0479C189.441 25.3844 189.197 25.8607 189.197 26.4766C189.197 26.9779 189.362 27.3789 189.691 27.6797C190.028 27.9733 190.476 28.1201 191.034 28.1201ZM203.635 28.1309C204.286 28.1309 204.827 27.9411 205.257 27.5615C205.687 27.182 205.916 26.7129 205.944 26.1543H208.404C208.376 26.8776 208.15 27.5544 207.728 28.1846C207.305 28.8076 206.732 29.3018 206.009 29.667C205.285 30.0322 204.505 30.2148 203.667 30.2148C202.041 30.2148 200.752 29.6885 199.8 28.6357C198.847 27.583 198.371 26.1292 198.371 24.2744V24.0059C198.371 22.237 198.844 20.8226 199.789 19.7627C200.734 18.6956 202.023 18.1621 203.656 18.1621C205.038 18.1621 206.163 18.5667 207.029 19.376C207.903 20.1781 208.361 21.2344 208.404 22.5449H205.944C205.916 21.8789 205.687 21.3311 205.257 20.9014C204.834 20.4717 204.294 20.2568 203.635 20.2568C202.79 20.2568 202.138 20.5648 201.68 21.1807C201.221 21.7894 200.989 22.7168 200.981 23.9629V24.3818C200.981 25.6423 201.207 26.584 201.658 27.207C202.117 27.8229 202.775 28.1309 203.635 28.1309ZM214.151 25.0156L212.991 26.208V30H210.381V13.5H212.991V23.0176L213.808 21.9971L217.02 18.377H220.156L215.838 23.2217L220.618 30H217.6L214.151 25.0156ZM226.773 30.2148C225.119 30.2148 223.776 29.6956 222.745 28.6572C221.721 27.6117 221.209 26.2223 221.209 24.4893V24.167C221.209 23.0068 221.431 21.972 221.875 21.0625C222.326 20.1458 222.956 19.4333 223.766 18.9248C224.575 18.4163 225.477 18.1621 226.473 18.1621C228.055 18.1621 229.276 18.667 230.136 19.6768C231.002 20.6865 231.436 22.1152 231.436 23.9629V25.0156H223.841C223.92 25.9753 224.238 26.7344 224.797 27.293C225.363 27.8516 226.072 28.1309 226.924 28.1309C228.12 28.1309 229.094 27.6475 229.846 26.6807L231.253 28.0234C230.787 28.7181 230.164 29.2588 229.384 29.6455C228.61 30.0251 227.74 30.2148 226.773 30.2148ZM226.462 20.2568C225.746 20.2568 225.166 20.5075 224.722 21.0088C224.285 21.5101 224.006 22.2083 223.884 23.1035H228.857V22.9102C228.8 22.0365 228.567 21.3776 228.159 20.9336C227.751 20.4824 227.185 20.2568 226.462 20.2568ZM239.557 20.7617C239.213 20.7044 238.858 20.6758 238.493 20.6758C237.297 20.6758 236.492 21.1341 236.076 22.0508V30H233.466V18.377H235.958L236.022 19.6768C236.653 18.667 237.526 18.1621 238.644 18.1621C239.016 18.1621 239.324 18.2122 239.567 18.3125L239.557 20.7617Z" fill="black"/>
<rect x="60.5" y="46.5" width="209" height="240" rx="3.5" fill="white" stroke="black"/>
<path d="M122.128 85.7705H115.35V91.3135H123.224V93H113.287V77.3594H123.116V79.0566H115.35V84.084H122.128V85.7705ZM129.379 85.6201L131.957 81.377H134.277L130.475 87.124L134.396 93H132.097L129.411 88.6494L126.726 93H124.416L128.337 87.124L124.534 81.377H126.833L129.379 85.6201ZM141.002 93.2148C139.426 93.2148 138.145 92.6992 137.156 91.668C136.168 90.6296 135.674 89.2438 135.674 87.5107V87.1455C135.674 85.9925 135.892 84.9648 136.329 84.0625C136.773 83.153 137.389 82.444 138.177 81.9355C138.972 81.4199 139.831 81.1621 140.755 81.1621C142.266 81.1621 143.44 81.6598 144.278 82.6553C145.116 83.6507 145.535 85.0758 145.535 86.9307V87.7578H137.661C137.69 88.9036 138.023 89.8311 138.66 90.54C139.305 91.2419 140.121 91.5928 141.109 91.5928C141.811 91.5928 142.406 91.4495 142.893 91.1631C143.38 90.8766 143.806 90.4971 144.171 90.0244L145.385 90.9697C144.411 92.4665 142.95 93.2148 141.002 93.2148ZM140.755 82.7949C139.953 82.7949 139.28 83.0885 138.735 83.6758C138.191 84.2559 137.854 85.0723 137.726 86.125H143.548V85.9746C143.491 84.9648 143.218 84.1842 142.731 83.6328C142.244 83.0742 141.586 82.7949 140.755 82.7949ZM152.507 91.5928C153.216 91.5928 153.835 91.3779 154.365 90.9482C154.895 90.5186 155.189 89.9814 155.246 89.3369H157.126C157.09 90.0029 156.861 90.6367 156.438 91.2383C156.016 91.8398 155.45 92.3197 154.741 92.6777C154.039 93.0358 153.295 93.2148 152.507 93.2148C150.924 93.2148 149.664 92.6885 148.726 91.6357C147.795 90.5758 147.329 89.1292 147.329 87.2959V86.9629C147.329 85.8314 147.537 84.8252 147.952 83.9443C148.368 83.0635 148.962 82.3796 149.735 81.8926C150.516 81.4056 151.436 81.1621 152.496 81.1621C153.799 81.1621 154.881 81.5524 155.74 82.333C156.607 83.1136 157.069 84.127 157.126 85.373H155.246C155.189 84.6211 154.902 84.0052 154.387 83.5254C153.878 83.0384 153.248 82.7949 152.496 82.7949C151.486 82.7949 150.702 83.1602 150.144 83.8906C149.592 84.6139 149.316 85.6631 149.316 87.0381V87.4141C149.316 88.7533 149.592 89.7845 150.144 90.5078C150.695 91.2311 151.483 91.5928 152.507 91.5928ZM166.536 91.8506C165.763 92.7601 164.628 93.2148 163.131 93.2148C161.892 93.2148 160.947 92.8568 160.295 92.1406C159.65 91.4173 159.325 90.3503 159.317 88.9395V81.377H161.305V88.8857C161.305 90.6475 162.021 91.5283 163.453 91.5283C164.971 91.5283 165.981 90.9626 166.482 89.8311V81.377H168.47V93H166.579L166.536 91.8506ZM174.195 78.5625V81.377H176.365V82.9131H174.195V90.1211C174.195 90.5866 174.292 90.9375 174.485 91.1738C174.679 91.403 175.008 91.5176 175.474 91.5176C175.703 91.5176 176.018 91.4746 176.419 91.3887V93C175.896 93.1432 175.388 93.2148 174.894 93.2148C174.006 93.2148 173.336 92.9463 172.885 92.4092C172.434 91.8721 172.208 91.1094 172.208 90.1211V82.9131H170.092V81.377H172.208V78.5625H174.195ZM185.872 93C185.757 92.7708 185.664 92.3626 185.593 91.7754C184.669 92.735 183.566 93.2148 182.284 93.2148C181.138 93.2148 180.197 92.8926 179.459 92.248C178.729 91.5964 178.363 90.7728 178.363 89.7773C178.363 88.5671 178.822 87.6289 179.738 86.9629C180.662 86.2897 181.958 85.9531 183.627 85.9531H185.561V85.04C185.561 84.3454 185.353 83.7939 184.938 83.3857C184.522 82.9704 183.91 82.7627 183.101 82.7627C182.392 82.7627 181.797 82.9417 181.317 83.2998C180.838 83.6579 180.598 84.0911 180.598 84.5996H178.6C178.6 84.0195 178.804 83.4609 179.212 82.9238C179.627 82.3796 180.186 81.9499 180.888 81.6348C181.597 81.3197 182.374 81.1621 183.219 81.1621C184.558 81.1621 185.607 81.4987 186.366 82.1719C187.125 82.8379 187.519 83.7581 187.548 84.9326V90.2822C187.548 91.3493 187.684 92.1979 187.956 92.8281V93H185.872ZM182.574 91.4854C183.197 91.4854 183.788 91.3242 184.347 91.002C184.905 90.6797 185.31 90.2607 185.561 89.7451V87.3604H184.003C181.568 87.3604 180.351 88.0729 180.351 89.498C180.351 90.1211 180.558 90.6081 180.974 90.959C181.389 91.3099 181.923 91.4854 182.574 91.4854ZM200.503 87.3174C200.503 89.0934 200.095 90.5221 199.278 91.6035C198.462 92.6777 197.366 93.2148 195.991 93.2148C194.523 93.2148 193.388 92.6956 192.586 91.6572L192.489 93H190.663V76.5H192.65V82.6553C193.452 81.6598 194.559 81.1621 195.97 81.1621C197.381 81.1621 198.487 81.6956 199.289 82.7627C200.098 83.8298 200.503 85.2907 200.503 87.1455V87.3174ZM198.516 87.0918C198.516 85.7383 198.254 84.6927 197.731 83.9551C197.209 83.2174 196.457 82.8486 195.476 82.8486C194.165 82.8486 193.223 83.4574 192.65 84.6748V89.7021C193.259 90.9196 194.208 91.5283 195.497 91.5283C196.45 91.5283 197.191 91.1595 197.721 90.4219C198.251 89.6842 198.516 88.5742 198.516 87.0918ZM205.176 93H203.188V76.5H205.176V93ZM213.189 93.2148C211.614 93.2148 210.332 92.6992 209.344 91.668C208.355 90.6296 207.861 89.2438 207.861 87.5107V87.1455C207.861 85.9925 208.08 84.9648 208.517 84.0625C208.961 83.153 209.576 82.444 210.364 81.9355C211.159 81.4199 212.019 81.1621 212.942 81.1621C214.453 81.1621 215.628 81.6598 216.466 82.6553C217.304 83.6507 217.723 85.0758 217.723 86.9307V87.7578H209.849C209.877 88.9036 210.21 89.8311 210.848 90.54C211.492 91.2419 212.309 91.5928 213.297 91.5928C213.999 91.5928 214.593 91.4495 215.08 91.1631C215.567 90.8766 215.993 90.4971 216.358 90.0244L217.572 90.9697C216.598 92.4665 215.137 93.2148 213.189 93.2148ZM212.942 82.7949C212.14 82.7949 211.467 83.0885 210.923 83.6758C210.379 84.2559 210.042 85.0723 209.913 86.125H215.735V85.9746C215.678 84.9648 215.406 84.1842 214.919 83.6328C214.432 83.0742 213.773 82.7949 212.942 82.7949Z" fill="black"/>
<rect x="330.5" y="46.5" width="209" height="240" rx="3.5" fill="white" stroke="black"/>
<path d="M419.048 86.0283C417.279 85.5199 415.99 84.8968 415.181 84.1592C414.379 83.4144 413.978 82.4977 413.978 81.4092C413.978 80.1774 414.468 79.1605 415.449 78.3584C416.438 77.5492 417.719 77.1445 419.295 77.1445C420.369 77.1445 421.325 77.3522 422.163 77.7676C423.008 78.1829 423.66 78.7559 424.118 79.4863C424.584 80.2168 424.816 81.0153 424.816 81.8818H422.743C422.743 80.9365 422.442 80.1953 421.841 79.6582C421.239 79.1139 420.391 78.8418 419.295 78.8418C418.278 78.8418 417.483 79.0674 416.91 79.5186C416.344 79.9626 416.062 80.582 416.062 81.377C416.062 82.0143 416.33 82.555 416.867 82.999C417.411 83.4359 418.332 83.8369 419.628 84.2021C420.931 84.5674 421.948 84.972 422.679 85.416C423.416 85.8529 423.961 86.3649 424.312 86.9521C424.67 87.5394 424.849 88.2305 424.849 89.0254C424.849 90.293 424.354 91.3099 423.366 92.0762C422.378 92.8353 421.057 93.2148 419.402 93.2148C418.328 93.2148 417.326 93.0107 416.395 92.6025C415.464 92.1872 414.744 91.6214 414.235 90.9053C413.734 90.1891 413.483 89.3763 413.483 88.4668H415.557C415.557 89.4121 415.904 90.1605 416.599 90.7119C417.3 91.2562 418.235 91.5283 419.402 91.5283C420.491 91.5283 421.325 91.3063 421.905 90.8623C422.485 90.4183 422.775 89.8132 422.775 89.0469C422.775 88.2806 422.507 87.6898 421.97 87.2744C421.433 86.8519 420.459 86.4365 419.048 86.0283ZM429.887 78.5625V81.377H432.057V82.9131H429.887V90.1211C429.887 90.5866 429.983 90.9375 430.177 91.1738C430.37 91.403 430.7 91.5176 431.165 91.5176C431.394 91.5176 431.709 91.4746 432.11 91.3887V93C431.588 93.1432 431.079 93.2148 430.585 93.2148C429.697 93.2148 429.027 92.9463 428.576 92.4092C428.125 91.8721 427.899 91.1094 427.899 90.1211V82.9131H425.783V81.377H427.899V78.5625H429.887ZM441.563 91.8506C440.79 92.7601 439.655 93.2148 438.158 93.2148C436.919 93.2148 435.974 92.8568 435.322 92.1406C434.678 91.4173 434.352 90.3503 434.345 88.9395V81.377H436.332V88.8857C436.332 90.6475 437.048 91.5283 438.48 91.5283C439.999 91.5283 441.008 90.9626 441.51 89.8311V81.377H443.497V93H441.606L441.563 91.8506ZM456.366 87.3174C456.366 89.0934 455.958 90.5221 455.142 91.6035C454.325 92.6777 453.229 93.2148 451.854 93.2148C450.386 93.2148 449.251 92.6956 448.449 91.6572L448.353 93H446.526V76.5H448.514V82.6553C449.316 81.6598 450.422 81.1621 451.833 81.1621C453.244 81.1621 454.35 81.6956 455.152 82.7627C455.962 83.8298 456.366 85.2907 456.366 87.1455V87.3174ZM454.379 87.0918C454.379 85.7383 454.118 84.6927 453.595 83.9551C453.072 83.2174 452.32 82.8486 451.339 82.8486C450.028 82.8486 449.087 83.4574 448.514 84.6748V89.7021C449.122 90.9196 450.071 91.5283 451.36 91.5283C452.313 91.5283 453.054 91.1595 453.584 90.4219C454.114 89.6842 454.379 88.5742 454.379 87.0918Z" fill="black"/>
<rect x="342.5" y="54.5" width="185" height="57" rx="3.5" stroke="black"/>
<path d="M369.583 177.015C369.583 178.269 369.372 179.364 368.95 180.302C368.528 181.233 367.931 181.945 367.157 182.438C366.384 182.93 365.481 183.176 364.45 183.176C363.442 183.176 362.549 182.93 361.77 182.438C360.99 181.939 360.384 181.233 359.95 180.319C359.522 179.399 359.303 178.336 359.291 177.129V176.206C359.291 174.976 359.505 173.889 359.933 172.945C360.36 172.002 360.964 171.281 361.743 170.783C362.528 170.279 363.425 170.027 364.433 170.027C365.458 170.027 366.36 170.276 367.14 170.774C367.925 171.267 368.528 171.984 368.95 172.928C369.372 173.865 369.583 174.958 369.583 176.206V177.015ZM367.904 176.188C367.904 174.671 367.6 173.508 366.99 172.699C366.381 171.885 365.528 171.478 364.433 171.478C363.366 171.478 362.525 171.885 361.91 172.699C361.301 173.508 360.987 174.633 360.97 176.074V177.015C360.97 178.485 361.277 179.643 361.893 180.486C362.514 181.324 363.366 181.743 364.45 181.743C365.54 181.743 366.384 181.348 366.981 180.557C367.579 179.76 367.887 178.62 367.904 177.138V176.188ZM376.456 174.949C376.21 174.908 375.943 174.888 375.656 174.888C374.59 174.888 373.866 175.342 373.485 176.25V183H371.859V173.49H373.441L373.468 174.589C374.001 173.739 374.757 173.314 375.735 173.314C376.052 173.314 376.292 173.355 376.456 173.438V174.949ZM379.726 183H378.1V173.49H379.726V183ZM377.968 170.968C377.968 170.704 378.047 170.481 378.205 170.3C378.369 170.118 378.609 170.027 378.926 170.027C379.242 170.027 379.482 170.118 379.646 170.3C379.811 170.481 379.893 170.704 379.893 170.968C379.893 171.231 379.811 171.451 379.646 171.627C379.482 171.803 379.242 171.891 378.926 171.891C378.609 171.891 378.369 171.803 378.205 171.627C378.047 171.451 377.968 171.231 377.968 170.968ZM381.949 178.166C381.949 176.684 382.292 175.506 382.978 174.633C383.663 173.754 384.571 173.314 385.702 173.314C386.862 173.314 387.768 173.725 388.418 174.545L388.497 173.49H389.982V182.771C389.982 184.002 389.616 184.972 388.884 185.681C388.157 186.39 387.179 186.744 385.948 186.744C385.263 186.744 384.592 186.598 383.936 186.305C383.279 186.012 382.778 185.61 382.433 185.101L383.276 184.125C383.974 184.986 384.826 185.417 385.834 185.417C386.625 185.417 387.24 185.194 387.68 184.749C388.125 184.304 388.348 183.677 388.348 182.868V182.051C387.697 182.801 386.81 183.176 385.685 183.176C384.571 183.176 383.669 182.728 382.978 181.831C382.292 180.935 381.949 179.713 381.949 178.166ZM383.584 178.351C383.584 179.423 383.804 180.267 384.243 180.882C384.683 181.491 385.298 181.796 386.089 181.796C387.114 181.796 387.867 181.33 388.348 180.398V176.057C387.85 175.148 387.103 174.694 386.106 174.694C385.315 174.694 384.697 175.002 384.252 175.617C383.807 176.232 383.584 177.144 383.584 178.351ZM394.21 183H392.584V173.49H394.21V183ZM392.452 170.968C392.452 170.704 392.531 170.481 392.689 170.3C392.854 170.118 393.094 170.027 393.41 170.027C393.727 170.027 393.967 170.118 394.131 170.3C394.295 170.481 394.377 170.704 394.377 170.968C394.377 171.231 394.295 171.451 394.131 171.627C393.967 171.803 393.727 171.891 393.41 171.891C393.094 171.891 392.854 171.803 392.689 171.627C392.531 171.451 392.452 171.231 392.452 170.968ZM398.358 173.49L398.411 174.686C399.138 173.771 400.087 173.314 401.259 173.314C403.269 173.314 404.282 174.448 404.3 176.716V183H402.674V176.707C402.668 176.021 402.51 175.515 402.199 175.187C401.895 174.858 401.417 174.694 400.767 174.694C400.239 174.694 399.776 174.835 399.378 175.116C398.979 175.397 398.669 175.767 398.446 176.224V183H396.82V173.49H398.358ZM412.623 183C412.529 182.812 412.453 182.479 412.395 181.998C411.639 182.783 410.736 183.176 409.688 183.176C408.75 183.176 407.979 182.912 407.376 182.385C406.778 181.852 406.479 181.178 406.479 180.363C406.479 179.373 406.854 178.605 407.604 178.061C408.36 177.51 409.421 177.234 410.786 177.234H412.368V176.487C412.368 175.919 412.198 175.468 411.858 175.134C411.519 174.794 411.018 174.624 410.355 174.624C409.775 174.624 409.289 174.771 408.896 175.063C408.504 175.356 408.308 175.711 408.308 176.127H406.673C406.673 175.652 406.84 175.195 407.174 174.756C407.514 174.311 407.971 173.959 408.545 173.701C409.125 173.443 409.761 173.314 410.452 173.314C411.548 173.314 412.406 173.59 413.027 174.141C413.648 174.686 413.971 175.438 413.994 176.399V180.776C413.994 181.649 414.105 182.344 414.328 182.859V183H412.623ZM409.925 181.761C410.435 181.761 410.918 181.629 411.375 181.365C411.832 181.102 412.163 180.759 412.368 180.337V178.386H411.094C409.102 178.386 408.105 178.969 408.105 180.135C408.105 180.645 408.275 181.043 408.615 181.33C408.955 181.617 409.392 181.761 409.925 181.761ZM418.31 183H416.684V169.5H418.31V183ZM432.873 177.085H427.327V181.62H433.77V183H425.64V170.203H433.682V171.592H427.327V175.705H432.873V177.085ZM438.806 176.962L440.915 173.49H442.813L439.702 178.192L442.91 183H441.029L438.832 179.44L436.635 183H434.745L437.953 178.192L434.842 173.49H436.723L438.806 176.962ZM448.315 183.176C447.026 183.176 445.978 182.754 445.169 181.91C444.36 181.061 443.956 179.927 443.956 178.509V178.21C443.956 177.267 444.135 176.426 444.492 175.688C444.855 174.943 445.359 174.363 446.004 173.947C446.654 173.525 447.357 173.314 448.113 173.314C449.35 173.314 450.311 173.722 450.996 174.536C451.682 175.351 452.024 176.517 452.024 178.034V178.711H445.582C445.605 179.648 445.878 180.407 446.399 180.987C446.927 181.562 447.595 181.849 448.403 181.849C448.978 181.849 449.464 181.731 449.862 181.497C450.261 181.263 450.609 180.952 450.908 180.565L451.901 181.339C451.104 182.563 449.909 183.176 448.315 183.176ZM448.113 174.65C447.457 174.65 446.906 174.891 446.461 175.371C446.016 175.846 445.74 176.514 445.635 177.375H450.398V177.252C450.352 176.426 450.129 175.787 449.73 175.336C449.332 174.879 448.793 174.65 448.113 174.65ZM457.729 181.849C458.309 181.849 458.815 181.673 459.249 181.321C459.683 180.97 459.923 180.53 459.97 180.003H461.508C461.479 180.548 461.291 181.066 460.945 181.559C460.6 182.051 460.137 182.443 459.557 182.736C458.982 183.029 458.373 183.176 457.729 183.176C456.434 183.176 455.402 182.745 454.635 181.884C453.873 181.017 453.492 179.833 453.492 178.333V178.061C453.492 177.135 453.662 176.312 454.002 175.591C454.342 174.87 454.828 174.311 455.461 173.912C456.1 173.514 456.853 173.314 457.72 173.314C458.786 173.314 459.671 173.634 460.374 174.272C461.083 174.911 461.461 175.74 461.508 176.76H459.97C459.923 176.145 459.688 175.641 459.267 175.248C458.851 174.85 458.335 174.65 457.72 174.65C456.894 174.65 456.252 174.949 455.795 175.547C455.344 176.139 455.118 176.997 455.118 178.122V178.43C455.118 179.525 455.344 180.369 455.795 180.961C456.246 181.553 456.891 181.849 457.729 181.849ZM469.207 182.06C468.574 182.804 467.646 183.176 466.421 183.176C465.407 183.176 464.634 182.883 464.101 182.297C463.573 181.705 463.307 180.832 463.301 179.678V173.49H464.927V179.634C464.927 181.075 465.513 181.796 466.685 181.796C467.927 181.796 468.753 181.333 469.163 180.407V173.49H470.789V183H469.242L469.207 182.06ZM475.474 171.188V173.49H477.249V174.747H475.474V180.645C475.474 181.025 475.553 181.312 475.711 181.506C475.869 181.693 476.139 181.787 476.52 181.787C476.707 181.787 476.965 181.752 477.293 181.682V183C476.865 183.117 476.449 183.176 476.045 183.176C475.318 183.176 474.771 182.956 474.401 182.517C474.032 182.077 473.848 181.453 473.848 180.645V174.747H472.116V173.49H473.848V171.188H475.474ZM485.027 183C484.934 182.812 484.857 182.479 484.799 181.998C484.043 182.783 483.141 183.176 482.092 183.176C481.154 183.176 480.384 182.912 479.78 182.385C479.183 181.852 478.884 181.178 478.884 180.363C478.884 179.373 479.259 178.605 480.009 178.061C480.765 177.51 481.825 177.234 483.19 177.234H484.772V176.487C484.772 175.919 484.603 175.468 484.263 175.134C483.923 174.794 483.422 174.624 482.76 174.624C482.18 174.624 481.693 174.771 481.301 175.063C480.908 175.356 480.712 175.711 480.712 176.127H479.077C479.077 175.652 479.244 175.195 479.578 174.756C479.918 174.311 480.375 173.959 480.949 173.701C481.529 173.443 482.165 173.314 482.856 173.314C483.952 173.314 484.811 173.59 485.432 174.141C486.053 174.686 486.375 175.438 486.398 176.399V180.776C486.398 181.649 486.51 182.344 486.732 182.859V183H485.027ZM482.329 181.761C482.839 181.761 483.322 181.629 483.779 181.365C484.236 181.102 484.567 180.759 484.772 180.337V178.386H483.498C481.506 178.386 480.51 178.969 480.51 180.135C480.51 180.645 480.68 181.043 481.02 181.33C481.359 181.617 481.796 181.761 482.329 181.761ZM496.998 178.351C496.998 179.804 496.664 180.973 495.996 181.857C495.328 182.736 494.432 183.176 493.307 183.176C492.105 183.176 491.177 182.751 490.521 181.901L490.441 183H488.947V169.5H490.573V174.536C491.229 173.722 492.135 173.314 493.289 173.314C494.443 173.314 495.349 173.751 496.005 174.624C496.667 175.497 496.998 176.692 496.998 178.21V178.351ZM495.372 178.166C495.372 177.059 495.158 176.203 494.73 175.6C494.303 174.996 493.688 174.694 492.885 174.694C491.812 174.694 491.042 175.192 490.573 176.188V180.302C491.071 181.298 491.848 181.796 492.902 181.796C493.682 181.796 494.288 181.494 494.722 180.891C495.155 180.287 495.372 179.379 495.372 178.166ZM500.821 183H499.195V169.5H500.821V183ZM507.378 183.176C506.089 183.176 505.04 182.754 504.231 181.91C503.423 181.061 503.019 179.927 503.019 178.509V178.21C503.019 177.267 503.197 176.426 503.555 175.688C503.918 174.943 504.422 174.363 505.066 173.947C505.717 173.525 506.42 173.314 507.176 173.314C508.412 173.314 509.373 173.722 510.059 174.536C510.744 175.351 511.087 176.517 511.087 178.034V178.711H504.645C504.668 179.648 504.94 180.407 505.462 180.987C505.989 181.562 506.657 181.849 507.466 181.849C508.04 181.849 508.526 181.731 508.925 181.497C509.323 181.263 509.672 180.952 509.971 180.565L510.964 181.339C510.167 182.563 508.972 183.176 507.378 183.176ZM507.176 174.65C506.52 174.65 505.969 174.891 505.523 175.371C505.078 175.846 504.803 176.514 504.697 177.375H509.461V177.252C509.414 176.426 509.191 175.787 508.793 175.336C508.395 174.879 507.855 174.65 507.176 174.65ZM363.993 198.806C363.993 197.481 364.169 196.21 364.521 194.991C364.878 193.772 365.408 192.665 366.111 191.669C366.814 190.673 367.544 189.97 368.3 189.56L368.634 190.632C367.778 191.288 367.075 192.29 366.524 193.638C365.979 194.985 365.681 196.494 365.628 198.164L365.619 198.911C365.619 201.173 366.032 203.136 366.858 204.8C367.356 205.796 367.948 206.575 368.634 207.138L368.3 208.131C367.521 207.697 366.776 206.971 366.067 205.951C364.685 203.959 363.993 201.577 363.993 198.806ZM377.695 198.085H372.149V202.62H378.592V204H370.462V191.203H378.504V192.592H372.149V196.705H377.695V198.085ZM381.976 194.49L382.028 195.686C382.755 194.771 383.704 194.314 384.876 194.314C386.886 194.314 387.899 195.448 387.917 197.716V204H386.291V197.707C386.285 197.021 386.127 196.515 385.816 196.187C385.512 195.858 385.034 195.694 384.384 195.694C383.856 195.694 383.394 195.835 382.995 196.116C382.597 196.397 382.286 196.767 382.063 197.224V204H380.438V194.49H381.976ZM394.184 202.849C394.764 202.849 395.271 202.673 395.704 202.321C396.138 201.97 396.378 201.53 396.425 201.003H397.963C397.934 201.548 397.746 202.066 397.4 202.559C397.055 203.051 396.592 203.443 396.012 203.736C395.438 204.029 394.828 204.176 394.184 204.176C392.889 204.176 391.857 203.745 391.09 202.884C390.328 202.017 389.947 200.833 389.947 199.333V199.061C389.947 198.135 390.117 197.312 390.457 196.591C390.797 195.87 391.283 195.311 391.916 194.912C392.555 194.514 393.308 194.314 394.175 194.314C395.241 194.314 396.126 194.634 396.829 195.272C397.538 195.911 397.916 196.74 397.963 197.76H396.425C396.378 197.145 396.144 196.641 395.722 196.248C395.306 195.85 394.79 195.65 394.175 195.65C393.349 195.65 392.707 195.949 392.25 196.547C391.799 197.139 391.573 197.997 391.573 199.122V199.43C391.573 200.525 391.799 201.369 392.25 201.961C392.701 202.553 393.346 202.849 394.184 202.849ZM404.388 195.949C404.142 195.908 403.875 195.888 403.588 195.888C402.521 195.888 401.798 196.342 401.417 197.25V204H399.791V194.49H401.373L401.399 195.589C401.933 194.739 402.688 194.314 403.667 194.314C403.983 194.314 404.224 194.355 404.388 194.438V195.949ZM409.16 201.618L411.375 194.49H413.115L409.292 205.468C408.7 207.05 407.76 207.841 406.471 207.841L406.163 207.814L405.557 207.7V206.382L405.996 206.417C406.547 206.417 406.975 206.306 407.279 206.083C407.59 205.86 407.845 205.453 408.044 204.861L408.404 203.895L405.012 194.49H406.787L409.16 201.618ZM422.607 199.351C422.607 200.798 422.276 201.964 421.614 202.849C420.952 203.733 420.056 204.176 418.925 204.176C417.771 204.176 416.862 203.81 416.2 203.077V207.656H414.574V194.49H416.06L416.139 195.545C416.801 194.725 417.721 194.314 418.898 194.314C420.041 194.314 420.943 194.745 421.605 195.606C422.273 196.468 422.607 197.666 422.607 199.201V199.351ZM420.981 199.166C420.981 198.094 420.753 197.247 420.296 196.626C419.839 196.005 419.212 195.694 418.415 195.694C417.431 195.694 416.692 196.131 416.2 197.004V201.548C416.687 202.415 417.431 202.849 418.433 202.849C419.212 202.849 419.83 202.541 420.287 201.926C420.75 201.305 420.981 200.385 420.981 199.166ZM426.888 192.188V194.49H428.663V195.747H426.888V201.645C426.888 202.025 426.967 202.312 427.125 202.506C427.283 202.693 427.553 202.787 427.934 202.787C428.121 202.787 428.379 202.752 428.707 202.682V204C428.279 204.117 427.863 204.176 427.459 204.176C426.732 204.176 426.185 203.956 425.815 203.517C425.446 203.077 425.262 202.453 425.262 201.645V195.747H423.53V194.49H425.262V192.188H426.888ZM434.517 204.176C433.228 204.176 432.179 203.754 431.37 202.91C430.562 202.061 430.157 200.927 430.157 199.509V199.21C430.157 198.267 430.336 197.426 430.693 196.688C431.057 195.943 431.561 195.363 432.205 194.947C432.855 194.525 433.559 194.314 434.314 194.314C435.551 194.314 436.512 194.722 437.197 195.536C437.883 196.351 438.226 197.517 438.226 199.034V199.711H431.783C431.807 200.648 432.079 201.407 432.601 201.987C433.128 202.562 433.796 202.849 434.604 202.849C435.179 202.849 435.665 202.731 436.063 202.497C436.462 202.263 436.811 201.952 437.109 201.565L438.103 202.339C437.306 203.563 436.11 204.176 434.517 204.176ZM434.314 195.65C433.658 195.65 433.107 195.891 432.662 196.371C432.217 196.846 431.941 197.514 431.836 198.375H436.6V198.252C436.553 197.426 436.33 196.787 435.932 196.336C435.533 195.879 434.994 195.65 434.314 195.65ZM439.72 199.166C439.72 197.707 440.065 196.535 440.757 195.65C441.448 194.76 442.354 194.314 443.473 194.314C444.586 194.314 445.468 194.695 446.118 195.457V190.5H447.744V204H446.25L446.171 202.98C445.521 203.777 444.615 204.176 443.455 204.176C442.354 204.176 441.454 203.725 440.757 202.822C440.065 201.92 439.72 200.742 439.72 199.289V199.166ZM441.346 199.351C441.346 200.429 441.568 201.272 442.014 201.882C442.459 202.491 443.074 202.796 443.859 202.796C444.891 202.796 445.644 202.333 446.118 201.407V197.039C445.632 196.143 444.885 195.694 443.877 195.694C443.08 195.694 442.459 196.002 442.014 196.617C441.568 197.232 441.346 198.144 441.346 199.351ZM460.611 204C460.518 203.812 460.441 203.479 460.383 202.998C459.627 203.783 458.725 204.176 457.676 204.176C456.738 204.176 455.968 203.912 455.364 203.385C454.767 202.852 454.468 202.178 454.468 201.363C454.468 200.373 454.843 199.605 455.593 199.061C456.349 198.51 457.409 198.234 458.774 198.234H460.356V197.487C460.356 196.919 460.187 196.468 459.847 196.134C459.507 195.794 459.006 195.624 458.344 195.624C457.764 195.624 457.277 195.771 456.885 196.063C456.492 196.356 456.296 196.711 456.296 197.127H454.661C454.661 196.652 454.828 196.195 455.162 195.756C455.502 195.311 455.959 194.959 456.533 194.701C457.113 194.443 457.749 194.314 458.44 194.314C459.536 194.314 460.395 194.59 461.016 195.141C461.637 195.686 461.959 196.438 461.982 197.399V201.776C461.982 202.649 462.094 203.344 462.316 203.859V204H460.611ZM457.913 202.761C458.423 202.761 458.906 202.629 459.363 202.365C459.82 202.102 460.151 201.759 460.356 201.337V199.386H459.082C457.09 199.386 456.094 199.969 456.094 201.135C456.094 201.645 456.264 202.043 456.604 202.33C456.943 202.617 457.38 202.761 457.913 202.761ZM466.069 194.49L466.122 195.686C466.849 194.771 467.798 194.314 468.97 194.314C470.979 194.314 471.993 195.448 472.011 197.716V204H470.385V197.707C470.379 197.021 470.221 196.515 469.91 196.187C469.605 195.858 469.128 195.694 468.478 195.694C467.95 195.694 467.487 195.835 467.089 196.116C466.69 196.397 466.38 196.767 466.157 197.224V204H464.531V194.49H466.069ZM474.067 199.166C474.067 197.707 474.413 196.535 475.104 195.65C475.796 194.76 476.701 194.314 477.82 194.314C478.934 194.314 479.815 194.695 480.466 195.457V190.5H482.092V204H480.598L480.519 202.98C479.868 203.777 478.963 204.176 477.803 204.176C476.701 204.176 475.802 203.725 475.104 202.822C474.413 201.92 474.067 200.742 474.067 199.289V199.166ZM475.693 199.351C475.693 200.429 475.916 201.272 476.361 201.882C476.807 202.491 477.422 202.796 478.207 202.796C479.238 202.796 479.991 202.333 480.466 201.407V197.039C479.979 196.143 479.232 195.694 478.225 195.694C477.428 195.694 476.807 196.002 476.361 196.617C475.916 197.232 475.693 198.144 475.693 199.351ZM484.948 205.099H483.551L488.895 191.203H490.283L484.948 205.099ZM491.61 199.157C491.61 198.226 491.792 197.388 492.155 196.644C492.524 195.899 493.034 195.325 493.685 194.921C494.341 194.517 495.088 194.314 495.926 194.314C497.221 194.314 498.267 194.763 499.063 195.659C499.866 196.556 500.268 197.748 500.268 199.236V199.351C500.268 200.276 500.089 201.108 499.731 201.847C499.38 202.579 498.873 203.15 498.211 203.561C497.555 203.971 496.799 204.176 495.943 204.176C494.654 204.176 493.608 203.728 492.806 202.831C492.009 201.935 491.61 200.748 491.61 199.271V199.157ZM493.245 199.351C493.245 200.405 493.488 201.252 493.975 201.891C494.467 202.529 495.123 202.849 495.943 202.849C496.77 202.849 497.426 202.526 497.912 201.882C498.398 201.231 498.642 200.323 498.642 199.157C498.642 198.114 498.393 197.271 497.895 196.626C497.402 195.976 496.746 195.65 495.926 195.65C495.123 195.65 494.476 195.97 493.983 196.608C493.491 197.247 493.245 198.161 493.245 199.351ZM506.903 195.949C506.657 195.908 506.391 195.888 506.104 195.888C505.037 195.888 504.313 196.342 503.933 197.25V204H502.307V194.49H503.889L503.915 195.589C504.448 194.739 505.204 194.314 506.183 194.314C506.499 194.314 506.739 194.355 506.903 194.438V195.949ZM387.258 223.849C387.838 223.849 388.345 223.673 388.778 223.321C389.212 222.97 389.452 222.53 389.499 222.003H391.037C391.008 222.548 390.82 223.066 390.475 223.559C390.129 224.051 389.666 224.443 389.086 224.736C388.512 225.029 387.902 225.176 387.258 225.176C385.963 225.176 384.932 224.745 384.164 223.884C383.402 223.017 383.021 221.833 383.021 220.333V220.061C383.021 219.135 383.191 218.312 383.531 217.591C383.871 216.87 384.357 216.311 384.99 215.912C385.629 215.514 386.382 215.314 387.249 215.314C388.315 215.314 389.2 215.634 389.903 216.272C390.612 216.911 390.99 217.74 391.037 218.76H389.499C389.452 218.145 389.218 217.641 388.796 217.248C388.38 216.85 387.864 216.65 387.249 216.65C386.423 216.65 385.781 216.949 385.324 217.547C384.873 218.139 384.647 218.997 384.647 220.122V220.43C384.647 221.525 384.873 222.369 385.324 222.961C385.775 223.553 386.42 223.849 387.258 223.849ZM392.435 220.157C392.435 219.226 392.616 218.388 392.979 217.644C393.349 216.899 393.858 216.325 394.509 215.921C395.165 215.517 395.912 215.314 396.75 215.314C398.045 215.314 399.091 215.763 399.888 216.659C400.69 217.556 401.092 218.748 401.092 220.236V220.351C401.092 221.276 400.913 222.108 400.556 222.847C400.204 223.579 399.697 224.15 399.035 224.561C398.379 224.971 397.623 225.176 396.768 225.176C395.479 225.176 394.433 224.728 393.63 223.831C392.833 222.935 392.435 221.748 392.435 220.271V220.157ZM394.069 220.351C394.069 221.405 394.312 222.252 394.799 222.891C395.291 223.529 395.947 223.849 396.768 223.849C397.594 223.849 398.25 223.526 398.736 222.882C399.223 222.231 399.466 221.323 399.466 220.157C399.466 219.114 399.217 218.271 398.719 217.626C398.227 216.976 397.57 216.65 396.75 216.65C395.947 216.65 395.3 216.97 394.808 217.608C394.315 218.247 394.069 219.161 394.069 220.351ZM404.66 215.49L404.704 216.545C405.401 215.725 406.342 215.314 407.525 215.314C408.855 215.314 409.761 215.824 410.241 216.844C410.558 216.387 410.968 216.018 411.472 215.736C411.981 215.455 412.582 215.314 413.273 215.314C415.359 215.314 416.42 216.419 416.455 218.628V225H414.829V218.725C414.829 218.045 414.674 217.538 414.363 217.204C414.053 216.864 413.531 216.694 412.799 216.694C412.195 216.694 411.694 216.876 411.296 217.239C410.897 217.597 410.666 218.08 410.602 218.689V225H408.967V218.769C408.967 217.386 408.29 216.694 406.937 216.694C405.87 216.694 405.141 217.148 404.748 218.057V225H403.122V215.49H404.66ZM426.949 220.351C426.949 221.798 426.618 222.964 425.956 223.849C425.294 224.733 424.397 225.176 423.267 225.176C422.112 225.176 421.204 224.81 420.542 224.077V228.656H418.916V215.49H420.401L420.48 216.545C421.143 215.725 422.062 215.314 423.24 215.314C424.383 215.314 425.285 215.745 425.947 216.606C426.615 217.468 426.949 218.666 426.949 220.201V220.351ZM425.323 220.166C425.323 219.094 425.095 218.247 424.638 217.626C424.181 217.005 423.554 216.694 422.757 216.694C421.772 216.694 421.034 217.131 420.542 218.004V222.548C421.028 223.415 421.772 223.849 422.774 223.849C423.554 223.849 424.172 223.541 424.629 222.926C425.092 222.305 425.323 221.385 425.323 220.166ZM433.62 216.949C433.374 216.908 433.107 216.888 432.82 216.888C431.754 216.888 431.03 217.342 430.649 218.25V225H429.023V215.49H430.605L430.632 216.589C431.165 215.739 431.921 215.314 432.899 215.314C433.216 215.314 433.456 215.355 433.62 215.438V216.949ZM438.894 225.176C437.604 225.176 436.556 224.754 435.747 223.91C434.938 223.061 434.534 221.927 434.534 220.509V220.21C434.534 219.267 434.713 218.426 435.07 217.688C435.434 216.943 435.938 216.363 436.582 215.947C437.232 215.525 437.936 215.314 438.691 215.314C439.928 215.314 440.889 215.722 441.574 216.536C442.26 217.351 442.603 218.517 442.603 220.034V220.711H436.16C436.184 221.648 436.456 222.407 436.978 222.987C437.505 223.562 438.173 223.849 438.981 223.849C439.556 223.849 440.042 223.731 440.44 223.497C440.839 223.263 441.188 222.952 441.486 222.565L442.479 223.339C441.683 224.563 440.487 225.176 438.894 225.176ZM438.691 216.65C438.035 216.65 437.484 216.891 437.039 217.371C436.594 217.846 436.318 218.514 436.213 219.375H440.977V219.252C440.93 218.426 440.707 217.787 440.309 217.336C439.91 216.879 439.371 216.65 438.691 216.65ZM450.029 222.478C450.029 222.038 449.862 221.698 449.528 221.458C449.2 221.212 448.623 221.001 447.797 220.825C446.977 220.649 446.323 220.438 445.837 220.192C445.356 219.946 444.999 219.653 444.765 219.313C444.536 218.974 444.422 218.569 444.422 218.101C444.422 217.321 444.75 216.662 445.406 216.123C446.068 215.584 446.912 215.314 447.938 215.314C449.016 215.314 449.889 215.593 450.557 216.149C451.23 216.706 451.567 217.418 451.567 218.285H449.933C449.933 217.84 449.742 217.456 449.361 217.134C448.986 216.812 448.512 216.65 447.938 216.65C447.346 216.65 446.883 216.779 446.549 217.037C446.215 217.295 446.048 217.632 446.048 218.048C446.048 218.44 446.203 218.736 446.514 218.936C446.824 219.135 447.384 219.325 448.192 219.507C449.007 219.688 449.666 219.905 450.17 220.157C450.674 220.409 451.046 220.714 451.286 221.071C451.532 221.423 451.655 221.854 451.655 222.363C451.655 223.213 451.315 223.896 450.636 224.411C449.956 224.921 449.074 225.176 447.99 225.176C447.229 225.176 446.555 225.041 445.969 224.771C445.383 224.502 444.923 224.127 444.589 223.646C444.261 223.16 444.097 222.636 444.097 222.073H445.723C445.752 222.618 445.969 223.052 446.373 223.374C446.783 223.69 447.322 223.849 447.99 223.849C448.605 223.849 449.098 223.726 449.467 223.479C449.842 223.228 450.029 222.894 450.029 222.478ZM459.311 222.478C459.311 222.038 459.144 221.698 458.81 221.458C458.481 221.212 457.904 221.001 457.078 220.825C456.258 220.649 455.604 220.438 455.118 220.192C454.638 219.946 454.28 219.653 454.046 219.313C453.817 218.974 453.703 218.569 453.703 218.101C453.703 217.321 454.031 216.662 454.688 216.123C455.35 215.584 456.193 215.314 457.219 215.314C458.297 215.314 459.17 215.593 459.838 216.149C460.512 216.706 460.849 217.418 460.849 218.285H459.214C459.214 217.84 459.023 217.456 458.643 217.134C458.268 216.812 457.793 216.65 457.219 216.65C456.627 216.65 456.164 216.779 455.83 217.037C455.496 217.295 455.329 217.632 455.329 218.048C455.329 218.44 455.484 218.736 455.795 218.936C456.105 219.135 456.665 219.325 457.474 219.507C458.288 219.688 458.947 219.905 459.451 220.157C459.955 220.409 460.327 220.714 460.567 221.071C460.813 221.423 460.937 221.854 460.937 222.363C460.937 223.213 460.597 223.896 459.917 224.411C459.237 224.921 458.355 225.176 457.271 225.176C456.51 225.176 455.836 225.041 455.25 224.771C454.664 224.502 454.204 224.127 453.87 223.646C453.542 223.16 453.378 222.636 453.378 222.073H455.004C455.033 222.618 455.25 223.052 455.654 223.374C456.064 223.69 456.604 223.849 457.271 223.849C457.887 223.849 458.379 223.726 458.748 223.479C459.123 223.228 459.311 222.894 459.311 222.478ZM467.001 225.176C465.712 225.176 464.663 224.754 463.854 223.91C463.046 223.061 462.642 221.927 462.642 220.509V220.21C462.642 219.267 462.82 218.426 463.178 217.688C463.541 216.943 464.045 216.363 464.689 215.947C465.34 215.525 466.043 215.314 466.799 215.314C468.035 215.314 468.996 215.722 469.682 216.536C470.367 217.351 470.71 218.517 470.71 220.034V220.711H464.268C464.291 221.648 464.563 222.407 465.085 222.987C465.612 223.562 466.28 223.849 467.089 223.849C467.663 223.849 468.149 223.731 468.548 223.497C468.946 223.263 469.295 222.952 469.594 222.565L470.587 223.339C469.79 224.563 468.595 225.176 467.001 225.176ZM466.799 216.65C466.143 216.65 465.592 216.891 465.146 217.371C464.701 217.846 464.426 218.514 464.32 219.375H469.084V219.252C469.037 218.426 468.814 217.787 468.416 217.336C468.018 216.879 467.479 216.65 466.799 216.65ZM472.204 220.166C472.204 218.707 472.55 217.535 473.241 216.65C473.933 215.76 474.838 215.314 475.957 215.314C477.07 215.314 477.952 215.695 478.603 216.457V211.5H480.229V225H478.734L478.655 223.98C478.005 224.777 477.1 225.176 475.939 225.176C474.838 225.176 473.938 224.725 473.241 223.822C472.55 222.92 472.204 221.742 472.204 220.289V220.166ZM473.83 220.351C473.83 221.429 474.053 222.272 474.498 222.882C474.943 223.491 475.559 223.796 476.344 223.796C477.375 223.796 478.128 223.333 478.603 222.407V218.039C478.116 217.143 477.369 216.694 476.361 216.694C475.564 216.694 474.943 217.002 474.498 217.617C474.053 218.232 473.83 219.144 473.83 220.351ZM486.513 219.894C486.513 221.2 486.34 222.454 485.994 223.655C485.654 224.851 485.13 225.955 484.421 226.969C483.718 227.982 482.979 228.703 482.206 229.131L481.863 228.138C482.766 227.446 483.489 226.374 484.034 224.921C484.585 223.462 484.866 221.845 484.878 220.069V219.788C484.878 218.558 484.749 217.415 484.491 216.36C484.233 215.3 483.873 214.351 483.41 213.513C482.953 212.675 482.438 212.021 481.863 211.553L482.206 210.56C482.979 210.987 483.715 211.702 484.412 212.704C485.115 213.706 485.64 214.811 485.985 216.018C486.337 217.225 486.513 218.517 486.513 219.894Z" fill="black"/>
<rect x="342.5" y="117.5" width="185" height="161" rx="3.5" stroke="black"/>
<path d="M390.027 27.1328L392.434 15.3594H395.13L391.521 31H388.921L385.945 19.5811L382.905 31H380.295L376.686 15.3594H379.382L381.81 27.1113L384.796 15.3594H387.073L390.027 27.1328ZM399.642 31H397.031V19.377H399.642V31ZM396.87 16.3584C396.87 15.9574 396.995 15.6243 397.246 15.3594C397.504 15.0944 397.869 14.9619 398.342 14.9619C398.814 14.9619 399.18 15.0944 399.438 15.3594C399.695 15.6243 399.824 15.9574 399.824 16.3584C399.824 16.7523 399.695 17.0817 399.438 17.3467C399.18 17.6045 398.814 17.7334 398.342 17.7334C397.869 17.7334 397.504 17.6045 397.246 17.3467C396.995 17.0817 396.87 16.7523 396.87 16.3584ZM405.765 16.5518V19.377H407.816V21.3105H405.765V27.7988C405.765 28.2428 405.851 28.5651 406.022 28.7656C406.201 28.959 406.517 29.0557 406.968 29.0557C407.269 29.0557 407.573 29.0199 407.881 28.9482V30.9678C407.286 31.1325 406.714 31.2148 406.162 31.2148C404.157 31.2148 403.154 30.1084 403.154 27.8955V21.3105H401.242V19.377H403.154V16.5518H405.765ZM412.393 20.6445C413.245 19.6562 414.323 19.1621 415.626 19.1621C418.104 19.1621 419.361 20.5765 419.396 23.4053V31H416.786V23.502C416.786 22.6999 416.611 22.1341 416.26 21.8047C415.916 21.4681 415.408 21.2998 414.734 21.2998C413.689 21.2998 412.908 21.7653 412.393 22.6963V31H409.782V14.5H412.393V20.6445ZM437.701 25.3066C437.701 27.1042 437.293 28.54 436.477 29.6143C435.66 30.6813 434.564 31.2148 433.189 31.2148C431.915 31.2148 430.894 30.7959 430.128 29.958V35.4688H427.518V19.377H429.924L430.031 20.5586C430.798 19.6276 431.84 19.1621 433.157 19.1621C434.575 19.1621 435.685 19.6921 436.487 20.752C437.297 21.8047 437.701 23.2692 437.701 25.1455V25.3066ZM435.102 25.0811C435.102 23.9209 434.869 23.0007 434.403 22.3203C433.945 21.64 433.286 21.2998 432.427 21.2998C431.36 21.2998 430.593 21.7402 430.128 22.6211V27.7773C430.601 28.6797 431.374 29.1309 432.448 29.1309C433.279 29.1309 433.927 28.7979 434.393 28.1318C434.865 27.4587 435.102 26.4417 435.102 25.0811ZM446.864 31C446.75 30.778 446.649 30.4163 446.563 29.915C445.733 30.7816 444.716 31.2148 443.513 31.2148C442.345 31.2148 441.393 30.8818 440.655 30.2158C439.918 29.5498 439.549 28.7262 439.549 27.7451C439.549 26.5062 440.007 25.5573 440.924 24.8984C441.848 24.2324 443.165 23.8994 444.877 23.8994H446.478V23.1367C446.478 22.5352 446.309 22.0553 445.973 21.6973C445.636 21.332 445.124 21.1494 444.437 21.1494C443.842 21.1494 443.355 21.2998 442.976 21.6006C442.596 21.8942 442.406 22.2702 442.406 22.7285H439.796C439.796 22.0911 440.007 21.4967 440.43 20.9453C440.852 20.3867 441.425 19.9499 442.148 19.6348C442.879 19.3197 443.692 19.1621 444.587 19.1621C445.948 19.1621 447.033 19.5059 447.842 20.1934C448.651 20.8737 449.066 21.8333 449.088 23.0723V28.3145C449.088 29.36 449.235 30.1943 449.528 30.8174V31H446.864ZM443.996 29.1201C444.512 29.1201 444.995 28.9948 445.446 28.7441C445.905 28.4935 446.248 28.1569 446.478 27.7344V25.543H445.07C444.104 25.543 443.377 25.7113 442.89 26.0479C442.403 26.3844 442.159 26.8607 442.159 27.4766C442.159 27.9779 442.324 28.3789 442.653 28.6797C442.99 28.9733 443.438 29.1201 443.996 29.1201ZM456.597 29.1309C457.248 29.1309 457.789 28.9411 458.219 28.5615C458.648 28.182 458.878 27.7129 458.906 27.1543H461.366C461.338 27.8776 461.112 28.5544 460.689 29.1846C460.267 29.8076 459.694 30.3018 458.971 30.667C458.247 31.0322 457.467 31.2148 456.629 31.2148C455.003 31.2148 453.714 30.6885 452.762 29.6357C451.809 28.583 451.333 27.1292 451.333 25.2744V25.0059C451.333 23.237 451.806 21.8226 452.751 20.7627C453.696 19.6956 454.985 19.1621 456.618 19.1621C458 19.1621 459.125 19.5667 459.991 20.376C460.865 21.1781 461.323 22.2344 461.366 23.5449H458.906C458.878 22.8789 458.648 22.3311 458.219 21.9014C457.796 21.4717 457.256 21.2568 456.597 21.2568C455.752 21.2568 455.1 21.5648 454.642 22.1807C454.183 22.7894 453.951 23.7168 453.943 24.9629V25.3818C453.943 26.6423 454.169 27.584 454.62 28.207C455.078 28.8229 455.737 29.1309 456.597 29.1309ZM467.113 26.0156L465.953 27.208V31H463.343V14.5H465.953V24.0176L466.77 22.9971L469.981 19.377H473.118L468.8 24.2217L473.58 31H470.562L467.113 26.0156ZM479.735 31.2148C478.081 31.2148 476.738 30.6956 475.707 29.6572C474.683 28.6117 474.171 27.2223 474.171 25.4893V25.167C474.171 24.0068 474.393 22.972 474.837 22.0625C475.288 21.1458 475.918 20.4333 476.728 19.9248C477.537 19.4163 478.439 19.1621 479.435 19.1621C481.017 19.1621 482.238 19.667 483.098 20.6768C483.964 21.6865 484.397 23.1152 484.397 24.9629V26.0156H476.803C476.882 26.9753 477.2 27.7344 477.759 28.293C478.325 28.8516 479.034 29.1309 479.886 29.1309C481.082 29.1309 482.056 28.6475 482.808 27.6807L484.215 29.0234C483.749 29.7181 483.126 30.2588 482.346 30.6455C481.572 31.0251 480.702 31.2148 479.735 31.2148ZM479.424 21.2568C478.708 21.2568 478.128 21.5075 477.684 22.0088C477.247 22.5101 476.967 23.2083 476.846 24.1035H481.819V23.9102C481.762 23.0365 481.529 22.3776 481.121 21.9336C480.713 21.4824 480.147 21.2568 479.424 21.2568ZM492.519 21.7617C492.175 21.7044 491.82 21.6758 491.455 21.6758C490.259 21.6758 489.453 22.1341 489.038 23.0508V31H486.428V19.377H488.92L488.984 20.6768C489.615 19.667 490.488 19.1621 491.605 19.1621C491.978 19.1621 492.286 19.2122 492.529 19.3125L492.519 21.7617Z" fill="black"/>
</svg>
