<svg width="600" height="300" viewBox="0 0 600 300" fill="none" xmlns="http://www.w3.org/2000/svg">
<rect width="600" height="300" fill="white"/>
<rect x="11.5" y="29.5" width="239" height="240" rx="5.5" fill="white" stroke="black"/>
<path d="M76.0488 63H73.5879V48.7812H76.0488V63ZM81.0586 52.4336L81.127 53.6543C81.9082 52.7103 82.9336 52.2383 84.2031 52.2383C86.4036 52.2383 87.5234 53.498 87.5625 56.0176V63H85.1895V56.1543C85.1895 55.4837 85.043 54.9889 84.75 54.6699C84.4635 54.3444 83.9915 54.1816 83.334 54.1816C82.377 54.1816 81.6641 54.6146 81.1953 55.4805V63H78.8223V52.4336H81.0586ZM90.8242 63V54.1914H89.2129V52.4336H90.8242V51.4668C90.8242 50.2949 91.1497 49.39 91.8008 48.752C92.4518 48.1139 93.3633 47.7949 94.5352 47.7949C94.9518 47.7949 95.3945 47.8535 95.8633 47.9707L95.8047 49.8262C95.5443 49.7741 95.2415 49.748 94.8965 49.748C93.7637 49.748 93.1973 50.3307 93.1973 51.4961V52.4336H95.3457V54.1914H93.1973V63H90.8242ZM101.498 63.1953C99.9941 63.1953 98.7734 62.7233 97.8359 61.7793C96.9049 60.8288 96.4395 59.5658 96.4395 57.9902V57.6973C96.4395 56.6426 96.6413 55.7018 97.0449 54.875C97.4551 54.0417 98.028 53.3939 98.7637 52.9316C99.4993 52.4694 100.32 52.2383 101.225 52.2383C102.663 52.2383 103.773 52.6973 104.555 53.6152C105.342 54.5332 105.736 55.832 105.736 57.5117V58.4688H98.832C98.9036 59.3411 99.1934 60.0312 99.7012 60.5391C100.215 61.0469 100.86 61.3008 101.635 61.3008C102.722 61.3008 103.607 60.8613 104.291 59.9824L105.57 61.2031C105.147 61.8346 104.581 62.3262 103.871 62.6777C103.168 63.0228 102.377 63.1953 101.498 63.1953ZM101.215 54.1426C100.564 54.1426 100.036 54.3704 99.6328 54.8262C99.2357 55.2819 98.9818 55.9167 98.8711 56.7305H103.393V56.5547C103.34 55.7604 103.129 55.1615 102.758 54.7578C102.387 54.3477 101.872 54.1426 101.215 54.1426ZM111.928 61.3008C112.52 61.3008 113.012 61.1283 113.402 60.7832C113.793 60.4382 114.001 60.0117 114.027 59.5039H116.264C116.238 60.1615 116.033 60.7767 115.648 61.3496C115.264 61.916 114.743 62.3652 114.086 62.6973C113.428 63.0293 112.719 63.1953 111.957 63.1953C110.479 63.1953 109.307 62.7168 108.441 61.7598C107.576 60.8027 107.143 59.4811 107.143 57.7949V57.5508C107.143 55.9427 107.572 54.6569 108.432 53.6934C109.291 52.7233 110.463 52.2383 111.947 52.2383C113.204 52.2383 114.226 52.6061 115.014 53.3418C115.808 54.071 116.225 55.0312 116.264 56.2227H114.027C114.001 55.6172 113.793 55.1191 113.402 54.7285C113.018 54.3379 112.527 54.1426 111.928 54.1426C111.16 54.1426 110.567 54.4225 110.15 54.9824C109.734 55.5358 109.522 56.3789 109.516 57.5117V57.8926C109.516 59.0384 109.721 59.8945 110.131 60.4609C110.548 61.0208 111.146 61.3008 111.928 61.3008ZM121.029 49.8652V52.4336H122.895V54.1914H121.029V60.0898C121.029 60.4935 121.107 60.7865 121.264 60.9688C121.426 61.1445 121.713 61.2324 122.123 61.2324C122.396 61.2324 122.673 61.1999 122.953 61.1348V62.9707C122.413 63.1204 121.892 63.1953 121.391 63.1953C119.568 63.1953 118.656 62.1895 118.656 60.1777V54.1914H116.918V52.4336H118.656V49.8652H121.029ZM129.369 63.1953C127.865 63.1953 126.645 62.7233 125.707 61.7793C124.776 60.8288 124.311 59.5658 124.311 57.9902V57.6973C124.311 56.6426 124.512 55.7018 124.916 54.875C125.326 54.0417 125.899 53.3939 126.635 52.9316C127.37 52.4694 128.191 52.2383 129.096 52.2383C130.535 52.2383 131.645 52.6973 132.426 53.6152C133.214 54.5332 133.607 55.832 133.607 57.5117V58.4688H126.703C126.775 59.3411 127.064 60.0312 127.572 60.5391C128.087 61.0469 128.731 61.3008 129.506 61.3008C130.593 61.3008 131.479 60.8613 132.162 59.9824L133.441 61.2031C133.018 61.8346 132.452 62.3262 131.742 62.6777C131.039 63.0228 130.248 63.1953 129.369 63.1953ZM129.086 54.1426C128.435 54.1426 127.908 54.3704 127.504 54.8262C127.107 55.2819 126.853 55.9167 126.742 56.7305H131.264V56.5547C131.212 55.7604 131 55.1615 130.629 54.7578C130.258 54.3477 129.743 54.1426 129.086 54.1426ZM135.014 57.6387C135.014 56.0111 135.391 54.7057 136.146 53.7227C136.902 52.7331 137.914 52.2383 139.184 52.2383C140.303 52.2383 141.208 52.6289 141.898 53.4102V48H144.271V63H142.123L142.006 61.9062C141.296 62.7656 140.349 63.1953 139.164 63.1953C137.927 63.1953 136.924 62.6973 136.156 61.7012C135.395 60.7051 135.014 59.3509 135.014 57.6387ZM137.387 57.8438C137.387 58.918 137.592 59.7578 138.002 60.3633C138.419 60.9622 139.008 61.2617 139.77 61.2617C140.74 61.2617 141.449 60.8288 141.898 59.9629V55.4512C141.462 54.6048 140.759 54.1816 139.789 54.1816C139.021 54.1816 138.428 54.4876 138.012 55.0996C137.595 55.7051 137.387 56.6198 137.387 57.8438ZM154.066 53.5859C154.841 52.6875 155.821 52.2383 157.006 52.2383C159.258 52.2383 160.401 53.5241 160.434 56.0957V63H158.061V56.1836C158.061 55.4544 157.901 54.9401 157.582 54.6406C157.27 54.3346 156.807 54.1816 156.195 54.1816C155.245 54.1816 154.535 54.6048 154.066 55.4512V63H151.693V48H154.066V53.5859ZM162.396 57.6191C162.396 56.584 162.602 55.653 163.012 54.8262C163.422 53.9928 163.998 53.3548 164.74 52.9121C165.482 52.4629 166.335 52.2383 167.299 52.2383C168.725 52.2383 169.88 52.6973 170.766 53.6152C171.658 54.5332 172.139 55.7507 172.211 57.2676L172.221 57.8242C172.221 58.8659 172.019 59.7969 171.615 60.6172C171.218 61.4375 170.645 62.0723 169.896 62.5215C169.154 62.9707 168.295 63.1953 167.318 63.1953C165.827 63.1953 164.633 62.7005 163.734 61.7109C162.842 60.7148 162.396 59.39 162.396 57.7363V57.6191ZM164.77 57.8242C164.77 58.9115 164.994 59.7643 165.443 60.3828C165.893 60.9948 166.518 61.3008 167.318 61.3008C168.119 61.3008 168.741 60.9883 169.184 60.3633C169.633 59.7383 169.857 58.8236 169.857 57.6191C169.857 56.5514 169.626 55.7051 169.164 55.0801C168.708 54.4551 168.087 54.1426 167.299 54.1426C166.524 54.1426 165.909 54.4518 165.453 55.0703C164.997 55.6823 164.77 56.6003 164.77 57.8242ZM180.15 60.1289C180.15 59.7057 179.975 59.3835 179.623 59.1621C179.278 58.9408 178.702 58.7454 177.895 58.5762C177.087 58.4069 176.413 58.1921 175.873 57.9316C174.688 57.3587 174.096 56.5286 174.096 55.4414C174.096 54.5299 174.48 53.7682 175.248 53.1562C176.016 52.5443 176.993 52.2383 178.178 52.2383C179.441 52.2383 180.46 52.5508 181.234 53.1758C182.016 53.8008 182.406 54.6113 182.406 55.6074H180.033C180.033 55.1517 179.864 54.7741 179.525 54.4746C179.187 54.1686 178.738 54.0156 178.178 54.0156C177.657 54.0156 177.23 54.1361 176.898 54.377C176.573 54.6178 176.41 54.9401 176.41 55.3438C176.41 55.7083 176.563 55.9915 176.869 56.1934C177.175 56.3952 177.794 56.6003 178.725 56.8086C179.656 57.0104 180.385 57.2546 180.912 57.541C181.446 57.821 181.84 58.1595 182.094 58.5566C182.354 58.9538 182.484 59.4355 182.484 60.002C182.484 60.9525 182.09 61.724 181.303 62.3164C180.515 62.9023 179.483 63.1953 178.207 63.1953C177.341 63.1953 176.57 63.0391 175.893 62.7266C175.215 62.4141 174.688 61.9844 174.311 61.4375C173.933 60.8906 173.744 60.3014 173.744 59.6699H176.049C176.081 60.2298 176.293 60.6628 176.684 60.9688C177.074 61.2682 177.592 61.418 178.236 61.418C178.861 61.418 179.337 61.3008 179.662 61.0664C179.988 60.8255 180.15 60.513 180.15 60.1289ZM187.533 49.8652V52.4336H189.398V54.1914H187.533V60.0898C187.533 60.4935 187.611 60.7865 187.768 60.9688C187.93 61.1445 188.217 61.2324 188.627 61.2324C188.9 61.2324 189.177 61.1999 189.457 61.1348V62.9707C188.917 63.1204 188.396 63.1953 187.895 63.1953C186.072 63.1953 185.16 62.1895 185.16 60.1777V54.1914H183.422V52.4336H185.16V49.8652H187.533ZM69.9688 74.4902L70.0127 75.5449C70.71 74.7246 71.6504 74.3145 72.834 74.3145C74.1641 74.3145 75.0693 74.8242 75.5498 75.8438C75.8662 75.3867 76.2764 75.0176 76.7803 74.7363C77.29 74.4551 77.8906 74.3145 78.582 74.3145C80.668 74.3145 81.7285 75.4189 81.7637 77.6279V84H80.1377V77.7246C80.1377 77.0449 79.9824 76.5381 79.6719 76.2041C79.3613 75.8643 78.8398 75.6943 78.1074 75.6943C77.5039 75.6943 77.0029 75.876 76.6045 76.2393C76.2061 76.5967 75.9746 77.0801 75.9102 77.6895V84H74.2754V77.7686C74.2754 76.3857 73.5986 75.6943 72.2451 75.6943C71.1787 75.6943 70.4492 76.1484 70.0566 77.0566V84H68.4307V74.4902H69.9688ZM90.0957 84C90.002 83.8125 89.9258 83.4785 89.8672 82.998C89.1113 83.7832 88.209 84.1758 87.1602 84.1758C86.2227 84.1758 85.4521 83.9121 84.8486 83.3848C84.251 82.8516 83.9521 82.1777 83.9521 81.3633C83.9521 80.373 84.3271 79.6055 85.0771 79.0605C85.833 78.5098 86.8936 78.2344 88.2588 78.2344H89.8408V77.4873C89.8408 76.9189 89.6709 76.4678 89.3311 76.1338C88.9912 75.7939 88.4902 75.624 87.8281 75.624C87.248 75.624 86.7617 75.7705 86.3691 76.0635C85.9766 76.3564 85.7803 76.7109 85.7803 77.127H84.1455C84.1455 76.6523 84.3125 76.1953 84.6465 75.7559C84.9863 75.3105 85.4434 74.959 86.0176 74.7012C86.5977 74.4434 87.2334 74.3145 87.9248 74.3145C89.0205 74.3145 89.8789 74.5898 90.5 75.1406C91.1211 75.6855 91.4434 76.4385 91.4668 77.3994V81.7764C91.4668 82.6494 91.5781 83.3438 91.8008 83.8594V84H90.0957ZM87.3975 82.7607C87.9072 82.7607 88.3906 82.6289 88.8477 82.3652C89.3047 82.1016 89.6357 81.7588 89.8408 81.3369V79.3857H88.5664C86.5742 79.3857 85.5781 79.9688 85.5781 81.1348C85.5781 81.6445 85.748 82.043 86.0879 82.3301C86.4277 82.6172 86.8643 82.7607 87.3975 82.7607ZM97.8301 82.8486C98.4102 82.8486 98.917 82.6729 99.3506 82.3213C99.7842 81.9697 100.024 81.5303 100.071 81.0029H101.609C101.58 81.5479 101.393 82.0664 101.047 82.5586C100.701 83.0508 100.238 83.4434 99.6582 83.7363C99.084 84.0293 98.4746 84.1758 97.8301 84.1758C96.5352 84.1758 95.5039 83.7451 94.7363 82.8838C93.9746 82.0166 93.5938 80.833 93.5938 79.333V79.0605C93.5938 78.1348 93.7637 77.3115 94.1035 76.5908C94.4434 75.8701 94.9297 75.3105 95.5625 74.9121C96.2012 74.5137 96.9541 74.3145 97.8213 74.3145C98.8877 74.3145 99.7725 74.6338 100.476 75.2725C101.185 75.9111 101.562 76.7402 101.609 77.7598H100.071C100.024 77.1445 99.79 76.6406 99.3682 76.248C98.9521 75.8496 98.4365 75.6504 97.8213 75.6504C96.9951 75.6504 96.3535 75.9492 95.8965 76.5469C95.4453 77.1387 95.2197 77.9971 95.2197 79.1221V79.4297C95.2197 80.5254 95.4453 81.3691 95.8965 81.9609C96.3477 82.5527 96.9922 82.8486 97.8301 82.8486ZM113.536 78.0146C113.536 79.2686 113.325 80.3643 112.903 81.3018C112.481 82.2334 111.884 82.9453 111.11 83.4375C110.337 83.9297 109.435 84.1758 108.403 84.1758C107.396 84.1758 106.502 83.9297 105.723 83.4375C104.943 82.9395 104.337 82.2334 103.903 81.3193C103.476 80.3994 103.256 79.3359 103.244 78.1289V77.2061C103.244 75.9756 103.458 74.8887 103.886 73.9453C104.313 73.002 104.917 72.2812 105.696 71.7832C106.481 71.2793 107.378 71.0273 108.386 71.0273C109.411 71.0273 110.313 71.2764 111.093 71.7744C111.878 72.2666 112.481 72.9844 112.903 73.9277C113.325 74.8652 113.536 75.958 113.536 77.2061V78.0146ZM111.857 77.1885C111.857 75.6709 111.553 74.5078 110.943 73.6992C110.334 72.8848 109.481 72.4775 108.386 72.4775C107.319 72.4775 106.479 72.8848 105.863 73.6992C105.254 74.5078 104.94 75.6328 104.923 77.0742V78.0146C104.923 79.4854 105.23 80.6426 105.846 81.4863C106.467 82.3242 107.319 82.7432 108.403 82.7432C109.493 82.7432 110.337 82.3477 110.935 81.5566C111.532 80.7598 111.84 79.6201 111.857 78.1377V77.1885ZM119.838 78.2959C118.391 77.8799 117.336 77.3701 116.674 76.7666C116.018 76.1572 115.689 75.4072 115.689 74.5166C115.689 73.5088 116.091 72.6768 116.894 72.0205C117.702 71.3584 118.751 71.0273 120.04 71.0273C120.919 71.0273 121.701 71.1973 122.387 71.5371C123.078 71.877 123.611 72.3457 123.986 72.9434C124.367 73.541 124.558 74.1943 124.558 74.9033H122.861C122.861 74.1299 122.615 73.5234 122.123 73.084C121.631 72.6387 120.937 72.416 120.04 72.416C119.208 72.416 118.558 72.6006 118.089 72.9697C117.626 73.333 117.395 73.8398 117.395 74.4902C117.395 75.0117 117.614 75.4541 118.054 75.8174C118.499 76.1748 119.252 76.5029 120.312 76.8018C121.379 77.1006 122.211 77.4316 122.809 77.7949C123.412 78.1523 123.857 78.5713 124.145 79.0518C124.438 79.5322 124.584 80.0977 124.584 80.748C124.584 81.7852 124.18 82.6172 123.371 83.2441C122.562 83.8652 121.481 84.1758 120.128 84.1758C119.249 84.1758 118.429 84.0088 117.667 83.6748C116.905 83.335 116.316 82.8721 115.9 82.2861C115.49 81.7002 115.285 81.0352 115.285 80.291H116.981C116.981 81.0645 117.266 81.6768 117.834 82.1279C118.408 82.5732 119.173 82.7959 120.128 82.7959C121.019 82.7959 121.701 82.6143 122.176 82.251C122.65 81.8877 122.888 81.3926 122.888 80.7656C122.888 80.1387 122.668 79.6553 122.229 79.3154C121.789 78.9697 120.992 78.6299 119.838 78.2959ZM136.836 84C136.742 83.8125 136.666 83.4785 136.607 82.998C135.852 83.7832 134.949 84.1758 133.9 84.1758C132.963 84.1758 132.192 83.9121 131.589 83.3848C130.991 82.8516 130.692 82.1777 130.692 81.3633C130.692 80.373 131.067 79.6055 131.817 79.0605C132.573 78.5098 133.634 78.2344 134.999 78.2344H136.581V77.4873C136.581 76.9189 136.411 76.4678 136.071 76.1338C135.731 75.7939 135.23 75.624 134.568 75.624C133.988 75.624 133.502 75.7705 133.109 76.0635C132.717 76.3564 132.521 76.7109 132.521 77.127H130.886C130.886 76.6523 131.053 76.1953 131.387 75.7559C131.727 75.3105 132.184 74.959 132.758 74.7012C133.338 74.4434 133.974 74.3145 134.665 74.3145C135.761 74.3145 136.619 74.5898 137.24 75.1406C137.861 75.6855 138.184 76.4385 138.207 77.3994V81.7764C138.207 82.6494 138.318 83.3438 138.541 83.8594V84H136.836ZM134.138 82.7607C134.647 82.7607 135.131 82.6289 135.588 82.3652C136.045 82.1016 136.376 81.7588 136.581 81.3369V79.3857H135.307C133.314 79.3857 132.318 79.9688 132.318 81.1348C132.318 81.6445 132.488 82.043 132.828 82.3301C133.168 82.6172 133.604 82.7607 134.138 82.7607ZM146.627 84C146.533 83.8125 146.457 83.4785 146.398 82.998C145.643 83.7832 144.74 84.1758 143.691 84.1758C142.754 84.1758 141.983 83.9121 141.38 83.3848C140.782 82.8516 140.483 82.1777 140.483 81.3633C140.483 80.373 140.858 79.6055 141.608 79.0605C142.364 78.5098 143.425 78.2344 144.79 78.2344H146.372V77.4873C146.372 76.9189 146.202 76.4678 145.862 76.1338C145.522 75.7939 145.021 75.624 144.359 75.624C143.779 75.624 143.293 75.7705 142.9 76.0635C142.508 76.3564 142.312 76.7109 142.312 77.127H140.677C140.677 76.6523 140.844 76.1953 141.178 75.7559C141.518 75.3105 141.975 74.959 142.549 74.7012C143.129 74.4434 143.765 74.3145 144.456 74.3145C145.552 74.3145 146.41 74.5898 147.031 75.1406C147.652 75.6855 147.975 76.4385 147.998 77.3994V81.7764C147.998 82.6494 148.109 83.3438 148.332 83.8594V84H146.627ZM143.929 82.7607C144.438 82.7607 144.922 82.6289 145.379 82.3652C145.836 82.1016 146.167 81.7588 146.372 81.3369V79.3857H145.098C143.105 79.3857 142.109 79.9688 142.109 81.1348C142.109 81.6445 142.279 82.043 142.619 82.3301C142.959 82.6172 143.396 82.7607 143.929 82.7607ZM155.144 75.9492C154.897 75.9082 154.631 75.8877 154.344 75.8877C153.277 75.8877 152.554 76.3418 152.173 77.25V84H150.547V74.4902H152.129L152.155 75.5889C152.688 74.7393 153.444 74.3145 154.423 74.3145C154.739 74.3145 154.979 74.3555 155.144 74.4375V75.9492ZM160.285 82.8486C160.865 82.8486 161.372 82.6729 161.806 82.3213C162.239 81.9697 162.479 81.5303 162.526 81.0029H164.064C164.035 81.5479 163.848 82.0664 163.502 82.5586C163.156 83.0508 162.693 83.4434 162.113 83.7363C161.539 84.0293 160.93 84.1758 160.285 84.1758C158.99 84.1758 157.959 83.7451 157.191 82.8838C156.43 82.0166 156.049 80.833 156.049 79.333V79.0605C156.049 78.1348 156.219 77.3115 156.559 76.5908C156.898 75.8701 157.385 75.3105 158.018 74.9121C158.656 74.5137 159.409 74.3145 160.276 74.3145C161.343 74.3145 162.228 74.6338 162.931 75.2725C163.64 75.9111 164.018 76.7402 164.064 77.7598H162.526C162.479 77.1445 162.245 76.6406 161.823 76.248C161.407 75.8496 160.892 75.6504 160.276 75.6504C159.45 75.6504 158.809 75.9492 158.352 76.5469C157.9 77.1387 157.675 77.9971 157.675 79.1221V79.4297C157.675 80.5254 157.9 81.3691 158.352 81.9609C158.803 82.5527 159.447 82.8486 160.285 82.8486ZM167.519 75.6416C168.239 74.7568 169.177 74.3145 170.331 74.3145C172.341 74.3145 173.354 75.4482 173.372 77.7158V84H171.746V77.707C171.74 77.0215 171.582 76.5146 171.271 76.1865C170.967 75.8584 170.489 75.6943 169.839 75.6943C169.312 75.6943 168.849 75.835 168.45 76.1162C168.052 76.3975 167.741 76.7666 167.519 77.2236V84H165.893V70.5H167.519V75.6416ZM182.021 71.1943V72.5742H181.722C180.456 72.5977 179.448 72.9727 178.698 73.6992C177.948 74.4258 177.515 75.4482 177.397 76.7666C178.071 75.9932 178.991 75.6064 180.157 75.6064C181.271 75.6064 182.158 75.999 182.82 76.7842C183.488 77.5693 183.822 78.583 183.822 79.8252C183.822 81.1436 183.462 82.1982 182.741 82.9893C182.026 83.7803 181.065 84.1758 179.858 84.1758C178.634 84.1758 177.641 83.707 176.879 82.7695C176.117 81.8262 175.736 80.6133 175.736 79.1309V78.5068C175.736 76.1514 176.237 74.3525 177.239 73.1104C178.247 71.8623 179.744 71.2236 181.73 71.1943H182.021ZM179.885 76.96C179.328 76.96 178.815 77.127 178.347 77.4609C177.878 77.7949 177.553 78.2139 177.371 78.7178V79.3154C177.371 80.3701 177.608 81.2197 178.083 81.8643C178.558 82.5088 179.149 82.8311 179.858 82.8311C180.591 82.8311 181.165 82.5615 181.581 82.0225C182.003 81.4834 182.214 80.7773 182.214 79.9043C182.214 79.0254 182 78.3164 181.572 77.7773C181.15 77.2324 180.588 76.96 179.885 76.96ZM192.611 79.7021H194.387V81.0293H192.611V84H190.977V81.0293H185.149V80.0713L190.88 71.2031H192.611V79.7021ZM186.995 79.7021H190.977V73.4268L190.783 73.7783L186.995 79.7021Z" fill="black"/>
<path d="M36.6807 126.215C36.6807 125.705 36.8418 125.286 37.1641 124.958C37.4922 124.63 37.9258 124.466 38.4648 124.466C38.998 124.466 39.4316 124.627 39.7656 124.949C40.0996 125.266 40.2666 125.696 40.2666 126.241V126.566C40.2666 127.076 40.1055 127.492 39.7832 127.814C39.4609 128.137 39.0244 128.298 38.4736 128.298C37.9287 128.298 37.4922 128.137 37.1641 127.814C36.8418 127.486 36.6807 127.064 36.6807 126.549V126.215ZM59.1016 133C59.0078 132.812 58.9316 132.479 58.873 131.998C58.1172 132.783 57.2148 133.176 56.166 133.176C55.2285 133.176 54.458 132.912 53.8545 132.385C53.2568 131.852 52.958 131.178 52.958 130.363C52.958 129.373 53.333 128.605 54.083 128.061C54.8389 127.51 55.8994 127.234 57.2646 127.234H58.8467V126.487C58.8467 125.919 58.6768 125.468 58.3369 125.134C57.9971 124.794 57.4961 124.624 56.834 124.624C56.2539 124.624 55.7676 124.771 55.375 125.063C54.9824 125.356 54.7861 125.711 54.7861 126.127H53.1514C53.1514 125.652 53.3184 125.195 53.6523 124.756C53.9922 124.311 54.4492 123.959 55.0234 123.701C55.6035 123.443 56.2393 123.314 56.9307 123.314C58.0264 123.314 58.8848 123.59 59.5059 124.141C60.127 124.686 60.4492 125.438 60.4727 126.399V130.776C60.4727 131.649 60.584 132.344 60.8066 132.859V133H59.1016ZM56.4033 131.761C56.9131 131.761 57.3965 131.629 57.8535 131.365C58.3105 131.102 58.6416 130.759 58.8467 130.337V128.386H57.5723C55.5801 128.386 54.584 128.969 54.584 130.135C54.584 130.645 54.7539 131.043 55.0938 131.33C55.4336 131.617 55.8701 131.761 56.4033 131.761ZM62.6348 128.166C62.6348 126.684 62.9775 125.506 63.6631 124.633C64.3486 123.754 65.2568 123.314 66.3877 123.314C67.5479 123.314 68.4531 123.725 69.1035 124.545L69.1826 123.49H70.668V132.771C70.668 134.002 70.3018 134.972 69.5693 135.681C68.8428 136.39 67.8643 136.744 66.6338 136.744C65.9482 136.744 65.2773 136.598 64.6211 136.305C63.9648 136.012 63.4639 135.61 63.1182 135.101L63.9619 134.125C64.6592 134.986 65.5117 135.417 66.5195 135.417C67.3105 135.417 67.9258 135.194 68.3652 134.749C68.8105 134.304 69.0332 133.677 69.0332 132.868V132.051C68.3828 132.801 67.4951 133.176 66.3701 133.176C65.2568 133.176 64.3545 132.728 63.6631 131.831C62.9775 130.935 62.6348 129.713 62.6348 128.166ZM64.2695 128.351C64.2695 129.423 64.4893 130.267 64.9287 130.882C65.3682 131.491 65.9834 131.796 66.7744 131.796C67.7998 131.796 68.5527 131.33 69.0332 130.398V126.057C68.5352 125.148 67.7881 124.694 66.792 124.694C66.001 124.694 65.3828 125.002 64.9375 125.617C64.4922 126.232 64.2695 127.144 64.2695 128.351ZM77.0752 133.176C75.7861 133.176 74.7373 132.754 73.9287 131.91C73.1201 131.061 72.7158 129.927 72.7158 128.509V128.21C72.7158 127.267 72.8945 126.426 73.252 125.688C73.6152 124.943 74.1191 124.363 74.7637 123.947C75.4141 123.525 76.1172 123.314 76.873 123.314C78.1094 123.314 79.0703 123.722 79.7559 124.536C80.4414 125.351 80.7842 126.517 80.7842 128.034V128.711H74.3418C74.3652 129.648 74.6377 130.407 75.1592 130.987C75.6865 131.562 76.3545 131.849 77.1631 131.849C77.7373 131.849 78.2236 131.731 78.6221 131.497C79.0205 131.263 79.3691 130.952 79.668 130.565L80.6611 131.339C79.8643 132.563 78.6689 133.176 77.0752 133.176ZM76.873 124.65C76.2168 124.65 75.666 124.891 75.2207 125.371C74.7754 125.846 74.5 126.514 74.3945 127.375H79.1582V127.252C79.1113 126.426 78.8887 125.787 78.4902 125.336C78.0918 124.879 77.5527 124.65 76.873 124.65ZM84.2119 123.49L84.2646 124.686C84.9912 123.771 85.9404 123.314 87.1123 123.314C89.1221 123.314 90.1357 124.448 90.1533 126.716V133H88.5273V126.707C88.5215 126.021 88.3633 125.515 88.0527 125.187C87.748 124.858 87.2705 124.694 86.6201 124.694C86.0928 124.694 85.6299 124.835 85.2314 125.116C84.833 125.397 84.5225 125.767 84.2998 126.224V133H82.6738V123.49H84.2119ZM94.8115 121.188V123.49H96.5869V124.747H94.8115V130.645C94.8115 131.025 94.8906 131.312 95.0488 131.506C95.207 131.693 95.4766 131.787 95.8574 131.787C96.0449 131.787 96.3027 131.752 96.6309 131.682V133C96.2031 133.117 95.7871 133.176 95.3828 133.176C94.6562 133.176 94.1084 132.956 93.7393 132.517C93.3701 132.077 93.1855 131.453 93.1855 130.645V124.747H91.4541V123.49H93.1855V121.188H94.8115ZM104.488 123.49L104.532 124.545C105.229 123.725 106.17 123.314 107.354 123.314C108.684 123.314 109.589 123.824 110.069 124.844C110.386 124.387 110.796 124.018 111.3 123.736C111.81 123.455 112.41 123.314 113.102 123.314C115.188 123.314 116.248 124.419 116.283 126.628V133H114.657V126.725C114.657 126.045 114.502 125.538 114.191 125.204C113.881 124.864 113.359 124.694 112.627 124.694C112.023 124.694 111.522 124.876 111.124 125.239C110.726 125.597 110.494 126.08 110.43 126.689V133H108.795V126.769C108.795 125.386 108.118 124.694 106.765 124.694C105.698 124.694 104.969 125.148 104.576 126.057V133H102.95V123.49H104.488ZM124.615 133C124.521 132.812 124.445 132.479 124.387 131.998C123.631 132.783 122.729 133.176 121.68 133.176C120.742 133.176 119.972 132.912 119.368 132.385C118.771 131.852 118.472 131.178 118.472 130.363C118.472 129.373 118.847 128.605 119.597 128.061C120.353 127.51 121.413 127.234 122.778 127.234H124.36V126.487C124.36 125.919 124.19 125.468 123.851 125.134C123.511 124.794 123.01 124.624 122.348 124.624C121.768 124.624 121.281 124.771 120.889 125.063C120.496 125.356 120.3 125.711 120.3 126.127H118.665C118.665 125.652 118.832 125.195 119.166 124.756C119.506 124.311 119.963 123.959 120.537 123.701C121.117 123.443 121.753 123.314 122.444 123.314C123.54 123.314 124.398 123.59 125.02 124.141C125.641 124.686 125.963 125.438 125.986 126.399V130.776C125.986 131.649 126.098 132.344 126.32 132.859V133H124.615ZM121.917 131.761C122.427 131.761 122.91 131.629 123.367 131.365C123.824 131.102 124.155 130.759 124.36 130.337V128.386H123.086C121.094 128.386 120.098 128.969 120.098 130.135C120.098 130.645 120.268 131.043 120.607 131.33C120.947 131.617 121.384 131.761 121.917 131.761ZM132.35 131.849C132.93 131.849 133.437 131.673 133.87 131.321C134.304 130.97 134.544 130.53 134.591 130.003H136.129C136.1 130.548 135.912 131.066 135.566 131.559C135.221 132.051 134.758 132.443 134.178 132.736C133.604 133.029 132.994 133.176 132.35 133.176C131.055 133.176 130.023 132.745 129.256 131.884C128.494 131.017 128.113 129.833 128.113 128.333V128.061C128.113 127.135 128.283 126.312 128.623 125.591C128.963 124.87 129.449 124.311 130.082 123.912C130.721 123.514 131.474 123.314 132.341 123.314C133.407 123.314 134.292 123.634 134.995 124.272C135.704 124.911 136.082 125.74 136.129 126.76H134.591C134.544 126.145 134.31 125.641 133.888 125.248C133.472 124.85 132.956 124.65 132.341 124.65C131.515 124.65 130.873 124.949 130.416 125.547C129.965 126.139 129.739 126.997 129.739 128.122V128.43C129.739 129.525 129.965 130.369 130.416 130.961C130.867 131.553 131.512 131.849 132.35 131.849ZM148.056 127.015C148.056 128.269 147.845 129.364 147.423 130.302C147.001 131.233 146.403 131.945 145.63 132.438C144.856 132.93 143.954 133.176 142.923 133.176C141.915 133.176 141.021 132.93 140.242 132.438C139.463 131.939 138.856 131.233 138.423 130.319C137.995 129.399 137.775 128.336 137.764 127.129V126.206C137.764 124.976 137.978 123.889 138.405 122.945C138.833 122.002 139.437 121.281 140.216 120.783C141.001 120.279 141.897 120.027 142.905 120.027C143.931 120.027 144.833 120.276 145.612 120.774C146.397 121.267 147.001 121.984 147.423 122.928C147.845 123.865 148.056 124.958 148.056 126.206V127.015ZM146.377 126.188C146.377 124.671 146.072 123.508 145.463 122.699C144.854 121.885 144.001 121.478 142.905 121.478C141.839 121.478 140.998 121.885 140.383 122.699C139.773 123.508 139.46 124.633 139.442 126.074V127.015C139.442 128.485 139.75 129.643 140.365 130.486C140.986 131.324 141.839 131.743 142.923 131.743C144.013 131.743 144.856 131.348 145.454 130.557C146.052 129.76 146.359 128.62 146.377 127.138V126.188ZM154.357 127.296C152.91 126.88 151.855 126.37 151.193 125.767C150.537 125.157 150.209 124.407 150.209 123.517C150.209 122.509 150.61 121.677 151.413 121.021C152.222 120.358 153.271 120.027 154.56 120.027C155.438 120.027 156.221 120.197 156.906 120.537C157.598 120.877 158.131 121.346 158.506 121.943C158.887 122.541 159.077 123.194 159.077 123.903H157.381C157.381 123.13 157.135 122.523 156.643 122.084C156.15 121.639 155.456 121.416 154.56 121.416C153.728 121.416 153.077 121.601 152.608 121.97C152.146 122.333 151.914 122.84 151.914 123.49C151.914 124.012 152.134 124.454 152.573 124.817C153.019 125.175 153.771 125.503 154.832 125.802C155.898 126.101 156.73 126.432 157.328 126.795C157.932 127.152 158.377 127.571 158.664 128.052C158.957 128.532 159.104 129.098 159.104 129.748C159.104 130.785 158.699 131.617 157.891 132.244C157.082 132.865 156.001 133.176 154.647 133.176C153.769 133.176 152.948 133.009 152.187 132.675C151.425 132.335 150.836 131.872 150.42 131.286C150.01 130.7 149.805 130.035 149.805 129.291H151.501C151.501 130.064 151.785 130.677 152.354 131.128C152.928 131.573 153.692 131.796 154.647 131.796C155.538 131.796 156.221 131.614 156.695 131.251C157.17 130.888 157.407 130.393 157.407 129.766C157.407 129.139 157.188 128.655 156.748 128.315C156.309 127.97 155.512 127.63 154.357 127.296ZM167.875 134.327H159.824V133H167.875V134.327ZM175.012 133C174.918 132.812 174.842 132.479 174.783 131.998C174.027 132.783 173.125 133.176 172.076 133.176C171.139 133.176 170.368 132.912 169.765 132.385C169.167 131.852 168.868 131.178 168.868 130.363C168.868 129.373 169.243 128.605 169.993 128.061C170.749 127.51 171.81 127.234 173.175 127.234H174.757V126.487C174.757 125.919 174.587 125.468 174.247 125.134C173.907 124.794 173.406 124.624 172.744 124.624C172.164 124.624 171.678 124.771 171.285 125.063C170.893 125.356 170.696 125.711 170.696 126.127H169.062C169.062 125.652 169.229 125.195 169.562 124.756C169.902 124.311 170.359 123.959 170.934 123.701C171.514 123.443 172.149 123.314 172.841 123.314C173.937 123.314 174.795 123.59 175.416 124.141C176.037 124.686 176.359 125.438 176.383 126.399V130.776C176.383 131.649 176.494 132.344 176.717 132.859V133H175.012ZM172.313 131.761C172.823 131.761 173.307 131.629 173.764 131.365C174.221 131.102 174.552 130.759 174.757 130.337V128.386H173.482C171.49 128.386 170.494 128.969 170.494 130.135C170.494 130.645 170.664 131.043 171.004 131.33C171.344 131.617 171.78 131.761 172.313 131.761ZM184.803 133C184.709 132.812 184.633 132.479 184.574 131.998C183.818 132.783 182.916 133.176 181.867 133.176C180.93 133.176 180.159 132.912 179.556 132.385C178.958 131.852 178.659 131.178 178.659 130.363C178.659 129.373 179.034 128.605 179.784 128.061C180.54 127.51 181.601 127.234 182.966 127.234H184.548V126.487C184.548 125.919 184.378 125.468 184.038 125.134C183.698 124.794 183.197 124.624 182.535 124.624C181.955 124.624 181.469 124.771 181.076 125.063C180.684 125.356 180.487 125.711 180.487 126.127H178.853C178.853 125.652 179.02 125.195 179.354 124.756C179.693 124.311 180.15 123.959 180.725 123.701C181.305 123.443 181.94 123.314 182.632 123.314C183.728 123.314 184.586 123.59 185.207 124.141C185.828 124.686 186.15 125.438 186.174 126.399V130.776C186.174 131.649 186.285 132.344 186.508 132.859V133H184.803ZM182.104 131.761C182.614 131.761 183.098 131.629 183.555 131.365C184.012 131.102 184.343 130.759 184.548 130.337V128.386H183.273C181.281 128.386 180.285 128.969 180.285 130.135C180.285 130.645 180.455 131.043 180.795 131.33C181.135 131.617 181.571 131.761 182.104 131.761ZM193.319 124.949C193.073 124.908 192.807 124.888 192.52 124.888C191.453 124.888 190.729 125.342 190.349 126.25V133H188.723V123.49H190.305L190.331 124.589C190.864 123.739 191.62 123.314 192.599 123.314C192.915 123.314 193.155 123.355 193.319 123.438V124.949ZM198.461 131.849C199.041 131.849 199.548 131.673 199.981 131.321C200.415 130.97 200.655 130.53 200.702 130.003H202.24C202.211 130.548 202.023 131.066 201.678 131.559C201.332 132.051 200.869 132.443 200.289 132.736C199.715 133.029 199.105 133.176 198.461 133.176C197.166 133.176 196.135 132.745 195.367 131.884C194.605 131.017 194.225 129.833 194.225 128.333V128.061C194.225 127.135 194.395 126.312 194.734 125.591C195.074 124.87 195.561 124.311 196.193 123.912C196.832 123.514 197.585 123.314 198.452 123.314C199.519 123.314 200.403 123.634 201.106 124.272C201.815 124.911 202.193 125.74 202.24 126.76H200.702C200.655 126.145 200.421 125.641 199.999 125.248C199.583 124.85 199.067 124.65 198.452 124.65C197.626 124.65 196.984 124.949 196.527 125.547C196.076 126.139 195.851 126.997 195.851 128.122V128.43C195.851 129.525 196.076 130.369 196.527 130.961C196.979 131.553 197.623 131.849 198.461 131.849ZM205.694 124.642C206.415 123.757 207.353 123.314 208.507 123.314C210.517 123.314 211.53 124.448 211.548 126.716V133H209.922V126.707C209.916 126.021 209.758 125.515 209.447 125.187C209.143 124.858 208.665 124.694 208.015 124.694C207.487 124.694 207.024 124.835 206.626 125.116C206.228 125.397 205.917 125.767 205.694 126.224V133H204.068V119.5H205.694V124.642ZM220.196 120.194V121.574H219.897C218.632 121.598 217.624 121.973 216.874 122.699C216.124 123.426 215.69 124.448 215.573 125.767C216.247 124.993 217.167 124.606 218.333 124.606C219.446 124.606 220.334 124.999 220.996 125.784C221.664 126.569 221.998 127.583 221.998 128.825C221.998 130.144 221.638 131.198 220.917 131.989C220.202 132.78 219.241 133.176 218.034 133.176C216.81 133.176 215.816 132.707 215.055 131.77C214.293 130.826 213.912 129.613 213.912 128.131V127.507C213.912 125.151 214.413 123.353 215.415 122.11C216.423 120.862 217.92 120.224 219.906 120.194H220.196ZM218.061 125.96C217.504 125.96 216.991 126.127 216.522 126.461C216.054 126.795 215.729 127.214 215.547 127.718V128.315C215.547 129.37 215.784 130.22 216.259 130.864C216.733 131.509 217.325 131.831 218.034 131.831C218.767 131.831 219.341 131.562 219.757 131.022C220.179 130.483 220.39 129.777 220.39 128.904C220.39 128.025 220.176 127.316 219.748 126.777C219.326 126.232 218.764 125.96 218.061 125.96ZM230.787 128.702H232.562V130.029H230.787V133H229.152V130.029H223.325V129.071L229.056 120.203H230.787V128.702ZM225.171 128.702H229.152V122.427L228.959 122.778L225.171 128.702ZM36.6807 147.215C36.6807 146.705 36.8418 146.286 37.1641 145.958C37.4922 145.63 37.9258 145.466 38.4648 145.466C38.998 145.466 39.4316 145.627 39.7656 145.949C40.0996 146.266 40.2666 146.696 40.2666 147.241V147.566C40.2666 148.076 40.1055 148.492 39.7832 148.814C39.4609 149.137 39.0244 149.298 38.4736 149.298C37.9287 149.298 37.4922 149.137 37.1641 148.814C36.8418 148.486 36.6807 148.064 36.6807 147.549V147.215ZM59.1016 154C59.0078 153.812 58.9316 153.479 58.873 152.998C58.1172 153.783 57.2148 154.176 56.166 154.176C55.2285 154.176 54.458 153.912 53.8545 153.385C53.2568 152.852 52.958 152.178 52.958 151.363C52.958 150.373 53.333 149.605 54.083 149.061C54.8389 148.51 55.8994 148.234 57.2646 148.234H58.8467V147.487C58.8467 146.919 58.6768 146.468 58.3369 146.134C57.9971 145.794 57.4961 145.624 56.834 145.624C56.2539 145.624 55.7676 145.771 55.375 146.063C54.9824 146.356 54.7861 146.711 54.7861 147.127H53.1514C53.1514 146.652 53.3184 146.195 53.6523 145.756C53.9922 145.311 54.4492 144.959 55.0234 144.701C55.6035 144.443 56.2393 144.314 56.9307 144.314C58.0264 144.314 58.8848 144.59 59.5059 145.141C60.127 145.686 60.4492 146.438 60.4727 147.399V151.776C60.4727 152.649 60.584 153.344 60.8066 153.859V154H59.1016ZM56.4033 152.761C56.9131 152.761 57.3965 152.629 57.8535 152.365C58.3105 152.102 58.6416 151.759 58.8467 151.337V149.386H57.5723C55.5801 149.386 54.584 149.969 54.584 151.135C54.584 151.645 54.7539 152.043 55.0938 152.33C55.4336 152.617 55.8701 152.761 56.4033 152.761ZM62.6348 149.166C62.6348 147.684 62.9775 146.506 63.6631 145.633C64.3486 144.754 65.2568 144.314 66.3877 144.314C67.5479 144.314 68.4531 144.725 69.1035 145.545L69.1826 144.49H70.668V153.771C70.668 155.002 70.3018 155.972 69.5693 156.681C68.8428 157.39 67.8643 157.744 66.6338 157.744C65.9482 157.744 65.2773 157.598 64.6211 157.305C63.9648 157.012 63.4639 156.61 63.1182 156.101L63.9619 155.125C64.6592 155.986 65.5117 156.417 66.5195 156.417C67.3105 156.417 67.9258 156.194 68.3652 155.749C68.8105 155.304 69.0332 154.677 69.0332 153.868V153.051C68.3828 153.801 67.4951 154.176 66.3701 154.176C65.2568 154.176 64.3545 153.728 63.6631 152.831C62.9775 151.935 62.6348 150.713 62.6348 149.166ZM64.2695 149.351C64.2695 150.423 64.4893 151.267 64.9287 151.882C65.3682 152.491 65.9834 152.796 66.7744 152.796C67.7998 152.796 68.5527 152.33 69.0332 151.398V147.057C68.5352 146.148 67.7881 145.694 66.792 145.694C66.001 145.694 65.3828 146.002 64.9375 146.617C64.4922 147.232 64.2695 148.144 64.2695 149.351ZM77.0752 154.176C75.7861 154.176 74.7373 153.754 73.9287 152.91C73.1201 152.061 72.7158 150.927 72.7158 149.509V149.21C72.7158 148.267 72.8945 147.426 73.252 146.688C73.6152 145.943 74.1191 145.363 74.7637 144.947C75.4141 144.525 76.1172 144.314 76.873 144.314C78.1094 144.314 79.0703 144.722 79.7559 145.536C80.4414 146.351 80.7842 147.517 80.7842 149.034V149.711H74.3418C74.3652 150.648 74.6377 151.407 75.1592 151.987C75.6865 152.562 76.3545 152.849 77.1631 152.849C77.7373 152.849 78.2236 152.731 78.6221 152.497C79.0205 152.263 79.3691 151.952 79.668 151.565L80.6611 152.339C79.8643 153.563 78.6689 154.176 77.0752 154.176ZM76.873 145.65C76.2168 145.65 75.666 145.891 75.2207 146.371C74.7754 146.846 74.5 147.514 74.3945 148.375H79.1582V148.252C79.1113 147.426 78.8887 146.787 78.4902 146.336C78.0918 145.879 77.5527 145.65 76.873 145.65ZM84.2119 144.49L84.2646 145.686C84.9912 144.771 85.9404 144.314 87.1123 144.314C89.1221 144.314 90.1357 145.448 90.1533 147.716V154H88.5273V147.707C88.5215 147.021 88.3633 146.515 88.0527 146.187C87.748 145.858 87.2705 145.694 86.6201 145.694C86.0928 145.694 85.6299 145.835 85.2314 146.116C84.833 146.397 84.5225 146.767 84.2998 147.224V154H82.6738V144.49H84.2119ZM94.8115 142.188V144.49H96.5869V145.747H94.8115V151.645C94.8115 152.025 94.8906 152.312 95.0488 152.506C95.207 152.693 95.4766 152.787 95.8574 152.787C96.0449 152.787 96.3027 152.752 96.6309 152.682V154C96.2031 154.117 95.7871 154.176 95.3828 154.176C94.6562 154.176 94.1084 153.956 93.7393 153.517C93.3701 153.077 93.1855 152.453 93.1855 151.645V145.747H91.4541V144.49H93.1855V142.188H94.8115ZM104.488 144.49L104.532 145.545C105.229 144.725 106.17 144.314 107.354 144.314C108.684 144.314 109.589 144.824 110.069 145.844C110.386 145.387 110.796 145.018 111.3 144.736C111.81 144.455 112.41 144.314 113.102 144.314C115.188 144.314 116.248 145.419 116.283 147.628V154H114.657V147.725C114.657 147.045 114.502 146.538 114.191 146.204C113.881 145.864 113.359 145.694 112.627 145.694C112.023 145.694 111.522 145.876 111.124 146.239C110.726 146.597 110.494 147.08 110.43 147.689V154H108.795V147.769C108.795 146.386 108.118 145.694 106.765 145.694C105.698 145.694 104.969 146.148 104.576 147.057V154H102.95V144.49H104.488ZM124.615 154C124.521 153.812 124.445 153.479 124.387 152.998C123.631 153.783 122.729 154.176 121.68 154.176C120.742 154.176 119.972 153.912 119.368 153.385C118.771 152.852 118.472 152.178 118.472 151.363C118.472 150.373 118.847 149.605 119.597 149.061C120.353 148.51 121.413 148.234 122.778 148.234H124.36V147.487C124.36 146.919 124.19 146.468 123.851 146.134C123.511 145.794 123.01 145.624 122.348 145.624C121.768 145.624 121.281 145.771 120.889 146.063C120.496 146.356 120.3 146.711 120.3 147.127H118.665C118.665 146.652 118.832 146.195 119.166 145.756C119.506 145.311 119.963 144.959 120.537 144.701C121.117 144.443 121.753 144.314 122.444 144.314C123.54 144.314 124.398 144.59 125.02 145.141C125.641 145.686 125.963 146.438 125.986 147.399V151.776C125.986 152.649 126.098 153.344 126.32 153.859V154H124.615ZM121.917 152.761C122.427 152.761 122.91 152.629 123.367 152.365C123.824 152.102 124.155 151.759 124.36 151.337V149.386H123.086C121.094 149.386 120.098 149.969 120.098 151.135C120.098 151.645 120.268 152.043 120.607 152.33C120.947 152.617 121.384 152.761 121.917 152.761ZM132.35 152.849C132.93 152.849 133.437 152.673 133.87 152.321C134.304 151.97 134.544 151.53 134.591 151.003H136.129C136.1 151.548 135.912 152.066 135.566 152.559C135.221 153.051 134.758 153.443 134.178 153.736C133.604 154.029 132.994 154.176 132.35 154.176C131.055 154.176 130.023 153.745 129.256 152.884C128.494 152.017 128.113 150.833 128.113 149.333V149.061C128.113 148.135 128.283 147.312 128.623 146.591C128.963 145.87 129.449 145.311 130.082 144.912C130.721 144.514 131.474 144.314 132.341 144.314C133.407 144.314 134.292 144.634 134.995 145.272C135.704 145.911 136.082 146.74 136.129 147.76H134.591C134.544 147.145 134.31 146.641 133.888 146.248C133.472 145.85 132.956 145.65 132.341 145.65C131.515 145.65 130.873 145.949 130.416 146.547C129.965 147.139 129.739 147.997 129.739 149.122V149.43C129.739 150.525 129.965 151.369 130.416 151.961C130.867 152.553 131.512 152.849 132.35 152.849ZM148.056 148.015C148.056 149.269 147.845 150.364 147.423 151.302C147.001 152.233 146.403 152.945 145.63 153.438C144.856 153.93 143.954 154.176 142.923 154.176C141.915 154.176 141.021 153.93 140.242 153.438C139.463 152.939 138.856 152.233 138.423 151.319C137.995 150.399 137.775 149.336 137.764 148.129V147.206C137.764 145.976 137.978 144.889 138.405 143.945C138.833 143.002 139.437 142.281 140.216 141.783C141.001 141.279 141.897 141.027 142.905 141.027C143.931 141.027 144.833 141.276 145.612 141.774C146.397 142.267 147.001 142.984 147.423 143.928C147.845 144.865 148.056 145.958 148.056 147.206V148.015ZM146.377 147.188C146.377 145.671 146.072 144.508 145.463 143.699C144.854 142.885 144.001 142.478 142.905 142.478C141.839 142.478 140.998 142.885 140.383 143.699C139.773 144.508 139.46 145.633 139.442 147.074V148.015C139.442 149.485 139.75 150.643 140.365 151.486C140.986 152.324 141.839 152.743 142.923 152.743C144.013 152.743 144.856 152.348 145.454 151.557C146.052 150.76 146.359 149.62 146.377 148.138V147.188ZM154.357 148.296C152.91 147.88 151.855 147.37 151.193 146.767C150.537 146.157 150.209 145.407 150.209 144.517C150.209 143.509 150.61 142.677 151.413 142.021C152.222 141.358 153.271 141.027 154.56 141.027C155.438 141.027 156.221 141.197 156.906 141.537C157.598 141.877 158.131 142.346 158.506 142.943C158.887 143.541 159.077 144.194 159.077 144.903H157.381C157.381 144.13 157.135 143.523 156.643 143.084C156.15 142.639 155.456 142.416 154.56 142.416C153.728 142.416 153.077 142.601 152.608 142.97C152.146 143.333 151.914 143.84 151.914 144.49C151.914 145.012 152.134 145.454 152.573 145.817C153.019 146.175 153.771 146.503 154.832 146.802C155.898 147.101 156.73 147.432 157.328 147.795C157.932 148.152 158.377 148.571 158.664 149.052C158.957 149.532 159.104 150.098 159.104 150.748C159.104 151.785 158.699 152.617 157.891 153.244C157.082 153.865 156.001 154.176 154.647 154.176C153.769 154.176 152.948 154.009 152.187 153.675C151.425 153.335 150.836 152.872 150.42 152.286C150.01 151.7 149.805 151.035 149.805 150.291H151.501C151.501 151.064 151.785 151.677 152.354 152.128C152.928 152.573 153.692 152.796 154.647 152.796C155.538 152.796 156.221 152.614 156.695 152.251C157.17 151.888 157.407 151.393 157.407 150.766C157.407 150.139 157.188 149.655 156.748 149.315C156.309 148.97 155.512 148.63 154.357 148.296ZM167.875 155.327H159.824V154H167.875V155.327ZM172.331 147.962L174.44 144.49H176.339L173.228 149.192L176.436 154H174.555L172.357 150.44L170.16 154H168.271L171.479 149.192L168.367 144.49H170.248L172.331 147.962ZM185.664 144.543C185.664 145.182 185.494 145.75 185.154 146.248C184.82 146.746 184.366 147.136 183.792 147.417C184.46 147.704 184.987 148.123 185.374 148.674C185.767 149.225 185.963 149.849 185.963 150.546C185.963 151.653 185.588 152.535 184.838 153.191C184.094 153.848 183.112 154.176 181.894 154.176C180.663 154.176 179.676 153.848 178.932 153.191C178.193 152.529 177.824 151.647 177.824 150.546C177.824 149.854 178.012 149.23 178.387 148.674C178.768 148.117 179.292 147.695 179.96 147.408C179.392 147.127 178.943 146.737 178.615 146.239C178.287 145.741 178.123 145.176 178.123 144.543C178.123 143.465 178.469 142.609 179.16 141.977C179.852 141.344 180.763 141.027 181.894 141.027C183.019 141.027 183.927 141.344 184.618 141.977C185.315 142.609 185.664 143.465 185.664 144.543ZM184.337 150.511C184.337 149.796 184.108 149.213 183.651 148.762C183.2 148.311 182.608 148.085 181.876 148.085C181.144 148.085 180.555 148.308 180.109 148.753C179.67 149.198 179.45 149.784 179.45 150.511C179.45 151.237 179.664 151.809 180.092 152.225C180.525 152.641 181.126 152.849 181.894 152.849C182.655 152.849 183.253 152.641 183.687 152.225C184.12 151.803 184.337 151.231 184.337 150.511ZM181.894 142.363C181.255 142.363 180.736 142.562 180.338 142.961C179.945 143.354 179.749 143.89 179.749 144.569C179.749 145.22 179.942 145.747 180.329 146.151C180.722 146.55 181.243 146.749 181.894 146.749C182.544 146.749 183.062 146.55 183.449 146.151C183.842 145.747 184.038 145.22 184.038 144.569C184.038 143.919 183.836 143.389 183.432 142.979C183.027 142.568 182.515 142.363 181.894 142.363ZM194.392 141.194V142.574H194.093C192.827 142.598 191.819 142.973 191.069 143.699C190.319 144.426 189.886 145.448 189.769 146.767C190.442 145.993 191.362 145.606 192.528 145.606C193.642 145.606 194.529 145.999 195.191 146.784C195.859 147.569 196.193 148.583 196.193 149.825C196.193 151.144 195.833 152.198 195.112 152.989C194.397 153.78 193.437 154.176 192.229 154.176C191.005 154.176 190.012 153.707 189.25 152.77C188.488 151.826 188.107 150.613 188.107 149.131V148.507C188.107 146.151 188.608 144.353 189.61 143.11C190.618 141.862 192.115 141.224 194.102 141.194H194.392ZM192.256 146.96C191.699 146.96 191.187 147.127 190.718 147.461C190.249 147.795 189.924 148.214 189.742 148.718V149.315C189.742 150.37 189.979 151.22 190.454 151.864C190.929 152.509 191.521 152.831 192.229 152.831C192.962 152.831 193.536 152.562 193.952 152.022C194.374 151.483 194.585 150.777 194.585 149.904C194.585 149.025 194.371 148.316 193.943 147.777C193.521 147.232 192.959 146.96 192.256 146.96ZM205.141 155.327H197.09V154H205.141V155.327ZM212.62 141.194V142.574H212.321C211.056 142.598 210.048 142.973 209.298 143.699C208.548 144.426 208.114 145.448 207.997 146.767C208.671 145.993 209.591 145.606 210.757 145.606C211.87 145.606 212.758 145.999 213.42 146.784C214.088 147.569 214.422 148.583 214.422 149.825C214.422 151.144 214.062 152.198 213.341 152.989C212.626 153.78 211.665 154.176 210.458 154.176C209.233 154.176 208.24 153.707 207.479 152.77C206.717 151.826 206.336 150.613 206.336 149.131V148.507C206.336 146.151 206.837 144.353 207.839 143.11C208.847 141.862 210.344 141.224 212.33 141.194H212.62ZM210.484 146.96C209.928 146.96 209.415 147.127 208.946 147.461C208.478 147.795 208.152 148.214 207.971 148.718V149.315C207.971 150.37 208.208 151.22 208.683 151.864C209.157 152.509 209.749 152.831 210.458 152.831C211.19 152.831 211.765 152.562 212.181 152.022C212.603 151.483 212.813 150.777 212.813 149.904C212.813 149.025 212.6 148.316 212.172 147.777C211.75 147.232 211.188 146.96 210.484 146.96ZM223.211 149.702H224.986V151.029H223.211V154H221.576V151.029H215.749V150.071L221.479 141.203H223.211V149.702ZM217.595 149.702H221.576V143.427L221.383 143.778L217.595 149.702ZM36.6807 168.215C36.6807 167.705 36.8418 167.286 37.1641 166.958C37.4922 166.63 37.9258 166.466 38.4648 166.466C38.998 166.466 39.4316 166.627 39.7656 166.949C40.0996 167.266 40.2666 167.696 40.2666 168.241V168.566C40.2666 169.076 40.1055 169.492 39.7832 169.814C39.4609 170.137 39.0244 170.298 38.4736 170.298C37.9287 170.298 37.4922 170.137 37.1641 169.814C36.8418 169.486 36.6807 169.064 36.6807 168.549V168.215ZM59.1016 175C59.0078 174.812 58.9316 174.479 58.873 173.998C58.1172 174.783 57.2148 175.176 56.166 175.176C55.2285 175.176 54.458 174.912 53.8545 174.385C53.2568 173.852 52.958 173.178 52.958 172.363C52.958 171.373 53.333 170.605 54.083 170.061C54.8389 169.51 55.8994 169.234 57.2646 169.234H58.8467V168.487C58.8467 167.919 58.6768 167.468 58.3369 167.134C57.9971 166.794 57.4961 166.624 56.834 166.624C56.2539 166.624 55.7676 166.771 55.375 167.063C54.9824 167.356 54.7861 167.711 54.7861 168.127H53.1514C53.1514 167.652 53.3184 167.195 53.6523 166.756C53.9922 166.311 54.4492 165.959 55.0234 165.701C55.6035 165.443 56.2393 165.314 56.9307 165.314C58.0264 165.314 58.8848 165.59 59.5059 166.141C60.127 166.686 60.4492 167.438 60.4727 168.399V172.776C60.4727 173.649 60.584 174.344 60.8066 174.859V175H59.1016ZM56.4033 173.761C56.9131 173.761 57.3965 173.629 57.8535 173.365C58.3105 173.102 58.6416 172.759 58.8467 172.337V170.386H57.5723C55.5801 170.386 54.584 170.969 54.584 172.135C54.584 172.645 54.7539 173.043 55.0938 173.33C55.4336 173.617 55.8701 173.761 56.4033 173.761ZM62.6348 170.166C62.6348 168.684 62.9775 167.506 63.6631 166.633C64.3486 165.754 65.2568 165.314 66.3877 165.314C67.5479 165.314 68.4531 165.725 69.1035 166.545L69.1826 165.49H70.668V174.771C70.668 176.002 70.3018 176.972 69.5693 177.681C68.8428 178.39 67.8643 178.744 66.6338 178.744C65.9482 178.744 65.2773 178.598 64.6211 178.305C63.9648 178.012 63.4639 177.61 63.1182 177.101L63.9619 176.125C64.6592 176.986 65.5117 177.417 66.5195 177.417C67.3105 177.417 67.9258 177.194 68.3652 176.749C68.8105 176.304 69.0332 175.677 69.0332 174.868V174.051C68.3828 174.801 67.4951 175.176 66.3701 175.176C65.2568 175.176 64.3545 174.728 63.6631 173.831C62.9775 172.935 62.6348 171.713 62.6348 170.166ZM64.2695 170.351C64.2695 171.423 64.4893 172.267 64.9287 172.882C65.3682 173.491 65.9834 173.796 66.7744 173.796C67.7998 173.796 68.5527 173.33 69.0332 172.398V168.057C68.5352 167.148 67.7881 166.694 66.792 166.694C66.001 166.694 65.3828 167.002 64.9375 167.617C64.4922 168.232 64.2695 169.144 64.2695 170.351ZM77.0752 175.176C75.7861 175.176 74.7373 174.754 73.9287 173.91C73.1201 173.061 72.7158 171.927 72.7158 170.509V170.21C72.7158 169.267 72.8945 168.426 73.252 167.688C73.6152 166.943 74.1191 166.363 74.7637 165.947C75.4141 165.525 76.1172 165.314 76.873 165.314C78.1094 165.314 79.0703 165.722 79.7559 166.536C80.4414 167.351 80.7842 168.517 80.7842 170.034V170.711H74.3418C74.3652 171.648 74.6377 172.407 75.1592 172.987C75.6865 173.562 76.3545 173.849 77.1631 173.849C77.7373 173.849 78.2236 173.731 78.6221 173.497C79.0205 173.263 79.3691 172.952 79.668 172.565L80.6611 173.339C79.8643 174.563 78.6689 175.176 77.0752 175.176ZM76.873 166.65C76.2168 166.65 75.666 166.891 75.2207 167.371C74.7754 167.846 74.5 168.514 74.3945 169.375H79.1582V169.252C79.1113 168.426 78.8887 167.787 78.4902 167.336C78.0918 166.879 77.5527 166.65 76.873 166.65ZM84.2119 165.49L84.2646 166.686C84.9912 165.771 85.9404 165.314 87.1123 165.314C89.1221 165.314 90.1357 166.448 90.1533 168.716V175H88.5273V168.707C88.5215 168.021 88.3633 167.515 88.0527 167.187C87.748 166.858 87.2705 166.694 86.6201 166.694C86.0928 166.694 85.6299 166.835 85.2314 167.116C84.833 167.397 84.5225 167.767 84.2998 168.224V175H82.6738V165.49H84.2119ZM94.8115 163.188V165.49H96.5869V166.747H94.8115V172.645C94.8115 173.025 94.8906 173.312 95.0488 173.506C95.207 173.693 95.4766 173.787 95.8574 173.787C96.0449 173.787 96.3027 173.752 96.6309 173.682V175C96.2031 175.117 95.7871 175.176 95.3828 175.176C94.6562 175.176 94.1084 174.956 93.7393 174.517C93.3701 174.077 93.1855 173.453 93.1855 172.645V166.747H91.4541V165.49H93.1855V163.188H94.8115ZM104.91 173.62H110.975V175H103.214V162.203H104.91V173.62ZM114.411 175H112.785V165.49H114.411V175ZM112.653 162.968C112.653 162.704 112.732 162.481 112.891 162.3C113.055 162.118 113.295 162.027 113.611 162.027C113.928 162.027 114.168 162.118 114.332 162.3C114.496 162.481 114.578 162.704 114.578 162.968C114.578 163.231 114.496 163.451 114.332 163.627C114.168 163.803 113.928 163.891 113.611 163.891C113.295 163.891 113.055 163.803 112.891 163.627C112.732 163.451 112.653 163.231 112.653 162.968ZM118.56 165.49L118.612 166.686C119.339 165.771 120.288 165.314 121.46 165.314C123.47 165.314 124.483 166.448 124.501 168.716V175H122.875V168.707C122.869 168.021 122.711 167.515 122.4 167.187C122.096 166.858 121.618 166.694 120.968 166.694C120.44 166.694 119.978 166.835 119.579 167.116C119.181 167.397 118.87 167.767 118.647 168.224V175H117.021V165.49H118.56ZM132.824 174.06C132.191 174.804 131.263 175.176 130.038 175.176C129.024 175.176 128.251 174.883 127.718 174.297C127.19 173.705 126.924 172.832 126.918 171.678V165.49H128.544V171.634C128.544 173.075 129.13 173.796 130.302 173.796C131.544 173.796 132.37 173.333 132.78 172.407V165.49H134.406V175H132.859L132.824 174.06ZM140.075 168.962L142.185 165.49H144.083L140.972 170.192L144.18 175H142.299L140.102 171.44L137.904 175H136.015L139.223 170.192L136.111 165.49H137.992L140.075 168.962ZM152.67 176.327H144.619V175H152.67V176.327ZM157.126 168.962L159.235 165.49H161.134L158.022 170.192L161.23 175H159.35L157.152 171.44L154.955 175H153.065L156.273 170.192L153.162 165.49H155.043L157.126 168.962ZM170.459 165.543C170.459 166.182 170.289 166.75 169.949 167.248C169.615 167.746 169.161 168.136 168.587 168.417C169.255 168.704 169.782 169.123 170.169 169.674C170.562 170.225 170.758 170.849 170.758 171.546C170.758 172.653 170.383 173.535 169.633 174.191C168.889 174.848 167.907 175.176 166.688 175.176C165.458 175.176 164.471 174.848 163.727 174.191C162.988 173.529 162.619 172.647 162.619 171.546C162.619 170.854 162.807 170.23 163.182 169.674C163.562 169.117 164.087 168.695 164.755 168.408C164.187 168.127 163.738 167.737 163.41 167.239C163.082 166.741 162.918 166.176 162.918 165.543C162.918 164.465 163.264 163.609 163.955 162.977C164.646 162.344 165.558 162.027 166.688 162.027C167.813 162.027 168.722 162.344 169.413 162.977C170.11 163.609 170.459 164.465 170.459 165.543ZM169.132 171.511C169.132 170.796 168.903 170.213 168.446 169.762C167.995 169.311 167.403 169.085 166.671 169.085C165.938 169.085 165.35 169.308 164.904 169.753C164.465 170.198 164.245 170.784 164.245 171.511C164.245 172.237 164.459 172.809 164.887 173.225C165.32 173.641 165.921 173.849 166.688 173.849C167.45 173.849 168.048 173.641 168.481 173.225C168.915 172.803 169.132 172.231 169.132 171.511ZM166.688 163.363C166.05 163.363 165.531 163.562 165.133 163.961C164.74 164.354 164.544 164.89 164.544 165.569C164.544 166.22 164.737 166.747 165.124 167.151C165.517 167.55 166.038 167.749 166.688 167.749C167.339 167.749 167.857 167.55 168.244 167.151C168.637 166.747 168.833 166.22 168.833 165.569C168.833 164.919 168.631 164.389 168.227 163.979C167.822 163.568 167.31 163.363 166.688 163.363ZM179.187 162.194V163.574H178.888C177.622 163.598 176.614 163.973 175.864 164.699C175.114 165.426 174.681 166.448 174.563 167.767C175.237 166.993 176.157 166.606 177.323 166.606C178.437 166.606 179.324 166.999 179.986 167.784C180.654 168.569 180.988 169.583 180.988 170.825C180.988 172.144 180.628 173.198 179.907 173.989C179.192 174.78 178.231 175.176 177.024 175.176C175.8 175.176 174.807 174.707 174.045 173.77C173.283 172.826 172.902 171.613 172.902 170.131V169.507C172.902 167.151 173.403 165.353 174.405 164.11C175.413 162.862 176.91 162.224 178.896 162.194H179.187ZM177.051 167.96C176.494 167.96 175.981 168.127 175.513 168.461C175.044 168.795 174.719 169.214 174.537 169.718V170.315C174.537 171.37 174.774 172.22 175.249 172.864C175.724 173.509 176.315 173.831 177.024 173.831C177.757 173.831 178.331 173.562 178.747 173.022C179.169 172.483 179.38 171.777 179.38 170.904C179.38 170.025 179.166 169.316 178.738 168.777C178.316 168.232 177.754 167.96 177.051 167.96ZM189.936 176.327H181.885V175H189.936V176.327ZM197.415 162.194V163.574H197.116C195.851 163.598 194.843 163.973 194.093 164.699C193.343 165.426 192.909 166.448 192.792 167.767C193.466 166.993 194.386 166.606 195.552 166.606C196.665 166.606 197.553 166.999 198.215 167.784C198.883 168.569 199.217 169.583 199.217 170.825C199.217 172.144 198.856 173.198 198.136 173.989C197.421 174.78 196.46 175.176 195.253 175.176C194.028 175.176 193.035 174.707 192.273 173.77C191.512 172.826 191.131 171.613 191.131 170.131V169.507C191.131 167.151 191.632 165.353 192.634 164.11C193.642 162.862 195.139 162.224 197.125 162.194H197.415ZM195.279 167.96C194.723 167.96 194.21 168.127 193.741 168.461C193.272 168.795 192.947 169.214 192.766 169.718V170.315C192.766 171.37 193.003 172.22 193.478 172.864C193.952 173.509 194.544 173.831 195.253 173.831C195.985 173.831 196.56 173.562 196.976 173.022C197.397 172.483 197.608 171.777 197.608 170.904C197.608 170.025 197.395 169.316 196.967 168.777C196.545 168.232 195.982 167.96 195.279 167.96ZM208.006 170.702H209.781V172.029H208.006V175H206.371V172.029H200.544V171.071L206.274 162.203H208.006V170.702ZM202.39 170.702H206.371V164.427L206.178 164.778L202.39 170.702ZM36.6807 189.215C36.6807 188.705 36.8418 188.286 37.1641 187.958C37.4922 187.63 37.9258 187.466 38.4648 187.466C38.998 187.466 39.4316 187.627 39.7656 187.949C40.0996 188.266 40.2666 188.696 40.2666 189.241V189.566C40.2666 190.076 40.1055 190.492 39.7832 190.814C39.4609 191.137 39.0244 191.298 38.4736 191.298C37.9287 191.298 37.4922 191.137 37.1641 190.814C36.8418 190.486 36.6807 190.064 36.6807 189.549V189.215ZM59.1016 196C59.0078 195.812 58.9316 195.479 58.873 194.998C58.1172 195.783 57.2148 196.176 56.166 196.176C55.2285 196.176 54.458 195.912 53.8545 195.385C53.2568 194.852 52.958 194.178 52.958 193.363C52.958 192.373 53.333 191.605 54.083 191.061C54.8389 190.51 55.8994 190.234 57.2646 190.234H58.8467V189.487C58.8467 188.919 58.6768 188.468 58.3369 188.134C57.9971 187.794 57.4961 187.624 56.834 187.624C56.2539 187.624 55.7676 187.771 55.375 188.063C54.9824 188.356 54.7861 188.711 54.7861 189.127H53.1514C53.1514 188.652 53.3184 188.195 53.6523 187.756C53.9922 187.311 54.4492 186.959 55.0234 186.701C55.6035 186.443 56.2393 186.314 56.9307 186.314C58.0264 186.314 58.8848 186.59 59.5059 187.141C60.127 187.686 60.4492 188.438 60.4727 189.399V193.776C60.4727 194.649 60.584 195.344 60.8066 195.859V196H59.1016ZM56.4033 194.761C56.9131 194.761 57.3965 194.629 57.8535 194.365C58.3105 194.102 58.6416 193.759 58.8467 193.337V191.386H57.5723C55.5801 191.386 54.584 191.969 54.584 193.135C54.584 193.645 54.7539 194.043 55.0938 194.33C55.4336 194.617 55.8701 194.761 56.4033 194.761ZM62.6348 191.166C62.6348 189.684 62.9775 188.506 63.6631 187.633C64.3486 186.754 65.2568 186.314 66.3877 186.314C67.5479 186.314 68.4531 186.725 69.1035 187.545L69.1826 186.49H70.668V195.771C70.668 197.002 70.3018 197.972 69.5693 198.681C68.8428 199.39 67.8643 199.744 66.6338 199.744C65.9482 199.744 65.2773 199.598 64.6211 199.305C63.9648 199.012 63.4639 198.61 63.1182 198.101L63.9619 197.125C64.6592 197.986 65.5117 198.417 66.5195 198.417C67.3105 198.417 67.9258 198.194 68.3652 197.749C68.8105 197.304 69.0332 196.677 69.0332 195.868V195.051C68.3828 195.801 67.4951 196.176 66.3701 196.176C65.2568 196.176 64.3545 195.728 63.6631 194.831C62.9775 193.935 62.6348 192.713 62.6348 191.166ZM64.2695 191.351C64.2695 192.423 64.4893 193.267 64.9287 193.882C65.3682 194.491 65.9834 194.796 66.7744 194.796C67.7998 194.796 68.5527 194.33 69.0332 193.398V189.057C68.5352 188.148 67.7881 187.694 66.792 187.694C66.001 187.694 65.3828 188.002 64.9375 188.617C64.4922 189.232 64.2695 190.144 64.2695 191.351ZM77.0752 196.176C75.7861 196.176 74.7373 195.754 73.9287 194.91C73.1201 194.061 72.7158 192.927 72.7158 191.509V191.21C72.7158 190.267 72.8945 189.426 73.252 188.688C73.6152 187.943 74.1191 187.363 74.7637 186.947C75.4141 186.525 76.1172 186.314 76.873 186.314C78.1094 186.314 79.0703 186.722 79.7559 187.536C80.4414 188.351 80.7842 189.517 80.7842 191.034V191.711H74.3418C74.3652 192.648 74.6377 193.407 75.1592 193.987C75.6865 194.562 76.3545 194.849 77.1631 194.849C77.7373 194.849 78.2236 194.731 78.6221 194.497C79.0205 194.263 79.3691 193.952 79.668 193.565L80.6611 194.339C79.8643 195.563 78.6689 196.176 77.0752 196.176ZM76.873 187.65C76.2168 187.65 75.666 187.891 75.2207 188.371C74.7754 188.846 74.5 189.514 74.3945 190.375H79.1582V190.252C79.1113 189.426 78.8887 188.787 78.4902 188.336C78.0918 187.879 77.5527 187.65 76.873 187.65ZM84.2119 186.49L84.2646 187.686C84.9912 186.771 85.9404 186.314 87.1123 186.314C89.1221 186.314 90.1357 187.448 90.1533 189.716V196H88.5273V189.707C88.5215 189.021 88.3633 188.515 88.0527 188.187C87.748 187.858 87.2705 187.694 86.6201 187.694C86.0928 187.694 85.6299 187.835 85.2314 188.116C84.833 188.397 84.5225 188.767 84.2998 189.224V196H82.6738V186.49H84.2119ZM94.8115 184.188V186.49H96.5869V187.747H94.8115V193.645C94.8115 194.025 94.8906 194.312 95.0488 194.506C95.207 194.693 95.4766 194.787 95.8574 194.787C96.0449 194.787 96.3027 194.752 96.6309 194.682V196C96.2031 196.117 95.7871 196.176 95.3828 196.176C94.6562 196.176 94.1084 195.956 93.7393 195.517C93.3701 195.077 93.1855 194.453 93.1855 193.645V187.747H91.4541V186.49H93.1855V184.188H94.8115ZM104.91 194.62H110.975V196H103.214V183.203H104.91V194.62ZM114.411 196H112.785V186.49H114.411V196ZM112.653 183.968C112.653 183.704 112.732 183.481 112.891 183.3C113.055 183.118 113.295 183.027 113.611 183.027C113.928 183.027 114.168 183.118 114.332 183.3C114.496 183.481 114.578 183.704 114.578 183.968C114.578 184.231 114.496 184.451 114.332 184.627C114.168 184.803 113.928 184.891 113.611 184.891C113.295 184.891 113.055 184.803 112.891 184.627C112.732 184.451 112.653 184.231 112.653 183.968ZM118.56 186.49L118.612 187.686C119.339 186.771 120.288 186.314 121.46 186.314C123.47 186.314 124.483 187.448 124.501 189.716V196H122.875V189.707C122.869 189.021 122.711 188.515 122.4 188.187C122.096 187.858 121.618 187.694 120.968 187.694C120.44 187.694 119.978 187.835 119.579 188.116C119.181 188.397 118.87 188.767 118.647 189.224V196H117.021V186.49H118.56ZM132.824 195.06C132.191 195.804 131.263 196.176 130.038 196.176C129.024 196.176 128.251 195.883 127.718 195.297C127.19 194.705 126.924 193.832 126.918 192.678V186.49H128.544V192.634C128.544 194.075 129.13 194.796 130.302 194.796C131.544 194.796 132.37 194.333 132.78 193.407V186.49H134.406V196H132.859L132.824 195.06ZM140.075 189.962L142.185 186.49H144.083L140.972 191.192L144.18 196H142.299L140.102 192.44L137.904 196H136.015L139.223 191.192L136.111 186.49H137.992L140.075 189.962ZM152.67 197.327H144.619V196H152.67V197.327ZM159.807 196C159.713 195.812 159.637 195.479 159.578 194.998C158.822 195.783 157.92 196.176 156.871 196.176C155.934 196.176 155.163 195.912 154.56 195.385C153.962 194.852 153.663 194.178 153.663 193.363C153.663 192.373 154.038 191.605 154.788 191.061C155.544 190.51 156.604 190.234 157.97 190.234H159.552V189.487C159.552 188.919 159.382 188.468 159.042 188.134C158.702 187.794 158.201 187.624 157.539 187.624C156.959 187.624 156.473 187.771 156.08 188.063C155.688 188.356 155.491 188.711 155.491 189.127H153.856C153.856 188.652 154.023 188.195 154.357 187.756C154.697 187.311 155.154 186.959 155.729 186.701C156.309 186.443 156.944 186.314 157.636 186.314C158.731 186.314 159.59 186.59 160.211 187.141C160.832 187.686 161.154 188.438 161.178 189.399V193.776C161.178 194.649 161.289 195.344 161.512 195.859V196H159.807ZM157.108 194.761C157.618 194.761 158.102 194.629 158.559 194.365C159.016 194.102 159.347 193.759 159.552 193.337V191.386H158.277C156.285 191.386 155.289 191.969 155.289 193.135C155.289 193.645 155.459 194.043 155.799 194.33C156.139 194.617 156.575 194.761 157.108 194.761ZM169.598 196C169.504 195.812 169.428 195.479 169.369 194.998C168.613 195.783 167.711 196.176 166.662 196.176C165.725 196.176 164.954 195.912 164.351 195.385C163.753 194.852 163.454 194.178 163.454 193.363C163.454 192.373 163.829 191.605 164.579 191.061C165.335 190.51 166.396 190.234 167.761 190.234H169.343V189.487C169.343 188.919 169.173 188.468 168.833 188.134C168.493 187.794 167.992 187.624 167.33 187.624C166.75 187.624 166.264 187.771 165.871 188.063C165.479 188.356 165.282 188.711 165.282 189.127H163.647C163.647 188.652 163.814 188.195 164.148 187.756C164.488 187.311 164.945 186.959 165.52 186.701C166.1 186.443 166.735 186.314 167.427 186.314C168.522 186.314 169.381 186.59 170.002 187.141C170.623 187.686 170.945 188.438 170.969 189.399V193.776C170.969 194.649 171.08 195.344 171.303 195.859V196H169.598ZM166.899 194.761C167.409 194.761 167.893 194.629 168.35 194.365C168.807 194.102 169.138 193.759 169.343 193.337V191.386H168.068C166.076 191.386 165.08 191.969 165.08 193.135C165.08 193.645 165.25 194.043 165.59 194.33C165.93 194.617 166.366 194.761 166.899 194.761ZM178.114 187.949C177.868 187.908 177.602 187.888 177.314 187.888C176.248 187.888 175.524 188.342 175.144 189.25V196H173.518V186.49H175.1L175.126 187.589C175.659 186.739 176.415 186.314 177.394 186.314C177.71 186.314 177.95 186.355 178.114 186.438V187.949ZM183.256 194.849C183.836 194.849 184.343 194.673 184.776 194.321C185.21 193.97 185.45 193.53 185.497 193.003H187.035C187.006 193.548 186.818 194.066 186.473 194.559C186.127 195.051 185.664 195.443 185.084 195.736C184.51 196.029 183.9 196.176 183.256 196.176C181.961 196.176 180.93 195.745 180.162 194.884C179.4 194.017 179.02 192.833 179.02 191.333V191.061C179.02 190.135 179.189 189.312 179.529 188.591C179.869 187.87 180.355 187.311 180.988 186.912C181.627 186.514 182.38 186.314 183.247 186.314C184.313 186.314 185.198 186.634 185.901 187.272C186.61 187.911 186.988 188.74 187.035 189.76H185.497C185.45 189.145 185.216 188.641 184.794 188.248C184.378 187.85 183.862 187.65 183.247 187.65C182.421 187.65 181.779 187.949 181.322 188.547C180.871 189.139 180.646 189.997 180.646 191.122V191.43C180.646 192.525 180.871 193.369 181.322 193.961C181.773 194.553 182.418 194.849 183.256 194.849ZM190.489 187.642C191.21 186.757 192.147 186.314 193.302 186.314C195.312 186.314 196.325 187.448 196.343 189.716V196H194.717V189.707C194.711 189.021 194.553 188.515 194.242 188.187C193.938 187.858 193.46 187.694 192.81 187.694C192.282 187.694 191.819 187.835 191.421 188.116C191.022 188.397 190.712 188.767 190.489 189.224V196H188.863V182.5H190.489V187.642ZM204.991 183.194V184.574H204.692C203.427 184.598 202.419 184.973 201.669 185.699C200.919 186.426 200.485 187.448 200.368 188.767C201.042 187.993 201.962 187.606 203.128 187.606C204.241 187.606 205.129 187.999 205.791 188.784C206.459 189.569 206.793 190.583 206.793 191.825C206.793 193.144 206.433 194.198 205.712 194.989C204.997 195.78 204.036 196.176 202.829 196.176C201.604 196.176 200.611 195.707 199.85 194.77C199.088 193.826 198.707 192.613 198.707 191.131V190.507C198.707 188.151 199.208 186.353 200.21 185.11C201.218 183.862 202.715 183.224 204.701 183.194H204.991ZM202.855 188.96C202.299 188.96 201.786 189.127 201.317 189.461C200.849 189.795 200.523 190.214 200.342 190.718V191.315C200.342 192.37 200.579 193.22 201.054 193.864C201.528 194.509 202.12 194.831 202.829 194.831C203.562 194.831 204.136 194.562 204.552 194.022C204.974 193.483 205.185 192.777 205.185 191.904C205.185 191.025 204.971 190.316 204.543 189.777C204.121 189.232 203.559 188.96 202.855 188.96ZM215.582 191.702H217.357V193.029H215.582V196H213.947V193.029H208.12V192.071L213.851 183.203H215.582V191.702ZM209.966 191.702H213.947V185.427L213.754 185.778L209.966 191.702ZM36.6807 210.215C36.6807 209.705 36.8418 209.286 37.1641 208.958C37.4922 208.63 37.9258 208.466 38.4648 208.466C38.998 208.466 39.4316 208.627 39.7656 208.949C40.0996 209.266 40.2666 209.696 40.2666 210.241V210.566C40.2666 211.076 40.1055 211.492 39.7832 211.814C39.4609 212.137 39.0244 212.298 38.4736 212.298C37.9287 212.298 37.4922 212.137 37.1641 211.814C36.8418 211.486 36.6807 211.064 36.6807 210.549V210.215ZM53.2656 216.147C53.2656 215.866 53.3477 215.632 53.5117 215.444C53.6816 215.257 53.9336 215.163 54.2676 215.163C54.6016 215.163 54.8535 215.257 55.0234 215.444C55.1992 215.632 55.2871 215.866 55.2871 216.147C55.2871 216.417 55.1992 216.643 55.0234 216.824C54.8535 217.006 54.6016 217.097 54.2676 217.097C53.9336 217.097 53.6816 217.006 53.5117 216.824C53.3477 216.643 53.2656 216.417 53.2656 216.147ZM58.0117 216.147C58.0117 215.866 58.0938 215.632 58.2578 215.444C58.4277 215.257 58.6797 215.163 59.0137 215.163C59.3477 215.163 59.5996 215.257 59.7695 215.444C59.9453 215.632 60.0332 215.866 60.0332 216.147C60.0332 216.417 59.9453 216.643 59.7695 216.824C59.5996 217.006 59.3477 217.097 59.0137 217.097C58.6797 217.097 58.4277 217.006 58.2578 216.824C58.0938 216.643 58.0117 216.417 58.0117 216.147ZM62.7578 216.147C62.7578 215.866 62.8398 215.632 63.0039 215.444C63.1738 215.257 63.4258 215.163 63.7598 215.163C64.0938 215.163 64.3457 215.257 64.5156 215.444C64.6914 215.632 64.7793 215.866 64.7793 216.147C64.7793 216.417 64.6914 216.643 64.5156 216.824C64.3457 217.006 64.0938 217.097 63.7598 217.097C63.4258 217.097 63.1738 217.006 63.0039 216.824C62.8398 216.643 62.7578 216.417 62.7578 216.147Z" fill="black"/>
<rect x="349.5" y="29.5" width="239" height="240" rx="5.5" fill="white" stroke="black"/>
<path d="M452.262 46.7734H447.828V59H445.377V46.7734H440.982V44.7812H452.262V46.7734ZM458.58 59C458.476 58.7982 458.385 58.4694 458.307 58.0137C457.551 58.8014 456.627 59.1953 455.533 59.1953C454.472 59.1953 453.606 58.8926 452.936 58.2871C452.265 57.6816 451.93 56.9329 451.93 56.041C451.93 54.9147 452.346 54.0521 453.18 53.4531C454.02 52.8477 455.217 52.5449 456.773 52.5449H458.229V51.8516C458.229 51.3047 458.076 50.8685 457.77 50.543C457.464 50.2109 456.998 50.0449 456.373 50.0449C455.833 50.0449 455.39 50.1816 455.045 50.4551C454.7 50.722 454.527 51.0638 454.527 51.4805H452.154C452.154 50.901 452.346 50.3607 452.73 49.8594C453.115 49.3516 453.635 48.9544 454.293 48.668C454.957 48.3815 455.696 48.2383 456.51 48.2383C457.747 48.2383 458.733 48.5508 459.469 49.1758C460.204 49.7943 460.582 50.6667 460.602 51.793V56.5586C460.602 57.5091 460.735 58.2676 461.002 58.834V59H458.58ZM455.973 57.291C456.441 57.291 456.881 57.1771 457.291 56.9492C457.708 56.7214 458.02 56.4154 458.229 56.0312V54.0391H456.949C456.07 54.0391 455.41 54.1921 454.967 54.498C454.524 54.804 454.303 55.237 454.303 55.7969C454.303 56.2526 454.452 56.6172 454.752 56.8906C455.058 57.1576 455.465 57.291 455.973 57.291ZM468.619 50.6016C468.307 50.5495 467.984 50.5234 467.652 50.5234C466.565 50.5234 465.833 50.9401 465.455 51.7734V59H463.082V48.4336H465.348L465.406 49.6152C465.979 48.6973 466.773 48.2383 467.789 48.2383C468.128 48.2383 468.408 48.2839 468.629 48.375L468.619 50.6016ZM469.508 53.6387C469.508 51.998 469.892 50.6895 470.66 49.7129C471.435 48.7298 472.46 48.2383 473.736 48.2383C474.941 48.2383 475.888 48.6582 476.578 49.498L476.686 48.4336H478.824V58.6777C478.824 60.0645 478.391 61.1582 477.525 61.959C476.666 62.7598 475.504 63.1602 474.039 63.1602C473.264 63.1602 472.506 62.9974 471.764 62.6719C471.028 62.3529 470.468 61.9329 470.084 61.4121L471.207 59.9863C471.936 60.8522 472.835 61.2852 473.902 61.2852C474.69 61.2852 475.312 61.0703 475.768 60.6406C476.223 60.2174 476.451 59.5924 476.451 58.7656V58.0527C475.768 58.8145 474.856 59.1953 473.717 59.1953C472.48 59.1953 471.467 58.7038 470.68 57.7207C469.898 56.7376 469.508 55.377 469.508 53.6387ZM471.871 53.8438C471.871 54.9049 472.086 55.7415 472.516 56.3535C472.952 56.959 473.554 57.2617 474.322 57.2617C475.279 57.2617 475.989 56.8516 476.451 56.0312V51.3828C476.002 50.582 475.299 50.1816 474.342 50.1816C473.561 50.1816 472.952 50.4909 472.516 51.1094C472.086 51.7279 471.871 52.6393 471.871 53.8438ZM485.924 59.1953C484.42 59.1953 483.199 58.7233 482.262 57.7793C481.331 56.8288 480.865 55.5658 480.865 53.9902V53.6973C480.865 52.6426 481.067 51.7018 481.471 50.875C481.881 50.0417 482.454 49.3939 483.189 48.9316C483.925 48.4694 484.745 48.2383 485.65 48.2383C487.089 48.2383 488.199 48.6973 488.98 49.6152C489.768 50.5332 490.162 51.832 490.162 53.5117V54.4688H483.258C483.329 55.3411 483.619 56.0312 484.127 56.5391C484.641 57.0469 485.286 57.3008 486.061 57.3008C487.148 57.3008 488.033 56.8613 488.717 55.9824L489.996 57.2031C489.573 57.8346 489.007 58.3262 488.297 58.6777C487.594 59.0228 486.803 59.1953 485.924 59.1953ZM485.641 50.1426C484.99 50.1426 484.462 50.3704 484.059 50.8262C483.661 51.2819 483.408 51.9167 483.297 52.7305H487.818V52.5547C487.766 51.7604 487.555 51.1615 487.184 50.7578C486.812 50.3477 486.298 50.1426 485.641 50.1426ZM494.986 45.8652V48.4336H496.852V50.1914H494.986V56.0898C494.986 56.4935 495.064 56.7865 495.221 56.9688C495.383 57.1445 495.67 57.2324 496.08 57.2324C496.354 57.2324 496.63 57.1999 496.91 57.1348V58.9707C496.37 59.1204 495.849 59.1953 495.348 59.1953C493.525 59.1953 492.613 58.1895 492.613 56.1777V50.1914H490.875V48.4336H492.613V45.8652H494.986ZM419.781 78.6201H425.846V80H418.085V67.2031H419.781V78.6201ZM429.282 80H427.656V70.4902H429.282V80ZM427.524 67.9678C427.524 67.7041 427.604 67.4814 427.762 67.2998C427.926 67.1182 428.166 67.0273 428.482 67.0273C428.799 67.0273 429.039 67.1182 429.203 67.2998C429.367 67.4814 429.449 67.7041 429.449 67.9678C429.449 68.2314 429.367 68.4512 429.203 68.627C429.039 68.8027 428.799 68.8906 428.482 68.8906C428.166 68.8906 427.926 68.8027 427.762 68.627C427.604 68.4512 427.524 68.2314 427.524 67.9678ZM433.431 70.4902L433.483 71.6855C434.21 70.7715 435.159 70.3145 436.331 70.3145C438.341 70.3145 439.354 71.4482 439.372 73.7158V80H437.746V73.707C437.74 73.0215 437.582 72.5146 437.271 72.1865C436.967 71.8584 436.489 71.6943 435.839 71.6943C435.312 71.6943 434.849 71.835 434.45 72.1162C434.052 72.3975 433.741 72.7666 433.519 73.2236V80H431.893V70.4902H433.431ZM447.695 79.0596C447.062 79.8037 446.134 80.1758 444.909 80.1758C443.896 80.1758 443.122 79.8828 442.589 79.2969C442.062 78.7051 441.795 77.832 441.789 76.6777V70.4902H443.415V76.6338C443.415 78.0752 444.001 78.7959 445.173 78.7959C446.415 78.7959 447.241 78.333 447.651 77.4072V70.4902H449.277V80H447.73L447.695 79.0596ZM454.946 73.9619L457.056 70.4902H458.954L455.843 75.1924L459.051 80H457.17L454.973 76.4404L452.775 80H450.886L454.094 75.1924L450.982 70.4902H452.863L454.946 73.9619ZM468.341 73.9619L470.45 70.4902H472.349L469.237 75.1924L472.445 80H470.564L468.367 76.4404L466.17 80H464.28L467.488 75.1924L464.377 70.4902H466.258L468.341 73.9619ZM481.674 70.543C481.674 71.1816 481.504 71.75 481.164 72.248C480.83 72.7461 480.376 73.1357 479.802 73.417C480.47 73.7041 480.997 74.123 481.384 74.6738C481.776 75.2246 481.973 75.8486 481.973 76.5459C481.973 77.6533 481.598 78.5352 480.848 79.1914C480.104 79.8477 479.122 80.1758 477.903 80.1758C476.673 80.1758 475.686 79.8477 474.941 79.1914C474.203 78.5293 473.834 77.6475 473.834 76.5459C473.834 75.8545 474.021 75.2305 474.396 74.6738C474.777 74.1172 475.302 73.6953 475.97 73.4082C475.401 73.127 474.953 72.7373 474.625 72.2393C474.297 71.7412 474.133 71.1758 474.133 70.543C474.133 69.4648 474.479 68.6094 475.17 67.9766C475.861 67.3438 476.772 67.0273 477.903 67.0273C479.028 67.0273 479.937 67.3438 480.628 67.9766C481.325 68.6094 481.674 69.4648 481.674 70.543ZM480.347 76.5107C480.347 75.7959 480.118 75.2129 479.661 74.7617C479.21 74.3105 478.618 74.085 477.886 74.085C477.153 74.085 476.564 74.3076 476.119 74.7529C475.68 75.1982 475.46 75.7842 475.46 76.5107C475.46 77.2373 475.674 77.8086 476.102 78.2246C476.535 78.6406 477.136 78.8486 477.903 78.8486C478.665 78.8486 479.263 78.6406 479.696 78.2246C480.13 77.8027 480.347 77.2314 480.347 76.5107ZM477.903 68.3633C477.265 68.3633 476.746 68.5625 476.348 68.9609C475.955 69.3535 475.759 69.8896 475.759 70.5693C475.759 71.2197 475.952 71.7471 476.339 72.1514C476.731 72.5498 477.253 72.749 477.903 72.749C478.554 72.749 479.072 72.5498 479.459 72.1514C479.852 71.7471 480.048 71.2197 480.048 70.5693C480.048 69.9189 479.846 69.3887 479.441 68.9785C479.037 68.5684 478.524 68.3633 477.903 68.3633ZM490.401 67.1943V68.5742H490.103C488.837 68.5977 487.829 68.9727 487.079 69.6992C486.329 70.4258 485.896 71.4482 485.778 72.7666C486.452 71.9932 487.372 71.6064 488.538 71.6064C489.651 71.6064 490.539 71.999 491.201 72.7842C491.869 73.5693 492.203 74.583 492.203 75.8252C492.203 77.1436 491.843 78.1982 491.122 78.9893C490.407 79.7803 489.446 80.1758 488.239 80.1758C487.015 80.1758 486.021 79.707 485.26 78.7695C484.498 77.8262 484.117 76.6133 484.117 75.1309V74.5068C484.117 72.1514 484.618 70.3525 485.62 69.1104C486.628 67.8623 488.125 67.2236 490.111 67.1943H490.401ZM488.266 72.96C487.709 72.96 487.196 73.127 486.728 73.4609C486.259 73.7949 485.934 74.2139 485.752 74.7178V75.3154C485.752 76.3701 485.989 77.2197 486.464 77.8643C486.938 78.5088 487.53 78.8311 488.239 78.8311C488.972 78.8311 489.546 78.5615 489.962 78.0225C490.384 77.4834 490.595 76.7773 490.595 75.9043C490.595 75.0254 490.381 74.3164 489.953 73.7773C489.531 73.2324 488.969 72.96 488.266 72.96ZM501.15 81.3271H493.1V80H501.15V81.3271ZM508.63 67.1943V68.5742H508.331C507.065 68.5977 506.058 68.9727 505.308 69.6992C504.558 70.4258 504.124 71.4482 504.007 72.7666C504.681 71.9932 505.601 71.6064 506.767 71.6064C507.88 71.6064 508.768 71.999 509.43 72.7842C510.098 73.5693 510.432 74.583 510.432 75.8252C510.432 77.1436 510.071 78.1982 509.351 78.9893C508.636 79.7803 507.675 80.1758 506.468 80.1758C505.243 80.1758 504.25 79.707 503.488 78.7695C502.727 77.8262 502.346 76.6133 502.346 75.1309V74.5068C502.346 72.1514 502.847 70.3525 503.849 69.1104C504.856 67.8623 506.354 67.2236 508.34 67.1943H508.63ZM506.494 72.96C505.938 72.96 505.425 73.127 504.956 73.4609C504.487 73.7949 504.162 74.2139 503.98 74.7178V75.3154C503.98 76.3701 504.218 77.2197 504.692 77.8643C505.167 78.5088 505.759 78.8311 506.468 78.8311C507.2 78.8311 507.774 78.5615 508.19 78.0225C508.612 77.4834 508.823 76.7773 508.823 75.9043C508.823 75.0254 508.609 74.3164 508.182 73.7773C507.76 73.2324 507.197 72.96 506.494 72.96ZM519.221 75.7021H520.996V77.0293H519.221V80H517.586V77.0293H511.759V76.0713L517.489 67.2031H519.221V75.7021ZM513.604 75.7021H517.586V69.4268L517.393 69.7783L513.604 75.7021Z" fill="black"/>
<path d="M265.598 171.939C265.44 173.293 264.939 174.339 264.095 175.077C263.257 175.81 262.141 176.176 260.747 176.176C259.235 176.176 258.022 175.634 257.108 174.55C256.2 173.466 255.746 172.016 255.746 170.199V168.969C255.746 167.779 255.956 166.733 256.378 165.831C256.806 164.929 257.41 164.237 258.189 163.757C258.968 163.271 259.871 163.027 260.896 163.027C262.255 163.027 263.345 163.408 264.165 164.17C264.986 164.926 265.463 165.975 265.598 167.316H263.902C263.755 166.297 263.436 165.559 262.944 165.102C262.457 164.645 261.775 164.416 260.896 164.416C259.818 164.416 258.971 164.814 258.356 165.611C257.747 166.408 257.442 167.542 257.442 169.013V170.252C257.442 171.641 257.732 172.745 258.312 173.565C258.892 174.386 259.704 174.796 260.747 174.796C261.684 174.796 262.402 174.585 262.9 174.163C263.404 173.735 263.738 172.994 263.902 171.939H265.598ZM273.526 176C273.432 175.812 273.356 175.479 273.297 174.998C272.541 175.783 271.639 176.176 270.59 176.176C269.653 176.176 268.882 175.912 268.279 175.385C267.681 174.852 267.382 174.178 267.382 173.363C267.382 172.373 267.757 171.605 268.507 171.061C269.263 170.51 270.324 170.234 271.689 170.234H273.271V169.487C273.271 168.919 273.101 168.468 272.761 168.134C272.421 167.794 271.92 167.624 271.258 167.624C270.678 167.624 270.192 167.771 269.799 168.063C269.407 168.356 269.21 168.711 269.21 169.127H267.576C267.576 168.652 267.743 168.195 268.077 167.756C268.416 167.311 268.873 166.959 269.448 166.701C270.028 166.443 270.664 166.314 271.355 166.314C272.451 166.314 273.309 166.59 273.93 167.141C274.551 167.686 274.873 168.438 274.897 169.399V173.776C274.897 174.649 275.008 175.344 275.231 175.859V176H273.526ZM270.828 174.761C271.337 174.761 271.821 174.629 272.278 174.365C272.735 174.102 273.066 173.759 273.271 173.337V171.386H271.997C270.004 171.386 269.008 171.969 269.008 173.135C269.008 173.645 269.178 174.043 269.518 174.33C269.858 174.617 270.294 174.761 270.828 174.761ZM278.984 166.49L279.037 167.686C279.763 166.771 280.712 166.314 281.884 166.314C283.894 166.314 284.908 167.448 284.925 169.716V176H283.299V169.707C283.293 169.021 283.135 168.515 282.825 168.187C282.52 167.858 282.042 167.694 281.392 167.694C280.865 167.694 280.402 167.835 280.003 168.116C279.605 168.397 279.294 168.767 279.072 169.224V176H277.446V166.49H278.984ZM297.379 173.478C297.379 173.038 297.212 172.698 296.878 172.458C296.55 172.212 295.973 172.001 295.147 171.825C294.327 171.649 293.673 171.438 293.187 171.192C292.706 170.946 292.349 170.653 292.115 170.313C291.886 169.974 291.772 169.569 291.772 169.101C291.772 168.321 292.1 167.662 292.756 167.123C293.418 166.584 294.262 166.314 295.288 166.314C296.366 166.314 297.239 166.593 297.907 167.149C298.581 167.706 298.917 168.418 298.917 169.285H297.283C297.283 168.84 297.092 168.456 296.711 168.134C296.336 167.812 295.862 167.65 295.288 167.65C294.696 167.65 294.233 167.779 293.899 168.037C293.565 168.295 293.398 168.632 293.398 169.048C293.398 169.44 293.553 169.736 293.864 169.936C294.174 170.135 294.734 170.325 295.542 170.507C296.357 170.688 297.016 170.905 297.52 171.157C298.024 171.409 298.396 171.714 298.636 172.071C298.882 172.423 299.005 172.854 299.005 173.363C299.005 174.213 298.665 174.896 297.986 175.411C297.306 175.921 296.424 176.176 295.34 176.176C294.579 176.176 293.905 176.041 293.319 175.771C292.733 175.502 292.273 175.127 291.939 174.646C291.611 174.16 291.447 173.636 291.447 173.073H293.073C293.102 173.618 293.319 174.052 293.723 174.374C294.133 174.69 294.672 174.849 295.34 174.849C295.956 174.849 296.448 174.726 296.817 174.479C297.192 174.228 297.379 173.894 297.379 173.478ZM309.157 171.351C309.157 172.798 308.826 173.964 308.164 174.849C307.501 175.733 306.605 176.176 305.474 176.176C304.32 176.176 303.412 175.81 302.749 175.077V179.656H301.123V166.49H302.609L302.688 167.545C303.35 166.725 304.27 166.314 305.448 166.314C306.59 166.314 307.493 166.745 308.155 167.606C308.823 168.468 309.157 169.666 309.157 171.201V171.351ZM307.531 171.166C307.531 170.094 307.302 169.247 306.845 168.626C306.388 168.005 305.761 167.694 304.964 167.694C303.98 167.694 303.242 168.131 302.749 169.004V173.548C303.236 174.415 303.98 174.849 304.982 174.849C305.761 174.849 306.379 174.541 306.836 173.926C307.299 173.305 307.531 172.385 307.531 171.166ZM315.828 167.949C315.581 167.908 315.315 167.888 315.028 167.888C313.961 167.888 313.238 168.342 312.857 169.25V176H311.231V166.49H312.813L312.839 167.589C313.373 166.739 314.128 166.314 315.107 166.314C315.423 166.314 315.664 166.355 315.828 166.438V167.949ZM321.101 176.176C319.812 176.176 318.763 175.754 317.955 174.91C317.146 174.061 316.742 172.927 316.742 171.509V171.21C316.742 170.267 316.92 169.426 317.278 168.688C317.641 167.943 318.145 167.363 318.789 166.947C319.44 166.525 320.143 166.314 320.899 166.314C322.135 166.314 323.096 166.722 323.782 167.536C324.467 168.351 324.81 169.517 324.81 171.034V171.711H318.368C318.391 172.648 318.664 173.407 319.185 173.987C319.712 174.562 320.38 174.849 321.189 174.849C321.763 174.849 322.249 174.731 322.648 174.497C323.046 174.263 323.395 173.952 323.694 173.565L324.687 174.339C323.89 175.563 322.695 176.176 321.101 176.176ZM320.899 167.65C320.243 167.65 319.692 167.891 319.247 168.371C318.801 168.846 318.526 169.514 318.42 170.375H323.184V170.252C323.137 169.426 322.914 168.787 322.516 168.336C322.118 167.879 321.579 167.65 320.899 167.65ZM332.571 176C332.477 175.812 332.401 175.479 332.342 174.998C331.586 175.783 330.684 176.176 329.635 176.176C328.698 176.176 327.927 175.912 327.324 175.385C326.726 174.852 326.427 174.178 326.427 173.363C326.427 172.373 326.802 171.605 327.552 171.061C328.308 170.51 329.369 170.234 330.734 170.234H332.316V169.487C332.316 168.919 332.146 168.468 331.806 168.134C331.466 167.794 330.965 167.624 330.303 167.624C329.723 167.624 329.237 167.771 328.844 168.063C328.452 168.356 328.255 168.711 328.255 169.127H326.621C326.621 168.652 326.788 168.195 327.122 167.756C327.461 167.311 327.918 166.959 328.493 166.701C329.073 166.443 329.708 166.314 330.4 166.314C331.496 166.314 332.354 166.59 332.975 167.141C333.596 167.686 333.918 168.438 333.942 169.399V173.776C333.942 174.649 334.053 175.344 334.276 175.859V176H332.571ZM329.872 174.761C330.382 174.761 330.866 174.629 331.323 174.365C331.78 174.102 332.111 173.759 332.316 173.337V171.386H331.041C329.049 171.386 328.053 171.969 328.053 173.135C328.053 173.645 328.223 174.043 328.563 174.33C328.903 174.617 329.339 174.761 329.872 174.761ZM336.095 171.166C336.095 169.707 336.441 168.535 337.132 167.65C337.824 166.76 338.729 166.314 339.848 166.314C340.961 166.314 341.843 166.695 342.494 167.457V162.5H344.12V176H342.625L342.546 174.98C341.896 175.777 340.991 176.176 339.831 176.176C338.729 176.176 337.83 175.725 337.132 174.822C336.441 173.92 336.095 172.742 336.095 171.289V171.166ZM337.721 171.351C337.721 172.429 337.944 173.272 338.389 173.882C338.834 174.491 339.45 174.796 340.235 174.796C341.266 174.796 342.019 174.333 342.494 173.407V169.039C342.007 168.143 341.26 167.694 340.252 167.694C339.456 167.694 338.834 168.002 338.389 168.617C337.944 169.232 337.721 170.144 337.721 171.351ZM295.507 185.188V187.49H297.283V188.747H295.507V194.645C295.507 195.025 295.586 195.312 295.745 195.506C295.903 195.693 296.172 195.787 296.553 195.787C296.741 195.787 296.998 195.752 297.327 195.682V197C296.899 197.117 296.483 197.176 296.079 197.176C295.352 197.176 294.804 196.956 294.435 196.517C294.066 196.077 293.881 195.453 293.881 194.645V188.747H292.15V187.49H293.881V185.188H295.507ZM298.583 192.157C298.583 191.226 298.765 190.388 299.128 189.644C299.498 188.899 300.007 188.325 300.658 187.921C301.314 187.517 302.061 187.314 302.899 187.314C304.194 187.314 305.24 187.763 306.037 188.659C306.839 189.556 307.241 190.748 307.241 192.236V192.351C307.241 193.276 307.062 194.108 306.705 194.847C306.353 195.579 305.846 196.15 305.184 196.561C304.528 196.971 303.772 197.176 302.916 197.176C301.627 197.176 300.581 196.728 299.779 195.831C298.982 194.935 298.583 193.748 298.583 192.271V192.157ZM300.218 192.351C300.218 193.405 300.461 194.252 300.948 194.891C301.44 195.529 302.096 195.849 302.916 195.849C303.743 195.849 304.399 195.526 304.885 194.882C305.372 194.231 305.615 193.323 305.615 192.157C305.615 191.114 305.366 190.271 304.868 189.626C304.375 188.976 303.719 188.65 302.899 188.65C302.096 188.65 301.449 188.97 300.956 189.608C300.464 190.247 300.218 191.161 300.218 192.351Z" fill="black"/>
<path d="M349.707 150.707C350.098 150.317 350.098 149.683 349.707 149.293L343.343 142.929C342.953 142.538 342.319 142.538 341.929 142.929C341.538 143.319 341.538 143.953 341.929 144.343L347.586 150L341.929 155.657C341.538 156.047 341.538 156.681 341.929 157.071C342.319 157.462 342.953 157.462 343.343 157.071L349.707 150.707ZM251 151H349V149H251V151Z" fill="black"/>
</svg>
