<svg width="600" height="300" viewBox="0 0 600 300" fill="none" xmlns="http://www.w3.org/2000/svg">
<rect width="600" height="300" fill="white"/>
<g clip-path="url(#clip0_576:2)">
<path d="M503 190C536.137 190 563 163.137 563 130C563 96.8629 536.137 70 503 70C469.863 70 443 96.8629 443 130C443 163.137 469.863 190 503 190Z" fill="#178181"/>
<path d="M563 130C563 117.962 559.455 106.752 553.352 97.3575C553.352 97.3575 549.929 102.358 550.572 105.572C551.215 108.786 554.991 109.031 554.603 111.389C554.216 113.747 551.43 110.714 548.001 116.928C544.572 123.142 546.287 131.716 551.215 132.358C556.143 132.999 563 130 563 130Z" fill="#2AA846"/>
<path d="M518.757 72.0907C525.741 73.9863 532.218 77.1119 537.942 81.2198C537.942 81.2198 530.985 80.0723 528.349 82.4287C525.714 84.7858 521.871 90.3581 518.757 82.4287C515.643 74.4998 518.757 72.0907 518.757 72.0907Z" fill="#2AA846"/>
<path d="M457.887 90.442C468.884 77.9111 485.018 70 503 70C503 70 498.929 72.4647 506.644 76.6431C514.358 80.8221 510.822 82.7503 509.215 84.036C507.608 85.3218 504.821 81.4647 503 78.8936C501.179 76.3218 493.36 72.3581 487.359 74.5014C481.359 76.6448 476.217 78.228 477.074 80.2221C477.93 82.2156 488.216 78.3599 492.073 78.5732C495.93 78.787 494.644 81.1436 491.002 83.9296C487.359 86.7156 486.93 90.1439 490.787 92.2865C494.644 94.4301 499.357 94.6446 500.43 93.359C501.502 92.0732 498.501 83.7161 505.787 87.3585C513.073 91.001 519.074 93.1455 513.073 98.5019C507.073 103.858 500.216 109.86 500.002 113.287C499.787 116.715 502.145 119.503 500.859 119.716C499.574 119.929 498.394 118.324 497.537 117.144C496.681 115.966 492.716 115.538 490.787 116.287C488.858 117.036 485.215 119.929 487.251 122.715C489.288 125.502 492.071 124.214 494.858 125.5C497.644 126.786 500.242 131.68 499.708 132.786C499.175 133.891 496.8 132.491 494.858 128.715C492.915 124.938 489.271 127.429 486.708 126.786C484.144 126.144 482.215 125.715 479.644 121.215C477.072 116.715 471.748 115.456 469.573 112.858C463.341 105.417 463.787 99.7867 462.501 97.2154C461.216 94.6434 457.887 90.442 457.887 90.442Z" fill="#2AA846"/>
<path d="M508.786 130.857C508.786 130.857 515.214 131.499 518.428 134.286C521.643 137.072 522.072 138.144 527 139.215C531.928 140.285 534.072 143.07 530.857 148.428C527.643 153.785 521.856 162.357 519.071 164.929C516.286 167.5 512.858 169.643 511.572 173.929C510.286 178.214 509.857 180.784 512.643 182.499C512.643 182.499 511.144 186.143 507.715 181.428C504.286 176.713 507.072 171.143 507.715 167.928C508.358 164.714 510.072 155.072 509 152.714C507.93 150.356 503 148.856 501.714 143.928C500.428 139 502.679 129.41 508.786 130.857Z" fill="#2AA846"/>
<path opacity="0.367001" d="M460.573 87.5739C484.005 64.1418 521.994 64.1423 545.426 87.5739C568.858 111.005 568.858 148.995 545.426 172.426C545.426 172.426 572.648 136.429 534.108 97.8878C495.567 59.3467 460.573 87.5739 460.573 87.5739Z" fill="#414141"/>
</g>
<path d="M145.194 103.081H36.8065C33.6047 103.081 31 105.686 31 108.888V172.759C31 175.961 33.6047 178.565 36.8065 178.565H145.194C148.395 178.565 151 175.961 151 172.759V108.888C151 105.686 148.395 103.081 145.194 103.081Z" fill="#FF4F19"/>
<path d="M96.8064 168.888H85.1935V178.565H96.8064V168.888Z" fill="#E3001E"/>
<path d="M143.311 163.081V168.888C143.311 169.957 142.444 170.823 141.376 170.823H40.7304C39.6615 170.823 38.7949 169.957 38.7949 168.888V163.081L50.3548 157.275L96.8064 159.21L135.516 157.275L143.311 163.081Z" fill="#E6BE8A"/>
<path d="M41.5104 165.754C57.415 159.188 75.4017 159.588 91.053 166.952V97.275C74.8856 89.6673 56.2266 89.4919 39.9444 96.7485C39.2437 97.0609 38.7949 97.77 38.7949 98.5372V163.984C38.7949 165.382 40.2182 166.287 41.5104 165.754Z" fill="#FFEBB7"/>
<path d="M91.053 166.952C106.704 159.587 124.691 159.188 140.596 165.754C141.888 166.287 143.311 165.382 143.311 163.984V98.5372C143.311 97.77 142.862 97.0609 142.162 96.7485C125.879 89.4919 107.22 89.6673 91.053 97.275V166.952Z" fill="#FFD788"/>
<path d="M98.7949 154.312C97.9709 154.312 97.2071 153.783 96.9482 152.956C96.6289 151.936 97.1957 150.85 98.2145 150.529C100.173 149.914 102.188 149.389 104.204 148.966C105.248 148.747 106.276 149.415 106.495 150.463C106.714 151.509 106.045 152.535 104.998 152.754C103.104 153.151 101.212 153.646 99.3751 154.223C99.1823 154.283 98.9858 154.312 98.7949 154.312Z" fill="#868491"/>
<path d="M135.569 154.312C135.378 154.312 135.182 154.283 134.989 154.223C127.686 151.929 120.115 151.07 112.496 151.677C111.415 151.754 110.499 150.965 110.414 149.9C110.33 148.834 111.124 147.902 112.19 147.817C120.322 147.178 128.374 148.087 136.15 150.529C137.168 150.85 137.735 151.936 137.416 152.956C137.157 153.783 136.393 154.312 135.569 154.312Z" fill="#868491"/>
<path d="M135.569 146.548C135.378 146.548 135.182 146.518 134.989 146.458C123.338 142.799 111.026 142.799 99.3753 146.458C98.351 146.778 97.2659 146.21 96.9485 145.192C96.6291 144.172 97.196 143.085 98.2148 142.765C110.625 138.867 123.739 138.867 136.15 142.765C137.168 143.085 137.735 144.172 137.416 145.192C137.157 146.018 136.393 146.548 135.569 146.548Z" fill="#868491"/>
<path d="M98.7949 138.828C97.9709 138.828 97.2071 138.299 96.9482 137.472C96.6289 136.453 97.1957 135.366 98.2145 135.045C105.338 132.81 112.731 131.858 120.178 132.208C121.244 132.259 122.07 133.165 122.019 134.233C121.969 135.303 121.077 136.119 119.992 136.075C113.005 135.745 106.062 136.639 99.3748 138.739C99.1823 138.799 98.9858 138.828 98.7949 138.828Z" fill="#868491"/>
<path d="M135.569 138.828C135.378 138.828 135.182 138.799 134.989 138.739C132.543 137.97 130.02 137.354 127.489 136.908C126.436 136.722 125.733 135.718 125.92 134.665C126.106 133.613 127.111 132.909 128.162 133.096C130.857 133.571 133.543 134.227 136.15 135.045C137.169 135.366 137.736 136.453 137.416 137.472C137.157 138.299 136.393 138.828 135.569 138.828Z" fill="#868491"/>
<path d="M135.569 131.064C135.378 131.064 135.182 131.034 134.989 130.974C123.338 127.315 111.026 127.315 99.3753 130.974C98.351 131.292 97.2659 130.725 96.9485 129.708C96.6291 128.688 97.196 127.601 98.2148 127.281C110.625 123.383 123.739 123.383 136.15 127.281C137.168 127.601 137.735 128.688 137.416 129.708C137.157 130.535 136.393 131.064 135.569 131.064Z" fill="#868491"/>
<path d="M98.7949 123.322C97.9709 123.322 97.2071 122.793 96.9482 121.966C96.6289 120.946 97.1957 119.859 98.2145 119.539C102.108 118.316 106.138 117.468 110.196 117.018C111.273 116.888 112.217 117.667 112.334 118.727C112.451 119.79 111.685 120.747 110.623 120.864C106.815 121.287 103.029 122.084 99.3751 123.232C99.1823 123.292 98.9858 123.322 98.7949 123.322Z" fill="#868491"/>
<path d="M135.569 123.322C135.378 123.322 135.182 123.293 134.989 123.232C129.525 121.515 123.85 120.598 118.121 120.509C117.052 120.492 116.199 119.612 116.216 118.543C116.233 117.475 117.167 116.575 118.182 116.638C124.283 116.734 130.33 117.71 136.15 119.539C137.168 119.859 137.735 120.946 137.416 121.966C137.155 122.793 136.393 123.322 135.569 123.322Z" fill="#868491"/>
<path d="M98.7949 115.603C97.9709 115.603 97.2071 115.073 96.9482 114.247C96.6289 113.227 97.1957 112.14 98.2145 111.82C106.648 109.171 115.377 108.32 124.17 109.298C125.232 109.415 125.997 110.373 125.88 111.435C125.763 112.496 124.825 113.283 123.742 113.145C115.494 112.23 107.293 113.025 99.3748 115.513C99.1823 115.573 98.9858 115.603 98.7949 115.603Z" fill="#868491"/>
<path d="M135.569 115.603C135.378 115.603 135.182 115.573 134.989 115.513C133.76 115.126 132.5 114.776 131.239 114.469C130.201 114.215 129.564 113.168 129.818 112.13C130.071 111.091 131.11 110.456 132.158 110.707C133.498 111.034 134.84 111.408 136.15 111.82C137.168 112.14 137.735 113.227 137.416 114.247C137.157 115.073 136.393 115.603 135.569 115.603Z" fill="#868491"/>
<path d="M98.7949 107.838C97.9709 107.838 97.2071 107.308 96.9482 106.481C96.6289 105.46 97.1957 104.375 98.2164 104.055C99.5471 103.637 100.889 103.264 102.206 102.944C103.239 102.69 104.291 103.328 104.545 104.367C104.798 105.406 104.159 106.453 103.121 106.705C101.885 107.006 100.624 107.356 99.3731 107.748C99.1803 107.809 98.9858 107.838 98.7949 107.838Z" fill="#868491"/>
<path d="M135.569 107.838C135.378 107.838 135.182 107.809 134.989 107.748C127.069 105.26 118.872 104.466 110.621 105.38C109.552 105.51 108.601 104.731 108.484 103.671C108.367 102.608 109.132 101.651 110.194 101.534C118.983 100.556 127.714 101.406 136.149 104.055C137.168 104.376 137.735 105.462 137.416 106.482C137.157 107.309 136.393 107.838 135.569 107.838Z" fill="#868491"/>
<path d="M46.5369 154.312C45.7128 154.312 44.9493 153.783 44.6902 152.956C44.3708 151.936 44.9377 150.85 45.9564 150.529C47.9147 149.914 49.9295 149.389 51.9463 148.966C52.9915 148.747 54.018 149.415 54.2372 150.463C54.4564 151.509 53.7874 152.535 52.7401 152.754C50.8462 153.151 48.9543 153.646 47.117 154.223C46.9242 154.283 46.7277 154.312 46.5369 154.312Z" fill="#B4B6BC"/>
<path d="M83.311 154.312C83.1201 154.312 82.9235 154.283 82.7309 154.223C75.4293 151.929 67.8574 151.07 60.2384 151.677C59.1422 151.754 58.2405 150.965 58.1556 149.9C58.0723 148.834 58.8664 147.902 59.9323 147.817C68.0635 147.178 76.1137 148.087 83.8914 150.529C84.9102 150.85 85.4773 151.936 85.1577 152.956C84.8986 153.783 84.1351 154.312 83.311 154.312Z" fill="#B4B6BC"/>
<path d="M83.311 146.548C83.1202 146.548 82.9235 146.518 82.7309 146.458C71.0802 142.799 58.7679 142.799 47.1173 146.458C46.089 146.778 45.0078 146.21 44.6904 145.192C44.371 144.172 44.9379 143.085 45.9567 142.765C58.3673 138.867 71.4809 138.867 83.8914 142.765C84.9102 143.085 85.4773 144.172 85.1577 145.192C84.8986 146.018 84.1351 146.548 83.311 146.548Z" fill="#B4B6BC"/>
<path d="M46.5369 138.828C45.7128 138.828 44.9493 138.299 44.6902 137.472C44.3708 136.453 44.9377 135.366 45.9564 135.045C53.0802 132.81 60.4781 131.858 67.9196 132.208C68.9856 132.259 69.8115 133.165 69.7605 134.233C69.7094 135.303 68.8077 136.119 67.7343 136.075C60.7445 135.745 53.8041 136.639 47.1168 138.739C46.9242 138.799 46.7277 138.828 46.5369 138.828Z" fill="#B4B6BC"/>
<path d="M83.311 138.828C83.1201 138.828 82.9235 138.799 82.7309 138.739C80.2852 137.97 77.7618 137.354 75.2309 136.908C74.178 136.722 73.4749 135.718 73.6622 134.665C73.8456 133.613 74.8549 132.909 75.9039 133.096C78.5993 133.571 81.2851 134.227 83.8917 135.045C84.9105 135.366 85.4776 136.453 85.158 137.472C84.8986 138.299 84.1351 138.828 83.311 138.828Z" fill="#B4B6BC"/>
<path d="M46.5369 131.064C45.7128 131.064 44.9493 130.534 44.6902 129.708C44.3708 128.688 44.9377 127.601 45.9564 127.281C56.959 123.827 68.6984 123.442 79.8973 126.169C80.9369 126.423 81.574 127.47 81.3207 128.508C81.0673 129.546 80.0147 130.178 78.9826 129.931C68.4659 127.367 57.4465 127.731 47.117 130.974C46.9242 131.034 46.7277 131.064 46.5369 131.064Z" fill="#B4B6BC"/>
<path d="M46.5369 123.322C45.7128 123.322 44.9493 122.793 44.6902 121.966C44.3708 120.946 44.9377 119.859 45.9564 119.539C49.8502 118.316 53.8798 117.468 57.9378 117.018C59.0057 116.888 59.9585 117.667 60.0756 118.727C60.1927 119.79 59.4272 120.747 58.3651 120.864C54.5565 121.287 50.7705 122.084 47.117 123.232C46.9242 123.292 46.7277 123.322 46.5369 123.322Z" fill="#B4B6BC"/>
<path d="M79.442 122.243C79.2908 122.243 79.1357 122.226 78.9828 122.189C74.6923 121.143 70.277 120.577 65.8634 120.508C64.7936 120.491 63.9412 119.611 63.9581 118.543C63.9751 117.475 64.8105 116.575 65.9239 116.637C70.6264 116.712 75.3272 117.314 79.8976 118.427C80.9372 118.68 81.5742 119.728 81.3209 120.766C81.1051 121.651 80.3132 122.243 79.442 122.243Z" fill="#B4B6BC"/>
<path d="M46.5369 115.603C45.7128 115.603 44.9493 115.073 44.6902 114.247C44.3708 113.227 44.9377 112.14 45.9564 111.82C54.392 109.171 63.1206 108.32 71.9115 109.298C72.9739 109.415 73.7394 110.373 73.622 111.435C73.5049 112.496 72.5597 113.283 71.4843 113.145C63.2357 112.23 55.0346 113.025 47.1168 115.513C46.9242 115.573 46.7277 115.603 46.5369 115.603Z" fill="#B4B6BC"/>
<path d="M46.5369 107.838C45.7128 107.838 44.9493 107.308 44.6902 106.481C44.3708 105.46 44.9377 104.375 45.9584 104.055C47.289 103.637 48.631 103.264 49.9484 102.944C50.9785 102.69 52.0331 103.328 52.2865 104.367C52.5398 105.406 51.9008 106.453 50.8631 106.705C49.6271 107.006 48.3664 107.356 47.1151 107.748C46.9223 107.809 46.7277 107.838 46.5369 107.838Z" fill="#B4B6BC"/>
<path d="M79.442 106.759C79.2908 106.759 79.1357 106.741 78.9828 106.704C72.2181 105.057 65.2813 104.613 58.3634 105.38C57.301 105.51 56.3427 104.732 56.2256 103.67C56.1085 102.608 56.874 101.651 57.9361 101.534C65.3018 100.713 72.6942 101.19 79.8973 102.943C80.9369 103.196 81.5739 104.243 81.3206 105.282C81.1051 106.166 80.3132 106.759 79.442 106.759Z" fill="#B4B6BC"/>
<path d="M79.4401 127.274C79.4403 128.046 80.3016 128.507 80.9447 128.079L85.2465 125.211L89.5484 128.079C90.1915 128.507 91.053 128.047 91.053 127.274V97.4356C91.053 96.6711 90.6071 95.9654 89.9084 95.6548C86.8946 94.3144 83.7973 93.2395 80.6514 92.4085C80.0377 92.2464 79.4345 92.7211 79.4348 93.3559L79.4401 127.274Z" fill="#5D647F"/>
<path d="M196.459 134.111L200.684 126.811H206.221L199.433 137.741L206.446 149H200.95L196.521 141.412L192.111 149H186.574L193.588 137.741L186.82 126.811H192.316L196.459 134.111Z" fill="black"/>
<path d="M243.746 188.917C246.646 189.376 249.398 187.9 250.721 185.466L262.243 160.792C262.49 160.226 262.706 159.625 262.781 158.962C262.811 158.669 262.844 158.327 262.844 158.037L262.765 139.295L280.459 147.022L283.327 165.336C283.895 168.012 286.084 170.155 288.943 170.599C292.669 171.139 296.138 168.58 296.709 164.887C296.8 164.255 296.8 163.623 296.737 163.024L293.245 140.911C292.825 138.785 291.41 136.938 289.42 136.013L273.606 128.974L283.683 111.432L288.668 117.778C289.178 118.346 289.84 118.841 290.595 119.132L309.627 124.705C312.17 125.245 314.762 123.925 315.738 121.491C316.849 118.714 315.524 115.592 312.802 114.465L312.522 114.389L295.984 109.511L286.789 98.4683C284.987 96.3045 281.466 93.5701 278.925 92.362L274.758 90.3767C273.815 89.9282 272.77 89.7803 271.751 89.8901C269.154 89.7398 256.526 89.5663 251.008 99.9618C244.844 111.573 248.806 125.51 248.806 125.51C248.799 125.681 248.766 125.847 248.766 126.02L249.26 156.34L238.789 178.899C238.417 179.564 238.157 180.346 238.034 181.164C237.464 184.898 240.02 188.341 243.746 188.917Z" fill="black"/>
<path d="M315.262 159.11L309.563 162.369C306.867 163.182 304.413 165.873 304.084 168.376C303.753 170.879 301.268 173.45 298.531 174.118L275.678 179.681C272.944 180.349 270.798 182.148 270.89 183.7C270.979 185.252 273.334 186.514 276.147 186.514H350.923C353.759 186.514 356.045 184.23 356.045 181.396L355.951 78.8193C355.949 76.0057 353.724 73.205 350.984 72.5627L349.965 72.3255C347.225 71.6859 344.506 73.3934 343.897 76.1406L339.819 94.4949C339.21 97.242 336.61 100.356 334.016 101.45L332.913 101.914C330.316 103.007 327.444 106.04 326.498 108.693L320.598 125.199C319.653 127.852 319.808 132.086 320.95 134.659L320.575 145.312C321.714 147.886 322.081 151.689 321.393 153.804C320.703 155.919 317.958 158.297 315.262 159.11Z" fill="black"/>
<path d="M282.445 89.4032C288.064 89.4032 292.639 84.8285 292.639 79.1887C292.639 73.5717 288.064 69 282.445 69C276.823 69 272.251 73.572 272.251 79.1887C272.251 84.8288 276.823 89.4032 282.445 89.4032Z" fill="black"/>
<path d="M412.4 133.004H394.723V128.861H412.4V133.004ZM412.4 141.699H394.723V137.577H412.4V141.699Z" fill="black"/>
<path d="M36.0039 219.744L33.5703 222.273V229H30.9453V209.094H33.5703V218.938L42.416 209.094H45.5879L37.7539 217.885L46.2031 229H43.0586L36.0039 219.744ZM50.168 214.207L50.25 216.066C51.3802 214.645 52.8568 213.934 54.6797 213.934C57.806 213.934 59.3828 215.697 59.4102 219.225V229H56.8809V219.211C56.8717 218.145 56.6257 217.356 56.1426 216.846C55.6686 216.335 54.9258 216.08 53.9141 216.08C53.0938 216.08 52.3737 216.299 51.7539 216.736C51.1341 217.174 50.651 217.748 50.3047 218.459V229H47.7754V214.207H50.168ZM62.5547 221.467C62.5547 220.018 62.8372 218.714 63.4023 217.557C63.9766 216.399 64.7695 215.506 65.7812 214.877C66.8021 214.248 67.9642 213.934 69.2676 213.934C71.2819 213.934 72.9089 214.631 74.1484 216.025C75.3971 217.42 76.0215 219.275 76.0215 221.59V221.768C76.0215 223.208 75.7435 224.502 75.1875 225.65C74.6406 226.79 73.8522 227.678 72.8223 228.316C71.8014 228.954 70.6257 229.273 69.2949 229.273C67.2897 229.273 65.6628 228.576 64.4141 227.182C63.1745 225.787 62.5547 223.941 62.5547 221.645V221.467ZM65.0977 221.768C65.0977 223.408 65.4759 224.725 66.2324 225.719C66.998 226.712 68.0189 227.209 69.2949 227.209C70.5801 227.209 71.6009 226.708 72.3574 225.705C73.1139 224.693 73.4922 223.281 73.4922 221.467C73.4922 219.844 73.1048 218.532 72.3301 217.529C71.5645 216.518 70.5436 216.012 69.2676 216.012C68.0189 216.012 67.0117 216.508 66.2461 217.502C65.4805 218.495 65.0977 219.917 65.0977 221.768ZM92.291 225.514L95.1348 214.207H97.6641L93.3574 229H91.3066L87.7109 217.789L84.2109 229H82.1602L77.8672 214.207H80.3828L83.2949 225.281L86.7402 214.207H88.7773L92.291 225.514ZM102.996 229H100.467V208H102.996V229ZM113.195 229.273C111.19 229.273 109.559 228.617 108.301 227.305C107.043 225.983 106.414 224.219 106.414 222.014V221.549C106.414 220.081 106.692 218.773 107.248 217.625C107.813 216.467 108.597 215.565 109.6 214.918C110.611 214.262 111.705 213.934 112.881 213.934C114.804 213.934 116.299 214.567 117.365 215.834C118.432 217.101 118.965 218.915 118.965 221.275V222.328H108.943C108.98 223.786 109.404 224.967 110.215 225.869C111.035 226.762 112.074 227.209 113.332 227.209C114.225 227.209 114.982 227.027 115.602 226.662C116.221 226.298 116.764 225.814 117.229 225.213L118.773 226.416C117.534 228.321 115.674 229.273 113.195 229.273ZM112.881 216.012C111.86 216.012 111.003 216.385 110.311 217.133C109.618 217.871 109.189 218.91 109.025 220.25H116.436V220.059C116.363 218.773 116.016 217.78 115.396 217.078C114.777 216.367 113.938 216.012 112.881 216.012ZM121.289 221.48C121.289 219.211 121.827 217.388 122.902 216.012C123.978 214.626 125.386 213.934 127.127 213.934C128.859 213.934 130.23 214.526 131.242 215.711V208H133.771V229H131.447L131.324 227.414C130.312 228.654 128.904 229.273 127.1 229.273C125.386 229.273 123.987 228.572 122.902 227.168C121.827 225.764 121.289 223.932 121.289 221.672V221.48ZM123.818 221.768C123.818 223.445 124.165 224.757 124.857 225.705C125.55 226.653 126.507 227.127 127.729 227.127C129.333 227.127 130.504 226.407 131.242 224.967V218.172C130.486 216.777 129.324 216.08 127.756 216.08C126.516 216.08 125.55 216.559 124.857 217.516C124.165 218.473 123.818 219.89 123.818 221.768ZM137.107 221.48C137.107 219.174 137.641 217.342 138.707 215.984C139.773 214.617 141.186 213.934 142.945 213.934C144.75 213.934 146.158 214.572 147.17 215.848L147.293 214.207H149.604V228.645C149.604 230.559 149.034 232.067 147.895 233.17C146.764 234.273 145.242 234.824 143.328 234.824C142.262 234.824 141.218 234.596 140.197 234.141C139.176 233.685 138.397 233.061 137.859 232.268L139.172 230.75C140.257 232.09 141.583 232.76 143.15 232.76C144.381 232.76 145.338 232.413 146.021 231.721C146.714 231.028 147.061 230.053 147.061 228.795V227.523C146.049 228.69 144.668 229.273 142.918 229.273C141.186 229.273 139.783 228.576 138.707 227.182C137.641 225.787 137.107 223.887 137.107 221.48ZM139.65 221.768C139.65 223.436 139.992 224.748 140.676 225.705C141.359 226.653 142.316 227.127 143.547 227.127C145.142 227.127 146.313 226.402 147.061 224.953V218.199C146.286 216.786 145.124 216.08 143.574 216.08C142.344 216.08 141.382 216.559 140.689 217.516C139.997 218.473 139.65 219.89 139.65 221.768ZM159.57 229.273C157.565 229.273 155.934 228.617 154.676 227.305C153.418 225.983 152.789 224.219 152.789 222.014V221.549C152.789 220.081 153.067 218.773 153.623 217.625C154.188 216.467 154.972 215.565 155.975 214.918C156.986 214.262 158.08 213.934 159.256 213.934C161.179 213.934 162.674 214.567 163.74 215.834C164.807 217.101 165.34 218.915 165.34 221.275V222.328H155.318C155.355 223.786 155.779 224.967 156.59 225.869C157.41 226.762 158.449 227.209 159.707 227.209C160.6 227.209 161.357 227.027 161.977 226.662C162.596 226.298 163.139 225.814 163.604 225.213L165.148 226.416C163.909 228.321 162.049 229.273 159.57 229.273ZM159.256 216.012C158.235 216.012 157.378 216.385 156.686 217.133C155.993 217.871 155.564 218.91 155.4 220.25H162.811V220.059C162.738 218.773 162.391 217.78 161.771 217.078C161.152 216.367 160.313 216.012 159.256 216.012Z" fill="black"/>
<path d="M266.453 221.207V229H263.828V209.094H271.17C273.348 209.094 275.053 209.65 276.283 210.762C277.523 211.874 278.143 213.346 278.143 215.178C278.143 217.11 277.536 218.6 276.324 219.648C275.121 220.688 273.394 221.207 271.143 221.207H266.453ZM266.453 219.061H271.17C272.574 219.061 273.649 218.732 274.396 218.076C275.144 217.411 275.518 216.454 275.518 215.205C275.518 214.02 275.144 213.072 274.396 212.361C273.649 211.65 272.624 211.281 271.32 211.254H266.453V219.061ZM288.246 216.477C287.863 216.413 287.449 216.381 287.002 216.381C285.343 216.381 284.217 217.087 283.625 218.5V229H281.096V214.207H283.557L283.598 215.916C284.427 214.594 285.603 213.934 287.125 213.934C287.617 213.934 287.991 213.997 288.246 214.125V216.477ZM299.17 229C299.024 228.708 298.906 228.189 298.814 227.441C297.639 228.663 296.235 229.273 294.604 229.273C293.145 229.273 291.947 228.863 291.008 228.043C290.078 227.214 289.613 226.165 289.613 224.898C289.613 223.358 290.197 222.164 291.363 221.316C292.539 220.46 294.189 220.031 296.312 220.031H298.773V218.869C298.773 217.985 298.509 217.283 297.98 216.764C297.452 216.235 296.673 215.971 295.643 215.971C294.74 215.971 293.984 216.199 293.373 216.654C292.762 217.11 292.457 217.661 292.457 218.309H289.914C289.914 217.57 290.174 216.859 290.693 216.176C291.222 215.483 291.933 214.936 292.826 214.535C293.729 214.134 294.717 213.934 295.793 213.934C297.497 213.934 298.833 214.362 299.799 215.219C300.765 216.066 301.266 217.238 301.303 218.732V225.541C301.303 226.899 301.476 227.979 301.822 228.781V229H299.17ZM294.973 227.072C295.766 227.072 296.518 226.867 297.229 226.457C297.939 226.047 298.454 225.514 298.773 224.857V221.822H296.791C293.692 221.822 292.143 222.729 292.143 224.543C292.143 225.336 292.407 225.956 292.936 226.402C293.464 226.849 294.143 227.072 294.973 227.072ZM311.201 227.209C312.104 227.209 312.892 226.936 313.566 226.389C314.241 225.842 314.615 225.158 314.688 224.338H317.08C317.035 225.186 316.743 225.992 316.205 226.758C315.667 227.523 314.947 228.134 314.045 228.59C313.152 229.046 312.204 229.273 311.201 229.273C309.187 229.273 307.583 228.604 306.389 227.264C305.204 225.915 304.611 224.074 304.611 221.74V221.316C304.611 219.876 304.876 218.596 305.404 217.475C305.933 216.354 306.689 215.483 307.674 214.863C308.667 214.243 309.839 213.934 311.188 213.934C312.846 213.934 314.223 214.43 315.316 215.424C316.419 216.417 317.007 217.707 317.08 219.293H314.688C314.615 218.336 314.25 217.552 313.594 216.941C312.947 216.322 312.145 216.012 311.188 216.012C309.902 216.012 308.904 216.477 308.193 217.406C307.492 218.327 307.141 219.662 307.141 221.412V221.891C307.141 223.595 307.492 224.908 308.193 225.828C308.895 226.749 309.898 227.209 311.201 227.209ZM323.355 210.625V214.207H326.117V216.162H323.355V225.336C323.355 225.928 323.479 226.375 323.725 226.676C323.971 226.967 324.39 227.113 324.982 227.113C325.274 227.113 325.675 227.059 326.186 226.949V229C325.52 229.182 324.873 229.273 324.244 229.273C323.114 229.273 322.262 228.932 321.688 228.248C321.113 227.564 320.826 226.594 320.826 225.336V216.162H318.133V214.207H320.826V210.625H323.355ZM331.832 229H329.303V214.207H331.832V229ZM329.098 210.283C329.098 209.873 329.221 209.527 329.467 209.244C329.722 208.962 330.096 208.82 330.588 208.82C331.08 208.82 331.454 208.962 331.709 209.244C331.964 209.527 332.092 209.873 332.092 210.283C332.092 210.693 331.964 211.035 331.709 211.309C331.454 211.582 331.08 211.719 330.588 211.719C330.096 211.719 329.722 211.582 329.467 211.309C329.221 211.035 329.098 210.693 329.098 210.283ZM341.826 227.209C342.729 227.209 343.517 226.936 344.191 226.389C344.866 225.842 345.24 225.158 345.312 224.338H347.705C347.66 225.186 347.368 225.992 346.83 226.758C346.292 227.523 345.572 228.134 344.67 228.59C343.777 229.046 342.829 229.273 341.826 229.273C339.812 229.273 338.208 228.604 337.014 227.264C335.829 225.915 335.236 224.074 335.236 221.74V221.316C335.236 219.876 335.501 218.596 336.029 217.475C336.558 216.354 337.314 215.483 338.299 214.863C339.292 214.243 340.464 213.934 341.812 213.934C343.471 213.934 344.848 214.43 345.941 215.424C347.044 216.417 347.632 217.707 347.705 219.293H345.312C345.24 218.336 344.875 217.552 344.219 216.941C343.572 216.322 342.77 216.012 341.812 216.012C340.527 216.012 339.529 216.477 338.818 217.406C338.117 218.327 337.766 219.662 337.766 221.412V221.891C337.766 223.595 338.117 224.908 338.818 225.828C339.52 226.749 340.523 227.209 341.826 227.209ZM356.688 229.273C354.682 229.273 353.051 228.617 351.793 227.305C350.535 225.983 349.906 224.219 349.906 222.014V221.549C349.906 220.081 350.184 218.773 350.74 217.625C351.305 216.467 352.089 215.565 353.092 214.918C354.104 214.262 355.197 213.934 356.373 213.934C358.296 213.934 359.791 214.567 360.857 215.834C361.924 217.101 362.457 218.915 362.457 221.275V222.328H352.436C352.472 223.786 352.896 224.967 353.707 225.869C354.527 226.762 355.566 227.209 356.824 227.209C357.717 227.209 358.474 227.027 359.094 226.662C359.714 226.298 360.256 225.814 360.721 225.213L362.266 226.416C361.026 228.321 359.167 229.273 356.688 229.273ZM356.373 216.012C355.352 216.012 354.495 216.385 353.803 217.133C353.11 217.871 352.682 218.91 352.518 220.25H359.928V220.059C359.855 218.773 359.508 217.78 358.889 217.078C358.269 216.367 357.43 216.012 356.373 216.012Z" fill="black"/>
<path d="M470.426 220.947H465.75V229H463.111V209.094H469.701C471.943 209.094 473.666 209.604 474.869 210.625C476.081 211.646 476.688 213.132 476.688 215.082C476.688 216.322 476.35 217.402 475.676 218.322C475.01 219.243 474.081 219.931 472.887 220.387L477.562 228.836V229H474.746L470.426 220.947ZM465.75 218.801H469.783C471.087 218.801 472.121 218.464 472.887 217.789C473.661 217.115 474.049 216.212 474.049 215.082C474.049 213.852 473.68 212.908 472.941 212.252C472.212 211.596 471.155 211.263 469.77 211.254H465.75V218.801ZM486.121 229.273C484.116 229.273 482.484 228.617 481.227 227.305C479.969 225.983 479.34 224.219 479.34 222.014V221.549C479.34 220.081 479.618 218.773 480.174 217.625C480.739 216.467 481.523 215.565 482.525 214.918C483.537 214.262 484.631 213.934 485.807 213.934C487.73 213.934 489.225 214.567 490.291 215.834C491.357 217.101 491.891 218.915 491.891 221.275V222.328H481.869C481.906 223.786 482.329 224.967 483.141 225.869C483.961 226.762 485 227.209 486.258 227.209C487.151 227.209 487.908 227.027 488.527 226.662C489.147 226.298 489.689 225.814 490.154 225.213L491.699 226.416C490.46 228.321 488.6 229.273 486.121 229.273ZM485.807 216.012C484.786 216.012 483.929 216.385 483.236 217.133C482.544 217.871 482.115 218.91 481.951 220.25H489.361V220.059C489.288 218.773 488.942 217.78 488.322 217.078C487.702 216.367 486.864 216.012 485.807 216.012ZM503.963 229C503.817 228.708 503.699 228.189 503.607 227.441C502.432 228.663 501.028 229.273 499.396 229.273C497.938 229.273 496.74 228.863 495.801 228.043C494.871 227.214 494.406 226.165 494.406 224.898C494.406 223.358 494.99 222.164 496.156 221.316C497.332 220.46 498.982 220.031 501.105 220.031H503.566V218.869C503.566 217.985 503.302 217.283 502.773 216.764C502.245 216.235 501.465 215.971 500.436 215.971C499.533 215.971 498.777 216.199 498.166 216.654C497.555 217.11 497.25 217.661 497.25 218.309H494.707C494.707 217.57 494.967 216.859 495.486 216.176C496.015 215.483 496.726 214.936 497.619 214.535C498.521 214.134 499.51 213.934 500.586 213.934C502.29 213.934 503.626 214.362 504.592 215.219C505.558 216.066 506.059 217.238 506.096 218.732V225.541C506.096 226.899 506.269 227.979 506.615 228.781V229H503.963ZM499.766 227.072C500.559 227.072 501.311 226.867 502.021 226.457C502.732 226.047 503.247 225.514 503.566 224.857V221.822H501.584C498.485 221.822 496.936 222.729 496.936 224.543C496.936 225.336 497.2 225.956 497.729 226.402C498.257 226.849 498.936 227.072 499.766 227.072ZM512.809 229H510.279V208H512.809V229ZM519.617 229H517.088V214.207H519.617V229ZM516.883 210.283C516.883 209.873 517.006 209.527 517.252 209.244C517.507 208.962 517.881 208.82 518.373 208.82C518.865 208.82 519.239 208.962 519.494 209.244C519.749 209.527 519.877 209.873 519.877 210.283C519.877 210.693 519.749 211.035 519.494 211.309C519.239 211.582 518.865 211.719 518.373 211.719C517.881 211.719 517.507 211.582 517.252 211.309C517.006 211.035 516.883 210.693 516.883 210.283ZM527.109 210.625V214.207H529.871V216.162H527.109V225.336C527.109 225.928 527.232 226.375 527.479 226.676C527.725 226.967 528.144 227.113 528.736 227.113C529.028 227.113 529.429 227.059 529.939 226.949V229C529.274 229.182 528.627 229.273 527.998 229.273C526.868 229.273 526.016 228.932 525.441 228.248C524.867 227.564 524.58 226.594 524.58 225.336V216.162H521.887V214.207H524.58V210.625H527.109ZM537.678 225.295L541.123 214.207H543.83L537.883 231.283C536.962 233.744 535.499 234.975 533.494 234.975L533.016 234.934L532.072 234.756V232.705L532.756 232.76C533.613 232.76 534.278 232.587 534.752 232.24C535.235 231.894 535.632 231.26 535.941 230.34L536.502 228.836L531.225 214.207H533.986L537.678 225.295Z" fill="black"/>
<defs>
<clipPath id="clip0_576:2">
<rect width="120" height="120" fill="white" transform="translate(443 70)"/>
</clipPath>
</defs>
</svg>
