<svg version="1.1" xmlns="http://www.w3.org/2000/svg" viewBox="0 0 518 493" width="1036" height="986">
  <!-- svg-source:excalidraw -->
  
  <defs>
    <style>
      @font-face {
        font-family: "Virgil";
        src: url("https://excalidraw.com/Virgil.woff2");
      }
      @font-face {
        font-family: "Cascadia";
        src: url("https://excalidraw.com/Cascadia.woff2");
      }
    </style>
  </defs>
  <rect x="0" y="0" width="518" height="493" fill="#ffffff"></rect><g stroke-linecap="round" transform="translate(10 10) rotate(0 114 49.5)"><path d="M-1.11 -0.29 C50.3 0.63, 103.75 -0.64, 229.7 0.9 M0.73 0.4 C87.1 -2.28, 174.52 -1.52, 227.75 -0.66 M226.33 1.06 C228.85 23.55, 228.91 47.25, 227.96 98.41 M227.14 -0.58 C227.93 33.85, 226.45 68.65, 227.62 98.34 M227.52 99.45 C141.17 100.54, 52.7 98.25, 0.99 98.52 M227.84 99.77 C181.86 97.41, 136.01 98.54, 0.35 98.92 M-1.11 97.19 C-1.24 65, 1.64 28.21, 1.96 -1.26 M0.65 98.56 C-1.31 75.86, -1.02 53.47, -0.02 -0.38" stroke="#000000" stroke-width="1" fill="none"></path></g><g transform="translate(15 48) rotate(0 109 11.5)"><text x="109" y="17" font-family="Virgil, Segoe UI Emoji" font-size="20px" fill="#000000" text-anchor="middle" style="white-space: pre;" direction="ltr">This is</text></g><g stroke-linecap="round" transform="translate(401 134) rotate(0 53.5 98.5)"><path d="M54.12 -0.42 C71.29 32.56, 89.02 66.16, 108 97.18 M54.83 -0.78 C65.22 23.44, 78.21 47.18, 107.82 98.42 M107.26 100.96 C89.78 127.15, 76.81 156.02, 52.06 195.27 M107.17 98.6 C94.99 123.54, 82.19 145.67, 54.49 197.08 M52.84 197.53 C36.14 158.24, 16.24 122.19, -1.33 100.89 M53.62 197 C32.7 160.15, 12.18 121.66, -0.76 98.61 M-1.23 98.44 C15.44 72.42, 29.8 48.63, 52.55 1.44 M0.59 98.33 C11.78 76.14, 23.92 55.05, 54.02 -0.39" stroke="#000000" stroke-width="1" fill="none"></path></g><g transform="translate(406 219.5) rotate(0 48.5 11.5)"><text x="48.5" y="17" font-family="Virgil, Segoe UI Emoji" font-size="20px" fill="#000000" text-anchor="middle" style="white-space: pre;" direction="ltr">a</text></g><g stroke-linecap="round" transform="translate(30 248) rotate(0 120.5 117.5)"><path d="M86.51 4.98 C98.66 -0.47, 115.2 -1.38, 128.81 -0.49 C142.41 0.4, 155.77 5.02, 168.16 10.31 C180.55 15.6, 193.26 22.26, 203.14 31.28 C213.02 40.29, 221.31 52.11, 227.46 64.4 C233.61 76.7, 238.3 91.73, 240.04 105.07 C241.77 118.42, 240.91 131.47, 237.85 144.49 C234.79 157.52, 229.23 172.02, 221.69 183.25 C214.15 194.47, 203.68 204.01, 192.61 211.84 C181.53 219.67, 168.36 226.5, 155.24 230.24 C142.12 233.97, 127.85 235.15, 113.9 234.23 C99.96 233.3, 84.25 229.79, 71.58 224.69 C58.9 219.59, 47.8 212.57, 37.84 203.61 C27.88 194.65, 18.09 183.18, 11.81 170.93 C5.52 158.69, 1.41 143.51, 0.15 130.17 C-1.11 116.83, 0.85 103.9, 4.27 90.91 C7.68 77.92, 13.28 63.55, 20.64 52.24 C28 40.93, 35.92 31.23, 48.42 23.06 C60.92 14.9, 86.12 6.61, 95.67 3.25 C105.22 -0.12, 105.42 1.15, 105.72 2.88 M94.85 2.08 C107.45 -2.44, 124.59 -1.64, 138.55 0.43 C152.51 2.51, 166.84 7.88, 178.62 14.51 C190.39 21.14, 200.42 30.47, 209.18 40.2 C217.94 49.93, 225.67 60.48, 231.18 72.88 C236.69 85.29, 241.77 101.28, 242.24 114.62 C242.71 127.96, 238.6 140.5, 234 152.91 C229.39 165.33, 222.84 178.39, 214.63 189.13 C206.43 199.87, 196.44 210.26, 184.77 217.35 C173.11 224.45, 158.35 228.76, 144.65 231.71 C130.95 234.67, 116.04 236.68, 102.57 235.08 C89.1 233.47, 75.92 228.52, 63.85 222.07 C51.78 215.63, 39.23 206.34, 30.13 196.4 C21.03 186.47, 14.31 174.99, 9.24 162.46 C4.18 149.93, 0.11 135.04, -0.28 121.23 C-0.67 107.43, 2.73 92.14, 6.9 79.64 C11.07 67.14, 16.16 56.77, 24.75 46.22 C33.33 35.67, 46.8 23.37, 58.42 16.33 C70.05 9.28, 87.98 6.05, 94.5 3.94 C101.02 1.83, 96.76 2.01, 97.54 3.65" stroke="#000000" stroke-width="1" fill="none"></path></g><g transform="translate(35 352.5) rotate(0 115.5 11.5)"><text x="115.5" y="17" font-family="Virgil, Segoe UI Emoji" font-size="20px" fill="#000000" text-anchor="middle" style="white-space: pre;" direction="ltr">Diagram</text></g><g stroke-linecap="round"><g transform="translate(242 51) rotate(0 89.71547602303326 64.689126253454)"><path d="M-1.02 1.02 C29.04 22.65, 150.24 107.86, 180.45 128.86 M0.64 0.52 C30.58 21.89, 149.91 105.97, 179.74 127.19" stroke="#000000" stroke-width="1" fill="none"></path></g><g transform="translate(242 51) rotate(0 89.71547602303326 64.689126253454)"><path d="M152.51 120.04 C161.04 122.39, 166.84 123.88, 180.98 125.6 M151.4 119.85 C156.96 120.26, 164.38 123.49, 179.25 126.63" stroke="#000000" stroke-width="1" fill="none"></path></g><g transform="translate(242 51) rotate(0 89.71547602303326 64.689126253454)"><path d="M164.36 103.29 C169.14 110.67, 171.31 117.28, 180.98 125.6 M163.25 103.1 C165.96 107.48, 170.62 114.61, 179.25 126.63" stroke="#000000" stroke-width="1" fill="none"></path></g></g><g stroke-linecap="round"><g transform="translate(418 286) rotate(0 -70.22574882778338 16.75655802084134)"><path d="M0.06 0.23 C-23.31 5.84, -116.2 27.2, -139.37 32.78 M-1.36 -0.69 C-25.01 5.17, -117.45 28.8, -140.51 34.2" stroke="#000000" stroke-width="1" fill="none"></path></g><g transform="translate(418 286) rotate(0 -70.22574882778338 16.75655802084134)"><path d="M-115.21 16.88 C-125.38 23.78, -133.15 28.67, -142.39 33.16 M-114.62 17.65 C-126.25 23.06, -135.44 30.53, -140.41 33.84" stroke="#000000" stroke-width="1" fill="none"></path></g><g transform="translate(418 286) rotate(0 -70.22574882778338 16.75655802084134)"><path d="M-110.3 36.8 C-122.17 36.26, -131.77 33.72, -142.39 33.16 M-109.71 37.57 C-123.32 35.07, -134.45 34.68, -140.41 33.84" stroke="#000000" stroke-width="1" fill="none"></path></g></g></svg>