<svg width="600" height="300" viewBox="0 0 600 300" fill="none" xmlns="http://www.w3.org/2000/svg">
<rect width="600" height="300" fill="white"/>
<rect x="130.5" y="41.5" width="136" height="58" rx="5.5" fill="white" stroke="black"/>
<rect x="130.5" y="41.5" width="136" height="58" rx="5.5" fill="white" stroke="black"/>
<circle cx="198" cy="210" r="49.5" fill="white" stroke="black"/>
<path d="M336.601 159.5L398 70.878L459.399 159.5H336.601Z" fill="white" stroke="black"/>
<path d="M187.126 67.2102V66.2727H193.672V67.2102H190.928V75H189.871V67.2102H187.126ZM196.172 71.0625V75H195.167V66.2727H196.172V69.4773H196.257C196.411 69.1392 196.641 68.8707 196.948 68.6719C197.257 68.4702 197.669 68.3693 198.184 68.3693C198.63 68.3693 199.02 68.4588 199.355 68.6378C199.691 68.8139 199.951 69.0852 200.135 69.4517C200.323 69.8153 200.417 70.2784 200.417 70.8409V75H199.411V70.9091C199.411 70.3892 199.276 69.9872 199.006 69.7031C198.739 69.4162 198.368 69.2727 197.894 69.2727C197.564 69.2727 197.269 69.3423 197.007 69.4815C196.749 69.6207 196.544 69.8239 196.394 70.0909C196.246 70.358 196.172 70.6818 196.172 71.0625ZM202.256 75V68.4545H203.262V75H202.256ZM202.768 67.3636C202.572 67.3636 202.403 67.2969 202.261 67.1634C202.121 67.0298 202.052 66.8693 202.052 66.6818C202.052 66.4943 202.121 66.3338 202.261 66.2003C202.403 66.0668 202.572 66 202.768 66C202.964 66 203.131 66.0668 203.271 66.2003C203.413 66.3338 203.484 66.4943 203.484 66.6818C203.484 66.8693 203.413 67.0298 203.271 67.1634C203.131 67.2969 202.964 67.3636 202.768 67.3636ZM209.74 69.9205L208.837 70.1761C208.78 70.0256 208.696 69.8793 208.586 69.7372C208.478 69.5923 208.33 69.473 208.142 69.3793C207.955 69.2855 207.715 69.2386 207.422 69.2386C207.022 69.2386 206.688 69.331 206.421 69.5156C206.157 69.6974 206.025 69.929 206.025 70.2102C206.025 70.4602 206.115 70.6577 206.297 70.8026C206.479 70.9474 206.763 71.0682 207.15 71.1648L208.121 71.4034C208.706 71.5455 209.142 71.7628 209.429 72.0554C209.716 72.3452 209.86 72.7187 209.86 73.1761C209.86 73.5511 209.752 73.8864 209.536 74.1818C209.323 74.4773 209.025 74.7102 208.641 74.8807C208.257 75.0511 207.811 75.1364 207.303 75.1364C206.635 75.1364 206.083 74.9915 205.645 74.7017C205.208 74.4119 204.931 73.9886 204.814 73.4318L205.769 73.1932C205.86 73.5455 206.032 73.8097 206.284 73.9858C206.54 74.1619 206.874 74.25 207.286 74.25C207.755 74.25 208.127 74.1506 208.402 73.9517C208.681 73.75 208.82 73.5085 208.82 73.2273C208.82 73 208.74 72.8097 208.581 72.6562C208.422 72.5 208.178 72.3835 207.848 72.3068L206.757 72.0511C206.158 71.9091 205.718 71.6889 205.436 71.3906C205.158 71.0895 205.019 70.7131 205.019 70.2614C205.019 69.892 205.123 69.5653 205.33 69.2812C205.54 68.9972 205.826 68.7741 206.186 68.6122C206.55 68.4503 206.962 68.3693 207.422 68.3693C208.07 68.3693 208.578 68.5114 208.948 68.7955C209.32 69.0795 209.584 69.4545 209.74 69.9205Z" fill="black"/>
<path d="M388.794 135V128.455H389.799V135H388.794ZM389.305 127.364C389.109 127.364 388.94 127.297 388.798 127.163C388.659 127.03 388.589 126.869 388.589 126.682C388.589 126.494 388.659 126.334 388.798 126.2C388.94 126.067 389.109 126 389.305 126C389.501 126 389.669 126.067 389.808 126.2C389.95 126.334 390.021 126.494 390.021 126.682C390.021 126.869 389.95 127.03 389.808 127.163C389.669 127.297 389.501 127.364 389.305 127.364ZM396.278 129.92L395.374 130.176C395.317 130.026 395.233 129.879 395.123 129.737C395.015 129.592 394.867 129.473 394.68 129.379C394.492 129.286 394.252 129.239 393.959 129.239C393.559 129.239 393.225 129.331 392.958 129.516C392.694 129.697 392.562 129.929 392.562 130.21C392.562 130.46 392.653 130.658 392.834 130.803C393.016 130.947 393.3 131.068 393.687 131.165L394.658 131.403C395.243 131.545 395.68 131.763 395.966 132.055C396.253 132.345 396.397 132.719 396.397 133.176C396.397 133.551 396.289 133.886 396.073 134.182C395.86 134.477 395.562 134.71 395.178 134.881C394.795 135.051 394.349 135.136 393.84 135.136C393.172 135.136 392.62 134.991 392.182 134.702C391.745 134.412 391.468 133.989 391.351 133.432L392.306 133.193C392.397 133.545 392.569 133.81 392.822 133.986C393.077 134.162 393.411 134.25 393.823 134.25C394.292 134.25 394.664 134.151 394.939 133.952C395.218 133.75 395.357 133.509 395.357 133.227C395.357 133 395.278 132.81 395.118 132.656C394.959 132.5 394.715 132.384 394.385 132.307L393.295 132.051C392.695 131.909 392.255 131.689 391.974 131.391C391.695 131.089 391.556 130.713 391.556 130.261C391.556 129.892 391.66 129.565 391.867 129.281C392.077 128.997 392.363 128.774 392.724 128.612C393.087 128.45 393.499 128.369 393.959 128.369C394.607 128.369 395.116 128.511 395.485 128.795C395.857 129.08 396.121 129.455 396.278 129.92ZM403.212 135.153C402.797 135.153 402.421 135.075 402.083 134.919C401.744 134.76 401.476 134.531 401.277 134.233C401.078 133.932 400.979 133.568 400.979 133.142C400.979 132.767 401.053 132.463 401.2 132.23C401.348 131.994 401.546 131.81 401.793 131.676C402.04 131.543 402.313 131.443 402.611 131.378C402.912 131.31 403.215 131.256 403.519 131.216C403.916 131.165 404.239 131.126 404.486 131.101C404.736 131.072 404.918 131.026 405.031 130.96C405.148 130.895 405.206 130.781 405.206 130.619V130.585C405.206 130.165 405.091 129.838 404.861 129.605C404.634 129.372 404.289 129.256 403.825 129.256C403.345 129.256 402.969 129.361 402.696 129.571C402.423 129.781 402.232 130.006 402.121 130.244L401.166 129.903C401.337 129.506 401.564 129.196 401.848 128.974C402.135 128.75 402.448 128.594 402.786 128.506C403.127 128.415 403.462 128.369 403.791 128.369C404.002 128.369 404.243 128.395 404.516 128.446C404.791 128.494 405.057 128.595 405.313 128.749C405.571 128.902 405.786 129.134 405.956 129.443C406.127 129.753 406.212 130.168 406.212 130.688V135H405.206V134.114H405.155C405.087 134.256 404.973 134.408 404.814 134.57C404.655 134.732 404.443 134.869 404.179 134.983C403.915 135.097 403.593 135.153 403.212 135.153ZM403.365 134.25C403.763 134.25 404.098 134.172 404.371 134.016C404.646 133.859 404.854 133.658 404.993 133.411C405.135 133.163 405.206 132.903 405.206 132.631V131.71C405.164 131.761 405.07 131.808 404.925 131.851C404.783 131.891 404.618 131.926 404.431 131.957C404.246 131.986 404.066 132.011 403.889 132.034C403.716 132.054 403.575 132.071 403.468 132.085C403.206 132.119 402.962 132.175 402.735 132.251C402.51 132.325 402.328 132.437 402.189 132.588C402.053 132.736 401.985 132.937 401.985 133.193C401.985 133.543 402.114 133.807 402.372 133.986C402.634 134.162 402.965 134.25 403.365 134.25Z" fill="black"/>
<path d="M177.648 215H174.955V206.273H177.768C178.614 206.273 179.339 206.447 179.941 206.797C180.543 207.143 181.005 207.642 181.326 208.293C181.647 208.94 181.808 209.716 181.808 210.619C181.808 211.528 181.646 212.311 181.322 212.967C180.998 213.621 180.526 214.124 179.907 214.476C179.288 214.825 178.535 215 177.648 215ZM176.012 214.062H177.58C178.302 214.062 178.9 213.923 179.374 213.645C179.849 213.366 180.202 212.97 180.435 212.456C180.668 211.942 180.785 211.33 180.785 210.619C180.785 209.915 180.67 209.308 180.44 208.8C180.21 208.288 179.866 207.896 179.408 207.624C178.951 207.348 178.381 207.21 177.7 207.21H176.012V214.062ZM183.444 215V208.455H184.45V215H183.444ZM183.955 207.364C183.759 207.364 183.59 207.297 183.448 207.163C183.309 207.03 183.239 206.869 183.239 206.682C183.239 206.494 183.309 206.334 183.448 206.2C183.59 206.067 183.759 206 183.955 206C184.151 206 184.319 206.067 184.458 206.2C184.6 206.334 184.671 206.494 184.671 206.682C184.671 206.869 184.6 207.03 184.458 207.163C184.319 207.297 184.151 207.364 183.955 207.364ZM188.218 215.153C187.803 215.153 187.426 215.075 187.088 214.919C186.75 214.76 186.482 214.531 186.283 214.233C186.084 213.932 185.985 213.568 185.985 213.142C185.985 212.767 186.059 212.463 186.206 212.23C186.354 211.994 186.551 211.81 186.799 211.676C187.046 211.543 187.319 211.443 187.617 211.378C187.918 211.31 188.221 211.256 188.525 211.216C188.922 211.165 189.245 211.126 189.492 211.101C189.742 211.072 189.924 211.026 190.037 210.96C190.154 210.895 190.212 210.781 190.212 210.619V210.585C190.212 210.165 190.097 209.838 189.867 209.605C189.64 209.372 189.294 209.256 188.831 209.256C188.351 209.256 187.975 209.361 187.702 209.571C187.429 209.781 187.238 210.006 187.127 210.244L186.172 209.903C186.343 209.506 186.57 209.196 186.854 208.974C187.141 208.75 187.453 208.594 187.792 208.506C188.132 208.415 188.468 208.369 188.797 208.369C189.007 208.369 189.249 208.395 189.522 208.446C189.797 208.494 190.063 208.595 190.319 208.749C190.577 208.902 190.792 209.134 190.962 209.443C191.132 209.753 191.218 210.168 191.218 210.688V215H190.212V214.114H190.161C190.093 214.256 189.979 214.408 189.82 214.57C189.661 214.732 189.449 214.869 189.185 214.983C188.921 215.097 188.598 215.153 188.218 215.153ZM188.371 214.25C188.769 214.25 189.104 214.172 189.377 214.016C189.652 213.859 189.86 213.658 189.999 213.411C190.141 213.163 190.212 212.903 190.212 212.631V211.71C190.169 211.761 190.076 211.808 189.931 211.851C189.789 211.891 189.624 211.926 189.436 211.957C189.252 211.986 189.071 212.011 188.895 212.034C188.722 212.054 188.581 212.071 188.473 212.085C188.212 212.119 187.968 212.175 187.74 212.251C187.516 212.325 187.334 212.437 187.195 212.588C187.059 212.736 186.99 212.937 186.99 213.193C186.99 213.543 187.12 213.807 187.378 213.986C187.64 214.162 187.971 214.25 188.371 214.25ZM195.695 217.591C195.21 217.591 194.792 217.528 194.442 217.403C194.093 217.281 193.802 217.119 193.569 216.918C193.339 216.719 193.156 216.506 193.019 216.278L193.82 215.716C193.911 215.835 194.026 215.972 194.165 216.125C194.305 216.281 194.495 216.416 194.737 216.53C194.981 216.646 195.3 216.705 195.695 216.705C196.224 216.705 196.66 216.577 197.004 216.321C197.347 216.065 197.519 215.665 197.519 215.119V213.79H197.434C197.36 213.909 197.255 214.057 197.119 214.233C196.985 214.406 196.792 214.561 196.539 214.697C196.289 214.831 195.951 214.898 195.525 214.898C194.996 214.898 194.522 214.773 194.102 214.523C193.684 214.273 193.353 213.909 193.109 213.432C192.867 212.955 192.746 212.375 192.746 211.693C192.746 211.023 192.864 210.439 193.1 209.942C193.336 209.442 193.664 209.055 194.085 208.783C194.505 208.507 194.991 208.369 195.542 208.369C195.968 208.369 196.306 208.44 196.556 208.582C196.809 208.722 197.002 208.881 197.136 209.06C197.272 209.236 197.377 209.381 197.451 209.494H197.553V208.455H198.525V215.188C198.525 215.75 198.397 216.207 198.141 216.56C197.888 216.915 197.548 217.175 197.119 217.339C196.692 217.507 196.218 217.591 195.695 217.591ZM195.661 213.994C196.065 213.994 196.406 213.902 196.684 213.717C196.962 213.533 197.174 213.267 197.319 212.92C197.464 212.574 197.536 212.159 197.536 211.676C197.536 211.205 197.465 210.788 197.323 210.428C197.181 210.067 196.971 209.784 196.692 209.58C196.414 209.375 196.07 209.273 195.661 209.273C195.235 209.273 194.88 209.381 194.596 209.597C194.315 209.812 194.103 210.102 193.961 210.466C193.822 210.83 193.752 211.233 193.752 211.676C193.752 212.131 193.823 212.533 193.965 212.882C194.11 213.229 194.323 213.501 194.604 213.7C194.888 213.896 195.241 213.994 195.661 213.994ZM200.366 215V208.455H201.337V209.443H201.406C201.525 209.119 201.741 208.857 202.053 208.655C202.366 208.453 202.718 208.352 203.11 208.352C203.184 208.352 203.276 208.354 203.387 208.357C203.498 208.359 203.582 208.364 203.638 208.369V209.392C203.604 209.384 203.526 209.371 203.404 209.354C203.285 209.334 203.158 209.324 203.025 209.324C202.707 209.324 202.423 209.391 202.173 209.524C201.925 209.655 201.729 209.837 201.585 210.07C201.442 210.3 201.371 210.562 201.371 210.858V215H200.366ZM206.757 215.153C206.342 215.153 205.966 215.075 205.627 214.919C205.289 214.76 205.021 214.531 204.822 214.233C204.623 213.932 204.524 213.568 204.524 213.142C204.524 212.767 204.598 212.463 204.745 212.23C204.893 211.994 205.091 211.81 205.338 211.676C205.585 211.543 205.858 211.443 206.156 211.378C206.457 211.31 206.76 211.256 207.064 211.216C207.461 211.165 207.784 211.126 208.031 211.101C208.281 211.072 208.463 211.026 208.576 210.96C208.693 210.895 208.751 210.781 208.751 210.619V210.585C208.751 210.165 208.636 209.838 208.406 209.605C208.179 209.372 207.833 209.256 207.37 209.256C206.89 209.256 206.514 209.361 206.241 209.571C205.968 209.781 205.777 210.006 205.666 210.244L204.711 209.903C204.882 209.506 205.109 209.196 205.393 208.974C205.68 208.75 205.993 208.594 206.331 208.506C206.672 208.415 207.007 208.369 207.336 208.369C207.547 208.369 207.788 208.395 208.061 208.446C208.336 208.494 208.602 208.595 208.858 208.749C209.116 208.902 209.331 209.134 209.501 209.443C209.672 209.753 209.757 210.168 209.757 210.688V215H208.751V214.114H208.7C208.632 214.256 208.518 214.408 208.359 214.57C208.2 214.732 207.988 214.869 207.724 214.983C207.46 215.097 207.137 215.153 206.757 215.153ZM206.91 214.25C207.308 214.25 207.643 214.172 207.916 214.016C208.191 213.859 208.399 213.658 208.538 213.411C208.68 213.163 208.751 212.903 208.751 212.631V211.71C208.708 211.761 208.615 211.808 208.47 211.851C208.328 211.891 208.163 211.926 207.975 211.957C207.791 211.986 207.61 212.011 207.434 212.034C207.261 212.054 207.12 212.071 207.012 212.085C206.751 212.119 206.507 212.175 206.279 212.251C206.055 212.325 205.873 212.437 205.734 212.588C205.598 212.736 205.529 212.937 205.529 213.193C205.529 213.543 205.659 213.807 205.917 213.986C206.179 214.162 206.51 214.25 206.91 214.25ZM211.592 215V208.455H212.564V209.477H212.649C212.786 209.128 213.006 208.857 213.31 208.663C213.614 208.467 213.979 208.369 214.405 208.369C214.837 208.369 215.196 208.467 215.483 208.663C215.773 208.857 215.999 209.128 216.161 209.477H216.229C216.396 209.139 216.648 208.871 216.983 208.672C217.318 208.47 217.72 208.369 218.189 208.369C218.774 208.369 219.253 208.553 219.625 208.919C219.997 209.283 220.183 209.849 220.183 210.619V215H219.178V210.619C219.178 210.136 219.045 209.791 218.781 209.584C218.517 209.376 218.206 209.273 217.848 209.273C217.388 209.273 217.031 209.412 216.778 209.69C216.526 209.966 216.399 210.315 216.399 210.739V215H215.376V210.517C215.376 210.145 215.256 209.845 215.014 209.618C214.773 209.388 214.462 209.273 214.081 209.273C213.82 209.273 213.575 209.342 213.348 209.482C213.124 209.621 212.942 209.814 212.803 210.061C212.666 210.305 212.598 210.588 212.598 210.909V215H211.592Z" fill="black"/>
<path d="M369.395 111.918C369.903 111.7 370.137 111.112 369.918 110.605L366.359 102.338C366.141 101.831 365.553 101.597 365.045 101.815C364.538 102.034 364.304 102.622 364.522 103.129L367.686 110.477L360.338 113.641C359.831 113.859 359.597 114.447 359.815 114.955C360.034 115.462 360.622 115.696 361.129 115.478L369.395 111.918ZM265.63 70.9291L368.63 111.929L369.37 110.071L266.37 69.0709L265.63 70.9291Z" fill="black"/>
<path d="M247.106 209.553C246.859 210.047 247.059 210.647 247.553 210.894L255.603 214.919C256.097 215.166 256.697 214.966 256.944 214.472C257.191 213.978 256.991 213.377 256.497 213.13L249.342 209.553L252.919 202.397C253.166 201.903 252.966 201.303 252.472 201.056C251.978 200.809 251.377 201.009 251.13 201.503L247.106 209.553ZM397.684 159.051L247.684 209.051L248.316 210.949L398.316 160.949L397.684 159.051Z" fill="black"/>
</svg>
