<svg width="128" height="128" xmlns="http://www.w3.org/2000/svg"><g fill="none" fill-rule="evenodd"><path d="M100.048 35.413c2.012-10.197.887-17.936-3.87-21.01-1.585-1.026-3.486-1.475-5.625-1.394C79 13.446 60.36 29.282 45.132 52.631c-18.05 27.672-24.464 55.405-14.317 61.966 4.817 3.114 12.492.906 21.163-5.246" stroke="#988086" stroke-width="6" stroke-linecap="round"/><path d="M109.863 80c8.577-3.294 13.852-7.803 14.126-12.981.634-11.976-25.692-23.063-58.827-24.782A166.188 166.188 0 0056.013 42c-28.882.096-51.427 7.94-52.002 18.793-.273 5.168 4.483 10.18 12.636 14.338" stroke="#988086" stroke-width="6" stroke-linecap="round"/><path d="M55.32 17.12c-5.86-4.828-11.356-7.421-15.77-7.092-1.176.087-2.263.375-3.274.886-10.776 5.453-7.334 33.654 7.707 62.967 15.04 29.313 35.968 48.652 46.745 43.199 10.363-5.244 7.566-31.522-6.04-59.598" stroke="#988086" stroke-width="6" stroke-linecap="round"/><path d="M73 66a8 8 0 11-16 0 8 8 0 0116 0z" fill="#988086" fill-rule="nonzero"/></g></svg>
