<svg width="600" height="300" viewBox="0 0 600 300" fill="none" xmlns="http://www.w3.org/2000/svg">
<rect width="600" height="300" fill="white"/>
<rect x="22.5" y="20.5" width="139" height="39" rx="3.5" fill="white" stroke="black"/>
<path d="M59.709 48V32.3594H64.124C65.4847 32.3594 66.6878 32.6602 67.7334 33.2617C68.779 33.8633 69.5846 34.7191 70.1504 35.8291C70.7233 36.9391 71.0134 38.2139 71.0205 39.6533V40.6523C71.0205 42.1276 70.7341 43.4202 70.1611 44.5303C69.5954 45.6403 68.7826 46.4925 67.7227 47.0869C66.6699 47.6813 65.4417 47.9857 64.0381 48H59.709ZM61.7715 34.0566V46.3135H63.9414C65.5313 46.3135 66.7666 45.8193 67.6475 44.8311C68.5355 43.8428 68.9795 42.4355 68.9795 40.6094V39.6963C68.9795 37.9202 68.5606 36.5417 67.7227 35.5605C66.8919 34.5723 65.7103 34.071 64.1777 34.0566H61.7715ZM79.4531 38.1602C79.1524 38.11 78.8265 38.085 78.4756 38.085C77.1722 38.085 76.2878 38.64 75.8223 39.75V48H73.835V36.377H75.7686L75.8008 37.7197C76.4525 36.6813 77.3763 36.1621 78.5723 36.1621C78.959 36.1621 79.2526 36.2122 79.4531 36.3125V38.1602ZM83.4492 48H81.4619V36.377H83.4492V48ZM81.3008 33.2939C81.3008 32.9717 81.3975 32.6995 81.5908 32.4775C81.7913 32.2555 82.085 32.1445 82.4717 32.1445C82.8584 32.1445 83.152 32.2555 83.3525 32.4775C83.5531 32.6995 83.6533 32.9717 83.6533 33.2939C83.6533 33.6162 83.5531 33.8848 83.3525 34.0996C83.152 34.3145 82.8584 34.4219 82.4717 34.4219C82.085 34.4219 81.7913 34.3145 81.5908 34.0996C81.3975 33.8848 81.3008 33.6162 81.3008 33.2939ZM90.4746 45.3037L93.3535 36.377H95.3838L91.2158 48H89.7012L85.4902 36.377H87.5205L90.4746 45.3037ZM101.969 48.2148C100.393 48.2148 99.1113 47.6992 98.1231 46.668C97.1348 45.6296 96.6406 44.2438 96.6406 42.5107V42.1455C96.6406 40.9925 96.8591 39.9648 97.2959 39.0625C97.7399 38.153 98.3558 37.444 99.1436 36.9355C99.9385 36.4199 100.798 36.1621 101.722 36.1621C103.233 36.1621 104.407 36.6598 105.245 37.6553C106.083 38.6507 106.502 40.0758 106.502 41.9307V42.7578H98.6279C98.6566 43.9036 98.9896 44.8311 99.627 45.54C100.271 46.2419 101.088 46.5928 102.076 46.5928C102.778 46.5928 103.372 46.4495 103.859 46.1631C104.346 45.8766 104.772 45.4971 105.138 45.0244L106.352 45.9697C105.378 47.4665 103.917 48.2148 101.969 48.2148ZM101.722 37.7949C100.92 37.7949 100.246 38.0885 99.7022 38.6758C99.1579 39.2559 98.8213 40.0723 98.6924 41.125H104.515V40.9746C104.457 39.9648 104.185 39.1842 103.698 38.6328C103.211 38.0742 102.552 37.7949 101.722 37.7949ZM114.43 38.1602C114.129 38.11 113.803 38.085 113.452 38.085C112.149 38.085 111.264 38.64 110.799 39.75V48H108.812V36.377H110.745L110.777 37.7197C111.429 36.6813 112.353 36.1621 113.549 36.1621C113.936 36.1621 114.229 36.2122 114.43 36.3125V38.1602ZM123.034 44.917C123.034 44.3799 122.83 43.9645 122.422 43.6709C122.021 43.3701 121.315 43.1123 120.306 42.8975C119.303 42.6826 118.505 42.4248 117.91 42.124C117.323 41.8232 116.886 41.4652 116.6 41.0498C116.32 40.6344 116.181 40.1403 116.181 39.5674C116.181 38.6149 116.582 37.8092 117.384 37.1504C118.193 36.4915 119.224 36.1621 120.478 36.1621C121.795 36.1621 122.862 36.5023 123.679 37.1826C124.502 37.863 124.914 38.7331 124.914 39.793H122.916C122.916 39.2487 122.683 38.7796 122.218 38.3857C121.759 37.9919 121.179 37.7949 120.478 37.7949C119.754 37.7949 119.188 37.9525 118.78 38.2676C118.372 38.5827 118.168 38.9945 118.168 39.5029C118.168 39.9827 118.358 40.3444 118.737 40.5879C119.117 40.8314 119.801 41.0641 120.789 41.2861C121.785 41.5081 122.59 41.7731 123.206 42.0811C123.822 42.389 124.277 42.7614 124.57 43.1982C124.871 43.6279 125.021 44.1543 125.021 44.7773C125.021 45.8158 124.606 46.6501 123.775 47.2803C122.945 47.9033 121.867 48.2148 120.542 48.2148C119.611 48.2148 118.787 48.0501 118.071 47.7207C117.355 47.3913 116.793 46.9329 116.385 46.3457C115.984 45.7513 115.783 45.1104 115.783 44.4229H117.771C117.806 45.0889 118.071 45.6188 118.565 46.0127C119.067 46.3994 119.726 46.5928 120.542 46.5928C121.294 46.5928 121.896 46.4424 122.347 46.1416C122.805 45.8337 123.034 45.4255 123.034 44.917Z" fill="black"/>
<rect x="358.5" y="22.5" width="139" height="39" rx="3.5" fill="white" stroke="black"/>
<path d="M369.713 43.877V50H367.65V34.3594H373.419C375.131 34.3594 376.47 34.7962 377.437 35.6699C378.41 36.5436 378.897 37.7002 378.897 39.1396C378.897 40.6579 378.421 41.8288 377.469 42.6523C376.523 43.4688 375.166 43.877 373.397 43.877H369.713ZM369.713 42.1904H373.419C374.522 42.1904 375.367 41.9326 375.954 41.417C376.541 40.8942 376.835 40.1423 376.835 39.1611C376.835 38.2301 376.541 37.4854 375.954 36.9268C375.367 36.3682 374.561 36.0781 373.537 36.0566H369.713V42.1904ZM386.836 40.1602C386.535 40.11 386.209 40.085 385.858 40.085C384.555 40.085 383.671 40.64 383.205 41.75V50H381.218V38.377H383.151L383.184 39.7197C383.835 38.6813 384.759 38.1621 385.955 38.1621C386.342 38.1621 386.635 38.2122 386.836 38.3125V40.1602ZM393.281 50.2148C391.706 50.2148 390.424 49.6992 389.436 48.668C388.447 47.6296 387.953 46.2438 387.953 44.5107V44.1455C387.953 42.9925 388.172 41.9648 388.608 41.0625C389.052 40.153 389.668 39.444 390.456 38.9355C391.251 38.4199 392.11 38.1621 393.034 38.1621C394.545 38.1621 395.72 38.6598 396.558 39.6553C397.396 40.6507 397.814 42.0758 397.814 43.9307V44.7578H389.94C389.969 45.9036 390.302 46.8311 390.939 47.54C391.584 48.2419 392.4 48.5928 393.389 48.5928C394.09 48.5928 394.685 48.4495 395.172 48.1631C395.659 47.8766 396.085 47.4971 396.45 47.0244L397.664 47.9697C396.69 49.4665 395.229 50.2148 393.281 50.2148ZM393.034 39.7949C392.232 39.7949 391.559 40.0885 391.015 40.6758C390.47 41.2559 390.134 42.0723 390.005 43.125H395.827V42.9746C395.77 41.9648 395.498 41.1842 395.011 40.6328C394.524 40.0742 393.865 39.7949 393.034 39.7949ZM406.892 46.917C406.892 46.3799 406.688 45.9645 406.279 45.6709C405.878 45.3701 405.173 45.1123 404.163 44.8975C403.16 44.6826 402.362 44.4248 401.768 44.124C401.18 43.8232 400.743 43.4652 400.457 43.0498C400.178 42.6344 400.038 42.1403 400.038 41.5674C400.038 40.6149 400.439 39.8092 401.241 39.1504C402.05 38.4915 403.082 38.1621 404.335 38.1621C405.653 38.1621 406.72 38.5023 407.536 39.1826C408.36 39.863 408.771 40.7331 408.771 41.793H406.773C406.773 41.2487 406.541 40.7796 406.075 40.3857C405.617 39.9919 405.037 39.7949 404.335 39.7949C403.612 39.7949 403.046 39.9525 402.638 40.2676C402.229 40.5827 402.025 40.9945 402.025 41.5029C402.025 41.9827 402.215 42.3444 402.595 42.5879C402.974 42.8314 403.658 43.0641 404.646 43.2861C405.642 43.5081 406.448 43.7731 407.063 44.0811C407.679 44.389 408.134 44.7614 408.428 45.1982C408.729 45.6279 408.879 46.1543 408.879 46.7773C408.879 47.8158 408.464 48.6501 407.633 49.2803C406.802 49.9033 405.724 50.2148 404.399 50.2148C403.468 50.2148 402.645 50.0501 401.929 49.7207C401.213 49.3913 400.65 48.9329 400.242 48.3457C399.841 47.7513 399.641 47.1104 399.641 46.4229H401.628C401.664 47.0889 401.929 47.6188 402.423 48.0127C402.924 48.3994 403.583 48.5928 404.399 48.5928C405.151 48.5928 405.753 48.4424 406.204 48.1416C406.662 47.8337 406.892 47.4255 406.892 46.917ZM416.291 50.2148C414.715 50.2148 413.434 49.6992 412.445 48.668C411.457 47.6296 410.963 46.2438 410.963 44.5107V44.1455C410.963 42.9925 411.181 41.9648 411.618 41.0625C412.062 40.153 412.678 39.444 413.466 38.9355C414.261 38.4199 415.12 38.1621 416.044 38.1621C417.555 38.1621 418.729 38.6598 419.567 39.6553C420.405 40.6507 420.824 42.0758 420.824 43.9307V44.7578H412.95C412.979 45.9036 413.312 46.8311 413.949 47.54C414.594 48.2419 415.41 48.5928 416.398 48.5928C417.1 48.5928 417.695 48.4495 418.182 48.1631C418.669 47.8766 419.095 47.4971 419.46 47.0244L420.674 47.9697C419.7 49.4665 418.239 50.2148 416.291 50.2148ZM416.044 39.7949C415.242 39.7949 414.569 40.0885 414.024 40.6758C413.48 41.2559 413.144 42.0723 413.015 43.125H418.837V42.9746C418.78 41.9648 418.507 41.1842 418.021 40.6328C417.534 40.0742 416.875 39.7949 416.044 39.7949ZM425.014 38.377L425.078 39.8379C425.966 38.7207 427.126 38.1621 428.559 38.1621C431.015 38.1621 432.254 39.5479 432.275 42.3193V50H430.288V42.3086C430.281 41.4707 430.088 40.8512 429.708 40.4502C429.336 40.0492 428.752 39.8486 427.957 39.8486C427.312 39.8486 426.747 40.0205 426.26 40.3643C425.773 40.708 425.393 41.1592 425.121 41.7178V50H423.134V38.377H425.014ZM437.969 35.5625V38.377H440.139V39.9131H437.969V47.1211C437.969 47.5866 438.065 47.9375 438.259 48.1738C438.452 48.403 438.782 48.5176 439.247 48.5176C439.476 48.5176 439.791 48.4746 440.192 48.3887V50C439.67 50.1432 439.161 50.2148 438.667 50.2148C437.779 50.2148 437.109 49.9463 436.658 49.4092C436.207 48.8721 435.981 48.1094 435.981 47.1211V39.9131H433.865V38.377H435.981V35.5625H437.969ZM449.646 50C449.531 49.7708 449.438 49.3626 449.366 48.7754C448.442 49.735 447.34 50.2148 446.058 50.2148C444.912 50.2148 443.97 49.8926 443.232 49.248C442.502 48.5964 442.137 47.7728 442.137 46.7773C442.137 45.5671 442.595 44.6289 443.512 43.9629C444.436 43.2897 445.732 42.9531 447.4 42.9531H449.334V42.04C449.334 41.3454 449.126 40.7939 448.711 40.3857C448.296 39.9704 447.683 39.7627 446.874 39.7627C446.165 39.7627 445.571 39.9417 445.091 40.2998C444.611 40.6579 444.371 41.0911 444.371 41.5996H442.373C442.373 41.0195 442.577 40.4609 442.985 39.9238C443.401 39.3796 443.959 38.9499 444.661 38.6348C445.37 38.3197 446.147 38.1621 446.992 38.1621C448.331 38.1621 449.381 38.4987 450.14 39.1719C450.899 39.8379 451.293 40.7581 451.321 41.9326V47.2822C451.321 48.3493 451.457 49.1979 451.729 49.8281V50H449.646ZM446.348 48.4854C446.971 48.4854 447.562 48.3242 448.12 48.002C448.679 47.6797 449.083 47.2607 449.334 46.7451V44.3604H447.776C445.341 44.3604 444.124 45.0729 444.124 46.498C444.124 47.1211 444.332 47.6081 444.747 47.959C445.162 48.3099 445.696 48.4854 446.348 48.4854ZM457.133 35.5625V38.377H459.303V39.9131H457.133V47.1211C457.133 47.5866 457.229 47.9375 457.423 48.1738C457.616 48.403 457.946 48.5176 458.411 48.5176C458.64 48.5176 458.955 48.4746 459.356 48.3887V50C458.834 50.1432 458.325 50.2148 457.831 50.2148C456.943 50.2148 456.273 49.9463 455.822 49.4092C455.371 48.8721 455.146 48.1094 455.146 47.1211V39.9131H453.029V38.377H455.146V35.5625H457.133ZM463.793 50H461.806V38.377H463.793V50ZM461.645 35.2939C461.645 34.9717 461.741 34.6995 461.935 34.4775C462.135 34.2555 462.429 34.1445 462.815 34.1445C463.202 34.1445 463.496 34.2555 463.696 34.4775C463.897 34.6995 463.997 34.9717 463.997 35.2939C463.997 35.6162 463.897 35.8848 463.696 36.0996C463.496 36.3145 463.202 36.4219 462.815 36.4219C462.429 36.4219 462.135 36.3145 461.935 36.0996C461.741 35.8848 461.645 35.6162 461.645 35.2939ZM466.457 44.0811C466.457 42.9424 466.679 41.9183 467.123 41.0088C467.574 40.0993 468.197 39.3975 468.992 38.9033C469.794 38.4092 470.707 38.1621 471.731 38.1621C473.314 38.1621 474.592 38.71 475.566 39.8057C476.548 40.9014 477.038 42.3587 477.038 44.1777V44.3174C477.038 45.4489 476.82 46.4658 476.383 47.3682C475.953 48.2633 475.334 48.9616 474.524 49.4629C473.722 49.9642 472.799 50.2148 471.753 50.2148C470.177 50.2148 468.899 49.667 467.918 48.5713C466.944 47.4756 466.457 46.0254 466.457 44.2207V44.0811ZM468.455 44.3174C468.455 45.6064 468.752 46.6413 469.347 47.4219C469.948 48.2025 470.75 48.5928 471.753 48.5928C472.763 48.5928 473.565 48.1989 474.159 47.4111C474.754 46.6162 475.051 45.5062 475.051 44.0811C475.051 42.8063 474.746 41.7751 474.138 40.9873C473.536 40.1924 472.734 39.7949 471.731 39.7949C470.75 39.7949 469.959 40.1852 469.357 40.9658C468.756 41.7464 468.455 42.8636 468.455 44.3174ZM481.41 38.377L481.475 39.8379C482.363 38.7207 483.523 38.1621 484.955 38.1621C487.411 38.1621 488.65 39.5479 488.672 42.3193V50H486.685V42.3086C486.677 41.4707 486.484 40.8512 486.104 40.4502C485.732 40.0492 485.148 39.8486 484.354 39.8486C483.709 39.8486 483.143 40.0205 482.656 40.3643C482.169 40.708 481.79 41.1592 481.518 41.7178V50H479.53V38.377H481.41Z" fill="black"/>
<rect x="63.5" y="120.5" width="139" height="39" rx="3.5" fill="white" stroke="black"/>
<path d="M93.7373 141.028C91.9684 140.52 90.6794 139.897 89.8701 139.159C89.068 138.414 88.667 137.498 88.667 136.409C88.667 135.177 89.1576 134.16 90.1387 133.358C91.127 132.549 92.4089 132.145 93.9844 132.145C95.0586 132.145 96.0146 132.352 96.8525 132.768C97.6976 133.183 98.3493 133.756 98.8076 134.486C99.2731 135.217 99.5059 136.015 99.5059 136.882H97.4326C97.4326 135.937 97.1318 135.195 96.5303 134.658C95.9287 134.114 95.0801 133.842 93.9844 133.842C92.9674 133.842 92.1725 134.067 91.5996 134.519C91.0339 134.963 90.751 135.582 90.751 136.377C90.751 137.014 91.0195 137.555 91.5566 137.999C92.1009 138.436 93.0212 138.837 94.3174 139.202C95.6208 139.567 96.6377 139.972 97.3682 140.416C98.1058 140.853 98.6501 141.365 99.001 141.952C99.359 142.539 99.5381 143.23 99.5381 144.025C99.5381 145.293 99.0439 146.31 98.0557 147.076C97.0674 147.835 95.7461 148.215 94.0918 148.215C93.0176 148.215 92.015 148.011 91.084 147.603C90.153 147.187 89.4333 146.621 88.9248 145.905C88.4235 145.189 88.1729 144.376 88.1729 143.467H90.2461C90.2461 144.412 90.5934 145.16 91.2881 145.712C91.9899 146.256 92.9245 146.528 94.0918 146.528C95.1803 146.528 96.0146 146.306 96.5947 145.862C97.1748 145.418 97.4648 144.813 97.4648 144.047C97.4648 143.281 97.1963 142.69 96.6592 142.274C96.1221 141.852 95.1481 141.437 93.7373 141.028ZM106.703 148.215C105.128 148.215 103.846 147.699 102.857 146.668C101.869 145.63 101.375 144.244 101.375 142.511V142.146C101.375 140.993 101.593 139.965 102.03 139.062C102.474 138.153 103.09 137.444 103.878 136.936C104.673 136.42 105.532 136.162 106.456 136.162C107.967 136.162 109.142 136.66 109.979 137.655C110.817 138.651 111.236 140.076 111.236 141.931V142.758H103.362C103.391 143.904 103.724 144.831 104.361 145.54C105.006 146.242 105.822 146.593 106.811 146.593C107.512 146.593 108.107 146.45 108.594 146.163C109.081 145.877 109.507 145.497 109.872 145.024L111.086 145.97C110.112 147.466 108.651 148.215 106.703 148.215ZM106.456 137.795C105.654 137.795 104.981 138.089 104.437 138.676C103.892 139.256 103.556 140.072 103.427 141.125H109.249V140.975C109.192 139.965 108.92 139.184 108.433 138.633C107.946 138.074 107.287 137.795 106.456 137.795ZM119.164 138.16C118.863 138.11 118.537 138.085 118.187 138.085C116.883 138.085 115.999 138.64 115.533 139.75V148H113.546V136.377H115.479L115.512 137.72C116.163 136.681 117.087 136.162 118.283 136.162C118.67 136.162 118.964 136.212 119.164 136.312V138.16ZM125.029 145.304L127.908 136.377H129.938L125.771 148H124.256L120.045 136.377H122.075L125.029 145.304ZM134.01 148H132.022V136.377H134.01V148ZM131.861 133.294C131.861 132.972 131.958 132.7 132.151 132.478C132.352 132.256 132.646 132.145 133.032 132.145C133.419 132.145 133.713 132.256 133.913 132.478C134.114 132.7 134.214 132.972 134.214 133.294C134.214 133.616 134.114 133.885 133.913 134.1C133.713 134.314 133.419 134.422 133.032 134.422C132.646 134.422 132.352 134.314 132.151 134.1C131.958 133.885 131.861 133.616 131.861 133.294ZM141.862 146.593C142.571 146.593 143.191 146.378 143.721 145.948C144.251 145.519 144.544 144.981 144.602 144.337H146.481C146.446 145.003 146.216 145.637 145.794 146.238C145.371 146.84 144.806 147.32 144.097 147.678C143.395 148.036 142.65 148.215 141.862 148.215C140.28 148.215 139.019 147.688 138.081 146.636C137.15 145.576 136.685 144.129 136.685 142.296V141.963C136.685 140.831 136.892 139.825 137.308 138.944C137.723 138.063 138.317 137.38 139.091 136.893C139.871 136.406 140.792 136.162 141.852 136.162C143.155 136.162 144.236 136.552 145.096 137.333C145.962 138.114 146.424 139.127 146.481 140.373H144.602C144.544 139.621 144.258 139.005 143.742 138.525C143.234 138.038 142.604 137.795 141.852 137.795C140.842 137.795 140.058 138.16 139.499 138.891C138.948 139.614 138.672 140.663 138.672 142.038V142.414C138.672 143.753 138.948 144.785 139.499 145.508C140.05 146.231 140.838 146.593 141.862 146.593ZM153.539 148.215C151.964 148.215 150.682 147.699 149.693 146.668C148.705 145.63 148.211 144.244 148.211 142.511V142.146C148.211 140.993 148.429 139.965 148.866 139.062C149.31 138.153 149.926 137.444 150.714 136.936C151.509 136.42 152.368 136.162 153.292 136.162C154.803 136.162 155.978 136.66 156.815 137.655C157.653 138.651 158.072 140.076 158.072 141.931V142.758H150.198C150.227 143.904 150.56 144.831 151.197 145.54C151.842 146.242 152.658 146.593 153.646 146.593C154.348 146.593 154.943 146.45 155.43 146.163C155.917 145.877 156.343 145.497 156.708 145.024L157.922 145.97C156.948 147.466 155.487 148.215 153.539 148.215ZM153.292 137.795C152.49 137.795 151.817 138.089 151.272 138.676C150.728 139.256 150.392 140.072 150.263 141.125H156.085V140.975C156.028 139.965 155.756 139.184 155.269 138.633C154.782 138.074 154.123 137.795 153.292 137.795ZM174.787 143.918H168.234L166.763 148H164.636L170.608 132.359H172.413L178.396 148H176.28L174.787 143.918ZM168.857 142.221H174.175L171.511 134.905L168.857 142.221Z" fill="black"/>
<rect x="63.5" y="240.5" width="139" height="39" rx="3.5" fill="white" stroke="black"/>
<path d="M78.4404 261.673H74.7666V268H72.6934V252.359H77.8711C79.6328 252.359 80.9863 252.76 81.9316 253.562C82.8841 254.365 83.3604 255.532 83.3604 257.064C83.3604 258.038 83.0954 258.887 82.5654 259.61C82.0426 260.334 81.3122 260.874 80.374 261.232L84.0479 267.871V268H81.835L78.4404 261.673ZM74.7666 259.986H77.9355C78.9596 259.986 79.7725 259.721 80.374 259.191C80.9827 258.661 81.2871 257.952 81.2871 257.064C81.2871 256.098 80.9971 255.356 80.417 254.841C79.8441 254.325 79.0133 254.064 77.9248 254.057H74.7666V259.986ZM90.7725 268.215C89.1969 268.215 87.915 267.699 86.9268 266.668C85.9385 265.63 85.4443 264.244 85.4443 262.511V262.146C85.4443 260.993 85.6628 259.965 86.0996 259.062C86.5436 258.153 87.1595 257.444 87.9473 256.936C88.7422 256.42 89.6016 256.162 90.5254 256.162C92.0365 256.162 93.2109 256.66 94.0488 257.655C94.8867 258.651 95.3057 260.076 95.3057 261.931V262.758H87.4316C87.4603 263.904 87.7933 264.831 88.4307 265.54C89.0752 266.242 89.8916 266.593 90.8799 266.593C91.5817 266.593 92.1761 266.45 92.6631 266.163C93.1501 265.877 93.5762 265.497 93.9414 265.024L95.1553 265.97C94.1813 267.466 92.7204 268.215 90.7725 268.215ZM90.5254 257.795C89.7233 257.795 89.0501 258.089 88.5059 258.676C87.9616 259.256 87.625 260.072 87.4961 261.125H93.3184V260.975C93.2611 259.965 92.9889 259.184 92.502 258.633C92.015 258.074 91.3561 257.795 90.5254 257.795ZM107.434 262.317C107.434 264.086 107.029 265.511 106.22 266.593C105.41 267.674 104.315 268.215 102.933 268.215C101.522 268.215 100.412 267.767 99.6025 266.872V272.469H97.6152V256.377H99.4307L99.5273 257.666C100.337 256.663 101.461 256.162 102.9 256.162C104.297 256.162 105.4 256.688 106.209 257.741C107.025 258.794 107.434 260.258 107.434 262.135V262.317ZM105.446 262.092C105.446 260.781 105.167 259.746 104.608 258.987C104.05 258.228 103.284 257.849 102.31 257.849C101.106 257.849 100.204 258.382 99.6025 259.449V265.003C100.197 266.063 101.106 266.593 102.331 266.593C103.284 266.593 104.039 266.217 104.598 265.465C105.163 264.706 105.446 263.581 105.446 262.092ZM109.442 262.081C109.442 260.942 109.664 259.918 110.108 259.009C110.56 258.099 111.183 257.397 111.978 256.903C112.78 256.409 113.693 256.162 114.717 256.162C116.299 256.162 117.578 256.71 118.552 257.806C119.533 258.901 120.023 260.359 120.023 262.178V262.317C120.023 263.449 119.805 264.466 119.368 265.368C118.938 266.263 118.319 266.962 117.51 267.463C116.708 267.964 115.784 268.215 114.738 268.215C113.163 268.215 111.884 267.667 110.903 266.571C109.929 265.476 109.442 264.025 109.442 262.221V262.081ZM111.44 262.317C111.44 263.606 111.738 264.641 112.332 265.422C112.934 266.202 113.736 266.593 114.738 266.593C115.748 266.593 116.55 266.199 117.145 265.411C117.739 264.616 118.036 263.506 118.036 262.081C118.036 260.806 117.732 259.775 117.123 258.987C116.521 258.192 115.719 257.795 114.717 257.795C113.736 257.795 112.944 258.185 112.343 258.966C111.741 259.746 111.44 260.864 111.44 262.317ZM129.283 264.917C129.283 264.38 129.079 263.965 128.671 263.671C128.27 263.37 127.564 263.112 126.555 262.897C125.552 262.683 124.754 262.425 124.159 262.124C123.572 261.823 123.135 261.465 122.849 261.05C122.569 260.634 122.43 260.14 122.43 259.567C122.43 258.615 122.831 257.809 123.633 257.15C124.442 256.492 125.473 256.162 126.727 256.162C128.044 256.162 129.111 256.502 129.928 257.183C130.751 257.863 131.163 258.733 131.163 259.793H129.165C129.165 259.249 128.932 258.78 128.467 258.386C128.008 257.992 127.428 257.795 126.727 257.795C126.003 257.795 125.438 257.952 125.029 258.268C124.621 258.583 124.417 258.994 124.417 259.503C124.417 259.983 124.607 260.344 124.986 260.588C125.366 260.831 126.05 261.064 127.038 261.286C128.034 261.508 128.839 261.773 129.455 262.081C130.071 262.389 130.526 262.761 130.819 263.198C131.12 263.628 131.271 264.154 131.271 264.777C131.271 265.816 130.855 266.65 130.024 267.28C129.194 267.903 128.116 268.215 126.791 268.215C125.86 268.215 125.036 268.05 124.32 267.721C123.604 267.391 123.042 266.933 122.634 266.346C122.233 265.751 122.032 265.11 122.032 264.423H124.02C124.055 265.089 124.32 265.619 124.814 266.013C125.316 266.399 125.975 266.593 126.791 266.593C127.543 266.593 128.145 266.442 128.596 266.142C129.054 265.834 129.283 265.425 129.283 264.917ZM136.019 268H134.031V256.377H136.019V268ZM133.87 253.294C133.87 252.972 133.967 252.7 134.16 252.478C134.361 252.256 134.654 252.145 135.041 252.145C135.428 252.145 135.721 252.256 135.922 252.478C136.122 252.7 136.223 252.972 136.223 253.294C136.223 253.616 136.122 253.885 135.922 254.1C135.721 254.314 135.428 254.422 135.041 254.422C134.654 254.422 134.361 254.314 134.16 254.1C133.967 253.885 133.87 253.616 133.87 253.294ZM141.905 253.562V256.377H144.075V257.913H141.905V265.121C141.905 265.587 142.002 265.938 142.195 266.174C142.389 266.403 142.718 266.518 143.184 266.518C143.413 266.518 143.728 266.475 144.129 266.389V268C143.606 268.143 143.098 268.215 142.604 268.215C141.715 268.215 141.046 267.946 140.595 267.409C140.144 266.872 139.918 266.109 139.918 265.121V257.913H137.802V256.377H139.918V253.562H141.905ZM145.665 262.081C145.665 260.942 145.887 259.918 146.331 259.009C146.782 258.099 147.405 257.397 148.2 256.903C149.002 256.409 149.915 256.162 150.939 256.162C152.522 256.162 153.8 256.71 154.774 257.806C155.756 258.901 156.246 260.359 156.246 262.178V262.317C156.246 263.449 156.028 264.466 155.591 265.368C155.161 266.263 154.542 266.962 153.732 267.463C152.93 267.964 152.007 268.215 150.961 268.215C149.385 268.215 148.107 267.667 147.126 266.571C146.152 265.476 145.665 264.025 145.665 262.221V262.081ZM147.663 262.317C147.663 263.606 147.96 264.641 148.555 265.422C149.156 266.202 149.958 266.593 150.961 266.593C151.971 266.593 152.773 266.199 153.367 265.411C153.962 264.616 154.259 263.506 154.259 262.081C154.259 260.806 153.954 259.775 153.346 258.987C152.744 258.192 151.942 257.795 150.939 257.795C149.958 257.795 149.167 258.185 148.565 258.966C147.964 259.746 147.663 260.864 147.663 262.317ZM164.356 258.16C164.056 258.11 163.73 258.085 163.379 258.085C162.076 258.085 161.191 258.64 160.726 259.75V268H158.738V256.377H160.672L160.704 257.72C161.356 256.681 162.28 256.162 163.476 256.162C163.862 256.162 164.156 256.212 164.356 256.312V258.16ZM170.189 265.089L172.896 256.377H175.023L170.351 269.794C169.627 271.728 168.478 272.694 166.902 272.694L166.526 272.662L165.785 272.522V270.911L166.322 270.954C166.995 270.954 167.518 270.818 167.891 270.546C168.27 270.274 168.582 269.776 168.825 269.053L169.266 267.871L165.119 256.377H167.289L170.189 265.089ZM191.212 263.918H184.659L183.188 268H181.061L187.033 252.359H188.838L194.821 268H192.705L191.212 263.918ZM185.282 262.221H190.6L187.936 254.905L185.282 262.221Z" fill="black"/>
<rect x="9.5" y="180.5" width="139" height="39" rx="3.5" fill="white" stroke="black"/>
<path d="M43.3789 200.771H36.6006V206.313H44.4746V208H34.5381V192.359H44.3672V194.057H36.6006V199.084H43.3789V200.771ZM48.6104 196.377L48.6748 197.838C49.5628 196.721 50.723 196.162 52.1553 196.162C54.6117 196.162 55.8506 197.548 55.8721 200.319V208H53.8848V200.309C53.8776 199.471 53.6842 198.851 53.3047 198.45C52.9323 198.049 52.3486 197.849 51.5537 197.849C50.9092 197.849 50.3434 198.021 49.8564 198.364C49.3695 198.708 48.9899 199.159 48.7178 199.718V208H46.7305V196.377H48.6104ZM61.5654 193.562V196.377H63.7354V197.913H61.5654V205.121C61.5654 205.587 61.6621 205.938 61.8555 206.174C62.0488 206.403 62.3783 206.518 62.8438 206.518C63.0729 206.518 63.388 206.475 63.7891 206.389V208C63.2663 208.143 62.7578 208.215 62.2637 208.215C61.3757 208.215 60.7061 207.946 60.2549 207.409C59.8037 206.872 59.5781 206.109 59.5781 205.121V197.913H57.4619V196.377H59.5781V193.562H61.5654ZM68.2256 208H66.2383V196.377H68.2256V208ZM66.0771 193.294C66.0771 192.972 66.1738 192.7 66.3672 192.478C66.5677 192.256 66.8613 192.145 67.248 192.145C67.6348 192.145 67.9284 192.256 68.1289 192.478C68.3294 192.7 68.4297 192.972 68.4297 193.294C68.4297 193.616 68.3294 193.885 68.1289 194.1C67.9284 194.314 67.6348 194.422 67.248 194.422C66.8613 194.422 66.5677 194.314 66.3672 194.1C66.1738 193.885 66.0771 193.616 66.0771 193.294ZM74.1123 193.562V196.377H76.2822V197.913H74.1123V205.121C74.1123 205.587 74.209 205.938 74.4023 206.174C74.5957 206.403 74.9251 206.518 75.3906 206.518C75.6198 206.518 75.9349 206.475 76.3359 206.389V208C75.8132 208.143 75.3047 208.215 74.8105 208.215C73.9225 208.215 73.2529 207.946 72.8018 207.409C72.3506 206.872 72.125 206.109 72.125 205.121V197.913H70.0088V196.377H72.125V193.562H74.1123ZM80.7725 208H78.7852V196.377H80.7725V208ZM78.624 193.294C78.624 192.972 78.7207 192.7 78.9141 192.478C79.1146 192.256 79.4082 192.145 79.7949 192.145C80.1816 192.145 80.4753 192.256 80.6758 192.478C80.8763 192.7 80.9766 192.972 80.9766 193.294C80.9766 193.616 80.8763 193.885 80.6758 194.1C80.4753 194.314 80.1816 194.422 79.7949 194.422C79.4082 194.422 79.1146 194.314 78.9141 194.1C78.7207 193.885 78.624 193.616 78.624 193.294ZM88.7861 208.215C87.2106 208.215 85.9287 207.699 84.9404 206.668C83.9521 205.63 83.458 204.244 83.458 202.511V202.146C83.458 200.993 83.6764 199.965 84.1133 199.062C84.5573 198.153 85.1732 197.444 85.9609 196.936C86.7559 196.42 87.6152 196.162 88.5391 196.162C90.0501 196.162 91.2246 196.66 92.0625 197.655C92.9004 198.651 93.3193 200.076 93.3193 201.931V202.758H85.4453C85.474 203.904 85.807 204.831 86.4443 205.54C87.0889 206.242 87.9053 206.593 88.8936 206.593C89.5954 206.593 90.1898 206.45 90.6768 206.163C91.1637 205.877 91.5898 205.497 91.9551 205.024L93.1689 205.97C92.195 207.466 90.734 208.215 88.7861 208.215ZM88.5391 197.795C87.737 197.795 87.0638 198.089 86.5195 198.676C85.9753 199.256 85.6387 200.072 85.5098 201.125H91.332V200.975C91.2747 199.965 91.0026 199.184 90.5156 198.633C90.0286 198.074 89.3698 197.795 88.5391 197.795ZM102.396 204.917C102.396 204.38 102.192 203.965 101.784 203.671C101.383 203.37 100.678 203.112 99.668 202.897C98.6654 202.683 97.8669 202.425 97.2725 202.124C96.6852 201.823 96.2484 201.465 95.9619 201.05C95.6826 200.634 95.543 200.14 95.543 199.567C95.543 198.615 95.944 197.809 96.7461 197.15C97.5553 196.492 98.5866 196.162 99.8398 196.162C101.158 196.162 102.225 196.502 103.041 197.183C103.865 197.863 104.276 198.733 104.276 199.793H102.278C102.278 199.249 102.046 198.78 101.58 198.386C101.122 197.992 100.542 197.795 99.8398 197.795C99.1165 197.795 98.5508 197.952 98.1426 198.268C97.7344 198.583 97.5303 198.994 97.5303 199.503C97.5303 199.983 97.7201 200.344 98.0996 200.588C98.4792 200.831 99.1631 201.064 100.151 201.286C101.147 201.508 101.952 201.773 102.568 202.081C103.184 202.389 103.639 202.761 103.933 203.198C104.233 203.628 104.384 204.154 104.384 204.777C104.384 205.816 103.968 206.65 103.138 207.28C102.307 207.903 101.229 208.215 99.9043 208.215C98.9733 208.215 98.1497 208.05 97.4336 207.721C96.7174 207.391 96.1553 206.933 95.7471 206.346C95.346 205.751 95.1455 205.11 95.1455 204.423H97.1328C97.1686 205.089 97.4336 205.619 97.9277 206.013C98.429 206.399 99.0879 206.593 99.9043 206.593C100.656 206.593 101.258 206.442 101.709 206.142C102.167 205.834 102.396 205.425 102.396 204.917ZM121.378 203.918H114.825L113.354 208H111.227L117.199 192.359H119.004L124.987 208H122.871L121.378 203.918ZM115.448 202.221H120.766L118.102 194.905L115.448 202.221Z" fill="black"/>
<path d="M174.043 239.711C174.433 240.102 175.067 240.102 175.457 239.711L181.821 233.347C182.212 232.957 182.212 232.323 181.821 231.933C181.431 231.542 180.797 231.542 180.407 231.933L174.75 237.59L169.093 231.933C168.703 231.542 168.069 231.542 167.679 231.933C167.288 232.323 167.288 232.957 167.679 233.347L174.043 239.711ZM173.75 159.999V239.004H175.75V159.999H173.75Z" fill="black"/>
<path d="M125.293 179.707C125.683 180.098 126.317 180.098 126.707 179.707L133.071 173.343C133.462 172.953 133.462 172.319 133.071 171.929C132.681 171.538 132.047 171.538 131.657 171.929L126 177.586L120.343 171.929C119.953 171.538 119.319 171.538 118.929 171.929C118.538 172.319 118.538 172.953 118.929 173.343L125.293 179.707ZM125 160V179H127V160H125Z" fill="black"/>
<path d="M126.707 220.293C126.317 219.902 125.683 219.902 125.293 220.293L118.929 226.657C118.538 227.047 118.538 227.681 118.929 228.071C119.319 228.462 119.953 228.462 120.343 228.071L126 222.414L131.657 228.071C132.047 228.462 132.681 228.462 133.071 228.071C133.462 227.681 133.462 227.047 133.071 226.657L126.707 220.293ZM127 240V221H125V240H127Z" fill="black"/>
<rect x="262.5" y="120.5" width="139" height="39" rx="3.5" fill="white" stroke="black"/>
<path d="M293.06 141.028C291.291 140.52 290.002 139.897 289.192 139.159C288.39 138.414 287.989 137.498 287.989 136.409C287.989 135.177 288.48 134.16 289.461 133.358C290.449 132.549 291.731 132.145 293.307 132.145C294.381 132.145 295.337 132.352 296.175 132.768C297.02 133.183 297.672 133.756 298.13 134.486C298.595 135.217 298.828 136.015 298.828 136.882H296.755C296.755 135.937 296.454 135.195 295.853 134.658C295.251 134.114 294.402 133.842 293.307 133.842C292.29 133.842 291.495 134.067 290.922 134.519C290.356 134.963 290.073 135.582 290.073 136.377C290.073 137.014 290.342 137.555 290.879 137.999C291.423 138.436 292.343 138.837 293.64 139.202C294.943 139.567 295.96 139.972 296.69 140.416C297.428 140.853 297.972 141.365 298.323 141.952C298.681 142.539 298.86 143.23 298.86 144.025C298.86 145.293 298.366 146.31 297.378 147.076C296.39 147.835 295.068 148.215 293.414 148.215C292.34 148.215 291.337 148.011 290.406 147.603C289.475 147.187 288.756 146.621 288.247 145.905C287.746 145.189 287.495 144.376 287.495 143.467H289.568C289.568 144.412 289.916 145.16 290.61 145.712C291.312 146.256 292.247 146.528 293.414 146.528C294.503 146.528 295.337 146.306 295.917 145.862C296.497 145.418 296.787 144.813 296.787 144.047C296.787 143.281 296.519 142.69 295.981 142.274C295.444 141.852 294.47 141.437 293.06 141.028ZM306.025 148.215C304.45 148.215 303.168 147.699 302.18 146.668C301.191 145.63 300.697 144.244 300.697 142.511V142.146C300.697 140.993 300.916 139.965 301.353 139.062C301.797 138.153 302.412 137.444 303.2 136.936C303.995 136.42 304.854 136.162 305.778 136.162C307.289 136.162 308.464 136.66 309.302 137.655C310.14 138.651 310.559 140.076 310.559 141.931V142.758H302.685C302.713 143.904 303.046 144.831 303.684 145.54C304.328 146.242 305.145 146.593 306.133 146.593C306.835 146.593 307.429 146.45 307.916 146.163C308.403 145.877 308.829 145.497 309.194 145.024L310.408 145.97C309.434 147.466 307.973 148.215 306.025 148.215ZM305.778 137.795C304.976 137.795 304.303 138.089 303.759 138.676C303.215 139.256 302.878 140.072 302.749 141.125H308.571V140.975C308.514 139.965 308.242 139.184 307.755 138.633C307.268 138.074 306.609 137.795 305.778 137.795ZM318.486 138.16C318.186 138.11 317.86 138.085 317.509 138.085C316.205 138.085 315.321 138.64 314.855 139.75V148H312.868V136.377H314.802L314.834 137.72C315.486 136.681 316.41 136.162 317.605 136.162C317.992 136.162 318.286 136.212 318.486 136.312V138.16ZM324.352 145.304L327.23 136.377H329.261L325.093 148H323.578L319.367 136.377H321.397L324.352 145.304ZM333.332 148H331.345V136.377H333.332V148ZM331.184 133.294C331.184 132.972 331.28 132.7 331.474 132.478C331.674 132.256 331.968 132.145 332.354 132.145C332.741 132.145 333.035 132.256 333.235 132.478C333.436 132.7 333.536 132.972 333.536 133.294C333.536 133.616 333.436 133.885 333.235 134.1C333.035 134.314 332.741 134.422 332.354 134.422C331.968 134.422 331.674 134.314 331.474 134.1C331.28 133.885 331.184 133.616 331.184 133.294ZM341.185 146.593C341.894 146.593 342.513 146.378 343.043 145.948C343.573 145.519 343.867 144.981 343.924 144.337H345.804C345.768 145.003 345.539 145.637 345.116 146.238C344.694 146.84 344.128 147.32 343.419 147.678C342.717 148.036 341.972 148.215 341.185 148.215C339.602 148.215 338.341 147.688 337.403 146.636C336.472 145.576 336.007 144.129 336.007 142.296V141.963C336.007 140.831 336.215 139.825 336.63 138.944C337.045 138.063 337.64 137.38 338.413 136.893C339.194 136.406 340.114 136.162 341.174 136.162C342.477 136.162 343.559 136.552 344.418 137.333C345.285 138.114 345.746 139.127 345.804 140.373H343.924C343.867 139.621 343.58 139.005 343.064 138.525C342.556 138.038 341.926 137.795 341.174 137.795C340.164 137.795 339.38 138.16 338.821 138.891C338.27 139.614 337.994 140.663 337.994 142.038V142.414C337.994 143.753 338.27 144.785 338.821 145.508C339.373 146.231 340.16 146.593 341.185 146.593ZM352.861 148.215C351.286 148.215 350.004 147.699 349.016 146.668C348.027 145.63 347.533 144.244 347.533 142.511V142.146C347.533 140.993 347.752 139.965 348.188 139.062C348.632 138.153 349.248 137.444 350.036 136.936C350.831 136.42 351.69 136.162 352.614 136.162C354.125 136.162 355.3 136.66 356.138 137.655C356.976 138.651 357.395 140.076 357.395 141.931V142.758H349.521C349.549 143.904 349.882 144.831 350.52 145.54C351.164 146.242 351.98 146.593 352.969 146.593C353.671 146.593 354.265 146.45 354.752 146.163C355.239 145.877 355.665 145.497 356.03 145.024L357.244 145.97C356.27 147.466 354.809 148.215 352.861 148.215ZM352.614 137.795C351.812 137.795 351.139 138.089 350.595 138.676C350.05 139.256 349.714 140.072 349.585 141.125H355.407V140.975C355.35 139.965 355.078 139.184 354.591 138.633C354.104 138.074 353.445 137.795 352.614 137.795ZM365.473 148V132.359H370.586C372.283 132.359 373.558 132.71 374.41 133.412C375.27 134.114 375.699 135.152 375.699 136.527C375.699 137.258 375.492 137.906 375.076 138.472C374.661 139.03 374.095 139.464 373.379 139.771C374.224 140.008 374.89 140.459 375.377 141.125C375.871 141.784 376.118 142.572 376.118 143.488C376.118 144.892 375.663 145.995 374.754 146.797C373.844 147.599 372.559 148 370.897 148H365.473ZM367.535 140.685V146.313H370.94C371.9 146.313 372.656 146.066 373.207 145.572C373.766 145.071 374.045 144.383 374.045 143.51C374.045 141.626 373.021 140.685 370.973 140.685H367.535ZM367.535 139.03H370.65C371.553 139.03 372.272 138.805 372.81 138.354C373.354 137.902 373.626 137.29 373.626 136.517C373.626 135.657 373.375 135.034 372.874 134.647C372.373 134.254 371.61 134.057 370.586 134.057H367.535V139.03Z" fill="black"/>
<rect x="262.5" y="240.5" width="139" height="39" rx="3.5" fill="white" stroke="black"/>
<path d="M277.763 261.673H274.089V268H272.016V252.359H277.193C278.955 252.359 280.309 252.76 281.254 253.562C282.206 254.365 282.683 255.532 282.683 257.064C282.683 258.038 282.418 258.887 281.888 259.61C281.365 260.334 280.634 260.874 279.696 261.232L283.37 267.871V268H281.157L277.763 261.673ZM274.089 259.986H277.258C278.282 259.986 279.095 259.721 279.696 259.191C280.305 258.661 280.609 257.952 280.609 257.064C280.609 256.098 280.319 255.356 279.739 254.841C279.166 254.325 278.336 254.064 277.247 254.057H274.089V259.986ZM290.095 268.215C288.519 268.215 287.237 267.699 286.249 266.668C285.261 265.63 284.767 264.244 284.767 262.511V262.146C284.767 260.993 284.985 259.965 285.422 259.062C285.866 258.153 286.482 257.444 287.27 256.936C288.064 256.42 288.924 256.162 289.848 256.162C291.359 256.162 292.533 256.66 293.371 257.655C294.209 258.651 294.628 260.076 294.628 261.931V262.758H286.754C286.783 263.904 287.116 264.831 287.753 265.54C288.397 266.242 289.214 266.593 290.202 266.593C290.904 266.593 291.498 266.45 291.985 266.163C292.472 265.877 292.898 265.497 293.264 265.024L294.478 265.97C293.504 267.466 292.043 268.215 290.095 268.215ZM289.848 257.795C289.046 257.795 288.372 258.089 287.828 258.676C287.284 259.256 286.947 260.072 286.818 261.125H292.641V260.975C292.583 259.965 292.311 259.184 291.824 258.633C291.337 258.074 290.678 257.795 289.848 257.795ZM306.756 262.317C306.756 264.086 306.351 265.511 305.542 266.593C304.733 267.674 303.637 268.215 302.255 268.215C300.844 268.215 299.734 267.767 298.925 266.872V272.469H296.938V256.377H298.753L298.85 257.666C299.659 256.663 300.783 256.162 302.223 256.162C303.619 256.162 304.722 256.688 305.531 257.741C306.348 258.794 306.756 260.258 306.756 262.135V262.317ZM304.769 262.092C304.769 260.781 304.489 259.746 303.931 258.987C303.372 258.228 302.606 257.849 301.632 257.849C300.429 257.849 299.526 258.382 298.925 259.449V265.003C299.519 266.063 300.429 266.593 301.653 266.593C302.606 266.593 303.361 266.217 303.92 265.465C304.486 264.706 304.769 263.581 304.769 262.092ZM308.765 262.081C308.765 260.942 308.987 259.918 309.431 259.009C309.882 258.099 310.505 257.397 311.3 256.903C312.102 256.409 313.015 256.162 314.039 256.162C315.622 256.162 316.9 256.71 317.874 257.806C318.855 258.901 319.346 260.359 319.346 262.178V262.317C319.346 263.449 319.127 264.466 318.69 265.368C318.261 266.263 317.641 266.962 316.832 267.463C316.03 267.964 315.106 268.215 314.061 268.215C312.485 268.215 311.207 267.667 310.226 266.571C309.252 265.476 308.765 264.025 308.765 262.221V262.081ZM310.763 262.317C310.763 263.606 311.06 264.641 311.654 265.422C312.256 266.202 313.058 266.593 314.061 266.593C315.07 266.593 315.872 266.199 316.467 265.411C317.061 264.616 317.358 263.506 317.358 262.081C317.358 260.806 317.054 259.775 316.445 258.987C315.844 258.192 315.042 257.795 314.039 257.795C313.058 257.795 312.267 258.185 311.665 258.966C311.063 259.746 310.763 260.864 310.763 262.317ZM328.605 264.917C328.605 264.38 328.401 263.965 327.993 263.671C327.592 263.37 326.887 263.112 325.877 262.897C324.874 262.683 324.076 262.425 323.481 262.124C322.894 261.823 322.457 261.465 322.171 261.05C321.892 260.634 321.752 260.14 321.752 259.567C321.752 258.615 322.153 257.809 322.955 257.15C323.764 256.492 324.796 256.162 326.049 256.162C327.367 256.162 328.434 256.502 329.25 257.183C330.074 257.863 330.485 258.733 330.485 259.793H328.487C328.487 259.249 328.255 258.78 327.789 258.386C327.331 257.992 326.751 257.795 326.049 257.795C325.326 257.795 324.76 257.952 324.352 258.268C323.943 258.583 323.739 258.994 323.739 259.503C323.739 259.983 323.929 260.344 324.309 260.588C324.688 260.831 325.372 261.064 326.36 261.286C327.356 261.508 328.161 261.773 328.777 262.081C329.393 262.389 329.848 262.761 330.142 263.198C330.442 263.628 330.593 264.154 330.593 264.777C330.593 265.816 330.177 266.65 329.347 267.28C328.516 267.903 327.438 268.215 326.113 268.215C325.182 268.215 324.359 268.05 323.643 267.721C322.926 267.391 322.364 266.933 321.956 266.346C321.555 265.751 321.354 265.11 321.354 264.423H323.342C323.378 265.089 323.643 265.619 324.137 266.013C324.638 266.399 325.297 266.593 326.113 266.593C326.865 266.593 327.467 266.442 327.918 266.142C328.376 265.834 328.605 265.425 328.605 264.917ZM335.341 268H333.354V256.377H335.341V268ZM333.192 253.294C333.192 252.972 333.289 252.7 333.482 252.478C333.683 252.256 333.977 252.145 334.363 252.145C334.75 252.145 335.044 252.256 335.244 252.478C335.445 252.7 335.545 252.972 335.545 253.294C335.545 253.616 335.445 253.885 335.244 254.1C335.044 254.314 334.75 254.422 334.363 254.422C333.977 254.422 333.683 254.314 333.482 254.1C333.289 253.885 333.192 253.616 333.192 253.294ZM341.228 253.562V256.377H343.397V257.913H341.228V265.121C341.228 265.587 341.324 265.938 341.518 266.174C341.711 266.403 342.04 266.518 342.506 266.518C342.735 266.518 343.05 266.475 343.451 266.389V268C342.928 268.143 342.42 268.215 341.926 268.215C341.038 268.215 340.368 267.946 339.917 267.409C339.466 266.872 339.24 266.109 339.24 265.121V257.913H337.124V256.377H339.24V253.562H341.228ZM344.987 262.081C344.987 260.942 345.209 259.918 345.653 259.009C346.104 258.099 346.728 257.397 347.522 256.903C348.325 256.409 349.238 256.162 350.262 256.162C351.844 256.162 353.123 256.71 354.097 257.806C355.078 258.901 355.568 260.359 355.568 262.178V262.317C355.568 263.449 355.35 264.466 354.913 265.368C354.483 266.263 353.864 266.962 353.055 267.463C352.253 267.964 351.329 268.215 350.283 268.215C348.708 268.215 347.429 267.667 346.448 266.571C345.474 265.476 344.987 264.025 344.987 262.221V262.081ZM346.985 262.317C346.985 263.606 347.283 264.641 347.877 265.422C348.479 266.202 349.281 266.593 350.283 266.593C351.293 266.593 352.095 266.199 352.689 265.411C353.284 264.616 353.581 263.506 353.581 262.081C353.581 260.806 353.277 259.775 352.668 258.987C352.066 258.192 351.264 257.795 350.262 257.795C349.281 257.795 348.489 258.185 347.888 258.966C347.286 259.746 346.985 260.864 346.985 262.317ZM363.679 258.16C363.378 258.11 363.052 258.085 362.701 258.085C361.398 258.085 360.513 258.64 360.048 259.75V268H358.061V256.377H359.994L360.026 257.72C360.678 256.681 361.602 256.162 362.798 256.162C363.185 256.162 363.478 256.212 363.679 256.312V258.16ZM369.512 265.089L372.219 256.377H374.346L369.673 269.794C368.95 271.728 367.8 272.694 366.225 272.694L365.849 272.662L365.107 272.522V270.911L365.645 270.954C366.318 270.954 366.84 270.818 367.213 270.546C367.592 270.274 367.904 269.776 368.147 269.053L368.588 267.871L364.441 256.377H366.611L369.512 265.089ZM381.897 268V252.359H387.011C388.708 252.359 389.983 252.71 390.835 253.412C391.694 254.114 392.124 255.152 392.124 256.527C392.124 257.258 391.916 257.906 391.501 258.472C391.086 259.03 390.52 259.464 389.804 259.771C390.649 260.008 391.315 260.459 391.802 261.125C392.296 261.784 392.543 262.572 392.543 263.488C392.543 264.892 392.088 265.995 391.179 266.797C390.269 267.599 388.984 268 387.322 268H381.897ZM383.96 260.685V266.313H387.365C388.325 266.313 389.08 266.066 389.632 265.572C390.19 265.071 390.47 264.383 390.47 263.51C390.47 261.626 389.446 260.685 387.397 260.685H383.96ZM383.96 259.03H387.075C387.978 259.03 388.697 258.805 389.234 258.354C389.779 257.902 390.051 257.29 390.051 256.517C390.051 255.657 389.8 255.034 389.299 254.647C388.798 254.254 388.035 254.057 387.011 254.057H383.96V259.03Z" fill="black"/>
<rect x="208.5" y="180.5" width="139" height="39" rx="3.5" fill="white" stroke="black"/>
<path d="M242.701 200.771H235.923V206.313H243.797V208H233.86V192.359H243.689V194.057H235.923V199.084H242.701V200.771ZM247.933 196.377L247.997 197.838C248.885 196.721 250.045 196.162 251.478 196.162C253.934 196.162 255.173 197.548 255.194 200.319V208H253.207V200.309C253.2 199.471 253.007 198.851 252.627 198.45C252.255 198.049 251.671 197.849 250.876 197.849C250.231 197.849 249.666 198.021 249.179 198.364C248.692 198.708 248.312 199.159 248.04 199.718V208H246.053V196.377H247.933ZM260.888 193.562V196.377H263.058V197.913H260.888V205.121C260.888 205.587 260.984 205.938 261.178 206.174C261.371 206.403 261.701 206.518 262.166 206.518C262.395 206.518 262.71 206.475 263.111 206.389V208C262.589 208.143 262.08 208.215 261.586 208.215C260.698 208.215 260.028 207.946 259.577 207.409C259.126 206.872 258.9 206.109 258.9 205.121V197.913H256.784V196.377H258.9V193.562H260.888ZM267.548 208H265.561V196.377H267.548V208ZM265.399 193.294C265.399 192.972 265.496 192.7 265.689 192.478C265.89 192.256 266.184 192.145 266.57 192.145C266.957 192.145 267.251 192.256 267.451 192.478C267.652 192.7 267.752 192.972 267.752 193.294C267.752 193.616 267.652 193.885 267.451 194.1C267.251 194.314 266.957 194.422 266.57 194.422C266.184 194.422 265.89 194.314 265.689 194.1C265.496 193.885 265.399 193.616 265.399 193.294ZM273.435 193.562V196.377H275.604V197.913H273.435V205.121C273.435 205.587 273.531 205.938 273.725 206.174C273.918 206.403 274.247 206.518 274.713 206.518C274.942 206.518 275.257 206.475 275.658 206.389V208C275.135 208.143 274.627 208.215 274.133 208.215C273.245 208.215 272.575 207.946 272.124 207.409C271.673 206.872 271.447 206.109 271.447 205.121V197.913H269.331V196.377H271.447V193.562H273.435ZM280.095 208H278.107V196.377H280.095V208ZM277.946 193.294C277.946 192.972 278.043 192.7 278.236 192.478C278.437 192.256 278.73 192.145 279.117 192.145C279.504 192.145 279.798 192.256 279.998 192.478C280.199 192.7 280.299 192.972 280.299 193.294C280.299 193.616 280.199 193.885 279.998 194.1C279.798 194.314 279.504 194.422 279.117 194.422C278.73 194.422 278.437 194.314 278.236 194.1C278.043 193.885 277.946 193.616 277.946 193.294ZM288.108 208.215C286.533 208.215 285.251 207.699 284.263 206.668C283.274 205.63 282.78 204.244 282.78 202.511V202.146C282.78 200.993 282.999 199.965 283.436 199.062C283.88 198.153 284.495 197.444 285.283 196.936C286.078 196.42 286.938 196.162 287.861 196.162C289.372 196.162 290.547 196.66 291.385 197.655C292.223 198.651 292.642 200.076 292.642 201.931V202.758H284.768C284.796 203.904 285.129 204.831 285.767 205.54C286.411 206.242 287.228 206.593 288.216 206.593C288.918 206.593 289.512 206.45 289.999 206.163C290.486 205.877 290.912 205.497 291.277 205.024L292.491 205.97C291.517 207.466 290.056 208.215 288.108 208.215ZM287.861 197.795C287.059 197.795 286.386 198.089 285.842 198.676C285.298 199.256 284.961 200.072 284.832 201.125H290.654V200.975C290.597 199.965 290.325 199.184 289.838 198.633C289.351 198.074 288.692 197.795 287.861 197.795ZM301.719 204.917C301.719 204.38 301.515 203.965 301.106 203.671C300.705 203.37 300 203.112 298.99 202.897C297.988 202.683 297.189 202.425 296.595 202.124C296.007 201.823 295.571 201.465 295.284 201.05C295.005 200.634 294.865 200.14 294.865 199.567C294.865 198.615 295.266 197.809 296.068 197.15C296.878 196.492 297.909 196.162 299.162 196.162C300.48 196.162 301.547 196.502 302.363 197.183C303.187 197.863 303.599 198.733 303.599 199.793H301.601C301.601 199.249 301.368 198.78 300.902 198.386C300.444 197.992 299.864 197.795 299.162 197.795C298.439 197.795 297.873 197.952 297.465 198.268C297.057 198.583 296.853 198.994 296.853 199.503C296.853 199.983 297.042 200.344 297.422 200.588C297.801 200.831 298.485 201.064 299.474 201.286C300.469 201.508 301.275 201.773 301.891 202.081C302.507 202.389 302.961 202.761 303.255 203.198C303.556 203.628 303.706 204.154 303.706 204.777C303.706 205.816 303.291 206.65 302.46 207.28C301.629 207.903 300.551 208.215 299.227 208.215C298.296 208.215 297.472 208.05 296.756 207.721C296.04 207.391 295.478 206.933 295.069 206.346C294.668 205.751 294.468 205.11 294.468 204.423H296.455C296.491 205.089 296.756 205.619 297.25 206.013C297.751 206.399 298.41 206.593 299.227 206.593C299.979 206.593 300.58 206.442 301.031 206.142C301.49 205.834 301.719 205.425 301.719 204.917ZM312.063 208V192.359H317.177C318.874 192.359 320.149 192.71 321.001 193.412C321.86 194.114 322.29 195.152 322.29 196.527C322.29 197.258 322.082 197.906 321.667 198.472C321.252 199.03 320.686 199.464 319.97 199.771C320.815 200.008 321.481 200.459 321.968 201.125C322.462 201.784 322.709 202.572 322.709 203.488C322.709 204.892 322.254 205.995 321.345 206.797C320.435 207.599 319.15 208 317.488 208H312.063ZM314.126 200.685V206.313H317.531C318.491 206.313 319.246 206.066 319.798 205.572C320.356 205.071 320.636 204.383 320.636 203.51C320.636 201.626 319.612 200.685 317.563 200.685H314.126ZM314.126 199.03H317.241C318.144 199.03 318.863 198.805 319.4 198.354C319.945 197.902 320.217 197.29 320.217 196.517C320.217 195.657 319.966 195.034 319.465 194.647C318.964 194.254 318.201 194.057 317.177 194.057H314.126V199.03Z" fill="black"/>
<path d="M373.043 239.711C373.433 240.102 374.067 240.102 374.457 239.711L380.821 233.347C381.212 232.957 381.212 232.323 380.821 231.933C380.431 231.542 379.797 231.542 379.407 231.933L373.75 237.59L368.093 231.933C367.703 231.542 367.069 231.542 366.679 231.933C366.288 232.323 366.288 232.957 366.679 233.347L373.043 239.711ZM372.75 159.999V239.004H374.75V159.999H372.75Z" fill="black"/>
<path d="M324.293 179.707C324.683 180.098 325.317 180.098 325.707 179.707L332.071 173.343C332.462 172.953 332.462 172.319 332.071 171.929C331.681 171.538 331.047 171.538 330.657 171.929L325 177.586L319.343 171.929C318.953 171.538 318.319 171.538 317.929 171.929C317.538 172.319 317.538 172.953 317.929 173.343L324.293 179.707ZM324 160V179H326V160H324Z" fill="black"/>
<path d="M325.707 220.293C325.317 219.902 324.683 219.902 324.293 220.293L317.929 226.657C317.538 227.047 317.538 227.681 317.929 228.071C318.319 228.462 318.953 228.462 319.343 228.071L325 222.414L330.657 228.071C331.047 228.462 331.681 228.462 332.071 228.071C332.462 227.681 332.462 227.047 332.071 226.657L325.707 220.293ZM326 240V221H324V240H326Z" fill="black"/>
<rect x="452.5" y="120.5" width="139" height="39" rx="3.5" fill="white" stroke="black"/>
<path d="M486.476 144.047C486.476 143.682 486.418 143.359 486.304 143.08C486.196 142.794 486.003 142.536 485.724 142.307C485.451 142.077 485.072 141.859 484.585 141.651C484.105 141.444 483.496 141.232 482.759 141.018C481.985 140.788 481.287 140.534 480.664 140.255C480.041 139.968 479.507 139.643 479.063 139.277C478.619 138.912 478.279 138.493 478.043 138.021C477.807 137.548 477.688 137.007 477.688 136.398C477.688 135.79 477.814 135.228 478.064 134.712C478.315 134.196 478.673 133.749 479.139 133.369C479.611 132.982 480.174 132.682 480.825 132.467C481.477 132.252 482.204 132.145 483.006 132.145C484.18 132.145 485.176 132.37 485.992 132.821C486.816 133.265 487.442 133.849 487.872 134.572C488.302 135.288 488.517 136.055 488.517 136.871H486.454C486.454 136.284 486.329 135.765 486.078 135.313C485.827 134.855 485.448 134.497 484.939 134.239C484.431 133.974 483.786 133.842 483.006 133.842C482.268 133.842 481.66 133.953 481.18 134.175C480.7 134.397 480.342 134.698 480.105 135.077C479.876 135.457 479.762 135.89 479.762 136.377C479.762 136.706 479.83 137.007 479.966 137.279C480.109 137.544 480.327 137.791 480.621 138.021C480.922 138.25 481.301 138.461 481.76 138.654C482.225 138.848 482.78 139.034 483.425 139.213C484.313 139.464 485.079 139.743 485.724 140.051C486.368 140.359 486.898 140.706 487.313 141.093C487.736 141.472 488.048 141.906 488.248 142.393C488.456 142.872 488.56 143.417 488.56 144.025C488.56 144.663 488.431 145.239 488.173 145.755C487.915 146.271 487.546 146.711 487.066 147.076C486.587 147.441 486.01 147.724 485.337 147.925C484.671 148.118 483.926 148.215 483.103 148.215C482.379 148.215 481.667 148.115 480.965 147.914C480.27 147.714 479.636 147.413 479.063 147.012C478.498 146.611 478.043 146.117 477.699 145.529C477.363 144.935 477.194 144.247 477.194 143.467H479.257C479.257 144.004 479.361 144.466 479.568 144.853C479.776 145.232 480.059 145.547 480.417 145.798C480.782 146.049 481.194 146.235 481.652 146.356C482.118 146.471 482.601 146.528 483.103 146.528C483.826 146.528 484.438 146.428 484.939 146.228C485.441 146.027 485.82 145.741 486.078 145.368C486.343 144.996 486.476 144.555 486.476 144.047ZM495.725 148.215C494.915 148.215 494.181 148.079 493.522 147.807C492.871 147.527 492.309 147.137 491.836 146.636C491.37 146.134 491.012 145.54 490.762 144.853C490.511 144.165 490.386 143.413 490.386 142.597V142.146C490.386 141.2 490.525 140.359 490.805 139.621C491.084 138.876 491.464 138.246 491.943 137.73C492.423 137.215 492.967 136.825 493.576 136.56C494.185 136.295 494.815 136.162 495.467 136.162C496.298 136.162 497.014 136.305 497.615 136.592C498.224 136.878 498.722 137.279 499.108 137.795C499.495 138.303 499.782 138.905 499.968 139.6C500.154 140.287 500.247 141.039 500.247 141.855V142.747H491.567V141.125H498.26V140.975C498.231 140.459 498.124 139.958 497.938 139.471C497.758 138.984 497.472 138.583 497.078 138.268C496.684 137.952 496.147 137.795 495.467 137.795C495.016 137.795 494.6 137.892 494.221 138.085C493.841 138.271 493.515 138.55 493.243 138.923C492.971 139.295 492.76 139.75 492.609 140.287C492.459 140.824 492.384 141.444 492.384 142.146V142.597C492.384 143.148 492.459 143.667 492.609 144.154C492.767 144.634 492.993 145.057 493.286 145.422C493.587 145.787 493.949 146.074 494.371 146.281C494.801 146.489 495.288 146.593 495.832 146.593C496.534 146.593 497.128 146.45 497.615 146.163C498.102 145.877 498.528 145.493 498.894 145.014L500.097 145.97C499.846 146.349 499.527 146.711 499.141 147.055C498.754 147.398 498.278 147.678 497.712 147.893C497.153 148.107 496.491 148.215 495.725 148.215ZM504.555 138.203V148H502.567V136.377H504.501L504.555 138.203ZM508.186 136.312L508.175 138.16C508.01 138.124 507.853 138.103 507.702 138.096C507.559 138.081 507.394 138.074 507.208 138.074C506.75 138.074 506.345 138.146 505.994 138.289C505.643 138.432 505.346 138.633 505.103 138.891C504.859 139.148 504.666 139.456 504.522 139.814C504.386 140.165 504.297 140.552 504.254 140.975L503.695 141.297C503.695 140.595 503.763 139.936 503.899 139.32C504.043 138.704 504.261 138.16 504.555 137.688C504.848 137.208 505.221 136.835 505.672 136.57C506.13 136.298 506.674 136.162 507.305 136.162C507.448 136.162 507.613 136.18 507.799 136.216C507.985 136.244 508.114 136.277 508.186 136.312ZM513.75 146.206L516.93 136.377H518.96L514.781 148H513.449L513.75 146.206ZM511.097 136.377L514.373 146.26L514.599 148H513.267L509.056 136.377H511.097ZM523.031 136.377V148H521.033V136.377H523.031ZM520.883 133.294C520.883 132.972 520.979 132.7 521.173 132.478C521.373 132.256 521.667 132.145 522.054 132.145C522.433 132.145 522.723 132.256 522.924 132.478C523.132 132.7 523.235 132.972 523.235 133.294C523.235 133.602 523.132 133.867 522.924 134.089C522.723 134.304 522.433 134.411 522.054 134.411C521.667 134.411 521.373 134.304 521.173 134.089C520.979 133.867 520.883 133.602 520.883 133.294ZM530.873 146.582C531.346 146.582 531.783 146.485 532.184 146.292C532.585 146.099 532.914 145.834 533.172 145.497C533.43 145.153 533.576 144.763 533.612 144.326H535.503C535.467 145.014 535.234 145.655 534.805 146.249C534.382 146.836 533.827 147.312 533.14 147.678C532.452 148.036 531.697 148.215 530.873 148.215C529.999 148.215 529.237 148.061 528.585 147.753C527.94 147.445 527.403 147.022 526.974 146.485C526.551 145.948 526.232 145.332 526.018 144.638C525.81 143.936 525.706 143.195 525.706 142.414V141.963C525.706 141.182 525.81 140.445 526.018 139.75C526.232 139.048 526.551 138.429 526.974 137.892C527.403 137.354 527.94 136.932 528.585 136.624C529.237 136.316 529.999 136.162 530.873 136.162C531.783 136.162 532.577 136.348 533.258 136.721C533.938 137.086 534.472 137.587 534.858 138.225C535.252 138.855 535.467 139.571 535.503 140.373H533.612C533.576 139.893 533.44 139.46 533.204 139.073C532.975 138.687 532.66 138.379 532.259 138.149C531.865 137.913 531.403 137.795 530.873 137.795C530.264 137.795 529.752 137.917 529.337 138.16C528.929 138.396 528.603 138.719 528.359 139.127C528.123 139.528 527.951 139.976 527.844 140.47C527.743 140.957 527.693 141.454 527.693 141.963V142.414C527.693 142.923 527.743 143.424 527.844 143.918C527.944 144.412 528.112 144.86 528.349 145.261C528.592 145.662 528.918 145.984 529.326 146.228C529.742 146.464 530.257 146.582 530.873 146.582ZM542.561 148.215C541.751 148.215 541.017 148.079 540.358 147.807C539.707 147.527 539.145 147.137 538.672 146.636C538.206 146.134 537.848 145.54 537.598 144.853C537.347 144.165 537.222 143.413 537.222 142.597V142.146C537.222 141.2 537.361 140.359 537.641 139.621C537.92 138.876 538.299 138.246 538.779 137.73C539.259 137.215 539.803 136.825 540.412 136.56C541.021 136.295 541.651 136.162 542.303 136.162C543.133 136.162 543.85 136.305 544.451 136.592C545.06 136.878 545.558 137.279 545.944 137.795C546.331 138.303 546.618 138.905 546.804 139.6C546.99 140.287 547.083 141.039 547.083 141.855V142.747H538.403V141.125H545.096V140.975C545.067 140.459 544.96 139.958 544.773 139.471C544.594 138.984 544.308 138.583 543.914 138.268C543.52 137.952 542.983 137.795 542.303 137.795C541.852 137.795 541.436 137.892 541.057 138.085C540.677 138.271 540.351 138.55 540.079 138.923C539.807 139.295 539.596 139.75 539.445 140.287C539.295 140.824 539.22 141.444 539.22 142.146V142.597C539.22 143.148 539.295 143.667 539.445 144.154C539.603 144.634 539.828 145.057 540.122 145.422C540.423 145.787 540.785 146.074 541.207 146.281C541.637 146.489 542.124 146.593 542.668 146.593C543.37 146.593 543.964 146.45 544.451 146.163C544.938 145.877 545.364 145.493 545.729 145.014L546.933 145.97C546.682 146.349 546.363 146.711 545.977 147.055C545.59 147.398 545.114 147.678 544.548 147.893C543.989 148.107 543.327 148.215 542.561 148.215ZM564.604 143.026H566.666C566.559 144.015 566.276 144.899 565.817 145.68C565.359 146.46 564.711 147.08 563.873 147.538C563.035 147.989 561.99 148.215 560.736 148.215C559.82 148.215 558.985 148.043 558.233 147.699C557.489 147.355 556.848 146.868 556.311 146.238C555.773 145.601 555.358 144.838 555.064 143.95C554.778 143.055 554.635 142.06 554.635 140.964V139.406C554.635 138.311 554.778 137.319 555.064 136.431C555.358 135.535 555.777 134.769 556.321 134.132C556.873 133.494 557.535 133.004 558.309 132.66C559.082 132.316 559.952 132.145 560.919 132.145C562.101 132.145 563.1 132.367 563.916 132.811C564.732 133.255 565.366 133.87 565.817 134.658C566.276 135.439 566.559 136.345 566.666 137.376H564.604C564.503 136.646 564.317 136.019 564.045 135.496C563.773 134.966 563.386 134.558 562.885 134.271C562.383 133.985 561.728 133.842 560.919 133.842C560.224 133.842 559.612 133.974 559.082 134.239C558.559 134.504 558.119 134.88 557.761 135.367C557.41 135.854 557.145 136.438 556.966 137.118C556.787 137.799 556.697 138.554 556.697 139.385V140.964C556.697 141.73 556.776 142.45 556.934 143.123C557.098 143.796 557.345 144.387 557.675 144.896C558.004 145.404 558.423 145.805 558.932 146.099C559.44 146.385 560.042 146.528 560.736 146.528C561.617 146.528 562.319 146.389 562.842 146.109C563.365 145.83 563.758 145.429 564.023 144.906C564.296 144.383 564.489 143.757 564.604 143.026Z" fill="black"/>
<rect x="452.5" y="240.5" width="139" height="39" rx="3.5" fill="white" stroke="black"/>
<path d="M461.704 252.359H466.882C468.056 252.359 469.048 252.538 469.857 252.896C470.674 253.255 471.293 253.785 471.716 254.486C472.146 255.181 472.36 256.037 472.36 257.054C472.36 257.77 472.214 258.425 471.92 259.02C471.633 259.607 471.218 260.108 470.674 260.523C470.137 260.932 469.492 261.236 468.74 261.437L468.16 261.662H463.294L463.272 259.976H466.946C467.691 259.976 468.311 259.847 468.805 259.589C469.299 259.324 469.671 258.969 469.922 258.525C470.173 258.081 470.298 257.591 470.298 257.054C470.298 256.452 470.18 255.926 469.943 255.475C469.707 255.023 469.335 254.676 468.826 254.433C468.325 254.182 467.677 254.057 466.882 254.057H463.777V268H461.704V252.359ZM470.846 268L467.043 260.91L469.202 260.899L473.059 267.871V268H470.846ZM479.783 268.215C478.974 268.215 478.24 268.079 477.581 267.807C476.929 267.527 476.367 267.137 475.895 266.636C475.429 266.134 475.071 265.54 474.82 264.853C474.57 264.165 474.444 263.413 474.444 262.597V262.146C474.444 261.2 474.584 260.359 474.863 259.621C475.143 258.876 475.522 258.246 476.002 257.73C476.482 257.215 477.026 256.825 477.635 256.56C478.243 256.295 478.874 256.162 479.525 256.162C480.356 256.162 481.072 256.305 481.674 256.592C482.283 256.878 482.78 257.279 483.167 257.795C483.554 258.303 483.84 258.905 484.026 259.6C484.213 260.287 484.306 261.039 484.306 261.855V262.747H475.626V261.125H482.318V260.975C482.29 260.459 482.182 259.958 481.996 259.471C481.817 258.984 481.531 258.583 481.137 258.268C480.743 257.952 480.206 257.795 479.525 257.795C479.074 257.795 478.659 257.892 478.279 258.085C477.9 258.271 477.574 258.55 477.302 258.923C477.03 259.295 476.818 259.75 476.668 260.287C476.518 260.824 476.442 261.444 476.442 262.146V262.597C476.442 263.148 476.518 263.667 476.668 264.154C476.826 264.634 477.051 265.057 477.345 265.422C477.646 265.787 478.007 266.074 478.43 266.281C478.859 266.489 479.346 266.593 479.891 266.593C480.592 266.593 481.187 266.45 481.674 266.163C482.161 265.877 482.587 265.493 482.952 265.014L484.155 265.97C483.905 266.349 483.586 266.711 483.199 267.055C482.812 267.398 482.336 267.678 481.771 267.893C481.212 268.107 480.549 268.215 479.783 268.215ZM488.613 258.611V272.469H486.615V256.377H488.441L488.613 258.611ZM496.444 262.092V262.317C496.444 263.162 496.344 263.947 496.144 264.67C495.943 265.386 495.649 266.009 495.263 266.539C494.883 267.069 494.414 267.481 493.855 267.774C493.297 268.068 492.656 268.215 491.933 268.215C491.195 268.215 490.543 268.093 489.978 267.85C489.412 267.606 488.932 267.252 488.538 266.786C488.144 266.321 487.829 265.762 487.593 265.11C487.364 264.459 487.206 263.725 487.12 262.908V261.705C487.206 260.846 487.367 260.076 487.604 259.396C487.84 258.715 488.151 258.135 488.538 257.655C488.932 257.168 489.408 256.799 489.967 256.549C490.525 256.291 491.17 256.162 491.9 256.162C492.631 256.162 493.279 256.305 493.845 256.592C494.41 256.871 494.887 257.272 495.273 257.795C495.66 258.318 495.95 258.944 496.144 259.675C496.344 260.398 496.444 261.204 496.444 262.092ZM494.446 262.317V262.092C494.446 261.512 494.385 260.967 494.264 260.459C494.142 259.943 493.952 259.492 493.694 259.105C493.444 258.712 493.121 258.404 492.728 258.182C492.334 257.952 491.865 257.838 491.32 257.838C490.819 257.838 490.382 257.924 490.01 258.096C489.645 258.268 489.333 258.5 489.075 258.794C488.817 259.08 488.606 259.41 488.441 259.782C488.284 260.147 488.166 260.527 488.087 260.921V263.703C488.23 264.204 488.431 264.677 488.688 265.121C488.946 265.558 489.29 265.912 489.72 266.185C490.149 266.45 490.69 266.582 491.342 266.582C491.879 266.582 492.341 266.471 492.728 266.249C493.121 266.02 493.444 265.708 493.694 265.314C493.952 264.921 494.142 264.469 494.264 263.961C494.385 263.445 494.446 262.897 494.446 262.317ZM498.453 262.317V262.07C498.453 261.232 498.575 260.455 498.818 259.739C499.062 259.016 499.413 258.389 499.871 257.859C500.329 257.322 500.884 256.907 501.536 256.613C502.188 256.312 502.918 256.162 503.728 256.162C504.544 256.162 505.278 256.312 505.93 256.613C506.589 256.907 507.147 257.322 507.605 257.859C508.071 258.389 508.425 259.016 508.669 259.739C508.912 260.455 509.034 261.232 509.034 262.07V262.317C509.034 263.155 508.912 263.932 508.669 264.648C508.425 265.365 508.071 265.991 507.605 266.528C507.147 267.058 506.592 267.474 505.94 267.774C505.296 268.068 504.565 268.215 503.749 268.215C502.933 268.215 502.199 268.068 501.547 267.774C500.895 267.474 500.337 267.058 499.871 266.528C499.413 265.991 499.062 265.365 498.818 264.648C498.575 263.932 498.453 263.155 498.453 262.317ZM500.44 262.07V262.317C500.44 262.897 500.508 263.445 500.645 263.961C500.781 264.469 500.985 264.921 501.257 265.314C501.536 265.708 501.883 266.02 502.299 266.249C502.714 266.471 503.198 266.582 503.749 266.582C504.293 266.582 504.77 266.471 505.178 266.249C505.593 266.02 505.937 265.708 506.209 265.314C506.481 264.921 506.685 264.469 506.821 263.961C506.965 263.445 507.036 262.897 507.036 262.317V262.07C507.036 261.497 506.965 260.957 506.821 260.448C506.685 259.933 506.478 259.478 506.198 259.084C505.926 258.683 505.582 258.368 505.167 258.139C504.759 257.91 504.279 257.795 503.728 257.795C503.183 257.795 502.703 257.91 502.288 258.139C501.88 258.368 501.536 258.683 501.257 259.084C500.985 259.478 500.781 259.933 500.645 260.448C500.508 260.957 500.44 261.497 500.44 262.07ZM518.294 264.917C518.294 264.631 518.229 264.366 518.101 264.122C517.979 263.871 517.725 263.646 517.338 263.445C516.958 263.238 516.385 263.059 515.619 262.908C514.975 262.772 514.391 262.611 513.868 262.425C513.353 262.239 512.912 262.013 512.547 261.748C512.189 261.483 511.913 261.172 511.72 260.813C511.526 260.455 511.43 260.036 511.43 259.557C511.43 259.098 511.53 258.665 511.73 258.257C511.938 257.849 512.228 257.487 512.601 257.172C512.98 256.857 513.435 256.61 513.965 256.431C514.495 256.252 515.086 256.162 515.737 256.162C516.668 256.162 517.463 256.327 518.122 256.656C518.781 256.986 519.286 257.426 519.637 257.978C519.988 258.522 520.163 259.127 520.163 259.793H518.176C518.176 259.471 518.079 259.159 517.886 258.858C517.7 258.55 517.424 258.296 517.059 258.096C516.701 257.895 516.26 257.795 515.737 257.795C515.186 257.795 514.738 257.881 514.395 258.053C514.058 258.217 513.811 258.429 513.653 258.687C513.503 258.944 513.428 259.216 513.428 259.503C513.428 259.718 513.464 259.911 513.535 260.083C513.614 260.248 513.75 260.402 513.943 260.545C514.137 260.681 514.409 260.81 514.76 260.932C515.111 261.053 515.558 261.175 516.103 261.297C517.055 261.512 517.839 261.77 518.455 262.07C519.071 262.371 519.529 262.74 519.83 263.177C520.131 263.614 520.281 264.144 520.281 264.767C520.281 265.275 520.174 265.741 519.959 266.163C519.751 266.586 519.447 266.951 519.046 267.259C518.652 267.56 518.179 267.796 517.628 267.968C517.084 268.132 516.471 268.215 515.791 268.215C514.767 268.215 513.9 268.032 513.191 267.667C512.482 267.302 511.945 266.829 511.58 266.249C511.215 265.669 511.032 265.057 511.032 264.412H513.03C513.059 264.956 513.216 265.39 513.503 265.712C513.789 266.027 514.14 266.253 514.556 266.389C514.971 266.518 515.383 266.582 515.791 266.582C516.335 266.582 516.79 266.51 517.155 266.367C517.528 266.224 517.811 266.027 518.004 265.776C518.197 265.526 518.294 265.239 518.294 264.917ZM525.051 256.377V268H523.053V256.377H525.051ZM522.902 253.294C522.902 252.972 522.999 252.7 523.192 252.478C523.393 252.256 523.687 252.145 524.073 252.145C524.453 252.145 524.743 252.256 524.943 252.478C525.151 252.7 525.255 252.972 525.255 253.294C525.255 253.602 525.151 253.867 524.943 254.089C524.743 254.304 524.453 254.411 524.073 254.411C523.687 254.411 523.393 254.304 523.192 254.089C522.999 253.867 522.902 253.602 522.902 253.294ZM533.107 256.377V257.902H526.823V256.377H533.107ZM528.95 253.552H530.938V265.121C530.938 265.515 530.998 265.812 531.12 266.013C531.242 266.213 531.399 266.346 531.593 266.41C531.786 266.475 531.994 266.507 532.216 266.507C532.381 266.507 532.552 266.493 532.731 266.464C532.918 266.428 533.057 266.399 533.15 266.378L533.161 268C533.004 268.05 532.796 268.097 532.538 268.14C532.287 268.19 531.983 268.215 531.625 268.215C531.138 268.215 530.69 268.118 530.282 267.925C529.874 267.731 529.548 267.409 529.305 266.958C529.068 266.5 528.95 265.884 528.95 265.11V253.552ZM534.697 262.317V262.07C534.697 261.232 534.819 260.455 535.062 259.739C535.306 259.016 535.657 258.389 536.115 257.859C536.574 257.322 537.129 256.907 537.78 256.613C538.432 256.312 539.162 256.162 539.972 256.162C540.788 256.162 541.522 256.312 542.174 256.613C542.833 256.907 543.391 257.322 543.85 257.859C544.315 258.389 544.67 259.016 544.913 259.739C545.157 260.455 545.278 261.232 545.278 262.07V262.317C545.278 263.155 545.157 263.932 544.913 264.648C544.67 265.365 544.315 265.991 543.85 266.528C543.391 267.058 542.836 267.474 542.185 267.774C541.54 268.068 540.81 268.215 539.993 268.215C539.177 268.215 538.443 268.068 537.791 267.774C537.139 267.474 536.581 267.058 536.115 266.528C535.657 265.991 535.306 265.365 535.062 264.648C534.819 263.932 534.697 263.155 534.697 262.317ZM536.685 262.07V262.317C536.685 262.897 536.753 263.445 536.889 263.961C537.025 264.469 537.229 264.921 537.501 265.314C537.78 265.708 538.128 266.02 538.543 266.249C538.958 266.471 539.442 266.582 539.993 266.582C540.537 266.582 541.014 266.471 541.422 266.249C541.837 266.02 542.181 265.708 542.453 265.314C542.725 264.921 542.929 264.469 543.065 263.961C543.209 263.445 543.28 262.897 543.28 262.317V262.07C543.28 261.497 543.209 260.957 543.065 260.448C542.929 259.933 542.722 259.478 542.442 259.084C542.17 258.683 541.826 258.368 541.411 258.139C541.003 257.91 540.523 257.795 539.972 257.795C539.427 257.795 538.948 257.91 538.532 258.139C538.124 258.368 537.78 258.683 537.501 259.084C537.229 259.478 537.025 259.933 536.889 260.448C536.753 260.957 536.685 261.497 536.685 262.07ZM549.758 258.203V268H547.771V256.377H549.704L549.758 258.203ZM553.389 256.312L553.378 258.16C553.213 258.124 553.056 258.103 552.905 258.096C552.762 258.081 552.597 258.074 552.411 258.074C551.953 258.074 551.548 258.146 551.197 258.289C550.846 258.432 550.549 258.633 550.306 258.891C550.062 259.148 549.869 259.456 549.726 259.814C549.59 260.165 549.5 260.552 549.457 260.975L548.898 261.297C548.898 260.595 548.966 259.936 549.103 259.32C549.246 258.704 549.464 258.16 549.758 257.688C550.051 257.208 550.424 256.835 550.875 256.57C551.333 256.298 551.878 256.162 552.508 256.162C552.651 256.162 552.816 256.18 553.002 256.216C553.188 256.244 553.317 256.277 553.389 256.312ZM558.685 266.797L561.918 256.377H564.045L559.383 269.794C559.275 270.08 559.132 270.388 558.953 270.718C558.781 271.054 558.559 271.373 558.287 271.674C558.015 271.975 557.686 272.218 557.299 272.404C556.919 272.598 556.465 272.694 555.935 272.694C555.777 272.694 555.576 272.673 555.333 272.63C555.09 272.587 554.918 272.551 554.817 272.522L554.807 270.911C554.864 270.918 554.953 270.925 555.075 270.933C555.204 270.947 555.294 270.954 555.344 270.954C555.795 270.954 556.178 270.893 556.493 270.771C556.808 270.657 557.073 270.46 557.288 270.181C557.51 269.909 557.7 269.533 557.857 269.053L558.685 266.797ZM556.311 256.377L559.329 265.4L559.845 267.495L558.416 268.226L554.141 256.377H556.311ZM581.039 263.026H583.102C582.994 264.015 582.711 264.899 582.253 265.68C581.795 266.46 581.146 267.08 580.309 267.538C579.471 267.989 578.425 268.215 577.172 268.215C576.255 268.215 575.421 268.043 574.669 267.699C573.924 267.355 573.283 266.868 572.746 266.238C572.209 265.601 571.794 264.838 571.5 263.95C571.214 263.055 571.07 262.06 571.07 260.964V259.406C571.07 258.311 571.214 257.319 571.5 256.431C571.794 255.535 572.213 254.769 572.757 254.132C573.308 253.494 573.971 253.004 574.744 252.66C575.518 252.316 576.388 252.145 577.354 252.145C578.536 252.145 579.535 252.367 580.352 252.811C581.168 253.255 581.802 253.87 582.253 254.658C582.711 255.439 582.994 256.345 583.102 257.376H581.039C580.939 256.646 580.753 256.019 580.48 255.496C580.208 254.966 579.822 254.558 579.32 254.271C578.819 253.985 578.164 253.842 577.354 253.842C576.66 253.842 576.048 253.974 575.518 254.239C574.995 254.504 574.554 254.88 574.196 255.367C573.845 255.854 573.58 256.438 573.401 257.118C573.222 257.799 573.133 258.554 573.133 259.385V260.964C573.133 261.73 573.212 262.45 573.369 263.123C573.534 263.796 573.781 264.387 574.11 264.896C574.44 265.404 574.859 265.805 575.367 266.099C575.876 266.385 576.477 266.528 577.172 266.528C578.053 266.528 578.755 266.389 579.277 266.109C579.8 265.83 580.194 265.429 580.459 264.906C580.731 264.383 580.924 263.757 581.039 263.026Z" fill="black"/>
<rect x="398.5" y="180.5" width="139" height="39" rx="3.5" fill="white" stroke="black"/>
<path d="M433.464 206.313V208H425.182V206.313H433.464ZM425.601 192.359V208H423.527V192.359H425.601ZM432.368 199.084V200.771H425.182V199.084H432.368ZM433.356 192.359V194.057H425.182V192.359H433.356ZM437.718 198.858V208H435.73V196.377H437.61L437.718 198.858ZM437.245 201.748L436.418 201.716C436.425 200.921 436.543 200.187 436.772 199.514C437.002 198.833 437.324 198.243 437.739 197.741C438.155 197.24 438.649 196.853 439.222 196.581C439.802 196.302 440.443 196.162 441.145 196.162C441.717 196.162 442.233 196.241 442.691 196.398C443.15 196.549 443.54 196.792 443.862 197.129C444.192 197.465 444.442 197.902 444.614 198.439C444.786 198.969 444.872 199.618 444.872 200.384V208H442.874V200.362C442.874 199.754 442.785 199.267 442.605 198.901C442.426 198.529 442.165 198.26 441.821 198.096C441.478 197.924 441.055 197.838 440.554 197.838C440.06 197.838 439.608 197.942 439.2 198.149C438.799 198.357 438.452 198.644 438.158 199.009C437.872 199.374 437.646 199.793 437.481 200.266C437.324 200.731 437.245 201.225 437.245 201.748ZM452.757 196.377V197.902H446.473V196.377H452.757ZM448.6 193.552H450.587V205.121C450.587 205.515 450.648 205.812 450.77 206.013C450.891 206.213 451.049 206.346 451.242 206.41C451.436 206.475 451.643 206.507 451.865 206.507C452.03 206.507 452.202 206.493 452.381 206.464C452.567 206.428 452.707 206.399 452.8 206.378L452.811 208C452.653 208.05 452.445 208.097 452.188 208.14C451.937 208.19 451.632 208.215 451.274 208.215C450.787 208.215 450.34 208.118 449.932 207.925C449.523 207.731 449.198 207.409 448.954 206.958C448.718 206.5 448.6 205.884 448.6 205.11V193.552ZM457.247 196.377V208H455.249V196.377H457.247ZM455.099 193.294C455.099 192.972 455.195 192.7 455.389 192.478C455.589 192.256 455.883 192.145 456.27 192.145C456.649 192.145 456.939 192.256 457.14 192.478C457.347 192.7 457.451 192.972 457.451 193.294C457.451 193.602 457.347 193.867 457.14 194.089C456.939 194.304 456.649 194.411 456.27 194.411C455.883 194.411 455.589 194.304 455.389 194.089C455.195 193.867 455.099 193.602 455.099 193.294ZM465.304 196.377V197.902H459.02V196.377H465.304ZM461.146 193.552H463.134V205.121C463.134 205.515 463.195 205.812 463.316 206.013C463.438 206.213 463.596 206.346 463.789 206.41C463.982 206.475 464.19 206.507 464.412 206.507C464.577 206.507 464.749 206.493 464.928 206.464C465.114 206.428 465.254 206.399 465.347 206.378L465.357 208C465.2 208.05 464.992 208.097 464.734 208.14C464.484 208.19 464.179 208.215 463.821 208.215C463.334 208.215 462.887 208.118 462.479 207.925C462.07 207.731 461.744 207.409 461.501 206.958C461.265 206.5 461.146 205.884 461.146 205.11V193.552ZM469.794 196.377V208H467.796V196.377H469.794ZM467.646 193.294C467.646 192.972 467.742 192.7 467.936 192.478C468.136 192.256 468.43 192.145 468.816 192.145C469.196 192.145 469.486 192.256 469.687 192.478C469.894 192.7 469.998 192.972 469.998 193.294C469.998 193.602 469.894 193.867 469.687 194.089C469.486 194.304 469.196 194.411 468.816 194.411C468.43 194.411 468.136 194.304 467.936 194.089C467.742 193.867 467.646 193.602 467.646 193.294ZM477.808 208.215C476.998 208.215 476.264 208.079 475.605 207.807C474.954 207.527 474.392 207.137 473.919 206.636C473.453 206.134 473.095 205.54 472.845 204.853C472.594 204.165 472.469 203.413 472.469 202.597V202.146C472.469 201.2 472.608 200.359 472.888 199.621C473.167 198.876 473.547 198.246 474.026 197.73C474.506 197.215 475.05 196.825 475.659 196.56C476.268 196.295 476.898 196.162 477.55 196.162C478.381 196.162 479.097 196.305 479.698 196.592C480.307 196.878 480.805 197.279 481.191 197.795C481.578 198.303 481.865 198.905 482.051 199.6C482.237 200.287 482.33 201.039 482.33 201.855V202.747H473.65V201.125H480.343V200.975C480.314 200.459 480.207 199.958 480.021 199.471C479.841 198.984 479.555 198.583 479.161 198.268C478.767 197.952 478.23 197.795 477.55 197.795C477.099 197.795 476.683 197.892 476.304 198.085C475.924 198.271 475.598 198.55 475.326 198.923C475.054 199.295 474.843 199.75 474.692 200.287C474.542 200.824 474.467 201.444 474.467 202.146V202.597C474.467 203.148 474.542 203.667 474.692 204.154C474.85 204.634 475.076 205.057 475.369 205.422C475.67 205.787 476.032 206.074 476.454 206.281C476.884 206.489 477.371 206.593 477.915 206.593C478.617 206.593 479.211 206.45 479.698 206.163C480.185 205.877 480.611 205.493 480.977 205.014L482.18 205.97C481.929 206.349 481.61 206.711 481.224 207.055C480.837 207.398 480.361 207.678 479.795 207.893C479.236 208.107 478.574 208.215 477.808 208.215ZM491.418 204.917C491.418 204.631 491.354 204.366 491.225 204.122C491.103 203.871 490.849 203.646 490.462 203.445C490.082 203.238 489.509 203.059 488.743 202.908C488.099 202.772 487.515 202.611 486.992 202.425C486.477 202.239 486.036 202.013 485.671 201.748C485.313 201.483 485.037 201.172 484.844 200.813C484.65 200.455 484.554 200.036 484.554 199.557C484.554 199.098 484.654 198.665 484.854 198.257C485.062 197.849 485.352 197.487 485.725 197.172C486.104 196.857 486.559 196.61 487.089 196.431C487.619 196.252 488.21 196.162 488.861 196.162C489.792 196.162 490.587 196.327 491.246 196.656C491.905 196.986 492.41 197.426 492.761 197.978C493.112 198.522 493.287 199.127 493.287 199.793H491.3C491.3 199.471 491.203 199.159 491.01 198.858C490.824 198.55 490.548 198.296 490.183 198.096C489.825 197.895 489.384 197.795 488.861 197.795C488.31 197.795 487.862 197.881 487.519 198.053C487.182 198.217 486.935 198.429 486.777 198.687C486.627 198.944 486.552 199.216 486.552 199.503C486.552 199.718 486.588 199.911 486.659 200.083C486.738 200.248 486.874 200.402 487.067 200.545C487.261 200.681 487.533 200.81 487.884 200.932C488.235 201.053 488.682 201.175 489.227 201.297C490.179 201.512 490.963 201.77 491.579 202.07C492.195 202.371 492.653 202.74 492.954 203.177C493.255 203.614 493.405 204.144 493.405 204.767C493.405 205.275 493.298 205.741 493.083 206.163C492.875 206.586 492.571 206.951 492.17 207.259C491.776 207.56 491.303 207.796 490.752 207.968C490.208 208.132 489.595 208.215 488.915 208.215C487.891 208.215 487.024 208.032 486.315 207.667C485.606 207.302 485.069 206.829 484.704 206.249C484.339 205.669 484.156 205.057 484.156 204.412H486.154C486.183 204.956 486.34 205.39 486.627 205.712C486.913 206.027 487.264 206.253 487.68 206.389C488.095 206.518 488.507 206.582 488.915 206.582C489.459 206.582 489.914 206.51 490.279 206.367C490.652 206.224 490.935 206.027 491.128 205.776C491.321 205.526 491.418 205.239 491.418 204.917ZM511.216 203.026H513.278C513.171 204.015 512.888 204.899 512.43 205.68C511.971 206.46 511.323 207.08 510.485 207.538C509.647 207.989 508.602 208.215 507.349 208.215C506.432 208.215 505.598 208.043 504.846 207.699C504.101 207.355 503.46 206.868 502.923 206.238C502.386 205.601 501.97 204.838 501.677 203.95C501.39 203.055 501.247 202.06 501.247 200.964V199.406C501.247 198.311 501.39 197.319 501.677 196.431C501.97 195.535 502.389 194.769 502.934 194.132C503.485 193.494 504.147 193.004 504.921 192.66C505.694 192.316 506.564 192.145 507.531 192.145C508.713 192.145 509.712 192.367 510.528 192.811C511.345 193.255 511.979 193.87 512.43 194.658C512.888 195.439 513.171 196.345 513.278 197.376H511.216C511.116 196.646 510.929 196.019 510.657 195.496C510.385 194.966 509.998 194.558 509.497 194.271C508.996 193.985 508.34 193.842 507.531 193.842C506.837 193.842 506.224 193.974 505.694 194.239C505.172 194.504 504.731 194.88 504.373 195.367C504.022 195.854 503.757 196.438 503.578 197.118C503.399 197.799 503.31 198.554 503.31 199.385V200.964C503.31 201.73 503.388 202.45 503.546 203.123C503.711 203.796 503.958 204.387 504.287 204.896C504.617 205.404 505.035 205.805 505.544 206.099C506.052 206.385 506.654 206.528 507.349 206.528C508.229 206.528 508.931 206.389 509.454 206.109C509.977 205.83 510.371 205.429 510.636 204.906C510.908 204.383 511.101 203.757 511.216 203.026Z" fill="black"/>
<path d="M563.043 239.711C563.433 240.102 564.067 240.102 564.457 239.711L570.821 233.347C571.212 232.957 571.212 232.323 570.821 231.933C570.431 231.542 569.797 231.542 569.407 231.933L563.75 237.59L558.093 231.933C557.703 231.542 557.069 231.542 556.679 231.933C556.288 232.323 556.288 232.957 556.679 233.347L563.043 239.711ZM562.75 159.999V239.004H564.75V159.999H562.75Z" fill="black"/>
<path d="M514.293 179.707C514.683 180.098 515.317 180.098 515.707 179.707L522.071 173.343C522.462 172.953 522.462 172.319 522.071 171.929C521.681 171.538 521.047 171.538 520.657 171.929L515 177.586L509.343 171.929C508.953 171.538 508.319 171.538 507.929 171.929C507.538 172.319 507.538 172.953 507.929 173.343L514.293 179.707ZM514 160V179H516V160H514Z" fill="black"/>
<path d="M515.707 220.293C515.317 219.902 514.683 219.902 514.293 220.293L507.929 226.657C507.538 227.047 507.538 227.681 507.929 228.071C508.319 228.462 508.953 228.462 509.343 228.071L515 222.414L520.657 228.071C521.047 228.462 521.681 228.462 522.071 228.071C522.462 227.681 522.462 227.047 522.071 226.657L515.707 220.293ZM516 240V221H514V240H516Z" fill="black"/>
<path d="M202.078 139.613C201.864 140.122 202.104 140.708 202.613 140.922L210.91 144.408C211.42 144.621 212.006 144.382 212.22 143.873C212.433 143.364 212.194 142.778 211.685 142.564L204.309 139.465L207.408 132.09C207.621 131.58 207.382 130.994 206.873 130.78C206.364 130.567 205.778 130.806 205.564 131.315L202.078 139.613ZM393.622 61.0742L202.622 139.074L203.378 140.926L394.378 62.9258L393.622 61.0742Z" fill="black"/>
<path d="M92.1842 59.0625C91.6414 58.9606 91.1188 59.318 91.0169 59.8608L89.3561 68.7062C89.2542 69.249 89.6116 69.7717 90.1544 69.8736C90.6972 69.9755 91.2199 69.6181 91.3218 69.0753L92.798 61.2127L100.661 62.6889C101.203 62.7908 101.726 62.4334 101.828 61.8906C101.93 61.3478 101.572 60.8251 101.03 60.7232L92.1842 59.0625ZM133.825 119.436L92.8252 59.4808L91.1743 60.6098L132.175 120.564L133.825 119.436Z" fill="black"/>
<path d="M100.493 59.1379C100.017 59.4178 99.858 60.0307 100.138 60.5068L104.699 68.2654C104.979 68.7415 105.592 68.9006 106.068 68.6207C106.544 68.3408 106.703 67.7279 106.423 67.2518L102.369 60.3553L109.265 56.301C109.742 56.0211 109.901 55.4082 109.621 54.9321C109.341 54.456 108.728 54.2969 108.252 54.5768L100.493 59.1379ZM332.252 118.987L101.251 59.0321L100.749 60.9679L331.749 120.923L332.252 118.987Z" fill="black"/>
<path d="M161.467 41.154C161 41.4484 160.86 42.0659 161.154 42.5331L165.952 50.1474C166.247 50.6147 166.864 50.7548 167.331 50.4603C167.799 50.1659 167.939 49.5484 167.644 49.0812L163.379 42.3129L170.147 38.0479C170.615 37.7534 170.755 37.136 170.46 36.6687C170.166 36.2015 169.548 36.0614 169.081 36.3558L161.467 41.154ZM510.222 119.979L162.221 41.0248L161.779 42.9752L509.779 121.93L510.222 119.979Z" fill="black"/>
<path d="M522.072 120.997C522.623 120.958 523.037 120.479 522.997 119.928L522.351 110.951C522.311 110.401 521.833 109.986 521.282 110.026C520.731 110.065 520.317 110.544 520.356 111.095L520.931 119.074L512.951 119.649C512.401 119.689 511.986 120.167 512.026 120.718C512.065 121.269 512.544 121.683 513.095 121.644L522.072 120.997ZM454.345 62.7561L521.346 120.756L522.655 119.244L455.655 61.2439L454.345 62.7561Z" fill="black"/>
<path d="M401.293 139.293C400.902 139.683 400.902 140.317 401.293 140.707L407.657 147.071C408.047 147.462 408.681 147.462 409.071 147.071C409.462 146.681 409.462 146.047 409.071 145.657L403.414 140L409.071 134.343C409.462 133.953 409.462 133.319 409.071 132.929C408.681 132.538 408.047 132.538 407.657 132.929L401.293 139.293ZM452.707 140.707C453.098 140.317 453.098 139.683 452.707 139.293L446.343 132.929C445.953 132.538 445.319 132.538 444.929 132.929C444.538 133.319 444.538 133.953 444.929 134.343L450.586 140L444.929 145.657C444.538 146.047 444.538 146.681 444.929 147.071C445.319 147.462 445.953 147.462 446.343 147.071L452.707 140.707ZM402 141L452 141L452 139L402 139L402 141Z" fill="black"/>
<path d="M202.293 139.293C201.902 139.683 201.902 140.317 202.293 140.707L208.657 147.071C209.047 147.462 209.681 147.462 210.071 147.071C210.462 146.681 210.462 146.047 210.071 145.657L204.414 140L210.071 134.343C210.462 133.953 210.462 133.319 210.071 132.929C209.681 132.538 209.047 132.538 208.657 132.929L202.293 139.293ZM262.707 140.707C263.098 140.317 263.098 139.683 262.707 139.293L256.343 132.929C255.953 132.538 255.319 132.538 254.929 132.929C254.538 133.319 254.538 133.953 254.929 134.343L260.586 140L254.929 145.657C254.538 146.047 254.538 146.681 254.929 147.071C255.319 147.462 255.953 147.462 256.343 147.071L262.707 140.707ZM203 141L262 141L262 139L203 139L203 141Z" fill="black"/>
<path d="M331.029 119.76C330.897 120.297 331.224 120.839 331.76 120.971L340.498 123.127C341.035 123.259 341.576 122.932 341.709 122.396C341.841 121.859 341.514 121.318 340.977 121.185L333.21 119.269L335.127 111.502C335.259 110.965 334.932 110.424 334.396 110.291C333.859 110.159 333.318 110.486 333.185 111.023L331.029 119.76ZM427.483 61.1441L331.483 119.144L332.517 120.856L428.517 62.8559L427.483 61.1441Z" fill="black"/>
</svg>
