<svg width="600" height="300" viewBox="0 0 600 300" fill="none" xmlns="http://www.w3.org/2000/svg">
<rect width="600" height="300" fill="white"/>
<path d="M136.894 229.511L171.5 194.5L188.5 145L227.5 131.5L269.5 114L483 27" stroke="#3EA6E1" stroke-width="2"/>
<path d="M137.414 24.993C136.633 24.2119 135.367 24.2119 134.586 24.993L121.858 37.7209C121.077 38.5019 121.077 39.7683 121.858 40.5493C122.639 41.3304 123.905 41.3304 124.687 40.5493L136 29.2356L147.314 40.5493C148.095 41.3304 149.361 41.3304 150.142 40.5493C150.923 39.7683 150.923 38.502 150.142 37.7209L137.414 24.993ZM138 232.407L138 26.4072L134 26.4072L134 232.407L138 232.407Z" fill="black"/>
<path d="M508.413 231.821C509.194 231.04 509.194 229.774 508.413 228.993L495.685 216.265C494.904 215.484 493.638 215.484 492.857 216.265C492.076 217.046 492.076 218.312 492.857 219.093L504.17 230.407L492.857 241.721C492.076 242.502 492.076 243.768 492.857 244.549C493.638 245.33 494.904 245.33 495.685 244.549L508.413 231.821ZM134 232.407H506.999V228.407H134V232.407Z" fill="black"/>
<path d="M12.8906 133.345V150.407H9.375V133.345H12.8906ZM23.1094 133.345L16.3477 141.77L12.4453 145.966L11.8125 142.638L14.4492 139.028L18.7969 133.345H23.1094ZM19.1133 150.407L14.0859 142.52L16.6875 140.341L23.2734 150.407H19.1133ZM27.6328 140.435V150.407H24.2578V137.728H27.4219L27.6328 140.435ZM27.1406 143.622H26.2266C26.2266 142.685 26.3477 141.841 26.5898 141.091C26.832 140.333 27.1719 139.688 27.6094 139.157C28.0469 138.618 28.5664 138.208 29.168 137.927C29.7773 137.638 30.457 137.493 31.207 137.493C31.8008 137.493 32.3438 137.579 32.8359 137.751C33.3281 137.923 33.75 138.196 34.1016 138.571C34.4609 138.946 34.7344 139.442 34.9219 140.06C35.1172 140.677 35.2148 141.431 35.2148 142.321V150.407H31.8164V142.31C31.8164 141.747 31.7383 141.31 31.582 140.997C31.4258 140.685 31.1953 140.466 30.8906 140.341C30.5938 140.208 30.2266 140.142 29.7891 140.142C29.3359 140.142 28.9414 140.231 28.6055 140.411C28.2773 140.591 28.0039 140.841 27.7852 141.161C27.5742 141.474 27.4141 141.841 27.3047 142.263C27.1953 142.685 27.1406 143.138 27.1406 143.622ZM37.2422 144.196V143.95C37.2422 143.02 37.375 142.165 37.6406 141.384C37.9062 140.595 38.293 139.911 38.8008 139.333C39.3086 138.755 39.9336 138.306 40.6758 137.985C41.418 137.657 42.2695 137.493 43.2305 137.493C44.1914 137.493 45.0469 137.657 45.7969 137.985C46.5469 138.306 47.1758 138.755 47.6836 139.333C48.1992 139.911 48.5898 140.595 48.8555 141.384C49.1211 142.165 49.2539 143.02 49.2539 143.95V144.196C49.2539 145.118 49.1211 145.974 48.8555 146.763C48.5898 147.544 48.1992 148.228 47.6836 148.813C47.1758 149.392 46.5508 149.841 45.8086 150.161C45.0664 150.481 44.2148 150.642 43.2539 150.642C42.293 150.642 41.4375 150.481 40.6875 150.161C39.9453 149.841 39.3164 149.392 38.8008 148.813C38.293 148.228 37.9062 147.544 37.6406 146.763C37.375 145.974 37.2422 145.118 37.2422 144.196ZM40.6172 143.95V144.196C40.6172 144.728 40.6641 145.224 40.7578 145.685C40.8516 146.145 41 146.552 41.2031 146.903C41.4141 147.247 41.6875 147.517 42.0234 147.712C42.3594 147.907 42.7695 148.005 43.2539 148.005C43.7227 148.005 44.125 147.907 44.4609 147.712C44.7969 147.517 45.0664 147.247 45.2695 146.903C45.4727 146.552 45.6211 146.145 45.7148 145.685C45.8164 145.224 45.8672 144.728 45.8672 144.196V143.95C45.8672 143.435 45.8164 142.95 45.7148 142.497C45.6211 142.036 45.4688 141.63 45.2578 141.278C45.0547 140.919 44.7852 140.638 44.4492 140.435C44.1133 140.231 43.707 140.13 43.2305 140.13C42.7539 140.13 42.3477 140.231 42.0117 140.435C41.6836 140.638 41.4141 140.919 41.2031 141.278C41 141.63 40.8516 142.036 40.7578 142.497C40.6641 142.95 40.6172 143.435 40.6172 143.95ZM54.9492 147.126L57.5859 137.728H59.7305L59.0391 141.419L56.4023 150.407H54.6094L54.9492 147.126ZM53.6133 137.728L55.5 147.114L55.6758 150.407H53.5664L50.3555 137.728H53.6133ZM62.1445 146.962L63.9844 137.728H67.2539L64.043 150.407H61.9453L62.1445 146.962ZM60.0234 137.728L62.6484 147.056L63.0117 150.407H61.207L58.5703 141.431L57.9023 137.728H60.0234ZM72.5156 132.407V150.407H69.1289V132.407H72.5156ZM81.1406 150.642C80.1562 150.642 79.2734 150.485 78.4922 150.173C77.7109 149.853 77.0469 149.411 76.5 148.849C75.9609 148.286 75.5469 147.634 75.2578 146.892C74.9688 146.142 74.8242 145.345 74.8242 144.501V144.032C74.8242 143.071 74.9609 142.192 75.2344 141.395C75.5078 140.599 75.8984 139.907 76.4062 139.321C76.9219 138.735 77.5469 138.286 78.2812 137.974C79.0156 137.653 79.8438 137.493 80.7656 137.493C81.6641 137.493 82.4609 137.642 83.1562 137.938C83.8516 138.235 84.4336 138.657 84.9023 139.204C85.3789 139.751 85.7383 140.407 85.9805 141.173C86.2227 141.931 86.3438 142.774 86.3438 143.704V145.11H76.2656V142.86H83.0273V142.603C83.0273 142.134 82.9414 141.716 82.7695 141.349C82.6055 140.974 82.3555 140.677 82.0195 140.458C81.6836 140.239 81.2539 140.13 80.7305 140.13C80.2852 140.13 79.9023 140.228 79.582 140.423C79.2617 140.618 79 140.892 78.7969 141.243C78.6016 141.595 78.4531 142.009 78.3516 142.485C78.2578 142.954 78.2109 143.47 78.2109 144.032V144.501C78.2109 145.009 78.2812 145.478 78.4219 145.907C78.5703 146.337 78.7773 146.708 79.043 147.02C79.3164 147.333 79.6445 147.575 80.0273 147.747C80.418 147.919 80.8594 148.005 81.3516 148.005C81.9609 148.005 82.5273 147.888 83.0508 147.653C83.582 147.411 84.0391 147.048 84.4219 146.563L86.0625 148.345C85.7969 148.728 85.4336 149.095 84.9727 149.446C84.5195 149.798 83.9727 150.087 83.332 150.313C82.6914 150.532 81.9609 150.642 81.1406 150.642ZM95.7539 147.642V132.407H99.1523V150.407H96.0938L95.7539 147.642ZM87.7383 144.22V143.974C87.7383 143.005 87.8477 142.126 88.0664 141.337C88.2852 140.54 88.6055 139.856 89.0273 139.286C89.4492 138.716 89.9688 138.274 90.5859 137.962C91.2031 137.649 91.9062 137.493 92.6953 137.493C93.4375 137.493 94.0859 137.649 94.6406 137.962C95.2031 138.274 95.6797 138.72 96.0703 139.298C96.4688 139.868 96.7891 140.544 97.0312 141.325C97.2734 142.099 97.4492 142.946 97.5586 143.868V144.407C97.4492 145.29 97.2734 146.11 97.0312 146.868C96.7891 147.626 96.4688 148.29 96.0703 148.86C95.6797 149.423 95.2031 149.86 94.6406 150.173C94.0781 150.485 93.4219 150.642 92.6719 150.642C91.8828 150.642 91.1797 150.481 90.5625 150.161C89.9531 149.841 89.4375 149.392 89.0156 148.813C88.6016 148.235 88.2852 147.556 88.0664 146.774C87.8477 145.993 87.7383 145.142 87.7383 144.22ZM91.1133 143.974V144.22C91.1133 144.743 91.1523 145.231 91.2305 145.685C91.3164 146.138 91.4531 146.54 91.6406 146.892C91.8359 147.235 92.0859 147.505 92.3906 147.7C92.7031 147.888 93.082 147.981 93.5273 147.981C94.1055 147.981 94.582 147.853 94.957 147.595C95.332 147.329 95.6172 146.966 95.8125 146.505C96.0156 146.044 96.1328 145.513 96.1641 144.911V143.376C96.1406 142.884 96.0703 142.442 95.9531 142.052C95.8438 141.653 95.6797 141.313 95.4609 141.032C95.25 140.751 94.9844 140.532 94.6641 140.376C94.3516 140.22 93.9805 140.142 93.5508 140.142C93.1133 140.142 92.7383 140.243 92.4258 140.446C92.1133 140.642 91.8594 140.911 91.6641 141.255C91.4766 141.599 91.3359 142.005 91.2422 142.474C91.1562 142.935 91.1133 143.435 91.1133 143.974ZM109.816 137.728H112.875V149.985C112.875 151.142 112.617 152.122 112.102 152.927C111.594 153.739 110.883 154.353 109.969 154.767C109.055 155.188 107.992 155.399 106.781 155.399C106.25 155.399 105.688 155.329 105.094 155.188C104.508 155.048 103.945 154.829 103.406 154.532C102.875 154.235 102.43 153.86 102.07 153.407L103.559 151.415C103.949 151.868 104.402 152.22 104.918 152.47C105.434 152.728 106.004 152.856 106.629 152.856C107.238 152.856 107.754 152.743 108.176 152.517C108.598 152.298 108.922 151.974 109.148 151.544C109.375 151.122 109.488 150.61 109.488 150.009V140.657L109.816 137.728ZM101.285 144.22V143.974C101.285 143.005 101.402 142.126 101.637 141.337C101.879 140.54 102.219 139.856 102.656 139.286C103.102 138.716 103.641 138.274 104.273 137.962C104.906 137.649 105.621 137.493 106.418 137.493C107.262 137.493 107.969 137.649 108.539 137.962C109.109 138.274 109.578 138.72 109.945 139.298C110.312 139.868 110.598 140.544 110.801 141.325C111.012 142.099 111.176 142.946 111.293 143.868V144.407C111.176 145.29 111 146.11 110.766 146.868C110.531 147.626 110.223 148.29 109.84 148.86C109.457 149.423 108.98 149.86 108.41 150.173C107.848 150.485 107.176 150.642 106.395 150.642C105.613 150.642 104.906 150.481 104.273 150.161C103.648 149.841 103.113 149.392 102.668 148.813C102.223 148.235 101.879 147.556 101.637 146.774C101.402 145.993 101.285 145.142 101.285 144.22ZM104.66 143.974V144.22C104.66 144.743 104.711 145.231 104.812 145.685C104.914 146.138 105.07 146.54 105.281 146.892C105.5 147.235 105.77 147.505 106.09 147.7C106.418 147.888 106.805 147.981 107.25 147.981C107.867 147.981 108.371 147.853 108.762 147.595C109.152 147.329 109.445 146.966 109.641 146.505C109.836 146.044 109.949 145.513 109.98 144.911V143.376C109.965 142.884 109.898 142.442 109.781 142.052C109.664 141.653 109.5 141.313 109.289 141.032C109.078 140.751 108.805 140.532 108.469 140.376C108.133 140.22 107.734 140.142 107.273 140.142C106.828 140.142 106.441 140.243 106.113 140.446C105.793 140.642 105.523 140.911 105.305 141.255C105.094 141.599 104.934 142.005 104.824 142.474C104.715 142.935 104.66 143.435 104.66 143.974ZM121.336 150.642C120.352 150.642 119.469 150.485 118.688 150.173C117.906 149.853 117.242 149.411 116.695 148.849C116.156 148.286 115.742 147.634 115.453 146.892C115.164 146.142 115.02 145.345 115.02 144.501V144.032C115.02 143.071 115.156 142.192 115.43 141.395C115.703 140.599 116.094 139.907 116.602 139.321C117.117 138.735 117.742 138.286 118.477 137.974C119.211 137.653 120.039 137.493 120.961 137.493C121.859 137.493 122.656 137.642 123.352 137.938C124.047 138.235 124.629 138.657 125.098 139.204C125.574 139.751 125.934 140.407 126.176 141.173C126.418 141.931 126.539 142.774 126.539 143.704V145.11H116.461V142.86H123.223V142.603C123.223 142.134 123.137 141.716 122.965 141.349C122.801 140.974 122.551 140.677 122.215 140.458C121.879 140.239 121.449 140.13 120.926 140.13C120.48 140.13 120.098 140.228 119.777 140.423C119.457 140.618 119.195 140.892 118.992 141.243C118.797 141.595 118.648 142.009 118.547 142.485C118.453 142.954 118.406 143.47 118.406 144.032V144.501C118.406 145.009 118.477 145.478 118.617 145.907C118.766 146.337 118.973 146.708 119.238 147.02C119.512 147.333 119.84 147.575 120.223 147.747C120.613 147.919 121.055 148.005 121.547 148.005C122.156 148.005 122.723 147.888 123.246 147.653C123.777 147.411 124.234 147.048 124.617 146.563L126.258 148.345C125.992 148.728 125.629 149.095 125.168 149.446C124.715 149.798 124.168 150.087 123.527 150.313C122.887 150.532 122.156 150.642 121.336 150.642Z" fill="black"/>
<path d="M303.16 259.345V276.407H299.656V259.345H303.16ZM308.41 259.345V262.099H294.488V259.345H308.41ZM313.766 263.728V276.407H310.379V263.728H313.766ZM310.168 260.423C310.168 259.931 310.34 259.524 310.684 259.204C311.027 258.884 311.488 258.724 312.066 258.724C312.637 258.724 313.094 258.884 313.438 259.204C313.789 259.524 313.965 259.931 313.965 260.423C313.965 260.915 313.789 261.321 313.438 261.642C313.094 261.962 312.637 262.122 312.066 262.122C311.488 262.122 311.027 261.962 310.684 261.642C310.34 261.321 310.168 260.915 310.168 260.423ZM319.93 266.353V276.407H316.543V263.728H319.719L319.93 266.353ZM319.461 269.622H318.523C318.523 268.739 318.629 267.927 318.84 267.185C319.059 266.435 319.375 265.786 319.789 265.239C320.211 264.685 320.73 264.255 321.348 263.95C321.965 263.645 322.68 263.493 323.492 263.493C324.055 263.493 324.57 263.579 325.039 263.751C325.508 263.915 325.91 264.177 326.246 264.536C326.59 264.888 326.855 265.349 327.043 265.919C327.23 266.481 327.324 267.157 327.324 267.946V276.407H323.949V268.321C323.949 267.743 323.871 267.298 323.715 266.985C323.559 266.673 323.336 266.454 323.047 266.329C322.766 266.204 322.426 266.142 322.027 266.142C321.59 266.142 321.207 266.231 320.879 266.411C320.559 266.591 320.293 266.841 320.082 267.161C319.871 267.474 319.715 267.841 319.613 268.263C319.512 268.685 319.461 269.138 319.461 269.622ZM327.008 269.235L325.801 269.388C325.801 268.56 325.902 267.79 326.105 267.079C326.316 266.368 326.625 265.743 327.031 265.204C327.445 264.665 327.957 264.247 328.566 263.95C329.176 263.645 329.879 263.493 330.676 263.493C331.285 263.493 331.84 263.583 332.34 263.763C332.84 263.935 333.266 264.212 333.617 264.595C333.977 264.97 334.25 265.462 334.438 266.071C334.633 266.681 334.73 267.427 334.73 268.31V276.407H331.344V268.31C331.344 267.724 331.266 267.278 331.109 266.974C330.961 266.661 330.742 266.446 330.453 266.329C330.172 266.204 329.836 266.142 329.445 266.142C329.039 266.142 328.684 266.224 328.379 266.388C328.074 266.544 327.82 266.763 327.617 267.044C327.414 267.325 327.262 267.653 327.16 268.028C327.059 268.395 327.008 268.798 327.008 269.235ZM343.18 276.642C342.195 276.642 341.312 276.485 340.531 276.173C339.75 275.853 339.086 275.411 338.539 274.849C338 274.286 337.586 273.634 337.297 272.892C337.008 272.142 336.863 271.345 336.863 270.501V270.032C336.863 269.071 337 268.192 337.273 267.395C337.547 266.599 337.938 265.907 338.445 265.321C338.961 264.735 339.586 264.286 340.32 263.974C341.055 263.653 341.883 263.493 342.805 263.493C343.703 263.493 344.5 263.642 345.195 263.938C345.891 264.235 346.473 264.657 346.941 265.204C347.418 265.751 347.777 266.407 348.02 267.173C348.262 267.931 348.383 268.774 348.383 269.704V271.11H338.305V268.86H345.066V268.603C345.066 268.134 344.98 267.716 344.809 267.349C344.645 266.974 344.395 266.677 344.059 266.458C343.723 266.239 343.293 266.13 342.77 266.13C342.324 266.13 341.941 266.228 341.621 266.423C341.301 266.618 341.039 266.892 340.836 267.243C340.641 267.595 340.492 268.009 340.391 268.485C340.297 268.954 340.25 269.47 340.25 270.032V270.501C340.25 271.009 340.32 271.478 340.461 271.907C340.609 272.337 340.816 272.708 341.082 273.02C341.355 273.333 341.684 273.575 342.066 273.747C342.457 273.919 342.898 274.005 343.391 274.005C344 274.005 344.566 273.888 345.09 273.653C345.621 273.411 346.078 273.048 346.461 272.563L348.102 274.345C347.836 274.728 347.473 275.095 347.012 275.446C346.559 275.798 346.012 276.087 345.371 276.313C344.73 276.532 344 276.642 343.18 276.642Z" fill="black"/>
</svg>
