<svg width="600" height="300" viewBox="0 0 600 300" fill="none" xmlns="http://www.w3.org/2000/svg">
<rect width="600" height="300" fill="white"/>
<rect x="255.5" y="104.5" width="89" height="89" rx="3.5" fill="white" stroke="black"/>
<path d="M280.77 149.781V154.791H279.082V141.994H283.802C285.202 141.994 286.298 142.352 287.089 143.067C287.886 143.781 288.284 144.728 288.284 145.905C288.284 147.148 287.895 148.106 287.115 148.779C286.342 149.447 285.231 149.781 283.784 149.781H280.77ZM280.77 148.402H283.802C284.704 148.402 285.396 148.191 285.876 147.769C286.356 147.341 286.597 146.726 286.597 145.923C286.597 145.161 286.356 144.552 285.876 144.095C285.396 143.638 284.736 143.401 283.898 143.383H280.77V148.402ZM294.779 146.74C294.533 146.699 294.267 146.679 293.979 146.679C292.913 146.679 292.189 147.133 291.809 148.041V154.791H290.183V145.281H291.765L291.791 146.38C292.324 145.53 293.08 145.106 294.059 145.106C294.375 145.106 294.615 145.147 294.779 145.229V146.74ZM295.676 149.948C295.676 149.017 295.857 148.179 296.221 147.435C296.59 146.691 297.1 146.116 297.75 145.712C298.406 145.308 299.153 145.106 299.991 145.106C301.286 145.106 302.332 145.554 303.129 146.45C303.932 147.347 304.333 148.539 304.333 150.028V150.142C304.333 151.068 304.154 151.9 303.797 152.638C303.445 153.37 302.938 153.942 302.276 154.352C301.62 154.762 300.864 154.967 300.009 154.967C298.72 154.967 297.674 154.519 296.871 153.622C296.074 152.726 295.676 151.539 295.676 150.063V149.948ZM297.311 150.142C297.311 151.196 297.554 152.043 298.04 152.682C298.532 153.32 299.188 153.64 300.009 153.64C300.835 153.64 301.491 153.318 301.978 152.673C302.464 152.023 302.707 151.114 302.707 149.948C302.707 148.905 302.458 148.062 301.96 147.417C301.468 146.767 300.812 146.442 299.991 146.442C299.188 146.442 298.541 146.761 298.049 147.4C297.557 148.038 297.311 148.952 297.311 150.142ZM309.369 148.753L311.479 145.281H313.377L310.266 149.984L313.474 154.791H311.593L309.396 151.232L307.198 154.791H305.309L308.517 149.984L305.405 145.281H307.286L309.369 148.753ZM318.22 152.409L320.435 145.281H322.175L318.352 156.259C317.76 157.841 316.819 158.632 315.53 158.632L315.223 158.606L314.616 158.491V157.173L315.056 157.208C315.606 157.208 316.034 157.097 316.339 156.874C316.649 156.652 316.904 156.244 317.104 155.653L317.464 154.686L314.071 145.281H315.847L318.22 152.409Z" fill="black"/>
<rect x="112.5" y="105.5" width="89" height="89" rx="3.5" fill="white" stroke="black"/>
<path d="M144.977 151.731C144.818 153.084 144.317 154.13 143.474 154.868C142.636 155.601 141.52 155.967 140.125 155.967C138.613 155.967 137.4 155.425 136.486 154.341C135.578 153.257 135.124 151.807 135.124 149.99V148.76C135.124 147.57 135.335 146.525 135.757 145.622C136.185 144.72 136.788 144.029 137.567 143.548C138.347 143.062 139.249 142.819 140.274 142.819C141.634 142.819 142.724 143.199 143.544 143.961C144.364 144.717 144.842 145.766 144.977 147.108H143.28C143.134 146.088 142.814 145.35 142.322 144.893C141.836 144.436 141.153 144.207 140.274 144.207C139.196 144.207 138.35 144.606 137.734 145.403C137.125 146.199 136.82 147.333 136.82 148.804V150.043C136.82 151.432 137.11 152.536 137.69 153.357C138.271 154.177 139.082 154.587 140.125 154.587C141.062 154.587 141.78 154.376 142.278 153.954C142.782 153.527 143.116 152.785 143.28 151.731H144.977ZM148.8 155.791H147.174V142.291H148.8V155.791ZM153.177 155.791H151.551V146.281H153.177V155.791ZM151.419 143.759C151.419 143.495 151.498 143.273 151.656 143.091C151.82 142.909 152.061 142.819 152.377 142.819C152.693 142.819 152.934 142.909 153.098 143.091C153.262 143.273 153.344 143.495 153.344 143.759C153.344 144.023 153.262 144.242 153.098 144.418C152.934 144.594 152.693 144.682 152.377 144.682C152.061 144.682 151.82 144.594 151.656 144.418C151.498 144.242 151.419 144.023 151.419 143.759ZM159.733 155.967C158.444 155.967 157.396 155.545 156.587 154.701C155.778 153.852 155.374 152.718 155.374 151.3V151.001C155.374 150.058 155.553 149.217 155.91 148.479C156.273 147.735 156.777 147.154 157.422 146.738C158.072 146.317 158.775 146.106 159.531 146.106C160.768 146.106 161.729 146.513 162.414 147.327C163.1 148.142 163.442 149.308 163.442 150.825V151.502H157C157.023 152.44 157.296 153.198 157.817 153.779C158.345 154.353 159.013 154.64 159.821 154.64C160.396 154.64 160.882 154.523 161.28 154.288C161.679 154.054 162.027 153.743 162.326 153.357L163.319 154.13C162.522 155.355 161.327 155.967 159.733 155.967ZM159.531 147.442C158.875 147.442 158.324 147.682 157.879 148.162C157.434 148.637 157.158 149.305 157.053 150.166H161.816V150.043C161.77 149.217 161.547 148.578 161.148 148.127C160.75 147.67 160.211 147.442 159.531 147.442ZM166.87 146.281L166.923 147.477C167.649 146.563 168.599 146.106 169.771 146.106C171.78 146.106 172.794 147.239 172.812 149.507V155.791H171.186V149.498C171.18 148.813 171.021 148.306 170.711 147.978C170.406 147.65 169.929 147.486 169.278 147.486C168.751 147.486 168.288 147.626 167.89 147.907C167.491 148.189 167.181 148.558 166.958 149.015V155.791H165.332V146.281H166.87ZM177.47 143.979V146.281H179.245V147.538H177.47V153.436C177.47 153.817 177.549 154.104 177.707 154.297C177.865 154.485 178.135 154.578 178.516 154.578C178.703 154.578 178.961 154.543 179.289 154.473V155.791C178.861 155.908 178.445 155.967 178.041 155.967C177.314 155.967 176.767 155.747 176.397 155.308C176.028 154.868 175.844 154.244 175.844 153.436V147.538H174.112V146.281H175.844V143.979H177.47Z" fill="black"/>
<rect x="398.5" y="40.5" width="89" height="89" rx="3.5" fill="white" stroke="black"/>
<path d="M423.409 84.8058C423.409 86.0598 423.198 87.1555 422.776 88.093C422.354 89.0246 421.757 89.7365 420.983 90.2287C420.21 90.7209 419.308 90.967 418.276 90.967C417.269 90.967 416.375 90.7209 415.596 90.2287C414.816 89.7307 414.21 89.0246 413.776 88.1105C413.349 87.1906 413.129 86.1271 413.117 84.9201V83.9973C413.117 82.7668 413.331 81.6799 413.759 80.7365C414.187 79.7932 414.79 79.0724 415.569 78.5744C416.354 78.0705 417.251 77.8185 418.259 77.8185C419.284 77.8185 420.187 78.0676 420.966 78.5656C421.751 79.0578 422.354 79.7756 422.776 80.7189C423.198 81.6564 423.409 82.7492 423.409 83.9973V84.8058ZM421.73 83.9797C421.73 82.4621 421.426 81.299 420.816 80.4904C420.207 79.676 419.354 79.2687 418.259 79.2687C417.192 79.2687 416.352 79.676 415.736 80.4904C415.127 81.299 414.813 82.424 414.796 83.8654V84.8058C414.796 86.2766 415.104 87.4338 415.719 88.2775C416.34 89.1154 417.192 89.5344 418.276 89.5344C419.366 89.5344 420.21 89.1389 420.808 88.3478C421.405 87.551 421.713 86.4113 421.73 84.9289V83.9797ZM430.282 82.7404C430.036 82.6994 429.77 82.6789 429.482 82.6789C428.416 82.6789 427.692 83.133 427.312 84.0412V90.7912H425.686V81.2814H427.268L427.294 82.3801C427.827 81.5305 428.583 81.1057 429.562 81.1057C429.878 81.1057 430.118 81.1467 430.282 81.2287V82.7404ZM433.552 90.7912H431.926V81.2814H433.552V90.7912ZM431.794 78.759C431.794 78.4953 431.873 78.2726 432.031 78.091C432.195 77.9094 432.436 77.8185 432.752 77.8185C433.068 77.8185 433.309 77.9094 433.473 78.091C433.637 78.2726 433.719 78.4953 433.719 78.759C433.719 79.0226 433.637 79.2424 433.473 79.4182C433.309 79.5939 433.068 79.6818 432.752 79.6818C432.436 79.6818 432.195 79.5939 432.031 79.4182C431.873 79.2424 431.794 79.0226 431.794 78.759ZM435.775 85.9572C435.775 84.4748 436.118 83.2971 436.804 82.424C437.489 81.5451 438.397 81.1057 439.528 81.1057C440.688 81.1057 441.594 81.5158 442.244 82.3361L442.323 81.2814H443.809V90.5627C443.809 91.7932 443.442 92.7629 442.71 93.4719C441.983 94.1808 441.005 94.5353 439.774 94.5353C439.089 94.5353 438.418 94.3889 437.762 94.0959C437.105 93.8029 436.604 93.4016 436.259 92.8918L437.103 91.9162C437.8 92.7775 438.652 93.2082 439.66 93.2082C440.451 93.2082 441.066 92.9855 441.506 92.5402C441.951 92.0949 442.174 91.468 442.174 90.6594V89.842C441.523 90.592 440.636 90.967 439.511 90.967C438.397 90.967 437.495 90.5187 436.804 89.6223C436.118 88.7258 435.775 87.5041 435.775 85.9572ZM437.41 86.1418C437.41 87.2141 437.63 88.0578 438.069 88.673C438.509 89.2824 439.124 89.5871 439.915 89.5871C440.94 89.5871 441.693 89.1213 442.174 88.1896V83.8478C441.676 82.9396 440.929 82.4855 439.933 82.4855C439.142 82.4855 438.523 82.7932 438.078 83.4084C437.633 84.0236 437.41 84.9348 437.41 86.1418ZM448.036 90.7912H446.41V81.2814H448.036V90.7912ZM446.278 78.759C446.278 78.4953 446.357 78.2726 446.516 78.091C446.68 77.9094 446.92 77.8185 447.236 77.8185C447.553 77.8185 447.793 77.9094 447.957 78.091C448.121 78.2726 448.203 78.4953 448.203 78.759C448.203 79.0226 448.121 79.2424 447.957 79.4182C447.793 79.5939 447.553 79.6818 447.236 79.6818C446.92 79.6818 446.68 79.5939 446.516 79.4182C446.357 79.2424 446.278 79.0226 446.278 78.759ZM452.185 81.2814L452.237 82.4767C452.964 81.5627 453.913 81.1057 455.085 81.1057C457.095 81.1057 458.108 82.2394 458.126 84.507V90.7912H456.5V84.4982C456.494 83.8127 456.336 83.3058 456.025 82.9777C455.721 82.6496 455.243 82.4855 454.593 82.4855C454.065 82.4855 453.603 82.6262 453.204 82.9074C452.806 83.1887 452.495 83.5578 452.272 84.0148V90.7912H450.646V81.2814H452.185ZM470.22 90.7912H468.585V79.9543L465.307 81.1584V79.6818L469.965 77.9328H470.22V90.7912Z" fill="black"/>
<rect x="398.5" y="170.5" width="89" height="89" rx="3.5" fill="white" stroke="black"/>
<path d="M423.409 214.806C423.409 216.06 423.198 217.155 422.776 218.093C422.354 219.025 421.757 219.737 420.983 220.229C420.21 220.721 419.308 220.967 418.276 220.967C417.269 220.967 416.375 220.721 415.596 220.229C414.816 219.731 414.21 219.025 413.776 218.111C413.349 217.191 413.129 216.127 413.117 214.92V213.997C413.117 212.767 413.331 211.68 413.759 210.737C414.187 209.793 414.79 209.072 415.569 208.574C416.354 208.07 417.251 207.819 418.259 207.819C419.284 207.819 420.187 208.068 420.966 208.566C421.751 209.058 422.354 209.776 422.776 210.719C423.198 211.656 423.409 212.749 423.409 213.997V214.806ZM421.73 213.98C421.73 212.462 421.426 211.299 420.816 210.49C420.207 209.676 419.354 209.269 418.259 209.269C417.192 209.269 416.352 209.676 415.736 210.49C415.127 211.299 414.813 212.424 414.796 213.865V214.806C414.796 216.277 415.104 217.434 415.719 218.278C416.34 219.115 417.192 219.534 418.276 219.534C419.366 219.534 420.21 219.139 420.808 218.348C421.405 217.551 421.713 216.411 421.73 214.929V213.98ZM430.282 212.74C430.036 212.699 429.77 212.679 429.482 212.679C428.416 212.679 427.692 213.133 427.312 214.041V220.791H425.686V211.281H427.268L427.294 212.38C427.827 211.53 428.583 211.106 429.562 211.106C429.878 211.106 430.118 211.147 430.282 211.229V212.74ZM433.552 220.791H431.926V211.281H433.552V220.791ZM431.794 208.759C431.794 208.495 431.873 208.273 432.031 208.091C432.195 207.909 432.436 207.819 432.752 207.819C433.068 207.819 433.309 207.909 433.473 208.091C433.637 208.273 433.719 208.495 433.719 208.759C433.719 209.023 433.637 209.242 433.473 209.418C433.309 209.594 433.068 209.682 432.752 209.682C432.436 209.682 432.195 209.594 432.031 209.418C431.873 209.242 431.794 209.023 431.794 208.759ZM435.775 215.957C435.775 214.475 436.118 213.297 436.804 212.424C437.489 211.545 438.397 211.106 439.528 211.106C440.688 211.106 441.594 211.516 442.244 212.336L442.323 211.281H443.809V220.563C443.809 221.793 443.442 222.763 442.71 223.472C441.983 224.181 441.005 224.535 439.774 224.535C439.089 224.535 438.418 224.389 437.762 224.096C437.105 223.803 436.604 223.402 436.259 222.892L437.103 221.916C437.8 222.778 438.652 223.208 439.66 223.208C440.451 223.208 441.066 222.986 441.506 222.54C441.951 222.095 442.174 221.468 442.174 220.659V219.842C441.523 220.592 440.636 220.967 439.511 220.967C438.397 220.967 437.495 220.519 436.804 219.622C436.118 218.726 435.775 217.504 435.775 215.957ZM437.41 216.142C437.41 217.214 437.63 218.058 438.069 218.673C438.509 219.282 439.124 219.587 439.915 219.587C440.94 219.587 441.693 219.121 442.174 218.19V213.848C441.676 212.94 440.929 212.486 439.933 212.486C439.142 212.486 438.523 212.793 438.078 213.408C437.633 214.024 437.41 214.935 437.41 216.142ZM448.036 220.791H446.41V211.281H448.036V220.791ZM446.278 208.759C446.278 208.495 446.357 208.273 446.516 208.091C446.68 207.909 446.92 207.819 447.236 207.819C447.553 207.819 447.793 207.909 447.957 208.091C448.121 208.273 448.203 208.495 448.203 208.759C448.203 209.023 448.121 209.242 447.957 209.418C447.793 209.594 447.553 209.682 447.236 209.682C446.92 209.682 446.68 209.594 446.516 209.418C446.357 209.242 446.278 209.023 446.278 208.759ZM452.185 211.281L452.237 212.477C452.964 211.563 453.913 211.106 455.085 211.106C457.095 211.106 458.108 212.239 458.126 214.507V220.791H456.5V214.498C456.494 213.813 456.336 213.306 456.025 212.978C455.721 212.65 455.243 212.486 454.593 212.486C454.065 212.486 453.603 212.626 453.204 212.907C452.806 213.189 452.495 213.558 452.272 214.015V220.791H450.646V211.281H452.185ZM473.261 220.791H464.876V219.622L469.306 214.7C469.962 213.956 470.413 213.353 470.659 212.89C470.911 212.421 471.037 211.938 471.037 211.44C471.037 210.772 470.835 210.224 470.431 209.796C470.026 209.368 469.487 209.154 468.813 209.154C468.005 209.154 467.375 209.386 466.924 209.849C466.479 210.306 466.256 210.945 466.256 211.765H464.63C464.63 210.587 465.008 209.635 465.764 208.908C466.525 208.182 467.542 207.819 468.813 207.819C470.003 207.819 470.943 208.132 471.635 208.759C472.326 209.38 472.672 210.209 472.672 211.246C472.672 212.506 471.869 214.006 470.264 215.746L466.836 219.464H473.261V220.791Z" fill="black"/>
<path d="M254.707 150.707C255.098 150.317 255.098 149.683 254.707 149.293L248.343 142.929C247.953 142.538 247.319 142.538 246.929 142.929C246.538 143.319 246.538 143.953 246.929 144.343L252.586 150L246.929 155.657C246.538 156.047 246.538 156.681 246.929 157.071C247.319 157.462 247.953 157.462 248.343 157.071L254.707 150.707ZM202 151H254V149H202V151Z" fill="black"/>
<path d="M398.995 84.8988C398.939 84.3494 398.448 83.9493 397.899 84.0051L388.945 84.9157C388.396 84.9716 387.995 85.4623 388.051 86.0117C388.107 86.5612 388.598 86.9613 389.147 86.9054L397.106 86.096L397.916 94.055C397.972 94.6044 398.462 95.0046 399.012 94.9487C399.561 94.8928 399.961 94.4021 399.905 93.8526L398.995 84.8988ZM345.775 150.632L398.775 85.6319L397.225 84.3681L344.225 149.368L345.775 150.632Z" fill="black"/>
<path d="M397.899 215.995C398.448 216.051 398.939 215.651 398.995 215.101L399.905 206.147C399.961 205.598 399.561 205.107 399.012 205.051C398.462 204.995 397.972 205.396 397.916 205.945L397.106 213.904L389.147 213.095C388.598 213.039 388.107 213.439 388.051 213.988C387.995 214.538 388.396 215.028 388.945 215.084L397.899 215.995ZM344.225 150.632L397.225 215.632L398.775 214.368L345.775 149.368L344.225 150.632Z" fill="black"/>
</svg>
