<svg width="600" height="300" viewBox="0 0 600 300" fill="none" xmlns="http://www.w3.org/2000/svg">
<rect width="600" height="300" fill="white"/>
<circle cx="223" cy="149" r="139" fill="white" stroke="black" stroke-width="2"/>
<circle cx="377" cy="149" r="139" stroke="black" stroke-width="2"/>
<rect x="255.5" y="104.5" width="89" height="89" rx="3.5" fill="white" stroke="black"/>
<path d="M282.94 137.781V142.791H281.253V129.994H285.973C287.373 129.994 288.469 130.352 289.26 131.067C290.057 131.781 290.455 132.728 290.455 133.905C290.455 135.148 290.065 136.106 289.286 136.779C288.513 137.447 287.402 137.781 285.955 137.781H282.94ZM282.94 136.402H285.973C286.875 136.402 287.566 136.191 288.047 135.769C288.527 135.341 288.768 134.726 288.768 133.923C288.768 133.161 288.527 132.552 288.047 132.095C287.566 131.638 286.907 131.401 286.069 131.383H282.94V136.402ZM294.12 142.791H292.494V133.281H294.12V142.791ZM292.362 130.759C292.362 130.495 292.441 130.273 292.6 130.091C292.764 129.909 293.004 129.819 293.32 129.819C293.637 129.819 293.877 129.909 294.041 130.091C294.205 130.273 294.287 130.495 294.287 130.759C294.287 131.023 294.205 131.242 294.041 131.418C293.877 131.594 293.637 131.682 293.32 131.682C293.004 131.682 292.764 131.594 292.6 131.418C292.441 131.242 292.362 131.023 292.362 130.759ZM299.868 140.585L302.224 133.281H303.885L300.475 142.791H299.235L295.79 133.281H297.451L299.868 140.585ZM304.878 137.948C304.878 137.017 305.06 136.179 305.423 135.435C305.792 134.691 306.302 134.116 306.952 133.712C307.608 133.308 308.355 133.106 309.193 133.106C310.488 133.106 311.534 133.554 312.331 134.45C313.134 135.347 313.535 136.539 313.535 138.028V138.142C313.535 139.068 313.356 139.9 312.999 140.638C312.647 141.37 312.141 141.942 311.479 142.352C310.822 142.762 310.066 142.967 309.211 142.967C307.922 142.967 306.876 142.519 306.073 141.622C305.276 140.726 304.878 139.539 304.878 138.063V137.948ZM306.513 138.142C306.513 139.196 306.756 140.043 307.242 140.682C307.734 141.32 308.391 141.64 309.211 141.64C310.037 141.64 310.693 141.318 311.18 140.673C311.666 140.023 311.909 139.114 311.909 137.948C311.909 136.905 311.66 136.062 311.162 135.417C310.67 134.767 310.014 134.442 309.193 134.442C308.391 134.442 307.743 134.761 307.251 135.4C306.759 136.038 306.513 136.952 306.513 138.142ZM317.78 130.979V133.281H319.556V134.538H317.78V140.436C317.78 140.817 317.859 141.104 318.018 141.297C318.176 141.485 318.445 141.578 318.826 141.578C319.014 141.578 319.271 141.543 319.6 141.473V142.791C319.172 142.908 318.756 142.967 318.352 142.967C317.625 142.967 317.077 142.747 316.708 142.308C316.339 141.868 316.154 141.244 316.154 140.436V134.538H314.423V133.281H316.154V130.979H317.78ZM280.77 158.781V163.791H279.082V150.994H283.802C285.202 150.994 286.298 151.352 287.089 152.067C287.886 152.781 288.284 153.728 288.284 154.905C288.284 156.148 287.895 157.106 287.115 157.779C286.342 158.447 285.231 158.781 283.784 158.781H280.77ZM280.77 157.402H283.802C284.704 157.402 285.396 157.191 285.876 156.769C286.356 156.341 286.597 155.726 286.597 154.923C286.597 154.161 286.356 153.552 285.876 153.095C285.396 152.638 284.736 152.401 283.898 152.383H280.77V157.402ZM294.779 155.74C294.533 155.699 294.267 155.679 293.979 155.679C292.913 155.679 292.189 156.133 291.809 157.041V163.791H290.183V154.281H291.765L291.791 155.38C292.324 154.53 293.08 154.106 294.059 154.106C294.375 154.106 294.615 154.147 294.779 154.229V155.74ZM295.676 158.948C295.676 158.017 295.857 157.179 296.221 156.435C296.59 155.691 297.1 155.116 297.75 154.712C298.406 154.308 299.153 154.106 299.991 154.106C301.286 154.106 302.332 154.554 303.129 155.45C303.932 156.347 304.333 157.539 304.333 159.028V159.142C304.333 160.068 304.154 160.9 303.797 161.638C303.445 162.37 302.938 162.942 302.276 163.352C301.62 163.762 300.864 163.967 300.009 163.967C298.72 163.967 297.674 163.519 296.871 162.622C296.074 161.726 295.676 160.539 295.676 159.063V158.948ZM297.311 159.142C297.311 160.196 297.554 161.043 298.04 161.682C298.532 162.32 299.188 162.64 300.009 162.64C300.835 162.64 301.491 162.318 301.978 161.673C302.464 161.023 302.707 160.114 302.707 158.948C302.707 157.905 302.458 157.062 301.96 156.417C301.468 155.767 300.812 155.442 299.991 155.442C299.188 155.442 298.541 155.761 298.049 156.4C297.557 157.038 297.311 157.952 297.311 159.142ZM309.369 157.753L311.479 154.281H313.377L310.266 158.984L313.474 163.791H311.593L309.396 160.232L307.198 163.791H305.309L308.517 158.984L305.405 154.281H307.286L309.369 157.753ZM318.22 161.409L320.435 154.281H322.175L318.352 165.259C317.76 166.841 316.819 167.632 315.53 167.632L315.223 167.606L314.616 167.491V166.173L315.056 166.208C315.606 166.208 316.034 166.097 316.339 165.874C316.649 165.652 316.904 165.244 317.104 164.653L317.464 163.686L314.071 154.281H315.847L318.22 161.409Z" fill="black"/>
<rect x="115.5" y="105.5" width="89" height="89" rx="3.5" fill="white" stroke="black"/>
<path d="M147.977 150.731C147.818 152.084 147.317 153.13 146.474 153.868C145.636 154.601 144.52 154.967 143.125 154.967C141.613 154.967 140.4 154.425 139.486 153.341C138.578 152.257 138.124 150.807 138.124 148.99V147.76C138.124 146.57 138.335 145.525 138.757 144.622C139.185 143.72 139.788 143.029 140.567 142.548C141.347 142.062 142.249 141.819 143.274 141.819C144.634 141.819 145.724 142.199 146.544 142.961C147.364 143.717 147.842 144.766 147.977 146.108H146.28C146.134 145.088 145.814 144.35 145.322 143.893C144.836 143.436 144.153 143.207 143.274 143.207C142.196 143.207 141.35 143.606 140.734 144.403C140.125 145.199 139.82 146.333 139.82 147.804V149.043C139.82 150.432 140.11 151.536 140.69 152.357C141.271 153.177 142.082 153.587 143.125 153.587C144.062 153.587 144.78 153.376 145.278 152.954C145.782 152.527 146.116 151.785 146.28 150.731H147.977ZM151.8 154.791H150.174V141.291H151.8V154.791ZM156.177 154.791H154.551V145.281H156.177V154.791ZM154.419 142.759C154.419 142.495 154.498 142.273 154.656 142.091C154.82 141.909 155.061 141.819 155.377 141.819C155.693 141.819 155.934 141.909 156.098 142.091C156.262 142.273 156.344 142.495 156.344 142.759C156.344 143.023 156.262 143.242 156.098 143.418C155.934 143.594 155.693 143.682 155.377 143.682C155.061 143.682 154.82 143.594 154.656 143.418C154.498 143.242 154.419 143.023 154.419 142.759ZM162.733 154.967C161.444 154.967 160.396 154.545 159.587 153.701C158.778 152.852 158.374 151.718 158.374 150.3V150.001C158.374 149.058 158.553 148.217 158.91 147.479C159.273 146.735 159.777 146.154 160.422 145.738C161.072 145.317 161.775 145.106 162.531 145.106C163.768 145.106 164.729 145.513 165.414 146.327C166.1 147.142 166.442 148.308 166.442 149.825V150.502H160C160.023 151.44 160.296 152.198 160.817 152.779C161.345 153.353 162.013 153.64 162.821 153.64C163.396 153.64 163.882 153.523 164.28 153.288C164.679 153.054 165.027 152.743 165.326 152.357L166.319 153.13C165.522 154.355 164.327 154.967 162.733 154.967ZM162.531 146.442C161.875 146.442 161.324 146.682 160.879 147.162C160.434 147.637 160.158 148.305 160.053 149.166H164.816V149.043C164.77 148.217 164.547 147.578 164.148 147.127C163.75 146.67 163.211 146.442 162.531 146.442ZM169.87 145.281L169.923 146.477C170.649 145.563 171.599 145.106 172.771 145.106C174.78 145.106 175.794 146.239 175.812 148.507V154.791H174.186V148.498C174.18 147.813 174.021 147.306 173.711 146.978C173.406 146.65 172.929 146.486 172.278 146.486C171.751 146.486 171.288 146.626 170.89 146.907C170.491 147.189 170.181 147.558 169.958 148.015V154.791H168.332V145.281H169.87ZM180.47 142.979V145.281H182.245V146.538H180.47V152.436C180.47 152.817 180.549 153.104 180.707 153.297C180.865 153.485 181.135 153.578 181.516 153.578C181.703 153.578 181.961 153.543 182.289 153.473V154.791C181.861 154.908 181.445 154.967 181.041 154.967C180.314 154.967 179.767 154.747 179.397 154.308C179.028 153.868 178.844 153.244 178.844 152.436V146.538H177.112V145.281H178.844V142.979H180.47Z" fill="black"/>
<rect x="398.5" y="104.5" width="89" height="89" rx="3.5" fill="white" stroke="black"/>
<path d="M427.83 142.383H423.717V153.791H422.038V142.383H417.934V140.994H427.83V142.383ZM434.343 153.791C434.249 153.604 434.173 153.27 434.114 152.789C433.358 153.574 432.456 153.967 431.407 153.967C430.47 153.967 429.699 153.703 429.096 153.176C428.498 152.643 428.199 151.969 428.199 151.154C428.199 150.164 428.574 149.397 429.324 148.852C430.08 148.301 431.141 148.026 432.506 148.026H434.088V147.279C434.088 146.71 433.918 146.259 433.578 145.925C433.238 145.585 432.737 145.415 432.075 145.415C431.495 145.415 431.009 145.562 430.616 145.855C430.224 146.148 430.027 146.502 430.027 146.918H428.393C428.393 146.444 428.56 145.987 428.894 145.547C429.233 145.102 429.69 144.75 430.265 144.492C430.845 144.235 431.48 144.106 432.172 144.106C433.268 144.106 434.126 144.381 434.747 144.932C435.368 145.477 435.69 146.23 435.714 147.191V151.568C435.714 152.441 435.825 153.135 436.048 153.651V153.791H434.343ZM431.645 152.552C432.154 152.552 432.638 152.42 433.095 152.156C433.552 151.893 433.883 151.55 434.088 151.128V149.177H432.813C430.821 149.177 429.825 149.76 429.825 150.926C429.825 151.436 429.995 151.834 430.335 152.121C430.675 152.408 431.111 152.552 431.645 152.552ZM442.859 145.74C442.613 145.699 442.347 145.679 442.06 145.679C440.993 145.679 440.27 146.133 439.889 147.041V153.791H438.263V144.281H439.845L439.871 145.38C440.404 144.53 441.16 144.106 442.139 144.106C442.455 144.106 442.695 144.147 442.859 144.229V145.74ZM443.8 148.957C443.8 147.475 444.143 146.297 444.828 145.424C445.514 144.545 446.422 144.106 447.553 144.106C448.713 144.106 449.618 144.516 450.269 145.336L450.348 144.281H451.833V153.563C451.833 154.793 451.467 155.763 450.734 156.472C450.008 157.181 449.029 157.535 447.799 157.535C447.113 157.535 446.442 157.389 445.786 157.096C445.13 156.803 444.629 156.402 444.283 155.892L445.127 154.916C445.824 155.778 446.677 156.208 447.685 156.208C448.476 156.208 449.091 155.986 449.53 155.54C449.976 155.095 450.198 154.468 450.198 153.659V152.842C449.548 153.592 448.66 153.967 447.535 153.967C446.422 153.967 445.52 153.519 444.828 152.622C444.143 151.726 443.8 150.504 443.8 148.957ZM445.435 149.142C445.435 150.214 445.654 151.058 446.094 151.673C446.533 152.282 447.148 152.587 447.939 152.587C448.965 152.587 449.718 152.121 450.198 151.19V146.848C449.7 145.94 448.953 145.486 447.957 145.486C447.166 145.486 446.548 145.793 446.103 146.408C445.657 147.024 445.435 147.935 445.435 149.142ZM458.24 153.967C456.951 153.967 455.902 153.545 455.094 152.701C454.285 151.852 453.881 150.718 453.881 149.3V149.001C453.881 148.058 454.06 147.217 454.417 146.479C454.78 145.735 455.284 145.154 455.929 144.738C456.579 144.317 457.282 144.106 458.038 144.106C459.274 144.106 460.235 144.513 460.921 145.327C461.606 146.142 461.949 147.308 461.949 148.825V149.502H455.507C455.53 150.44 455.803 151.198 456.324 151.779C456.852 152.353 457.52 152.64 458.328 152.64C458.902 152.64 459.389 152.523 459.787 152.288C460.186 152.054 460.534 151.743 460.833 151.357L461.826 152.13C461.029 153.355 459.834 153.967 458.24 153.967ZM458.038 145.442C457.382 145.442 456.831 145.682 456.386 146.162C455.94 146.637 455.665 147.305 455.56 148.166H460.323V148.043C460.276 147.217 460.054 146.578 459.655 146.127C459.257 145.67 458.718 145.442 458.038 145.442ZM466.045 141.979V144.281H467.82V145.538H466.045V151.436C466.045 151.817 466.124 152.104 466.282 152.297C466.44 152.485 466.71 152.578 467.091 152.578C467.278 152.578 467.536 152.543 467.864 152.473V153.791C467.437 153.908 467.021 153.967 466.616 153.967C465.89 153.967 465.342 153.747 464.973 153.308C464.604 152.868 464.419 152.244 464.419 151.436V145.538H462.688V144.281H464.419V141.979H466.045Z" fill="black"/>
<path d="M184.074 34.1885V40H181.356V24.3594H187.34C189.087 24.3594 190.473 24.8141 191.497 25.7236C192.528 26.6331 193.044 27.8363 193.044 29.333C193.044 30.8656 192.539 32.0579 191.529 32.9102C190.527 33.7624 189.119 34.1885 187.308 34.1885H184.074ZM184.074 32.0078H187.34C188.307 32.0078 189.044 31.7822 189.553 31.3311C190.061 30.8727 190.315 30.2139 190.315 29.3545C190.315 28.5094 190.058 27.8363 189.542 27.335C189.026 26.8265 188.317 26.5651 187.415 26.5508H184.074V32.0078ZM202.218 38.8613C201.451 39.7637 200.363 40.2148 198.952 40.2148C197.692 40.2148 196.736 39.846 196.084 39.1084C195.439 38.3708 195.117 37.3037 195.117 35.9072V28.377H197.728V35.875C197.728 37.3503 198.34 38.0879 199.564 38.0879C200.832 38.0879 201.688 37.6331 202.132 36.7236V28.377H204.742V40H202.282L202.218 38.8613ZM217.601 34.3066C217.601 36.1113 217.196 37.5472 216.387 38.6143C215.585 39.6813 214.478 40.2148 213.067 40.2148C211.707 40.2148 210.647 39.7243 209.888 38.7432L209.759 40H207.396V23.5H210.006V29.4941C210.758 28.6061 211.771 28.1621 213.046 28.1621C214.464 28.1621 215.577 28.6885 216.387 29.7412C217.196 30.7939 217.601 32.2656 217.601 34.1562V34.3066ZM214.99 34.0811C214.99 32.8206 214.768 31.8753 214.324 31.2451C213.88 30.6149 213.236 30.2998 212.391 30.2998C211.259 30.2998 210.464 30.7939 210.006 31.7822V36.5732C210.471 37.583 211.273 38.0879 212.412 38.0879C213.229 38.0879 213.859 37.7835 214.303 37.1748C214.747 36.5661 214.976 35.6458 214.99 34.4141V34.0811ZM222.574 40H219.964V23.5H222.574V40ZM228.203 40H225.593V28.377H228.203V40ZM225.432 25.3584C225.432 24.9574 225.557 24.6243 225.808 24.3594C226.065 24.0944 226.431 23.9619 226.903 23.9619C227.376 23.9619 227.741 24.0944 227.999 24.3594C228.257 24.6243 228.386 24.9574 228.386 25.3584C228.386 25.7523 228.257 26.0817 227.999 26.3467C227.741 26.6045 227.376 26.7334 226.903 26.7334C226.431 26.7334 226.065 26.6045 225.808 26.3467C225.557 26.0817 225.432 25.7523 225.432 25.3584ZM235.83 38.1309C236.482 38.1309 237.022 37.9411 237.452 37.5615C237.882 37.182 238.111 36.7129 238.14 36.1543H240.6C240.571 36.8776 240.345 37.5544 239.923 38.1846C239.5 38.8076 238.927 39.3018 238.204 39.667C237.481 40.0322 236.7 40.2148 235.862 40.2148C234.237 40.2148 232.948 39.6885 231.995 38.6357C231.043 37.583 230.566 36.1292 230.566 34.2744V34.0059C230.566 32.237 231.039 30.8226 231.984 29.7627C232.93 28.6956 234.219 28.1621 235.852 28.1621C237.234 28.1621 238.358 28.5667 239.225 29.376C240.098 30.1781 240.557 31.2344 240.6 32.5449H238.14C238.111 31.8789 237.882 31.3311 237.452 30.9014C237.03 30.4717 236.489 30.2568 235.83 30.2568C234.985 30.2568 234.333 30.5648 233.875 31.1807C233.417 31.7894 233.184 32.7168 233.177 33.9629V34.3818C233.177 35.6423 233.402 36.584 233.854 37.207C234.312 37.8229 234.971 38.1309 235.83 38.1309ZM183.064 66H180.347L173.375 54.9033V66H170.657V50.3594H173.375L180.368 61.499V50.3594H183.064V66ZM191.143 66.2148C189.488 66.2148 188.146 65.6956 187.114 64.6572C186.09 63.6117 185.578 62.2223 185.578 60.4893V60.167C185.578 59.0068 185.8 57.972 186.244 57.0625C186.695 56.1458 187.326 55.4333 188.135 54.9248C188.944 54.4163 189.846 54.1621 190.842 54.1621C192.424 54.1621 193.646 54.667 194.505 55.6768C195.371 56.6865 195.805 58.1152 195.805 59.9629V61.0156H188.21C188.289 61.9753 188.607 62.7344 189.166 63.293C189.732 63.8516 190.441 64.1309 191.293 64.1309C192.489 64.1309 193.463 63.6475 194.215 62.6807L195.622 64.0234C195.157 64.7181 194.534 65.2588 193.753 65.6455C192.979 66.0251 192.109 66.2148 191.143 66.2148ZM190.831 56.2568C190.115 56.2568 189.535 56.5075 189.091 57.0088C188.654 57.5101 188.375 58.2083 188.253 59.1035H193.227V58.9102C193.169 58.0365 192.937 57.3776 192.528 56.9336C192.12 56.4824 191.554 56.2568 190.831 56.2568ZM201.111 51.5518V54.377H203.163V56.3105H201.111V62.7988C201.111 63.2428 201.197 63.5651 201.369 63.7656C201.548 63.959 201.863 64.0557 202.314 64.0557C202.615 64.0557 202.92 64.0199 203.228 63.9482V65.9678C202.633 66.1325 202.06 66.2148 201.509 66.2148C199.504 66.2148 198.501 65.1084 198.501 62.8955V56.3105H196.589V54.377H198.501V51.5518H201.111ZM215.377 62.4014L217.225 54.377H219.771L216.602 66H214.453L211.961 58.0186L209.512 66H207.363L204.184 54.377H206.729L208.609 62.3154L210.994 54.377H212.96L215.377 62.4014ZM221.027 60.0811C221.027 58.9424 221.253 57.9183 221.704 57.0088C222.155 56.0921 222.789 55.3903 223.605 54.9033C224.422 54.4092 225.36 54.1621 226.42 54.1621C227.988 54.1621 229.259 54.667 230.233 55.6768C231.215 56.6865 231.744 58.0257 231.823 59.6943L231.834 60.3066C231.834 61.4525 231.612 62.4766 231.168 63.3789C230.731 64.2812 230.101 64.9795 229.277 65.4736C228.461 65.9678 227.516 66.2148 226.441 66.2148C224.801 66.2148 223.487 65.6706 222.499 64.582C221.518 63.4863 221.027 62.029 221.027 60.21V60.0811ZM223.638 60.3066C223.638 61.5026 223.885 62.4408 224.379 63.1211C224.873 63.7943 225.561 64.1309 226.441 64.1309C227.322 64.1309 228.006 63.7871 228.493 63.0996C228.987 62.4121 229.234 61.4059 229.234 60.0811C229.234 58.9066 228.98 57.9756 228.472 57.2881C227.97 56.6006 227.286 56.2568 226.42 56.2568C225.568 56.2568 224.891 56.597 224.39 57.2773C223.888 57.9505 223.638 58.9603 223.638 60.3066ZM240.127 56.7617C239.783 56.7044 239.429 56.6758 239.063 56.6758C237.868 56.6758 237.062 57.1341 236.646 58.0508V66H234.036V54.377H236.528L236.593 55.6768C237.223 54.667 238.097 54.1621 239.214 54.1621C239.586 54.1621 239.894 54.2122 240.138 54.3125L240.127 56.7617ZM245.552 61.0156L244.392 62.208V66H241.781V49.5H244.392V59.0176L245.208 57.9971L248.42 54.377H251.557L247.238 59.2217L252.019 66H249L245.552 61.0156Z" fill="black"/>
<path d="M365.207 34.1885V40H362.489V24.3594H368.473C370.22 24.3594 371.606 24.8141 372.63 25.7236C373.661 26.6331 374.177 27.8363 374.177 29.333C374.177 30.8656 373.672 32.0579 372.662 32.9102C371.66 33.7624 370.252 34.1885 368.44 34.1885H365.207ZM365.207 32.0078H368.473C369.439 32.0078 370.177 31.7822 370.686 31.3311C371.194 30.8727 371.448 30.2139 371.448 29.3545C371.448 28.5094 371.19 27.8363 370.675 27.335C370.159 26.8265 369.45 26.5651 368.548 26.5508H365.207V32.0078ZM382.395 30.7617C382.051 30.7044 381.696 30.6758 381.331 30.6758C380.135 30.6758 379.329 31.1341 378.914 32.0508V40H376.304V28.377H378.796L378.86 29.6768C379.491 28.667 380.364 28.1621 381.481 28.1621C381.854 28.1621 382.162 28.2122 382.405 28.3125L382.395 30.7617ZM386.82 40H384.21V28.377H386.82V40ZM384.049 25.3584C384.049 24.9574 384.174 24.6243 384.425 24.3594C384.683 24.0944 385.048 23.9619 385.521 23.9619C385.993 23.9619 386.358 24.0944 386.616 24.3594C386.874 24.6243 387.003 24.9574 387.003 25.3584C387.003 25.7523 386.874 26.0817 386.616 26.3467C386.358 26.6045 385.993 26.7334 385.521 26.7334C385.048 26.7334 384.683 26.6045 384.425 26.3467C384.174 26.0817 384.049 25.7523 384.049 25.3584ZM393.771 36.6914L396.23 28.377H398.927L394.898 40H392.632L388.571 28.377H391.278L393.771 36.6914ZM407.338 40C407.223 39.778 407.123 39.4163 407.037 38.915C406.206 39.7816 405.189 40.2148 403.986 40.2148C402.819 40.2148 401.867 39.8818 401.129 39.2158C400.391 38.5498 400.022 37.7262 400.022 36.7451C400.022 35.5062 400.481 34.5573 401.397 33.8984C402.321 33.2324 403.639 32.8994 405.351 32.8994H406.951V32.1367C406.951 31.5352 406.783 31.0553 406.446 30.6973C406.11 30.332 405.598 30.1494 404.91 30.1494C404.316 30.1494 403.829 30.2998 403.449 30.6006C403.07 30.8942 402.88 31.2702 402.88 31.7285H400.27C400.27 31.0911 400.481 30.4967 400.903 29.9453C401.326 29.3867 401.899 28.9499 402.622 28.6348C403.353 28.3197 404.165 28.1621 405.061 28.1621C406.421 28.1621 407.506 28.5059 408.315 29.1934C409.125 29.8737 409.54 30.8333 409.562 32.0723V37.3145C409.562 38.36 409.708 39.1943 410.002 39.8174V40H407.338ZM404.47 38.1201C404.985 38.1201 405.469 37.9948 405.92 37.7441C406.378 37.4935 406.722 37.1569 406.951 36.7344V34.543H405.544C404.577 34.543 403.85 34.7113 403.363 35.0479C402.876 35.3844 402.633 35.8607 402.633 36.4766C402.633 36.9779 402.798 37.3789 403.127 37.6797C403.464 37.9733 403.911 38.1201 404.47 38.1201ZM415.566 25.5518V28.377H417.618V30.3105H415.566V36.7988C415.566 37.2428 415.652 37.5651 415.824 37.7656C416.003 37.959 416.318 38.0557 416.77 38.0557C417.07 38.0557 417.375 38.0199 417.683 37.9482V39.9678C417.088 40.1325 416.515 40.2148 415.964 40.2148C413.959 40.2148 412.956 39.1084 412.956 36.8955V30.3105H411.044V28.377H412.956V25.5518H415.566ZM424.74 40.2148C423.086 40.2148 421.743 39.6956 420.712 38.6572C419.688 37.6117 419.176 36.2223 419.176 34.4893V34.167C419.176 33.0068 419.398 31.972 419.842 31.0625C420.293 30.1458 420.923 29.4333 421.732 28.9248C422.542 28.4163 423.444 28.1621 424.439 28.1621C426.022 28.1621 427.243 28.667 428.103 29.6768C428.969 30.6865 429.402 32.1152 429.402 33.9629V35.0156H421.808C421.886 35.9753 422.205 36.7344 422.764 37.293C423.329 37.8516 424.038 38.1309 424.891 38.1309C426.087 38.1309 427.061 37.6475 427.812 36.6807L429.22 38.0234C428.754 38.7181 428.131 39.2588 427.351 39.6455C426.577 40.0251 425.707 40.2148 424.74 40.2148ZM424.429 30.2568C423.713 30.2568 423.132 30.5075 422.688 31.0088C422.252 31.5101 421.972 32.2083 421.851 33.1035H426.824V32.9102C426.767 32.0365 426.534 31.3776 426.126 30.9336C425.718 30.4824 425.152 30.2568 424.429 30.2568ZM368.064 66H365.347L358.375 54.9033V66H355.657V50.3594H358.375L365.368 61.499V50.3594H368.064V66ZM376.143 66.2148C374.488 66.2148 373.146 65.6956 372.114 64.6572C371.09 63.6117 370.578 62.2223 370.578 60.4893V60.167C370.578 59.0068 370.8 57.972 371.244 57.0625C371.695 56.1458 372.326 55.4333 373.135 54.9248C373.944 54.4163 374.846 54.1621 375.842 54.1621C377.424 54.1621 378.646 54.667 379.505 55.6768C380.371 56.6865 380.805 58.1152 380.805 59.9629V61.0156H373.21C373.289 61.9753 373.607 62.7344 374.166 63.293C374.732 63.8516 375.441 64.1309 376.293 64.1309C377.489 64.1309 378.463 63.6475 379.215 62.6807L380.622 64.0234C380.157 64.7181 379.534 65.2588 378.753 65.6455C377.979 66.0251 377.109 66.2148 376.143 66.2148ZM375.831 56.2568C375.115 56.2568 374.535 56.5075 374.091 57.0088C373.654 57.5101 373.375 58.2083 373.253 59.1035H378.227V58.9102C378.169 58.0365 377.937 57.3776 377.528 56.9336C377.12 56.4824 376.554 56.2568 375.831 56.2568ZM386.111 51.5518V54.377H388.163V56.3105H386.111V62.7988C386.111 63.2428 386.197 63.5651 386.369 63.7656C386.548 63.959 386.863 64.0557 387.314 64.0557C387.615 64.0557 387.92 64.0199 388.228 63.9482V65.9678C387.633 66.1325 387.06 66.2148 386.509 66.2148C384.504 66.2148 383.501 65.1084 383.501 62.8955V56.3105H381.589V54.377H383.501V51.5518H386.111ZM400.377 62.4014L402.225 54.377H404.771L401.602 66H399.453L396.961 58.0186L394.512 66H392.363L389.184 54.377H391.729L393.609 62.3154L395.994 54.377H397.96L400.377 62.4014ZM406.027 60.0811C406.027 58.9424 406.253 57.9183 406.704 57.0088C407.155 56.0921 407.789 55.3903 408.605 54.9033C409.422 54.4092 410.36 54.1621 411.42 54.1621C412.988 54.1621 414.259 54.667 415.233 55.6768C416.215 56.6865 416.744 58.0257 416.823 59.6943L416.834 60.3066C416.834 61.4525 416.612 62.4766 416.168 63.3789C415.731 64.2812 415.101 64.9795 414.277 65.4736C413.461 65.9678 412.516 66.2148 411.441 66.2148C409.801 66.2148 408.487 65.6706 407.499 64.582C406.518 63.4863 406.027 62.029 406.027 60.21V60.0811ZM408.638 60.3066C408.638 61.5026 408.885 62.4408 409.379 63.1211C409.873 63.7943 410.561 64.1309 411.441 64.1309C412.322 64.1309 413.006 63.7871 413.493 63.0996C413.987 62.4121 414.234 61.4059 414.234 60.0811C414.234 58.9066 413.98 57.9756 413.472 57.2881C412.97 56.6006 412.286 56.2568 411.42 56.2568C410.568 56.2568 409.891 56.597 409.39 57.2773C408.888 57.9505 408.638 58.9603 408.638 60.3066ZM425.127 56.7617C424.783 56.7044 424.429 56.6758 424.063 56.6758C422.868 56.6758 422.062 57.1341 421.646 58.0508V66H419.036V54.377H421.528L421.593 55.6768C422.223 54.667 423.097 54.1621 424.214 54.1621C424.586 54.1621 424.894 54.2122 425.138 54.3125L425.127 56.7617ZM430.552 61.0156L429.392 62.208V66H426.781V49.5H429.392V59.0176L430.208 57.9971L433.42 54.377H436.557L432.238 59.2217L437.019 66H434L430.552 61.0156Z" fill="black"/>
<path d="M255.707 150.707C256.098 150.317 256.098 149.683 255.707 149.293L249.343 142.929C248.953 142.538 248.319 142.538 247.929 142.929C247.538 143.319 247.538 143.953 247.929 144.343L253.586 150L247.929 155.657C247.538 156.047 247.538 156.681 247.929 157.071C248.319 157.462 248.953 157.462 249.343 157.071L255.707 150.707ZM205 151H255V149H205V151Z" fill="black"/>
<path d="M397.707 150.707C398.098 150.317 398.098 149.683 397.707 149.293L391.343 142.929C390.953 142.538 390.319 142.538 389.929 142.929C389.538 143.319 389.538 143.953 389.929 144.343L395.586 150L389.929 155.657C389.538 156.047 389.538 156.681 389.929 157.071C390.319 157.462 390.953 157.462 391.343 157.071L397.707 150.707ZM345 151H397V149H345V151Z" fill="black"/>
</svg>
