<svg width="600" height="300" viewBox="0 0 600 300" fill="none" xmlns="http://www.w3.org/2000/svg">
<rect width="600" height="300" fill="white"/>
<rect x="255.5" y="104.5" width="89" height="89" rx="3.5" fill="white" stroke="black"/>
<path d="M280.77 149.781V154.791H279.082V141.994H283.802C285.202 141.994 286.298 142.352 287.089 143.067C287.886 143.781 288.284 144.728 288.284 145.905C288.284 147.148 287.895 148.106 287.115 148.779C286.342 149.447 285.231 149.781 283.784 149.781H280.77ZM280.77 148.402H283.802C284.704 148.402 285.396 148.191 285.876 147.769C286.356 147.341 286.597 146.726 286.597 145.923C286.597 145.161 286.356 144.552 285.876 144.095C285.396 143.638 284.736 143.401 283.898 143.383H280.77V148.402ZM294.779 146.74C294.533 146.699 294.267 146.679 293.979 146.679C292.913 146.679 292.189 147.133 291.809 148.041V154.791H290.183V145.281H291.765L291.791 146.38C292.324 145.53 293.08 145.106 294.059 145.106C294.375 145.106 294.615 145.147 294.779 145.229V146.74ZM295.676 149.948C295.676 149.017 295.857 148.179 296.221 147.435C296.59 146.691 297.1 146.116 297.75 145.712C298.406 145.308 299.153 145.106 299.991 145.106C301.286 145.106 302.332 145.554 303.129 146.45C303.932 147.347 304.333 148.539 304.333 150.028V150.142C304.333 151.068 304.154 151.9 303.797 152.638C303.445 153.37 302.938 153.942 302.276 154.352C301.62 154.762 300.864 154.967 300.009 154.967C298.72 154.967 297.674 154.519 296.871 153.622C296.074 152.726 295.676 151.539 295.676 150.063V149.948ZM297.311 150.142C297.311 151.196 297.554 152.043 298.04 152.682C298.532 153.321 299.188 153.64 300.009 153.64C300.835 153.64 301.491 153.318 301.978 152.673C302.464 152.023 302.707 151.114 302.707 149.948C302.707 148.905 302.458 148.062 301.96 147.417C301.468 146.767 300.812 146.442 299.991 146.442C299.188 146.442 298.541 146.761 298.049 147.4C297.557 148.038 297.311 148.952 297.311 150.142ZM309.369 148.753L311.479 145.281H313.377L310.266 149.984L313.474 154.791H311.593L309.396 151.232L307.198 154.791H305.309L308.517 149.984L305.405 145.281H307.286L309.369 148.753ZM318.22 152.409L320.435 145.281H322.175L318.352 156.259C317.76 157.841 316.819 158.632 315.53 158.632L315.223 158.606L314.616 158.491V157.173L315.056 157.208C315.606 157.208 316.034 157.097 316.339 156.874C316.649 156.652 316.904 156.244 317.104 155.653L317.464 154.686L314.071 145.281H315.847L318.22 152.409Z" fill="black"/>
<rect x="112.5" y="105.5" width="89" height="89" rx="3.5" fill="white" stroke="black"/>
<path d="M144.977 151.731C144.818 153.084 144.317 154.13 143.474 154.868C142.636 155.601 141.52 155.967 140.125 155.967C138.613 155.967 137.4 155.425 136.486 154.341C135.578 153.257 135.124 151.807 135.124 149.99V148.76C135.124 147.571 135.335 146.525 135.757 145.622C136.185 144.72 136.788 144.029 137.567 143.548C138.347 143.062 139.249 142.819 140.274 142.819C141.634 142.819 142.724 143.199 143.544 143.961C144.364 144.717 144.842 145.766 144.977 147.108H143.28C143.134 146.088 142.814 145.35 142.322 144.893C141.836 144.436 141.153 144.207 140.274 144.207C139.196 144.207 138.35 144.606 137.734 145.403C137.125 146.199 136.82 147.333 136.82 148.804V150.043C136.82 151.432 137.11 152.536 137.69 153.357C138.271 154.177 139.082 154.587 140.125 154.587C141.062 154.587 141.78 154.376 142.278 153.954C142.782 153.527 143.116 152.785 143.28 151.731H144.977ZM148.8 155.791H147.174V142.291H148.8V155.791ZM153.177 155.791H151.551V146.281H153.177V155.791ZM151.419 143.759C151.419 143.495 151.498 143.273 151.656 143.091C151.82 142.909 152.061 142.819 152.377 142.819C152.693 142.819 152.934 142.909 153.098 143.091C153.262 143.273 153.344 143.495 153.344 143.759C153.344 144.023 153.262 144.242 153.098 144.418C152.934 144.594 152.693 144.682 152.377 144.682C152.061 144.682 151.82 144.594 151.656 144.418C151.498 144.242 151.419 144.023 151.419 143.759ZM159.733 155.967C158.444 155.967 157.396 155.545 156.587 154.701C155.778 153.852 155.374 152.718 155.374 151.3V151.001C155.374 150.058 155.553 149.217 155.91 148.479C156.273 147.735 156.777 147.154 157.422 146.738C158.072 146.317 158.775 146.106 159.531 146.106C160.768 146.106 161.729 146.513 162.414 147.327C163.1 148.142 163.442 149.308 163.442 150.825V151.502H157C157.023 152.44 157.296 153.198 157.817 153.779C158.345 154.353 159.013 154.64 159.821 154.64C160.396 154.64 160.882 154.523 161.28 154.288C161.679 154.054 162.027 153.743 162.326 153.357L163.319 154.13C162.522 155.355 161.327 155.967 159.733 155.967ZM159.531 147.442C158.875 147.442 158.324 147.682 157.879 148.162C157.434 148.637 157.158 149.305 157.053 150.166H161.816V150.043C161.77 149.217 161.547 148.578 161.148 148.127C160.75 147.67 160.211 147.442 159.531 147.442ZM166.87 146.281L166.923 147.477C167.649 146.563 168.599 146.106 169.771 146.106C171.78 146.106 172.794 147.239 172.812 149.507V155.791H171.186V149.498C171.18 148.813 171.021 148.306 170.711 147.978C170.406 147.65 169.929 147.486 169.278 147.486C168.751 147.486 168.288 147.626 167.89 147.907C167.491 148.189 167.181 148.558 166.958 149.015V155.791H165.332V146.281H166.87ZM177.47 143.979V146.281H179.245V147.538H177.47V153.436C177.47 153.817 177.549 154.104 177.707 154.297C177.865 154.485 178.135 154.578 178.516 154.578C178.703 154.578 178.961 154.543 179.289 154.473V155.791C178.861 155.908 178.445 155.967 178.041 155.967C177.314 155.967 176.767 155.747 176.397 155.308C176.028 154.868 175.844 154.244 175.844 153.436V147.538H174.112V146.281H175.844V143.979H177.47Z" fill="black"/>
<rect x="398.5" y="104.5" width="89" height="89" rx="3.5" fill="white" stroke="black"/>
<path d="M430.695 148.806C430.695 150.06 430.484 151.155 430.062 152.093C429.641 153.025 429.043 153.737 428.27 154.229C427.496 154.721 426.594 154.967 425.562 154.967C424.555 154.967 423.661 154.721 422.882 154.229C422.103 153.731 421.496 153.025 421.062 152.111C420.635 151.191 420.415 150.127 420.403 148.92V147.997C420.403 146.767 420.617 145.68 421.045 144.737C421.473 143.793 422.076 143.072 422.855 142.574C423.641 142.071 424.537 141.819 425.545 141.819C426.57 141.819 427.473 142.068 428.252 142.566C429.037 143.058 429.641 143.776 430.062 144.719C430.484 145.656 430.695 146.749 430.695 147.997V148.806ZM429.017 147.98C429.017 146.462 428.712 145.299 428.103 144.49C427.493 143.676 426.641 143.269 425.545 143.269C424.479 143.269 423.638 143.676 423.022 144.49C422.413 145.299 422.1 146.424 422.082 147.865V148.806C422.082 150.277 422.39 151.434 423.005 152.278C423.626 153.115 424.479 153.534 425.562 153.534C426.652 153.534 427.496 153.139 428.094 152.348C428.691 151.551 428.999 150.411 429.017 148.929V147.98ZM437.568 146.74C437.322 146.699 437.056 146.679 436.769 146.679C435.702 146.679 434.979 147.133 434.598 148.041V154.791H432.972V145.281H434.554L434.58 146.38C435.113 145.53 435.869 145.106 436.848 145.106C437.164 145.106 437.404 145.147 437.568 145.229V146.74ZM440.838 154.791H439.212V145.281H440.838V154.791ZM439.08 142.759C439.08 142.495 439.159 142.273 439.317 142.091C439.481 141.909 439.722 141.819 440.038 141.819C440.354 141.819 440.595 141.909 440.759 142.091C440.923 142.273 441.005 142.495 441.005 142.759C441.005 143.023 440.923 143.242 440.759 143.418C440.595 143.594 440.354 143.682 440.038 143.682C439.722 143.682 439.481 143.594 439.317 143.418C439.159 143.242 439.08 143.023 439.08 142.759ZM443.062 149.957C443.062 148.475 443.404 147.297 444.09 146.424C444.775 145.545 445.684 145.106 446.814 145.106C447.975 145.106 448.88 145.516 449.53 146.336L449.609 145.281H451.095V154.563C451.095 155.793 450.729 156.763 449.996 157.472C449.27 158.181 448.291 158.535 447.061 158.535C446.375 158.535 445.704 158.389 445.048 158.096C444.392 157.803 443.891 157.402 443.545 156.892L444.389 155.916C445.086 156.778 445.938 157.208 446.946 157.208C447.737 157.208 448.353 156.986 448.792 156.54C449.237 156.095 449.46 155.468 449.46 154.659V153.842C448.81 154.592 447.922 154.967 446.797 154.967C445.684 154.967 444.781 154.519 444.09 153.622C443.404 152.726 443.062 151.504 443.062 149.957ZM444.696 150.142C444.696 151.214 444.916 152.058 445.355 152.673C445.795 153.282 446.41 153.587 447.201 153.587C448.227 153.587 448.979 153.121 449.46 152.19V147.848C448.962 146.94 448.215 146.486 447.219 146.486C446.428 146.486 445.81 146.793 445.364 147.408C444.919 148.024 444.696 148.935 444.696 150.142ZM455.322 154.791H453.696V145.281H455.322V154.791ZM453.564 142.759C453.564 142.495 453.644 142.273 453.802 142.091C453.966 141.909 454.206 141.819 454.522 141.819C454.839 141.819 455.079 141.909 455.243 142.091C455.407 142.273 455.489 142.495 455.489 142.759C455.489 143.023 455.407 143.242 455.243 143.418C455.079 143.594 454.839 143.682 454.522 143.682C454.206 143.682 453.966 143.594 453.802 143.418C453.644 143.242 453.564 143.023 453.564 142.759ZM459.471 145.281L459.523 146.477C460.25 145.563 461.199 145.106 462.371 145.106C464.381 145.106 465.395 146.239 465.412 148.507V154.791H463.786V148.498C463.78 147.813 463.622 147.306 463.312 146.978C463.007 146.65 462.529 146.486 461.879 146.486C461.352 146.486 460.889 146.626 460.49 146.907C460.092 147.189 459.781 147.558 459.559 148.015V154.791H457.933V145.281H459.471Z" fill="black"/>
<path d="M254.707 150.707C255.098 150.317 255.098 149.683 254.707 149.293L248.343 142.929C247.953 142.538 247.319 142.538 246.929 142.929C246.538 143.319 246.538 143.953 246.929 144.343L252.586 150L246.929 155.657C246.538 156.047 246.538 156.681 246.929 157.071C247.319 157.462 247.953 157.462 248.343 157.071L254.707 150.707ZM202 151H254V149H202V151Z" fill="black"/>
<path d="M397.707 150.707C398.098 150.317 398.098 149.683 397.707 149.293L391.343 142.929C390.953 142.538 390.319 142.538 389.929 142.929C389.538 143.319 389.538 143.953 389.929 144.343L395.586 150L389.929 155.657C389.538 156.047 389.538 156.681 389.929 157.071C390.319 157.462 390.953 157.462 391.343 157.071L397.707 150.707ZM345 151H397V149H345V151Z" fill="black"/>
</svg>
