<svg width="742" height="162" viewBox="0 0 742 162" fill="none" xmlns="http://www.w3.org/2000/svg">
<rect width="742" height="162" fill="white"/>
<rect x="204.5" y="50.5" width="121" height="61" rx="4.5" fill="white" stroke="black" stroke-linejoin="round"/>
<path d="M224.406 74H222.062V69.125H217.492V74H215.148V62.625H217.492V67.2344H222.062V62.625H224.406V74ZM231.211 74C231.107 73.7969 231.031 73.5443 230.984 73.2422C230.438 73.8516 229.727 74.1562 228.852 74.1562C228.023 74.1562 227.336 73.9167 226.789 73.4375C226.247 72.9583 225.977 72.3542 225.977 71.625C225.977 70.7292 226.307 70.0417 226.969 69.5625C227.635 69.0833 228.596 68.8411 229.852 68.8359H230.891V68.3516C230.891 67.9609 230.789 67.6484 230.586 67.4141C230.388 67.1797 230.073 67.0625 229.641 67.0625C229.26 67.0625 228.961 67.1536 228.742 67.3359C228.529 67.5182 228.422 67.7682 228.422 68.0859H226.164C226.164 67.5964 226.315 67.1432 226.617 66.7266C226.919 66.3099 227.346 65.9844 227.898 65.75C228.451 65.5104 229.07 65.3906 229.758 65.3906C230.799 65.3906 231.625 65.6536 232.234 66.1797C232.849 66.7005 233.156 67.4349 233.156 68.3828V72.0469C233.161 72.849 233.273 73.4557 233.492 73.8672V74H231.211ZM229.344 72.4297C229.677 72.4297 229.984 72.3568 230.266 72.2109C230.547 72.0599 230.755 71.8594 230.891 71.6094V70.1562H230.047C228.917 70.1562 228.315 70.5469 228.242 71.3281L228.234 71.4609C228.234 71.7422 228.333 71.974 228.531 72.1562C228.729 72.3385 229 72.4297 229.344 72.4297ZM239.469 71.6641C239.469 71.388 239.331 71.1719 239.055 71.0156C238.784 70.8542 238.346 70.7109 237.742 70.5859C235.732 70.1641 234.727 69.3099 234.727 68.0234C234.727 67.2734 235.036 66.6484 235.656 66.1484C236.281 65.6432 237.096 65.3906 238.102 65.3906C239.174 65.3906 240.031 65.6432 240.672 66.1484C241.318 66.6536 241.641 67.3099 241.641 68.1172H239.383C239.383 67.7943 239.279 67.5286 239.07 67.3203C238.862 67.1068 238.536 67 238.094 67C237.714 67 237.419 67.0859 237.211 67.2578C237.003 67.4297 236.898 67.6484 236.898 67.9141C236.898 68.1641 237.016 68.3672 237.25 68.5234C237.49 68.6745 237.891 68.8073 238.453 68.9219C239.016 69.0312 239.49 69.1562 239.875 69.2969C241.068 69.7344 241.664 70.4922 241.664 71.5703C241.664 72.3411 241.333 72.9661 240.672 73.4453C240.01 73.9193 239.156 74.1562 238.109 74.1562C237.401 74.1562 236.771 74.0312 236.219 73.7812C235.672 73.526 235.242 73.1797 234.93 72.7422C234.617 72.2995 234.461 71.8229 234.461 71.3125H236.602C236.622 71.7135 236.771 72.0208 237.047 72.2344C237.323 72.4479 237.693 72.5547 238.156 72.5547C238.589 72.5547 238.914 72.474 239.133 72.3125C239.357 72.1458 239.469 71.9297 239.469 71.6641ZM245.328 66.4688C245.927 65.75 246.68 65.3906 247.586 65.3906C249.419 65.3906 250.349 66.4557 250.375 68.5859V74H248.117V68.6484C248.117 68.1641 248.013 67.8073 247.805 67.5781C247.596 67.3438 247.25 67.2266 246.766 67.2266C246.104 67.2266 245.625 67.4818 245.328 67.9922V74H243.07V62H245.328V66.4688ZM256.68 74V67.2031H255.422V65.5469H256.68V64.8281C256.68 63.8802 256.951 63.1458 257.492 62.625C258.039 62.099 258.802 61.8359 259.781 61.8359C260.094 61.8359 260.477 61.888 260.93 61.9922L260.906 63.7422C260.719 63.6953 260.49 63.6719 260.219 63.6719C259.37 63.6719 258.945 64.0703 258.945 64.8672V65.5469H260.625V67.2031H258.945V74H256.68ZM266.859 73.1406C266.302 73.8177 265.531 74.1562 264.547 74.1562C263.641 74.1562 262.948 73.8958 262.469 73.375C261.995 72.8542 261.753 72.0911 261.742 71.0859V65.5469H264V71.0078C264 71.888 264.401 72.3281 265.203 72.3281C265.969 72.3281 266.495 72.0625 266.781 71.5312V65.5469H269.047V74H266.922L266.859 73.1406ZM272.828 65.5469L272.898 66.5234C273.503 65.7682 274.312 65.3906 275.328 65.3906C276.224 65.3906 276.891 65.6536 277.328 66.1797C277.766 66.7057 277.99 67.4922 278 68.5391V74H275.742V68.5938C275.742 68.1146 275.638 67.7682 275.43 67.5547C275.221 67.3359 274.875 67.2266 274.391 67.2266C273.755 67.2266 273.279 67.4974 272.961 68.0391V74H270.703V65.5469H272.828ZM283.234 72.3359C283.651 72.3359 283.99 72.2214 284.25 71.9922C284.51 71.763 284.646 71.4583 284.656 71.0781H286.773C286.768 71.651 286.612 72.1771 286.305 72.6562C285.997 73.1302 285.576 73.5 285.039 73.7656C284.508 74.026 283.919 74.1562 283.273 74.1562C282.065 74.1562 281.112 73.7734 280.414 73.0078C279.716 72.237 279.367 71.1745 279.367 69.8203V69.6719C279.367 68.3698 279.714 67.3307 280.406 66.5547C281.099 65.7786 282.049 65.3906 283.258 65.3906C284.315 65.3906 285.161 65.6927 285.797 66.2969C286.438 66.8958 286.763 67.6953 286.773 68.6953H284.656C284.646 68.2578 284.51 67.9036 284.25 67.6328C283.99 67.3568 283.646 67.2188 283.219 67.2188C282.693 67.2188 282.294 67.4115 282.023 67.7969C281.758 68.1771 281.625 68.7969 281.625 69.6562V69.8906C281.625 70.7604 281.758 71.3854 282.023 71.7656C282.289 72.1458 282.693 72.3359 283.234 72.3359ZM290.766 63.4688V65.5469H292.211V67.2031H290.766V71.4219C290.766 71.7344 290.826 71.9583 290.945 72.0938C291.065 72.2292 291.294 72.2969 291.633 72.2969C291.883 72.2969 292.104 72.2786 292.297 72.2422V73.9531C291.854 74.0885 291.398 74.1562 290.93 74.1562C289.346 74.1562 288.539 73.3568 288.508 71.7578V67.2031H287.273V65.5469H288.508V63.4688H290.766ZM295.852 74H293.586V65.5469H295.852V74ZM293.453 63.3594C293.453 63.0208 293.565 62.7422 293.789 62.5234C294.018 62.3047 294.328 62.1953 294.719 62.1953C295.104 62.1953 295.411 62.3047 295.641 62.5234C295.87 62.7422 295.984 63.0208 295.984 63.3594C295.984 63.7031 295.867 63.9844 295.633 64.2031C295.404 64.4219 295.099 64.5312 294.719 64.5312C294.339 64.5312 294.031 64.4219 293.797 64.2031C293.568 63.9844 293.453 63.7031 293.453 63.3594ZM297.367 69.6953C297.367 68.8568 297.529 68.1094 297.852 67.4531C298.174 66.7969 298.638 66.2891 299.242 65.9297C299.852 65.5703 300.557 65.3906 301.359 65.3906C302.5 65.3906 303.43 65.7396 304.148 66.4375C304.872 67.1354 305.276 68.0833 305.359 69.2812L305.375 69.8594C305.375 71.1562 305.013 72.1979 304.289 72.9844C303.565 73.7656 302.594 74.1562 301.375 74.1562C300.156 74.1562 299.182 73.7656 298.453 72.9844C297.729 72.2031 297.367 71.1406 297.367 69.7969V69.6953ZM299.625 69.8594C299.625 70.6615 299.776 71.276 300.078 71.7031C300.38 72.125 300.812 72.3359 301.375 72.3359C301.922 72.3359 302.349 72.1276 302.656 71.7109C302.964 71.2891 303.117 70.6172 303.117 69.6953C303.117 68.9089 302.964 68.2995 302.656 67.8672C302.349 67.4349 301.917 67.2188 301.359 67.2188C300.807 67.2188 300.38 67.4349 300.078 67.8672C299.776 68.2943 299.625 68.9583 299.625 69.8594ZM308.844 65.5469L308.914 66.5234C309.518 65.7682 310.328 65.3906 311.344 65.3906C312.24 65.3906 312.906 65.6536 313.344 66.1797C313.781 66.7057 314.005 67.4922 314.016 68.5391V74H311.758V68.5938C311.758 68.1146 311.654 67.7682 311.445 67.5547C311.237 67.3359 310.891 67.2266 310.406 67.2266C309.771 67.2266 309.294 67.4974 308.977 68.0391V74H306.719V65.5469H308.844Z" fill="black"/>
<path d="M248.948 93.5635C247.823 93.2399 247.002 92.8434 246.487 92.374C245.977 91.9001 245.722 91.3167 245.722 90.624C245.722 89.8402 246.034 89.193 246.658 88.6826C247.287 88.1676 248.103 87.9102 249.105 87.9102C249.789 87.9102 250.397 88.0423 250.931 88.3066C251.468 88.571 251.883 88.9355 252.175 89.4004C252.471 89.8652 252.619 90.3734 252.619 90.9248H251.3C251.3 90.3232 251.108 89.8516 250.726 89.5098C250.343 89.1634 249.803 88.9902 249.105 88.9902C248.458 88.9902 247.952 89.1338 247.588 89.4209C247.228 89.7035 247.048 90.0977 247.048 90.6035C247.048 91.0091 247.219 91.3532 247.561 91.6357C247.907 91.9137 248.493 92.1689 249.317 92.4014C250.147 92.6338 250.794 92.8913 251.259 93.1738C251.728 93.4518 252.075 93.7777 252.298 94.1514C252.526 94.5251 252.64 94.9648 252.64 95.4707C252.64 96.2773 252.325 96.9245 251.696 97.4121C251.067 97.8952 250.227 98.1367 249.174 98.1367C248.49 98.1367 247.852 98.0068 247.26 97.7471C246.667 97.4827 246.209 97.1227 245.886 96.667C245.567 96.2113 245.407 95.694 245.407 95.1152H246.727C246.727 95.7168 246.948 96.193 247.39 96.5439C247.836 96.8903 248.431 97.0635 249.174 97.0635C249.867 97.0635 250.397 96.9222 250.767 96.6396C251.136 96.3571 251.32 95.972 251.32 95.4844C251.32 94.9967 251.149 94.6208 250.808 94.3564C250.466 94.0876 249.846 93.8232 248.948 93.5635ZM261.978 98H260.658V93.3994H255.641V98H254.328V88.0469H255.641V92.3262H260.658V88.0469H261.978V98ZM269.928 95.4023H265.758L264.821 98H263.468L267.269 88.0469H268.417L272.225 98H270.878L269.928 95.4023ZM266.154 94.3223H269.538L267.843 89.667L266.154 94.3223ZM275.998 94.2881H272.662V93.2559H275.998V94.2881ZM281.262 98H279.99V89.5713L277.44 90.5078V89.3594L281.063 87.999H281.262V98Z" fill="black"/>
<path d="M533.027 75H530.683V70.125H526.113V75H523.769V63.625H526.113V68.2344H530.683V63.625H533.027V75ZM539.831 75C539.727 74.7969 539.652 74.5443 539.605 74.2422C539.058 74.8516 538.347 75.1562 537.472 75.1562C536.644 75.1562 535.956 74.9167 535.409 74.4375C534.868 73.9583 534.597 73.3542 534.597 72.625C534.597 71.7292 534.928 71.0417 535.589 70.5625C536.256 70.0833 537.217 69.8411 538.472 69.8359H539.511V69.3516C539.511 68.9609 539.409 68.6484 539.206 68.4141C539.008 68.1797 538.693 68.0625 538.261 68.0625C537.881 68.0625 537.581 68.1536 537.363 68.3359C537.149 68.5182 537.042 68.7682 537.042 69.0859H534.784C534.784 68.5964 534.935 68.1432 535.238 67.7266C535.54 67.3099 535.967 66.9844 536.519 66.75C537.071 66.5104 537.691 66.3906 538.378 66.3906C539.42 66.3906 540.245 66.6536 540.855 67.1797C541.469 67.7005 541.777 68.4349 541.777 69.3828V73.0469C541.782 73.849 541.894 74.4557 542.113 74.8672V75H539.831ZM537.964 73.4297C538.297 73.4297 538.605 73.3568 538.886 73.2109C539.167 73.0599 539.376 72.8594 539.511 72.6094V71.1562H538.667C537.537 71.1562 536.935 71.5469 536.863 72.3281L536.855 72.4609C536.855 72.7422 536.954 72.974 537.152 73.1562C537.35 73.3385 537.62 73.4297 537.964 73.4297ZM548.089 72.6641C548.089 72.388 547.951 72.1719 547.675 72.0156C547.404 71.8542 546.967 71.7109 546.363 71.5859C544.352 71.1641 543.347 70.3099 543.347 69.0234C543.347 68.2734 543.657 67.6484 544.277 67.1484C544.902 66.6432 545.717 66.3906 546.722 66.3906C547.795 66.3906 548.652 66.6432 549.292 67.1484C549.938 67.6536 550.261 68.3099 550.261 69.1172H548.003C548.003 68.7943 547.899 68.5286 547.691 68.3203C547.482 68.1068 547.157 68 546.714 68C546.334 68 546.04 68.0859 545.831 68.2578C545.623 68.4297 545.519 68.6484 545.519 68.9141C545.519 69.1641 545.636 69.3672 545.87 69.5234C546.11 69.6745 546.511 69.8073 547.073 69.9219C547.636 70.0312 548.11 70.1562 548.495 70.2969C549.688 70.7344 550.284 71.4922 550.284 72.5703C550.284 73.3411 549.954 73.9661 549.292 74.4453C548.631 74.9193 547.777 75.1562 546.73 75.1562C546.021 75.1562 545.391 75.0312 544.839 74.7812C544.292 74.526 543.863 74.1797 543.55 73.7422C543.238 73.2995 543.081 72.8229 543.081 72.3125H545.222C545.243 72.7135 545.391 73.0208 545.667 73.2344C545.943 73.4479 546.313 73.5547 546.777 73.5547C547.209 73.5547 547.534 73.474 547.753 73.3125C547.977 73.1458 548.089 72.9297 548.089 72.6641ZM553.948 67.4688C554.547 66.75 555.3 66.3906 556.206 66.3906C558.04 66.3906 558.969 67.4557 558.995 69.5859V75H556.738V69.6484C556.738 69.1641 556.633 68.8073 556.425 68.5781C556.217 68.3438 555.87 68.2266 555.386 68.2266C554.725 68.2266 554.245 68.4818 553.948 68.9922V75H551.691V63H553.948V67.4688Z" fill="black"/>
<path d="M393.959 98.1045C394.41 98.1045 394.804 97.9678 395.142 97.6943C395.479 97.4209 395.666 97.0791 395.702 96.6689H396.898C396.876 97.0928 396.73 97.4961 396.461 97.8789C396.192 98.2617 395.832 98.5671 395.381 98.7949C394.934 99.0228 394.46 99.1367 393.959 99.1367C392.952 99.1367 392.15 98.8018 391.553 98.1318C390.96 97.4574 390.664 96.5368 390.664 95.3701V95.1582C390.664 94.4382 390.796 93.7979 391.061 93.2373C391.325 92.6768 391.703 92.2415 392.195 91.9316C392.692 91.6217 393.278 91.4668 393.952 91.4668C394.782 91.4668 395.47 91.7152 396.017 92.2119C396.568 92.7087 396.862 93.3535 396.898 94.1465H395.702C395.666 93.668 395.483 93.276 395.155 92.9707C394.832 92.6608 394.431 92.5059 393.952 92.5059C393.31 92.5059 392.811 92.7383 392.455 93.2031C392.104 93.6634 391.929 94.3311 391.929 95.2061V95.4453C391.929 96.2975 392.104 96.9538 392.455 97.4141C392.806 97.8743 393.307 98.1045 393.959 98.1045ZM404.227 91.6445C404.227 92.1413 404.094 92.5833 403.83 92.9707C403.57 93.3581 403.217 93.6611 402.771 93.8799C403.29 94.1032 403.7 94.429 404.001 94.8574C404.306 95.2858 404.459 95.7712 404.459 96.3135C404.459 97.1748 404.167 97.8607 403.584 98.3711C403.005 98.8815 402.242 99.1367 401.294 99.1367C400.337 99.1367 399.569 98.8815 398.99 98.3711C398.416 97.8561 398.129 97.1702 398.129 96.3135C398.129 95.7757 398.275 95.2904 398.566 94.8574C398.863 94.4245 399.271 94.0964 399.79 93.873C399.348 93.6543 398.999 93.3512 398.744 92.9639C398.489 92.5765 398.361 92.1367 398.361 91.6445C398.361 90.806 398.63 90.1406 399.168 89.6484C399.706 89.1562 400.414 88.9102 401.294 88.9102C402.169 88.9102 402.875 89.1562 403.413 89.6484C403.955 90.1406 404.227 90.806 404.227 91.6445ZM403.194 96.2861C403.194 95.7301 403.017 95.2767 402.661 94.9258C402.31 94.5749 401.85 94.3994 401.28 94.3994C400.711 94.3994 400.253 94.5726 399.906 94.9189C399.564 95.2653 399.394 95.721 399.394 96.2861C399.394 96.8512 399.56 97.2956 399.893 97.6191C400.23 97.9427 400.697 98.1045 401.294 98.1045C401.886 98.1045 402.351 97.9427 402.688 97.6191C403.026 97.291 403.194 96.8467 403.194 96.2861ZM401.294 89.9492C400.797 89.9492 400.394 90.1042 400.084 90.4141C399.779 90.7194 399.626 91.1364 399.626 91.665C399.626 92.1709 399.776 92.5811 400.077 92.8955C400.382 93.2054 400.788 93.3604 401.294 93.3604C401.8 93.3604 402.203 93.2054 402.504 92.8955C402.809 92.5811 402.962 92.1709 402.962 91.665C402.962 91.1592 402.805 90.7467 402.49 90.4277C402.176 90.1087 401.777 89.9492 401.294 89.9492ZM406.804 99V92.5811H405.635V91.6035H406.804V90.8447C406.804 90.0518 407.016 89.4388 407.439 89.0059C407.863 88.5729 408.463 88.3564 409.237 88.3564C409.529 88.3564 409.818 88.3952 410.105 88.4727L410.037 89.498C409.823 89.457 409.595 89.4365 409.354 89.4365C408.943 89.4365 408.627 89.5573 408.403 89.7988C408.18 90.0358 408.068 90.3776 408.068 90.8242V91.6035H409.647V92.5811H408.068V99H406.804ZM413.954 99.1367C412.951 99.1367 412.136 98.8086 411.507 98.1523C410.878 97.4915 410.563 96.6097 410.563 95.5068V95.2744C410.563 94.5407 410.702 93.8867 410.98 93.3125C411.263 92.7337 411.655 92.2826 412.156 91.959C412.662 91.6309 413.209 91.4668 413.797 91.4668C414.758 91.4668 415.506 91.7835 416.039 92.417C416.572 93.0505 416.839 93.9574 416.839 95.1377V95.6641H411.828C411.846 96.3932 412.058 96.9834 412.464 97.4346C412.874 97.8812 413.394 98.1045 414.022 98.1045C414.469 98.1045 414.847 98.0133 415.157 97.8311C415.467 97.6488 415.738 97.4072 415.971 97.1064L416.743 97.708C416.123 98.6605 415.194 99.1367 413.954 99.1367ZM413.797 92.5059C413.286 92.5059 412.858 92.6927 412.512 93.0664C412.165 93.4355 411.951 93.9551 411.869 94.625H415.574V94.5293C415.538 93.8867 415.365 93.39 415.055 93.0391C414.745 92.6836 414.326 92.5059 413.797 92.5059ZM418.001 95.2402C418.001 94.1055 418.27 93.194 418.808 92.5059C419.345 91.8132 420.049 91.4668 420.92 91.4668C421.786 91.4668 422.472 91.763 422.978 92.3555V88.5H424.242V99H423.08L423.019 98.207C422.513 98.8268 421.809 99.1367 420.906 99.1367C420.049 99.1367 419.35 98.7858 418.808 98.084C418.27 97.3822 418.001 96.4661 418.001 95.3359V95.2402ZM419.266 95.3838C419.266 96.2223 419.439 96.8786 419.785 97.3525C420.132 97.8265 420.61 98.0635 421.221 98.0635C422.023 98.0635 422.608 97.7035 422.978 96.9834V93.5859C422.599 92.8887 422.018 92.54 421.234 92.54C420.615 92.54 420.132 92.7793 419.785 93.2578C419.439 93.7363 419.266 94.445 419.266 95.3838ZM432.322 94.7549C432.322 96.236 432.069 97.3366 431.563 98.0566C431.058 98.7767 430.267 99.1367 429.191 99.1367C428.13 99.1367 427.343 98.7858 426.833 98.084C426.323 97.3776 426.058 96.3249 426.04 94.9258V93.2373C426.04 91.7744 426.293 90.6875 426.799 89.9766C427.305 89.2656 428.098 88.9102 429.178 88.9102C430.249 88.9102 431.037 89.2542 431.543 89.9424C432.049 90.626 432.309 91.6833 432.322 93.1143V94.7549ZM431.058 93.0254C431.058 91.9544 430.907 91.1751 430.606 90.6875C430.306 90.1953 429.829 89.9492 429.178 89.9492C428.531 89.9492 428.059 90.193 427.763 90.6807C427.466 91.1683 427.314 91.918 427.305 92.9297V94.9531C427.305 96.0286 427.46 96.8239 427.77 97.3389C428.084 97.8493 428.558 98.1045 429.191 98.1045C429.816 98.1045 430.278 97.863 430.579 97.3799C430.884 96.8968 431.044 96.1357 431.058 95.0967V93.0254ZM440.184 94.7549C440.184 96.236 439.931 97.3366 439.425 98.0566C438.919 98.7767 438.128 99.1367 437.053 99.1367C435.991 99.1367 435.205 98.7858 434.694 98.084C434.184 97.3776 433.92 96.3249 433.901 94.9258V93.2373C433.901 91.7744 434.154 90.6875 434.66 89.9766C435.166 89.2656 435.959 88.9102 437.039 88.9102C438.11 88.9102 438.898 89.2542 439.404 89.9424C439.91 90.626 440.17 91.6833 440.184 93.1143V94.7549ZM438.919 93.0254C438.919 91.9544 438.769 91.1751 438.468 90.6875C438.167 90.1953 437.691 89.9492 437.039 89.9492C436.392 89.9492 435.92 90.193 435.624 90.6807C435.328 91.1683 435.175 91.918 435.166 92.9297V94.9531C435.166 96.0286 435.321 96.8239 435.631 97.3389C435.945 97.8493 436.419 98.1045 437.053 98.1045C437.677 98.1045 438.14 97.863 438.44 97.3799C438.746 96.8968 438.905 96.1357 438.919 95.0967V93.0254ZM445.003 99.1367C444 99.1367 443.185 98.8086 442.556 98.1523C441.927 97.4915 441.612 96.6097 441.612 95.5068V95.2744C441.612 94.5407 441.751 93.8867 442.029 93.3125C442.312 92.7337 442.704 92.2826 443.205 91.959C443.711 91.6309 444.258 91.4668 444.846 91.4668C445.807 91.4668 446.555 91.7835 447.088 92.417C447.621 93.0505 447.888 93.9574 447.888 95.1377V95.6641H442.877C442.895 96.3932 443.107 96.9834 443.513 97.4346C443.923 97.8812 444.442 98.1045 445.071 98.1045C445.518 98.1045 445.896 98.0133 446.206 97.8311C446.516 97.6488 446.787 97.4072 447.02 97.1064L447.792 97.708C447.172 98.6605 446.243 99.1367 445.003 99.1367ZM444.846 92.5059C444.335 92.5059 443.907 92.6927 443.561 93.0664C443.214 93.4355 443 93.9551 442.918 94.625H446.623V94.5293C446.587 93.8867 446.413 93.39 446.104 93.0391C445.794 92.6836 445.374 92.5059 444.846 92.5059ZM455.619 95.3838C455.619 96.514 455.359 97.4232 454.84 98.1113C454.32 98.7949 453.623 99.1367 452.748 99.1367C451.814 99.1367 451.091 98.8063 450.581 98.1455L450.52 99H449.357V88.5H450.622V92.417C451.132 91.7835 451.837 91.4668 452.734 91.4668C453.632 91.4668 454.336 91.8063 454.847 92.4854C455.362 93.1644 455.619 94.0941 455.619 95.2744V95.3838ZM454.354 95.2402C454.354 94.3789 454.188 93.7135 453.855 93.2441C453.523 92.7747 453.044 92.54 452.42 92.54C451.586 92.54 450.987 92.9274 450.622 93.7021V96.9014C451.009 97.6761 451.613 98.0635 452.434 98.0635C453.04 98.0635 453.511 97.8288 453.849 97.3594C454.186 96.89 454.354 96.1836 454.354 95.2402ZM463.61 99H457.089V98.0908L460.534 94.2627C461.045 93.6839 461.396 93.2145 461.587 92.8545C461.783 92.4899 461.881 92.1139 461.881 91.7266C461.881 91.207 461.724 90.7809 461.409 90.4482C461.095 90.1156 460.675 89.9492 460.151 89.9492C459.522 89.9492 459.033 90.1292 458.682 90.4893C458.335 90.8447 458.162 91.3415 458.162 91.9795H456.897C456.897 91.0635 457.191 90.3229 457.779 89.7578C458.372 89.1927 459.162 88.9102 460.151 88.9102C461.076 88.9102 461.808 89.154 462.346 89.6416C462.883 90.1247 463.152 90.7695 463.152 91.5762C463.152 92.556 462.528 93.7227 461.279 95.0762L458.613 97.9678H463.61V99ZM468.149 99.1367C467.147 99.1367 466.331 98.8086 465.702 98.1523C465.073 97.4915 464.759 96.6097 464.759 95.5068V95.2744C464.759 94.5407 464.898 93.8867 465.176 93.3125C465.458 92.7337 465.85 92.2826 466.352 91.959C466.857 91.6309 467.404 91.4668 467.992 91.4668C468.954 91.4668 469.701 91.7835 470.234 92.417C470.768 93.0505 471.034 93.9574 471.034 95.1377V95.6641H466.023C466.042 96.3932 466.254 96.9834 466.659 97.4346C467.069 97.8812 467.589 98.1045 468.218 98.1045C468.664 98.1045 469.043 98.0133 469.353 97.8311C469.662 97.6488 469.934 97.4072 470.166 97.1064L470.938 97.708C470.319 98.6605 469.389 99.1367 468.149 99.1367ZM467.992 92.5059C467.482 92.5059 467.053 92.6927 466.707 93.0664C466.361 93.4355 466.146 93.9551 466.064 94.625H469.77V94.5293C469.733 93.8867 469.56 93.39 469.25 93.0391C468.94 92.6836 468.521 92.5059 467.992 92.5059ZM478.41 91.6445C478.41 92.1413 478.278 92.5833 478.014 92.9707C477.754 93.3581 477.401 93.6611 476.954 93.8799C477.474 94.1032 477.884 94.429 478.185 94.8574C478.49 95.2858 478.643 95.7712 478.643 96.3135C478.643 97.1748 478.351 97.8607 477.768 98.3711C477.189 98.8815 476.425 99.1367 475.478 99.1367C474.521 99.1367 473.753 98.8815 473.174 98.3711C472.6 97.8561 472.312 97.1702 472.312 96.3135C472.312 95.7757 472.458 95.2904 472.75 94.8574C473.046 94.4245 473.454 94.0964 473.974 93.873C473.532 93.6543 473.183 93.3512 472.928 92.9639C472.673 92.5765 472.545 92.1367 472.545 91.6445C472.545 90.806 472.814 90.1406 473.352 89.6484C473.889 89.1562 474.598 88.9102 475.478 88.9102C476.353 88.9102 477.059 89.1562 477.597 89.6484C478.139 90.1406 478.41 90.806 478.41 91.6445ZM477.378 96.2861C477.378 95.7301 477.2 95.2767 476.845 94.9258C476.494 94.5749 476.034 94.3994 475.464 94.3994C474.894 94.3994 474.436 94.5726 474.09 94.9189C473.748 95.2653 473.577 95.721 473.577 96.2861C473.577 96.8512 473.743 97.2956 474.076 97.6191C474.413 97.9427 474.881 98.1045 475.478 98.1045C476.07 98.1045 476.535 97.9427 476.872 97.6191C477.209 97.291 477.378 96.8467 477.378 96.2861ZM475.478 89.9492C474.981 89.9492 474.577 90.1042 474.268 90.4141C473.962 90.7194 473.81 91.1364 473.81 91.665C473.81 92.1709 473.96 92.5811 474.261 92.8955C474.566 93.2054 474.972 93.3604 475.478 93.3604C475.983 93.3604 476.387 93.2054 476.688 92.8955C476.993 92.5811 477.146 92.1709 477.146 91.665C477.146 91.1592 476.988 90.7467 476.674 90.4277C476.359 90.1087 475.961 89.9492 475.478 89.9492ZM486.661 89.7578L482.539 99H481.213L485.321 90.0859H479.935V89.0469H486.661V89.7578ZM488.849 99V92.5811H487.68V91.6035H488.849V90.8447C488.849 90.0518 489.061 89.4388 489.484 89.0059C489.908 88.5729 490.507 88.3564 491.282 88.3564C491.574 88.3564 491.863 88.3952 492.15 88.4727L492.082 89.498C491.868 89.457 491.64 89.4365 491.398 89.4365C490.988 89.4365 490.672 89.5573 490.448 89.7988C490.225 90.0358 490.113 90.3776 490.113 90.8242V91.6035H491.692V92.5811H490.113V99H488.849ZM497.12 99H495.849V90.5713L493.299 91.5078V90.3594L496.922 88.999H497.12V99ZM503.922 98.1045C504.373 98.1045 504.767 97.9678 505.104 97.6943C505.442 97.4209 505.629 97.0791 505.665 96.6689H506.861C506.839 97.0928 506.693 97.4961 506.424 97.8789C506.155 98.2617 505.795 98.5671 505.344 98.7949C504.897 99.0228 504.423 99.1367 503.922 99.1367C502.915 99.1367 502.113 98.8018 501.516 98.1318C500.923 97.4574 500.627 96.5368 500.627 95.3701V95.1582C500.627 94.4382 500.759 93.7979 501.023 93.2373C501.288 92.6768 501.666 92.2415 502.158 91.9316C502.655 91.6217 503.241 91.4668 503.915 91.4668C504.744 91.4668 505.433 91.7152 505.979 92.2119C506.531 92.7087 506.825 93.3535 506.861 94.1465H505.665C505.629 93.668 505.446 93.276 505.118 92.9707C504.795 92.6608 504.394 92.5059 503.915 92.5059C503.272 92.5059 502.773 92.7383 502.418 93.2031C502.067 93.6634 501.892 94.3311 501.892 95.2061V95.4453C501.892 96.2975 502.067 96.9538 502.418 97.4141C502.769 97.8743 503.27 98.1045 503.922 98.1045ZM511.353 99.1367C510.35 99.1367 509.534 98.8086 508.905 98.1523C508.276 97.4915 507.962 96.6097 507.962 95.5068V95.2744C507.962 94.5407 508.101 93.8867 508.379 93.3125C508.661 92.7337 509.053 92.2826 509.555 91.959C510.061 91.6309 510.607 91.4668 511.195 91.4668C512.157 91.4668 512.904 91.7835 513.438 92.417C513.971 93.0505 514.237 93.9574 514.237 95.1377V95.6641H509.227C509.245 96.3932 509.457 96.9834 509.862 97.4346C510.272 97.8812 510.792 98.1045 511.421 98.1045C511.868 98.1045 512.246 98.0133 512.556 97.8311C512.866 97.6488 513.137 97.4072 513.369 97.1064L514.142 97.708C513.522 98.6605 512.592 99.1367 511.353 99.1367ZM511.195 92.5059C510.685 92.5059 510.257 92.6927 509.91 93.0664C509.564 93.4355 509.35 93.9551 509.268 94.625H512.973V94.5293C512.936 93.8867 512.763 93.39 512.453 93.0391C512.143 92.6836 511.724 92.5059 511.195 92.5059ZM518.776 99.1367C517.774 99.1367 516.958 98.8086 516.329 98.1523C515.7 97.4915 515.386 96.6097 515.386 95.5068V95.2744C515.386 94.5407 515.525 93.8867 515.803 93.3125C516.085 92.7337 516.477 92.2826 516.979 91.959C517.484 91.6309 518.031 91.4668 518.619 91.4668C519.581 91.4668 520.328 91.7835 520.861 92.417C521.395 93.0505 521.661 93.9574 521.661 95.1377V95.6641H516.65C516.669 96.3932 516.881 96.9834 517.286 97.4346C517.696 97.8812 518.216 98.1045 518.845 98.1045C519.291 98.1045 519.67 98.0133 519.979 97.8311C520.289 97.6488 520.561 97.4072 520.793 97.1064L521.565 97.708C520.946 98.6605 520.016 99.1367 518.776 99.1367ZM518.619 92.5059C518.109 92.5059 517.68 92.6927 517.334 93.0664C516.988 93.4355 516.773 93.9551 516.691 94.625H520.396V94.5293C520.36 93.8867 520.187 93.39 519.877 93.0391C519.567 92.6836 519.148 92.5059 518.619 92.5059ZM529.037 91.6445C529.037 92.1413 528.905 92.5833 528.641 92.9707C528.381 93.3581 528.028 93.6611 527.581 93.8799C528.101 94.1032 528.511 94.429 528.812 94.8574C529.117 95.2858 529.27 95.7712 529.27 96.3135C529.27 97.1748 528.978 97.8607 528.395 98.3711C527.816 98.8815 527.052 99.1367 526.104 99.1367C525.147 99.1367 524.38 98.8815 523.801 98.3711C523.227 97.8561 522.939 97.1702 522.939 96.3135C522.939 95.7757 523.085 95.2904 523.377 94.8574C523.673 94.4245 524.081 94.0964 524.601 93.873C524.159 93.6543 523.81 93.3512 523.555 92.9639C523.299 92.5765 523.172 92.1367 523.172 91.6445C523.172 90.806 523.441 90.1406 523.979 89.6484C524.516 89.1562 525.225 88.9102 526.104 88.9102C526.979 88.9102 527.686 89.1562 528.224 89.6484C528.766 90.1406 529.037 90.806 529.037 91.6445ZM528.005 96.2861C528.005 95.7301 527.827 95.2767 527.472 94.9258C527.121 94.5749 526.66 94.3994 526.091 94.3994C525.521 94.3994 525.063 94.5726 524.717 94.9189C524.375 95.2653 524.204 95.721 524.204 96.2861C524.204 96.8512 524.37 97.2956 524.703 97.6191C525.04 97.9427 525.507 98.1045 526.104 98.1045C526.697 98.1045 527.162 97.9427 527.499 97.6191C527.836 97.291 528.005 96.8467 528.005 96.2861ZM526.104 89.9492C525.608 89.9492 525.204 90.1042 524.895 90.4141C524.589 90.7194 524.437 91.1364 524.437 91.665C524.437 92.1709 524.587 92.5811 524.888 92.8955C525.193 93.2054 525.599 93.3604 526.104 93.3604C526.61 93.3604 527.014 93.2054 527.314 92.8955C527.62 92.5811 527.772 92.1709 527.772 91.665C527.772 91.1592 527.615 90.7467 527.301 90.4277C526.986 90.1087 526.588 89.9492 526.104 89.9492ZM534.062 99.1367C533.059 99.1367 532.243 98.8086 531.614 98.1523C530.985 97.4915 530.671 96.6097 530.671 95.5068V95.2744C530.671 94.5407 530.81 93.8867 531.088 93.3125C531.37 92.7337 531.762 92.2826 532.264 91.959C532.77 91.6309 533.316 91.4668 533.904 91.4668C534.866 91.4668 535.613 91.7835 536.146 92.417C536.68 93.0505 536.946 93.9574 536.946 95.1377V95.6641H531.936C531.954 96.3932 532.166 96.9834 532.571 97.4346C532.981 97.8812 533.501 98.1045 534.13 98.1045C534.576 98.1045 534.955 98.0133 535.265 97.8311C535.575 97.6488 535.846 97.4072 536.078 97.1064L536.851 97.708C536.231 98.6605 535.301 99.1367 534.062 99.1367ZM533.904 92.5059C533.394 92.5059 532.965 92.6927 532.619 93.0664C532.273 93.4355 532.059 93.9551 531.977 94.625H535.682V94.5293C535.645 93.8867 535.472 93.39 535.162 93.0391C534.852 92.6836 534.433 92.5059 533.904 92.5059ZM543.133 94.625C542.868 94.9395 542.552 95.1924 542.183 95.3838C541.818 95.5752 541.417 95.6709 540.979 95.6709C540.405 95.6709 539.904 95.5296 539.476 95.2471C539.052 94.9645 538.724 94.568 538.491 94.0576C538.259 93.5426 538.143 92.9753 538.143 92.3555C538.143 91.6901 538.268 91.0908 538.519 90.5576C538.774 90.0244 539.134 89.6165 539.599 89.334C540.063 89.0514 540.606 88.9102 541.226 88.9102C542.21 88.9102 542.985 89.2793 543.55 90.0176C544.119 90.7513 544.404 91.7539 544.404 93.0254V93.3945C544.404 95.3314 544.021 96.7464 543.256 97.6396C542.49 98.5283 541.335 98.984 539.79 99.0068H539.544V97.9404H539.811C540.854 97.9222 541.656 97.651 542.217 97.127C542.777 96.5983 543.083 95.7643 543.133 94.625ZM541.185 94.625C541.608 94.625 541.998 94.4951 542.354 94.2354C542.714 93.9756 542.976 93.6543 543.14 93.2715V92.7656C543.14 91.9362 542.96 91.2617 542.6 90.7422C542.24 90.2227 541.784 89.9629 541.232 89.9629C540.676 89.9629 540.23 90.1771 539.893 90.6055C539.555 91.0293 539.387 91.5898 539.387 92.2871C539.387 92.9661 539.549 93.5267 539.872 93.9688C540.2 94.4062 540.638 94.625 541.185 94.625ZM552.389 94.7549C552.389 96.236 552.136 97.3366 551.63 98.0566C551.124 98.7767 550.333 99.1367 549.258 99.1367C548.196 99.1367 547.41 98.7858 546.899 98.084C546.389 97.3776 546.125 96.3249 546.106 94.9258V93.2373C546.106 91.7744 546.359 90.6875 546.865 89.9766C547.371 89.2656 548.164 88.9102 549.244 88.9102C550.315 88.9102 551.104 89.2542 551.609 89.9424C552.115 90.626 552.375 91.6833 552.389 93.1143V94.7549ZM551.124 93.0254C551.124 91.9544 550.974 91.1751 550.673 90.6875C550.372 90.1953 549.896 89.9492 549.244 89.9492C548.597 89.9492 548.125 90.193 547.829 90.6807C547.533 91.1683 547.38 91.918 547.371 92.9297V94.9531C547.371 96.0286 547.526 96.8239 547.836 97.3389C548.15 97.8493 548.624 98.1045 549.258 98.1045C549.882 98.1045 550.345 97.863 550.646 97.3799C550.951 96.8968 551.11 96.1357 551.124 95.0967V93.0254ZM557.208 99.1367C556.205 99.1367 555.39 98.8086 554.761 98.1523C554.132 97.4915 553.817 96.6097 553.817 95.5068V95.2744C553.817 94.5407 553.956 93.8867 554.234 93.3125C554.517 92.7337 554.909 92.2826 555.41 91.959C555.916 91.6309 556.463 91.4668 557.051 91.4668C558.012 91.4668 558.76 91.7835 559.293 92.417C559.826 93.0505 560.093 93.9574 560.093 95.1377V95.6641H555.082C555.1 96.3932 555.312 96.9834 555.718 97.4346C556.128 97.8812 556.647 98.1045 557.276 98.1045C557.723 98.1045 558.101 98.0133 558.411 97.8311C558.721 97.6488 558.992 97.4072 559.225 97.1064L559.997 97.708C559.377 98.6605 558.448 99.1367 557.208 99.1367ZM557.051 92.5059C556.54 92.5059 556.112 92.6927 555.766 93.0664C555.419 93.4355 555.205 93.9551 555.123 94.625H558.828V94.5293C558.792 93.8867 558.618 93.39 558.309 93.0391C557.999 92.6836 557.579 92.5059 557.051 92.5059ZM567.824 95.3838C567.824 96.514 567.564 97.4232 567.045 98.1113C566.525 98.7949 565.828 99.1367 564.953 99.1367C564.019 99.1367 563.297 98.8063 562.786 98.1455L562.725 99H561.562V88.5H562.827V92.417C563.338 91.7835 564.042 91.4668 564.939 91.4668C565.837 91.4668 566.541 91.8063 567.052 92.4854C567.567 93.1644 567.824 94.0941 567.824 95.2744V95.3838ZM566.56 95.2402C566.56 94.3789 566.393 93.7135 566.061 93.2441C565.728 92.7747 565.249 92.54 564.625 92.54C563.791 92.54 563.192 92.9274 562.827 93.7021V96.9014C563.215 97.6761 563.818 98.0635 564.639 98.0635C565.245 98.0635 565.716 97.8288 566.054 97.3594C566.391 96.89 566.56 96.1836 566.56 95.2402ZM575.686 95.3838C575.686 96.514 575.426 97.4232 574.906 98.1113C574.387 98.7949 573.689 99.1367 572.814 99.1367C571.88 99.1367 571.158 98.8063 570.647 98.1455L570.586 99H569.424V88.5H570.688V92.417C571.199 91.7835 571.903 91.4668 572.801 91.4668C573.699 91.4668 574.403 91.8063 574.913 92.4854C575.428 93.1644 575.686 94.0941 575.686 95.2744V95.3838ZM574.421 95.2402C574.421 94.3789 574.255 93.7135 573.922 93.2441C573.589 92.7747 573.111 92.54 572.486 92.54C571.652 92.54 571.053 92.9274 570.688 93.7021V96.9014C571.076 97.6761 571.68 98.0635 572.5 98.0635C573.106 98.0635 573.578 97.8288 573.915 97.3594C574.252 96.89 574.421 96.1836 574.421 95.2402ZM580.354 99.1367C579.352 99.1367 578.536 98.8086 577.907 98.1523C577.278 97.4915 576.964 96.6097 576.964 95.5068V95.2744C576.964 94.5407 577.103 93.8867 577.381 93.3125C577.663 92.7337 578.055 92.2826 578.557 91.959C579.062 91.6309 579.609 91.4668 580.197 91.4668C581.159 91.4668 581.906 91.7835 582.439 92.417C582.973 93.0505 583.239 93.9574 583.239 95.1377V95.6641H578.229C578.247 96.3932 578.459 96.9834 578.864 97.4346C579.274 97.8812 579.794 98.1045 580.423 98.1045C580.869 98.1045 581.248 98.0133 581.558 97.8311C581.868 97.6488 582.139 97.4072 582.371 97.1064L583.144 97.708C582.524 98.6605 581.594 99.1367 580.354 99.1367ZM580.197 92.5059C579.687 92.5059 579.258 92.6927 578.912 93.0664C578.566 93.4355 578.352 93.9551 578.27 94.625H581.975V94.5293C581.938 93.8867 581.765 93.39 581.455 93.0391C581.145 92.6836 580.726 92.5059 580.197 92.5059ZM590.615 91.6445C590.615 92.1413 590.483 92.5833 590.219 92.9707C589.959 93.3581 589.606 93.6611 589.159 93.8799C589.679 94.1032 590.089 94.429 590.39 94.8574C590.695 95.2858 590.848 95.7712 590.848 96.3135C590.848 97.1748 590.556 97.8607 589.973 98.3711C589.394 98.8815 588.631 99.1367 587.683 99.1367C586.726 99.1367 585.958 98.8815 585.379 98.3711C584.805 97.8561 584.518 97.1702 584.518 96.3135C584.518 95.7757 584.663 95.2904 584.955 94.8574C585.251 94.4245 585.659 94.0964 586.179 93.873C585.737 93.6543 585.388 93.3512 585.133 92.9639C584.878 92.5765 584.75 92.1367 584.75 91.6445C584.75 90.806 585.019 90.1406 585.557 89.6484C586.094 89.1562 586.803 88.9102 587.683 88.9102C588.558 88.9102 589.264 89.1562 589.802 89.6484C590.344 90.1406 590.615 90.806 590.615 91.6445ZM589.583 96.2861C589.583 95.7301 589.405 95.2767 589.05 94.9258C588.699 94.5749 588.239 94.3994 587.669 94.3994C587.099 94.3994 586.641 94.5726 586.295 94.9189C585.953 95.2653 585.782 95.721 585.782 96.2861C585.782 96.8512 585.949 97.2956 586.281 97.6191C586.618 97.9427 587.086 98.1045 587.683 98.1045C588.275 98.1045 588.74 97.9427 589.077 97.6191C589.414 97.291 589.583 96.8467 589.583 96.2861ZM587.683 89.9492C587.186 89.9492 586.783 90.1042 586.473 90.4141C586.167 90.7194 586.015 91.1364 586.015 91.665C586.015 92.1709 586.165 92.5811 586.466 92.8955C586.771 93.2054 587.177 93.3604 587.683 93.3604C588.188 93.3604 588.592 93.2054 588.893 92.8955C589.198 92.5811 589.351 92.1709 589.351 91.665C589.351 91.1592 589.193 90.7467 588.879 90.4277C588.564 90.1087 588.166 89.9492 587.683 89.9492ZM598.866 89.7578L594.744 99H593.418L597.526 90.0859H592.14V89.0469H598.866V89.7578ZM606.543 94.7549C606.543 96.236 606.29 97.3366 605.784 98.0566C605.278 98.7767 604.488 99.1367 603.412 99.1367C602.35 99.1367 601.564 98.7858 601.054 98.084C600.543 97.3776 600.279 96.3249 600.261 94.9258V93.2373C600.261 91.7744 600.514 90.6875 601.02 89.9766C601.525 89.2656 602.318 88.9102 603.398 88.9102C604.469 88.9102 605.258 89.2542 605.764 89.9424C606.27 90.626 606.529 91.6833 606.543 93.1143V94.7549ZM605.278 93.0254C605.278 91.9544 605.128 91.1751 604.827 90.6875C604.526 90.1953 604.05 89.9492 603.398 89.9492C602.751 89.9492 602.28 90.193 601.983 90.6807C601.687 91.1683 601.535 91.918 601.525 92.9297V94.9531C601.525 96.0286 601.68 96.8239 601.99 97.3389C602.305 97.8493 602.779 98.1045 603.412 98.1045C604.036 98.1045 604.499 97.863 604.8 97.3799C605.105 96.8968 605.265 96.1357 605.278 95.0967V93.0254ZM611.26 98.1045C611.711 98.1045 612.105 97.9678 612.442 97.6943C612.78 97.4209 612.966 97.0791 613.003 96.6689H614.199C614.176 97.0928 614.031 97.4961 613.762 97.8789C613.493 98.2617 613.133 98.5671 612.682 98.7949C612.235 99.0228 611.761 99.1367 611.26 99.1367C610.253 99.1367 609.451 98.8018 608.854 98.1318C608.261 97.4574 607.965 96.5368 607.965 95.3701V95.1582C607.965 94.4382 608.097 93.7979 608.361 93.2373C608.626 92.6768 609.004 92.2415 609.496 91.9316C609.993 91.6217 610.578 91.4668 611.253 91.4668C612.082 91.4668 612.771 91.7152 613.317 92.2119C613.869 92.7087 614.163 93.3535 614.199 94.1465H613.003C612.966 93.668 612.784 93.276 612.456 92.9707C612.132 92.6608 611.731 92.5059 611.253 92.5059C610.61 92.5059 610.111 92.7383 609.756 93.2031C609.405 93.6634 609.229 94.3311 609.229 95.2061V95.4453C609.229 96.2975 609.405 96.9538 609.756 97.4141C610.107 97.8743 610.608 98.1045 611.26 98.1045ZM619.647 99H618.376V90.5713L615.826 91.5078V90.3594L619.449 88.999H619.647V99ZM628.199 94.625C627.935 94.9395 627.618 95.1924 627.249 95.3838C626.884 95.5752 626.483 95.6709 626.046 95.6709C625.472 95.6709 624.97 95.5296 624.542 95.2471C624.118 94.9645 623.79 94.568 623.558 94.0576C623.325 93.5426 623.209 92.9753 623.209 92.3555C623.209 91.6901 623.334 91.0908 623.585 90.5576C623.84 90.0244 624.2 89.6165 624.665 89.334C625.13 89.0514 625.672 88.9102 626.292 88.9102C627.276 88.9102 628.051 89.2793 628.616 90.0176C629.186 90.7513 629.471 91.7539 629.471 93.0254V93.3945C629.471 95.3314 629.088 96.7464 628.322 97.6396C627.557 98.5283 626.401 98.984 624.856 99.0068H624.61V97.9404H624.877C625.921 97.9222 626.723 97.651 627.283 97.127C627.844 96.5983 628.149 95.7643 628.199 94.625ZM626.251 94.625C626.675 94.625 627.064 94.4951 627.42 94.2354C627.78 93.9756 628.042 93.6543 628.206 93.2715V92.7656C628.206 91.9362 628.026 91.2617 627.666 90.7422C627.306 90.2227 626.85 89.9629 626.299 89.9629C625.743 89.9629 625.296 90.1771 624.959 90.6055C624.622 91.0293 624.453 91.5898 624.453 92.2871C624.453 92.9661 624.615 93.5267 624.938 93.9688C625.267 94.4062 625.704 94.625 626.251 94.625ZM637.455 94.7549C637.455 96.236 637.202 97.3366 636.696 98.0566C636.19 98.7767 635.4 99.1367 634.324 99.1367C633.262 99.1367 632.476 98.7858 631.966 98.084C631.455 97.3776 631.191 96.3249 631.173 94.9258V93.2373C631.173 91.7744 631.426 90.6875 631.932 89.9766C632.438 89.2656 633.23 88.9102 634.311 88.9102C635.382 88.9102 636.17 89.2542 636.676 89.9424C637.182 90.626 637.441 91.6833 637.455 93.1143V94.7549ZM636.19 93.0254C636.19 91.9544 636.04 91.1751 635.739 90.6875C635.438 90.1953 634.962 89.9492 634.311 89.9492C633.663 89.9492 633.192 90.193 632.896 90.6807C632.599 91.1683 632.447 91.918 632.438 92.9297V94.9531C632.438 96.0286 632.592 96.8239 632.902 97.3389C633.217 97.8493 633.691 98.1045 634.324 98.1045C634.949 98.1045 635.411 97.863 635.712 97.3799C636.017 96.8968 636.177 96.1357 636.19 95.0967V93.0254ZM643.771 99C643.699 98.8542 643.639 98.5944 643.594 98.2207C643.006 98.8314 642.304 99.1367 641.488 99.1367C640.759 99.1367 640.16 98.9316 639.69 98.5215C639.226 98.1068 638.993 97.5827 638.993 96.9492C638.993 96.179 639.285 95.582 639.868 95.1582C640.456 94.7298 641.281 94.5156 642.343 94.5156H643.573V93.9346C643.573 93.4925 643.441 93.1416 643.177 92.8818C642.912 92.6175 642.523 92.4854 642.008 92.4854C641.557 92.4854 641.178 92.5993 640.873 92.8271C640.568 93.055 640.415 93.3307 640.415 93.6543H639.144C639.144 93.2852 639.273 92.9297 639.533 92.5879C639.798 92.2415 640.153 91.9681 640.6 91.7676C641.051 91.5671 641.545 91.4668 642.083 91.4668C642.935 91.4668 643.603 91.681 644.086 92.1094C644.569 92.5332 644.82 93.1188 644.838 93.8662V97.2705C644.838 97.9495 644.924 98.4896 645.098 98.8906V99H643.771ZM641.673 98.0361C642.069 98.0361 642.445 97.9336 642.801 97.7285C643.156 97.5234 643.414 97.2568 643.573 96.9287V95.4111H642.582C641.033 95.4111 640.258 95.8646 640.258 96.7715C640.258 97.168 640.39 97.4779 640.654 97.7012C640.919 97.9245 641.258 98.0361 641.673 98.0361ZM649.787 98.1045C650.238 98.1045 650.632 97.9678 650.97 97.6943C651.307 97.4209 651.494 97.0791 651.53 96.6689H652.727C652.704 97.0928 652.558 97.4961 652.289 97.8789C652.02 98.2617 651.66 98.5671 651.209 98.7949C650.762 99.0228 650.288 99.1367 649.787 99.1367C648.78 99.1367 647.978 98.8018 647.381 98.1318C646.788 97.4574 646.492 96.5368 646.492 95.3701V95.1582C646.492 94.4382 646.624 93.7979 646.889 93.2373C647.153 92.6768 647.531 92.2415 648.023 91.9316C648.52 91.6217 649.106 91.4668 649.78 91.4668C650.61 91.4668 651.298 91.7152 651.845 92.2119C652.396 92.7087 652.69 93.3535 652.727 94.1465H651.53C651.494 93.668 651.312 93.276 650.983 92.9707C650.66 92.6608 650.259 92.5059 649.78 92.5059C649.138 92.5059 648.639 92.7383 648.283 93.2031C647.932 93.6634 647.757 94.3311 647.757 95.2061V95.4453C647.757 96.2975 647.932 96.9538 648.283 97.4141C648.634 97.8743 649.135 98.1045 649.787 98.1045ZM655.857 93.4082H656.808C657.405 93.3991 657.874 93.2419 658.216 92.9365C658.558 92.6312 658.729 92.2188 658.729 91.6992C658.729 90.5326 658.147 89.9492 656.985 89.9492C656.438 89.9492 656.001 90.1064 655.673 90.4209C655.349 90.7308 655.188 91.1432 655.188 91.6582H653.923C653.923 90.8698 654.21 90.2158 654.784 89.6963C655.363 89.1722 656.097 88.9102 656.985 88.9102C657.924 88.9102 658.66 89.1585 659.193 89.6553C659.727 90.152 659.993 90.8424 659.993 91.7266C659.993 92.1595 659.852 92.5788 659.569 92.9844C659.291 93.39 658.911 93.693 658.428 93.8936C658.975 94.0667 659.396 94.3538 659.692 94.7549C659.993 95.1559 660.144 95.6458 660.144 96.2246C660.144 97.1178 659.852 97.8265 659.269 98.3506C658.685 98.8747 657.926 99.1367 656.992 99.1367C656.058 99.1367 655.297 98.8838 654.709 98.3779C654.126 97.8721 653.834 97.2044 653.834 96.375H655.105C655.105 96.8991 655.276 97.3184 655.618 97.6328C655.96 97.9473 656.418 98.1045 656.992 98.1045C657.603 98.1045 658.07 97.945 658.394 97.626C658.717 97.307 658.879 96.849 658.879 96.252C658.879 95.6732 658.701 95.2288 658.346 94.9189C657.99 94.609 657.478 94.4495 656.808 94.4404H655.857V93.4082ZM667.916 91.6445C667.916 92.1413 667.784 92.5833 667.52 92.9707C667.26 93.3581 666.907 93.6611 666.46 93.8799C666.979 94.1032 667.39 94.429 667.69 94.8574C667.996 95.2858 668.148 95.7712 668.148 96.3135C668.148 97.1748 667.857 97.8607 667.273 98.3711C666.695 98.8815 665.931 99.1367 664.983 99.1367C664.026 99.1367 663.258 98.8815 662.68 98.3711C662.105 97.8561 661.818 97.1702 661.818 96.3135C661.818 95.7757 661.964 95.2904 662.256 94.8574C662.552 94.4245 662.96 94.0964 663.479 93.873C663.037 93.6543 662.689 93.3512 662.434 92.9639C662.178 92.5765 662.051 92.1367 662.051 91.6445C662.051 90.806 662.32 90.1406 662.857 89.6484C663.395 89.1562 664.104 88.9102 664.983 88.9102C665.858 88.9102 666.565 89.1562 667.103 89.6484C667.645 90.1406 667.916 90.806 667.916 91.6445ZM666.884 96.2861C666.884 95.7301 666.706 95.2767 666.351 94.9258C666 94.5749 665.539 94.3994 664.97 94.3994C664.4 94.3994 663.942 94.5726 663.596 94.9189C663.254 95.2653 663.083 95.721 663.083 96.2861C663.083 96.8512 663.249 97.2956 663.582 97.6191C663.919 97.9427 664.386 98.1045 664.983 98.1045C665.576 98.1045 666.041 97.9427 666.378 97.6191C666.715 97.291 666.884 96.8467 666.884 96.2861ZM664.983 89.9492C664.487 89.9492 664.083 90.1042 663.773 90.4141C663.468 90.7194 663.315 91.1364 663.315 91.665C663.315 92.1709 663.466 92.5811 663.767 92.8955C664.072 93.2054 664.478 93.3604 664.983 93.3604C665.489 93.3604 665.893 93.2054 666.193 92.8955C666.499 92.5811 666.651 92.1709 666.651 91.665C666.651 91.1592 666.494 90.7467 666.18 90.4277C665.865 90.1087 665.466 89.9492 664.983 89.9492ZM675.08 95.6572H676.461V96.6895H675.08V99H673.809V96.6895H669.276V95.9443L673.733 89.0469H675.08V95.6572ZM670.712 95.6572H673.809V90.7764L673.658 91.0498L670.712 95.6572ZM683.639 91.6445C683.639 92.1413 683.507 92.5833 683.242 92.9707C682.982 93.3581 682.629 93.6611 682.183 93.8799C682.702 94.1032 683.112 94.429 683.413 94.8574C683.718 95.2858 683.871 95.7712 683.871 96.3135C683.871 97.1748 683.579 97.8607 682.996 98.3711C682.417 98.8815 681.654 99.1367 680.706 99.1367C679.749 99.1367 678.981 98.8815 678.402 98.3711C677.828 97.8561 677.541 97.1702 677.541 96.3135C677.541 95.7757 677.687 95.2904 677.979 94.8574C678.275 94.4245 678.683 94.0964 679.202 93.873C678.76 93.6543 678.411 93.3512 678.156 92.9639C677.901 92.5765 677.773 92.1367 677.773 91.6445C677.773 90.806 678.042 90.1406 678.58 89.6484C679.118 89.1562 679.826 88.9102 680.706 88.9102C681.581 88.9102 682.287 89.1562 682.825 89.6484C683.368 90.1406 683.639 90.806 683.639 91.6445ZM682.606 96.2861C682.606 95.7301 682.429 95.2767 682.073 94.9258C681.722 94.5749 681.262 94.3994 680.692 94.3994C680.123 94.3994 679.665 94.5726 679.318 94.9189C678.977 95.2653 678.806 95.721 678.806 96.2861C678.806 96.8512 678.972 97.2956 679.305 97.6191C679.642 97.9427 680.109 98.1045 680.706 98.1045C681.299 98.1045 681.763 97.9427 682.101 97.6191C682.438 97.291 682.606 96.8467 682.606 96.2861ZM680.706 89.9492C680.209 89.9492 679.806 90.1042 679.496 90.4141C679.191 90.7194 679.038 91.1364 679.038 91.665C679.038 92.1709 679.188 92.5811 679.489 92.8955C679.795 93.2054 680.2 93.3604 680.706 93.3604C681.212 93.3604 681.615 93.2054 681.916 92.8955C682.221 92.5811 682.374 92.1709 682.374 91.665C682.374 91.1592 682.217 90.7467 681.902 90.4277C681.588 90.1087 681.189 89.9492 680.706 89.9492ZM688.561 98.1045C689.012 98.1045 689.406 97.9678 689.743 97.6943C690.08 97.4209 690.267 97.0791 690.304 96.6689H691.5C691.477 97.0928 691.331 97.4961 691.062 97.8789C690.794 98.2617 690.434 98.5671 689.982 98.7949C689.536 99.0228 689.062 99.1367 688.561 99.1367C687.553 99.1367 686.751 98.8018 686.154 98.1318C685.562 97.4574 685.266 96.5368 685.266 95.3701V95.1582C685.266 94.4382 685.398 93.7979 685.662 93.2373C685.926 92.6768 686.305 92.2415 686.797 91.9316C687.294 91.6217 687.879 91.4668 688.554 91.4668C689.383 91.4668 690.071 91.7152 690.618 92.2119C691.17 92.7087 691.464 93.3535 691.5 94.1465H690.304C690.267 93.668 690.085 93.276 689.757 92.9707C689.433 92.6608 689.032 92.5059 688.554 92.5059C687.911 92.5059 687.412 92.7383 687.057 93.2031C686.706 93.6634 686.53 94.3311 686.53 95.2061V95.4453C686.53 96.2975 686.706 96.9538 687.057 97.4141C687.408 97.8743 687.909 98.1045 688.561 98.1045Z" fill="black"/>
<path d="M98.5312 74V62.625H102.031C103.031 62.625 103.924 62.8516 104.711 63.3047C105.503 63.7526 106.12 64.3932 106.562 65.2266C107.005 66.0547 107.227 66.9974 107.227 68.0547V68.5781C107.227 69.6354 107.008 70.5755 106.57 71.3984C106.138 72.2214 105.526 72.8594 104.734 73.3125C103.943 73.7656 103.049 73.9948 102.055 74H98.5312ZM100.875 64.5234V72.1172H102.008C102.924 72.1172 103.625 71.8177 104.109 71.2188C104.594 70.6198 104.841 69.763 104.852 68.6484V68.0469C104.852 66.8906 104.612 66.0156 104.133 65.4219C103.654 64.8229 102.953 64.5234 102.031 64.5234H100.875ZM113.688 74C113.583 73.7969 113.508 73.5443 113.461 73.2422C112.914 73.8516 112.203 74.1562 111.328 74.1562C110.5 74.1562 109.812 73.9167 109.266 73.4375C108.724 72.9583 108.453 72.3542 108.453 71.625C108.453 70.7292 108.784 70.0417 109.445 69.5625C110.112 69.0833 111.073 68.8411 112.328 68.8359H113.367V68.3516C113.367 67.9609 113.266 67.6484 113.062 67.4141C112.865 67.1797 112.549 67.0625 112.117 67.0625C111.737 67.0625 111.438 67.1536 111.219 67.3359C111.005 67.5182 110.898 67.7682 110.898 68.0859H108.641C108.641 67.5964 108.792 67.1432 109.094 66.7266C109.396 66.3099 109.823 65.9844 110.375 65.75C110.927 65.5104 111.547 65.3906 112.234 65.3906C113.276 65.3906 114.102 65.6536 114.711 66.1797C115.326 66.7005 115.633 67.4349 115.633 68.3828V72.0469C115.638 72.849 115.75 73.4557 115.969 73.8672V74H113.688ZM111.82 72.4297C112.154 72.4297 112.461 72.3568 112.742 72.2109C113.023 72.0599 113.232 71.8594 113.367 71.6094V70.1562H112.523C111.393 70.1562 110.792 70.5469 110.719 71.3281L110.711 71.4609C110.711 71.7422 110.81 71.974 111.008 72.1562C111.206 72.3385 111.477 72.4297 111.82 72.4297ZM120.07 63.4688V65.5469H121.516V67.2031H120.07V71.4219C120.07 71.7344 120.13 71.9583 120.25 72.0938C120.37 72.2292 120.599 72.2969 120.938 72.2969C121.188 72.2969 121.409 72.2786 121.602 72.2422V73.9531C121.159 74.0885 120.703 74.1562 120.234 74.1562C118.651 74.1562 117.844 73.3568 117.812 71.7578V67.2031H116.578V65.5469H117.812V63.4688H120.07ZM127.672 74C127.568 73.7969 127.492 73.5443 127.445 73.2422C126.898 73.8516 126.188 74.1562 125.312 74.1562C124.484 74.1562 123.797 73.9167 123.25 73.4375C122.708 72.9583 122.438 72.3542 122.438 71.625C122.438 70.7292 122.768 70.0417 123.43 69.5625C124.096 69.0833 125.057 68.8411 126.312 68.8359H127.352V68.3516C127.352 67.9609 127.25 67.6484 127.047 67.4141C126.849 67.1797 126.534 67.0625 126.102 67.0625C125.721 67.0625 125.422 67.1536 125.203 67.3359C124.99 67.5182 124.883 67.7682 124.883 68.0859H122.625C122.625 67.5964 122.776 67.1432 123.078 66.7266C123.38 66.3099 123.807 65.9844 124.359 65.75C124.911 65.5104 125.531 65.3906 126.219 65.3906C127.26 65.3906 128.086 65.6536 128.695 66.1797C129.31 66.7005 129.617 67.4349 129.617 68.3828V72.0469C129.622 72.849 129.734 73.4557 129.953 73.8672V74H127.672ZM125.805 72.4297C126.138 72.4297 126.445 72.3568 126.727 72.2109C127.008 72.0599 127.216 71.8594 127.352 71.6094V70.1562H126.508C125.378 70.1562 124.776 70.5469 124.703 71.3281L124.695 71.4609C124.695 71.7422 124.794 71.974 124.992 72.1562C125.19 72.3385 125.461 72.4297 125.805 72.4297Z" fill="black"/>
<path d="M90.7373 94.3838C90.7373 95.5094 90.4798 96.4163 89.9648 97.1045C89.4499 97.7926 88.7526 98.1367 87.873 98.1367C86.9753 98.1367 86.2689 97.8519 85.7539 97.2822V100.844H84.4893V90.6035H85.6445L85.7061 91.4238C86.221 90.7858 86.9365 90.4668 87.8525 90.4668C88.7412 90.4668 89.443 90.8018 89.958 91.4717C90.4775 92.1416 90.7373 93.0736 90.7373 94.2676V94.3838ZM89.4727 94.2402C89.4727 93.4062 89.2949 92.7477 88.9395 92.2646C88.584 91.7816 88.0964 91.54 87.4766 91.54C86.7109 91.54 86.1367 91.8796 85.7539 92.5586V96.0928C86.1322 96.7673 86.7109 97.1045 87.4902 97.1045C88.0964 97.1045 88.5771 96.8652 88.9326 96.3867C89.2926 95.9036 89.4727 95.1882 89.4727 94.2402ZM96.917 98C96.8441 97.8542 96.7848 97.5944 96.7393 97.2207C96.1514 97.8314 95.4495 98.1367 94.6338 98.1367C93.9046 98.1367 93.3053 97.9316 92.8359 97.5215C92.3711 97.1068 92.1387 96.5827 92.1387 95.9492C92.1387 95.179 92.4303 94.582 93.0137 94.1582C93.6016 93.7298 94.4264 93.5156 95.4883 93.5156H96.7188V92.9346C96.7188 92.4925 96.5866 92.1416 96.3223 91.8818C96.0579 91.6175 95.6683 91.4854 95.1533 91.4854C94.7021 91.4854 94.3239 91.5993 94.0186 91.8271C93.7132 92.055 93.5605 92.3307 93.5605 92.6543H92.2891C92.2891 92.2852 92.4189 91.9297 92.6787 91.5879C92.943 91.2415 93.2985 90.9681 93.7451 90.7676C94.1963 90.5671 94.6908 90.4668 95.2285 90.4668C96.0807 90.4668 96.7484 90.681 97.2314 91.1094C97.7145 91.5332 97.9652 92.1188 97.9834 92.8662V96.2705C97.9834 96.9495 98.07 97.4896 98.2432 97.8906V98H96.917ZM94.8184 97.0361C95.2148 97.0361 95.5908 96.9336 95.9463 96.7285C96.3018 96.5234 96.5592 96.2568 96.7188 95.9287V94.4111H95.7275C94.1781 94.4111 93.4033 94.8646 93.4033 95.7715C93.4033 96.168 93.5355 96.4779 93.7998 96.7012C94.0641 96.9245 94.4036 97.0361 94.8184 97.0361ZM104.272 96.0381C104.272 95.6963 104.143 95.432 103.883 95.2451C103.628 95.0537 103.179 94.8896 102.536 94.7529C101.898 94.6162 101.39 94.4521 101.012 94.2607C100.638 94.0693 100.36 93.8415 100.178 93.5771C100 93.3128 99.9111 92.9984 99.9111 92.6338C99.9111 92.0277 100.166 91.515 100.677 91.0957C101.192 90.6764 101.848 90.4668 102.646 90.4668C103.484 90.4668 104.163 90.6833 104.683 91.1162C105.207 91.5492 105.469 92.1029 105.469 92.7773H104.197C104.197 92.431 104.049 92.1325 103.753 91.8818C103.461 91.6312 103.092 91.5059 102.646 91.5059C102.185 91.5059 101.825 91.6061 101.565 91.8066C101.306 92.0072 101.176 92.2692 101.176 92.5928C101.176 92.8981 101.297 93.1283 101.538 93.2832C101.78 93.4382 102.215 93.5863 102.844 93.7275C103.477 93.8688 103.99 94.0374 104.382 94.2334C104.774 94.4294 105.063 94.6663 105.25 94.9443C105.441 95.2178 105.537 95.5527 105.537 95.9492C105.537 96.61 105.273 97.141 104.744 97.542C104.215 97.9385 103.53 98.1367 102.687 98.1367C102.094 98.1367 101.57 98.0319 101.114 97.8223C100.659 97.6126 100.301 97.321 100.041 96.9473C99.7858 96.569 99.6582 96.1611 99.6582 95.7236H100.923C100.946 96.1475 101.114 96.4847 101.429 96.7354C101.748 96.9814 102.167 97.1045 102.687 97.1045C103.165 97.1045 103.548 97.0088 103.835 96.8174C104.127 96.6214 104.272 96.3617 104.272 96.0381ZM111.491 96.0381C111.491 95.6963 111.361 95.432 111.102 95.2451C110.846 95.0537 110.397 94.8896 109.755 94.7529C109.117 94.6162 108.609 94.4521 108.23 94.2607C107.857 94.0693 107.579 93.8415 107.396 93.5771C107.219 93.3128 107.13 92.9984 107.13 92.6338C107.13 92.0277 107.385 91.515 107.896 91.0957C108.41 90.6764 109.067 90.4668 109.864 90.4668C110.703 90.4668 111.382 90.6833 111.901 91.1162C112.425 91.5492 112.688 92.1029 112.688 92.7773H111.416C111.416 92.431 111.268 92.1325 110.972 91.8818C110.68 91.6312 110.311 91.5059 109.864 91.5059C109.404 91.5059 109.044 91.6061 108.784 91.8066C108.524 92.0072 108.395 92.2692 108.395 92.5928C108.395 92.8981 108.515 93.1283 108.757 93.2832C108.998 93.4382 109.434 93.5863 110.062 93.7275C110.696 93.8688 111.209 94.0374 111.601 94.2334C111.993 94.4294 112.282 94.6663 112.469 94.9443C112.66 95.2178 112.756 95.5527 112.756 95.9492C112.756 96.61 112.492 97.141 111.963 97.542C111.434 97.9385 110.748 98.1367 109.905 98.1367C109.313 98.1367 108.789 98.0319 108.333 97.8223C107.877 97.6126 107.52 97.321 107.26 96.9473C107.005 96.569 106.877 96.1611 106.877 95.7236H108.142C108.164 96.1475 108.333 96.4847 108.647 96.7354C108.966 96.9814 109.386 97.1045 109.905 97.1045C110.384 97.1045 110.767 97.0088 111.054 96.8174C111.345 96.6214 111.491 96.3617 111.491 96.0381ZM120.952 96.2568L122.374 90.6035H123.639L121.485 98H120.46L118.662 92.3945L116.912 98H115.887L113.74 90.6035H114.998L116.454 96.1406L118.177 90.6035H119.195L120.952 96.2568ZM124.596 94.2334C124.596 93.5088 124.737 92.8571 125.02 92.2783C125.307 91.6995 125.703 91.2529 126.209 90.9385C126.719 90.624 127.3 90.4668 127.952 90.4668C128.959 90.4668 129.773 90.8154 130.393 91.5127C131.017 92.21 131.329 93.1374 131.329 94.2949V94.3838C131.329 95.1038 131.19 95.751 130.912 96.3252C130.639 96.8949 130.244 97.3392 129.729 97.6582C129.219 97.9772 128.631 98.1367 127.966 98.1367C126.963 98.1367 126.15 97.7881 125.525 97.0908C124.906 96.3936 124.596 95.4707 124.596 94.3223V94.2334ZM125.867 94.3838C125.867 95.2041 126.056 95.8626 126.435 96.3594C126.817 96.8561 127.328 97.1045 127.966 97.1045C128.608 97.1045 129.119 96.8538 129.497 96.3525C129.875 95.8467 130.064 95.1403 130.064 94.2334C130.064 93.4222 129.871 92.766 129.483 92.2646C129.101 91.7588 128.59 91.5059 127.952 91.5059C127.328 91.5059 126.824 91.7542 126.441 92.251C126.059 92.7477 125.867 93.4587 125.867 94.3838ZM136.49 91.7383C136.299 91.7064 136.091 91.6904 135.868 91.6904C135.039 91.6904 134.476 92.0436 134.18 92.75V98H132.915V90.6035H134.146L134.166 91.458C134.581 90.7972 135.169 90.4668 135.93 90.4668C136.176 90.4668 136.363 90.4987 136.49 90.5625V91.7383ZM137.215 94.2402C137.215 93.1055 137.484 92.194 138.021 91.5059C138.559 90.8132 139.263 90.4668 140.134 90.4668C141 90.4668 141.686 90.763 142.191 91.3555V87.5H143.456V98H142.294L142.232 97.207C141.727 97.8268 141.022 98.1367 140.12 98.1367C139.263 98.1367 138.564 97.7858 138.021 97.084C137.484 96.3822 137.215 95.4661 137.215 94.3359V94.2402ZM138.479 94.3838C138.479 95.2223 138.653 95.8786 138.999 96.3525C139.345 96.8265 139.824 97.0635 140.435 97.0635C141.237 97.0635 141.822 96.7035 142.191 95.9834V92.5859C141.813 91.8887 141.232 91.54 140.448 91.54C139.828 91.54 139.345 91.7793 138.999 92.2578C138.653 92.7363 138.479 93.445 138.479 94.3838Z" fill="black"/>
<path d="M190.707 81.7071C191.098 81.3166 191.098 80.6834 190.707 80.2929L184.343 73.9289C183.953 73.5384 183.319 73.5384 182.929 73.9289C182.538 74.3195 182.538 74.9526 182.929 75.3431L188.586 81L182.929 86.6569C182.538 87.0474 182.538 87.6805 182.929 88.0711C183.319 88.4616 183.953 88.4616 184.343 88.0711L190.707 81.7071ZM160 82L190 82V80L160 80V82Z" fill="black"/>
<path d="M370.707 81.7071C371.098 81.3166 371.098 80.6834 370.707 80.2929L364.343 73.9289C363.953 73.5384 363.319 73.5384 362.929 73.9289C362.538 74.3195 362.538 74.9526 362.929 75.3431L368.586 81L362.929 86.6569C362.538 87.0474 362.538 87.6805 362.929 88.0711C363.319 88.4616 363.953 88.4616 364.343 88.0711L370.707 81.7071ZM340 82L370 82V80L340 80V82Z" fill="black"/>
</svg>
