<svg width="742" height="162" viewBox="0 0 742 162" fill="none" xmlns="http://www.w3.org/2000/svg">
<rect width="742" height="162" fill="white"/>
<rect x="10" y="12.1826" width="120" height="60" rx="4" fill="black"/>
<path d="M22.9925 43.3476H21.0648V47.1826H19.3353V37.2294H22.8353C23.9838 37.2294 24.8702 37.4869 25.4945 38.0019C26.1188 38.5169 26.431 39.262 26.431 40.2372C26.431 40.9026 26.2692 41.4609 25.9457 41.912C25.6267 42.3587 25.18 42.7027 24.6058 42.9443L26.8412 47.0937V47.1826H24.9886L22.9925 43.3476ZM21.0648 41.9599H22.8422C23.4255 41.9599 23.8812 41.8141 24.2093 41.5224C24.5375 41.2262 24.7015 40.8229 24.7015 40.3124C24.7015 39.7792 24.5489 39.3668 24.2435 39.0751C23.9427 38.7835 23.4916 38.6331 22.89 38.624H21.0648V41.9599ZM31.1683 47.3193C30.1156 47.3193 29.2611 46.9889 28.6049 46.3281C27.9532 45.6627 27.6273 44.7786 27.6273 43.6757V43.4706C27.6273 42.7324 27.7686 42.0738 28.0511 41.4951C28.3382 40.9117 28.7393 40.4583 29.2543 40.1347C29.7692 39.8111 30.3435 39.6494 30.9769 39.6494C31.9841 39.6494 32.7611 39.9706 33.308 40.6132C33.8594 41.2558 34.1351 42.165 34.1351 43.3408V44.0107H29.3021C29.3522 44.6214 29.555 45.1044 29.9105 45.4599C30.2705 45.8154 30.7217 45.9931 31.264 45.9931C32.0251 45.9931 32.6449 45.6855 33.1234 45.0703L34.0189 45.9247C33.7227 46.3668 33.3262 46.7109 32.8295 46.957C32.3373 47.1985 31.7836 47.3193 31.1683 47.3193ZM30.9701 40.9824C30.5144 40.9824 30.1452 41.1419 29.8627 41.4609C29.5847 41.7799 29.4069 42.2242 29.3295 42.7939H32.4945V42.6708C32.458 42.1148 32.3099 41.6956 32.0502 41.413C31.7904 41.1259 31.4304 40.9824 30.9701 40.9824ZM38.4691 45.9931C38.8838 45.9931 39.2279 45.8723 39.5013 45.6308C39.7748 45.3893 39.9206 45.0908 39.9388 44.7353H41.5043C41.486 45.1956 41.3425 45.6262 41.0736 46.0273C40.8047 46.4238 40.4401 46.7382 39.9799 46.9706C39.5196 47.2031 39.0228 47.3193 38.4896 47.3193C37.4551 47.3193 36.6348 46.9843 36.0287 46.3144C35.4226 45.6445 35.1195 44.7193 35.1195 43.539V43.3681C35.1195 42.2425 35.4203 41.3424 36.0218 40.6679C36.6234 39.9889 37.4437 39.6494 38.4828 39.6494C39.3623 39.6494 40.0778 39.9068 40.6293 40.4218C41.1853 40.9322 41.4769 41.6044 41.5043 42.4384H39.9388C39.9206 42.0146 39.7748 41.666 39.5013 41.3925C39.2325 41.1191 38.8884 40.9824 38.4691 40.9824C37.9313 40.9824 37.5166 41.1783 37.225 41.5703C36.9333 41.9576 36.7852 42.5478 36.7806 43.3408V43.6074C36.7806 44.4094 36.9242 45.0087 37.2113 45.4052C37.503 45.7971 37.9222 45.9931 38.4691 45.9931ZM42.4476 43.416C42.4476 42.6913 42.5912 42.0397 42.8783 41.4609C43.1654 40.8775 43.5687 40.4309 44.0882 40.121C44.6078 39.8066 45.2048 39.6494 45.8793 39.6494C46.8773 39.6494 47.6862 39.9706 48.306 40.6132C48.9304 41.2558 49.2676 42.108 49.3177 43.1699L49.3246 43.5595C49.3246 44.2887 49.1833 44.9404 48.9007 45.5146C48.6228 46.0888 48.2217 46.5331 47.6976 46.8476C47.1781 47.162 46.5765 47.3193 45.8929 47.3193C44.8493 47.3193 44.0131 46.9729 43.3841 46.2802C42.7598 45.5829 42.4476 44.6555 42.4476 43.498V43.416ZM44.1088 43.5595C44.1088 44.3206 44.266 44.9176 44.5804 45.3505C44.8949 45.7789 45.3324 45.9931 45.8929 45.9931C46.4535 45.9931 46.8887 45.7744 47.1986 45.3369C47.5131 44.8994 47.6703 44.2591 47.6703 43.416C47.6703 42.6686 47.5085 42.0761 47.1849 41.6386C46.8659 41.2011 46.4307 40.9824 45.8793 40.9824C45.3369 40.9824 44.9063 41.1988 44.5873 41.6318C44.2683 42.0602 44.1088 42.7027 44.1088 43.5595ZM52.2709 39.7861L52.3187 40.6406C52.8656 39.9798 53.5834 39.6494 54.472 39.6494C56.0124 39.6494 56.7963 40.5312 56.8236 42.2949V47.1826H55.1625V42.3906C55.1625 41.9212 55.0599 41.5748 54.8549 41.3515C54.6543 41.1236 54.3239 41.0097 53.8636 41.0097C53.1937 41.0097 52.6947 41.3128 52.3666 41.9189V47.1826H50.7054V39.7861H52.2709ZM60.0638 39.7861L60.1117 40.6406C60.6586 39.9798 61.3763 39.6494 62.265 39.6494C63.8054 39.6494 64.5892 40.5312 64.6166 42.2949V47.1826H62.9554V42.3906C62.9554 41.9212 62.8529 41.5748 62.6478 41.3515C62.4473 41.1236 62.1169 41.0097 61.6566 41.0097C60.9867 41.0097 60.4877 41.3128 60.1595 41.9189V47.1826H58.4984V39.7861H60.0638ZM70.7347 47.1826C70.6618 47.0413 70.598 46.8111 70.5433 46.4921C70.0147 47.0436 69.3675 47.3193 68.6019 47.3193C67.8591 47.3193 67.253 47.1074 66.7836 46.6835C66.3142 46.2597 66.0795 45.7356 66.0795 45.1113C66.0795 44.3229 66.3711 43.719 66.9545 43.2997C67.5424 42.8759 68.3809 42.664 69.4701 42.664H70.4886V42.1786C70.4886 41.7958 70.3815 41.4905 70.1674 41.2626C69.9532 41.0302 69.6273 40.914 69.1898 40.914C68.8116 40.914 68.5017 41.0097 68.2601 41.2011C68.0186 41.388 67.8978 41.6272 67.8978 41.9189H66.2367C66.2367 41.5133 66.3711 41.135 66.64 40.7841C66.9089 40.4286 67.2735 40.1507 67.7338 39.9501C68.1986 39.7496 68.7159 39.6494 69.2855 39.6494C70.1514 39.6494 70.8418 39.8681 71.3568 40.3056C71.8718 40.7385 72.1361 41.3492 72.1498 42.1376V45.4736C72.1498 46.1389 72.2432 46.6699 72.43 47.0663V47.1826H70.7347ZM68.9095 45.9863C69.2377 45.9863 69.5453 45.9065 69.8324 45.747C70.1241 45.5875 70.3428 45.3733 70.4886 45.1044V43.7099H69.5931C68.9779 43.7099 68.5153 43.817 68.2054 44.0312C67.8955 44.2454 67.7406 44.5484 67.7406 44.9404C67.7406 45.2594 67.8454 45.5146 68.055 45.706C68.2692 45.8928 68.5541 45.9863 68.9095 45.9863ZM75.6566 47.1826H73.9955V39.7861H75.6566V47.1826ZM73.8929 37.8652C73.8929 37.61 73.9727 37.3981 74.1322 37.2294C74.2963 37.0608 74.5287 36.9765 74.8295 36.9765C75.1302 36.9765 75.3627 37.0608 75.5267 37.2294C75.6908 37.3981 75.7728 37.61 75.7728 37.8652C75.7728 38.1158 75.6908 38.3255 75.5267 38.4941C75.3627 38.6581 75.1302 38.7402 74.8295 38.7402C74.5287 38.7402 74.2963 38.6581 74.1322 38.4941C73.9727 38.3255 73.8929 38.1158 73.8929 37.8652ZM81.6175 45.1728C81.6175 44.8766 81.4945 44.651 81.2484 44.496C81.0069 44.3411 80.6035 44.2044 80.0384 44.0859C79.4733 43.9674 79.0017 43.817 78.6234 43.6347C77.794 43.2337 77.3793 42.6526 77.3793 41.8915C77.3793 41.2535 77.6481 40.7203 78.1859 40.2919C78.7237 39.8635 79.4073 39.6494 80.2367 39.6494C81.1208 39.6494 81.834 39.8681 82.3763 40.3056C82.9232 40.7431 83.1966 41.3105 83.1966 42.0078H81.5355C81.5355 41.6887 81.417 41.4244 81.18 41.2148C80.9431 41.0006 80.6286 40.8935 80.2367 40.8935C79.8721 40.8935 79.5736 40.9778 79.3412 41.1464C79.1133 41.315 78.9994 41.5406 78.9994 41.8232C78.9994 42.0784 79.1065 42.2766 79.3207 42.4179C79.5349 42.5592 79.9678 42.7027 80.6195 42.8486C81.2712 42.9898 81.7816 43.1607 82.1507 43.3613C82.5244 43.5572 82.8002 43.7942 82.9779 44.0722C83.1602 44.3502 83.2513 44.6874 83.2513 45.0839C83.2513 45.7493 82.9756 46.2893 82.4242 46.704C81.8728 47.1142 81.1504 47.3193 80.2572 47.3193C79.6511 47.3193 79.111 47.2099 78.6371 46.9911C78.1631 46.7724 77.794 46.4716 77.5297 46.0888C77.2653 45.706 77.1332 45.2936 77.1332 44.8515H78.7465C78.7692 45.2434 78.9174 45.5465 79.1908 45.7607C79.4642 45.9703 79.8265 46.0751 80.2777 46.0751C80.7152 46.0751 81.0479 45.9931 81.2757 45.829C81.5036 45.6604 81.6175 45.4417 81.6175 45.1728ZM88.85 45.1728C88.85 44.8766 88.7269 44.651 88.4808 44.496C88.2393 44.3411 87.836 44.2044 87.2709 44.0859C86.7058 43.9674 86.2341 43.817 85.8558 43.6347C85.0264 43.2337 84.6117 42.6526 84.6117 41.8915C84.6117 41.2535 84.8806 40.7203 85.4183 40.2919C85.9561 39.8635 86.6397 39.6494 87.4691 39.6494C88.3532 39.6494 89.0664 39.8681 89.6088 40.3056C90.1556 40.7431 90.4291 41.3105 90.4291 42.0078H88.7679C88.7679 41.6887 88.6494 41.4244 88.4125 41.2148C88.1755 41.0006 87.861 40.8935 87.4691 40.8935C87.1045 40.8935 86.806 40.9778 86.5736 41.1464C86.3457 41.315 86.2318 41.5406 86.2318 41.8232C86.2318 42.0784 86.3389 42.2766 86.5531 42.4179C86.7673 42.5592 87.2002 42.7027 87.8519 42.8486C88.5036 42.9898 89.014 43.1607 89.3832 43.3613C89.7569 43.5572 90.0326 43.7942 90.2103 44.0722C90.3926 44.3502 90.4838 44.6874 90.4838 45.0839C90.4838 45.7493 90.208 46.2893 89.6566 46.704C89.1052 47.1142 88.3828 47.3193 87.4896 47.3193C86.8835 47.3193 86.3435 47.2099 85.8695 46.9911C85.3955 46.7724 85.0264 46.4716 84.7621 46.0888C84.4978 45.706 84.3656 45.2936 84.3656 44.8515H85.9789C86.0017 45.2434 86.1498 45.5465 86.4232 45.7607C86.6966 45.9703 87.059 46.0751 87.5101 46.0751C87.9476 46.0751 88.2803 45.9931 88.5082 45.829C88.736 45.6604 88.85 45.4417 88.85 45.1728ZM96.3558 47.1826C96.2829 47.0413 96.2191 46.8111 96.1644 46.4921C95.6358 47.0436 94.9886 47.3193 94.223 47.3193C93.4802 47.3193 92.8741 47.1074 92.4047 46.6835C91.9353 46.2597 91.7006 45.7356 91.7006 45.1113C91.7006 44.3229 91.9922 43.719 92.5756 43.2997C93.1634 42.8759 94.002 42.664 95.0912 42.664H96.1097V42.1786C96.1097 41.7958 96.0026 41.4905 95.7884 41.2626C95.5743 41.0302 95.2484 40.914 94.8109 40.914C94.4327 40.914 94.1228 41.0097 93.8812 41.2011C93.6397 41.388 93.5189 41.6272 93.5189 41.9189H91.8578C91.8578 41.5133 91.9922 41.135 92.2611 40.7841C92.53 40.4286 92.8946 40.1507 93.3549 39.9501C93.8197 39.7496 94.3369 39.6494 94.9066 39.6494C95.7725 39.6494 96.4629 39.8681 96.9779 40.3056C97.4929 40.7385 97.7572 41.3492 97.7709 42.1376V45.4736C97.7709 46.1389 97.8643 46.6699 98.0511 47.0663V47.1826H96.3558ZM94.5306 45.9863C94.8588 45.9863 95.1664 45.9065 95.4535 45.747C95.7452 45.5875 95.9639 45.3733 96.1097 45.1044V43.7099H95.2142C94.599 43.7099 94.1364 43.817 93.8265 44.0312C93.5166 44.2454 93.3617 44.5484 93.3617 44.9404C93.3617 45.2594 93.4665 45.5146 93.6761 45.706C93.8903 45.8928 94.1752 45.9863 94.5306 45.9863ZM101.052 39.7861L101.1 40.6406C101.647 39.9798 102.365 39.6494 103.253 39.6494C104.794 39.6494 105.578 40.5312 105.605 42.2949V47.1826H103.944V42.3906C103.944 41.9212 103.841 41.5748 103.636 41.3515C103.436 41.1236 103.105 41.0097 102.645 41.0097C101.975 41.0097 101.476 41.3128 101.148 41.9189V47.1826H99.4867V39.7861H101.052ZM110.342 45.9931C110.757 45.9931 111.101 45.8723 111.374 45.6308C111.648 45.3893 111.794 45.0908 111.812 44.7353H113.377C113.359 45.1956 113.216 45.6262 112.947 46.0273C112.678 46.4238 112.313 46.7382 111.853 46.9706C111.393 47.2031 110.896 47.3193 110.363 47.3193C109.328 47.3193 108.508 46.9843 107.902 46.3144C107.296 45.6445 106.993 44.7193 106.993 43.539V43.3681C106.993 42.2425 107.293 41.3424 107.895 40.6679C108.496 39.9889 109.317 39.6494 110.356 39.6494C111.235 39.6494 111.951 39.9068 112.502 40.4218C113.058 40.9322 113.35 41.6044 113.377 42.4384H111.812C111.794 42.0146 111.648 41.666 111.374 41.3925C111.106 41.1191 110.761 40.9824 110.342 40.9824C109.804 40.9824 109.39 41.1783 109.098 41.5703C108.806 41.9576 108.658 42.5478 108.654 43.3408V43.6074C108.654 44.4094 108.797 45.0087 109.084 45.4052C109.376 45.7971 109.795 45.9931 110.342 45.9931ZM117.889 47.3193C116.836 47.3193 115.982 46.9889 115.326 46.3281C114.674 45.6627 114.348 44.7786 114.348 43.6757V43.4706C114.348 42.7324 114.489 42.0738 114.772 41.4951C115.059 40.9117 115.46 40.4583 115.975 40.1347C116.49 39.8111 117.064 39.6494 117.698 39.6494C118.705 39.6494 119.482 39.9706 120.029 40.6132C120.58 41.2558 120.856 42.165 120.856 43.3408V44.0107H116.023C116.073 44.6214 116.276 45.1044 116.631 45.4599C116.991 45.8154 117.442 45.9931 117.985 45.9931C118.746 45.9931 119.366 45.6855 119.844 45.0703L120.74 45.9247C120.443 46.3668 120.047 46.7109 119.55 46.957C119.058 47.1985 118.504 47.3193 117.889 47.3193ZM117.691 40.9824C117.235 40.9824 116.866 41.1419 116.583 41.4609C116.305 41.7799 116.128 42.2242 116.05 42.7939H119.215V42.6708C119.179 42.1148 119.031 41.6956 118.771 41.413C118.511 41.1259 118.151 40.9824 117.691 40.9824Z" fill="white"/>
<rect x="612" y="12.1826" width="120" height="60" rx="4" fill="black"/>
<path d="M653.034 43.9423C652.933 45.0042 652.541 45.8336 651.858 46.4306C651.174 47.0231 650.265 47.3193 649.13 47.3193C648.337 47.3193 647.638 47.1324 647.032 46.7587C646.43 46.3805 645.965 45.845 645.637 45.1523C645.309 44.4596 645.138 43.6552 645.124 42.7392V41.8095C645.124 40.8707 645.291 40.0436 645.623 39.3281C645.956 38.6126 646.432 38.0611 647.052 37.6738C647.676 37.2864 648.397 37.0927 649.212 37.0927C650.311 37.0927 651.195 37.3912 651.865 37.9882C652.535 38.5852 652.924 39.4283 653.034 40.5175H651.311C651.229 39.802 651.019 39.287 650.682 38.9726C650.349 38.6536 649.859 38.4941 649.212 38.4941C648.46 38.4941 647.882 38.7698 647.476 39.3212C647.075 39.8681 646.87 40.6725 646.861 41.7343V42.6161C646.861 43.6917 647.052 44.512 647.435 45.0771C647.822 45.6422 648.387 45.9247 649.13 45.9247C649.809 45.9247 650.32 45.7721 650.661 45.4667C651.003 45.1614 651.22 44.6533 651.311 43.9423H653.034ZM656.192 47.1826H654.531V36.6826H656.192V47.1826ZM661.264 47.3193C660.211 47.3193 659.357 46.9889 658.701 46.3281C658.049 45.6627 657.723 44.7786 657.723 43.6757V43.4706C657.723 42.7324 657.864 42.0738 658.147 41.4951C658.434 40.9117 658.835 40.4583 659.35 40.1347C659.865 39.8111 660.439 39.6494 661.073 39.6494C662.08 39.6494 662.857 39.9706 663.404 40.6132C663.955 41.2558 664.231 42.165 664.231 43.3408V44.0107H659.398C659.448 44.6214 659.651 45.1044 660.006 45.4599C660.366 45.8154 660.817 45.9931 661.36 45.9931C662.121 45.9931 662.741 45.6855 663.219 45.0703L664.115 45.9247C663.818 46.3668 663.422 46.7109 662.925 46.957C662.433 47.1985 661.879 47.3193 661.264 47.3193ZM661.066 40.9824C660.61 40.9824 660.241 41.1419 659.958 41.4609C659.68 41.7799 659.503 42.2242 659.425 42.7939H662.59V42.6708C662.554 42.1148 662.406 41.6956 662.146 41.413C661.886 41.1259 661.526 40.9824 661.066 40.9824ZM669.946 47.1826C669.873 47.0413 669.809 46.8111 669.754 46.4921C669.226 47.0436 668.578 47.3193 667.813 47.3193C667.07 47.3193 666.464 47.1074 665.994 46.6835C665.525 46.2597 665.29 45.7356 665.29 45.1113C665.29 44.3229 665.582 43.719 666.165 43.2997C666.753 42.8759 667.592 42.664 668.681 42.664H669.7V42.1786C669.7 41.7958 669.592 41.4905 669.378 41.2626C669.164 41.0302 668.838 40.914 668.401 40.914C668.022 40.914 667.713 41.0097 667.471 41.2011C667.23 41.388 667.109 41.6272 667.109 41.9189H665.448C665.448 41.5133 665.582 41.135 665.851 40.7841C666.12 40.4286 666.484 40.1507 666.945 39.9501C667.41 39.7496 667.927 39.6494 668.496 39.6494C669.362 39.6494 670.053 39.8681 670.568 40.3056C671.083 40.7385 671.347 41.3492 671.361 42.1376V45.4736C671.361 46.1389 671.454 46.6699 671.641 47.0663V47.1826H669.946ZM668.12 45.9863C668.449 45.9863 668.756 45.9065 669.043 45.747C669.335 45.5875 669.554 45.3733 669.7 45.1044V43.7099H668.804C668.189 43.7099 667.726 43.817 667.416 44.0312C667.106 44.2454 666.952 44.5484 666.952 44.9404C666.952 45.2594 667.056 45.5146 667.266 45.706C667.48 45.8928 667.765 45.9863 668.12 45.9863ZM674.642 39.7861L674.69 40.6406C675.237 39.9798 675.954 39.6494 676.843 39.6494C678.383 39.6494 679.167 40.5312 679.195 42.2949V47.1826H677.534V42.3906C677.534 41.9212 677.431 41.5748 677.226 41.3515C677.025 41.1236 676.695 41.0097 676.235 41.0097C675.565 41.0097 675.066 41.3128 674.738 41.9189V47.1826H673.077V39.7861H674.642ZM688.861 46.4579C688.373 47.0322 687.68 47.3193 686.783 47.3193C685.981 47.3193 685.372 47.0846 684.957 46.6152C684.547 46.1458 684.342 45.4667 684.342 44.5781V39.7861H686.003V44.5576C686.003 45.4964 686.393 45.9658 687.172 45.9658C687.979 45.9658 688.523 45.6764 688.806 45.0976V39.7861H690.467V47.1826H688.902L688.861 46.4579ZM698.636 43.5595C698.636 44.7034 698.376 45.6171 697.857 46.3007C697.337 46.9798 696.64 47.3193 695.765 47.3193C694.954 47.3193 694.304 47.0527 693.817 46.5195V50.0263H692.156V39.7861H693.687L693.755 40.538C694.243 39.9456 694.906 39.6494 695.744 39.6494C696.647 39.6494 697.353 39.9866 697.864 40.6611C698.379 41.331 698.636 42.263 698.636 43.457V43.5595ZM696.982 43.416C696.982 42.6777 696.834 42.0921 696.537 41.6591C696.246 41.2262 695.827 41.0097 695.28 41.0097C694.601 41.0097 694.113 41.29 693.817 41.8505V45.1318C694.118 45.706 694.61 45.9931 695.293 45.9931C695.822 45.9931 696.234 45.7812 696.531 45.3574C696.831 44.929 696.982 44.2818 696.982 43.416Z" fill="white"/>
<rect x="160" y="12" width="120" height="60" rx="4" fill="black"/>
<path d="M187.738 42.5566H183.65V45.6191H188.428V47H181.92V37.0469H188.38V38.4414H183.65V41.1895H187.738V42.5566ZM192.331 42.0371L193.74 39.6035H195.585L193.323 43.2471L195.661 47H193.828L192.352 44.4707L190.882 47H189.036L191.374 43.2471L189.119 39.6035H190.951L192.331 42.0371ZM203.194 43.377C203.194 44.5208 202.934 45.4346 202.414 46.1182C201.895 46.7972 201.198 47.1367 200.323 47.1367C199.511 47.1367 198.862 46.8701 198.374 46.3369V49.8438H196.713V39.6035H198.244L198.313 40.3555C198.8 39.763 199.464 39.4668 200.302 39.4668C201.204 39.4668 201.911 39.804 202.421 40.4785C202.936 41.1484 203.194 42.0804 203.194 43.2744V43.377ZM201.539 43.2334C201.539 42.4951 201.391 41.9095 201.095 41.4766C200.803 41.0436 200.384 40.8271 199.837 40.8271C199.158 40.8271 198.671 41.1074 198.374 41.668V44.9492C198.675 45.5234 199.167 45.8105 199.851 45.8105C200.38 45.8105 200.792 45.5986 201.088 45.1748C201.389 44.7464 201.539 44.0993 201.539 43.2334ZM206.372 47H204.711V36.5H206.372V47ZM207.876 43.2334C207.876 42.5088 208.02 41.8571 208.307 41.2783C208.594 40.695 208.997 40.2484 209.517 39.9385C210.036 39.624 210.633 39.4668 211.308 39.4668C212.306 39.4668 213.115 39.7881 213.735 40.4307C214.359 41.0732 214.696 41.9255 214.746 42.9873L214.753 43.377C214.753 44.1061 214.612 44.7578 214.329 45.332C214.051 45.9062 213.65 46.3506 213.126 46.665C212.607 46.9795 212.005 47.1367 211.322 47.1367C210.278 47.1367 209.442 46.7904 208.813 46.0977C208.189 45.4004 207.876 44.473 207.876 43.3154V43.2334ZM209.537 43.377C209.537 44.138 209.695 44.735 210.009 45.168C210.324 45.5964 210.761 45.8105 211.322 45.8105C211.882 45.8105 212.317 45.5918 212.627 45.1543C212.942 44.7168 213.099 44.0765 213.099 43.2334C213.099 42.486 212.937 41.8936 212.614 41.4561C212.295 41.0186 211.859 40.7998 211.308 40.7998C210.766 40.7998 210.335 41.0163 210.016 41.4492C209.697 41.8776 209.537 42.5202 209.537 43.377ZM217.925 47H216.264V39.6035H217.925V47ZM216.161 37.6826C216.161 37.4274 216.241 37.2155 216.401 37.0469C216.565 36.8783 216.797 36.7939 217.098 36.7939C217.399 36.7939 217.631 36.8783 217.795 37.0469C217.959 37.2155 218.041 37.4274 218.041 37.6826C218.041 37.9333 217.959 38.1429 217.795 38.3115C217.631 38.4756 217.399 38.5576 217.098 38.5576C216.797 38.5576 216.565 38.4756 216.401 38.3115C216.241 38.1429 216.161 37.9333 216.161 37.6826ZM221.822 37.8057V39.6035H223.127V40.834H221.822V44.9629C221.822 45.2454 221.876 45.4505 221.986 45.5781C222.1 45.7012 222.3 45.7627 222.587 45.7627C222.779 45.7627 222.972 45.7399 223.168 45.6943V46.9795C222.79 47.0843 222.425 47.1367 222.075 47.1367C220.799 47.1367 220.161 46.4326 220.161 45.0244V40.834H218.944V39.6035H220.161V37.8057H221.822ZM228.822 47C228.749 46.8587 228.685 46.6286 228.63 46.3096C228.102 46.861 227.454 47.1367 226.689 47.1367C225.946 47.1367 225.34 46.9248 224.87 46.501C224.401 46.0771 224.166 45.5531 224.166 44.9287C224.166 44.1403 224.458 43.5365 225.041 43.1172C225.629 42.6934 226.468 42.4814 227.557 42.4814H228.576V41.9961C228.576 41.6133 228.468 41.3079 228.254 41.0801C228.04 40.8477 227.714 40.7314 227.277 40.7314C226.898 40.7314 226.589 40.8271 226.347 41.0186C226.106 41.2054 225.985 41.4447 225.985 41.7363H224.324C224.324 41.3307 224.458 40.9525 224.727 40.6016C224.996 40.2461 225.36 39.9681 225.821 39.7676C226.286 39.5671 226.803 39.4668 227.372 39.4668C228.238 39.4668 228.929 39.6855 229.444 40.123C229.959 40.556 230.223 41.1667 230.237 41.9551V45.291C230.237 45.9564 230.33 46.4873 230.517 46.8838V47H228.822ZM226.996 45.8037C227.325 45.8037 227.632 45.724 227.919 45.5645C228.211 45.4049 228.43 45.1908 228.576 44.9219V43.5273H227.68C227.065 43.5273 226.602 43.6344 226.292 43.8486C225.982 44.0628 225.828 44.3659 225.828 44.7578C225.828 45.0768 225.932 45.332 226.142 45.5234C226.356 45.7103 226.641 45.8037 226.996 45.8037ZM233.744 47H232.082V39.6035H233.744V47ZM231.98 37.6826C231.98 37.4274 232.06 37.2155 232.219 37.0469C232.383 36.8783 232.616 36.7939 232.916 36.7939C233.217 36.7939 233.45 36.8783 233.614 37.0469C233.778 37.2155 233.86 37.4274 233.86 37.6826C233.86 37.9333 233.778 38.1429 233.614 38.3115C233.45 38.4756 233.217 38.5576 232.916 38.5576C232.616 38.5576 232.383 38.4756 232.219 38.3115C232.06 38.1429 231.98 37.9333 231.98 37.6826ZM237.64 37.8057V39.6035H238.946V40.834H237.64V44.9629C237.64 45.2454 237.695 45.4505 237.804 45.5781C237.918 45.7012 238.119 45.7627 238.406 45.7627C238.597 45.7627 238.791 45.7399 238.987 45.6943V46.9795C238.608 47.0843 238.244 47.1367 237.893 47.1367C236.617 47.1367 235.979 46.4326 235.979 45.0244V40.834H234.762V39.6035H235.979V37.8057H237.64ZM241.988 47H240.327V39.6035H241.988V47ZM240.224 37.6826C240.224 37.4274 240.304 37.2155 240.463 37.0469C240.627 36.8783 240.86 36.7939 241.161 36.7939C241.461 36.7939 241.694 36.8783 241.858 37.0469C242.022 37.2155 242.104 37.4274 242.104 37.6826C242.104 37.9333 242.022 38.1429 241.858 38.3115C241.694 38.4756 241.461 38.5576 241.161 38.5576C240.86 38.5576 240.627 38.4756 240.463 38.3115C240.304 38.1429 240.224 37.9333 240.224 37.6826ZM243.492 43.2334C243.492 42.5088 243.635 41.8571 243.922 41.2783C244.209 40.695 244.613 40.2484 245.132 39.9385C245.652 39.624 246.249 39.4668 246.923 39.4668C247.921 39.4668 248.73 39.7881 249.35 40.4307C249.974 41.0732 250.312 41.9255 250.362 42.9873L250.369 43.377C250.369 44.1061 250.227 44.7578 249.945 45.332C249.667 45.9062 249.266 46.3506 248.742 46.665C248.222 46.9795 247.62 47.1367 246.937 47.1367C245.893 47.1367 245.057 46.7904 244.428 46.0977C243.804 45.4004 243.492 44.473 243.492 43.3154V43.2334ZM245.153 43.377C245.153 44.138 245.31 44.735 245.624 45.168C245.939 45.5964 246.376 45.8105 246.937 45.8105C247.497 45.8105 247.933 45.5918 248.243 45.1543C248.557 44.7168 248.714 44.0765 248.714 43.2334C248.714 42.486 248.552 41.8936 248.229 41.4561C247.91 41.0186 247.475 40.7998 246.923 40.7998C246.381 40.7998 245.95 41.0163 245.631 41.4492C245.312 41.8776 245.153 42.5202 245.153 43.377ZM253.315 39.6035L253.363 40.458C253.91 39.7972 254.627 39.4668 255.516 39.4668C257.056 39.4668 257.84 40.3486 257.868 42.1123V47H256.206V42.208C256.206 41.7386 256.104 41.3923 255.899 41.1689C255.698 40.9411 255.368 40.8271 254.908 40.8271C254.238 40.8271 253.739 41.1302 253.411 41.7363V47H251.749V39.6035H253.315Z" fill="white"/>
<rect x="310" y="12" width="120" height="60" rx="4" fill="black"/>
<path d="M350.64 37.6191H355.158V39H348.91V29.0469H350.64V37.6191ZM360.743 39C360.67 38.8587 360.606 38.6286 360.552 38.3096C360.023 38.861 359.376 39.1367 358.61 39.1367C357.868 39.1367 357.261 38.9248 356.792 38.501C356.323 38.0771 356.088 37.5531 356.088 36.9287C356.088 36.1403 356.38 35.5365 356.963 35.1172C357.551 34.6934 358.389 34.4814 359.479 34.4814H360.497V33.9961C360.497 33.6133 360.39 33.3079 360.176 33.0801C359.962 32.8477 359.636 32.7314 359.198 32.7314C358.82 32.7314 358.51 32.8271 358.269 33.0186C358.027 33.2054 357.906 33.4447 357.906 33.7363H356.245C356.245 33.3307 356.38 32.9525 356.648 32.6016C356.917 32.2461 357.282 31.9681 357.742 31.7676C358.207 31.5671 358.724 31.4668 359.294 31.4668C360.16 31.4668 360.85 31.6855 361.365 32.123C361.88 32.556 362.145 33.1667 362.158 33.9551V37.291C362.158 37.9564 362.252 38.4873 362.438 38.8838V39H360.743ZM358.918 37.8037C359.246 37.8037 359.554 37.724 359.841 37.5645C360.132 37.4049 360.351 37.1908 360.497 36.9219V35.5273H359.602C358.986 35.5273 358.524 35.6344 358.214 35.8486C357.904 36.0628 357.749 36.3659 357.749 36.7578C357.749 37.0768 357.854 37.332 358.063 37.5234C358.278 37.7103 358.562 37.8037 358.918 37.8037ZM365.979 29.8057V31.6035H367.285V32.834H365.979V36.9629C365.979 37.2454 366.034 37.4505 366.144 37.5781C366.257 37.7012 366.458 37.7627 366.745 37.7627C366.937 37.7627 367.13 37.7399 367.326 37.6943V38.9795C366.948 39.0843 366.583 39.1367 366.232 39.1367C364.956 39.1367 364.318 38.4326 364.318 37.0244V32.834H363.102V31.6035H364.318V29.8057H365.979ZM371.817 39.1367C370.765 39.1367 369.91 38.8063 369.254 38.1455C368.602 37.4801 368.276 36.596 368.276 35.4932V35.2881C368.276 34.5498 368.418 33.8913 368.7 33.3125C368.987 32.7292 369.388 32.2757 369.903 31.9521C370.418 31.6286 370.993 31.4668 371.626 31.4668C372.633 31.4668 373.41 31.7881 373.957 32.4307C374.508 33.0732 374.784 33.9824 374.784 35.1582V35.8281H369.951C370.001 36.4388 370.204 36.9219 370.56 37.2773C370.92 37.6328 371.371 37.8105 371.913 37.8105C372.674 37.8105 373.294 37.5029 373.772 36.8877L374.668 37.7422C374.372 38.1842 373.975 38.5283 373.479 38.7744C372.986 39.016 372.433 39.1367 371.817 39.1367ZM371.619 32.7998C371.163 32.7998 370.794 32.9593 370.512 33.2783C370.234 33.5973 370.056 34.0417 369.979 34.6113H373.144V34.4883C373.107 33.9323 372.959 33.513 372.699 33.2305C372.439 32.9434 372.079 32.7998 371.619 32.7998ZM379.952 33.1211C379.733 33.0846 379.508 33.0664 379.275 33.0664C378.514 33.0664 378.002 33.3581 377.737 33.9414V39H376.076V31.6035H377.662L377.703 32.4307C378.104 31.7881 378.66 31.4668 379.371 31.4668C379.608 31.4668 379.804 31.4987 379.959 31.5625L379.952 33.1211ZM385.216 39C385.143 38.8587 385.079 38.6286 385.024 38.3096C384.496 38.861 383.849 39.1367 383.083 39.1367C382.34 39.1367 381.734 38.9248 381.265 38.501C380.795 38.0771 380.561 37.5531 380.561 36.9287C380.561 36.1403 380.852 35.5365 381.436 35.1172C382.023 34.6934 382.862 34.4814 383.951 34.4814H384.97V33.9961C384.97 33.6133 384.863 33.3079 384.648 33.0801C384.434 32.8477 384.108 32.7314 383.671 32.7314C383.293 32.7314 382.983 32.8271 382.741 33.0186C382.5 33.2054 382.379 33.4447 382.379 33.7363H380.718C380.718 33.3307 380.852 32.9525 381.121 32.6016C381.39 32.2461 381.755 31.9681 382.215 31.7676C382.68 31.5671 383.197 31.4668 383.767 31.4668C384.632 31.4668 385.323 31.6855 385.838 32.123C386.353 32.556 386.617 33.1667 386.631 33.9551V37.291C386.631 37.9564 386.724 38.4873 386.911 38.8838V39H385.216ZM383.391 37.8037C383.719 37.8037 384.026 37.724 384.313 37.5645C384.605 37.4049 384.824 37.1908 384.97 36.9219V35.5273H384.074C383.459 35.5273 382.996 35.6344 382.687 35.8486C382.377 36.0628 382.222 36.3659 382.222 36.7578C382.222 37.0768 382.326 37.332 382.536 37.5234C382.75 37.7103 383.035 37.8037 383.391 37.8037ZM390.138 39H388.477V28.5H390.138V39ZM335.02 47.6035L335.067 48.376C335.587 47.7699 336.298 47.4668 337.2 47.4668C338.189 47.4668 338.866 47.8451 339.23 48.6016C339.768 47.8451 340.525 47.4668 341.5 47.4668C342.316 47.4668 342.922 47.6924 343.318 48.1436C343.719 48.5947 343.924 49.2601 343.934 50.1396V55H342.272V50.1875C342.272 49.7181 342.17 49.374 341.965 49.1553C341.76 48.9365 341.42 48.8271 340.946 48.8271C340.568 48.8271 340.258 48.9297 340.017 49.1348C339.78 49.3353 339.613 49.5996 339.518 49.9277L339.524 55H337.863V50.1328C337.84 49.2624 337.396 48.8271 336.53 48.8271C335.865 48.8271 335.393 49.0983 335.115 49.6406V55H333.454V47.6035H335.02ZM345.328 51.2334C345.328 50.5088 345.472 49.8571 345.759 49.2783C346.046 48.695 346.449 48.2484 346.969 47.9385C347.488 47.624 348.085 47.4668 348.76 47.4668C349.758 47.4668 350.567 47.7881 351.187 48.4307C351.811 49.0732 352.148 49.9255 352.198 50.9873L352.205 51.377C352.205 52.1061 352.064 52.7578 351.781 53.332C351.503 53.9062 351.102 54.3506 350.578 54.665C350.059 54.9795 349.457 55.1367 348.773 55.1367C347.73 55.1367 346.894 54.7904 346.265 54.0977C345.64 53.4004 345.328 52.473 345.328 51.3154V51.2334ZM346.989 51.377C346.989 52.138 347.146 52.735 347.461 53.168C347.775 53.5964 348.213 53.8105 348.773 53.8105C349.334 53.8105 349.769 53.5918 350.079 53.1543C350.394 52.7168 350.551 52.0765 350.551 51.2334C350.551 50.486 350.389 49.8936 350.065 49.4561C349.746 49.0186 349.311 48.7998 348.76 48.7998C348.217 48.7998 347.787 49.0163 347.468 49.4492C347.149 49.8776 346.989 50.5202 346.989 51.377ZM356.108 52.8945L357.674 47.6035H359.39L356.826 55H355.384L352.8 47.6035H354.522L356.108 52.8945ZM363.594 55.1367C362.541 55.1367 361.687 54.8063 361.03 54.1455C360.379 53.4801 360.053 52.596 360.053 51.4932V51.2881C360.053 50.5498 360.194 49.8913 360.477 49.3125C360.764 48.7292 361.165 48.2757 361.68 47.9521C362.195 47.6286 362.769 47.4668 363.402 47.4668C364.41 47.4668 365.187 47.7881 365.733 48.4307C366.285 49.0732 366.561 49.9824 366.561 51.1582V51.8281H361.728C361.778 52.4388 361.98 52.9219 362.336 53.2773C362.696 53.6328 363.147 53.8105 363.689 53.8105C364.451 53.8105 365.07 53.5029 365.549 52.8877L366.444 53.7422C366.148 54.1842 365.752 54.5283 365.255 54.7744C364.763 55.016 364.209 55.1367 363.594 55.1367ZM363.396 48.7998C362.94 48.7998 362.571 48.9593 362.288 49.2783C362.01 49.5973 361.832 50.0417 361.755 50.6113H364.92V50.4883C364.883 49.9323 364.735 49.513 364.476 49.2305C364.216 48.9434 363.856 48.7998 363.396 48.7998ZM369.418 47.6035L369.466 48.376C369.985 47.7699 370.696 47.4668 371.599 47.4668C372.588 47.4668 373.264 47.8451 373.629 48.6016C374.167 47.8451 374.923 47.4668 375.898 47.4668C376.714 47.4668 377.32 47.6924 377.717 48.1436C378.118 48.5947 378.323 49.2601 378.332 50.1396V55H376.671V50.1875C376.671 49.7181 376.568 49.374 376.363 49.1553C376.158 48.9365 375.819 48.8271 375.345 48.8271C374.966 48.8271 374.657 48.9297 374.415 49.1348C374.178 49.3353 374.012 49.5996 373.916 49.9277L373.923 55H372.262V50.1328C372.239 49.2624 371.795 48.8271 370.929 48.8271C370.263 48.8271 369.792 49.0983 369.514 49.6406V55H367.853V47.6035H369.418ZM383.295 55.1367C382.242 55.1367 381.388 54.8063 380.731 54.1455C380.08 53.4801 379.754 52.596 379.754 51.4932V51.2881C379.754 50.5498 379.895 49.8913 380.178 49.3125C380.465 48.7292 380.866 48.2757 381.381 47.9521C381.896 47.6286 382.47 47.4668 383.104 47.4668C384.111 47.4668 384.888 47.7881 385.435 48.4307C385.986 49.0732 386.262 49.9824 386.262 51.1582V51.8281H381.429C381.479 52.4388 381.682 52.9219 382.037 53.2773C382.397 53.6328 382.848 53.8105 383.391 53.8105C384.152 53.8105 384.771 53.5029 385.25 52.8877L386.146 53.7422C385.849 54.1842 385.453 54.5283 384.956 54.7744C384.464 55.016 383.91 55.1367 383.295 55.1367ZM383.097 48.7998C382.641 48.7998 382.272 48.9593 381.989 49.2783C381.711 49.5973 381.534 50.0417 381.456 50.6113H384.621V50.4883C384.585 49.9323 384.437 49.513 384.177 49.2305C383.917 48.9434 383.557 48.7998 383.097 48.7998ZM389.099 47.6035L389.146 48.458C389.693 47.7972 390.411 47.4668 391.3 47.4668C392.84 47.4668 393.624 48.3486 393.651 50.1123V55H391.99V50.208C391.99 49.7386 391.888 49.3923 391.683 49.1689C391.482 48.9411 391.152 48.8271 390.691 48.8271C390.021 48.8271 389.522 49.1302 389.194 49.7363V55H387.533V47.6035H389.099ZM397.432 45.8057V47.6035H398.737V48.834H397.432V52.9629C397.432 53.2454 397.486 53.4505 397.596 53.5781C397.71 53.7012 397.91 53.7627 398.197 53.7627C398.389 53.7627 398.582 53.7399 398.778 53.6943V54.9795C398.4 55.0843 398.035 55.1367 397.685 55.1367C396.409 55.1367 395.771 54.4326 395.771 53.0244V48.834H394.554V47.6035H395.771V45.8057H397.432ZM404.158 52.9902C404.158 52.694 404.035 52.4684 403.789 52.3135C403.548 52.1585 403.144 52.0218 402.579 51.9033C402.014 51.7848 401.542 51.6344 401.164 51.4521C400.335 51.0511 399.92 50.4701 399.92 49.709C399.92 49.071 400.189 48.5378 400.727 48.1094C401.264 47.681 401.948 47.4668 402.777 47.4668C403.661 47.4668 404.375 47.6855 404.917 48.123C405.464 48.5605 405.737 49.1279 405.737 49.8252H404.076C404.076 49.5062 403.958 49.2419 403.721 49.0322C403.484 48.818 403.169 48.7109 402.777 48.7109C402.413 48.7109 402.114 48.7952 401.882 48.9639C401.654 49.1325 401.54 49.3581 401.54 49.6406C401.54 49.8958 401.647 50.0941 401.861 50.2354C402.076 50.3766 402.508 50.5202 403.16 50.666C403.812 50.8073 404.322 50.9782 404.691 51.1787C405.065 51.3747 405.341 51.6117 405.519 51.8896C405.701 52.1676 405.792 52.5049 405.792 52.9014C405.792 53.5667 405.516 54.1068 404.965 54.5215C404.413 54.9316 403.691 55.1367 402.798 55.1367C402.192 55.1367 401.652 55.0273 401.178 54.8086C400.704 54.5898 400.335 54.2891 400.07 53.9062C399.806 53.5234 399.674 53.111 399.674 52.6689H401.287C401.31 53.0609 401.458 53.3639 401.731 53.5781C402.005 53.7878 402.367 53.8926 402.818 53.8926C403.256 53.8926 403.589 53.8105 403.816 53.6465C404.044 53.4779 404.158 53.2591 404.158 52.9902Z" fill="white"/>
<rect x="461" y="12.1826" width="120" height="60" rx="4" fill="black"/>
<path d="M471.664 47.1826V37.2294H474.604C475.483 37.2294 476.262 37.4254 476.941 37.8173C477.625 38.2092 478.154 38.7652 478.527 39.4853C478.901 40.2053 479.088 41.0302 479.088 41.9599V42.4589C479.088 43.4023 478.899 44.2317 478.521 44.9472C478.147 45.6627 477.611 46.2141 476.914 46.6015C476.221 46.9889 475.426 47.1826 474.528 47.1826H471.664ZM473.394 38.624V45.8017H474.521C475.428 45.8017 476.123 45.5191 476.606 44.954C477.094 44.3844 477.342 43.5686 477.352 42.5068V41.9531C477.352 40.873 477.117 40.0481 476.647 39.4785C476.178 38.9088 475.497 38.624 474.604 38.624H473.394ZM485.069 47.1826C484.996 47.0413 484.933 46.8111 484.878 46.4921C484.349 47.0436 483.702 47.3193 482.937 47.3193C482.194 47.3193 481.588 47.1074 481.118 46.6835C480.649 46.2597 480.414 45.7356 480.414 45.1113C480.414 44.3229 480.706 43.719 481.289 43.2997C481.877 42.8759 482.715 42.664 483.805 42.664H484.823V42.1786C484.823 41.7958 484.716 41.4905 484.502 41.2626C484.288 41.0302 483.962 40.914 483.524 40.914C483.146 40.914 482.836 41.0097 482.595 41.2011C482.353 41.388 482.232 41.6272 482.232 41.9189H480.571C480.571 41.5133 480.706 41.135 480.975 40.7841C481.243 40.4286 481.608 40.1507 482.068 39.9501C482.533 39.7496 483.05 39.6494 483.62 39.6494C484.486 39.6494 485.176 39.8681 485.691 40.3056C486.206 40.7385 486.471 41.3492 486.484 42.1376V45.4736C486.484 46.1389 486.578 46.6699 486.765 47.0663V47.1826H485.069ZM483.244 45.9863C483.572 45.9863 483.88 45.9065 484.167 45.747C484.459 45.5875 484.677 45.3733 484.823 45.1044V43.7099H483.928C483.312 43.7099 482.85 43.817 482.54 44.0312C482.23 44.2454 482.075 44.5484 482.075 44.9404C482.075 45.2594 482.18 45.5146 482.39 45.706C482.604 45.8928 482.889 45.9863 483.244 45.9863ZM490.306 37.9882V39.7861H491.611V41.0165H490.306V45.1454C490.306 45.428 490.36 45.6331 490.47 45.7607C490.584 45.8837 490.784 45.9453 491.071 45.9453C491.263 45.9453 491.456 45.9225 491.652 45.8769V47.162C491.274 47.2669 490.91 47.3193 490.559 47.3193C489.283 47.3193 488.645 46.6152 488.645 45.207V41.0165H487.428V39.7861H488.645V37.9882H490.306ZM497.306 47.1826C497.233 47.0413 497.169 46.8111 497.114 46.4921C496.586 47.0436 495.938 47.3193 495.173 47.3193C494.43 47.3193 493.824 47.1074 493.354 46.6835C492.885 46.2597 492.65 45.7356 492.65 45.1113C492.65 44.3229 492.942 43.719 493.525 43.2997C494.113 42.8759 494.952 42.664 496.041 42.664H497.06V42.1786C497.06 41.7958 496.952 41.4905 496.738 41.2626C496.524 41.0302 496.198 40.914 495.761 40.914C495.382 40.914 495.073 41.0097 494.831 41.2011C494.59 41.388 494.469 41.6272 494.469 41.9189H492.808C492.808 41.5133 492.942 41.135 493.211 40.7841C493.48 40.4286 493.844 40.1507 494.305 39.9501C494.77 39.7496 495.287 39.6494 495.856 39.6494C496.722 39.6494 497.413 39.8681 497.928 40.3056C498.443 40.7385 498.707 41.3492 498.721 42.1376V45.4736C498.721 46.1389 498.814 46.6699 499.001 47.0663V47.1826H497.306ZM495.48 45.9863C495.809 45.9863 496.116 45.9065 496.403 45.747C496.695 45.5875 496.914 45.3733 497.06 45.1044V43.7099H496.164C495.549 43.7099 495.086 43.817 494.776 44.0312C494.466 44.2454 494.312 44.5484 494.312 44.9404C494.312 45.2594 494.416 45.5146 494.626 45.706C494.84 45.8928 495.125 45.9863 495.48 45.9863ZM507.204 47.3193C506.151 47.3193 505.297 46.9889 504.641 46.3281C503.989 45.6627 503.663 44.7786 503.663 43.6757V43.4706C503.663 42.7324 503.804 42.0738 504.087 41.4951C504.374 40.9117 504.775 40.4583 505.29 40.1347C505.805 39.8111 506.379 39.6494 507.013 39.6494C508.02 39.6494 508.797 39.9706 509.344 40.6132C509.895 41.2558 510.171 42.165 510.171 43.3408V44.0107H505.338C505.388 44.6214 505.591 45.1044 505.946 45.4599C506.306 45.8154 506.757 45.9931 507.3 45.9931C508.061 45.9931 508.681 45.6855 509.159 45.0703L510.055 45.9247C509.758 46.3668 509.362 46.7109 508.865 46.957C508.373 47.1985 507.819 47.3193 507.204 47.3193ZM507.006 40.9824C506.55 40.9824 506.181 41.1419 505.898 41.4609C505.62 41.7799 505.443 42.2242 505.365 42.7939H508.53V42.6708C508.494 42.1148 508.346 41.6956 508.086 41.413C507.826 41.1259 507.466 40.9824 507.006 40.9824ZM514.122 42.2197L515.53 39.7861H517.376L515.113 43.4296L517.451 47.1826H515.619L514.143 44.6533L512.673 47.1826H510.827L513.165 43.4296L510.909 39.7861H512.741L514.122 42.2197ZM518.948 47.1826V41.0165H517.82V39.7861H518.948V39.2802C518.953 38.7014 519.076 38.2047 519.317 37.79C519.559 37.3753 519.901 37.0631 520.343 36.8535C520.785 36.6438 521.316 36.539 521.936 36.539C522.3 36.539 522.649 36.5777 522.981 36.6552C523.319 36.7327 523.667 36.8307 524.027 36.9492L523.774 38.3232C523.146 38.1044 522.571 37.9951 522.052 37.9951C521.546 37.9951 521.179 38.1067 520.951 38.33C520.723 38.5488 520.609 38.8792 520.609 39.3212V39.7861H522.065V41.0165H520.609V47.1826H518.948ZM524.813 47.1826H523.152V39.7861H524.813V47.1826ZM528.423 47.1826H526.762V36.6826H528.423V47.1826ZM532.319 37.9882V39.7861H533.625V41.0165H532.319V45.1454C532.319 45.428 532.374 45.6331 532.483 45.7607C532.597 45.8837 532.798 45.9453 533.085 45.9453C533.276 45.9453 533.47 45.9225 533.666 45.8769V47.162C533.288 47.2669 532.923 47.3193 532.572 47.3193C531.296 47.3193 530.658 46.6152 530.658 45.207V41.0165H529.441V39.7861H530.658V37.9882H532.319ZM538.772 41.3036C538.554 41.2672 538.328 41.249 538.096 41.249C537.335 41.249 536.822 41.5406 536.558 42.124V47.1826H534.896V39.7861H536.482L536.523 40.6132C536.924 39.9706 537.48 39.6494 538.191 39.6494C538.428 39.6494 538.624 39.6813 538.779 39.7451L538.772 41.3036ZM544.036 47.1826C543.963 47.0413 543.899 46.8111 543.845 46.4921C543.316 47.0436 542.669 47.3193 541.903 47.3193C541.16 47.3193 540.554 47.1074 540.085 46.6835C539.616 46.2597 539.381 45.7356 539.381 45.1113C539.381 44.3229 539.673 43.719 540.256 43.2997C540.844 42.8759 541.682 42.664 542.771 42.664H543.79V42.1786C543.79 41.7958 543.683 41.4905 543.469 41.2626C543.255 41.0302 542.929 40.914 542.491 40.914C542.113 40.914 541.803 41.0097 541.562 41.2011C541.32 41.388 541.199 41.6272 541.199 41.9189H539.538C539.538 41.5133 539.673 41.135 539.941 40.7841C540.21 40.4286 540.575 40.1507 541.035 39.9501C541.5 39.7496 542.017 39.6494 542.587 39.6494C543.453 39.6494 544.143 39.8681 544.658 40.3056C545.173 40.7385 545.438 41.3492 545.451 42.1376V45.4736C545.451 46.1389 545.545 46.6699 545.731 47.0663V47.1826H544.036ZM542.211 45.9863C542.539 45.9863 542.847 45.9065 543.134 45.747C543.425 45.5875 543.644 45.3733 543.79 45.1044V43.7099H542.895C542.279 43.7099 541.817 43.817 541.507 44.0312C541.197 44.2454 541.042 44.5484 541.042 44.9404C541.042 45.2594 541.147 45.5146 541.356 45.706C541.571 45.8928 541.855 45.9863 542.211 45.9863ZM549.272 37.9882V39.7861H550.578V41.0165H549.272V45.1454C549.272 45.428 549.327 45.6331 549.437 45.7607C549.55 45.8837 549.751 45.9453 550.038 45.9453C550.229 45.9453 550.423 45.9225 550.619 45.8769V47.162C550.241 47.2669 549.876 47.3193 549.525 47.3193C548.249 47.3193 547.611 46.6152 547.611 45.207V41.0165H546.395V39.7861H547.611V37.9882H549.272ZM553.62 47.1826H551.959V39.7861H553.62V47.1826ZM551.856 37.8652C551.856 37.61 551.936 37.3981 552.096 37.2294C552.26 37.0608 552.492 36.9765 552.793 36.9765C553.094 36.9765 553.326 37.0608 553.49 37.2294C553.654 37.3981 553.736 37.61 553.736 37.8652C553.736 38.1158 553.654 38.3255 553.49 38.4941C553.326 38.6581 553.094 38.7402 552.793 38.7402C552.492 38.7402 552.26 38.6581 552.096 38.4941C551.936 38.3255 551.856 38.1158 551.856 37.8652ZM555.124 43.416C555.124 42.6913 555.268 42.0397 555.555 41.4609C555.842 40.8775 556.245 40.4309 556.765 40.121C557.284 39.8066 557.881 39.6494 558.556 39.6494C559.554 39.6494 560.363 39.9706 560.982 40.6132C561.607 41.2558 561.944 42.108 561.994 43.1699L562.001 43.5595C562.001 44.2887 561.86 44.9404 561.577 45.5146C561.299 46.0888 560.898 46.5331 560.374 46.8476C559.854 47.162 559.253 47.3193 558.569 47.3193C557.526 47.3193 556.689 46.9729 556.061 46.2802C555.436 45.5829 555.124 44.6555 555.124 43.498V43.416ZM556.785 43.5595C556.785 44.3206 556.942 44.9176 557.257 45.3505C557.571 45.7789 558.009 45.9931 558.569 45.9931C559.13 45.9931 559.565 45.7744 559.875 45.3369C560.189 44.8994 560.347 44.2591 560.347 43.416C560.347 42.6686 560.185 42.0761 559.861 41.6386C559.542 41.2011 559.107 40.9824 558.556 40.9824C558.013 40.9824 557.583 41.1988 557.264 41.6318C556.945 42.0602 556.785 42.7027 556.785 43.5595ZM564.947 39.7861L564.995 40.6406C565.542 39.9798 566.26 39.6494 567.148 39.6494C568.689 39.6494 569.473 40.5312 569.5 42.2949V47.1826H567.839V42.3906C567.839 41.9212 567.736 41.5748 567.531 41.3515C567.331 41.1236 567 41.0097 566.54 41.0097C565.87 41.0097 565.371 41.3128 565.043 41.9189V47.1826H563.382V39.7861H564.947Z" fill="white"/>
<path d="M611.707 42.8897C612.098 42.4991 612.098 41.866 611.707 41.4754L605.343 35.1115C604.953 34.721 604.319 34.721 603.929 35.1115C603.538 35.502 603.538 36.1352 603.929 36.5257L609.586 42.1826L603.929 47.8394C603.538 48.2299 603.538 48.8631 603.929 49.2536C604.319 49.6441 604.953 49.6441 605.343 49.2536L611.707 42.8897ZM581 43.1826L611 43.1826V41.1826L581 41.1826V43.1826Z" fill="black"/>
<path d="M310.707 42.7071C311.098 42.3166 311.098 41.6834 310.707 41.2929L304.343 34.9289C303.953 34.5384 303.319 34.5384 302.929 34.9289C302.538 35.3195 302.538 35.9526 302.929 36.3431L308.586 42L302.929 47.6569C302.538 48.0474 302.538 48.6805 302.929 49.0711C303.319 49.4616 303.953 49.4616 304.343 49.0711L310.707 42.7071ZM280 43L310 43V41L280 41V43Z" fill="black"/>
<path d="M160.707 42.8897C161.098 42.4991 161.098 41.866 160.707 41.4754L154.343 35.1115C153.953 34.721 153.319 34.721 152.929 35.1115C152.538 35.502 152.538 36.1352 152.929 36.5257L158.586 42.1826L152.929 47.8394C152.538 48.2299 152.538 48.8631 152.929 49.2536C153.319 49.6441 153.953 49.6441 154.343 49.2536L160.707 42.8897ZM130 43.1826L160 43.1826V41.1826L130 41.1826V43.1826Z" fill="black"/>
<path d="M460.707 42.7071C461.098 42.3166 461.098 41.6834 460.707 41.2929L454.343 34.9289C453.953 34.5384 453.319 34.5384 452.929 34.9289C452.538 35.3195 452.538 35.9526 452.929 36.3431L458.586 42L452.929 47.6569C452.538 48.0474 452.538 48.6805 452.929 49.0711C453.319 49.4616 453.953 49.4616 454.343 49.0711L460.707 42.7071ZM430 43L460 43V41L430 41V43Z" fill="black"/>
<path d="M367 131.06L366 131.06L366 132.06L367 132.06L367 131.06ZM367.707 70.9754C367.317 70.5849 366.683 70.5849 366.293 70.9754L359.929 77.3394C359.538 77.7299 359.538 78.3631 359.929 78.7536C360.319 79.1441 360.953 79.1441 361.343 78.7536L367 73.0967L372.657 78.7536C373.047 79.1441 373.681 79.1441 374.071 78.7536C374.462 78.3631 374.462 77.7299 374.071 77.3394L367.707 70.9754ZM527.482 131.06L527.482 132.06L528.482 132.06L528.482 131.06L527.482 131.06ZM368 131.06L368 71.6825L366 71.6825L366 131.06L368 131.06ZM526.482 71.6825L526.482 131.06L528.482 131.06L528.482 71.6825L526.482 71.6825ZM527.482 130.06L367 130.06L367 132.06L527.482 132.06L527.482 130.06Z" fill="black"/>
</svg>
