<svg width="600" height="300" viewBox="0 0 600 300" fill="none" xmlns="http://www.w3.org/2000/svg">
<rect width="600" height="300" fill="white"/>
<path d="M235.558 23.0566H230.53V37H228.479V23.0566H223.462V21.3594H235.558V23.0566ZM235.966 31.0811C235.966 29.9424 236.188 28.9183 236.632 28.0088C237.083 27.0993 237.706 26.3975 238.501 25.9033C239.303 25.4092 240.216 25.1621 241.24 25.1621C242.823 25.1621 244.101 25.71 245.075 26.8057C246.056 27.9014 246.547 29.3587 246.547 31.1777V31.3174C246.547 32.4489 246.328 33.4658 245.892 34.3682C245.462 35.2633 244.842 35.9616 244.033 36.4629C243.231 36.9642 242.307 37.2148 241.262 37.2148C239.686 37.2148 238.408 36.667 237.427 35.5713C236.453 34.4756 235.966 33.0254 235.966 31.2207V31.0811ZM237.964 31.3174C237.964 32.6064 238.261 33.6413 238.855 34.4219C239.457 35.2025 240.259 35.5928 241.262 35.5928C242.271 35.5928 243.074 35.1989 243.668 34.4111C244.262 33.6162 244.56 32.5062 244.56 31.0811C244.56 29.8063 244.255 28.7751 243.646 27.9873C243.045 27.1924 242.243 26.7949 241.24 26.7949C240.259 26.7949 239.468 27.1852 238.866 27.9658C238.265 28.7464 237.964 29.8636 237.964 31.3174ZM252.283 31.6182L251.037 32.918V37H249.05V20.5H251.037V30.4795L252.101 29.2012L255.721 25.377H258.138L253.615 30.2324L258.664 37H256.333L252.283 31.6182ZM262.349 37H260.361V25.377H262.349V37ZM260.2 22.2939C260.2 21.9717 260.297 21.6995 260.49 21.4775C260.691 21.2555 260.984 21.1445 261.371 21.1445C261.758 21.1445 262.051 21.2555 262.252 21.4775C262.452 21.6995 262.553 21.9717 262.553 22.2939C262.553 22.6162 262.452 22.8848 262.252 23.0996C262.051 23.3145 261.758 23.4219 261.371 23.4219C260.984 23.4219 260.691 23.3145 260.49 23.0996C260.297 22.8848 260.2 22.6162 260.2 22.2939ZM265.013 31.0811C265.013 29.9424 265.235 28.9183 265.679 28.0088C266.13 27.0993 266.753 26.3975 267.548 25.9033C268.35 25.4092 269.263 25.1621 270.287 25.1621C271.87 25.1621 273.148 25.71 274.122 26.8057C275.103 27.9014 275.594 29.3587 275.594 31.1777V31.3174C275.594 32.4489 275.375 33.4658 274.938 34.3682C274.509 35.2633 273.889 35.9616 273.08 36.4629C272.278 36.9642 271.354 37.2148 270.309 37.2148C268.733 37.2148 267.455 36.667 266.474 35.5713C265.5 34.4756 265.013 33.0254 265.013 31.2207V31.0811ZM267.011 31.3174C267.011 32.6064 267.308 33.6413 267.902 34.4219C268.504 35.2025 269.306 35.5928 270.309 35.5928C271.318 35.5928 272.12 35.1989 272.715 34.4111C273.309 33.6162 273.606 32.5062 273.606 31.0811C273.606 29.8063 273.302 28.7751 272.693 27.9873C272.092 27.1924 271.29 26.7949 270.287 26.7949C269.306 26.7949 268.515 27.1852 267.913 27.9658C267.312 28.7464 267.011 29.8636 267.011 31.3174ZM277.366 25.7637L276.238 24.9902C276.904 24.0592 277.248 23.0781 277.27 22.0469V20.5H279.235V21.8965C279.228 22.6126 279.049 23.3288 278.698 24.0449C278.354 24.7539 277.91 25.3268 277.366 25.7637ZM287.195 33.917C287.195 33.3799 286.991 32.9645 286.583 32.6709C286.182 32.3701 285.477 32.1123 284.467 31.8975C283.464 31.6826 282.666 31.4248 282.071 31.124C281.484 30.8232 281.047 30.4652 280.761 30.0498C280.481 29.6344 280.342 29.1403 280.342 28.5674C280.342 27.6149 280.743 26.8092 281.545 26.1504C282.354 25.4915 283.385 25.1621 284.639 25.1621C285.956 25.1621 287.023 25.5023 287.84 26.1826C288.663 26.863 289.075 27.7331 289.075 28.793H287.077C287.077 28.2487 286.844 27.7796 286.379 27.3857C285.921 26.9919 285.34 26.7949 284.639 26.7949C283.915 26.7949 283.35 26.9525 282.941 27.2676C282.533 27.5827 282.329 27.9945 282.329 28.5029C282.329 28.9827 282.519 29.3444 282.898 29.5879C283.278 29.8314 283.962 30.0641 284.95 30.2861C285.946 30.5081 286.751 30.7731 287.367 31.0811C287.983 31.389 288.438 31.7614 288.731 32.1982C289.032 32.6279 289.183 33.1543 289.183 33.7773C289.183 34.8158 288.767 35.6501 287.937 36.2803C287.106 36.9033 286.028 37.2148 284.703 37.2148C283.772 37.2148 282.949 37.0501 282.232 36.7207C281.516 36.3913 280.954 35.9329 280.546 35.3457C280.145 34.7513 279.944 34.1104 279.944 33.4229H281.932C281.967 34.0889 282.232 34.6188 282.727 35.0127C283.228 35.3994 283.887 35.5928 284.703 35.5928C285.455 35.5928 286.057 35.4424 286.508 35.1416C286.966 34.8337 287.195 34.4255 287.195 33.917ZM303.276 30.6729H299.603V37H297.529V21.3594H302.707C304.469 21.3594 305.822 21.7604 306.768 22.5625C307.72 23.3646 308.196 24.5319 308.196 26.0645C308.196 27.0384 307.931 27.887 307.401 28.6104C306.879 29.3337 306.148 29.8743 305.21 30.2324L308.884 36.8711V37H306.671L303.276 30.6729ZM299.603 28.9863H302.771C303.796 28.9863 304.608 28.7214 305.21 28.1914C305.819 27.6615 306.123 26.9525 306.123 26.0645C306.123 25.0977 305.833 24.3564 305.253 23.8408C304.68 23.3252 303.849 23.0638 302.761 23.0566H299.603V28.9863ZM317.961 35.8506C317.188 36.7601 316.052 37.2148 314.556 37.2148C313.317 37.2148 312.371 36.8568 311.72 36.1406C311.075 35.4173 310.749 34.3503 310.742 32.9395V25.377H312.729V32.8857C312.729 34.6475 313.446 35.5283 314.878 35.5283C316.396 35.5283 317.406 34.9626 317.907 33.8311V25.377H319.895V37H318.004L317.961 35.8506ZM324.804 25.377L324.868 26.8379C325.756 25.7207 326.916 25.1621 328.349 25.1621C330.805 25.1621 332.044 26.5479 332.065 29.3193V37H330.078V29.3086C330.071 28.4707 329.878 27.8512 329.498 27.4502C329.126 27.0492 328.542 26.8486 327.747 26.8486C327.103 26.8486 326.537 27.0205 326.05 27.3643C325.563 27.708 325.183 28.1592 324.911 28.7178V37H322.924V25.377H324.804ZM337.759 22.5625V25.377H339.929V26.9131H337.759V34.1211C337.759 34.5866 337.855 34.9375 338.049 35.1738C338.242 35.403 338.572 35.5176 339.037 35.5176C339.266 35.5176 339.581 35.4746 339.982 35.3887V37C339.46 37.1432 338.951 37.2148 338.457 37.2148C337.569 37.2148 336.899 36.9463 336.448 36.4092C335.997 35.8721 335.771 35.1094 335.771 34.1211V26.9131H333.655V25.377H335.771V22.5625H337.759ZM344.419 37H342.432V25.377H344.419V37ZM342.271 22.2939C342.271 21.9717 342.367 21.6995 342.561 21.4775C342.761 21.2555 343.055 21.1445 343.441 21.1445C343.828 21.1445 344.122 21.2555 344.322 21.4775C344.523 21.6995 344.623 21.9717 344.623 22.2939C344.623 22.6162 344.523 22.8848 344.322 23.0996C344.122 23.3145 343.828 23.4219 343.441 23.4219C343.055 23.4219 342.761 23.3145 342.561 23.0996C342.367 22.8848 342.271 22.6162 342.271 22.2939ZM349.479 25.377L349.532 26.666C350.384 25.6634 351.534 25.1621 352.98 25.1621C354.606 25.1621 355.713 25.7852 356.3 27.0312C356.687 26.4727 357.188 26.0215 357.804 25.6777C358.427 25.334 359.161 25.1621 360.006 25.1621C362.555 25.1621 363.852 26.512 363.895 29.2119V37H361.907V29.3301C361.907 28.4993 361.717 27.8799 361.338 27.4717C360.958 27.0563 360.321 26.8486 359.426 26.8486C358.688 26.8486 358.076 27.0706 357.589 27.5146C357.102 27.9515 356.819 28.5423 356.74 29.2871V37H354.742V29.3838C354.742 27.6937 353.915 26.8486 352.261 26.8486C350.957 26.8486 350.066 27.4036 349.586 28.5137V37H347.599V25.377H349.479ZM371.726 37.2148C370.15 37.2148 368.868 36.6992 367.88 35.668C366.892 34.6296 366.397 33.2438 366.397 31.5107V31.1455C366.397 29.9925 366.616 28.9648 367.053 28.0625C367.497 27.153 368.113 26.444 368.9 25.9355C369.695 25.4199 370.555 25.1621 371.479 25.1621C372.99 25.1621 374.164 25.6598 375.002 26.6553C375.84 27.6507 376.259 29.0758 376.259 30.9307V31.7578H368.385C368.413 32.9036 368.746 33.8311 369.384 34.54C370.028 35.2419 370.845 35.5928 371.833 35.5928C372.535 35.5928 373.129 35.4495 373.616 35.1631C374.103 34.8766 374.529 34.4971 374.895 34.0244L376.108 34.9697C375.134 36.4665 373.674 37.2148 371.726 37.2148ZM371.479 26.7949C370.676 26.7949 370.003 27.0885 369.459 27.6758C368.915 28.2559 368.578 29.0723 368.449 30.125H374.271V29.9746C374.214 28.9648 373.942 28.1842 373.455 27.6328C372.968 27.0742 372.309 26.7949 371.479 26.7949Z" fill="black"/>
<rect x="50.5" y="58.5" width="499" height="219" rx="7.5" fill="white" stroke="black"/>
<rect x="96.5" y="108.5" width="179" height="119" rx="3.5" fill="white" stroke="black"/>
<path d="M135.377 151.232H131.797V155H130.672V146.469H135.957V147.395H131.797V150.312H135.377V151.232ZM138.312 155H137.229V148.66H138.312V155ZM137.141 146.979C137.141 146.803 137.193 146.654 137.299 146.533C137.408 146.412 137.568 146.352 137.779 146.352C137.99 146.352 138.15 146.412 138.26 146.533C138.369 146.654 138.424 146.803 138.424 146.979C138.424 147.154 138.369 147.301 138.26 147.418C138.15 147.535 137.99 147.594 137.779 147.594C137.568 147.594 137.408 147.535 137.299 147.418C137.193 147.301 137.141 147.154 137.141 146.979ZM142.18 150.975L143.586 148.66H144.852L142.777 151.795L144.916 155H143.662L142.197 152.627L140.732 155H139.473L141.611 151.795L139.537 148.66H140.791L142.18 150.975ZM148.52 155.117C147.66 155.117 146.961 154.836 146.422 154.273C145.883 153.707 145.613 152.951 145.613 152.006V151.807C145.613 151.178 145.732 150.617 145.971 150.125C146.213 149.629 146.549 149.242 146.979 148.965C147.412 148.684 147.881 148.543 148.385 148.543C149.209 148.543 149.85 148.814 150.307 149.357C150.764 149.9 150.992 150.678 150.992 151.689V152.141H146.697C146.713 152.766 146.895 153.271 147.242 153.658C147.594 154.041 148.039 154.232 148.578 154.232C148.961 154.232 149.285 154.154 149.551 153.998C149.816 153.842 150.049 153.635 150.248 153.377L150.91 153.893C150.379 154.709 149.582 155.117 148.52 155.117ZM148.385 149.434C147.947 149.434 147.58 149.594 147.283 149.914C146.986 150.23 146.803 150.676 146.732 151.25H149.908V151.168C149.877 150.617 149.729 150.191 149.463 149.891C149.197 149.586 148.838 149.434 148.385 149.434ZM151.988 151.777C151.988 150.805 152.219 150.023 152.68 149.434C153.141 148.84 153.744 148.543 154.49 148.543C155.232 148.543 155.82 148.797 156.254 149.305V146H157.338V155H156.342L156.289 154.32C155.855 154.852 155.252 155.117 154.479 155.117C153.744 155.117 153.145 154.816 152.68 154.215C152.219 153.613 151.988 152.828 151.988 151.859V151.777ZM153.072 151.9C153.072 152.619 153.221 153.182 153.518 153.588C153.814 153.994 154.225 154.197 154.748 154.197C155.436 154.197 155.938 153.889 156.254 153.271V150.359C155.93 149.762 155.432 149.463 154.76 149.463C154.229 149.463 153.814 149.668 153.518 150.078C153.221 150.488 153.072 151.096 153.072 151.9ZM161.281 151.818H158.422V150.934H161.281V151.818ZM166.033 153.318C166.033 153.025 165.922 152.799 165.699 152.639C165.48 152.475 165.096 152.334 164.545 152.217C163.998 152.1 163.562 151.959 163.238 151.795C162.918 151.631 162.68 151.436 162.523 151.209C162.371 150.982 162.295 150.713 162.295 150.4C162.295 149.881 162.514 149.441 162.951 149.082C163.393 148.723 163.955 148.543 164.639 148.543C165.357 148.543 165.939 148.729 166.385 149.1C166.834 149.471 167.059 149.945 167.059 150.523H165.969C165.969 150.227 165.842 149.971 165.588 149.756C165.338 149.541 165.021 149.434 164.639 149.434C164.244 149.434 163.936 149.52 163.713 149.691C163.49 149.863 163.379 150.088 163.379 150.365C163.379 150.627 163.482 150.824 163.689 150.957C163.896 151.09 164.27 151.217 164.809 151.338C165.352 151.459 165.791 151.604 166.127 151.771C166.463 151.939 166.711 152.143 166.871 152.381C167.035 152.615 167.117 152.902 167.117 153.242C167.117 153.809 166.891 154.264 166.438 154.607C165.984 154.947 165.396 155.117 164.674 155.117C164.166 155.117 163.717 155.027 163.326 154.848C162.936 154.668 162.629 154.418 162.406 154.098C162.188 153.773 162.078 153.424 162.078 153.049H163.162C163.182 153.412 163.326 153.701 163.596 153.916C163.869 154.127 164.229 154.232 164.674 154.232C165.084 154.232 165.412 154.15 165.658 153.986C165.908 153.818 166.033 153.596 166.033 153.318ZM169.707 155H168.623V148.66H169.707V155ZM168.535 146.979C168.535 146.803 168.588 146.654 168.693 146.533C168.803 146.412 168.963 146.352 169.174 146.352C169.385 146.352 169.545 146.412 169.654 146.533C169.764 146.654 169.818 146.803 169.818 146.979C169.818 147.154 169.764 147.301 169.654 147.418C169.545 147.535 169.385 147.594 169.174 147.594C168.963 147.594 168.803 147.535 168.693 147.418C168.588 147.301 168.535 147.154 168.535 146.979ZM172.467 154.115H176.176V155H171.143V154.203L174.641 149.557H171.195V148.66H176V149.428L172.467 154.115ZM179.938 155.117C179.078 155.117 178.379 154.836 177.84 154.273C177.301 153.707 177.031 152.951 177.031 152.006V151.807C177.031 151.178 177.15 150.617 177.389 150.125C177.631 149.629 177.967 149.242 178.396 148.965C178.83 148.684 179.299 148.543 179.803 148.543C180.627 148.543 181.268 148.814 181.725 149.357C182.182 149.9 182.41 150.678 182.41 151.689V152.141H178.115C178.131 152.766 178.312 153.271 178.66 153.658C179.012 154.041 179.457 154.232 179.996 154.232C180.379 154.232 180.703 154.154 180.969 153.998C181.234 153.842 181.467 153.635 181.666 153.377L182.328 153.893C181.797 154.709 181 155.117 179.938 155.117ZM179.803 149.434C179.365 149.434 178.998 149.594 178.701 149.914C178.404 150.23 178.221 150.676 178.15 151.25H181.326V151.168C181.295 150.617 181.146 150.191 180.881 149.891C180.615 149.586 180.256 149.434 179.803 149.434ZM188.117 147.125V148.66H189.301V149.498H188.117V153.43C188.117 153.684 188.17 153.875 188.275 154.004C188.381 154.129 188.561 154.191 188.814 154.191C188.939 154.191 189.111 154.168 189.33 154.121V155C189.045 155.078 188.768 155.117 188.498 155.117C188.014 155.117 187.648 154.971 187.402 154.678C187.156 154.385 187.033 153.969 187.033 153.43V149.498H185.879V148.66H187.033V147.125H188.117ZM191.656 149.428C192.137 148.838 192.762 148.543 193.531 148.543C194.871 148.543 195.547 149.299 195.559 150.811V155H194.475V150.805C194.471 150.348 194.365 150.01 194.158 149.791C193.955 149.572 193.637 149.463 193.203 149.463C192.852 149.463 192.543 149.557 192.277 149.744C192.012 149.932 191.805 150.178 191.656 150.482V155H190.572V146H191.656V149.428ZM200.246 149.633C200.082 149.605 199.904 149.592 199.713 149.592C199.002 149.592 198.52 149.895 198.266 150.5V155H197.182V148.66H198.236L198.254 149.393C198.609 148.826 199.113 148.543 199.766 148.543C199.977 148.543 200.137 148.57 200.246 148.625V149.633ZM203.762 155.117C202.902 155.117 202.203 154.836 201.664 154.273C201.125 153.707 200.855 152.951 200.855 152.006V151.807C200.855 151.178 200.975 150.617 201.213 150.125C201.455 149.629 201.791 149.242 202.221 148.965C202.654 148.684 203.123 148.543 203.627 148.543C204.451 148.543 205.092 148.814 205.549 149.357C206.006 149.9 206.234 150.678 206.234 151.689V152.141H201.939C201.955 152.766 202.137 153.271 202.484 153.658C202.836 154.041 203.281 154.232 203.82 154.232C204.203 154.232 204.527 154.154 204.793 153.998C205.059 153.842 205.291 153.635 205.49 153.377L206.152 153.893C205.621 154.709 204.824 155.117 203.762 155.117ZM203.627 149.434C203.189 149.434 202.822 149.594 202.525 149.914C202.229 150.23 202.045 150.676 201.975 151.25H205.15V151.168C205.119 150.617 204.971 150.191 204.705 149.891C204.439 149.586 204.08 149.434 203.627 149.434ZM211.408 155C211.346 154.875 211.295 154.652 211.256 154.332C210.752 154.855 210.15 155.117 209.451 155.117C208.826 155.117 208.312 154.941 207.91 154.59C207.512 154.234 207.312 153.785 207.312 153.242C207.312 152.582 207.562 152.07 208.062 151.707C208.566 151.34 209.273 151.156 210.184 151.156H211.238V150.658C211.238 150.279 211.125 149.979 210.898 149.756C210.672 149.529 210.338 149.416 209.896 149.416C209.51 149.416 209.186 149.514 208.924 149.709C208.662 149.904 208.531 150.141 208.531 150.418H207.441C207.441 150.102 207.553 149.797 207.775 149.504C208.002 149.207 208.307 148.973 208.689 148.801C209.076 148.629 209.5 148.543 209.961 148.543C210.691 148.543 211.264 148.727 211.678 149.094C212.092 149.457 212.307 149.959 212.322 150.6V153.518C212.322 154.1 212.396 154.562 212.545 154.906V155H211.408ZM209.609 154.174C209.949 154.174 210.271 154.086 210.576 153.91C210.881 153.734 211.102 153.506 211.238 153.225V151.924H210.389C209.061 151.924 208.396 152.312 208.396 153.09C208.396 153.43 208.51 153.695 208.736 153.887C208.963 154.078 209.254 154.174 209.609 154.174ZM213.758 151.777C213.758 150.805 213.988 150.023 214.449 149.434C214.91 148.84 215.514 148.543 216.26 148.543C217.002 148.543 217.59 148.797 218.023 149.305V146H219.107V155H218.111L218.059 154.32C217.625 154.852 217.021 155.117 216.248 155.117C215.514 155.117 214.914 154.816 214.449 154.215C213.988 153.613 213.758 152.828 213.758 151.859V151.777ZM214.842 151.9C214.842 152.619 214.99 153.182 215.287 153.588C215.584 153.994 215.994 154.197 216.518 154.197C217.205 154.197 217.707 153.889 218.023 153.271V150.359C217.699 149.762 217.201 149.463 216.529 149.463C215.998 149.463 215.584 149.668 215.287 150.078C214.99 150.488 214.842 151.096 214.842 151.9ZM226.15 151.9C226.15 152.865 225.93 153.643 225.488 154.232C225.047 154.822 224.449 155.117 223.695 155.117C222.926 155.117 222.32 154.873 221.879 154.385V157.438H220.795V148.66H221.785L221.838 149.363C222.279 148.816 222.893 148.543 223.678 148.543C224.439 148.543 225.041 148.83 225.482 149.404C225.928 149.979 226.15 150.777 226.15 151.801V151.9ZM225.066 151.777C225.066 151.062 224.914 150.498 224.609 150.084C224.305 149.67 223.887 149.463 223.355 149.463C222.699 149.463 222.207 149.754 221.879 150.336V153.365C222.203 153.943 222.699 154.232 223.367 154.232C223.887 154.232 224.299 154.027 224.604 153.617C224.912 153.203 225.066 152.59 225.066 151.777ZM227.246 151.771C227.246 151.15 227.367 150.592 227.609 150.096C227.855 149.6 228.195 149.217 228.629 148.947C229.066 148.678 229.564 148.543 230.123 148.543C230.986 148.543 231.684 148.842 232.215 149.439C232.75 150.037 233.018 150.832 233.018 151.824V151.9C233.018 152.518 232.898 153.072 232.66 153.564C232.426 154.053 232.088 154.434 231.646 154.707C231.209 154.98 230.705 155.117 230.135 155.117C229.275 155.117 228.578 154.818 228.043 154.221C227.512 153.623 227.246 152.832 227.246 151.848V151.771ZM228.336 151.9C228.336 152.604 228.498 153.168 228.822 153.594C229.15 154.02 229.588 154.232 230.135 154.232C230.686 154.232 231.123 154.018 231.447 153.588C231.771 153.154 231.934 152.549 231.934 151.771C231.934 151.076 231.768 150.514 231.436 150.084C231.107 149.65 230.67 149.434 230.123 149.434C229.588 149.434 229.156 149.646 228.828 150.072C228.5 150.498 228.336 151.107 228.336 151.9ZM234.09 151.771C234.09 151.15 234.211 150.592 234.453 150.096C234.699 149.6 235.039 149.217 235.473 148.947C235.91 148.678 236.408 148.543 236.967 148.543C237.83 148.543 238.527 148.842 239.059 149.439C239.594 150.037 239.861 150.832 239.861 151.824V151.9C239.861 152.518 239.742 153.072 239.504 153.564C239.27 154.053 238.932 154.434 238.49 154.707C238.053 154.98 237.549 155.117 236.979 155.117C236.119 155.117 235.422 154.818 234.887 154.221C234.355 153.623 234.09 152.832 234.09 151.848V151.771ZM235.18 151.9C235.18 152.604 235.342 153.168 235.666 153.594C235.994 154.02 236.432 154.232 236.979 154.232C237.529 154.232 237.967 154.018 238.291 153.588C238.615 153.154 238.777 152.549 238.777 151.771C238.777 151.076 238.611 150.514 238.279 150.084C237.951 149.65 237.514 149.434 236.967 149.434C236.432 149.434 236 149.646 235.672 150.072C235.344 150.498 235.18 151.107 235.18 151.9ZM242.398 155H241.314V146H242.398V155ZM152.639 169V163.498H151.637V162.66H152.639V162.01C152.639 161.33 152.82 160.805 153.184 160.434C153.547 160.062 154.061 159.877 154.725 159.877C154.975 159.877 155.223 159.91 155.469 159.977L155.41 160.855C155.227 160.82 155.031 160.803 154.824 160.803C154.473 160.803 154.201 160.906 154.01 161.113C153.818 161.316 153.723 161.609 153.723 161.992V162.66H155.076V163.498H153.723V169H152.639ZM155.99 165.771C155.99 165.15 156.111 164.592 156.354 164.096C156.6 163.6 156.939 163.217 157.373 162.947C157.811 162.678 158.309 162.543 158.867 162.543C159.73 162.543 160.428 162.842 160.959 163.439C161.494 164.037 161.762 164.832 161.762 165.824V165.9C161.762 166.518 161.643 167.072 161.404 167.564C161.17 168.053 160.832 168.434 160.391 168.707C159.953 168.98 159.449 169.117 158.879 169.117C158.02 169.117 157.322 168.818 156.787 168.221C156.256 167.623 155.99 166.832 155.99 165.848V165.771ZM157.08 165.9C157.08 166.604 157.242 167.168 157.566 167.594C157.895 168.02 158.332 168.232 158.879 168.232C159.43 168.232 159.867 168.018 160.191 167.588C160.516 167.154 160.678 166.549 160.678 165.771C160.678 165.076 160.512 164.514 160.18 164.084C159.852 163.65 159.414 163.434 158.867 163.434C158.332 163.434 157.9 163.646 157.572 164.072C157.244 164.498 157.08 165.107 157.08 165.9ZM166.186 163.633C166.021 163.605 165.844 163.592 165.652 163.592C164.941 163.592 164.459 163.895 164.205 164.5V169H163.121V162.66H164.176L164.193 163.393C164.549 162.826 165.053 162.543 165.705 162.543C165.916 162.543 166.076 162.57 166.186 162.625V163.633ZM172.795 169.117C171.936 169.117 171.236 168.836 170.697 168.273C170.158 167.707 169.889 166.951 169.889 166.006V165.807C169.889 165.178 170.008 164.617 170.246 164.125C170.488 163.629 170.824 163.242 171.254 162.965C171.688 162.684 172.156 162.543 172.66 162.543C173.484 162.543 174.125 162.814 174.582 163.357C175.039 163.9 175.268 164.678 175.268 165.689V166.141H170.973C170.988 166.766 171.17 167.271 171.518 167.658C171.869 168.041 172.314 168.232 172.854 168.232C173.236 168.232 173.561 168.154 173.826 167.998C174.092 167.842 174.324 167.635 174.523 167.377L175.186 167.893C174.654 168.709 173.857 169.117 172.795 169.117ZM172.66 163.434C172.223 163.434 171.855 163.594 171.559 163.914C171.262 164.23 171.078 164.676 171.008 165.25H174.184V165.168C174.152 164.617 174.004 164.191 173.738 163.891C173.473 163.586 173.113 163.434 172.66 163.434ZM178.654 164.975L180.061 162.66H181.326L179.252 165.795L181.391 169H180.137L178.672 166.627L177.207 169H175.947L178.086 165.795L176.012 162.66H177.266L178.654 164.975ZM184.994 169.117C184.135 169.117 183.436 168.836 182.896 168.273C182.357 167.707 182.088 166.951 182.088 166.006V165.807C182.088 165.178 182.207 164.617 182.445 164.125C182.688 163.629 183.023 163.242 183.453 162.965C183.887 162.684 184.355 162.543 184.859 162.543C185.684 162.543 186.324 162.814 186.781 163.357C187.238 163.9 187.467 164.678 187.467 165.689V166.141H183.172C183.188 166.766 183.369 167.271 183.717 167.658C184.068 168.041 184.514 168.232 185.053 168.232C185.436 168.232 185.76 168.154 186.025 167.998C186.291 167.842 186.523 167.635 186.723 167.377L187.385 167.893C186.854 168.709 186.057 169.117 184.994 169.117ZM184.859 163.434C184.422 163.434 184.055 163.594 183.758 163.914C183.461 164.23 183.277 164.676 183.207 165.25H186.383V165.168C186.352 164.617 186.203 164.191 185.938 163.891C185.672 163.586 185.312 163.434 184.859 163.434ZM191.27 168.232C191.656 168.232 191.994 168.115 192.283 167.881C192.572 167.646 192.732 167.354 192.764 167.002H193.789C193.77 167.365 193.645 167.711 193.414 168.039C193.184 168.367 192.875 168.629 192.488 168.824C192.105 169.02 191.699 169.117 191.27 169.117C190.406 169.117 189.719 168.83 189.207 168.256C188.699 167.678 188.445 166.889 188.445 165.889V165.707C188.445 165.09 188.559 164.541 188.785 164.061C189.012 163.58 189.336 163.207 189.758 162.941C190.184 162.676 190.686 162.543 191.264 162.543C191.975 162.543 192.564 162.756 193.033 163.182C193.506 163.607 193.758 164.16 193.789 164.84H192.764C192.732 164.43 192.576 164.094 192.295 163.832C192.018 163.566 191.674 163.434 191.264 163.434C190.713 163.434 190.285 163.633 189.98 164.031C189.68 164.426 189.529 164.998 189.529 165.748V165.953C189.529 166.684 189.68 167.246 189.98 167.641C190.281 168.035 190.711 168.232 191.27 168.232ZM198.922 168.373C198.5 168.869 197.881 169.117 197.064 169.117C196.389 169.117 195.873 168.922 195.518 168.531C195.166 168.137 194.988 167.555 194.984 166.785V162.66H196.068V166.756C196.068 167.717 196.459 168.197 197.24 168.197C198.068 168.197 198.619 167.889 198.893 167.271V162.66H199.977V169H198.945L198.922 168.373ZM203.1 161.125V162.66H204.283V163.498H203.1V167.43C203.1 167.684 203.152 167.875 203.258 168.004C203.363 168.129 203.543 168.191 203.797 168.191C203.922 168.191 204.094 168.168 204.312 168.121V169C204.027 169.078 203.75 169.117 203.48 169.117C202.996 169.117 202.631 168.971 202.385 168.678C202.139 168.385 202.016 167.969 202.016 167.43V163.498H200.861V162.66H202.016V161.125H203.1ZM205.15 165.771C205.15 165.15 205.271 164.592 205.514 164.096C205.76 163.6 206.1 163.217 206.533 162.947C206.971 162.678 207.469 162.543 208.027 162.543C208.891 162.543 209.588 162.842 210.119 163.439C210.654 164.037 210.922 164.832 210.922 165.824V165.9C210.922 166.518 210.803 167.072 210.564 167.564C210.33 168.053 209.992 168.434 209.551 168.707C209.113 168.98 208.609 169.117 208.039 169.117C207.18 169.117 206.482 168.818 205.947 168.221C205.416 167.623 205.15 166.832 205.15 165.848V165.771ZM206.24 165.9C206.24 166.604 206.402 167.168 206.727 167.594C207.055 168.02 207.492 168.232 208.039 168.232C208.59 168.232 209.027 168.018 209.352 167.588C209.676 167.154 209.838 166.549 209.838 165.771C209.838 165.076 209.672 164.514 209.34 164.084C209.012 163.65 208.574 163.434 208.027 163.434C207.492 163.434 207.061 163.646 206.732 164.072C206.404 164.498 206.24 165.107 206.24 165.9ZM215.346 163.633C215.182 163.605 215.004 163.592 214.812 163.592C214.102 163.592 213.619 163.895 213.365 164.5V169H212.281V162.66H213.336L213.354 163.393C213.709 162.826 214.213 162.543 214.865 162.543C215.076 162.543 215.236 162.57 215.346 162.625V163.633ZM220.039 167.318C220.039 167.025 219.928 166.799 219.705 166.639C219.486 166.475 219.102 166.334 218.551 166.217C218.004 166.1 217.568 165.959 217.244 165.795C216.924 165.631 216.686 165.436 216.529 165.209C216.377 164.982 216.301 164.713 216.301 164.4C216.301 163.881 216.52 163.441 216.957 163.082C217.398 162.723 217.961 162.543 218.645 162.543C219.363 162.543 219.945 162.729 220.391 163.1C220.84 163.471 221.064 163.945 221.064 164.523H219.975C219.975 164.227 219.848 163.971 219.594 163.756C219.344 163.541 219.027 163.434 218.645 163.434C218.25 163.434 217.941 163.52 217.719 163.691C217.496 163.863 217.385 164.088 217.385 164.365C217.385 164.627 217.488 164.824 217.695 164.957C217.902 165.09 218.275 165.217 218.814 165.338C219.357 165.459 219.797 165.604 220.133 165.771C220.469 165.939 220.717 166.143 220.877 166.381C221.041 166.615 221.123 166.902 221.123 167.242C221.123 167.809 220.896 168.264 220.443 168.607C219.99 168.947 219.402 169.117 218.68 169.117C218.172 169.117 217.723 169.027 217.332 168.848C216.941 168.668 216.635 168.418 216.412 168.098C216.193 167.773 216.084 167.424 216.084 167.049H217.168C217.188 167.412 217.332 167.701 217.602 167.916C217.875 168.127 218.234 168.232 218.68 168.232C219.09 168.232 219.418 168.15 219.664 167.986C219.914 167.818 220.039 167.596 220.039 167.318ZM148.771 179.537C148.771 178.654 148.889 177.807 149.123 176.994C149.361 176.182 149.715 175.443 150.184 174.779C150.652 174.115 151.139 173.646 151.643 173.373L151.865 174.088C151.295 174.525 150.826 175.193 150.459 176.092C150.096 176.99 149.896 177.996 149.861 179.109L149.855 179.607C149.855 181.115 150.131 182.424 150.682 183.533C151.014 184.197 151.408 184.717 151.865 185.092L151.643 185.754C151.123 185.465 150.627 184.98 150.154 184.301C149.232 182.973 148.771 181.385 148.771 179.537ZM154.771 175.102V176.66H155.855V177.902H154.771V181.066C154.771 181.301 154.816 181.469 154.906 181.57C154.996 181.672 155.168 181.723 155.422 181.723C155.609 181.723 155.775 181.709 155.92 181.682V182.965C155.588 183.066 155.246 183.117 154.895 183.117C153.707 183.117 153.102 182.518 153.078 181.318V177.902H152.152V176.66H153.078V175.102H154.771ZM156.359 179.771C156.359 179.143 156.48 178.582 156.723 178.09C156.965 177.598 157.312 177.217 157.766 176.947C158.223 176.678 158.752 176.543 159.354 176.543C160.209 176.543 160.906 176.805 161.445 177.328C161.988 177.852 162.291 178.562 162.354 179.461L162.365 179.895C162.365 180.867 162.094 181.648 161.551 182.238C161.008 182.824 160.279 183.117 159.365 183.117C158.451 183.117 157.721 182.824 157.174 182.238C156.631 181.652 156.359 180.855 156.359 179.848V179.771ZM158.053 179.895C158.053 180.496 158.166 180.957 158.393 181.277C158.619 181.594 158.943 181.752 159.365 181.752C159.775 181.752 160.096 181.596 160.326 181.283C160.557 180.967 160.672 180.463 160.672 179.771C160.672 179.182 160.557 178.725 160.326 178.4C160.096 178.076 159.771 177.914 159.354 177.914C158.939 177.914 158.619 178.076 158.393 178.4C158.166 178.721 158.053 179.219 158.053 179.895ZM165.711 180.457L165.102 181.066V183H163.408V174H165.102V178.986L165.43 178.564L167.053 176.66H169.086L166.795 179.303L169.285 183H167.34L165.711 180.457ZM171.605 183H169.906V176.66H171.605V183ZM169.807 175.02C169.807 174.766 169.891 174.557 170.059 174.393C170.23 174.229 170.463 174.146 170.756 174.146C171.045 174.146 171.275 174.229 171.447 174.393C171.619 174.557 171.705 174.766 171.705 175.02C171.705 175.277 171.617 175.488 171.441 175.652C171.27 175.816 171.041 175.898 170.756 175.898C170.471 175.898 170.24 175.816 170.064 175.652C169.893 175.488 169.807 175.277 169.807 175.02ZM172.742 179.771C172.742 179.143 172.863 178.582 173.105 178.09C173.348 177.598 173.695 177.217 174.148 176.947C174.605 176.678 175.135 176.543 175.736 176.543C176.592 176.543 177.289 176.805 177.828 177.328C178.371 177.852 178.674 178.562 178.736 179.461L178.748 179.895C178.748 180.867 178.477 181.648 177.934 182.238C177.391 182.824 176.662 183.117 175.748 183.117C174.834 183.117 174.104 182.824 173.557 182.238C173.014 181.652 172.742 180.855 172.742 179.848V179.771ZM174.436 179.895C174.436 180.496 174.549 180.957 174.775 181.277C175.002 181.594 175.326 181.752 175.748 181.752C176.158 181.752 176.479 181.596 176.709 181.283C176.939 180.967 177.055 180.463 177.055 179.771C177.055 179.182 176.939 178.725 176.709 178.4C176.479 178.076 176.154 177.914 175.736 177.914C175.322 177.914 175.002 178.076 174.775 178.4C174.549 178.721 174.436 179.219 174.436 179.895ZM179.873 182.168C179.873 181.898 179.963 181.68 180.143 181.512C180.326 181.344 180.555 181.26 180.828 181.26C181.105 181.26 181.334 181.344 181.514 181.512C181.697 181.68 181.789 181.898 181.789 182.168C181.789 182.434 181.699 182.65 181.52 182.818C181.34 182.982 181.109 183.064 180.828 183.064C180.551 183.064 180.322 182.982 180.143 182.818C179.963 182.65 179.873 182.434 179.873 182.168ZM179.873 177.369C179.873 177.1 179.963 176.881 180.143 176.713C180.326 176.545 180.555 176.461 180.828 176.461C181.105 176.461 181.334 176.545 181.514 176.713C181.697 176.881 181.789 177.1 181.789 177.369C181.789 177.635 181.699 177.852 181.52 178.02C181.34 178.184 181.109 178.266 180.828 178.266C180.551 178.266 180.322 178.184 180.143 178.02C179.963 177.852 179.873 177.635 179.873 177.369ZM183.26 182.168C183.26 181.898 183.35 181.68 183.529 181.512C183.713 181.344 183.941 181.26 184.215 181.26C184.492 181.26 184.721 181.344 184.9 181.512C185.084 181.68 185.176 181.898 185.176 182.168C185.176 182.434 185.086 182.65 184.906 182.818C184.727 182.982 184.496 183.064 184.215 183.064C183.938 183.064 183.709 182.982 183.529 182.818C183.35 182.65 183.26 182.434 183.26 182.168ZM183.26 177.369C183.26 177.1 183.35 176.881 183.529 176.713C183.713 176.545 183.941 176.461 184.215 176.461C184.492 176.461 184.721 176.545 184.9 176.713C185.084 176.881 185.176 177.1 185.176 177.369C185.176 177.635 185.086 177.852 184.906 178.02C184.727 178.184 184.496 178.266 184.215 178.266C183.938 178.266 183.709 178.184 183.529 178.02C183.35 177.852 183.26 177.635 183.26 177.369ZM189.998 181.248C189.998 181.041 189.895 180.879 189.688 180.762C189.484 180.641 189.156 180.533 188.703 180.439C187.195 180.123 186.441 179.482 186.441 178.518C186.441 177.955 186.674 177.486 187.139 177.111C187.607 176.732 188.219 176.543 188.973 176.543C189.777 176.543 190.42 176.732 190.9 177.111C191.385 177.49 191.627 177.982 191.627 178.588H189.934C189.934 178.346 189.855 178.146 189.699 177.99C189.543 177.83 189.299 177.75 188.967 177.75C188.682 177.75 188.461 177.814 188.305 177.943C188.148 178.072 188.07 178.236 188.07 178.436C188.07 178.623 188.158 178.775 188.334 178.893C188.514 179.006 188.814 179.105 189.236 179.191C189.658 179.273 190.014 179.367 190.303 179.473C191.197 179.801 191.645 180.369 191.645 181.178C191.645 181.756 191.396 182.225 190.9 182.584C190.404 182.939 189.764 183.117 188.979 183.117C188.447 183.117 187.975 183.023 187.561 182.836C187.15 182.645 186.828 182.385 186.594 182.057C186.359 181.725 186.242 181.367 186.242 180.984H187.848C187.863 181.285 187.975 181.516 188.182 181.676C188.389 181.836 188.666 181.916 189.014 181.916C189.338 181.916 189.582 181.855 189.746 181.734C189.914 181.609 189.998 181.447 189.998 181.248ZM198.447 179.889C198.447 180.865 198.225 181.648 197.779 182.238C197.338 182.824 196.74 183.117 195.986 183.117C195.346 183.117 194.828 182.895 194.434 182.449V185.438H192.74V176.66H194.311L194.369 177.281C194.779 176.789 195.314 176.543 195.975 176.543C196.756 176.543 197.363 176.832 197.797 177.41C198.23 177.988 198.447 178.785 198.447 179.801V179.889ZM196.754 179.766C196.754 179.176 196.648 178.721 196.438 178.4C196.23 178.08 195.928 177.92 195.529 177.92C194.998 177.92 194.633 178.123 194.434 178.529V181.125C194.641 181.543 195.01 181.752 195.541 181.752C196.35 181.752 196.754 181.09 196.754 179.766ZM203.176 183C203.098 182.848 203.041 182.658 203.006 182.432C202.596 182.889 202.062 183.117 201.406 183.117C200.785 183.117 200.27 182.938 199.859 182.578C199.453 182.219 199.25 181.766 199.25 181.219C199.25 180.547 199.498 180.031 199.994 179.672C200.494 179.312 201.215 179.131 202.156 179.127H202.936V178.764C202.936 178.471 202.859 178.236 202.707 178.061C202.559 177.885 202.322 177.797 201.998 177.797C201.713 177.797 201.488 177.865 201.324 178.002C201.164 178.139 201.084 178.326 201.084 178.564H199.391C199.391 178.197 199.504 177.857 199.73 177.545C199.957 177.232 200.277 176.988 200.691 176.812C201.105 176.633 201.57 176.543 202.086 176.543C202.867 176.543 203.486 176.74 203.943 177.135C204.404 177.525 204.635 178.076 204.635 178.787V181.535C204.639 182.137 204.723 182.592 204.887 182.9V183H203.176ZM201.775 181.822C202.025 181.822 202.256 181.768 202.467 181.658C202.678 181.545 202.834 181.395 202.936 181.207V180.117H202.303C201.455 180.117 201.004 180.41 200.949 180.996L200.943 181.096C200.943 181.307 201.018 181.48 201.166 181.617C201.314 181.754 201.518 181.822 201.775 181.822ZM211.449 180.697L212.281 176.66H213.916L212.299 183H210.881L209.68 179.01L208.479 183H207.066L205.449 176.66H207.084L207.91 180.691L209.07 176.66H210.295L211.449 180.697ZM216.318 176.66L216.371 177.393C216.824 176.826 217.432 176.543 218.193 176.543C218.865 176.543 219.365 176.74 219.693 177.135C220.021 177.529 220.189 178.119 220.197 178.904V183H218.504V178.945C218.504 178.586 218.426 178.326 218.27 178.166C218.113 178.002 217.854 177.92 217.49 177.92C217.014 177.92 216.656 178.123 216.418 178.529V183H214.725V176.66H216.318ZM224.158 179.596C224.158 180.467 224.043 181.303 223.812 182.104C223.586 182.9 223.236 183.637 222.764 184.312C222.295 184.988 221.803 185.469 221.287 185.754L221.059 185.092C221.66 184.631 222.143 183.916 222.506 182.947C222.873 181.975 223.061 180.896 223.068 179.713V179.525C223.068 178.705 222.982 177.943 222.811 177.24C222.639 176.533 222.398 175.9 222.09 175.342C221.785 174.783 221.441 174.348 221.059 174.035L221.287 173.373C221.803 173.658 222.293 174.135 222.758 174.803C223.227 175.471 223.576 176.207 223.807 177.012C224.041 177.816 224.158 178.678 224.158 179.596Z" fill="black"/>
<rect x="324.5" y="108.5" width="179" height="119" rx="3.5" fill="white" stroke="black"/>
<path d="M351.49 155V146.469H354.279C355.205 146.469 355.9 146.66 356.365 147.043C356.834 147.426 357.068 147.992 357.068 148.742C357.068 149.141 356.955 149.494 356.729 149.803C356.502 150.107 356.193 150.344 355.803 150.512C356.264 150.641 356.627 150.887 356.893 151.25C357.162 151.609 357.297 152.039 357.297 152.539C357.297 153.305 357.049 153.906 356.553 154.344C356.057 154.781 355.355 155 354.449 155H351.49ZM352.615 151.01V154.08H354.473C354.996 154.08 355.408 153.945 355.709 153.676C356.014 153.402 356.166 153.027 356.166 152.551C356.166 151.523 355.607 151.01 354.49 151.01H352.615ZM352.615 150.107H354.314C354.807 150.107 355.199 149.984 355.492 149.738C355.789 149.492 355.938 149.158 355.938 148.736C355.938 148.268 355.801 147.928 355.527 147.717C355.254 147.502 354.838 147.395 354.279 147.395H352.615V150.107ZM358.51 151.771C358.51 151.15 358.631 150.592 358.873 150.096C359.119 149.6 359.459 149.217 359.893 148.947C360.33 148.678 360.828 148.543 361.387 148.543C362.25 148.543 362.947 148.842 363.479 149.439C364.014 150.037 364.281 150.832 364.281 151.824V151.9C364.281 152.518 364.162 153.072 363.924 153.564C363.689 154.053 363.352 154.434 362.91 154.707C362.473 154.98 361.969 155.117 361.398 155.117C360.539 155.117 359.842 154.818 359.307 154.221C358.775 153.623 358.51 152.832 358.51 151.848V151.771ZM359.6 151.9C359.6 152.604 359.762 153.168 360.086 153.594C360.414 154.02 360.852 154.232 361.398 154.232C361.949 154.232 362.387 154.018 362.711 153.588C363.035 153.154 363.197 152.549 363.197 151.771C363.197 151.076 363.031 150.514 362.699 150.084C362.371 149.65 361.934 149.434 361.387 149.434C360.852 149.434 360.42 149.646 360.092 150.072C359.764 150.498 359.6 151.107 359.6 151.9ZM369.555 154.373C369.133 154.869 368.514 155.117 367.697 155.117C367.021 155.117 366.506 154.922 366.15 154.531C365.799 154.137 365.621 153.555 365.617 152.785V148.66H366.701V152.756C366.701 153.717 367.092 154.197 367.873 154.197C368.701 154.197 369.252 153.889 369.525 153.271V148.66H370.609V155H369.578L369.555 154.373ZM373.287 148.66L373.322 149.457C373.807 148.848 374.439 148.543 375.221 148.543C376.561 148.543 377.236 149.299 377.248 150.811V155H376.164V150.805C376.16 150.348 376.055 150.01 375.848 149.791C375.645 149.572 375.326 149.463 374.893 149.463C374.541 149.463 374.232 149.557 373.967 149.744C373.701 149.932 373.494 150.178 373.346 150.482V155H372.262V148.66H373.287ZM378.619 151.777C378.619 150.805 378.85 150.023 379.311 149.434C379.771 148.84 380.375 148.543 381.121 148.543C381.863 148.543 382.451 148.797 382.885 149.305V146H383.969V155H382.973L382.92 154.32C382.486 154.852 381.883 155.117 381.109 155.117C380.375 155.117 379.775 154.816 379.311 154.215C378.85 153.613 378.619 152.828 378.619 151.859V151.777ZM379.703 151.9C379.703 152.619 379.852 153.182 380.148 153.588C380.445 153.994 380.855 154.197 381.379 154.197C382.066 154.197 382.568 153.889 382.885 153.271V150.359C382.561 149.762 382.062 149.463 381.391 149.463C380.859 149.463 380.445 149.668 380.148 150.078C379.852 150.488 379.703 151.096 379.703 151.9ZM388.287 155.117C387.428 155.117 386.729 154.836 386.189 154.273C385.65 153.707 385.381 152.951 385.381 152.006V151.807C385.381 151.178 385.5 150.617 385.738 150.125C385.98 149.629 386.316 149.242 386.746 148.965C387.18 148.684 387.648 148.543 388.152 148.543C388.977 148.543 389.617 148.814 390.074 149.357C390.531 149.9 390.76 150.678 390.76 151.689V152.141H386.465C386.48 152.766 386.662 153.271 387.01 153.658C387.361 154.041 387.807 154.232 388.346 154.232C388.729 154.232 389.053 154.154 389.318 153.998C389.584 153.842 389.816 153.635 390.016 153.377L390.678 153.893C390.146 154.709 389.35 155.117 388.287 155.117ZM388.152 149.434C387.715 149.434 387.348 149.594 387.051 149.914C386.754 150.23 386.57 150.676 386.5 151.25H389.676V151.168C389.645 150.617 389.496 150.191 389.23 149.891C388.965 149.586 388.605 149.434 388.152 149.434ZM391.756 151.777C391.756 150.805 391.986 150.023 392.447 149.434C392.908 148.84 393.512 148.543 394.258 148.543C395 148.543 395.588 148.797 396.021 149.305V146H397.105V155H396.109L396.057 154.32C395.623 154.852 395.02 155.117 394.246 155.117C393.512 155.117 392.912 154.816 392.447 154.215C391.986 153.613 391.756 152.828 391.756 151.859V151.777ZM392.84 151.9C392.84 152.619 392.988 153.182 393.285 153.588C393.582 153.994 393.992 154.197 394.516 154.197C395.203 154.197 395.705 153.889 396.021 153.271V150.359C395.697 149.762 395.199 149.463 394.527 149.463C393.996 149.463 393.582 149.668 393.285 150.078C392.988 150.488 392.84 151.096 392.84 151.9ZM403.24 147.125V148.66H404.424V149.498H403.24V153.43C403.24 153.684 403.293 153.875 403.398 154.004C403.504 154.129 403.684 154.191 403.938 154.191C404.062 154.191 404.234 154.168 404.453 154.121V155C404.168 155.078 403.891 155.117 403.621 155.117C403.137 155.117 402.771 154.971 402.525 154.678C402.279 154.385 402.156 153.969 402.156 153.43V149.498H401.002V148.66H402.156V147.125H403.24ZM406.779 149.428C407.26 148.838 407.885 148.543 408.654 148.543C409.994 148.543 410.67 149.299 410.682 150.811V155H409.598V150.805C409.594 150.348 409.488 150.01 409.281 149.791C409.078 149.572 408.76 149.463 408.326 149.463C407.975 149.463 407.666 149.557 407.4 149.744C407.135 149.932 406.928 150.178 406.779 150.482V155H405.695V146H406.779V149.428ZM415.369 149.633C415.205 149.605 415.027 149.592 414.836 149.592C414.125 149.592 413.643 149.895 413.389 150.5V155H412.305V148.66H413.359L413.377 149.393C413.732 148.826 414.236 148.543 414.889 148.543C415.1 148.543 415.26 148.57 415.369 148.625V149.633ZM418.885 155.117C418.025 155.117 417.326 154.836 416.787 154.273C416.248 153.707 415.979 152.951 415.979 152.006V151.807C415.979 151.178 416.098 150.617 416.336 150.125C416.578 149.629 416.914 149.242 417.344 148.965C417.777 148.684 418.246 148.543 418.75 148.543C419.574 148.543 420.215 148.814 420.672 149.357C421.129 149.9 421.357 150.678 421.357 151.689V152.141H417.062C417.078 152.766 417.26 153.271 417.607 153.658C417.959 154.041 418.404 154.232 418.943 154.232C419.326 154.232 419.65 154.154 419.916 153.998C420.182 153.842 420.414 153.635 420.613 153.377L421.275 153.893C420.744 154.709 419.947 155.117 418.885 155.117ZM418.75 149.434C418.312 149.434 417.945 149.594 417.648 149.914C417.352 150.23 417.168 150.676 417.098 151.25H420.273V151.168C420.242 150.617 420.094 150.191 419.828 149.891C419.562 149.586 419.203 149.434 418.75 149.434ZM426.531 155C426.469 154.875 426.418 154.652 426.379 154.332C425.875 154.855 425.273 155.117 424.574 155.117C423.949 155.117 423.436 154.941 423.033 154.59C422.635 154.234 422.436 153.785 422.436 153.242C422.436 152.582 422.686 152.07 423.186 151.707C423.689 151.34 424.396 151.156 425.307 151.156H426.361V150.658C426.361 150.279 426.248 149.979 426.021 149.756C425.795 149.529 425.461 149.416 425.02 149.416C424.633 149.416 424.309 149.514 424.047 149.709C423.785 149.904 423.654 150.141 423.654 150.418H422.564C422.564 150.102 422.676 149.797 422.898 149.504C423.125 149.207 423.43 148.973 423.812 148.801C424.199 148.629 424.623 148.543 425.084 148.543C425.814 148.543 426.387 148.727 426.801 149.094C427.215 149.457 427.43 149.959 427.445 150.6V153.518C427.445 154.1 427.52 154.562 427.668 154.906V155H426.531ZM424.732 154.174C425.072 154.174 425.395 154.086 425.699 153.91C426.004 153.734 426.225 153.506 426.361 153.225V151.924H425.512C424.184 151.924 423.52 152.312 423.52 153.09C423.52 153.43 423.633 153.695 423.859 153.887C424.086 154.078 424.377 154.174 424.732 154.174ZM428.881 151.777C428.881 150.805 429.111 150.023 429.572 149.434C430.033 148.84 430.637 148.543 431.383 148.543C432.125 148.543 432.713 148.797 433.146 149.305V146H434.23V155H433.234L433.182 154.32C432.748 154.852 432.145 155.117 431.371 155.117C430.637 155.117 430.037 154.816 429.572 154.215C429.111 153.613 428.881 152.828 428.881 151.859V151.777ZM429.965 151.9C429.965 152.619 430.113 153.182 430.41 153.588C430.707 153.994 431.117 154.197 431.641 154.197C432.328 154.197 432.83 153.889 433.146 153.271V150.359C432.822 149.762 432.324 149.463 431.652 149.463C431.121 149.463 430.707 149.668 430.41 150.078C430.113 150.488 429.965 151.096 429.965 151.9ZM441.273 151.9C441.273 152.865 441.053 153.643 440.611 154.232C440.17 154.822 439.572 155.117 438.818 155.117C438.049 155.117 437.443 154.873 437.002 154.385V157.438H435.918V148.66H436.908L436.961 149.363C437.402 148.816 438.016 148.543 438.801 148.543C439.562 148.543 440.164 148.83 440.605 149.404C441.051 149.979 441.273 150.777 441.273 151.801V151.9ZM440.189 151.777C440.189 151.062 440.037 150.498 439.732 150.084C439.428 149.67 439.01 149.463 438.479 149.463C437.822 149.463 437.33 149.754 437.002 150.336V153.365C437.326 153.943 437.822 154.232 438.49 154.232C439.01 154.232 439.422 154.027 439.727 153.617C440.035 153.203 440.189 152.59 440.189 151.777ZM442.369 151.771C442.369 151.15 442.49 150.592 442.732 150.096C442.979 149.6 443.318 149.217 443.752 148.947C444.189 148.678 444.688 148.543 445.246 148.543C446.109 148.543 446.807 148.842 447.338 149.439C447.873 150.037 448.141 150.832 448.141 151.824V151.9C448.141 152.518 448.021 153.072 447.783 153.564C447.549 154.053 447.211 154.434 446.77 154.707C446.332 154.98 445.828 155.117 445.258 155.117C444.398 155.117 443.701 154.818 443.166 154.221C442.635 153.623 442.369 152.832 442.369 151.848V151.771ZM443.459 151.9C443.459 152.604 443.621 153.168 443.945 153.594C444.273 154.02 444.711 154.232 445.258 154.232C445.809 154.232 446.246 154.018 446.57 153.588C446.895 153.154 447.057 152.549 447.057 151.771C447.057 151.076 446.891 150.514 446.559 150.084C446.23 149.65 445.793 149.434 445.246 149.434C444.711 149.434 444.279 149.646 443.951 150.072C443.623 150.498 443.459 151.107 443.459 151.9ZM449.213 151.771C449.213 151.15 449.334 150.592 449.576 150.096C449.822 149.6 450.162 149.217 450.596 148.947C451.033 148.678 451.531 148.543 452.09 148.543C452.953 148.543 453.65 148.842 454.182 149.439C454.717 150.037 454.984 150.832 454.984 151.824V151.9C454.984 152.518 454.865 153.072 454.627 153.564C454.393 154.053 454.055 154.434 453.613 154.707C453.176 154.98 452.672 155.117 452.102 155.117C451.242 155.117 450.545 154.818 450.01 154.221C449.479 153.623 449.213 152.832 449.213 151.848V151.771ZM450.303 151.9C450.303 152.604 450.465 153.168 450.789 153.594C451.117 154.02 451.555 154.232 452.102 154.232C452.652 154.232 453.09 154.018 453.414 153.588C453.738 153.154 453.9 152.549 453.9 151.771C453.9 151.076 453.734 150.514 453.402 150.084C453.074 149.65 452.637 149.434 452.09 149.434C451.555 149.434 451.123 149.646 450.795 150.072C450.467 150.498 450.303 151.107 450.303 151.9ZM457.521 155H456.438V146H457.521V155ZM462.771 155V149.498H461.77V148.66H462.771V148.01C462.771 147.33 462.953 146.805 463.316 146.434C463.68 146.062 464.193 145.877 464.857 145.877C465.107 145.877 465.355 145.91 465.602 145.977L465.543 146.855C465.359 146.82 465.164 146.803 464.957 146.803C464.605 146.803 464.334 146.906 464.143 147.113C463.951 147.316 463.855 147.609 463.855 147.992V148.66H465.209V149.498H463.855V155H462.771ZM466.123 151.771C466.123 151.15 466.244 150.592 466.486 150.096C466.732 149.6 467.072 149.217 467.506 148.947C467.943 148.678 468.441 148.543 469 148.543C469.863 148.543 470.561 148.842 471.092 149.439C471.627 150.037 471.895 150.832 471.895 151.824V151.9C471.895 152.518 471.775 153.072 471.537 153.564C471.303 154.053 470.965 154.434 470.523 154.707C470.086 154.98 469.582 155.117 469.012 155.117C468.152 155.117 467.455 154.818 466.92 154.221C466.389 153.623 466.123 152.832 466.123 151.848V151.771ZM467.213 151.9C467.213 152.604 467.375 153.168 467.699 153.594C468.027 154.02 468.465 154.232 469.012 154.232C469.562 154.232 470 154.018 470.324 153.588C470.648 153.154 470.811 152.549 470.811 151.771C470.811 151.076 470.645 150.514 470.312 150.084C469.984 149.65 469.547 149.434 469 149.434C468.465 149.434 468.033 149.646 467.705 150.072C467.377 150.498 467.213 151.107 467.213 151.9ZM476.318 149.633C476.154 149.605 475.977 149.592 475.785 149.592C475.074 149.592 474.592 149.895 474.338 150.5V155H473.254V148.66H474.309L474.326 149.393C474.682 148.826 475.186 148.543 475.838 148.543C476.049 148.543 476.209 148.57 476.318 148.625V149.633ZM383.213 165.9C383.213 166.869 382.99 167.648 382.545 168.238C382.1 168.824 381.502 169.117 380.752 169.117C379.951 169.117 379.332 168.834 378.895 168.268L378.842 169H377.846V160H378.93V163.357C379.367 162.814 379.971 162.543 380.74 162.543C381.51 162.543 382.113 162.834 382.551 163.416C382.992 163.998 383.213 164.795 383.213 165.807V165.9ZM382.129 165.777C382.129 165.039 381.986 164.469 381.701 164.066C381.416 163.664 381.006 163.463 380.471 163.463C379.756 163.463 379.242 163.795 378.93 164.459V167.201C379.262 167.865 379.779 168.197 380.482 168.197C381.002 168.197 381.406 167.996 381.695 167.594C381.984 167.191 382.129 166.586 382.129 165.777ZM385.762 169H384.678V160H385.762V169ZM387.215 165.771C387.215 165.15 387.336 164.592 387.578 164.096C387.824 163.6 388.164 163.217 388.598 162.947C389.035 162.678 389.533 162.543 390.092 162.543C390.955 162.543 391.652 162.842 392.184 163.439C392.719 164.037 392.986 164.832 392.986 165.824V165.9C392.986 166.518 392.867 167.072 392.629 167.564C392.395 168.053 392.057 168.434 391.615 168.707C391.178 168.98 390.674 169.117 390.104 169.117C389.244 169.117 388.547 168.818 388.012 168.221C387.48 167.623 387.215 166.832 387.215 165.848V165.771ZM388.305 165.9C388.305 166.604 388.467 167.168 388.791 167.594C389.119 168.02 389.557 168.232 390.104 168.232C390.654 168.232 391.092 168.018 391.416 167.588C391.74 167.154 391.902 166.549 391.902 165.771C391.902 165.076 391.736 164.514 391.404 164.084C391.076 163.65 390.639 163.434 390.092 163.434C389.557 163.434 389.125 163.646 388.797 164.072C388.469 164.498 388.305 165.107 388.305 165.9ZM396.889 168.232C397.275 168.232 397.613 168.115 397.902 167.881C398.191 167.646 398.352 167.354 398.383 167.002H399.408C399.389 167.365 399.264 167.711 399.033 168.039C398.803 168.367 398.494 168.629 398.107 168.824C397.725 169.02 397.318 169.117 396.889 169.117C396.025 169.117 395.338 168.83 394.826 168.256C394.318 167.678 394.064 166.889 394.064 165.889V165.707C394.064 165.09 394.178 164.541 394.404 164.061C394.631 163.58 394.955 163.207 395.377 162.941C395.803 162.676 396.305 162.543 396.883 162.543C397.594 162.543 398.184 162.756 398.652 163.182C399.125 163.607 399.377 164.16 399.408 164.84H398.383C398.352 164.43 398.195 164.094 397.914 163.832C397.637 163.566 397.293 163.434 396.883 163.434C396.332 163.434 395.904 163.633 395.6 164.031C395.299 164.426 395.148 164.998 395.148 165.748V165.953C395.148 166.684 395.299 167.246 395.6 167.641C395.9 168.035 396.33 168.232 396.889 168.232ZM402.396 166.064L401.717 166.773V169H400.633V160H401.717V165.443L402.297 164.746L404.271 162.66H405.59L403.123 165.309L405.877 169H404.605L402.396 166.064ZM407.887 169H406.803V162.66H407.887V169ZM406.715 160.979C406.715 160.803 406.768 160.654 406.873 160.533C406.982 160.412 407.143 160.352 407.354 160.352C407.564 160.352 407.725 160.412 407.834 160.533C407.943 160.654 407.998 160.803 407.998 160.979C407.998 161.154 407.943 161.301 407.834 161.418C407.725 161.535 407.564 161.594 407.354 161.594C407.143 161.594 406.982 161.535 406.873 161.418C406.768 161.301 406.715 161.154 406.715 160.979ZM410.652 162.66L410.688 163.457C411.172 162.848 411.805 162.543 412.586 162.543C413.926 162.543 414.602 163.299 414.613 164.811V169H413.529V164.805C413.525 164.348 413.42 164.01 413.213 163.791C413.01 163.572 412.691 163.463 412.258 163.463C411.906 163.463 411.598 163.557 411.332 163.744C411.066 163.932 410.859 164.178 410.711 164.482V169H409.627V162.66H410.652ZM415.99 165.777C415.99 164.789 416.219 164.004 416.676 163.422C417.133 162.836 417.738 162.543 418.492 162.543C419.266 162.543 419.869 162.816 420.303 163.363L420.355 162.66H421.346V168.848C421.346 169.668 421.102 170.314 420.613 170.787C420.129 171.26 419.477 171.496 418.656 171.496C418.199 171.496 417.752 171.398 417.314 171.203C416.877 171.008 416.543 170.74 416.312 170.4L416.875 169.75C417.34 170.324 417.908 170.611 418.58 170.611C419.107 170.611 419.518 170.463 419.811 170.166C420.107 169.869 420.256 169.451 420.256 168.912V168.367C419.822 168.867 419.23 169.117 418.48 169.117C417.738 169.117 417.137 168.818 416.676 168.221C416.219 167.623 415.99 166.809 415.99 165.777ZM417.08 165.9C417.08 166.615 417.227 167.178 417.52 167.588C417.812 167.994 418.223 168.197 418.75 168.197C419.434 168.197 419.936 167.887 420.256 167.266V164.371C419.924 163.766 419.426 163.463 418.762 163.463C418.234 163.463 417.822 163.668 417.525 164.078C417.229 164.488 417.08 165.096 417.08 165.9ZM428.506 168.232C428.893 168.232 429.23 168.115 429.52 167.881C429.809 167.646 429.969 167.354 430 167.002H431.025C431.006 167.365 430.881 167.711 430.65 168.039C430.42 168.367 430.111 168.629 429.725 168.824C429.342 169.02 428.936 169.117 428.506 169.117C427.643 169.117 426.955 168.83 426.443 168.256C425.936 167.678 425.682 166.889 425.682 165.889V165.707C425.682 165.09 425.795 164.541 426.021 164.061C426.248 163.58 426.572 163.207 426.994 162.941C427.42 162.676 427.922 162.543 428.5 162.543C429.211 162.543 429.801 162.756 430.27 163.182C430.742 163.607 430.994 164.16 431.025 164.84H430C429.969 164.43 429.812 164.094 429.531 163.832C429.254 163.566 428.91 163.434 428.5 163.434C427.949 163.434 427.521 163.633 427.217 164.031C426.916 164.426 426.766 164.998 426.766 165.748V165.953C426.766 166.684 426.916 167.246 427.217 167.641C427.518 168.035 427.947 168.232 428.506 168.232ZM436.158 169C436.096 168.875 436.045 168.652 436.006 168.332C435.502 168.855 434.9 169.117 434.201 169.117C433.576 169.117 433.062 168.941 432.66 168.59C432.262 168.234 432.062 167.785 432.062 167.242C432.062 166.582 432.312 166.07 432.812 165.707C433.316 165.34 434.023 165.156 434.934 165.156H435.988V164.658C435.988 164.279 435.875 163.979 435.648 163.756C435.422 163.529 435.088 163.416 434.646 163.416C434.26 163.416 433.936 163.514 433.674 163.709C433.412 163.904 433.281 164.141 433.281 164.418H432.191C432.191 164.102 432.303 163.797 432.525 163.504C432.752 163.207 433.057 162.973 433.439 162.801C433.826 162.629 434.25 162.543 434.711 162.543C435.441 162.543 436.014 162.727 436.428 163.094C436.842 163.457 437.057 163.959 437.072 164.6V167.518C437.072 168.1 437.146 168.562 437.295 168.906V169H436.158ZM434.359 168.174C434.699 168.174 435.021 168.086 435.326 167.91C435.631 167.734 435.852 167.506 435.988 167.225V165.924H435.139C433.811 165.924 433.146 166.312 433.146 167.09C433.146 167.43 433.26 167.695 433.486 167.887C433.713 168.078 434.004 168.174 434.359 168.174ZM439.949 169H438.865V160H439.949V169ZM442.867 169H441.783V160H442.867V169ZM448.299 167.318C448.299 167.025 448.188 166.799 447.965 166.639C447.746 166.475 447.361 166.334 446.811 166.217C446.264 166.1 445.828 165.959 445.504 165.795C445.184 165.631 444.945 165.436 444.789 165.209C444.637 164.982 444.561 164.713 444.561 164.4C444.561 163.881 444.779 163.441 445.217 163.082C445.658 162.723 446.221 162.543 446.904 162.543C447.623 162.543 448.205 162.729 448.65 163.1C449.1 163.471 449.324 163.945 449.324 164.523H448.234C448.234 164.227 448.107 163.971 447.854 163.756C447.604 163.541 447.287 163.434 446.904 163.434C446.51 163.434 446.201 163.52 445.979 163.691C445.756 163.863 445.645 164.088 445.645 164.365C445.645 164.627 445.748 164.824 445.955 164.957C446.162 165.09 446.535 165.217 447.074 165.338C447.617 165.459 448.057 165.604 448.393 165.771C448.729 165.939 448.977 166.143 449.137 166.381C449.301 166.615 449.383 166.902 449.383 167.242C449.383 167.809 449.156 168.264 448.703 168.607C448.25 168.947 447.662 169.117 446.939 169.117C446.432 169.117 445.982 169.027 445.592 168.848C445.201 168.668 444.895 168.418 444.672 168.098C444.453 167.773 444.344 167.424 444.344 167.049H445.428C445.447 167.412 445.592 167.701 445.861 167.916C446.135 168.127 446.494 168.232 446.939 168.232C447.35 168.232 447.678 168.15 447.924 167.986C448.174 167.818 448.299 167.596 448.299 167.318ZM335.084 179.537C335.084 178.654 335.201 177.807 335.436 176.994C335.674 176.182 336.027 175.443 336.496 174.779C336.965 174.115 337.451 173.646 337.955 173.373L338.178 174.088C337.607 174.525 337.139 175.193 336.771 176.092C336.408 176.99 336.209 177.996 336.174 179.109L336.168 179.607C336.168 181.115 336.443 182.424 336.994 183.533C337.326 184.197 337.721 184.717 338.178 185.092L337.955 185.754C337.436 185.465 336.939 184.98 336.467 184.301C335.545 182.973 335.084 181.385 335.084 179.537ZM341.084 175.102V176.66H342.168V177.902H341.084V181.066C341.084 181.301 341.129 181.469 341.219 181.57C341.309 181.672 341.48 181.723 341.734 181.723C341.922 181.723 342.088 181.709 342.232 181.682V182.965C341.9 183.066 341.559 183.117 341.207 183.117C340.02 183.117 339.414 182.518 339.391 181.318V177.902H338.465V176.66H339.391V175.102H341.084ZM342.672 179.771C342.672 179.143 342.793 178.582 343.035 178.09C343.277 177.598 343.625 177.217 344.078 176.947C344.535 176.678 345.064 176.543 345.666 176.543C346.521 176.543 347.219 176.805 347.758 177.328C348.301 177.852 348.604 178.562 348.666 179.461L348.678 179.895C348.678 180.867 348.406 181.648 347.863 182.238C347.32 182.824 346.592 183.117 345.678 183.117C344.764 183.117 344.033 182.824 343.486 182.238C342.943 181.652 342.672 180.855 342.672 179.848V179.771ZM344.365 179.895C344.365 180.496 344.479 180.957 344.705 181.277C344.932 181.594 345.256 181.752 345.678 181.752C346.088 181.752 346.408 181.596 346.639 181.283C346.869 180.967 346.984 180.463 346.984 179.771C346.984 179.182 346.869 178.725 346.639 178.4C346.408 178.076 346.084 177.914 345.666 177.914C345.252 177.914 344.932 178.076 344.705 178.4C344.479 178.721 344.365 179.219 344.365 179.895ZM352.023 180.457L351.414 181.066V183H349.721V174H351.414V178.986L351.742 178.564L353.365 176.66H355.398L353.107 179.303L355.598 183H353.652L352.023 180.457ZM357.918 183H356.219V176.66H357.918V183ZM356.119 175.02C356.119 174.766 356.203 174.557 356.371 174.393C356.543 174.229 356.775 174.146 357.068 174.146C357.357 174.146 357.588 174.229 357.76 174.393C357.932 174.557 358.018 174.766 358.018 175.02C358.018 175.277 357.93 175.488 357.754 175.652C357.582 175.816 357.354 175.898 357.068 175.898C356.783 175.898 356.553 175.816 356.377 175.652C356.205 175.488 356.119 175.277 356.119 175.02ZM359.055 179.771C359.055 179.143 359.176 178.582 359.418 178.09C359.66 177.598 360.008 177.217 360.461 176.947C360.918 176.678 361.447 176.543 362.049 176.543C362.904 176.543 363.602 176.805 364.141 177.328C364.684 177.852 364.986 178.562 365.049 179.461L365.061 179.895C365.061 180.867 364.789 181.648 364.246 182.238C363.703 182.824 362.975 183.117 362.061 183.117C361.146 183.117 360.416 182.824 359.869 182.238C359.326 181.652 359.055 180.855 359.055 179.848V179.771ZM360.748 179.895C360.748 180.496 360.861 180.957 361.088 181.277C361.314 181.594 361.639 181.752 362.061 181.752C362.471 181.752 362.791 181.596 363.021 181.283C363.252 180.967 363.367 180.463 363.367 179.771C363.367 179.182 363.252 178.725 363.021 178.4C362.791 178.076 362.467 177.914 362.049 177.914C361.635 177.914 361.314 178.076 361.088 178.4C360.861 178.721 360.748 179.219 360.748 179.895ZM366.186 182.168C366.186 181.898 366.275 181.68 366.455 181.512C366.639 181.344 366.867 181.26 367.141 181.26C367.418 181.26 367.646 181.344 367.826 181.512C368.01 181.68 368.102 181.898 368.102 182.168C368.102 182.434 368.012 182.65 367.832 182.818C367.652 182.982 367.422 183.064 367.141 183.064C366.863 183.064 366.635 182.982 366.455 182.818C366.275 182.65 366.186 182.434 366.186 182.168ZM366.186 177.369C366.186 177.1 366.275 176.881 366.455 176.713C366.639 176.545 366.867 176.461 367.141 176.461C367.418 176.461 367.646 176.545 367.826 176.713C368.01 176.881 368.102 177.1 368.102 177.369C368.102 177.635 368.012 177.852 367.832 178.02C367.652 178.184 367.422 178.266 367.141 178.266C366.863 178.266 366.635 178.184 366.455 178.02C366.275 177.852 366.186 177.635 366.186 177.369ZM369.572 182.168C369.572 181.898 369.662 181.68 369.842 181.512C370.025 181.344 370.254 181.26 370.527 181.26C370.805 181.26 371.033 181.344 371.213 181.512C371.396 181.68 371.488 181.898 371.488 182.168C371.488 182.434 371.398 182.65 371.219 182.818C371.039 182.982 370.809 183.064 370.527 183.064C370.25 183.064 370.021 182.982 369.842 182.818C369.662 182.65 369.572 182.434 369.572 182.168ZM369.572 177.369C369.572 177.1 369.662 176.881 369.842 176.713C370.025 176.545 370.254 176.461 370.527 176.461C370.805 176.461 371.033 176.545 371.213 176.713C371.396 176.881 371.488 177.1 371.488 177.369C371.488 177.635 371.398 177.852 371.219 178.02C371.039 178.184 370.809 178.266 370.527 178.266C370.25 178.266 370.021 178.184 369.842 178.02C369.662 177.852 369.572 177.635 369.572 177.369ZM374.904 175.102V176.66H375.988V177.902H374.904V181.066C374.904 181.301 374.949 181.469 375.039 181.57C375.129 181.672 375.301 181.723 375.555 181.723C375.742 181.723 375.908 181.709 376.053 181.682V182.965C375.721 183.066 375.379 183.117 375.027 183.117C373.84 183.117 373.234 182.518 373.211 181.318V177.902H372.285V176.66H373.211V175.102H374.904ZM380.605 183C380.527 182.848 380.471 182.658 380.436 182.432C380.025 182.889 379.492 183.117 378.836 183.117C378.215 183.117 377.699 182.938 377.289 182.578C376.883 182.219 376.68 181.766 376.68 181.219C376.68 180.547 376.928 180.031 377.424 179.672C377.924 179.312 378.645 179.131 379.586 179.127H380.365V178.764C380.365 178.471 380.289 178.236 380.137 178.061C379.988 177.885 379.752 177.797 379.428 177.797C379.143 177.797 378.918 177.865 378.754 178.002C378.594 178.139 378.514 178.326 378.514 178.564H376.82C376.82 178.197 376.934 177.857 377.16 177.545C377.387 177.232 377.707 176.988 378.121 176.812C378.535 176.633 379 176.543 379.516 176.543C380.297 176.543 380.916 176.74 381.373 177.135C381.834 177.525 382.064 178.076 382.064 178.787V181.535C382.068 182.137 382.152 182.592 382.316 182.9V183H380.605ZM379.205 181.822C379.455 181.822 379.686 181.768 379.896 181.658C380.107 181.545 380.264 181.395 380.365 181.207V180.117H379.732C378.885 180.117 378.434 180.41 378.379 180.996L378.373 181.096C378.373 181.307 378.447 181.48 378.596 181.617C378.744 181.754 378.947 181.822 379.205 181.822ZM386.799 181.248C386.799 181.041 386.695 180.879 386.488 180.762C386.285 180.641 385.957 180.533 385.504 180.439C383.996 180.123 383.242 179.482 383.242 178.518C383.242 177.955 383.475 177.486 383.939 177.111C384.408 176.732 385.02 176.543 385.773 176.543C386.578 176.543 387.221 176.732 387.701 177.111C388.186 177.49 388.428 177.982 388.428 178.588H386.734C386.734 178.346 386.656 178.146 386.5 177.99C386.344 177.83 386.1 177.75 385.768 177.75C385.482 177.75 385.262 177.814 385.105 177.943C384.949 178.072 384.871 178.236 384.871 178.436C384.871 178.623 384.959 178.775 385.135 178.893C385.314 179.006 385.615 179.105 386.037 179.191C386.459 179.273 386.814 179.367 387.104 179.473C387.998 179.801 388.445 180.369 388.445 181.178C388.445 181.756 388.197 182.225 387.701 182.584C387.205 182.939 386.564 183.117 385.779 183.117C385.248 183.117 384.775 183.023 384.361 182.836C383.951 182.645 383.629 182.385 383.395 182.057C383.16 181.725 383.043 181.367 383.043 180.984H384.648C384.664 181.285 384.775 181.516 384.982 181.676C385.189 181.836 385.467 181.916 385.814 181.916C386.139 181.916 386.383 181.855 386.547 181.734C386.715 181.609 386.799 181.447 386.799 181.248ZM391.844 180.457L391.234 181.066V183H389.541V174H391.234V178.986L391.562 178.564L393.186 176.66H395.219L392.928 179.303L395.418 183H393.473L391.844 180.457ZM396.033 182.168C396.033 181.898 396.123 181.68 396.303 181.512C396.486 181.344 396.715 181.26 396.988 181.26C397.266 181.26 397.494 181.344 397.674 181.512C397.857 181.68 397.949 181.898 397.949 182.168C397.949 182.434 397.859 182.65 397.68 182.818C397.5 182.982 397.27 183.064 396.988 183.064C396.711 183.064 396.482 182.982 396.303 182.818C396.123 182.65 396.033 182.434 396.033 182.168ZM396.033 177.369C396.033 177.1 396.123 176.881 396.303 176.713C396.486 176.545 396.715 176.461 396.988 176.461C397.266 176.461 397.494 176.545 397.674 176.713C397.857 176.881 397.949 177.1 397.949 177.369C397.949 177.635 397.859 177.852 397.68 178.02C397.5 178.184 397.27 178.266 396.988 178.266C396.711 178.266 396.482 178.184 396.303 178.02C396.123 177.852 396.033 177.635 396.033 177.369ZM399.42 182.168C399.42 181.898 399.51 181.68 399.689 181.512C399.873 181.344 400.102 181.26 400.375 181.26C400.652 181.26 400.881 181.344 401.061 181.512C401.244 181.68 401.336 181.898 401.336 182.168C401.336 182.434 401.246 182.65 401.066 182.818C400.887 182.982 400.656 183.064 400.375 183.064C400.098 183.064 399.869 182.982 399.689 182.818C399.51 182.65 399.42 182.434 399.42 182.168ZM399.42 177.369C399.42 177.1 399.51 176.881 399.689 176.713C399.873 176.545 400.102 176.461 400.375 176.461C400.652 176.461 400.881 176.545 401.061 176.713C401.244 176.881 401.336 177.1 401.336 177.369C401.336 177.635 401.246 177.852 401.066 178.02C400.887 178.184 400.656 178.266 400.375 178.266C400.098 178.266 399.869 178.184 399.689 178.02C399.51 177.852 399.42 177.635 399.42 177.369ZM406.158 181.248C406.158 181.041 406.055 180.879 405.848 180.762C405.645 180.641 405.316 180.533 404.863 180.439C403.355 180.123 402.602 179.482 402.602 178.518C402.602 177.955 402.834 177.486 403.299 177.111C403.768 176.732 404.379 176.543 405.133 176.543C405.938 176.543 406.58 176.732 407.061 177.111C407.545 177.49 407.787 177.982 407.787 178.588H406.094C406.094 178.346 406.016 178.146 405.859 177.99C405.703 177.83 405.459 177.75 405.127 177.75C404.842 177.75 404.621 177.814 404.465 177.943C404.309 178.072 404.23 178.236 404.23 178.436C404.23 178.623 404.318 178.775 404.494 178.893C404.674 179.006 404.975 179.105 405.396 179.191C405.818 179.273 406.174 179.367 406.463 179.473C407.357 179.801 407.805 180.369 407.805 181.178C407.805 181.756 407.557 182.225 407.061 182.584C406.564 182.939 405.924 183.117 405.139 183.117C404.607 183.117 404.135 183.023 403.721 182.836C403.311 182.645 402.988 182.385 402.754 182.057C402.52 181.725 402.402 181.367 402.402 180.984H404.008C404.023 181.285 404.135 181.516 404.342 181.676C404.549 181.836 404.826 181.916 405.174 181.916C405.498 181.916 405.742 181.855 405.906 181.734C406.074 181.609 406.158 181.447 406.158 181.248ZM414.607 179.889C414.607 180.865 414.385 181.648 413.939 182.238C413.498 182.824 412.9 183.117 412.146 183.117C411.506 183.117 410.988 182.895 410.594 182.449V185.438H408.9V176.66H410.471L410.529 177.281C410.939 176.789 411.475 176.543 412.135 176.543C412.916 176.543 413.523 176.832 413.957 177.41C414.391 177.988 414.607 178.785 414.607 179.801V179.889ZM412.914 179.766C412.914 179.176 412.809 178.721 412.598 178.4C412.391 178.08 412.088 177.92 411.689 177.92C411.158 177.92 410.793 178.123 410.594 178.529V181.125C410.801 181.543 411.17 181.752 411.701 181.752C412.51 181.752 412.914 181.09 412.914 179.766ZM419.336 183C419.258 182.848 419.201 182.658 419.166 182.432C418.756 182.889 418.223 183.117 417.566 183.117C416.945 183.117 416.43 182.938 416.02 182.578C415.613 182.219 415.41 181.766 415.41 181.219C415.41 180.547 415.658 180.031 416.154 179.672C416.654 179.312 417.375 179.131 418.316 179.127H419.096V178.764C419.096 178.471 419.02 178.236 418.867 178.061C418.719 177.885 418.482 177.797 418.158 177.797C417.873 177.797 417.648 177.865 417.484 178.002C417.324 178.139 417.244 178.326 417.244 178.564H415.551C415.551 178.197 415.664 177.857 415.891 177.545C416.117 177.232 416.438 176.988 416.852 176.812C417.266 176.633 417.73 176.543 418.246 176.543C419.027 176.543 419.646 176.74 420.104 177.135C420.564 177.525 420.795 178.076 420.795 178.787V181.535C420.799 182.137 420.883 182.592 421.047 182.9V183H419.336ZM417.936 181.822C418.186 181.822 418.416 181.768 418.627 181.658C418.838 181.545 418.994 181.395 419.096 181.207V180.117H418.463C417.615 180.117 417.164 180.41 417.109 180.996L417.104 181.096C417.104 181.307 417.178 181.48 417.326 181.617C417.475 181.754 417.678 181.822 417.936 181.822ZM427.609 180.697L428.441 176.66H430.076L428.459 183H427.041L425.84 179.01L424.639 183H423.227L421.609 176.66H423.244L424.07 180.691L425.23 176.66H426.455L427.609 180.697ZM432.479 176.66L432.531 177.393C432.984 176.826 433.592 176.543 434.354 176.543C435.025 176.543 435.525 176.74 435.854 177.135C436.182 177.529 436.35 178.119 436.357 178.904V183H434.664V178.945C434.664 178.586 434.586 178.326 434.43 178.166C434.273 178.002 434.014 177.92 433.65 177.92C433.174 177.92 432.816 178.123 432.578 178.529V183H430.885V176.66H432.479ZM442.34 184.324H437.002V183H442.34V184.324ZM448.715 179.889C448.715 180.904 448.498 181.697 448.064 182.268C447.631 182.834 447.025 183.117 446.248 183.117C445.561 183.117 445.012 182.854 444.602 182.326L444.525 183H443.002V174H444.695V177.229C445.086 176.771 445.6 176.543 446.236 176.543C447.01 176.543 447.615 176.828 448.053 177.398C448.494 177.965 448.715 178.764 448.715 179.795V179.889ZM447.021 179.766C447.021 179.125 446.92 178.658 446.717 178.365C446.514 178.068 446.211 177.92 445.809 177.92C445.27 177.92 444.898 178.141 444.695 178.582V181.084C444.902 181.529 445.277 181.752 445.82 181.752C446.367 181.752 446.727 181.482 446.898 180.943C446.98 180.686 447.021 180.293 447.021 179.766ZM451.551 183H449.852V174H451.551V183ZM452.688 179.771C452.688 179.143 452.809 178.582 453.051 178.09C453.293 177.598 453.641 177.217 454.094 176.947C454.551 176.678 455.08 176.543 455.682 176.543C456.537 176.543 457.234 176.805 457.773 177.328C458.316 177.852 458.619 178.562 458.682 179.461L458.693 179.895C458.693 180.867 458.422 181.648 457.879 182.238C457.336 182.824 456.607 183.117 455.693 183.117C454.779 183.117 454.049 182.824 453.502 182.238C452.959 181.652 452.688 180.855 452.688 179.848V179.771ZM454.381 179.895C454.381 180.496 454.494 180.957 454.721 181.277C454.947 181.594 455.271 181.752 455.693 181.752C456.104 181.752 456.424 181.596 456.654 181.283C456.885 180.967 457 180.463 457 179.771C457 179.182 456.885 178.725 456.654 178.4C456.424 178.076 456.1 177.914 455.682 177.914C455.268 177.914 454.947 178.076 454.721 178.4C454.494 178.721 454.381 179.219 454.381 179.895ZM462.373 181.752C462.686 181.752 462.939 181.666 463.135 181.494C463.33 181.322 463.432 181.094 463.439 180.809H465.027C465.023 181.238 464.906 181.633 464.676 181.992C464.445 182.348 464.129 182.625 463.727 182.824C463.328 183.02 462.887 183.117 462.402 183.117C461.496 183.117 460.781 182.83 460.258 182.256C459.734 181.678 459.473 180.881 459.473 179.865V179.754C459.473 178.777 459.732 177.998 460.252 177.416C460.771 176.834 461.484 176.543 462.391 176.543C463.184 176.543 463.818 176.77 464.295 177.223C464.775 177.672 465.02 178.271 465.027 179.021H463.439C463.432 178.693 463.33 178.428 463.135 178.225C462.939 178.018 462.682 177.914 462.361 177.914C461.967 177.914 461.668 178.059 461.465 178.348C461.266 178.633 461.166 179.098 461.166 179.742V179.918C461.166 180.57 461.266 181.039 461.465 181.324C461.664 181.609 461.967 181.752 462.373 181.752ZM468.297 180.457L467.688 181.066V183H465.994V174H467.688V178.986L468.016 178.564L469.639 176.66H471.672L469.381 179.303L471.871 183H469.926L468.297 180.457ZM474.191 183H472.492V176.66H474.191V183ZM472.393 175.02C472.393 174.766 472.477 174.557 472.645 174.393C472.816 174.229 473.049 174.146 473.342 174.146C473.631 174.146 473.861 174.229 474.033 174.393C474.205 174.557 474.291 174.766 474.291 175.02C474.291 175.277 474.203 175.488 474.027 175.652C473.855 175.816 473.627 175.898 473.342 175.898C473.057 175.898 472.826 175.816 472.65 175.652C472.479 175.488 472.393 175.277 472.393 175.02ZM477.15 176.66L477.203 177.393C477.656 176.826 478.264 176.543 479.025 176.543C479.697 176.543 480.197 176.74 480.525 177.135C480.854 177.529 481.021 178.119 481.029 178.904V183H479.336V178.945C479.336 178.586 479.258 178.326 479.102 178.166C478.945 178.002 478.686 177.92 478.322 177.92C477.846 177.92 477.488 178.123 477.25 178.529V183H475.557V176.66H477.15ZM482.072 179.783C482.072 178.811 482.303 178.027 482.764 177.434C483.229 176.84 483.854 176.543 484.639 176.543C485.334 176.543 485.875 176.781 486.262 177.258L486.332 176.66H487.867V182.789C487.867 183.344 487.74 183.826 487.486 184.236C487.236 184.646 486.883 184.959 486.426 185.174C485.969 185.389 485.434 185.496 484.82 185.496C484.355 185.496 483.902 185.402 483.461 185.215C483.02 185.031 482.686 184.793 482.459 184.5L483.209 183.469C483.631 183.941 484.143 184.178 484.744 184.178C485.193 184.178 485.543 184.057 485.793 183.814C486.043 183.576 486.168 183.236 486.168 182.795V182.455C485.777 182.896 485.264 183.117 484.627 183.117C483.865 183.117 483.248 182.82 482.775 182.227C482.307 181.629 482.072 180.838 482.072 179.854V179.783ZM483.766 179.906C483.766 180.48 483.881 180.932 484.111 181.26C484.342 181.584 484.658 181.746 485.061 181.746C485.576 181.746 485.945 181.553 486.168 181.166V178.5C485.941 178.113 485.576 177.92 485.072 177.92C484.666 177.92 484.346 178.086 484.111 178.418C483.881 178.75 483.766 179.246 483.766 179.906ZM491.846 179.596C491.846 180.467 491.73 181.303 491.5 182.104C491.273 182.9 490.924 183.637 490.451 184.312C489.982 184.988 489.49 185.469 488.975 185.754L488.746 185.092C489.348 184.631 489.83 183.916 490.193 182.947C490.561 181.975 490.748 180.896 490.756 179.713V179.525C490.756 178.705 490.67 177.943 490.498 177.24C490.326 176.533 490.086 175.9 489.777 175.342C489.473 174.783 489.129 174.348 488.746 174.035L488.975 173.373C489.49 173.658 489.98 174.135 490.445 174.803C490.914 175.471 491.264 176.207 491.494 177.012C491.729 177.816 491.846 178.678 491.846 179.596Z" fill="black"/>
</svg>
