<svg width="600" height="300" viewBox="0 0 600 300" fill="none" xmlns="http://www.w3.org/2000/svg">
<rect width="600" height="300" fill="white"/>
<circle cx="126" cy="150" r="59.5" fill="white" stroke="black"/>
<path d="M102.797 125V112.203H106.98C108.369 112.203 109.412 112.49 110.109 113.064C110.812 113.639 111.164 114.488 111.164 115.613C111.164 116.211 110.994 116.741 110.654 117.204C110.314 117.661 109.852 118.016 109.266 118.268C109.957 118.461 110.502 118.83 110.9 119.375C111.305 119.914 111.507 120.559 111.507 121.309C111.507 122.457 111.135 123.359 110.391 124.016C109.646 124.672 108.595 125 107.235 125H102.797ZM104.484 119.015V123.62H107.271C108.056 123.62 108.674 123.418 109.125 123.014C109.582 122.604 109.811 122.041 109.811 121.326C109.811 119.785 108.973 119.015 107.297 119.015H104.484ZM104.484 117.661H107.033C107.771 117.661 108.36 117.477 108.8 117.107C109.245 116.738 109.468 116.237 109.468 115.604C109.468 114.901 109.263 114.392 108.853 114.075C108.442 113.753 107.818 113.592 106.98 113.592H104.484V117.661ZM119.628 125C119.534 124.812 119.458 124.479 119.399 123.998C118.644 124.783 117.741 125.176 116.692 125.176C115.755 125.176 114.984 124.912 114.381 124.385C113.783 123.852 113.484 123.178 113.484 122.363C113.484 121.373 113.859 120.605 114.609 120.061C115.365 119.51 116.426 119.234 117.791 119.234H119.373V118.487C119.373 117.919 119.203 117.468 118.863 117.134C118.523 116.794 118.022 116.624 117.36 116.624C116.78 116.624 116.294 116.771 115.901 117.063C115.509 117.356 115.312 117.711 115.312 118.127H113.678C113.678 117.652 113.845 117.195 114.179 116.756C114.519 116.311 114.976 115.959 115.55 115.701C116.13 115.443 116.766 115.314 117.457 115.314C118.553 115.314 119.411 115.59 120.032 116.141C120.653 116.686 120.976 117.438 120.999 118.399V122.776C120.999 123.649 121.11 124.344 121.333 124.859V125H119.628ZM116.93 123.761C117.439 123.761 117.923 123.629 118.38 123.365C118.837 123.102 119.168 122.759 119.373 122.337V120.386H118.099C116.106 120.386 115.11 120.969 115.11 122.135C115.11 122.645 115.28 123.043 115.62 123.33C115.96 123.617 116.396 123.761 116.93 123.761ZM128.145 116.949C127.898 116.908 127.632 116.888 127.345 116.888C126.278 116.888 125.555 117.342 125.174 118.25V125H123.548V115.49H125.13L125.156 116.589C125.689 115.739 126.445 115.314 127.424 115.314C127.74 115.314 127.98 115.355 128.145 115.438V116.949ZM133.418 125.176C132.129 125.176 131.08 124.754 130.271 123.91C129.463 123.061 129.059 121.927 129.059 120.509V120.21C129.059 119.267 129.237 118.426 129.595 117.688C129.958 116.943 130.462 116.363 131.106 115.947C131.757 115.525 132.46 115.314 133.216 115.314C134.452 115.314 135.413 115.722 136.099 116.536C136.784 117.351 137.127 118.517 137.127 120.034V120.711H130.685C130.708 121.648 130.98 122.407 131.502 122.987C132.029 123.562 132.697 123.849 133.506 123.849C134.08 123.849 134.566 123.731 134.965 123.497C135.363 123.263 135.712 122.952 136.011 122.565L137.004 123.339C136.207 124.563 135.012 125.176 133.418 125.176ZM133.216 116.65C132.56 116.65 132.009 116.891 131.563 117.371C131.118 117.846 130.843 118.514 130.737 119.375H135.501V119.252C135.454 118.426 135.231 117.787 134.833 117.336C134.435 116.879 133.896 116.65 133.216 116.65ZM140.783 125H139.157V111.5H140.783V125ZM146.505 122.618L148.72 115.49H150.46L146.637 126.468C146.045 128.05 145.104 128.841 143.815 128.841L143.508 128.814L142.901 128.7V127.382L143.341 127.417C143.892 127.417 144.319 127.306 144.624 127.083C144.935 126.86 145.189 126.453 145.389 125.861L145.749 124.895L142.356 115.49H144.132L146.505 122.618ZM91.7314 143.478C91.7314 143.038 91.5645 142.698 91.2305 142.458C90.9023 142.212 90.3252 142.001 89.499 141.825C88.6787 141.649 88.0254 141.438 87.5391 141.192C87.0586 140.946 86.7012 140.653 86.4668 140.313C86.2383 139.974 86.124 139.569 86.124 139.101C86.124 138.321 86.4521 137.662 87.1084 137.123C87.7705 136.584 88.6143 136.314 89.6396 136.314C90.7178 136.314 91.5908 136.593 92.2588 137.149C92.9326 137.706 93.2695 138.418 93.2695 139.285H91.6348C91.6348 138.84 91.4443 138.456 91.0635 138.134C90.6885 137.812 90.2139 137.65 89.6396 137.65C89.0479 137.65 88.585 137.779 88.251 138.037C87.917 138.295 87.75 138.632 87.75 139.048C87.75 139.44 87.9053 139.736 88.2158 139.936C88.5264 140.135 89.0859 140.325 89.8945 140.507C90.709 140.688 91.3682 140.905 91.8721 141.157C92.376 141.409 92.748 141.714 92.9883 142.071C93.2344 142.423 93.3574 142.854 93.3574 143.363C93.3574 144.213 93.0176 144.896 92.3379 145.411C91.6582 145.921 90.7764 146.176 89.6924 146.176C88.9307 146.176 88.2568 146.041 87.6709 145.771C87.085 145.502 86.625 145.127 86.291 144.646C85.9629 144.16 85.7988 143.636 85.7988 143.073H87.4248C87.4541 143.618 87.6709 144.052 88.0752 144.374C88.4854 144.69 89.0244 144.849 89.6924 144.849C90.3076 144.849 90.7998 144.726 91.1689 144.479C91.5439 144.228 91.7314 143.894 91.7314 143.478ZM97.6816 134.188V136.49H99.457V137.747H97.6816V143.645C97.6816 144.025 97.7607 144.312 97.9189 144.506C98.0771 144.693 98.3467 144.787 98.7275 144.787C98.915 144.787 99.1729 144.752 99.501 144.682V146C99.0732 146.117 98.6572 146.176 98.2529 146.176C97.5264 146.176 96.9785 145.956 96.6094 145.517C96.2402 145.077 96.0557 144.453 96.0557 143.645V137.747H94.3242V136.49H96.0557V134.188H97.6816ZM105.961 137.949C105.715 137.908 105.448 137.888 105.161 137.888C104.095 137.888 103.371 138.342 102.99 139.25V146H101.364V136.49H102.946L102.973 137.589C103.506 136.739 104.262 136.314 105.24 136.314C105.557 136.314 105.797 136.355 105.961 136.438V137.949ZM113.335 145.06C112.702 145.804 111.773 146.176 110.549 146.176C109.535 146.176 108.762 145.883 108.229 145.297C107.701 144.705 107.435 143.832 107.429 142.678V136.49H109.055V142.634C109.055 144.075 109.641 144.796 110.812 144.796C112.055 144.796 112.881 144.333 113.291 143.407V136.49H114.917V146H113.37L113.335 145.06ZM121.21 144.849C121.79 144.849 122.297 144.673 122.73 144.321C123.164 143.97 123.404 143.53 123.451 143.003H124.989C124.96 143.548 124.772 144.066 124.427 144.559C124.081 145.051 123.618 145.443 123.038 145.736C122.464 146.029 121.854 146.176 121.21 146.176C119.915 146.176 118.884 145.745 118.116 144.884C117.354 144.017 116.974 142.833 116.974 141.333V141.061C116.974 140.135 117.144 139.312 117.483 138.591C117.823 137.87 118.31 137.311 118.942 136.912C119.581 136.514 120.334 136.314 121.201 136.314C122.268 136.314 123.152 136.634 123.855 137.272C124.564 137.911 124.942 138.74 124.989 139.76H123.451C123.404 139.145 123.17 138.641 122.748 138.248C122.332 137.85 121.816 137.65 121.201 137.65C120.375 137.65 119.733 137.949 119.276 138.547C118.825 139.139 118.6 139.997 118.6 141.122V141.43C118.6 142.525 118.825 143.369 119.276 143.961C119.728 144.553 120.372 144.849 121.21 144.849ZM129.023 134.188V136.49H130.799V137.747H129.023V143.645C129.023 144.025 129.103 144.312 129.261 144.506C129.419 144.693 129.688 144.787 130.069 144.787C130.257 144.787 130.515 144.752 130.843 144.682V146C130.415 146.117 129.999 146.176 129.595 146.176C128.868 146.176 128.32 145.956 127.951 145.517C127.582 145.077 127.397 144.453 127.397 143.645V137.747H125.666V136.49H127.397V134.188H129.023ZM138.577 145.06C137.944 145.804 137.016 146.176 135.791 146.176C134.777 146.176 134.004 145.883 133.471 145.297C132.943 144.705 132.677 143.832 132.671 142.678V136.49H134.297V142.634C134.297 144.075 134.883 144.796 136.055 144.796C137.297 144.796 138.123 144.333 138.533 143.407V136.49H140.159V146H138.612L138.577 145.06ZM147.234 137.949C146.988 137.908 146.722 137.888 146.435 137.888C145.368 137.888 144.645 138.342 144.264 139.25V146H142.638V136.49H144.22L144.246 137.589C144.779 136.739 145.535 136.314 146.514 136.314C146.83 136.314 147.07 136.355 147.234 136.438V137.949ZM152.508 146.176C151.219 146.176 150.17 145.754 149.361 144.91C148.553 144.061 148.148 142.927 148.148 141.509V141.21C148.148 140.267 148.327 139.426 148.685 138.688C149.048 137.943 149.552 137.363 150.196 136.947C150.847 136.525 151.55 136.314 152.306 136.314C153.542 136.314 154.503 136.722 155.188 137.536C155.874 138.351 156.217 139.517 156.217 141.034V141.711H149.774C149.798 142.648 150.07 143.407 150.592 143.987C151.119 144.562 151.787 144.849 152.596 144.849C153.17 144.849 153.656 144.731 154.055 144.497C154.453 144.263 154.802 143.952 155.101 143.565L156.094 144.339C155.297 145.563 154.102 146.176 152.508 146.176ZM152.306 137.65C151.649 137.65 151.099 137.891 150.653 138.371C150.208 138.846 149.933 139.514 149.827 140.375H154.591V140.252C154.544 139.426 154.321 138.787 153.923 138.336C153.524 137.879 152.985 137.65 152.306 137.65ZM157.711 141.166C157.711 139.707 158.057 138.535 158.748 137.65C159.439 136.76 160.345 136.314 161.464 136.314C162.577 136.314 163.459 136.695 164.109 137.457V132.5H165.735V146H164.241L164.162 144.98C163.512 145.777 162.606 146.176 161.446 146.176C160.345 146.176 159.445 145.725 158.748 144.822C158.057 143.92 157.711 142.742 157.711 141.289V141.166ZM159.337 141.351C159.337 142.429 159.56 143.272 160.005 143.882C160.45 144.491 161.065 144.796 161.851 144.796C162.882 144.796 163.635 144.333 164.109 143.407V139.039C163.623 138.143 162.876 137.694 161.868 137.694C161.071 137.694 160.45 138.002 160.005 138.617C159.56 139.232 159.337 140.144 159.337 141.351ZM100.608 165.849C101.188 165.849 101.695 165.673 102.129 165.321C102.562 164.97 102.803 164.53 102.85 164.003H104.388C104.358 164.548 104.171 165.066 103.825 165.559C103.479 166.051 103.017 166.443 102.437 166.736C101.862 167.029 101.253 167.176 100.608 167.176C99.3135 167.176 98.2822 166.745 97.5146 165.884C96.7529 165.017 96.3721 163.833 96.3721 162.333V162.061C96.3721 161.135 96.542 160.312 96.8818 159.591C97.2217 158.87 97.708 158.311 98.3408 157.912C98.9795 157.514 99.7324 157.314 100.6 157.314C101.666 157.314 102.551 157.634 103.254 158.272C103.963 158.911 104.341 159.74 104.388 160.76H102.85C102.803 160.145 102.568 159.641 102.146 159.248C101.73 158.85 101.215 158.65 100.6 158.65C99.7734 158.65 99.1318 158.949 98.6748 159.547C98.2236 160.139 97.998 160.997 97.998 162.122V162.43C97.998 163.525 98.2236 164.369 98.6748 164.961C99.126 165.553 99.7705 165.849 100.608 165.849ZM105.785 162.157C105.785 161.226 105.967 160.388 106.33 159.644C106.699 158.899 107.209 158.325 107.859 157.921C108.516 157.517 109.263 157.314 110.101 157.314C111.396 157.314 112.441 157.763 113.238 158.659C114.041 159.556 114.442 160.748 114.442 162.236V162.351C114.442 163.276 114.264 164.108 113.906 164.847C113.555 165.579 113.048 166.15 112.386 166.561C111.729 166.971 110.974 167.176 110.118 167.176C108.829 167.176 107.783 166.728 106.98 165.831C106.184 164.935 105.785 163.748 105.785 162.271V162.157ZM107.42 162.351C107.42 163.405 107.663 164.252 108.149 164.891C108.642 165.529 109.298 165.849 110.118 165.849C110.944 165.849 111.601 165.526 112.087 164.882C112.573 164.231 112.816 163.323 112.816 162.157C112.816 161.114 112.567 160.271 112.069 159.626C111.577 158.976 110.921 158.65 110.101 158.65C109.298 158.65 108.65 158.97 108.158 159.608C107.666 160.247 107.42 161.161 107.42 162.351ZM118.02 157.49L118.072 158.686C118.799 157.771 119.748 157.314 120.92 157.314C122.93 157.314 123.943 158.448 123.961 160.716V167H122.335V160.707C122.329 160.021 122.171 159.515 121.86 159.187C121.556 158.858 121.078 158.694 120.428 158.694C119.9 158.694 119.438 158.835 119.039 159.116C118.641 159.397 118.33 159.767 118.107 160.224V167H116.481V157.49H118.02ZM128.619 155.188V157.49H130.395V158.747H128.619V164.645C128.619 165.025 128.698 165.312 128.856 165.506C129.015 165.693 129.284 165.787 129.665 165.787C129.853 165.787 130.11 165.752 130.438 165.682V167C130.011 167.117 129.595 167.176 129.19 167.176C128.464 167.176 127.916 166.956 127.547 166.517C127.178 166.077 126.993 165.453 126.993 164.645V158.747H125.262V157.49H126.993V155.188H128.619ZM136.248 167.176C134.959 167.176 133.91 166.754 133.102 165.91C132.293 165.061 131.889 163.927 131.889 162.509V162.21C131.889 161.267 132.067 160.426 132.425 159.688C132.788 158.943 133.292 158.363 133.937 157.947C134.587 157.525 135.29 157.314 136.046 157.314C137.282 157.314 138.243 157.722 138.929 158.536C139.614 159.351 139.957 160.517 139.957 162.034V162.711H133.515C133.538 163.648 133.811 164.407 134.332 164.987C134.859 165.562 135.527 165.849 136.336 165.849C136.91 165.849 137.396 165.731 137.795 165.497C138.193 165.263 138.542 164.952 138.841 164.565L139.834 165.339C139.037 166.563 137.842 167.176 136.248 167.176ZM136.046 158.65C135.39 158.65 134.839 158.891 134.394 159.371C133.948 159.846 133.673 160.514 133.567 161.375H138.331V161.252C138.284 160.426 138.062 159.787 137.663 159.336C137.265 158.879 136.726 158.65 136.046 158.65ZM143.385 157.49L143.438 158.686C144.164 157.771 145.113 157.314 146.285 157.314C148.295 157.314 149.309 158.448 149.326 160.716V167H147.7V160.707C147.694 160.021 147.536 159.515 147.226 159.187C146.921 158.858 146.443 158.694 145.793 158.694C145.266 158.694 144.803 158.835 144.404 159.116C144.006 159.397 143.695 159.767 143.473 160.224V167H141.847V157.49H143.385ZM153.984 155.188V157.49H155.76V158.747H153.984V164.645C153.984 165.025 154.063 165.312 154.222 165.506C154.38 165.693 154.649 165.787 155.03 165.787C155.218 165.787 155.476 165.752 155.804 165.682V167C155.376 167.117 154.96 167.176 154.556 167.176C153.829 167.176 153.281 166.956 152.912 166.517C152.543 166.077 152.358 165.453 152.358 164.645V158.747H150.627V157.49H152.358V155.188H153.984ZM103.21 182.806C103.21 181.481 103.386 180.21 103.737 178.991C104.095 177.772 104.625 176.665 105.328 175.669C106.031 174.673 106.761 173.97 107.517 173.56L107.851 174.632C106.995 175.288 106.292 176.29 105.741 177.638C105.196 178.985 104.897 180.494 104.845 182.164L104.836 182.911C104.836 185.173 105.249 187.136 106.075 188.8C106.573 189.796 107.165 190.575 107.851 191.138L107.517 192.131C106.737 191.697 105.993 190.971 105.284 189.951C103.901 187.959 103.21 185.577 103.21 182.806ZM112.597 183.966L112.843 185.653L113.203 184.133L115.734 175.203H117.158L119.628 184.133L119.979 185.68L120.252 183.957L122.238 175.203H123.935L120.832 188H119.294L116.657 178.675L116.455 177.699L116.253 178.675L113.52 188H111.981L108.888 175.203H110.575L112.597 183.966ZM129.226 188.176C127.937 188.176 126.888 187.754 126.079 186.91C125.271 186.061 124.866 184.927 124.866 183.509V183.21C124.866 182.267 125.045 181.426 125.402 180.688C125.766 179.943 126.27 179.363 126.914 178.947C127.564 178.525 128.268 178.314 129.023 178.314C130.26 178.314 131.221 178.722 131.906 179.536C132.592 180.351 132.935 181.517 132.935 183.034V183.711H126.492C126.516 184.648 126.788 185.407 127.31 185.987C127.837 186.562 128.505 186.849 129.313 186.849C129.888 186.849 130.374 186.731 130.772 186.497C131.171 186.263 131.52 185.952 131.818 185.565L132.812 186.339C132.015 187.563 130.819 188.176 129.226 188.176ZM129.023 179.65C128.367 179.65 127.816 179.891 127.371 180.371C126.926 180.846 126.65 181.514 126.545 182.375H131.309V182.252C131.262 181.426 131.039 180.787 130.641 180.336C130.242 179.879 129.703 179.65 129.023 179.65ZM142.875 183.351C142.875 184.804 142.541 185.973 141.873 186.857C141.205 187.736 140.309 188.176 139.184 188.176C137.982 188.176 137.054 187.751 136.397 186.901L136.318 188H134.824V174.5H136.45V179.536C137.106 178.722 138.012 178.314 139.166 178.314C140.32 178.314 141.226 178.751 141.882 179.624C142.544 180.497 142.875 181.692 142.875 183.21V183.351ZM141.249 183.166C141.249 182.059 141.035 181.203 140.607 180.6C140.18 179.996 139.564 179.694 138.762 179.694C137.689 179.694 136.919 180.192 136.45 181.188V185.302C136.948 186.298 137.725 186.796 138.779 186.796C139.559 186.796 140.165 186.494 140.599 185.891C141.032 185.287 141.249 184.379 141.249 183.166ZM148.685 182.894C148.685 184.2 148.512 185.454 148.166 186.655C147.826 187.851 147.302 188.955 146.593 189.969C145.89 190.982 145.151 191.703 144.378 192.131L144.035 191.138C144.938 190.446 145.661 189.374 146.206 187.921C146.757 186.462 147.038 184.845 147.05 183.069V182.788C147.05 181.558 146.921 180.415 146.663 179.36C146.405 178.3 146.045 177.351 145.582 176.513C145.125 175.675 144.609 175.021 144.035 174.553L144.378 173.56C145.151 173.987 145.887 174.702 146.584 175.704C147.287 176.706 147.812 177.811 148.157 179.018C148.509 180.225 148.685 181.517 148.685 182.894Z" fill="black"/>
<rect x="260.5" y="125.5" width="99" height="49" rx="3.5" fill="white" stroke="black"/>
<path d="M284.556 150.296C283.108 149.88 282.054 149.37 281.392 148.767C280.735 148.157 280.407 147.407 280.407 146.517C280.407 145.509 280.809 144.677 281.611 144.021C282.42 143.358 283.469 143.027 284.758 143.027C285.637 143.027 286.419 143.197 287.104 143.537C287.796 143.877 288.329 144.346 288.704 144.943C289.085 145.541 289.275 146.194 289.275 146.903H287.579C287.579 146.13 287.333 145.523 286.841 145.084C286.349 144.639 285.654 144.416 284.758 144.416C283.926 144.416 283.275 144.601 282.807 144.97C282.344 145.333 282.112 145.84 282.112 146.49C282.112 147.012 282.332 147.454 282.771 147.817C283.217 148.175 283.97 148.503 285.03 148.802C286.097 149.101 286.929 149.432 287.526 149.795C288.13 150.152 288.575 150.571 288.862 151.052C289.155 151.532 289.302 152.098 289.302 152.748C289.302 153.785 288.897 154.617 288.089 155.244C287.28 155.865 286.199 156.176 284.846 156.176C283.967 156.176 283.146 156.009 282.385 155.675C281.623 155.335 281.034 154.872 280.618 154.286C280.208 153.7 280.003 153.035 280.003 152.291H281.699C281.699 153.064 281.983 153.677 282.552 154.128C283.126 154.573 283.891 154.796 284.846 154.796C285.736 154.796 286.419 154.614 286.894 154.251C287.368 153.888 287.605 153.393 287.605 152.766C287.605 152.139 287.386 151.655 286.946 151.315C286.507 150.97 285.71 150.63 284.556 150.296ZM295.032 154.849C295.612 154.849 296.119 154.673 296.553 154.321C296.986 153.97 297.227 153.53 297.273 153.003H298.812C298.782 153.548 298.595 154.066 298.249 154.559C297.903 155.051 297.44 155.443 296.86 155.736C296.286 156.029 295.677 156.176 295.032 156.176C293.737 156.176 292.706 155.745 291.938 154.884C291.177 154.017 290.796 152.833 290.796 151.333V151.061C290.796 150.135 290.966 149.312 291.306 148.591C291.646 147.87 292.132 147.311 292.765 146.912C293.403 146.514 294.156 146.314 295.023 146.314C296.09 146.314 296.975 146.634 297.678 147.272C298.387 147.911 298.765 148.74 298.812 149.76H297.273C297.227 149.145 296.992 148.641 296.57 148.248C296.154 147.85 295.639 147.65 295.023 147.65C294.197 147.65 293.556 147.949 293.099 148.547C292.647 149.139 292.422 149.997 292.422 151.122V151.43C292.422 152.525 292.647 153.369 293.099 153.961C293.55 154.553 294.194 154.849 295.032 154.849ZM305.236 147.949C304.99 147.908 304.724 147.888 304.437 147.888C303.37 147.888 302.646 148.342 302.266 149.25V156H300.64V146.49H302.222L302.248 147.589C302.781 146.739 303.537 146.314 304.516 146.314C304.832 146.314 305.072 146.355 305.236 146.438V147.949ZM312.259 156C312.165 155.812 312.089 155.479 312.03 154.998C311.274 155.783 310.372 156.176 309.323 156.176C308.386 156.176 307.615 155.912 307.012 155.385C306.414 154.852 306.115 154.178 306.115 153.363C306.115 152.373 306.49 151.605 307.24 151.061C307.996 150.51 309.057 150.234 310.422 150.234H312.004V149.487C312.004 148.919 311.834 148.468 311.494 148.134C311.154 147.794 310.653 147.624 309.991 147.624C309.411 147.624 308.925 147.771 308.532 148.063C308.14 148.356 307.943 148.711 307.943 149.127H306.309C306.309 148.652 306.476 148.195 306.81 147.756C307.149 147.311 307.606 146.959 308.181 146.701C308.761 146.443 309.396 146.314 310.088 146.314C311.184 146.314 312.042 146.59 312.663 147.141C313.284 147.686 313.606 148.438 313.63 149.399V153.776C313.63 154.649 313.741 155.344 313.964 155.859V156H312.259ZM309.561 154.761C310.07 154.761 310.554 154.629 311.011 154.365C311.468 154.102 311.799 153.759 312.004 153.337V151.386H310.729C308.737 151.386 307.741 151.969 307.741 153.135C307.741 153.645 307.911 154.043 308.251 154.33C308.591 154.617 309.027 154.761 309.561 154.761ZM324.212 151.351C324.212 152.798 323.881 153.964 323.219 154.849C322.557 155.733 321.66 156.176 320.529 156.176C319.375 156.176 318.467 155.81 317.805 155.077V159.656H316.179V146.49H317.664L317.743 147.545C318.405 146.725 319.325 146.314 320.503 146.314C321.646 146.314 322.548 146.745 323.21 147.606C323.878 148.468 324.212 149.666 324.212 151.201V151.351ZM322.586 151.166C322.586 150.094 322.357 149.247 321.9 148.626C321.443 148.005 320.816 147.694 320.02 147.694C319.035 147.694 318.297 148.131 317.805 149.004V153.548C318.291 154.415 319.035 154.849 320.037 154.849C320.816 154.849 321.435 154.541 321.892 153.926C322.354 153.305 322.586 152.385 322.586 151.166ZM330.232 156.176C328.943 156.176 327.895 155.754 327.086 154.91C326.277 154.061 325.873 152.927 325.873 151.509V151.21C325.873 150.267 326.052 149.426 326.409 148.688C326.772 147.943 327.276 147.363 327.921 146.947C328.571 146.525 329.274 146.314 330.03 146.314C331.267 146.314 332.228 146.722 332.913 147.536C333.599 148.351 333.941 149.517 333.941 151.034V151.711H327.499C327.522 152.648 327.795 153.407 328.316 153.987C328.844 154.562 329.512 154.849 330.32 154.849C330.895 154.849 331.381 154.731 331.779 154.497C332.178 154.263 332.526 153.952 332.825 153.565L333.818 154.339C333.021 155.563 331.826 156.176 330.232 156.176ZM330.03 147.65C329.374 147.65 328.823 147.891 328.378 148.371C327.933 148.846 327.657 149.514 327.552 150.375H332.315V150.252C332.269 149.426 332.046 148.787 331.647 148.336C331.249 147.879 330.71 147.65 330.03 147.65ZM340.428 147.949C340.182 147.908 339.915 147.888 339.628 147.888C338.562 147.888 337.838 148.342 337.457 149.25V156H335.831V146.49H337.413L337.439 147.589C337.973 146.739 338.729 146.314 339.707 146.314C340.023 146.314 340.264 146.355 340.428 146.438V147.949Z" fill="black"/>
<rect x="434.5" y="100.5" width="99" height="99" rx="3.5" fill="white" stroke="black"/>
<path d="M447.517 140.296C446.069 139.88 445.015 139.37 444.353 138.767C443.696 138.157 443.368 137.407 443.368 136.517C443.368 135.509 443.77 134.677 444.572 134.021C445.381 133.358 446.43 133.027 447.719 133.027C448.598 133.027 449.38 133.197 450.065 133.537C450.757 133.877 451.29 134.346 451.665 134.943C452.046 135.541 452.236 136.194 452.236 136.903H450.54C450.54 136.13 450.294 135.523 449.802 135.084C449.31 134.639 448.615 134.416 447.719 134.416C446.887 134.416 446.236 134.601 445.768 134.97C445.305 135.333 445.073 135.84 445.073 136.49C445.073 137.012 445.293 137.454 445.732 137.817C446.178 138.175 446.931 138.503 447.991 138.802C449.058 139.101 449.89 139.432 450.487 139.795C451.091 140.152 451.536 140.571 451.823 141.052C452.116 141.532 452.263 142.098 452.263 142.748C452.263 143.785 451.858 144.617 451.05 145.244C450.241 145.865 449.16 146.176 447.807 146.176C446.928 146.176 446.107 146.009 445.346 145.675C444.584 145.335 443.995 144.872 443.579 144.286C443.169 143.7 442.964 143.035 442.964 142.291H444.66C444.66 143.064 444.944 143.677 445.513 144.128C446.087 144.573 446.852 144.796 447.807 144.796C448.697 144.796 449.38 144.614 449.854 144.251C450.329 143.888 450.566 143.393 450.566 142.766C450.566 142.139 450.347 141.655 449.907 141.315C449.468 140.97 448.671 140.63 447.517 140.296ZM456.385 134.188V136.49H458.16V137.747H456.385V143.645C456.385 144.025 456.464 144.312 456.622 144.506C456.78 144.693 457.05 144.787 457.431 144.787C457.618 144.787 457.876 144.752 458.204 144.682V146C457.776 146.117 457.36 146.176 456.956 146.176C456.229 146.176 455.682 145.956 455.312 145.517C454.943 145.077 454.759 144.453 454.759 143.645V137.747H453.027V136.49H454.759V134.188H456.385ZM464.664 137.949C464.418 137.908 464.151 137.888 463.864 137.888C462.798 137.888 462.074 138.342 461.693 139.25V146H460.067V136.49H461.649L461.676 137.589C462.209 136.739 462.965 136.314 463.943 136.314C464.26 136.314 464.5 136.355 464.664 136.438V137.949ZM472.038 145.06C471.405 145.804 470.477 146.176 469.252 146.176C468.238 146.176 467.465 145.883 466.932 145.297C466.404 144.705 466.138 143.832 466.132 142.678V136.49H467.758V142.634C467.758 144.075 468.344 144.796 469.516 144.796C470.758 144.796 471.584 144.333 471.994 143.407V136.49H473.62V146H472.073L472.038 145.06ZM479.913 144.849C480.493 144.849 481 144.673 481.434 144.321C481.867 143.97 482.107 143.53 482.154 143.003H483.692C483.663 143.548 483.476 144.066 483.13 144.559C482.784 145.051 482.321 145.443 481.741 145.736C481.167 146.029 480.558 146.176 479.913 146.176C478.618 146.176 477.587 145.745 476.819 144.884C476.058 144.017 475.677 142.833 475.677 141.333V141.061C475.677 140.135 475.847 139.312 476.187 138.591C476.526 137.87 477.013 137.311 477.646 136.912C478.284 136.514 479.037 136.314 479.904 136.314C480.971 136.314 481.855 136.634 482.559 137.272C483.268 137.911 483.646 138.74 483.692 139.76H482.154C482.107 139.145 481.873 138.641 481.451 138.248C481.035 137.85 480.52 137.65 479.904 137.65C479.078 137.65 478.437 137.949 477.979 138.547C477.528 139.139 477.303 139.997 477.303 141.122V141.43C477.303 142.525 477.528 143.369 477.979 143.961C478.431 144.553 479.075 144.849 479.913 144.849ZM487.727 134.188V136.49H489.502V137.747H487.727V143.645C487.727 144.025 487.806 144.312 487.964 144.506C488.122 144.693 488.392 144.787 488.772 144.787C488.96 144.787 489.218 144.752 489.546 144.682V146C489.118 146.117 488.702 146.176 488.298 146.176C487.571 146.176 487.023 145.956 486.654 145.517C486.285 145.077 486.101 144.453 486.101 143.645V137.747H484.369V136.49H486.101V134.188H487.727ZM497.28 145.06C496.647 145.804 495.719 146.176 494.494 146.176C493.48 146.176 492.707 145.883 492.174 145.297C491.646 144.705 491.38 143.832 491.374 142.678V136.49H493V142.634C493 144.075 493.586 144.796 494.758 144.796C496 144.796 496.826 144.333 497.236 143.407V136.49H498.862V146H497.315L497.28 145.06ZM505.938 137.949C505.691 137.908 505.425 137.888 505.138 137.888C504.071 137.888 503.348 138.342 502.967 139.25V146H501.341V136.49H502.923L502.949 137.589C503.482 136.739 504.238 136.314 505.217 136.314C505.533 136.314 505.773 136.355 505.938 136.438V137.949ZM511.211 146.176C509.922 146.176 508.873 145.754 508.064 144.91C507.256 144.061 506.852 142.927 506.852 141.509V141.21C506.852 140.267 507.03 139.426 507.388 138.688C507.751 137.943 508.255 137.363 508.899 136.947C509.55 136.525 510.253 136.314 511.009 136.314C512.245 136.314 513.206 136.722 513.892 137.536C514.577 138.351 514.92 139.517 514.92 141.034V141.711H508.478C508.501 142.648 508.773 143.407 509.295 143.987C509.822 144.562 510.49 144.849 511.299 144.849C511.873 144.849 512.359 144.731 512.758 144.497C513.156 144.263 513.505 143.952 513.804 143.565L514.797 144.339C514 145.563 512.805 146.176 511.211 146.176ZM511.009 137.65C510.353 137.65 509.802 137.891 509.356 138.371C508.911 138.846 508.636 139.514 508.53 140.375H513.294V140.252C513.247 139.426 513.024 138.787 512.626 138.336C512.228 137.879 511.688 137.65 511.009 137.65ZM516.414 141.166C516.414 139.707 516.76 138.535 517.451 137.65C518.143 136.76 519.048 136.314 520.167 136.314C521.28 136.314 522.162 136.695 522.812 137.457V132.5H524.438V146H522.944L522.865 144.98C522.215 145.777 521.31 146.176 520.149 146.176C519.048 146.176 518.148 145.725 517.451 144.822C516.76 143.92 516.414 142.742 516.414 141.289V141.166ZM518.04 141.351C518.04 142.429 518.263 143.272 518.708 143.882C519.153 144.491 519.769 144.796 520.554 144.796C521.585 144.796 522.338 144.333 522.812 143.407V139.039C522.326 138.143 521.579 137.694 520.571 137.694C519.774 137.694 519.153 138.002 518.708 138.617C518.263 139.232 518.04 140.144 518.04 141.351ZM466.844 167V154.203H470.456C471.569 154.203 472.554 154.449 473.409 154.941C474.265 155.434 474.924 156.134 475.387 157.042C475.855 157.95 476.093 158.993 476.099 160.171V160.988C476.099 162.195 475.864 163.253 475.396 164.161C474.933 165.069 474.268 165.767 473.4 166.253C472.539 166.739 471.534 166.988 470.386 167H466.844ZM468.531 155.592V165.62H470.307C471.607 165.62 472.618 165.216 473.339 164.407C474.065 163.599 474.429 162.447 474.429 160.953V160.206C474.429 158.753 474.086 157.625 473.4 156.822C472.721 156.014 471.754 155.604 470.5 155.592H468.531ZM484.272 167C484.179 166.812 484.103 166.479 484.044 165.998C483.288 166.783 482.386 167.176 481.337 167.176C480.399 167.176 479.629 166.912 479.025 166.385C478.428 165.852 478.129 165.178 478.129 164.363C478.129 163.373 478.504 162.605 479.254 162.061C480.01 161.51 481.07 161.234 482.436 161.234H484.018V160.487C484.018 159.919 483.848 159.468 483.508 159.134C483.168 158.794 482.667 158.624 482.005 158.624C481.425 158.624 480.938 158.771 480.546 159.063C480.153 159.356 479.957 159.711 479.957 160.127H478.322C478.322 159.652 478.489 159.195 478.823 158.756C479.163 158.311 479.62 157.959 480.194 157.701C480.774 157.443 481.41 157.314 482.102 157.314C483.197 157.314 484.056 157.59 484.677 158.141C485.298 158.686 485.62 159.438 485.644 160.399V164.776C485.644 165.649 485.755 166.344 485.978 166.859V167H484.272ZM481.574 165.761C482.084 165.761 482.567 165.629 483.024 165.365C483.481 165.102 483.812 164.759 484.018 164.337V162.386H482.743C480.751 162.386 479.755 162.969 479.755 164.135C479.755 164.645 479.925 165.043 480.265 165.33C480.604 165.617 481.041 165.761 481.574 165.761ZM490.398 155.188V157.49H492.174V158.747H490.398V164.645C490.398 165.025 490.478 165.312 490.636 165.506C490.794 165.693 491.063 165.787 491.444 165.787C491.632 165.787 491.89 165.752 492.218 165.682V167C491.79 167.117 491.374 167.176 490.97 167.176C490.243 167.176 489.695 166.956 489.326 166.517C488.957 166.077 488.772 165.453 488.772 164.645V158.747H487.041V157.49H488.772V155.188H490.398ZM499.952 167C499.858 166.812 499.782 166.479 499.724 165.998C498.968 166.783 498.065 167.176 497.017 167.176C496.079 167.176 495.309 166.912 494.705 166.385C494.107 165.852 493.809 165.178 493.809 164.363C493.809 163.373 494.184 162.605 494.934 162.061C495.689 161.51 496.75 161.234 498.115 161.234H499.697V160.487C499.697 159.919 499.527 159.468 499.188 159.134C498.848 158.794 498.347 158.624 497.685 158.624C497.104 158.624 496.618 158.771 496.226 159.063C495.833 159.356 495.637 159.711 495.637 160.127H494.002C494.002 159.652 494.169 159.195 494.503 158.756C494.843 158.311 495.3 157.959 495.874 157.701C496.454 157.443 497.09 157.314 497.781 157.314C498.877 157.314 499.735 157.59 500.356 158.141C500.978 158.686 501.3 159.438 501.323 160.399V164.776C501.323 165.649 501.435 166.344 501.657 166.859V167H499.952ZM497.254 165.761C497.764 165.761 498.247 165.629 498.704 165.365C499.161 165.102 499.492 164.759 499.697 164.337V162.386H498.423C496.431 162.386 495.435 162.969 495.435 164.135C495.435 164.645 495.604 165.043 495.944 165.33C496.284 165.617 496.721 165.761 497.254 165.761Z" fill="black"/>
<path d="M185.293 139.293C184.902 139.683 184.902 140.317 185.293 140.707L191.657 147.071C192.047 147.462 192.681 147.462 193.071 147.071C193.462 146.681 193.462 146.047 193.071 145.657L187.414 140L193.071 134.343C193.462 133.953 193.462 133.319 193.071 132.929C192.681 132.538 192.047 132.538 191.657 132.929L185.293 139.293ZM260.027 139H186V141H260.027V139Z" fill="black"/>
<path d="M259.734 160.707C260.125 160.317 260.125 159.683 259.734 159.293L253.37 152.929C252.98 152.538 252.346 152.538 251.956 152.929C251.565 153.319 251.565 153.953 251.956 154.343L257.613 160L251.956 165.657C251.565 166.047 251.565 166.681 251.956 167.071C252.346 167.462 252.98 167.462 253.37 167.071L259.734 160.707ZM185 161H259.027V159H185V161Z" fill="black"/>
<path d="M434.734 150.707C435.125 150.317 435.125 149.683 434.734 149.293L428.37 142.929C427.98 142.538 427.346 142.538 426.956 142.929C426.565 143.319 426.565 143.953 426.956 144.343L432.613 150L426.956 155.657C426.565 156.047 426.565 156.681 426.956 157.071C427.346 157.462 427.98 157.462 428.37 157.071L434.734 150.707ZM360 151H434.027V149H360V151Z" fill="black"/>
</svg>
