<svg width="600" height="300" viewBox="0 0 600 300" fill="none" xmlns="http://www.w3.org/2000/svg">
<rect width="600" height="300" fill="white"/>
<rect x="21.5" y="99.5" width="119" height="59" rx="3.5" fill="white" stroke="black"/>
<rect x="167.5" y="99.5" width="119" height="59" rx="3.5" fill="white" stroke="black"/>
<rect x="313.5" y="99.5" width="119" height="59" rx="3.5" fill="white" stroke="black"/>
<rect x="459.5" y="99.5" width="119" height="59" rx="3.5" fill="white" stroke="black"/>
<path d="M74.752 205.402H70.582L69.6455 208H68.292L72.0928 198.047H73.2412L77.0488 208H75.7021L74.752 205.402ZM70.9785 204.322H74.3623L72.667 199.667L70.9785 204.322ZM81.3213 203.563C80.1956 203.24 79.3753 202.843 78.8604 202.374C78.3499 201.9 78.0947 201.317 78.0947 200.624C78.0947 199.84 78.4069 199.193 79.0312 198.683C79.6602 198.168 80.4759 197.91 81.4785 197.91C82.1621 197.91 82.7705 198.042 83.3037 198.307C83.8415 198.571 84.2562 198.936 84.5479 199.4C84.8441 199.865 84.9922 200.373 84.9922 200.925H83.6729C83.6729 200.323 83.4814 199.852 83.0986 199.51C82.7158 199.163 82.1758 198.99 81.4785 198.99C80.8314 198.99 80.3255 199.134 79.9609 199.421C79.6009 199.703 79.4209 200.098 79.4209 200.604C79.4209 201.009 79.5918 201.353 79.9336 201.636C80.2799 201.914 80.8656 202.169 81.6904 202.401C82.5199 202.634 83.167 202.891 83.6318 203.174C84.1012 203.452 84.4476 203.778 84.6709 204.151C84.8988 204.525 85.0127 204.965 85.0127 205.471C85.0127 206.277 84.6982 206.924 84.0693 207.412C83.4404 207.895 82.5996 208.137 81.5469 208.137C80.8633 208.137 80.2253 208.007 79.6328 207.747C79.0404 207.483 78.5824 207.123 78.2588 206.667C77.9398 206.211 77.7803 205.694 77.7803 205.115H79.0996C79.0996 205.717 79.3206 206.193 79.7627 206.544C80.2093 206.89 80.804 207.063 81.5469 207.063C82.2396 207.063 82.7705 206.922 83.1396 206.64C83.5088 206.357 83.6934 205.972 83.6934 205.484C83.6934 204.997 83.5225 204.621 83.1807 204.356C82.8389 204.088 82.2191 203.823 81.3213 203.563ZM93.5781 199.127H90.3789V208H89.0732V199.127H85.8809V198.047H93.5781V199.127Z" fill="black"/>
<path d="M182.252 191.127H179.053V200H177.747V191.127H174.555V190.047H182.252V191.127ZM185.458 198.147L187.181 192.604H188.534L185.561 201.142C185.1 202.372 184.369 202.987 183.366 202.987L183.127 202.967L182.655 202.878V201.853L182.997 201.88C183.425 201.88 183.758 201.793 183.995 201.62C184.237 201.447 184.435 201.13 184.59 200.67L184.87 199.918L182.231 192.604H183.612L185.458 198.147ZM195.917 196.384C195.917 197.509 195.66 198.416 195.145 199.104C194.63 199.793 193.932 200.137 193.053 200.137C192.155 200.137 191.449 199.852 190.934 199.282V202.844H189.669V192.604H190.824L190.886 193.424C191.401 192.786 192.116 192.467 193.032 192.467C193.921 192.467 194.623 192.802 195.138 193.472C195.657 194.142 195.917 195.074 195.917 196.268V196.384ZM194.652 196.24C194.652 195.406 194.475 194.748 194.119 194.265C193.764 193.782 193.276 193.54 192.656 193.54C191.891 193.54 191.316 193.88 190.934 194.559V198.093C191.312 198.767 191.891 199.104 192.67 199.104C193.276 199.104 193.757 198.865 194.112 198.387C194.472 197.904 194.652 197.188 194.652 196.24ZM200.6 200.137C199.597 200.137 198.781 199.809 198.152 199.152C197.523 198.492 197.209 197.61 197.209 196.507V196.274C197.209 195.541 197.348 194.887 197.626 194.312C197.909 193.734 198.3 193.283 198.802 192.959C199.308 192.631 199.854 192.467 200.442 192.467C201.404 192.467 202.151 192.784 202.685 193.417C203.218 194.05 203.484 194.957 203.484 196.138V196.664H198.474C198.492 197.393 198.704 197.983 199.109 198.435C199.52 198.881 200.039 199.104 200.668 199.104C201.115 199.104 201.493 199.013 201.803 198.831C202.113 198.649 202.384 198.407 202.616 198.106L203.389 198.708C202.769 199.66 201.839 200.137 200.6 200.137ZM200.442 193.506C199.932 193.506 199.504 193.693 199.157 194.066C198.811 194.436 198.597 194.955 198.515 195.625H202.22V195.529C202.183 194.887 202.01 194.39 201.7 194.039C201.39 193.684 200.971 193.506 200.442 193.506ZM209.801 200H208.536V192.604H209.801V200ZM208.434 190.642C208.434 190.437 208.495 190.263 208.618 190.122C208.746 189.981 208.933 189.91 209.179 189.91C209.425 189.91 209.612 189.981 209.739 190.122C209.867 190.263 209.931 190.437 209.931 190.642C209.931 190.847 209.867 191.018 209.739 191.154C209.612 191.291 209.425 191.359 209.179 191.359C208.933 191.359 208.746 191.291 208.618 191.154C208.495 191.018 208.434 190.847 208.434 190.642ZM213.027 192.604L213.068 193.533C213.633 192.822 214.372 192.467 215.283 192.467C216.846 192.467 217.635 193.349 217.648 195.112V200H216.384V195.105C216.379 194.572 216.256 194.178 216.015 193.923C215.778 193.668 215.406 193.54 214.9 193.54C214.49 193.54 214.13 193.649 213.82 193.868C213.51 194.087 213.269 194.374 213.096 194.729V200H211.831V192.604H213.027ZM220.178 200V193.581H219.009V192.604H220.178V191.845C220.178 191.052 220.39 190.439 220.813 190.006C221.237 189.573 221.837 189.356 222.611 189.356C222.903 189.356 223.192 189.395 223.479 189.473L223.411 190.498C223.197 190.457 222.969 190.437 222.728 190.437C222.317 190.437 222.001 190.557 221.777 190.799C221.554 191.036 221.442 191.378 221.442 191.824V192.604H223.021V193.581H221.442V200H220.178ZM224.088 196.233C224.088 195.509 224.229 194.857 224.512 194.278C224.799 193.7 225.195 193.253 225.701 192.938C226.212 192.624 226.793 192.467 227.444 192.467C228.451 192.467 229.265 192.815 229.885 193.513C230.509 194.21 230.821 195.137 230.821 196.295V196.384C230.821 197.104 230.682 197.751 230.404 198.325C230.131 198.895 229.737 199.339 229.222 199.658C228.711 199.977 228.123 200.137 227.458 200.137C226.455 200.137 225.642 199.788 225.018 199.091C224.398 198.394 224.088 197.471 224.088 196.322V196.233ZM225.359 196.384C225.359 197.204 225.549 197.863 225.927 198.359C226.31 198.856 226.82 199.104 227.458 199.104C228.101 199.104 228.611 198.854 228.989 198.353C229.368 197.847 229.557 197.14 229.557 196.233C229.557 195.422 229.363 194.766 228.976 194.265C228.593 193.759 228.082 193.506 227.444 193.506C226.82 193.506 226.316 193.754 225.934 194.251C225.551 194.748 225.359 195.459 225.359 196.384ZM235.982 193.738C235.791 193.706 235.584 193.69 235.36 193.69C234.531 193.69 233.968 194.044 233.672 194.75V200H232.407V192.604H233.638L233.658 193.458C234.073 192.797 234.661 192.467 235.422 192.467C235.668 192.467 235.855 192.499 235.982 192.562V193.738ZM238.341 192.604L238.375 193.424C238.917 192.786 239.649 192.467 240.569 192.467C241.604 192.467 242.308 192.863 242.682 193.656C242.928 193.301 243.247 193.014 243.639 192.795C244.035 192.576 244.502 192.467 245.04 192.467C246.662 192.467 247.487 193.326 247.515 195.044V200H246.25V195.119C246.25 194.59 246.129 194.196 245.888 193.937C245.646 193.672 245.241 193.54 244.671 193.54C244.201 193.54 243.812 193.681 243.502 193.964C243.192 194.242 243.012 194.618 242.962 195.092V200H241.69V195.153C241.69 194.078 241.164 193.54 240.111 193.54C239.282 193.54 238.715 193.893 238.409 194.6V200H237.145V192.604H238.341ZM253.995 200C253.922 199.854 253.863 199.594 253.817 199.221C253.229 199.831 252.528 200.137 251.712 200.137C250.983 200.137 250.383 199.932 249.914 199.521C249.449 199.107 249.217 198.583 249.217 197.949C249.217 197.179 249.508 196.582 250.092 196.158C250.68 195.73 251.505 195.516 252.566 195.516H253.797V194.935C253.797 194.493 253.665 194.142 253.4 193.882C253.136 193.618 252.746 193.485 252.231 193.485C251.78 193.485 251.402 193.599 251.097 193.827C250.791 194.055 250.639 194.331 250.639 194.654H249.367C249.367 194.285 249.497 193.93 249.757 193.588C250.021 193.242 250.377 192.968 250.823 192.768C251.274 192.567 251.769 192.467 252.307 192.467C253.159 192.467 253.826 192.681 254.31 193.109C254.793 193.533 255.043 194.119 255.062 194.866V198.271C255.062 198.95 255.148 199.49 255.321 199.891V200H253.995ZM251.896 199.036C252.293 199.036 252.669 198.934 253.024 198.729C253.38 198.523 253.637 198.257 253.797 197.929V196.411H252.806C251.256 196.411 250.481 196.865 250.481 197.771C250.481 198.168 250.614 198.478 250.878 198.701C251.142 198.924 251.482 199.036 251.896 199.036ZM258.76 190.812V192.604H260.141V193.581H258.76V198.168C258.76 198.464 258.821 198.688 258.944 198.838C259.067 198.984 259.277 199.057 259.573 199.057C259.719 199.057 259.92 199.029 260.175 198.975V200C259.842 200.091 259.519 200.137 259.204 200.137C258.639 200.137 258.213 199.966 257.926 199.624C257.639 199.282 257.495 198.797 257.495 198.168V193.581H256.148V192.604H257.495V190.812H258.76ZM262.998 200H261.733V192.604H262.998V200ZM261.631 190.642C261.631 190.437 261.692 190.263 261.815 190.122C261.943 189.981 262.13 189.91 262.376 189.91C262.622 189.91 262.809 189.981 262.937 190.122C263.064 190.263 263.128 190.437 263.128 190.642C263.128 190.847 263.064 191.018 262.937 191.154C262.809 191.291 262.622 191.359 262.376 191.359C262.13 191.359 261.943 191.291 261.815 191.154C261.692 191.018 261.631 190.847 261.631 190.642ZM264.693 196.233C264.693 195.509 264.835 194.857 265.117 194.278C265.404 193.7 265.801 193.253 266.307 192.938C266.817 192.624 267.398 192.467 268.05 192.467C269.057 192.467 269.87 192.815 270.49 193.513C271.115 194.21 271.427 195.137 271.427 196.295V196.384C271.427 197.104 271.288 197.751 271.01 198.325C270.736 198.895 270.342 199.339 269.827 199.658C269.317 199.977 268.729 200.137 268.063 200.137C267.061 200.137 266.247 199.788 265.623 199.091C265.003 198.394 264.693 197.471 264.693 196.322V196.233ZM265.965 196.384C265.965 197.204 266.154 197.863 266.532 198.359C266.915 198.856 267.425 199.104 268.063 199.104C268.706 199.104 269.216 198.854 269.595 198.353C269.973 197.847 270.162 197.14 270.162 196.233C270.162 195.422 269.968 194.766 269.581 194.265C269.198 193.759 268.688 193.506 268.05 193.506C267.425 193.506 266.922 193.754 266.539 194.251C266.156 194.748 265.965 195.459 265.965 196.384ZM274.209 192.604L274.25 193.533C274.815 192.822 275.553 192.467 276.465 192.467C278.028 192.467 278.816 193.349 278.83 195.112V200H277.565V195.105C277.561 194.572 277.438 194.178 277.196 193.923C276.959 193.668 276.588 193.54 276.082 193.54C275.672 193.54 275.312 193.649 275.002 193.868C274.692 194.087 274.451 194.374 274.277 194.729V200H273.013V192.604H274.209ZM209.268 213.327C209.268 212.849 209.4 212.409 209.664 212.008C209.933 211.607 210.443 211.14 211.195 210.606C210.753 210.069 210.457 209.636 210.307 209.308C210.156 208.979 210.081 208.654 210.081 208.33C210.081 207.574 210.304 206.981 210.751 206.553C211.198 206.124 211.804 205.91 212.569 205.91C213.253 205.91 213.818 206.111 214.265 206.512C214.711 206.908 214.935 207.41 214.935 208.016C214.935 208.417 214.832 208.788 214.627 209.13C214.426 209.467 214.073 209.823 213.567 210.196L212.836 210.736L215.051 213.382C215.361 212.789 215.516 212.131 215.516 211.406H216.657C216.657 212.568 216.377 213.532 215.816 214.298L217.238 216H215.721L215.058 215.214C214.72 215.515 214.324 215.745 213.868 215.904C213.417 216.059 212.957 216.137 212.487 216.137C211.517 216.137 210.737 215.879 210.149 215.364C209.562 214.849 209.268 214.17 209.268 213.327ZM212.487 215.104C213.157 215.104 213.77 214.849 214.326 214.339L211.899 211.434L211.674 211.598C210.913 212.158 210.532 212.735 210.532 213.327C210.532 213.865 210.705 214.296 211.052 214.619C211.403 214.943 211.881 215.104 212.487 215.104ZM211.346 208.289C211.346 208.727 211.615 209.273 212.152 209.93L212.959 209.362C213.269 209.144 213.481 208.936 213.595 208.74C213.709 208.54 213.766 208.298 213.766 208.016C213.766 207.71 213.652 207.457 213.424 207.257C213.196 207.052 212.909 206.949 212.562 206.949C212.189 206.949 211.893 207.077 211.674 207.332C211.455 207.583 211.346 207.902 211.346 208.289ZM223.609 206.047L226.863 214.168L230.117 206.047H231.819V216H230.507V212.124L230.63 207.94L227.362 216H226.357L223.097 207.961L223.227 212.124V216H221.914V206.047H223.609ZM235.545 216H234.232V206.047H235.545V216ZM241.602 211.974H239.264V216H237.944V206.047H241.239C242.36 206.047 243.222 206.302 243.823 206.812C244.429 207.323 244.732 208.066 244.732 209.041C244.732 209.661 244.564 210.201 244.227 210.661C243.894 211.121 243.429 211.465 242.832 211.693L245.17 215.918V216H243.762L241.602 211.974ZM239.264 210.9H241.28C241.932 210.9 242.449 210.732 242.832 210.395C243.219 210.057 243.413 209.606 243.413 209.041C243.413 208.426 243.229 207.954 242.859 207.626C242.495 207.298 241.966 207.132 241.273 207.127H239.264V210.9Z" fill="black"/>
<path d="M347.092 203.345C347.092 204.32 346.928 205.172 346.6 205.901C346.271 206.626 345.807 207.18 345.205 207.562C344.604 207.945 343.902 208.137 343.1 208.137C342.316 208.137 341.621 207.945 341.015 207.562C340.409 207.175 339.937 206.626 339.6 205.915C339.267 205.2 339.096 204.372 339.087 203.434V202.716C339.087 201.759 339.253 200.913 339.586 200.18C339.919 199.446 340.388 198.885 340.994 198.498C341.605 198.106 342.302 197.91 343.086 197.91C343.883 197.91 344.585 198.104 345.191 198.491C345.802 198.874 346.271 199.432 346.6 200.166C346.928 200.895 347.092 201.745 347.092 202.716V203.345ZM345.786 202.702C345.786 201.522 345.549 200.617 345.075 199.988C344.601 199.355 343.938 199.038 343.086 199.038C342.257 199.038 341.603 199.355 341.124 199.988C340.65 200.617 340.406 201.492 340.393 202.613V203.345C340.393 204.489 340.632 205.389 341.11 206.045C341.593 206.697 342.257 207.022 343.1 207.022C343.947 207.022 344.604 206.715 345.068 206.1C345.533 205.48 345.772 204.593 345.786 203.44V202.702ZM355.124 204.384C355.124 205.514 354.864 206.423 354.345 207.111C353.825 207.795 353.128 208.137 352.253 208.137C351.319 208.137 350.596 207.806 350.086 207.146L350.024 208H348.862V197.5H350.127V201.417C350.637 200.784 351.341 200.467 352.239 200.467C353.137 200.467 353.841 200.806 354.352 201.485C354.867 202.164 355.124 203.094 355.124 204.274V204.384ZM353.859 204.24C353.859 203.379 353.693 202.714 353.36 202.244C353.028 201.775 352.549 201.54 351.925 201.54C351.091 201.54 350.492 201.927 350.127 202.702V205.901C350.514 206.676 351.118 207.063 351.938 207.063C352.545 207.063 353.016 206.829 353.354 206.359C353.691 205.89 353.859 205.184 353.859 204.24ZM358.029 200.604V208.854C358.029 210.276 357.384 210.987 356.095 210.987C355.817 210.987 355.559 210.946 355.322 210.864V209.853C355.468 209.889 355.66 209.907 355.896 209.907C356.179 209.907 356.393 209.83 356.539 209.675C356.689 209.524 356.765 209.26 356.765 208.882V200.604H358.029ZM356.635 198.642C356.635 198.441 356.696 198.27 356.819 198.129C356.947 197.983 357.132 197.91 357.373 197.91C357.619 197.91 357.806 197.981 357.934 198.122C358.061 198.263 358.125 198.437 358.125 198.642C358.125 198.847 358.061 199.018 357.934 199.154C357.806 199.291 357.619 199.359 357.373 199.359C357.127 199.359 356.942 199.291 356.819 199.154C356.696 199.018 356.635 198.847 356.635 198.642ZM363.143 208.137C362.14 208.137 361.324 207.809 360.695 207.152C360.066 206.492 359.752 205.61 359.752 204.507V204.274C359.752 203.541 359.891 202.887 360.169 202.312C360.451 201.734 360.843 201.283 361.345 200.959C361.851 200.631 362.397 200.467 362.985 200.467C363.947 200.467 364.694 200.784 365.228 201.417C365.761 202.05 366.027 202.957 366.027 204.138V204.664H361.017C361.035 205.393 361.247 205.983 361.652 206.435C362.062 206.881 362.582 207.104 363.211 207.104C363.658 207.104 364.036 207.013 364.346 206.831C364.656 206.649 364.927 206.407 365.159 206.106L365.932 206.708C365.312 207.66 364.382 208.137 363.143 208.137ZM362.985 201.506C362.475 201.506 362.047 201.693 361.7 202.066C361.354 202.436 361.14 202.955 361.058 203.625H364.763V203.529C364.726 202.887 364.553 202.39 364.243 202.039C363.933 201.684 363.514 201.506 362.985 201.506ZM370.464 207.104C370.915 207.104 371.309 206.968 371.646 206.694C371.984 206.421 372.171 206.079 372.207 205.669H373.403C373.381 206.093 373.235 206.496 372.966 206.879C372.697 207.262 372.337 207.567 371.886 207.795C371.439 208.023 370.965 208.137 370.464 208.137C369.457 208.137 368.655 207.802 368.058 207.132C367.465 206.457 367.169 205.537 367.169 204.37V204.158C367.169 203.438 367.301 202.798 367.565 202.237C367.83 201.677 368.208 201.242 368.7 200.932C369.197 200.622 369.783 200.467 370.457 200.467C371.286 200.467 371.975 200.715 372.521 201.212C373.073 201.709 373.367 202.354 373.403 203.146H372.207C372.171 202.668 371.988 202.276 371.66 201.971C371.337 201.661 370.936 201.506 370.457 201.506C369.814 201.506 369.315 201.738 368.96 202.203C368.609 202.663 368.434 203.331 368.434 204.206V204.445C368.434 205.298 368.609 205.954 368.96 206.414C369.311 206.874 369.812 207.104 370.464 207.104ZM376.541 198.812V200.604H377.922V201.581H376.541V206.168C376.541 206.464 376.603 206.688 376.726 206.838C376.849 206.984 377.058 207.057 377.354 207.057C377.5 207.057 377.701 207.029 377.956 206.975V208C377.623 208.091 377.3 208.137 376.985 208.137C376.42 208.137 375.994 207.966 375.707 207.624C375.42 207.282 375.276 206.797 375.276 206.168V201.581H373.93V200.604H375.276V198.812H376.541ZM383.302 208V201.581H382.133V200.604H383.302V199.975C383.302 199.15 383.536 198.507 384.006 198.047C384.48 197.587 385.147 197.356 386.009 197.356C386.519 197.356 387.164 197.495 387.943 197.773L387.731 198.84C387.162 198.612 386.619 198.498 386.104 198.498C385.562 198.498 385.17 198.621 384.929 198.867C384.692 199.109 384.573 199.473 384.573 199.961V200.604H386.084V201.581H384.573V208H383.302ZM388.572 208H387.301V200.604H388.572V208ZM392.004 208H390.739V197.5H392.004V208ZM397.104 208.137C396.101 208.137 395.285 207.809 394.656 207.152C394.027 206.492 393.713 205.61 393.713 204.507V204.274C393.713 203.541 393.852 202.887 394.13 202.312C394.412 201.734 394.804 201.283 395.306 200.959C395.812 200.631 396.358 200.467 396.946 200.467C397.908 200.467 398.655 200.784 399.188 201.417C399.722 202.05 399.988 202.957 399.988 204.138V204.664H394.978C394.996 205.393 395.208 205.983 395.613 206.435C396.023 206.881 396.543 207.104 397.172 207.104C397.618 207.104 397.997 207.013 398.307 206.831C398.617 206.649 398.888 206.407 399.12 206.106L399.893 206.708C399.273 207.66 398.343 208.137 397.104 208.137ZM396.946 201.506C396.436 201.506 396.007 201.693 395.661 202.066C395.315 202.436 395.101 202.955 395.019 203.625H398.724V203.529C398.687 202.887 398.514 202.39 398.204 202.039C397.894 201.684 397.475 201.506 396.946 201.506ZM405.765 206.038C405.765 205.696 405.635 205.432 405.375 205.245C405.12 205.054 404.671 204.89 404.028 204.753C403.39 204.616 402.882 204.452 402.504 204.261C402.13 204.069 401.852 203.841 401.67 203.577C401.492 203.313 401.403 202.998 401.403 202.634C401.403 202.028 401.659 201.515 402.169 201.096C402.684 200.676 403.34 200.467 404.138 200.467C404.976 200.467 405.655 200.683 406.175 201.116C406.699 201.549 406.961 202.103 406.961 202.777H405.689C405.689 202.431 405.541 202.132 405.245 201.882C404.953 201.631 404.584 201.506 404.138 201.506C403.677 201.506 403.317 201.606 403.058 201.807C402.798 202.007 402.668 202.269 402.668 202.593C402.668 202.898 402.789 203.128 403.03 203.283C403.272 203.438 403.707 203.586 404.336 203.728C404.969 203.869 405.482 204.037 405.874 204.233C406.266 204.429 406.555 204.666 406.742 204.944C406.934 205.218 407.029 205.553 407.029 205.949C407.029 206.61 406.765 207.141 406.236 207.542C405.708 207.938 405.022 208.137 404.179 208.137C403.586 208.137 403.062 208.032 402.606 207.822C402.151 207.613 401.793 207.321 401.533 206.947C401.278 206.569 401.15 206.161 401.15 205.724H402.415C402.438 206.147 402.606 206.485 402.921 206.735C403.24 206.981 403.659 207.104 404.179 207.104C404.657 207.104 405.04 207.009 405.327 206.817C405.619 206.621 405.765 206.362 405.765 206.038Z" fill="black"/>
<path d="M500.173 208V198.047H503.427C504.507 198.047 505.318 198.27 505.86 198.717C506.407 199.163 506.681 199.824 506.681 200.699C506.681 201.164 506.549 201.576 506.284 201.937C506.02 202.292 505.66 202.568 505.204 202.764C505.742 202.914 506.166 203.201 506.476 203.625C506.79 204.044 506.947 204.546 506.947 205.129C506.947 206.022 506.658 206.724 506.079 207.234C505.5 207.745 504.682 208 503.625 208H500.173ZM501.485 203.345V206.927H503.652C504.263 206.927 504.744 206.77 505.095 206.455C505.45 206.136 505.628 205.699 505.628 205.143C505.628 203.944 504.976 203.345 503.673 203.345H501.485ZM501.485 202.292H503.468C504.042 202.292 504.5 202.148 504.842 201.861C505.188 201.574 505.361 201.185 505.361 200.692C505.361 200.146 505.202 199.749 504.883 199.503C504.564 199.252 504.078 199.127 503.427 199.127H501.485V202.292ZM510.071 208H508.807V200.604H510.071V208ZM508.704 198.642C508.704 198.437 508.766 198.263 508.889 198.122C509.016 197.981 509.203 197.91 509.449 197.91C509.695 197.91 509.882 197.981 510.01 198.122C510.137 198.263 510.201 198.437 510.201 198.642C510.201 198.847 510.137 199.018 510.01 199.154C509.882 199.291 509.695 199.359 509.449 199.359C509.203 199.359 509.016 199.291 508.889 199.154C508.766 199.018 508.704 198.847 508.704 198.642ZM513.298 200.604L513.339 201.533C513.904 200.822 514.642 200.467 515.554 200.467C517.117 200.467 517.905 201.349 517.919 203.112V208H516.654V203.105C516.65 202.572 516.527 202.178 516.285 201.923C516.048 201.668 515.677 201.54 515.171 201.54C514.761 201.54 514.401 201.649 514.091 201.868C513.781 202.087 513.539 202.374 513.366 202.729V208H512.102V200.604H513.298ZM524.393 208C524.32 207.854 524.26 207.594 524.215 207.221C523.627 207.831 522.925 208.137 522.109 208.137C521.38 208.137 520.781 207.932 520.312 207.521C519.847 207.107 519.614 206.583 519.614 205.949C519.614 205.179 519.906 204.582 520.489 204.158C521.077 203.73 521.902 203.516 522.964 203.516H524.194V202.935C524.194 202.493 524.062 202.142 523.798 201.882C523.534 201.618 523.144 201.485 522.629 201.485C522.178 201.485 521.799 201.599 521.494 201.827C521.189 202.055 521.036 202.331 521.036 202.654H519.765C519.765 202.285 519.895 201.93 520.154 201.588C520.419 201.242 520.774 200.968 521.221 200.768C521.672 200.567 522.166 200.467 522.704 200.467C523.556 200.467 524.224 200.681 524.707 201.109C525.19 201.533 525.441 202.119 525.459 202.866V206.271C525.459 206.95 525.546 207.49 525.719 207.891V208H524.393ZM522.294 207.036C522.69 207.036 523.066 206.934 523.422 206.729C523.777 206.523 524.035 206.257 524.194 205.929V204.411H523.203C521.654 204.411 520.879 204.865 520.879 205.771C520.879 206.168 521.011 206.478 521.275 206.701C521.54 206.924 521.879 207.036 522.294 207.036ZM531.017 201.738C530.825 201.706 530.618 201.69 530.395 201.69C529.565 201.69 529.002 202.044 528.706 202.75V208H527.441V200.604H528.672L528.692 201.458C529.107 200.797 529.695 200.467 530.456 200.467C530.702 200.467 530.889 200.499 531.017 200.562V201.738ZM534.729 206.147L536.451 200.604H537.805L534.831 209.142C534.371 210.372 533.639 210.987 532.637 210.987L532.397 210.967L531.926 210.878V209.853L532.268 209.88C532.696 209.88 533.029 209.793 533.266 209.62C533.507 209.447 533.705 209.13 533.86 208.67L534.141 207.918L531.502 200.604H532.883L534.729 206.147Z" fill="black"/>
<path d="M167.707 129.707C168.098 129.317 168.098 128.683 167.707 128.293L161.343 121.929C160.953 121.538 160.319 121.538 159.929 121.929C159.538 122.319 159.538 122.953 159.929 123.343L165.586 129L159.929 134.657C159.538 135.047 159.538 135.681 159.929 136.071C160.319 136.462 160.953 136.462 161.343 136.071L167.707 129.707ZM141 130H167V128H141V130Z" fill="black"/>
<path d="M313.707 129.707C314.098 129.317 314.098 128.683 313.707 128.293L307.343 121.929C306.953 121.538 306.319 121.538 305.929 121.929C305.538 122.319 305.538 122.953 305.929 123.343L311.586 129L305.929 134.657C305.538 135.047 305.538 135.681 305.929 136.071C306.319 136.462 306.953 136.462 307.343 136.071L313.707 129.707ZM287 130H313V128H287V130Z" fill="black"/>
<path d="M459.707 129.707C460.098 129.317 460.098 128.683 459.707 128.293L453.343 121.929C452.953 121.538 452.319 121.538 451.929 121.929C451.538 122.319 451.538 122.953 451.929 123.343L457.586 129L451.929 134.657C451.538 135.047 451.538 135.681 451.929 136.071C452.319 136.462 452.953 136.462 453.343 136.071L459.707 129.707ZM433 130H459V128H433V130Z" fill="black"/>
<path d="M48.2178 113.104V117H46.9053V107.047H50.5762C51.6654 107.047 52.5176 107.325 53.1328 107.881C53.7526 108.437 54.0625 109.173 54.0625 110.089C54.0625 111.055 53.7594 111.8 53.1533 112.324C52.5518 112.844 51.6882 113.104 50.5625 113.104H48.2178ZM48.2178 112.03H50.5762C51.278 112.03 51.8158 111.866 52.1895 111.538C52.5632 111.205 52.75 110.727 52.75 110.103C52.75 109.51 52.5632 109.036 52.1895 108.681C51.8158 108.325 51.3031 108.141 50.6514 108.127H48.2178V112.03ZM60.0234 117C59.9505 116.854 59.8913 116.594 59.8457 116.221C59.2578 116.831 58.556 117.137 57.7402 117.137C57.0111 117.137 56.4118 116.932 55.9424 116.521C55.4775 116.107 55.2451 115.583 55.2451 114.949C55.2451 114.179 55.5368 113.582 56.1201 113.158C56.708 112.73 57.5329 112.516 58.5947 112.516H59.8252V111.935C59.8252 111.493 59.693 111.142 59.4287 110.882C59.1644 110.618 58.7747 110.485 58.2598 110.485C57.8086 110.485 57.4303 110.599 57.125 110.827C56.8197 111.055 56.667 111.331 56.667 111.654H55.3955C55.3955 111.285 55.5254 110.93 55.7852 110.588C56.0495 110.242 56.4049 109.968 56.8516 109.768C57.3027 109.567 57.7972 109.467 58.335 109.467C59.1872 109.467 59.8548 109.681 60.3379 110.109C60.821 110.533 61.0716 111.119 61.0898 111.866V115.271C61.0898 115.95 61.1764 116.49 61.3496 116.891V117H60.0234ZM57.9248 116.036C58.3213 116.036 58.6973 115.934 59.0527 115.729C59.4082 115.523 59.6657 115.257 59.8252 114.929V113.411H58.834C57.2845 113.411 56.5098 113.865 56.5098 114.771C56.5098 115.168 56.6419 115.478 56.9062 115.701C57.1706 115.924 57.5101 116.036 57.9248 116.036ZM66.6475 110.738C66.4561 110.706 66.2487 110.69 66.0254 110.69C65.196 110.69 64.6331 111.044 64.3369 111.75V117H63.0723V109.604H64.3027L64.3232 110.458C64.738 109.797 65.3258 109.467 66.0869 109.467C66.333 109.467 66.5199 109.499 66.6475 109.562V110.738ZM72.123 115.038C72.123 114.696 71.9932 114.432 71.7334 114.245C71.4782 114.054 71.0293 113.89 70.3867 113.753C69.7487 113.616 69.2406 113.452 68.8623 113.261C68.4886 113.069 68.2106 112.841 68.0283 112.577C67.8506 112.313 67.7617 111.998 67.7617 111.634C67.7617 111.028 68.0169 110.515 68.5273 110.096C69.0423 109.676 69.6986 109.467 70.4961 109.467C71.3346 109.467 72.0137 109.683 72.5332 110.116C73.0573 110.549 73.3193 111.103 73.3193 111.777H72.0479C72.0479 111.431 71.8997 111.132 71.6035 110.882C71.3118 110.631 70.9427 110.506 70.4961 110.506C70.0358 110.506 69.6758 110.606 69.416 110.807C69.1562 111.007 69.0264 111.269 69.0264 111.593C69.0264 111.898 69.1471 112.128 69.3887 112.283C69.6302 112.438 70.0654 112.586 70.6943 112.728C71.3278 112.869 71.8405 113.037 72.2324 113.233C72.6243 113.429 72.9137 113.666 73.1006 113.944C73.292 114.218 73.3877 114.553 73.3877 114.949C73.3877 115.61 73.1234 116.141 72.5947 116.542C72.0661 116.938 71.3802 117.137 70.5371 117.137C69.9447 117.137 69.4206 117.032 68.9648 116.822C68.5091 116.613 68.1514 116.321 67.8916 115.947C67.6364 115.569 67.5088 115.161 67.5088 114.724H68.7734C68.7962 115.147 68.9648 115.485 69.2793 115.735C69.5983 115.981 70.0176 116.104 70.5371 116.104C71.0156 116.104 71.3984 116.009 71.6855 115.817C71.9772 115.621 72.123 115.362 72.123 115.038ZM76.4092 117H75.1445V109.604H76.4092V117ZM75.042 107.642C75.042 107.437 75.1035 107.263 75.2266 107.122C75.3542 106.981 75.541 106.91 75.7871 106.91C76.0332 106.91 76.2201 106.981 76.3477 107.122C76.4753 107.263 76.5391 107.437 76.5391 107.642C76.5391 107.847 76.4753 108.018 76.3477 108.154C76.2201 108.291 76.0332 108.359 75.7871 108.359C75.541 108.359 75.3542 108.291 75.2266 108.154C75.1035 108.018 75.042 107.847 75.042 107.642ZM79.6357 109.604L79.6768 110.533C80.2419 109.822 80.9801 109.467 81.8916 109.467C83.4548 109.467 84.2432 110.349 84.2568 112.112V117H82.9922V112.105C82.9876 111.572 82.8646 111.178 82.623 110.923C82.3861 110.668 82.0146 110.54 81.5088 110.54C81.0986 110.54 80.7386 110.649 80.4287 110.868C80.1188 111.087 79.8773 111.374 79.7041 111.729V117H78.4395V109.604H79.6357ZM85.8633 113.24C85.8633 112.087 86.1299 111.171 86.6631 110.492C87.1963 109.809 87.9027 109.467 88.7822 109.467C89.6846 109.467 90.3887 109.786 90.8945 110.424L90.9561 109.604H92.1113V116.822C92.1113 117.779 91.8265 118.534 91.2568 119.085C90.6917 119.636 89.9307 119.912 88.9736 119.912C88.4404 119.912 87.9186 119.798 87.4082 119.57C86.8978 119.342 86.5081 119.03 86.2393 118.634L86.8955 117.875C87.4378 118.545 88.1009 118.88 88.8848 118.88C89.5 118.88 89.9785 118.707 90.3203 118.36C90.6667 118.014 90.8398 117.526 90.8398 116.897V116.262C90.334 116.845 89.6436 117.137 88.7686 117.137C87.9027 117.137 87.2008 116.788 86.6631 116.091C86.1299 115.394 85.8633 114.443 85.8633 113.24ZM87.1348 113.384C87.1348 114.218 87.3057 114.874 87.6475 115.353C87.9893 115.826 88.4678 116.063 89.083 116.063C89.8805 116.063 90.4661 115.701 90.8398 114.977V111.6C90.4525 110.893 89.8714 110.54 89.0967 110.54C88.4814 110.54 88.0007 110.779 87.6543 111.258C87.3079 111.736 87.1348 112.445 87.1348 113.384ZM97.2314 114.327C97.2314 113.849 97.3636 113.409 97.6279 113.008C97.8968 112.607 98.4072 112.14 99.1592 111.606C98.7171 111.069 98.4209 110.636 98.2705 110.308C98.1201 109.979 98.0449 109.654 98.0449 109.33C98.0449 108.574 98.2682 107.981 98.7148 107.553C99.1615 107.124 99.7676 106.91 100.533 106.91C101.217 106.91 101.782 107.111 102.229 107.512C102.675 107.908 102.898 108.41 102.898 109.016C102.898 109.417 102.796 109.788 102.591 110.13C102.39 110.467 102.037 110.823 101.531 111.196L100.8 111.736L103.015 114.382C103.325 113.789 103.479 113.131 103.479 112.406H104.621C104.621 113.568 104.341 114.532 103.78 115.298L105.202 117H103.685L103.021 116.214C102.684 116.515 102.288 116.745 101.832 116.904C101.381 117.059 100.921 117.137 100.451 117.137C99.4805 117.137 98.7012 116.879 98.1133 116.364C97.5254 115.849 97.2314 115.17 97.2314 114.327ZM100.451 116.104C101.121 116.104 101.734 115.849 102.29 115.339L99.8633 112.434L99.6377 112.598C98.8766 113.158 98.4961 113.735 98.4961 114.327C98.4961 114.865 98.6693 115.296 99.0156 115.619C99.3665 115.943 99.8451 116.104 100.451 116.104ZM99.3096 109.289C99.3096 109.727 99.5785 110.273 100.116 110.93L100.923 110.362C101.233 110.144 101.445 109.936 101.559 109.74C101.673 109.54 101.729 109.298 101.729 109.016C101.729 108.71 101.616 108.457 101.388 108.257C101.16 108.052 100.873 107.949 100.526 107.949C100.153 107.949 99.8564 108.077 99.6377 108.332C99.4189 108.583 99.3096 108.902 99.3096 109.289ZM58.4717 123.047L61.7256 131.168L64.9795 123.047H66.6816V133H65.3691V129.124L65.4922 124.94L62.2246 133H61.2197L57.959 124.961L58.0889 129.124V133H56.7764V123.047H58.4717ZM73.3672 133C73.2943 132.854 73.235 132.594 73.1895 132.221C72.6016 132.831 71.8997 133.137 71.084 133.137C70.3548 133.137 69.7555 132.932 69.2861 132.521C68.8213 132.107 68.5889 131.583 68.5889 130.949C68.5889 130.179 68.8805 129.582 69.4639 129.158C70.0518 128.73 70.8766 128.516 71.9385 128.516H73.1689V127.935C73.1689 127.493 73.0368 127.142 72.7725 126.882C72.5081 126.618 72.1185 126.485 71.6035 126.485C71.1523 126.485 70.7741 126.599 70.4688 126.827C70.1634 127.055 70.0107 127.331 70.0107 127.654H68.7393C68.7393 127.285 68.8691 126.93 69.1289 126.588C69.3932 126.242 69.7487 125.968 70.1953 125.768C70.6465 125.567 71.141 125.467 71.6787 125.467C72.5309 125.467 73.1986 125.681 73.6816 126.109C74.1647 126.533 74.4154 127.119 74.4336 127.866V131.271C74.4336 131.95 74.5202 132.49 74.6934 132.891V133H73.3672ZM71.2686 132.036C71.665 132.036 72.041 131.934 72.3965 131.729C72.752 131.523 73.0094 131.257 73.1689 130.929V129.411H72.1777C70.6283 129.411 69.8535 129.865 69.8535 130.771C69.8535 131.168 69.9857 131.478 70.25 131.701C70.5143 131.924 70.8538 132.036 71.2686 132.036ZM79.3828 132.104C79.834 132.104 80.2282 131.968 80.5654 131.694C80.9027 131.421 81.0895 131.079 81.126 130.669H82.3223C82.2995 131.093 82.1536 131.496 81.8848 131.879C81.6159 132.262 81.2559 132.567 80.8047 132.795C80.3581 133.023 79.8841 133.137 79.3828 133.137C78.3757 133.137 77.5736 132.802 76.9766 132.132C76.3841 131.457 76.0879 130.537 76.0879 129.37V129.158C76.0879 128.438 76.2201 127.798 76.4844 127.237C76.7487 126.677 77.127 126.242 77.6191 125.932C78.1159 125.622 78.7015 125.467 79.376 125.467C80.2054 125.467 80.8936 125.715 81.4404 126.212C81.9919 126.709 82.2858 127.354 82.3223 128.146H81.126C81.0895 127.668 80.9072 127.276 80.5791 126.971C80.2555 126.661 79.8545 126.506 79.376 126.506C78.7334 126.506 78.2344 126.738 77.8789 127.203C77.528 127.663 77.3525 128.331 77.3525 129.206V129.445C77.3525 130.298 77.528 130.954 77.8789 131.414C78.2298 131.874 78.7311 132.104 79.3828 132.104ZM87.3193 126.738C87.1279 126.706 86.9206 126.69 86.6973 126.69C85.8678 126.69 85.305 127.044 85.0088 127.75V133H83.7441V125.604H84.9746L84.9951 126.458C85.4098 125.797 85.9977 125.467 86.7588 125.467C87.0049 125.467 87.1917 125.499 87.3193 125.562V126.738ZM88.0166 129.233C88.0166 128.509 88.1579 127.857 88.4404 127.278C88.7275 126.7 89.124 126.253 89.6299 125.938C90.1403 125.624 90.7214 125.467 91.373 125.467C92.3802 125.467 93.1937 125.815 93.8135 126.513C94.4378 127.21 94.75 128.137 94.75 129.295V129.384C94.75 130.104 94.611 130.751 94.333 131.325C94.0596 131.895 93.6654 132.339 93.1504 132.658C92.64 132.977 92.0521 133.137 91.3867 133.137C90.3841 133.137 89.5706 132.788 88.9463 132.091C88.3265 131.394 88.0166 130.471 88.0166 129.322V129.233ZM89.2881 129.384C89.2881 130.204 89.4772 130.863 89.8555 131.359C90.2383 131.856 90.7487 132.104 91.3867 132.104C92.0293 132.104 92.5397 131.854 92.918 131.353C93.2962 130.847 93.4854 130.14 93.4854 129.233C93.4854 128.422 93.2917 127.766 92.9043 127.265C92.5215 126.759 92.0111 126.506 91.373 126.506C90.7487 126.506 90.2451 126.754 89.8623 127.251C89.4795 127.748 89.2881 128.459 89.2881 129.384ZM47.5752 149.137C46.5726 149.137 45.7568 148.809 45.1279 148.152C44.499 147.492 44.1846 146.61 44.1846 145.507V145.274C44.1846 144.541 44.3236 143.887 44.6016 143.312C44.8841 142.734 45.276 142.283 45.7773 141.959C46.2832 141.631 46.8301 141.467 47.418 141.467C48.3796 141.467 49.127 141.784 49.6602 142.417C50.1934 143.05 50.46 143.957 50.46 145.138V145.664H45.4492C45.4674 146.393 45.6794 146.983 46.085 147.435C46.4951 147.881 47.0146 148.104 47.6436 148.104C48.0902 148.104 48.4684 148.013 48.7783 147.831C49.0882 147.649 49.3594 147.407 49.5918 147.106L50.3643 147.708C49.7445 148.66 48.8148 149.137 47.5752 149.137ZM47.418 142.506C46.9076 142.506 46.4792 142.693 46.1328 143.066C45.7865 143.436 45.5723 143.955 45.4902 144.625H49.1953V144.529C49.1589 143.887 48.9857 143.39 48.6758 143.039C48.3659 142.684 47.9466 142.506 47.418 142.506ZM54.4111 144.304L56.0518 141.604H57.5283L55.1084 145.261L57.6035 149H56.1406L54.4316 146.231L52.7227 149H51.2529L53.748 145.261L51.3281 141.604H52.791L54.4111 144.304ZM65.123 145.384C65.123 146.509 64.8656 147.416 64.3506 148.104C63.8356 148.793 63.1383 149.137 62.2588 149.137C61.361 149.137 60.6546 148.852 60.1396 148.282V151.844H58.875V141.604H60.0303L60.0918 142.424C60.6068 141.786 61.3223 141.467 62.2383 141.467C63.127 141.467 63.8288 141.802 64.3438 142.472C64.8633 143.142 65.123 144.074 65.123 145.268V145.384ZM63.8584 145.24C63.8584 144.406 63.6807 143.748 63.3252 143.265C62.9697 142.782 62.4821 142.54 61.8623 142.54C61.0967 142.54 60.5225 142.88 60.1396 143.559V147.093C60.5179 147.767 61.0967 148.104 61.876 148.104C62.4821 148.104 62.9629 147.865 63.3184 147.387C63.6784 146.904 63.8584 146.188 63.8584 145.24ZM71.3027 149C71.2298 148.854 71.1706 148.594 71.125 148.221C70.5371 148.831 69.8353 149.137 69.0195 149.137C68.2904 149.137 67.6911 148.932 67.2217 148.521C66.7568 148.107 66.5244 147.583 66.5244 146.949C66.5244 146.179 66.8161 145.582 67.3994 145.158C67.9873 144.73 68.8122 144.516 69.874 144.516H71.1045V143.935C71.1045 143.493 70.9723 143.142 70.708 142.882C70.4437 142.618 70.054 142.485 69.5391 142.485C69.0879 142.485 68.7096 142.599 68.4043 142.827C68.099 143.055 67.9463 143.331 67.9463 143.654H66.6748C66.6748 143.285 66.8047 142.93 67.0645 142.588C67.3288 142.242 67.6842 141.968 68.1309 141.768C68.582 141.567 69.0765 141.467 69.6143 141.467C70.4665 141.467 71.1341 141.681 71.6172 142.109C72.1003 142.533 72.3509 143.119 72.3691 143.866V147.271C72.3691 147.95 72.4557 148.49 72.6289 148.891V149H71.3027ZM69.2041 148.036C69.6006 148.036 69.9766 147.934 70.332 147.729C70.6875 147.523 70.945 147.257 71.1045 146.929V145.411H70.1133C68.5638 145.411 67.7891 145.865 67.7891 146.771C67.7891 147.168 67.9212 147.478 68.1855 147.701C68.4499 147.924 68.7894 148.036 69.2041 148.036ZM75.5479 141.604L75.5889 142.533C76.154 141.822 76.8923 141.467 77.8037 141.467C79.3669 141.467 80.1553 142.349 80.1689 144.112V149H78.9043V144.105C78.8997 143.572 78.7767 143.178 78.5352 142.923C78.2982 142.668 77.9268 142.54 77.4209 142.54C77.0107 142.54 76.6507 142.649 76.3408 142.868C76.0309 143.087 75.7894 143.374 75.6162 143.729V149H74.3516V141.604H75.5479ZM86.3828 147.038C86.3828 146.696 86.2529 146.432 85.9932 146.245C85.738 146.054 85.2891 145.89 84.6465 145.753C84.0085 145.616 83.5003 145.452 83.1221 145.261C82.7484 145.069 82.4704 144.841 82.2881 144.577C82.1104 144.313 82.0215 143.998 82.0215 143.634C82.0215 143.028 82.2767 142.515 82.7871 142.096C83.3021 141.676 83.9583 141.467 84.7559 141.467C85.5944 141.467 86.2734 141.683 86.793 142.116C87.3171 142.549 87.5791 143.103 87.5791 143.777H86.3076C86.3076 143.431 86.1595 143.132 85.8633 142.882C85.5716 142.631 85.2025 142.506 84.7559 142.506C84.2956 142.506 83.9355 142.606 83.6758 142.807C83.416 143.007 83.2861 143.269 83.2861 143.593C83.2861 143.898 83.4069 144.128 83.6484 144.283C83.89 144.438 84.3252 144.586 84.9541 144.728C85.5876 144.869 86.1003 145.037 86.4922 145.233C86.8841 145.429 87.1735 145.666 87.3604 145.944C87.5518 146.218 87.6475 146.553 87.6475 146.949C87.6475 147.61 87.3831 148.141 86.8545 148.542C86.3258 148.938 85.64 149.137 84.7969 149.137C84.2044 149.137 83.6803 149.032 83.2246 148.822C82.7689 148.613 82.4111 148.321 82.1514 147.947C81.8962 147.569 81.7686 147.161 81.7686 146.724H83.0332C83.056 147.147 83.2246 147.485 83.5391 147.735C83.8581 147.981 84.2773 148.104 84.7969 148.104C85.2754 148.104 85.6582 148.009 85.9453 147.817C86.237 147.621 86.3828 147.362 86.3828 147.038ZM90.6689 149H89.4043V141.604H90.6689V149ZM89.3018 139.642C89.3018 139.437 89.3633 139.263 89.4863 139.122C89.6139 138.981 89.8008 138.91 90.0469 138.91C90.293 138.91 90.4798 138.981 90.6074 139.122C90.735 139.263 90.7988 139.437 90.7988 139.642C90.7988 139.847 90.735 140.018 90.6074 140.154C90.4798 140.291 90.293 140.359 90.0469 140.359C89.8008 140.359 89.6139 140.291 89.4863 140.154C89.3633 140.018 89.3018 139.847 89.3018 139.642ZM92.3643 145.233C92.3643 144.509 92.5055 143.857 92.7881 143.278C93.0752 142.7 93.4717 142.253 93.9775 141.938C94.488 141.624 95.069 141.467 95.7207 141.467C96.7279 141.467 97.5413 141.815 98.1611 142.513C98.7855 143.21 99.0977 144.137 99.0977 145.295V145.384C99.0977 146.104 98.9587 146.751 98.6807 147.325C98.4072 147.895 98.013 148.339 97.498 148.658C96.9876 148.977 96.3997 149.137 95.7344 149.137C94.7318 149.137 93.9183 148.788 93.2939 148.091C92.6742 147.394 92.3643 146.471 92.3643 145.322V145.233ZM93.6357 145.384C93.6357 146.204 93.8249 146.863 94.2031 147.359C94.5859 147.856 95.0964 148.104 95.7344 148.104C96.377 148.104 96.8874 147.854 97.2656 147.353C97.6439 146.847 97.833 146.14 97.833 145.233C97.833 144.422 97.6393 143.766 97.252 143.265C96.8691 142.759 96.3587 142.506 95.7207 142.506C95.0964 142.506 94.5928 142.754 94.21 143.251C93.8271 143.748 93.6357 144.459 93.6357 145.384ZM101.88 141.604L101.921 142.533C102.486 141.822 103.224 141.467 104.136 141.467C105.699 141.467 106.487 142.349 106.501 144.112V149H105.236V144.105C105.232 143.572 105.109 143.178 104.867 142.923C104.63 142.668 104.259 142.54 103.753 142.54C103.343 142.54 102.983 142.649 102.673 142.868C102.363 143.087 102.121 143.374 101.948 143.729V149H100.684V141.604H101.88Z" fill="black"/>
<path d="M207.977 130.402H203.807L202.87 133H201.517L205.317 123.047H206.466L210.273 133H208.927L207.977 130.402ZM204.203 129.322H207.587L205.892 124.667L204.203 129.322ZM212.611 125.604L212.652 126.533C213.217 125.822 213.956 125.467 214.867 125.467C216.43 125.467 217.219 126.349 217.232 128.112V133H215.968V128.105C215.963 127.572 215.84 127.178 215.599 126.923C215.362 126.668 214.99 126.54 214.484 126.54C214.074 126.54 213.714 126.649 213.404 126.868C213.094 127.087 212.853 127.374 212.68 127.729V133H211.415V125.604H212.611ZM223.706 133C223.633 132.854 223.574 132.594 223.528 132.221C222.94 132.831 222.239 133.137 221.423 133.137C220.694 133.137 220.094 132.932 219.625 132.521C219.16 132.107 218.928 131.583 218.928 130.949C218.928 130.179 219.219 129.582 219.803 129.158C220.391 128.73 221.215 128.516 222.277 128.516H223.508V127.935C223.508 127.493 223.376 127.142 223.111 126.882C222.847 126.618 222.457 126.485 221.942 126.485C221.491 126.485 221.113 126.599 220.808 126.827C220.502 127.055 220.35 127.331 220.35 127.654H219.078C219.078 127.285 219.208 126.93 219.468 126.588C219.732 126.242 220.088 125.968 220.534 125.768C220.985 125.567 221.48 125.467 222.018 125.467C222.87 125.467 223.537 125.681 224.021 126.109C224.504 126.533 224.754 127.119 224.772 127.866V131.271C224.772 131.95 224.859 132.49 225.032 132.891V133H223.706ZM221.607 132.036C222.004 132.036 222.38 131.934 222.735 131.729C223.091 131.523 223.348 131.257 223.508 130.929V129.411H222.517C220.967 129.411 220.192 129.865 220.192 130.771C220.192 131.168 220.325 131.478 220.589 131.701C220.853 131.924 221.193 132.036 221.607 132.036ZM228.129 133H226.864V122.5H228.129V133ZM232.579 131.147L234.302 125.604H235.655L232.682 134.142C232.221 135.372 231.49 135.987 230.487 135.987L230.248 135.967L229.776 135.878V134.853L230.118 134.88C230.547 134.88 230.879 134.793 231.116 134.62C231.358 134.447 231.556 134.13 231.711 133.67L231.991 132.918L229.353 125.604H230.733L232.579 131.147ZM241.097 131.038C241.097 130.696 240.967 130.432 240.707 130.245C240.452 130.054 240.003 129.89 239.36 129.753C238.722 129.616 238.214 129.452 237.836 129.261C237.462 129.069 237.184 128.841 237.002 128.577C236.824 128.313 236.735 127.998 236.735 127.634C236.735 127.028 236.991 126.515 237.501 126.096C238.016 125.676 238.672 125.467 239.47 125.467C240.308 125.467 240.987 125.683 241.507 126.116C242.031 126.549 242.293 127.103 242.293 127.777H241.021C241.021 127.431 240.873 127.132 240.577 126.882C240.285 126.631 239.916 126.506 239.47 126.506C239.009 126.506 238.649 126.606 238.39 126.807C238.13 127.007 238 127.269 238 127.593C238 127.898 238.121 128.128 238.362 128.283C238.604 128.438 239.039 128.586 239.668 128.728C240.301 128.869 240.814 129.037 241.206 129.233C241.598 129.429 241.887 129.666 242.074 129.944C242.266 130.218 242.361 130.553 242.361 130.949C242.361 131.61 242.097 132.141 241.568 132.542C241.04 132.938 240.354 133.137 239.511 133.137C238.918 133.137 238.394 133.032 237.938 132.822C237.483 132.613 237.125 132.321 236.865 131.947C236.61 131.569 236.482 131.161 236.482 130.724H237.747C237.77 131.147 237.938 131.485 238.253 131.735C238.572 131.981 238.991 132.104 239.511 132.104C239.989 132.104 240.372 132.009 240.659 131.817C240.951 131.621 241.097 131.362 241.097 131.038ZM245.383 133H244.118V125.604H245.383V133ZM244.016 123.642C244.016 123.437 244.077 123.263 244.2 123.122C244.328 122.981 244.515 122.91 244.761 122.91C245.007 122.91 245.194 122.981 245.321 123.122C245.449 123.263 245.513 123.437 245.513 123.642C245.513 123.847 245.449 124.018 245.321 124.154C245.194 124.291 245.007 124.359 244.761 124.359C244.515 124.359 244.328 124.291 244.2 124.154C244.077 124.018 244.016 123.847 244.016 123.642ZM251.72 131.038C251.72 130.696 251.59 130.432 251.33 130.245C251.075 130.054 250.626 129.89 249.983 129.753C249.345 129.616 248.837 129.452 248.459 129.261C248.085 129.069 247.807 128.841 247.625 128.577C247.447 128.313 247.358 127.998 247.358 127.634C247.358 127.028 247.614 126.515 248.124 126.096C248.639 125.676 249.295 125.467 250.093 125.467C250.931 125.467 251.61 125.683 252.13 126.116C252.654 126.549 252.916 127.103 252.916 127.777H251.645C251.645 127.431 251.496 127.132 251.2 126.882C250.909 126.631 250.539 126.506 250.093 126.506C249.632 126.506 249.272 126.606 249.013 126.807C248.753 127.007 248.623 127.269 248.623 127.593C248.623 127.898 248.744 128.128 248.985 128.283C249.227 128.438 249.662 128.586 250.291 128.728C250.924 128.869 251.437 129.037 251.829 129.233C252.221 129.429 252.51 129.666 252.697 129.944C252.889 130.218 252.984 130.553 252.984 130.949C252.984 131.61 252.72 132.141 252.191 132.542C251.663 132.938 250.977 133.137 250.134 133.137C249.541 133.137 249.017 133.032 248.562 132.822C248.106 132.613 247.748 132.321 247.488 131.947C247.233 131.569 247.105 131.161 247.105 130.724H248.37C248.393 131.147 248.562 131.485 248.876 131.735C249.195 131.981 249.614 132.104 250.134 132.104C250.612 132.104 250.995 132.009 251.282 131.817C251.574 131.621 251.72 131.362 251.72 131.038Z" fill="black"/>
<path d="M342.108 118.345C342.108 119.32 341.944 120.172 341.616 120.901C341.288 121.626 340.823 122.18 340.222 122.562C339.62 122.945 338.918 123.137 338.116 123.137C337.332 123.137 336.637 122.945 336.031 122.562C335.425 122.175 334.953 121.626 334.616 120.915C334.284 120.2 334.113 119.372 334.104 118.434V117.716C334.104 116.759 334.27 115.913 334.603 115.18C334.935 114.446 335.405 113.885 336.011 113.498C336.621 113.106 337.319 112.91 338.103 112.91C338.9 112.91 339.602 113.104 340.208 113.491C340.819 113.874 341.288 114.432 341.616 115.166C341.944 115.895 342.108 116.745 342.108 117.716V118.345ZM340.803 117.702C340.803 116.522 340.566 115.617 340.092 114.988C339.618 114.355 338.955 114.038 338.103 114.038C337.273 114.038 336.619 114.355 336.141 114.988C335.667 115.617 335.423 116.492 335.409 117.613V118.345C335.409 119.489 335.648 120.389 336.127 121.045C336.61 121.697 337.273 122.022 338.116 122.022C338.964 122.022 339.62 121.715 340.085 121.1C340.55 120.48 340.789 119.593 340.803 118.44V117.702ZM350.127 119.384C350.127 120.509 349.869 121.416 349.354 122.104C348.84 122.793 348.142 123.137 347.263 123.137C346.365 123.137 345.659 122.852 345.144 122.282V125.844H343.879V115.604H345.034L345.096 116.424C345.611 115.786 346.326 115.467 347.242 115.467C348.131 115.467 348.833 115.802 349.348 116.472C349.867 117.142 350.127 118.074 350.127 119.268V119.384ZM348.862 119.24C348.862 118.406 348.685 117.748 348.329 117.265C347.974 116.782 347.486 116.54 346.866 116.54C346.101 116.54 345.526 116.88 345.144 117.559V121.093C345.522 121.767 346.101 122.104 346.88 122.104C347.486 122.104 347.967 121.865 348.322 121.387C348.682 120.904 348.862 120.188 348.862 119.24ZM353.456 113.812V115.604H354.837V116.581H353.456V121.168C353.456 121.464 353.518 121.688 353.641 121.838C353.764 121.984 353.973 122.057 354.27 122.057C354.415 122.057 354.616 122.029 354.871 121.975V123C354.538 123.091 354.215 123.137 353.9 123.137C353.335 123.137 352.909 122.966 352.622 122.624C352.335 122.282 352.191 121.797 352.191 121.168V116.581H350.845V115.604H352.191V113.812H353.456ZM357.694 123H356.43V115.604H357.694V123ZM356.327 113.642C356.327 113.437 356.389 113.263 356.512 113.122C356.639 112.981 356.826 112.91 357.072 112.91C357.318 112.91 357.505 112.981 357.633 113.122C357.76 113.263 357.824 113.437 357.824 113.642C357.824 113.847 357.76 114.018 357.633 114.154C357.505 114.291 357.318 114.359 357.072 114.359C356.826 114.359 356.639 114.291 356.512 114.154C356.389 114.018 356.327 113.847 356.327 113.642ZM360.914 115.604L360.948 116.424C361.491 115.786 362.222 115.467 363.143 115.467C364.177 115.467 364.881 115.863 365.255 116.656C365.501 116.301 365.82 116.014 366.212 115.795C366.608 115.576 367.076 115.467 367.613 115.467C369.236 115.467 370.061 116.326 370.088 118.044V123H368.823V118.119C368.823 117.59 368.702 117.196 368.461 116.937C368.219 116.672 367.814 116.54 367.244 116.54C366.775 116.54 366.385 116.681 366.075 116.964C365.765 117.242 365.585 117.618 365.535 118.092V123H364.264V118.153C364.264 117.078 363.737 116.54 362.685 116.54C361.855 116.54 361.288 116.893 360.982 117.6V123H359.718V115.604H360.914ZM373.376 123H372.111V115.604H373.376V123ZM372.009 113.642C372.009 113.437 372.07 113.263 372.193 113.122C372.321 112.981 372.508 112.91 372.754 112.91C373 112.91 373.187 112.981 373.314 113.122C373.442 113.263 373.506 113.437 373.506 113.642C373.506 113.847 373.442 114.018 373.314 114.154C373.187 114.291 373 114.359 372.754 114.359C372.508 114.359 372.321 114.291 372.193 114.154C372.07 114.018 372.009 113.847 372.009 113.642ZM376.596 121.968H380.923V123H375.051V122.07L379.132 116.649H375.112V115.604H380.718V116.499L376.596 121.968ZM386.918 123C386.845 122.854 386.786 122.594 386.74 122.221C386.152 122.831 385.451 123.137 384.635 123.137C383.906 123.137 383.306 122.932 382.837 122.521C382.372 122.107 382.14 121.583 382.14 120.949C382.14 120.179 382.431 119.582 383.015 119.158C383.603 118.73 384.427 118.516 385.489 118.516H386.72V117.935C386.72 117.493 386.588 117.142 386.323 116.882C386.059 116.618 385.669 116.485 385.154 116.485C384.703 116.485 384.325 116.599 384.02 116.827C383.714 117.055 383.562 117.331 383.562 117.654H382.29C382.29 117.285 382.42 116.93 382.68 116.588C382.944 116.242 383.299 115.968 383.746 115.768C384.197 115.567 384.692 115.467 385.229 115.467C386.082 115.467 386.749 115.681 387.232 116.109C387.715 116.533 387.966 117.119 387.984 117.866V121.271C387.984 121.95 388.071 122.49 388.244 122.891V123H386.918ZM384.819 122.036C385.216 122.036 385.592 121.934 385.947 121.729C386.303 121.523 386.56 121.257 386.72 120.929V119.411H385.729C384.179 119.411 383.404 119.865 383.404 120.771C383.404 121.168 383.536 121.478 383.801 121.701C384.065 121.924 384.405 122.036 384.819 122.036ZM391.683 113.812V115.604H393.063V116.581H391.683V121.168C391.683 121.464 391.744 121.688 391.867 121.838C391.99 121.984 392.2 122.057 392.496 122.057C392.642 122.057 392.842 122.029 393.098 121.975V123C392.765 123.091 392.441 123.137 392.127 123.137C391.562 123.137 391.136 122.966 390.849 122.624C390.562 122.282 390.418 121.797 390.418 121.168V116.581H389.071V115.604H390.418V113.812H391.683ZM395.921 123H394.656V115.604H395.921V123ZM394.554 113.642C394.554 113.437 394.615 113.263 394.738 113.122C394.866 112.981 395.053 112.91 395.299 112.91C395.545 112.91 395.732 112.981 395.859 113.122C395.987 113.263 396.051 113.437 396.051 113.642C396.051 113.847 395.987 114.018 395.859 114.154C395.732 114.291 395.545 114.359 395.299 114.359C395.053 114.359 394.866 114.291 394.738 114.154C394.615 114.018 394.554 113.847 394.554 113.642ZM397.616 119.233C397.616 118.509 397.757 117.857 398.04 117.278C398.327 116.7 398.724 116.253 399.229 115.938C399.74 115.624 400.321 115.467 400.973 115.467C401.98 115.467 402.793 115.815 403.413 116.513C404.037 117.21 404.35 118.137 404.35 119.295V119.384C404.35 120.104 404.211 120.751 403.933 121.325C403.659 121.895 403.265 122.339 402.75 122.658C402.24 122.977 401.652 123.137 400.986 123.137C399.984 123.137 399.17 122.788 398.546 122.091C397.926 121.394 397.616 120.471 397.616 119.322V119.233ZM398.888 119.384C398.888 120.204 399.077 120.863 399.455 121.359C399.838 121.856 400.348 122.104 400.986 122.104C401.629 122.104 402.139 121.854 402.518 121.353C402.896 120.847 403.085 120.14 403.085 119.233C403.085 118.422 402.891 117.766 402.504 117.265C402.121 116.759 401.611 116.506 400.973 116.506C400.348 116.506 399.845 116.754 399.462 117.251C399.079 117.748 398.888 118.459 398.888 119.384ZM407.132 115.604L407.173 116.533C407.738 115.822 408.476 115.467 409.388 115.467C410.951 115.467 411.739 116.349 411.753 118.112V123H410.488V118.105C410.484 117.572 410.361 117.178 410.119 116.923C409.882 116.668 409.511 116.54 409.005 116.54C408.595 116.54 408.235 116.649 407.925 116.868C407.615 117.087 407.373 117.374 407.2 117.729V123H405.936V115.604H407.132ZM339.88 136.327C339.88 135.849 340.012 135.409 340.276 135.008C340.545 134.607 341.056 134.14 341.808 133.606C341.366 133.069 341.069 132.636 340.919 132.308C340.769 131.979 340.693 131.654 340.693 131.33C340.693 130.574 340.917 129.981 341.363 129.553C341.81 129.124 342.416 128.91 343.182 128.91C343.865 128.91 344.43 129.111 344.877 129.512C345.324 129.908 345.547 130.41 345.547 131.016C345.547 131.417 345.444 131.788 345.239 132.13C345.039 132.467 344.686 132.823 344.18 133.196L343.448 133.736L345.663 136.382C345.973 135.789 346.128 135.131 346.128 134.406H347.27C347.27 135.568 346.989 136.532 346.429 137.298L347.851 139H346.333L345.67 138.214C345.333 138.515 344.936 138.745 344.48 138.904C344.029 139.059 343.569 139.137 343.1 139.137C342.129 139.137 341.35 138.879 340.762 138.364C340.174 137.849 339.88 137.17 339.88 136.327ZM343.1 138.104C343.77 138.104 344.382 137.849 344.938 137.339L342.512 134.434L342.286 134.598C341.525 135.158 341.145 135.735 341.145 136.327C341.145 136.865 341.318 137.296 341.664 137.619C342.015 137.943 342.493 138.104 343.1 138.104ZM341.958 131.289C341.958 131.727 342.227 132.273 342.765 132.93L343.571 132.362C343.881 132.144 344.093 131.936 344.207 131.74C344.321 131.54 344.378 131.298 344.378 131.016C344.378 130.71 344.264 130.457 344.036 130.257C343.808 130.052 343.521 129.949 343.175 129.949C342.801 129.949 342.505 130.077 342.286 130.332C342.067 130.583 341.958 130.902 341.958 131.289ZM359.848 135.842C359.725 136.895 359.335 137.708 358.679 138.282C358.027 138.852 357.159 139.137 356.074 139.137C354.898 139.137 353.955 138.715 353.244 137.872C352.538 137.029 352.185 135.901 352.185 134.488V133.531C352.185 132.606 352.349 131.793 352.677 131.091C353.009 130.389 353.479 129.851 354.085 129.478C354.691 129.099 355.393 128.91 356.19 128.91C357.248 128.91 358.095 129.206 358.733 129.799C359.371 130.387 359.743 131.202 359.848 132.246H358.528C358.414 131.453 358.166 130.879 357.783 130.523C357.405 130.168 356.874 129.99 356.19 129.99C355.352 129.99 354.693 130.3 354.215 130.92C353.741 131.54 353.504 132.422 353.504 133.565V134.529C353.504 135.609 353.729 136.468 354.181 137.106C354.632 137.744 355.263 138.063 356.074 138.063C356.803 138.063 357.362 137.899 357.749 137.571C358.141 137.239 358.401 136.662 358.528 135.842H359.848ZM361.112 135.233C361.112 134.509 361.254 133.857 361.536 133.278C361.823 132.7 362.22 132.253 362.726 131.938C363.236 131.624 363.817 131.467 364.469 131.467C365.476 131.467 366.289 131.815 366.909 132.513C367.534 133.21 367.846 134.137 367.846 135.295V135.384C367.846 136.104 367.707 136.751 367.429 137.325C367.155 137.895 366.761 138.339 366.246 138.658C365.736 138.977 365.148 139.137 364.482 139.137C363.48 139.137 362.666 138.788 362.042 138.091C361.422 137.394 361.112 136.471 361.112 135.322V135.233ZM362.384 135.384C362.384 136.204 362.573 136.863 362.951 137.359C363.334 137.856 363.844 138.104 364.482 138.104C365.125 138.104 365.635 137.854 366.014 137.353C366.392 136.847 366.581 136.14 366.581 135.233C366.581 134.422 366.387 133.766 366 133.265C365.617 132.759 365.107 132.506 364.469 132.506C363.844 132.506 363.341 132.754 362.958 133.251C362.575 133.748 362.384 134.459 362.384 135.384ZM369.124 135.24C369.124 134.105 369.393 133.194 369.931 132.506C370.468 131.813 371.173 131.467 372.043 131.467C372.909 131.467 373.595 131.763 374.101 132.355V128.5H375.365V139H374.203L374.142 138.207C373.636 138.827 372.932 139.137 372.029 139.137C371.173 139.137 370.473 138.786 369.931 138.084C369.393 137.382 369.124 136.466 369.124 135.336V135.24ZM370.389 135.384C370.389 136.222 370.562 136.879 370.908 137.353C371.255 137.826 371.733 138.063 372.344 138.063C373.146 138.063 373.731 137.703 374.101 136.983V133.586C373.722 132.889 373.141 132.54 372.357 132.54C371.738 132.54 371.255 132.779 370.908 133.258C370.562 133.736 370.389 134.445 370.389 135.384ZM380.403 139.137C379.401 139.137 378.585 138.809 377.956 138.152C377.327 137.492 377.013 136.61 377.013 135.507V135.274C377.013 134.541 377.152 133.887 377.43 133.312C377.712 132.734 378.104 132.283 378.605 131.959C379.111 131.631 379.658 131.467 380.246 131.467C381.208 131.467 381.955 131.784 382.488 132.417C383.021 133.05 383.288 133.957 383.288 135.138V135.664H378.277C378.296 136.393 378.507 136.983 378.913 137.435C379.323 137.881 379.843 138.104 380.472 138.104C380.918 138.104 381.297 138.013 381.606 137.831C381.916 137.649 382.188 137.407 382.42 137.106L383.192 137.708C382.573 138.66 381.643 139.137 380.403 139.137ZM380.246 132.506C379.736 132.506 379.307 132.693 378.961 133.066C378.615 133.436 378.4 133.955 378.318 134.625H382.023V134.529C381.987 133.887 381.814 133.39 381.504 133.039C381.194 132.684 380.775 132.506 380.246 132.506ZM384.457 135.24C384.457 134.087 384.724 133.171 385.257 132.492C385.79 131.809 386.496 131.467 387.376 131.467C388.278 131.467 388.982 131.786 389.488 132.424L389.55 131.604H390.705V138.822C390.705 139.779 390.42 140.534 389.851 141.085C389.285 141.636 388.524 141.912 387.567 141.912C387.034 141.912 386.512 141.798 386.002 141.57C385.492 141.342 385.102 141.03 384.833 140.634L385.489 139.875C386.032 140.545 386.695 140.88 387.479 140.88C388.094 140.88 388.572 140.707 388.914 140.36C389.26 140.014 389.434 139.526 389.434 138.897V138.262C388.928 138.845 388.237 139.137 387.362 139.137C386.496 139.137 385.795 138.788 385.257 138.091C384.724 137.394 384.457 136.443 384.457 135.24ZM385.729 135.384C385.729 136.218 385.899 136.874 386.241 137.353C386.583 137.826 387.062 138.063 387.677 138.063C388.474 138.063 389.06 137.701 389.434 136.977V133.6C389.046 132.893 388.465 132.54 387.69 132.54C387.075 132.54 386.594 132.779 386.248 133.258C385.902 133.736 385.729 134.445 385.729 135.384ZM395.688 139.137C394.686 139.137 393.87 138.809 393.241 138.152C392.612 137.492 392.298 136.61 392.298 135.507V135.274C392.298 134.541 392.437 133.887 392.715 133.312C392.997 132.734 393.389 132.283 393.891 131.959C394.396 131.631 394.943 131.467 395.531 131.467C396.493 131.467 397.24 131.784 397.773 132.417C398.307 133.05 398.573 133.957 398.573 135.138V135.664H393.562C393.581 136.393 393.793 136.983 394.198 137.435C394.608 137.881 395.128 138.104 395.757 138.104C396.203 138.104 396.582 138.013 396.892 137.831C397.201 137.649 397.473 137.407 397.705 137.106L398.478 137.708C397.858 138.66 396.928 139.137 395.688 139.137ZM395.531 132.506C395.021 132.506 394.592 132.693 394.246 133.066C393.9 133.436 393.686 133.955 393.604 134.625H397.309V134.529C397.272 133.887 397.099 133.39 396.789 133.039C396.479 132.684 396.06 132.506 395.531 132.506ZM401.239 131.604L401.28 132.533C401.845 131.822 402.584 131.467 403.495 131.467C405.058 131.467 405.847 132.349 405.86 134.112V139H404.596V134.105C404.591 133.572 404.468 133.178 404.227 132.923C403.99 132.668 403.618 132.54 403.112 132.54C402.702 132.54 402.342 132.649 402.032 132.868C401.722 133.087 401.481 133.374 401.308 133.729V139H400.043V131.604H401.239Z" fill="black"/>
<path d="M499.101 129.927H503.817V131H497.781V121.047H499.101V129.927ZM506.49 131H505.226V123.604H506.49V131ZM505.123 121.642C505.123 121.437 505.185 121.263 505.308 121.122C505.435 120.981 505.622 120.91 505.868 120.91C506.114 120.91 506.301 120.981 506.429 121.122C506.556 121.263 506.62 121.437 506.62 121.642C506.62 121.847 506.556 122.018 506.429 122.154C506.301 122.291 506.114 122.359 505.868 122.359C505.622 122.359 505.435 122.291 505.308 122.154C505.185 122.018 505.123 121.847 505.123 121.642ZM509.717 123.604L509.758 124.533C510.323 123.822 511.061 123.467 511.973 123.467C513.536 123.467 514.324 124.349 514.338 126.112V131H513.073V126.105C513.069 125.572 512.946 125.178 512.704 124.923C512.467 124.668 512.096 124.54 511.59 124.54C511.18 124.54 510.82 124.649 510.51 124.868C510.2 125.087 509.958 125.374 509.785 125.729V131H508.521V123.604H509.717ZM518.31 127.575L517.517 128.402V131H516.252V120.5H517.517V126.851L518.193 126.037L520.497 123.604H522.035L519.157 126.693L522.37 131H520.887L518.31 127.575ZM524.715 131H523.45V123.604H524.715V131ZM523.348 121.642C523.348 121.437 523.409 121.263 523.532 121.122C523.66 120.981 523.847 120.91 524.093 120.91C524.339 120.91 524.526 120.981 524.653 121.122C524.781 121.263 524.845 121.437 524.845 121.642C524.845 121.847 524.781 122.018 524.653 122.154C524.526 122.291 524.339 122.359 524.093 122.359C523.847 122.359 523.66 122.291 523.532 122.154C523.409 122.018 523.348 121.847 523.348 121.642ZM527.941 123.604L527.982 124.533C528.548 123.822 529.286 123.467 530.197 123.467C531.76 123.467 532.549 124.349 532.562 126.112V131H531.298V126.105C531.293 125.572 531.17 125.178 530.929 124.923C530.692 124.668 530.32 124.54 529.814 124.54C529.404 124.54 529.044 124.649 528.734 124.868C528.424 125.087 528.183 125.374 528.01 125.729V131H526.745V123.604H527.941ZM534.169 127.24C534.169 126.087 534.436 125.171 534.969 124.492C535.502 123.809 536.208 123.467 537.088 123.467C537.99 123.467 538.694 123.786 539.2 124.424L539.262 123.604H540.417V130.822C540.417 131.779 540.132 132.534 539.562 133.085C538.997 133.636 538.236 133.912 537.279 133.912C536.746 133.912 536.224 133.798 535.714 133.57C535.203 133.342 534.814 133.03 534.545 132.634L535.201 131.875C535.743 132.545 536.407 132.88 537.19 132.88C537.806 132.88 538.284 132.707 538.626 132.36C538.972 132.014 539.146 131.526 539.146 130.897V130.262C538.64 130.845 537.949 131.137 537.074 131.137C536.208 131.137 535.507 130.788 534.969 130.091C534.436 129.394 534.169 128.443 534.169 127.24ZM535.44 127.384C535.44 128.218 535.611 128.874 535.953 129.353C536.295 129.826 536.773 130.063 537.389 130.063C538.186 130.063 538.772 129.701 539.146 128.977V125.6C538.758 124.893 538.177 124.54 537.402 124.54C536.787 124.54 536.306 124.779 535.96 125.258C535.614 125.736 535.44 126.445 535.44 127.384Z" fill="black"/>
<path d="M61.2324 59.6426C61.2324 59.1445 61.0566 58.7637 60.7051 58.5C60.3535 58.2305 59.7207 57.9492 58.8066 57.6562C57.8926 57.3574 57.1689 57.0645 56.6357 56.7773C55.1826 55.9922 54.4561 54.9346 54.4561 53.6045C54.4561 52.9131 54.6494 52.2979 55.0361 51.7588C55.4287 51.2139 55.9883 50.7891 56.7148 50.4844C57.4473 50.1797 58.2676 50.0273 59.1758 50.0273C60.0898 50.0273 60.9043 50.1943 61.6191 50.5283C62.334 50.8564 62.8877 51.3223 63.2803 51.9258C63.6787 52.5293 63.8779 53.2148 63.8779 53.9824H61.2412C61.2412 53.3965 61.0566 52.9424 60.6875 52.6201C60.3184 52.292 59.7998 52.1279 59.1318 52.1279C58.4873 52.1279 57.9863 52.2656 57.6289 52.541C57.2715 52.8105 57.0928 53.168 57.0928 53.6133C57.0928 54.0293 57.3008 54.3779 57.7168 54.6592C58.1387 54.9404 58.7568 55.2041 59.5713 55.4502C61.0713 55.9014 62.1641 56.4609 62.8496 57.1289C63.5352 57.7969 63.8779 58.6289 63.8779 59.625C63.8779 60.7324 63.459 61.6025 62.6211 62.2354C61.7832 62.8623 60.6553 63.1758 59.2373 63.1758C58.2529 63.1758 57.3564 62.9971 56.5479 62.6396C55.7393 62.2764 55.1211 61.7812 54.6934 61.1543C54.2715 60.5273 54.0605 59.8008 54.0605 58.9746H56.7061C56.7061 60.3867 57.5498 61.0928 59.2373 61.0928C59.8643 61.0928 60.3535 60.9668 60.7051 60.7148C61.0566 60.457 61.2324 60.0996 61.2324 59.6426ZM68.5449 51.1523V53.4902H70.1709V55.3535H68.5449V60.0996C68.5449 60.4512 68.6123 60.7031 68.7471 60.8555C68.8818 61.0078 69.1396 61.084 69.5205 61.084C69.8018 61.084 70.0508 61.0635 70.2676 61.0225V62.9473C69.7695 63.0996 69.2568 63.1758 68.7295 63.1758C66.9482 63.1758 66.04 62.2764 66.0049 60.4775V55.3535H64.6162V53.4902H66.0049V51.1523H68.5449ZM77.0967 63C76.9795 62.7715 76.8945 62.4873 76.8418 62.1475C76.2266 62.833 75.4268 63.1758 74.4424 63.1758C73.5107 63.1758 72.7373 62.9062 72.1221 62.3672C71.5127 61.8281 71.208 61.1484 71.208 60.3281C71.208 59.3203 71.5801 58.5469 72.3242 58.0078C73.0742 57.4688 74.1553 57.1963 75.5674 57.1904H76.7363V56.6455C76.7363 56.2061 76.6221 55.8545 76.3936 55.5908C76.1709 55.3271 75.8164 55.1953 75.3301 55.1953C74.9023 55.1953 74.5654 55.2979 74.3193 55.5029C74.0791 55.708 73.959 55.9893 73.959 56.3467H71.4189C71.4189 55.7959 71.5889 55.2861 71.9287 54.8174C72.2686 54.3486 72.749 53.9824 73.3701 53.7188C73.9912 53.4492 74.6885 53.3145 75.4619 53.3145C76.6338 53.3145 77.5625 53.6104 78.248 54.2021C78.9395 54.7881 79.2852 55.6143 79.2852 56.6807V60.8027C79.291 61.7051 79.417 62.3877 79.6631 62.8506V63H77.0967ZM74.9961 61.2334C75.3711 61.2334 75.7168 61.1514 76.0332 60.9873C76.3496 60.8174 76.584 60.5918 76.7363 60.3105V58.6758H75.7871C74.5156 58.6758 73.8389 59.1152 73.7568 59.9941L73.748 60.1436C73.748 60.46 73.8594 60.7207 74.082 60.9258C74.3047 61.1309 74.6094 61.2334 74.9961 61.2334ZM80.8672 58.1748C80.8672 56.7158 81.2129 55.541 81.9043 54.6504C82.6016 53.7598 83.5391 53.3145 84.7168 53.3145C85.7598 53.3145 86.5713 53.6719 87.1514 54.3867L87.2568 53.4902H89.5596V62.6836C89.5596 63.5156 89.3691 64.2393 88.9883 64.8545C88.6133 65.4697 88.083 65.9385 87.3975 66.2607C86.7119 66.583 85.9092 66.7441 84.9893 66.7441C84.292 66.7441 83.6123 66.6035 82.9502 66.3223C82.2881 66.0469 81.7871 65.6895 81.4473 65.25L82.5723 63.7031C83.2051 64.4121 83.9727 64.7666 84.875 64.7666C85.5488 64.7666 86.0732 64.585 86.4482 64.2217C86.8232 63.8643 87.0107 63.3545 87.0107 62.6924V62.1826C86.4248 62.8447 85.6543 63.1758 84.6992 63.1758C83.5566 63.1758 82.6309 62.7305 81.9219 61.8398C81.2188 60.9434 80.8672 59.7568 80.8672 58.2803V58.1748ZM83.4072 58.3594C83.4072 59.2207 83.5801 59.8975 83.9258 60.3896C84.2715 60.876 84.7461 61.1191 85.3496 61.1191C86.123 61.1191 86.6768 60.8291 87.0107 60.249V56.25C86.6709 55.6699 86.123 55.3799 85.3672 55.3799C84.7578 55.3799 84.2773 55.6289 83.9258 56.127C83.5801 56.625 83.4072 57.3691 83.4072 58.3594ZM95.8965 63.1758C94.502 63.1758 93.3652 62.748 92.4863 61.8926C91.6133 61.0371 91.1768 59.8975 91.1768 58.4736V58.2275C91.1768 57.2725 91.3613 56.4199 91.7305 55.6699C92.0996 54.9141 92.6211 54.334 93.2949 53.9297C93.9746 53.5195 94.748 53.3145 95.6152 53.3145C96.916 53.3145 97.9385 53.7246 98.6826 54.5449C99.4326 55.3652 99.8076 56.5283 99.8076 58.0342V59.0713H93.752C93.834 59.6924 94.0801 60.1904 94.4902 60.5654C94.9062 60.9404 95.4307 61.1279 96.0635 61.1279C97.042 61.1279 97.8066 60.7734 98.3574 60.0645L99.6055 61.4619C99.2246 62.001 98.709 62.4229 98.0586 62.7275C97.4082 63.0264 96.6875 63.1758 95.8965 63.1758ZM95.6064 55.3711C95.1025 55.3711 94.6924 55.541 94.376 55.8809C94.0654 56.2207 93.8662 56.707 93.7783 57.3398H97.3115V57.1377C97.2998 56.5752 97.1475 56.1416 96.8545 55.8369C96.5615 55.5264 96.1455 55.3711 95.6064 55.3711ZM106.408 60.3721C106.408 60.0615 106.253 59.8184 105.942 59.6426C105.638 59.4609 105.146 59.2998 104.466 59.1592C102.204 58.6846 101.073 57.7236 101.073 56.2764C101.073 55.4326 101.422 54.7295 102.119 54.167C102.822 53.5986 103.739 53.3145 104.87 53.3145C106.077 53.3145 107.041 53.5986 107.762 54.167C108.488 54.7354 108.852 55.4736 108.852 56.3818H106.312C106.312 56.0186 106.194 55.7197 105.96 55.4854C105.726 55.2451 105.359 55.125 104.861 55.125C104.434 55.125 104.103 55.2217 103.868 55.415C103.634 55.6084 103.517 55.8545 103.517 56.1533C103.517 56.4346 103.648 56.6631 103.912 56.8389C104.182 57.0088 104.633 57.1582 105.266 57.2871C105.898 57.4102 106.432 57.5508 106.865 57.709C108.207 58.2012 108.878 59.0537 108.878 60.2666C108.878 61.1338 108.506 61.8369 107.762 62.376C107.018 62.9092 106.057 63.1758 104.879 63.1758C104.082 63.1758 103.373 63.0352 102.752 62.7539C102.137 62.4668 101.653 62.0771 101.302 61.585C100.95 61.0869 100.774 60.5508 100.774 59.9766H103.183C103.206 60.4277 103.373 60.7734 103.684 61.0137C103.994 61.2539 104.41 61.374 104.932 61.374C105.418 61.374 105.784 61.2832 106.03 61.1016C106.282 60.9141 106.408 60.6709 106.408 60.3721Z" fill="black"/>
<path d="M59.7148 242.892C59.7148 244.151 59.4922 245.256 59.0469 246.205C58.6016 247.154 57.9629 247.887 57.1309 248.402C56.3047 248.918 55.3555 249.176 54.2832 249.176C53.2227 249.176 52.2764 248.921 51.4443 248.411C50.6123 247.901 49.9678 247.175 49.5107 246.231C49.0537 245.282 48.8223 244.192 48.8164 242.962V242.329C48.8164 241.069 49.042 239.962 49.4932 239.007C49.9502 238.046 50.5918 237.311 51.418 236.801C52.25 236.285 53.1992 236.027 54.2656 236.027C55.332 236.027 56.2783 236.285 57.1045 236.801C57.9365 237.311 58.5781 238.046 59.0293 239.007C59.4863 239.962 59.7148 241.066 59.7148 242.32V242.892ZM57.043 242.312C57.043 240.97 56.8027 239.95 56.3223 239.253C55.8418 238.556 55.1562 238.207 54.2656 238.207C53.3809 238.207 52.6982 238.553 52.2178 239.244C51.7373 239.93 51.4941 240.938 51.4883 242.268V242.892C51.4883 244.198 51.7285 245.212 52.209 245.933C52.6895 246.653 53.3809 247.014 54.2832 247.014C55.168 247.014 55.8477 246.668 56.3223 245.977C56.7969 245.279 57.0371 244.266 57.043 242.936V242.312ZM67.1592 248.033C66.5322 248.795 65.665 249.176 64.5576 249.176C63.5381 249.176 62.7588 248.883 62.2197 248.297C61.6865 247.711 61.4141 246.853 61.4023 245.722V239.49H63.9424V245.634C63.9424 246.624 64.3936 247.119 65.2959 247.119C66.1572 247.119 66.749 246.82 67.0713 246.223V239.49H69.6201V249H67.2295L67.1592 248.033ZM74.5771 237.152V239.49H76.2031V241.354H74.5771V246.1C74.5771 246.451 74.6445 246.703 74.7793 246.855C74.9141 247.008 75.1719 247.084 75.5527 247.084C75.834 247.084 76.083 247.063 76.2998 247.022V248.947C75.8018 249.1 75.2891 249.176 74.7617 249.176C72.9805 249.176 72.0723 248.276 72.0371 246.478V241.354H70.6484V239.49H72.0371V237.152H74.5771ZM86.1787 244.333C86.1787 245.798 85.8447 246.973 85.1768 247.857C84.5146 248.736 83.6182 249.176 82.4873 249.176C81.5264 249.176 80.75 248.842 80.1582 248.174V252.656H77.6182V239.49H79.9736L80.0615 240.422C80.6768 239.684 81.4795 239.314 82.4697 239.314C83.6416 239.314 84.5527 239.748 85.2031 240.615C85.8535 241.482 86.1787 242.678 86.1787 244.201V244.333ZM83.6387 244.148C83.6387 243.264 83.4805 242.581 83.1641 242.101C82.8535 241.62 82.3994 241.38 81.8018 241.38C81.0049 241.38 80.457 241.685 80.1582 242.294V246.188C80.4688 246.814 81.0225 247.128 81.8193 247.128C83.0322 247.128 83.6387 246.135 83.6387 244.148ZM93.4561 248.033C92.8291 248.795 91.9619 249.176 90.8545 249.176C89.835 249.176 89.0557 248.883 88.5166 248.297C87.9834 247.711 87.7109 246.853 87.6992 245.722V239.49H90.2393V245.634C90.2393 246.624 90.6904 247.119 91.5928 247.119C92.4541 247.119 93.0459 246.82 93.3682 246.223V239.49H95.917V249H93.5264L93.4561 248.033ZM100.874 237.152V239.49H102.5V241.354H100.874V246.1C100.874 246.451 100.941 246.703 101.076 246.855C101.211 247.008 101.469 247.084 101.85 247.084C102.131 247.084 102.38 247.063 102.597 247.022V248.947C102.099 249.1 101.586 249.176 101.059 249.176C99.2773 249.176 98.3691 248.276 98.334 246.478V241.354H96.9453V239.49H98.334V237.152H100.874Z" fill="black"/>
</svg>
