<svg width="600" height="300" viewBox="0 0 600 300" fill="none" xmlns="http://www.w3.org/2000/svg">
<rect width="600" height="300" fill="white"/>
<rect x="51" y="26" width="498" height="248" rx="7" stroke="black" stroke-width="2"/>
<rect x="416" y="73" width="118" height="173" rx="7" stroke="#8F00FF" stroke-width="2"/>
<rect x="67" y="73" width="98" height="173" rx="7" stroke="#0088FF" stroke-width="2"/>
<rect x="171" y="73" width="98" height="173" rx="7" stroke="#0088FF" stroke-width="2"/>
<rect x="275" y="73" width="98" height="173" rx="7" stroke="#0088FF" stroke-width="2"/>
<path d="M251.145 50.5469H243.996L242.391 55H240.07L246.586 37.9375H248.555L255.082 55H252.773L251.145 50.5469ZM244.676 48.6953H250.477L247.57 40.7148L244.676 48.6953ZM267.75 48.8008C267.75 50.7305 267.309 52.2852 266.426 53.4648C265.543 54.6445 264.348 55.2344 262.84 55.2344C261.301 55.2344 260.09 54.7461 259.207 53.7695V59.875H257.039V42.3203H259.02L259.125 43.7266C260.008 42.6328 261.234 42.0859 262.805 42.0859C264.328 42.0859 265.531 42.6602 266.414 43.8086C267.305 44.957 267.75 46.5547 267.75 48.6016V48.8008ZM265.582 48.5547C265.582 47.125 265.277 45.9961 264.668 45.168C264.059 44.3398 263.223 43.9258 262.16 43.9258C260.848 43.9258 259.863 44.5078 259.207 45.6719V51.7305C259.855 52.8867 260.848 53.4648 262.184 53.4648C263.223 53.4648 264.047 53.0547 264.656 52.2344C265.273 51.4062 265.582 50.1797 265.582 48.5547ZM281.227 48.8008C281.227 50.7305 280.785 52.2852 279.902 53.4648C279.02 54.6445 277.824 55.2344 276.316 55.2344C274.777 55.2344 273.566 54.7461 272.684 53.7695V59.875H270.516V42.3203H272.496L272.602 43.7266C273.484 42.6328 274.711 42.0859 276.281 42.0859C277.805 42.0859 279.008 42.6602 279.891 43.8086C280.781 44.957 281.227 46.5547 281.227 48.6016V48.8008ZM279.059 48.5547C279.059 47.125 278.754 45.9961 278.145 45.168C277.535 44.3398 276.699 43.9258 275.637 43.9258C274.324 43.9258 273.34 44.5078 272.684 45.6719V51.7305C273.332 52.8867 274.324 53.4648 275.66 53.4648C276.699 53.4648 277.523 53.0547 278.133 52.2344C278.75 51.4062 279.059 50.1797 279.059 48.5547ZM286.348 55H284.18V37H286.348V55ZM292.184 55H290.016V42.3203H292.184V55ZM289.84 38.957C289.84 38.6055 289.945 38.3086 290.156 38.0664C290.375 37.8242 290.695 37.7031 291.117 37.7031C291.539 37.7031 291.859 37.8242 292.078 38.0664C292.297 38.3086 292.406 38.6055 292.406 38.957C292.406 39.3086 292.297 39.6016 292.078 39.8359C291.859 40.0703 291.539 40.1875 291.117 40.1875C290.695 40.1875 290.375 40.0703 290.156 39.8359C289.945 39.6016 289.84 39.3086 289.84 38.957ZM300.75 53.4648C301.523 53.4648 302.199 53.2305 302.777 52.7617C303.355 52.293 303.676 51.707 303.738 51.0039H305.789C305.75 51.7305 305.5 52.4219 305.039 53.0781C304.578 53.7344 303.961 54.2578 303.188 54.6484C302.422 55.0391 301.609 55.2344 300.75 55.2344C299.023 55.2344 297.648 54.6602 296.625 53.5117C295.609 52.3555 295.102 50.7773 295.102 48.7773V48.4141C295.102 47.1797 295.328 46.082 295.781 45.1211C296.234 44.1602 296.883 43.4141 297.727 42.8828C298.578 42.3516 299.582 42.0859 300.738 42.0859C302.16 42.0859 303.34 42.5117 304.277 43.3633C305.223 44.2148 305.727 45.3203 305.789 46.6797H303.738C303.676 45.8594 303.363 45.1875 302.801 44.6641C302.246 44.1328 301.559 43.8672 300.738 43.8672C299.637 43.8672 298.781 44.2656 298.172 45.0625C297.57 45.8516 297.27 46.9961 297.27 48.4961V48.9062C297.27 50.3672 297.57 51.4922 298.172 52.2812C298.773 53.0703 299.633 53.4648 300.75 53.4648ZM316.055 55C315.93 54.75 315.828 54.3047 315.75 53.6641C314.742 54.7109 313.539 55.2344 312.141 55.2344C310.891 55.2344 309.863 54.8828 309.059 54.1797C308.262 53.4688 307.863 52.5703 307.863 51.4844C307.863 50.1641 308.363 49.1406 309.363 48.4141C310.371 47.6797 311.785 47.3125 313.605 47.3125H315.715V46.3164C315.715 45.5586 315.488 44.957 315.035 44.5117C314.582 44.0586 313.914 43.832 313.031 43.832C312.258 43.832 311.609 44.0273 311.086 44.418C310.562 44.8086 310.301 45.2812 310.301 45.8359H308.121C308.121 45.2031 308.344 44.5938 308.789 44.0078C309.242 43.4141 309.852 42.9453 310.617 42.6016C311.391 42.2578 312.238 42.0859 313.16 42.0859C314.621 42.0859 315.766 42.4531 316.594 43.1875C317.422 43.9141 317.852 44.918 317.883 46.1992V52.0352C317.883 53.1992 318.031 54.125 318.328 54.8125V55H316.055ZM312.457 53.3477C313.137 53.3477 313.781 53.1719 314.391 52.8203C315 52.4688 315.441 52.0117 315.715 51.4492V48.8477H314.016C311.359 48.8477 310.031 49.625 310.031 51.1797C310.031 51.8594 310.258 52.3906 310.711 52.7734C311.164 53.1562 311.746 53.3477 312.457 53.3477ZM324.223 39.25V42.3203H326.59V43.9961H324.223V51.8594C324.223 52.3672 324.328 52.75 324.539 53.0078C324.75 53.2578 325.109 53.3828 325.617 53.3828C325.867 53.3828 326.211 53.3359 326.648 53.2422V55C326.078 55.1562 325.523 55.2344 324.984 55.2344C324.016 55.2344 323.285 54.9414 322.793 54.3555C322.301 53.7695 322.055 52.9375 322.055 51.8594V43.9961H319.746V42.3203H322.055V39.25H324.223ZM331.488 55H329.32V42.3203H331.488V55ZM329.145 38.957C329.145 38.6055 329.25 38.3086 329.461 38.0664C329.68 37.8242 330 37.7031 330.422 37.7031C330.844 37.7031 331.164 37.8242 331.383 38.0664C331.602 38.3086 331.711 38.6055 331.711 38.957C331.711 39.3086 331.602 39.6016 331.383 39.8359C331.164 40.0703 330.844 40.1875 330.422 40.1875C330 40.1875 329.68 40.0703 329.461 39.8359C329.25 39.6016 329.145 39.3086 329.145 38.957ZM334.395 48.543C334.395 47.3008 334.637 46.1836 335.121 45.1914C335.613 44.1992 336.293 43.4336 337.16 42.8945C338.035 42.3555 339.031 42.0859 340.148 42.0859C341.875 42.0859 343.27 42.6836 344.332 43.8789C345.402 45.0742 345.938 46.6641 345.938 48.6484V48.8008C345.938 50.0352 345.699 51.1445 345.223 52.1289C344.754 53.1055 344.078 53.8672 343.195 54.4141C342.32 54.9609 341.312 55.2344 340.172 55.2344C338.453 55.2344 337.059 54.6367 335.988 53.4414C334.926 52.2461 334.395 50.6641 334.395 48.6953V48.543ZM336.574 48.8008C336.574 50.207 336.898 51.3359 337.547 52.1875C338.203 53.0391 339.078 53.4648 340.172 53.4648C341.273 53.4648 342.148 53.0352 342.797 52.1758C343.445 51.3086 343.77 50.0977 343.77 48.543C343.77 47.1523 343.438 46.0273 342.773 45.168C342.117 44.3008 341.242 43.8672 340.148 43.8672C339.078 43.8672 338.215 44.293 337.559 45.1445C336.902 45.9961 336.574 47.2148 336.574 48.8008ZM350.707 42.3203L350.777 43.9141C351.746 42.6953 353.012 42.0859 354.574 42.0859C357.254 42.0859 358.605 43.5977 358.629 46.6211V55H356.461V46.6094C356.453 45.6953 356.242 45.0195 355.828 44.582C355.422 44.1445 354.785 43.9258 353.918 43.9258C353.215 43.9258 352.598 44.1133 352.066 44.4883C351.535 44.8633 351.121 45.3555 350.824 45.9648V55H348.656V42.3203H350.707Z" fill="black"/>
<path d="M204.361 261.245V266H202.138V253.203H207.033C208.463 253.203 209.597 253.575 210.435 254.319C211.278 255.063 211.7 256.048 211.7 257.272C211.7 258.526 211.287 259.502 210.461 260.199C209.641 260.896 208.489 261.245 207.007 261.245H204.361ZM204.361 259.461H207.033C207.824 259.461 208.428 259.276 208.844 258.907C209.26 258.532 209.468 257.993 209.468 257.29C209.468 256.599 209.257 256.048 208.835 255.638C208.413 255.222 207.833 255.008 207.095 254.996H204.361V259.461ZM219.021 266C218.928 265.818 218.846 265.522 218.775 265.112C218.096 265.821 217.264 266.176 216.279 266.176C215.324 266.176 214.545 265.903 213.941 265.358C213.338 264.813 213.036 264.14 213.036 263.337C213.036 262.323 213.411 261.547 214.161 261.008C214.917 260.463 215.995 260.19 217.396 260.19H218.705V259.566C218.705 259.074 218.567 258.682 218.292 258.389C218.017 258.09 217.598 257.94 217.035 257.94C216.549 257.94 216.15 258.063 215.84 258.31C215.529 258.55 215.374 258.857 215.374 259.232H213.238C213.238 258.711 213.411 258.225 213.757 257.773C214.103 257.316 214.571 256.959 215.163 256.701C215.761 256.443 216.426 256.314 217.158 256.314C218.271 256.314 219.159 256.596 219.821 257.158C220.483 257.715 220.823 258.5 220.841 259.514V263.803C220.841 264.658 220.961 265.341 221.201 265.851V266H219.021ZM216.675 264.462C217.097 264.462 217.492 264.359 217.861 264.154C218.236 263.949 218.518 263.674 218.705 263.328V261.535H217.554C216.763 261.535 216.168 261.673 215.77 261.948C215.371 262.224 215.172 262.613 215.172 263.117C215.172 263.527 215.307 263.855 215.576 264.102C215.852 264.342 216.218 264.462 216.675 264.462ZM222.704 261.175C222.704 259.698 223.05 258.521 223.741 257.642C224.438 256.757 225.361 256.314 226.51 256.314C227.594 256.314 228.446 256.692 229.067 257.448L229.164 256.49H231.089V265.71C231.089 266.958 230.699 267.942 229.92 268.663C229.146 269.384 228.101 269.744 226.782 269.744C226.085 269.744 225.402 269.598 224.734 269.305C224.072 269.018 223.568 268.64 223.223 268.171L224.233 266.888C224.89 267.667 225.698 268.057 226.659 268.057C227.368 268.057 227.928 267.863 228.338 267.477C228.748 267.096 228.953 266.533 228.953 265.789V265.147C228.338 265.833 227.518 266.176 226.492 266.176C225.379 266.176 224.468 265.733 223.759 264.849C223.056 263.964 222.704 262.739 222.704 261.175ZM224.831 261.359C224.831 262.314 225.024 263.067 225.411 263.618C225.804 264.163 226.346 264.436 227.037 264.436C227.898 264.436 228.537 264.066 228.953 263.328V259.145C228.549 258.424 227.916 258.063 227.055 258.063C226.352 258.063 225.804 258.342 225.411 258.898C225.024 259.455 224.831 260.275 224.831 261.359ZM237.479 266.176C236.125 266.176 235.026 265.751 234.183 264.901C233.345 264.046 232.926 262.909 232.926 261.491V261.228C232.926 260.278 233.107 259.432 233.471 258.688C233.84 257.938 234.355 257.354 235.018 256.938C235.68 256.522 236.418 256.314 237.232 256.314C238.527 256.314 239.526 256.728 240.229 257.554C240.938 258.38 241.293 259.549 241.293 261.061V261.922H235.079C235.144 262.707 235.404 263.328 235.861 263.785C236.324 264.242 236.904 264.471 237.602 264.471C238.58 264.471 239.377 264.075 239.992 263.284L241.144 264.383C240.763 264.951 240.253 265.394 239.614 265.71C238.981 266.021 238.27 266.176 237.479 266.176ZM237.224 258.028C236.638 258.028 236.163 258.233 235.8 258.644C235.442 259.054 235.214 259.625 235.114 260.357H239.184V260.199C239.137 259.484 238.946 258.945 238.612 258.582C238.278 258.213 237.815 258.028 237.224 258.028ZM248.289 263.416C248.289 263.035 248.131 262.745 247.814 262.546C247.504 262.347 246.985 262.171 246.259 262.019C245.532 261.866 244.926 261.673 244.439 261.438C243.373 260.923 242.84 260.176 242.84 259.197C242.84 258.377 243.186 257.691 243.877 257.141C244.568 256.59 245.447 256.314 246.514 256.314C247.65 256.314 248.567 256.596 249.265 257.158C249.968 257.721 250.319 258.45 250.319 259.347H248.184C248.184 258.937 248.031 258.597 247.727 258.327C247.422 258.052 247.018 257.914 246.514 257.914C246.045 257.914 245.661 258.022 245.362 258.239C245.069 258.456 244.923 258.746 244.923 259.109C244.923 259.438 245.061 259.692 245.336 259.874C245.611 260.056 246.168 260.24 247.006 260.428C247.844 260.609 248.5 260.829 248.975 261.087C249.455 261.339 249.81 261.644 250.038 262.001C250.272 262.358 250.39 262.792 250.39 263.302C250.39 264.157 250.035 264.852 249.326 265.385C248.617 265.912 247.688 266.176 246.54 266.176C245.761 266.176 245.066 266.035 244.457 265.754C243.848 265.473 243.373 265.086 243.033 264.594C242.693 264.102 242.523 263.571 242.523 263.003H244.598C244.627 263.507 244.817 263.896 245.169 264.172C245.521 264.441 245.986 264.576 246.566 264.576C247.129 264.576 247.557 264.471 247.85 264.26C248.143 264.043 248.289 263.762 248.289 263.416Z" fill="#0088FF"/>
<path d="M446.339 260.296C444.892 259.88 443.837 259.37 443.175 258.767C442.519 258.157 442.19 257.407 442.19 256.517C442.19 255.509 442.592 254.677 443.395 254.021C444.203 253.358 445.252 253.027 446.541 253.027C447.42 253.027 448.202 253.197 448.888 253.537C449.579 253.877 450.112 254.346 450.487 254.943C450.868 255.541 451.059 256.194 451.059 256.903H449.362C449.362 256.13 449.116 255.523 448.624 255.084C448.132 254.639 447.438 254.416 446.541 254.416C445.709 254.416 445.059 254.601 444.59 254.97C444.127 255.333 443.896 255.84 443.896 256.49C443.896 257.012 444.115 257.454 444.555 257.817C445 258.175 445.753 258.503 446.813 258.802C447.88 259.101 448.712 259.432 449.31 259.795C449.913 260.152 450.358 260.571 450.646 261.052C450.938 261.532 451.085 262.098 451.085 262.748C451.085 263.785 450.681 264.617 449.872 265.244C449.063 265.865 447.982 266.176 446.629 266.176C445.75 266.176 444.93 266.009 444.168 265.675C443.406 265.335 442.817 264.872 442.401 264.286C441.991 263.7 441.786 263.035 441.786 262.291H443.482C443.482 263.064 443.767 263.677 444.335 264.128C444.909 264.573 445.674 264.796 446.629 264.796C447.52 264.796 448.202 264.614 448.677 264.251C449.151 263.888 449.389 263.393 449.389 262.766C449.389 262.139 449.169 261.655 448.729 261.315C448.29 260.97 447.493 260.63 446.339 260.296ZM456.947 266.176C455.658 266.176 454.609 265.754 453.801 264.91C452.992 264.061 452.588 262.927 452.588 261.509V261.21C452.588 260.267 452.767 259.426 453.124 258.688C453.487 257.943 453.991 257.363 454.636 256.947C455.286 256.525 455.989 256.314 456.745 256.314C457.981 256.314 458.942 256.722 459.628 257.536C460.313 258.351 460.656 259.517 460.656 261.034V261.711H454.214C454.237 262.648 454.51 263.407 455.031 263.987C455.559 264.562 456.227 264.849 457.035 264.849C457.609 264.849 458.096 264.731 458.494 264.497C458.893 264.263 459.241 263.952 459.54 263.565L460.533 264.339C459.736 265.563 458.541 266.176 456.947 266.176ZM456.745 257.65C456.089 257.65 455.538 257.891 455.093 258.371C454.647 258.846 454.372 259.514 454.267 260.375H459.03V260.252C458.983 259.426 458.761 258.787 458.362 258.336C457.964 257.879 457.425 257.65 456.745 257.65ZM467.143 257.949C466.896 257.908 466.63 257.888 466.343 257.888C465.276 257.888 464.553 258.342 464.172 259.25V266H462.546V256.49H464.128L464.154 257.589C464.688 256.739 465.443 256.314 466.422 256.314C466.738 256.314 466.979 256.355 467.143 256.438V257.949ZM471.941 263.794L474.297 256.49H475.958L472.548 266H471.309L467.863 256.49H469.524L471.941 263.794ZM479.289 266H477.663V256.49H479.289V266ZM477.531 253.968C477.531 253.704 477.61 253.481 477.769 253.3C477.933 253.118 478.173 253.027 478.489 253.027C478.806 253.027 479.046 253.118 479.21 253.3C479.374 253.481 479.456 253.704 479.456 253.968C479.456 254.231 479.374 254.451 479.21 254.627C479.046 254.803 478.806 254.891 478.489 254.891C478.173 254.891 477.933 254.803 477.769 254.627C477.61 254.451 477.531 254.231 477.531 253.968ZM485.714 264.849C486.294 264.849 486.801 264.673 487.234 264.321C487.668 263.97 487.908 263.53 487.955 263.003H489.493C489.464 263.548 489.276 264.066 488.931 264.559C488.585 265.051 488.122 265.443 487.542 265.736C486.968 266.029 486.358 266.176 485.714 266.176C484.419 266.176 483.388 265.745 482.62 264.884C481.858 264.017 481.478 262.833 481.478 261.333V261.061C481.478 260.135 481.647 259.312 481.987 258.591C482.327 257.87 482.813 257.311 483.446 256.912C484.085 256.514 484.838 256.314 485.705 256.314C486.771 256.314 487.656 256.634 488.359 257.272C489.068 257.911 489.446 258.74 489.493 259.76H487.955C487.908 259.145 487.674 258.641 487.252 258.248C486.836 257.85 486.32 257.65 485.705 257.65C484.879 257.65 484.237 257.949 483.78 258.547C483.329 259.139 483.104 259.997 483.104 261.122V261.43C483.104 262.525 483.329 263.369 483.78 263.961C484.231 264.553 484.876 264.849 485.714 264.849ZM495.268 266.176C493.979 266.176 492.93 265.754 492.121 264.91C491.312 264.061 490.908 262.927 490.908 261.509V261.21C490.908 260.267 491.087 259.426 491.444 258.688C491.808 257.943 492.312 257.363 492.956 256.947C493.606 256.525 494.31 256.314 495.065 256.314C496.302 256.314 497.263 256.722 497.948 257.536C498.634 258.351 498.977 259.517 498.977 261.034V261.711H492.534C492.558 262.648 492.83 263.407 493.352 263.987C493.879 264.562 494.547 264.849 495.355 264.849C495.93 264.849 496.416 264.731 496.814 264.497C497.213 264.263 497.562 263.952 497.86 263.565L498.854 264.339C498.057 265.563 496.861 266.176 495.268 266.176ZM495.065 257.65C494.409 257.65 493.858 257.891 493.413 258.371C492.968 258.846 492.692 259.514 492.587 260.375H497.351V260.252C497.304 259.426 497.081 258.787 496.683 258.336C496.284 257.879 495.745 257.65 495.065 257.65ZM506.403 263.478C506.403 263.038 506.236 262.698 505.902 262.458C505.574 262.212 504.997 262.001 504.171 261.825C503.351 261.649 502.697 261.438 502.211 261.192C501.73 260.946 501.373 260.653 501.139 260.313C500.91 259.974 500.796 259.569 500.796 259.101C500.796 258.321 501.124 257.662 501.78 257.123C502.442 256.584 503.286 256.314 504.312 256.314C505.39 256.314 506.263 256.593 506.931 257.149C507.604 257.706 507.941 258.418 507.941 259.285H506.307C506.307 258.84 506.116 258.456 505.735 258.134C505.36 257.812 504.886 257.65 504.312 257.65C503.72 257.65 503.257 257.779 502.923 258.037C502.589 258.295 502.422 258.632 502.422 259.048C502.422 259.44 502.577 259.736 502.888 259.936C503.198 260.135 503.758 260.325 504.566 260.507C505.381 260.688 506.04 260.905 506.544 261.157C507.048 261.409 507.42 261.714 507.66 262.071C507.906 262.423 508.029 262.854 508.029 263.363C508.029 264.213 507.689 264.896 507.01 265.411C506.33 265.921 505.448 266.176 504.364 266.176C503.603 266.176 502.929 266.041 502.343 265.771C501.757 265.502 501.297 265.127 500.963 264.646C500.635 264.16 500.471 263.636 500.471 263.073H502.097C502.126 263.618 502.343 264.052 502.747 264.374C503.157 264.69 503.696 264.849 504.364 264.849C504.979 264.849 505.472 264.726 505.841 264.479C506.216 264.228 506.403 263.894 506.403 263.478Z" fill="#8F00FF"/>
<rect x="84" y="87" width="48" height="48" rx="7" stroke="#FF0000" stroke-width="2"/>
<rect x="179" y="87" width="48" height="48" rx="7" stroke="#FF0000" stroke-width="2"/>
<rect x="308" y="126" width="48" height="48" rx="7" stroke="#FF0000" stroke-width="2"/>
<rect x="109" y="142" width="48" height="48" rx="7" stroke="#FF0000" stroke-width="2"/>
<path d="M80.5312 221.297C80.4167 222.51 79.9688 223.458 79.1875 224.141C78.4062 224.818 77.3672 225.156 76.0703 225.156C75.1641 225.156 74.3646 224.943 73.6719 224.516C72.9844 224.083 72.4531 223.471 72.0781 222.68C71.7031 221.888 71.5078 220.969 71.4922 219.922V218.859C71.4922 217.786 71.6823 216.841 72.0625 216.023C72.4427 215.206 72.987 214.576 73.6953 214.133C74.4089 213.69 75.2318 213.469 76.1641 213.469C77.4193 213.469 78.4297 213.81 79.1953 214.492C79.9609 215.174 80.4062 216.138 80.5312 217.383H78.5625C78.4688 216.565 78.2292 215.977 77.8438 215.617C77.4635 215.253 76.9036 215.07 76.1641 215.07C75.3047 215.07 74.6432 215.385 74.1797 216.016C73.7214 216.641 73.487 217.56 73.4766 218.773V219.781C73.4766 221.01 73.6953 221.948 74.1328 222.594C74.5755 223.24 75.2214 223.562 76.0703 223.562C76.8464 223.562 77.4297 223.388 77.8203 223.039C78.2109 222.69 78.4583 222.109 78.5625 221.297H80.5312ZM81.7656 220.695C81.7656 219.867 81.9297 219.122 82.2578 218.461C82.5859 217.794 83.0469 217.284 83.6406 216.93C84.2344 216.57 84.9167 216.391 85.6875 216.391C86.8281 216.391 87.7526 216.758 88.4609 217.492C89.1745 218.227 89.5599 219.201 89.6172 220.414L89.625 220.859C89.625 221.693 89.4635 222.438 89.1406 223.094C88.8229 223.75 88.3646 224.258 87.7656 224.617C87.1719 224.977 86.4844 225.156 85.7031 225.156C84.5104 225.156 83.5547 224.76 82.8359 223.969C82.1224 223.172 81.7656 222.112 81.7656 220.789V220.695ZM83.6641 220.859C83.6641 221.729 83.8438 222.411 84.2031 222.906C84.5625 223.396 85.0625 223.641 85.7031 223.641C86.3438 223.641 86.8411 223.391 87.1953 222.891C87.5547 222.391 87.7344 221.659 87.7344 220.695C87.7344 219.841 87.5495 219.164 87.1797 218.664C86.8151 218.164 86.3177 217.914 85.6875 217.914C85.0677 217.914 84.5755 218.161 84.2109 218.656C83.8464 219.146 83.6641 219.88 83.6641 220.859ZM93.0156 216.547L93.0703 217.43C93.6641 216.737 94.4766 216.391 95.5078 216.391C96.638 216.391 97.4115 216.823 97.8281 217.688C98.4427 216.823 99.3073 216.391 100.422 216.391C101.354 216.391 102.047 216.648 102.5 217.164C102.958 217.68 103.193 218.44 103.203 219.445V225H101.305V219.5C101.305 218.964 101.188 218.57 100.953 218.32C100.719 218.07 100.331 217.945 99.7891 217.945C99.3568 217.945 99.0026 218.062 98.7266 218.297C98.4557 218.526 98.2656 218.828 98.1562 219.203L98.1641 225H96.2656V219.438C96.2396 218.443 95.7318 217.945 94.7422 217.945C93.9818 217.945 93.4427 218.255 93.125 218.875V225H91.2266V216.547H93.0156ZM112.555 220.859C112.555 222.167 112.258 223.211 111.664 223.992C111.07 224.768 110.273 225.156 109.273 225.156C108.346 225.156 107.604 224.852 107.047 224.242V228.25H105.148V216.547H106.898L106.977 217.406C107.534 216.729 108.292 216.391 109.25 216.391C110.281 216.391 111.089 216.776 111.672 217.547C112.26 218.312 112.555 219.378 112.555 220.742V220.859ZM110.664 220.695C110.664 219.852 110.495 219.182 110.156 218.688C109.823 218.193 109.344 217.945 108.719 217.945C107.943 217.945 107.385 218.266 107.047 218.906V222.656C107.391 223.312 107.953 223.641 108.734 223.641C109.339 223.641 109.81 223.398 110.148 222.914C110.492 222.424 110.664 221.685 110.664 220.695ZM113.812 220.695C113.812 219.867 113.977 219.122 114.305 218.461C114.633 217.794 115.094 217.284 115.688 216.93C116.281 216.57 116.964 216.391 117.734 216.391C118.875 216.391 119.799 216.758 120.508 217.492C121.221 218.227 121.607 219.201 121.664 220.414L121.672 220.859C121.672 221.693 121.51 222.438 121.188 223.094C120.87 223.75 120.411 224.258 119.812 224.617C119.219 224.977 118.531 225.156 117.75 225.156C116.557 225.156 115.602 224.76 114.883 223.969C114.169 223.172 113.812 222.112 113.812 220.789V220.695ZM115.711 220.859C115.711 221.729 115.891 222.411 116.25 222.906C116.609 223.396 117.109 223.641 117.75 223.641C118.391 223.641 118.888 223.391 119.242 222.891C119.602 222.391 119.781 221.659 119.781 220.695C119.781 219.841 119.596 219.164 119.227 218.664C118.862 218.164 118.365 217.914 117.734 217.914C117.115 217.914 116.622 218.161 116.258 218.656C115.893 219.146 115.711 219.88 115.711 220.859ZM125.039 216.547L125.094 217.523C125.719 216.768 126.539 216.391 127.555 216.391C129.315 216.391 130.211 217.398 130.242 219.414V225H128.344V219.523C128.344 218.987 128.227 218.591 127.992 218.336C127.763 218.076 127.385 217.945 126.859 217.945C126.094 217.945 125.523 218.292 125.148 218.984V225H123.25V216.547H125.039ZM135.906 225.156C134.703 225.156 133.727 224.779 132.977 224.023C132.232 223.263 131.859 222.253 131.859 220.992V220.758C131.859 219.914 132.021 219.161 132.344 218.5C132.672 217.833 133.13 217.315 133.719 216.945C134.307 216.576 134.964 216.391 135.688 216.391C136.839 216.391 137.727 216.758 138.352 217.492C138.982 218.227 139.297 219.266 139.297 220.609V221.375H133.773C133.831 222.073 134.062 222.625 134.469 223.031C134.88 223.438 135.396 223.641 136.016 223.641C136.885 223.641 137.594 223.289 138.141 222.586L139.164 223.562C138.826 224.068 138.372 224.461 137.805 224.742C137.242 225.018 136.609 225.156 135.906 225.156ZM135.68 217.914C135.159 217.914 134.737 218.096 134.414 218.461C134.096 218.826 133.893 219.333 133.805 219.984H137.422V219.844C137.38 219.208 137.211 218.729 136.914 218.406C136.617 218.078 136.206 217.914 135.68 217.914ZM142.539 216.547L142.594 217.523C143.219 216.768 144.039 216.391 145.055 216.391C146.815 216.391 147.711 217.398 147.742 219.414V225H145.844V219.523C145.844 218.987 145.727 218.591 145.492 218.336C145.263 218.076 144.885 217.945 144.359 217.945C143.594 217.945 143.023 218.292 142.648 218.984V225H140.75V216.547H142.539ZM152.062 214.492V216.547H153.555V217.953H152.062V222.672C152.062 222.995 152.125 223.229 152.25 223.375C152.38 223.516 152.609 223.586 152.938 223.586C153.156 223.586 153.378 223.56 153.602 223.508V224.977C153.169 225.096 152.753 225.156 152.352 225.156C150.893 225.156 150.164 224.352 150.164 222.742V217.953H148.773V216.547H150.164V214.492H152.062ZM159.75 222.703C159.75 222.365 159.609 222.107 159.328 221.93C159.052 221.753 158.591 221.596 157.945 221.461C157.299 221.326 156.76 221.154 156.328 220.945C155.38 220.487 154.906 219.823 154.906 218.953C154.906 218.224 155.214 217.615 155.828 217.125C156.443 216.635 157.224 216.391 158.172 216.391C159.182 216.391 159.997 216.641 160.617 217.141C161.242 217.641 161.555 218.289 161.555 219.086H159.656C159.656 218.721 159.521 218.419 159.25 218.18C158.979 217.935 158.62 217.812 158.172 217.812C157.755 217.812 157.414 217.909 157.148 218.102C156.888 218.294 156.758 218.552 156.758 218.875C156.758 219.167 156.88 219.393 157.125 219.555C157.37 219.716 157.865 219.88 158.609 220.047C159.354 220.208 159.938 220.404 160.359 220.633C160.786 220.857 161.102 221.128 161.305 221.445C161.513 221.763 161.617 222.148 161.617 222.602C161.617 223.362 161.302 223.979 160.672 224.453C160.042 224.922 159.216 225.156 158.195 225.156C157.503 225.156 156.885 225.031 156.344 224.781C155.802 224.531 155.38 224.188 155.078 223.75C154.776 223.312 154.625 222.841 154.625 222.336H156.469C156.495 222.784 156.664 223.13 156.977 223.375C157.289 223.615 157.703 223.734 158.219 223.734C158.719 223.734 159.099 223.641 159.359 223.453C159.62 223.26 159.75 223.01 159.75 222.703Z" fill="#FF0000"/>
<path d="M431.681 101.215C431.681 100.705 431.842 100.286 432.164 99.958C432.492 99.6299 432.926 99.4658 433.465 99.4658C433.998 99.4658 434.432 99.627 434.766 99.9492C435.1 100.266 435.267 100.696 435.267 101.241V101.566C435.267 102.076 435.105 102.492 434.783 102.814C434.461 103.137 434.024 103.298 433.474 103.298C432.929 103.298 432.492 103.137 432.164 102.814C431.842 102.486 431.681 102.064 431.681 101.549V101.215ZM458.32 108H456.624V102.085H450.173V108H448.485V95.2031H450.173V100.705H456.624V95.2031H458.32V108ZM469.896 96.5918H465.782V108H464.104V96.5918H459.999V95.2031H469.896V96.5918ZM480.776 96.5918H476.663V108H474.984V96.5918H470.88V95.2031H480.776V96.5918ZM484.362 102.99V108H482.675V95.2031H487.395C488.795 95.2031 489.891 95.5605 490.682 96.2754C491.479 96.9902 491.877 97.9365 491.877 99.1143C491.877 100.356 491.487 101.314 490.708 101.988C489.935 102.656 488.824 102.99 487.377 102.99H484.362ZM484.362 101.61H487.395C488.297 101.61 488.988 101.399 489.469 100.978C489.949 100.55 490.189 99.9346 490.189 99.1318C490.189 98.3701 489.949 97.7607 489.469 97.3037C488.988 96.8467 488.329 96.6094 487.491 96.5918H484.362V101.61ZM431.681 122.215C431.681 121.705 431.842 121.286 432.164 120.958C432.492 120.63 432.926 120.466 433.465 120.466C433.998 120.466 434.432 120.627 434.766 120.949C435.1 121.266 435.267 121.696 435.267 122.241V122.566C435.267 123.076 435.105 123.492 434.783 123.814C434.461 124.137 434.024 124.298 433.474 124.298C432.929 124.298 432.492 124.137 432.164 123.814C431.842 123.486 431.681 123.064 431.681 122.549V122.215ZM452.256 123.296C450.809 122.88 449.754 122.37 449.092 121.767C448.436 121.157 448.107 120.407 448.107 119.517C448.107 118.509 448.509 117.677 449.312 117.021C450.12 116.358 451.169 116.027 452.458 116.027C453.337 116.027 454.119 116.197 454.805 116.537C455.496 116.877 456.029 117.346 456.404 117.943C456.785 118.541 456.976 119.194 456.976 119.903H455.279C455.279 119.13 455.033 118.523 454.541 118.084C454.049 117.639 453.354 117.416 452.458 117.416C451.626 117.416 450.976 117.601 450.507 117.97C450.044 118.333 449.812 118.84 449.812 119.49C449.812 120.012 450.032 120.454 450.472 120.817C450.917 121.175 451.67 121.503 452.73 121.802C453.797 122.101 454.629 122.432 455.227 122.795C455.83 123.152 456.275 123.571 456.562 124.052C456.855 124.532 457.002 125.098 457.002 125.748C457.002 126.785 456.598 127.617 455.789 128.244C454.98 128.865 453.899 129.176 452.546 129.176C451.667 129.176 450.847 129.009 450.085 128.675C449.323 128.335 448.734 127.872 448.318 127.286C447.908 126.7 447.703 126.035 447.703 125.291H449.399C449.399 126.064 449.684 126.677 450.252 127.128C450.826 127.573 451.591 127.796 452.546 127.796C453.437 127.796 454.119 127.614 454.594 127.251C455.068 126.888 455.306 126.393 455.306 125.766C455.306 125.139 455.086 124.655 454.646 124.315C454.207 123.97 453.41 123.63 452.256 123.296ZM461.124 117.188V119.49H462.899V120.747H461.124V126.645C461.124 127.025 461.203 127.312 461.361 127.506C461.52 127.693 461.789 127.787 462.17 127.787C462.357 127.787 462.615 127.752 462.943 127.682V129C462.516 129.117 462.1 129.176 461.695 129.176C460.969 129.176 460.421 128.956 460.052 128.517C459.683 128.077 459.498 127.453 459.498 126.645V120.747H457.767V119.49H459.498V117.188H461.124ZM464.2 124.157C464.2 123.226 464.382 122.388 464.745 121.644C465.114 120.899 465.624 120.325 466.274 119.921C466.931 119.517 467.678 119.314 468.516 119.314C469.811 119.314 470.856 119.763 471.653 120.659C472.456 121.556 472.857 122.748 472.857 124.236V124.351C472.857 125.276 472.679 126.108 472.321 126.847C471.97 127.579 471.463 128.15 470.801 128.561C470.145 128.971 469.389 129.176 468.533 129.176C467.244 129.176 466.198 128.728 465.396 127.831C464.599 126.935 464.2 125.748 464.2 124.271V124.157ZM465.835 124.351C465.835 125.405 466.078 126.252 466.564 126.891C467.057 127.529 467.713 127.849 468.533 127.849C469.359 127.849 470.016 127.526 470.502 126.882C470.988 126.231 471.231 125.323 471.231 124.157C471.231 123.114 470.982 122.271 470.484 121.626C469.992 120.976 469.336 120.65 468.516 120.65C467.713 120.65 467.065 120.97 466.573 121.608C466.081 122.247 465.835 123.161 465.835 124.351ZM479.493 120.949C479.247 120.908 478.98 120.888 478.693 120.888C477.627 120.888 476.903 121.342 476.522 122.25V129H474.896V119.49H476.479L476.505 120.589C477.038 119.739 477.794 119.314 478.772 119.314C479.089 119.314 479.329 119.355 479.493 119.438V120.949ZM486.516 129C486.422 128.812 486.346 128.479 486.287 127.998C485.531 128.783 484.629 129.176 483.58 129.176C482.643 129.176 481.872 128.912 481.269 128.385C480.671 127.852 480.372 127.178 480.372 126.363C480.372 125.373 480.747 124.605 481.497 124.061C482.253 123.51 483.313 123.234 484.679 123.234H486.261V122.487C486.261 121.919 486.091 121.468 485.751 121.134C485.411 120.794 484.91 120.624 484.248 120.624C483.668 120.624 483.182 120.771 482.789 121.063C482.396 121.356 482.2 121.711 482.2 122.127H480.565C480.565 121.652 480.732 121.195 481.066 120.756C481.406 120.311 481.863 119.959 482.438 119.701C483.018 119.443 483.653 119.314 484.345 119.314C485.44 119.314 486.299 119.59 486.92 120.141C487.541 120.686 487.863 121.438 487.887 122.399V126.776C487.887 127.649 487.998 128.344 488.221 128.859V129H486.516ZM483.817 127.761C484.327 127.761 484.811 127.629 485.268 127.365C485.725 127.102 486.056 126.759 486.261 126.337V124.386H484.986C482.994 124.386 481.998 124.969 481.998 126.135C481.998 126.645 482.168 127.043 482.508 127.33C482.848 127.617 483.284 127.761 483.817 127.761ZM490.049 124.166C490.049 122.684 490.392 121.506 491.077 120.633C491.763 119.754 492.671 119.314 493.802 119.314C494.962 119.314 495.867 119.725 496.518 120.545L496.597 119.49H498.082V128.771C498.082 130.002 497.716 130.972 496.983 131.681C496.257 132.39 495.278 132.744 494.048 132.744C493.362 132.744 492.691 132.598 492.035 132.305C491.379 132.012 490.878 131.61 490.532 131.101L491.376 130.125C492.073 130.986 492.926 131.417 493.934 131.417C494.725 131.417 495.34 131.194 495.779 130.749C496.225 130.304 496.447 129.677 496.447 128.868V128.051C495.797 128.801 494.909 129.176 493.784 129.176C492.671 129.176 491.769 128.728 491.077 127.831C490.392 126.935 490.049 125.713 490.049 124.166ZM491.684 124.351C491.684 125.423 491.903 126.267 492.343 126.882C492.782 127.491 493.397 127.796 494.188 127.796C495.214 127.796 495.967 127.33 496.447 126.398V122.057C495.949 121.148 495.202 120.694 494.206 120.694C493.415 120.694 492.797 121.002 492.352 121.617C491.906 122.232 491.684 123.144 491.684 124.351ZM504.489 129.176C503.2 129.176 502.151 128.754 501.343 127.91C500.534 127.061 500.13 125.927 500.13 124.509V124.21C500.13 123.267 500.309 122.426 500.666 121.688C501.029 120.943 501.533 120.363 502.178 119.947C502.828 119.525 503.531 119.314 504.287 119.314C505.523 119.314 506.484 119.722 507.17 120.536C507.855 121.351 508.198 122.517 508.198 124.034V124.711H501.756C501.779 125.648 502.052 126.407 502.573 126.987C503.101 127.562 503.769 127.849 504.577 127.849C505.151 127.849 505.638 127.731 506.036 127.497C506.435 127.263 506.783 126.952 507.082 126.565L508.075 127.339C507.278 128.563 506.083 129.176 504.489 129.176ZM504.287 120.65C503.631 120.65 503.08 120.891 502.635 121.371C502.189 121.846 501.914 122.514 501.809 123.375H506.572V123.252C506.525 122.426 506.303 121.787 505.904 121.336C505.506 120.879 504.967 120.65 504.287 120.65ZM431.681 143.215C431.681 142.705 431.842 142.286 432.164 141.958C432.492 141.63 432.926 141.466 433.465 141.466C433.998 141.466 434.432 141.627 434.766 141.949C435.1 142.266 435.267 142.696 435.267 143.241V143.566C435.267 144.076 435.105 144.492 434.783 144.814C434.461 145.137 434.024 145.298 433.474 145.298C432.929 145.298 432.492 145.137 432.164 144.814C431.842 144.486 431.681 144.064 431.681 143.549V143.215ZM448.266 149.147C448.266 148.866 448.348 148.632 448.512 148.444C448.682 148.257 448.934 148.163 449.268 148.163C449.602 148.163 449.854 148.257 450.023 148.444C450.199 148.632 450.287 148.866 450.287 149.147C450.287 149.417 450.199 149.643 450.023 149.824C449.854 150.006 449.602 150.097 449.268 150.097C448.934 150.097 448.682 150.006 448.512 149.824C448.348 149.643 448.266 149.417 448.266 149.147ZM453.012 149.147C453.012 148.866 453.094 148.632 453.258 148.444C453.428 148.257 453.68 148.163 454.014 148.163C454.348 148.163 454.6 148.257 454.77 148.444C454.945 148.632 455.033 148.866 455.033 149.147C455.033 149.417 454.945 149.643 454.77 149.824C454.6 150.006 454.348 150.097 454.014 150.097C453.68 150.097 453.428 150.006 453.258 149.824C453.094 149.643 453.012 149.417 453.012 149.147ZM457.758 149.147C457.758 148.866 457.84 148.632 458.004 148.444C458.174 148.257 458.426 148.163 458.76 148.163C459.094 148.163 459.346 148.257 459.516 148.444C459.691 148.632 459.779 148.866 459.779 149.147C459.779 149.417 459.691 149.643 459.516 149.824C459.346 150.006 459.094 150.097 458.76 150.097C458.426 150.097 458.174 150.006 458.004 149.824C457.84 149.643 457.758 149.417 457.758 149.147Z" fill="black"/>
</svg>
