<svg width="600" height="300" viewBox="0 0 600 300" fill="none" xmlns="http://www.w3.org/2000/svg">
<rect width="600" height="300" fill="white"/>
<path d="M564.065 260.057C564.648 259.469 564.645 258.519 564.057 257.935L554.474 248.426C553.886 247.843 552.936 247.846 552.353 248.434C551.769 249.022 551.773 249.972 552.361 250.556L560.879 259.008L552.426 267.526C551.843 268.114 551.846 269.064 552.434 269.647C553.022 270.231 553.972 270.227 554.556 269.639L564.065 260.057ZM44.0058 262.5L563.006 260.5L562.994 257.5L43.9942 259.5L44.0058 262.5Z" fill="black"/>
<path d="M276.688 23.3945C274.758 22.8398 273.352 22.1602 272.469 21.3555C271.594 20.543 271.156 19.543 271.156 18.3555C271.156 17.0117 271.691 15.9023 272.762 15.0273C273.84 14.1445 275.238 13.7031 276.957 13.7031C278.129 13.7031 279.172 13.9297 280.086 14.3828C281.008 14.8359 281.719 15.4609 282.219 16.2578C282.727 17.0547 282.98 17.9258 282.98 18.8711H280.719C280.719 17.8398 280.391 17.0312 279.734 16.4453C279.078 15.8516 278.152 15.5547 276.957 15.5547C275.848 15.5547 274.98 15.8008 274.355 16.293C273.738 16.7773 273.43 17.4531 273.43 18.3203C273.43 19.0156 273.723 19.6055 274.309 20.0898C274.902 20.5664 275.906 21.0039 277.32 21.4023C278.742 21.8008 279.852 22.2422 280.648 22.7266C281.453 23.2031 282.047 23.7617 282.43 24.4023C282.82 25.043 283.016 25.7969 283.016 26.6641C283.016 28.0469 282.477 29.1562 281.398 29.9922C280.32 30.8203 278.879 31.2344 277.074 31.2344C275.902 31.2344 274.809 31.0117 273.793 30.5664C272.777 30.1133 271.992 29.4961 271.438 28.7148C270.891 27.9336 270.617 27.0469 270.617 26.0547H272.879C272.879 27.0859 273.258 27.9023 274.016 28.5039C274.781 29.0977 275.801 29.3945 277.074 29.3945C278.262 29.3945 279.172 29.1523 279.805 28.668C280.438 28.1836 280.754 27.5234 280.754 26.6875C280.754 25.8516 280.461 25.207 279.875 24.7539C279.289 24.293 278.227 23.8398 276.688 23.3945ZM290.832 31.2344C289.113 31.2344 287.715 30.6719 286.637 29.5469C285.559 28.4141 285.02 26.9023 285.02 25.0117V24.6133C285.02 23.3555 285.258 22.2344 285.734 21.25C286.219 20.2578 286.891 19.4844 287.75 18.9297C288.617 18.3672 289.555 18.0859 290.562 18.0859C292.211 18.0859 293.492 18.6289 294.406 19.7148C295.32 20.8008 295.777 22.3555 295.777 24.3789V25.2812H287.188C287.219 26.5312 287.582 27.543 288.277 28.3164C288.98 29.082 289.871 29.4648 290.949 29.4648C291.715 29.4648 292.363 29.3086 292.895 28.9961C293.426 28.6836 293.891 28.2695 294.289 27.7539L295.613 28.7852C294.551 30.418 292.957 31.2344 290.832 31.2344ZM290.562 19.8672C289.688 19.8672 288.953 20.1875 288.359 20.8281C287.766 21.4609 287.398 22.3516 287.258 23.5H293.609V23.3359C293.547 22.2344 293.25 21.3828 292.719 20.7812C292.188 20.1719 291.469 19.8672 290.562 19.8672ZM304.426 20.2656C304.098 20.2109 303.742 20.1836 303.359 20.1836C301.938 20.1836 300.973 20.7891 300.465 22V31H298.297V18.3203H300.406L300.441 19.7852C301.152 18.6523 302.16 18.0859 303.465 18.0859C303.887 18.0859 304.207 18.1406 304.426 18.25V20.2656ZM310.824 28.0586L313.965 18.3203H316.18L311.633 31H309.98L305.387 18.3203H307.602L310.824 28.0586ZM323.363 31.2344C321.645 31.2344 320.246 30.6719 319.168 29.5469C318.09 28.4141 317.551 26.9023 317.551 25.0117V24.6133C317.551 23.3555 317.789 22.2344 318.266 21.25C318.75 20.2578 319.422 19.4844 320.281 18.9297C321.148 18.3672 322.086 18.0859 323.094 18.0859C324.742 18.0859 326.023 18.6289 326.938 19.7148C327.852 20.8008 328.309 22.3555 328.309 24.3789V25.2812H319.719C319.75 26.5312 320.113 27.543 320.809 28.3164C321.512 29.082 322.402 29.4648 323.48 29.4648C324.246 29.4648 324.895 29.3086 325.426 28.9961C325.957 28.6836 326.422 28.2695 326.82 27.7539L328.145 28.7852C327.082 30.418 325.488 31.2344 323.363 31.2344ZM323.094 19.8672C322.219 19.8672 321.484 20.1875 320.891 20.8281C320.297 21.4609 319.93 22.3516 319.789 23.5H326.141V23.3359C326.078 22.2344 325.781 21.3828 325.25 20.7812C324.719 20.1719 324 19.8672 323.094 19.8672ZM336.957 20.2656C336.629 20.2109 336.273 20.1836 335.891 20.1836C334.469 20.1836 333.504 20.7891 332.996 22V31H330.828V18.3203H332.938L332.973 19.7852C333.684 18.6523 334.691 18.0859 335.996 18.0859C336.418 18.0859 336.738 18.1406 336.957 18.25V20.2656Z" fill="black"/>
<path d="M287.469 280.586C287.258 282.391 286.59 283.785 285.465 284.77C284.348 285.746 282.859 286.234 281 286.234C278.984 286.234 277.367 285.512 276.148 284.066C274.938 282.621 274.332 280.688 274.332 278.266V276.625C274.332 275.039 274.613 273.645 275.176 272.441C275.746 271.238 276.551 270.316 277.59 269.676C278.629 269.027 279.832 268.703 281.199 268.703C283.012 268.703 284.465 269.211 285.559 270.227C286.652 271.234 287.289 272.633 287.469 274.422H285.207C285.012 273.062 284.586 272.078 283.93 271.469C283.281 270.859 282.371 270.555 281.199 270.555C279.762 270.555 278.633 271.086 277.812 272.148C277 273.211 276.594 274.723 276.594 276.684V278.336C276.594 280.188 276.98 281.66 277.754 282.754C278.527 283.848 279.609 284.395 281 284.395C282.25 284.395 283.207 284.113 283.871 283.551C284.543 282.98 284.988 281.992 285.207 280.586H287.469ZM292.566 286H290.398V268H292.566V286ZM298.402 286H296.234V273.32H298.402V286ZM296.059 269.957C296.059 269.605 296.164 269.309 296.375 269.066C296.594 268.824 296.914 268.703 297.336 268.703C297.758 268.703 298.078 268.824 298.297 269.066C298.516 269.309 298.625 269.605 298.625 269.957C298.625 270.309 298.516 270.602 298.297 270.836C298.078 271.07 297.758 271.188 297.336 271.188C296.914 271.188 296.594 271.07 296.375 270.836C296.164 270.602 296.059 270.309 296.059 269.957ZM307.145 286.234C305.426 286.234 304.027 285.672 302.949 284.547C301.871 283.414 301.332 281.902 301.332 280.012V279.613C301.332 278.355 301.57 277.234 302.047 276.25C302.531 275.258 303.203 274.484 304.062 273.93C304.93 273.367 305.867 273.086 306.875 273.086C308.523 273.086 309.805 273.629 310.719 274.715C311.633 275.801 312.09 277.355 312.09 279.379V280.281H303.5C303.531 281.531 303.895 282.543 304.59 283.316C305.293 284.082 306.184 284.465 307.262 284.465C308.027 284.465 308.676 284.309 309.207 283.996C309.738 283.684 310.203 283.27 310.602 282.754L311.926 283.785C310.863 285.418 309.27 286.234 307.145 286.234ZM306.875 274.867C306 274.867 305.266 275.188 304.672 275.828C304.078 276.461 303.711 277.352 303.57 278.5H309.922V278.336C309.859 277.234 309.562 276.383 309.031 275.781C308.5 275.172 307.781 274.867 306.875 274.867ZM316.66 273.32L316.73 274.914C317.699 273.695 318.965 273.086 320.527 273.086C323.207 273.086 324.559 274.598 324.582 277.621V286H322.414V277.609C322.406 276.695 322.195 276.02 321.781 275.582C321.375 275.145 320.738 274.926 319.871 274.926C319.168 274.926 318.551 275.113 318.02 275.488C317.488 275.863 317.074 276.355 316.777 276.965V286H314.609V273.32H316.66ZM330.793 270.25V273.32H333.16V274.996H330.793V282.859C330.793 283.367 330.898 283.75 331.109 284.008C331.32 284.258 331.68 284.383 332.188 284.383C332.438 284.383 332.781 284.336 333.219 284.242V286C332.648 286.156 332.094 286.234 331.555 286.234C330.586 286.234 329.855 285.941 329.363 285.355C328.871 284.77 328.625 283.938 328.625 282.859V274.996H326.316V273.32H328.625V270.25H330.793Z" fill="black"/>
<path d="M84.7071 55.2929C84.3166 54.9024 83.6834 54.9024 83.2929 55.2929L76.9289 61.6569C76.5384 62.0474 76.5384 62.6805 76.9289 63.0711C77.3195 63.4616 77.9526 63.4616 78.3431 63.0711L84 57.4142L89.6569 63.0711C90.0474 63.4616 90.6805 63.4616 91.0711 63.0711C91.4616 62.6805 91.4616 62.0474 91.0711 61.6569L84.7071 55.2929ZM85 259L85 56H83L83 259H85Z" fill="black"/>
<path d="M166.293 258.707C166.683 259.098 167.317 259.098 167.707 258.707L174.071 252.343C174.462 251.953 174.462 251.319 174.071 250.929C173.681 250.538 173.047 250.538 172.657 250.929L167 256.586L161.343 250.929C160.953 250.538 160.319 250.538 159.929 250.929C159.538 251.319 159.538 251.953 159.929 252.343L166.293 258.707ZM166 55L166 258H168L168 55H166Z" fill="#FF0000"/>
<path d="M23.3047 150.261H21.1338V154H19.9087V144.758H22.9683C24.0093 144.758 24.8091 144.995 25.3677 145.469C25.9305 145.943 26.2119 146.632 26.2119 147.538C26.2119 148.114 26.0553 148.615 25.7422 149.042C25.4333 149.47 25.0016 149.789 24.4473 150.001L26.6182 153.924V154H25.3105L23.3047 150.261ZM21.1338 149.265H23.0063C23.6115 149.265 24.0918 149.108 24.4473 148.795C24.807 148.482 24.9868 148.063 24.9868 147.538C24.9868 146.967 24.8154 146.529 24.4727 146.224C24.1341 145.919 23.6432 145.765 23 145.761H21.1338V149.265ZM30.5918 154.127C29.6608 154.127 28.9033 153.822 28.3193 153.213C27.7354 152.599 27.4434 151.78 27.4434 150.756V150.541C27.4434 149.859 27.5724 149.252 27.8306 148.719C28.0929 148.181 28.4569 147.762 28.9224 147.462C29.3921 147.157 29.8999 147.005 30.4458 147.005C31.3387 147.005 32.0327 147.299 32.5278 147.887C33.0229 148.475 33.2705 149.318 33.2705 150.414V150.902H28.6177C28.6346 151.579 28.8314 152.127 29.208 152.546C29.5889 152.961 30.0713 153.168 30.6553 153.168C31.07 153.168 31.4212 153.084 31.709 152.915C31.9967 152.745 32.2485 152.521 32.4644 152.242L33.1816 152.8C32.6061 153.685 31.7428 154.127 30.5918 154.127ZM30.4458 147.97C29.9718 147.97 29.5741 148.143 29.2524 148.49C28.9308 148.833 28.7319 149.315 28.6558 149.938H32.0962V149.849C32.0623 149.252 31.9015 148.791 31.6138 148.465C31.326 148.135 30.9367 147.97 30.4458 147.97ZM34.3496 150.509C34.3496 149.43 34.5972 148.577 35.0923 147.951C35.5874 147.32 36.2518 147.005 37.0854 147.005C37.8979 147.005 38.5391 147.278 39.0088 147.824L39.0596 147.132H40.1387V156.641H38.9644V153.365C38.4904 153.873 37.8599 154.127 37.0728 154.127C36.2433 154.127 35.5811 153.805 35.0859 153.162C34.5951 152.515 34.3496 151.658 34.3496 150.591V150.509ZM35.5239 150.642C35.5239 151.429 35.689 152.047 36.019 152.496C36.3534 152.944 36.8019 153.168 37.3647 153.168C38.063 153.168 38.5962 152.86 38.9644 152.242V148.877C38.592 148.272 38.063 147.97 37.3774 147.97C36.8104 147.97 36.3597 148.196 36.0254 148.649C35.6911 149.097 35.5239 149.762 35.5239 150.642ZM46.2642 153.321C45.8071 153.858 45.1364 154.127 44.252 154.127C43.5199 154.127 42.9613 153.915 42.5762 153.492C42.1953 153.065 42.0028 152.434 41.9985 151.601V147.132H43.1729V151.569C43.1729 152.61 43.596 153.13 44.4424 153.13C45.3395 153.13 45.9362 152.796 46.2324 152.127V147.132H47.4067V154H46.2896L46.2642 153.321ZM52.0469 154.127C51.1159 154.127 50.3584 153.822 49.7744 153.213C49.1904 152.599 48.8984 151.78 48.8984 150.756V150.541C48.8984 149.859 49.0275 149.252 49.2856 148.719C49.548 148.181 49.9119 147.762 50.3774 147.462C50.8472 147.157 51.355 147.005 51.9009 147.005C52.7938 147.005 53.4878 147.299 53.9829 147.887C54.478 148.475 54.7256 149.318 54.7256 150.414V150.902H50.0728C50.0897 151.579 50.2865 152.127 50.6631 152.546C51.0439 152.961 51.5264 153.168 52.1104 153.168C52.5251 153.168 52.8763 153.084 53.1641 152.915C53.4518 152.745 53.7036 152.521 53.9194 152.242L54.6367 152.8C54.0612 153.685 53.1979 154.127 52.0469 154.127ZM51.9009 147.97C51.4269 147.97 51.0291 148.143 50.7075 148.49C50.3859 148.833 50.187 149.315 50.1108 149.938H53.5513V149.849C53.5174 149.252 53.3566 148.791 53.0688 148.465C52.7811 148.135 52.3918 147.97 51.9009 147.97ZM60.0894 152.178C60.0894 151.861 59.9688 151.615 59.7275 151.442C59.4906 151.264 59.0737 151.112 58.4771 150.985C57.8846 150.858 57.4128 150.706 57.0615 150.528C56.7145 150.35 56.4564 150.139 56.2871 149.893C56.1221 149.648 56.0396 149.356 56.0396 149.017C56.0396 148.454 56.2765 147.978 56.7505 147.589C57.2287 147.2 57.8381 147.005 58.5786 147.005C59.3573 147.005 59.9878 147.206 60.4702 147.608C60.9569 148.01 61.2002 148.524 61.2002 149.15H60.0195C60.0195 148.829 59.882 148.552 59.6069 148.319C59.3361 148.086 58.9933 147.97 58.5786 147.97C58.1512 147.97 57.8169 148.063 57.5757 148.249C57.3345 148.435 57.2139 148.679 57.2139 148.979C57.2139 149.263 57.326 149.476 57.5503 149.62C57.7746 149.764 58.1787 149.902 58.7627 150.033C59.3509 150.164 59.827 150.32 60.1909 150.502C60.5549 150.684 60.8236 150.904 60.9971 151.163C61.1748 151.417 61.2637 151.728 61.2637 152.096C61.2637 152.709 61.0182 153.202 60.5273 153.575C60.0365 153.943 59.3996 154.127 58.6167 154.127C58.0666 154.127 57.5799 154.03 57.1567 153.835C56.7336 153.64 56.4014 153.369 56.1602 153.022C55.9232 152.671 55.8047 152.292 55.8047 151.886H56.979C57.0002 152.28 57.1567 152.593 57.4487 152.826C57.745 153.054 58.1343 153.168 58.6167 153.168C59.061 153.168 59.4165 153.08 59.6831 152.902C59.9539 152.72 60.0894 152.479 60.0894 152.178ZM64.3867 145.469V147.132H65.6689V148.04H64.3867V152.299C64.3867 152.574 64.4438 152.781 64.5581 152.921C64.6724 153.056 64.867 153.124 65.1421 153.124C65.2775 153.124 65.4637 153.099 65.7007 153.048V154C65.3918 154.085 65.0913 154.127 64.7993 154.127C64.2746 154.127 63.8789 153.968 63.6123 153.651C63.3457 153.333 63.2124 152.883 63.2124 152.299V148.04H61.9619V147.132H63.2124V145.469H64.3867Z" fill="black"/>
<path d="M101.417 150.261H99.2461V154H98.021V144.758H101.081C102.122 144.758 102.921 144.995 103.48 145.469C104.043 145.943 104.324 146.632 104.324 147.538C104.324 148.114 104.168 148.615 103.854 149.042C103.546 149.47 103.114 149.789 102.56 150.001L104.73 153.924V154H103.423L101.417 150.261ZM99.2461 149.265H101.119C101.724 149.265 102.204 149.108 102.56 148.795C102.919 148.482 103.099 148.063 103.099 147.538C103.099 146.967 102.928 146.529 102.585 146.224C102.246 145.919 101.756 145.765 101.112 145.761H99.2461V149.265ZM108.704 154.127C107.773 154.127 107.016 153.822 106.432 153.213C105.848 152.599 105.556 151.78 105.556 150.756V150.541C105.556 149.859 105.685 149.252 105.943 148.719C106.205 148.181 106.569 147.762 107.035 147.462C107.504 147.157 108.012 147.005 108.558 147.005C109.451 147.005 110.145 147.299 110.64 147.887C111.135 148.475 111.383 149.318 111.383 150.414V150.902H106.73C106.747 151.579 106.944 152.127 107.32 152.546C107.701 152.961 108.184 153.168 108.768 153.168C109.182 153.168 109.534 153.084 109.821 152.915C110.109 152.745 110.361 152.521 110.577 152.242L111.294 152.8C110.718 153.685 109.855 154.127 108.704 154.127ZM108.558 147.97C108.084 147.97 107.686 148.143 107.365 148.49C107.043 148.833 106.844 149.315 106.768 149.938H110.208V149.849C110.175 149.252 110.014 148.791 109.726 148.465C109.438 148.135 109.049 147.97 108.558 147.97ZM116.747 152.178C116.747 151.861 116.626 151.615 116.385 151.442C116.148 151.264 115.731 151.112 115.134 150.985C114.542 150.858 114.07 150.706 113.719 150.528C113.372 150.35 113.114 150.139 112.944 149.893C112.779 149.648 112.697 149.356 112.697 149.017C112.697 148.454 112.934 147.978 113.408 147.589C113.886 147.2 114.495 147.005 115.236 147.005C116.014 147.005 116.645 147.206 117.127 147.608C117.614 148.01 117.857 148.524 117.857 149.15H116.677C116.677 148.829 116.539 148.552 116.264 148.319C115.993 148.086 115.651 147.97 115.236 147.97C114.808 147.97 114.474 148.063 114.233 148.249C113.992 148.435 113.871 148.679 113.871 148.979C113.871 149.263 113.983 149.476 114.208 149.62C114.432 149.764 114.836 149.902 115.42 150.033C116.008 150.164 116.484 150.32 116.848 150.502C117.212 150.684 117.481 150.904 117.654 151.163C117.832 151.417 117.921 151.728 117.921 152.096C117.921 152.709 117.675 153.202 117.185 153.575C116.694 153.943 116.057 154.127 115.274 154.127C114.724 154.127 114.237 154.03 113.814 153.835C113.391 153.64 113.059 153.369 112.817 153.022C112.58 152.671 112.462 152.292 112.462 151.886H113.636C113.657 152.28 113.814 152.593 114.106 152.826C114.402 153.054 114.792 153.168 115.274 153.168C115.718 153.168 116.074 153.08 116.34 152.902C116.611 152.72 116.747 152.479 116.747 152.178ZM125.252 150.642C125.252 151.687 125.013 152.529 124.535 153.168C124.057 153.807 123.41 154.127 122.593 154.127C121.759 154.127 121.103 153.862 120.625 153.333V156.641H119.451V147.132H120.523L120.581 147.894C121.059 147.301 121.723 147.005 122.574 147.005C123.399 147.005 124.051 147.316 124.529 147.938C125.011 148.56 125.252 149.425 125.252 150.534V150.642ZM124.078 150.509C124.078 149.734 123.913 149.123 123.583 148.674C123.253 148.226 122.8 148.001 122.225 148.001C121.514 148.001 120.98 148.317 120.625 148.947V152.229C120.976 152.855 121.514 153.168 122.237 153.168C122.8 153.168 123.247 152.946 123.577 152.502C123.911 152.053 124.078 151.389 124.078 150.509ZM126.439 150.502C126.439 149.83 126.571 149.224 126.833 148.687C127.1 148.15 127.468 147.735 127.938 147.443C128.411 147.151 128.951 147.005 129.556 147.005C130.491 147.005 131.247 147.329 131.822 147.976C132.402 148.624 132.692 149.485 132.692 150.56V150.642C132.692 151.311 132.563 151.912 132.305 152.445C132.051 152.974 131.685 153.386 131.207 153.683C130.733 153.979 130.187 154.127 129.569 154.127C128.638 154.127 127.882 153.803 127.303 153.156C126.727 152.508 126.439 151.651 126.439 150.585V150.502ZM127.62 150.642C127.62 151.404 127.796 152.015 128.147 152.477C128.502 152.938 128.976 153.168 129.569 153.168C130.166 153.168 130.639 152.936 130.991 152.47C131.342 152 131.518 151.345 131.518 150.502C131.518 149.749 131.338 149.14 130.978 148.674C130.623 148.205 130.149 147.97 129.556 147.97C128.976 147.97 128.509 148.2 128.153 148.662C127.798 149.123 127.62 149.783 127.62 150.642ZM135.275 147.132L135.313 147.995C135.838 147.335 136.524 147.005 137.37 147.005C138.822 147.005 139.554 147.824 139.566 149.461V154H138.392V149.455C138.388 148.96 138.274 148.594 138.049 148.357C137.829 148.12 137.484 148.001 137.015 148.001C136.634 148.001 136.299 148.103 136.012 148.306C135.724 148.509 135.5 148.776 135.339 149.106V154H134.165V147.132H135.275ZM145.336 152.178C145.336 151.861 145.216 151.615 144.975 151.442C144.738 151.264 144.321 151.112 143.724 150.985C143.132 150.858 142.66 150.706 142.309 150.528C141.962 150.35 141.703 150.139 141.534 149.893C141.369 149.648 141.287 149.356 141.287 149.017C141.287 148.454 141.524 147.978 141.998 147.589C142.476 147.2 143.085 147.005 143.826 147.005C144.604 147.005 145.235 147.206 145.717 147.608C146.204 148.01 146.447 148.524 146.447 149.15H145.267C145.267 148.829 145.129 148.552 144.854 148.319C144.583 148.086 144.24 147.97 143.826 147.97C143.398 147.97 143.064 148.063 142.823 148.249C142.582 148.435 142.461 148.679 142.461 148.979C142.461 149.263 142.573 149.476 142.797 149.62C143.022 149.764 143.426 149.902 144.01 150.033C144.598 150.164 145.074 150.32 145.438 150.502C145.802 150.684 146.071 150.904 146.244 151.163C146.422 151.417 146.511 151.728 146.511 152.096C146.511 152.709 146.265 153.202 145.774 153.575C145.284 153.943 144.647 154.127 143.864 154.127C143.314 154.127 142.827 154.03 142.404 153.835C141.981 153.64 141.648 153.369 141.407 153.022C141.17 152.671 141.052 152.292 141.052 151.886H142.226C142.247 152.28 142.404 152.593 142.696 152.826C142.992 153.054 143.381 153.168 143.864 153.168C144.308 153.168 144.664 153.08 144.93 152.902C145.201 152.72 145.336 152.479 145.336 152.178ZM150.891 154.127C149.96 154.127 149.202 153.822 148.618 153.213C148.034 152.599 147.742 151.78 147.742 150.756V150.541C147.742 149.859 147.871 149.252 148.129 148.719C148.392 148.181 148.756 147.762 149.221 147.462C149.691 147.157 150.199 147.005 150.745 147.005C151.638 147.005 152.332 147.299 152.827 147.887C153.322 148.475 153.569 149.318 153.569 150.414V150.902H148.917C148.933 151.579 149.13 152.127 149.507 152.546C149.888 152.961 150.37 153.168 150.954 153.168C151.369 153.168 151.72 153.084 152.008 152.915C152.296 152.745 152.547 152.521 152.763 152.242L153.48 152.8C152.905 153.685 152.042 154.127 150.891 154.127ZM150.745 147.97C150.271 147.97 149.873 148.143 149.551 148.49C149.23 148.833 149.031 149.315 148.955 149.938H152.395V149.849C152.361 149.252 152.2 148.791 151.913 148.465C151.625 148.135 151.236 147.97 150.745 147.97Z" fill="#FF0000"/>
<path d="M191.707 55.2929C191.317 54.9024 190.683 54.9024 190.293 55.2929L183.929 61.6569C183.538 62.0474 183.538 62.6805 183.929 63.0711C184.319 63.4616 184.953 63.4616 185.343 63.0711L191 57.4142L196.657 63.0711C197.047 63.4616 197.681 63.4616 198.071 63.0711C198.462 62.6805 198.462 62.0474 198.071 61.6569L191.707 55.2929ZM192 259L192 56H190L190 259H192Z" fill="black"/>
<path d="M378.293 257.707C378.683 258.098 379.317 258.098 379.707 257.707L386.071 251.343C386.462 250.953 386.462 250.319 386.071 249.929C385.681 249.538 385.047 249.538 384.657 249.929L379 255.586L373.343 249.929C372.953 249.538 372.319 249.538 371.929 249.929C371.538 250.319 371.538 250.953 371.929 251.343L378.293 257.707ZM378 54L378 257H380L380 54H378Z" fill="#FF0000"/>
<path d="M396.707 54.2929C396.317 53.9024 395.683 53.9024 395.293 54.2929L388.929 60.6569C388.538 61.0474 388.538 61.6805 388.929 62.0711C389.319 62.4616 389.953 62.4616 390.343 62.0711L396 56.4142L401.657 62.0711C402.047 62.4616 402.681 62.4616 403.071 62.0711C403.462 61.6805 403.462 61.0474 403.071 60.6569L396.707 54.2929ZM397 258L397 55H395L395 258H397Z" fill="black"/>
<path d="M542.293 256.707C542.683 257.098 543.317 257.098 543.707 256.707L550.071 250.343C550.462 249.953 550.462 249.319 550.071 248.929C549.681 248.538 549.047 248.538 548.657 248.929L543 254.586L537.343 248.929C536.953 248.538 536.319 248.538 535.929 248.929C535.538 249.319 535.538 249.953 535.929 250.343L542.293 256.707ZM542 53V256H544V53H542Z" fill="#FF0000"/>
<path d="M141.684 21H140.459L135.806 13.8779V21H134.581V11.7578H135.806L140.472 18.9116V11.7578H141.684V21ZM146.515 21.127C145.584 21.127 144.826 20.8223 144.242 20.2129C143.658 19.5993 143.366 18.7804 143.366 17.7563V17.5405C143.366 16.8592 143.495 16.252 143.753 15.7188C144.016 15.1813 144.38 14.7624 144.845 14.4619C145.315 14.1572 145.823 14.0049 146.369 14.0049C147.262 14.0049 147.956 14.299 148.451 14.8872C148.946 15.4754 149.193 16.3175 149.193 17.4136V17.9023H144.541C144.557 18.5794 144.754 19.1274 145.131 19.5464C145.512 19.9611 145.994 20.1685 146.578 20.1685C146.993 20.1685 147.344 20.0838 147.632 19.9146C147.92 19.7453 148.171 19.521 148.387 19.2417L149.104 19.8003C148.529 20.6847 147.666 21.127 146.515 21.127ZM146.369 14.9697C145.895 14.9697 145.497 15.1432 145.175 15.4902C144.854 15.833 144.655 16.3154 144.579 16.9375H148.019V16.8486C147.985 16.252 147.824 15.7907 147.537 15.4648C147.249 15.1348 146.86 14.9697 146.369 14.9697ZM156.639 19.3813L157.959 14.1318H159.134L157.134 21H156.182L154.513 15.7949L152.888 21H151.936L149.942 14.1318H151.11L152.462 19.2734L154.062 14.1318H155.008L156.639 19.3813ZM163.272 17.5088C163.272 16.4551 163.522 15.6087 164.021 14.9697C164.521 14.3265 165.175 14.0049 165.983 14.0049C166.787 14.0049 167.424 14.2799 167.894 14.8301V11.25H169.068V21H167.989L167.932 20.2637C167.462 20.8392 166.808 21.127 165.97 21.127C165.175 21.127 164.525 20.8011 164.021 20.1494C163.522 19.4977 163.272 18.6471 163.272 17.5977V17.5088ZM164.447 17.6421C164.447 18.4207 164.608 19.0301 164.929 19.4702C165.251 19.9103 165.695 20.1304 166.262 20.1304C167.007 20.1304 167.551 19.7961 167.894 19.1274V15.9727C167.542 15.3252 167.003 15.0015 166.275 15.0015C165.699 15.0015 165.251 15.2236 164.929 15.668C164.608 16.1123 164.447 16.7703 164.447 17.6421ZM175.136 21C175.069 20.8646 175.014 20.6234 174.971 20.2764C174.425 20.8434 173.774 21.127 173.016 21.127C172.339 21.127 171.783 20.9365 171.347 20.5557C170.915 20.1706 170.699 19.6839 170.699 19.0957C170.699 18.3805 170.97 17.8262 171.512 17.4326C172.058 17.0348 172.824 16.8359 173.81 16.8359H174.952V16.2964C174.952 15.8859 174.829 15.5601 174.584 15.3188C174.339 15.0734 173.977 14.9507 173.499 14.9507C173.08 14.9507 172.728 15.0565 172.445 15.2681C172.161 15.4797 172.02 15.7357 172.02 16.0361H170.839C170.839 15.6934 170.959 15.3633 171.201 15.0459C171.446 14.7243 171.776 14.4704 172.191 14.2842C172.61 14.098 173.069 14.0049 173.568 14.0049C174.36 14.0049 174.98 14.2038 175.428 14.6016C175.877 14.9951 176.11 15.5389 176.126 16.2329V19.394C176.126 20.0246 176.207 20.526 176.368 20.8984V21H175.136ZM173.188 20.105C173.556 20.105 173.905 20.0098 174.235 19.8193C174.565 19.6289 174.804 19.3813 174.952 19.0767V17.6675H174.032C172.593 17.6675 171.874 18.0885 171.874 18.9307C171.874 19.2988 171.996 19.5866 172.242 19.7939C172.487 20.0013 172.802 20.105 173.188 20.105ZM179.561 12.4688V14.1318H180.843V15.0396H179.561V19.2988C179.561 19.5739 179.618 19.7812 179.732 19.9209C179.846 20.0563 180.041 20.124 180.316 20.124C180.451 20.124 180.638 20.0986 180.875 20.0479V21C180.566 21.0846 180.265 21.127 179.973 21.127C179.448 21.127 179.053 20.9683 178.786 20.6509C178.52 20.3335 178.386 19.8828 178.386 19.2988V15.0396H177.136V14.1318H178.386V12.4688H179.561ZM186.46 21C186.393 20.8646 186.338 20.6234 186.295 20.2764C185.75 20.8434 185.098 21.127 184.34 21.127C183.663 21.127 183.107 20.9365 182.671 20.5557C182.239 20.1706 182.023 19.6839 182.023 19.0957C182.023 18.3805 182.294 17.8262 182.836 17.4326C183.382 17.0348 184.148 16.8359 185.134 16.8359H186.276V16.2964C186.276 15.8859 186.154 15.5601 185.908 15.3188C185.663 15.0734 185.301 14.9507 184.823 14.9507C184.404 14.9507 184.053 15.0565 183.769 15.2681C183.486 15.4797 183.344 15.7357 183.344 16.0361H182.163C182.163 15.6934 182.284 15.3633 182.525 15.0459C182.77 14.7243 183.1 14.4704 183.515 14.2842C183.934 14.098 184.393 14.0049 184.893 14.0049C185.684 14.0049 186.304 14.2038 186.752 14.6016C187.201 14.9951 187.434 15.5389 187.451 16.2329V19.394C187.451 20.0246 187.531 20.526 187.692 20.8984V21H186.46ZM184.512 20.105C184.88 20.105 185.229 20.0098 185.559 19.8193C185.889 19.6289 186.128 19.3813 186.276 19.0767V17.6675H185.356C183.917 17.6675 183.198 18.0885 183.198 18.9307C183.198 19.2988 183.32 19.5866 183.566 19.7939C183.811 20.0013 184.127 20.105 184.512 20.105ZM193.792 21H192.618V14.1318H193.792V21ZM192.522 12.3101C192.522 12.1196 192.58 11.9588 192.694 11.8276C192.812 11.6965 192.986 11.6309 193.214 11.6309C193.443 11.6309 193.616 11.6965 193.735 11.8276C193.853 11.9588 193.913 12.1196 193.913 12.3101C193.913 12.5005 193.853 12.6592 193.735 12.7861C193.616 12.9131 193.443 12.9766 193.214 12.9766C192.986 12.9766 192.812 12.9131 192.694 12.7861C192.58 12.6592 192.522 12.5005 192.522 12.3101ZM199.676 19.1782C199.676 18.8608 199.556 18.6154 199.314 18.4419C199.077 18.2642 198.661 18.1118 198.064 17.9849C197.472 17.8579 197 17.7056 196.648 17.5278C196.301 17.3501 196.043 17.1385 195.874 16.8931C195.709 16.6476 195.626 16.3556 195.626 16.0171C195.626 15.4543 195.863 14.9782 196.337 14.5889C196.816 14.1995 197.425 14.0049 198.166 14.0049C198.944 14.0049 199.575 14.2059 200.057 14.6079C200.544 15.0099 200.787 15.5241 200.787 16.1504H199.606C199.606 15.8288 199.469 15.5516 199.194 15.3188C198.923 15.0861 198.58 14.9697 198.166 14.9697C197.738 14.9697 197.404 15.0628 197.163 15.249C196.921 15.4352 196.801 15.6785 196.801 15.979C196.801 16.2625 196.913 16.4762 197.137 16.6201C197.361 16.764 197.766 16.9015 198.35 17.0327C198.938 17.1639 199.414 17.3205 199.778 17.5024C200.142 17.6844 200.41 17.9045 200.584 18.1626C200.762 18.4165 200.851 18.7275 200.851 19.0957C200.851 19.7093 200.605 20.2023 200.114 20.5747C199.623 20.9429 198.986 21.127 198.204 21.127C197.653 21.127 197.167 21.0296 196.744 20.835C196.32 20.6403 195.988 20.3695 195.747 20.0225C195.51 19.6712 195.392 19.2925 195.392 18.8862H196.566C196.587 19.2798 196.744 19.5929 197.036 19.8257C197.332 20.0542 197.721 20.1685 198.204 20.1685C198.648 20.1685 199.003 20.0796 199.27 19.9019C199.541 19.7199 199.676 19.4787 199.676 19.1782ZM155.839 30.1855C155.662 30.1559 155.469 30.1411 155.262 30.1411C154.492 30.1411 153.969 30.4691 153.694 31.125V36H152.52V29.1318H153.662L153.681 29.9253C154.066 29.3117 154.612 29.0049 155.319 29.0049C155.547 29.0049 155.721 29.0345 155.839 29.0938V30.1855ZM159.648 36.127C158.717 36.127 157.959 35.8223 157.375 35.2129C156.792 34.5993 156.5 33.7804 156.5 32.7563V32.5405C156.5 31.8592 156.629 31.252 156.887 30.7188C157.149 30.1813 157.513 29.7624 157.979 29.4619C158.448 29.1572 158.956 29.0049 159.502 29.0049C160.395 29.0049 161.089 29.299 161.584 29.8872C162.079 30.4754 162.327 31.3175 162.327 32.4136V32.9023H157.674C157.691 33.5794 157.888 34.1274 158.264 34.5464C158.645 34.9611 159.127 35.1685 159.711 35.1685C160.126 35.1685 160.477 35.0838 160.765 34.9146C161.053 34.7453 161.305 34.521 161.521 34.2417L162.238 34.8003C161.662 35.6847 160.799 36.127 159.648 36.127ZM159.502 29.9697C159.028 29.9697 158.63 30.1432 158.309 30.4902C157.987 30.833 157.788 31.3154 157.712 31.9375H161.152V31.8486C161.118 31.252 160.958 30.7907 160.67 30.4648C160.382 30.1348 159.993 29.9697 159.502 29.9697ZM167.932 36C167.864 35.8646 167.809 35.6234 167.767 35.2764C167.221 35.8434 166.569 36.127 165.812 36.127C165.134 36.127 164.578 35.9365 164.142 35.5557C163.71 35.1706 163.495 34.6839 163.495 34.0957C163.495 33.3805 163.765 32.8262 164.307 32.4326C164.853 32.0348 165.619 31.8359 166.605 31.8359H167.748V31.2964C167.748 30.8859 167.625 30.5601 167.379 30.3188C167.134 30.0734 166.772 29.9507 166.294 29.9507C165.875 29.9507 165.524 30.0565 165.24 30.2681C164.957 30.4797 164.815 30.7357 164.815 31.0361H163.634C163.634 30.6934 163.755 30.3633 163.996 30.0459C164.242 29.7243 164.572 29.4704 164.986 29.2842C165.405 29.098 165.864 29.0049 166.364 29.0049C167.155 29.0049 167.775 29.2038 168.224 29.6016C168.672 29.9951 168.905 30.5389 168.922 31.2329V34.394C168.922 35.0246 169.002 35.526 169.163 35.8984V36H167.932ZM165.983 35.105C166.351 35.105 166.7 35.0098 167.03 34.8193C167.36 34.6289 167.599 34.3813 167.748 34.0767V32.6675H166.827C165.388 32.6675 164.669 33.0885 164.669 33.9307C164.669 34.2988 164.792 34.5866 165.037 34.7939C165.283 35.0013 165.598 35.105 165.983 35.105ZM170.477 32.5088C170.477 31.4551 170.727 30.6087 171.226 29.9697C171.725 29.3265 172.379 29.0049 173.188 29.0049C173.992 29.0049 174.628 29.2799 175.098 29.8301V26.25H176.272V36H175.193L175.136 35.2637C174.667 35.8392 174.013 36.127 173.175 36.127C172.379 36.127 171.73 35.8011 171.226 35.1494C170.727 34.4977 170.477 33.6471 170.477 32.5977V32.5088ZM171.651 32.6421C171.651 33.4207 171.812 34.0301 172.134 34.4702C172.455 34.9103 172.9 35.1304 173.467 35.1304C174.212 35.1304 174.755 34.7961 175.098 34.1274V30.9727C174.747 30.3252 174.207 30.0015 173.479 30.0015C172.904 30.0015 172.455 30.2236 172.134 30.668C171.812 31.1123 171.651 31.7703 171.651 32.6421ZM180.348 34.2798L181.947 29.1318H183.204L180.443 37.0601C180.015 38.2026 179.336 38.7739 178.405 38.7739L178.183 38.7549L177.745 38.6724V37.7202L178.062 37.7456C178.46 37.7456 178.769 37.6652 178.989 37.5044C179.214 37.3436 179.398 37.0495 179.542 36.6221L179.802 35.9238L177.352 29.1318H178.634L180.348 34.2798Z" fill="#FF0000"/>
<path d="M354.684 25H353.459L348.806 17.8779V25H347.581V15.7578H348.806L353.472 22.9116V15.7578H354.684V25ZM359.515 25.127C358.584 25.127 357.826 24.8223 357.242 24.2129C356.658 23.5993 356.366 22.7804 356.366 21.7563V21.5405C356.366 20.8592 356.495 20.252 356.753 19.7188C357.016 19.1813 357.38 18.7624 357.845 18.4619C358.315 18.1572 358.823 18.0049 359.369 18.0049C360.262 18.0049 360.956 18.299 361.451 18.8872C361.946 19.4754 362.193 20.3175 362.193 21.4136V21.9023H357.541C357.557 22.5794 357.754 23.1274 358.131 23.5464C358.512 23.9611 358.994 24.1685 359.578 24.1685C359.993 24.1685 360.344 24.0838 360.632 23.9146C360.92 23.7453 361.171 23.521 361.387 23.2417L362.104 23.8003C361.529 24.6847 360.666 25.127 359.515 25.127ZM359.369 18.9697C358.895 18.9697 358.497 19.1432 358.175 19.4902C357.854 19.833 357.655 20.3154 357.579 20.9375H361.019V20.8486C360.985 20.252 360.824 19.7907 360.537 19.4648C360.249 19.1348 359.86 18.9697 359.369 18.9697ZM369.639 23.3813L370.959 18.1318H372.134L370.134 25H369.182L367.513 19.7949L365.888 25H364.936L362.942 18.1318H364.11L365.462 23.2734L367.062 18.1318H368.008L369.639 23.3813ZM376.272 21.5088C376.272 20.4551 376.522 19.6087 377.021 18.9697C377.521 18.3265 378.175 18.0049 378.983 18.0049C379.787 18.0049 380.424 18.2799 380.894 18.8301V15.25H382.068V25H380.989L380.932 24.2637C380.462 24.8392 379.808 25.127 378.97 25.127C378.175 25.127 377.525 24.8011 377.021 24.1494C376.522 23.4977 376.272 22.6471 376.272 21.5977V21.5088ZM377.447 21.6421C377.447 22.4207 377.608 23.0301 377.929 23.4702C378.251 23.9103 378.695 24.1304 379.262 24.1304C380.007 24.1304 380.551 23.7961 380.894 23.1274V19.9727C380.542 19.3252 380.003 19.0015 379.275 19.0015C378.699 19.0015 378.251 19.2236 377.929 19.668C377.608 20.1123 377.447 20.7703 377.447 21.6421ZM388.136 25C388.069 24.8646 388.014 24.6234 387.971 24.2764C387.425 24.8434 386.774 25.127 386.016 25.127C385.339 25.127 384.783 24.9365 384.347 24.5557C383.915 24.1706 383.699 23.6839 383.699 23.0957C383.699 22.3805 383.97 21.8262 384.512 21.4326C385.058 21.0348 385.824 20.8359 386.81 20.8359H387.952V20.2964C387.952 19.8859 387.829 19.5601 387.584 19.3188C387.339 19.0734 386.977 18.9507 386.499 18.9507C386.08 18.9507 385.728 19.0565 385.445 19.2681C385.161 19.4797 385.02 19.7357 385.02 20.0361H383.839C383.839 19.6934 383.959 19.3633 384.201 19.0459C384.446 18.7243 384.776 18.4704 385.191 18.2842C385.61 18.098 386.069 18.0049 386.568 18.0049C387.36 18.0049 387.98 18.2038 388.428 18.6016C388.877 18.9951 389.11 19.5389 389.126 20.2329V23.394C389.126 24.0246 389.207 24.526 389.368 24.8984V25H388.136ZM386.188 24.105C386.556 24.105 386.905 24.0098 387.235 23.8193C387.565 23.6289 387.804 23.3813 387.952 23.0767V21.6675H387.032C385.593 21.6675 384.874 22.0885 384.874 22.9307C384.874 23.2988 384.996 23.5866 385.242 23.7939C385.487 24.0013 385.802 24.105 386.188 24.105ZM392.561 16.4688V18.1318H393.843V19.0396H392.561V23.2988C392.561 23.5739 392.618 23.7812 392.732 23.9209C392.846 24.0563 393.041 24.124 393.316 24.124C393.451 24.124 393.638 24.0986 393.875 24.0479V25C393.566 25.0846 393.265 25.127 392.973 25.127C392.448 25.127 392.053 24.9683 391.786 24.6509C391.52 24.3335 391.386 23.8828 391.386 23.2988V19.0396H390.136V18.1318H391.386V16.4688H392.561ZM399.46 25C399.393 24.8646 399.338 24.6234 399.295 24.2764C398.75 24.8434 398.098 25.127 397.34 25.127C396.663 25.127 396.107 24.9365 395.671 24.5557C395.239 24.1706 395.023 23.6839 395.023 23.0957C395.023 22.3805 395.294 21.8262 395.836 21.4326C396.382 21.0348 397.148 20.8359 398.134 20.8359H399.276V20.2964C399.276 19.8859 399.154 19.5601 398.908 19.3188C398.663 19.0734 398.301 18.9507 397.823 18.9507C397.404 18.9507 397.053 19.0565 396.769 19.2681C396.486 19.4797 396.344 19.7357 396.344 20.0361H395.163C395.163 19.6934 395.284 19.3633 395.525 19.0459C395.77 18.7243 396.1 18.4704 396.515 18.2842C396.934 18.098 397.393 18.0049 397.893 18.0049C398.684 18.0049 399.304 18.2038 399.752 18.6016C400.201 18.9951 400.434 19.5389 400.451 20.2329V23.394C400.451 24.0246 400.531 24.526 400.692 24.8984V25H399.46ZM397.512 24.105C397.88 24.105 398.229 24.0098 398.559 23.8193C398.889 23.6289 399.128 23.3813 399.276 23.0767V21.6675H398.356C396.917 21.6675 396.198 22.0885 396.198 22.9307C396.198 23.2988 396.32 23.5866 396.566 23.7939C396.811 24.0013 397.127 24.105 397.512 24.105ZM406.792 25H405.618V18.1318H406.792V25ZM405.522 16.3101C405.522 16.1196 405.58 15.9588 405.694 15.8276C405.812 15.6965 405.986 15.6309 406.214 15.6309C406.443 15.6309 406.616 15.6965 406.735 15.8276C406.853 15.9588 406.913 16.1196 406.913 16.3101C406.913 16.5005 406.853 16.6592 406.735 16.7861C406.616 16.9131 406.443 16.9766 406.214 16.9766C405.986 16.9766 405.812 16.9131 405.694 16.7861C405.58 16.6592 405.522 16.5005 405.522 16.3101ZM412.676 23.1782C412.676 22.8608 412.556 22.6154 412.314 22.4419C412.077 22.2642 411.661 22.1118 411.064 21.9849C410.472 21.8579 410 21.7056 409.648 21.5278C409.301 21.3501 409.043 21.1385 408.874 20.8931C408.709 20.6476 408.626 20.3556 408.626 20.0171C408.626 19.4543 408.863 18.9782 409.337 18.5889C409.816 18.1995 410.425 18.0049 411.166 18.0049C411.944 18.0049 412.575 18.2059 413.057 18.6079C413.544 19.0099 413.787 19.5241 413.787 20.1504H412.606C412.606 19.8288 412.469 19.5516 412.194 19.3188C411.923 19.0861 411.58 18.9697 411.166 18.9697C410.738 18.9697 410.404 19.0628 410.163 19.249C409.921 19.4352 409.801 19.6785 409.801 19.979C409.801 20.2625 409.913 20.4762 410.137 20.6201C410.361 20.764 410.766 20.9015 411.35 21.0327C411.938 21.1639 412.414 21.3205 412.778 21.5024C413.142 21.6844 413.41 21.9045 413.584 22.1626C413.762 22.4165 413.851 22.7275 413.851 23.0957C413.851 23.7093 413.605 24.2023 413.114 24.5747C412.623 24.9429 411.986 25.127 411.204 25.127C410.653 25.127 410.167 25.0296 409.744 24.835C409.32 24.6403 408.988 24.3695 408.747 24.0225C408.51 23.6712 408.392 23.2925 408.392 22.8862H409.566C409.587 23.2798 409.744 23.5929 410.036 23.8257C410.332 24.0542 410.721 24.1685 411.204 24.1685C411.648 24.1685 412.003 24.0796 412.27 23.9019C412.541 23.7199 412.676 23.4787 412.676 23.1782ZM368.839 34.1855C368.662 34.1559 368.469 34.1411 368.262 34.1411C367.492 34.1411 366.969 34.4691 366.694 35.125V40H365.52V33.1318H366.662L366.681 33.9253C367.066 33.3117 367.612 33.0049 368.319 33.0049C368.547 33.0049 368.721 33.0345 368.839 33.0938V34.1855ZM372.648 40.127C371.717 40.127 370.959 39.8223 370.375 39.2129C369.792 38.5993 369.5 37.7804 369.5 36.7563V36.5405C369.5 35.8592 369.629 35.252 369.887 34.7188C370.149 34.1813 370.513 33.7624 370.979 33.4619C371.448 33.1572 371.956 33.0049 372.502 33.0049C373.395 33.0049 374.089 33.299 374.584 33.8872C375.079 34.4754 375.327 35.3175 375.327 36.4136V36.9023H370.674C370.691 37.5794 370.888 38.1274 371.264 38.5464C371.645 38.9611 372.127 39.1685 372.711 39.1685C373.126 39.1685 373.477 39.0838 373.765 38.9146C374.053 38.7453 374.305 38.521 374.521 38.2417L375.238 38.8003C374.662 39.6847 373.799 40.127 372.648 40.127ZM372.502 33.9697C372.028 33.9697 371.63 34.1432 371.309 34.4902C370.987 34.833 370.788 35.3154 370.712 35.9375H374.152V35.8486C374.118 35.252 373.958 34.7907 373.67 34.4648C373.382 34.1348 372.993 33.9697 372.502 33.9697ZM380.932 40C380.864 39.8646 380.809 39.6234 380.767 39.2764C380.221 39.8434 379.569 40.127 378.812 40.127C378.134 40.127 377.578 39.9365 377.142 39.5557C376.71 39.1706 376.495 38.6839 376.495 38.0957C376.495 37.3805 376.765 36.8262 377.307 36.4326C377.853 36.0348 378.619 35.8359 379.605 35.8359H380.748V35.2964C380.748 34.8859 380.625 34.5601 380.379 34.3188C380.134 34.0734 379.772 33.9507 379.294 33.9507C378.875 33.9507 378.524 34.0565 378.24 34.2681C377.957 34.4797 377.815 34.7357 377.815 35.0361H376.634C376.634 34.6934 376.755 34.3633 376.996 34.0459C377.242 33.7243 377.572 33.4704 377.986 33.2842C378.405 33.098 378.864 33.0049 379.364 33.0049C380.155 33.0049 380.775 33.2038 381.224 33.6016C381.672 33.9951 381.905 34.5389 381.922 35.2329V38.394C381.922 39.0246 382.002 39.526 382.163 39.8984V40H380.932ZM378.983 39.105C379.351 39.105 379.7 39.0098 380.03 38.8193C380.36 38.6289 380.599 38.3813 380.748 38.0767V36.6675H379.827C378.388 36.6675 377.669 37.0885 377.669 37.9307C377.669 38.2988 377.792 38.5866 378.037 38.7939C378.283 39.0013 378.598 39.105 378.983 39.105ZM383.477 36.5088C383.477 35.4551 383.727 34.6087 384.226 33.9697C384.725 33.3265 385.379 33.0049 386.188 33.0049C386.992 33.0049 387.628 33.2799 388.098 33.8301V30.25H389.272V40H388.193L388.136 39.2637C387.667 39.8392 387.013 40.127 386.175 40.127C385.379 40.127 384.73 39.8011 384.226 39.1494C383.727 38.4977 383.477 37.6471 383.477 36.5977V36.5088ZM384.651 36.6421C384.651 37.4207 384.812 38.0301 385.134 38.4702C385.455 38.9103 385.9 39.1304 386.467 39.1304C387.212 39.1304 387.755 38.7961 388.098 38.1274V34.9727C387.747 34.3252 387.207 34.0015 386.479 34.0015C385.904 34.0015 385.455 34.2236 385.134 34.668C384.812 35.1123 384.651 35.7703 384.651 36.6421ZM393.348 38.2798L394.947 33.1318H396.204L393.443 41.0601C393.015 42.2026 392.336 42.7739 391.405 42.7739L391.183 42.7549L390.745 42.6724V41.7202L391.062 41.7456C391.46 41.7456 391.769 41.6652 391.989 41.5044C392.214 41.3436 392.398 41.0495 392.542 40.6221L392.802 39.9238L390.352 33.1318H391.634L393.348 38.2798Z" fill="#FF0000"/>
<path d="M516.684 24H515.459L510.806 16.8779V24H509.581V14.7578H510.806L515.472 21.9116V14.7578H516.684V24ZM521.515 24.127C520.584 24.127 519.826 23.8223 519.242 23.2129C518.658 22.5993 518.366 21.7804 518.366 20.7563V20.5405C518.366 19.8592 518.495 19.252 518.753 18.7188C519.016 18.1813 519.38 17.7624 519.845 17.4619C520.315 17.1572 520.823 17.0049 521.369 17.0049C522.262 17.0049 522.956 17.299 523.451 17.8872C523.946 18.4754 524.193 19.3175 524.193 20.4136V20.9023H519.541C519.557 21.5794 519.754 22.1274 520.131 22.5464C520.512 22.9611 520.994 23.1685 521.578 23.1685C521.993 23.1685 522.344 23.0838 522.632 22.9146C522.92 22.7453 523.171 22.521 523.387 22.2417L524.104 22.8003C523.529 23.6847 522.666 24.127 521.515 24.127ZM521.369 17.9697C520.895 17.9697 520.497 18.1432 520.175 18.4902C519.854 18.833 519.655 19.3154 519.579 19.9375H523.019V19.8486C522.985 19.252 522.824 18.7907 522.537 18.4648C522.249 18.1348 521.86 17.9697 521.369 17.9697ZM531.639 22.3813L532.959 17.1318H534.134L532.134 24H531.182L529.513 18.7949L527.888 24H526.936L524.942 17.1318H526.11L527.462 22.2734L529.062 17.1318H530.008L531.639 22.3813ZM538.272 20.5088C538.272 19.4551 538.522 18.6087 539.021 17.9697C539.521 17.3265 540.175 17.0049 540.983 17.0049C541.787 17.0049 542.424 17.2799 542.894 17.8301V14.25H544.068V24H542.989L542.932 23.2637C542.462 23.8392 541.808 24.127 540.97 24.127C540.175 24.127 539.525 23.8011 539.021 23.1494C538.522 22.4977 538.272 21.6471 538.272 20.5977V20.5088ZM539.447 20.6421C539.447 21.4207 539.608 22.0301 539.929 22.4702C540.251 22.9103 540.695 23.1304 541.262 23.1304C542.007 23.1304 542.551 22.7961 542.894 22.1274V18.9727C542.542 18.3252 542.003 18.0015 541.275 18.0015C540.699 18.0015 540.251 18.2236 539.929 18.668C539.608 19.1123 539.447 19.7703 539.447 20.6421ZM550.136 24C550.069 23.8646 550.014 23.6234 549.971 23.2764C549.425 23.8434 548.774 24.127 548.016 24.127C547.339 24.127 546.783 23.9365 546.347 23.5557C545.915 23.1706 545.699 22.6839 545.699 22.0957C545.699 21.3805 545.97 20.8262 546.512 20.4326C547.058 20.0348 547.824 19.8359 548.81 19.8359H549.952V19.2964C549.952 18.8859 549.829 18.5601 549.584 18.3188C549.339 18.0734 548.977 17.9507 548.499 17.9507C548.08 17.9507 547.728 18.0565 547.445 18.2681C547.161 18.4797 547.02 18.7357 547.02 19.0361H545.839C545.839 18.6934 545.959 18.3633 546.201 18.0459C546.446 17.7243 546.776 17.4704 547.191 17.2842C547.61 17.098 548.069 17.0049 548.568 17.0049C549.36 17.0049 549.98 17.2038 550.428 17.6016C550.877 17.9951 551.11 18.5389 551.126 19.2329V22.394C551.126 23.0246 551.207 23.526 551.368 23.8984V24H550.136ZM548.188 23.105C548.556 23.105 548.905 23.0098 549.235 22.8193C549.565 22.6289 549.804 22.3813 549.952 22.0767V20.6675H549.032C547.593 20.6675 546.874 21.0885 546.874 21.9307C546.874 22.2988 546.996 22.5866 547.242 22.7939C547.487 23.0013 547.802 23.105 548.188 23.105ZM554.561 15.4688V17.1318H555.843V18.0396H554.561V22.2988C554.561 22.5739 554.618 22.7812 554.732 22.9209C554.846 23.0563 555.041 23.124 555.316 23.124C555.451 23.124 555.638 23.0986 555.875 23.0479V24C555.566 24.0846 555.265 24.127 554.973 24.127C554.448 24.127 554.053 23.9683 553.786 23.6509C553.52 23.3335 553.386 22.8828 553.386 22.2988V18.0396H552.136V17.1318H553.386V15.4688H554.561ZM561.46 24C561.393 23.8646 561.338 23.6234 561.295 23.2764C560.75 23.8434 560.098 24.127 559.34 24.127C558.663 24.127 558.107 23.9365 557.671 23.5557C557.239 23.1706 557.023 22.6839 557.023 22.0957C557.023 21.3805 557.294 20.8262 557.836 20.4326C558.382 20.0348 559.148 19.8359 560.134 19.8359H561.276V19.2964C561.276 18.8859 561.154 18.5601 560.908 18.3188C560.663 18.0734 560.301 17.9507 559.823 17.9507C559.404 17.9507 559.053 18.0565 558.769 18.2681C558.486 18.4797 558.344 18.7357 558.344 19.0361H557.163C557.163 18.6934 557.284 18.3633 557.525 18.0459C557.77 17.7243 558.1 17.4704 558.515 17.2842C558.934 17.098 559.393 17.0049 559.893 17.0049C560.684 17.0049 561.304 17.2038 561.752 17.6016C562.201 17.9951 562.434 18.5389 562.451 19.2329V22.394C562.451 23.0246 562.531 23.526 562.692 23.8984V24H561.46ZM559.512 23.105C559.88 23.105 560.229 23.0098 560.559 22.8193C560.889 22.6289 561.128 22.3813 561.276 22.0767V20.6675H560.356C558.917 20.6675 558.198 21.0885 558.198 21.9307C558.198 22.2988 558.32 22.5866 558.566 22.7939C558.811 23.0013 559.127 23.105 559.512 23.105ZM568.792 24H567.618V17.1318H568.792V24ZM567.522 15.3101C567.522 15.1196 567.58 14.9588 567.694 14.8276C567.812 14.6965 567.986 14.6309 568.214 14.6309C568.443 14.6309 568.616 14.6965 568.735 14.8276C568.853 14.9588 568.913 15.1196 568.913 15.3101C568.913 15.5005 568.853 15.6592 568.735 15.7861C568.616 15.9131 568.443 15.9766 568.214 15.9766C567.986 15.9766 567.812 15.9131 567.694 15.7861C567.58 15.6592 567.522 15.5005 567.522 15.3101ZM574.676 22.1782C574.676 21.8608 574.556 21.6154 574.314 21.4419C574.077 21.2642 573.661 21.1118 573.064 20.9849C572.472 20.8579 572 20.7056 571.648 20.5278C571.301 20.3501 571.043 20.1385 570.874 19.8931C570.709 19.6476 570.626 19.3556 570.626 19.0171C570.626 18.4543 570.863 17.9782 571.337 17.5889C571.816 17.1995 572.425 17.0049 573.166 17.0049C573.944 17.0049 574.575 17.2059 575.057 17.6079C575.544 18.0099 575.787 18.5241 575.787 19.1504H574.606C574.606 18.8288 574.469 18.5516 574.194 18.3188C573.923 18.0861 573.58 17.9697 573.166 17.9697C572.738 17.9697 572.404 18.0628 572.163 18.249C571.921 18.4352 571.801 18.6785 571.801 18.979C571.801 19.2625 571.913 19.4762 572.137 19.6201C572.361 19.764 572.766 19.9015 573.35 20.0327C573.938 20.1639 574.414 20.3205 574.778 20.5024C575.142 20.6844 575.41 20.9045 575.584 21.1626C575.762 21.4165 575.851 21.7275 575.851 22.0957C575.851 22.7093 575.605 23.2023 575.114 23.5747C574.623 23.9429 573.986 24.127 573.204 24.127C572.653 24.127 572.167 24.0296 571.744 23.835C571.32 23.6403 570.988 23.3695 570.747 23.0225C570.51 22.6712 570.392 22.2925 570.392 21.8862H571.566C571.587 22.2798 571.744 22.5929 572.036 22.8257C572.332 23.0542 572.721 23.1685 573.204 23.1685C573.648 23.1685 574.003 23.0796 574.27 22.9019C574.541 22.7199 574.676 22.4787 574.676 22.1782ZM530.839 33.1855C530.662 33.1559 530.469 33.1411 530.262 33.1411C529.492 33.1411 528.969 33.4691 528.694 34.125V39H527.52V32.1318H528.662L528.681 32.9253C529.066 32.3117 529.612 32.0049 530.319 32.0049C530.547 32.0049 530.721 32.0345 530.839 32.0938V33.1855ZM534.648 39.127C533.717 39.127 532.959 38.8223 532.375 38.2129C531.792 37.5993 531.5 36.7804 531.5 35.7563V35.5405C531.5 34.8592 531.629 34.252 531.887 33.7188C532.149 33.1813 532.513 32.7624 532.979 32.4619C533.448 32.1572 533.956 32.0049 534.502 32.0049C535.395 32.0049 536.089 32.299 536.584 32.8872C537.079 33.4754 537.327 34.3175 537.327 35.4136V35.9023H532.674C532.691 36.5794 532.888 37.1274 533.264 37.5464C533.645 37.9611 534.127 38.1685 534.711 38.1685C535.126 38.1685 535.477 38.0838 535.765 37.9146C536.053 37.7453 536.305 37.521 536.521 37.2417L537.238 37.8003C536.662 38.6847 535.799 39.127 534.648 39.127ZM534.502 32.9697C534.028 32.9697 533.63 33.1432 533.309 33.4902C532.987 33.833 532.788 34.3154 532.712 34.9375H536.152V34.8486C536.118 34.252 535.958 33.7907 535.67 33.4648C535.382 33.1348 534.993 32.9697 534.502 32.9697ZM542.932 39C542.864 38.8646 542.809 38.6234 542.767 38.2764C542.221 38.8434 541.569 39.127 540.812 39.127C540.134 39.127 539.578 38.9365 539.142 38.5557C538.71 38.1706 538.495 37.6839 538.495 37.0957C538.495 36.3805 538.765 35.8262 539.307 35.4326C539.853 35.0348 540.619 34.8359 541.605 34.8359H542.748V34.2964C542.748 33.8859 542.625 33.5601 542.379 33.3188C542.134 33.0734 541.772 32.9507 541.294 32.9507C540.875 32.9507 540.524 33.0565 540.24 33.2681C539.957 33.4797 539.815 33.7357 539.815 34.0361H538.634C538.634 33.6934 538.755 33.3633 538.996 33.0459C539.242 32.7243 539.572 32.4704 539.986 32.2842C540.405 32.098 540.864 32.0049 541.364 32.0049C542.155 32.0049 542.775 32.2038 543.224 32.6016C543.672 32.9951 543.905 33.5389 543.922 34.2329V37.394C543.922 38.0246 544.002 38.526 544.163 38.8984V39H542.932ZM540.983 38.105C541.351 38.105 541.7 38.0098 542.03 37.8193C542.36 37.6289 542.599 37.3813 542.748 37.0767V35.6675H541.827C540.388 35.6675 539.669 36.0885 539.669 36.9307C539.669 37.2988 539.792 37.5866 540.037 37.7939C540.283 38.0013 540.598 38.105 540.983 38.105ZM545.477 35.5088C545.477 34.4551 545.727 33.6087 546.226 32.9697C546.725 32.3265 547.379 32.0049 548.188 32.0049C548.992 32.0049 549.628 32.2799 550.098 32.8301V29.25H551.272V39H550.193L550.136 38.2637C549.667 38.8392 549.013 39.127 548.175 39.127C547.379 39.127 546.73 38.8011 546.226 38.1494C545.727 37.4977 545.477 36.6471 545.477 35.5977V35.5088ZM546.651 35.6421C546.651 36.4207 546.812 37.0301 547.134 37.4702C547.455 37.9103 547.9 38.1304 548.467 38.1304C549.212 38.1304 549.755 37.7961 550.098 37.1274V33.9727C549.747 33.3252 549.207 33.0015 548.479 33.0015C547.904 33.0015 547.455 33.2236 547.134 33.668C546.812 34.1123 546.651 34.7703 546.651 35.6421ZM555.348 37.2798L556.947 32.1318H558.204L555.443 40.0601C555.015 41.2026 554.336 41.7739 553.405 41.7739L553.183 41.7549L552.745 41.6724V40.7202L553.062 40.7456C553.46 40.7456 553.769 40.6652 553.989 40.5044C554.214 40.3436 554.398 40.0495 554.542 39.6221L554.802 38.9238L552.352 32.1318H553.634L555.348 37.2798Z" fill="#FF0000"/>
<path d="M44 54L563 52" stroke="black" stroke-width="3"/>
</svg>
