<svg width="600" height="300" viewBox="0 0 600 300" fill="none" xmlns="http://www.w3.org/2000/svg">
<rect width="600" height="300" fill="white"/>
<path d="M247.48 30.3711C247.337 31.888 246.777 33.0729 245.801 33.9258C244.824 34.7721 243.525 35.1953 241.904 35.1953C240.771 35.1953 239.772 34.9284 238.906 34.3945C238.047 33.8542 237.383 33.0892 236.914 32.0996C236.445 31.11 236.201 29.9609 236.182 28.6523V27.3242C236.182 25.9831 236.419 24.8014 236.895 23.7793C237.37 22.7572 238.05 21.9694 238.936 21.416C239.827 20.8626 240.856 20.5859 242.021 20.5859C243.59 20.5859 244.854 21.0124 245.811 21.8652C246.768 22.7181 247.324 23.9225 247.48 25.4785H245.02C244.902 24.4564 244.603 23.7207 244.121 23.2715C243.646 22.8158 242.946 22.5879 242.021 22.5879C240.947 22.5879 240.12 22.9818 239.541 23.7695C238.968 24.5508 238.675 25.6999 238.662 27.2168V28.4766C238.662 30.013 238.936 31.1849 239.482 31.9922C240.036 32.7995 240.843 33.2031 241.904 33.2031C242.874 33.2031 243.604 32.985 244.092 32.5488C244.58 32.1126 244.889 31.3867 245.02 30.3711H247.48ZM249.023 29.6191C249.023 28.584 249.229 27.653 249.639 26.8262C250.049 25.9928 250.625 25.3548 251.367 24.9121C252.109 24.4629 252.962 24.2383 253.926 24.2383C255.352 24.2383 256.507 24.6973 257.393 25.6152C258.285 26.5332 258.766 27.7507 258.838 29.2676L258.848 29.8242C258.848 30.8659 258.646 31.7969 258.242 32.6172C257.845 33.4375 257.272 34.0723 256.523 34.5215C255.781 34.9707 254.922 35.1953 253.945 35.1953C252.454 35.1953 251.26 34.7005 250.361 33.7109C249.469 32.7148 249.023 31.39 249.023 29.7363V29.6191ZM251.396 29.8242C251.396 30.9115 251.621 31.7643 252.07 32.3828C252.52 32.9948 253.145 33.3008 253.945 33.3008C254.746 33.3008 255.368 32.9883 255.811 32.3633C256.26 31.7383 256.484 30.8236 256.484 29.6191C256.484 28.5514 256.253 27.7051 255.791 27.0801C255.335 26.4551 254.714 26.1426 253.926 26.1426C253.151 26.1426 252.536 26.4518 252.08 27.0703C251.624 27.6823 251.396 28.6003 251.396 29.8242ZM263.057 24.4336L263.125 25.6543C263.906 24.7103 264.932 24.2383 266.201 24.2383C268.402 24.2383 269.521 25.498 269.561 28.0176V35H267.188V28.1543C267.188 27.4837 267.041 26.9889 266.748 26.6699C266.462 26.3444 265.99 26.1816 265.332 26.1816C264.375 26.1816 263.662 26.6146 263.193 27.4805V35H260.82V24.4336H263.057ZM272.617 35V26.1914H271.006V24.4336H272.617V23.7109C272.624 22.8841 272.799 22.1745 273.145 21.582C273.49 20.9896 273.978 20.5436 274.609 20.2441C275.241 19.9447 275.999 19.7949 276.885 19.7949C277.406 19.7949 277.904 19.8503 278.379 19.9609C278.861 20.0716 279.359 20.2116 279.873 20.3809L279.512 22.3438C278.613 22.0312 277.793 21.875 277.051 21.875C276.328 21.875 275.804 22.0345 275.479 22.3535C275.153 22.666 274.99 23.138 274.99 23.7695V24.4336H277.07V26.1914H274.99V35H272.617ZM280.996 35H278.623V24.4336H280.996V35ZM283.184 29.6387C283.184 28.0111 283.561 26.7057 284.316 25.7227C285.072 24.7331 286.084 24.2383 287.354 24.2383C288.473 24.2383 289.378 24.6289 290.068 25.4102V20H292.441V35H290.293L290.176 33.9062C289.466 34.7656 288.519 35.1953 287.334 35.1953C286.097 35.1953 285.094 34.6973 284.326 33.7012C283.564 32.7051 283.184 31.3509 283.184 29.6387ZM285.557 29.8438C285.557 30.918 285.762 31.7578 286.172 32.3633C286.589 32.9622 287.178 33.2617 287.939 33.2617C288.91 33.2617 289.619 32.8288 290.068 31.9629V27.4512C289.632 26.6048 288.929 26.1816 287.959 26.1816C287.191 26.1816 286.598 26.4876 286.182 27.0996C285.765 27.7051 285.557 28.6198 285.557 29.8438ZM299.57 35.1953C298.066 35.1953 296.846 34.7233 295.908 33.7793C294.977 32.8288 294.512 31.5658 294.512 29.9902V29.6973C294.512 28.6426 294.714 27.7018 295.117 26.875C295.527 26.0417 296.1 25.3939 296.836 24.9316C297.572 24.4694 298.392 24.2383 299.297 24.2383C300.736 24.2383 301.846 24.6973 302.627 25.6152C303.415 26.5332 303.809 27.832 303.809 29.5117V30.4688H296.904C296.976 31.3411 297.266 32.0312 297.773 32.5391C298.288 33.0469 298.932 33.3008 299.707 33.3008C300.794 33.3008 301.68 32.8613 302.363 31.9824L303.643 33.2031C303.219 33.8346 302.653 34.3262 301.943 34.6777C301.24 35.0228 300.449 35.1953 299.57 35.1953ZM299.287 26.1426C298.636 26.1426 298.109 26.3704 297.705 26.8262C297.308 27.2819 297.054 27.9167 296.943 28.7305H301.465V28.5547C301.413 27.7604 301.201 27.1615 300.83 26.7578C300.459 26.3477 299.945 26.1426 299.287 26.1426ZM307.861 24.4336L307.93 25.6543C308.711 24.7103 309.736 24.2383 311.006 24.2383C313.206 24.2383 314.326 25.498 314.365 28.0176V35H311.992V28.1543C311.992 27.4837 311.846 26.9889 311.553 26.6699C311.266 26.3444 310.794 26.1816 310.137 26.1816C309.18 26.1816 308.467 26.6146 307.998 27.4805V35H305.625V24.4336H307.861ZM319.766 21.8652V24.4336H321.631V26.1914H319.766V32.0898C319.766 32.4935 319.844 32.7865 320 32.9688C320.163 33.1445 320.449 33.2324 320.859 33.2324C321.133 33.2324 321.41 33.1999 321.689 33.1348V34.9707C321.149 35.1204 320.628 35.1953 320.127 35.1953C318.304 35.1953 317.393 34.1895 317.393 32.1777V26.1914H315.654V24.4336H317.393V21.8652H319.766ZM325.977 35H323.604V24.4336H325.977V35ZM323.457 21.6895C323.457 21.3249 323.571 21.0221 323.799 20.7812C324.033 20.5404 324.365 20.4199 324.795 20.4199C325.225 20.4199 325.557 20.5404 325.791 20.7812C326.025 21.0221 326.143 21.3249 326.143 21.6895C326.143 22.0475 326.025 22.347 325.791 22.5879C325.557 22.8223 325.225 22.9395 324.795 22.9395C324.365 22.9395 324.033 22.8223 323.799 22.5879C323.571 22.347 323.457 22.0475 323.457 21.6895ZM334.883 35C334.779 34.7982 334.688 34.4694 334.609 34.0137C333.854 34.8014 332.93 35.1953 331.836 35.1953C330.775 35.1953 329.909 34.8926 329.238 34.2871C328.568 33.6816 328.232 32.9329 328.232 32.041C328.232 30.9147 328.649 30.0521 329.482 29.4531C330.322 28.8477 331.52 28.5449 333.076 28.5449H334.531V27.8516C334.531 27.3047 334.378 26.8685 334.072 26.543C333.766 26.2109 333.301 26.0449 332.676 26.0449C332.135 26.0449 331.693 26.1816 331.348 26.4551C331.003 26.722 330.83 27.0638 330.83 27.4805H328.457C328.457 26.901 328.649 26.3607 329.033 25.8594C329.417 25.3516 329.938 24.9544 330.596 24.668C331.26 24.3815 331.999 24.2383 332.812 24.2383C334.049 24.2383 335.036 24.5508 335.771 25.1758C336.507 25.7943 336.885 26.6667 336.904 27.793V32.5586C336.904 33.5091 337.038 34.2676 337.305 34.834V35H334.883ZM332.275 33.291C332.744 33.291 333.184 33.1771 333.594 32.9492C334.01 32.7214 334.323 32.4154 334.531 32.0312V30.0391H333.252C332.373 30.0391 331.712 30.1921 331.27 30.498C330.827 30.804 330.605 31.237 330.605 31.7969C330.605 32.2526 330.755 32.6172 331.055 32.8906C331.361 33.1576 331.768 33.291 332.275 33.291ZM341.914 35H339.541V20H341.914V35ZM347.031 35H344.658V24.4336H347.031V35ZM344.512 21.6895C344.512 21.3249 344.626 21.0221 344.854 20.7812C345.088 20.5404 345.42 20.4199 345.85 20.4199C346.279 20.4199 346.611 20.5404 346.846 20.7812C347.08 21.0221 347.197 21.3249 347.197 21.6895C347.197 22.0475 347.08 22.347 346.846 22.5879C346.611 22.8223 346.279 22.9395 345.85 22.9395C345.42 22.9395 345.088 22.8223 344.854 22.5879C344.626 22.347 344.512 22.0475 344.512 21.6895ZM352.598 21.8652V24.4336H354.463V26.1914H352.598V32.0898C352.598 32.4935 352.676 32.7865 352.832 32.9688C352.995 33.1445 353.281 33.2324 353.691 33.2324C353.965 33.2324 354.242 33.1999 354.521 33.1348V34.9707C353.981 35.1204 353.46 35.1953 352.959 35.1953C351.136 35.1953 350.225 34.1895 350.225 32.1777V26.1914H348.486V24.4336H350.225V21.8652H352.598ZM359.98 31.6016L362.129 24.4336H364.658L360.459 36.6016C359.814 38.3789 358.721 39.2676 357.178 39.2676C356.833 39.2676 356.452 39.209 356.035 39.0918V37.2559L356.484 37.2852C357.083 37.2852 357.533 37.1745 357.832 36.9531C358.138 36.7383 358.379 36.3737 358.555 35.8594L358.896 34.9512L355.186 24.4336H357.744L359.98 31.6016Z" fill="black"/>
<path d="M381.012 269H378.551V254.781H381.012V269ZM386.021 258.434L386.09 259.654C386.871 258.71 387.896 258.238 389.166 258.238C391.367 258.238 392.486 259.498 392.525 262.018V269H390.152V262.154C390.152 261.484 390.006 260.989 389.713 260.67C389.426 260.344 388.954 260.182 388.297 260.182C387.34 260.182 386.627 260.615 386.158 261.48V269H383.785V258.434H386.021ZM397.926 255.865V258.434H399.791V260.191H397.926V266.09C397.926 266.493 398.004 266.786 398.16 266.969C398.323 267.145 398.609 267.232 399.02 267.232C399.293 267.232 399.57 267.2 399.85 267.135V268.971C399.309 269.12 398.788 269.195 398.287 269.195C396.464 269.195 395.553 268.189 395.553 266.178V260.191H393.814V258.434H395.553V255.865H397.926ZM406.266 269.195C404.762 269.195 403.541 268.723 402.604 267.779C401.673 266.829 401.207 265.566 401.207 263.99V263.697C401.207 262.643 401.409 261.702 401.812 260.875C402.223 260.042 402.796 259.394 403.531 258.932C404.267 258.469 405.087 258.238 405.992 258.238C407.431 258.238 408.541 258.697 409.322 259.615C410.11 260.533 410.504 261.832 410.504 263.512V264.469H403.6C403.671 265.341 403.961 266.031 404.469 266.539C404.983 267.047 405.628 267.301 406.402 267.301C407.49 267.301 408.375 266.861 409.059 265.982L410.338 267.203C409.915 267.835 409.348 268.326 408.639 268.678C407.936 269.023 407.145 269.195 406.266 269.195ZM405.982 260.143C405.331 260.143 404.804 260.37 404.4 260.826C404.003 261.282 403.749 261.917 403.639 262.73H408.16V262.555C408.108 261.76 407.896 261.161 407.525 260.758C407.154 260.348 406.64 260.143 405.982 260.143ZM411.939 263.639C411.939 261.998 412.324 260.689 413.092 259.713C413.867 258.73 414.892 258.238 416.168 258.238C417.372 258.238 418.32 258.658 419.01 259.498L419.117 258.434H421.256V268.678C421.256 270.064 420.823 271.158 419.957 271.959C419.098 272.76 417.936 273.16 416.471 273.16C415.696 273.16 414.938 272.997 414.195 272.672C413.46 272.353 412.9 271.933 412.516 271.412L413.639 269.986C414.368 270.852 415.266 271.285 416.334 271.285C417.122 271.285 417.743 271.07 418.199 270.641C418.655 270.217 418.883 269.592 418.883 268.766V268.053C418.199 268.814 417.288 269.195 416.148 269.195C414.911 269.195 413.899 268.704 413.111 267.721C412.33 266.738 411.939 265.377 411.939 263.639ZM414.303 263.844C414.303 264.905 414.518 265.742 414.947 266.354C415.383 266.959 415.986 267.262 416.754 267.262C417.711 267.262 418.421 266.852 418.883 266.031V261.383C418.434 260.582 417.73 260.182 416.773 260.182C415.992 260.182 415.383 260.491 414.947 261.109C414.518 261.728 414.303 262.639 414.303 263.844ZM429.234 260.602C428.922 260.549 428.6 260.523 428.268 260.523C427.18 260.523 426.448 260.94 426.07 261.773V269H423.697V258.434H425.963L426.021 259.615C426.594 258.697 427.389 258.238 428.404 258.238C428.743 258.238 429.023 258.284 429.244 258.375L429.234 260.602ZM433.258 269H430.885V258.434H433.258V269ZM430.738 255.689C430.738 255.325 430.852 255.022 431.08 254.781C431.314 254.54 431.646 254.42 432.076 254.42C432.506 254.42 432.838 254.54 433.072 254.781C433.307 255.022 433.424 255.325 433.424 255.689C433.424 256.048 433.307 256.347 433.072 256.588C432.838 256.822 432.506 256.939 432.076 256.939C431.646 256.939 431.314 256.822 431.08 256.588C430.852 256.347 430.738 256.048 430.738 255.689ZM438.824 255.865V258.434H440.689V260.191H438.824V266.09C438.824 266.493 438.902 266.786 439.059 266.969C439.221 267.145 439.508 267.232 439.918 267.232C440.191 267.232 440.468 267.2 440.748 267.135V268.971C440.208 269.12 439.687 269.195 439.186 269.195C437.363 269.195 436.451 268.189 436.451 266.178V260.191H434.713V258.434H436.451V255.865H438.824ZM446.207 265.602L448.355 258.434H450.885L446.686 270.602C446.041 272.379 444.947 273.268 443.404 273.268C443.059 273.268 442.678 273.209 442.262 273.092V271.256L442.711 271.285C443.31 271.285 443.759 271.174 444.059 270.953C444.365 270.738 444.605 270.374 444.781 269.859L445.123 268.951L441.412 258.434H443.971L446.207 265.602Z" fill="black"/>
<path d="M140.664 265.689H135.156L134.004 269H131.436L136.807 254.781H139.023L144.404 269H141.826L140.664 265.689ZM135.85 263.697H139.971L137.91 257.799L135.85 263.697ZM149.033 265.992L151.27 258.434H153.721L150.059 269H147.998L144.307 258.434H146.768L149.033 265.992ZM161.367 269C161.263 268.798 161.172 268.469 161.094 268.014C160.339 268.801 159.414 269.195 158.32 269.195C157.259 269.195 156.393 268.893 155.723 268.287C155.052 267.682 154.717 266.933 154.717 266.041C154.717 264.915 155.133 264.052 155.967 263.453C156.807 262.848 158.005 262.545 159.561 262.545H161.016V261.852C161.016 261.305 160.863 260.868 160.557 260.543C160.251 260.211 159.785 260.045 159.16 260.045C158.62 260.045 158.177 260.182 157.832 260.455C157.487 260.722 157.314 261.064 157.314 261.48H154.941C154.941 260.901 155.133 260.361 155.518 259.859C155.902 259.352 156.423 258.954 157.08 258.668C157.744 258.382 158.483 258.238 159.297 258.238C160.534 258.238 161.52 258.551 162.256 259.176C162.992 259.794 163.369 260.667 163.389 261.793V266.559C163.389 267.509 163.522 268.268 163.789 268.834V269H161.367ZM158.76 267.291C159.229 267.291 159.668 267.177 160.078 266.949C160.495 266.721 160.807 266.415 161.016 266.031V264.039H159.736C158.857 264.039 158.197 264.192 157.754 264.498C157.311 264.804 157.09 265.237 157.09 265.797C157.09 266.253 157.24 266.617 157.539 266.891C157.845 267.158 158.252 267.291 158.76 267.291ZM168.398 269H166.025V258.434H168.398V269ZM165.879 255.689C165.879 255.325 165.993 255.022 166.221 254.781C166.455 254.54 166.787 254.42 167.217 254.42C167.646 254.42 167.979 254.54 168.213 254.781C168.447 255.022 168.564 255.325 168.564 255.689C168.564 256.048 168.447 256.347 168.213 256.588C167.979 256.822 167.646 256.939 167.217 256.939C166.787 256.939 166.455 256.822 166.221 256.588C165.993 256.347 165.879 256.048 165.879 255.689ZM173.516 269H171.143V254H173.516V269ZM182.422 269C182.318 268.798 182.227 268.469 182.148 268.014C181.393 268.801 180.469 269.195 179.375 269.195C178.314 269.195 177.448 268.893 176.777 268.287C176.107 267.682 175.771 266.933 175.771 266.041C175.771 264.915 176.188 264.052 177.021 263.453C177.861 262.848 179.059 262.545 180.615 262.545H182.07V261.852C182.07 261.305 181.917 260.868 181.611 260.543C181.305 260.211 180.84 260.045 180.215 260.045C179.674 260.045 179.232 260.182 178.887 260.455C178.542 260.722 178.369 261.064 178.369 261.48H175.996C175.996 260.901 176.188 260.361 176.572 259.859C176.956 259.352 177.477 258.954 178.135 258.668C178.799 258.382 179.538 258.238 180.352 258.238C181.589 258.238 182.575 258.551 183.311 259.176C184.046 259.794 184.424 260.667 184.443 261.793V266.559C184.443 267.509 184.577 268.268 184.844 268.834V269H182.422ZM179.814 267.291C180.283 267.291 180.723 267.177 181.133 266.949C181.549 266.721 181.862 266.415 182.07 266.031V264.039H180.791C179.912 264.039 179.251 264.192 178.809 264.498C178.366 264.804 178.145 265.237 178.145 265.797C178.145 266.253 178.294 266.617 178.594 266.891C178.9 267.158 179.307 267.291 179.814 267.291ZM196.201 263.824C196.201 265.465 195.833 266.77 195.098 267.74C194.368 268.71 193.363 269.195 192.08 269.195C190.843 269.195 189.88 268.749 189.189 267.857L189.072 269H186.924V254H189.297V259.449C189.98 258.642 190.902 258.238 192.061 258.238C193.35 258.238 194.362 258.717 195.098 259.674C195.833 260.631 196.201 261.969 196.201 263.688V263.824ZM193.828 263.619C193.828 262.473 193.626 261.614 193.223 261.041C192.819 260.468 192.233 260.182 191.465 260.182C190.436 260.182 189.714 260.631 189.297 261.529V265.885C189.72 266.803 190.449 267.262 191.484 267.262C192.227 267.262 192.799 266.985 193.203 266.432C193.607 265.878 193.815 265.042 193.828 263.922V263.619ZM200.723 269H198.35V258.434H200.723V269ZM198.203 255.689C198.203 255.325 198.317 255.022 198.545 254.781C198.779 254.54 199.111 254.42 199.541 254.42C199.971 254.42 200.303 254.54 200.537 254.781C200.771 255.022 200.889 255.325 200.889 255.689C200.889 256.048 200.771 256.347 200.537 256.588C200.303 256.822 199.971 256.939 199.541 256.939C199.111 256.939 198.779 256.822 198.545 256.588C198.317 256.347 198.203 256.048 198.203 255.689ZM205.84 269H203.467V254H205.84V269ZM210.957 269H208.584V258.434H210.957V269ZM208.438 255.689C208.438 255.325 208.551 255.022 208.779 254.781C209.014 254.54 209.346 254.42 209.775 254.42C210.205 254.42 210.537 254.54 210.771 254.781C211.006 255.022 211.123 255.325 211.123 255.689C211.123 256.048 211.006 256.347 210.771 256.588C210.537 256.822 210.205 256.939 209.775 256.939C209.346 256.939 209.014 256.822 208.779 256.588C208.551 256.347 208.438 256.048 208.438 255.689ZM216.523 255.865V258.434H218.389V260.191H216.523V266.09C216.523 266.493 216.602 266.786 216.758 266.969C216.921 267.145 217.207 267.232 217.617 267.232C217.891 267.232 218.167 267.2 218.447 267.135V268.971C217.907 269.12 217.386 269.195 216.885 269.195C215.062 269.195 214.15 268.189 214.15 266.178V260.191H212.412V258.434H214.15V255.865H216.523ZM223.906 265.602L226.055 258.434H228.584L224.385 270.602C223.74 272.379 222.646 273.268 221.104 273.268C220.758 273.268 220.378 273.209 219.961 273.092V271.256L220.41 271.285C221.009 271.285 221.458 271.174 221.758 270.953C222.064 270.738 222.305 270.374 222.48 269.859L222.822 268.951L219.111 258.434H221.67L223.906 265.602Z" fill="black"/>
<path d="M296.536 56C298.076 53.3333 301.924 53.3333 303.464 56L404.789 231.5C406.329 234.167 404.404 237.5 401.325 237.5H198.675C195.596 237.5 193.671 234.167 195.211 231.5L296.536 56Z" fill="#FFD74B"/>
<g clip-path="url(#clip0_619:228)">
<path fill-rule="evenodd" clip-rule="evenodd" d="M299.862 131C314.779 140.455 328.255 144.929 339.82 143.871C341.84 184.724 326.753 208.851 300.017 218.92C274.198 209.495 258.927 186.407 260.06 143.251C273.636 143.962 286.956 141.027 299.862 131ZM300.184 144.983C310.357 151.43 319.546 154.48 327.433 153.761C328.81 181.619 318.522 198.071 300.29 204.937C300.175 204.895 300.062 204.851 299.948 204.808V145.164L300.184 144.983ZM299.878 136.048C313.082 144.417 325.011 148.377 335.248 147.441C337.035 183.602 323.681 204.959 300.016 213.871C277.162 205.529 263.643 185.093 264.646 146.892C276.664 147.521 288.454 144.923 299.878 136.048Z" fill="#4267B2"/>
</g>
<defs>
<clipPath id="clip0_619:228">
<rect width="80" height="87.9198" fill="white" transform="translate(260 131)"/>
</clipPath>
</defs>
</svg>
