<svg width="600" height="600" viewBox="0 0 600 600" fill="none" xmlns="http://www.w3.org/2000/svg">
<rect width="600" height="600" fill="white"/>
<rect x="249.5" y="115.5" width="99" height="99" rx="3.5" fill="white" stroke="black"/>
<path d="M263.193 166.219C263.193 164.715 263.395 163.289 263.799 161.941C264.202 160.587 264.795 159.38 265.576 158.318C266.357 157.251 267.184 156.502 268.057 156.072L268.525 157.459C267.607 158.156 266.862 159.22 266.289 160.652C265.723 162.078 265.413 163.712 265.361 165.555L265.352 166.395C265.352 168.367 265.628 170.128 266.182 171.678C266.742 173.221 267.523 174.396 268.525 175.203L268.057 176.521C267.184 176.092 266.354 175.34 265.566 174.266C264.785 173.198 264.193 171.993 263.789 170.652C263.392 169.305 263.193 167.827 263.193 166.219ZM272.832 166.717V172H270.361V157.781H275.801C277.389 157.781 278.649 158.195 279.58 159.021C280.518 159.848 280.986 160.942 280.986 162.303C280.986 163.696 280.527 164.78 279.609 165.555C278.698 166.329 277.419 166.717 275.771 166.717H272.832ZM272.832 164.734H275.801C276.68 164.734 277.35 164.529 277.812 164.119C278.275 163.702 278.506 163.104 278.506 162.322C278.506 161.554 278.271 160.942 277.803 160.486C277.334 160.024 276.689 159.786 275.869 159.773H272.832V164.734ZM283.154 172V157.781H288.027C289.635 157.781 290.859 158.104 291.699 158.748C292.539 159.393 292.959 160.353 292.959 161.629C292.959 162.28 292.783 162.866 292.432 163.387C292.08 163.908 291.566 164.311 290.889 164.598C291.657 164.806 292.249 165.2 292.666 165.779C293.089 166.352 293.301 167.042 293.301 167.85C293.301 169.184 292.871 170.21 292.012 170.926C291.159 171.642 289.935 172 288.34 172H283.154ZM285.625 165.584V170.027H288.369C289.144 170.027 289.749 169.835 290.186 169.451C290.622 169.067 290.84 168.533 290.84 167.85C290.84 166.372 290.085 165.617 288.574 165.584H285.625ZM285.625 163.768H288.047C288.815 163.768 289.414 163.595 289.844 163.25C290.28 162.898 290.498 162.404 290.498 161.766C290.498 161.062 290.296 160.555 289.893 160.242C289.495 159.93 288.874 159.773 288.027 159.773H285.625V163.768ZM300.117 166.375C300.117 167.82 299.919 169.217 299.521 170.564C299.124 171.906 298.522 173.126 297.715 174.227C296.908 175.333 296.064 176.098 295.186 176.521L294.717 175.203C295.693 174.448 296.465 173.296 297.031 171.746C297.604 170.19 297.891 168.416 297.891 166.424V166.199C297.891 164.389 297.643 162.742 297.148 161.258C296.654 159.767 295.944 158.572 295.02 157.674L294.717 157.4L295.186 156.072C296.019 156.476 296.826 157.192 297.607 158.221C298.389 159.249 298.988 160.402 299.404 161.678C299.821 162.947 300.055 164.259 300.107 165.613L300.117 166.375ZM306.904 165.857L305.293 167.566V172H302.822V157.781H305.293V164.451L306.66 162.762L310.82 157.781H313.809L308.525 164.08L314.111 172H311.182L306.904 165.857ZM315.439 172V157.781H319.639C320.895 157.781 322.008 158.061 322.979 158.621C323.955 159.181 324.71 159.975 325.244 161.004C325.778 162.033 326.045 163.211 326.045 164.539V165.252C326.045 166.6 325.775 167.785 325.234 168.807C324.701 169.829 323.936 170.617 322.939 171.17C321.95 171.723 320.814 172 319.531 172H315.439ZM317.91 159.773V170.027H319.521C320.817 170.027 321.81 169.624 322.5 168.816C323.197 168.003 323.551 166.837 323.564 165.32V164.529C323.564 162.986 323.229 161.808 322.559 160.994C321.888 160.18 320.915 159.773 319.639 159.773H317.91ZM336.699 165.975H330.977V172H328.506V157.781H337.539V159.773H330.977V164.002H336.699V165.975Z" fill="black"/>
<path d="M271.744 231.66H266.383L265.179 235H263.438L268.325 222.203H269.802L274.697 235H272.966L271.744 231.66ZM266.893 230.271H271.243L269.063 224.286L266.893 230.271ZM280.762 226.949C280.516 226.908 280.249 226.888 279.962 226.888C278.896 226.888 278.172 227.342 277.791 228.25V235H276.165V225.49H277.747L277.773 226.589C278.307 225.739 279.062 225.314 280.041 225.314C280.357 225.314 280.598 225.355 280.762 225.438V226.949ZM281.702 230.166C281.702 228.684 282.045 227.506 282.73 226.633C283.416 225.754 284.324 225.314 285.455 225.314C286.615 225.314 287.521 225.725 288.171 226.545L288.25 225.49H289.735V234.771C289.735 236.002 289.369 236.972 288.637 237.681C287.91 238.39 286.932 238.744 285.701 238.744C285.016 238.744 284.345 238.598 283.688 238.305C283.032 238.012 282.531 237.61 282.186 237.101L283.029 236.125C283.727 236.986 284.579 237.417 285.587 237.417C286.378 237.417 286.993 237.194 287.433 236.749C287.878 236.304 288.101 235.677 288.101 234.868V234.051C287.45 234.801 286.562 235.176 285.438 235.176C284.324 235.176 283.422 234.728 282.73 233.831C282.045 232.935 281.702 231.713 281.702 230.166ZM283.337 230.351C283.337 231.423 283.557 232.267 283.996 232.882C284.436 233.491 285.051 233.796 285.842 233.796C286.867 233.796 287.62 233.33 288.101 232.398V228.057C287.603 227.148 286.855 226.694 285.859 226.694C285.068 226.694 284.45 227.002 284.005 227.617C283.56 228.232 283.337 229.144 283.337 230.351ZM291.766 230.157C291.766 229.226 291.947 228.388 292.311 227.644C292.68 226.899 293.189 226.325 293.84 225.921C294.496 225.517 295.243 225.314 296.081 225.314C297.376 225.314 298.422 225.763 299.219 226.659C300.021 227.556 300.423 228.748 300.423 230.236V230.351C300.423 231.276 300.244 232.108 299.887 232.847C299.535 233.579 299.028 234.15 298.366 234.561C297.71 234.971 296.954 235.176 296.099 235.176C294.81 235.176 293.764 234.728 292.961 233.831C292.164 232.935 291.766 231.748 291.766 230.271V230.157ZM293.4 230.351C293.4 231.405 293.644 232.252 294.13 232.891C294.622 233.529 295.278 233.849 296.099 233.849C296.925 233.849 297.581 233.526 298.067 232.882C298.554 232.231 298.797 231.323 298.797 230.157C298.797 229.114 298.548 228.271 298.05 227.626C297.558 226.976 296.901 226.65 296.081 226.65C295.278 226.65 294.631 226.97 294.139 227.608C293.646 228.247 293.4 229.161 293.4 230.351ZM304 225.49L304.053 226.686C304.779 225.771 305.729 225.314 306.9 225.314C308.91 225.314 309.924 226.448 309.941 228.716V235H308.315V228.707C308.31 228.021 308.151 227.515 307.841 227.187C307.536 226.858 307.059 226.694 306.408 226.694C305.881 226.694 305.418 226.835 305.02 227.116C304.621 227.397 304.311 227.767 304.088 228.224V235H302.462V225.49H304ZM320.611 235H312.227V233.831L316.656 228.909C317.312 228.165 317.764 227.562 318.01 227.099C318.262 226.63 318.388 226.146 318.388 225.648C318.388 224.98 318.186 224.433 317.781 224.005C317.377 223.577 316.838 223.363 316.164 223.363C315.355 223.363 314.726 223.595 314.274 224.058C313.829 224.515 313.606 225.153 313.606 225.974H311.98C311.98 224.796 312.358 223.844 313.114 223.117C313.876 222.391 314.893 222.027 316.164 222.027C317.354 222.027 318.294 222.341 318.985 222.968C319.677 223.589 320.022 224.418 320.022 225.455C320.022 226.715 319.22 228.215 317.614 229.955L314.187 233.673H320.611V235ZM324.268 235H322.642V225.49H324.268V235ZM322.51 222.968C322.51 222.704 322.589 222.481 322.747 222.3C322.911 222.118 323.151 222.027 323.468 222.027C323.784 222.027 324.024 222.118 324.188 222.3C324.353 222.481 324.435 222.704 324.435 222.968C324.435 223.231 324.353 223.451 324.188 223.627C324.024 223.803 323.784 223.891 323.468 223.891C323.151 223.891 322.911 223.803 322.747 223.627C322.589 223.451 322.51 223.231 322.51 222.968ZM326.482 230.166C326.482 228.707 326.828 227.535 327.52 226.65C328.211 225.76 329.116 225.314 330.235 225.314C331.349 225.314 332.23 225.695 332.881 226.457V221.5H334.507V235H333.013L332.934 233.98C332.283 234.777 331.378 235.176 330.218 235.176C329.116 235.176 328.217 234.725 327.52 233.822C326.828 232.92 326.482 231.742 326.482 230.289V230.166ZM328.108 230.351C328.108 231.429 328.331 232.272 328.776 232.882C329.222 233.491 329.837 233.796 330.622 233.796C331.653 233.796 332.406 233.333 332.881 232.407V228.039C332.395 227.143 331.647 226.694 330.64 226.694C329.843 226.694 329.222 227.002 328.776 227.617C328.331 228.232 328.108 229.144 328.108 230.351Z" fill="black"/>
<path d="M256.109 287.203H257.753L261.945 297.636L266.129 287.203H267.781L262.578 300H261.295L256.109 287.203ZM255.573 287.203H257.023L257.261 295.008V300H255.573V287.203ZM266.858 287.203H268.309V300H266.621V295.008L266.858 287.203ZM276.649 298.374V293.479C276.649 293.104 276.573 292.778 276.421 292.503C276.274 292.222 276.052 292.005 275.753 291.853C275.454 291.7 275.085 291.624 274.646 291.624C274.235 291.624 273.875 291.694 273.564 291.835C273.26 291.976 273.02 292.16 272.844 292.389C272.674 292.617 272.589 292.863 272.589 293.127H270.963C270.963 292.787 271.051 292.45 271.227 292.116C271.402 291.782 271.654 291.48 271.982 291.211C272.316 290.936 272.715 290.719 273.178 290.561C273.646 290.396 274.168 290.314 274.742 290.314C275.434 290.314 276.043 290.432 276.57 290.666C277.104 290.9 277.52 291.255 277.818 291.729C278.123 292.198 278.275 292.787 278.275 293.496V297.926C278.275 298.242 278.302 298.579 278.354 298.937C278.413 299.294 278.498 299.602 278.609 299.859V300H276.913C276.831 299.812 276.767 299.563 276.72 299.253C276.673 298.937 276.649 298.644 276.649 298.374ZM276.931 294.234L276.948 295.377H275.305C274.842 295.377 274.429 295.415 274.065 295.491C273.702 295.562 273.397 295.67 273.151 295.816C272.905 295.963 272.718 296.147 272.589 296.37C272.46 296.587 272.396 296.842 272.396 297.135C272.396 297.434 272.463 297.706 272.598 297.952C272.732 298.198 272.935 298.395 273.204 298.541C273.479 298.682 273.816 298.752 274.215 298.752C274.713 298.752 275.152 298.646 275.533 298.436C275.914 298.225 276.216 297.967 276.438 297.662C276.667 297.357 276.79 297.062 276.808 296.774L277.502 297.557C277.461 297.803 277.35 298.075 277.168 298.374C276.986 298.673 276.743 298.96 276.438 299.235C276.14 299.505 275.782 299.73 275.366 299.912C274.956 300.088 274.493 300.176 273.978 300.176C273.333 300.176 272.768 300.05 272.281 299.798C271.801 299.546 271.426 299.209 271.156 298.787C270.893 298.359 270.761 297.882 270.761 297.354C270.761 296.845 270.86 296.396 271.06 296.01C271.259 295.617 271.546 295.292 271.921 295.034C272.296 294.771 272.747 294.571 273.274 294.437C273.802 294.302 274.391 294.234 275.041 294.234H276.931ZM286.37 297.478C286.37 297.243 286.317 297.026 286.212 296.827C286.112 296.622 285.904 296.438 285.588 296.273C285.277 296.104 284.809 295.957 284.182 295.834C283.654 295.723 283.177 295.591 282.749 295.438C282.327 295.286 281.967 295.102 281.668 294.885C281.375 294.668 281.149 294.413 280.991 294.12C280.833 293.827 280.754 293.484 280.754 293.092C280.754 292.717 280.836 292.362 281 292.028C281.17 291.694 281.407 291.398 281.712 291.141C282.022 290.883 282.395 290.681 282.828 290.534C283.262 290.388 283.745 290.314 284.278 290.314C285.04 290.314 285.69 290.449 286.229 290.719C286.769 290.988 287.182 291.349 287.469 291.8C287.756 292.245 287.899 292.74 287.899 293.285H286.273C286.273 293.021 286.194 292.767 286.036 292.521C285.884 292.269 285.658 292.061 285.359 291.896C285.066 291.732 284.706 291.65 284.278 291.65C283.827 291.65 283.461 291.721 283.18 291.861C282.904 291.996 282.702 292.169 282.573 292.38C282.45 292.591 282.389 292.813 282.389 293.048C282.389 293.224 282.418 293.382 282.477 293.522C282.541 293.657 282.652 293.783 282.811 293.9C282.969 294.012 283.191 294.117 283.479 294.217C283.766 294.316 284.132 294.416 284.577 294.516C285.356 294.691 285.998 294.902 286.502 295.148C287.006 295.395 287.381 295.696 287.627 296.054C287.873 296.411 287.996 296.845 287.996 297.354C287.996 297.771 287.908 298.151 287.732 298.497C287.562 298.843 287.313 299.142 286.985 299.394C286.663 299.64 286.276 299.833 285.825 299.974C285.38 300.108 284.879 300.176 284.322 300.176C283.484 300.176 282.775 300.026 282.195 299.728C281.615 299.429 281.176 299.042 280.877 298.567C280.578 298.093 280.429 297.592 280.429 297.064H282.063C282.087 297.51 282.216 297.864 282.45 298.128C282.685 298.386 282.972 298.57 283.312 298.682C283.651 298.787 283.988 298.84 284.322 298.84C284.768 298.84 285.14 298.781 285.438 298.664C285.743 298.547 285.975 298.386 286.133 298.181C286.291 297.976 286.37 297.741 286.37 297.478ZM294.113 290.49V291.738H288.972V290.49H294.113ZM290.712 288.179H292.338V297.645C292.338 297.967 292.388 298.21 292.487 298.374C292.587 298.538 292.716 298.646 292.874 298.699C293.032 298.752 293.202 298.778 293.384 298.778C293.519 298.778 293.659 298.767 293.806 298.743C293.958 298.714 294.072 298.69 294.148 298.673L294.157 300C294.028 300.041 293.858 300.079 293.647 300.114C293.442 300.155 293.193 300.176 292.9 300.176C292.502 300.176 292.136 300.097 291.802 299.938C291.468 299.78 291.201 299.517 291.002 299.147C290.809 298.772 290.712 298.269 290.712 297.636V288.179ZM299.967 300.176C299.305 300.176 298.704 300.064 298.165 299.842C297.632 299.613 297.172 299.294 296.785 298.884C296.404 298.474 296.111 297.987 295.906 297.425C295.701 296.862 295.599 296.247 295.599 295.579V295.21C295.599 294.437 295.713 293.748 295.941 293.145C296.17 292.535 296.48 292.02 296.873 291.598C297.266 291.176 297.711 290.856 298.209 290.64C298.707 290.423 299.223 290.314 299.756 290.314C300.436 290.314 301.021 290.432 301.514 290.666C302.012 290.9 302.419 291.229 302.735 291.65C303.052 292.066 303.286 292.559 303.438 293.127C303.591 293.689 303.667 294.305 303.667 294.973V295.702H296.565V294.375H302.041V294.252C302.018 293.83 301.93 293.42 301.777 293.021C301.631 292.623 301.396 292.295 301.074 292.037C300.752 291.779 300.312 291.65 299.756 291.65C299.387 291.65 299.047 291.729 298.736 291.888C298.426 292.04 298.159 292.269 297.937 292.573C297.714 292.878 297.541 293.25 297.418 293.689C297.295 294.129 297.233 294.636 297.233 295.21V295.579C297.233 296.03 297.295 296.455 297.418 296.854C297.547 297.246 297.731 297.592 297.972 297.891C298.218 298.189 298.514 298.424 298.859 298.594C299.211 298.764 299.609 298.849 300.055 298.849C300.629 298.849 301.115 298.731 301.514 298.497C301.912 298.263 302.261 297.949 302.56 297.557L303.544 298.339C303.339 298.649 303.078 298.945 302.762 299.227C302.445 299.508 302.056 299.736 301.593 299.912C301.136 300.088 300.594 300.176 299.967 300.176ZM307.191 291.984V300H305.565V290.49H307.147L307.191 291.984ZM310.162 290.438L310.153 291.949C310.019 291.92 309.89 291.902 309.767 291.896C309.649 291.885 309.515 291.879 309.362 291.879C308.987 291.879 308.656 291.938 308.369 292.055C308.082 292.172 307.839 292.336 307.64 292.547C307.44 292.758 307.282 293.01 307.165 293.303C307.054 293.59 306.98 293.906 306.945 294.252L306.488 294.516C306.488 293.941 306.544 293.402 306.655 292.898C306.772 292.395 306.951 291.949 307.191 291.562C307.432 291.17 307.736 290.865 308.105 290.648C308.48 290.426 308.926 290.314 309.441 290.314C309.559 290.314 309.693 290.329 309.846 290.358C309.998 290.382 310.104 290.408 310.162 290.438ZM318.072 287.203V300H316.376V287.203H318.072ZM325.798 287.203L320.48 293.171L317.492 296.273L317.211 294.463L319.461 291.984L323.759 287.203H325.798ZM324.163 300L319.426 293.76L320.437 292.415L326.185 300H324.163ZM331.15 300.176C330.488 300.176 329.888 300.064 329.349 299.842C328.815 299.613 328.355 299.294 327.969 298.884C327.588 298.474 327.295 297.987 327.09 297.425C326.885 296.862 326.782 296.247 326.782 295.579V295.21C326.782 294.437 326.896 293.748 327.125 293.145C327.354 292.535 327.664 292.02 328.057 291.598C328.449 291.176 328.895 290.856 329.393 290.64C329.891 290.423 330.406 290.314 330.939 290.314C331.619 290.314 332.205 290.432 332.697 290.666C333.195 290.9 333.603 291.229 333.919 291.65C334.235 292.066 334.47 292.559 334.622 293.127C334.774 293.689 334.851 294.305 334.851 294.973V295.702H327.749V294.375H333.225V294.252C333.201 293.83 333.113 293.42 332.961 293.021C332.814 292.623 332.58 292.295 332.258 292.037C331.936 291.779 331.496 291.65 330.939 291.65C330.57 291.65 330.23 291.729 329.92 291.888C329.609 292.04 329.343 292.269 329.12 292.573C328.897 292.878 328.725 293.25 328.602 293.689C328.479 294.129 328.417 294.636 328.417 295.21V295.579C328.417 296.03 328.479 296.455 328.602 296.854C328.73 297.246 328.915 297.592 329.155 297.891C329.401 298.189 329.697 298.424 330.043 298.594C330.395 298.764 330.793 298.849 331.238 298.849C331.812 298.849 332.299 298.731 332.697 298.497C333.096 298.263 333.444 297.949 333.743 297.557L334.728 298.339C334.522 298.649 334.262 298.945 333.945 299.227C333.629 299.508 333.239 299.736 332.776 299.912C332.319 300.088 331.777 300.176 331.15 300.176ZM339.298 299.016L341.943 290.49H343.684L339.869 301.468C339.781 301.702 339.664 301.954 339.518 302.224C339.377 302.499 339.195 302.76 338.973 303.006C338.75 303.252 338.48 303.451 338.164 303.604C337.854 303.762 337.481 303.841 337.048 303.841C336.919 303.841 336.755 303.823 336.556 303.788C336.356 303.753 336.216 303.724 336.134 303.7L336.125 302.382C336.172 302.388 336.245 302.394 336.345 302.399C336.45 302.411 336.523 302.417 336.564 302.417C336.934 302.417 337.247 302.367 337.505 302.268C337.763 302.174 337.979 302.013 338.155 301.784C338.337 301.562 338.492 301.254 338.621 300.861L339.298 299.016ZM337.355 290.49L339.825 297.873L340.247 299.587L339.078 300.185L335.58 290.49H337.355Z" fill="black"/>
<path d="M253.91 36.6201H259.975V38H252.214V25.2031H253.91V36.6201ZM261.214 33.1572C261.214 32.2256 261.396 31.3877 261.759 30.6436C262.128 29.8994 262.638 29.3252 263.288 28.9209C263.944 28.5166 264.691 28.3145 265.529 28.3145C266.824 28.3145 267.87 28.7627 268.667 29.6592C269.47 30.5557 269.871 31.748 269.871 33.2363V33.3506C269.871 34.2764 269.692 35.1084 269.335 35.8467C268.983 36.5791 268.477 37.1504 267.814 37.5605C267.158 37.9707 266.402 38.1758 265.547 38.1758C264.258 38.1758 263.212 37.7275 262.409 36.8311C261.612 35.9346 261.214 34.748 261.214 33.2715V33.1572ZM262.849 33.3506C262.849 34.4053 263.092 35.252 263.578 35.8906C264.07 36.5293 264.727 36.8486 265.547 36.8486C266.373 36.8486 267.029 36.5264 267.516 35.8818C268.002 35.2314 268.245 34.3232 268.245 33.1572C268.245 32.1143 267.996 31.2705 267.498 30.626C267.006 29.9756 266.35 29.6504 265.529 29.6504C264.727 29.6504 264.079 29.9697 263.587 30.6084C263.095 31.2471 262.849 32.1611 262.849 33.3506ZM280.33 35.7588L282.158 28.4902H283.784L281.016 38H279.697L277.386 30.793L275.136 38H273.817L271.058 28.4902H272.675L274.547 35.6094L276.762 28.4902H278.071L280.33 35.7588ZM288.829 33.2275H284.54V31.9004H288.829V33.2275ZM294.366 38.1758C293.077 38.1758 292.028 37.7539 291.22 36.9102C290.411 36.0605 290.007 34.9268 290.007 33.5088V33.21C290.007 32.2666 290.186 31.4258 290.543 30.6875C290.906 29.9434 291.41 29.3633 292.055 28.9473C292.705 28.5254 293.408 28.3145 294.164 28.3145C295.4 28.3145 296.361 28.7217 297.047 29.5361C297.732 30.3506 298.075 31.5166 298.075 33.0342V33.7109H291.633C291.656 34.6484 291.929 35.4072 292.45 35.9873C292.978 36.5615 293.646 36.8486 294.454 36.8486C295.028 36.8486 295.515 36.7314 295.913 36.4971C296.312 36.2627 296.66 35.9521 296.959 35.5654L297.952 36.3389C297.155 37.5635 295.96 38.1758 294.366 38.1758ZM294.164 29.6504C293.508 29.6504 292.957 29.8906 292.512 30.3711C292.066 30.8457 291.791 31.5137 291.686 32.375H296.449V32.252C296.402 31.4258 296.18 30.7871 295.781 30.3359C295.383 29.8789 294.844 29.6504 294.164 29.6504ZM301.503 28.4902L301.556 29.6855C302.282 28.7715 303.231 28.3145 304.403 28.3145C306.413 28.3145 307.427 29.4482 307.444 31.7158V38H305.818V31.707C305.812 31.0215 305.654 30.5146 305.344 30.1865C305.039 29.8584 304.562 29.6943 303.911 29.6943C303.384 29.6943 302.921 29.835 302.522 30.1162C302.124 30.3975 301.813 30.7666 301.591 31.2236V38H299.965V28.4902H301.503ZM312.103 26.1875V28.4902H313.878V29.7471H312.103V35.6445C312.103 36.0254 312.182 36.3125 312.34 36.5059C312.498 36.6934 312.768 36.7871 313.148 36.7871C313.336 36.7871 313.594 36.752 313.922 36.6816V38C313.494 38.1172 313.078 38.1758 312.674 38.1758C311.947 38.1758 311.399 37.9561 311.03 37.5166C310.661 37.0771 310.477 36.4531 310.477 35.6445V29.7471H308.745V28.4902H310.477V26.1875H312.103ZM320.382 29.9492C320.136 29.9082 319.869 29.8877 319.582 29.8877C318.516 29.8877 317.792 30.3418 317.411 31.25V38H315.785V28.4902H317.367L317.394 29.5889C317.927 28.7393 318.683 28.3145 319.661 28.3145C319.978 28.3145 320.218 28.3555 320.382 28.4375V29.9492ZM321.278 33.1572C321.278 32.2256 321.46 31.3877 321.823 30.6436C322.192 29.8994 322.702 29.3252 323.353 28.9209C324.009 28.5166 324.756 28.3145 325.594 28.3145C326.889 28.3145 327.935 28.7627 328.731 29.6592C329.534 30.5557 329.936 31.748 329.936 33.2363V33.3506C329.936 34.2764 329.757 35.1084 329.399 35.8467C329.048 36.5791 328.541 37.1504 327.879 37.5605C327.223 37.9707 326.467 38.1758 325.611 38.1758C324.322 38.1758 323.276 37.7275 322.474 36.8311C321.677 35.9346 321.278 34.748 321.278 33.2715V33.1572ZM322.913 33.3506C322.913 34.4053 323.156 35.252 323.643 35.8906C324.135 36.5293 324.791 36.8486 325.611 36.8486C326.438 36.8486 327.094 36.5264 327.58 35.8818C328.066 35.2314 328.31 34.3232 328.31 33.1572C328.31 32.1143 328.061 31.2705 327.562 30.626C327.07 29.9756 326.414 29.6504 325.594 29.6504C324.791 29.6504 324.144 29.9697 323.651 30.6084C323.159 31.2471 322.913 32.1611 322.913 33.3506ZM340.008 33.3506C340.008 34.7979 339.677 35.9639 339.015 36.8486C338.353 37.7334 337.456 38.1758 336.325 38.1758C335.171 38.1758 334.263 37.8096 333.601 37.0771V41.6562H331.975V28.4902H333.46L333.539 29.5449C334.201 28.7246 335.121 28.3145 336.299 28.3145C337.441 28.3145 338.344 28.7451 339.006 29.6064C339.674 30.4678 340.008 31.666 340.008 33.2012V33.3506ZM338.382 33.166C338.382 32.0938 338.153 31.2471 337.696 30.626C337.239 30.0049 336.612 29.6943 335.815 29.6943C334.831 29.6943 334.093 30.1309 333.601 31.0039V35.5479C334.087 36.415 334.831 36.8486 335.833 36.8486C336.612 36.8486 337.23 36.541 337.688 35.9258C338.15 35.3047 338.382 34.3848 338.382 33.166ZM345.088 35.6182L347.303 28.4902H349.043L345.22 39.4678C344.628 41.0498 343.688 41.8408 342.398 41.8408L342.091 41.8145L341.484 41.7002V40.3818L341.924 40.417C342.475 40.417 342.902 40.3057 343.207 40.083C343.518 39.8604 343.772 39.4531 343.972 38.8613L344.332 37.8945L340.939 28.4902H342.715L345.088 35.6182ZM262.84 54.3506C262.84 55.7979 262.509 56.9639 261.847 57.8486C261.185 58.7334 260.288 59.1758 259.157 59.1758C258.003 59.1758 257.095 58.8096 256.433 58.0771V62.6562H254.807V49.4902H256.292L256.371 50.5449C257.033 49.7246 257.953 49.3145 259.131 49.3145C260.273 49.3145 261.176 49.7451 261.838 50.6064C262.506 51.4678 262.84 52.666 262.84 54.2012V54.3506ZM261.214 54.166C261.214 53.0938 260.985 52.2471 260.528 51.626C260.071 51.0049 259.444 50.6943 258.647 50.6943C257.663 50.6943 256.925 51.1309 256.433 52.0039V56.5479C256.919 57.415 257.663 57.8486 258.665 57.8486C259.444 57.8486 260.062 57.541 260.52 56.9258C260.982 56.3047 261.214 55.3848 261.214 54.166ZM270.785 59C270.691 58.8125 270.615 58.4785 270.557 57.998C269.801 58.7832 268.898 59.1758 267.85 59.1758C266.912 59.1758 266.142 58.9121 265.538 58.3848C264.94 57.8516 264.642 57.1777 264.642 56.3633C264.642 55.373 265.017 54.6055 265.767 54.0605C266.522 53.5098 267.583 53.2344 268.948 53.2344H270.53V52.4873C270.53 51.9189 270.36 51.4678 270.021 51.1338C269.681 50.7939 269.18 50.624 268.518 50.624C267.938 50.624 267.451 50.7705 267.059 51.0635C266.666 51.3564 266.47 51.7109 266.47 52.127H264.835C264.835 51.6523 265.002 51.1953 265.336 50.7559C265.676 50.3105 266.133 49.959 266.707 49.7012C267.287 49.4434 267.923 49.3145 268.614 49.3145C269.71 49.3145 270.568 49.5898 271.189 50.1406C271.811 50.6855 272.133 51.4385 272.156 52.3994V56.7764C272.156 57.6494 272.268 58.3438 272.49 58.8594V59H270.785ZM268.087 57.7607C268.597 57.7607 269.08 57.6289 269.537 57.3652C269.994 57.1016 270.325 56.7588 270.53 56.3369V54.3857H269.256C267.264 54.3857 266.268 54.9688 266.268 56.1348C266.268 56.6445 266.438 57.043 266.777 57.3301C267.117 57.6172 267.554 57.7607 268.087 57.7607ZM280.242 56.4775C280.242 56.0381 280.075 55.6982 279.741 55.458C279.413 55.2119 278.836 55.001 278.01 54.8252C277.189 54.6494 276.536 54.4385 276.05 54.1924C275.569 53.9463 275.212 53.6533 274.978 53.3135C274.749 52.9736 274.635 52.5693 274.635 52.1006C274.635 51.3213 274.963 50.6621 275.619 50.123C276.281 49.584 277.125 49.3145 278.15 49.3145C279.229 49.3145 280.102 49.5928 280.77 50.1494C281.443 50.7061 281.78 51.418 281.78 52.2852H280.146C280.146 51.8398 279.955 51.4561 279.574 51.1338C279.199 50.8115 278.725 50.6504 278.15 50.6504C277.559 50.6504 277.096 50.7793 276.762 51.0371C276.428 51.2949 276.261 51.6318 276.261 52.0479C276.261 52.4404 276.416 52.7363 276.727 52.9355C277.037 53.1348 277.597 53.3252 278.405 53.5068C279.22 53.6885 279.879 53.9053 280.383 54.1572C280.887 54.4092 281.259 54.7139 281.499 55.0713C281.745 55.4229 281.868 55.8535 281.868 56.3633C281.868 57.2129 281.528 57.8955 280.849 58.4111C280.169 58.9209 279.287 59.1758 278.203 59.1758C277.441 59.1758 276.768 59.041 276.182 58.7715C275.596 58.502 275.136 58.127 274.802 57.6465C274.474 57.1602 274.31 56.6357 274.31 56.0732H275.936C275.965 56.6182 276.182 57.0518 276.586 57.374C276.996 57.6904 277.535 57.8486 278.203 57.8486C278.818 57.8486 279.311 57.7256 279.68 57.4795C280.055 57.2275 280.242 56.8936 280.242 56.4775ZM289.523 56.4775C289.523 56.0381 289.356 55.6982 289.022 55.458C288.694 55.2119 288.117 55.001 287.291 54.8252C286.471 54.6494 285.817 54.4385 285.331 54.1924C284.851 53.9463 284.493 53.6533 284.259 53.3135C284.03 52.9736 283.916 52.5693 283.916 52.1006C283.916 51.3213 284.244 50.6621 284.9 50.123C285.562 49.584 286.406 49.3145 287.432 49.3145C288.51 49.3145 289.383 49.5928 290.051 50.1494C290.725 50.7061 291.062 51.418 291.062 52.2852H289.427C289.427 51.8398 289.236 51.4561 288.855 51.1338C288.48 50.8115 288.006 50.6504 287.432 50.6504C286.84 50.6504 286.377 50.7793 286.043 51.0371C285.709 51.2949 285.542 51.6318 285.542 52.0479C285.542 52.4404 285.697 52.7363 286.008 52.9355C286.318 53.1348 286.878 53.3252 287.687 53.5068C288.501 53.6885 289.16 53.9053 289.664 54.1572C290.168 54.4092 290.54 54.7139 290.78 55.0713C291.026 55.4229 291.149 55.8535 291.149 56.3633C291.149 57.2129 290.81 57.8955 290.13 58.4111C289.45 58.9209 288.568 59.1758 287.484 59.1758C286.723 59.1758 286.049 59.041 285.463 58.7715C284.877 58.502 284.417 58.127 284.083 57.6465C283.755 57.1602 283.591 56.6357 283.591 56.0732H285.217C285.246 56.6182 285.463 57.0518 285.867 57.374C286.277 57.6904 286.816 57.8486 287.484 57.8486C288.1 57.8486 288.592 57.7256 288.961 57.4795C289.336 57.2275 289.523 56.8936 289.523 56.4775ZM301.301 54.3506C301.301 55.7979 300.97 56.9639 300.308 57.8486C299.646 58.7334 298.749 59.1758 297.618 59.1758C296.464 59.1758 295.556 58.8096 294.894 58.0771V62.6562H293.268V49.4902H294.753L294.832 50.5449C295.494 49.7246 296.414 49.3145 297.592 49.3145C298.734 49.3145 299.637 49.7451 300.299 50.6064C300.967 51.4678 301.301 52.666 301.301 54.2012V54.3506ZM299.675 54.166C299.675 53.0938 299.446 52.2471 298.989 51.626C298.532 51.0049 297.905 50.6943 297.108 50.6943C296.124 50.6943 295.386 51.1309 294.894 52.0039V56.5479C295.38 57.415 296.124 57.8486 297.126 57.8486C297.905 57.8486 298.523 57.541 298.98 56.9258C299.443 56.3047 299.675 55.3848 299.675 54.166ZM305.001 50.6416C305.722 49.7568 306.659 49.3145 307.813 49.3145C309.823 49.3145 310.837 50.4482 310.854 52.7158V59H309.229V52.707C309.223 52.0215 309.064 51.5146 308.754 51.1865C308.449 50.8584 307.972 50.6943 307.321 50.6943C306.794 50.6943 306.331 50.835 305.933 51.1162C305.534 51.3975 305.224 51.7666 305.001 52.2236V59H303.375V45.5H305.001V50.6416ZM317.886 50.9492C317.64 50.9082 317.373 50.8877 317.086 50.8877C316.02 50.8877 315.296 51.3418 314.915 52.25V59H313.289V49.4902H314.871L314.897 50.5889C315.431 49.7393 316.187 49.3145 317.165 49.3145C317.481 49.3145 317.722 49.3555 317.886 49.4375V50.9492ZM324.908 59C324.814 58.8125 324.738 58.4785 324.68 57.998C323.924 58.7832 323.021 59.1758 321.973 59.1758C321.035 59.1758 320.265 58.9121 319.661 58.3848C319.063 57.8516 318.765 57.1777 318.765 56.3633C318.765 55.373 319.14 54.6055 319.89 54.0605C320.646 53.5098 321.706 53.2344 323.071 53.2344H324.653V52.4873C324.653 51.9189 324.483 51.4678 324.144 51.1338C323.804 50.7939 323.303 50.624 322.641 50.624C322.061 50.624 321.574 50.7705 321.182 51.0635C320.789 51.3564 320.593 51.7109 320.593 52.127H318.958C318.958 51.6523 319.125 51.1953 319.459 50.7559C319.799 50.3105 320.256 49.959 320.83 49.7012C321.41 49.4434 322.046 49.3145 322.737 49.3145C323.833 49.3145 324.691 49.5898 325.312 50.1406C325.934 50.6855 326.256 51.4385 326.279 52.3994V56.7764C326.279 57.6494 326.391 58.3438 326.613 58.8594V59H324.908ZM322.21 57.7607C322.72 57.7607 323.203 57.6289 323.66 57.3652C324.117 57.1016 324.448 56.7588 324.653 56.3369V54.3857H323.379C321.387 54.3857 320.391 54.9688 320.391 56.1348C320.391 56.6445 320.561 57.043 320.9 57.3301C321.24 57.6172 321.677 57.7607 322.21 57.7607ZM334.365 56.4775C334.365 56.0381 334.198 55.6982 333.864 55.458C333.536 55.2119 332.959 55.001 332.133 54.8252C331.312 54.6494 330.659 54.4385 330.173 54.1924C329.692 53.9463 329.335 53.6533 329.101 53.3135C328.872 52.9736 328.758 52.5693 328.758 52.1006C328.758 51.3213 329.086 50.6621 329.742 50.123C330.404 49.584 331.248 49.3145 332.273 49.3145C333.352 49.3145 334.225 49.5928 334.893 50.1494C335.566 50.7061 335.903 51.418 335.903 52.2852H334.269C334.269 51.8398 334.078 51.4561 333.697 51.1338C333.322 50.8115 332.848 50.6504 332.273 50.6504C331.682 50.6504 331.219 50.7793 330.885 51.0371C330.551 51.2949 330.384 51.6318 330.384 52.0479C330.384 52.4404 330.539 52.7363 330.85 52.9355C331.16 53.1348 331.72 53.3252 332.528 53.5068C333.343 53.6885 334.002 53.9053 334.506 54.1572C335.01 54.4092 335.382 54.7139 335.622 55.0713C335.868 55.4229 335.991 55.8535 335.991 56.3633C335.991 57.2129 335.651 57.8955 334.972 58.4111C334.292 58.9209 333.41 59.1758 332.326 59.1758C331.564 59.1758 330.891 59.041 330.305 58.7715C329.719 58.502 329.259 58.127 328.925 57.6465C328.597 57.1602 328.433 56.6357 328.433 56.0732H330.059C330.088 56.6182 330.305 57.0518 330.709 57.374C331.119 57.6904 331.658 57.8486 332.326 57.8486C332.941 57.8486 333.434 57.7256 333.803 57.4795C334.178 57.2275 334.365 56.8936 334.365 56.4775ZM342.056 59.1758C340.767 59.1758 339.718 58.7539 338.909 57.9102C338.101 57.0605 337.696 55.9268 337.696 54.5088V54.21C337.696 53.2666 337.875 52.4258 338.232 51.6875C338.596 50.9434 339.1 50.3633 339.744 49.9473C340.395 49.5254 341.098 49.3145 341.854 49.3145C343.09 49.3145 344.051 49.7217 344.736 50.5361C345.422 51.3506 345.765 52.5166 345.765 54.0342V54.7109H339.322C339.346 55.6484 339.618 56.4072 340.14 56.9873C340.667 57.5615 341.335 57.8486 342.144 57.8486C342.718 57.8486 343.204 57.7314 343.603 57.4971C344.001 57.2627 344.35 56.9521 344.648 56.5654L345.642 57.3389C344.845 58.5635 343.649 59.1758 342.056 59.1758ZM341.854 50.6504C341.197 50.6504 340.646 50.8906 340.201 51.3711C339.756 51.8457 339.48 52.5137 339.375 53.375H344.139V53.252C344.092 52.4258 343.869 51.7871 343.471 51.3359C343.072 50.8789 342.533 50.6504 341.854 50.6504Z" fill="black"/>
<path d="M299.293 108.707C299.683 109.098 300.317 109.098 300.707 108.707L307.071 102.343C307.462 101.953 307.462 101.319 307.071 100.929C306.681 100.538 306.047 100.538 305.657 100.929L300 106.586L294.343 100.929C293.953 100.538 293.319 100.538 292.929 100.929C292.538 101.319 292.538 101.953 292.929 102.343L299.293 108.707ZM299 69V108H301V69H299Z" fill="black"/>
<path d="M299.293 281.707C299.683 282.098 300.317 282.098 300.707 281.707L307.071 275.343C307.462 274.953 307.462 274.319 307.071 273.929C306.681 273.538 306.047 273.538 305.657 273.929L300 279.586L294.343 273.929C293.953 273.538 293.319 273.538 292.929 273.929C292.538 274.319 292.538 274.953 292.929 275.343L299.293 281.707ZM299 242V281H301V242H299Z" fill="black"/>
<path d="M138.993 481.015H135.75L135.732 479.652H138.677C139.163 479.652 139.588 479.57 139.951 479.406C140.314 479.242 140.596 479.008 140.795 478.703C141 478.393 141.103 478.023 141.103 477.596C141.103 477.127 141.012 476.746 140.83 476.453C140.654 476.154 140.382 475.938 140.013 475.803C139.649 475.662 139.187 475.592 138.624 475.592H136.128V487H134.432V474.203H138.624C139.28 474.203 139.866 474.271 140.382 474.405C140.897 474.534 141.334 474.739 141.691 475.021C142.055 475.296 142.33 475.647 142.518 476.075C142.705 476.503 142.799 477.016 142.799 477.613C142.799 478.141 142.664 478.618 142.395 479.046C142.125 479.468 141.75 479.813 141.27 480.083C140.795 480.353 140.238 480.525 139.6 480.602L138.993 481.015ZM138.914 487H135.082L136.04 485.62H138.914C139.453 485.62 139.91 485.526 140.285 485.339C140.666 485.151 140.956 484.888 141.155 484.548C141.354 484.202 141.454 483.795 141.454 483.326C141.454 482.852 141.369 482.441 141.199 482.096C141.029 481.75 140.763 481.483 140.399 481.296C140.036 481.108 139.567 481.015 138.993 481.015H136.576L136.594 479.652H139.898L140.259 480.145C140.874 480.197 141.396 480.373 141.823 480.672C142.251 480.965 142.576 481.34 142.799 481.797C143.027 482.254 143.142 482.758 143.142 483.309C143.142 484.105 142.966 484.779 142.614 485.33C142.269 485.875 141.779 486.291 141.146 486.578C140.514 486.859 139.77 487 138.914 487ZM147.167 473.5V487H145.532V473.5H147.167ZM155.385 485.374V480.479C155.385 480.104 155.309 479.778 155.156 479.503C155.01 479.222 154.787 479.005 154.488 478.853C154.189 478.7 153.82 478.624 153.381 478.624C152.971 478.624 152.61 478.694 152.3 478.835C151.995 478.976 151.755 479.16 151.579 479.389C151.409 479.617 151.324 479.863 151.324 480.127H149.698C149.698 479.787 149.786 479.45 149.962 479.116C150.138 478.782 150.39 478.48 150.718 478.211C151.052 477.936 151.45 477.719 151.913 477.561C152.382 477.396 152.903 477.314 153.478 477.314C154.169 477.314 154.778 477.432 155.306 477.666C155.839 477.9 156.255 478.255 156.554 478.729C156.858 479.198 157.011 479.787 157.011 480.496V484.926C157.011 485.242 157.037 485.579 157.09 485.937C157.148 486.294 157.233 486.602 157.345 486.859V487H155.648C155.566 486.812 155.502 486.563 155.455 486.253C155.408 485.937 155.385 485.644 155.385 485.374ZM155.666 481.234L155.684 482.377H154.04C153.577 482.377 153.164 482.415 152.801 482.491C152.438 482.562 152.133 482.67 151.887 482.816C151.641 482.963 151.453 483.147 151.324 483.37C151.195 483.587 151.131 483.842 151.131 484.135C151.131 484.434 151.198 484.706 151.333 484.952C151.468 485.198 151.67 485.395 151.939 485.541C152.215 485.682 152.552 485.752 152.95 485.752C153.448 485.752 153.888 485.646 154.269 485.436C154.649 485.225 154.951 484.967 155.174 484.662C155.402 484.357 155.525 484.062 155.543 483.774L156.237 484.557C156.196 484.803 156.085 485.075 155.903 485.374C155.722 485.673 155.479 485.96 155.174 486.235C154.875 486.505 154.518 486.73 154.102 486.912C153.691 487.088 153.229 487.176 152.713 487.176C152.068 487.176 151.503 487.05 151.017 486.798C150.536 486.546 150.161 486.209 149.892 485.787C149.628 485.359 149.496 484.882 149.496 484.354C149.496 483.845 149.596 483.396 149.795 483.01C149.994 482.617 150.281 482.292 150.656 482.034C151.031 481.771 151.482 481.571 152.01 481.437C152.537 481.302 153.126 481.234 153.776 481.234H155.666ZM161.203 473.5V487H159.568V473.5H161.203ZM167.013 477.49L162.864 481.929L160.544 484.337L160.412 482.605L162.073 480.619L165.026 477.49H167.013ZM165.527 487L162.135 482.465L162.979 481.015L167.443 487H165.527ZM172.462 487.176C171.8 487.176 171.199 487.064 170.66 486.842C170.127 486.613 169.667 486.294 169.28 485.884C168.899 485.474 168.606 484.987 168.401 484.425C168.196 483.862 168.094 483.247 168.094 482.579V482.21C168.094 481.437 168.208 480.748 168.437 480.145C168.665 479.535 168.976 479.02 169.368 478.598C169.761 478.176 170.206 477.856 170.704 477.64C171.202 477.423 171.718 477.314 172.251 477.314C172.931 477.314 173.517 477.432 174.009 477.666C174.507 477.9 174.914 478.229 175.23 478.65C175.547 479.066 175.781 479.559 175.934 480.127C176.086 480.689 176.162 481.305 176.162 481.973V482.702H169.061V481.375H174.536V481.252C174.513 480.83 174.425 480.42 174.272 480.021C174.126 479.623 173.892 479.295 173.569 479.037C173.247 478.779 172.808 478.65 172.251 478.65C171.882 478.65 171.542 478.729 171.231 478.888C170.921 479.04 170.654 479.269 170.432 479.573C170.209 479.878 170.036 480.25 169.913 480.689C169.79 481.129 169.729 481.636 169.729 482.21V482.579C169.729 483.03 169.79 483.455 169.913 483.854C170.042 484.246 170.227 484.592 170.467 484.891C170.713 485.189 171.009 485.424 171.354 485.594C171.706 485.764 172.104 485.849 172.55 485.849C173.124 485.849 173.61 485.731 174.009 485.497C174.407 485.263 174.756 484.949 175.055 484.557L176.039 485.339C175.834 485.649 175.573 485.945 175.257 486.227C174.94 486.508 174.551 486.736 174.088 486.912C173.631 487.088 173.089 487.176 172.462 487.176ZM186.27 485.664V487H177.894V485.831L182.086 481.164C182.602 480.59 183 480.104 183.281 479.705C183.568 479.301 183.768 478.94 183.879 478.624C183.996 478.302 184.055 477.974 184.055 477.64C184.055 477.218 183.967 476.837 183.791 476.497C183.621 476.151 183.369 475.876 183.035 475.671C182.701 475.466 182.297 475.363 181.822 475.363C181.254 475.363 180.779 475.475 180.398 475.697C180.023 475.914 179.742 476.219 179.555 476.611C179.367 477.004 179.273 477.455 179.273 477.965H177.647C177.647 477.244 177.806 476.585 178.122 475.987C178.438 475.39 178.907 474.915 179.528 474.563C180.149 474.206 180.914 474.027 181.822 474.027C182.631 474.027 183.322 474.171 183.896 474.458C184.471 474.739 184.91 475.138 185.215 475.653C185.525 476.163 185.681 476.761 185.681 477.446C185.681 477.821 185.616 478.202 185.487 478.589C185.364 478.97 185.191 479.351 184.969 479.731C184.752 480.112 184.497 480.487 184.204 480.856C183.917 481.226 183.609 481.589 183.281 481.946L179.854 485.664H186.27ZM188.177 473.5H189.812V485.154L189.671 487H188.177V473.5ZM196.236 482.166V482.351C196.236 483.042 196.154 483.684 195.99 484.275C195.826 484.861 195.586 485.371 195.27 485.805C194.953 486.238 194.566 486.575 194.109 486.815C193.652 487.056 193.128 487.176 192.536 487.176C191.933 487.176 191.402 487.073 190.945 486.868C190.494 486.657 190.113 486.355 189.803 485.963C189.492 485.57 189.243 485.096 189.056 484.539C188.874 483.982 188.748 483.355 188.678 482.658V481.85C188.748 481.146 188.874 480.517 189.056 479.96C189.243 479.403 189.492 478.929 189.803 478.536C190.113 478.138 190.494 477.836 190.945 477.631C191.396 477.42 191.921 477.314 192.519 477.314C193.116 477.314 193.646 477.432 194.109 477.666C194.572 477.895 194.959 478.223 195.27 478.65C195.586 479.078 195.826 479.591 195.99 480.188C196.154 480.78 196.236 481.439 196.236 482.166ZM194.602 482.351V482.166C194.602 481.691 194.558 481.246 194.47 480.83C194.382 480.408 194.241 480.039 194.048 479.723C193.854 479.4 193.6 479.148 193.283 478.967C192.967 478.779 192.577 478.686 192.114 478.686C191.704 478.686 191.347 478.756 191.042 478.896C190.743 479.037 190.488 479.228 190.277 479.468C190.066 479.702 189.894 479.972 189.759 480.276C189.63 480.575 189.533 480.886 189.469 481.208V483.326C189.562 483.736 189.715 484.132 189.926 484.513C190.143 484.888 190.43 485.195 190.787 485.436C191.15 485.676 191.599 485.796 192.132 485.796C192.571 485.796 192.946 485.708 193.257 485.532C193.573 485.351 193.828 485.102 194.021 484.785C194.221 484.469 194.367 484.103 194.461 483.687C194.555 483.271 194.602 482.825 194.602 482.351Z" fill="black"/>
<path d="M135.794 552.337L131.558 564H129.826L134.704 551.203H135.82L135.794 552.337ZM139.345 564L135.1 552.337L135.073 551.203H136.189L141.085 564H139.345ZM139.125 559.263V560.651H131.936V559.263H139.125ZM148.266 561.803V554.49H149.9V564H148.345L148.266 561.803ZM148.573 559.799L149.25 559.781C149.25 560.414 149.183 561 149.048 561.539C148.919 562.072 148.708 562.535 148.415 562.928C148.122 563.32 147.738 563.628 147.264 563.851C146.789 564.067 146.212 564.176 145.532 564.176C145.069 564.176 144.645 564.108 144.258 563.974C143.877 563.839 143.549 563.631 143.273 563.35C142.998 563.068 142.784 562.702 142.632 562.251C142.485 561.8 142.412 561.258 142.412 560.625V554.49H144.038V560.643C144.038 561.07 144.085 561.425 144.179 561.706C144.278 561.981 144.41 562.201 144.574 562.365C144.744 562.523 144.932 562.635 145.137 562.699C145.348 562.764 145.564 562.796 145.787 562.796C146.479 562.796 147.026 562.664 147.431 562.4C147.835 562.131 148.125 561.771 148.301 561.319C148.482 560.862 148.573 560.355 148.573 559.799ZM156.36 554.49V555.738H151.219V554.49H156.36ZM152.959 552.179H154.585V561.645C154.585 561.967 154.635 562.21 154.734 562.374C154.834 562.538 154.963 562.646 155.121 562.699C155.279 562.752 155.449 562.778 155.631 562.778C155.766 562.778 155.906 562.767 156.053 562.743C156.205 562.714 156.319 562.69 156.396 562.673L156.404 564C156.275 564.041 156.105 564.079 155.895 564.114C155.689 564.155 155.44 564.176 155.147 564.176C154.749 564.176 154.383 564.097 154.049 563.938C153.715 563.78 153.448 563.517 153.249 563.147C153.056 562.772 152.959 562.269 152.959 561.636V552.179ZM159.894 550.5V564H158.268V550.5H159.894ZM159.507 558.885L158.83 558.858C158.836 558.208 158.933 557.607 159.12 557.057C159.308 556.5 159.571 556.017 159.911 555.606C160.251 555.196 160.655 554.88 161.124 554.657C161.599 554.429 162.123 554.314 162.697 554.314C163.166 554.314 163.588 554.379 163.963 554.508C164.338 554.631 164.657 554.83 164.921 555.105C165.19 555.381 165.396 555.738 165.536 556.178C165.677 556.611 165.747 557.142 165.747 557.769V564H164.112V557.751C164.112 557.253 164.039 556.854 163.893 556.556C163.746 556.251 163.532 556.031 163.251 555.896C162.97 555.756 162.624 555.686 162.214 555.686C161.81 555.686 161.44 555.771 161.106 555.94C160.778 556.11 160.494 556.345 160.254 556.644C160.02 556.942 159.835 557.285 159.7 557.672C159.571 558.053 159.507 558.457 159.507 558.885ZM174.589 551.203V564H172.893V551.203H174.589ZM182.314 551.203L176.997 557.171L174.009 560.273L173.728 558.463L175.978 555.984L180.275 551.203H182.314ZM180.68 564L175.942 557.76L176.953 556.415L182.701 564H180.68ZM187.667 564.176C187.005 564.176 186.404 564.064 185.865 563.842C185.332 563.613 184.872 563.294 184.485 562.884C184.104 562.474 183.812 561.987 183.606 561.425C183.401 560.862 183.299 560.247 183.299 559.579V559.21C183.299 558.437 183.413 557.748 183.642 557.145C183.87 556.535 184.181 556.02 184.573 555.598C184.966 555.176 185.411 554.856 185.909 554.64C186.407 554.423 186.923 554.314 187.456 554.314C188.136 554.314 188.722 554.432 189.214 554.666C189.712 554.9 190.119 555.229 190.436 555.65C190.752 556.066 190.986 556.559 191.139 557.127C191.291 557.689 191.367 558.305 191.367 558.973V559.702H184.266V558.375H189.741V558.252C189.718 557.83 189.63 557.42 189.478 557.021C189.331 556.623 189.097 556.295 188.774 556.037C188.452 555.779 188.013 555.65 187.456 555.65C187.087 555.65 186.747 555.729 186.437 555.888C186.126 556.04 185.859 556.269 185.637 556.573C185.414 556.878 185.241 557.25 185.118 557.689C184.995 558.129 184.934 558.636 184.934 559.21V559.579C184.934 560.03 184.995 560.455 185.118 560.854C185.247 561.246 185.432 561.592 185.672 561.891C185.918 562.189 186.214 562.424 186.56 562.594C186.911 562.764 187.31 562.849 187.755 562.849C188.329 562.849 188.815 562.731 189.214 562.497C189.612 562.263 189.961 561.949 190.26 561.557L191.244 562.339C191.039 562.649 190.778 562.945 190.462 563.227C190.146 563.508 189.756 563.736 189.293 563.912C188.836 564.088 188.294 564.176 187.667 564.176ZM195.814 563.016L198.46 554.49H200.2L196.386 565.468C196.298 565.702 196.181 565.954 196.034 566.224C195.894 566.499 195.712 566.76 195.489 567.006C195.267 567.252 194.997 567.451 194.681 567.604C194.37 567.762 193.998 567.841 193.564 567.841C193.436 567.841 193.271 567.823 193.072 567.788C192.873 567.753 192.732 567.724 192.65 567.7L192.642 566.382C192.688 566.388 192.762 566.394 192.861 566.399C192.967 566.411 193.04 566.417 193.081 566.417C193.45 566.417 193.764 566.367 194.021 566.268C194.279 566.174 194.496 566.013 194.672 565.784C194.854 565.562 195.009 565.254 195.138 564.861L195.814 563.016ZM193.872 554.49L196.342 561.873L196.764 563.587L195.595 564.185L192.097 554.49H193.872Z" fill="black"/>
<path d="M163.293 537.707C163.683 538.098 164.317 538.098 164.707 537.707L171.071 531.343C171.462 530.953 171.462 530.319 171.071 529.929C170.681 529.538 170.047 529.538 169.657 529.929L164 535.586L158.343 529.929C157.953 529.538 157.319 529.538 156.929 529.929C156.538 530.319 156.538 530.953 156.929 531.343L163.293 537.707ZM163 498V537H165V498H163Z" fill="black"/>
<rect x="115.5" y="363.5" width="99" height="99" rx="3.5" fill="white" stroke="black"/>
<rect x="115.5" y="363.5" width="99" height="99" rx="3.5" fill="white" stroke="black"/>
<path d="M152.188 413.857L150.576 415.566V420H148.105V405.781H150.576V412.451L151.943 410.762L156.104 405.781H159.092L153.809 412.08L159.395 420H156.465L152.188 413.857ZM160.723 420V405.781H164.922C166.178 405.781 167.292 406.061 168.262 406.621C169.238 407.181 169.993 407.975 170.527 409.004C171.061 410.033 171.328 411.211 171.328 412.539V413.252C171.328 414.6 171.058 415.785 170.518 416.807C169.984 417.829 169.219 418.617 168.223 419.17C167.233 419.723 166.097 420 164.814 420H160.723ZM163.193 407.773V418.027H164.805C166.1 418.027 167.093 417.624 167.783 416.816C168.48 416.003 168.835 414.837 168.848 413.32V412.529C168.848 410.986 168.512 409.808 167.842 408.994C167.171 408.18 166.198 407.773 164.922 407.773H163.193ZM181.982 413.975H176.26V420H173.789V405.781H182.822V407.773H176.26V412.002H181.982V413.975Z" fill="black"/>
<path d="M408.993 481.015H405.75L405.732 479.652H408.677C409.163 479.652 409.588 479.57 409.951 479.406C410.314 479.242 410.596 479.008 410.795 478.703C411 478.393 411.103 478.023 411.103 477.596C411.103 477.127 411.012 476.746 410.83 476.453C410.654 476.154 410.382 475.938 410.013 475.803C409.649 475.662 409.187 475.592 408.624 475.592H406.128V487H404.432V474.203H408.624C409.28 474.203 409.866 474.271 410.382 474.405C410.897 474.534 411.334 474.739 411.691 475.021C412.055 475.296 412.33 475.647 412.518 476.075C412.705 476.503 412.799 477.016 412.799 477.613C412.799 478.141 412.664 478.618 412.395 479.046C412.125 479.468 411.75 479.813 411.27 480.083C410.795 480.353 410.238 480.525 409.6 480.602L408.993 481.015ZM408.914 487H405.082L406.04 485.62H408.914C409.453 485.62 409.91 485.526 410.285 485.339C410.666 485.151 410.956 484.888 411.155 484.548C411.354 484.202 411.454 483.795 411.454 483.326C411.454 482.852 411.369 482.441 411.199 482.096C411.029 481.75 410.763 481.483 410.399 481.296C410.036 481.108 409.567 481.015 408.993 481.015H406.576L406.594 479.652H409.898L410.259 480.145C410.874 480.197 411.396 480.373 411.823 480.672C412.251 480.965 412.576 481.34 412.799 481.797C413.027 482.254 413.142 482.758 413.142 483.309C413.142 484.105 412.966 484.779 412.614 485.33C412.269 485.875 411.779 486.291 411.146 486.578C410.514 486.859 409.77 487 408.914 487ZM417.167 473.5V487H415.532V473.5H417.167ZM425.385 485.374V480.479C425.385 480.104 425.309 479.778 425.156 479.503C425.01 479.222 424.787 479.005 424.488 478.853C424.189 478.7 423.82 478.624 423.381 478.624C422.971 478.624 422.61 478.694 422.3 478.835C421.995 478.976 421.755 479.16 421.579 479.389C421.409 479.617 421.324 479.863 421.324 480.127H419.698C419.698 479.787 419.786 479.45 419.962 479.116C420.138 478.782 420.39 478.48 420.718 478.211C421.052 477.936 421.45 477.719 421.913 477.561C422.382 477.396 422.903 477.314 423.478 477.314C424.169 477.314 424.778 477.432 425.306 477.666C425.839 477.9 426.255 478.255 426.554 478.729C426.858 479.198 427.011 479.787 427.011 480.496V484.926C427.011 485.242 427.037 485.579 427.09 485.937C427.148 486.294 427.233 486.602 427.345 486.859V487H425.648C425.566 486.812 425.502 486.563 425.455 486.253C425.408 485.937 425.385 485.644 425.385 485.374ZM425.666 481.234L425.684 482.377H424.04C423.577 482.377 423.164 482.415 422.801 482.491C422.438 482.562 422.133 482.67 421.887 482.816C421.641 482.963 421.453 483.147 421.324 483.37C421.195 483.587 421.131 483.842 421.131 484.135C421.131 484.434 421.198 484.706 421.333 484.952C421.468 485.198 421.67 485.395 421.939 485.541C422.215 485.682 422.552 485.752 422.95 485.752C423.448 485.752 423.888 485.646 424.269 485.436C424.649 485.225 424.951 484.967 425.174 484.662C425.402 484.357 425.525 484.062 425.543 483.774L426.237 484.557C426.196 484.803 426.085 485.075 425.903 485.374C425.722 485.673 425.479 485.96 425.174 486.235C424.875 486.505 424.518 486.73 424.102 486.912C423.691 487.088 423.229 487.176 422.713 487.176C422.068 487.176 421.503 487.05 421.017 486.798C420.536 486.546 420.161 486.209 419.892 485.787C419.628 485.359 419.496 484.882 419.496 484.354C419.496 483.845 419.596 483.396 419.795 483.01C419.994 482.617 420.281 482.292 420.656 482.034C421.031 481.771 421.482 481.571 422.01 481.437C422.537 481.302 423.126 481.234 423.776 481.234H425.666ZM431.203 473.5V487H429.568V473.5H431.203ZM437.013 477.49L432.864 481.929L430.544 484.337L430.412 482.605L432.073 480.619L435.026 477.49H437.013ZM435.527 487L432.135 482.465L432.979 481.015L437.443 487H435.527ZM442.462 487.176C441.8 487.176 441.199 487.064 440.66 486.842C440.127 486.613 439.667 486.294 439.28 485.884C438.899 485.474 438.606 484.987 438.401 484.425C438.196 483.862 438.094 483.247 438.094 482.579V482.21C438.094 481.437 438.208 480.748 438.437 480.145C438.665 479.535 438.976 479.02 439.368 478.598C439.761 478.176 440.206 477.856 440.704 477.64C441.202 477.423 441.718 477.314 442.251 477.314C442.931 477.314 443.517 477.432 444.009 477.666C444.507 477.9 444.914 478.229 445.23 478.65C445.547 479.066 445.781 479.559 445.934 480.127C446.086 480.689 446.162 481.305 446.162 481.973V482.702H439.061V481.375H444.536V481.252C444.513 480.83 444.425 480.42 444.272 480.021C444.126 479.623 443.892 479.295 443.569 479.037C443.247 478.779 442.808 478.65 442.251 478.65C441.882 478.65 441.542 478.729 441.231 478.888C440.921 479.04 440.654 479.269 440.432 479.573C440.209 479.878 440.036 480.25 439.913 480.689C439.79 481.129 439.729 481.636 439.729 482.21V482.579C439.729 483.03 439.79 483.455 439.913 483.854C440.042 484.246 440.227 484.592 440.467 484.891C440.713 485.189 441.009 485.424 441.354 485.594C441.706 485.764 442.104 485.849 442.55 485.849C443.124 485.849 443.61 485.731 444.009 485.497C444.407 485.263 444.756 484.949 445.055 484.557L446.039 485.339C445.834 485.649 445.573 485.945 445.257 486.227C444.94 486.508 444.551 486.736 444.088 486.912C443.631 487.088 443.089 487.176 442.462 487.176ZM456.27 485.664V487H447.894V485.831L452.086 481.164C452.602 480.59 453 480.104 453.281 479.705C453.568 479.301 453.768 478.94 453.879 478.624C453.996 478.302 454.055 477.974 454.055 477.64C454.055 477.218 453.967 476.837 453.791 476.497C453.621 476.151 453.369 475.876 453.035 475.671C452.701 475.466 452.297 475.363 451.822 475.363C451.254 475.363 450.779 475.475 450.398 475.697C450.023 475.914 449.742 476.219 449.555 476.611C449.367 477.004 449.273 477.455 449.273 477.965H447.647C447.647 477.244 447.806 476.585 448.122 475.987C448.438 475.39 448.907 474.915 449.528 474.563C450.149 474.206 450.914 474.027 451.822 474.027C452.631 474.027 453.322 474.171 453.896 474.458C454.471 474.739 454.91 475.138 455.215 475.653C455.525 476.163 455.681 476.761 455.681 477.446C455.681 477.821 455.616 478.202 455.487 478.589C455.364 478.97 455.191 479.351 454.969 479.731C454.752 480.112 454.497 480.487 454.204 480.856C453.917 481.226 453.609 481.589 453.281 481.946L449.854 485.664H456.27ZM458.177 473.5H459.812V485.154L459.671 487H458.177V473.5ZM466.236 482.166V482.351C466.236 483.042 466.154 483.684 465.99 484.275C465.826 484.861 465.586 485.371 465.27 485.805C464.953 486.238 464.566 486.575 464.109 486.815C463.652 487.056 463.128 487.176 462.536 487.176C461.933 487.176 461.402 487.073 460.945 486.868C460.494 486.657 460.113 486.355 459.803 485.963C459.492 485.57 459.243 485.096 459.056 484.539C458.874 483.982 458.748 483.355 458.678 482.658V481.85C458.748 481.146 458.874 480.517 459.056 479.96C459.243 479.403 459.492 478.929 459.803 478.536C460.113 478.138 460.494 477.836 460.945 477.631C461.396 477.42 461.921 477.314 462.519 477.314C463.116 477.314 463.646 477.432 464.109 477.666C464.572 477.895 464.959 478.223 465.27 478.65C465.586 479.078 465.826 479.591 465.99 480.188C466.154 480.78 466.236 481.439 466.236 482.166ZM464.602 482.351V482.166C464.602 481.691 464.558 481.246 464.47 480.83C464.382 480.408 464.241 480.039 464.048 479.723C463.854 479.4 463.6 479.148 463.283 478.967C462.967 478.779 462.577 478.686 462.114 478.686C461.704 478.686 461.347 478.756 461.042 478.896C460.743 479.037 460.488 479.228 460.277 479.468C460.066 479.702 459.894 479.972 459.759 480.276C459.63 480.575 459.533 480.886 459.469 481.208V483.326C459.562 483.736 459.715 484.132 459.926 484.513C460.143 484.888 460.43 485.195 460.787 485.436C461.15 485.676 461.599 485.796 462.132 485.796C462.571 485.796 462.946 485.708 463.257 485.532C463.573 485.351 463.828 485.102 464.021 484.785C464.221 484.469 464.367 484.103 464.461 483.687C464.555 483.271 464.602 482.825 464.602 482.351Z" fill="black"/>
<path d="M384.886 562.62V564H378.109V562.62H384.886ZM378.452 551.203V564H376.756V551.203H378.452ZM383.989 556.705V558.085H378.109V556.705H383.989ZM384.798 551.203V552.592H378.109V551.203H384.798ZM388.366 556.521V564H386.74V554.49H388.278L388.366 556.521ZM387.979 558.885L387.303 558.858C387.309 558.208 387.405 557.607 387.593 557.057C387.78 556.5 388.044 556.017 388.384 555.606C388.724 555.196 389.128 554.88 389.597 554.657C390.071 554.429 390.596 554.314 391.17 554.314C391.639 554.314 392.061 554.379 392.436 554.508C392.811 554.631 393.13 554.83 393.394 555.105C393.663 555.381 393.868 555.738 394.009 556.178C394.149 556.611 394.22 557.142 394.22 557.769V564H392.585V557.751C392.585 557.253 392.512 556.854 392.365 556.556C392.219 556.251 392.005 556.031 391.724 555.896C391.442 555.756 391.097 555.686 390.687 555.686C390.282 555.686 389.913 555.771 389.579 555.94C389.251 556.11 388.967 556.345 388.727 556.644C388.492 556.942 388.308 557.285 388.173 557.672C388.044 558.053 387.979 558.457 387.979 558.885ZM400.495 562.84C400.882 562.84 401.239 562.761 401.567 562.603C401.896 562.444 402.165 562.228 402.376 561.952C402.587 561.671 402.707 561.352 402.736 560.994H404.283C404.254 561.557 404.063 562.081 403.712 562.567C403.366 563.048 402.912 563.438 402.35 563.736C401.787 564.029 401.169 564.176 400.495 564.176C399.78 564.176 399.156 564.05 398.623 563.798C398.096 563.546 397.656 563.2 397.305 562.761C396.959 562.321 396.698 561.817 396.522 561.249C396.353 560.675 396.268 560.068 396.268 559.43V559.061C396.268 558.422 396.353 557.818 396.522 557.25C396.698 556.676 396.959 556.169 397.305 555.729C397.656 555.29 398.096 554.944 398.623 554.692C399.156 554.44 399.78 554.314 400.495 554.314C401.239 554.314 401.89 554.467 402.446 554.771C403.003 555.07 403.439 555.48 403.756 556.002C404.078 556.518 404.254 557.104 404.283 557.76H402.736C402.707 557.367 402.596 557.013 402.402 556.696C402.215 556.38 401.957 556.128 401.629 555.94C401.307 555.747 400.929 555.65 400.495 555.65C399.997 555.65 399.578 555.75 399.238 555.949C398.904 556.143 398.638 556.406 398.438 556.74C398.245 557.068 398.104 557.435 398.017 557.839C397.935 558.237 397.894 558.645 397.894 559.061V559.43C397.894 559.846 397.935 560.256 398.017 560.66C398.099 561.064 398.236 561.431 398.43 561.759C398.629 562.087 398.896 562.351 399.229 562.55C399.569 562.743 399.991 562.84 400.495 562.84ZM407.737 555.984V564H406.111V554.49H407.693L407.737 555.984ZM410.708 554.438L410.699 555.949C410.564 555.92 410.436 555.902 410.312 555.896C410.195 555.885 410.061 555.879 409.908 555.879C409.533 555.879 409.202 555.938 408.915 556.055C408.628 556.172 408.385 556.336 408.186 556.547C407.986 556.758 407.828 557.01 407.711 557.303C407.6 557.59 407.526 557.906 407.491 558.252L407.034 558.516C407.034 557.941 407.09 557.402 407.201 556.898C407.318 556.395 407.497 555.949 407.737 555.562C407.978 555.17 408.282 554.865 408.651 554.648C409.026 554.426 409.472 554.314 409.987 554.314C410.104 554.314 410.239 554.329 410.392 554.358C410.544 554.382 410.649 554.408 410.708 554.438ZM415.041 563.016L417.687 554.49H419.427L415.612 565.468C415.524 565.702 415.407 565.954 415.261 566.224C415.12 566.499 414.938 566.76 414.716 567.006C414.493 567.252 414.224 567.451 413.907 567.604C413.597 567.762 413.225 567.841 412.791 567.841C412.662 567.841 412.498 567.823 412.299 567.788C412.1 567.753 411.959 567.724 411.877 567.7L411.868 566.382C411.915 566.388 411.988 566.394 412.088 566.399C412.193 566.411 412.267 566.417 412.308 566.417C412.677 566.417 412.99 566.367 413.248 566.268C413.506 566.174 413.723 566.013 413.898 565.784C414.08 565.562 414.235 565.254 414.364 564.861L415.041 563.016ZM413.099 554.49L415.568 561.873L415.99 563.587L414.821 564.185L411.323 554.49H413.099ZM422.521 556.318V567.656H420.886V554.49H422.38L422.521 556.318ZM428.928 559.166V559.351C428.928 560.042 428.846 560.684 428.682 561.275C428.518 561.861 428.277 562.371 427.961 562.805C427.65 563.238 427.267 563.575 426.81 563.815C426.353 564.056 425.828 564.176 425.236 564.176C424.633 564.176 424.1 564.076 423.637 563.877C423.174 563.678 422.781 563.388 422.459 563.007C422.137 562.626 421.879 562.169 421.686 561.636C421.498 561.103 421.369 560.502 421.299 559.834V558.85C421.369 558.146 421.501 557.517 421.694 556.96C421.888 556.403 422.143 555.929 422.459 555.536C422.781 555.138 423.171 554.836 423.628 554.631C424.085 554.42 424.612 554.314 425.21 554.314C425.808 554.314 426.338 554.432 426.801 554.666C427.264 554.895 427.653 555.223 427.97 555.65C428.286 556.078 428.523 556.591 428.682 557.188C428.846 557.78 428.928 558.439 428.928 559.166ZM427.293 559.351V559.166C427.293 558.691 427.243 558.246 427.144 557.83C427.044 557.408 426.889 557.039 426.678 556.723C426.473 556.4 426.209 556.148 425.887 555.967C425.564 555.779 425.181 555.686 424.735 555.686C424.325 555.686 423.968 555.756 423.663 555.896C423.364 556.037 423.109 556.228 422.898 556.468C422.688 556.702 422.515 556.972 422.38 557.276C422.251 557.575 422.154 557.886 422.09 558.208V560.484C422.207 560.895 422.371 561.281 422.582 561.645C422.793 562.002 423.074 562.292 423.426 562.515C423.777 562.731 424.22 562.84 424.753 562.84C425.192 562.84 425.57 562.749 425.887 562.567C426.209 562.38 426.473 562.125 426.678 561.803C426.889 561.48 427.044 561.111 427.144 560.695C427.243 560.273 427.293 559.825 427.293 559.351ZM434.983 554.49V555.738H429.842V554.49H434.983ZM431.582 552.179H433.208V561.645C433.208 561.967 433.258 562.21 433.357 562.374C433.457 562.538 433.586 562.646 433.744 562.699C433.902 562.752 434.072 562.778 434.254 562.778C434.389 562.778 434.529 562.767 434.676 562.743C434.828 562.714 434.942 562.69 435.019 562.673L435.027 564C434.898 564.041 434.729 564.079 434.518 564.114C434.312 564.155 434.063 564.176 433.771 564.176C433.372 564.176 433.006 564.097 432.672 563.938C432.338 563.78 432.071 563.517 431.872 563.147C431.679 562.772 431.582 562.269 431.582 561.636V552.179ZM438.657 554.49V564H437.022V554.49H438.657ZM436.899 551.968C436.899 551.704 436.979 551.481 437.137 551.3C437.301 551.118 437.541 551.027 437.857 551.027C438.168 551.027 438.405 551.118 438.569 551.3C438.739 551.481 438.824 551.704 438.824 551.968C438.824 552.22 438.739 552.437 438.569 552.618C438.405 552.794 438.168 552.882 437.857 552.882C437.541 552.882 437.301 552.794 437.137 552.618C436.979 552.437 436.899 552.22 436.899 551.968ZM440.837 559.351V559.148C440.837 558.463 440.937 557.827 441.136 557.241C441.335 556.649 441.622 556.137 441.997 555.703C442.372 555.264 442.826 554.924 443.359 554.684C443.893 554.438 444.49 554.314 445.152 554.314C445.82 554.314 446.421 554.438 446.954 554.684C447.493 554.924 447.95 555.264 448.325 555.703C448.706 556.137 448.996 556.649 449.195 557.241C449.395 557.827 449.494 558.463 449.494 559.148V559.351C449.494 560.036 449.395 560.672 449.195 561.258C448.996 561.844 448.706 562.356 448.325 562.796C447.95 563.229 447.496 563.569 446.963 563.815C446.436 564.056 445.838 564.176 445.17 564.176C444.502 564.176 443.901 564.056 443.368 563.815C442.835 563.569 442.378 563.229 441.997 562.796C441.622 562.356 441.335 561.844 441.136 561.258C440.937 560.672 440.837 560.036 440.837 559.351ZM442.463 559.148V559.351C442.463 559.825 442.519 560.273 442.63 560.695C442.741 561.111 442.908 561.48 443.131 561.803C443.359 562.125 443.644 562.38 443.983 562.567C444.323 562.749 444.719 562.84 445.17 562.84C445.615 562.84 446.005 562.749 446.339 562.567C446.679 562.38 446.96 562.125 447.183 561.803C447.405 561.48 447.572 561.111 447.684 560.695C447.801 560.273 447.859 559.825 447.859 559.351V559.148C447.859 558.68 447.801 558.237 447.684 557.821C447.572 557.399 447.402 557.027 447.174 556.705C446.951 556.377 446.67 556.119 446.33 555.932C445.996 555.744 445.604 555.65 445.152 555.65C444.707 555.65 444.314 555.744 443.975 555.932C443.641 556.119 443.359 556.377 443.131 556.705C442.908 557.027 442.741 557.399 442.63 557.821C442.519 558.237 442.463 558.68 442.463 559.148ZM453.159 556.521V564H451.533V554.49H453.071L453.159 556.521ZM452.772 558.885L452.096 558.858C452.102 558.208 452.198 557.607 452.386 557.057C452.573 556.5 452.837 556.017 453.177 555.606C453.517 555.196 453.921 554.88 454.39 554.657C454.864 554.429 455.389 554.314 455.963 554.314C456.432 554.314 456.854 554.379 457.229 554.508C457.604 554.631 457.923 554.83 458.187 555.105C458.456 555.381 458.661 555.738 458.802 556.178C458.942 556.611 459.013 557.142 459.013 557.769V564H457.378V557.751C457.378 557.253 457.305 556.854 457.158 556.556C457.012 556.251 456.798 556.031 456.517 555.896C456.235 555.756 455.89 555.686 455.479 555.686C455.075 555.686 454.706 555.771 454.372 555.94C454.044 556.11 453.76 556.345 453.52 556.644C453.285 556.942 453.101 557.285 452.966 557.672C452.837 558.053 452.772 558.457 452.772 558.885ZM467.89 551.203V564H466.193V551.203H467.89ZM475.615 551.203L470.298 557.171L467.31 560.273L467.028 558.463L469.278 555.984L473.576 551.203H475.615ZM473.98 564L469.243 557.76L470.254 556.415L476.002 564H473.98ZM480.968 564.176C480.306 564.176 479.705 564.064 479.166 563.842C478.633 563.613 478.173 563.294 477.786 562.884C477.405 562.474 477.112 561.987 476.907 561.425C476.702 560.862 476.6 560.247 476.6 559.579V559.21C476.6 558.437 476.714 557.748 476.942 557.145C477.171 556.535 477.481 556.02 477.874 555.598C478.267 555.176 478.712 554.856 479.21 554.64C479.708 554.423 480.224 554.314 480.757 554.314C481.437 554.314 482.022 554.432 482.515 554.666C483.013 554.9 483.42 555.229 483.736 555.65C484.053 556.066 484.287 556.559 484.439 557.127C484.592 557.689 484.668 558.305 484.668 558.973V559.702H477.566V558.375H483.042V558.252C483.019 557.83 482.931 557.42 482.778 557.021C482.632 556.623 482.397 556.295 482.075 556.037C481.753 555.779 481.313 555.65 480.757 555.65C480.388 555.65 480.048 555.729 479.737 555.888C479.427 556.04 479.16 556.269 478.938 556.573C478.715 556.878 478.542 557.25 478.419 557.689C478.296 558.129 478.234 558.636 478.234 559.21V559.579C478.234 560.03 478.296 560.455 478.419 560.854C478.548 561.246 478.732 561.592 478.973 561.891C479.219 562.189 479.515 562.424 479.86 562.594C480.212 562.764 480.61 562.849 481.056 562.849C481.63 562.849 482.116 562.731 482.515 562.497C482.913 562.263 483.262 561.949 483.561 561.557L484.545 562.339C484.34 562.649 484.079 562.945 483.763 563.227C483.446 563.508 483.057 563.736 482.594 563.912C482.137 564.088 481.595 564.176 480.968 564.176ZM489.115 563.016L491.761 554.49H493.501L489.687 565.468C489.599 565.702 489.481 565.954 489.335 566.224C489.194 566.499 489.013 566.76 488.79 567.006C488.567 567.252 488.298 567.451 487.981 567.604C487.671 567.762 487.299 567.841 486.865 567.841C486.736 567.841 486.572 567.823 486.373 567.788C486.174 567.753 486.033 567.724 485.951 567.7L485.942 566.382C485.989 566.388 486.062 566.394 486.162 566.399C486.268 566.411 486.341 566.417 486.382 566.417C486.751 566.417 487.064 566.367 487.322 566.268C487.58 566.174 487.797 566.013 487.973 565.784C488.154 565.562 488.31 565.254 488.438 564.861L489.115 563.016ZM487.173 554.49L489.643 561.873L490.064 563.587L488.896 564.185L485.397 554.49H487.173Z" fill="black"/>
<path d="M433.293 537.707C433.683 538.098 434.317 538.098 434.707 537.707L441.071 531.343C441.462 530.953 441.462 530.319 441.071 529.929C440.681 529.538 440.047 529.538 439.657 529.929L434 535.586L428.343 529.929C427.953 529.538 427.319 529.538 426.929 529.929C426.538 530.319 426.538 530.953 426.929 531.343L433.293 537.707ZM433 498V537H435V498H433Z" fill="black"/>
<rect x="385.5" y="363.5" width="99" height="99" rx="3.5" fill="white" stroke="black"/>
<rect x="385.5" y="363.5" width="99" height="99" rx="3.5" fill="white" stroke="black"/>
<path d="M422.188 413.857L420.576 415.566V420H418.105V405.781H420.576V412.451L421.943 410.762L426.104 405.781H429.092L423.809 412.08L429.395 420H426.465L422.188 413.857ZM430.723 420V405.781H434.922C436.178 405.781 437.292 406.061 438.262 406.621C439.238 407.181 439.993 407.975 440.527 409.004C441.061 410.033 441.328 411.211 441.328 412.539V413.252C441.328 414.6 441.058 415.785 440.518 416.807C439.984 417.829 439.219 418.617 438.223 419.17C437.233 419.723 436.097 420 434.814 420H430.723ZM433.193 407.773V418.027H434.805C436.1 418.027 437.093 417.624 437.783 416.816C438.48 416.003 438.835 414.837 438.848 413.32V412.529C438.848 410.986 438.512 409.808 437.842 408.994C437.171 408.18 436.198 407.773 434.922 407.773H433.193ZM451.982 413.975H446.26V420H443.789V405.781H452.822V407.773H446.26V412.002H451.982V413.975Z" fill="black"/>
<path d="M164.717 328.673L164.717 327.673L163.717 327.673L163.717 328.673L164.717 328.673ZM164.01 363.178C164.401 363.569 165.034 363.569 165.424 363.178L171.788 356.814C172.179 356.424 172.179 355.791 171.788 355.4C171.398 355.01 170.765 355.01 170.374 355.4L164.717 361.057L159.06 355.4C158.67 355.01 158.037 355.01 157.646 355.4C157.256 355.791 157.256 356.424 157.646 356.814L164.01 363.178ZM284.922 327.673L164.717 327.673L164.717 329.673L284.922 329.673L284.922 327.673ZM163.717 328.673L163.717 362.471L165.717 362.471L165.717 328.673L163.717 328.673Z" fill="black"/>
<path d="M434.717 328.673L435.717 328.673L435.717 327.673L434.717 327.673L434.717 328.673ZM434.01 362.707C434.401 363.098 435.034 363.098 435.424 362.707L441.788 356.343C442.179 355.953 442.179 355.319 441.788 354.929C441.398 354.538 440.765 354.538 440.374 354.929L434.717 360.586L429.06 354.929C428.67 354.538 428.037 354.538 427.646 354.929C427.256 355.319 427.256 355.953 427.646 356.343L434.01 362.707ZM283 329.673L434.717 329.673L434.717 327.673L283 327.673L283 329.673ZM433.717 328.673L433.717 362L435.717 362L435.717 328.673L433.717 328.673Z" fill="black"/>
<line x1="301" y1="309" x2="301" y2="328" stroke="black" stroke-width="2"/>
<path d="M268.3 413H264.927L264.948 410.68H268.3C269.209 410.68 269.972 410.479 270.588 410.078C271.204 409.67 271.669 409.086 271.984 408.327C272.299 407.561 272.457 406.644 272.457 405.577V404.771C272.457 403.948 272.368 403.221 272.188 402.591C272.009 401.961 271.744 401.431 271.394 401.001C271.05 400.571 270.624 400.245 270.115 400.023C269.607 399.801 269.023 399.69 268.364 399.69H264.862V397.359H268.364C269.41 397.359 270.362 397.535 271.222 397.886C272.088 398.237 272.837 398.742 273.467 399.4C274.104 400.052 274.591 400.833 274.928 401.742C275.271 402.652 275.443 403.669 275.443 404.793V405.577C275.443 406.694 275.271 407.711 274.928 408.628C274.591 409.537 274.104 410.318 273.467 410.97C272.837 411.621 272.085 412.123 271.211 412.474C270.337 412.825 269.367 413 268.3 413ZM266.581 397.359V413H263.627V397.359H266.581ZM277.237 407.307V407.081C277.237 406.229 277.359 405.445 277.603 404.729C277.846 404.005 278.201 403.379 278.666 402.849C279.132 402.319 279.701 401.907 280.374 401.613C281.047 401.312 281.813 401.162 282.673 401.162C283.547 401.162 284.32 401.312 284.993 401.613C285.674 401.907 286.246 402.319 286.712 402.849C287.177 403.379 287.532 404.005 287.775 404.729C288.019 405.445 288.141 406.229 288.141 407.081V407.307C288.141 408.152 288.019 408.936 287.775 409.659C287.532 410.375 287.177 411.002 286.712 411.539C286.246 412.069 285.677 412.481 285.004 412.774C284.331 413.068 283.561 413.215 282.694 413.215C281.835 413.215 281.065 413.068 280.385 412.774C279.704 412.481 279.132 412.069 278.666 411.539C278.201 411.002 277.846 410.375 277.603 409.659C277.359 408.936 277.237 408.152 277.237 407.307ZM280.073 407.081V407.307C280.073 407.815 280.123 408.291 280.224 408.735C280.324 409.179 280.478 409.57 280.686 409.906C280.893 410.243 281.162 410.508 281.491 410.701C281.828 410.887 282.229 410.98 282.694 410.98C283.153 410.98 283.547 410.887 283.876 410.701C284.205 410.508 284.474 410.243 284.682 409.906C284.896 409.57 285.054 409.179 285.154 408.735C285.255 408.291 285.305 407.815 285.305 407.307V407.081C285.305 406.58 285.255 406.111 285.154 405.674C285.054 405.23 284.896 404.84 284.682 404.503C284.474 404.159 284.202 403.891 283.865 403.697C283.536 403.497 283.138 403.396 282.673 403.396C282.215 403.396 281.821 403.497 281.491 403.697C281.162 403.891 280.893 404.159 280.686 404.503C280.478 404.84 280.324 405.23 280.224 405.674C280.123 406.111 280.073 406.58 280.073 407.081ZM293.028 403.762V413H290.192V401.377H292.867L293.028 403.762ZM292.609 406.77H291.739C291.739 405.96 291.836 405.215 292.029 404.535C292.23 403.855 292.523 403.264 292.91 402.763C293.297 402.254 293.773 401.86 294.339 401.581C294.912 401.302 295.574 401.162 296.326 401.162C296.849 401.162 297.329 401.241 297.766 401.398C298.202 401.549 298.578 401.789 298.894 402.118C299.216 402.44 299.463 402.863 299.635 403.386C299.807 403.901 299.893 404.521 299.893 405.244V413H297.057V405.534C297.057 404.99 296.978 404.564 296.82 404.256C296.67 403.948 296.451 403.733 296.165 403.611C295.879 403.482 295.535 403.418 295.134 403.418C294.69 403.418 294.307 403.507 293.984 403.687C293.669 403.858 293.408 404.098 293.2 404.406C293 404.714 292.849 405.069 292.749 405.47C292.656 405.871 292.609 406.304 292.609 406.77ZM299.678 406.243L298.507 406.458C298.514 405.728 298.614 405.044 298.808 404.406C299.001 403.762 299.284 403.2 299.656 402.72C300.036 402.233 300.505 401.853 301.063 401.581C301.629 401.302 302.281 401.162 303.019 401.162C303.591 401.162 304.107 401.244 304.565 401.409C305.031 401.567 305.428 401.821 305.758 402.172C306.087 402.516 306.338 402.963 306.51 403.515C306.689 404.066 306.778 404.739 306.778 405.534V413H303.921V405.523C303.921 404.958 303.842 404.524 303.685 404.224C303.534 403.923 303.316 403.715 303.029 403.601C302.743 403.479 302.406 403.418 302.02 403.418C301.626 403.418 301.282 403.493 300.988 403.644C300.702 403.787 300.458 403.987 300.258 404.245C300.064 404.503 299.918 404.804 299.817 405.147C299.724 405.484 299.678 405.849 299.678 406.243ZM315.727 410.529V405.169C315.727 404.775 315.659 404.435 315.522 404.148C315.386 403.862 315.179 403.64 314.899 403.482C314.62 403.325 314.266 403.246 313.836 403.246C313.456 403.246 313.123 403.311 312.837 403.439C312.558 403.568 312.343 403.751 312.192 403.987C312.042 404.216 311.967 404.481 311.967 404.782H309.12C309.12 404.302 309.235 403.848 309.464 403.418C309.693 402.981 310.019 402.594 310.441 402.258C310.871 401.914 311.383 401.646 311.978 401.452C312.579 401.259 313.252 401.162 313.997 401.162C314.878 401.162 315.662 401.312 316.35 401.613C317.044 401.907 317.589 402.351 317.982 402.945C318.383 403.54 318.584 404.288 318.584 405.19V410.261C318.584 410.841 318.62 411.339 318.691 411.754C318.77 412.162 318.885 412.517 319.035 412.817V413H316.146C316.009 412.706 315.906 412.334 315.834 411.883C315.762 411.424 315.727 410.973 315.727 410.529ZM316.124 405.921L316.146 407.607H314.352C313.908 407.607 313.517 407.654 313.181 407.747C312.844 407.833 312.568 407.962 312.354 408.134C312.139 408.299 311.978 408.499 311.87 408.735C311.763 408.965 311.709 409.226 311.709 409.52C311.709 409.806 311.773 410.064 311.902 410.293C312.038 410.522 312.232 410.705 312.482 410.841C312.74 410.97 313.041 411.034 313.385 411.034C313.886 411.034 314.323 410.934 314.695 410.733C315.068 410.526 315.358 410.275 315.565 409.981C315.773 409.688 315.884 409.409 315.898 409.144L316.715 410.368C316.615 410.662 316.464 410.973 316.264 411.303C316.063 411.632 315.805 411.94 315.49 412.227C315.175 412.513 314.796 412.749 314.352 412.936C313.908 413.122 313.392 413.215 312.805 413.215C312.053 413.215 311.38 413.064 310.785 412.764C310.191 412.463 309.722 412.051 309.378 411.528C309.034 411.006 308.862 410.411 308.862 409.745C308.862 409.129 308.977 408.585 309.206 408.112C309.435 407.64 309.775 407.242 310.227 406.92C310.678 406.59 311.236 406.343 311.902 406.179C312.576 406.007 313.345 405.921 314.212 405.921H316.124ZM324.148 401.377V413H321.302V401.377H324.148ZM321.108 398.337C321.108 397.914 321.252 397.563 321.538 397.284C321.832 397.005 322.226 396.865 322.72 396.865C323.214 396.865 323.604 397.005 323.891 397.284C324.184 397.563 324.331 397.914 324.331 398.337C324.331 398.752 324.184 399.1 323.891 399.379C323.604 399.658 323.214 399.798 322.72 399.798C322.226 399.798 321.832 399.658 321.538 399.379C321.252 399.1 321.108 398.752 321.108 398.337ZM329.638 403.858V413H326.802V401.377H329.466L329.638 403.858ZM329.187 406.77H328.349C328.356 405.924 328.47 405.158 328.692 404.471C328.914 403.783 329.226 403.192 329.627 402.698C330.035 402.204 330.519 401.825 331.077 401.56C331.636 401.295 332.259 401.162 332.946 401.162C333.505 401.162 334.01 401.241 334.461 401.398C334.912 401.556 335.299 401.807 335.621 402.15C335.951 402.494 336.201 402.945 336.373 403.504C336.552 404.055 336.642 404.736 336.642 405.545V413H333.784V405.523C333.784 404.993 333.705 404.575 333.548 404.267C333.397 403.959 333.175 403.74 332.882 403.611C332.595 403.482 332.241 403.418 331.818 403.418C331.382 403.418 330.998 403.507 330.669 403.687C330.347 403.858 330.075 404.098 329.853 404.406C329.638 404.714 329.473 405.069 329.358 405.47C329.244 405.871 329.187 406.304 329.187 406.77ZM256.333 434.939C256.333 434.639 256.286 434.37 256.193 434.134C256.107 433.89 255.946 433.672 255.71 433.479C255.481 433.278 255.155 433.085 254.732 432.898C254.317 432.705 253.78 432.505 253.121 432.297C252.391 432.068 251.71 431.81 251.08 431.523C250.45 431.237 249.895 430.904 249.415 430.524C248.942 430.145 248.574 429.708 248.309 429.214C248.044 428.713 247.911 428.132 247.911 427.474C247.911 426.829 248.047 426.242 248.319 425.712C248.599 425.182 248.993 424.727 249.501 424.348C250.009 423.961 250.607 423.664 251.295 423.456C251.99 423.248 252.756 423.145 253.594 423.145C254.754 423.145 255.757 423.356 256.602 423.778C257.454 424.201 258.113 424.774 258.578 425.497C259.044 426.22 259.276 427.033 259.276 427.936H256.333C256.333 427.449 256.229 427.019 256.021 426.646C255.821 426.274 255.513 425.98 255.098 425.766C254.689 425.551 254.174 425.443 253.551 425.443C252.949 425.443 252.448 425.533 252.047 425.712C251.653 425.891 251.356 426.134 251.155 426.442C250.962 426.75 250.865 427.094 250.865 427.474C250.865 427.76 250.933 428.018 251.069 428.247C251.205 428.469 251.41 428.68 251.682 428.881C251.954 429.074 252.29 429.257 252.691 429.429C253.1 429.593 253.572 429.758 254.109 429.923C254.969 430.181 255.721 430.467 256.365 430.782C257.017 431.097 257.558 431.455 257.987 431.856C258.424 432.257 258.75 432.709 258.965 433.21C259.187 433.711 259.298 434.281 259.298 434.918C259.298 435.591 259.165 436.193 258.9 436.723C258.635 437.253 258.256 437.704 257.762 438.076C257.268 438.449 256.673 438.731 255.979 438.925C255.291 439.118 254.521 439.215 253.669 439.215C252.91 439.215 252.158 439.115 251.413 438.914C250.675 438.706 250.006 438.398 249.404 437.99C248.803 437.575 248.323 437.052 247.965 436.422C247.607 435.785 247.428 435.04 247.428 434.188H250.393C250.393 434.682 250.471 435.104 250.629 435.455C250.794 435.799 251.023 436.082 251.316 436.304C251.617 436.519 251.968 436.676 252.369 436.776C252.77 436.877 253.203 436.927 253.669 436.927C254.271 436.927 254.765 436.844 255.151 436.68C255.545 436.508 255.839 436.271 256.032 435.971C256.233 435.67 256.333 435.326 256.333 434.939ZM266.581 439.215C265.7 439.215 264.909 439.072 264.207 438.785C263.505 438.499 262.907 438.101 262.413 437.593C261.926 437.077 261.55 436.479 261.285 435.799C261.027 435.111 260.898 434.374 260.898 433.586V433.156C260.898 432.261 261.027 431.448 261.285 430.718C261.543 429.98 261.908 429.346 262.381 428.816C262.854 428.286 263.419 427.878 264.078 427.592C264.737 427.305 265.464 427.162 266.259 427.162C267.082 427.162 267.809 427.302 268.439 427.581C269.07 427.853 269.596 428.24 270.019 428.741C270.441 429.243 270.76 429.844 270.975 430.546C271.189 431.241 271.297 432.01 271.297 432.855V434.048H262.188V432.093H268.504V431.878C268.49 431.427 268.404 431.015 268.246 430.643C268.089 430.263 267.845 429.962 267.516 429.74C267.186 429.511 266.76 429.396 266.237 429.396C265.815 429.396 265.446 429.49 265.131 429.676C264.823 429.855 264.565 430.113 264.357 430.449C264.157 430.779 264.007 431.173 263.906 431.631C263.806 432.089 263.756 432.598 263.756 433.156V433.586C263.756 434.073 263.82 434.524 263.949 434.939C264.085 435.355 264.282 435.716 264.54 436.024C264.805 436.325 265.12 436.562 265.485 436.733C265.858 436.898 266.28 436.98 266.753 436.98C267.347 436.98 267.884 436.866 268.364 436.637C268.851 436.4 269.274 436.053 269.632 435.595L271.061 437.077C270.817 437.435 270.488 437.779 270.072 438.108C269.664 438.438 269.17 438.706 268.59 438.914C268.01 439.115 267.34 439.215 266.581 439.215ZM276.034 429.611V443.469H273.188V427.377H275.819L276.034 429.611ZM283.5 433.07V433.296C283.5 434.141 283.4 434.925 283.199 435.648C283.006 436.365 282.719 436.991 282.34 437.528C281.96 438.058 281.488 438.474 280.922 438.774C280.363 439.068 279.719 439.215 278.988 439.215C278.272 439.215 277.649 439.079 277.119 438.807C276.589 438.527 276.142 438.133 275.776 437.625C275.411 437.117 275.118 436.526 274.896 435.853C274.681 435.172 274.52 434.431 274.412 433.629V432.909C274.52 432.057 274.681 431.284 274.896 430.589C275.118 429.887 275.411 429.282 275.776 428.773C276.142 428.258 276.586 427.86 277.108 427.581C277.638 427.302 278.258 427.162 278.967 427.162C279.704 427.162 280.353 427.302 280.911 427.581C281.477 427.86 281.953 428.261 282.34 428.784C282.727 429.307 283.017 429.93 283.21 430.653C283.403 431.377 283.5 432.182 283.5 433.07ZM280.653 433.296V433.07C280.653 432.555 280.607 432.078 280.514 431.642C280.421 431.198 280.277 430.811 280.084 430.481C279.891 430.145 279.64 429.883 279.332 429.697C279.024 429.511 278.652 429.418 278.215 429.418C277.778 429.418 277.402 429.49 277.087 429.633C276.772 429.776 276.514 429.98 276.313 430.245C276.113 430.51 275.955 430.825 275.841 431.19C275.733 431.549 275.662 431.946 275.626 432.383V434.166C275.69 434.696 275.816 435.172 276.002 435.595C276.188 436.017 276.46 436.354 276.818 436.604C277.184 436.855 277.656 436.98 278.236 436.98C278.673 436.98 279.046 436.884 279.354 436.69C279.661 436.497 279.912 436.232 280.105 435.896C280.299 435.552 280.438 435.158 280.524 434.714C280.61 434.27 280.653 433.797 280.653 433.296ZM291.976 436.529V431.169C291.976 430.775 291.908 430.435 291.771 430.148C291.635 429.862 291.428 429.64 291.148 429.482C290.869 429.325 290.515 429.246 290.085 429.246C289.705 429.246 289.372 429.311 289.086 429.439C288.807 429.568 288.592 429.751 288.441 429.987C288.291 430.216 288.216 430.481 288.216 430.782H285.369C285.369 430.302 285.484 429.848 285.713 429.418C285.942 428.981 286.268 428.594 286.69 428.258C287.12 427.914 287.632 427.646 288.227 427.452C288.828 427.259 289.501 427.162 290.246 427.162C291.127 427.162 291.911 427.312 292.599 427.613C293.293 427.907 293.838 428.351 294.231 428.945C294.632 429.54 294.833 430.288 294.833 431.19V436.261C294.833 436.841 294.869 437.339 294.94 437.754C295.019 438.162 295.134 438.517 295.284 438.817V439H292.395C292.258 438.706 292.155 438.334 292.083 437.883C292.011 437.424 291.976 436.973 291.976 436.529ZM292.373 431.921L292.395 433.607H290.601C290.157 433.607 289.766 433.654 289.43 433.747C289.093 433.833 288.817 433.962 288.603 434.134C288.388 434.299 288.227 434.499 288.119 434.735C288.012 434.965 287.958 435.226 287.958 435.52C287.958 435.806 288.022 436.064 288.151 436.293C288.287 436.522 288.481 436.705 288.731 436.841C288.989 436.97 289.29 437.034 289.634 437.034C290.135 437.034 290.572 436.934 290.944 436.733C291.317 436.526 291.607 436.275 291.814 435.981C292.022 435.688 292.133 435.409 292.147 435.144L292.964 436.368C292.864 436.662 292.713 436.973 292.513 437.303C292.312 437.632 292.054 437.94 291.739 438.227C291.424 438.513 291.045 438.749 290.601 438.936C290.157 439.122 289.641 439.215 289.054 439.215C288.302 439.215 287.629 439.064 287.034 438.764C286.44 438.463 285.971 438.051 285.627 437.528C285.283 437.006 285.111 436.411 285.111 435.745C285.111 435.129 285.226 434.585 285.455 434.112C285.684 433.64 286.024 433.242 286.476 432.92C286.927 432.59 287.485 432.343 288.151 432.179C288.825 432.007 289.594 431.921 290.461 431.921H292.373ZM300.226 429.751V439H297.39V427.377H300.075L300.226 429.751ZM303.76 427.302L303.717 429.944C303.559 429.916 303.38 429.894 303.18 429.88C302.986 429.866 302.804 429.858 302.632 429.858C302.195 429.858 301.812 429.919 301.482 430.041C301.153 430.156 300.877 430.324 300.655 430.546C300.44 430.768 300.276 431.04 300.161 431.362C300.047 431.677 299.982 432.035 299.968 432.437L299.355 432.361C299.355 431.624 299.431 430.94 299.581 430.31C299.731 429.679 299.95 429.128 300.236 428.655C300.523 428.183 300.881 427.817 301.311 427.56C301.747 427.295 302.249 427.162 302.814 427.162C302.972 427.162 303.14 427.176 303.319 427.205C303.506 427.227 303.652 427.259 303.76 427.302ZM311.354 436.529V431.169C311.354 430.775 311.286 430.435 311.15 430.148C311.014 429.862 310.807 429.64 310.527 429.482C310.248 429.325 309.894 429.246 309.464 429.246C309.084 429.246 308.751 429.311 308.465 429.439C308.186 429.568 307.971 429.751 307.82 429.987C307.67 430.216 307.595 430.481 307.595 430.782H304.748C304.748 430.302 304.863 429.848 305.092 429.418C305.321 428.981 305.647 428.594 306.069 428.258C306.499 427.914 307.011 427.646 307.605 427.452C308.207 427.259 308.88 427.162 309.625 427.162C310.506 427.162 311.29 427.312 311.978 427.613C312.672 427.907 313.216 428.351 313.61 428.945C314.011 429.54 314.212 430.288 314.212 431.19V436.261C314.212 436.841 314.248 437.339 314.319 437.754C314.398 438.162 314.513 438.517 314.663 438.817V439H311.773C311.637 438.706 311.534 438.334 311.462 437.883C311.39 437.424 311.354 436.973 311.354 436.529ZM311.752 431.921L311.773 433.607H309.979C309.535 433.607 309.145 433.654 308.809 433.747C308.472 433.833 308.196 433.962 307.981 434.134C307.767 434.299 307.605 434.499 307.498 434.735C307.391 434.965 307.337 435.226 307.337 435.52C307.337 435.806 307.401 436.064 307.53 436.293C307.666 436.522 307.86 436.705 308.11 436.841C308.368 436.97 308.669 437.034 309.013 437.034C309.514 437.034 309.951 436.934 310.323 436.733C310.696 436.526 310.986 436.275 311.193 435.981C311.401 435.688 311.512 435.409 311.526 435.144L312.343 436.368C312.243 436.662 312.092 436.973 311.892 437.303C311.691 437.632 311.433 437.94 311.118 438.227C310.803 438.513 310.424 438.749 309.979 438.936C309.535 439.122 309.02 439.215 308.433 439.215C307.681 439.215 307.007 439.064 306.413 438.764C305.819 438.463 305.35 438.051 305.006 437.528C304.662 437.006 304.49 436.411 304.49 435.745C304.49 435.129 304.605 434.585 304.834 434.112C305.063 433.64 305.403 433.242 305.854 432.92C306.306 432.59 306.864 432.343 307.53 432.179C308.203 432.007 308.973 431.921 309.84 431.921H311.752ZM322.269 427.377V429.418H315.608V427.377H322.269ZM317.392 424.52H320.238V435.648C320.238 435.992 320.285 436.257 320.378 436.443C320.471 436.63 320.611 436.755 320.797 436.819C320.983 436.884 321.205 436.916 321.463 436.916C321.649 436.916 321.821 436.905 321.979 436.884C322.136 436.862 322.269 436.841 322.376 436.819L322.387 438.946C322.15 439.025 321.882 439.09 321.581 439.14C321.287 439.19 320.954 439.215 320.582 439.215C319.945 439.215 319.386 439.107 318.906 438.893C318.426 438.671 318.054 438.316 317.789 437.829C317.524 437.335 317.392 436.683 317.392 435.874V424.52ZM327.167 427.377V439H324.32V427.377H327.167ZM324.127 424.337C324.127 423.914 324.27 423.563 324.557 423.284C324.85 423.005 325.244 422.865 325.738 422.865C326.232 422.865 326.623 423.005 326.909 423.284C327.203 423.563 327.35 423.914 327.35 424.337C327.35 424.752 327.203 425.1 326.909 425.379C326.623 425.658 326.232 425.798 325.738 425.798C325.244 425.798 324.85 425.658 324.557 425.379C324.27 425.1 324.127 424.752 324.127 424.337ZM329.369 433.307V433.081C329.369 432.229 329.491 431.445 329.734 430.729C329.978 430.005 330.332 429.379 330.798 428.849C331.263 428.319 331.833 427.907 332.506 427.613C333.179 427.312 333.945 427.162 334.805 427.162C335.678 427.162 336.452 427.312 337.125 427.613C337.805 427.907 338.378 428.319 338.844 428.849C339.309 429.379 339.664 430.005 339.907 430.729C340.151 431.445 340.272 432.229 340.272 433.081V433.307C340.272 434.152 340.151 434.936 339.907 435.659C339.664 436.375 339.309 437.002 338.844 437.539C338.378 438.069 337.809 438.481 337.136 438.774C336.463 439.068 335.693 439.215 334.826 439.215C333.967 439.215 333.197 439.068 332.517 438.774C331.836 438.481 331.263 438.069 330.798 437.539C330.332 437.002 329.978 436.375 329.734 435.659C329.491 434.936 329.369 434.152 329.369 433.307ZM332.205 433.081V433.307C332.205 433.815 332.255 434.291 332.355 434.735C332.456 435.179 332.61 435.57 332.817 435.906C333.025 436.243 333.294 436.508 333.623 436.701C333.96 436.887 334.361 436.98 334.826 436.98C335.285 436.98 335.678 436.887 336.008 436.701C336.337 436.508 336.606 436.243 336.813 435.906C337.028 435.57 337.186 435.179 337.286 434.735C337.386 434.291 337.437 433.815 337.437 433.307V433.081C337.437 432.58 337.386 432.111 337.286 431.674C337.186 431.23 337.028 430.84 336.813 430.503C336.606 430.159 336.334 429.891 335.997 429.697C335.668 429.497 335.27 429.396 334.805 429.396C334.346 429.396 333.952 429.497 333.623 429.697C333.294 429.891 333.025 430.159 332.817 430.503C332.61 430.84 332.456 431.23 332.355 431.674C332.255 432.111 332.205 432.58 332.205 433.081ZM345.117 429.858V439H342.281V427.377H344.945L345.117 429.858ZM344.666 432.77H343.828C343.835 431.924 343.95 431.158 344.172 430.471C344.394 429.783 344.705 429.192 345.106 428.698C345.515 428.204 345.998 427.825 346.557 427.56C347.115 427.295 347.738 427.162 348.426 427.162C348.984 427.162 349.489 427.241 349.94 427.398C350.392 427.556 350.778 427.807 351.101 428.15C351.43 428.494 351.681 428.945 351.853 429.504C352.032 430.055 352.121 430.736 352.121 431.545V439H349.264V431.523C349.264 430.993 349.185 430.575 349.027 430.267C348.877 429.959 348.655 429.74 348.361 429.611C348.075 429.482 347.72 429.418 347.298 429.418C346.861 429.418 346.478 429.507 346.148 429.687C345.826 429.858 345.554 430.098 345.332 430.406C345.117 430.714 344.952 431.069 344.838 431.47C344.723 431.871 344.666 432.304 344.666 432.77Z" fill="black"/>
</svg>
