<?xml version="1.0" encoding="UTF-8"?>
<svg width="128px" height="128px" viewBox="0 0 128 128" version="1.1" xmlns="http://www.w3.org/2000/svg" xmlns:xlink="http://www.w3.org/1999/xlink">
    <!-- Generator: Sketch 59.1 (86144) - https://sketch.com -->
    <title>Artboard</title>
    <desc>Created with Sketch.</desc>
    <g id="Artboard" stroke="none" stroke-width="1" fill="none" fill-rule="evenodd">
        <g id="favicon" transform="translate(4.000000, 10.000000)">
            <path d="M96.0477704,25.4129822 C98.0600381,15.2161099 96.9347215,7.47738178 92.1783546,4.4020666 C90.5928981,3.37696151 88.6920896,2.92838067 86.5528194,3.00924144 C75.0007621,3.44588954 56.3610695,19.2822509 41.131831,42.6306719 C23.0823631,70.3028745 16.6680709,98.0359054 26.8149926,104.596574 C31.6315899,107.710832 39.3067973,105.503193 47.9777204,99.3512539" id="Path" stroke="#988086" stroke-width="6" stroke-linecap="round"></path>
            <path d="M105.863257,70 C114.440488,66.7059271 119.714658,62.1971689 119.988786,57.0189024 C120.622754,45.0431167 94.2970217,33.9559517 61.1622172,32.2368069 C58.0558301,32.0756374 55.0012571,31.9908326 52.0134043,32.000787 C23.1308259,32.0970142 0.585727927,39.9408202 0.011194303,50.793876 C-0.262392274,55.9619814 4.49367977,60.9733063 12.6466883,65.1320884" id="Path" stroke="#988086" stroke-width="6" stroke-linecap="round"></path>
            <path d="M51.3193348,7.11937118 C45.4598908,2.29159083 39.9644576,-0.300954927 35.5492645,0.0278849526 C34.3737242,0.115438239 33.2865325,0.403127736 32.2762311,0.914320742 C21.4996872,6.36704646 24.9423814,34.5677944 39.9827371,63.8808096 C55.0230928,93.1938276 75.9510621,112.532509 86.7276059,107.07978 C97.0912439,101.835976 94.2940595,75.5578836 80.6873714,47.4817475" id="Path" stroke="#988086" stroke-width="6" stroke-linecap="round"></path>
            <path d="M69,56 C69,60.418278 65.418278,64 61,64 C56.581722,64 53,60.418278 53,56 C53,51.581722 56.581722,48 61,48 C65.418278,48 69,51.581722 69,56 Z" id="Path" fill="#988086" fill-rule="nonzero"></path>
        </g>
    </g>
</svg>