<svg width="600" height="300" viewBox="0 0 600 300" fill="none" xmlns="http://www.w3.org/2000/svg">
<rect width="600" height="300" fill="white"/>
<line x1="367.5" y1="177" x2="367.5" y2="91" stroke="#4267B2" stroke-width="3"/>
<path d="M488.413 178.414C489.194 177.633 489.194 176.367 488.413 175.586L475.685 162.858C474.904 162.077 473.638 162.077 472.857 162.858C472.076 163.639 472.076 164.905 472.857 165.686L484.17 177L472.857 188.314C472.076 189.095 472.076 190.361 472.857 191.142C473.638 191.923 474.904 191.923 475.685 191.142L488.413 178.414ZM114 179H486.999V175H114V179Z" fill="black"/>
<path d="M281.106 218.522C281.106 218.217 281.059 217.944 280.965 217.702C280.879 217.452 280.715 217.225 280.473 217.022C280.231 216.811 279.891 216.604 279.454 216.401C279.016 216.198 278.45 215.987 277.754 215.768C276.981 215.518 276.247 215.237 275.551 214.924C274.864 214.612 274.254 214.248 273.723 213.834C273.2 213.413 272.786 212.924 272.481 212.37C272.184 211.815 272.036 211.17 272.036 210.436C272.036 209.725 272.192 209.081 272.504 208.502C272.817 207.916 273.254 207.416 273.817 207.002C274.379 206.581 275.043 206.256 275.809 206.03C276.583 205.803 277.43 205.69 278.352 205.69C279.61 205.69 280.708 205.916 281.645 206.37C282.583 206.823 283.309 207.444 283.825 208.233C284.348 209.022 284.61 209.924 284.61 210.94H281.118C281.118 210.44 281.012 210.002 280.801 209.627C280.598 209.245 280.286 208.944 279.864 208.725C279.45 208.506 278.926 208.397 278.293 208.397C277.684 208.397 277.176 208.491 276.77 208.678C276.364 208.858 276.059 209.104 275.856 209.416C275.653 209.721 275.551 210.065 275.551 210.448C275.551 210.737 275.622 210.998 275.762 211.233C275.911 211.467 276.129 211.686 276.418 211.889C276.708 212.092 277.063 212.284 277.485 212.463C277.907 212.643 278.395 212.819 278.95 212.991C279.879 213.272 280.696 213.588 281.399 213.94C282.11 214.291 282.704 214.686 283.18 215.123C283.657 215.561 284.016 216.057 284.258 216.612C284.501 217.166 284.622 217.795 284.622 218.498C284.622 219.241 284.477 219.905 284.188 220.491C283.899 221.077 283.481 221.573 282.934 221.979C282.387 222.385 281.735 222.694 280.977 222.905C280.219 223.116 279.372 223.221 278.434 223.221C277.59 223.221 276.758 223.112 275.938 222.893C275.118 222.666 274.372 222.327 273.7 221.873C273.036 221.42 272.504 220.842 272.106 220.139C271.708 219.436 271.508 218.604 271.508 217.643H275.036C275.036 218.174 275.118 218.623 275.282 218.991C275.446 219.358 275.676 219.655 275.973 219.881C276.278 220.108 276.637 220.272 277.051 220.373C277.473 220.475 277.934 220.526 278.434 220.526C279.043 220.526 279.543 220.44 279.934 220.268C280.333 220.096 280.626 219.858 280.813 219.553C281.008 219.248 281.106 218.905 281.106 218.522ZM290.176 204.975V222.987H286.801V204.975H290.176ZM298.168 210.307L292.661 216.588L289.708 219.577L288.477 217.139L290.821 214.163L294.114 210.307H298.168ZM294.665 222.987L290.915 217.127L293.247 215.088L298.555 222.987H294.665ZM303.184 210.307V222.987H299.797V210.307H303.184ZM299.586 207.002C299.586 206.51 299.758 206.104 300.102 205.784C300.446 205.463 300.907 205.303 301.485 205.303C302.055 205.303 302.512 205.463 302.856 205.784C303.208 206.104 303.383 206.51 303.383 207.002C303.383 207.495 303.208 207.901 302.856 208.221C302.512 208.541 302.055 208.702 301.485 208.702C300.907 208.702 300.446 208.541 300.102 208.221C299.758 207.901 299.586 207.495 299.586 207.002ZM309.536 204.987V222.987H306.149V204.987H309.536ZM315.887 204.987V222.987H312.501V204.987H315.887ZM325.532 219.483C325.532 219.241 325.461 219.022 325.321 218.827C325.18 218.631 324.918 218.452 324.536 218.288C324.161 218.116 323.618 217.959 322.907 217.819C322.266 217.678 321.668 217.502 321.114 217.291C320.567 217.073 320.09 216.811 319.684 216.506C319.286 216.202 318.973 215.842 318.747 215.428C318.52 215.006 318.407 214.526 318.407 213.987C318.407 213.456 318.52 212.956 318.747 212.487C318.981 212.018 319.313 211.604 319.743 211.245C320.18 210.877 320.711 210.592 321.336 210.389C321.969 210.178 322.68 210.073 323.469 210.073C324.571 210.073 325.516 210.248 326.305 210.6C327.102 210.952 327.711 211.436 328.133 212.053C328.563 212.663 328.778 213.358 328.778 214.139H325.403C325.403 213.811 325.333 213.518 325.192 213.26C325.059 212.995 324.848 212.788 324.559 212.639C324.278 212.483 323.911 212.405 323.458 212.405C323.083 212.405 322.758 212.471 322.485 212.604C322.211 212.729 322.001 212.901 321.852 213.12C321.711 213.331 321.641 213.565 321.641 213.823C321.641 214.018 321.68 214.194 321.758 214.35C321.844 214.498 321.981 214.635 322.168 214.76C322.356 214.885 322.598 215.002 322.895 215.112C323.2 215.213 323.575 215.307 324.02 215.393C324.934 215.581 325.751 215.827 326.469 216.131C327.188 216.428 327.758 216.834 328.18 217.35C328.602 217.858 328.813 218.526 328.813 219.354C328.813 219.916 328.688 220.432 328.438 220.901C328.188 221.37 327.829 221.78 327.36 222.131C326.891 222.475 326.329 222.745 325.672 222.94C325.024 223.127 324.293 223.221 323.481 223.221C322.301 223.221 321.301 223.01 320.481 222.588C319.668 222.166 319.051 221.631 318.629 220.983C318.215 220.327 318.008 219.655 318.008 218.967H321.208C321.223 219.428 321.34 219.799 321.559 220.081C321.786 220.362 322.071 220.565 322.415 220.69C322.766 220.815 323.145 220.877 323.551 220.877C323.989 220.877 324.352 220.819 324.641 220.702C324.93 220.577 325.149 220.413 325.297 220.209C325.454 219.998 325.532 219.756 325.532 219.483Z" fill="black"/>
<path d="M317.73 44.293L321.129 29.9375H323.027L323.461 32.3281L319.84 47H317.801L317.73 44.293ZM315.984 29.9375L318.797 44.293L318.562 47H316.289L312.504 29.9375H315.984ZM326.449 44.2344L329.227 29.9375H332.707L328.934 47H326.66L326.449 44.2344ZM324.094 29.9375L327.516 44.3516L327.422 47H325.383L321.738 32.3164L322.207 29.9375H324.094ZM337.699 29V47H334.324V29H337.699ZM337.219 40.2148H336.293C336.301 39.332 336.418 38.5195 336.645 37.7773C336.871 37.0273 337.195 36.3789 337.617 35.832C338.039 35.2773 338.543 34.8477 339.129 34.543C339.723 34.2383 340.379 34.0859 341.098 34.0859C341.723 34.0859 342.289 34.1758 342.797 34.3555C343.312 34.5273 343.754 34.8086 344.121 35.1992C344.496 35.582 344.785 36.0859 344.988 36.7109C345.191 37.3359 345.293 38.0938 345.293 38.9844V47H341.895V38.9609C341.895 38.3984 341.812 37.957 341.648 37.6367C341.492 37.3086 341.262 37.0781 340.957 36.9453C340.66 36.8047 340.293 36.7344 339.855 36.7344C339.371 36.7344 338.957 36.8242 338.613 37.0039C338.277 37.1836 338.008 37.4336 337.805 37.7539C337.602 38.0664 337.453 38.4336 337.359 38.8555C337.266 39.2773 337.219 39.7305 337.219 40.2148ZM353.695 47.2344C352.711 47.2344 351.828 47.0781 351.047 46.7656C350.266 46.4453 349.602 46.0039 349.055 45.4414C348.516 44.8789 348.102 44.2266 347.812 43.4844C347.523 42.7344 347.379 41.9375 347.379 41.0938V40.625C347.379 39.6641 347.516 38.7852 347.789 37.9883C348.062 37.1914 348.453 36.5 348.961 35.9141C349.477 35.3281 350.102 34.8789 350.836 34.5664C351.57 34.2461 352.398 34.0859 353.32 34.0859C354.219 34.0859 355.016 34.2344 355.711 34.5312C356.406 34.8281 356.988 35.25 357.457 35.7969C357.934 36.3438 358.293 37 358.535 37.7656C358.777 38.5234 358.898 39.3672 358.898 40.2969V41.7031H348.82V39.4531H355.582V39.1953C355.582 38.7266 355.496 38.3086 355.324 37.9414C355.16 37.5664 354.91 37.2695 354.574 37.0508C354.238 36.832 353.809 36.7227 353.285 36.7227C352.84 36.7227 352.457 36.8203 352.137 37.0156C351.816 37.2109 351.555 37.4844 351.352 37.8359C351.156 38.1875 351.008 38.6016 350.906 39.0781C350.812 39.5469 350.766 40.0625 350.766 40.625V41.0938C350.766 41.6016 350.836 42.0703 350.977 42.5C351.125 42.9297 351.332 43.3008 351.598 43.6133C351.871 43.9258 352.199 44.168 352.582 44.3398C352.973 44.5117 353.414 44.5977 353.906 44.5977C354.516 44.5977 355.082 44.4805 355.605 44.2461C356.137 44.0039 356.594 43.6406 356.977 43.1562L358.617 44.9375C358.352 45.3203 357.988 45.6875 357.527 46.0391C357.074 46.3906 356.527 46.6797 355.887 46.9062C355.246 47.125 354.516 47.2344 353.695 47.2344ZM364.195 37.0859V47H360.82V34.3203H363.996L364.195 37.0859ZM368.016 34.2383L367.957 37.3672C367.793 37.3438 367.594 37.3242 367.359 37.3086C367.133 37.2852 366.926 37.2734 366.738 37.2734C366.262 37.2734 365.848 37.3359 365.496 37.4609C365.152 37.5781 364.863 37.7539 364.629 37.9883C364.402 38.2227 364.23 38.5078 364.113 38.8438C364.004 39.1797 363.941 39.5625 363.926 39.9922L363.246 39.7812C363.246 38.9609 363.328 38.207 363.492 37.5195C363.656 36.8242 363.895 36.2188 364.207 35.7031C364.527 35.1875 364.918 34.7891 365.379 34.5078C365.84 34.2266 366.367 34.0859 366.961 34.0859C367.148 34.0859 367.34 34.1016 367.535 34.1328C367.73 34.1562 367.891 34.1914 368.016 34.2383ZM375.211 47.2344C374.227 47.2344 373.344 47.0781 372.562 46.7656C371.781 46.4453 371.117 46.0039 370.57 45.4414C370.031 44.8789 369.617 44.2266 369.328 43.4844C369.039 42.7344 368.895 41.9375 368.895 41.0938V40.625C368.895 39.6641 369.031 38.7852 369.305 37.9883C369.578 37.1914 369.969 36.5 370.477 35.9141C370.992 35.3281 371.617 34.8789 372.352 34.5664C373.086 34.2461 373.914 34.0859 374.836 34.0859C375.734 34.0859 376.531 34.2344 377.227 34.5312C377.922 34.8281 378.504 35.25 378.973 35.7969C379.449 36.3438 379.809 37 380.051 37.7656C380.293 38.5234 380.414 39.3672 380.414 40.2969V41.7031H370.336V39.4531H377.098V39.1953C377.098 38.7266 377.012 38.3086 376.84 37.9414C376.676 37.5664 376.426 37.2695 376.09 37.0508C375.754 36.832 375.324 36.7227 374.801 36.7227C374.355 36.7227 373.973 36.8203 373.652 37.0156C373.332 37.2109 373.07 37.4844 372.867 37.8359C372.672 38.1875 372.523 38.6016 372.422 39.0781C372.328 39.5469 372.281 40.0625 372.281 40.625V41.0938C372.281 41.6016 372.352 42.0703 372.492 42.5C372.641 42.9297 372.848 43.3008 373.113 43.6133C373.387 43.9258 373.715 44.168 374.098 44.3398C374.488 44.5117 374.93 44.5977 375.422 44.5977C376.031 44.5977 376.598 44.4805 377.121 44.2461C377.652 44.0039 378.109 43.6406 378.492 43.1562L380.133 44.9375C379.867 45.3203 379.504 45.6875 379.043 46.0391C378.59 46.3906 378.043 46.6797 377.402 46.9062C376.762 47.125 376.031 47.2344 375.211 47.2344ZM392.074 45.5703L395.438 34.3203H399.059L393.961 48.9102C393.852 49.2305 393.703 49.5742 393.516 49.9414C393.336 50.3086 393.09 50.6562 392.777 50.9844C392.473 51.3203 392.086 51.5938 391.617 51.8047C391.156 52.0156 390.59 52.1211 389.918 52.1211C389.598 52.1211 389.336 52.1016 389.133 52.0625C388.93 52.0234 388.688 51.9688 388.406 51.8984V49.4258C388.492 49.4258 388.582 49.4258 388.676 49.4258C388.77 49.4336 388.859 49.4375 388.945 49.4375C389.391 49.4375 389.754 49.3867 390.035 49.2852C390.316 49.1836 390.543 49.0273 390.715 48.8164C390.887 48.6133 391.023 48.3477 391.125 48.0195L392.074 45.5703ZM390.668 34.3203L393.422 43.5078L393.902 47.082L391.605 47.3281L387.047 34.3203H390.668ZM399.68 40.7891V40.543C399.68 39.6133 399.812 38.7578 400.078 37.9766C400.344 37.1875 400.73 36.5039 401.238 35.9258C401.746 35.3477 402.371 34.8984 403.113 34.5781C403.855 34.25 404.707 34.0859 405.668 34.0859C406.629 34.0859 407.484 34.25 408.234 34.5781C408.984 34.8984 409.613 35.3477 410.121 35.9258C410.637 36.5039 411.027 37.1875 411.293 37.9766C411.559 38.7578 411.691 39.6133 411.691 40.543V40.7891C411.691 41.7109 411.559 42.5664 411.293 43.3555C411.027 44.1367 410.637 44.8203 410.121 45.4062C409.613 45.9844 408.988 46.4336 408.246 46.7539C407.504 47.0742 406.652 47.2344 405.691 47.2344C404.73 47.2344 403.875 47.0742 403.125 46.7539C402.383 46.4336 401.754 45.9844 401.238 45.4062C400.73 44.8203 400.344 44.1367 400.078 43.3555C399.812 42.5664 399.68 41.7109 399.68 40.7891ZM403.055 40.543V40.7891C403.055 41.3203 403.102 41.8164 403.195 42.2773C403.289 42.7383 403.438 43.1445 403.641 43.4961C403.852 43.8398 404.125 44.1094 404.461 44.3047C404.797 44.5 405.207 44.5977 405.691 44.5977C406.16 44.5977 406.562 44.5 406.898 44.3047C407.234 44.1094 407.504 43.8398 407.707 43.4961C407.91 43.1445 408.059 42.7383 408.152 42.2773C408.254 41.8164 408.305 41.3203 408.305 40.7891V40.543C408.305 40.0273 408.254 39.543 408.152 39.0898C408.059 38.6289 407.906 38.2227 407.695 37.8711C407.492 37.5117 407.223 37.2305 406.887 37.0273C406.551 36.8242 406.145 36.7227 405.668 36.7227C405.191 36.7227 404.785 36.8242 404.449 37.0273C404.121 37.2305 403.852 37.5117 403.641 37.8711C403.438 38.2227 403.289 38.6289 403.195 39.0898C403.102 39.543 403.055 40.0273 403.055 40.543ZM421.266 43.9648V34.3203H424.641V47H421.465L421.266 43.9648ZM421.641 41.3633L422.637 41.3398C422.637 42.1836 422.539 42.9688 422.344 43.6953C422.148 44.4141 421.855 45.0391 421.465 45.5703C421.074 46.0938 420.582 46.5039 419.988 46.8008C419.395 47.0898 418.695 47.2344 417.891 47.2344C417.273 47.2344 416.703 47.1484 416.18 46.9766C415.664 46.7969 415.219 46.5195 414.844 46.1445C414.477 45.7617 414.188 45.2734 413.977 44.6797C413.773 44.0781 413.672 43.3555 413.672 42.5117V34.3203H417.047V42.5352C417.047 42.9102 417.09 43.2266 417.176 43.4844C417.27 43.7422 417.398 43.9531 417.562 44.1172C417.727 44.2812 417.918 44.3984 418.137 44.4688C418.363 44.5391 418.613 44.5742 418.887 44.5742C419.582 44.5742 420.129 44.4336 420.527 44.1523C420.934 43.8711 421.219 43.4883 421.383 43.0039C421.555 42.5117 421.641 41.9648 421.641 41.3633ZM327.164 72.1406V66.4922C327.164 66.0859 327.098 65.7383 326.965 65.4492C326.832 65.1523 326.625 64.9219 326.344 64.7578C326.07 64.5938 325.715 64.5117 325.277 64.5117C324.902 64.5117 324.578 64.5781 324.305 64.7109C324.031 64.8359 323.82 65.0195 323.672 65.2617C323.523 65.4961 323.449 65.7734 323.449 66.0938H320.074C320.074 65.5547 320.199 65.043 320.449 64.5586C320.699 64.0742 321.062 63.6484 321.539 63.2812C322.016 62.9062 322.582 62.6133 323.238 62.4023C323.902 62.1914 324.645 62.0859 325.465 62.0859C326.449 62.0859 327.324 62.25 328.09 62.5781C328.855 62.9062 329.457 63.3984 329.895 64.0547C330.34 64.7109 330.562 65.5312 330.562 66.5156V71.9414C330.562 72.6367 330.605 73.207 330.691 73.6523C330.777 74.0898 330.902 74.4727 331.066 74.8008V75H327.656C327.492 74.6562 327.367 74.2266 327.281 73.7109C327.203 73.1875 327.164 72.6641 327.164 72.1406ZM327.609 67.2773L327.633 69.1875H325.746C325.301 69.1875 324.914 69.2383 324.586 69.3398C324.258 69.4414 323.988 69.5859 323.777 69.7734C323.566 69.9531 323.41 70.1641 323.309 70.4062C323.215 70.6484 323.168 70.9141 323.168 71.2031C323.168 71.4922 323.234 71.7539 323.367 71.9883C323.5 72.2148 323.691 72.3945 323.941 72.5273C324.191 72.6523 324.484 72.7148 324.82 72.7148C325.328 72.7148 325.77 72.6133 326.145 72.4102C326.52 72.207 326.809 71.957 327.012 71.6602C327.223 71.3633 327.332 71.082 327.34 70.8164L328.23 72.2461C328.105 72.5664 327.934 72.8984 327.715 73.2422C327.504 73.5859 327.234 73.9102 326.906 74.2148C326.578 74.5117 326.184 74.7578 325.723 74.9531C325.262 75.1406 324.715 75.2344 324.082 75.2344C323.277 75.2344 322.547 75.0742 321.891 74.7539C321.242 74.4258 320.727 73.9766 320.344 73.4062C319.969 72.8281 319.781 72.1719 319.781 71.4375C319.781 70.7734 319.906 70.1836 320.156 69.668C320.406 69.1523 320.773 68.7188 321.258 68.3672C321.75 68.0078 322.363 67.7383 323.098 67.5586C323.832 67.3711 324.684 67.2773 325.652 67.2773H327.609ZM336.539 65.0859V75H333.164V62.3203H336.34L336.539 65.0859ZM340.359 62.2383L340.301 65.3672C340.137 65.3438 339.938 65.3242 339.703 65.3086C339.477 65.2852 339.27 65.2734 339.082 65.2734C338.605 65.2734 338.191 65.3359 337.84 65.4609C337.496 65.5781 337.207 65.7539 336.973 65.9883C336.746 66.2227 336.574 66.5078 336.457 66.8438C336.348 67.1797 336.285 67.5625 336.27 67.9922L335.59 67.7812C335.59 66.9609 335.672 66.207 335.836 65.5195C336 64.8242 336.238 64.2188 336.551 63.7031C336.871 63.1875 337.262 62.7891 337.723 62.5078C338.184 62.2266 338.711 62.0859 339.305 62.0859C339.492 62.0859 339.684 62.1016 339.879 62.1328C340.074 62.1562 340.234 62.1914 340.359 62.2383ZM347.555 75.2344C346.57 75.2344 345.688 75.0781 344.906 74.7656C344.125 74.4453 343.461 74.0039 342.914 73.4414C342.375 72.8789 341.961 72.2266 341.672 71.4844C341.383 70.7344 341.238 69.9375 341.238 69.0938V68.625C341.238 67.6641 341.375 66.7852 341.648 65.9883C341.922 65.1914 342.312 64.5 342.82 63.9141C343.336 63.3281 343.961 62.8789 344.695 62.5664C345.43 62.2461 346.258 62.0859 347.18 62.0859C348.078 62.0859 348.875 62.2344 349.57 62.5312C350.266 62.8281 350.848 63.25 351.316 63.7969C351.793 64.3438 352.152 65 352.395 65.7656C352.637 66.5234 352.758 67.3672 352.758 68.2969V69.7031H342.68V67.4531H349.441V67.1953C349.441 66.7266 349.355 66.3086 349.184 65.9414C349.02 65.5664 348.77 65.2695 348.434 65.0508C348.098 64.832 347.668 64.7227 347.145 64.7227C346.699 64.7227 346.316 64.8203 345.996 65.0156C345.676 65.2109 345.414 65.4844 345.211 65.8359C345.016 66.1875 344.867 66.6016 344.766 67.0781C344.672 67.5469 344.625 68.0625 344.625 68.625V69.0938C344.625 69.6016 344.695 70.0703 344.836 70.5C344.984 70.9297 345.191 71.3008 345.457 71.6133C345.73 71.9258 346.059 72.168 346.441 72.3398C346.832 72.5117 347.273 72.5977 347.766 72.5977C348.375 72.5977 348.941 72.4805 349.465 72.2461C349.996 72.0039 350.453 71.6406 350.836 71.1562L352.477 72.9375C352.211 73.3203 351.848 73.6875 351.387 74.0391C350.934 74.3906 350.387 74.6797 349.746 74.9062C349.105 75.125 348.375 75.2344 347.555 75.2344ZM366.867 62.3203V64.7109H359.484V62.3203H366.867ZM361.312 59.1914H364.688V71.1797C364.688 71.5469 364.734 71.8281 364.828 72.0234C364.93 72.2188 365.078 72.3555 365.273 72.4336C365.469 72.5039 365.715 72.5391 366.012 72.5391C366.223 72.5391 366.41 72.5312 366.574 72.5156C366.746 72.4922 366.891 72.4688 367.008 72.4453L367.02 74.9297C366.73 75.0234 366.418 75.0977 366.082 75.1523C365.746 75.207 365.375 75.2344 364.969 75.2344C364.227 75.2344 363.578 75.1133 363.023 74.8711C362.477 74.6211 362.055 74.2227 361.758 73.6758C361.461 73.1289 361.312 72.4102 361.312 71.5195V59.1914ZM367.945 68.7891V68.543C367.945 67.6133 368.078 66.7578 368.344 65.9766C368.609 65.1875 368.996 64.5039 369.504 63.9258C370.012 63.3477 370.637 62.8984 371.379 62.5781C372.121 62.25 372.973 62.0859 373.934 62.0859C374.895 62.0859 375.75 62.25 376.5 62.5781C377.25 62.8984 377.879 63.3477 378.387 63.9258C378.902 64.5039 379.293 65.1875 379.559 65.9766C379.824 66.7578 379.957 67.6133 379.957 68.543V68.7891C379.957 69.7109 379.824 70.5664 379.559 71.3555C379.293 72.1367 378.902 72.8203 378.387 73.4062C377.879 73.9844 377.254 74.4336 376.512 74.7539C375.77 75.0742 374.918 75.2344 373.957 75.2344C372.996 75.2344 372.141 75.0742 371.391 74.7539C370.648 74.4336 370.02 73.9844 369.504 73.4062C368.996 72.8203 368.609 72.1367 368.344 71.3555C368.078 70.5664 367.945 69.7109 367.945 68.7891ZM371.32 68.543V68.7891C371.32 69.3203 371.367 69.8164 371.461 70.2773C371.555 70.7383 371.703 71.1445 371.906 71.4961C372.117 71.8398 372.391 72.1094 372.727 72.3047C373.062 72.5 373.473 72.5977 373.957 72.5977C374.426 72.5977 374.828 72.5 375.164 72.3047C375.5 72.1094 375.77 71.8398 375.973 71.4961C376.176 71.1445 376.324 70.7383 376.418 70.2773C376.52 69.8164 376.57 69.3203 376.57 68.7891V68.543C376.57 68.0273 376.52 67.543 376.418 67.0898C376.324 66.6289 376.172 66.2227 375.961 65.8711C375.758 65.5117 375.488 65.2305 375.152 65.0273C374.816 64.8242 374.41 64.7227 373.934 64.7227C373.457 64.7227 373.051 64.8242 372.715 65.0273C372.387 65.2305 372.117 65.5117 371.906 65.8711C371.703 66.2227 371.555 66.6289 371.461 67.0898C371.367 67.543 371.32 68.0273 371.32 68.543ZM389.52 72.2344V57H392.918V75H389.859L389.52 72.2344ZM381.504 68.8125V68.5664C381.504 67.5977 381.613 66.7188 381.832 65.9297C382.051 65.1328 382.371 64.4492 382.793 63.8789C383.215 63.3086 383.734 62.8672 384.352 62.5547C384.969 62.2422 385.672 62.0859 386.461 62.0859C387.203 62.0859 387.852 62.2422 388.406 62.5547C388.969 62.8672 389.445 63.3125 389.836 63.8906C390.234 64.4609 390.555 65.1367 390.797 65.918C391.039 66.6914 391.215 67.5391 391.324 68.4609V69C391.215 69.8828 391.039 70.7031 390.797 71.4609C390.555 72.2188 390.234 72.8828 389.836 73.4531C389.445 74.0156 388.969 74.4531 388.406 74.7656C387.844 75.0781 387.188 75.2344 386.438 75.2344C385.648 75.2344 384.945 75.0742 384.328 74.7539C383.719 74.4336 383.203 73.9844 382.781 73.4062C382.367 72.8281 382.051 72.1484 381.832 71.3672C381.613 70.5859 381.504 69.7344 381.504 68.8125ZM384.879 68.5664V68.8125C384.879 69.3359 384.918 69.8242 384.996 70.2773C385.082 70.7305 385.219 71.1328 385.406 71.4844C385.602 71.8281 385.852 72.0977 386.156 72.293C386.469 72.4805 386.848 72.5742 387.293 72.5742C387.871 72.5742 388.348 72.4453 388.723 72.1875C389.098 71.9219 389.383 71.5586 389.578 71.0977C389.781 70.6367 389.898 70.1055 389.93 69.5039V67.9688C389.906 67.4766 389.836 67.0352 389.719 66.6445C389.609 66.2461 389.445 65.9062 389.227 65.625C389.016 65.3438 388.75 65.125 388.43 64.9688C388.117 64.8125 387.746 64.7344 387.316 64.7344C386.879 64.7344 386.504 64.8359 386.191 65.0391C385.879 65.2344 385.625 65.5039 385.43 65.8477C385.242 66.1914 385.102 66.5977 385.008 67.0664C384.922 67.5273 384.879 68.0273 384.879 68.5664ZM402.398 72.1406V66.4922C402.398 66.0859 402.332 65.7383 402.199 65.4492C402.066 65.1523 401.859 64.9219 401.578 64.7578C401.305 64.5938 400.949 64.5117 400.512 64.5117C400.137 64.5117 399.812 64.5781 399.539 64.7109C399.266 64.8359 399.055 65.0195 398.906 65.2617C398.758 65.4961 398.684 65.7734 398.684 66.0938H395.309C395.309 65.5547 395.434 65.043 395.684 64.5586C395.934 64.0742 396.297 63.6484 396.773 63.2812C397.25 62.9062 397.816 62.6133 398.473 62.4023C399.137 62.1914 399.879 62.0859 400.699 62.0859C401.684 62.0859 402.559 62.25 403.324 62.5781C404.09 62.9062 404.691 63.3984 405.129 64.0547C405.574 64.7109 405.797 65.5312 405.797 66.5156V71.9414C405.797 72.6367 405.84 73.207 405.926 73.6523C406.012 74.0898 406.137 74.4727 406.301 74.8008V75H402.891C402.727 74.6562 402.602 74.2266 402.516 73.7109C402.438 73.1875 402.398 72.6641 402.398 72.1406ZM402.844 67.2773L402.867 69.1875H400.98C400.535 69.1875 400.148 69.2383 399.82 69.3398C399.492 69.4414 399.223 69.5859 399.012 69.7734C398.801 69.9531 398.645 70.1641 398.543 70.4062C398.449 70.6484 398.402 70.9141 398.402 71.2031C398.402 71.4922 398.469 71.7539 398.602 71.9883C398.734 72.2148 398.926 72.3945 399.176 72.5273C399.426 72.6523 399.719 72.7148 400.055 72.7148C400.562 72.7148 401.004 72.6133 401.379 72.4102C401.754 72.207 402.043 71.957 402.246 71.6602C402.457 71.3633 402.566 71.082 402.574 70.8164L403.465 72.2461C403.34 72.5664 403.168 72.8984 402.949 73.2422C402.738 73.5859 402.469 73.9102 402.141 74.2148C401.812 74.5117 401.418 74.7578 400.957 74.9531C400.496 75.1406 399.949 75.2344 399.316 75.2344C398.512 75.2344 397.781 75.0742 397.125 74.7539C396.477 74.4258 395.961 73.9766 395.578 73.4062C395.203 72.8281 395.016 72.1719 395.016 71.4375C395.016 70.7734 395.141 70.1836 395.391 69.668C395.641 69.1523 396.008 68.7188 396.492 68.3672C396.984 68.0078 397.598 67.7383 398.332 67.5586C399.066 67.3711 399.918 67.2773 400.887 67.2773H402.844ZM411.973 73.5703L415.336 62.3203H418.957L413.859 76.9102C413.75 77.2305 413.602 77.5742 413.414 77.9414C413.234 78.3086 412.988 78.6562 412.676 78.9844C412.371 79.3203 411.984 79.5938 411.516 79.8047C411.055 80.0156 410.488 80.1211 409.816 80.1211C409.496 80.1211 409.234 80.1016 409.031 80.0625C408.828 80.0234 408.586 79.9688 408.305 79.8984V77.4258C408.391 77.4258 408.48 77.4258 408.574 77.4258C408.668 77.4336 408.758 77.4375 408.844 77.4375C409.289 77.4375 409.652 77.3867 409.934 77.2852C410.215 77.1836 410.441 77.0273 410.613 76.8164C410.785 76.6133 410.922 76.3477 411.023 76.0195L411.973 73.5703ZM410.566 62.3203L413.32 71.5078L413.801 75.082L411.504 75.3281L406.945 62.3203H410.566Z" fill="#4267B2"/>
<path d="M174.645 109.938L179.074 118.504L183.516 109.938H186.082L180.199 120.625V127H177.938V120.625L172.055 109.938H174.645ZM186.598 120.801V120.531C186.598 119.617 186.73 118.77 186.996 117.988C187.262 117.199 187.645 116.516 188.145 115.938C188.645 115.352 189.25 114.898 189.961 114.578C190.672 114.25 191.469 114.086 192.352 114.086C193.242 114.086 194.043 114.25 194.754 114.578C195.473 114.898 196.082 115.352 196.582 115.938C197.09 116.516 197.477 117.199 197.742 117.988C198.008 118.77 198.141 119.617 198.141 120.531V120.801C198.141 121.715 198.008 122.562 197.742 123.344C197.477 124.125 197.09 124.809 196.582 125.395C196.082 125.973 195.477 126.426 194.766 126.754C194.062 127.074 193.266 127.234 192.375 127.234C191.484 127.234 190.684 127.074 189.973 126.754C189.262 126.426 188.652 125.973 188.145 125.395C187.645 124.809 187.262 124.125 186.996 123.344C186.73 122.562 186.598 121.715 186.598 120.801ZM188.766 120.531V120.801C188.766 121.434 188.84 122.031 188.988 122.594C189.137 123.148 189.359 123.641 189.656 124.07C189.961 124.5 190.34 124.84 190.793 125.09C191.246 125.332 191.773 125.453 192.375 125.453C192.969 125.453 193.488 125.332 193.934 125.09C194.387 124.84 194.762 124.5 195.059 124.07C195.355 123.641 195.578 123.148 195.727 122.594C195.883 122.031 195.961 121.434 195.961 120.801V120.531C195.961 119.906 195.883 119.316 195.727 118.762C195.578 118.199 195.352 117.703 195.047 117.273C194.75 116.836 194.375 116.492 193.922 116.242C193.477 115.992 192.953 115.867 192.352 115.867C191.758 115.867 191.234 115.992 190.781 116.242C190.336 116.492 189.961 116.836 189.656 117.273C189.359 117.703 189.137 118.199 188.988 118.762C188.84 119.316 188.766 119.906 188.766 120.531ZM208.617 124.07V114.32H210.797V127H208.723L208.617 124.07ZM209.027 121.398L209.93 121.375C209.93 122.219 209.84 123 209.66 123.719C209.488 124.43 209.207 125.047 208.816 125.57C208.426 126.094 207.914 126.504 207.281 126.801C206.648 127.09 205.879 127.234 204.973 127.234C204.355 127.234 203.789 127.145 203.273 126.965C202.766 126.785 202.328 126.508 201.961 126.133C201.594 125.758 201.309 125.27 201.105 124.668C200.91 124.066 200.812 123.344 200.812 122.5V114.32H202.98V122.523C202.98 123.094 203.043 123.566 203.168 123.941C203.301 124.309 203.477 124.602 203.695 124.82C203.922 125.031 204.172 125.18 204.445 125.266C204.727 125.352 205.016 125.395 205.312 125.395C206.234 125.395 206.965 125.219 207.504 124.867C208.043 124.508 208.43 124.027 208.664 123.426C208.906 122.816 209.027 122.141 209.027 121.398ZM216.27 116.312V127H214.102V114.32H216.211L216.27 116.312ZM220.23 114.25L220.219 116.266C220.039 116.227 219.867 116.203 219.703 116.195C219.547 116.18 219.367 116.172 219.164 116.172C218.664 116.172 218.223 116.25 217.84 116.406C217.457 116.562 217.133 116.781 216.867 117.062C216.602 117.344 216.391 117.68 216.234 118.07C216.086 118.453 215.988 118.875 215.941 119.336L215.332 119.688C215.332 118.922 215.406 118.203 215.555 117.531C215.711 116.859 215.949 116.266 216.27 115.75C216.59 115.227 216.996 114.82 217.488 114.531C217.988 114.234 218.582 114.086 219.27 114.086C219.426 114.086 219.605 114.105 219.809 114.145C220.012 114.176 220.152 114.211 220.23 114.25ZM230.355 116.758V131.875H228.176V114.32H230.168L230.355 116.758ZM238.898 120.555V120.801C238.898 121.723 238.789 122.578 238.57 123.367C238.352 124.148 238.031 124.828 237.609 125.406C237.195 125.984 236.684 126.434 236.074 126.754C235.465 127.074 234.766 127.234 233.977 127.234C233.172 127.234 232.461 127.102 231.844 126.836C231.227 126.57 230.703 126.184 230.273 125.676C229.844 125.168 229.5 124.559 229.242 123.848C228.992 123.137 228.82 122.336 228.727 121.445V120.133C228.82 119.195 228.996 118.355 229.254 117.613C229.512 116.871 229.852 116.238 230.273 115.715C230.703 115.184 231.223 114.781 231.832 114.508C232.441 114.227 233.145 114.086 233.941 114.086C234.738 114.086 235.445 114.242 236.062 114.555C236.68 114.859 237.199 115.297 237.621 115.867C238.043 116.438 238.359 117.121 238.57 117.918C238.789 118.707 238.898 119.586 238.898 120.555ZM236.719 120.801V120.555C236.719 119.922 236.652 119.328 236.52 118.773C236.387 118.211 236.18 117.719 235.898 117.297C235.625 116.867 235.273 116.531 234.844 116.289C234.414 116.039 233.902 115.914 233.309 115.914C232.762 115.914 232.285 116.008 231.879 116.195C231.48 116.383 231.141 116.637 230.859 116.957C230.578 117.27 230.348 117.629 230.168 118.035C229.996 118.434 229.867 118.848 229.781 119.277V122.312C229.938 122.859 230.156 123.375 230.438 123.859C230.719 124.336 231.094 124.723 231.562 125.02C232.031 125.309 232.621 125.453 233.332 125.453C233.918 125.453 234.422 125.332 234.844 125.09C235.273 124.84 235.625 124.5 235.898 124.07C236.18 123.641 236.387 123.148 236.52 122.594C236.652 122.031 236.719 121.434 236.719 120.801ZM241.09 120.801V120.531C241.09 119.617 241.223 118.77 241.488 117.988C241.754 117.199 242.137 116.516 242.637 115.938C243.137 115.352 243.742 114.898 244.453 114.578C245.164 114.25 245.961 114.086 246.844 114.086C247.734 114.086 248.535 114.25 249.246 114.578C249.965 114.898 250.574 115.352 251.074 115.938C251.582 116.516 251.969 117.199 252.234 117.988C252.5 118.77 252.633 119.617 252.633 120.531V120.801C252.633 121.715 252.5 122.562 252.234 123.344C251.969 124.125 251.582 124.809 251.074 125.395C250.574 125.973 249.969 126.426 249.258 126.754C248.555 127.074 247.758 127.234 246.867 127.234C245.977 127.234 245.176 127.074 244.465 126.754C243.754 126.426 243.145 125.973 242.637 125.395C242.137 124.809 241.754 124.125 241.488 123.344C241.223 122.562 241.09 121.715 241.09 120.801ZM243.258 120.531V120.801C243.258 121.434 243.332 122.031 243.48 122.594C243.629 123.148 243.852 123.641 244.148 124.07C244.453 124.5 244.832 124.84 245.285 125.09C245.738 125.332 246.266 125.453 246.867 125.453C247.461 125.453 247.98 125.332 248.426 125.09C248.879 124.84 249.254 124.5 249.551 124.07C249.848 123.641 250.07 123.148 250.219 122.594C250.375 122.031 250.453 121.434 250.453 120.801V120.531C250.453 119.906 250.375 119.316 250.219 118.762C250.07 118.199 249.844 117.703 249.539 117.273C249.242 116.836 248.867 116.492 248.414 116.242C247.969 115.992 247.445 115.867 246.844 115.867C246.25 115.867 245.727 115.992 245.273 116.242C244.828 116.492 244.453 116.836 244.148 117.273C243.852 117.703 243.629 118.199 243.48 118.762C243.332 119.316 243.258 119.906 243.258 120.531ZM260.66 114.32V115.984H253.805V114.32H260.66ZM256.125 111.238H258.293V123.859C258.293 124.289 258.359 124.613 258.492 124.832C258.625 125.051 258.797 125.195 259.008 125.266C259.219 125.336 259.445 125.371 259.688 125.371C259.867 125.371 260.055 125.355 260.25 125.324C260.453 125.285 260.605 125.254 260.707 125.23L260.719 127C260.547 127.055 260.32 127.105 260.039 127.152C259.766 127.207 259.434 127.234 259.043 127.234C258.512 127.234 258.023 127.129 257.578 126.918C257.133 126.707 256.777 126.355 256.512 125.863C256.254 125.363 256.125 124.691 256.125 123.848V111.238ZM268.465 127.234C267.582 127.234 266.781 127.086 266.062 126.789C265.352 126.484 264.738 126.059 264.223 125.512C263.715 124.965 263.324 124.316 263.051 123.566C262.777 122.816 262.641 121.996 262.641 121.105V120.613C262.641 119.582 262.793 118.664 263.098 117.859C263.402 117.047 263.816 116.359 264.34 115.797C264.863 115.234 265.457 114.809 266.121 114.52C266.785 114.23 267.473 114.086 268.184 114.086C269.09 114.086 269.871 114.242 270.527 114.555C271.191 114.867 271.734 115.305 272.156 115.867C272.578 116.422 272.891 117.078 273.094 117.836C273.297 118.586 273.398 119.406 273.398 120.297V121.27H263.93V119.5H271.23V119.336C271.199 118.773 271.082 118.227 270.879 117.695C270.684 117.164 270.371 116.727 269.941 116.383C269.512 116.039 268.926 115.867 268.184 115.867C267.691 115.867 267.238 115.973 266.824 116.184C266.41 116.387 266.055 116.691 265.758 117.098C265.461 117.504 265.23 118 265.066 118.586C264.902 119.172 264.82 119.848 264.82 120.613V121.105C264.82 121.707 264.902 122.273 265.066 122.805C265.238 123.328 265.484 123.789 265.805 124.188C266.133 124.586 266.527 124.898 266.988 125.125C267.457 125.352 267.988 125.465 268.582 125.465C269.348 125.465 269.996 125.309 270.527 124.996C271.059 124.684 271.523 124.266 271.922 123.742L273.234 124.785C272.961 125.199 272.613 125.594 272.191 125.969C271.77 126.344 271.25 126.648 270.633 126.883C270.023 127.117 269.301 127.234 268.465 127.234ZM278.098 117.027V127H275.93V114.32H277.98L278.098 117.027ZM277.582 120.18L276.68 120.145C276.688 119.277 276.816 118.477 277.066 117.742C277.316 117 277.668 116.355 278.121 115.809C278.574 115.262 279.113 114.84 279.738 114.543C280.371 114.238 281.07 114.086 281.836 114.086C282.461 114.086 283.023 114.172 283.523 114.344C284.023 114.508 284.449 114.773 284.801 115.141C285.16 115.508 285.434 115.984 285.621 116.57C285.809 117.148 285.902 117.855 285.902 118.691V127H283.723V118.668C283.723 118.004 283.625 117.473 283.43 117.074C283.234 116.668 282.949 116.375 282.574 116.195C282.199 116.008 281.738 115.914 281.191 115.914C280.652 115.914 280.16 116.027 279.715 116.254C279.277 116.48 278.898 116.793 278.578 117.191C278.266 117.59 278.02 118.047 277.84 118.562C277.668 119.07 277.582 119.609 277.582 120.18ZM294.504 114.32V115.984H287.648V114.32H294.504ZM289.969 111.238H292.137V123.859C292.137 124.289 292.203 124.613 292.336 124.832C292.469 125.051 292.641 125.195 292.852 125.266C293.062 125.336 293.289 125.371 293.531 125.371C293.711 125.371 293.898 125.355 294.094 125.324C294.297 125.285 294.449 125.254 294.551 125.23L294.562 127C294.391 127.055 294.164 127.105 293.883 127.152C293.609 127.207 293.277 127.234 292.887 127.234C292.355 127.234 291.867 127.129 291.422 126.918C290.977 126.707 290.621 126.355 290.355 125.863C290.098 125.363 289.969 124.691 289.969 123.848V111.238ZM299.402 114.32V127H297.223V114.32H299.402ZM297.059 110.957C297.059 110.605 297.164 110.309 297.375 110.066C297.594 109.824 297.914 109.703 298.336 109.703C298.75 109.703 299.066 109.824 299.285 110.066C299.512 110.309 299.625 110.605 299.625 110.957C299.625 111.293 299.512 111.582 299.285 111.824C299.066 112.059 298.75 112.176 298.336 112.176C297.914 112.176 297.594 112.059 297.375 111.824C297.164 111.582 297.059 111.293 297.059 110.957ZM310.359 124.832V118.305C310.359 117.805 310.258 117.371 310.055 117.004C309.859 116.629 309.562 116.34 309.164 116.137C308.766 115.934 308.273 115.832 307.688 115.832C307.141 115.832 306.66 115.926 306.246 116.113C305.84 116.301 305.52 116.547 305.285 116.852C305.059 117.156 304.945 117.484 304.945 117.836H302.777C302.777 117.383 302.895 116.934 303.129 116.488C303.363 116.043 303.699 115.641 304.137 115.281C304.582 114.914 305.113 114.625 305.73 114.414C306.355 114.195 307.051 114.086 307.816 114.086C308.738 114.086 309.551 114.242 310.254 114.555C310.965 114.867 311.52 115.34 311.918 115.973C312.324 116.598 312.527 117.383 312.527 118.328V124.234C312.527 124.656 312.562 125.105 312.633 125.582C312.711 126.059 312.824 126.469 312.973 126.812V127H310.711C310.602 126.75 310.516 126.418 310.453 126.004C310.391 125.582 310.359 125.191 310.359 124.832ZM310.734 119.312L310.758 120.836H308.566C307.949 120.836 307.398 120.887 306.914 120.988C306.43 121.082 306.023 121.227 305.695 121.422C305.367 121.617 305.117 121.863 304.945 122.16C304.773 122.449 304.688 122.789 304.688 123.18C304.688 123.578 304.777 123.941 304.957 124.27C305.137 124.598 305.406 124.859 305.766 125.055C306.133 125.242 306.582 125.336 307.113 125.336C307.777 125.336 308.363 125.195 308.871 124.914C309.379 124.633 309.781 124.289 310.078 123.883C310.383 123.477 310.547 123.082 310.57 122.699L311.496 123.742C311.441 124.07 311.293 124.434 311.051 124.832C310.809 125.23 310.484 125.613 310.078 125.98C309.68 126.34 309.203 126.641 308.648 126.883C308.102 127.117 307.484 127.234 306.797 127.234C305.938 127.234 305.184 127.066 304.535 126.73C303.895 126.395 303.395 125.945 303.035 125.383C302.684 124.812 302.508 124.176 302.508 123.473C302.508 122.793 302.641 122.195 302.906 121.68C303.172 121.156 303.555 120.723 304.055 120.379C304.555 120.027 305.156 119.762 305.859 119.582C306.562 119.402 307.348 119.312 308.215 119.312H310.734ZM318.293 109V127H316.113V109H318.293ZM209.578 144.312V155H207.41V142.32H209.52L209.578 144.312ZM213.539 142.25L213.527 144.266C213.348 144.227 213.176 144.203 213.012 144.195C212.855 144.18 212.676 144.172 212.473 144.172C211.973 144.172 211.531 144.25 211.148 144.406C210.766 144.562 210.441 144.781 210.176 145.062C209.91 145.344 209.699 145.68 209.543 146.07C209.395 146.453 209.297 146.875 209.25 147.336L208.641 147.688C208.641 146.922 208.715 146.203 208.863 145.531C209.02 144.859 209.258 144.266 209.578 143.75C209.898 143.227 210.305 142.82 210.797 142.531C211.297 142.234 211.891 142.086 212.578 142.086C212.734 142.086 212.914 142.105 213.117 142.145C213.32 142.176 213.461 142.211 213.539 142.25ZM220.57 155.234C219.688 155.234 218.887 155.086 218.168 154.789C217.457 154.484 216.844 154.059 216.328 153.512C215.82 152.965 215.43 152.316 215.156 151.566C214.883 150.816 214.746 149.996 214.746 149.105V148.613C214.746 147.582 214.898 146.664 215.203 145.859C215.508 145.047 215.922 144.359 216.445 143.797C216.969 143.234 217.562 142.809 218.227 142.52C218.891 142.23 219.578 142.086 220.289 142.086C221.195 142.086 221.977 142.242 222.633 142.555C223.297 142.867 223.84 143.305 224.262 143.867C224.684 144.422 224.996 145.078 225.199 145.836C225.402 146.586 225.504 147.406 225.504 148.297V149.27H216.035V147.5H223.336V147.336C223.305 146.773 223.188 146.227 222.984 145.695C222.789 145.164 222.477 144.727 222.047 144.383C221.617 144.039 221.031 143.867 220.289 143.867C219.797 143.867 219.344 143.973 218.93 144.184C218.516 144.387 218.16 144.691 217.863 145.098C217.566 145.504 217.336 146 217.172 146.586C217.008 147.172 216.926 147.848 216.926 148.613V149.105C216.926 149.707 217.008 150.273 217.172 150.805C217.344 151.328 217.59 151.789 217.91 152.188C218.238 152.586 218.633 152.898 219.094 153.125C219.562 153.352 220.094 153.465 220.688 153.465C221.453 153.465 222.102 153.309 222.633 152.996C223.164 152.684 223.629 152.266 224.027 151.742L225.34 152.785C225.066 153.199 224.719 153.594 224.297 153.969C223.875 154.344 223.355 154.648 222.738 154.883C222.129 155.117 221.406 155.234 220.57 155.234ZM235.512 152.832V146.305C235.512 145.805 235.41 145.371 235.207 145.004C235.012 144.629 234.715 144.34 234.316 144.137C233.918 143.934 233.426 143.832 232.84 143.832C232.293 143.832 231.812 143.926 231.398 144.113C230.992 144.301 230.672 144.547 230.438 144.852C230.211 145.156 230.098 145.484 230.098 145.836H227.93C227.93 145.383 228.047 144.934 228.281 144.488C228.516 144.043 228.852 143.641 229.289 143.281C229.734 142.914 230.266 142.625 230.883 142.414C231.508 142.195 232.203 142.086 232.969 142.086C233.891 142.086 234.703 142.242 235.406 142.555C236.117 142.867 236.672 143.34 237.07 143.973C237.477 144.598 237.68 145.383 237.68 146.328V152.234C237.68 152.656 237.715 153.105 237.785 153.582C237.863 154.059 237.977 154.469 238.125 154.812V155H235.863C235.754 154.75 235.668 154.418 235.605 154.004C235.543 153.582 235.512 153.191 235.512 152.832ZM235.887 147.312L235.91 148.836H233.719C233.102 148.836 232.551 148.887 232.066 148.988C231.582 149.082 231.176 149.227 230.848 149.422C230.52 149.617 230.27 149.863 230.098 150.16C229.926 150.449 229.84 150.789 229.84 151.18C229.84 151.578 229.93 151.941 230.109 152.27C230.289 152.598 230.559 152.859 230.918 153.055C231.285 153.242 231.734 153.336 232.266 153.336C232.93 153.336 233.516 153.195 234.023 152.914C234.531 152.633 234.934 152.289 235.23 151.883C235.535 151.477 235.699 151.082 235.723 150.699L236.648 151.742C236.594 152.07 236.445 152.434 236.203 152.832C235.961 153.23 235.637 153.613 235.23 153.98C234.832 154.34 234.355 154.641 233.801 154.883C233.254 155.117 232.637 155.234 231.949 155.234C231.09 155.234 230.336 155.066 229.688 154.73C229.047 154.395 228.547 153.945 228.188 153.383C227.836 152.812 227.66 152.176 227.66 151.473C227.66 150.793 227.793 150.195 228.059 149.68C228.324 149.156 228.707 148.723 229.207 148.379C229.707 148.027 230.309 147.762 231.012 147.582C231.715 147.402 232.5 147.312 233.367 147.312H235.887ZM249.082 152.539V137H251.262V155H249.27L249.082 152.539ZM240.551 148.801V148.555C240.551 147.586 240.668 146.707 240.902 145.918C241.145 145.121 241.484 144.438 241.922 143.867C242.367 143.297 242.895 142.859 243.504 142.555C244.121 142.242 244.809 142.086 245.566 142.086C246.363 142.086 247.059 142.227 247.652 142.508C248.254 142.781 248.762 143.184 249.176 143.715C249.598 144.238 249.93 144.871 250.172 145.613C250.414 146.355 250.582 147.195 250.676 148.133V149.211C250.59 150.141 250.422 150.977 250.172 151.719C249.93 152.461 249.598 153.094 249.176 153.617C248.762 154.141 248.254 154.543 247.652 154.824C247.051 155.098 246.348 155.234 245.543 155.234C244.801 155.234 244.121 155.074 243.504 154.754C242.895 154.434 242.367 153.984 241.922 153.406C241.484 152.828 241.145 152.148 240.902 151.367C240.668 150.578 240.551 149.723 240.551 148.801ZM242.73 148.555V148.801C242.73 149.434 242.793 150.027 242.918 150.582C243.051 151.137 243.254 151.625 243.527 152.047C243.801 152.469 244.148 152.801 244.57 153.043C244.992 153.277 245.496 153.395 246.082 153.395C246.801 153.395 247.391 153.242 247.852 152.938C248.32 152.633 248.695 152.23 248.977 151.73C249.258 151.23 249.477 150.688 249.633 150.102V147.277C249.539 146.848 249.402 146.434 249.223 146.035C249.051 145.629 248.824 145.27 248.543 144.957C248.27 144.637 247.93 144.383 247.523 144.195C247.125 144.008 246.652 143.914 246.105 143.914C245.512 143.914 245 144.039 244.57 144.289C244.148 144.531 243.801 144.867 243.527 145.297C243.254 145.719 243.051 146.211 242.918 146.773C242.793 147.328 242.73 147.922 242.73 148.555ZM259.898 155.234C259.016 155.234 258.215 155.086 257.496 154.789C256.785 154.484 256.172 154.059 255.656 153.512C255.148 152.965 254.758 152.316 254.484 151.566C254.211 150.816 254.074 149.996 254.074 149.105V148.613C254.074 147.582 254.227 146.664 254.531 145.859C254.836 145.047 255.25 144.359 255.773 143.797C256.297 143.234 256.891 142.809 257.555 142.52C258.219 142.23 258.906 142.086 259.617 142.086C260.523 142.086 261.305 142.242 261.961 142.555C262.625 142.867 263.168 143.305 263.59 143.867C264.012 144.422 264.324 145.078 264.527 145.836C264.73 146.586 264.832 147.406 264.832 148.297V149.27H255.363V147.5H262.664V147.336C262.633 146.773 262.516 146.227 262.312 145.695C262.117 145.164 261.805 144.727 261.375 144.383C260.945 144.039 260.359 143.867 259.617 143.867C259.125 143.867 258.672 143.973 258.258 144.184C257.844 144.387 257.488 144.691 257.191 145.098C256.895 145.504 256.664 146 256.5 146.586C256.336 147.172 256.254 147.848 256.254 148.613V149.105C256.254 149.707 256.336 150.273 256.5 150.805C256.672 151.328 256.918 151.789 257.238 152.188C257.566 152.586 257.961 152.898 258.422 153.125C258.891 153.352 259.422 153.465 260.016 153.465C260.781 153.465 261.43 153.309 261.961 152.996C262.492 152.684 262.957 152.266 263.355 151.742L264.668 152.785C264.395 153.199 264.047 153.594 263.625 153.969C263.203 154.344 262.684 154.648 262.066 154.883C261.457 155.117 260.734 155.234 259.898 155.234ZM269.531 144.312V155H267.363V142.32H269.473L269.531 144.312ZM273.492 142.25L273.48 144.266C273.301 144.227 273.129 144.203 272.965 144.195C272.809 144.18 272.629 144.172 272.426 144.172C271.926 144.172 271.484 144.25 271.102 144.406C270.719 144.562 270.395 144.781 270.129 145.062C269.863 145.344 269.652 145.68 269.496 146.07C269.348 146.453 269.25 146.875 269.203 147.336L268.594 147.688C268.594 146.922 268.668 146.203 268.816 145.531C268.973 144.859 269.211 144.266 269.531 143.75C269.852 143.227 270.258 142.82 270.75 142.531C271.25 142.234 271.844 142.086 272.531 142.086C272.688 142.086 272.867 142.105 273.07 142.145C273.273 142.176 273.414 142.211 273.492 142.25ZM282.879 151.637C282.879 151.324 282.809 151.035 282.668 150.77C282.535 150.496 282.258 150.25 281.836 150.031C281.422 149.805 280.797 149.609 279.961 149.445C279.258 149.297 278.621 149.121 278.051 148.918C277.488 148.715 277.008 148.469 276.609 148.18C276.219 147.891 275.918 147.551 275.707 147.16C275.496 146.77 275.391 146.312 275.391 145.789C275.391 145.289 275.5 144.816 275.719 144.371C275.945 143.926 276.262 143.531 276.668 143.188C277.082 142.844 277.578 142.574 278.156 142.379C278.734 142.184 279.379 142.086 280.09 142.086C281.105 142.086 281.973 142.266 282.691 142.625C283.41 142.984 283.961 143.465 284.344 144.066C284.727 144.66 284.918 145.32 284.918 146.047H282.75C282.75 145.695 282.645 145.355 282.434 145.027C282.23 144.691 281.93 144.414 281.531 144.195C281.141 143.977 280.66 143.867 280.09 143.867C279.488 143.867 279 143.961 278.625 144.148C278.258 144.328 277.988 144.559 277.816 144.84C277.652 145.121 277.57 145.418 277.57 145.73C277.57 145.965 277.609 146.176 277.688 146.363C277.773 146.543 277.922 146.711 278.133 146.867C278.344 147.016 278.641 147.156 279.023 147.289C279.406 147.422 279.895 147.555 280.488 147.688C281.527 147.922 282.383 148.203 283.055 148.531C283.727 148.859 284.227 149.262 284.555 149.738C284.883 150.215 285.047 150.793 285.047 151.473C285.047 152.027 284.93 152.535 284.695 152.996C284.469 153.457 284.137 153.855 283.699 154.191C283.27 154.52 282.754 154.777 282.152 154.965C281.559 155.145 280.891 155.234 280.148 155.234C279.031 155.234 278.086 155.035 277.312 154.637C276.539 154.238 275.953 153.723 275.555 153.09C275.156 152.457 274.957 151.789 274.957 151.086H277.137C277.168 151.68 277.34 152.152 277.652 152.504C277.965 152.848 278.348 153.094 278.801 153.242C279.254 153.383 279.703 153.453 280.148 153.453C280.742 153.453 281.238 153.375 281.637 153.219C282.043 153.062 282.352 152.848 282.562 152.574C282.773 152.301 282.879 151.988 282.879 151.637Z" fill="black"/>
</svg>
