<svg width="700" height="350" viewBox="0 0 700 350" fill="none" xmlns="http://www.w3.org/2000/svg">
<rect width="700" height="350" fill="white"/>
<rect x="97.5" y="180.5" width="119" height="69" rx="5.5" fill="white" stroke="black"/>
<path d="M139.759 208.616C139.627 209.744 139.209 210.616 138.506 211.231C137.808 211.841 136.878 212.146 135.716 212.146C134.456 212.146 133.445 211.695 132.684 210.792C131.927 209.888 131.548 208.68 131.548 207.166V206.141C131.548 205.149 131.724 204.278 132.076 203.526C132.432 202.774 132.935 202.198 133.584 201.797C134.234 201.392 134.986 201.189 135.84 201.189C136.973 201.189 137.881 201.507 138.565 202.142C139.249 202.771 139.646 203.646 139.759 204.764H138.345C138.223 203.914 137.957 203.299 137.547 202.918C137.142 202.537 136.573 202.347 135.84 202.347C134.942 202.347 134.236 202.679 133.724 203.343C133.216 204.007 132.962 204.952 132.962 206.177V207.21C132.962 208.367 133.204 209.288 133.687 209.971C134.17 210.655 134.847 210.997 135.716 210.997C136.497 210.997 137.095 210.821 137.51 210.469C137.93 210.113 138.208 209.495 138.345 208.616H139.759ZM141.114 207.964C141.114 207.188 141.265 206.49 141.568 205.87C141.875 205.25 142.3 204.771 142.842 204.434C143.389 204.097 144.012 203.929 144.71 203.929C145.789 203.929 146.661 204.302 147.325 205.049C147.994 205.796 148.328 206.79 148.328 208.03V208.125C148.328 208.897 148.179 209.59 147.881 210.206C147.588 210.816 147.166 211.292 146.614 211.634C146.067 211.976 145.438 212.146 144.725 212.146C143.65 212.146 142.779 211.773 142.11 211.026C141.446 210.279 141.114 209.29 141.114 208.06V207.964ZM142.476 208.125C142.476 209.004 142.679 209.71 143.084 210.242C143.494 210.774 144.041 211.041 144.725 211.041C145.413 211.041 145.96 210.772 146.365 210.235C146.771 209.693 146.973 208.936 146.973 207.964C146.973 207.095 146.766 206.392 146.351 205.855C145.94 205.313 145.394 205.042 144.71 205.042C144.041 205.042 143.501 205.308 143.091 205.84C142.681 206.373 142.476 207.134 142.476 208.125ZM151.309 204.075L151.353 205.071C151.958 204.31 152.75 203.929 153.726 203.929C155.401 203.929 156.246 204.874 156.26 206.763V212H154.905V206.756C154.9 206.185 154.769 205.762 154.51 205.489C154.256 205.215 153.858 205.079 153.316 205.079C152.876 205.079 152.491 205.196 152.159 205.43C151.827 205.665 151.568 205.972 151.382 206.353V212H150.027V204.075H151.309ZM160.142 202.156V204.075H161.622V205.123H160.142V210.037C160.142 210.354 160.208 210.594 160.34 210.755C160.472 210.911 160.696 210.989 161.014 210.989C161.17 210.989 161.385 210.96 161.658 210.901V212C161.302 212.098 160.955 212.146 160.618 212.146C160.013 212.146 159.556 211.963 159.249 211.597C158.941 211.231 158.787 210.711 158.787 210.037V205.123H157.344V204.075H158.787V202.156H160.142ZM166.5 212.146C165.425 212.146 164.551 211.795 163.877 211.092C163.204 210.384 162.867 209.439 162.867 208.257V208.008C162.867 207.222 163.016 206.521 163.313 205.906C163.616 205.286 164.036 204.803 164.573 204.456C165.115 204.104 165.701 203.929 166.331 203.929C167.361 203.929 168.162 204.268 168.733 204.947C169.305 205.625 169.59 206.597 169.59 207.862V208.426H164.222C164.241 209.207 164.468 209.839 164.903 210.323C165.342 210.801 165.899 211.041 166.573 211.041C167.051 211.041 167.457 210.943 167.789 210.748C168.121 210.552 168.411 210.293 168.66 209.971L169.488 210.616C168.824 211.636 167.828 212.146 166.5 212.146ZM166.331 205.042C165.784 205.042 165.325 205.242 164.954 205.643C164.583 206.038 164.354 206.595 164.266 207.312H168.235V207.21C168.196 206.521 168.011 205.989 167.679 205.613C167.347 205.232 166.897 205.042 166.331 205.042ZM172.447 204.075L172.491 205.071C173.096 204.31 173.887 203.929 174.864 203.929C176.539 203.929 177.383 204.874 177.398 206.763V212H176.043V206.756C176.038 206.185 175.906 205.762 175.647 205.489C175.394 205.215 174.996 205.079 174.454 205.079C174.014 205.079 173.628 205.196 173.296 205.43C172.964 205.665 172.706 205.972 172.52 206.353V212H171.165V204.075H172.447ZM181.28 202.156V204.075H182.759V205.123H181.28V210.037C181.28 210.354 181.346 210.594 181.478 210.755C181.609 210.911 181.834 210.989 182.151 210.989C182.308 210.989 182.522 210.96 182.796 210.901V212C182.439 212.098 182.093 212.146 181.756 212.146C181.15 212.146 180.694 211.963 180.386 211.597C180.079 211.231 179.925 210.711 179.925 210.037V205.123H178.482V204.075H179.925V202.156H181.28ZM117.618 225.671C117.618 224.568 117.764 223.508 118.057 222.493C118.355 221.477 118.797 220.554 119.383 219.724C119.969 218.894 120.577 218.308 121.207 217.966L121.485 218.86C120.772 219.407 120.186 220.242 119.727 221.365C119.273 222.488 119.024 223.745 118.98 225.137L118.973 225.759C118.973 227.644 119.317 229.28 120.005 230.667C120.42 231.497 120.914 232.146 121.485 232.615L121.207 233.442C120.557 233.081 119.937 232.476 119.346 231.626C118.194 229.966 117.618 227.981 117.618 225.671ZM124.825 219.336L128.311 228.037L131.797 219.336H133.621V230H132.215V225.847L132.347 221.365L128.846 230H127.769L124.275 221.387L124.415 225.847V230H123.008V219.336H124.825ZM140.784 230C140.706 229.844 140.643 229.565 140.594 229.165C139.964 229.819 139.212 230.146 138.338 230.146C137.557 230.146 136.915 229.927 136.412 229.487C135.914 229.043 135.665 228.481 135.665 227.803C135.665 226.978 135.977 226.338 136.602 225.884C137.232 225.425 138.116 225.195 139.253 225.195H140.572V224.573C140.572 224.099 140.43 223.723 140.147 223.445C139.864 223.162 139.446 223.02 138.895 223.02C138.411 223.02 138.006 223.142 137.679 223.386C137.352 223.63 137.188 223.926 137.188 224.272H135.826C135.826 223.877 135.965 223.496 136.243 223.13C136.526 222.759 136.907 222.466 137.386 222.251C137.869 222.036 138.399 221.929 138.975 221.929C139.888 221.929 140.604 222.158 141.121 222.617C141.639 223.071 141.907 223.699 141.927 224.5V228.147C141.927 228.875 142.02 229.453 142.205 229.883V230H140.784ZM138.536 228.967C138.96 228.967 139.363 228.857 139.744 228.638C140.125 228.418 140.401 228.132 140.572 227.781V226.155H139.51C137.85 226.155 137.02 226.641 137.02 227.612C137.02 228.037 137.161 228.369 137.444 228.608C137.728 228.848 138.091 228.967 138.536 228.967ZM147.881 223.291C147.676 223.257 147.454 223.24 147.215 223.24C146.326 223.24 145.723 223.618 145.406 224.375V230H144.051V222.075H145.369L145.391 222.991C145.835 222.283 146.465 221.929 147.281 221.929C147.544 221.929 147.745 221.963 147.881 222.031V223.291ZM151.346 226.331L150.496 227.217V230H149.141V218.75H150.496V225.554L151.221 224.683L153.689 222.075H155.337L152.254 225.386L155.696 230H154.107L151.346 226.331ZM156.26 225.972C156.26 224.756 156.548 223.779 157.125 223.042C157.701 222.3 158.455 221.929 159.388 221.929C160.315 221.929 161.05 222.246 161.592 222.881V218.75H162.947V230H161.702L161.636 229.15C161.094 229.814 160.34 230.146 159.373 230.146C158.455 230.146 157.706 229.771 157.125 229.019C156.548 228.267 156.26 227.285 156.26 226.074V225.972ZM157.615 226.125C157.615 227.024 157.801 227.727 158.172 228.235C158.543 228.743 159.056 228.997 159.71 228.997C160.569 228.997 161.197 228.611 161.592 227.839V224.199C161.187 223.452 160.564 223.079 159.725 223.079C159.061 223.079 158.543 223.335 158.172 223.848C157.801 224.36 157.615 225.12 157.615 226.125ZM164.698 225.964C164.698 225.188 164.849 224.49 165.152 223.87C165.459 223.25 165.884 222.771 166.426 222.434C166.973 222.097 167.596 221.929 168.294 221.929C169.373 221.929 170.245 222.302 170.909 223.049C171.578 223.796 171.912 224.79 171.912 226.03V226.125C171.912 226.897 171.763 227.59 171.465 228.206C171.172 228.816 170.75 229.292 170.198 229.634C169.651 229.976 169.021 230.146 168.309 230.146C167.234 230.146 166.363 229.773 165.694 229.026C165.03 228.279 164.698 227.29 164.698 226.06V225.964ZM166.06 226.125C166.06 227.004 166.263 227.71 166.668 228.242C167.078 228.774 167.625 229.041 168.309 229.041C168.997 229.041 169.544 228.772 169.949 228.235C170.354 227.693 170.557 226.936 170.557 225.964C170.557 225.095 170.35 224.392 169.935 223.855C169.524 223.313 168.978 223.042 168.294 223.042C167.625 223.042 167.085 223.308 166.675 223.84C166.265 224.373 166.06 225.134 166.06 226.125ZM180.628 228.132L182.151 222.075H183.506L181.199 230H180.101L178.174 223.994L176.299 230H175.201L172.901 222.075H174.249L175.809 228.008L177.654 222.075H178.746L180.628 228.132ZM186.172 222.075L186.216 223.071C186.822 222.31 187.613 221.929 188.589 221.929C190.264 221.929 191.109 222.874 191.124 224.763V230H189.769V224.756C189.764 224.185 189.632 223.762 189.373 223.489C189.119 223.215 188.721 223.079 188.179 223.079C187.74 223.079 187.354 223.196 187.022 223.43C186.69 223.665 186.431 223.972 186.246 224.353V230H184.891V222.075H186.172ZM196.294 225.745C196.294 226.833 196.15 227.878 195.862 228.879C195.579 229.875 195.142 230.796 194.551 231.641C193.965 232.485 193.35 233.086 192.706 233.442L192.42 232.615C193.172 232.039 193.775 231.145 194.229 229.934C194.688 228.718 194.922 227.371 194.932 225.891V225.657C194.932 224.631 194.825 223.679 194.61 222.8C194.395 221.917 194.095 221.125 193.709 220.427C193.328 219.729 192.898 219.185 192.42 218.794L192.706 217.966C193.35 218.323 193.963 218.918 194.544 219.753C195.13 220.588 195.567 221.509 195.855 222.515C196.148 223.521 196.294 224.597 196.294 225.745Z" fill="black"/>
<rect x="290.5" y="58.5" width="119" height="69" rx="5.5" fill="white" stroke="black"/>
<path d="M323.53 80.4932H320.103V90H318.704V80.4932H315.283V79.3359H323.53V80.4932ZM327.456 90.1465C326.382 90.1465 325.508 89.7949 324.834 89.0918C324.16 88.3838 323.823 87.439 323.823 86.2573V86.0083C323.823 85.2222 323.972 84.5215 324.27 83.9062C324.573 83.2861 324.993 82.8027 325.53 82.4561C326.072 82.1045 326.658 81.9287 327.288 81.9287C328.318 81.9287 329.119 82.2681 329.69 82.9468C330.261 83.6255 330.547 84.5972 330.547 85.8618V86.4258H325.178C325.198 87.207 325.425 87.8394 325.859 88.3228C326.299 88.8013 326.855 89.0405 327.529 89.0405C328.008 89.0405 328.413 88.9429 328.745 88.7476C329.077 88.5522 329.368 88.2935 329.617 87.9712L330.444 88.6157C329.78 89.6362 328.784 90.1465 327.456 90.1465ZM327.288 83.042C326.741 83.042 326.282 83.2422 325.911 83.6426C325.54 84.0381 325.31 84.5947 325.222 85.3125H329.192V85.21C329.153 84.5215 328.967 83.9893 328.635 83.6133C328.303 83.2324 327.854 83.042 327.288 83.042ZM333.396 82.0752L333.433 82.9541C334.014 82.2705 334.797 81.9287 335.784 81.9287C336.892 81.9287 337.646 82.3535 338.047 83.2031C338.311 82.8223 338.652 82.5146 339.072 82.2803C339.497 82.0459 339.998 81.9287 340.574 81.9287C342.312 81.9287 343.196 82.8491 343.225 84.6899V90H341.87V84.7705C341.87 84.2041 341.741 83.7817 341.482 83.5034C341.223 83.2202 340.789 83.0786 340.178 83.0786C339.675 83.0786 339.258 83.23 338.926 83.5327C338.594 83.8306 338.401 84.2334 338.347 84.7412V90H336.985V84.8071C336.985 83.6548 336.421 83.0786 335.293 83.0786C334.404 83.0786 333.796 83.457 333.469 84.2139V90H332.114V82.0752H333.396ZM351.97 86.1255C351.97 87.3315 351.694 88.3032 351.143 89.0405C350.591 89.7778 349.844 90.1465 348.901 90.1465C347.939 90.1465 347.183 89.8413 346.631 89.231V93.0469H345.276V82.0752H346.514L346.58 82.9541C347.131 82.2705 347.898 81.9287 348.879 81.9287C349.832 81.9287 350.583 82.2876 351.135 83.0054C351.692 83.7231 351.97 84.7217 351.97 86.001V86.1255ZM350.615 85.9717C350.615 85.0781 350.425 84.3726 350.044 83.855C349.663 83.3374 349.141 83.0786 348.477 83.0786C347.656 83.0786 347.041 83.4424 346.631 84.1699V87.9565C347.036 88.6792 347.656 89.0405 348.491 89.0405C349.141 89.0405 349.656 88.7842 350.037 88.2715C350.422 87.7539 350.615 86.9873 350.615 85.9717ZM355.171 90H353.816V78.75H355.171V90ZM362.239 90C362.161 89.8438 362.097 89.5654 362.048 89.165C361.418 89.8193 360.667 90.1465 359.792 90.1465C359.011 90.1465 358.369 89.9268 357.866 89.4873C357.368 89.043 357.119 88.4814 357.119 87.8027C357.119 86.9775 357.432 86.3379 358.057 85.8838C358.687 85.4248 359.57 85.1953 360.708 85.1953H362.026V84.5728C362.026 84.0991 361.885 83.7231 361.602 83.4448C361.318 83.1616 360.901 83.02 360.349 83.02C359.866 83.02 359.46 83.1421 359.133 83.3862C358.806 83.6304 358.643 83.9258 358.643 84.2725H357.28C357.28 83.877 357.419 83.4961 357.698 83.1299C357.981 82.7588 358.362 82.4658 358.84 82.251C359.324 82.0361 359.854 81.9287 360.43 81.9287C361.343 81.9287 362.058 82.1582 362.576 82.6172C363.093 83.0713 363.362 83.6987 363.381 84.4995V88.147C363.381 88.8745 363.474 89.4531 363.66 89.8828V90H362.239ZM359.99 88.9673C360.415 88.9673 360.818 88.8574 361.199 88.6377C361.58 88.418 361.855 88.1323 362.026 87.7808V86.1548H360.964C359.304 86.1548 358.474 86.6406 358.474 87.6123C358.474 88.0371 358.616 88.3691 358.899 88.6084C359.182 88.8477 359.546 88.9673 359.99 88.9673ZM367.344 80.1562V82.0752H368.823V83.1226H367.344V88.0371C367.344 88.3545 367.41 88.5938 367.542 88.7549C367.673 88.9111 367.898 88.9893 368.215 88.9893C368.372 88.9893 368.586 88.96 368.86 88.9014V90C368.503 90.0977 368.157 90.1465 367.82 90.1465C367.214 90.1465 366.758 89.9634 366.45 89.5972C366.143 89.231 365.989 88.7109 365.989 88.0371V83.1226H364.546V82.0752H365.989V80.1562H367.344ZM373.701 90.1465C372.627 90.1465 371.753 89.7949 371.079 89.0918C370.405 88.3838 370.068 87.439 370.068 86.2573V86.0083C370.068 85.2222 370.217 84.5215 370.515 83.9062C370.818 83.2861 371.238 82.8027 371.775 82.4561C372.317 82.1045 372.903 81.9287 373.533 81.9287C374.563 81.9287 375.364 82.2681 375.935 82.9468C376.506 83.6255 376.792 84.5972 376.792 85.8618V86.4258H371.423C371.443 87.207 371.67 87.8394 372.104 88.3228C372.544 88.8013 373.101 89.0405 373.774 89.0405C374.253 89.0405 374.658 88.9429 374.99 88.7476C375.322 88.5522 375.613 88.2935 375.862 87.9712L376.689 88.6157C376.025 89.6362 375.029 90.1465 373.701 90.1465ZM373.533 83.042C372.986 83.042 372.527 83.2422 372.156 83.6426C371.785 84.0381 371.555 84.5947 371.467 85.3125H375.437V85.21C375.398 84.5215 375.212 83.9893 374.88 83.6133C374.548 83.2324 374.099 83.042 373.533 83.042ZM382.981 87.8979C382.981 87.5317 382.842 87.2485 382.563 87.0483C382.29 86.8433 381.809 86.6675 381.121 86.521C380.437 86.3745 379.893 86.1987 379.487 85.9937C379.087 85.7886 378.789 85.5444 378.594 85.2612C378.403 84.978 378.308 84.6411 378.308 84.2505C378.308 83.6011 378.582 83.0518 379.128 82.6025C379.68 82.1533 380.383 81.9287 381.238 81.9287C382.136 81.9287 382.864 82.1606 383.42 82.6245C383.982 83.0884 384.263 83.6816 384.263 84.4043H382.9C382.9 84.0332 382.742 83.7134 382.424 83.4448C382.112 83.1763 381.716 83.042 381.238 83.042C380.745 83.042 380.359 83.1494 380.081 83.3643C379.802 83.5791 379.663 83.8599 379.663 84.2065C379.663 84.5337 379.792 84.7803 380.051 84.9463C380.31 85.1123 380.776 85.271 381.45 85.4224C382.129 85.5737 382.678 85.7544 383.098 85.9644C383.518 86.1743 383.828 86.4282 384.028 86.7261C384.233 87.019 384.336 87.3779 384.336 87.8027C384.336 88.5107 384.053 89.0796 383.486 89.5093C382.92 89.9341 382.185 90.1465 381.282 90.1465C380.647 90.1465 380.085 90.0342 379.597 89.8096C379.109 89.585 378.726 89.2725 378.447 88.8721C378.174 88.4668 378.037 88.0298 378.037 87.561H379.392C379.417 88.0151 379.597 88.3765 379.934 88.645C380.276 88.9087 380.725 89.0405 381.282 89.0405C381.794 89.0405 382.205 88.938 382.512 88.7329C382.825 88.5229 382.981 88.2446 382.981 87.8979ZM325.508 103.671C325.508 102.568 325.654 101.508 325.947 100.493C326.245 99.4771 326.687 98.5542 327.273 97.7241C327.859 96.894 328.467 96.3081 329.097 95.9663L329.375 96.8599C328.662 97.4067 328.076 98.2417 327.617 99.3647C327.163 100.488 326.914 101.745 326.87 103.137L326.863 103.759C326.863 105.644 327.207 107.28 327.896 108.667C328.311 109.497 328.804 110.146 329.375 110.615L329.097 111.442C328.447 111.081 327.827 110.476 327.236 109.626C326.084 107.966 325.508 105.981 325.508 103.671ZM339.094 108H337.681V103.071H332.305V108H330.898V97.3359H332.305V101.921H337.681V97.3359H339.094V108ZM348.74 98.4932H345.312V108H343.914V98.4932H340.493V97.3359H348.74V98.4932ZM352.139 97.3359L355.625 106.037L359.111 97.3359H360.935V108H359.529V103.847L359.661 99.3647L356.16 108H355.083L351.589 99.3867L351.729 103.847V108H350.322V97.3359H352.139ZM364.832 106.85H369.885V108H363.418V97.3359H364.832V106.85ZM374.404 103.745C374.404 104.833 374.26 105.878 373.972 106.879C373.689 107.875 373.252 108.796 372.661 109.641C372.075 110.485 371.46 111.086 370.815 111.442L370.53 110.615C371.282 110.039 371.885 109.145 372.339 107.934C372.798 106.718 373.032 105.371 373.042 103.891V103.657C373.042 102.631 372.935 101.679 372.72 100.8C372.505 99.9165 372.205 99.1255 371.819 98.4272C371.438 97.729 371.008 97.1846 370.53 96.7939L370.815 95.9663C371.46 96.3228 372.073 96.9185 372.654 97.7534C373.24 98.5884 373.677 99.5088 373.965 100.515C374.258 101.521 374.404 102.597 374.404 103.745Z" fill="black"/>
<rect x="483.5" y="180.5" width="119" height="69" rx="5.5" fill="white" stroke="black"/>
<path d="M513.623 207.247C512.417 206.9 511.538 206.475 510.986 205.972C510.439 205.464 510.166 204.839 510.166 204.097C510.166 203.257 510.5 202.564 511.169 202.017C511.843 201.465 512.717 201.189 513.791 201.189C514.523 201.189 515.175 201.331 515.747 201.614C516.323 201.897 516.767 202.288 517.08 202.786C517.397 203.284 517.556 203.829 517.556 204.419H516.142C516.142 203.775 515.937 203.27 515.527 202.903C515.117 202.532 514.538 202.347 513.791 202.347C513.098 202.347 512.556 202.5 512.165 202.808C511.779 203.111 511.586 203.533 511.586 204.075C511.586 204.51 511.77 204.878 512.136 205.181C512.507 205.479 513.134 205.752 514.018 206.001C514.907 206.25 515.6 206.526 516.098 206.829C516.601 207.127 516.972 207.476 517.211 207.876C517.456 208.277 517.578 208.748 517.578 209.29C517.578 210.154 517.241 210.848 516.567 211.37C515.893 211.888 514.992 212.146 513.864 212.146C513.132 212.146 512.448 212.007 511.813 211.729C511.179 211.446 510.688 211.06 510.341 210.572C510 210.083 509.829 209.529 509.829 208.909H511.242C511.242 209.554 511.479 210.064 511.953 210.44C512.431 210.811 513.068 210.997 513.864 210.997C514.606 210.997 515.175 210.845 515.571 210.542C515.966 210.24 516.164 209.827 516.164 209.305C516.164 208.782 515.981 208.379 515.615 208.096C515.249 207.808 514.584 207.525 513.623 207.247ZM521.013 202.156V204.075H522.492V205.123H521.013V210.037C521.013 210.354 521.079 210.594 521.21 210.755C521.342 210.911 521.567 210.989 521.884 210.989C522.041 210.989 522.255 210.96 522.529 210.901V212C522.172 212.098 521.826 212.146 521.489 212.146C520.883 212.146 520.427 211.963 520.119 211.597C519.812 211.231 519.658 210.711 519.658 210.037V205.123H518.215V204.075H519.658V202.156H521.013ZM528.974 212C528.896 211.844 528.833 211.565 528.784 211.165C528.154 211.819 527.402 212.146 526.528 212.146C525.747 212.146 525.104 211.927 524.602 211.487C524.104 211.043 523.854 210.481 523.854 209.803C523.854 208.978 524.167 208.338 524.792 207.884C525.422 207.425 526.306 207.195 527.443 207.195H528.762V206.573C528.762 206.099 528.62 205.723 528.337 205.445C528.054 205.162 527.636 205.02 527.084 205.02C526.601 205.02 526.196 205.142 525.869 205.386C525.542 205.63 525.378 205.926 525.378 206.272H524.016C524.016 205.877 524.155 205.496 524.433 205.13C524.716 204.759 525.097 204.466 525.576 204.251C526.059 204.036 526.589 203.929 527.165 203.929C528.078 203.929 528.793 204.158 529.311 204.617C529.829 205.071 530.097 205.699 530.117 206.5V210.147C530.117 210.875 530.209 211.453 530.395 211.883V212H528.974ZM526.726 210.967C527.15 210.967 527.553 210.857 527.934 210.638C528.315 210.418 528.591 210.132 528.762 209.781V208.155H527.7C526.04 208.155 525.209 208.641 525.209 209.612C525.209 210.037 525.351 210.369 525.634 210.608C525.917 210.848 526.281 210.967 526.726 210.967ZM534.079 202.156V204.075H535.559V205.123H534.079V210.037C534.079 210.354 534.145 210.594 534.277 210.755C534.409 210.911 534.633 210.989 534.951 210.989C535.107 210.989 535.322 210.96 535.595 210.901V212C535.239 212.098 534.892 212.146 534.555 212.146C533.95 212.146 533.493 211.963 533.186 211.597C532.878 211.231 532.724 210.711 532.724 210.037V205.123H531.281V204.075H532.724V202.156H534.079ZM538.62 212H537.265V204.075H538.62V212ZM537.155 201.973C537.155 201.753 537.221 201.568 537.353 201.417C537.49 201.265 537.69 201.189 537.954 201.189C538.217 201.189 538.417 201.265 538.554 201.417C538.691 201.568 538.759 201.753 538.759 201.973C538.759 202.193 538.691 202.376 538.554 202.522C538.417 202.669 538.217 202.742 537.954 202.742C537.69 202.742 537.49 202.669 537.353 202.522C537.221 202.376 537.155 202.193 537.155 201.973ZM543.974 211.041C544.458 211.041 544.88 210.894 545.241 210.601C545.603 210.308 545.803 209.942 545.842 209.502H547.124C547.099 209.957 546.943 210.389 546.655 210.799C546.367 211.209 545.981 211.536 545.498 211.78C545.019 212.024 544.511 212.146 543.974 212.146C542.895 212.146 542.036 211.788 541.396 211.07C540.761 210.347 540.444 209.361 540.444 208.111V207.884C540.444 207.112 540.585 206.426 540.869 205.826C541.152 205.225 541.557 204.759 542.084 204.427C542.617 204.095 543.244 203.929 543.967 203.929C544.855 203.929 545.593 204.195 546.179 204.727C546.77 205.259 547.084 205.95 547.124 206.8H545.842C545.803 206.287 545.607 205.867 545.256 205.54C544.909 205.208 544.479 205.042 543.967 205.042C543.278 205.042 542.744 205.291 542.363 205.789C541.987 206.282 541.799 206.998 541.799 207.935V208.191C541.799 209.104 541.987 209.808 542.363 210.301C542.739 210.794 543.276 211.041 543.974 211.041ZM555.722 207.247C554.516 206.9 553.637 206.475 553.085 205.972C552.539 205.464 552.265 204.839 552.265 204.097C552.265 203.257 552.6 202.564 553.269 202.017C553.942 201.465 554.816 201.189 555.891 201.189C556.623 201.189 557.275 201.331 557.846 201.614C558.422 201.897 558.867 202.288 559.179 202.786C559.497 203.284 559.655 203.829 559.655 204.419H558.242C558.242 203.775 558.037 203.27 557.626 202.903C557.216 202.532 556.638 202.347 555.891 202.347C555.197 202.347 554.655 202.5 554.265 202.808C553.879 203.111 553.686 203.533 553.686 204.075C553.686 204.51 553.869 204.878 554.235 205.181C554.606 205.479 555.234 205.752 556.118 206.001C557.006 206.25 557.7 206.526 558.198 206.829C558.701 207.127 559.072 207.476 559.311 207.876C559.555 208.277 559.677 208.748 559.677 209.29C559.677 210.154 559.34 210.848 558.667 211.37C557.993 211.888 557.092 212.146 555.964 212.146C555.231 212.146 554.548 212.007 553.913 211.729C553.278 211.446 552.788 211.06 552.441 210.572C552.099 210.083 551.928 209.529 551.928 208.909H553.342C553.342 209.554 553.579 210.064 554.052 210.44C554.531 210.811 555.168 210.997 555.964 210.997C556.706 210.997 557.275 210.845 557.67 210.542C558.066 210.24 558.264 209.827 558.264 209.305C558.264 208.782 558.081 208.379 557.714 208.096C557.348 207.808 556.684 207.525 555.722 207.247ZM562.746 212H561.391V204.075H562.746V212ZM561.281 201.973C561.281 201.753 561.347 201.568 561.479 201.417C561.616 201.265 561.816 201.189 562.08 201.189C562.343 201.189 562.543 201.265 562.68 201.417C562.817 201.568 562.885 201.753 562.885 201.973C562.885 202.193 562.817 202.376 562.68 202.522C562.543 202.669 562.343 202.742 562.08 202.742C561.816 202.742 561.616 202.669 561.479 202.522C561.347 202.376 561.281 202.193 561.281 201.973ZM566.76 202.156V204.075H568.239V205.123H566.76V210.037C566.76 210.354 566.826 210.594 566.958 210.755C567.089 210.911 567.314 210.989 567.631 210.989C567.788 210.989 568.002 210.96 568.276 210.901V212C567.919 212.098 567.573 212.146 567.236 212.146C566.63 212.146 566.174 211.963 565.866 211.597C565.559 211.231 565.405 210.711 565.405 210.037V205.123H563.962V204.075H565.405V202.156H566.76ZM573.117 212.146C572.043 212.146 571.169 211.795 570.495 211.092C569.821 210.384 569.484 209.439 569.484 208.257V208.008C569.484 207.222 569.633 206.521 569.931 205.906C570.234 205.286 570.654 204.803 571.191 204.456C571.733 204.104 572.319 203.929 572.949 203.929C573.979 203.929 574.78 204.268 575.351 204.947C575.922 205.625 576.208 206.597 576.208 207.862V208.426H570.839C570.859 209.207 571.086 209.839 571.521 210.323C571.96 210.801 572.517 211.041 573.19 211.041C573.669 211.041 574.074 210.943 574.406 210.748C574.738 210.552 575.029 210.293 575.278 209.971L576.105 210.616C575.441 211.636 574.445 212.146 573.117 212.146ZM572.949 205.042C572.402 205.042 571.943 205.242 571.572 205.643C571.201 206.038 570.971 206.595 570.883 207.312H574.853V207.21C574.814 206.521 574.628 205.989 574.296 205.613C573.964 205.232 573.515 205.042 572.949 205.042ZM518.508 225.671C518.508 224.568 518.654 223.508 518.947 222.493C519.245 221.477 519.687 220.554 520.273 219.724C520.859 218.894 521.467 218.308 522.097 217.966L522.375 218.86C521.662 219.407 521.076 220.242 520.617 221.365C520.163 222.488 519.914 223.745 519.87 225.137L519.863 225.759C519.863 227.644 520.207 229.28 520.896 230.667C521.311 231.497 521.804 232.146 522.375 232.615L522.097 233.442C521.447 233.081 520.827 232.476 520.236 231.626C519.084 229.966 518.508 227.981 518.508 225.671ZM532.094 230H530.681V225.071H525.305V230H523.898V219.336H525.305V223.921H530.681V219.336H532.094V230ZM541.74 220.493H538.312V230H536.914V220.493H533.493V219.336H541.74V220.493ZM545.139 219.336L548.625 228.037L552.111 219.336H553.935V230H552.529V225.847L552.661 221.365L549.16 230H548.083L544.589 221.387L544.729 225.847V230H543.322V219.336H545.139ZM557.832 228.85H562.885V230H556.418V219.336H557.832V228.85ZM567.404 225.745C567.404 226.833 567.26 227.878 566.972 228.879C566.689 229.875 566.252 230.796 565.661 231.641C565.075 232.485 564.46 233.086 563.815 233.442L563.53 232.615C564.282 232.039 564.885 231.145 565.339 229.934C565.798 228.718 566.032 227.371 566.042 225.891V225.657C566.042 224.631 565.935 223.679 565.72 222.8C565.505 221.917 565.205 221.125 564.819 220.427C564.438 219.729 564.008 219.185 563.53 218.794L563.815 217.966C564.46 218.323 565.073 218.918 565.654 219.753C566.24 220.588 566.677 221.509 566.965 222.515C567.258 223.521 567.404 224.597 567.404 225.745Z" fill="black"/>
<rect x="290.5" y="180.5" width="119" height="69" rx="5.5" fill="white" stroke="black"/>
<path d="M320.623 198.247C319.417 197.9 318.538 197.475 317.986 196.972C317.439 196.464 317.166 195.839 317.166 195.097C317.166 194.257 317.5 193.564 318.169 193.017C318.843 192.465 319.717 192.189 320.791 192.189C321.523 192.189 322.175 192.331 322.747 192.614C323.323 192.897 323.767 193.288 324.08 193.786C324.397 194.284 324.556 194.829 324.556 195.419H323.142C323.142 194.775 322.937 194.27 322.527 193.903C322.117 193.532 321.538 193.347 320.791 193.347C320.098 193.347 319.556 193.5 319.165 193.808C318.779 194.111 318.586 194.533 318.586 195.075C318.586 195.51 318.77 195.878 319.136 196.181C319.507 196.479 320.134 196.752 321.018 197.001C321.907 197.25 322.6 197.526 323.098 197.829C323.601 198.127 323.972 198.476 324.211 198.876C324.456 199.277 324.578 199.748 324.578 200.29C324.578 201.154 324.241 201.848 323.567 202.37C322.893 202.888 321.992 203.146 320.864 203.146C320.132 203.146 319.448 203.007 318.813 202.729C318.179 202.446 317.688 202.06 317.341 201.572C317 201.083 316.829 200.529 316.829 199.909H318.242C318.242 200.554 318.479 201.064 318.953 201.44C319.431 201.811 320.068 201.997 320.864 201.997C321.606 201.997 322.175 201.845 322.571 201.542C322.966 201.24 323.164 200.827 323.164 200.305C323.164 199.782 322.981 199.379 322.615 199.096C322.249 198.808 321.584 198.525 320.623 198.247ZM328.013 193.156V195.075H329.492V196.123H328.013V201.037C328.013 201.354 328.079 201.594 328.21 201.755C328.342 201.911 328.567 201.989 328.884 201.989C329.041 201.989 329.255 201.96 329.529 201.901V203C329.172 203.098 328.826 203.146 328.489 203.146C327.883 203.146 327.427 202.963 327.119 202.597C326.812 202.231 326.658 201.711 326.658 201.037V196.123H325.215V195.075H326.658V193.156H328.013ZM335.974 203C335.896 202.844 335.833 202.565 335.784 202.165C335.154 202.819 334.402 203.146 333.528 203.146C332.747 203.146 332.104 202.927 331.602 202.487C331.104 202.043 330.854 201.481 330.854 200.803C330.854 199.978 331.167 199.338 331.792 198.884C332.422 198.425 333.306 198.195 334.443 198.195H335.762V197.573C335.762 197.099 335.62 196.723 335.337 196.445C335.054 196.162 334.636 196.02 334.084 196.02C333.601 196.02 333.196 196.142 332.869 196.386C332.542 196.63 332.378 196.926 332.378 197.272H331.016C331.016 196.877 331.155 196.496 331.433 196.13C331.716 195.759 332.097 195.466 332.576 195.251C333.059 195.036 333.589 194.929 334.165 194.929C335.078 194.929 335.793 195.158 336.311 195.617C336.829 196.071 337.097 196.699 337.117 197.5V201.147C337.117 201.875 337.209 202.453 337.395 202.883V203H335.974ZM333.726 201.967C334.15 201.967 334.553 201.857 334.934 201.638C335.315 201.418 335.591 201.132 335.762 200.781V199.155H334.7C333.04 199.155 332.209 199.641 332.209 200.612C332.209 201.037 332.351 201.369 332.634 201.608C332.917 201.848 333.281 201.967 333.726 201.967ZM341.079 193.156V195.075H342.559V196.123H341.079V201.037C341.079 201.354 341.145 201.594 341.277 201.755C341.409 201.911 341.633 201.989 341.951 201.989C342.107 201.989 342.322 201.96 342.595 201.901V203C342.239 203.098 341.892 203.146 341.555 203.146C340.95 203.146 340.493 202.963 340.186 202.597C339.878 202.231 339.724 201.711 339.724 201.037V196.123H338.281V195.075H339.724V193.156H341.079ZM345.62 203H344.265V195.075H345.62V203ZM344.155 192.973C344.155 192.753 344.221 192.568 344.353 192.417C344.49 192.265 344.69 192.189 344.954 192.189C345.217 192.189 345.417 192.265 345.554 192.417C345.691 192.568 345.759 192.753 345.759 192.973C345.759 193.193 345.691 193.376 345.554 193.522C345.417 193.669 345.217 193.742 344.954 193.742C344.69 193.742 344.49 193.669 344.353 193.522C344.221 193.376 344.155 193.193 344.155 192.973ZM350.974 202.041C351.458 202.041 351.88 201.894 352.241 201.601C352.603 201.308 352.803 200.942 352.842 200.502H354.124C354.099 200.957 353.943 201.389 353.655 201.799C353.367 202.209 352.981 202.536 352.498 202.78C352.019 203.024 351.511 203.146 350.974 203.146C349.895 203.146 349.036 202.788 348.396 202.07C347.761 201.347 347.444 200.361 347.444 199.111V198.884C347.444 198.112 347.585 197.426 347.869 196.826C348.152 196.225 348.557 195.759 349.084 195.427C349.617 195.095 350.244 194.929 350.967 194.929C351.855 194.929 352.593 195.195 353.179 195.727C353.77 196.259 354.084 196.95 354.124 197.8H352.842C352.803 197.287 352.607 196.867 352.256 196.54C351.909 196.208 351.479 196.042 350.967 196.042C350.278 196.042 349.744 196.291 349.363 196.789C348.987 197.282 348.799 197.998 348.799 198.935V199.191C348.799 200.104 348.987 200.808 349.363 201.301C349.739 201.794 350.276 202.041 350.974 202.041ZM362.722 198.247C361.516 197.9 360.637 197.475 360.085 196.972C359.539 196.464 359.265 195.839 359.265 195.097C359.265 194.257 359.6 193.564 360.269 193.017C360.942 192.465 361.816 192.189 362.891 192.189C363.623 192.189 364.275 192.331 364.846 192.614C365.422 192.897 365.867 193.288 366.179 193.786C366.497 194.284 366.655 194.829 366.655 195.419H365.242C365.242 194.775 365.037 194.27 364.626 193.903C364.216 193.532 363.638 193.347 362.891 193.347C362.197 193.347 361.655 193.5 361.265 193.808C360.879 194.111 360.686 194.533 360.686 195.075C360.686 195.51 360.869 195.878 361.235 196.181C361.606 196.479 362.234 196.752 363.118 197.001C364.006 197.25 364.7 197.526 365.198 197.829C365.701 198.127 366.072 198.476 366.311 198.876C366.555 199.277 366.677 199.748 366.677 200.29C366.677 201.154 366.34 201.848 365.667 202.37C364.993 202.888 364.092 203.146 362.964 203.146C362.231 203.146 361.548 203.007 360.913 202.729C360.278 202.446 359.788 202.06 359.441 201.572C359.099 201.083 358.928 200.529 358.928 199.909H360.342C360.342 200.554 360.579 201.064 361.052 201.44C361.531 201.811 362.168 201.997 362.964 201.997C363.706 201.997 364.275 201.845 364.67 201.542C365.066 201.24 365.264 200.827 365.264 200.305C365.264 199.782 365.081 199.379 364.714 199.096C364.348 198.808 363.684 198.525 362.722 198.247ZM369.746 203H368.391V195.075H369.746V203ZM368.281 192.973C368.281 192.753 368.347 192.568 368.479 192.417C368.616 192.265 368.816 192.189 369.08 192.189C369.343 192.189 369.543 192.265 369.68 192.417C369.817 192.568 369.885 192.753 369.885 192.973C369.885 193.193 369.817 193.376 369.68 193.522C369.543 193.669 369.343 193.742 369.08 193.742C368.816 193.742 368.616 193.669 368.479 193.522C368.347 193.376 368.281 193.193 368.281 192.973ZM373.76 193.156V195.075H375.239V196.123H373.76V201.037C373.76 201.354 373.826 201.594 373.958 201.755C374.089 201.911 374.314 201.989 374.631 201.989C374.788 201.989 375.002 201.96 375.276 201.901V203C374.919 203.098 374.573 203.146 374.236 203.146C373.63 203.146 373.174 202.963 372.866 202.597C372.559 202.231 372.405 201.711 372.405 201.037V196.123H370.962V195.075H372.405V193.156H373.76ZM380.117 203.146C379.043 203.146 378.169 202.795 377.495 202.092C376.821 201.384 376.484 200.439 376.484 199.257V199.008C376.484 198.222 376.633 197.521 376.931 196.906C377.234 196.286 377.654 195.803 378.191 195.456C378.733 195.104 379.319 194.929 379.949 194.929C380.979 194.929 381.78 195.268 382.351 195.947C382.922 196.625 383.208 197.597 383.208 198.862V199.426H377.839C377.859 200.207 378.086 200.839 378.521 201.323C378.96 201.801 379.517 202.041 380.19 202.041C380.669 202.041 381.074 201.943 381.406 201.748C381.738 201.552 382.029 201.293 382.278 200.971L383.105 201.616C382.441 202.636 381.445 203.146 380.117 203.146ZM379.949 196.042C379.402 196.042 378.943 196.242 378.572 196.643C378.201 197.038 377.971 197.595 377.883 198.312H381.853V198.21C381.814 197.521 381.628 196.989 381.296 196.613C380.964 196.232 380.515 196.042 379.949 196.042ZM326.233 219.601C325.872 220.119 325.366 220.507 324.717 220.766C324.072 221.02 323.32 221.146 322.461 221.146C321.592 221.146 320.82 220.944 320.146 220.539C319.473 220.128 318.95 219.547 318.579 218.795C318.213 218.043 318.025 217.172 318.015 216.181V215.25C318.015 213.644 318.389 212.399 319.136 211.515C319.888 210.631 320.942 210.189 322.3 210.189C323.413 210.189 324.309 210.475 324.988 211.046C325.667 211.613 326.082 212.418 326.233 213.463H324.827C324.563 212.052 323.723 211.347 322.307 211.347C321.365 211.347 320.649 211.679 320.161 212.343C319.678 213.002 319.434 213.959 319.429 215.214V216.085C319.429 217.282 319.702 218.234 320.249 218.942C320.796 219.645 321.536 219.997 322.468 219.997C322.996 219.997 323.457 219.938 323.853 219.821C324.248 219.704 324.575 219.506 324.834 219.228V216.833H322.366V215.69H326.233V219.601ZM331.66 221.146C330.586 221.146 329.712 220.795 329.038 220.092C328.364 219.384 328.027 218.439 328.027 217.257V217.008C328.027 216.222 328.176 215.521 328.474 214.906C328.777 214.286 329.197 213.803 329.734 213.456C330.276 213.104 330.862 212.929 331.492 212.929C332.522 212.929 333.323 213.268 333.894 213.947C334.465 214.625 334.751 215.597 334.751 216.862V217.426H329.382C329.402 218.207 329.629 218.839 330.063 219.323C330.503 219.801 331.06 220.041 331.733 220.041C332.212 220.041 332.617 219.943 332.949 219.748C333.281 219.552 333.572 219.293 333.821 218.971L334.648 219.616C333.984 220.636 332.988 221.146 331.66 221.146ZM331.492 214.042C330.945 214.042 330.486 214.242 330.115 214.643C329.744 215.038 329.514 215.595 329.426 216.312H333.396V216.21C333.357 215.521 333.171 214.989 332.839 214.613C332.507 214.232 332.058 214.042 331.492 214.042ZM337.607 213.075L337.651 214.071C338.257 213.31 339.048 212.929 340.024 212.929C341.699 212.929 342.544 213.874 342.559 215.763V221H341.204V215.756C341.199 215.185 341.067 214.762 340.808 214.489C340.554 214.215 340.156 214.079 339.614 214.079C339.175 214.079 338.789 214.196 338.457 214.43C338.125 214.665 337.866 214.972 337.681 215.353V221H336.326V213.075H337.607ZM347.891 221.146C346.816 221.146 345.942 220.795 345.269 220.092C344.595 219.384 344.258 218.439 344.258 217.257V217.008C344.258 216.222 344.407 215.521 344.705 214.906C345.007 214.286 345.427 213.803 345.964 213.456C346.506 213.104 347.092 212.929 347.722 212.929C348.752 212.929 349.553 213.268 350.125 213.947C350.696 214.625 350.981 215.597 350.981 216.862V217.426H345.613C345.632 218.207 345.859 218.839 346.294 219.323C346.733 219.801 347.29 220.041 347.964 220.041C348.442 220.041 348.848 219.943 349.18 219.748C349.512 219.552 349.802 219.293 350.051 218.971L350.879 219.616C350.215 220.636 349.219 221.146 347.891 221.146ZM347.722 214.042C347.175 214.042 346.716 214.242 346.345 214.643C345.974 215.038 345.745 215.595 345.657 216.312H349.626V216.21C349.587 215.521 349.402 214.989 349.07 214.613C348.738 214.232 348.289 214.042 347.722 214.042ZM356.387 214.291C356.182 214.257 355.959 214.24 355.72 214.24C354.832 214.24 354.229 214.618 353.911 215.375V221H352.556V213.075H353.875L353.896 213.991C354.341 213.283 354.971 212.929 355.786 212.929C356.05 212.929 356.25 212.963 356.387 213.031V214.291ZM362.239 221C362.161 220.844 362.097 220.565 362.048 220.165C361.418 220.819 360.667 221.146 359.792 221.146C359.011 221.146 358.369 220.927 357.866 220.487C357.368 220.043 357.119 219.481 357.119 218.803C357.119 217.978 357.432 217.338 358.057 216.884C358.687 216.425 359.57 216.195 360.708 216.195H362.026V215.573C362.026 215.099 361.885 214.723 361.602 214.445C361.318 214.162 360.901 214.02 360.349 214.02C359.866 214.02 359.46 214.142 359.133 214.386C358.806 214.63 358.643 214.926 358.643 215.272H357.28C357.28 214.877 357.419 214.496 357.698 214.13C357.981 213.759 358.362 213.466 358.84 213.251C359.324 213.036 359.854 212.929 360.43 212.929C361.343 212.929 362.058 213.158 362.576 213.617C363.093 214.071 363.362 214.699 363.381 215.5V219.147C363.381 219.875 363.474 220.453 363.66 220.883V221H362.239ZM359.99 219.967C360.415 219.967 360.818 219.857 361.199 219.638C361.58 219.418 361.855 219.132 362.026 218.781V217.155H360.964C359.304 217.155 358.474 217.641 358.474 218.612C358.474 219.037 358.616 219.369 358.899 219.608C359.182 219.848 359.546 219.967 359.99 219.967ZM367.344 211.156V213.075H368.823V214.123H367.344V219.037C367.344 219.354 367.41 219.594 367.542 219.755C367.673 219.911 367.898 219.989 368.215 219.989C368.372 219.989 368.586 219.96 368.86 219.901V221C368.503 221.098 368.157 221.146 367.82 221.146C367.214 221.146 366.758 220.963 366.45 220.597C366.143 220.231 365.989 219.711 365.989 219.037V214.123H364.546V213.075H365.989V211.156H367.344ZM369.907 216.964C369.907 216.188 370.059 215.49 370.361 214.87C370.669 214.25 371.094 213.771 371.636 213.434C372.183 213.097 372.805 212.929 373.503 212.929C374.583 212.929 375.454 213.302 376.118 214.049C376.787 214.796 377.122 215.79 377.122 217.03V217.125C377.122 217.897 376.973 218.59 376.675 219.206C376.382 219.816 375.959 220.292 375.408 220.634C374.861 220.976 374.231 221.146 373.518 221.146C372.444 221.146 371.572 220.773 370.903 220.026C370.239 219.279 369.907 218.29 369.907 217.06V216.964ZM371.27 217.125C371.27 218.004 371.472 218.71 371.877 219.242C372.288 219.774 372.834 220.041 373.518 220.041C374.207 220.041 374.753 219.772 375.159 219.235C375.564 218.693 375.767 217.936 375.767 216.964C375.767 216.095 375.559 215.392 375.144 214.855C374.734 214.313 374.187 214.042 373.503 214.042C372.834 214.042 372.295 214.308 371.885 214.84C371.475 215.373 371.27 216.134 371.27 217.125ZM382.651 214.291C382.446 214.257 382.224 214.24 381.985 214.24C381.096 214.24 380.493 214.618 380.176 215.375V221H378.821V213.075H380.139L380.161 213.991C380.605 213.283 381.235 212.929 382.051 212.929C382.314 212.929 382.515 212.963 382.651 213.031V214.291ZM330.723 234.671C330.723 233.568 330.869 232.508 331.162 231.493C331.46 230.477 331.902 229.554 332.488 228.724C333.074 227.894 333.682 227.308 334.312 226.966L334.59 227.86C333.877 228.407 333.291 229.242 332.832 230.365C332.378 231.488 332.129 232.745 332.085 234.137L332.078 234.759C332.078 236.644 332.422 238.28 333.11 239.667C333.525 240.497 334.019 241.146 334.59 241.615L334.312 242.442C333.662 242.081 333.042 241.476 332.451 240.626C331.299 238.966 330.723 236.981 330.723 234.671ZM340.024 234.686H337.52V239H336.106V228.336H339.636C340.837 228.336 341.76 228.609 342.405 229.156C343.054 229.703 343.379 230.499 343.379 231.544C343.379 232.208 343.198 232.787 342.837 233.28C342.48 233.773 341.982 234.142 341.343 234.386L343.848 238.912V239H342.339L340.024 234.686ZM337.52 233.536H339.68C340.378 233.536 340.933 233.355 341.343 232.994C341.758 232.633 341.965 232.149 341.965 231.544C341.965 230.885 341.768 230.379 341.372 230.028C340.981 229.676 340.415 229.498 339.673 229.493H337.52V233.536ZM350.037 238.216C349.509 238.836 348.735 239.146 347.715 239.146C346.87 239.146 346.226 238.902 345.781 238.414C345.342 237.921 345.12 237.193 345.115 236.231V231.075H346.47V236.195C346.47 237.396 346.958 237.997 347.935 237.997C348.97 237.997 349.658 237.611 350 236.839V231.075H351.355V239H350.066L350.037 238.216ZM358.035 236.898C358.035 236.532 357.896 236.249 357.617 236.048C357.344 235.843 356.863 235.667 356.174 235.521C355.491 235.375 354.946 235.199 354.541 234.994C354.141 234.789 353.843 234.544 353.647 234.261C353.457 233.978 353.362 233.641 353.362 233.25C353.362 232.601 353.635 232.052 354.182 231.603C354.734 231.153 355.437 230.929 356.292 230.929C357.19 230.929 357.917 231.161 358.474 231.625C359.036 232.088 359.316 232.682 359.316 233.404H357.954C357.954 233.033 357.795 232.713 357.478 232.445C357.166 232.176 356.77 232.042 356.292 232.042C355.798 232.042 355.413 232.149 355.134 232.364C354.856 232.579 354.717 232.86 354.717 233.207C354.717 233.534 354.846 233.78 355.105 233.946C355.364 234.112 355.83 234.271 356.504 234.422C357.183 234.574 357.732 234.754 358.152 234.964C358.572 235.174 358.882 235.428 359.082 235.726C359.287 236.019 359.39 236.378 359.39 236.803C359.39 237.511 359.106 238.08 358.54 238.509C357.974 238.934 357.239 239.146 356.335 239.146C355.701 239.146 355.139 239.034 354.651 238.81C354.163 238.585 353.779 238.272 353.501 237.872C353.228 237.467 353.091 237.03 353.091 236.561H354.446C354.47 237.015 354.651 237.376 354.988 237.645C355.33 237.909 355.779 238.041 356.335 238.041C356.848 238.041 357.258 237.938 357.566 237.733C357.878 237.523 358.035 237.245 358.035 236.898ZM362.993 229.156V231.075H364.473V232.123H362.993V237.037C362.993 237.354 363.059 237.594 363.191 237.755C363.323 237.911 363.547 237.989 363.865 237.989C364.021 237.989 364.236 237.96 364.509 237.901V239C364.153 239.098 363.806 239.146 363.469 239.146C362.864 239.146 362.407 238.963 362.1 238.597C361.792 238.231 361.638 237.711 361.638 237.037V232.123H360.195V231.075H361.638V229.156H362.993ZM369.189 234.745C369.189 235.833 369.045 236.878 368.757 237.879C368.474 238.875 368.037 239.796 367.446 240.641C366.86 241.485 366.245 242.086 365.601 242.442L365.315 241.615C366.067 241.039 366.67 240.145 367.124 238.934C367.583 237.718 367.817 236.371 367.827 234.891V234.657C367.827 233.631 367.72 232.679 367.505 231.8C367.29 230.917 366.99 230.125 366.604 229.427C366.223 228.729 365.793 228.185 365.315 227.794L365.601 226.966C366.245 227.323 366.858 227.918 367.439 228.753C368.025 229.588 368.462 230.509 368.75 231.515C369.043 232.521 369.189 233.597 369.189 234.745Z" fill="black"/>
<path d="M290.711 216.207C291.101 215.817 291.101 215.183 290.711 214.793L284.347 208.429C283.956 208.038 283.323 208.038 282.932 208.429C282.542 208.819 282.542 209.453 282.932 209.843L288.589 215.5L282.932 221.157C282.542 221.547 282.542 222.181 282.932 222.571C283.323 222.962 283.956 222.962 284.347 222.571L290.711 216.207ZM216.997 216.5H290.003V214.5H216.997V216.5Z" fill="black"/>
<path d="M483.714 215.707C484.104 215.317 484.104 214.683 483.714 214.293L477.35 207.929C476.959 207.538 476.326 207.538 475.936 207.929C475.545 208.319 475.545 208.953 475.936 209.343L481.593 215L475.936 220.657C475.545 221.047 475.545 221.681 475.936 222.071C476.326 222.462 476.959 222.462 477.35 222.071L483.714 215.707ZM410 216H483.007V214H410V216Z" fill="black"/>
<path d="M349.293 180.707C349.683 181.098 350.317 181.098 350.707 180.707L357.071 174.343C357.462 173.953 357.462 173.319 357.071 172.929C356.681 172.538 356.047 172.538 355.657 172.929L350 178.586L344.343 172.929C343.953 172.538 343.319 172.538 342.929 172.929C342.538 173.319 342.538 173.953 342.929 174.343L349.293 180.707ZM349 128V180H351V128H349Z" fill="black"/>
</svg>
