<svg width="600" height="300" viewBox="0 0 600 300" fill="none" xmlns="http://www.w3.org/2000/svg">
<rect width="600" height="300" fill="white"/>
<path d="M386.869 258.719V260.662H379.32V258.719H386.869ZM379.926 252.781V267H377.475V252.781H379.926ZM388.754 252.781V267H386.312V252.781H388.754ZM393.959 256.434V267H391.596V256.434H393.959ZM391.439 253.66C391.439 253.302 391.557 253.006 391.791 252.771C392.032 252.531 392.364 252.41 392.787 252.41C393.204 252.41 393.533 252.531 393.773 252.771C394.014 253.006 394.135 253.302 394.135 253.66C394.135 254.012 394.014 254.305 393.773 254.539C393.533 254.773 393.204 254.891 392.787 254.891C392.364 254.891 392.032 254.773 391.791 254.539C391.557 254.305 391.439 254.012 391.439 253.66ZM403.305 256.434H405.443V266.707C405.443 267.658 405.242 268.465 404.838 269.129C404.434 269.793 403.871 270.298 403.148 270.643C402.426 270.994 401.589 271.17 400.639 271.17C400.235 271.17 399.786 271.111 399.291 270.994C398.803 270.877 398.327 270.688 397.865 270.428C397.41 270.174 397.029 269.839 396.723 269.422L397.826 268.035C398.204 268.484 398.62 268.813 399.076 269.021C399.532 269.23 400.01 269.334 400.512 269.334C401.052 269.334 401.511 269.233 401.889 269.031C402.273 268.836 402.569 268.546 402.777 268.162C402.986 267.778 403.09 267.309 403.09 266.756V258.826L403.305 256.434ZM396.127 261.834V261.629C396.127 260.828 396.225 260.099 396.42 259.441C396.615 258.777 396.895 258.208 397.26 257.732C397.624 257.251 398.067 256.883 398.588 256.629C399.109 256.368 399.698 256.238 400.355 256.238C401.039 256.238 401.622 256.362 402.104 256.609C402.592 256.857 402.999 257.212 403.324 257.674C403.65 258.13 403.904 258.676 404.086 259.314C404.275 259.946 404.415 260.649 404.506 261.424V262.078C404.421 262.833 404.278 263.523 404.076 264.148C403.874 264.773 403.607 265.314 403.275 265.77C402.943 266.225 402.533 266.577 402.045 266.824C401.563 267.072 400.993 267.195 400.336 267.195C399.691 267.195 399.109 267.062 398.588 266.795C398.074 266.528 397.631 266.154 397.26 265.672C396.895 265.19 396.615 264.624 396.42 263.973C396.225 263.315 396.127 262.602 396.127 261.834ZM398.48 261.629V261.834C398.48 262.316 398.526 262.765 398.617 263.182C398.715 263.598 398.861 263.966 399.057 264.285C399.258 264.598 399.512 264.845 399.818 265.027C400.131 265.203 400.499 265.291 400.922 265.291C401.475 265.291 401.928 265.174 402.279 264.939C402.637 264.705 402.911 264.389 403.1 263.992C403.295 263.589 403.432 263.139 403.51 262.645V260.877C403.471 260.493 403.389 260.135 403.266 259.803C403.148 259.471 402.989 259.181 402.787 258.934C402.585 258.68 402.331 258.484 402.025 258.348C401.719 258.204 401.358 258.133 400.941 258.133C400.518 258.133 400.15 258.224 399.838 258.406C399.525 258.589 399.268 258.839 399.066 259.158C398.871 259.477 398.725 259.848 398.627 260.271C398.529 260.695 398.48 261.147 398.48 261.629ZM410.209 252V267H407.865V252H410.209ZM409.799 261.326L409.037 261.316C409.044 260.587 409.145 259.913 409.34 259.295C409.542 258.676 409.822 258.139 410.18 257.684C410.544 257.221 410.98 256.867 411.488 256.619C411.996 256.365 412.559 256.238 413.178 256.238C413.699 256.238 414.167 256.31 414.584 256.453C415.007 256.596 415.372 256.827 415.678 257.146C415.984 257.459 416.215 257.869 416.371 258.377C416.534 258.878 416.615 259.49 416.615 260.213V267H414.252V260.193C414.252 259.686 414.177 259.282 414.027 258.982C413.884 258.683 413.673 258.468 413.393 258.338C413.113 258.201 412.771 258.133 412.367 258.133C411.944 258.133 411.57 258.217 411.244 258.387C410.925 258.556 410.658 258.787 410.443 259.08C410.229 259.373 410.066 259.712 409.955 260.096C409.851 260.48 409.799 260.89 409.799 261.326ZM433.52 265.057V267H425.971V265.057H433.52ZM426.664 252.781V267H424.213V252.781H426.664ZM432.533 258.719V260.633H425.971V258.719H432.533ZM433.471 252.781V254.734H425.971V252.781H433.471ZM437.621 258.689V267H435.268V256.434H437.484L437.621 258.689ZM437.201 261.326L436.439 261.316C436.446 260.568 436.55 259.881 436.752 259.256C436.96 258.631 437.247 258.094 437.611 257.645C437.982 257.195 438.425 256.85 438.939 256.609C439.454 256.362 440.027 256.238 440.658 256.238C441.166 256.238 441.625 256.31 442.035 256.453C442.452 256.59 442.807 256.814 443.1 257.127C443.399 257.439 443.627 257.846 443.783 258.348C443.939 258.842 444.018 259.451 444.018 260.174V267H441.654V260.164C441.654 259.656 441.579 259.256 441.43 258.963C441.286 258.663 441.075 258.452 440.795 258.328C440.521 258.198 440.18 258.133 439.77 258.133C439.366 258.133 439.005 258.217 438.686 258.387C438.367 258.556 438.096 258.787 437.875 259.08C437.66 259.373 437.494 259.712 437.377 260.096C437.26 260.48 437.201 260.89 437.201 261.326ZM451.264 256.434V258.152H445.307V256.434H451.264ZM447.025 253.846H449.379V264.08C449.379 264.406 449.424 264.656 449.516 264.832C449.613 265.001 449.747 265.115 449.916 265.174C450.085 265.232 450.284 265.262 450.512 265.262C450.674 265.262 450.831 265.252 450.98 265.232C451.13 265.213 451.251 265.193 451.342 265.174L451.352 266.971C451.156 267.029 450.928 267.081 450.668 267.127C450.414 267.173 450.121 267.195 449.789 267.195C449.249 267.195 448.77 267.101 448.354 266.912C447.937 266.717 447.611 266.401 447.377 265.965C447.143 265.529 447.025 264.949 447.025 264.227V253.846ZM455.443 258.445V267H453.09V256.434H455.336L455.443 258.445ZM458.676 256.365L458.656 258.553C458.513 258.527 458.357 258.507 458.188 258.494C458.025 258.481 457.862 258.475 457.699 258.475C457.296 258.475 456.941 258.533 456.635 258.65C456.329 258.761 456.072 258.924 455.863 259.139C455.661 259.347 455.505 259.601 455.395 259.9C455.284 260.2 455.219 260.535 455.199 260.906L454.662 260.945C454.662 260.281 454.727 259.666 454.857 259.1C454.988 258.533 455.183 258.035 455.443 257.605C455.71 257.176 456.042 256.84 456.439 256.6C456.843 256.359 457.309 256.238 457.836 256.238C457.979 256.238 458.132 256.251 458.295 256.277C458.464 256.303 458.591 256.333 458.676 256.365ZM459.447 261.834V261.609C459.447 260.848 459.558 260.141 459.779 259.49C460.001 258.833 460.32 258.263 460.736 257.781C461.16 257.293 461.674 256.915 462.279 256.648C462.891 256.375 463.581 256.238 464.35 256.238C465.124 256.238 465.814 256.375 466.42 256.648C467.032 256.915 467.549 257.293 467.973 257.781C468.396 258.263 468.718 258.833 468.939 259.49C469.161 260.141 469.271 260.848 469.271 261.609V261.834C469.271 262.596 469.161 263.302 468.939 263.953C468.718 264.604 468.396 265.174 467.973 265.662C467.549 266.144 467.035 266.521 466.43 266.795C465.824 267.062 465.137 267.195 464.369 267.195C463.594 267.195 462.901 267.062 462.289 266.795C461.684 266.521 461.169 266.144 460.746 265.662C460.323 265.174 460.001 264.604 459.779 263.953C459.558 263.302 459.447 262.596 459.447 261.834ZM461.801 261.609V261.834C461.801 262.309 461.85 262.758 461.947 263.182C462.045 263.605 462.198 263.976 462.406 264.295C462.615 264.614 462.882 264.865 463.207 265.047C463.533 265.229 463.92 265.32 464.369 265.32C464.805 265.32 465.183 265.229 465.502 265.047C465.827 264.865 466.094 264.614 466.303 264.295C466.511 263.976 466.664 263.605 466.762 263.182C466.866 262.758 466.918 262.309 466.918 261.834V261.609C466.918 261.141 466.866 260.698 466.762 260.281C466.664 259.858 466.508 259.484 466.293 259.158C466.085 258.833 465.818 258.579 465.492 258.396C465.173 258.208 464.792 258.113 464.35 258.113C463.907 258.113 463.523 258.208 463.197 258.396C462.878 258.579 462.615 258.833 462.406 259.158C462.198 259.484 462.045 259.858 461.947 260.281C461.85 260.698 461.801 261.141 461.801 261.609ZM473.607 258.465V271.062H471.254V256.434H473.422L473.607 258.465ZM480.492 261.619V261.824C480.492 262.592 480.401 263.305 480.219 263.963C480.043 264.614 479.779 265.184 479.428 265.672C479.083 266.154 478.656 266.528 478.148 266.795C477.641 267.062 477.055 267.195 476.391 267.195C475.733 267.195 475.157 267.075 474.662 266.834C474.174 266.587 473.76 266.238 473.422 265.789C473.083 265.34 472.81 264.812 472.602 264.207C472.4 263.595 472.257 262.924 472.172 262.195V261.404C472.257 260.63 472.4 259.926 472.602 259.295C472.81 258.663 473.083 258.12 473.422 257.664C473.76 257.208 474.174 256.857 474.662 256.609C475.15 256.362 475.72 256.238 476.371 256.238C477.035 256.238 477.624 256.368 478.139 256.629C478.653 256.883 479.086 257.247 479.438 257.723C479.789 258.191 480.053 258.758 480.229 259.422C480.404 260.079 480.492 260.812 480.492 261.619ZM478.139 261.824V261.619C478.139 261.131 478.093 260.678 478.002 260.262C477.911 259.839 477.768 259.467 477.572 259.148C477.377 258.829 477.126 258.582 476.82 258.406C476.521 258.224 476.16 258.133 475.736 258.133C475.32 258.133 474.962 258.204 474.662 258.348C474.363 258.484 474.112 258.676 473.91 258.924C473.708 259.171 473.552 259.461 473.441 259.793C473.331 260.118 473.253 260.473 473.207 260.857V262.752C473.285 263.221 473.419 263.65 473.607 264.041C473.796 264.432 474.063 264.744 474.408 264.979C474.76 265.206 475.209 265.32 475.756 265.32C476.179 265.32 476.54 265.229 476.84 265.047C477.139 264.865 477.383 264.614 477.572 264.295C477.768 263.969 477.911 263.595 478.002 263.172C478.093 262.749 478.139 262.299 478.139 261.824ZM485.443 265.848L488.314 256.434H490.834L486.596 268.611C486.498 268.872 486.371 269.155 486.215 269.461C486.059 269.767 485.854 270.057 485.6 270.33C485.352 270.61 485.043 270.835 484.672 271.004C484.301 271.18 483.852 271.268 483.324 271.268C483.116 271.268 482.914 271.248 482.719 271.209C482.53 271.176 482.351 271.141 482.182 271.102L482.172 269.305C482.237 269.311 482.315 269.318 482.406 269.324C482.504 269.331 482.582 269.334 482.641 269.334C483.031 269.334 483.357 269.285 483.617 269.188C483.878 269.096 484.089 268.947 484.252 268.738C484.421 268.53 484.564 268.25 484.682 267.898L485.443 265.848ZM483.822 256.434L486.332 264.344L486.752 266.824L485.121 267.244L481.283 256.434H483.822Z" fill="black"/>
<rect x="334.5" y="25.5" width="199" height="199" rx="1.5" fill="white" stroke="black"/>
<circle cx="348" cy="38" r="6" fill="#6366F1"/>
<circle cx="420" cy="50" r="6" fill="#6366F1"/>
<circle cx="440" cy="35" r="6" fill="#6366F1"/>
<circle cx="408" cy="68" r="6" fill="#6366F1"/>
<circle cx="509" cy="125" r="6" fill="#6366F1"/>
<circle cx="489" cy="40" r="6" fill="#6366F1"/>
<circle cx="459" cy="202" r="6" fill="#6366F1"/>
<circle cx="432" cy="113" r="6" fill="#6366F1"/>
<circle cx="384" cy="177" r="6" fill="#6366F1"/>
<circle cx="390" cy="35" r="6" fill="#6366F1"/>
<circle cx="459" cy="38" r="6" fill="#6366F1"/>
<circle cx="384" cy="131" r="6" fill="#6366F1"/>
<circle cx="497" cy="80" r="6" fill="#6366F1"/>
<circle cx="434" cy="80" r="6" fill="#6366F1"/>
<circle cx="462" cy="92" r="6" fill="#6366F1"/>
<circle cx="396" cy="86" r="6" fill="#6366F1"/>
<circle cx="366" cy="41" r="6" fill="#6366F1"/>
<circle cx="348" cy="159" r="6" fill="#6366F1"/>
<circle cx="477" cy="136" r="6" fill="#6366F1"/>
<circle cx="402" cy="113" r="6" fill="#6366F1"/>
<circle cx="483" cy="113" r="6" fill="#6366F1"/>
<circle cx="450" cy="142" r="6" fill="#6366F1"/>
<circle cx="471" cy="62" r="6" fill="#6366F1"/>
<circle cx="444" cy="208" r="6" fill="#6366F1"/>
<circle cx="351" cy="62" r="6" fill="#6366F1"/>
<circle cx="372" cy="80" r="6" fill="#6366F1"/>
<circle cx="372" cy="113" r="6" fill="#6366F1"/>
<circle cx="384" cy="214" r="6" fill="#6366F1"/>
<circle cx="444" cy="171" r="6" fill="#6366F1"/>
<circle cx="408" cy="142" r="6" fill="#6366F1"/>
<circle cx="477" cy="177" r="6" fill="#6366F1"/>
<circle cx="509" cy="56" r="6" fill="#6366F1"/>
<circle cx="348" cy="86" r="6" fill="#6366F1"/>
<circle cx="521" cy="98" r="6" fill="#6366F1"/>
<circle cx="348" cy="119" r="6" fill="#6366F1"/>
<circle cx="408" cy="177" r="6" fill="#6366F1"/>
<circle cx="503" cy="148" r="6" fill="#6366F1"/>
<circle cx="366" cy="156" r="6" fill="#6366F1"/>
<circle cx="515" cy="208" r="6" fill="#6366F1"/>
<circle cx="360" cy="196" r="6" fill="#6366F1"/>
<path d="M122.764 265.057V267H115.625V265.057H122.764ZM116.309 252.781V267H113.857V252.781H116.309ZM123.975 261.834V261.609C123.975 260.848 124.085 260.141 124.307 259.49C124.528 258.833 124.847 258.263 125.264 257.781C125.687 257.293 126.201 256.915 126.807 256.648C127.419 256.375 128.109 256.238 128.877 256.238C129.652 256.238 130.342 256.375 130.947 256.648C131.559 256.915 132.077 257.293 132.5 257.781C132.923 258.263 133.245 258.833 133.467 259.49C133.688 260.141 133.799 260.848 133.799 261.609V261.834C133.799 262.596 133.688 263.302 133.467 263.953C133.245 264.604 132.923 265.174 132.5 265.662C132.077 266.144 131.562 266.521 130.957 266.795C130.352 267.062 129.665 267.195 128.896 267.195C128.122 267.195 127.428 267.062 126.816 266.795C126.211 266.521 125.697 266.144 125.273 265.662C124.85 265.174 124.528 264.604 124.307 263.953C124.085 263.302 123.975 262.596 123.975 261.834ZM126.328 261.609V261.834C126.328 262.309 126.377 262.758 126.475 263.182C126.572 263.605 126.725 263.976 126.934 264.295C127.142 264.614 127.409 264.865 127.734 265.047C128.06 265.229 128.447 265.32 128.896 265.32C129.333 265.32 129.71 265.229 130.029 265.047C130.355 264.865 130.622 264.614 130.83 264.295C131.038 263.976 131.191 263.605 131.289 263.182C131.393 262.758 131.445 262.309 131.445 261.834V261.609C131.445 261.141 131.393 260.698 131.289 260.281C131.191 259.858 131.035 259.484 130.82 259.158C130.612 258.833 130.345 258.579 130.02 258.396C129.701 258.208 129.32 258.113 128.877 258.113C128.434 258.113 128.05 258.208 127.725 258.396C127.406 258.579 127.142 258.833 126.934 259.158C126.725 259.484 126.572 259.858 126.475 260.281C126.377 260.698 126.328 261.141 126.328 261.609ZM138.643 264.656L141.084 256.434H142.588L142.178 258.895L139.717 267H138.369L138.643 264.656ZM137.207 256.434L139.111 264.695L139.268 267H137.764L134.902 256.434H137.207ZM144.873 264.598L146.719 256.434H149.014L146.162 267H144.658L144.873 264.598ZM142.842 256.434L145.254 264.559L145.557 267H144.209L141.719 258.885L141.309 256.434H142.842ZM165.137 265.057V267H157.588V265.057H165.137ZM158.281 252.781V267H155.83V252.781H158.281ZM164.15 258.719V260.633H157.588V258.719H164.15ZM165.088 252.781V254.734H157.588V252.781H165.088ZM169.238 258.689V267H166.885V256.434H169.102L169.238 258.689ZM168.818 261.326L168.057 261.316C168.063 260.568 168.167 259.881 168.369 259.256C168.577 258.631 168.864 258.094 169.229 257.645C169.6 257.195 170.042 256.85 170.557 256.609C171.071 256.362 171.644 256.238 172.275 256.238C172.783 256.238 173.242 256.31 173.652 256.453C174.069 256.59 174.424 256.814 174.717 257.127C175.016 257.439 175.244 257.846 175.4 258.348C175.557 258.842 175.635 259.451 175.635 260.174V267H173.271V260.164C173.271 259.656 173.197 259.256 173.047 258.963C172.904 258.663 172.692 258.452 172.412 258.328C172.139 258.198 171.797 258.133 171.387 258.133C170.983 258.133 170.622 258.217 170.303 258.387C169.984 258.556 169.714 258.787 169.492 259.08C169.277 259.373 169.111 259.712 168.994 260.096C168.877 260.48 168.818 260.89 168.818 261.326ZM182.881 256.434V258.152H176.924V256.434H182.881ZM178.643 253.846H180.996V264.08C180.996 264.406 181.042 264.656 181.133 264.832C181.23 265.001 181.364 265.115 181.533 265.174C181.702 265.232 181.901 265.262 182.129 265.262C182.292 265.262 182.448 265.252 182.598 265.232C182.747 265.213 182.868 265.193 182.959 265.174L182.969 266.971C182.773 267.029 182.546 267.081 182.285 267.127C182.031 267.173 181.738 267.195 181.406 267.195C180.866 267.195 180.387 267.101 179.971 266.912C179.554 266.717 179.229 266.401 178.994 265.965C178.76 265.529 178.643 264.949 178.643 264.227V253.846ZM187.061 258.445V267H184.707V256.434H186.953L187.061 258.445ZM190.293 256.365L190.273 258.553C190.13 258.527 189.974 258.507 189.805 258.494C189.642 258.481 189.479 258.475 189.316 258.475C188.913 258.475 188.558 258.533 188.252 258.65C187.946 258.761 187.689 258.924 187.48 259.139C187.279 259.347 187.122 259.601 187.012 259.9C186.901 260.2 186.836 260.535 186.816 260.906L186.279 260.945C186.279 260.281 186.344 259.666 186.475 259.1C186.605 258.533 186.8 258.035 187.061 257.605C187.327 257.176 187.66 256.84 188.057 256.6C188.46 256.359 188.926 256.238 189.453 256.238C189.596 256.238 189.749 256.251 189.912 256.277C190.081 256.303 190.208 256.333 190.293 256.365ZM191.064 261.834V261.609C191.064 260.848 191.175 260.141 191.396 259.49C191.618 258.833 191.937 258.263 192.354 257.781C192.777 257.293 193.291 256.915 193.896 256.648C194.508 256.375 195.199 256.238 195.967 256.238C196.742 256.238 197.432 256.375 198.037 256.648C198.649 256.915 199.167 257.293 199.59 257.781C200.013 258.263 200.335 258.833 200.557 259.49C200.778 260.141 200.889 260.848 200.889 261.609V261.834C200.889 262.596 200.778 263.302 200.557 263.953C200.335 264.604 200.013 265.174 199.59 265.662C199.167 266.144 198.652 266.521 198.047 266.795C197.441 267.062 196.755 267.195 195.986 267.195C195.212 267.195 194.518 267.062 193.906 266.795C193.301 266.521 192.786 266.144 192.363 265.662C191.94 265.174 191.618 264.604 191.396 263.953C191.175 263.302 191.064 262.596 191.064 261.834ZM193.418 261.609V261.834C193.418 262.309 193.467 262.758 193.564 263.182C193.662 263.605 193.815 263.976 194.023 264.295C194.232 264.614 194.499 264.865 194.824 265.047C195.15 265.229 195.537 265.32 195.986 265.32C196.423 265.32 196.8 265.229 197.119 265.047C197.445 264.865 197.712 264.614 197.92 264.295C198.128 263.976 198.281 263.605 198.379 263.182C198.483 262.758 198.535 262.309 198.535 261.834V261.609C198.535 261.141 198.483 260.698 198.379 260.281C198.281 259.858 198.125 259.484 197.91 259.158C197.702 258.833 197.435 258.579 197.109 258.396C196.79 258.208 196.41 258.113 195.967 258.113C195.524 258.113 195.14 258.208 194.814 258.396C194.495 258.579 194.232 258.833 194.023 259.158C193.815 259.484 193.662 259.858 193.564 260.281C193.467 260.698 193.418 261.141 193.418 261.609ZM205.225 258.465V271.062H202.871V256.434H205.039L205.225 258.465ZM212.109 261.619V261.824C212.109 262.592 212.018 263.305 211.836 263.963C211.66 264.614 211.396 265.184 211.045 265.672C210.7 266.154 210.273 266.528 209.766 266.795C209.258 267.062 208.672 267.195 208.008 267.195C207.35 267.195 206.774 267.075 206.279 266.834C205.791 266.587 205.378 266.238 205.039 265.789C204.701 265.34 204.427 264.812 204.219 264.207C204.017 263.595 203.874 262.924 203.789 262.195V261.404C203.874 260.63 204.017 259.926 204.219 259.295C204.427 258.663 204.701 258.12 205.039 257.664C205.378 257.208 205.791 256.857 206.279 256.609C206.768 256.362 207.337 256.238 207.988 256.238C208.652 256.238 209.242 256.368 209.756 256.629C210.27 256.883 210.703 257.247 211.055 257.723C211.406 258.191 211.67 258.758 211.846 259.422C212.021 260.079 212.109 260.812 212.109 261.619ZM209.756 261.824V261.619C209.756 261.131 209.71 260.678 209.619 260.262C209.528 259.839 209.385 259.467 209.189 259.148C208.994 258.829 208.743 258.582 208.438 258.406C208.138 258.224 207.777 258.133 207.354 258.133C206.937 258.133 206.579 258.204 206.279 258.348C205.98 258.484 205.729 258.676 205.527 258.924C205.326 259.171 205.169 259.461 205.059 259.793C204.948 260.118 204.87 260.473 204.824 260.857V262.752C204.902 263.221 205.036 263.65 205.225 264.041C205.413 264.432 205.68 264.744 206.025 264.979C206.377 265.206 206.826 265.32 207.373 265.32C207.796 265.32 208.158 265.229 208.457 265.047C208.757 264.865 209.001 264.614 209.189 264.295C209.385 263.969 209.528 263.595 209.619 263.172C209.71 262.749 209.756 262.299 209.756 261.824ZM217.061 265.848L219.932 256.434H222.451L218.213 268.611C218.115 268.872 217.988 269.155 217.832 269.461C217.676 269.767 217.471 270.057 217.217 270.33C216.969 270.61 216.66 270.835 216.289 271.004C215.918 271.18 215.469 271.268 214.941 271.268C214.733 271.268 214.531 271.248 214.336 271.209C214.147 271.176 213.968 271.141 213.799 271.102L213.789 269.305C213.854 269.311 213.932 269.318 214.023 269.324C214.121 269.331 214.199 269.334 214.258 269.334C214.648 269.334 214.974 269.285 215.234 269.188C215.495 269.096 215.706 268.947 215.869 268.738C216.038 268.53 216.182 268.25 216.299 267.898L217.061 265.848ZM215.439 256.434L217.949 264.344L218.369 266.824L216.738 267.244L212.9 256.434H215.439Z" fill="black"/>
<rect x="67.5" y="25.5" width="199" height="199" rx="1.5" fill="white" stroke="black"/>
<circle cx="74" cy="32" r="6" fill="#6366F1"/>
<circle cx="86" cy="32" r="6" fill="#6366F1"/>
<circle cx="98" cy="32" r="6" fill="#6366F1"/>
<circle cx="110" cy="32" r="6" fill="#6366F1"/>
<circle cx="122" cy="32" r="6" fill="#6366F1"/>
<circle cx="134" cy="32" r="6" fill="#6366F1"/>
<circle cx="146" cy="32" r="6" fill="#6366F1"/>
<circle cx="158" cy="32" r="6" fill="#6366F1"/>
<circle cx="74" cy="44" r="6" fill="#6366F1"/>
<circle cx="86" cy="44" r="6" fill="#6366F1"/>
<circle cx="98" cy="44" r="6" fill="#6366F1"/>
<circle cx="110" cy="44" r="6" fill="#6366F1"/>
<circle cx="122" cy="44" r="6" fill="#6366F1"/>
<circle cx="134" cy="44" r="6" fill="#6366F1"/>
<circle cx="146" cy="44" r="6" fill="#6366F1"/>
<circle cx="158" cy="44" r="6" fill="#6366F1"/>
<circle cx="74" cy="56" r="6" fill="#6366F1"/>
<circle cx="86" cy="56" r="6" fill="#6366F1"/>
<circle cx="98" cy="56" r="6" fill="#6366F1"/>
<circle cx="110" cy="56" r="6" fill="#6366F1"/>
<circle cx="122" cy="56" r="6" fill="#6366F1"/>
<circle cx="134" cy="56" r="6" fill="#6366F1"/>
<circle cx="146" cy="56" r="6" fill="#6366F1"/>
<circle cx="158" cy="56" r="6" fill="#6366F1"/>
<circle cx="74" cy="68" r="6" fill="#6366F1"/>
<circle cx="86" cy="68" r="6" fill="#6366F1"/>
<circle cx="98" cy="68" r="6" fill="#6366F1"/>
<circle cx="110" cy="68" r="6" fill="#6366F1"/>
<circle cx="122" cy="68" r="6" fill="#6366F1"/>
<circle cx="134" cy="68" r="6" fill="#6366F1"/>
<circle cx="146" cy="68" r="6" fill="#6366F1"/>
<circle cx="158" cy="68" r="6" fill="#6366F1"/>
<circle cx="74" cy="80" r="6" fill="#6366F1"/>
<circle cx="86" cy="80" r="6" fill="#6366F1"/>
<circle cx="98" cy="80" r="6" fill="#6366F1"/>
<circle cx="110" cy="80" r="6" fill="#6366F1"/>
<circle cx="122" cy="80" r="6" fill="#6366F1"/>
<circle cx="134" cy="80" r="6" fill="#6366F1"/>
<circle cx="146" cy="80" r="6" fill="#6366F1"/>
<circle cx="158" cy="80" r="6" fill="#6366F1"/>
</svg>
