<svg width="600" height="300" viewBox="0 0 600 300" fill="none" xmlns="http://www.w3.org/2000/svg">
<rect width="600" height="300" fill="white"/>
<path d="M247.471 250.781H249.658L253.77 261.748L257.871 250.781H260.059L254.629 265H252.891L247.471 250.781ZM246.475 250.781H248.555L248.916 260.273V265H246.475V250.781ZM258.975 250.781H261.064V265H258.613V260.273L258.975 250.781ZM266.26 254.434V265H263.896V254.434H266.26ZM263.74 251.66C263.74 251.302 263.857 251.006 264.092 250.771C264.333 250.531 264.665 250.41 265.088 250.41C265.505 250.41 265.833 250.531 266.074 250.771C266.315 251.006 266.436 251.302 266.436 251.66C266.436 252.012 266.315 252.305 266.074 252.539C265.833 252.773 265.505 252.891 265.088 252.891C264.665 252.891 264.333 252.773 264.092 252.539C263.857 252.305 263.74 252.012 263.74 251.66ZM271.172 256.689V265H268.818V254.434H271.035L271.172 256.689ZM270.752 259.326L269.99 259.316C269.997 258.568 270.101 257.881 270.303 257.256C270.511 256.631 270.798 256.094 271.162 255.645C271.533 255.195 271.976 254.85 272.49 254.609C273.005 254.362 273.577 254.238 274.209 254.238C274.717 254.238 275.176 254.31 275.586 254.453C276.003 254.59 276.357 254.814 276.65 255.127C276.95 255.439 277.178 255.846 277.334 256.348C277.49 256.842 277.568 257.451 277.568 258.174V265H275.205V258.164C275.205 257.656 275.13 257.256 274.98 256.963C274.837 256.663 274.626 256.452 274.346 256.328C274.072 256.198 273.73 256.133 273.32 256.133C272.917 256.133 272.555 256.217 272.236 256.387C271.917 256.556 271.647 256.787 271.426 257.08C271.211 257.373 271.045 257.712 270.928 258.096C270.811 258.48 270.752 258.89 270.752 259.326ZM282.49 254.434V265H280.127V254.434H282.49ZM279.971 251.66C279.971 251.302 280.088 251.006 280.322 250.771C280.563 250.531 280.895 250.41 281.318 250.41C281.735 250.41 282.064 250.531 282.305 250.771C282.546 251.006 282.666 251.302 282.666 251.66C282.666 252.012 282.546 252.305 282.305 252.539C282.064 252.773 281.735 252.891 281.318 252.891C280.895 252.891 280.563 252.773 280.322 252.539C280.088 252.305 279.971 252.012 279.971 251.66ZM287.422 256.582V265H285.068V254.434H287.285L287.422 256.582ZM287.041 259.326L286.24 259.316C286.24 258.587 286.331 257.913 286.514 257.295C286.696 256.676 286.963 256.139 287.314 255.684C287.666 255.221 288.102 254.867 288.623 254.619C289.15 254.365 289.759 254.238 290.449 254.238C290.931 254.238 291.37 254.31 291.768 254.453C292.171 254.59 292.52 254.808 292.812 255.107C293.112 255.407 293.34 255.791 293.496 256.26C293.659 256.729 293.74 257.295 293.74 257.959V265H291.387V258.164C291.387 257.65 291.309 257.246 291.152 256.953C291.003 256.66 290.785 256.452 290.498 256.328C290.218 256.198 289.883 256.133 289.492 256.133C289.049 256.133 288.672 256.217 288.359 256.387C288.053 256.556 287.803 256.787 287.607 257.08C287.412 257.373 287.269 257.712 287.178 258.096C287.087 258.48 287.041 258.89 287.041 259.326ZM293.594 258.701L292.49 258.945C292.49 258.307 292.578 257.705 292.754 257.139C292.936 256.566 293.2 256.064 293.545 255.635C293.896 255.199 294.329 254.857 294.844 254.609C295.358 254.362 295.947 254.238 296.611 254.238C297.152 254.238 297.633 254.313 298.057 254.463C298.486 254.606 298.851 254.834 299.15 255.146C299.45 255.459 299.678 255.866 299.834 256.367C299.99 256.862 300.068 257.461 300.068 258.164V265H297.705V258.154C297.705 257.62 297.627 257.207 297.471 256.914C297.321 256.621 297.106 256.419 296.826 256.309C296.546 256.191 296.211 256.133 295.82 256.133C295.456 256.133 295.133 256.201 294.854 256.338C294.58 256.468 294.349 256.654 294.16 256.895C293.971 257.129 293.828 257.399 293.73 257.705C293.639 258.011 293.594 258.343 293.594 258.701ZM308.447 262.881V257.842C308.447 257.464 308.379 257.139 308.242 256.865C308.105 256.592 307.897 256.38 307.617 256.23C307.344 256.081 306.999 256.006 306.582 256.006C306.198 256.006 305.866 256.071 305.586 256.201C305.306 256.331 305.088 256.507 304.932 256.729C304.775 256.95 304.697 257.201 304.697 257.48H302.354C302.354 257.064 302.454 256.66 302.656 256.27C302.858 255.879 303.151 255.531 303.535 255.225C303.919 254.919 304.378 254.678 304.912 254.502C305.446 254.326 306.045 254.238 306.709 254.238C307.503 254.238 308.206 254.372 308.818 254.639C309.437 254.906 309.922 255.309 310.273 255.85C310.632 256.383 310.811 257.054 310.811 257.861V262.559C310.811 263.04 310.843 263.473 310.908 263.857C310.98 264.235 311.081 264.564 311.211 264.844V265H308.799C308.688 264.746 308.6 264.424 308.535 264.033C308.477 263.636 308.447 263.252 308.447 262.881ZM308.789 258.574L308.809 260.029H307.119C306.683 260.029 306.299 260.072 305.967 260.156C305.635 260.234 305.358 260.352 305.137 260.508C304.915 260.664 304.749 260.853 304.639 261.074C304.528 261.296 304.473 261.546 304.473 261.826C304.473 262.106 304.538 262.363 304.668 262.598C304.798 262.826 304.987 263.005 305.234 263.135C305.488 263.265 305.794 263.33 306.152 263.33C306.634 263.33 307.054 263.232 307.412 263.037C307.777 262.835 308.063 262.591 308.271 262.305C308.48 262.012 308.59 261.735 308.604 261.475L309.365 262.52C309.287 262.786 309.154 263.073 308.965 263.379C308.776 263.685 308.529 263.978 308.223 264.258C307.923 264.531 307.562 264.756 307.139 264.932C306.722 265.107 306.24 265.195 305.693 265.195C305.003 265.195 304.388 265.059 303.848 264.785C303.307 264.505 302.884 264.131 302.578 263.662C302.272 263.187 302.119 262.65 302.119 262.051C302.119 261.491 302.223 260.996 302.432 260.566C302.646 260.13 302.959 259.766 303.369 259.473C303.786 259.18 304.294 258.958 304.893 258.809C305.492 258.652 306.175 258.574 306.943 258.574H308.789ZM315.791 250V265H313.428V250H315.791ZM320.889 254.434V265H318.525V254.434H320.889ZM318.369 251.66C318.369 251.302 318.486 251.006 318.721 250.771C318.962 250.531 319.294 250.41 319.717 250.41C320.133 250.41 320.462 250.531 320.703 250.771C320.944 251.006 321.064 251.302 321.064 251.66C321.064 252.012 320.944 252.305 320.703 252.539C320.462 252.773 320.133 252.891 319.717 252.891C319.294 252.891 318.962 252.773 318.721 252.539C318.486 252.305 318.369 252.012 318.369 251.66ZM329.395 262.139C329.395 261.904 329.336 261.693 329.219 261.504C329.102 261.309 328.877 261.133 328.545 260.977C328.219 260.82 327.738 260.677 327.1 260.547C326.54 260.423 326.025 260.277 325.557 260.107C325.094 259.932 324.697 259.72 324.365 259.473C324.033 259.225 323.776 258.932 323.594 258.594C323.411 258.255 323.32 257.865 323.32 257.422C323.32 256.992 323.415 256.585 323.604 256.201C323.792 255.817 324.062 255.479 324.414 255.186C324.766 254.893 325.192 254.661 325.693 254.492C326.201 254.323 326.768 254.238 327.393 254.238C328.278 254.238 329.036 254.388 329.668 254.688C330.306 254.98 330.794 255.381 331.133 255.889C331.471 256.39 331.641 256.956 331.641 257.588H329.287C329.287 257.308 329.215 257.048 329.072 256.807C328.936 256.559 328.727 256.361 328.447 256.211C328.167 256.055 327.816 255.977 327.393 255.977C326.989 255.977 326.654 256.042 326.387 256.172C326.126 256.296 325.931 256.458 325.801 256.66C325.677 256.862 325.615 257.083 325.615 257.324C325.615 257.5 325.648 257.66 325.713 257.803C325.785 257.939 325.902 258.066 326.064 258.184C326.227 258.294 326.449 258.398 326.729 258.496C327.015 258.594 327.373 258.688 327.803 258.779C328.61 258.949 329.303 259.167 329.883 259.434C330.469 259.694 330.918 260.033 331.23 260.449C331.543 260.859 331.699 261.38 331.699 262.012C331.699 262.48 331.598 262.91 331.396 263.301C331.201 263.685 330.915 264.02 330.537 264.307C330.16 264.587 329.707 264.805 329.18 264.961C328.659 265.117 328.073 265.195 327.422 265.195C326.465 265.195 325.654 265.026 324.99 264.688C324.326 264.342 323.822 263.903 323.477 263.369C323.138 262.829 322.969 262.269 322.969 261.689H325.244C325.27 262.126 325.391 262.474 325.605 262.734C325.827 262.988 326.1 263.174 326.426 263.291C326.758 263.402 327.1 263.457 327.451 263.457C327.874 263.457 328.229 263.402 328.516 263.291C328.802 263.174 329.02 263.018 329.17 262.822C329.32 262.62 329.395 262.393 329.395 262.139ZM336.113 256.582V265H333.76V254.434H335.977L336.113 256.582ZM335.732 259.326L334.932 259.316C334.932 258.587 335.023 257.913 335.205 257.295C335.387 256.676 335.654 256.139 336.006 255.684C336.357 255.221 336.794 254.867 337.314 254.619C337.842 254.365 338.451 254.238 339.141 254.238C339.622 254.238 340.062 254.31 340.459 254.453C340.863 254.59 341.211 254.808 341.504 255.107C341.803 255.407 342.031 255.791 342.188 256.26C342.35 256.729 342.432 257.295 342.432 257.959V265H340.078V258.164C340.078 257.65 340 257.246 339.844 256.953C339.694 256.66 339.476 256.452 339.189 256.328C338.91 256.198 338.574 256.133 338.184 256.133C337.741 256.133 337.363 256.217 337.051 256.387C336.745 256.556 336.494 256.787 336.299 257.08C336.104 257.373 335.96 257.712 335.869 258.096C335.778 258.48 335.732 258.89 335.732 259.326ZM342.285 258.701L341.182 258.945C341.182 258.307 341.27 257.705 341.445 257.139C341.628 256.566 341.891 256.064 342.236 255.635C342.588 255.199 343.021 254.857 343.535 254.609C344.049 254.362 344.639 254.238 345.303 254.238C345.843 254.238 346.325 254.313 346.748 254.463C347.178 254.606 347.542 254.834 347.842 255.146C348.141 255.459 348.369 255.866 348.525 256.367C348.682 256.862 348.76 257.461 348.76 258.164V265H346.396V258.154C346.396 257.62 346.318 257.207 346.162 256.914C346.012 256.621 345.798 256.419 345.518 256.309C345.238 256.191 344.902 256.133 344.512 256.133C344.147 256.133 343.825 256.201 343.545 256.338C343.271 256.468 343.04 256.654 342.852 256.895C342.663 257.129 342.52 257.399 342.422 257.705C342.331 258.011 342.285 258.343 342.285 258.701Z" fill="black"/>
<rect x="200.5" y="33.5" width="199" height="199" rx="1.5" fill="white" stroke="black"/>
<circle cx="288" cy="121" r="6" fill="#6366F1"/>
<circle cx="300" cy="121" r="6" fill="#6366F1"/>
<circle cx="312" cy="121" r="6" fill="#6366F1"/>
<circle cx="288" cy="133" r="6" fill="#6366F1"/>
<circle cx="300" cy="133" r="6" fill="#6366F1"/>
<circle cx="312" cy="133" r="6" fill="#6366F1"/>
<circle cx="288" cy="145" r="6" fill="#6366F1"/>
<circle cx="300" cy="145" r="6" fill="#6366F1"/>
<circle cx="312" cy="145" r="6" fill="#6366F1"/>
</svg>
