<svg width="600" height="300" viewBox="0 0 600 300" fill="none" xmlns="http://www.w3.org/2000/svg">
<g clip-path="url(#clip0_125:2)">
<rect width="600" height="300" fill="white"/>
<line x1="158.426" y1="254.614" x2="503.426" y2="111.614" stroke="#3888FF" stroke-width="3"/>
<path d="M158.231 254.712L365.5 230.5L488.231 57.712" stroke="#F74C00" stroke-width="3"/>
<path d="M255.109 23.0977H251.102V30H248.84V12.9375H254.488C256.41 12.9375 257.887 13.375 258.918 14.25C259.957 15.125 260.477 16.3984 260.477 18.0703C260.477 19.1328 260.188 20.0586 259.609 20.8477C259.039 21.6367 258.242 22.2266 257.219 22.6172L261.227 29.8594V30H258.812L255.109 23.0977ZM251.102 21.2578H254.559C255.676 21.2578 256.562 20.9688 257.219 20.3906C257.883 19.8125 258.215 19.0391 258.215 18.0703C258.215 17.0156 257.898 16.207 257.266 15.6445C256.641 15.082 255.734 14.7969 254.547 14.7891H251.102V21.2578ZM271.129 28.7461C270.285 29.7383 269.047 30.2344 267.414 30.2344C266.062 30.2344 265.031 29.8438 264.32 29.0625C263.617 28.2734 263.262 27.1094 263.254 25.5703V17.3203H265.422V25.5117C265.422 27.4336 266.203 28.3945 267.766 28.3945C269.422 28.3945 270.523 27.7773 271.07 26.543V17.3203H273.238V30H271.176L271.129 28.7461ZM283.926 26.6367C283.926 26.0508 283.703 25.5977 283.258 25.2773C282.82 24.9492 282.051 24.668 280.949 24.4336C279.855 24.1992 278.984 23.918 278.336 23.5898C277.695 23.2617 277.219 22.8711 276.906 22.418C276.602 21.9648 276.449 21.4258 276.449 20.8008C276.449 19.7617 276.887 18.8828 277.762 18.1641C278.645 17.4453 279.77 17.0859 281.137 17.0859C282.574 17.0859 283.738 17.457 284.629 18.1992C285.527 18.9414 285.977 19.8906 285.977 21.0469H283.797C283.797 20.4531 283.543 19.9414 283.035 19.5117C282.535 19.082 281.902 18.8672 281.137 18.8672C280.348 18.8672 279.73 19.0391 279.285 19.3828C278.84 19.7266 278.617 20.1758 278.617 20.7305C278.617 21.2539 278.824 21.6484 279.238 21.9141C279.652 22.1797 280.398 22.4336 281.477 22.6758C282.562 22.918 283.441 23.207 284.113 23.543C284.785 23.8789 285.281 24.2852 285.602 24.7617C285.93 25.2305 286.094 25.8047 286.094 26.4844C286.094 27.6172 285.641 28.5273 284.734 29.2148C283.828 29.8945 282.652 30.2344 281.207 30.2344C280.191 30.2344 279.293 30.0547 278.512 29.6953C277.73 29.3359 277.117 28.8359 276.672 28.1953C276.234 27.5469 276.016 26.8477 276.016 26.0977H278.184C278.223 26.8242 278.512 27.4023 279.051 27.832C279.598 28.2539 280.316 28.4648 281.207 28.4648C282.027 28.4648 282.684 28.3008 283.176 27.9727C283.676 27.6367 283.926 27.1914 283.926 26.6367ZM291.859 14.25V17.3203H294.227V18.9961H291.859V26.8594C291.859 27.3672 291.965 27.75 292.176 28.0078C292.387 28.2578 292.746 28.3828 293.254 28.3828C293.504 28.3828 293.848 28.3359 294.285 28.2422V30C293.715 30.1562 293.16 30.2344 292.621 30.2344C291.652 30.2344 290.922 29.9414 290.43 29.3555C289.938 28.7695 289.691 27.9375 289.691 26.8594V18.9961H287.383V17.3203H289.691V14.25H291.859Z" fill="black"/>
<rect x="225" y="21" width="16" height="3" fill="#F74C00"/>
<path d="M261.172 49.0195C261.172 50.6914 260.891 52.1523 260.328 53.4023C259.766 54.6445 258.969 55.5938 257.938 56.25C256.906 56.9062 255.703 57.2344 254.328 57.2344C252.984 57.2344 251.793 56.9062 250.754 56.25C249.715 55.5859 248.906 54.6445 248.328 53.4258C247.758 52.1992 247.465 50.7812 247.449 49.1719V47.9414C247.449 46.3008 247.734 44.8516 248.305 43.5938C248.875 42.3359 249.68 41.375 250.719 40.7109C251.766 40.0391 252.961 39.7031 254.305 39.7031C255.672 39.7031 256.875 40.0352 257.914 40.6992C258.961 41.3555 259.766 42.3125 260.328 43.5703C260.891 44.8203 261.172 46.2773 261.172 47.9414V49.0195ZM258.934 47.918C258.934 45.8945 258.527 44.3438 257.715 43.2656C256.902 42.1797 255.766 41.6367 254.305 41.6367C252.883 41.6367 251.762 42.1797 250.941 43.2656C250.129 44.3438 249.711 45.8438 249.688 47.7656V49.0195C249.688 50.9805 250.098 52.5234 250.918 53.6484C251.746 54.7656 252.883 55.3242 254.328 55.3242C255.781 55.3242 256.906 54.7969 257.703 53.7422C258.5 52.6797 258.91 51.1602 258.934 49.1836V47.918ZM267.148 41.25V44.3203H269.516V45.9961H267.148V53.8594C267.148 54.3672 267.254 54.75 267.465 55.0078C267.676 55.2578 268.035 55.3828 268.543 55.3828C268.793 55.3828 269.137 55.3359 269.574 55.2422V57C269.004 57.1562 268.449 57.2344 267.91 57.2344C266.941 57.2344 266.211 56.9414 265.719 56.3555C265.227 55.7695 264.98 54.9375 264.98 53.8594V45.9961H262.672V44.3203H264.98V41.25H267.148ZM274.227 45.8555C275.188 44.6758 276.438 44.0859 277.977 44.0859C280.656 44.0859 282.008 45.5977 282.031 48.6211V57H279.863V48.6094C279.855 47.6953 279.645 47.0195 279.23 46.582C278.824 46.1445 278.188 45.9258 277.32 45.9258C276.617 45.9258 276 46.1133 275.469 46.4883C274.938 46.8633 274.523 47.3555 274.227 47.9648V57H272.059V39H274.227V45.8555ZM290.539 57.2344C288.82 57.2344 287.422 56.6719 286.344 55.5469C285.266 54.4141 284.727 52.9023 284.727 51.0117V50.6133C284.727 49.3555 284.965 48.2344 285.441 47.25C285.926 46.2578 286.598 45.4844 287.457 44.9297C288.324 44.3672 289.262 44.0859 290.27 44.0859C291.918 44.0859 293.199 44.6289 294.113 45.7148C295.027 46.8008 295.484 48.3555 295.484 50.3789V51.2812H286.895C286.926 52.5312 287.289 53.543 287.984 54.3164C288.688 55.082 289.578 55.4648 290.656 55.4648C291.422 55.4648 292.07 55.3086 292.602 54.9961C293.133 54.6836 293.598 54.2695 293.996 53.7539L295.32 54.7852C294.258 56.418 292.664 57.2344 290.539 57.2344ZM290.27 45.8672C289.395 45.8672 288.66 46.1875 288.066 46.8281C287.473 47.4609 287.105 48.3516 286.965 49.5H293.316V49.3359C293.254 48.2344 292.957 47.3828 292.426 46.7812C291.895 46.1719 291.176 45.8672 290.27 45.8672ZM304.133 46.2656C303.805 46.2109 303.449 46.1836 303.066 46.1836C301.645 46.1836 300.68 46.7891 300.172 48V57H298.004V44.3203H300.113L300.148 45.7852C300.859 44.6523 301.867 44.0859 303.172 44.0859C303.594 44.0859 303.914 44.1406 304.133 44.25V46.2656ZM314.445 57H312.277V39H314.445V57ZM325.754 57C325.629 56.75 325.527 56.3047 325.449 55.6641C324.441 56.7109 323.238 57.2344 321.84 57.2344C320.59 57.2344 319.562 56.8828 318.758 56.1797C317.961 55.4688 317.562 54.5703 317.562 53.4844C317.562 52.1641 318.062 51.1406 319.062 50.4141C320.07 49.6797 321.484 49.3125 323.305 49.3125H325.414V48.3164C325.414 47.5586 325.188 46.957 324.734 46.5117C324.281 46.0586 323.613 45.832 322.73 45.832C321.957 45.832 321.309 46.0273 320.785 46.418C320.262 46.8086 320 47.2812 320 47.8359H317.82C317.82 47.2031 318.043 46.5938 318.488 46.0078C318.941 45.4141 319.551 44.9453 320.316 44.6016C321.09 44.2578 321.938 44.0859 322.859 44.0859C324.32 44.0859 325.465 44.4531 326.293 45.1875C327.121 45.9141 327.551 46.918 327.582 48.1992V54.0352C327.582 55.1992 327.73 56.125 328.027 56.8125V57H325.754ZM322.156 55.3477C322.836 55.3477 323.48 55.1719 324.09 54.8203C324.699 54.4688 325.141 54.0117 325.414 53.4492V50.8477H323.715C321.059 50.8477 319.73 51.625 319.73 53.1797C319.73 53.8594 319.957 54.3906 320.41 54.7734C320.863 55.1562 321.445 55.3477 322.156 55.3477ZM333.031 44.3203L333.102 45.9141C334.07 44.6953 335.336 44.0859 336.898 44.0859C339.578 44.0859 340.93 45.5977 340.953 48.6211V57H338.785V48.6094C338.777 47.6953 338.566 47.0195 338.152 46.582C337.746 46.1445 337.109 45.9258 336.242 45.9258C335.539 45.9258 334.922 46.1133 334.391 46.4883C333.859 46.8633 333.445 47.3555 333.148 47.9648V57H330.98V44.3203H333.031ZM343.707 50.5547C343.707 48.5781 344.164 47.0078 345.078 45.8438C345.992 44.6719 347.203 44.0859 348.711 44.0859C350.258 44.0859 351.465 44.6328 352.332 45.7266L352.438 44.3203H354.418V56.6953C354.418 58.3359 353.93 59.6289 352.953 60.5742C351.984 61.5195 350.68 61.9922 349.039 61.9922C348.125 61.9922 347.23 61.7969 346.355 61.4062C345.48 61.0156 344.812 60.4805 344.352 59.8008L345.477 58.5C346.406 59.6484 347.543 60.2227 348.887 60.2227C349.941 60.2227 350.762 59.9258 351.348 59.332C351.941 58.7383 352.238 57.9023 352.238 56.8242V55.7344C351.371 56.7344 350.188 57.2344 348.688 57.2344C347.203 57.2344 346 56.6367 345.078 55.4414C344.164 54.2461 343.707 52.6172 343.707 50.5547ZM345.887 50.8008C345.887 52.2305 346.18 53.3555 346.766 54.1758C347.352 54.9883 348.172 55.3945 349.227 55.3945C350.594 55.3945 351.598 54.7734 352.238 53.5312V47.7422C351.574 46.5312 350.578 45.9258 349.25 45.9258C348.195 45.9258 347.371 46.3359 346.777 47.1562C346.184 47.9766 345.887 49.1914 345.887 50.8008ZM365.527 55.7461C364.684 56.7383 363.445 57.2344 361.812 57.2344C360.461 57.2344 359.43 56.8438 358.719 56.0625C358.016 55.2734 357.66 54.1094 357.652 52.5703V44.3203H359.82V52.5117C359.82 54.4336 360.602 55.3945 362.164 55.3945C363.82 55.3945 364.922 54.7773 365.469 53.543V44.3203H367.637V57H365.574L365.527 55.7461ZM378.77 57C378.645 56.75 378.543 56.3047 378.465 55.6641C377.457 56.7109 376.254 57.2344 374.855 57.2344C373.605 57.2344 372.578 56.8828 371.773 56.1797C370.977 55.4688 370.578 54.5703 370.578 53.4844C370.578 52.1641 371.078 51.1406 372.078 50.4141C373.086 49.6797 374.5 49.3125 376.32 49.3125H378.43V48.3164C378.43 47.5586 378.203 46.957 377.75 46.5117C377.297 46.0586 376.629 45.832 375.746 45.832C374.973 45.832 374.324 46.0273 373.801 46.418C373.277 46.8086 373.016 47.2812 373.016 47.8359H370.836C370.836 47.2031 371.059 46.5938 371.504 46.0078C371.957 45.4141 372.566 44.9453 373.332 44.6016C374.105 44.2578 374.953 44.0859 375.875 44.0859C377.336 44.0859 378.48 44.4531 379.309 45.1875C380.137 45.9141 380.566 46.918 380.598 48.1992V54.0352C380.598 55.1992 380.746 56.125 381.043 56.8125V57H378.77ZM375.172 55.3477C375.852 55.3477 376.496 55.1719 377.105 54.8203C377.715 54.4688 378.156 54.0117 378.43 53.4492V50.8477H376.73C374.074 50.8477 372.746 51.625 372.746 53.1797C372.746 53.8594 372.973 54.3906 373.426 54.7734C373.879 55.1562 374.461 55.3477 375.172 55.3477ZM383.48 50.5547C383.48 48.5781 383.938 47.0078 384.852 45.8438C385.766 44.6719 386.977 44.0859 388.484 44.0859C390.031 44.0859 391.238 44.6328 392.105 45.7266L392.211 44.3203H394.191V56.6953C394.191 58.3359 393.703 59.6289 392.727 60.5742C391.758 61.5195 390.453 61.9922 388.812 61.9922C387.898 61.9922 387.004 61.7969 386.129 61.4062C385.254 61.0156 384.586 60.4805 384.125 59.8008L385.25 58.5C386.18 59.6484 387.316 60.2227 388.66 60.2227C389.715 60.2227 390.535 59.9258 391.121 59.332C391.715 58.7383 392.012 57.9023 392.012 56.8242V55.7344C391.145 56.7344 389.961 57.2344 388.461 57.2344C386.977 57.2344 385.773 56.6367 384.852 55.4414C383.938 54.2461 383.48 52.6172 383.48 50.5547ZM385.66 50.8008C385.66 52.2305 385.953 53.3555 386.539 54.1758C387.125 54.9883 387.945 55.3945 389 55.3945C390.367 55.3945 391.371 54.7734 392.012 53.5312V47.7422C391.348 46.5312 390.352 45.9258 389.023 45.9258C387.969 45.9258 387.145 46.3359 386.551 47.1562C385.957 47.9766 385.66 49.1914 385.66 50.8008ZM402.734 57.2344C401.016 57.2344 399.617 56.6719 398.539 55.5469C397.461 54.4141 396.922 52.9023 396.922 51.0117V50.6133C396.922 49.3555 397.16 48.2344 397.637 47.25C398.121 46.2578 398.793 45.4844 399.652 44.9297C400.52 44.3672 401.457 44.0859 402.465 44.0859C404.113 44.0859 405.395 44.6289 406.309 45.7148C407.223 46.8008 407.68 48.3555 407.68 50.3789V51.2812H399.09C399.121 52.5312 399.484 53.543 400.18 54.3164C400.883 55.082 401.773 55.4648 402.852 55.4648C403.617 55.4648 404.266 55.3086 404.797 54.9961C405.328 54.6836 405.793 54.2695 406.191 53.7539L407.516 54.7852C406.453 56.418 404.859 57.2344 402.734 57.2344ZM402.465 45.8672C401.59 45.8672 400.855 46.1875 400.262 46.8281C399.668 47.4609 399.301 48.3516 399.16 49.5H405.512V49.3359C405.449 48.2344 405.152 47.3828 404.621 46.7812C404.09 46.1719 403.371 45.8672 402.465 45.8672ZM417.582 53.6367C417.582 53.0508 417.359 52.5977 416.914 52.2773C416.477 51.9492 415.707 51.668 414.605 51.4336C413.512 51.1992 412.641 50.918 411.992 50.5898C411.352 50.2617 410.875 49.8711 410.562 49.418C410.258 48.9648 410.105 48.4258 410.105 47.8008C410.105 46.7617 410.543 45.8828 411.418 45.1641C412.301 44.4453 413.426 44.0859 414.793 44.0859C416.23 44.0859 417.395 44.457 418.285 45.1992C419.184 45.9414 419.633 46.8906 419.633 48.0469H417.453C417.453 47.4531 417.199 46.9414 416.691 46.5117C416.191 46.082 415.559 45.8672 414.793 45.8672C414.004 45.8672 413.387 46.0391 412.941 46.3828C412.496 46.7266 412.273 47.1758 412.273 47.7305C412.273 48.2539 412.48 48.6484 412.895 48.9141C413.309 49.1797 414.055 49.4336 415.133 49.6758C416.219 49.918 417.098 50.207 417.77 50.543C418.441 50.8789 418.938 51.2852 419.258 51.7617C419.586 52.2305 419.75 52.8047 419.75 53.4844C419.75 54.6172 419.297 55.5273 418.391 56.2148C417.484 56.8945 416.309 57.2344 414.863 57.2344C413.848 57.2344 412.949 57.0547 412.168 56.6953C411.387 56.3359 410.773 55.8359 410.328 55.1953C409.891 54.5469 409.672 53.8477 409.672 53.0977H411.84C411.879 53.8242 412.168 54.4023 412.707 54.832C413.254 55.2539 413.973 55.4648 414.863 55.4648C415.684 55.4648 416.34 55.3008 416.832 54.9727C417.332 54.6367 417.582 54.1914 417.582 53.6367Z" fill="black"/>
<rect x="225" y="47" width="16" height="3" fill="#3888FF"/>
<path d="M160.061 25.9393C159.475 25.3535 158.525 25.3535 157.94 25.9393L148.394 35.4853C147.808 36.0711 147.808 37.0208 148.394 37.6066C148.979 38.1924 149.929 38.1924 150.515 37.6066L159 29.1213L167.486 37.6066C168.071 38.1924 169.021 38.1924 169.607 37.6066C170.193 37.0208 170.193 36.0711 169.607 35.4853L160.061 25.9393ZM160.5 257L160.5 27L157.5 27L157.5 257L160.5 257Z" fill="black"/>
<path d="M532.059 257.061C532.645 256.475 532.645 255.525 532.059 254.939L522.513 245.393C521.928 244.808 520.978 244.808 520.392 245.393C519.806 245.979 519.806 246.929 520.392 247.515L528.877 256L520.392 264.485C519.806 265.071 519.806 266.021 520.392 266.607C520.978 267.192 521.928 267.192 522.513 266.607L532.059 257.061ZM158 257.5H530.999V254.5H158V257.5Z" fill="black"/>
<path d="M23.0078 145.32V152H20.7578V134.938H27.0508C28.918 134.938 30.3789 135.414 31.4336 136.367C32.4961 137.32 33.0273 138.582 33.0273 140.152C33.0273 141.809 32.5078 143.086 31.4688 143.984C30.4375 144.875 28.957 145.32 27.0273 145.32H23.0078ZM23.0078 143.48H27.0508C28.2539 143.48 29.1758 143.199 29.8164 142.637C30.457 142.066 30.7773 141.246 30.7773 140.176C30.7773 139.16 30.457 138.348 29.8164 137.738C29.1758 137.129 28.2969 136.812 27.1797 136.789H23.0078V143.48ZM41.6875 141.266C41.3594 141.211 41.0039 141.184 40.6211 141.184C39.1992 141.184 38.2344 141.789 37.7266 143V152H35.5586V139.32H37.668L37.7031 140.785C38.4141 139.652 39.4219 139.086 40.7266 139.086C41.1484 139.086 41.4688 139.141 41.6875 139.25V141.266ZM42.8828 145.543C42.8828 144.301 43.125 143.184 43.6094 142.191C44.1016 141.199 44.7812 140.434 45.6484 139.895C46.5234 139.355 47.5195 139.086 48.6367 139.086C50.3633 139.086 51.7578 139.684 52.8203 140.879C53.8906 142.074 54.4258 143.664 54.4258 145.648V145.801C54.4258 147.035 54.1875 148.145 53.7109 149.129C53.2422 150.105 52.5664 150.867 51.6836 151.414C50.8086 151.961 49.8008 152.234 48.6602 152.234C46.9414 152.234 45.5469 151.637 44.4766 150.441C43.4141 149.246 42.8828 147.664 42.8828 145.695V145.543ZM45.0625 145.801C45.0625 147.207 45.3867 148.336 46.0352 149.188C46.6914 150.039 47.5664 150.465 48.6602 150.465C49.7617 150.465 50.6367 150.035 51.2852 149.176C51.9336 148.309 52.2578 147.098 52.2578 145.543C52.2578 144.152 51.9258 143.027 51.2617 142.168C50.6055 141.301 49.7305 140.867 48.6367 140.867C47.5664 140.867 46.7031 141.293 46.0469 142.145C45.3906 142.996 45.0625 144.215 45.0625 145.801ZM56.6172 145.555C56.6172 143.609 57.0781 142.047 58 140.867C58.9219 139.68 60.1289 139.086 61.6211 139.086C63.1055 139.086 64.2812 139.594 65.1484 140.609V134H67.3164V152H65.3242L65.2188 150.641C64.3516 151.703 63.1445 152.234 61.5977 152.234C60.1289 152.234 58.9297 151.633 58 150.43C57.0781 149.227 56.6172 147.656 56.6172 145.719V145.555ZM58.7852 145.801C58.7852 147.238 59.082 148.363 59.6758 149.176C60.2695 149.988 61.0898 150.395 62.1367 150.395C63.5117 150.395 64.5156 149.777 65.1484 148.543V142.719C64.5 141.523 63.5039 140.926 62.1602 140.926C61.0977 140.926 60.2695 141.336 59.6758 142.156C59.082 142.977 58.7852 144.191 58.7852 145.801ZM78.5195 150.746C77.6758 151.738 76.4375 152.234 74.8047 152.234C73.4531 152.234 72.4219 151.844 71.7109 151.062C71.0078 150.273 70.6523 149.109 70.6445 147.57V139.32H72.8125V147.512C72.8125 149.434 73.5938 150.395 75.1562 150.395C76.8125 150.395 77.9141 149.777 78.4609 148.543V139.32H80.6289V152H78.5664L78.5195 150.746ZM89.0195 150.465C89.793 150.465 90.4688 150.23 91.0469 149.762C91.625 149.293 91.9453 148.707 92.0078 148.004H94.0586C94.0195 148.73 93.7695 149.422 93.3086 150.078C92.8477 150.734 92.2305 151.258 91.457 151.648C90.6914 152.039 89.8789 152.234 89.0195 152.234C87.293 152.234 85.918 151.66 84.8945 150.512C83.8789 149.355 83.3711 147.777 83.3711 145.777V145.414C83.3711 144.18 83.5977 143.082 84.0508 142.121C84.5039 141.16 85.1523 140.414 85.9961 139.883C86.8477 139.352 87.8516 139.086 89.0078 139.086C90.4297 139.086 91.6094 139.512 92.5469 140.363C93.4922 141.215 93.9961 142.32 94.0586 143.68H92.0078C91.9453 142.859 91.6328 142.188 91.0703 141.664C90.5156 141.133 89.8281 140.867 89.0078 140.867C87.9062 140.867 87.0508 141.266 86.4414 142.062C85.8398 142.852 85.5391 143.996 85.5391 145.496V145.906C85.5391 147.367 85.8398 148.492 86.4414 149.281C87.043 150.07 87.9023 150.465 89.0195 150.465ZM99.4375 136.25V139.32H101.805V140.996H99.4375V148.859C99.4375 149.367 99.543 149.75 99.7539 150.008C99.9648 150.258 100.324 150.383 100.832 150.383C101.082 150.383 101.426 150.336 101.863 150.242V152C101.293 152.156 100.738 152.234 100.199 152.234C99.2305 152.234 98.5 151.941 98.0078 151.355C97.5156 150.77 97.2695 149.938 97.2695 148.859V140.996H94.9609V139.32H97.2695V136.25H99.4375ZM106.703 152H104.535V139.32H106.703V152ZM104.359 135.957C104.359 135.605 104.465 135.309 104.676 135.066C104.895 134.824 105.215 134.703 105.637 134.703C106.059 134.703 106.379 134.824 106.598 135.066C106.816 135.309 106.926 135.605 106.926 135.957C106.926 136.309 106.816 136.602 106.598 136.836C106.379 137.07 106.059 137.188 105.637 137.188C105.215 137.188 104.895 137.07 104.676 136.836C104.465 136.602 104.359 136.309 104.359 135.957ZM114.367 149.059L117.508 139.32H119.723L115.176 152H113.523L108.93 139.32H111.145L114.367 149.059ZM124.164 152H121.996V139.32H124.164V152ZM121.82 135.957C121.82 135.605 121.926 135.309 122.137 135.066C122.355 134.824 122.676 134.703 123.098 134.703C123.52 134.703 123.84 134.824 124.059 135.066C124.277 135.309 124.387 135.605 124.387 135.957C124.387 136.309 124.277 136.602 124.059 136.836C123.84 137.07 123.52 137.188 123.098 137.188C122.676 137.188 122.355 137.07 122.137 136.836C121.926 136.602 121.82 136.309 121.82 135.957ZM130.586 136.25V139.32H132.953V140.996H130.586V148.859C130.586 149.367 130.691 149.75 130.902 150.008C131.113 150.258 131.473 150.383 131.98 150.383C132.23 150.383 132.574 150.336 133.012 150.242V152C132.441 152.156 131.887 152.234 131.348 152.234C130.379 152.234 129.648 151.941 129.156 151.355C128.664 150.77 128.418 149.938 128.418 148.859V140.996H126.109V139.32H128.418V136.25H130.586ZM139.645 148.824L142.598 139.32H144.918L139.82 153.957C139.031 156.066 137.777 157.121 136.059 157.121L135.648 157.086L134.84 156.934V155.176L135.426 155.223C136.16 155.223 136.73 155.074 137.137 154.777C137.551 154.48 137.891 153.938 138.156 153.148L138.637 151.859L134.113 139.32H136.48L139.645 148.824Z" fill="black"/>
<path d="M328.305 270.789H322.82V286H320.582V270.789H315.109V268.938H328.305V270.789ZM332.852 286H330.684V273.32H332.852V286ZM330.508 269.957C330.508 269.605 330.613 269.309 330.824 269.066C331.043 268.824 331.363 268.703 331.785 268.703C332.207 268.703 332.527 268.824 332.746 269.066C332.965 269.309 333.074 269.605 333.074 269.957C333.074 270.309 332.965 270.602 332.746 270.836C332.527 271.07 332.207 271.188 331.785 271.188C331.363 271.188 331.043 271.07 330.824 270.836C330.613 270.602 330.508 270.309 330.508 269.957ZM338.371 273.32L338.43 274.727C339.359 273.633 340.613 273.086 342.191 273.086C343.965 273.086 345.172 273.766 345.812 275.125C346.234 274.516 346.781 274.023 347.453 273.648C348.133 273.273 348.934 273.086 349.855 273.086C352.637 273.086 354.051 274.559 354.098 277.504V286H351.93V277.633C351.93 276.727 351.723 276.051 351.309 275.605C350.895 275.152 350.199 274.926 349.223 274.926C348.418 274.926 347.75 275.168 347.219 275.652C346.688 276.129 346.379 276.773 346.293 277.586V286H344.113V277.691C344.113 275.848 343.211 274.926 341.406 274.926C339.984 274.926 339.012 275.531 338.488 276.742V286H336.32V273.32H338.371ZM362.641 286.234C360.922 286.234 359.523 285.672 358.445 284.547C357.367 283.414 356.828 281.902 356.828 280.012V279.613C356.828 278.355 357.066 277.234 357.543 276.25C358.027 275.258 358.699 274.484 359.559 273.93C360.426 273.367 361.363 273.086 362.371 273.086C364.02 273.086 365.301 273.629 366.215 274.715C367.129 275.801 367.586 277.355 367.586 279.379V280.281H358.996C359.027 281.531 359.391 282.543 360.086 283.316C360.789 284.082 361.68 284.465 362.758 284.465C363.523 284.465 364.172 284.309 364.703 283.996C365.234 283.684 365.699 283.27 366.098 282.754L367.422 283.785C366.359 285.418 364.766 286.234 362.641 286.234ZM362.371 274.867C361.496 274.867 360.762 275.188 360.168 275.828C359.574 276.461 359.207 277.352 359.066 278.5H365.418V278.336C365.355 277.234 365.059 276.383 364.527 275.781C363.996 275.172 363.277 274.867 362.371 274.867Z" fill="black"/>
<path d="M429.146 203H427.827V198.399H422.81V203H421.497V193.047H422.81V197.326H427.827V193.047H429.146V203ZM430.944 199.233C430.944 198.509 431.086 197.857 431.368 197.278C431.655 196.7 432.052 196.253 432.558 195.938C433.068 195.624 433.649 195.467 434.301 195.467C435.308 195.467 436.121 195.815 436.741 196.513C437.366 197.21 437.678 198.137 437.678 199.295V199.384C437.678 200.104 437.539 200.751 437.261 201.325C436.987 201.895 436.593 202.339 436.078 202.658C435.568 202.977 434.98 203.137 434.314 203.137C433.312 203.137 432.498 202.788 431.874 202.091C431.254 201.394 430.944 200.471 430.944 199.322V199.233ZM432.216 199.384C432.216 200.204 432.405 200.863 432.783 201.359C433.166 201.856 433.676 202.104 434.314 202.104C434.957 202.104 435.467 201.854 435.846 201.353C436.224 200.847 436.413 200.14 436.413 199.233C436.413 198.422 436.219 197.766 435.832 197.265C435.449 196.759 434.939 196.506 434.301 196.506C433.676 196.506 433.173 196.754 432.79 197.251C432.407 197.748 432.216 198.459 432.216 199.384ZM445.812 201.257L447.234 195.604H448.499L446.346 203H445.32L443.522 197.395L441.772 203H440.747L438.601 195.604H439.858L441.314 201.141L443.037 195.604H444.056L445.812 201.257ZM454.979 193.812V195.604H456.36V196.581H454.979V201.168C454.979 201.464 455.041 201.688 455.164 201.838C455.287 201.984 455.497 202.057 455.793 202.057C455.939 202.057 456.139 202.029 456.395 201.975V203C456.062 203.091 455.738 203.137 455.424 203.137C454.859 203.137 454.433 202.966 454.146 202.624C453.858 202.282 453.715 201.797 453.715 201.168V196.581H452.368V195.604H453.715V193.812H454.979ZM457.372 199.233C457.372 198.509 457.513 197.857 457.796 197.278C458.083 196.7 458.479 196.253 458.985 195.938C459.496 195.624 460.077 195.467 460.729 195.467C461.736 195.467 462.549 195.815 463.169 196.513C463.793 197.21 464.105 198.137 464.105 199.295V199.384C464.105 200.104 463.966 200.751 463.688 201.325C463.415 201.895 463.021 202.339 462.506 202.658C461.995 202.977 461.408 203.137 460.742 203.137C459.74 203.137 458.926 202.788 458.302 202.091C457.682 201.394 457.372 200.471 457.372 199.322V199.233ZM458.644 199.384C458.644 200.204 458.833 200.863 459.211 201.359C459.594 201.856 460.104 202.104 460.742 202.104C461.385 202.104 461.895 201.854 462.273 201.353C462.652 200.847 462.841 200.14 462.841 199.233C462.841 198.422 462.647 197.766 462.26 197.265C461.877 196.759 461.367 196.506 460.729 196.506C460.104 196.506 459.601 196.754 459.218 197.251C458.835 197.748 458.644 198.459 458.644 199.384ZM470.354 195.604L470.388 196.424C470.93 195.786 471.661 195.467 472.582 195.467C473.617 195.467 474.321 195.863 474.694 196.656C474.94 196.301 475.259 196.014 475.651 195.795C476.048 195.576 476.515 195.467 477.053 195.467C478.675 195.467 479.5 196.326 479.527 198.044V203H478.263V198.119C478.263 197.59 478.142 197.196 477.9 196.937C477.659 196.672 477.253 196.54 476.684 196.54C476.214 196.54 475.825 196.681 475.515 196.964C475.205 197.242 475.025 197.618 474.975 198.092V203H473.703V198.153C473.703 197.078 473.177 196.54 472.124 196.54C471.295 196.54 470.727 196.893 470.422 197.6V203H469.157V195.604H470.354ZM486.008 203C485.935 202.854 485.876 202.594 485.83 202.221C485.242 202.831 484.54 203.137 483.725 203.137C482.995 203.137 482.396 202.932 481.927 202.521C481.462 202.107 481.229 201.583 481.229 200.949C481.229 200.179 481.521 199.582 482.104 199.158C482.692 198.73 483.517 198.516 484.579 198.516H485.81V197.935C485.81 197.493 485.677 197.142 485.413 196.882C485.149 196.618 484.759 196.485 484.244 196.485C483.793 196.485 483.415 196.599 483.109 196.827C482.804 197.055 482.651 197.331 482.651 197.654H481.38C481.38 197.285 481.51 196.93 481.77 196.588C482.034 196.242 482.389 195.968 482.836 195.768C483.287 195.567 483.782 195.467 484.319 195.467C485.172 195.467 485.839 195.681 486.322 196.109C486.805 196.533 487.056 197.119 487.074 197.866V201.271C487.074 201.95 487.161 202.49 487.334 202.891V203H486.008ZM483.909 202.036C484.306 202.036 484.682 201.934 485.037 201.729C485.393 201.523 485.65 201.257 485.81 200.929V199.411H484.818C483.269 199.411 482.494 199.865 482.494 200.771C482.494 201.168 482.626 201.478 482.891 201.701C483.155 201.924 483.494 202.036 483.909 202.036ZM490.253 195.604L490.294 196.533C490.859 195.822 491.597 195.467 492.509 195.467C494.072 195.467 494.86 196.349 494.874 198.112V203H493.609V198.105C493.605 197.572 493.482 197.178 493.24 196.923C493.003 196.668 492.632 196.54 492.126 196.54C491.716 196.54 491.356 196.649 491.046 196.868C490.736 197.087 490.494 197.374 490.321 197.729V203H489.057V195.604H490.253ZM501.348 203C501.275 202.854 501.215 202.594 501.17 202.221C500.582 202.831 499.88 203.137 499.064 203.137C498.335 203.137 497.736 202.932 497.267 202.521C496.802 202.107 496.569 201.583 496.569 200.949C496.569 200.179 496.861 199.582 497.444 199.158C498.032 198.73 498.857 198.516 499.919 198.516H501.149V197.935C501.149 197.493 501.017 197.142 500.753 196.882C500.489 196.618 500.099 196.485 499.584 196.485C499.133 196.485 498.755 196.599 498.449 196.827C498.144 197.055 497.991 197.331 497.991 197.654H496.72C496.72 197.285 496.85 196.93 497.109 196.588C497.374 196.242 497.729 195.968 498.176 195.768C498.627 195.567 499.121 195.467 499.659 195.467C500.511 195.467 501.179 195.681 501.662 196.109C502.145 196.533 502.396 197.119 502.414 197.866V201.271C502.414 201.95 502.501 202.49 502.674 202.891V203H501.348ZM499.249 202.036C499.646 202.036 500.021 201.934 500.377 201.729C500.732 201.523 500.99 201.257 501.149 200.929V199.411H500.158C498.609 199.411 497.834 199.865 497.834 200.771C497.834 201.168 497.966 201.478 498.23 201.701C498.495 201.924 498.834 202.036 499.249 202.036ZM504.096 199.24C504.096 198.087 504.362 197.171 504.896 196.492C505.429 195.809 506.135 195.467 507.015 195.467C507.917 195.467 508.621 195.786 509.127 196.424L509.188 195.604H510.344V202.822C510.344 203.779 510.059 204.534 509.489 205.085C508.924 205.636 508.163 205.912 507.206 205.912C506.673 205.912 506.151 205.798 505.641 205.57C505.13 205.342 504.741 205.03 504.472 204.634L505.128 203.875C505.67 204.545 506.333 204.88 507.117 204.88C507.732 204.88 508.211 204.707 508.553 204.36C508.899 204.014 509.072 203.526 509.072 202.897V202.262C508.566 202.845 507.876 203.137 507.001 203.137C506.135 203.137 505.433 202.788 504.896 202.091C504.362 201.394 504.096 200.443 504.096 199.24ZM505.367 199.384C505.367 200.218 505.538 200.874 505.88 201.353C506.222 201.826 506.7 202.063 507.315 202.063C508.113 202.063 508.699 201.701 509.072 200.977V197.6C508.685 196.893 508.104 196.54 507.329 196.54C506.714 196.54 506.233 196.779 505.887 197.258C505.54 197.736 505.367 198.445 505.367 199.384ZM515.327 203.137C514.325 203.137 513.509 202.809 512.88 202.152C512.251 201.492 511.937 200.61 511.937 199.507V199.274C511.937 198.541 512.076 197.887 512.354 197.312C512.636 196.734 513.028 196.283 513.529 195.959C514.035 195.631 514.582 195.467 515.17 195.467C516.132 195.467 516.879 195.784 517.412 196.417C517.945 197.05 518.212 197.957 518.212 199.138V199.664H513.201C513.219 200.393 513.431 200.983 513.837 201.435C514.247 201.881 514.767 202.104 515.396 202.104C515.842 202.104 516.22 202.013 516.53 201.831C516.84 201.649 517.111 201.407 517.344 201.106L518.116 201.708C517.496 202.66 516.567 203.137 515.327 203.137ZM515.17 196.506C514.66 196.506 514.231 196.693 513.885 197.066C513.538 197.436 513.324 197.955 513.242 198.625H516.947V198.529C516.911 197.887 516.738 197.39 516.428 197.039C516.118 196.684 515.699 196.506 515.17 196.506ZM524.344 195.604L524.378 196.424C524.92 195.786 525.652 195.467 526.572 195.467C527.607 195.467 528.311 195.863 528.685 196.656C528.931 196.301 529.25 196.014 529.642 195.795C530.038 195.576 530.505 195.467 531.043 195.467C532.665 195.467 533.49 196.326 533.518 198.044V203H532.253V198.119C532.253 197.59 532.132 197.196 531.891 196.937C531.649 196.672 531.243 196.54 530.674 196.54C530.204 196.54 529.815 196.681 529.505 196.964C529.195 197.242 529.015 197.618 528.965 198.092V203H527.693V198.153C527.693 197.078 527.167 196.54 526.114 196.54C525.285 196.54 524.717 196.893 524.412 197.6V203H523.147V195.604H524.344ZM538.501 203.137C537.498 203.137 536.683 202.809 536.054 202.152C535.425 201.492 535.11 200.61 535.11 199.507V199.274C535.11 198.541 535.249 197.887 535.527 197.312C535.81 196.734 536.202 196.283 536.703 195.959C537.209 195.631 537.756 195.467 538.344 195.467C539.305 195.467 540.053 195.784 540.586 196.417C541.119 197.05 541.386 197.957 541.386 199.138V199.664H536.375C536.393 200.393 536.605 200.983 537.011 201.435C537.421 201.881 537.94 202.104 538.569 202.104C539.016 202.104 539.394 202.013 539.704 201.831C540.014 201.649 540.285 201.407 540.518 201.106L541.29 201.708C540.67 202.66 539.741 203.137 538.501 203.137ZM538.344 196.506C537.833 196.506 537.405 196.693 537.059 197.066C536.712 197.436 536.498 197.955 536.416 198.625H540.121V198.529C540.085 197.887 539.911 197.39 539.602 197.039C539.292 196.684 538.872 196.506 538.344 196.506ZM544.045 195.604L544.079 196.424C544.621 195.786 545.353 195.467 546.273 195.467C547.308 195.467 548.012 195.863 548.386 196.656C548.632 196.301 548.951 196.014 549.343 195.795C549.739 195.576 550.206 195.467 550.744 195.467C552.367 195.467 553.191 196.326 553.219 198.044V203H551.954V198.119C551.954 197.59 551.833 197.196 551.592 196.937C551.35 196.672 550.945 196.54 550.375 196.54C549.906 196.54 549.516 196.681 549.206 196.964C548.896 197.242 548.716 197.618 548.666 198.092V203H547.395V198.153C547.395 197.078 546.868 196.54 545.815 196.54C544.986 196.54 544.419 196.893 544.113 197.6V203H542.849V195.604H544.045ZM554.798 199.233C554.798 198.509 554.939 197.857 555.222 197.278C555.509 196.7 555.905 196.253 556.411 195.938C556.922 195.624 557.503 195.467 558.154 195.467C559.161 195.467 559.975 195.815 560.595 196.513C561.219 197.21 561.531 198.137 561.531 199.295V199.384C561.531 200.104 561.392 200.751 561.114 201.325C560.841 201.895 560.447 202.339 559.932 202.658C559.421 202.977 558.833 203.137 558.168 203.137C557.165 203.137 556.352 202.788 555.728 202.091C555.108 201.394 554.798 200.471 554.798 199.322V199.233ZM556.069 199.384C556.069 200.204 556.258 200.863 556.637 201.359C557.02 201.856 557.53 202.104 558.168 202.104C558.811 202.104 559.321 201.854 559.699 201.353C560.077 200.847 560.267 200.14 560.267 199.233C560.267 198.422 560.073 197.766 559.686 197.265C559.303 196.759 558.792 196.506 558.154 196.506C557.53 196.506 557.026 196.754 556.644 197.251C556.261 197.748 556.069 198.459 556.069 199.384ZM566.692 196.738C566.501 196.706 566.294 196.69 566.07 196.69C565.241 196.69 564.678 197.044 564.382 197.75V203H563.117V195.604H564.348L564.368 196.458C564.783 195.797 565.371 195.467 566.132 195.467C566.378 195.467 566.565 195.499 566.692 195.562V196.738ZM570.404 201.147L572.127 195.604H573.48L570.507 204.142C570.047 205.372 569.315 205.987 568.312 205.987L568.073 205.967L567.602 205.878V204.853L567.943 204.88C568.372 204.88 568.704 204.793 568.941 204.62C569.183 204.447 569.381 204.13 569.536 203.67L569.816 202.918L567.178 195.604H568.559L570.404 201.147ZM427.096 214.96C427.096 213.93 427.232 212.941 427.506 211.993C427.784 211.045 428.196 210.184 428.743 209.409C429.29 208.634 429.857 208.088 430.445 207.769L430.705 208.603C430.04 209.113 429.493 209.892 429.064 210.94C428.641 211.989 428.408 213.162 428.367 214.461L428.36 215.042C428.36 216.801 428.682 218.328 429.324 219.622C429.712 220.397 430.172 221.003 430.705 221.44L430.445 222.213C429.839 221.876 429.26 221.311 428.709 220.518C427.633 218.968 427.096 217.116 427.096 214.96ZM431.594 215.233C431.594 214.509 431.735 213.857 432.018 213.278C432.305 212.7 432.701 212.253 433.207 211.938C433.717 211.624 434.299 211.467 434.95 211.467C435.957 211.467 436.771 211.815 437.391 212.513C438.015 213.21 438.327 214.137 438.327 215.295V215.384C438.327 216.104 438.188 216.751 437.91 217.325C437.637 217.895 437.243 218.339 436.728 218.658C436.217 218.977 435.629 219.137 434.964 219.137C433.961 219.137 433.148 218.788 432.523 218.091C431.904 217.394 431.594 216.471 431.594 215.322V215.233ZM432.865 215.384C432.865 216.204 433.054 216.863 433.433 217.359C433.815 217.856 434.326 218.104 434.964 218.104C435.606 218.104 436.117 217.854 436.495 217.353C436.873 216.847 437.062 216.14 437.062 215.233C437.062 214.422 436.869 213.766 436.481 213.265C436.099 212.759 435.588 212.506 434.95 212.506C434.326 212.506 433.822 212.754 433.439 213.251C433.057 213.748 432.865 214.459 432.865 215.384ZM446.462 217.257L447.884 211.604H449.148L446.995 219H445.97L444.172 213.395L442.422 219H441.396L439.25 211.604H440.508L441.964 217.141L443.687 211.604H444.705L446.462 217.257ZM451.637 211.604L451.678 212.533C452.243 211.822 452.981 211.467 453.893 211.467C455.456 211.467 456.244 212.349 456.258 214.112V219H454.993V214.105C454.989 213.572 454.866 213.178 454.624 212.923C454.387 212.668 454.016 212.54 453.51 212.54C453.1 212.54 452.74 212.649 452.43 212.868C452.12 213.087 451.878 213.374 451.705 213.729V219H450.44V211.604H451.637ZM461.234 219.137C460.232 219.137 459.416 218.809 458.787 218.152C458.158 217.492 457.844 216.61 457.844 215.507V215.274C457.844 214.541 457.983 213.887 458.261 213.312C458.543 212.734 458.935 212.283 459.437 211.959C459.942 211.631 460.489 211.467 461.077 211.467C462.039 211.467 462.786 211.784 463.319 212.417C463.853 213.05 464.119 213.957 464.119 215.138V215.664H459.108C459.127 216.393 459.339 216.983 459.744 217.435C460.154 217.881 460.674 218.104 461.303 218.104C461.749 218.104 462.128 218.013 462.438 217.831C462.747 217.649 463.019 217.407 463.251 217.106L464.023 217.708C463.404 218.66 462.474 219.137 461.234 219.137ZM461.077 212.506C460.567 212.506 460.138 212.693 459.792 213.066C459.446 213.436 459.231 213.955 459.149 214.625H462.854V214.529C462.818 213.887 462.645 213.39 462.335 213.039C462.025 212.684 461.606 212.506 461.077 212.506ZM469.164 212.738C468.973 212.706 468.765 212.69 468.542 212.69C467.713 212.69 467.15 213.044 466.854 213.75V219H465.589V211.604H466.819L466.84 212.458C467.255 211.797 467.842 211.467 468.604 211.467C468.85 211.467 469.036 211.499 469.164 211.562V212.738ZM474.64 217.038C474.64 216.696 474.51 216.432 474.25 216.245C473.995 216.054 473.546 215.89 472.903 215.753C472.265 215.616 471.757 215.452 471.379 215.261C471.005 215.069 470.727 214.841 470.545 214.577C470.367 214.313 470.278 213.998 470.278 213.634C470.278 213.028 470.534 212.515 471.044 212.096C471.559 211.676 472.215 211.467 473.013 211.467C473.851 211.467 474.53 211.683 475.05 212.116C475.574 212.549 475.836 213.103 475.836 213.777H474.564C474.564 213.431 474.416 213.132 474.12 212.882C473.828 212.631 473.459 212.506 473.013 212.506C472.552 212.506 472.192 212.606 471.933 212.807C471.673 213.007 471.543 213.269 471.543 213.593C471.543 213.898 471.664 214.128 471.905 214.283C472.147 214.438 472.582 214.586 473.211 214.728C473.844 214.869 474.357 215.037 474.749 215.233C475.141 215.429 475.43 215.666 475.617 215.944C475.809 216.218 475.904 216.553 475.904 216.949C475.904 217.61 475.64 218.141 475.111 218.542C474.583 218.938 473.897 219.137 473.054 219.137C472.461 219.137 471.937 219.032 471.481 218.822C471.026 218.613 470.668 218.321 470.408 217.947C470.153 217.569 470.025 217.161 470.025 216.724H471.29C471.313 217.147 471.481 217.485 471.796 217.735C472.115 217.981 472.534 218.104 473.054 218.104C473.532 218.104 473.915 218.009 474.202 217.817C474.494 217.621 474.64 217.362 474.64 217.038ZM478.816 212.499C479.377 211.811 480.106 211.467 481.004 211.467C482.567 211.467 483.355 212.349 483.369 214.112V219H482.104V214.105C482.1 213.572 481.977 213.178 481.735 212.923C481.498 212.668 481.127 212.54 480.621 212.54C480.211 212.54 479.851 212.649 479.541 212.868C479.231 213.087 478.99 213.374 478.816 213.729V219H477.552V208.5H478.816V212.499ZM486.637 219H485.372V211.604H486.637V219ZM485.27 209.642C485.27 209.437 485.331 209.263 485.454 209.122C485.582 208.981 485.769 208.91 486.015 208.91C486.261 208.91 486.448 208.981 486.575 209.122C486.703 209.263 486.767 209.437 486.767 209.642C486.767 209.847 486.703 210.018 486.575 210.154C486.448 210.291 486.261 210.359 486.015 210.359C485.769 210.359 485.582 210.291 485.454 210.154C485.331 210.018 485.27 209.847 485.27 209.642ZM494.915 215.384C494.915 216.509 494.658 217.416 494.143 218.104C493.628 218.793 492.93 219.137 492.051 219.137C491.153 219.137 490.447 218.852 489.932 218.282V221.844H488.667V211.604H489.822L489.884 212.424C490.399 211.786 491.114 211.467 492.03 211.467C492.919 211.467 493.621 211.802 494.136 212.472C494.655 213.142 494.915 214.074 494.915 215.268V215.384ZM493.65 215.24C493.65 214.406 493.473 213.748 493.117 213.265C492.762 212.782 492.274 212.54 491.654 212.54C490.889 212.54 490.314 212.88 489.932 213.559V217.093C490.31 217.767 490.889 218.104 491.668 218.104C492.274 218.104 492.755 217.865 493.11 217.387C493.47 216.904 493.65 216.188 493.65 215.24ZM496.487 220.982L495.77 220.49C496.198 219.893 496.421 219.278 496.439 218.645V217.503H497.677V218.494C497.677 218.954 497.563 219.415 497.335 219.875C497.112 220.335 496.829 220.704 496.487 220.982ZM504.123 219H502.858V208.5H504.123V219ZM507.527 219H506.263V211.604H507.527V219ZM506.16 209.642C506.16 209.437 506.222 209.263 506.345 209.122C506.472 208.981 506.659 208.91 506.905 208.91C507.151 208.91 507.338 208.981 507.466 209.122C507.593 209.263 507.657 209.437 507.657 209.642C507.657 209.847 507.593 210.018 507.466 210.154C507.338 210.291 507.151 210.359 506.905 210.359C506.659 210.359 506.472 210.291 506.345 210.154C506.222 210.018 506.16 209.847 506.16 209.642ZM510.18 219V212.581H509.011V211.604H510.18V210.845C510.18 210.052 510.392 209.439 510.815 209.006C511.239 208.573 511.839 208.356 512.613 208.356C512.905 208.356 513.194 208.395 513.481 208.473L513.413 209.498C513.199 209.457 512.971 209.437 512.729 209.437C512.319 209.437 512.003 209.557 511.779 209.799C511.556 210.036 511.444 210.378 511.444 210.824V211.604H513.023V212.581H511.444V219H510.18ZM517.33 219.137C516.327 219.137 515.512 218.809 514.883 218.152C514.254 217.492 513.939 216.61 513.939 215.507V215.274C513.939 214.541 514.078 213.887 514.356 213.312C514.639 212.734 515.031 212.283 515.532 211.959C516.038 211.631 516.585 211.467 517.173 211.467C518.134 211.467 518.882 211.784 519.415 212.417C519.948 213.05 520.215 213.957 520.215 215.138V215.664H515.204C515.222 216.393 515.434 216.983 515.84 217.435C516.25 217.881 516.77 218.104 517.398 218.104C517.845 218.104 518.223 218.013 518.533 217.831C518.843 217.649 519.114 217.407 519.347 217.106L520.119 217.708C519.499 218.66 518.57 219.137 517.33 219.137ZM517.173 212.506C516.662 212.506 516.234 212.693 515.888 213.066C515.541 213.436 515.327 213.955 515.245 214.625H518.95V214.529C518.914 213.887 518.741 213.39 518.431 213.039C518.121 212.684 517.701 212.506 517.173 212.506ZM523.4 209.812V211.604H524.781V212.581H523.4V217.168C523.4 217.464 523.462 217.688 523.585 217.838C523.708 217.984 523.918 218.057 524.214 218.057C524.36 218.057 524.56 218.029 524.815 217.975V219C524.483 219.091 524.159 219.137 523.845 219.137C523.28 219.137 522.854 218.966 522.566 218.624C522.279 218.282 522.136 217.797 522.136 217.168V212.581H520.789V211.604H522.136V209.812H523.4ZM527.639 219H526.374V211.604H527.639V219ZM526.271 209.642C526.271 209.437 526.333 209.263 526.456 209.122C526.584 208.981 526.771 208.91 527.017 208.91C527.263 208.91 527.45 208.981 527.577 209.122C527.705 209.263 527.769 209.437 527.769 209.642C527.769 209.847 527.705 210.018 527.577 210.154C527.45 210.291 527.263 210.359 527.017 210.359C526.771 210.359 526.584 210.291 526.456 210.154C526.333 210.018 526.271 209.847 526.271 209.642ZM530.858 211.604L530.893 212.424C531.435 211.786 532.166 211.467 533.087 211.467C534.121 211.467 534.826 211.863 535.199 212.656C535.445 212.301 535.764 212.014 536.156 211.795C536.553 211.576 537.02 211.467 537.558 211.467C539.18 211.467 540.005 212.326 540.032 214.044V219H538.768V214.119C538.768 213.59 538.647 213.196 538.405 212.937C538.164 212.672 537.758 212.54 537.188 212.54C536.719 212.54 536.329 212.681 536.02 212.964C535.71 213.242 535.53 213.618 535.479 214.092V219H534.208V214.153C534.208 213.078 533.682 212.54 532.629 212.54C531.799 212.54 531.232 212.893 530.927 213.6V219H529.662V211.604H530.858ZM545.016 219.137C544.013 219.137 543.197 218.809 542.568 218.152C541.939 217.492 541.625 216.61 541.625 215.507V215.274C541.625 214.541 541.764 213.887 542.042 213.312C542.325 212.734 542.716 212.283 543.218 211.959C543.724 211.631 544.271 211.467 544.858 211.467C545.82 211.467 546.567 211.784 547.101 212.417C547.634 213.05 547.9 213.957 547.9 215.138V215.664H542.89C542.908 216.393 543.12 216.983 543.525 217.435C543.936 217.881 544.455 218.104 545.084 218.104C545.531 218.104 545.909 218.013 546.219 217.831C546.529 217.649 546.8 217.407 547.032 217.106L547.805 217.708C547.185 218.66 546.255 219.137 545.016 219.137ZM544.858 212.506C544.348 212.506 543.92 212.693 543.573 213.066C543.227 213.436 543.013 213.955 542.931 214.625H546.636V214.529C546.599 213.887 546.426 213.39 546.116 213.039C545.806 212.684 545.387 212.506 544.858 212.506ZM553.677 217.038C553.677 216.696 553.547 216.432 553.287 216.245C553.032 216.054 552.583 215.89 551.94 215.753C551.302 215.616 550.794 215.452 550.416 215.261C550.042 215.069 549.764 214.841 549.582 214.577C549.404 214.313 549.315 213.998 549.315 213.634C549.315 213.028 549.571 212.515 550.081 212.096C550.596 211.676 551.252 211.467 552.05 211.467C552.888 211.467 553.567 211.683 554.087 212.116C554.611 212.549 554.873 213.103 554.873 213.777H553.602C553.602 213.431 553.453 213.132 553.157 212.882C552.866 212.631 552.496 212.506 552.05 212.506C551.59 212.506 551.229 212.606 550.97 212.807C550.71 213.007 550.58 213.269 550.58 213.593C550.58 213.898 550.701 214.128 550.942 214.283C551.184 214.438 551.619 214.586 552.248 214.728C552.882 214.869 553.394 215.037 553.786 215.233C554.178 215.429 554.467 215.666 554.654 215.944C554.846 216.218 554.941 216.553 554.941 216.949C554.941 217.61 554.677 218.141 554.148 218.542C553.62 218.938 552.934 219.137 552.091 219.137C551.498 219.137 550.974 219.032 550.519 218.822C550.063 218.613 549.705 218.321 549.445 217.947C549.19 217.569 549.062 217.161 549.062 216.724H550.327C550.35 217.147 550.519 217.485 550.833 217.735C551.152 217.981 551.571 218.104 552.091 218.104C552.569 218.104 552.952 218.009 553.239 217.817C553.531 217.621 553.677 217.362 553.677 217.038ZM559.795 216.327C559.795 215.849 559.927 215.409 560.191 215.008C560.46 214.607 560.971 214.14 561.723 213.606C561.281 213.069 560.984 212.636 560.834 212.308C560.684 211.979 560.608 211.654 560.608 211.33C560.608 210.574 560.832 209.981 561.278 209.553C561.725 209.124 562.331 208.91 563.097 208.91C563.78 208.91 564.345 209.111 564.792 209.512C565.239 209.908 565.462 210.41 565.462 211.016C565.462 211.417 565.359 211.788 565.154 212.13C564.954 212.467 564.601 212.823 564.095 213.196L563.363 213.736L565.578 216.382C565.888 215.789 566.043 215.131 566.043 214.406H567.185C567.185 215.568 566.904 216.532 566.344 217.298L567.766 219H566.248L565.585 218.214C565.248 218.515 564.851 218.745 564.396 218.904C563.944 219.059 563.484 219.137 563.015 219.137C562.044 219.137 561.265 218.879 560.677 218.364C560.089 217.849 559.795 217.17 559.795 216.327ZM563.015 218.104C563.685 218.104 564.298 217.849 564.854 217.339L562.427 214.434L562.201 214.598C561.44 215.158 561.06 215.735 561.06 216.327C561.06 216.865 561.233 217.296 561.579 217.619C561.93 217.943 562.409 218.104 563.015 218.104ZM561.873 211.289C561.873 211.727 562.142 212.273 562.68 212.93L563.486 212.362C563.796 212.144 564.008 211.936 564.122 211.74C564.236 211.54 564.293 211.298 564.293 211.016C564.293 210.71 564.179 210.457 563.951 210.257C563.723 210.052 563.436 209.949 563.09 209.949C562.716 209.949 562.42 210.077 562.201 210.332C561.982 210.583 561.873 210.902 561.873 211.289ZM454.234 233.038C454.234 232.696 454.104 232.432 453.845 232.245C453.59 232.054 453.141 231.89 452.498 231.753C451.86 231.616 451.352 231.452 450.974 231.261C450.6 231.069 450.322 230.841 450.14 230.577C449.962 230.313 449.873 229.998 449.873 229.634C449.873 229.028 450.128 228.515 450.639 228.096C451.154 227.676 451.81 227.467 452.607 227.467C453.446 227.467 454.125 227.683 454.645 228.116C455.169 228.549 455.431 229.103 455.431 229.777H454.159C454.159 229.431 454.011 229.132 453.715 228.882C453.423 228.631 453.054 228.506 452.607 228.506C452.147 228.506 451.787 228.606 451.527 228.807C451.268 229.007 451.138 229.269 451.138 229.593C451.138 229.898 451.258 230.128 451.5 230.283C451.742 230.438 452.177 230.586 452.806 230.728C453.439 230.869 453.952 231.037 454.344 231.233C454.736 231.429 455.025 231.666 455.212 231.944C455.403 232.218 455.499 232.553 455.499 232.949C455.499 233.61 455.235 234.141 454.706 234.542C454.177 234.938 453.492 235.137 452.648 235.137C452.056 235.137 451.532 235.032 451.076 234.822C450.62 234.613 450.263 234.321 450.003 233.947C449.748 233.569 449.62 233.161 449.62 232.724H450.885C450.908 233.147 451.076 233.485 451.391 233.735C451.71 233.981 452.129 234.104 452.648 234.104C453.127 234.104 453.51 234.009 453.797 233.817C454.089 233.621 454.234 233.362 454.234 233.038ZM458.336 227.604L458.37 228.424C458.912 227.786 459.644 227.467 460.564 227.467C461.599 227.467 462.303 227.863 462.677 228.656C462.923 228.301 463.242 228.014 463.634 227.795C464.03 227.576 464.497 227.467 465.035 227.467C466.658 227.467 467.482 228.326 467.51 230.044V235H466.245V230.119C466.245 229.59 466.124 229.196 465.883 228.937C465.641 228.672 465.236 228.54 464.666 228.54C464.197 228.54 463.807 228.681 463.497 228.964C463.187 229.242 463.007 229.618 462.957 230.092V235H461.686V230.153C461.686 229.078 461.159 228.54 460.106 228.54C459.277 228.54 458.71 228.893 458.404 229.6V235H457.14V227.604H458.336ZM473.99 235C473.917 234.854 473.858 234.594 473.812 234.221C473.225 234.831 472.523 235.137 471.707 235.137C470.978 235.137 470.379 234.932 469.909 234.521C469.444 234.107 469.212 233.583 469.212 232.949C469.212 232.179 469.504 231.582 470.087 231.158C470.675 230.73 471.5 230.516 472.562 230.516H473.792V229.935C473.792 229.493 473.66 229.142 473.396 228.882C473.131 228.618 472.742 228.485 472.227 228.485C471.775 228.485 471.397 228.599 471.092 228.827C470.786 229.055 470.634 229.331 470.634 229.654H469.362C469.362 229.285 469.492 228.93 469.752 228.588C470.016 228.242 470.372 227.968 470.818 227.768C471.27 227.567 471.764 227.467 472.302 227.467C473.154 227.467 473.822 227.681 474.305 228.109C474.788 228.533 475.038 229.119 475.057 229.866V233.271C475.057 233.95 475.143 234.49 475.316 234.891V235H473.99ZM471.892 234.036C472.288 234.036 472.664 233.934 473.02 233.729C473.375 233.523 473.632 233.257 473.792 232.929V231.411H472.801C471.251 231.411 470.477 231.865 470.477 232.771C470.477 233.168 470.609 233.478 470.873 233.701C471.137 233.924 471.477 234.036 471.892 234.036ZM480.614 228.738C480.423 228.706 480.215 228.69 479.992 228.69C479.163 228.69 478.6 229.044 478.304 229.75V235H477.039V227.604H478.27L478.29 228.458C478.705 227.797 479.293 227.467 480.054 227.467C480.3 227.467 480.487 227.499 480.614 227.562V228.738ZM483.841 225.812V227.604H485.222V228.581H483.841V233.168C483.841 233.464 483.902 233.688 484.025 233.838C484.148 233.984 484.358 234.057 484.654 234.057C484.8 234.057 485.001 234.029 485.256 233.975V235C484.923 235.091 484.6 235.137 484.285 235.137C483.72 235.137 483.294 234.966 483.007 234.624C482.72 234.282 482.576 233.797 482.576 233.168V228.581H481.229V227.604H482.576V225.812H483.841ZM496.426 231.384C496.426 232.509 496.168 233.416 495.653 234.104C495.138 234.793 494.441 235.137 493.562 235.137C492.664 235.137 491.957 234.852 491.442 234.282V237.844H490.178V227.604H491.333L491.395 228.424C491.91 227.786 492.625 227.467 493.541 227.467C494.43 227.467 495.132 227.802 495.646 228.472C496.166 229.142 496.426 230.074 496.426 231.268V231.384ZM495.161 231.24C495.161 230.406 494.983 229.748 494.628 229.265C494.272 228.782 493.785 228.54 493.165 228.54C492.399 228.54 491.825 228.88 491.442 229.559V233.093C491.821 233.767 492.399 234.104 493.179 234.104C493.785 234.104 494.266 233.865 494.621 233.387C494.981 232.904 495.161 232.188 495.161 231.24ZM497.704 231.233C497.704 230.509 497.845 229.857 498.128 229.278C498.415 228.7 498.812 228.253 499.317 227.938C499.828 227.624 500.409 227.467 501.061 227.467C502.068 227.467 502.881 227.815 503.501 228.513C504.125 229.21 504.438 230.137 504.438 231.295V231.384C504.438 232.104 504.299 232.751 504.021 233.325C503.747 233.895 503.353 234.339 502.838 234.658C502.327 234.977 501.74 235.137 501.074 235.137C500.072 235.137 499.258 234.788 498.634 234.091C498.014 233.394 497.704 232.471 497.704 231.322V231.233ZM498.976 231.384C498.976 232.204 499.165 232.863 499.543 233.359C499.926 233.856 500.436 234.104 501.074 234.104C501.717 234.104 502.227 233.854 502.605 233.353C502.984 232.847 503.173 232.14 503.173 231.233C503.173 230.422 502.979 229.766 502.592 229.265C502.209 228.759 501.699 228.506 501.061 228.506C500.436 228.506 499.933 228.754 499.55 229.251C499.167 229.748 498.976 230.459 498.976 231.384ZM507.397 235H506.133V227.604H507.397V235ZM506.03 225.642C506.03 225.437 506.092 225.263 506.215 225.122C506.342 224.981 506.529 224.91 506.775 224.91C507.021 224.91 507.208 224.981 507.336 225.122C507.464 225.263 507.527 225.437 507.527 225.642C507.527 225.847 507.464 226.018 507.336 226.154C507.208 226.291 507.021 226.359 506.775 226.359C506.529 226.359 506.342 226.291 506.215 226.154C506.092 226.018 506.03 225.847 506.03 225.642ZM510.624 227.604L510.665 228.533C511.23 227.822 511.968 227.467 512.88 227.467C514.443 227.467 515.231 228.349 515.245 230.112V235H513.98V230.105C513.976 229.572 513.853 229.178 513.611 228.923C513.374 228.668 513.003 228.54 512.497 228.54C512.087 228.54 511.727 228.649 511.417 228.868C511.107 229.087 510.866 229.374 510.692 229.729V235H509.428V227.604H510.624ZM518.868 225.812V227.604H520.249V228.581H518.868V233.168C518.868 233.464 518.93 233.688 519.053 233.838C519.176 233.984 519.385 234.057 519.682 234.057C519.827 234.057 520.028 234.029 520.283 233.975V235C519.951 235.091 519.627 235.137 519.312 235.137C518.747 235.137 518.321 234.966 518.034 234.624C517.747 234.282 517.604 233.797 517.604 233.168V228.581H516.257V227.604H517.604V225.812H518.868ZM524.802 235.137C523.799 235.137 522.983 234.809 522.354 234.152C521.726 233.492 521.411 232.61 521.411 231.507V231.274C521.411 230.541 521.55 229.887 521.828 229.312C522.111 228.734 522.503 228.283 523.004 227.959C523.51 227.631 524.057 227.467 524.645 227.467C525.606 227.467 526.354 227.784 526.887 228.417C527.42 229.05 527.687 229.957 527.687 231.138V231.664H522.676C522.694 232.393 522.906 232.983 523.312 233.435C523.722 233.881 524.241 234.104 524.87 234.104C525.317 234.104 525.695 234.013 526.005 233.831C526.315 233.649 526.586 233.407 526.818 233.106L527.591 233.708C526.971 234.66 526.041 235.137 524.802 235.137ZM524.645 228.506C524.134 228.506 523.706 228.693 523.359 229.066C523.013 229.436 522.799 229.955 522.717 230.625H526.422V230.529C526.385 229.887 526.212 229.39 525.902 229.039C525.592 228.684 525.173 228.506 524.645 228.506ZM532.731 228.738C532.54 228.706 532.333 228.69 532.109 228.69C531.28 228.69 530.717 229.044 530.421 229.75V235H529.156V227.604H530.387L530.407 228.458C530.822 227.797 531.41 227.467 532.171 227.467C532.417 227.467 532.604 227.499 532.731 227.562V228.738ZM538.207 233.038C538.207 232.696 538.077 232.432 537.817 232.245C537.562 232.054 537.113 231.89 536.471 231.753C535.833 231.616 535.325 231.452 534.946 231.261C534.573 231.069 534.295 230.841 534.112 230.577C533.935 230.313 533.846 229.998 533.846 229.634C533.846 229.028 534.101 228.515 534.611 228.096C535.126 227.676 535.783 227.467 536.58 227.467C537.419 227.467 538.098 227.683 538.617 228.116C539.141 228.549 539.403 229.103 539.403 229.777H538.132C538.132 229.431 537.984 229.132 537.688 228.882C537.396 228.631 537.027 228.506 536.58 228.506C536.12 228.506 535.76 228.606 535.5 228.807C535.24 229.007 535.11 229.269 535.11 229.593C535.11 229.898 535.231 230.128 535.473 230.283C535.714 230.438 536.149 230.586 536.778 230.728C537.412 230.869 537.924 231.037 538.316 231.233C538.708 231.429 538.998 231.666 539.185 231.944C539.376 232.218 539.472 232.553 539.472 232.949C539.472 233.61 539.207 234.141 538.679 234.542C538.15 234.938 537.464 235.137 536.621 235.137C536.029 235.137 535.505 235.032 535.049 234.822C534.593 234.613 534.235 234.321 533.976 233.947C533.72 233.569 533.593 233.161 533.593 232.724H534.857C534.88 233.147 535.049 233.485 535.363 233.735C535.682 233.981 536.102 234.104 536.621 234.104C537.1 234.104 537.482 234.009 537.77 233.817C538.061 233.621 538.207 233.362 538.207 233.038ZM544.038 231.028C544.038 232.045 543.904 233.02 543.635 233.954C543.37 234.884 542.963 235.743 542.411 236.531C541.864 237.32 541.29 237.88 540.688 238.213L540.422 237.44C541.124 236.903 541.687 236.069 542.11 234.938C542.539 233.804 542.757 232.546 542.767 231.165V230.946C542.767 229.989 542.666 229.101 542.466 228.28C542.265 227.455 541.985 226.717 541.625 226.065C541.27 225.414 540.868 224.906 540.422 224.541L540.688 223.769C541.29 224.101 541.862 224.657 542.404 225.437C542.951 226.216 543.359 227.075 543.628 228.014C543.901 228.952 544.038 229.957 544.038 231.028Z" fill="black"/>
<path d="M379.146 227.479C378.859 227.951 379.008 228.566 379.479 228.854L387.164 233.539C387.635 233.827 388.25 233.678 388.538 233.206C388.825 232.735 388.676 232.119 388.205 231.832L381.374 227.667L385.539 220.836C385.827 220.365 385.678 219.75 385.206 219.462C384.735 219.175 384.119 219.324 383.832 219.795L379.146 227.479ZM412.764 219.028L379.764 227.028L380.236 228.972L413.236 220.972L412.764 219.028Z" fill="black"/>
</g>
<defs>
<clipPath id="clip0_125:2">
<rect width="600" height="300" fill="white"/>
</clipPath>
</defs>
</svg>
