<svg width="600" height="98" viewBox="0 0 600 98" fill="none" xmlns="http://www.w3.org/2000/svg">
<rect width="600" height="98" fill="white"/>
<path d="M47.4736 50.877V57H45.4111V41.3594H51.1797C52.8913 41.3594 54.2305 41.7962 55.1973 42.6699C56.1712 43.5436 56.6582 44.7002 56.6582 46.1396C56.6582 47.6579 56.182 48.8288 55.2295 49.6523C54.2842 50.4688 52.9271 50.877 51.1582 50.877H47.4736ZM47.4736 49.1904H51.1797C52.2826 49.1904 53.1276 48.9326 53.7148 48.417C54.3021 47.8942 54.5957 47.1423 54.5957 46.1611C54.5957 45.2301 54.3021 44.4854 53.7148 43.9268C53.1276 43.3682 52.3219 43.0781 51.2979 43.0566H47.4736V49.1904ZM58.3018 51.0811C58.3018 49.9424 58.5238 48.9183 58.9678 48.0088C59.4189 47.0993 60.042 46.3975 60.8369 45.9033C61.639 45.4092 62.5521 45.1621 63.5762 45.1621C65.1589 45.1621 66.4372 45.71 67.4111 46.8057C68.3923 47.9014 68.8828 49.3587 68.8828 51.1777V51.3174C68.8828 52.4489 68.6644 53.4658 68.2275 54.3682C67.7979 55.2633 67.1784 55.9616 66.3691 56.4629C65.5671 56.9642 64.6432 57.2148 63.5977 57.2148C62.0221 57.2148 60.7438 56.667 59.7627 55.5713C58.7887 54.4756 58.3018 53.0254 58.3018 51.2207V51.0811ZM60.2998 51.3174C60.2998 52.6064 60.597 53.6413 61.1914 54.4219C61.793 55.2025 62.5951 55.5928 63.5977 55.5928C64.6074 55.5928 65.4095 55.1989 66.0039 54.4111C66.5983 53.6162 66.8955 52.5062 66.8955 51.0811C66.8955 49.8063 66.5911 48.7751 65.9824 47.9873C65.3809 47.1924 64.5788 46.7949 63.5762 46.7949C62.5951 46.7949 61.8037 47.1852 61.2021 47.9658C60.6006 48.7464 60.2998 49.8636 60.2998 51.3174ZM76.9932 47.1602C76.6924 47.11 76.3665 47.085 76.0156 47.085C74.7122 47.085 73.8278 47.64 73.3623 48.75V57H71.375V45.377H73.3086L73.3408 46.7197C73.9925 45.6813 74.9163 45.1621 76.1123 45.1621C76.499 45.1621 76.7926 45.2122 76.9932 45.3125V47.1602ZM82.0635 42.5625V45.377H84.2334V46.9131H82.0635V54.1211C82.0635 54.5866 82.1602 54.9375 82.3535 55.1738C82.5469 55.403 82.8763 55.5176 83.3418 55.5176C83.571 55.5176 83.8861 55.4746 84.2871 55.3887V57C83.7643 57.1432 83.2559 57.2148 82.7617 57.2148C81.8737 57.2148 81.2041 56.9463 80.7529 56.4092C80.3018 55.8721 80.0762 55.1094 80.0762 54.1211V46.9131H77.96V45.377H80.0762V42.5625H82.0635ZM93.332 53.917C93.332 53.3799 93.1279 52.9645 92.7197 52.6709C92.3187 52.3701 91.6133 52.1123 90.6035 51.8975C89.6009 51.6826 88.8024 51.4248 88.208 51.124C87.6208 50.8232 87.1839 50.4652 86.8975 50.0498C86.6182 49.6344 86.4785 49.1403 86.4785 48.5674C86.4785 47.6149 86.8796 46.8092 87.6816 46.1504C88.4909 45.4915 89.5221 45.1621 90.7754 45.1621C92.0931 45.1621 93.1602 45.5023 93.9766 46.1826C94.8001 46.863 95.2119 47.7331 95.2119 48.793H93.2139C93.2139 48.2487 92.9811 47.7796 92.5156 47.3857C92.0573 46.9919 91.4772 46.7949 90.7754 46.7949C90.0521 46.7949 89.4863 46.9525 89.0781 47.2676C88.6699 47.5827 88.4658 47.9945 88.4658 48.5029C88.4658 48.9827 88.6556 49.3444 89.0352 49.5879C89.4147 49.8314 90.0986 50.0641 91.0869 50.2861C92.0824 50.5081 92.888 50.7731 93.5039 51.0811C94.1198 51.389 94.5745 51.7614 94.8682 52.1982C95.1689 52.6279 95.3193 53.1543 95.3193 53.7773C95.3193 54.8158 94.904 55.6501 94.0732 56.2803C93.2425 56.9033 92.1647 57.2148 90.8398 57.2148C89.9089 57.2148 89.0853 57.0501 88.3691 56.7207C87.653 56.3913 87.0908 55.9329 86.6826 55.3457C86.2816 54.7513 86.0811 54.1104 86.0811 53.4229H88.0684C88.1042 54.0889 88.3691 54.6188 88.8633 55.0127C89.3646 55.3994 90.0234 55.5928 90.8398 55.5928C91.5918 55.5928 92.1934 55.4424 92.6445 55.1416C93.1029 54.8337 93.332 54.4255 93.332 53.917Z" fill="black"/>
<path d="M266.211 50.0283C264.442 49.5199 263.153 48.8968 262.344 48.1592C261.542 47.4144 261.141 46.4977 261.141 45.4092C261.141 44.1774 261.631 43.1605 262.612 42.3584C263.601 41.5492 264.882 41.1445 266.458 41.1445C267.532 41.1445 268.488 41.3522 269.326 41.7676C270.171 42.1829 270.823 42.7559 271.281 43.4863C271.747 44.2168 271.979 45.0153 271.979 45.8818H269.906C269.906 44.9365 269.605 44.1953 269.004 43.6582C268.402 43.1139 267.554 42.8418 266.458 42.8418C265.441 42.8418 264.646 43.0674 264.073 43.5186C263.507 43.9626 263.225 44.582 263.225 45.377C263.225 46.0143 263.493 46.555 264.03 46.999C264.575 47.4359 265.495 47.8369 266.791 48.2021C268.094 48.5674 269.111 48.972 269.842 49.416C270.579 49.8529 271.124 50.3649 271.475 50.9521C271.833 51.5394 272.012 52.2305 272.012 53.0254C272.012 54.293 271.518 55.3099 270.529 56.0762C269.541 56.8353 268.22 57.2148 266.565 57.2148C265.491 57.2148 264.489 57.0107 263.558 56.6025C262.627 56.1872 261.907 55.6214 261.398 54.9053C260.897 54.1891 260.646 53.3763 260.646 52.4668H262.72C262.72 53.4121 263.067 54.1605 263.762 54.7119C264.464 55.2562 265.398 55.5283 266.565 55.5283C267.654 55.5283 268.488 55.3063 269.068 54.8623C269.648 54.4183 269.938 53.8132 269.938 53.0469C269.938 52.2806 269.67 51.6898 269.133 51.2744C268.596 50.8519 267.622 50.4365 266.211 50.0283ZM277.05 42.5625V45.377H279.22V46.9131H277.05V54.1211C277.05 54.5866 277.146 54.9375 277.34 55.1738C277.533 55.403 277.863 55.5176 278.328 55.5176C278.557 55.5176 278.872 55.4746 279.273 55.3887V57C278.751 57.1432 278.242 57.2148 277.748 57.2148C276.86 57.2148 276.19 56.9463 275.739 56.4092C275.288 55.8721 275.062 55.1094 275.062 54.1211V46.9131H272.946V45.377H275.062V42.5625H277.05ZM287.169 47.1602C286.868 47.11 286.542 47.085 286.191 47.085C284.888 47.085 284.004 47.64 283.538 48.75V57H281.551V45.377H283.484L283.517 46.7197C284.168 45.6813 285.092 45.1621 286.288 45.1621C286.675 45.1621 286.968 45.2122 287.169 45.3125V47.1602ZM293.614 57.2148C292.039 57.2148 290.757 56.6992 289.769 55.668C288.78 54.6296 288.286 53.2438 288.286 51.5107V51.1455C288.286 49.9925 288.505 48.9648 288.941 48.0625C289.385 47.153 290.001 46.444 290.789 45.9355C291.584 45.4199 292.443 45.1621 293.367 45.1621C294.878 45.1621 296.053 45.6598 296.891 46.6553C297.729 47.6507 298.147 49.0758 298.147 50.9307V51.7578H290.273C290.302 52.9036 290.635 53.8311 291.272 54.54C291.917 55.2419 292.733 55.5928 293.722 55.5928C294.424 55.5928 295.018 55.4495 295.505 55.1631C295.992 54.8766 296.418 54.4971 296.783 54.0244L297.997 54.9697C297.023 56.4665 295.562 57.2148 293.614 57.2148ZM293.367 46.7949C292.565 46.7949 291.892 47.0885 291.348 47.6758C290.803 48.2559 290.467 49.0723 290.338 50.125H296.16V49.9746C296.103 48.9648 295.831 48.1842 295.344 47.6328C294.857 47.0742 294.198 46.7949 293.367 46.7949ZM307.633 57C307.518 56.7708 307.425 56.3626 307.354 55.7754C306.43 56.735 305.327 57.2148 304.045 57.2148C302.899 57.2148 301.957 56.8926 301.22 56.248C300.489 55.5964 300.124 54.7728 300.124 53.7773C300.124 52.5671 300.582 51.6289 301.499 50.9629C302.423 50.2897 303.719 49.9531 305.388 49.9531H307.321V49.04C307.321 48.3454 307.114 47.7939 306.698 47.3857C306.283 46.9704 305.671 46.7627 304.861 46.7627C304.152 46.7627 303.558 46.9417 303.078 47.2998C302.598 47.6579 302.358 48.0911 302.358 48.5996H300.36C300.36 48.0195 300.564 47.4609 300.973 46.9238C301.388 46.3796 301.947 45.9499 302.648 45.6348C303.357 45.3197 304.134 45.1621 304.979 45.1621C306.319 45.1621 307.368 45.4987 308.127 46.1719C308.886 46.8379 309.28 47.7581 309.309 48.9326V54.2822C309.309 55.3493 309.445 56.1979 309.717 56.8281V57H307.633ZM304.335 55.4854C304.958 55.4854 305.549 55.3242 306.107 55.002C306.666 54.6797 307.071 54.2607 307.321 53.7451V51.3604H305.764C303.329 51.3604 302.111 52.0729 302.111 53.498C302.111 54.1211 302.319 54.6081 302.734 54.959C303.15 55.3099 303.683 55.4854 304.335 55.4854ZM314.293 45.377L314.347 46.666C315.199 45.6634 316.348 45.1621 317.795 45.1621C319.421 45.1621 320.527 45.7852 321.114 47.0312C321.501 46.4727 322.002 46.0215 322.618 45.6777C323.241 45.334 323.975 45.1621 324.82 45.1621C327.37 45.1621 328.666 46.512 328.709 49.2119V57H326.722V49.3301C326.722 48.4993 326.532 47.8799 326.152 47.4717C325.773 47.0563 325.135 46.8486 324.24 46.8486C323.503 46.8486 322.89 47.0706 322.403 47.5146C321.916 47.9515 321.633 48.5423 321.555 49.2871V57H319.557V49.3838C319.557 47.6937 318.729 46.8486 317.075 46.8486C315.772 46.8486 314.88 47.4036 314.4 48.5137V57H312.413V45.377H314.293Z" fill="black"/>
<path d="M144.009 72H142.696V62.0469H144.009V72ZM147.413 64.6035L147.454 65.5332C148.019 64.8223 148.757 64.4668 149.669 64.4668C151.232 64.4668 152.021 65.3486 152.034 67.1123V72H150.77V67.1055C150.765 66.5723 150.642 66.1781 150.4 65.9229C150.163 65.6676 149.792 65.54 149.286 65.54C148.876 65.54 148.516 65.6494 148.206 65.8682C147.896 66.0869 147.655 66.374 147.481 66.7295V72H146.217V64.6035H147.413ZM160.189 68.3838C160.189 69.5094 159.932 70.4163 159.417 71.1045C158.902 71.7926 158.205 72.1367 157.325 72.1367C156.427 72.1367 155.721 71.8519 155.206 71.2822V74.8438H153.941V64.6035H155.097L155.158 65.4238C155.673 64.7858 156.389 64.4668 157.305 64.4668C158.193 64.4668 158.895 64.8018 159.41 65.4717C159.93 66.1416 160.189 67.0736 160.189 68.2676V68.3838ZM158.925 68.2402C158.925 67.4062 158.747 66.7477 158.392 66.2646C158.036 65.7816 157.549 65.54 156.929 65.54C156.163 65.54 155.589 65.8796 155.206 66.5586V70.0928C155.584 70.7673 156.163 71.1045 156.942 71.1045C157.549 71.1045 158.029 70.8652 158.385 70.3867C158.745 69.9036 158.925 69.1882 158.925 68.2402ZM166.369 71.2686C165.877 71.8473 165.155 72.1367 164.202 72.1367C163.414 72.1367 162.812 71.9089 162.397 71.4531C161.987 70.9928 161.78 70.3138 161.775 69.416V64.6035H163.04V69.3818C163.04 70.5029 163.496 71.0635 164.407 71.0635C165.373 71.0635 166.016 70.7035 166.335 69.9834V64.6035H167.6V72H166.396L166.369 71.2686ZM171.243 62.8125V64.6035H172.624V65.5811H171.243V70.168C171.243 70.4642 171.305 70.6875 171.428 70.8379C171.551 70.9837 171.76 71.0566 172.057 71.0566C172.202 71.0566 172.403 71.0293 172.658 70.9746V72C172.326 72.0911 172.002 72.1367 171.688 72.1367C171.122 72.1367 170.696 71.9658 170.409 71.624C170.122 71.2822 169.979 70.7969 169.979 70.168V65.5811H168.632V64.6035H169.979V62.8125H171.243ZM180.547 71.1045C180.998 71.1045 181.392 70.9678 181.729 70.6943C182.067 70.4209 182.254 70.0791 182.29 69.6689H183.486C183.464 70.0928 183.318 70.4961 183.049 70.8789C182.78 71.2617 182.42 71.5671 181.969 71.7949C181.522 72.0228 181.048 72.1367 180.547 72.1367C179.54 72.1367 178.738 71.8018 178.141 71.1318C177.548 70.4574 177.252 69.5368 177.252 68.3701V68.1582C177.252 67.4382 177.384 66.7979 177.648 66.2373C177.913 65.6768 178.291 65.2415 178.783 64.9316C179.28 64.6217 179.866 64.4668 180.54 64.4668C181.369 64.4668 182.058 64.7152 182.604 65.2119C183.156 65.7087 183.45 66.3535 183.486 67.1465H182.29C182.254 66.668 182.071 66.276 181.743 65.9707C181.42 65.6608 181.019 65.5059 180.54 65.5059C179.897 65.5059 179.398 65.7383 179.043 66.2031C178.692 66.6634 178.517 67.3311 178.517 68.2061V68.4453C178.517 69.2975 178.692 69.9538 179.043 70.4141C179.394 70.8743 179.895 71.1045 180.547 71.1045ZM186.173 65.499C186.733 64.8109 187.463 64.4668 188.36 64.4668C189.924 64.4668 190.712 65.3486 190.726 67.1123V72H189.461V67.1055C189.456 66.5723 189.333 66.1781 189.092 65.9229C188.855 65.6676 188.483 65.54 187.978 65.54C187.567 65.54 187.207 65.6494 186.897 65.8682C186.588 66.0869 186.346 66.374 186.173 66.7295V72H184.908V61.5H186.173V65.499ZM197.186 72C197.113 71.8542 197.053 71.5944 197.008 71.2207C196.42 71.8314 195.718 72.1367 194.902 72.1367C194.173 72.1367 193.574 71.9316 193.104 71.5215C192.64 71.1068 192.407 70.5827 192.407 69.9492C192.407 69.179 192.699 68.582 193.282 68.1582C193.87 67.7298 194.695 67.5156 195.757 67.5156H196.987V66.9346C196.987 66.4925 196.855 66.1416 196.591 65.8818C196.326 65.6175 195.937 65.4854 195.422 65.4854C194.971 65.4854 194.592 65.5993 194.287 65.8271C193.982 66.055 193.829 66.3307 193.829 66.6543H192.558C192.558 66.2852 192.688 65.9297 192.947 65.5879C193.212 65.2415 193.567 64.9681 194.014 64.7676C194.465 64.5671 194.959 64.4668 195.497 64.4668C196.349 64.4668 197.017 64.681 197.5 65.1094C197.983 65.5332 198.234 66.1188 198.252 66.8662V70.2705C198.252 70.9495 198.339 71.4896 198.512 71.8906V72H197.186ZM195.087 71.0361C195.483 71.0361 195.859 70.9336 196.215 70.7285C196.57 70.5234 196.828 70.2568 196.987 69.9287V68.4111H195.996C194.447 68.4111 193.672 68.8646 193.672 69.7715C193.672 70.168 193.804 70.4779 194.068 70.7012C194.333 70.9245 194.672 71.0361 195.087 71.0361ZM201.431 64.6035L201.472 65.5332C202.037 64.8223 202.775 64.4668 203.687 64.4668C205.25 64.4668 206.038 65.3486 206.052 67.1123V72H204.787V67.1055C204.783 66.5723 204.66 66.1781 204.418 65.9229C204.181 65.6676 203.81 65.54 203.304 65.54C202.894 65.54 202.534 65.6494 202.224 65.8682C201.914 66.0869 201.672 66.374 201.499 66.7295V72H200.234V64.6035H201.431ZM209.155 64.6035L209.196 65.5332C209.761 64.8223 210.5 64.4668 211.411 64.4668C212.974 64.4668 213.763 65.3486 213.776 67.1123V72H212.512V67.1055C212.507 66.5723 212.384 66.1781 212.143 65.9229C211.906 65.6676 211.534 65.54 211.028 65.54C210.618 65.54 210.258 65.6494 209.948 65.8682C209.638 66.0869 209.397 66.374 209.224 66.7295V72H207.959V64.6035H209.155ZM218.753 72.1367C217.75 72.1367 216.935 71.8086 216.306 71.1523C215.677 70.4915 215.362 69.6097 215.362 68.5068V68.2744C215.362 67.5407 215.501 66.8867 215.779 66.3125C216.062 65.7337 216.454 65.2826 216.955 64.959C217.461 64.6309 218.008 64.4668 218.596 64.4668C219.557 64.4668 220.305 64.7835 220.838 65.417C221.371 66.0505 221.638 66.9574 221.638 68.1377V68.6641H216.627C216.645 69.3932 216.857 69.9834 217.263 70.4346C217.673 70.8812 218.192 71.1045 218.821 71.1045C219.268 71.1045 219.646 71.0133 219.956 70.8311C220.266 70.6488 220.537 70.4072 220.77 70.1064L221.542 70.708C220.922 71.6605 219.993 72.1367 218.753 72.1367ZM218.596 65.5059C218.085 65.5059 217.657 65.6927 217.311 66.0664C216.964 66.4355 216.75 66.9551 216.668 67.625H220.373V67.5293C220.337 66.8867 220.163 66.39 219.854 66.0391C219.544 65.6836 219.124 65.5059 218.596 65.5059ZM224.481 72H223.217V61.5H224.481V72Z" fill="black"/>
<path d="M240.711 49.7071C241.102 49.3166 241.102 48.6834 240.711 48.2929L234.347 41.9289C233.957 41.5384 233.324 41.5384 232.933 41.9289C232.543 42.3195 232.543 42.9526 232.933 43.3431L238.59 49L232.933 54.6569C232.543 55.0474 232.543 55.6805 232.933 56.0711C233.324 56.4616 233.957 56.4616 234.347 56.0711L240.711 49.7071ZM125 50H240.004V48H125V50Z" fill="black"/>
<path d="M369.062 67.3447C369.062 68.32 368.897 69.1722 368.569 69.9014C368.241 70.626 367.776 71.1797 367.175 71.5625C366.573 71.9453 365.871 72.1367 365.069 72.1367C364.285 72.1367 363.59 71.9453 362.984 71.5625C362.378 71.1751 361.907 70.626 361.569 69.915C361.237 69.1995 361.066 68.3724 361.057 67.4336V66.7158C361.057 65.7588 361.223 64.9134 361.556 64.1797C361.888 63.446 362.358 62.8854 362.964 62.498C363.575 62.1061 364.272 61.9102 365.056 61.9102C365.853 61.9102 366.555 62.1038 367.161 62.4912C367.772 62.874 368.241 63.4323 368.569 64.166C368.897 64.8952 369.062 65.7451 369.062 66.7158V67.3447ZM367.756 66.7021C367.756 65.5218 367.519 64.6172 367.045 63.9883C366.571 63.3548 365.908 63.0381 365.056 63.0381C364.226 63.0381 363.572 63.3548 363.094 63.9883C362.62 64.6172 362.376 65.4922 362.362 66.6133V67.3447C362.362 68.4886 362.602 69.3887 363.08 70.0449C363.563 70.6966 364.226 71.0225 365.069 71.0225C365.917 71.0225 366.573 70.7148 367.038 70.0996C367.503 69.4798 367.742 68.5934 367.756 67.4404V66.7021ZM375.398 71.2686C374.906 71.8473 374.184 72.1367 373.231 72.1367C372.443 72.1367 371.841 71.9089 371.427 71.4531C371.017 70.9928 370.809 70.3138 370.805 69.416V64.6035H372.069V69.3818C372.069 70.5029 372.525 71.0635 373.437 71.0635C374.403 71.0635 375.045 70.7035 375.364 69.9834V64.6035H376.629V72H375.426L375.398 71.2686ZM380.272 62.8125V64.6035H381.653V65.5811H380.272V70.168C380.272 70.4642 380.334 70.6875 380.457 70.8379C380.58 70.9837 380.79 71.0566 381.086 71.0566C381.232 71.0566 381.432 71.0293 381.688 70.9746V72C381.355 72.0911 381.031 72.1367 380.717 72.1367C380.152 72.1367 379.726 71.9658 379.438 71.624C379.151 71.2822 379.008 70.7969 379.008 70.168V65.5811H377.661V64.6035H379.008V62.8125H380.272ZM389.385 68.3838C389.385 69.5094 389.127 70.4163 388.612 71.1045C388.097 71.7926 387.4 72.1367 386.521 72.1367C385.623 72.1367 384.916 71.8519 384.401 71.2822V74.8438H383.137V64.6035H384.292L384.354 65.4238C384.868 64.7858 385.584 64.4668 386.5 64.4668C387.389 64.4668 388.09 64.8018 388.605 65.4717C389.125 66.1416 389.385 67.0736 389.385 68.2676V68.3838ZM388.12 68.2402C388.12 67.4062 387.942 66.7477 387.587 66.2646C387.231 65.7816 386.744 65.54 386.124 65.54C385.358 65.54 384.784 65.8796 384.401 66.5586V70.0928C384.78 70.7673 385.358 71.1045 386.138 71.1045C386.744 71.1045 387.225 70.8652 387.58 70.3867C387.94 69.9036 388.12 69.1882 388.12 68.2402ZM395.564 71.2686C395.072 71.8473 394.35 72.1367 393.397 72.1367C392.609 72.1367 392.007 71.9089 391.593 71.4531C391.183 70.9928 390.975 70.3138 390.971 69.416V64.6035H392.235V69.3818C392.235 70.5029 392.691 71.0635 393.603 71.0635C394.569 71.0635 395.211 70.7035 395.53 69.9834V64.6035H396.795V72H395.592L395.564 71.2686ZM400.438 62.8125V64.6035H401.819V65.5811H400.438V70.168C400.438 70.4642 400.5 70.6875 400.623 70.8379C400.746 70.9837 400.956 71.0566 401.252 71.0566C401.398 71.0566 401.598 71.0293 401.854 70.9746V72C401.521 72.0911 401.197 72.1367 400.883 72.1367C400.318 72.1367 399.892 71.9658 399.604 71.624C399.317 71.2822 399.174 70.7969 399.174 70.168V65.5811H397.827V64.6035H399.174V62.8125H400.438ZM409.742 71.1045C410.193 71.1045 410.588 70.9678 410.925 70.6943C411.262 70.4209 411.449 70.0791 411.485 69.6689H412.682C412.659 70.0928 412.513 70.4961 412.244 70.8789C411.975 71.2617 411.615 71.5671 411.164 71.7949C410.717 72.0228 410.243 72.1367 409.742 72.1367C408.735 72.1367 407.933 71.8018 407.336 71.1318C406.743 70.4574 406.447 69.5368 406.447 68.3701V68.1582C406.447 67.4382 406.579 66.7979 406.844 66.2373C407.108 65.6768 407.486 65.2415 407.979 64.9316C408.475 64.6217 409.061 64.4668 409.735 64.4668C410.565 64.4668 411.253 64.7152 411.8 65.2119C412.351 65.7087 412.645 66.3535 412.682 67.1465H411.485C411.449 66.668 411.267 66.276 410.938 65.9707C410.615 65.6608 410.214 65.5059 409.735 65.5059C409.093 65.5059 408.594 65.7383 408.238 66.2031C407.887 66.6634 407.712 67.3311 407.712 68.2061V68.4453C407.712 69.2975 407.887 69.9538 408.238 70.4141C408.589 70.8743 409.09 71.1045 409.742 71.1045ZM415.368 65.499C415.929 64.8109 416.658 64.4668 417.556 64.4668C419.119 64.4668 419.907 65.3486 419.921 67.1123V72H418.656V67.1055C418.652 66.5723 418.529 66.1781 418.287 65.9229C418.05 65.6676 417.679 65.54 417.173 65.54C416.763 65.54 416.403 65.6494 416.093 65.8682C415.783 66.0869 415.541 66.374 415.368 66.7295V72H414.104V61.5H415.368V65.499ZM426.381 72C426.308 71.8542 426.249 71.5944 426.203 71.2207C425.615 71.8314 424.913 72.1367 424.098 72.1367C423.368 72.1367 422.769 71.9316 422.3 71.5215C421.835 71.1068 421.603 70.5827 421.603 69.9492C421.603 69.179 421.894 68.582 422.478 68.1582C423.065 67.7298 423.89 67.5156 424.952 67.5156H426.183V66.9346C426.183 66.4925 426.05 66.1416 425.786 65.8818C425.522 65.6175 425.132 65.4854 424.617 65.4854C424.166 65.4854 423.788 65.5993 423.482 65.8271C423.177 66.055 423.024 66.3307 423.024 66.6543H421.753C421.753 66.2852 421.883 65.9297 422.143 65.5879C422.407 65.2415 422.762 64.9681 423.209 64.7676C423.66 64.5671 424.155 64.4668 424.692 64.4668C425.545 64.4668 426.212 64.681 426.695 65.1094C427.178 65.5332 427.429 66.1188 427.447 66.8662V70.2705C427.447 70.9495 427.534 71.4896 427.707 71.8906V72H426.381ZM424.282 71.0361C424.679 71.0361 425.055 70.9336 425.41 70.7285C425.766 70.5234 426.023 70.2568 426.183 69.9287V68.4111H425.191C423.642 68.4111 422.867 68.8646 422.867 69.7715C422.867 70.168 422.999 70.4779 423.264 70.7012C423.528 70.9245 423.868 71.0361 424.282 71.0361ZM430.626 64.6035L430.667 65.5332C431.232 64.8223 431.97 64.4668 432.882 64.4668C434.445 64.4668 435.233 65.3486 435.247 67.1123V72H433.982V67.1055C433.978 66.5723 433.855 66.1781 433.613 65.9229C433.376 65.6676 433.005 65.54 432.499 65.54C432.089 65.54 431.729 65.6494 431.419 65.8682C431.109 66.0869 430.868 66.374 430.694 66.7295V72H429.43V64.6035H430.626ZM438.351 64.6035L438.392 65.5332C438.957 64.8223 439.695 64.4668 440.606 64.4668C442.17 64.4668 442.958 65.3486 442.972 67.1123V72H441.707V67.1055C441.702 66.5723 441.579 66.1781 441.338 65.9229C441.101 65.6676 440.729 65.54 440.224 65.54C439.813 65.54 439.453 65.6494 439.144 65.8682C438.834 66.0869 438.592 66.374 438.419 66.7295V72H437.154V64.6035H438.351ZM447.948 72.1367C446.946 72.1367 446.13 71.8086 445.501 71.1523C444.872 70.4915 444.558 69.6097 444.558 68.5068V68.2744C444.558 67.5407 444.697 66.8867 444.975 66.3125C445.257 65.7337 445.649 65.2826 446.15 64.959C446.656 64.6309 447.203 64.4668 447.791 64.4668C448.753 64.4668 449.5 64.7835 450.033 65.417C450.566 66.0505 450.833 66.9574 450.833 68.1377V68.6641H445.822C445.84 69.3932 446.052 69.9834 446.458 70.4346C446.868 70.8812 447.388 71.1045 448.017 71.1045C448.463 71.1045 448.841 71.0133 449.151 70.8311C449.461 70.6488 449.732 70.4072 449.965 70.1064L450.737 70.708C450.118 71.6605 449.188 72.1367 447.948 72.1367ZM447.791 65.5059C447.281 65.5059 446.852 65.6927 446.506 66.0664C446.16 66.4355 445.945 66.9551 445.863 67.625H449.568V67.5293C449.532 66.8867 449.359 66.39 449.049 66.0391C448.739 65.6836 448.32 65.5059 447.791 65.5059ZM453.677 72H452.412V61.5H453.677V72Z" fill="black"/>
<path d="M481.358 42.5928C482.067 42.5928 482.687 42.3779 483.217 41.9482C483.747 41.5186 484.04 40.9814 484.098 40.3369H485.978C485.942 41.0029 485.713 41.6367 485.29 42.2383C484.868 42.8398 484.302 43.3197 483.593 43.6777C482.891 44.0358 482.146 44.2148 481.358 44.2148C479.776 44.2148 478.515 43.6885 477.577 42.6357C476.646 41.5758 476.181 40.1292 476.181 38.2959V37.9629C476.181 36.8314 476.388 35.8252 476.804 34.9443C477.219 34.0635 477.813 33.3796 478.587 32.8926C479.368 32.4056 480.288 32.1621 481.348 32.1621C482.651 32.1621 483.732 32.5524 484.592 33.333C485.458 34.1136 485.92 35.127 485.978 36.373H484.098C484.04 35.6211 483.754 35.0052 483.238 34.5254C482.73 34.0384 482.1 33.7949 481.348 33.7949C480.338 33.7949 479.554 34.1602 478.995 34.8906C478.444 35.6139 478.168 36.6631 478.168 38.0381V38.4141C478.168 39.7533 478.444 40.7845 478.995 41.5078C479.547 42.2311 480.334 42.5928 481.358 42.5928ZM487.686 38.0811C487.686 36.9424 487.908 35.9183 488.352 35.0088C488.803 34.0993 489.426 33.3975 490.221 32.9033C491.023 32.4092 491.936 32.1621 492.96 32.1621C494.543 32.1621 495.821 32.71 496.795 33.8057C497.776 34.9014 498.267 36.3587 498.267 38.1777V38.3174C498.267 39.4489 498.048 40.4658 497.611 41.3682C497.182 42.2633 496.562 42.9616 495.753 43.4629C494.951 43.9642 494.027 44.2148 492.981 44.2148C491.406 44.2148 490.128 43.667 489.146 42.5713C488.173 41.4756 487.686 40.0254 487.686 38.2207V38.0811ZM489.684 38.3174C489.684 39.6064 489.981 40.6413 490.575 41.4219C491.177 42.2025 491.979 42.5928 492.981 42.5928C493.991 42.5928 494.793 42.1989 495.388 41.4111C495.982 40.6162 496.279 39.5062 496.279 38.0811C496.279 36.8063 495.975 35.7751 495.366 34.9873C494.765 34.1924 493.963 33.7949 492.96 33.7949C491.979 33.7949 491.188 34.1852 490.586 34.9658C489.984 35.7464 489.684 36.8636 489.684 38.3174ZM502.918 44H500.931V27.5H502.918V44ZM508.268 44H506.28V27.5H508.268V44ZM516.281 44.2148C514.706 44.2148 513.424 43.6992 512.436 42.668C511.447 41.6296 510.953 40.2438 510.953 38.5107V38.1455C510.953 36.9925 511.172 35.9648 511.608 35.0625C512.052 34.153 512.668 33.444 513.456 32.9355C514.251 32.4199 515.11 32.1621 516.034 32.1621C517.545 32.1621 518.72 32.6598 519.558 33.6553C520.396 34.6507 520.814 36.0758 520.814 37.9307V38.7578H512.94C512.969 39.9036 513.302 40.8311 513.939 41.54C514.584 42.2419 515.4 42.5928 516.389 42.5928C517.09 42.5928 517.685 42.4495 518.172 42.1631C518.659 41.8766 519.085 41.4971 519.45 41.0244L520.664 41.9697C519.69 43.4665 518.229 44.2148 516.281 44.2148ZM516.034 33.7949C515.232 33.7949 514.559 34.0885 514.015 34.6758C513.47 35.2559 513.134 36.0723 513.005 37.125H518.827V36.9746C518.77 35.9648 518.498 35.1842 518.011 34.6328C517.524 34.0742 516.865 33.7949 516.034 33.7949ZM527.786 42.5928C528.495 42.5928 529.115 42.3779 529.645 41.9482C530.174 41.5186 530.468 40.9814 530.525 40.3369H532.405C532.369 41.0029 532.14 41.6367 531.718 42.2383C531.295 42.8398 530.729 43.3197 530.021 43.6777C529.319 44.0358 528.574 44.2148 527.786 44.2148C526.203 44.2148 524.943 43.6885 524.005 42.6357C523.074 41.5758 522.608 40.1292 522.608 38.2959V37.9629C522.608 36.8314 522.816 35.8252 523.231 34.9443C523.647 34.0635 524.241 33.3796 525.015 32.8926C525.795 32.4056 526.715 32.1621 527.775 32.1621C529.079 32.1621 530.16 32.5524 531.02 33.333C531.886 34.1136 532.348 35.127 532.405 36.373H530.525C530.468 35.6211 530.182 35.0052 529.666 34.5254C529.158 34.0384 528.527 33.7949 527.775 33.7949C526.766 33.7949 525.981 34.1602 525.423 34.8906C524.871 35.6139 524.596 36.6631 524.596 38.0381V38.4141C524.596 39.7533 524.871 40.7845 525.423 41.5078C525.974 42.2311 526.762 42.5928 527.786 42.5928ZM537.336 29.5625V32.377H539.506V33.9131H537.336V41.1211C537.336 41.5866 537.433 41.9375 537.626 42.1738C537.819 42.403 538.149 42.5176 538.614 42.5176C538.843 42.5176 539.159 42.4746 539.56 42.3887V44C539.037 44.1432 538.528 44.2148 538.034 44.2148C537.146 44.2148 536.477 43.9463 536.025 43.4092C535.574 42.8721 535.349 42.1094 535.349 41.1211V33.9131H533.232V32.377H535.349V29.5625H537.336ZM549.453 44H547.466V32.377H549.453V44ZM547.305 29.2939C547.305 28.9717 547.401 28.6995 547.595 28.4775C547.795 28.2555 548.089 28.1445 548.476 28.1445C548.862 28.1445 549.156 28.2555 549.356 28.4775C549.557 28.6995 549.657 28.9717 549.657 29.2939C549.657 29.6162 549.557 29.8848 549.356 30.0996C549.156 30.3145 548.862 30.4219 548.476 30.4219C548.089 30.4219 547.795 30.3145 547.595 30.0996C547.401 29.8848 547.305 29.6162 547.305 29.2939ZM554.523 32.377L554.588 33.8379C555.476 32.7207 556.636 32.1621 558.068 32.1621C560.525 32.1621 561.764 33.5479 561.785 36.3193V44H559.798V36.3086C559.791 35.4707 559.597 34.8512 559.218 34.4502C558.845 34.0492 558.262 33.8486 557.467 33.8486C556.822 33.8486 556.257 34.0205 555.77 34.3643C555.283 34.708 554.903 35.1592 554.631 35.7178V44H552.644V32.377H554.523ZM567.479 29.5625V32.377H569.648V33.9131H567.479V41.1211C567.479 41.5866 567.575 41.9375 567.769 42.1738C567.962 42.403 568.291 42.5176 568.757 42.5176C568.986 42.5176 569.301 42.4746 569.702 42.3887V44C569.179 44.1432 568.671 44.2148 568.177 44.2148C567.289 44.2148 566.619 43.9463 566.168 43.4092C565.717 42.8721 565.491 42.1094 565.491 41.1211V33.9131H563.375V32.377H565.491V29.5625H567.479ZM571.238 38.0811C571.238 36.9424 571.46 35.9183 571.904 35.0088C572.355 34.0993 572.979 33.3975 573.773 32.9033C574.576 32.4092 575.489 32.1621 576.513 32.1621C578.095 32.1621 579.374 32.71 580.348 33.8057C581.329 34.9014 581.819 36.3587 581.819 38.1777V38.3174C581.819 39.4489 581.601 40.4658 581.164 41.3682C580.734 42.2633 580.115 42.9616 579.306 43.4629C578.504 43.9642 577.58 44.2148 576.534 44.2148C574.959 44.2148 573.68 43.667 572.699 42.5713C571.725 41.4756 571.238 40.0254 571.238 38.2207V38.0811ZM573.236 38.3174C573.236 39.6064 573.534 40.6413 574.128 41.4219C574.729 42.2025 575.532 42.5928 576.534 42.5928C577.544 42.5928 578.346 42.1989 578.94 41.4111C579.535 40.6162 579.832 39.5062 579.832 38.0811C579.832 36.8063 579.528 35.7751 578.919 34.9873C578.317 34.1924 577.515 33.7949 576.513 33.7949C575.532 33.7949 574.74 34.1852 574.139 34.9658C573.537 35.7464 573.236 36.8636 573.236 38.3174ZM497.117 70C497.003 69.7708 496.91 69.3626 496.838 68.7754C495.914 69.735 494.811 70.2148 493.529 70.2148C492.383 70.2148 491.442 69.8926 490.704 69.248C489.974 68.5964 489.608 67.7728 489.608 66.7773C489.608 65.5671 490.067 64.6289 490.983 63.9629C491.907 63.2897 493.203 62.9531 494.872 62.9531H496.806V62.04C496.806 61.3454 496.598 60.7939 496.183 60.3857C495.767 59.9704 495.155 59.7627 494.346 59.7627C493.637 59.7627 493.042 59.9417 492.562 60.2998C492.083 60.6579 491.843 61.0911 491.843 61.5996H489.845C489.845 61.0195 490.049 60.4609 490.457 59.9238C490.872 59.3796 491.431 58.9499 492.133 58.6348C492.842 58.3197 493.619 58.1621 494.464 58.1621C495.803 58.1621 496.852 58.4987 497.611 59.1719C498.37 59.8379 498.764 60.7581 498.793 61.9326V67.2822C498.793 68.3493 498.929 69.1979 499.201 69.8281V70H497.117ZM493.819 68.4854C494.442 68.4854 495.033 68.3242 495.592 68.002C496.15 67.6797 496.555 67.2607 496.806 66.7451V64.3604H495.248C492.813 64.3604 491.596 65.0729 491.596 66.498C491.596 67.1211 491.803 67.6081 492.219 67.959C492.634 68.3099 493.168 68.4854 493.819 68.4854ZM512.854 67.2607L517.323 54.3594H519.579L513.778 70H511.952L506.162 54.3594H508.407L512.854 67.2607ZM525.724 70.2148C524.148 70.2148 522.866 69.6992 521.878 68.668C520.89 67.6296 520.396 66.2438 520.396 64.5107V64.1455C520.396 62.9925 520.614 61.9648 521.051 61.0625C521.495 60.153 522.111 59.444 522.898 58.9355C523.693 58.4199 524.553 58.1621 525.477 58.1621C526.988 58.1621 528.162 58.6598 529 59.6553C529.838 60.6507 530.257 62.0758 530.257 63.9307V64.7578H522.383C522.411 65.9036 522.744 66.8311 523.382 67.54C524.026 68.2419 524.843 68.5928 525.831 68.5928C526.533 68.5928 527.127 68.4495 527.614 68.1631C528.101 67.8766 528.527 67.4971 528.893 67.0244L530.106 67.9697C529.132 69.4665 527.672 70.2148 525.724 70.2148ZM525.477 59.7949C524.674 59.7949 524.001 60.0885 523.457 60.6758C522.913 61.2559 522.576 62.0723 522.447 63.125H528.27V62.9746C528.212 61.9648 527.94 61.1842 527.453 60.6328C526.966 60.0742 526.307 59.7949 525.477 59.7949ZM537.229 68.5928C537.938 68.5928 538.557 68.3779 539.087 67.9482C539.617 67.5186 539.91 66.9814 539.968 66.3369H541.848C541.812 67.0029 541.583 67.6367 541.16 68.2383C540.738 68.8398 540.172 69.3197 539.463 69.6777C538.761 70.0358 538.016 70.2148 537.229 70.2148C535.646 70.2148 534.385 69.6885 533.447 68.6357C532.516 67.5758 532.051 66.1292 532.051 64.2959V63.9629C532.051 62.8314 532.258 61.8252 532.674 60.9443C533.089 60.0635 533.684 59.3796 534.457 58.8926C535.238 58.4056 536.158 58.1621 537.218 58.1621C538.521 58.1621 539.603 58.5524 540.462 59.333C541.328 60.1136 541.79 61.127 541.848 62.373H539.968C539.91 61.6211 539.624 61.0052 539.108 60.5254C538.6 60.0384 537.97 59.7949 537.218 59.7949C536.208 59.7949 535.424 60.1602 534.865 60.8906C534.314 61.6139 534.038 62.6631 534.038 64.0381V64.4141C534.038 65.7533 534.314 66.7845 534.865 67.5078C535.417 68.2311 536.204 68.5928 537.229 68.5928ZM546.778 55.5625V58.377H548.948V59.9131H546.778V67.1211C546.778 67.5866 546.875 67.9375 547.068 68.1738C547.262 68.403 547.591 68.5176 548.057 68.5176C548.286 68.5176 548.601 68.4746 549.002 68.3887V70C548.479 70.1432 547.971 70.2148 547.477 70.2148C546.589 70.2148 545.919 69.9463 545.468 69.4092C545.017 68.8721 544.791 68.1094 544.791 67.1211V59.9131H542.675V58.377H544.791V55.5625H546.778ZM550.538 64.0811C550.538 62.9424 550.76 61.9183 551.204 61.0088C551.655 60.0993 552.278 59.3975 553.073 58.9033C553.875 58.4092 554.788 58.1621 555.812 58.1621C557.395 58.1621 558.674 58.71 559.647 59.8057C560.629 60.9014 561.119 62.3587 561.119 64.1777V64.3174C561.119 65.4489 560.901 66.4658 560.464 67.3682C560.034 68.2633 559.415 68.9616 558.605 69.4629C557.803 69.9642 556.88 70.2148 555.834 70.2148C554.258 70.2148 552.98 69.667 551.999 68.5713C551.025 67.4756 550.538 66.0254 550.538 64.2207V64.0811ZM552.536 64.3174C552.536 65.6064 552.833 66.6413 553.428 67.4219C554.029 68.2025 554.831 68.5928 555.834 68.5928C556.844 68.5928 557.646 68.1989 558.24 67.4111C558.835 66.6162 559.132 65.5062 559.132 64.0811C559.132 62.8063 558.827 61.7751 558.219 60.9873C557.617 60.1924 556.815 59.7949 555.812 59.7949C554.831 59.7949 554.04 60.1852 553.438 60.9658C552.837 61.7464 552.536 62.8636 552.536 64.3174ZM569.229 60.1602C568.929 60.11 568.603 60.085 568.252 60.085C566.949 60.085 566.064 60.64 565.599 61.75V70H563.611V58.377H565.545L565.577 59.7197C566.229 58.6813 567.153 58.1621 568.349 58.1621C568.735 58.1621 569.029 58.2122 569.229 58.3125V60.1602Z" fill="black"/>
<path d="M465.711 49.7071C466.102 49.3166 466.102 48.6834 465.711 48.2929L459.347 41.9289C458.957 41.5384 458.324 41.5384 457.933 41.9289C457.543 42.3195 457.543 42.9526 457.933 43.3431L463.59 49L457.933 54.6569C457.543 55.0474 457.543 55.6805 457.933 56.0711C458.324 56.4616 458.957 56.4616 459.347 56.0711L465.711 49.7071ZM350 50H465.004V48H350V50Z" fill="black"/>
</svg>
