<svg width="600" height="300" viewBox="0 0 600 300" fill="none" xmlns="http://www.w3.org/2000/svg">
<rect width="600" height="300" fill="white"/>
<circle cx="187" cy="213" r="49.5" fill="white" stroke="black"/>
<path d="M168.71 204.939C168.552 206.293 168.051 207.339 167.207 208.077C166.369 208.81 165.253 209.176 163.858 209.176C162.347 209.176 161.134 208.634 160.22 207.55C159.312 206.466 158.857 205.016 158.857 203.199V201.969C158.857 200.779 159.068 199.733 159.49 198.831C159.918 197.929 160.521 197.237 161.301 196.757C162.08 196.271 162.982 196.027 164.008 196.027C165.367 196.027 166.457 196.408 167.277 197.17C168.098 197.926 168.575 198.975 168.71 200.316H167.014C166.867 199.297 166.548 198.559 166.056 198.102C165.569 197.645 164.887 197.416 164.008 197.416C162.93 197.416 162.083 197.814 161.468 198.611C160.858 199.408 160.554 200.542 160.554 202.013V203.252C160.554 204.641 160.844 205.745 161.424 206.565C162.004 207.386 162.815 207.796 163.858 207.796C164.796 207.796 165.514 207.585 166.012 207.163C166.516 206.735 166.85 205.994 167.014 204.939H168.71ZM170.336 204.157C170.336 203.226 170.518 202.388 170.881 201.644C171.25 200.899 171.76 200.325 172.41 199.921C173.066 199.517 173.813 199.314 174.651 199.314C175.946 199.314 176.992 199.763 177.789 200.659C178.592 201.556 178.993 202.748 178.993 204.236V204.351C178.993 205.276 178.814 206.108 178.457 206.847C178.105 207.579 177.599 208.15 176.937 208.561C176.28 208.971 175.524 209.176 174.669 209.176C173.38 209.176 172.334 208.728 171.531 207.831C170.734 206.935 170.336 205.748 170.336 204.271V204.157ZM171.971 204.351C171.971 205.405 172.214 206.252 172.7 206.891C173.192 207.529 173.849 207.849 174.669 207.849C175.495 207.849 176.151 207.526 176.638 206.882C177.124 206.231 177.367 205.323 177.367 204.157C177.367 203.114 177.118 202.271 176.62 201.626C176.128 200.976 175.472 200.65 174.651 200.65C173.849 200.65 173.201 200.97 172.709 201.608C172.217 202.247 171.971 203.161 171.971 204.351ZM182.57 199.49L182.623 200.686C183.35 199.771 184.299 199.314 185.471 199.314C187.48 199.314 188.494 200.448 188.512 202.716V209H186.886V202.707C186.88 202.021 186.722 201.515 186.411 201.187C186.106 200.858 185.629 200.694 184.979 200.694C184.451 200.694 183.988 200.835 183.59 201.116C183.191 201.397 182.881 201.767 182.658 202.224V209H181.032V199.49H182.57ZM193.17 197.188V199.49H194.945V200.747H193.17V206.645C193.17 207.025 193.249 207.312 193.407 207.506C193.565 207.693 193.835 207.787 194.216 207.787C194.403 207.787 194.661 207.752 194.989 207.682V209C194.562 209.117 194.146 209.176 193.741 209.176C193.015 209.176 192.467 208.956 192.098 208.517C191.729 208.077 191.544 207.453 191.544 206.645V200.747H189.812V199.49H191.544V197.188H193.17ZM201.449 200.949C201.203 200.908 200.937 200.888 200.649 200.888C199.583 200.888 198.859 201.342 198.479 202.25V209H196.853V199.49H198.435L198.461 200.589C198.994 199.739 199.75 199.314 200.729 199.314C201.045 199.314 201.285 199.355 201.449 199.438V200.949ZM202.346 204.157C202.346 203.226 202.527 202.388 202.891 201.644C203.26 200.899 203.77 200.325 204.42 199.921C205.076 199.517 205.823 199.314 206.661 199.314C207.956 199.314 209.002 199.763 209.799 200.659C210.602 201.556 211.003 202.748 211.003 204.236V204.351C211.003 205.276 210.824 206.108 210.467 206.847C210.115 207.579 209.608 208.15 208.946 208.561C208.29 208.971 207.534 209.176 206.679 209.176C205.39 209.176 204.344 208.728 203.541 207.831C202.744 206.935 202.346 205.748 202.346 204.271V204.157ZM203.98 204.351C203.98 205.405 204.224 206.252 204.71 206.891C205.202 207.529 205.858 207.849 206.679 207.849C207.505 207.849 208.161 207.526 208.647 206.882C209.134 206.231 209.377 205.323 209.377 204.157C209.377 203.114 209.128 202.271 208.63 201.626C208.138 200.976 207.481 200.65 206.661 200.65C205.858 200.65 205.211 200.97 204.719 201.608C204.227 202.247 203.98 203.161 203.98 204.351ZM214.809 209H213.183V195.5H214.809V209ZM172.489 230H170.863V216.5H172.489V230ZM174.669 225.157C174.669 224.226 174.851 223.388 175.214 222.644C175.583 221.899 176.093 221.325 176.743 220.921C177.399 220.517 178.146 220.314 178.984 220.314C180.279 220.314 181.325 220.763 182.122 221.659C182.925 222.556 183.326 223.748 183.326 225.236V225.351C183.326 226.276 183.147 227.108 182.79 227.847C182.438 228.579 181.932 229.15 181.27 229.561C180.613 229.971 179.857 230.176 179.002 230.176C177.713 230.176 176.667 229.728 175.864 228.831C175.067 227.935 174.669 226.748 174.669 225.271V225.157ZM176.304 225.351C176.304 226.405 176.547 227.252 177.033 227.891C177.525 228.529 178.182 228.849 179.002 228.849C179.828 228.849 180.484 228.526 180.971 227.882C181.457 227.231 181.7 226.323 181.7 225.157C181.7 224.114 181.451 223.271 180.953 222.626C180.461 221.976 179.805 221.65 178.984 221.65C178.182 221.65 177.534 221.97 177.042 222.608C176.55 223.247 176.304 224.161 176.304 225.351ZM184.935 225.157C184.935 224.226 185.116 223.388 185.479 222.644C185.849 221.899 186.358 221.325 187.009 220.921C187.665 220.517 188.412 220.314 189.25 220.314C190.545 220.314 191.591 220.763 192.388 221.659C193.19 222.556 193.592 223.748 193.592 225.236V225.351C193.592 226.276 193.413 227.108 193.056 227.847C192.704 228.579 192.197 229.15 191.535 229.561C190.879 229.971 190.123 230.176 189.268 230.176C187.979 230.176 186.933 229.728 186.13 228.831C185.333 227.935 184.935 226.748 184.935 225.271V225.157ZM186.569 225.351C186.569 226.405 186.812 227.252 187.299 227.891C187.791 228.529 188.447 228.849 189.268 228.849C190.094 228.849 190.75 228.526 191.236 227.882C191.723 227.231 191.966 226.323 191.966 225.157C191.966 224.114 191.717 223.271 191.219 222.626C190.727 221.976 190.07 221.65 189.25 221.65C188.447 221.65 187.8 221.97 187.308 222.608C186.815 223.247 186.569 224.161 186.569 225.351ZM203.664 225.351C203.664 226.798 203.333 227.964 202.671 228.849C202.009 229.733 201.112 230.176 199.981 230.176C198.827 230.176 197.919 229.81 197.257 229.077V233.656H195.631V220.49H197.116L197.195 221.545C197.857 220.725 198.777 220.314 199.955 220.314C201.098 220.314 202 220.745 202.662 221.606C203.33 222.468 203.664 223.666 203.664 225.201V225.351ZM202.038 225.166C202.038 224.094 201.81 223.247 201.353 222.626C200.896 222.005 200.269 221.694 199.472 221.694C198.487 221.694 197.749 222.131 197.257 223.004V227.548C197.743 228.415 198.487 228.849 199.489 228.849C200.269 228.849 200.887 228.541 201.344 227.926C201.807 227.305 202.038 226.385 202.038 225.166Z" fill="black"/>
<rect x="325.5" y="96.5" width="149" height="74" rx="3.5" fill="white" stroke="black"/>
<path d="M369.915 134.296C368.468 133.88 367.413 133.37 366.751 132.767C366.095 132.157 365.767 131.407 365.767 130.517C365.767 129.509 366.168 128.677 366.971 128.021C367.779 127.358 368.828 127.027 370.117 127.027C370.996 127.027 371.778 127.197 372.464 127.537C373.155 127.877 373.688 128.346 374.063 128.943C374.444 129.541 374.635 130.194 374.635 130.903H372.938C372.938 130.13 372.692 129.523 372.2 129.084C371.708 128.639 371.014 128.416 370.117 128.416C369.285 128.416 368.635 128.601 368.166 128.97C367.703 129.333 367.472 129.84 367.472 130.49C367.472 131.012 367.691 131.454 368.131 131.817C368.576 132.175 369.329 132.503 370.39 132.802C371.456 133.101 372.288 133.432 372.886 133.795C373.489 134.152 373.935 134.571 374.222 135.052C374.515 135.532 374.661 136.098 374.661 136.748C374.661 137.785 374.257 138.617 373.448 139.244C372.64 139.865 371.559 140.176 370.205 140.176C369.326 140.176 368.506 140.009 367.744 139.675C366.982 139.335 366.394 138.872 365.978 138.286C365.567 137.7 365.362 137.035 365.362 136.291H367.059C367.059 137.064 367.343 137.677 367.911 138.128C368.485 138.573 369.25 138.796 370.205 138.796C371.096 138.796 371.778 138.614 372.253 138.251C372.728 137.888 372.965 137.393 372.965 136.766C372.965 136.139 372.745 135.655 372.306 135.315C371.866 134.97 371.069 134.63 369.915 134.296ZM380.392 138.849C380.972 138.849 381.479 138.673 381.912 138.321C382.346 137.97 382.586 137.53 382.633 137.003H384.171C384.142 137.548 383.954 138.066 383.608 138.559C383.263 139.051 382.8 139.443 382.22 139.736C381.646 140.029 381.036 140.176 380.392 140.176C379.097 140.176 378.065 139.745 377.298 138.884C376.536 138.017 376.155 136.833 376.155 135.333V135.061C376.155 134.135 376.325 133.312 376.665 132.591C377.005 131.87 377.491 131.311 378.124 130.912C378.763 130.514 379.516 130.314 380.383 130.314C381.449 130.314 382.334 130.634 383.037 131.272C383.746 131.911 384.124 132.74 384.171 133.76H382.633C382.586 133.145 382.352 132.641 381.93 132.248C381.514 131.85 380.998 131.65 380.383 131.65C379.557 131.65 378.915 131.949 378.458 132.547C378.007 133.139 377.781 133.997 377.781 135.122V135.43C377.781 136.525 378.007 137.369 378.458 137.961C378.909 138.553 379.554 138.849 380.392 138.849ZM390.596 131.949C390.35 131.908 390.083 131.888 389.796 131.888C388.729 131.888 388.006 132.342 387.625 133.25V140H385.999V130.49H387.581L387.607 131.589C388.141 130.739 388.896 130.314 389.875 130.314C390.191 130.314 390.432 130.355 390.596 130.438V131.949ZM397.618 140C397.524 139.812 397.448 139.479 397.39 138.998C396.634 139.783 395.731 140.176 394.683 140.176C393.745 140.176 392.975 139.912 392.371 139.385C391.773 138.852 391.475 138.178 391.475 137.363C391.475 136.373 391.85 135.605 392.6 135.061C393.355 134.51 394.416 134.234 395.781 134.234H397.363V133.487C397.363 132.919 397.193 132.468 396.854 132.134C396.514 131.794 396.013 131.624 395.351 131.624C394.771 131.624 394.284 131.771 393.892 132.063C393.499 132.356 393.303 132.711 393.303 133.127H391.668C391.668 132.652 391.835 132.195 392.169 131.756C392.509 131.311 392.966 130.959 393.54 130.701C394.12 130.443 394.756 130.314 395.447 130.314C396.543 130.314 397.401 130.59 398.022 131.141C398.644 131.686 398.966 132.438 398.989 133.399V137.776C398.989 138.649 399.101 139.344 399.323 139.859V140H397.618ZM394.92 138.761C395.43 138.761 395.913 138.629 396.37 138.365C396.827 138.102 397.158 137.759 397.363 137.337V135.386H396.089C394.097 135.386 393.101 135.969 393.101 137.135C393.101 137.645 393.271 138.043 393.61 138.33C393.95 138.617 394.387 138.761 394.92 138.761ZM409.571 135.351C409.571 136.798 409.24 137.964 408.578 138.849C407.916 139.733 407.02 140.176 405.889 140.176C404.734 140.176 403.826 139.81 403.164 139.077V143.656H401.538V130.49H403.023L403.103 131.545C403.765 130.725 404.685 130.314 405.862 130.314C407.005 130.314 407.907 130.745 408.569 131.606C409.237 132.468 409.571 133.666 409.571 135.201V135.351ZM407.945 135.166C407.945 134.094 407.717 133.247 407.26 132.626C406.803 132.005 406.176 131.694 405.379 131.694C404.395 131.694 403.656 132.131 403.164 133.004V137.548C403.65 138.415 404.395 138.849 405.396 138.849C406.176 138.849 406.794 138.541 407.251 137.926C407.714 137.305 407.945 136.385 407.945 135.166ZM415.592 140.176C414.303 140.176 413.254 139.754 412.445 138.91C411.637 138.061 411.232 136.927 411.232 135.509V135.21C411.232 134.267 411.411 133.426 411.769 132.688C412.132 131.943 412.636 131.363 413.28 130.947C413.931 130.525 414.634 130.314 415.39 130.314C416.626 130.314 417.587 130.722 418.272 131.536C418.958 132.351 419.301 133.517 419.301 135.034V135.711H412.858C412.882 136.648 413.154 137.407 413.676 137.987C414.203 138.562 414.871 138.849 415.68 138.849C416.254 138.849 416.74 138.731 417.139 138.497C417.537 138.263 417.886 137.952 418.185 137.565L419.178 138.339C418.381 139.563 417.186 140.176 415.592 140.176ZM415.39 131.65C414.733 131.65 414.183 131.891 413.737 132.371C413.292 132.846 413.017 133.514 412.911 134.375H417.675V134.252C417.628 133.426 417.405 132.787 417.007 132.336C416.608 131.879 416.069 131.65 415.39 131.65ZM425.787 131.949C425.541 131.908 425.274 131.888 424.987 131.888C423.921 131.888 423.197 132.342 422.816 133.25V140H421.19V130.49H422.772L422.799 131.589C423.332 130.739 424.088 130.314 425.066 130.314C425.383 130.314 425.623 130.355 425.787 130.438V131.949ZM432.827 137.478C432.827 137.038 432.66 136.698 432.326 136.458C431.998 136.212 431.421 136.001 430.595 135.825C429.774 135.649 429.121 135.438 428.635 135.192C428.154 134.946 427.797 134.653 427.562 134.313C427.334 133.974 427.22 133.569 427.22 133.101C427.22 132.321 427.548 131.662 428.204 131.123C428.866 130.584 429.71 130.314 430.735 130.314C431.813 130.314 432.687 130.593 433.354 131.149C434.028 131.706 434.365 132.418 434.365 133.285H432.73C432.73 132.84 432.54 132.456 432.159 132.134C431.784 131.812 431.31 131.65 430.735 131.65C430.144 131.65 429.681 131.779 429.347 132.037C429.013 132.295 428.846 132.632 428.846 133.048C428.846 133.44 429.001 133.736 429.312 133.936C429.622 134.135 430.182 134.325 430.99 134.507C431.805 134.688 432.464 134.905 432.968 135.157C433.472 135.409 433.844 135.714 434.084 136.071C434.33 136.423 434.453 136.854 434.453 137.363C434.453 138.213 434.113 138.896 433.434 139.411C432.754 139.921 431.872 140.176 430.788 140.176C430.026 140.176 429.353 140.041 428.767 139.771C428.181 139.502 427.721 139.127 427.387 138.646C427.059 138.16 426.895 137.636 426.895 137.073H428.521C428.55 137.618 428.767 138.052 429.171 138.374C429.581 138.69 430.12 138.849 430.788 138.849C431.403 138.849 431.896 138.726 432.265 138.479C432.64 138.228 432.827 137.894 432.827 137.478Z" fill="black"/>
<rect x="350.5" y="223.5" width="99" height="49" rx="3.5" fill="white" stroke="black"/>
<path d="M357.812 248.99V254H356.125V241.203H360.845C362.245 241.203 363.341 241.561 364.132 242.275C364.929 242.99 365.327 243.937 365.327 245.114C365.327 246.356 364.938 247.314 364.158 247.988C363.385 248.656 362.274 248.99 360.827 248.99H357.812ZM357.812 247.61H360.845C361.747 247.61 362.438 247.399 362.919 246.978C363.399 246.55 363.64 245.935 363.64 245.132C363.64 244.37 363.399 243.761 362.919 243.304C362.438 242.847 361.779 242.609 360.941 242.592H357.812V247.61ZM371.822 245.949C371.576 245.908 371.31 245.888 371.022 245.888C369.956 245.888 369.232 246.342 368.852 247.25V254H367.226V244.49H368.808L368.834 245.589C369.367 244.739 370.123 244.314 371.102 244.314C371.418 244.314 371.658 244.355 371.822 244.438V245.949ZM372.719 249.157C372.719 248.226 372.9 247.388 373.264 246.644C373.633 245.899 374.143 245.325 374.793 244.921C375.449 244.517 376.196 244.314 377.034 244.314C378.329 244.314 379.375 244.763 380.172 245.659C380.975 246.556 381.376 247.748 381.376 249.236V249.351C381.376 250.276 381.197 251.108 380.84 251.847C380.488 252.579 379.981 253.15 379.319 253.561C378.663 253.971 377.907 254.176 377.052 254.176C375.763 254.176 374.717 253.728 373.914 252.831C373.117 251.935 372.719 250.748 372.719 249.271V249.157ZM374.354 249.351C374.354 250.405 374.597 251.252 375.083 251.891C375.575 252.529 376.231 252.849 377.052 252.849C377.878 252.849 378.534 252.526 379.021 251.882C379.507 251.231 379.75 250.323 379.75 249.157C379.75 248.114 379.501 247.271 379.003 246.626C378.511 245.976 377.854 245.65 377.034 245.65C376.231 245.65 375.584 245.97 375.092 246.608C374.6 247.247 374.354 248.161 374.354 249.351ZM387.229 252.849C387.81 252.849 388.316 252.673 388.75 252.321C389.184 251.97 389.424 251.53 389.471 251.003H391.009C390.979 251.548 390.792 252.066 390.446 252.559C390.101 253.051 389.638 253.443 389.058 253.736C388.483 254.029 387.874 254.176 387.229 254.176C385.935 254.176 384.903 253.745 384.136 252.884C383.374 252.017 382.993 250.833 382.993 249.333V249.061C382.993 248.135 383.163 247.312 383.503 246.591C383.843 245.87 384.329 245.311 384.962 244.912C385.601 244.514 386.354 244.314 387.221 244.314C388.287 244.314 389.172 244.634 389.875 245.272C390.584 245.911 390.962 246.74 391.009 247.76H389.471C389.424 247.145 389.189 246.641 388.768 246.248C388.352 245.85 387.836 245.65 387.221 245.65C386.395 245.65 385.753 245.949 385.296 246.547C384.845 247.139 384.619 247.997 384.619 249.122V249.43C384.619 250.525 384.845 251.369 385.296 251.961C385.747 252.553 386.392 252.849 387.229 252.849ZM396.783 254.176C395.494 254.176 394.445 253.754 393.637 252.91C392.828 252.061 392.424 250.927 392.424 249.509V249.21C392.424 248.267 392.603 247.426 392.96 246.688C393.323 245.943 393.827 245.363 394.472 244.947C395.122 244.525 395.825 244.314 396.581 244.314C397.817 244.314 398.778 244.722 399.464 245.536C400.149 246.351 400.492 247.517 400.492 249.034V249.711H394.05C394.073 250.648 394.346 251.407 394.867 251.987C395.395 252.562 396.062 252.849 396.871 252.849C397.445 252.849 397.932 252.731 398.33 252.497C398.729 252.263 399.077 251.952 399.376 251.565L400.369 252.339C399.572 253.563 398.377 254.176 396.783 254.176ZM396.581 245.65C395.925 245.65 395.374 245.891 394.929 246.371C394.483 246.846 394.208 247.514 394.103 248.375H398.866V248.252C398.819 247.426 398.597 246.787 398.198 246.336C397.8 245.879 397.261 245.65 396.581 245.65ZM407.919 251.478C407.919 251.038 407.752 250.698 407.418 250.458C407.09 250.212 406.513 250.001 405.687 249.825C404.866 249.649 404.213 249.438 403.727 249.192C403.246 248.946 402.889 248.653 402.654 248.313C402.426 247.974 402.312 247.569 402.312 247.101C402.312 246.321 402.64 245.662 403.296 245.123C403.958 244.584 404.802 244.314 405.827 244.314C406.905 244.314 407.778 244.593 408.446 245.149C409.12 245.706 409.457 246.418 409.457 247.285H407.822C407.822 246.84 407.632 246.456 407.251 246.134C406.876 245.812 406.401 245.65 405.827 245.65C405.235 245.65 404.772 245.779 404.438 246.037C404.104 246.295 403.938 246.632 403.938 247.048C403.938 247.44 404.093 247.736 404.403 247.936C404.714 248.135 405.273 248.325 406.082 248.507C406.896 248.688 407.556 248.905 408.06 249.157C408.563 249.409 408.936 249.714 409.176 250.071C409.422 250.423 409.545 250.854 409.545 251.363C409.545 252.213 409.205 252.896 408.525 253.411C407.846 253.921 406.964 254.176 405.88 254.176C405.118 254.176 404.444 254.041 403.858 253.771C403.272 253.502 402.812 253.127 402.479 252.646C402.15 252.16 401.986 251.636 401.986 251.073H403.612C403.642 251.618 403.858 252.052 404.263 252.374C404.673 252.69 405.212 252.849 405.88 252.849C406.495 252.849 406.987 252.726 407.356 252.479C407.731 252.228 407.919 251.894 407.919 251.478ZM417.2 251.478C417.2 251.038 417.033 250.698 416.699 250.458C416.371 250.212 415.794 250.001 414.968 249.825C414.147 249.649 413.494 249.438 413.008 249.192C412.527 248.946 412.17 248.653 411.936 248.313C411.707 247.974 411.593 247.569 411.593 247.101C411.593 246.321 411.921 245.662 412.577 245.123C413.239 244.584 414.083 244.314 415.108 244.314C416.187 244.314 417.06 244.593 417.728 245.149C418.401 245.706 418.738 246.418 418.738 247.285H417.104C417.104 246.84 416.913 246.456 416.532 246.134C416.157 245.812 415.683 245.65 415.108 245.65C414.517 245.65 414.054 245.779 413.72 246.037C413.386 246.295 413.219 246.632 413.219 247.048C413.219 247.44 413.374 247.736 413.685 247.936C413.995 248.135 414.555 248.325 415.363 248.507C416.178 248.688 416.837 248.905 417.341 249.157C417.845 249.409 418.217 249.714 418.457 250.071C418.703 250.423 418.826 250.854 418.826 251.363C418.826 252.213 418.486 252.896 417.807 253.411C417.127 253.921 416.245 254.176 415.161 254.176C414.399 254.176 413.726 254.041 413.14 253.771C412.554 253.502 412.094 253.127 411.76 252.646C411.432 252.16 411.268 251.636 411.268 251.073H412.894C412.923 251.618 413.14 252.052 413.544 252.374C413.954 252.69 414.493 252.849 415.161 252.849C415.776 252.849 416.269 252.726 416.638 252.479C417.013 252.228 417.2 251.894 417.2 251.478ZM420.514 249.157C420.514 248.226 420.695 247.388 421.059 246.644C421.428 245.899 421.938 245.325 422.588 244.921C423.244 244.517 423.991 244.314 424.829 244.314C426.124 244.314 427.17 244.763 427.967 245.659C428.77 246.556 429.171 247.748 429.171 249.236V249.351C429.171 250.276 428.992 251.108 428.635 251.847C428.283 252.579 427.776 253.15 427.114 253.561C426.458 253.971 425.702 254.176 424.847 254.176C423.558 254.176 422.512 253.728 421.709 252.831C420.912 251.935 420.514 250.748 420.514 249.271V249.157ZM422.148 249.351C422.148 250.405 422.392 251.252 422.878 251.891C423.37 252.529 424.026 252.849 424.847 252.849C425.673 252.849 426.329 252.526 426.815 251.882C427.302 251.231 427.545 250.323 427.545 249.157C427.545 248.114 427.296 247.271 426.798 246.626C426.306 245.976 425.649 245.65 424.829 245.65C424.026 245.65 423.379 245.97 422.887 246.608C422.395 247.247 422.148 248.161 422.148 249.351ZM435.807 245.949C435.561 245.908 435.294 245.888 435.007 245.888C433.94 245.888 433.217 246.342 432.836 247.25V254H431.21V244.49H432.792L432.818 245.589C433.352 244.739 434.107 244.314 435.086 244.314C435.402 244.314 435.643 244.355 435.807 244.438V245.949ZM442.847 251.478C442.847 251.038 442.68 250.698 442.346 250.458C442.018 250.212 441.44 250.001 440.614 249.825C439.794 249.649 439.141 249.438 438.654 249.192C438.174 248.946 437.816 248.653 437.582 248.313C437.354 247.974 437.239 247.569 437.239 247.101C437.239 246.321 437.567 245.662 438.224 245.123C438.886 244.584 439.729 244.314 440.755 244.314C441.833 244.314 442.706 244.593 443.374 245.149C444.048 245.706 444.385 246.418 444.385 247.285H442.75C442.75 246.84 442.56 246.456 442.179 246.134C441.804 245.812 441.329 245.65 440.755 245.65C440.163 245.65 439.7 245.779 439.366 246.037C439.032 246.295 438.865 246.632 438.865 247.048C438.865 247.44 439.021 247.736 439.331 247.936C439.642 248.135 440.201 248.325 441.01 248.507C441.824 248.688 442.483 248.905 442.987 249.157C443.491 249.409 443.863 249.714 444.104 250.071C444.35 250.423 444.473 250.854 444.473 251.363C444.473 252.213 444.133 252.896 443.453 253.411C442.773 253.921 441.892 254.176 440.808 254.176C440.046 254.176 439.372 254.041 438.786 253.771C438.2 253.502 437.74 253.127 437.406 252.646C437.078 252.16 436.914 251.636 436.914 251.073H438.54C438.569 251.618 438.786 252.052 439.19 252.374C439.601 252.69 440.14 252.849 440.808 252.849C441.423 252.849 441.915 252.726 442.284 252.479C442.659 252.228 442.847 251.894 442.847 251.478Z" fill="black"/>
<path d="M237.779 137.203V145.904C237.773 147.111 237.393 148.099 236.637 148.866C235.887 149.634 234.867 150.064 233.578 150.158L233.13 150.176C231.729 150.176 230.613 149.798 229.781 149.042C228.949 148.286 228.527 147.246 228.516 145.922V137.203H230.186V145.869C230.186 146.795 230.44 147.516 230.95 148.031C231.46 148.541 232.187 148.796 233.13 148.796C234.085 148.796 234.814 148.541 235.318 148.031C235.828 147.521 236.083 146.804 236.083 145.878V137.203H237.779ZM244.784 141.949C244.538 141.908 244.271 141.888 243.984 141.888C242.918 141.888 242.194 142.342 241.813 143.25V150H240.188V140.49H241.77L241.796 141.589C242.329 140.739 243.085 140.314 244.063 140.314C244.38 140.314 244.62 140.355 244.784 140.438V141.949ZM248.054 150H246.428V136.5H248.054V150ZM256.201 147.478C256.201 147.038 256.034 146.698 255.7 146.458C255.372 146.212 254.795 146.001 253.969 145.825C253.148 145.649 252.495 145.438 252.009 145.192C251.528 144.946 251.171 144.653 250.937 144.313C250.708 143.974 250.594 143.569 250.594 143.101C250.594 142.321 250.922 141.662 251.578 141.123C252.24 140.584 253.084 140.314 254.109 140.314C255.188 140.314 256.061 140.593 256.729 141.149C257.402 141.706 257.739 142.418 257.739 143.285H256.104C256.104 142.84 255.914 142.456 255.533 142.134C255.158 141.812 254.684 141.65 254.109 141.65C253.518 141.65 253.055 141.779 252.721 142.037C252.387 142.295 252.22 142.632 252.22 143.048C252.22 143.44 252.375 143.736 252.686 143.936C252.996 144.135 253.556 144.325 254.364 144.507C255.179 144.688 255.838 144.905 256.342 145.157C256.846 145.409 257.218 145.714 257.458 146.071C257.704 146.423 257.827 146.854 257.827 147.363C257.827 148.213 257.487 148.896 256.808 149.411C256.128 149.921 255.246 150.176 254.162 150.176C253.4 150.176 252.727 150.041 252.141 149.771C251.555 149.502 251.095 149.127 250.761 148.646C250.433 148.16 250.269 147.636 250.269 147.073H251.895C251.924 147.618 252.141 148.052 252.545 148.374C252.955 148.69 253.494 148.849 254.162 148.849C254.777 148.849 255.27 148.726 255.639 148.479C256.014 148.228 256.201 147.894 256.201 147.478Z" fill="black"/>
<path d="M270.416 65V52.2031H274.028C275.142 52.2031 276.126 52.4492 276.981 52.9414C277.837 53.4336 278.496 54.1338 278.959 55.042C279.428 55.9502 279.665 56.9932 279.671 58.1709V58.9883C279.671 60.1953 279.437 61.2529 278.968 62.1611C278.505 63.0693 277.84 63.7666 276.973 64.2529C276.111 64.7393 275.106 64.9883 273.958 65H270.416ZM272.104 53.5918V63.6201H273.879C275.18 63.6201 276.19 63.2158 276.911 62.4072C277.638 61.5986 278.001 60.4473 278.001 58.9531V58.2061C278.001 56.7529 277.658 55.625 276.973 54.8223C276.293 54.0137 275.326 53.6035 274.072 53.5918H272.104ZM281.543 60.1572C281.543 59.2256 281.725 58.3877 282.088 57.6436C282.457 56.8994 282.967 56.3252 283.617 55.9209C284.273 55.5166 285.021 55.3145 285.858 55.3145C287.153 55.3145 288.199 55.7627 288.996 56.6592C289.799 57.5557 290.2 58.748 290.2 60.2363V60.3506C290.2 61.2764 290.021 62.1084 289.664 62.8467C289.312 63.5791 288.806 64.1504 288.144 64.5605C287.487 64.9707 286.731 65.1758 285.876 65.1758C284.587 65.1758 283.541 64.7275 282.738 63.8311C281.941 62.9346 281.543 61.748 281.543 60.2715V60.1572ZM283.178 60.3506C283.178 61.4053 283.421 62.252 283.907 62.8906C284.399 63.5293 285.056 63.8486 285.876 63.8486C286.702 63.8486 287.358 63.5264 287.845 62.8818C288.331 62.2314 288.574 61.3232 288.574 60.1572C288.574 59.1143 288.325 58.2705 287.827 57.626C287.335 56.9756 286.679 56.6504 285.858 56.6504C285.056 56.6504 284.408 56.9697 283.916 57.6084C283.424 58.2471 283.178 59.1611 283.178 60.3506ZM300.659 62.7588L302.487 55.4902H304.113L301.345 65H300.026L297.715 57.793L295.465 65H294.146L291.387 55.4902H293.004L294.876 62.6094L297.091 55.4902H298.4L300.659 62.7588ZM307.312 55.4902L307.365 56.6855C308.092 55.7715 309.041 55.3145 310.213 55.3145C312.223 55.3145 313.236 56.4482 313.254 58.7158V65H311.628V58.707C311.622 58.0215 311.464 57.5146 311.153 57.1865C310.849 56.8584 310.371 56.6943 309.721 56.6943C309.193 56.6943 308.73 56.835 308.332 57.1162C307.934 57.3975 307.623 57.7666 307.4 58.2236V65H305.774V55.4902H307.312ZM317.473 65H315.847V51.5H317.473V65ZM319.652 60.1572C319.652 59.2256 319.834 58.3877 320.197 57.6436C320.566 56.8994 321.076 56.3252 321.727 55.9209C322.383 55.5166 323.13 55.3145 323.968 55.3145C325.263 55.3145 326.309 55.7627 327.105 56.6592C327.908 57.5557 328.31 58.748 328.31 60.2363V60.3506C328.31 61.2764 328.131 62.1084 327.773 62.8467C327.422 63.5791 326.915 64.1504 326.253 64.5605C325.597 64.9707 324.841 65.1758 323.985 65.1758C322.696 65.1758 321.65 64.7275 320.848 63.8311C320.051 62.9346 319.652 61.748 319.652 60.2715V60.1572ZM321.287 60.3506C321.287 61.4053 321.53 62.252 322.017 62.8906C322.509 63.5293 323.165 63.8486 323.985 63.8486C324.812 63.8486 325.468 63.5264 325.954 62.8818C326.44 62.2314 326.684 61.3232 326.684 60.1572C326.684 59.1143 326.435 58.2705 325.937 57.626C325.444 56.9756 324.788 56.6504 323.968 56.6504C323.165 56.6504 322.518 56.9697 322.025 57.6084C321.533 58.2471 321.287 59.1611 321.287 60.3506ZM336.22 65C336.126 64.8125 336.05 64.4785 335.991 63.998C335.235 64.7832 334.333 65.1758 333.284 65.1758C332.347 65.1758 331.576 64.9121 330.973 64.3848C330.375 63.8516 330.076 63.1777 330.076 62.3633C330.076 61.373 330.451 60.6055 331.201 60.0605C331.957 59.5098 333.018 59.2344 334.383 59.2344H335.965V58.4873C335.965 57.9189 335.795 57.4678 335.455 57.1338C335.115 56.7939 334.614 56.624 333.952 56.624C333.372 56.624 332.886 56.7705 332.493 57.0635C332.101 57.3564 331.904 57.7109 331.904 58.127H330.27C330.27 57.6523 330.437 57.1953 330.771 56.7559C331.11 56.3105 331.567 55.959 332.142 55.7012C332.722 55.4434 333.357 55.3145 334.049 55.3145C335.145 55.3145 336.003 55.5898 336.624 56.1406C337.245 56.6855 337.567 57.4385 337.591 58.3994V62.7764C337.591 63.6494 337.702 64.3438 337.925 64.8594V65H336.22ZM333.521 63.7607C334.031 63.7607 334.515 63.6289 334.972 63.3652C335.429 63.1016 335.76 62.7588 335.965 62.3369V60.3857H334.69C332.698 60.3857 331.702 60.9688 331.702 62.1348C331.702 62.6445 331.872 63.043 332.212 63.3301C332.552 63.6172 332.988 63.7607 333.521 63.7607ZM339.744 60.166C339.744 58.707 340.09 57.5352 340.781 56.6504C341.473 55.7598 342.378 55.3145 343.497 55.3145C344.61 55.3145 345.492 55.6953 346.143 56.457V51.5H347.769V65H346.274L346.195 63.9805C345.545 64.7773 344.64 65.1758 343.479 65.1758C342.378 65.1758 341.479 64.7246 340.781 63.8223C340.09 62.9199 339.744 61.7422 339.744 60.2891V60.166ZM341.37 60.3506C341.37 61.4287 341.593 62.2725 342.038 62.8818C342.483 63.4912 343.099 63.7959 343.884 63.7959C344.915 63.7959 345.668 63.333 346.143 62.4072V58.0391C345.656 57.1426 344.909 56.6943 343.901 56.6943C343.104 56.6943 342.483 57.002 342.038 57.6172C341.593 58.2324 341.37 59.1436 341.37 60.3506Z" fill="black"/>
<path d="M24.7607 150.296C23.3135 149.88 22.2588 149.37 21.5967 148.767C20.9404 148.157 20.6123 147.407 20.6123 146.517C20.6123 145.509 21.0137 144.677 21.8164 144.021C22.625 143.358 23.6738 143.027 24.9629 143.027C25.8418 143.027 26.624 143.197 27.3096 143.537C28.001 143.877 28.5342 144.346 28.9092 144.943C29.29 145.541 29.4805 146.194 29.4805 146.903H27.7842C27.7842 146.13 27.5381 145.523 27.0459 145.084C26.5537 144.639 25.8594 144.416 24.9629 144.416C24.1309 144.416 23.4805 144.601 23.0117 144.97C22.5488 145.333 22.3174 145.84 22.3174 146.49C22.3174 147.012 22.5371 147.454 22.9766 147.817C23.4219 148.175 24.1748 148.503 25.2354 148.802C26.3018 149.101 27.1338 149.432 27.7314 149.795C28.335 150.152 28.7803 150.571 29.0674 151.052C29.3604 151.532 29.5068 152.098 29.5068 152.748C29.5068 153.785 29.1025 154.617 28.2939 155.244C27.4854 155.865 26.4043 156.176 25.0508 156.176C24.1719 156.176 23.3516 156.009 22.5898 155.675C21.8281 155.335 21.2393 154.872 20.8232 154.286C20.4131 153.7 20.208 153.035 20.208 152.291H21.9043C21.9043 153.064 22.1885 153.677 22.7568 154.128C23.3311 154.573 24.0957 154.796 25.0508 154.796C25.9414 154.796 26.624 154.614 27.0986 154.251C27.5732 153.888 27.8105 153.393 27.8105 152.766C27.8105 152.139 27.5908 151.655 27.1514 151.315C26.7119 150.97 25.915 150.63 24.7607 150.296ZM33.6289 144.188V146.49H35.4043V147.747H33.6289V153.645C33.6289 154.025 33.708 154.312 33.8662 154.506C34.0244 154.693 34.2939 154.787 34.6748 154.787C34.8623 154.787 35.1201 154.752 35.4482 154.682V156C35.0205 156.117 34.6045 156.176 34.2002 156.176C33.4736 156.176 32.9258 155.956 32.5566 155.517C32.1875 155.077 32.0029 154.453 32.0029 153.645V147.747H30.2715V146.49H32.0029V144.188H33.6289ZM43.1826 156C43.0889 155.812 43.0127 155.479 42.9541 154.998C42.1982 155.783 41.2959 156.176 40.2471 156.176C39.3096 156.176 38.5391 155.912 37.9355 155.385C37.3379 154.852 37.0391 154.178 37.0391 153.363C37.0391 152.373 37.4141 151.605 38.1641 151.061C38.9199 150.51 39.9805 150.234 41.3457 150.234H42.9277V149.487C42.9277 148.919 42.7578 148.468 42.418 148.134C42.0781 147.794 41.5771 147.624 40.915 147.624C40.335 147.624 39.8486 147.771 39.4561 148.063C39.0635 148.356 38.8672 148.711 38.8672 149.127H37.2324C37.2324 148.652 37.3994 148.195 37.7334 147.756C38.0732 147.311 38.5303 146.959 39.1045 146.701C39.6846 146.443 40.3203 146.314 41.0117 146.314C42.1074 146.314 42.9658 146.59 43.5869 147.141C44.208 147.686 44.5303 148.438 44.5537 149.399V153.776C44.5537 154.649 44.665 155.344 44.8877 155.859V156H43.1826ZM40.4844 154.761C40.9941 154.761 41.4775 154.629 41.9346 154.365C42.3916 154.102 42.7227 153.759 42.9277 153.337V151.386H41.6533C39.6611 151.386 38.665 151.969 38.665 153.135C38.665 153.645 38.835 154.043 39.1748 154.33C39.5146 154.617 39.9512 154.761 40.4844 154.761ZM51.6992 147.949C51.4531 147.908 51.1865 147.888 50.8994 147.888C49.833 147.888 49.1094 148.342 48.7285 149.25V156H47.1025V146.49H48.6846L48.7109 147.589C49.2441 146.739 50 146.314 50.9785 146.314C51.2949 146.314 51.5352 146.355 51.6992 146.438V147.949ZM55.8477 144.188V146.49H57.623V147.747H55.8477V153.645C55.8477 154.025 55.9268 154.312 56.085 154.506C56.2432 154.693 56.5127 154.787 56.8936 154.787C57.0811 154.787 57.3389 154.752 57.667 154.682V156C57.2393 156.117 56.8232 156.176 56.4189 156.176C55.6924 156.176 55.1445 155.956 54.7754 155.517C54.4062 155.077 54.2217 154.453 54.2217 153.645V147.747H52.4902V146.49H54.2217V144.188H55.8477ZM73.2588 143.203V151.904C73.2529 153.111 72.8721 154.099 72.1162 154.866C71.3662 155.634 70.3467 156.064 69.0576 156.158L68.6094 156.176C67.209 156.176 66.0928 155.798 65.2607 155.042C64.4287 154.286 64.0068 153.246 63.9951 151.922V143.203H65.665V151.869C65.665 152.795 65.9199 153.516 66.4297 154.031C66.9395 154.541 67.666 154.796 68.6094 154.796C69.5645 154.796 70.2939 154.541 70.7979 154.031C71.3076 153.521 71.5625 152.804 71.5625 151.878V143.203H73.2588ZM80.6152 150.823H77.6094V156H75.9131V143.203H80.1494C81.5908 143.203 82.6982 143.531 83.4717 144.188C84.251 144.844 84.6406 145.799 84.6406 147.053C84.6406 147.85 84.4238 148.544 83.9902 149.136C83.5625 149.728 82.9648 150.17 82.1973 150.463L85.2031 155.895V156H83.3926L80.6152 150.823ZM77.6094 149.443H80.2021C81.04 149.443 81.7051 149.227 82.1973 148.793C82.6953 148.359 82.9443 147.779 82.9443 147.053C82.9443 146.262 82.707 145.655 82.2324 145.233C81.7637 144.812 81.084 144.598 80.1934 144.592H77.6094V149.443ZM88.71 154.62H94.7744V156H87.0137V143.203H88.71V154.62ZM101.981 153.478C101.981 153.038 101.814 152.698 101.48 152.458C101.152 152.212 100.575 152.001 99.749 151.825C98.9287 151.649 98.2754 151.438 97.7891 151.192C97.3086 150.946 96.9512 150.653 96.7168 150.313C96.4883 149.974 96.374 149.569 96.374 149.101C96.374 148.321 96.7021 147.662 97.3584 147.123C98.0205 146.584 98.8643 146.314 99.8896 146.314C100.968 146.314 101.841 146.593 102.509 147.149C103.183 147.706 103.52 148.418 103.52 149.285H101.885C101.885 148.84 101.694 148.456 101.313 148.134C100.938 147.812 100.464 147.65 99.8896 147.65C99.2979 147.65 98.835 147.779 98.501 148.037C98.167 148.295 98 148.632 98 149.048C98 149.44 98.1553 149.736 98.4658 149.936C98.7764 150.135 99.3359 150.325 100.145 150.507C100.959 150.688 101.618 150.905 102.122 151.157C102.626 151.409 102.998 151.714 103.238 152.071C103.484 152.423 103.607 152.854 103.607 153.363C103.607 154.213 103.268 154.896 102.588 155.411C101.908 155.921 101.026 156.176 99.9424 156.176C99.1807 156.176 98.5068 156.041 97.9209 155.771C97.335 155.502 96.875 155.127 96.541 154.646C96.2129 154.16 96.0488 153.636 96.0488 153.073H97.6748C97.7041 153.618 97.9209 154.052 98.3252 154.374C98.7354 154.69 99.2744 154.849 99.9424 154.849C100.558 154.849 101.05 154.726 101.419 154.479C101.794 154.228 101.981 153.894 101.981 153.478Z" fill="black"/>
<path d="M461.594 193H459.906V180.203H461.594V193ZM466.639 181.188V183.49H468.414V184.747H466.639V190.645C466.639 191.025 466.718 191.312 466.876 191.506C467.034 191.693 467.304 191.787 467.685 191.787C467.872 191.787 468.13 191.752 468.458 191.682V193C468.03 193.117 467.614 193.176 467.21 193.176C466.483 193.176 465.936 192.956 465.566 192.517C465.197 192.077 465.013 191.453 465.013 190.645V184.747H463.281V183.49H465.013V181.188H466.639ZM474.268 193.176C472.979 193.176 471.93 192.754 471.121 191.91C470.312 191.061 469.908 189.927 469.908 188.509V188.21C469.908 187.267 470.087 186.426 470.444 185.688C470.808 184.943 471.312 184.363 471.956 183.947C472.606 183.525 473.31 183.314 474.065 183.314C475.302 183.314 476.263 183.722 476.948 184.536C477.634 185.351 477.977 186.517 477.977 188.034V188.711H471.534C471.558 189.648 471.83 190.407 472.352 190.987C472.879 191.562 473.547 191.849 474.355 191.849C474.93 191.849 475.416 191.731 475.814 191.497C476.213 191.263 476.562 190.952 476.86 190.565L477.854 191.339C477.057 192.563 475.861 193.176 474.268 193.176ZM474.065 184.65C473.409 184.65 472.858 184.891 472.413 185.371C471.968 185.846 471.692 186.514 471.587 187.375H476.351V187.252C476.304 186.426 476.081 185.787 475.683 185.336C475.284 184.879 474.745 184.65 474.065 184.65ZM481.396 183.49L481.439 184.545C482.137 183.725 483.077 183.314 484.261 183.314C485.591 183.314 486.496 183.824 486.977 184.844C487.293 184.387 487.703 184.018 488.207 183.736C488.717 183.455 489.317 183.314 490.009 183.314C492.095 183.314 493.155 184.419 493.19 186.628V193H491.564V186.725C491.564 186.045 491.409 185.538 491.099 185.204C490.788 184.864 490.267 184.694 489.534 184.694C488.931 184.694 488.43 184.876 488.031 185.239C487.633 185.597 487.401 186.08 487.337 186.689V193H485.702V186.769C485.702 185.386 485.025 184.694 483.672 184.694C482.605 184.694 481.876 185.148 481.483 186.057V193H479.857V183.49H481.396ZM501.188 190.478C501.188 190.038 501.021 189.698 500.688 189.458C500.359 189.212 499.782 189.001 498.956 188.825C498.136 188.649 497.482 188.438 496.996 188.192C496.516 187.946 496.158 187.653 495.924 187.313C495.695 186.974 495.581 186.569 495.581 186.101C495.581 185.321 495.909 184.662 496.565 184.123C497.228 183.584 498.071 183.314 499.097 183.314C500.175 183.314 501.048 183.593 501.716 184.149C502.39 184.706 502.727 185.418 502.727 186.285H501.092C501.092 185.84 500.901 185.456 500.521 185.134C500.146 184.812 499.671 184.65 499.097 184.65C498.505 184.65 498.042 184.779 497.708 185.037C497.374 185.295 497.207 185.632 497.207 186.048C497.207 186.44 497.362 186.736 497.673 186.936C497.983 187.135 498.543 187.325 499.352 187.507C500.166 187.688 500.825 187.905 501.329 188.157C501.833 188.409 502.205 188.714 502.445 189.071C502.691 189.423 502.814 189.854 502.814 190.363C502.814 191.213 502.475 191.896 501.795 192.411C501.115 192.921 500.233 193.176 499.149 193.176C498.388 193.176 497.714 193.041 497.128 192.771C496.542 192.502 496.082 192.127 495.748 191.646C495.42 191.16 495.256 190.636 495.256 190.073H496.882C496.911 190.618 497.128 191.052 497.532 191.374C497.942 191.69 498.481 191.849 499.149 191.849C499.765 191.849 500.257 191.726 500.626 191.479C501.001 191.228 501.188 190.894 501.188 190.478ZM413.351 208.806C413.351 207.481 413.526 206.21 413.878 204.991C414.235 203.772 414.766 202.665 415.469 201.669C416.172 200.673 416.901 199.97 417.657 199.56L417.991 200.632C417.136 201.288 416.433 202.29 415.882 203.638C415.337 204.985 415.038 206.494 414.985 208.164L414.977 208.911C414.977 211.173 415.39 213.136 416.216 214.8C416.714 215.796 417.306 216.575 417.991 217.138L417.657 218.131C416.878 217.697 416.134 216.971 415.425 215.951C414.042 213.959 413.351 211.577 413.351 208.806ZM423.59 208.296C422.143 207.88 421.088 207.37 420.426 206.767C419.77 206.157 419.441 205.407 419.441 204.517C419.441 203.509 419.843 202.677 420.646 202.021C421.454 201.358 422.503 201.027 423.792 201.027C424.671 201.027 425.453 201.197 426.139 201.537C426.83 201.877 427.363 202.346 427.738 202.943C428.119 203.541 428.31 204.194 428.31 204.903H426.613C426.613 204.13 426.367 203.523 425.875 203.084C425.383 202.639 424.688 202.416 423.792 202.416C422.96 202.416 422.31 202.601 421.841 202.97C421.378 203.333 421.146 203.84 421.146 204.49C421.146 205.012 421.366 205.454 421.806 205.817C422.251 206.175 423.004 206.503 424.064 206.802C425.131 207.101 425.963 207.432 426.561 207.795C427.164 208.152 427.609 208.571 427.896 209.052C428.189 209.532 428.336 210.098 428.336 210.748C428.336 211.785 427.932 212.617 427.123 213.244C426.314 213.865 425.233 214.176 423.88 214.176C423.001 214.176 422.181 214.009 421.419 213.675C420.657 213.335 420.068 212.872 419.652 212.286C419.242 211.7 419.037 211.035 419.037 210.291H420.733C420.733 211.064 421.018 211.677 421.586 212.128C422.16 212.573 422.925 212.796 423.88 212.796C424.771 212.796 425.453 212.614 425.928 212.251C426.402 211.888 426.64 211.393 426.64 210.766C426.64 210.139 426.42 209.655 425.98 209.315C425.541 208.97 424.744 208.63 423.59 208.296ZM432.458 202.188V204.49H434.233V205.747H432.458V211.645C432.458 212.025 432.537 212.312 432.695 212.506C432.854 212.693 433.123 212.787 433.504 212.787C433.691 212.787 433.949 212.752 434.277 212.682V214C433.85 214.117 433.434 214.176 433.029 214.176C432.303 214.176 431.755 213.956 431.386 213.517C431.017 213.077 430.832 212.453 430.832 211.645V205.747H429.101V204.49H430.832V202.188H432.458ZM440.737 205.949C440.491 205.908 440.225 205.888 439.938 205.888C438.871 205.888 438.147 206.342 437.767 207.25V214H436.141V204.49H437.723L437.749 205.589C438.282 204.739 439.038 204.314 440.017 204.314C440.333 204.314 440.573 204.355 440.737 204.438V205.949ZM448.111 213.06C447.479 213.804 446.55 214.176 445.325 214.176C444.312 214.176 443.538 213.883 443.005 213.297C442.478 212.705 442.211 211.832 442.205 210.678V204.49H443.831V210.634C443.831 212.075 444.417 212.796 445.589 212.796C446.831 212.796 447.657 212.333 448.067 211.407V204.49H449.693V214H448.146L448.111 213.06ZM455.986 212.849C456.566 212.849 457.073 212.673 457.507 212.321C457.94 211.97 458.181 211.53 458.228 211.003H459.766C459.736 211.548 459.549 212.066 459.203 212.559C458.857 213.051 458.395 213.443 457.814 213.736C457.24 214.029 456.631 214.176 455.986 214.176C454.691 214.176 453.66 213.745 452.893 212.884C452.131 212.017 451.75 210.833 451.75 209.333V209.061C451.75 208.135 451.92 207.312 452.26 206.591C452.6 205.87 453.086 205.311 453.719 204.912C454.357 204.514 455.11 204.314 455.978 204.314C457.044 204.314 457.929 204.634 458.632 205.272C459.341 205.911 459.719 206.74 459.766 207.76H458.228C458.181 207.145 457.946 206.641 457.524 206.248C457.108 205.85 456.593 205.65 455.978 205.65C455.151 205.65 454.51 205.949 454.053 206.547C453.602 207.139 453.376 207.997 453.376 209.122V209.43C453.376 210.525 453.602 211.369 454.053 211.961C454.504 212.553 455.148 212.849 455.986 212.849ZM463.8 202.188V204.49H465.575V205.747H463.8V211.645C463.8 212.025 463.879 212.312 464.037 212.506C464.195 212.693 464.465 212.787 464.846 212.787C465.033 212.787 465.291 212.752 465.619 212.682V214C465.191 214.117 464.775 214.176 464.371 214.176C463.645 214.176 463.097 213.956 462.728 213.517C462.358 213.077 462.174 212.453 462.174 211.645V205.747H460.442V204.49H462.174V202.188H463.8ZM473.354 213.06C472.721 213.804 471.792 214.176 470.567 214.176C469.554 214.176 468.78 213.883 468.247 213.297C467.72 212.705 467.453 211.832 467.447 210.678V204.49H469.073V210.634C469.073 212.075 469.659 212.796 470.831 212.796C472.073 212.796 472.899 212.333 473.31 211.407V204.49H474.936V214H473.389L473.354 213.06ZM482.011 205.949C481.765 205.908 481.498 205.888 481.211 205.888C480.145 205.888 479.421 206.342 479.04 207.25V214H477.414V204.49H478.996L479.022 205.589C479.556 204.739 480.312 204.314 481.29 204.314C481.606 204.314 481.847 204.355 482.011 204.438V205.949ZM487.284 214.176C485.995 214.176 484.946 213.754 484.138 212.91C483.329 212.061 482.925 210.927 482.925 209.509V209.21C482.925 208.267 483.104 207.426 483.461 206.688C483.824 205.943 484.328 205.363 484.973 204.947C485.623 204.525 486.326 204.314 487.082 204.314C488.318 204.314 489.279 204.722 489.965 205.536C490.65 206.351 490.993 207.517 490.993 209.034V209.711H484.551C484.574 210.648 484.847 211.407 485.368 211.987C485.896 212.562 486.563 212.849 487.372 212.849C487.946 212.849 488.433 212.731 488.831 212.497C489.229 212.263 489.578 211.952 489.877 211.565L490.87 212.339C490.073 213.563 488.878 214.176 487.284 214.176ZM487.082 205.65C486.426 205.65 485.875 205.891 485.43 206.371C484.984 206.846 484.709 207.514 484.604 208.375H489.367V208.252C489.32 207.426 489.098 206.787 488.699 206.336C488.301 205.879 487.762 205.65 487.082 205.65ZM492.487 209.166C492.487 207.707 492.833 206.535 493.524 205.65C494.216 204.76 495.121 204.314 496.24 204.314C497.354 204.314 498.235 204.695 498.886 205.457V200.5H500.512V214H499.018L498.938 212.98C498.288 213.777 497.383 214.176 496.223 214.176C495.121 214.176 494.222 213.725 493.524 212.822C492.833 211.92 492.487 210.742 492.487 209.289V209.166ZM494.113 209.351C494.113 210.429 494.336 211.272 494.781 211.882C495.227 212.491 495.842 212.796 496.627 212.796C497.658 212.796 498.411 212.333 498.886 211.407V207.039C498.399 206.143 497.652 205.694 496.645 205.694C495.848 205.694 495.227 206.002 494.781 206.617C494.336 207.232 494.113 208.144 494.113 209.351ZM507.763 214V201.203H511.375C512.488 201.203 513.473 201.449 514.328 201.941C515.184 202.434 515.843 203.134 516.306 204.042C516.774 204.95 517.012 205.993 517.018 207.171V207.988C517.018 209.195 516.783 210.253 516.314 211.161C515.852 212.069 515.187 212.767 514.319 213.253C513.458 213.739 512.453 213.988 511.305 214H507.763ZM509.45 202.592V212.62H511.226C512.526 212.62 513.537 212.216 514.258 211.407C514.984 210.599 515.348 209.447 515.348 207.953V207.206C515.348 205.753 515.005 204.625 514.319 203.822C513.64 203.014 512.673 202.604 511.419 202.592H509.45ZM525.191 214C525.098 213.812 525.021 213.479 524.963 212.998C524.207 213.783 523.305 214.176 522.256 214.176C521.318 214.176 520.548 213.912 519.944 213.385C519.347 212.852 519.048 212.178 519.048 211.363C519.048 210.373 519.423 209.605 520.173 209.061C520.929 208.51 521.989 208.234 523.354 208.234H524.937V207.487C524.937 206.919 524.767 206.468 524.427 206.134C524.087 205.794 523.586 205.624 522.924 205.624C522.344 205.624 521.857 205.771 521.465 206.063C521.072 206.356 520.876 206.711 520.876 207.127H519.241C519.241 206.652 519.408 206.195 519.742 205.756C520.082 205.311 520.539 204.959 521.113 204.701C521.693 204.443 522.329 204.314 523.021 204.314C524.116 204.314 524.975 204.59 525.596 205.141C526.217 205.686 526.539 206.438 526.562 207.399V211.776C526.562 212.649 526.674 213.344 526.896 213.859V214H525.191ZM522.493 212.761C523.003 212.761 523.486 212.629 523.943 212.365C524.4 212.102 524.731 211.759 524.937 211.337V209.386H523.662C521.67 209.386 520.674 209.969 520.674 211.135C520.674 211.645 520.844 212.043 521.184 212.33C521.523 212.617 521.96 212.761 522.493 212.761ZM531.317 202.188V204.49H533.093V205.747H531.317V211.645C531.317 212.025 531.396 212.312 531.555 212.506C531.713 212.693 531.982 212.787 532.363 212.787C532.551 212.787 532.809 212.752 533.137 212.682V214C532.709 214.117 532.293 214.176 531.889 214.176C531.162 214.176 530.614 213.956 530.245 213.517C529.876 213.077 529.691 212.453 529.691 211.645V205.747H527.96V204.49H529.691V202.188H531.317ZM540.871 214C540.777 213.812 540.701 213.479 540.643 212.998C539.887 213.783 538.984 214.176 537.936 214.176C536.998 214.176 536.228 213.912 535.624 213.385C535.026 212.852 534.728 212.178 534.728 211.363C534.728 210.373 535.103 209.605 535.853 209.061C536.608 208.51 537.669 208.234 539.034 208.234H540.616V207.487C540.616 206.919 540.446 206.468 540.106 206.134C539.767 205.794 539.266 205.624 538.604 205.624C538.023 205.624 537.537 205.771 537.145 206.063C536.752 206.356 536.556 206.711 536.556 207.127H534.921C534.921 206.652 535.088 206.195 535.422 205.756C535.762 205.311 536.219 204.959 536.793 204.701C537.373 204.443 538.009 204.314 538.7 204.314C539.796 204.314 540.654 204.59 541.275 205.141C541.896 205.686 542.219 206.438 542.242 207.399V211.776C542.242 212.649 542.354 213.344 542.576 213.859V214H540.871ZM538.173 212.761C538.683 212.761 539.166 212.629 539.623 212.365C540.08 212.102 540.411 211.759 540.616 211.337V209.386H539.342C537.35 209.386 536.354 209.969 536.354 211.135C536.354 211.645 536.523 212.043 536.863 212.33C537.203 212.617 537.64 212.761 538.173 212.761ZM548.544 208.894C548.544 210.2 548.371 211.454 548.025 212.655C547.686 213.851 547.161 214.955 546.452 215.969C545.749 216.982 545.011 217.703 544.237 218.131L543.895 217.138C544.797 216.446 545.521 215.374 546.065 213.921C546.616 212.462 546.897 210.845 546.909 209.069V208.788C546.909 207.558 546.78 206.415 546.522 205.36C546.265 204.3 545.904 203.351 545.441 202.513C544.984 201.675 544.469 201.021 543.895 200.553L544.237 199.56C545.011 199.987 545.746 200.702 546.443 201.704C547.146 202.706 547.671 203.811 548.017 205.018C548.368 206.225 548.544 207.517 548.544 208.894Z" fill="black"/>
<path d="M324.947 132.32C325.124 131.797 324.843 131.229 324.32 131.053L315.794 128.172C315.27 127.995 314.703 128.276 314.526 128.799C314.349 129.323 314.63 129.89 315.153 130.067L322.733 132.627L320.172 140.206C319.995 140.73 320.276 141.297 320.799 141.474C321.323 141.651 321.89 141.37 322.067 140.847L324.947 132.32ZM225.444 181.896L324.444 132.896L323.556 131.104L224.556 180.104L225.444 181.896Z" fill="black"/>
<path d="M235.056 198.671C234.874 199.192 235.149 199.763 235.671 199.944L244.17 202.906C244.691 203.088 245.261 202.812 245.443 202.291C245.625 201.769 245.349 201.199 244.828 201.017L237.273 198.385L239.906 190.83C240.088 190.309 239.812 189.739 239.291 189.557C238.769 189.375 238.199 189.651 238.017 190.172L235.056 198.671ZM324.565 155.1L235.565 198.1L236.435 199.9L325.435 156.9L324.565 155.1Z" fill="black"/>
<path d="M324.367 112.931C324.881 112.728 325.133 112.147 324.93 111.634L321.628 103.262C321.425 102.748 320.844 102.496 320.331 102.698C319.817 102.901 319.565 103.482 319.767 103.995L322.703 111.437L315.261 114.373C314.747 114.576 314.495 115.156 314.698 115.67C314.901 116.184 315.481 116.436 315.995 116.234L324.367 112.931ZM247.602 79.9173L323.602 112.918L324.399 111.083L248.398 78.0827L247.602 79.9173Z" fill="black"/>
<path d="M137.331 201.944C137.852 201.761 138.126 201.19 137.944 200.669L134.964 192.177C134.781 191.655 134.21 191.381 133.689 191.564C133.168 191.747 132.894 192.318 133.077 192.839L135.725 200.387L128.177 203.036C127.655 203.219 127.381 203.79 127.564 204.311C127.747 204.832 128.318 205.106 128.839 204.923L137.331 201.944ZM59.5669 164.901L136.567 201.901L137.433 200.099L60.4331 163.099L59.5669 164.901Z" fill="black"/>
<path d="M399.293 222.707C399.683 223.098 400.317 223.098 400.707 222.707L407.071 216.343C407.462 215.953 407.462 215.319 407.071 214.929C406.681 214.538 406.047 214.538 405.657 214.929L400 220.586L394.343 214.929C393.953 214.538 393.319 214.538 392.929 214.929C392.538 215.319 392.538 215.953 392.929 216.343L399.293 222.707ZM399 171V222H401V171H399Z" fill="black"/>
<circle cx="201" cy="63" r="49.5" fill="white" stroke="black"/>
<path d="M188.07 64.9658L188.316 66.6533L188.677 65.1328L191.208 56.2031H192.632L195.102 65.1328L195.453 66.6797L195.726 64.957L197.712 56.2031H199.408L196.306 69H194.768L192.131 59.6748L191.929 58.6992L191.727 59.6748L188.993 69H187.455L184.361 56.2031H186.049L188.07 64.9658ZM204.699 69.1758C203.41 69.1758 202.361 68.7539 201.553 67.9102C200.744 67.0605 200.34 65.9268 200.34 64.5088V64.21C200.34 63.2666 200.519 62.4258 200.876 61.6875C201.239 60.9434 201.743 60.3633 202.388 59.9473C203.038 59.5254 203.741 59.3145 204.497 59.3145C205.733 59.3145 206.694 59.7217 207.38 60.5361C208.065 61.3506 208.408 62.5166 208.408 64.0342V64.7109H201.966C201.989 65.6484 202.262 66.4072 202.783 66.9873C203.311 67.5615 203.979 67.8486 204.787 67.8486C205.361 67.8486 205.848 67.7314 206.246 67.4971C206.645 67.2627 206.993 66.9521 207.292 66.5654L208.285 67.3389C207.488 68.5635 206.293 69.1758 204.699 69.1758ZM204.497 60.6504C203.841 60.6504 203.29 60.8906 202.845 61.3711C202.399 61.8457 202.124 62.5137 202.019 63.375H206.782V63.252C206.735 62.4258 206.513 61.7871 206.114 61.3359C205.716 60.8789 205.177 60.6504 204.497 60.6504ZM218.349 64.3506C218.349 65.8037 218.015 66.9727 217.347 67.8574C216.679 68.7363 215.782 69.1758 214.657 69.1758C213.456 69.1758 212.527 68.751 211.871 67.9014L211.792 69H210.298V55.5H211.924V60.5361C212.58 59.7217 213.485 59.3145 214.64 59.3145C215.794 59.3145 216.699 59.751 217.355 60.624C218.018 61.4971 218.349 62.6924 218.349 64.21V64.3506ZM216.723 64.166C216.723 63.0586 216.509 62.2031 216.081 61.5996C215.653 60.9961 215.038 60.6943 214.235 60.6943C213.163 60.6943 212.393 61.1924 211.924 62.1885V66.3018C212.422 67.2979 213.198 67.7959 214.253 67.7959C215.032 67.7959 215.639 67.4941 216.072 66.8906C216.506 66.2871 216.723 65.3789 216.723 64.166Z" fill="black"/>
<rect x="286" y="89" width="300" height="197" rx="3" stroke="black" stroke-opacity="0.6" stroke-width="2"/>
<path d="M509.452 139.896C509.452 139.288 509.237 138.822 508.808 138.5C508.378 138.171 507.604 137.827 506.487 137.469C505.37 137.104 504.486 136.745 503.834 136.395C502.058 135.435 501.17 134.142 501.17 132.517C501.17 131.672 501.406 130.92 501.879 130.261C502.359 129.595 503.043 129.076 503.931 128.703C504.826 128.331 505.828 128.145 506.938 128.145C508.056 128.145 509.051 128.349 509.925 128.757C510.799 129.158 511.475 129.727 511.955 130.465C512.442 131.202 512.686 132.04 512.686 132.979H509.463C509.463 132.262 509.237 131.707 508.786 131.313C508.335 130.912 507.701 130.712 506.885 130.712C506.097 130.712 505.485 130.88 505.048 131.217C504.611 131.546 504.393 131.983 504.393 132.527C504.393 133.036 504.647 133.462 505.155 133.806C505.671 134.149 506.426 134.472 507.422 134.772C509.255 135.324 510.591 136.008 511.429 136.824C512.267 137.641 512.686 138.658 512.686 139.875C512.686 141.229 512.174 142.292 511.149 143.065C510.125 143.832 508.747 144.215 507.014 144.215C505.811 144.215 504.715 143.996 503.727 143.56C502.738 143.116 501.983 142.51 501.46 141.744C500.944 140.978 500.687 140.09 500.687 139.08H503.92C503.92 140.806 504.951 141.669 507.014 141.669C507.78 141.669 508.378 141.515 508.808 141.207C509.237 140.892 509.452 140.455 509.452 139.896ZM525.136 138.296C525.136 140.086 524.728 141.522 523.911 142.604C523.102 143.678 522.006 144.215 520.624 144.215C519.45 144.215 518.501 143.807 517.777 142.99V148.469H514.673V132.377H517.552L517.659 133.516C518.411 132.613 519.392 132.162 520.603 132.162C522.035 132.162 523.148 132.692 523.943 133.752C524.738 134.812 525.136 136.273 525.136 138.135V138.296ZM522.031 138.07C522.031 136.989 521.838 136.155 521.451 135.567C521.072 134.98 520.517 134.687 519.786 134.687C518.812 134.687 518.143 135.059 517.777 135.804V140.562C518.157 141.329 518.834 141.712 519.808 141.712C521.29 141.712 522.031 140.498 522.031 138.07ZM530.346 144H527.23V132.377H530.346V144ZM527.048 129.369C527.048 128.904 527.202 128.521 527.51 128.22C527.825 127.919 528.251 127.769 528.788 127.769C529.318 127.769 529.741 127.919 530.056 128.22C530.371 128.521 530.528 128.904 530.528 129.369C530.528 129.842 530.367 130.229 530.045 130.529C529.73 130.83 529.311 130.98 528.788 130.98C528.265 130.98 527.843 130.83 527.521 130.529C527.205 130.229 527.048 129.842 527.048 129.369ZM532.43 138.103C532.43 136.291 532.834 134.848 533.644 133.773C534.46 132.699 535.574 132.162 536.984 132.162C538.116 132.162 539.05 132.585 539.788 133.43V127.5H542.903V144H540.1L539.949 142.765C539.176 143.731 538.18 144.215 536.963 144.215C535.595 144.215 534.496 143.678 533.665 142.604C532.841 141.522 532.43 140.022 532.43 138.103ZM535.534 138.328C535.534 139.417 535.724 140.251 536.104 140.831C536.483 141.411 537.035 141.701 537.758 141.701C538.717 141.701 539.394 141.297 539.788 140.487V135.9C539.401 135.091 538.732 134.687 537.779 134.687C536.283 134.687 535.534 135.9 535.534 138.328ZM550.659 144.215C548.955 144.215 547.565 143.692 546.491 142.646C545.424 141.601 544.891 140.208 544.891 138.468V138.167C544.891 137 545.116 135.958 545.567 135.041C546.019 134.117 546.656 133.408 547.479 132.914C548.31 132.413 549.256 132.162 550.315 132.162C551.905 132.162 553.155 132.663 554.064 133.666C554.981 134.669 555.439 136.09 555.439 137.931V139.198H548.038C548.138 139.957 548.439 140.566 548.94 141.024C549.449 141.483 550.09 141.712 550.863 141.712C552.059 141.712 552.994 141.279 553.667 140.412L555.192 142.12C554.727 142.779 554.097 143.295 553.302 143.667C552.507 144.032 551.626 144.215 550.659 144.215ZM550.305 134.676C549.689 134.676 549.188 134.883 548.801 135.299C548.421 135.714 548.178 136.309 548.07 137.082H552.389V136.835C552.374 136.147 552.188 135.618 551.83 135.245C551.472 134.866 550.964 134.676 550.305 134.676ZM563.743 135.288C563.321 135.231 562.948 135.202 562.626 135.202C561.451 135.202 560.682 135.6 560.316 136.395V144H557.212V132.377H560.145L560.23 133.763C560.854 132.696 561.716 132.162 562.819 132.162C563.163 132.162 563.485 132.209 563.786 132.302L563.743 135.288Z" fill="black" fill-opacity="0.6"/>
<path d="M37.7441 251.79C37.6224 253.473 36.9993 254.798 35.875 255.765C34.7578 256.731 33.2826 257.215 31.4492 257.215C29.444 257.215 27.8649 256.542 26.7119 255.195C25.5661 253.842 24.9932 251.987 24.9932 249.631V248.675C24.9932 247.171 25.2581 245.846 25.7881 244.7C26.318 243.554 27.0736 242.677 28.0547 242.068C29.043 241.452 30.1888 241.145 31.4922 241.145C33.2969 241.145 34.7507 241.628 35.8535 242.595C36.9564 243.562 37.5938 244.919 37.7656 246.666H34.543C34.4642 245.656 34.1813 244.926 33.6943 244.475C33.2145 244.016 32.4805 243.787 31.4922 243.787C30.418 243.787 29.6123 244.174 29.0752 244.947C28.5452 245.714 28.2731 246.906 28.2588 248.524V249.706C28.2588 251.396 28.513 252.632 29.0215 253.412C29.5371 254.193 30.3464 254.583 31.4492 254.583C32.4447 254.583 33.1859 254.357 33.6729 253.906C34.167 253.448 34.4499 252.743 34.5215 251.79H37.7441ZM46.1875 248.288C45.765 248.231 45.3926 248.202 45.0703 248.202C43.8958 248.202 43.126 248.6 42.7607 249.395V257H39.6562V245.377H42.5889L42.6748 246.763C43.2979 245.696 44.1608 245.162 45.2637 245.162C45.6074 245.162 45.9297 245.209 46.2305 245.302L46.1875 248.288ZM54.1045 257C53.9613 256.721 53.8574 256.373 53.793 255.958C53.041 256.796 52.0635 257.215 50.8604 257.215C49.7217 257.215 48.7764 256.885 48.0244 256.227C47.2796 255.568 46.9072 254.737 46.9072 253.734C46.9072 252.503 47.362 251.557 48.2715 250.898C49.1882 250.24 50.5094 249.907 52.2354 249.899H53.6641V249.233C53.6641 248.696 53.5244 248.267 53.2451 247.944C52.973 247.622 52.5397 247.461 51.9453 247.461C51.4225 247.461 51.0107 247.586 50.71 247.837C50.4163 248.088 50.2695 248.431 50.2695 248.868H47.165C47.165 248.195 47.3727 247.572 47.7881 246.999C48.2035 246.426 48.7907 245.979 49.5498 245.656C50.3089 245.327 51.1611 245.162 52.1064 245.162C53.5387 245.162 54.6738 245.524 55.5117 246.247C56.3568 246.963 56.7793 247.973 56.7793 249.276V254.314C56.7865 255.417 56.9404 256.252 57.2412 256.817V257H54.1045ZM51.5371 254.841C51.9954 254.841 52.418 254.741 52.8047 254.54C53.1914 254.332 53.4779 254.057 53.6641 253.713V251.715H52.5039C50.9499 251.715 50.1227 252.252 50.0225 253.326L50.0117 253.509C50.0117 253.896 50.1478 254.214 50.4199 254.465C50.6921 254.715 51.0645 254.841 51.5371 254.841ZM69.2725 252.778L70.7979 245.377H73.7949L70.8301 257H68.2305L66.0283 249.685L63.8262 257H61.2373L58.2725 245.377H61.2695L62.7842 252.768L64.9111 245.377H67.1562L69.2725 252.778ZM78.6182 257H75.5029V240.5H78.6182V257ZM86.5352 257.215C84.8307 257.215 83.4414 256.692 82.3672 255.646C81.3001 254.601 80.7666 253.208 80.7666 251.468V251.167C80.7666 250 80.9922 248.958 81.4434 248.041C81.8945 247.117 82.5319 246.408 83.3555 245.914C84.1862 245.413 85.1315 245.162 86.1914 245.162C87.7812 245.162 89.0309 245.663 89.9404 246.666C90.8571 247.669 91.3154 249.09 91.3154 250.931V252.198H83.9141C84.0143 252.957 84.3151 253.566 84.8164 254.024C85.3249 254.483 85.9658 254.712 86.7393 254.712C87.9352 254.712 88.8698 254.279 89.543 253.412L91.0684 255.12C90.6029 255.779 89.9727 256.295 89.1777 256.667C88.3828 257.032 87.502 257.215 86.5352 257.215ZM86.1807 247.676C85.5648 247.676 85.0635 247.883 84.6768 248.299C84.2972 248.714 84.0537 249.309 83.9463 250.082H88.2646V249.835C88.2503 249.147 88.0641 248.618 87.7061 248.245C87.348 247.866 86.8395 247.676 86.1807 247.676ZM99.6191 248.288C99.1966 248.231 98.8242 248.202 98.502 248.202C97.3275 248.202 96.5576 248.6 96.1924 249.395V257H93.0879V245.377H96.0205L96.1064 246.763C96.7295 245.696 97.5924 245.162 98.6953 245.162C99.0391 245.162 99.3613 245.209 99.6621 245.302L99.6191 248.288Z" fill="black"/>
</svg>
