<svg width="600" height="300" viewBox="0 0 600 300" fill="none" xmlns="http://www.w3.org/2000/svg">
<rect width="600" height="300" fill="white"/>
<rect x="208.5" y="96.5" width="31" height="31" fill="#C4C4C4" stroke="black"/>
<rect x="178.5" y="96.5" width="31" height="31" fill="#C4C4C4" stroke="black"/>
<rect x="148.5" y="96.5" width="31" height="31" fill="#C4C4C4" stroke="black"/>
<rect x="89.5" y="96.5" width="31" height="31" fill="#C4C4C4" stroke="black"/>
<rect x="358.5" y="96.5" width="31" height="31" fill="#C4C4C4" stroke="black"/>
<rect x="238.5" y="96.5" width="31" height="31" fill="#C4C4C4" stroke="black"/>
<rect x="268.5" y="96.5" width="31" height="31" fill="#C4C4C4" stroke="black"/>
<rect x="298.5" y="96.5" width="31" height="31" fill="#C4C4C4" stroke="black"/>
<rect x="328.5" y="96.5" width="31" height="31" fill="#C4C4C4" stroke="black"/>
<rect x="388.5" y="96.5" width="31" height="31" fill="#FF8181" stroke="black"/>
<rect x="418.5" y="96.5" width="31" height="31" fill="#FF8181" stroke="black"/>
<rect x="448.5" y="96.5" width="31" height="31" fill="#FF8181" stroke="black"/>
<rect x="478.5" y="96.5" width="31" height="31" fill="#FF8181" stroke="black"/>
<rect x="118.5" y="96.5" width="31" height="31" fill="#C4C4C4" stroke="black"/>
<path d="M410.073 201.99V207H408.386V194.203H413.105C414.506 194.203 415.602 194.561 416.393 195.275C417.189 195.99 417.588 196.937 417.588 198.114C417.588 199.356 417.198 200.314 416.419 200.988C415.646 201.656 414.535 201.99 413.088 201.99H410.073ZM410.073 200.61H413.105C414.008 200.61 414.699 200.399 415.18 199.978C415.66 199.55 415.9 198.935 415.9 198.132C415.9 197.37 415.66 196.761 415.18 196.304C414.699 195.847 414.04 195.609 413.202 195.592H410.073V200.61ZM418.933 202.157C418.933 201.226 419.114 200.388 419.478 199.644C419.847 198.899 420.356 198.325 421.007 197.921C421.663 197.517 422.41 197.314 423.248 197.314C424.543 197.314 425.589 197.763 426.386 198.659C427.188 199.556 427.59 200.748 427.59 202.236V202.351C427.59 203.276 427.411 204.108 427.054 204.847C426.702 205.579 426.195 206.15 425.533 206.561C424.877 206.971 424.121 207.176 423.266 207.176C421.977 207.176 420.931 206.728 420.128 205.831C419.331 204.935 418.933 203.748 418.933 202.271V202.157ZM420.567 202.351C420.567 203.405 420.811 204.252 421.297 204.891C421.789 205.529 422.445 205.849 423.266 205.849C424.092 205.849 424.748 205.526 425.234 204.882C425.721 204.231 425.964 203.323 425.964 202.157C425.964 201.114 425.715 200.271 425.217 199.626C424.725 198.976 424.068 198.65 423.248 198.65C422.445 198.65 421.798 198.97 421.306 199.608C420.813 200.247 420.567 201.161 420.567 202.351ZM431.835 195.188V197.49H433.61V198.747H431.835V204.645C431.835 205.025 431.914 205.312 432.072 205.506C432.23 205.693 432.5 205.787 432.881 205.787C433.068 205.787 433.326 205.752 433.654 205.682V207C433.227 207.117 432.811 207.176 432.406 207.176C431.68 207.176 431.132 206.956 430.763 206.517C430.394 206.077 430.209 205.453 430.209 204.645V198.747H428.478V197.49H430.209V195.188H431.835ZM439.464 207.176C438.175 207.176 437.126 206.754 436.317 205.91C435.509 205.061 435.104 203.927 435.104 202.509V202.21C435.104 201.267 435.283 200.426 435.641 199.688C436.004 198.943 436.508 198.363 437.152 197.947C437.803 197.525 438.506 197.314 439.262 197.314C440.498 197.314 441.459 197.722 442.145 198.536C442.83 199.351 443.173 200.517 443.173 202.034V202.711H436.73C436.754 203.648 437.026 204.407 437.548 204.987C438.075 205.562 438.743 205.849 439.552 205.849C440.126 205.849 440.612 205.731 441.011 205.497C441.409 205.263 441.758 204.952 442.057 204.565L443.05 205.339C442.253 206.563 441.058 207.176 439.464 207.176ZM439.262 198.65C438.605 198.65 438.055 198.891 437.609 199.371C437.164 199.846 436.889 200.514 436.783 201.375H441.547V201.252C441.5 200.426 441.277 199.787 440.879 199.336C440.48 198.879 439.941 198.65 439.262 198.65ZM446.601 197.49L446.653 198.686C447.38 197.771 448.329 197.314 449.501 197.314C451.511 197.314 452.524 198.448 452.542 200.716V207H450.916V200.707C450.91 200.021 450.752 199.515 450.441 199.187C450.137 198.858 449.659 198.694 449.009 198.694C448.481 198.694 448.019 198.835 447.62 199.116C447.222 199.397 446.911 199.767 446.688 200.224V207H445.062V197.49H446.601ZM457.2 195.188V197.49H458.976V198.747H457.2V204.645C457.2 205.025 457.279 205.312 457.438 205.506C457.596 205.693 457.865 205.787 458.246 205.787C458.434 205.787 458.691 205.752 459.02 205.682V207C458.592 207.117 458.176 207.176 457.771 207.176C457.045 207.176 456.497 206.956 456.128 206.517C455.759 206.077 455.574 205.453 455.574 204.645V198.747H453.843V197.49H455.574V195.188H457.2ZM462.649 207H461.023V197.49H462.649V207ZM460.892 194.968C460.892 194.704 460.971 194.481 461.129 194.3C461.293 194.118 461.533 194.027 461.85 194.027C462.166 194.027 462.406 194.118 462.57 194.3C462.734 194.481 462.816 194.704 462.816 194.968C462.816 195.231 462.734 195.451 462.57 195.627C462.406 195.803 462.166 195.891 461.85 195.891C461.533 195.891 461.293 195.803 461.129 195.627C460.971 195.451 460.892 195.231 460.892 194.968ZM471.131 207C471.037 206.812 470.961 206.479 470.902 205.998C470.146 206.783 469.244 207.176 468.195 207.176C467.258 207.176 466.487 206.912 465.884 206.385C465.286 205.852 464.987 205.178 464.987 204.363C464.987 203.373 465.362 202.605 466.112 202.061C466.868 201.51 467.929 201.234 469.294 201.234H470.876V200.487C470.876 199.919 470.706 199.468 470.366 199.134C470.026 198.794 469.525 198.624 468.863 198.624C468.283 198.624 467.797 198.771 467.404 199.063C467.012 199.356 466.815 199.711 466.815 200.127H465.181C465.181 199.652 465.348 199.195 465.682 198.756C466.021 198.311 466.479 197.959 467.053 197.701C467.633 197.443 468.269 197.314 468.96 197.314C470.056 197.314 470.914 197.59 471.535 198.141C472.156 198.686 472.479 199.438 472.502 200.399V204.776C472.502 205.649 472.613 206.344 472.836 206.859V207H471.131ZM468.433 205.761C468.942 205.761 469.426 205.629 469.883 205.365C470.34 205.102 470.671 204.759 470.876 204.337V202.386H469.602C467.609 202.386 466.613 202.969 466.613 204.135C466.613 204.645 466.783 205.043 467.123 205.33C467.463 205.617 467.899 205.761 468.433 205.761ZM476.817 207H475.191V193.5H476.817V207ZM481.194 207H479.568V193.5H481.194V207ZM486.916 204.618L489.131 197.49H490.871L487.048 208.468C486.456 210.05 485.516 210.841 484.227 210.841L483.919 210.814L483.312 210.7V209.382L483.752 209.417C484.303 209.417 484.73 209.306 485.035 209.083C485.346 208.86 485.601 208.453 485.8 207.861L486.16 206.895L482.768 197.49H484.543L486.916 204.618ZM390.896 228H389.27V218.49H390.896V228ZM389.138 215.968C389.138 215.704 389.217 215.481 389.375 215.3C389.539 215.118 389.779 215.027 390.096 215.027C390.412 215.027 390.652 215.118 390.816 215.3C390.98 215.481 391.062 215.704 391.062 215.968C391.062 216.231 390.98 216.451 390.816 216.627C390.652 216.803 390.412 216.891 390.096 216.891C389.779 216.891 389.539 216.803 389.375 216.627C389.217 216.451 389.138 216.231 389.138 215.968ZM395.035 218.49L395.079 219.545C395.776 218.725 396.717 218.314 397.9 218.314C399.23 218.314 400.136 218.824 400.616 219.844C400.933 219.387 401.343 219.018 401.847 218.736C402.356 218.455 402.957 218.314 403.648 218.314C405.734 218.314 406.795 219.419 406.83 221.628V228H405.204V221.725C405.204 221.045 405.049 220.538 404.738 220.204C404.428 219.864 403.906 219.694 403.174 219.694C402.57 219.694 402.069 219.876 401.671 220.239C401.272 220.597 401.041 221.08 400.977 221.689V228H399.342V221.769C399.342 220.386 398.665 219.694 397.312 219.694C396.245 219.694 395.516 220.148 395.123 221.057V228H393.497V218.49H395.035ZM417.324 223.351C417.324 224.798 416.993 225.964 416.331 226.849C415.669 227.733 414.772 228.176 413.642 228.176C412.487 228.176 411.579 227.81 410.917 227.077V231.656H409.291V218.49H410.776L410.855 219.545C411.518 218.725 412.438 218.314 413.615 218.314C414.758 218.314 415.66 218.745 416.322 219.606C416.99 220.468 417.324 221.666 417.324 223.201V223.351ZM415.698 223.166C415.698 222.094 415.47 221.247 415.013 220.626C414.556 220.005 413.929 219.694 413.132 219.694C412.147 219.694 411.409 220.131 410.917 221.004V225.548C411.403 226.415 412.147 226.849 413.149 226.849C413.929 226.849 414.547 226.541 415.004 225.926C415.467 225.305 415.698 224.385 415.698 223.166ZM418.968 223.157C418.968 222.226 419.149 221.388 419.513 220.644C419.882 219.899 420.392 219.325 421.042 218.921C421.698 218.517 422.445 218.314 423.283 218.314C424.578 218.314 425.624 218.763 426.421 219.659C427.224 220.556 427.625 221.748 427.625 223.236V223.351C427.625 224.276 427.446 225.108 427.089 225.847C426.737 226.579 426.23 227.15 425.568 227.561C424.912 227.971 424.156 228.176 423.301 228.176C422.012 228.176 420.966 227.728 420.163 226.831C419.366 225.935 418.968 224.748 418.968 223.271V223.157ZM420.603 223.351C420.603 224.405 420.846 225.252 421.332 225.891C421.824 226.529 422.48 226.849 423.301 226.849C424.127 226.849 424.783 226.526 425.27 225.882C425.756 225.231 425.999 224.323 425.999 223.157C425.999 222.114 425.75 221.271 425.252 220.626C424.76 219.976 424.104 219.65 423.283 219.65C422.48 219.65 421.833 219.97 421.341 220.608C420.849 221.247 420.603 222.161 420.603 223.351ZM434.261 219.949C434.015 219.908 433.748 219.888 433.461 219.888C432.395 219.888 431.671 220.342 431.29 221.25V228H429.664V218.49H431.246L431.272 219.589C431.806 218.739 432.562 218.314 433.54 218.314C433.856 218.314 434.097 218.355 434.261 218.438V219.949ZM438.409 216.188V218.49H440.185V219.747H438.409V225.645C438.409 226.025 438.488 226.312 438.646 226.506C438.805 226.693 439.074 226.787 439.455 226.787C439.643 226.787 439.9 226.752 440.229 226.682V228C439.801 228.117 439.385 228.176 438.98 228.176C438.254 228.176 437.706 227.956 437.337 227.517C436.968 227.077 436.783 226.453 436.783 225.645V219.747H435.052V218.49H436.783V216.188H438.409ZM447.963 228C447.869 227.812 447.793 227.479 447.734 226.998C446.979 227.783 446.076 228.176 445.027 228.176C444.09 228.176 443.319 227.912 442.716 227.385C442.118 226.852 441.819 226.178 441.819 225.363C441.819 224.373 442.194 223.605 442.944 223.061C443.7 222.51 444.761 222.234 446.126 222.234H447.708V221.487C447.708 220.919 447.538 220.468 447.198 220.134C446.858 219.794 446.357 219.624 445.695 219.624C445.115 219.624 444.629 219.771 444.236 220.063C443.844 220.356 443.647 220.711 443.647 221.127H442.013C442.013 220.652 442.18 220.195 442.514 219.756C442.854 219.311 443.311 218.959 443.885 218.701C444.465 218.443 445.101 218.314 445.792 218.314C446.888 218.314 447.746 218.59 448.367 219.141C448.988 219.686 449.311 220.438 449.334 221.399V225.776C449.334 226.649 449.445 227.344 449.668 227.859V228H447.963ZM445.265 226.761C445.774 226.761 446.258 226.629 446.715 226.365C447.172 226.102 447.503 225.759 447.708 225.337V223.386H446.434C444.441 223.386 443.445 223.969 443.445 225.135C443.445 225.645 443.615 226.043 443.955 226.33C444.295 226.617 444.731 226.761 445.265 226.761ZM453.421 218.49L453.474 219.686C454.2 218.771 455.149 218.314 456.321 218.314C458.331 218.314 459.345 219.448 459.362 221.716V228H457.736V221.707C457.73 221.021 457.572 220.515 457.262 220.187C456.957 219.858 456.479 219.694 455.829 219.694C455.302 219.694 454.839 219.835 454.44 220.116C454.042 220.397 453.731 220.767 453.509 221.224V228H451.883V218.49H453.421ZM464.021 216.188V218.49H465.796V219.747H464.021V225.645C464.021 226.025 464.1 226.312 464.258 226.506C464.416 226.693 464.686 226.787 465.066 226.787C465.254 226.787 465.512 226.752 465.84 226.682V228C465.412 228.117 464.996 228.176 464.592 228.176C463.865 228.176 463.317 227.956 462.948 227.517C462.579 227.077 462.395 226.453 462.395 225.645V219.747H460.663V218.49H462.395V216.188H464.021ZM471.772 223.166C471.772 221.707 472.118 220.535 472.81 219.65C473.501 218.76 474.406 218.314 475.525 218.314C476.639 218.314 477.521 218.695 478.171 219.457V214.5H479.797V228H478.303L478.224 226.98C477.573 227.777 476.668 228.176 475.508 228.176C474.406 228.176 473.507 227.725 472.81 226.822C472.118 225.92 471.772 224.742 471.772 223.289V223.166ZM473.398 223.351C473.398 224.429 473.621 225.272 474.066 225.882C474.512 226.491 475.127 226.796 475.912 226.796C476.943 226.796 477.696 226.333 478.171 225.407V221.039C477.685 220.143 476.938 219.694 475.93 219.694C475.133 219.694 474.512 220.002 474.066 220.617C473.621 221.232 473.398 222.144 473.398 223.351ZM488.199 228C488.105 227.812 488.029 227.479 487.971 226.998C487.215 227.783 486.312 228.176 485.264 228.176C484.326 228.176 483.556 227.912 482.952 227.385C482.354 226.852 482.056 226.178 482.056 225.363C482.056 224.373 482.431 223.605 483.181 223.061C483.937 222.51 484.997 222.234 486.362 222.234H487.944V221.487C487.944 220.919 487.774 220.468 487.435 220.134C487.095 219.794 486.594 219.624 485.932 219.624C485.352 219.624 484.865 219.771 484.473 220.063C484.08 220.356 483.884 220.711 483.884 221.127H482.249C482.249 220.652 482.416 220.195 482.75 219.756C483.09 219.311 483.547 218.959 484.121 218.701C484.701 218.443 485.337 218.314 486.028 218.314C487.124 218.314 487.982 218.59 488.604 219.141C489.225 219.686 489.547 220.438 489.57 221.399V225.776C489.57 226.649 489.682 227.344 489.904 227.859V228H488.199ZM485.501 226.761C486.011 226.761 486.494 226.629 486.951 226.365C487.408 226.102 487.739 225.759 487.944 225.337V223.386H486.67C484.678 223.386 483.682 223.969 483.682 225.135C483.682 225.645 483.852 226.043 484.191 226.33C484.531 226.617 484.968 226.761 485.501 226.761ZM494.325 216.188V218.49H496.101V219.747H494.325V225.645C494.325 226.025 494.404 226.312 494.562 226.506C494.721 226.693 494.99 226.787 495.371 226.787C495.559 226.787 495.816 226.752 496.145 226.682V228C495.717 228.117 495.301 228.176 494.896 228.176C494.17 228.176 493.622 227.956 493.253 227.517C492.884 227.077 492.699 226.453 492.699 225.645V219.747H490.968V218.49H492.699V216.188H494.325ZM503.879 228C503.785 227.812 503.709 227.479 503.65 226.998C502.895 227.783 501.992 228.176 500.943 228.176C500.006 228.176 499.235 227.912 498.632 227.385C498.034 226.852 497.735 226.178 497.735 225.363C497.735 224.373 498.11 223.605 498.86 223.061C499.616 222.51 500.677 222.234 502.042 222.234H503.624V221.487C503.624 220.919 503.454 220.468 503.114 220.134C502.774 219.794 502.273 219.624 501.611 219.624C501.031 219.624 500.545 219.771 500.152 220.063C499.76 220.356 499.563 220.711 499.563 221.127H497.929C497.929 220.652 498.096 220.195 498.43 219.756C498.77 219.311 499.227 218.959 499.801 218.701C500.381 218.443 501.017 218.314 501.708 218.314C502.804 218.314 503.662 218.59 504.283 219.141C504.904 219.686 505.227 220.438 505.25 221.399V225.776C505.25 226.649 505.361 227.344 505.584 227.859V228H503.879ZM501.181 226.761C501.69 226.761 502.174 226.629 502.631 226.365C503.088 226.102 503.419 225.759 503.624 225.337V223.386H502.35C500.357 223.386 499.361 223.969 499.361 225.135C499.361 225.645 499.531 226.043 499.871 226.33C500.211 226.617 500.647 226.761 501.181 226.761ZM507.746 230.549L506.823 229.916C507.374 229.148 507.661 228.357 507.685 227.543V226.075H509.275V227.35C509.275 227.941 509.129 228.533 508.836 229.125C508.549 229.717 508.186 230.191 507.746 230.549ZM398.832 246.478C398.832 246.038 398.665 245.698 398.331 245.458C398.003 245.212 397.426 245.001 396.6 244.825C395.779 244.649 395.126 244.438 394.64 244.192C394.159 243.946 393.802 243.653 393.567 243.313C393.339 242.974 393.225 242.569 393.225 242.101C393.225 241.321 393.553 240.662 394.209 240.123C394.871 239.584 395.715 239.314 396.74 239.314C397.818 239.314 398.691 239.593 399.359 240.149C400.033 240.706 400.37 241.418 400.37 242.285H398.735C398.735 241.84 398.545 241.456 398.164 241.134C397.789 240.812 397.314 240.65 396.74 240.65C396.148 240.65 395.686 240.779 395.352 241.037C395.018 241.295 394.851 241.632 394.851 242.048C394.851 242.44 395.006 242.736 395.316 242.936C395.627 243.135 396.187 243.325 396.995 243.507C397.81 243.688 398.469 243.905 398.973 244.157C399.477 244.409 399.849 244.714 400.089 245.071C400.335 245.423 400.458 245.854 400.458 246.363C400.458 247.213 400.118 247.896 399.438 248.411C398.759 248.921 397.877 249.176 396.793 249.176C396.031 249.176 395.357 249.041 394.771 248.771C394.186 248.502 393.726 248.127 393.392 247.646C393.063 247.16 392.899 246.636 392.899 246.073H394.525C394.555 246.618 394.771 247.052 395.176 247.374C395.586 247.69 396.125 247.849 396.793 247.849C397.408 247.849 397.9 247.726 398.27 247.479C398.645 247.228 398.832 246.894 398.832 246.478ZM408.447 248.06C407.814 248.804 406.886 249.176 405.661 249.176C404.647 249.176 403.874 248.883 403.341 248.297C402.813 247.705 402.547 246.832 402.541 245.678V239.49H404.167V245.634C404.167 247.075 404.753 247.796 405.925 247.796C407.167 247.796 407.993 247.333 408.403 246.407V239.49H410.029V249H408.482L408.447 248.06ZM416.322 247.849C416.902 247.849 417.409 247.673 417.843 247.321C418.276 246.97 418.517 246.53 418.563 246.003H420.102C420.072 246.548 419.885 247.066 419.539 247.559C419.193 248.051 418.73 248.443 418.15 248.736C417.576 249.029 416.967 249.176 416.322 249.176C415.027 249.176 413.996 248.745 413.229 247.884C412.467 247.017 412.086 245.833 412.086 244.333V244.061C412.086 243.135 412.256 242.312 412.596 241.591C412.936 240.87 413.422 240.311 414.055 239.912C414.693 239.514 415.446 239.314 416.313 239.314C417.38 239.314 418.265 239.634 418.968 240.272C419.677 240.911 420.055 241.74 420.102 242.76H418.563C418.517 242.145 418.282 241.641 417.86 241.248C417.444 240.85 416.929 240.65 416.313 240.65C415.487 240.65 414.846 240.949 414.389 241.547C413.938 242.139 413.712 242.997 413.712 244.122V244.43C413.712 245.525 413.938 246.369 414.389 246.961C414.84 247.553 415.484 247.849 416.322 247.849ZM423.556 240.642C424.276 239.757 425.214 239.314 426.368 239.314C428.378 239.314 429.392 240.448 429.409 242.716V249H427.783V242.707C427.777 242.021 427.619 241.515 427.309 241.187C427.004 240.858 426.526 240.694 425.876 240.694C425.349 240.694 424.886 240.835 424.487 241.116C424.089 241.397 423.778 241.767 423.556 242.224V249H421.93V235.5H423.556V240.642ZM442.18 249C442.086 248.812 442.01 248.479 441.951 247.998C441.195 248.783 440.293 249.176 439.244 249.176C438.307 249.176 437.536 248.912 436.933 248.385C436.335 247.852 436.036 247.178 436.036 246.363C436.036 245.373 436.411 244.605 437.161 244.061C437.917 243.51 438.978 243.234 440.343 243.234H441.925V242.487C441.925 241.919 441.755 241.468 441.415 241.134C441.075 240.794 440.574 240.624 439.912 240.624C439.332 240.624 438.846 240.771 438.453 241.063C438.061 241.356 437.864 241.711 437.864 242.127H436.229C436.229 241.652 436.396 241.195 436.73 240.756C437.07 240.311 437.527 239.959 438.102 239.701C438.682 239.443 439.317 239.314 440.009 239.314C441.104 239.314 441.963 239.59 442.584 240.141C443.205 240.686 443.527 241.438 443.551 242.399V246.776C443.551 247.649 443.662 248.344 443.885 248.859V249H442.18ZM439.481 247.761C439.991 247.761 440.475 247.629 440.932 247.365C441.389 247.102 441.72 246.759 441.925 246.337V244.386H440.65C438.658 244.386 437.662 244.969 437.662 246.135C437.662 246.645 437.832 247.043 438.172 247.33C438.512 247.617 438.948 247.761 439.481 247.761ZM451.637 246.478C451.637 246.038 451.47 245.698 451.136 245.458C450.808 245.212 450.23 245.001 449.404 244.825C448.584 244.649 447.931 244.438 447.444 244.192C446.964 243.946 446.606 243.653 446.372 243.313C446.144 242.974 446.029 242.569 446.029 242.101C446.029 241.321 446.357 240.662 447.014 240.123C447.676 239.584 448.52 239.314 449.545 239.314C450.623 239.314 451.496 239.593 452.164 240.149C452.838 240.706 453.175 241.418 453.175 242.285H451.54C451.54 241.84 451.35 241.456 450.969 241.134C450.594 240.812 450.119 240.65 449.545 240.65C448.953 240.65 448.49 240.779 448.156 241.037C447.822 241.295 447.655 241.632 447.655 242.048C447.655 242.44 447.811 242.736 448.121 242.936C448.432 243.135 448.991 243.325 449.8 243.507C450.614 243.688 451.273 243.905 451.777 244.157C452.281 244.409 452.653 244.714 452.894 245.071C453.14 245.423 453.263 245.854 453.263 246.363C453.263 247.213 452.923 247.896 452.243 248.411C451.563 248.921 450.682 249.176 449.598 249.176C448.836 249.176 448.162 249.041 447.576 248.771C446.99 248.502 446.53 248.127 446.196 247.646C445.868 247.16 445.704 246.636 445.704 246.073H447.33C447.359 246.618 447.576 247.052 447.98 247.374C448.391 247.69 448.93 247.849 449.598 247.849C450.213 247.849 450.705 247.726 451.074 247.479C451.449 247.228 451.637 246.894 451.637 246.478ZM464.442 240.949C464.196 240.908 463.93 240.888 463.643 240.888C462.576 240.888 461.853 241.342 461.472 242.25V249H459.846V239.49H461.428L461.454 240.589C461.987 239.739 462.743 239.314 463.722 239.314C464.038 239.314 464.278 239.355 464.442 239.438V240.949ZM469.716 249.176C468.427 249.176 467.378 248.754 466.569 247.91C465.761 247.061 465.356 245.927 465.356 244.509V244.21C465.356 243.267 465.535 242.426 465.893 241.688C466.256 240.943 466.76 240.363 467.404 239.947C468.055 239.525 468.758 239.314 469.514 239.314C470.75 239.314 471.711 239.722 472.396 240.536C473.082 241.351 473.425 242.517 473.425 244.034V244.711H466.982C467.006 245.648 467.278 246.407 467.8 246.987C468.327 247.562 468.995 247.849 469.804 247.849C470.378 247.849 470.864 247.731 471.263 247.497C471.661 247.263 472.01 246.952 472.309 246.565L473.302 247.339C472.505 248.563 471.31 249.176 469.716 249.176ZM469.514 240.65C468.857 240.65 468.307 240.891 467.861 241.371C467.416 241.846 467.141 242.514 467.035 243.375H471.799V243.252C471.752 242.426 471.529 241.787 471.131 241.336C470.732 240.879 470.193 240.65 469.514 240.65ZM477.521 237.188V239.49H479.296V240.747H477.521V246.645C477.521 247.025 477.6 247.312 477.758 247.506C477.916 247.693 478.186 247.787 478.566 247.787C478.754 247.787 479.012 247.752 479.34 247.682V249C478.912 249.117 478.496 249.176 478.092 249.176C477.365 249.176 476.817 248.956 476.448 248.517C476.079 248.077 475.895 247.453 475.895 246.645V240.747H474.163V239.49H475.895V237.188H477.521ZM487.074 248.06C486.441 248.804 485.513 249.176 484.288 249.176C483.274 249.176 482.501 248.883 481.968 248.297C481.44 247.705 481.174 246.832 481.168 245.678V239.49H482.794V245.634C482.794 247.075 483.38 247.796 484.552 247.796C485.794 247.796 486.62 247.333 487.03 246.407V239.49H488.656V249H487.109L487.074 248.06ZM495.731 240.949C495.485 240.908 495.219 240.888 494.932 240.888C493.865 240.888 493.142 241.342 492.761 242.25V249H491.135V239.49H492.717L492.743 240.589C493.276 239.739 494.032 239.314 495.011 239.314C495.327 239.314 495.567 239.355 495.731 239.438V240.949ZM498.772 239.49L498.825 240.686C499.552 239.771 500.501 239.314 501.673 239.314C503.683 239.314 504.696 240.448 504.714 242.716V249H503.088V242.707C503.082 242.021 502.924 241.515 502.613 241.187C502.309 240.858 501.831 240.694 501.181 240.694C500.653 240.694 500.19 240.835 499.792 241.116C499.394 241.397 499.083 241.767 498.86 242.224V249H497.234V239.49H498.772ZM424.03 270C423.937 269.812 423.86 269.479 423.802 268.998C423.046 269.783 422.144 270.176 421.095 270.176C420.157 270.176 419.387 269.912 418.783 269.385C418.186 268.852 417.887 268.178 417.887 267.363C417.887 266.373 418.262 265.605 419.012 265.061C419.768 264.51 420.828 264.234 422.193 264.234H423.775V263.487C423.775 262.919 423.605 262.468 423.266 262.134C422.926 261.794 422.425 261.624 421.763 261.624C421.183 261.624 420.696 261.771 420.304 262.063C419.911 262.356 419.715 262.711 419.715 263.127H418.08C418.08 262.652 418.247 262.195 418.581 261.756C418.921 261.311 419.378 260.959 419.952 260.701C420.532 260.443 421.168 260.314 421.859 260.314C422.955 260.314 423.813 260.59 424.435 261.141C425.056 261.686 425.378 262.438 425.401 263.399V267.776C425.401 268.649 425.513 269.344 425.735 269.859V270H424.03ZM421.332 268.761C421.842 268.761 422.325 268.629 422.782 268.365C423.239 268.102 423.57 267.759 423.775 267.337V265.386H422.501C420.509 265.386 419.513 265.969 419.513 267.135C419.513 267.645 419.683 268.043 420.022 268.33C420.362 268.617 420.799 268.761 421.332 268.761ZM427.555 265.166C427.555 263.707 427.9 262.535 428.592 261.65C429.283 260.76 430.188 260.314 431.308 260.314C432.421 260.314 433.303 260.695 433.953 261.457V256.5H435.579V270H434.085L434.006 268.98C433.355 269.777 432.45 270.176 431.29 270.176C430.188 270.176 429.289 269.725 428.592 268.822C427.9 267.92 427.555 266.742 427.555 265.289V265.166ZM429.181 265.351C429.181 266.429 429.403 267.272 429.849 267.882C430.294 268.491 430.909 268.796 431.694 268.796C432.726 268.796 433.479 268.333 433.953 267.407V263.039C433.467 262.143 432.72 261.694 431.712 261.694C430.915 261.694 430.294 262.002 429.849 262.617C429.403 263.232 429.181 264.144 429.181 265.351ZM437.715 265.166C437.715 263.707 438.061 262.535 438.752 261.65C439.443 260.76 440.349 260.314 441.468 260.314C442.581 260.314 443.463 260.695 444.113 261.457V256.5H445.739V270H444.245L444.166 268.98C443.516 269.777 442.61 270.176 441.45 270.176C440.349 270.176 439.449 269.725 438.752 268.822C438.061 267.92 437.715 266.742 437.715 265.289V265.166ZM439.341 265.351C439.341 266.429 439.563 267.272 440.009 267.882C440.454 268.491 441.069 268.796 441.854 268.796C442.886 268.796 443.639 268.333 444.113 267.407V263.039C443.627 262.143 442.88 261.694 441.872 261.694C441.075 261.694 440.454 262.002 440.009 262.617C439.563 263.232 439.341 264.144 439.341 265.351ZM452.867 261.949C452.621 261.908 452.354 261.888 452.067 261.888C451.001 261.888 450.277 262.342 449.896 263.25V270H448.271V260.49H449.853L449.879 261.589C450.412 260.739 451.168 260.314 452.146 260.314C452.463 260.314 452.703 260.355 452.867 260.438V261.949ZM458.141 270.176C456.852 270.176 455.803 269.754 454.994 268.91C454.186 268.061 453.781 266.927 453.781 265.509V265.21C453.781 264.267 453.96 263.426 454.317 262.688C454.681 261.943 455.185 261.363 455.829 260.947C456.479 260.525 457.183 260.314 457.938 260.314C459.175 260.314 460.136 260.722 460.821 261.536C461.507 262.351 461.85 263.517 461.85 265.034V265.711H455.407C455.431 266.648 455.703 267.407 456.225 267.987C456.752 268.562 457.42 268.849 458.229 268.849C458.803 268.849 459.289 268.731 459.688 268.497C460.086 268.263 460.435 267.952 460.733 267.565L461.727 268.339C460.93 269.563 459.734 270.176 458.141 270.176ZM457.938 261.65C457.282 261.65 456.731 261.891 456.286 262.371C455.841 262.846 455.565 263.514 455.46 264.375H460.224V264.252C460.177 263.426 459.954 262.787 459.556 262.336C459.157 261.879 458.618 261.65 457.938 261.65ZM469.276 267.478C469.276 267.038 469.109 266.698 468.775 266.458C468.447 266.212 467.87 266.001 467.044 265.825C466.224 265.649 465.57 265.438 465.084 265.192C464.604 264.946 464.246 264.653 464.012 264.313C463.783 263.974 463.669 263.569 463.669 263.101C463.669 262.321 463.997 261.662 464.653 261.123C465.315 260.584 466.159 260.314 467.185 260.314C468.263 260.314 469.136 260.593 469.804 261.149C470.478 261.706 470.814 262.418 470.814 263.285H469.18C469.18 262.84 468.989 262.456 468.608 262.134C468.233 261.812 467.759 261.65 467.185 261.65C466.593 261.65 466.13 261.779 465.796 262.037C465.462 262.295 465.295 262.632 465.295 263.048C465.295 263.44 465.45 263.736 465.761 263.936C466.071 264.135 466.631 264.325 467.439 264.507C468.254 264.688 468.913 264.905 469.417 265.157C469.921 265.409 470.293 265.714 470.533 266.071C470.779 266.423 470.902 266.854 470.902 267.363C470.902 268.213 470.562 268.896 469.883 269.411C469.203 269.921 468.321 270.176 467.237 270.176C466.476 270.176 465.802 270.041 465.216 269.771C464.63 269.502 464.17 269.127 463.836 268.646C463.508 268.16 463.344 267.636 463.344 267.073H464.97C464.999 267.618 465.216 268.052 465.62 268.374C466.03 268.69 466.569 268.849 467.237 268.849C467.853 268.849 468.345 268.726 468.714 268.479C469.089 268.228 469.276 267.894 469.276 267.478ZM478.558 267.478C478.558 267.038 478.391 266.698 478.057 266.458C477.729 266.212 477.151 266.001 476.325 265.825C475.505 265.649 474.852 265.438 474.365 265.192C473.885 264.946 473.527 264.653 473.293 264.313C473.064 263.974 472.95 263.569 472.95 263.101C472.95 262.321 473.278 261.662 473.935 261.123C474.597 260.584 475.44 260.314 476.466 260.314C477.544 260.314 478.417 260.593 479.085 261.149C479.759 261.706 480.096 262.418 480.096 263.285H478.461C478.461 262.84 478.271 262.456 477.89 262.134C477.515 261.812 477.04 261.65 476.466 261.65C475.874 261.65 475.411 261.779 475.077 262.037C474.743 262.295 474.576 262.632 474.576 263.048C474.576 263.44 474.731 263.736 475.042 263.936C475.353 264.135 475.912 264.325 476.721 264.507C477.535 264.688 478.194 264.905 478.698 265.157C479.202 265.409 479.574 265.714 479.814 266.071C480.061 266.423 480.184 266.854 480.184 267.363C480.184 268.213 479.844 268.896 479.164 269.411C478.484 269.921 477.603 270.176 476.519 270.176C475.757 270.176 475.083 270.041 474.497 269.771C473.911 269.502 473.451 269.127 473.117 268.646C472.789 268.16 472.625 267.636 472.625 267.073H474.251C474.28 267.618 474.497 268.052 474.901 268.374C475.312 268.69 475.851 268.849 476.519 268.849C477.134 268.849 477.626 268.726 477.995 268.479C478.37 268.228 478.558 267.894 478.558 267.478Z" fill="black"/>
<path d="M449.707 141.293C449.317 140.902 448.683 140.902 448.293 141.293L441.929 147.657C441.538 148.047 441.538 148.681 441.929 149.071C442.319 149.462 442.953 149.462 443.343 149.071L449 143.414L454.657 149.071C455.047 149.462 455.681 149.462 456.071 149.071C456.462 148.681 456.462 148.047 456.071 147.657L449.707 141.293ZM450 184V142H448V184H450Z" fill="black"/>
<path d="M425.006 67.0146C425.006 68.2686 424.795 69.3643 424.373 70.3018C423.951 71.2334 423.354 71.9453 422.58 72.4375C421.807 72.9297 420.904 73.1758 419.873 73.1758C418.865 73.1758 417.972 72.9297 417.192 72.4375C416.413 71.9395 415.807 71.2334 415.373 70.3193C414.945 69.3994 414.726 68.3359 414.714 67.1289V66.2061C414.714 64.9756 414.928 63.8887 415.355 62.9453C415.783 62.002 416.387 61.2812 417.166 60.7832C417.951 60.2793 418.848 60.0273 419.855 60.0273C420.881 60.0273 421.783 60.2764 422.562 60.7744C423.348 61.2666 423.951 61.9844 424.373 62.9277C424.795 63.8652 425.006 64.958 425.006 66.2061V67.0146ZM423.327 66.1885C423.327 64.6709 423.022 63.5078 422.413 62.6992C421.804 61.8848 420.951 61.4775 419.855 61.4775C418.789 61.4775 417.948 61.8848 417.333 62.6992C416.724 63.5078 416.41 64.6328 416.393 66.0742V67.0146C416.393 68.4854 416.7 69.6426 417.315 70.4863C417.937 71.3242 418.789 71.7432 419.873 71.7432C420.963 71.7432 421.807 71.3477 422.404 70.5566C423.002 69.7598 423.31 68.6201 423.327 67.1377V66.1885ZM430.42 70.7939L432.775 63.4902H434.437L431.026 73H429.787L426.342 63.4902H428.003L430.42 70.7939ZM439.824 73.1758C438.535 73.1758 437.486 72.7539 436.678 71.9102C435.869 71.0605 435.465 69.9268 435.465 68.5088V68.21C435.465 67.2666 435.644 66.4258 436.001 65.6875C436.364 64.9434 436.868 64.3633 437.513 63.9473C438.163 63.5254 438.866 63.3145 439.622 63.3145C440.858 63.3145 441.819 63.7217 442.505 64.5361C443.19 65.3506 443.533 66.5166 443.533 68.0342V68.7109H437.091C437.114 69.6484 437.387 70.4072 437.908 70.9873C438.436 71.5615 439.104 71.8486 439.912 71.8486C440.486 71.8486 440.973 71.7314 441.371 71.4971C441.77 71.2627 442.118 70.9521 442.417 70.5654L443.41 71.3389C442.613 72.5635 441.418 73.1758 439.824 73.1758ZM439.622 64.6504C438.966 64.6504 438.415 64.8906 437.97 65.3711C437.524 65.8457 437.249 66.5137 437.144 67.375H441.907V67.252C441.86 66.4258 441.638 65.7871 441.239 65.3359C440.841 64.8789 440.302 64.6504 439.622 64.6504ZM450.02 64.9492C449.773 64.9082 449.507 64.8877 449.22 64.8877C448.153 64.8877 447.43 65.3418 447.049 66.25V73H445.423V63.4902H447.005L447.031 64.5889C447.564 63.7393 448.32 63.3145 449.299 63.3145C449.615 63.3145 449.855 63.3555 450.02 63.4375V64.9492ZM457.464 60.8799C456.737 60.7627 456.151 60.7041 455.706 60.7041C454.534 60.7041 453.948 61.3193 453.948 62.5498V63.4902H455.979V64.7471H453.948V73H452.322V64.7471H450.819V63.4902H452.322V62.4531C452.328 61.4395 452.612 60.6631 453.175 60.124C453.737 59.585 454.537 59.3154 455.574 59.3154C456.166 59.3154 457.338 59.4941 459.09 59.8516V73H457.464V60.8799ZM461.322 68.1572C461.322 67.2256 461.504 66.3877 461.867 65.6436C462.236 64.8994 462.746 64.3252 463.396 63.9209C464.053 63.5166 464.8 63.3145 465.638 63.3145C466.933 63.3145 467.979 63.7627 468.775 64.6592C469.578 65.5557 469.979 66.748 469.979 68.2363V68.3506C469.979 69.2764 469.801 70.1084 469.443 70.8467C469.092 71.5791 468.585 72.1504 467.923 72.5605C467.267 72.9707 466.511 73.1758 465.655 73.1758C464.366 73.1758 463.32 72.7275 462.518 71.8311C461.721 70.9346 461.322 69.748 461.322 68.2715V68.1572ZM462.957 68.3506C462.957 69.4053 463.2 70.252 463.687 70.8906C464.179 71.5293 464.835 71.8486 465.655 71.8486C466.481 71.8486 467.138 71.5264 467.624 70.8818C468.11 70.2314 468.354 69.3232 468.354 68.1572C468.354 67.1143 468.104 66.2705 467.606 65.626C467.114 64.9756 466.458 64.6504 465.638 64.6504C464.835 64.6504 464.188 64.9697 463.695 65.6084C463.203 66.2471 462.957 67.1611 462.957 68.3506ZM480.438 70.7588L482.267 63.4902H483.893L481.124 73H479.806L477.494 65.793L475.244 73H473.926L471.166 63.4902H472.783L474.655 70.6094L476.87 63.4902H478.18L480.438 70.7588Z" fill="black"/>
<path d="M173.539 73V60.2031H177.723C179.111 60.2031 180.154 60.4902 180.852 61.0645C181.555 61.6387 181.906 62.4883 181.906 63.6133C181.906 64.2109 181.736 64.7412 181.396 65.2041C181.057 65.6611 180.594 66.0156 180.008 66.2676C180.699 66.4609 181.244 66.8301 181.643 67.375C182.047 67.9141 182.249 68.5586 182.249 69.3086C182.249 70.457 181.877 71.3594 181.133 72.0156C180.389 72.6719 179.337 73 177.978 73H173.539ZM175.227 67.0146V71.6201H178.013C178.798 71.6201 179.416 71.418 179.867 71.0137C180.324 70.6035 180.553 70.041 180.553 69.3262C180.553 67.7852 179.715 67.0146 178.039 67.0146H175.227ZM175.227 65.6611H177.775C178.514 65.6611 179.103 65.4766 179.542 65.1074C179.987 64.7383 180.21 64.2373 180.21 63.6045C180.21 62.9014 180.005 62.3916 179.595 62.0752C179.185 61.7529 178.561 61.5918 177.723 61.5918H175.227V65.6611ZM190.37 72.0596C189.737 72.8037 188.809 73.1758 187.584 73.1758C186.57 73.1758 185.797 72.8828 185.264 72.2969C184.736 71.7051 184.47 70.832 184.464 69.6777V63.4902H186.09V69.6338C186.09 71.0752 186.676 71.7959 187.848 71.7959C189.09 71.7959 189.916 71.333 190.326 70.4072V63.4902H191.952V73H190.405L190.37 72.0596ZM195.23 73V64.7471H193.728V63.4902H195.23V62.5146C195.23 61.4951 195.503 60.707 196.048 60.1504C196.593 59.5938 197.363 59.3154 198.359 59.3154C198.734 59.3154 199.106 59.3652 199.476 59.4648L199.388 60.7832C199.112 60.7305 198.819 60.7041 198.509 60.7041C197.981 60.7041 197.574 60.8594 197.287 61.1699C197 61.4746 196.856 61.9141 196.856 62.4883V63.4902H198.887V64.7471H196.856V73H195.23ZM201.488 73V64.7471H199.985V63.4902H201.488V62.5146C201.488 61.4951 201.761 60.707 202.306 60.1504C202.851 59.5938 203.621 59.3154 204.617 59.3154C204.992 59.3154 205.364 59.3652 205.733 59.4648L205.646 60.7832C205.37 60.7305 205.077 60.7041 204.767 60.7041C204.239 60.7041 203.832 60.8594 203.545 61.1699C203.258 61.4746 203.114 61.9141 203.114 62.4883V63.4902H205.145V64.7471H203.114V73H201.488ZM210.682 73.1758C209.393 73.1758 208.344 72.7539 207.535 71.9102C206.727 71.0605 206.322 69.9268 206.322 68.5088V68.21C206.322 67.2666 206.501 66.4258 206.858 65.6875C207.222 64.9434 207.726 64.3633 208.37 63.9473C209.021 63.5254 209.724 63.3145 210.479 63.3145C211.716 63.3145 212.677 63.7217 213.362 64.5361C214.048 65.3506 214.391 66.5166 214.391 68.0342V68.7109H207.948C207.972 69.6484 208.244 70.4072 208.766 70.9873C209.293 71.5615 209.961 71.8486 210.77 71.8486C211.344 71.8486 211.83 71.7314 212.229 71.4971C212.627 71.2627 212.976 70.9521 213.274 70.5654L214.268 71.3389C213.471 72.5635 212.275 73.1758 210.682 73.1758ZM210.479 64.6504C209.823 64.6504 209.272 64.8906 208.827 65.3711C208.382 65.8457 208.106 66.5137 208.001 67.375H212.765V67.252C212.718 66.4258 212.495 65.7871 212.097 65.3359C211.698 64.8789 211.159 64.6504 210.479 64.6504ZM220.877 64.9492C220.631 64.9082 220.364 64.8877 220.077 64.8877C219.011 64.8877 218.287 65.3418 217.906 66.25V73H216.28V63.4902H217.862L217.889 64.5889C218.422 63.7393 219.178 63.3145 220.156 63.3145C220.473 63.3145 220.713 63.3555 220.877 63.4375V64.9492ZM226.783 67.8057C226.783 66.4814 226.959 65.21 227.311 63.9912C227.668 62.7725 228.198 61.665 228.901 60.6689C229.604 59.6729 230.334 58.9697 231.09 58.5596L231.424 59.6318C230.568 60.2881 229.865 61.29 229.314 62.6377C228.77 63.9854 228.471 65.4941 228.418 67.1641L228.409 67.9111C228.409 70.1729 228.822 72.1357 229.648 73.7998C230.146 74.7959 230.738 75.5752 231.424 76.1377L231.09 77.1309C230.311 76.6973 229.566 75.9707 228.857 74.9512C227.475 72.959 226.783 70.5771 226.783 67.8057ZM238.174 73H236.539V62.1631L233.261 63.3672V61.8906L237.919 60.1416H238.174V73ZM250.962 67.542C250.962 69.4463 250.637 70.8613 249.986 71.7871C249.336 72.7129 248.319 73.1758 246.937 73.1758C245.571 73.1758 244.561 72.7246 243.904 71.8223C243.248 70.9141 242.908 69.5605 242.885 67.7617V65.5908C242.885 63.71 243.21 62.3125 243.86 61.3984C244.511 60.4844 245.53 60.0273 246.919 60.0273C248.296 60.0273 249.31 60.4697 249.96 61.3545C250.61 62.2334 250.944 63.5928 250.962 65.4326V67.542ZM249.336 65.3184C249.336 63.9414 249.143 62.9395 248.756 62.3125C248.369 61.6797 247.757 61.3633 246.919 61.3633C246.087 61.3633 245.48 61.6768 245.1 62.3037C244.719 62.9307 244.522 63.8945 244.511 65.1953V67.7969C244.511 69.1797 244.71 70.2021 245.108 70.8643C245.513 71.5205 246.122 71.8486 246.937 71.8486C247.739 71.8486 248.334 71.5381 248.721 70.917C249.113 70.2959 249.318 69.3174 249.336 67.9814V65.3184ZM265.728 68.3506C265.728 69.8037 265.394 70.9727 264.726 71.8574C264.058 72.7363 263.161 73.1758 262.036 73.1758C260.835 73.1758 259.906 72.751 259.25 71.9014L259.171 73H257.677V59.5H259.303V64.5361C259.959 63.7217 260.864 63.3145 262.019 63.3145C263.173 63.3145 264.078 63.751 264.734 64.624C265.396 65.4971 265.728 66.6924 265.728 68.21V68.3506ZM264.102 68.166C264.102 67.0586 263.888 66.2031 263.46 65.5996C263.032 64.9961 262.417 64.6943 261.614 64.6943C260.542 64.6943 259.771 65.1924 259.303 66.1885V70.3018C259.801 71.2979 260.577 71.7959 261.632 71.7959C262.411 71.7959 263.018 71.4941 263.451 70.8906C263.885 70.2871 264.102 69.3789 264.102 68.166ZM270.79 70.6182L273.005 63.4902H274.745L270.922 74.4678C270.33 76.0498 269.39 76.8408 268.101 76.8408L267.793 76.8145L267.187 76.7002V75.3818L267.626 75.417C268.177 75.417 268.604 75.3057 268.909 75.083C269.22 74.8604 269.475 74.4531 269.674 73.8613L270.034 72.8945L266.642 63.4902H268.417L270.79 70.6182ZM278.41 61.1875V63.4902H280.186V64.7471H278.41V70.6445C278.41 71.0254 278.489 71.3125 278.647 71.5059C278.806 71.6934 279.075 71.7871 279.456 71.7871C279.644 71.7871 279.901 71.752 280.229 71.6816V73C279.802 73.1172 279.386 73.1758 278.981 73.1758C278.255 73.1758 277.707 72.9561 277.338 72.5166C276.969 72.0771 276.784 71.4531 276.784 70.6445V64.7471H275.053V63.4902H276.784V61.1875H278.41ZM286.039 73.1758C284.75 73.1758 283.701 72.7539 282.893 71.9102C282.084 71.0605 281.68 69.9268 281.68 68.5088V68.21C281.68 67.2666 281.858 66.4258 282.216 65.6875C282.579 64.9434 283.083 64.3633 283.728 63.9473C284.378 63.5254 285.081 63.3145 285.837 63.3145C287.073 63.3145 288.034 63.7217 288.72 64.5361C289.405 65.3506 289.748 66.5166 289.748 68.0342V68.7109H283.306C283.329 69.6484 283.602 70.4072 284.123 70.9873C284.65 71.5615 285.318 71.8486 286.127 71.8486C286.701 71.8486 287.188 71.7314 287.586 71.4971C287.984 71.2627 288.333 70.9521 288.632 70.5654L289.625 71.3389C288.828 72.5635 287.633 73.1758 286.039 73.1758ZM285.837 64.6504C285.181 64.6504 284.63 64.8906 284.185 65.3711C283.739 65.8457 283.464 66.5137 283.358 67.375H288.122V67.252C288.075 66.4258 287.853 65.7871 287.454 65.3359C287.056 64.8789 286.517 64.6504 285.837 64.6504ZM297.175 70.4775C297.175 70.0381 297.008 69.6982 296.674 69.458C296.346 69.2119 295.769 69.001 294.942 68.8252C294.122 68.6494 293.469 68.4385 292.982 68.1924C292.502 67.9463 292.145 67.6533 291.91 67.3135C291.682 66.9736 291.567 66.5693 291.567 66.1006C291.567 65.3213 291.896 64.6621 292.552 64.123C293.214 63.584 294.058 63.3145 295.083 63.3145C296.161 63.3145 297.034 63.5928 297.702 64.1494C298.376 64.7061 298.713 65.418 298.713 66.2852H297.078C297.078 65.8398 296.888 65.4561 296.507 65.1338C296.132 64.8115 295.657 64.6504 295.083 64.6504C294.491 64.6504 294.028 64.7793 293.694 65.0371C293.36 65.2949 293.193 65.6318 293.193 66.0479C293.193 66.4404 293.349 66.7363 293.659 66.9355C293.97 67.1348 294.529 67.3252 295.338 67.5068C296.152 67.6885 296.812 67.9053 297.315 68.1572C297.819 68.4092 298.191 68.7139 298.432 69.0713C298.678 69.4229 298.801 69.8535 298.801 70.3633C298.801 71.2129 298.461 71.8955 297.781 72.4111C297.102 72.9209 296.22 73.1758 295.136 73.1758C294.374 73.1758 293.7 73.041 293.114 72.7715C292.528 72.502 292.068 72.127 291.734 71.6465C291.406 71.1602 291.242 70.6357 291.242 70.0732H292.868C292.897 70.6182 293.114 71.0518 293.519 71.374C293.929 71.6904 294.468 71.8486 295.136 71.8486C295.751 71.8486 296.243 71.7256 296.612 71.4795C296.987 71.2275 297.175 70.8936 297.175 70.4775ZM304.672 67.8936C304.672 69.2002 304.499 70.4541 304.153 71.6553C303.813 72.8506 303.289 73.9551 302.58 74.9688C301.877 75.9824 301.139 76.7031 300.365 77.1309L300.022 76.1377C300.925 75.4463 301.648 74.374 302.193 72.9209C302.744 71.4619 303.025 69.8447 303.037 68.0693V67.7881C303.037 66.5576 302.908 65.415 302.65 64.3604C302.393 63.2998 302.032 62.3506 301.569 61.5127C301.112 60.6748 300.597 60.0215 300.022 59.5527L300.365 58.5596C301.139 58.9873 301.874 59.7021 302.571 60.7041C303.274 61.7061 303.799 62.8105 304.145 64.0176C304.496 65.2246 304.672 66.5166 304.672 67.8936Z" fill="black"/>
<path d="M143.791 153.592H139.678V165H137.999V153.592H133.895V152.203H143.791V153.592ZM144.125 160.157C144.125 159.226 144.307 158.388 144.67 157.644C145.039 156.899 145.549 156.325 146.199 155.921C146.855 155.517 147.603 155.314 148.44 155.314C149.735 155.314 150.781 155.763 151.578 156.659C152.381 157.556 152.782 158.748 152.782 160.236V160.351C152.782 161.276 152.604 162.108 152.246 162.847C151.895 163.579 151.388 164.15 150.726 164.561C150.069 164.971 149.313 165.176 148.458 165.176C147.169 165.176 146.123 164.728 145.32 163.831C144.523 162.935 144.125 161.748 144.125 160.271V160.157ZM145.76 160.351C145.76 161.405 146.003 162.252 146.489 162.891C146.981 163.529 147.638 163.849 148.458 163.849C149.284 163.849 149.94 163.526 150.427 162.882C150.913 162.231 151.156 161.323 151.156 160.157C151.156 159.114 150.907 158.271 150.409 157.626C149.917 156.976 149.261 156.65 148.44 156.65C147.638 156.65 146.99 156.97 146.498 157.608C146.006 158.247 145.76 159.161 145.76 160.351ZM157.027 153.188V155.49H158.803V156.747H157.027V162.645C157.027 163.025 157.106 163.312 157.265 163.506C157.423 163.693 157.692 163.787 158.073 163.787C158.261 163.787 158.519 163.752 158.847 163.682V165C158.419 165.117 158.003 165.176 157.599 165.176C156.872 165.176 156.324 164.956 155.955 164.517C155.586 164.077 155.401 163.453 155.401 162.645V156.747H153.67V155.49H155.401V153.188H157.027ZM166.581 165C166.487 164.812 166.411 164.479 166.353 163.998C165.597 164.783 164.694 165.176 163.646 165.176C162.708 165.176 161.938 164.912 161.334 164.385C160.736 163.852 160.438 163.178 160.438 162.363C160.438 161.373 160.812 160.605 161.562 160.061C162.318 159.51 163.379 159.234 164.744 159.234H166.326V158.487C166.326 157.919 166.156 157.468 165.816 157.134C165.477 156.794 164.976 156.624 164.313 156.624C163.733 156.624 163.247 156.771 162.854 157.063C162.462 157.356 162.266 157.711 162.266 158.127H160.631C160.631 157.652 160.798 157.195 161.132 156.756C161.472 156.311 161.929 155.959 162.503 155.701C163.083 155.443 163.719 155.314 164.41 155.314C165.506 155.314 166.364 155.59 166.985 156.141C167.606 156.686 167.929 157.438 167.952 158.399V162.776C167.952 163.649 168.063 164.344 168.286 164.859V165H166.581ZM163.883 163.761C164.393 163.761 164.876 163.629 165.333 163.365C165.79 163.102 166.121 162.759 166.326 162.337V160.386H165.052C163.06 160.386 162.063 160.969 162.063 162.135C162.063 162.645 162.233 163.043 162.573 163.33C162.913 163.617 163.35 163.761 163.883 163.761ZM172.268 165H170.642V151.5H172.268V165ZM181.109 165H179.483V155.49H181.109V165ZM179.352 152.968C179.352 152.704 179.431 152.481 179.589 152.3C179.753 152.118 179.993 152.027 180.31 152.027C180.626 152.027 180.866 152.118 181.03 152.3C181.194 152.481 181.276 152.704 181.276 152.968C181.276 153.231 181.194 153.451 181.03 153.627C180.866 153.803 180.626 153.891 180.31 153.891C179.993 153.891 179.753 153.803 179.589 153.627C179.431 153.451 179.352 153.231 179.352 152.968ZM185.258 155.49L185.311 156.686C186.037 155.771 186.986 155.314 188.158 155.314C190.168 155.314 191.182 156.448 191.199 158.716V165H189.573V158.707C189.567 158.021 189.409 157.515 189.099 157.187C188.794 156.858 188.316 156.694 187.666 156.694C187.139 156.694 186.676 156.835 186.277 157.116C185.879 157.397 185.568 157.767 185.346 158.224V165H183.72V155.49H185.258ZM201.685 160.351C201.685 161.798 201.354 162.964 200.691 163.849C200.029 164.733 199.133 165.176 198.002 165.176C196.848 165.176 195.939 164.81 195.277 164.077V168.656H193.651V155.49H195.137L195.216 156.545C195.878 155.725 196.798 155.314 197.976 155.314C199.118 155.314 200.021 155.745 200.683 156.606C201.351 157.468 201.685 158.666 201.685 160.201V160.351ZM200.059 160.166C200.059 159.094 199.83 158.247 199.373 157.626C198.916 157.005 198.289 156.694 197.492 156.694C196.508 156.694 195.77 157.131 195.277 158.004V162.548C195.764 163.415 196.508 163.849 197.51 163.849C198.289 163.849 198.907 163.541 199.364 162.926C199.827 162.305 200.059 161.385 200.059 160.166ZM209.63 164.06C208.997 164.804 208.068 165.176 206.844 165.176C205.83 165.176 205.057 164.883 204.523 164.297C203.996 163.705 203.729 162.832 203.724 161.678V155.49H205.35V161.634C205.35 163.075 205.936 163.796 207.107 163.796C208.35 163.796 209.176 163.333 209.586 162.407V155.49H211.212V165H209.665L209.63 164.06ZM215.896 153.188V155.49H217.672V156.747H215.896V162.645C215.896 163.025 215.976 163.312 216.134 163.506C216.292 163.693 216.562 163.787 216.942 163.787C217.13 163.787 217.388 163.752 217.716 163.682V165C217.288 165.117 216.872 165.176 216.468 165.176C215.741 165.176 215.193 164.956 214.824 164.517C214.455 164.077 214.271 163.453 214.271 162.645V156.747H212.539V155.49H214.271V153.188H215.896ZM229.581 162.478C229.581 162.038 229.414 161.698 229.08 161.458C228.752 161.212 228.175 161.001 227.349 160.825C226.528 160.649 225.875 160.438 225.389 160.192C224.908 159.946 224.551 159.653 224.316 159.313C224.088 158.974 223.974 158.569 223.974 158.101C223.974 157.321 224.302 156.662 224.958 156.123C225.62 155.584 226.464 155.314 227.489 155.314C228.567 155.314 229.44 155.593 230.108 156.149C230.782 156.706 231.119 157.418 231.119 158.285H229.484C229.484 157.84 229.294 157.456 228.913 157.134C228.538 156.812 228.063 156.65 227.489 156.65C226.897 156.65 226.435 156.779 226.101 157.037C225.767 157.295 225.6 157.632 225.6 158.048C225.6 158.44 225.755 158.736 226.065 158.936C226.376 159.135 226.936 159.325 227.744 159.507C228.559 159.688 229.218 159.905 229.722 160.157C230.226 160.409 230.598 160.714 230.838 161.071C231.084 161.423 231.207 161.854 231.207 162.363C231.207 163.213 230.867 163.896 230.188 164.411C229.508 164.921 228.626 165.176 227.542 165.176C226.78 165.176 226.106 165.041 225.521 164.771C224.935 164.502 224.475 164.127 224.141 163.646C223.812 163.16 223.648 162.636 223.648 162.073H225.274C225.304 162.618 225.521 163.052 225.925 163.374C226.335 163.69 226.874 163.849 227.542 163.849C228.157 163.849 228.649 163.726 229.019 163.479C229.394 163.228 229.581 162.894 229.581 162.478ZM235.092 165H233.466V155.49H235.092V165ZM233.334 152.968C233.334 152.704 233.413 152.481 233.571 152.3C233.735 152.118 233.976 152.027 234.292 152.027C234.608 152.027 234.849 152.118 235.013 152.3C235.177 152.481 235.259 152.704 235.259 152.968C235.259 153.231 235.177 153.451 235.013 153.627C234.849 153.803 234.608 153.891 234.292 153.891C233.976 153.891 233.735 153.803 233.571 153.627C233.413 153.451 233.334 153.231 233.334 152.968ZM239.231 163.673H244.795V165H237.245V163.805L242.492 156.835H237.324V155.49H244.531V156.642L239.231 163.673ZM250.438 165.176C249.148 165.176 248.1 164.754 247.291 163.91C246.482 163.061 246.078 161.927 246.078 160.509V160.21C246.078 159.267 246.257 158.426 246.614 157.688C246.978 156.943 247.481 156.363 248.126 155.947C248.776 155.525 249.479 155.314 250.235 155.314C251.472 155.314 252.433 155.722 253.118 156.536C253.804 157.351 254.146 158.517 254.146 160.034V160.711H247.704C247.728 161.648 248 162.407 248.521 162.987C249.049 163.562 249.717 163.849 250.525 163.849C251.1 163.849 251.586 163.731 251.984 163.497C252.383 163.263 252.731 162.952 253.03 162.565L254.023 163.339C253.227 164.563 252.031 165.176 250.438 165.176ZM250.235 156.65C249.579 156.65 249.028 156.891 248.583 157.371C248.138 157.846 247.862 158.514 247.757 159.375H252.521V159.252C252.474 158.426 252.251 157.787 251.853 157.336C251.454 156.879 250.915 156.65 250.235 156.65ZM267.937 157.846H260.606V156.431H267.937V157.846ZM267.937 161.493H260.606V160.087H267.937V161.493ZM280.021 165H278.387V154.163L275.108 155.367V153.891L279.767 152.142H280.021V165ZM291.649 160.702H293.425V162.029H291.649V165H290.015V162.029H284.188V161.071L289.918 152.203H291.649V160.702ZM286.033 160.702H290.015V154.427L289.821 154.778L286.033 160.702ZM307.575 160.351C307.575 161.804 307.241 162.973 306.573 163.857C305.905 164.736 305.009 165.176 303.884 165.176C302.683 165.176 301.754 164.751 301.098 163.901L301.019 165H299.524V151.5H301.15V156.536C301.807 155.722 302.712 155.314 303.866 155.314C305.021 155.314 305.926 155.751 306.582 156.624C307.244 157.497 307.575 158.692 307.575 160.21V160.351ZM305.949 160.166C305.949 159.059 305.735 158.203 305.308 157.6C304.88 156.996 304.265 156.694 303.462 156.694C302.39 156.694 301.619 157.192 301.15 158.188V162.302C301.648 163.298 302.425 163.796 303.479 163.796C304.259 163.796 304.865 163.494 305.299 162.891C305.732 162.287 305.949 161.379 305.949 160.166ZM312.638 162.618L314.853 155.49H316.593L312.77 166.468C312.178 168.05 311.237 168.841 309.948 168.841L309.641 168.814L309.034 168.7V167.382L309.474 167.417C310.024 167.417 310.452 167.306 310.757 167.083C311.067 166.86 311.322 166.453 311.521 165.861L311.882 164.895L308.489 155.49H310.265L312.638 162.618ZM320.258 153.188V155.49H322.033V156.747H320.258V162.645C320.258 163.025 320.337 163.312 320.495 163.506C320.653 163.693 320.923 163.787 321.304 163.787C321.491 163.787 321.749 163.752 322.077 163.682V165C321.649 165.117 321.233 165.176 320.829 165.176C320.103 165.176 319.555 164.956 319.186 164.517C318.816 164.077 318.632 163.453 318.632 162.645V156.747H316.9V155.49H318.632V153.188H320.258ZM327.887 165.176C326.598 165.176 325.549 164.754 324.74 163.91C323.932 163.061 323.527 161.927 323.527 160.509V160.21C323.527 159.267 323.706 158.426 324.063 157.688C324.427 156.943 324.931 156.363 325.575 155.947C326.226 155.525 326.929 155.314 327.685 155.314C328.921 155.314 329.882 155.722 330.567 156.536C331.253 157.351 331.596 158.517 331.596 160.034V160.711H325.153C325.177 161.648 325.449 162.407 325.971 162.987C326.498 163.562 327.166 163.849 327.975 163.849C328.549 163.849 329.035 163.731 329.434 163.497C329.832 163.263 330.181 162.952 330.479 162.565L331.473 163.339C330.676 164.563 329.48 165.176 327.887 165.176ZM327.685 156.65C327.028 156.65 326.478 156.891 326.032 157.371C325.587 157.846 325.312 158.514 325.206 159.375H329.97V159.252C329.923 158.426 329.7 157.787 329.302 157.336C328.903 156.879 328.364 156.65 327.685 156.65ZM339.022 162.478C339.022 162.038 338.855 161.698 338.521 161.458C338.193 161.212 337.616 161.001 336.79 160.825C335.97 160.649 335.316 160.438 334.83 160.192C334.35 159.946 333.992 159.653 333.758 159.313C333.529 158.974 333.415 158.569 333.415 158.101C333.415 157.321 333.743 156.662 334.399 156.123C335.062 155.584 335.905 155.314 336.931 155.314C338.009 155.314 338.882 155.593 339.55 156.149C340.224 156.706 340.561 157.418 340.561 158.285H338.926C338.926 157.84 338.735 157.456 338.354 157.134C337.979 156.812 337.505 156.65 336.931 156.65C336.339 156.65 335.876 156.779 335.542 157.037C335.208 157.295 335.041 157.632 335.041 158.048C335.041 158.44 335.196 158.736 335.507 158.936C335.817 159.135 336.377 159.325 337.186 159.507C338 159.688 338.659 159.905 339.163 160.157C339.667 160.409 340.039 160.714 340.279 161.071C340.525 161.423 340.648 161.854 340.648 162.363C340.648 163.213 340.309 163.896 339.629 164.411C338.949 164.921 338.067 165.176 336.983 165.176C336.222 165.176 335.548 165.041 334.962 164.771C334.376 164.502 333.916 164.127 333.582 163.646C333.254 163.16 333.09 162.636 333.09 162.073H334.716C334.745 162.618 334.962 163.052 335.366 163.374C335.776 163.69 336.315 163.849 336.983 163.849C337.599 163.849 338.091 163.726 338.46 163.479C338.835 163.228 339.022 162.894 339.022 162.478Z" fill="black"/>
<path d="M99.8672 108.49L99.9111 109.545C100.608 108.725 101.549 108.314 102.732 108.314C104.062 108.314 104.968 108.824 105.448 109.844C105.765 109.387 106.175 109.018 106.679 108.736C107.188 108.455 107.789 108.314 108.48 108.314C110.566 108.314 111.627 109.419 111.662 111.628V118H110.036V111.725C110.036 111.045 109.881 110.538 109.57 110.204C109.26 109.864 108.738 109.694 108.006 109.694C107.402 109.694 106.901 109.876 106.503 110.239C106.104 110.597 105.873 111.08 105.809 111.689V118H104.174V111.769C104.174 110.386 103.497 109.694 102.144 109.694C101.077 109.694 100.348 110.148 99.9551 111.057V118H98.3291V108.49H99.8672Z" fill="black"/>
<path d="M280.167 113.157C280.167 112.226 280.349 111.388 280.712 110.644C281.081 109.899 281.591 109.325 282.241 108.921C282.897 108.517 283.645 108.314 284.482 108.314C285.777 108.314 286.823 108.763 287.62 109.659C288.423 110.556 288.824 111.748 288.824 113.236V113.351C288.824 114.276 288.646 115.108 288.288 115.847C287.937 116.579 287.43 117.15 286.768 117.561C286.111 117.971 285.355 118.176 284.5 118.176C283.211 118.176 282.165 117.728 281.362 116.831C280.565 115.935 280.167 114.748 280.167 113.271V113.157ZM281.802 113.351C281.802 114.405 282.045 115.252 282.531 115.891C283.023 116.529 283.68 116.849 284.5 116.849C285.326 116.849 285.982 116.526 286.469 115.882C286.955 115.231 287.198 114.323 287.198 113.157C287.198 112.114 286.949 111.271 286.451 110.626C285.959 109.976 285.303 109.65 284.482 109.65C283.68 109.65 283.032 109.97 282.54 110.608C282.048 111.247 281.802 112.161 281.802 113.351Z" fill="black"/>
<path d="M317.136 117.06C316.503 117.804 315.574 118.176 314.35 118.176C313.336 118.176 312.562 117.883 312.029 117.297C311.502 116.705 311.235 115.832 311.229 114.678V108.49H312.855V114.634C312.855 116.075 313.441 116.796 314.613 116.796C315.855 116.796 316.682 116.333 317.092 115.407V108.49H318.718V118H317.171L317.136 117.06Z" fill="black"/>
<path d="M346.127 115.478C346.127 115.038 345.96 114.698 345.626 114.458C345.298 114.212 344.721 114.001 343.895 113.825C343.074 113.649 342.421 113.438 341.935 113.192C341.454 112.946 341.097 112.653 340.862 112.313C340.634 111.974 340.52 111.569 340.52 111.101C340.52 110.321 340.848 109.662 341.504 109.123C342.166 108.584 343.01 108.314 344.035 108.314C345.113 108.314 345.986 108.593 346.654 109.149C347.328 109.706 347.665 110.418 347.665 111.285H346.03C346.03 110.84 345.84 110.456 345.459 110.134C345.084 109.812 344.609 109.65 344.035 109.65C343.443 109.65 342.98 109.779 342.646 110.037C342.312 110.295 342.146 110.632 342.146 111.048C342.146 111.44 342.301 111.736 342.611 111.936C342.922 112.135 343.481 112.325 344.29 112.507C345.104 112.688 345.764 112.905 346.268 113.157C346.771 113.409 347.144 113.714 347.384 114.071C347.63 114.423 347.753 114.854 347.753 115.363C347.753 116.213 347.413 116.896 346.733 117.411C346.054 117.921 345.172 118.176 344.088 118.176C343.326 118.176 342.652 118.041 342.066 117.771C341.48 117.502 341.021 117.127 340.687 116.646C340.358 116.16 340.194 115.636 340.194 115.073H341.82C341.85 115.618 342.066 116.052 342.471 116.374C342.881 116.69 343.42 116.849 344.088 116.849C344.703 116.849 345.195 116.726 345.564 116.479C345.939 116.228 346.127 115.894 346.127 115.478Z" fill="black"/>
<path d="M375.344 118H373.656V105.203H375.344V118Z" fill="black"/>
<path d="M401.803 108.49L401.855 109.686C402.582 108.771 403.531 108.314 404.703 108.314C406.713 108.314 407.727 109.448 407.744 111.716V118H406.118V111.707C406.112 111.021 405.954 110.515 405.644 110.187C405.339 109.858 404.861 109.694 404.211 109.694C403.684 109.694 403.221 109.835 402.822 110.116C402.424 110.397 402.113 110.767 401.891 111.224V118H400.265V108.49H401.803Z" fill="black"/>
<path d="M466.136 117.06C465.503 117.804 464.574 118.176 463.35 118.176C462.336 118.176 461.562 117.883 461.029 117.297C460.502 116.705 460.235 115.832 460.229 114.678V108.49H461.855V114.634C461.855 116.075 462.441 116.796 463.613 116.796C464.855 116.796 465.682 116.333 466.092 115.407V108.49H467.718V118H466.171L466.136 117.06Z" fill="black"/>
<path d="M494.492 106.188V108.49H496.268V109.747H494.492V115.645C494.492 116.025 494.571 116.312 494.729 116.506C494.888 116.693 495.157 116.787 495.538 116.787C495.726 116.787 495.983 116.752 496.312 116.682V118C495.884 118.117 495.468 118.176 495.063 118.176C494.337 118.176 493.789 117.956 493.42 117.517C493.051 117.077 492.866 116.453 492.866 115.645V109.747H491.135V108.49H492.866V106.188H494.492Z" fill="black"/>
<path d="M438.71 113.351C438.71 114.798 438.379 115.964 437.717 116.849C437.055 117.733 436.158 118.176 435.027 118.176C433.873 118.176 432.965 117.81 432.303 117.077V121.656H430.677V108.49H432.162L432.241 109.545C432.903 108.725 433.823 108.314 435.001 108.314C436.144 108.314 437.046 108.745 437.708 109.606C438.376 110.468 438.71 111.666 438.71 113.201V113.351ZM437.084 113.166C437.084 112.094 436.855 111.247 436.398 110.626C435.941 110.005 435.314 109.694 434.518 109.694C433.533 109.694 432.795 110.131 432.303 111.004V115.548C432.789 116.415 433.533 116.849 434.535 116.849C435.314 116.849 435.933 116.541 436.39 115.926C436.853 115.305 437.084 114.385 437.084 113.166Z" fill="black"/>
<path d="M136.206 118C136.112 117.812 136.036 117.479 135.978 116.998C135.222 117.783 134.319 118.176 133.271 118.176C132.333 118.176 131.562 117.912 130.959 117.385C130.361 116.852 130.062 116.178 130.062 115.363C130.062 114.373 130.438 113.605 131.188 113.061C131.943 112.51 133.004 112.234 134.369 112.234H135.951V111.487C135.951 110.919 135.781 110.468 135.441 110.134C135.102 109.794 134.601 109.624 133.938 109.624C133.358 109.624 132.872 109.771 132.479 110.063C132.087 110.356 131.891 110.711 131.891 111.127H130.256C130.256 110.652 130.423 110.195 130.757 109.756C131.097 109.311 131.554 108.959 132.128 108.701C132.708 108.443 133.344 108.314 134.035 108.314C135.131 108.314 135.989 108.59 136.61 109.141C137.231 109.686 137.554 110.438 137.577 111.399V115.776C137.577 116.649 137.688 117.344 137.911 117.859V118H136.206ZM133.508 116.761C134.018 116.761 134.501 116.629 134.958 116.365C135.415 116.102 135.746 115.759 135.951 115.337V113.386H134.677C132.685 113.386 131.688 113.969 131.688 115.135C131.688 115.645 131.858 116.043 132.198 116.33C132.538 116.617 132.975 116.761 133.508 116.761Z" fill="black"/>
<path d="M165.309 118H163.683V104.5H165.309V118Z" fill="black"/>
<path d="M195.309 118H193.683V108.49H195.309V118ZM193.551 105.968C193.551 105.704 193.63 105.481 193.788 105.3C193.952 105.118 194.192 105.027 194.509 105.027C194.825 105.027 195.065 105.118 195.229 105.3C195.394 105.481 195.476 105.704 195.476 105.968C195.476 106.231 195.394 106.451 195.229 106.627C195.065 106.803 194.825 106.891 194.509 106.891C194.192 106.891 193.952 106.803 193.788 106.627C193.63 106.451 193.551 106.231 193.551 105.968Z" fill="black"/>
<path d="M225.334 115.849C225.914 115.849 226.421 115.673 226.854 115.321C227.288 114.97 227.528 114.53 227.575 114.003H229.113C229.084 114.548 228.896 115.066 228.551 115.559C228.205 116.051 227.742 116.443 227.162 116.736C226.588 117.029 225.979 117.176 225.334 117.176C224.039 117.176 223.008 116.745 222.24 115.884C221.479 115.017 221.098 113.833 221.098 112.333V112.061C221.098 111.135 221.268 110.312 221.607 109.591C221.947 108.87 222.434 108.311 223.066 107.912C223.705 107.514 224.458 107.314 225.325 107.314C226.392 107.314 227.276 107.634 227.979 108.272C228.688 108.911 229.066 109.74 229.113 110.76H227.575C227.528 110.145 227.294 109.641 226.872 109.248C226.456 108.85 225.94 108.65 225.325 108.65C224.499 108.65 223.857 108.949 223.4 109.547C222.949 110.139 222.724 110.997 222.724 112.122V112.43C222.724 113.525 222.949 114.369 223.4 114.961C223.852 115.553 224.496 115.849 225.334 115.849Z" fill="black"/>
<path d="M254.309 118H252.683V108.49H254.309V118ZM252.551 105.968C252.551 105.704 252.63 105.481 252.788 105.3C252.952 105.118 253.192 105.027 253.509 105.027C253.825 105.027 254.065 105.118 254.229 105.3C254.394 105.481 254.476 105.704 254.476 105.968C254.476 106.231 254.394 106.451 254.229 106.627C254.065 106.803 253.825 106.891 253.509 106.891C253.192 106.891 252.952 106.803 252.788 106.627C252.63 106.451 252.551 106.231 252.551 105.968Z" fill="black"/>
</svg>
