<svg width="600" height="300" viewBox="0 0 600 300" fill="none" xmlns="http://www.w3.org/2000/svg">
<rect width="600" height="300" fill="white"/>
<path d="M152.815 101.097L152.042 99.4955C152.046 99.4349 152.049 99.374 152.049 99.3128C152.049 97.4971 150.161 95.8236 146.984 94.4837V95.5978C146.675 95.4749 146.352 95.3553 146.016 95.2396V94.7202C141.476 93.083 134.718 92.0441 127.168 92.0441C120.573 92.0441 114.58 92.8371 110.143 94.1294V95.9387H110.143V93.7488C105.598 95.1932 102.78 97.1999 102.78 99.4186C102.78 99.7683 102.85 100.113 102.986 100.451L102.523 101.275C102.523 101.275 102.152 101.756 102.805 102.771C103.381 103.667 106.267 107.171 107.79 109.006C108.444 109.947 108.888 110.526 108.927 110.47C108.988 110.382 108.52 108.615 107.221 106.6C106.614 105.518 105.89 104.084 105.456 103.025C106.669 103.793 113.798 107.382 128.338 107.368C143.199 107.353 149.804 102.701 150.529 102.068C150.276 103.086 149.41 105.145 148.72 106.593C147.586 108.663 147.175 110.466 147.228 110.556C147.261 110.612 147.648 110.015 148.219 109.048C149.547 107.155 152.063 103.543 152.566 102.623C153.136 101.579 152.815 101.097 152.815 101.097Z" fill="#A52B00"/>
<path d="M157.307 101.087L152.225 97.3434C152.177 97.1769 152.13 97.0103 152.08 96.845L153.75 94.4267C153.92 94.1807 153.954 93.861 153.844 93.5805C153.733 93.3013 153.491 93.1012 153.204 93.0522L150.381 92.5731C150.272 92.3499 150.157 92.1301 150.042 91.9121L151.228 89.197C151.35 88.9204 151.325 88.599 151.163 88.348C151.001 88.0958 150.728 87.9485 150.436 87.9599L147.572 88.064C147.423 87.8708 147.273 87.6795 147.119 87.4916L147.777 84.5814C147.844 84.286 147.76 83.9765 147.554 83.7619C147.349 83.548 147.052 83.4594 146.769 83.5288L143.979 84.2148C143.798 84.0551 143.614 83.8975 143.429 83.743L143.529 80.7554C143.54 80.453 143.399 80.1656 143.157 79.9977C142.915 79.8288 142.608 79.8035 142.343 79.9289L139.74 81.1665C139.53 81.0462 139.32 80.9271 139.106 80.8118L138.646 77.8678C138.6 77.5696 138.408 77.3162 138.139 77.2005C137.871 77.0841 137.564 77.1218 137.329 77.2989L135.008 79.0402C134.78 78.9643 134.55 78.8916 134.318 78.822L133.317 76.0301C133.216 75.7455 132.981 75.5365 132.695 75.4777C132.41 75.4195 132.117 75.5182 131.919 75.7391L129.965 77.9246C129.729 77.8975 129.493 77.8727 129.256 77.8521L127.748 75.3107C127.595 75.0533 127.325 74.8966 127.034 74.8966C126.744 74.8966 126.474 75.0533 126.322 75.3107L124.813 77.8521C124.576 77.8727 124.339 77.8975 124.103 77.9246L122.149 75.7391C121.951 75.5182 121.657 75.4195 121.373 75.4777C121.087 75.5373 120.852 75.7455 120.751 76.0301L119.75 78.822C119.518 78.8916 119.288 78.9648 119.059 79.0402L116.739 77.2989C116.503 77.1212 116.196 77.0836 115.928 77.2005C115.66 77.3162 115.467 77.5696 115.421 77.8678L114.961 80.8118C114.748 80.9271 114.537 81.0456 114.327 81.1665L111.724 79.9289C111.46 79.803 111.151 79.8288 110.91 79.9977C110.669 80.1656 110.527 80.453 110.538 80.7554L110.638 83.743C110.453 83.8975 110.269 84.0551 110.088 84.2148L107.298 83.5288C107.015 83.46 106.718 83.548 106.512 83.7619C106.306 83.9765 106.222 84.286 106.289 84.5814L106.946 87.4916C106.793 87.6802 106.643 87.8708 106.495 88.064L103.63 87.9599C103.341 87.9513 103.065 88.0958 102.903 88.348C102.741 88.599 102.717 88.9204 102.837 89.197L104.024 91.9121C103.909 92.1301 103.794 92.3499 103.684 92.5731L100.862 93.0522C100.575 93.1005 100.333 93.3005 100.221 93.5805C100.111 93.861 100.147 94.1807 100.316 94.4267L101.986 96.845C101.973 96.8877 101.961 96.9308 101.948 96.9736L97.2274 101.988C97.2274 101.988 96.5038 102.555 97.557 103.888C98.4858 105.063 103.255 109.723 105.773 112.164C106.837 113.403 107.566 114.171 107.642 114.104C107.762 113.999 107.131 111.744 105.036 109.099C103.421 106.725 101.325 103.074 101.816 102.653C101.816 102.653 102.375 101.944 103.497 101.433C103.538 101.466 103.455 101.4 103.497 101.433C103.497 101.433 127.172 112.354 149.132 101.617C151.641 101.167 153.159 102.511 153.159 102.511C153.683 102.815 152.327 106.569 151.212 109.054C149.695 111.875 149.472 114.077 149.601 114.153C149.682 114.202 150.234 113.362 151.021 112.026C152.964 109.319 156.635 104.16 157.307 102.906C158.069 101.485 157.307 101.087 157.307 101.087Z" fill="#F74C00"/>
<path d="M146.955 99.6866C146.955 99.6866 150.362 99.5286 154.836 94.981L155.47 93.5731C155.47 93.5731 148.526 86.6649 159.321 81.8964C159.321 81.8964 158.376 83.4409 158.653 89.4083C158.653 89.4083 161.908 88.2778 162.863 83.0066C162.863 83.0066 167.61 89.2663 157.706 95.1372C157.706 95.1372 153.059 102.586 146.509 101.873L146.955 99.6866Z" fill="#F74C00"/>
<path d="M131.525 95.3958C131.525 95.3958 133.89 92.8052 136.256 95.3958C136.256 95.3958 138.115 98.85 136.256 100.577C136.256 100.577 133.215 102.995 131.525 100.577C131.525 100.577 129.497 98.6772 131.525 95.3958Z" fill="black"/>
<path d="M134.264 96.3575C134.264 97.3661 133.67 98.184 132.936 98.184C132.203 98.184 131.609 97.3661 131.609 96.3575C131.609 95.3486 132.203 94.5308 132.936 94.5308C133.67 94.5308 134.264 95.3486 134.264 96.3575Z" fill="white"/>
<path d="M120.965 94.688C120.965 94.688 125.023 92.8912 126.131 96.9019C126.131 96.9019 127.291 101.577 122.798 101.84C122.798 101.84 117.069 100.737 120.965 94.688Z" fill="black"/>
<path d="M123.003 96.424C123.003 97.4641 122.39 98.3077 121.634 98.3077C120.878 98.3077 120.264 97.4641 120.264 96.424C120.264 95.3834 120.878 94.54 121.634 94.54C122.39 94.54 123.003 95.3834 123.003 96.424Z" fill="white"/>
<path d="M126.166 103.475L131.342 103.06C131.342 103.06 131.166 103.893 130.491 104.518C130.491 104.518 128.711 106.47 126.669 104.356C126.669 104.356 126.335 103.996 126.166 103.475Z" fill="black"/>
<path d="M105.442 98.6841C105.399 98.6841 105.358 98.6872 105.316 98.6906C103.635 98.3081 98.912 97.0773 97.6635 95.0802C97.6635 95.0802 104.02 87.8502 94.0854 83.2288L95.2421 91.2279C95.2421 91.2279 92.1797 89.1814 91.5188 84.7362C91.5188 84.7362 84.0613 90.1484 94.8102 95.3356C94.8102 95.3356 95.7851 98.9987 105.145 101.921L105.152 101.894C105.247 101.911 105.343 101.921 105.442 101.921C106.327 101.921 107.044 101.197 107.044 100.303C107.044 99.4087 106.327 98.6841 105.442 98.6841Z" fill="#F74C00"/>
<path d="M145.039 91.5187C148.525 87.0188 166.385 74.7387 152.11 79.1338C152.11 79.1338 149.764 79.7595 148.575 79.6552C145.531 79.3882 143.422 77.2221 142.093 74.962C140.42 72.1156 139.284 69.2632 136.643 67.0096C132.007 63.0545 122.22 62.9395 116.992 67.0096C114.234 69.1571 113.215 72.1156 111.542 74.962C110.213 77.2221 108.105 79.3882 105.06 79.6552C103.872 79.7595 101.525 79.1338 101.525 79.1338C87.2502 74.7387 105.11 87.0188 108.596 91.5187C120.744 88.639 132.892 88.8376 145.039 91.5187Z" fill="black"/>
<path d="M132.226 76.7369C132.226 79.3649 129.818 81.4954 126.849 81.4954C123.879 81.4954 121.472 79.3649 121.472 76.7369C121.472 74.1089 123.879 71.9785 126.849 71.9785C129.818 71.9785 132.226 74.1089 132.226 76.7369Z" fill="white"/>
<path d="M130.759 81.4336C130.759 83.3448 129.008 84.8942 126.849 84.8942C124.689 84.8942 122.939 83.3448 122.939 81.4336C122.939 79.5223 124.689 77.9729 126.849 77.9729C129.008 77.9729 130.759 79.5223 130.759 81.4336Z" fill="white"/>
<path d="M126.458 76.7369C126.458 77.6926 125.582 78.4673 124.503 78.4673C123.423 78.4673 122.548 77.6926 122.548 76.7369C122.548 75.7813 123.423 75.0066 124.503 75.0066C125.582 75.0066 126.458 75.7813 126.458 76.7369Z" fill="black"/>
<path d="M131.15 76.7369C131.15 77.6926 130.275 78.4673 129.195 78.4673C128.115 78.4673 127.24 77.6926 127.24 76.7369C127.24 75.7813 128.115 75.0066 129.195 75.0066C130.275 75.0066 131.15 75.7813 131.15 76.7369Z" fill="black"/>
<path d="M120.41 73.5077C120.739 74.5361 120.497 75.4837 119.869 75.6245C119.241 75.7652 118.464 75.0456 118.135 74.0173C117.805 72.989 118.047 72.0413 118.675 71.9006C119.304 71.7599 120.08 72.4794 120.41 73.5077Z" fill="white"/>
<path d="M118.698 76.2503C117.568 76.5031 116.497 76.2256 116.306 75.6305C116.115 75.0355 116.876 74.3482 118.006 74.0954C119.136 73.8427 120.207 74.1202 120.398 74.7152C120.589 75.3103 119.828 75.9976 118.698 76.2503Z" fill="white"/>
<path d="M119.592 73.7708L118.536 75.4213L122.005 77.2156L123.06 75.5651L119.592 73.7708Z" fill="white"/>
<path d="M119.518 80.2493C120.648 80.502 121.409 81.1893 121.218 81.7844C121.027 82.3794 119.956 82.6569 118.826 82.4041C117.696 82.1514 116.935 81.4641 117.126 80.869C117.317 80.274 118.388 79.9965 119.518 80.2493Z" fill="white"/>
<path d="M121.23 82.9918C120.9 84.0202 120.123 84.7397 119.495 84.599C118.867 84.4583 118.625 83.5106 118.954 82.4823C119.284 81.454 120.061 80.7344 120.689 80.8751C121.317 81.0158 121.559 81.9635 121.23 82.9918Z" fill="white"/>
<path d="M119.366 81.0941L120.422 82.7446L123.89 80.9503L122.835 79.2998L119.366 81.0941Z" fill="white"/>
<path d="M135.005 76.2583C133.875 76.0056 133.114 75.3183 133.305 74.7232C133.496 74.1282 134.567 73.8507 135.696 74.1034C136.826 74.3562 137.588 75.0435 137.397 75.6385C137.206 76.2336 136.135 76.5111 135.005 76.2583Z" fill="white"/>
<path d="M133.293 73.5157C133.623 72.4873 134.399 71.7678 135.027 71.9085C135.656 72.0492 135.898 72.9969 135.568 74.0252C135.239 75.0535 134.462 75.7731 133.834 75.6324C133.205 75.4917 132.963 74.544 133.293 73.5157Z" fill="white"/>
<path d="M135.156 75.4134L134.1 73.7629L130.632 75.5572L131.688 77.2077L135.156 75.4134Z" fill="white"/>
<path d="M132.47 82.9999C132.141 81.9716 132.383 81.0239 133.011 80.8832C133.639 80.7425 134.416 81.4621 134.746 82.4904C135.075 83.5187 134.833 84.4664 134.205 84.6071C133.577 84.7478 132.8 84.0283 132.47 82.9999Z" fill="white"/>
<path d="M134.182 80.2573C135.312 80.0046 136.383 80.282 136.574 80.8771C136.765 81.4721 136.004 82.1594 134.874 82.4122C133.744 82.6649 132.673 82.3875 132.482 81.7924C132.291 81.1974 133.052 80.5101 134.182 80.2573Z" fill="white"/>
<path d="M133.288 82.7368L134.344 81.0863L130.875 79.292L129.82 80.9425L133.288 82.7368Z" fill="white"/>
<path d="M125.766 79.9166L126.849 78.368L127.932 79.9166H125.766Z" fill="black"/>
<rect x="409.5" y="48.5" width="99" height="99" rx="3.5" fill="white" stroke="black"/>
<path d="M443.83 81.5918H439.717V93H438.038V81.5918H433.934V80.2031H443.83V81.5918ZM450.343 93C450.249 92.8125 450.173 92.4785 450.114 91.998C449.358 92.7832 448.456 93.1758 447.407 93.1758C446.47 93.1758 445.699 92.9121 445.096 92.3848C444.498 91.8516 444.199 91.1777 444.199 90.3633C444.199 89.373 444.574 88.6055 445.324 88.0605C446.08 87.5098 447.141 87.2344 448.506 87.2344H450.088V86.4873C450.088 85.9189 449.918 85.4678 449.578 85.1338C449.238 84.7939 448.737 84.624 448.075 84.624C447.495 84.624 447.009 84.7705 446.616 85.0635C446.224 85.3564 446.027 85.7109 446.027 86.127H444.393C444.393 85.6523 444.56 85.1953 444.894 84.7559C445.233 84.3105 445.69 83.959 446.265 83.7012C446.845 83.4434 447.48 83.3145 448.172 83.3145C449.268 83.3145 450.126 83.5898 450.747 84.1406C451.368 84.6855 451.69 85.4385 451.714 86.3994V90.7764C451.714 91.6494 451.825 92.3438 452.048 92.8594V93H450.343ZM447.645 91.7607C448.154 91.7607 448.638 91.6289 449.095 91.3652C449.552 91.1016 449.883 90.7588 450.088 90.3369V88.3857H448.813C446.821 88.3857 445.825 88.9688 445.825 90.1348C445.825 90.6445 445.995 91.043 446.335 91.3301C446.675 91.6172 447.111 91.7607 447.645 91.7607ZM458.859 84.9492C458.613 84.9082 458.347 84.8877 458.06 84.8877C456.993 84.8877 456.27 85.3418 455.889 86.25V93H454.263V83.4902H455.845L455.871 84.5889C456.404 83.7393 457.16 83.3145 458.139 83.3145C458.455 83.3145 458.695 83.3555 458.859 83.4375V84.9492ZM459.8 88.166C459.8 86.6836 460.143 85.5059 460.828 84.6328C461.514 83.7539 462.422 83.3145 463.553 83.3145C464.713 83.3145 465.618 83.7246 466.269 84.5449L466.348 83.4902H467.833V92.7715C467.833 94.002 467.467 94.9717 466.734 95.6807C466.008 96.3896 465.029 96.7441 463.799 96.7441C463.113 96.7441 462.442 96.5977 461.786 96.3047C461.13 96.0117 460.629 95.6104 460.283 95.1006L461.127 94.125C461.824 94.9863 462.677 95.417 463.685 95.417C464.476 95.417 465.091 95.1943 465.53 94.749C465.976 94.3037 466.198 93.6768 466.198 92.8682V92.0508C465.548 92.8008 464.66 93.1758 463.535 93.1758C462.422 93.1758 461.52 92.7275 460.828 91.8311C460.143 90.9346 459.8 89.7129 459.8 88.166ZM461.435 88.3506C461.435 89.4229 461.654 90.2666 462.094 90.8818C462.533 91.4912 463.148 91.7959 463.939 91.7959C464.965 91.7959 465.718 91.3301 466.198 90.3984V86.0566C465.7 85.1484 464.953 84.6943 463.957 84.6943C463.166 84.6943 462.548 85.002 462.103 85.6172C461.657 86.2324 461.435 87.1436 461.435 88.3506ZM474.24 93.1758C472.951 93.1758 471.902 92.7539 471.094 91.9102C470.285 91.0605 469.881 89.9268 469.881 88.5088V88.21C469.881 87.2666 470.06 86.4258 470.417 85.6875C470.78 84.9434 471.284 84.3633 471.929 83.9473C472.579 83.5254 473.282 83.3145 474.038 83.3145C475.274 83.3145 476.235 83.7217 476.921 84.5361C477.606 85.3506 477.949 86.5166 477.949 88.0342V88.7109H471.507C471.53 89.6484 471.803 90.4072 472.324 90.9873C472.852 91.5615 473.52 91.8486 474.328 91.8486C474.902 91.8486 475.389 91.7314 475.787 91.4971C476.186 91.2627 476.534 90.9521 476.833 90.5654L477.826 91.3389C477.029 92.5635 475.834 93.1758 474.24 93.1758ZM474.038 84.6504C473.382 84.6504 472.831 84.8906 472.386 85.3711C471.94 85.8457 471.665 86.5137 471.56 87.375H476.323V87.252C476.276 86.4258 476.054 85.7871 475.655 85.3359C475.257 84.8789 474.718 84.6504 474.038 84.6504ZM482.045 81.1875V83.4902H483.82V84.7471H482.045V90.6445C482.045 91.0254 482.124 91.3125 482.282 91.5059C482.44 91.6934 482.71 91.7871 483.091 91.7871C483.278 91.7871 483.536 91.752 483.864 91.6816V93C483.437 93.1172 483.021 93.1758 482.616 93.1758C481.89 93.1758 481.342 92.9561 480.973 92.5166C480.604 92.0771 480.419 91.4531 480.419 90.6445V84.7471H478.688V83.4902H480.419V81.1875H482.045ZM437.511 111.759L439.339 104.49H440.965L438.196 114H436.878L434.566 106.793L432.316 114H430.998L428.238 104.49H429.855L431.728 111.609L433.942 104.49H435.252L437.511 111.759ZM446.572 114.176C445.283 114.176 444.234 113.754 443.426 112.91C442.617 112.061 442.213 110.927 442.213 109.509V109.21C442.213 108.267 442.392 107.426 442.749 106.688C443.112 105.943 443.616 105.363 444.261 104.947C444.911 104.525 445.614 104.314 446.37 104.314C447.606 104.314 448.567 104.722 449.253 105.536C449.938 106.351 450.281 107.517 450.281 109.034V109.711H443.839C443.862 110.648 444.135 111.407 444.656 111.987C445.184 112.562 445.852 112.849 446.66 112.849C447.234 112.849 447.721 112.731 448.119 112.497C448.518 112.263 448.866 111.952 449.165 111.565L450.158 112.339C449.361 113.563 448.166 114.176 446.572 114.176ZM446.37 105.65C445.714 105.65 445.163 105.891 444.718 106.371C444.272 106.846 443.997 107.514 443.892 108.375H448.655V108.252C448.608 107.426 448.386 106.787 447.987 106.336C447.589 105.879 447.05 105.65 446.37 105.65ZM460.222 109.351C460.222 110.804 459.888 111.973 459.22 112.857C458.552 113.736 457.655 114.176 456.53 114.176C455.329 114.176 454.4 113.751 453.744 112.901L453.665 114H452.171V100.5H453.797V105.536C454.453 104.722 455.358 104.314 456.513 104.314C457.667 104.314 458.572 104.751 459.229 105.624C459.891 106.497 460.222 107.692 460.222 109.21V109.351ZM458.596 109.166C458.596 108.059 458.382 107.203 457.954 106.6C457.526 105.996 456.911 105.694 456.108 105.694C455.036 105.694 454.266 106.192 453.797 107.188V111.302C454.295 112.298 455.071 112.796 456.126 112.796C456.905 112.796 457.512 112.494 457.945 111.891C458.379 111.287 458.596 110.379 458.596 109.166ZM467.815 111.478C467.815 111.038 467.648 110.698 467.314 110.458C466.986 110.212 466.409 110.001 465.583 109.825C464.763 109.649 464.109 109.438 463.623 109.192C463.143 108.946 462.785 108.653 462.551 108.313C462.322 107.974 462.208 107.569 462.208 107.101C462.208 106.321 462.536 105.662 463.192 105.123C463.854 104.584 464.698 104.314 465.724 104.314C466.802 104.314 467.675 104.593 468.343 105.149C469.017 105.706 469.354 106.418 469.354 107.285H467.719C467.719 106.84 467.528 106.456 467.147 106.134C466.772 105.812 466.298 105.65 465.724 105.65C465.132 105.65 464.669 105.779 464.335 106.037C464.001 106.295 463.834 106.632 463.834 107.048C463.834 107.44 463.989 107.736 464.3 107.936C464.61 108.135 465.17 108.325 465.979 108.507C466.793 108.688 467.452 108.905 467.956 109.157C468.46 109.409 468.832 109.714 469.072 110.071C469.318 110.423 469.441 110.854 469.441 111.363C469.441 112.213 469.102 112.896 468.422 113.411C467.742 113.921 466.86 114.176 465.776 114.176C465.015 114.176 464.341 114.041 463.755 113.771C463.169 113.502 462.709 113.127 462.375 112.646C462.047 112.16 461.883 111.636 461.883 111.073H463.509C463.538 111.618 463.755 112.052 464.159 112.374C464.569 112.69 465.108 112.849 465.776 112.849C466.392 112.849 466.884 112.726 467.253 112.479C467.628 112.228 467.815 111.894 467.815 111.478ZM473.326 114H471.7V104.49H473.326V114ZM471.568 101.968C471.568 101.704 471.647 101.481 471.806 101.3C471.97 101.118 472.21 101.027 472.526 101.027C472.843 101.027 473.083 101.118 473.247 101.3C473.411 101.481 473.493 101.704 473.493 101.968C473.493 102.231 473.411 102.451 473.247 102.627C473.083 102.803 472.843 102.891 472.526 102.891C472.21 102.891 471.97 102.803 471.806 102.627C471.647 102.451 471.568 102.231 471.568 101.968ZM478.143 102.188V104.49H479.918V105.747H478.143V111.645C478.143 112.025 478.222 112.312 478.38 112.506C478.538 112.693 478.808 112.787 479.188 112.787C479.376 112.787 479.634 112.752 479.962 112.682V114C479.534 114.117 479.118 114.176 478.714 114.176C477.987 114.176 477.439 113.956 477.07 113.517C476.701 113.077 476.517 112.453 476.517 111.645V105.747H474.785V104.49H476.517V102.188H478.143ZM485.771 114.176C484.482 114.176 483.434 113.754 482.625 112.91C481.816 112.061 481.412 110.927 481.412 109.509V109.21C481.412 108.267 481.591 107.426 481.948 106.688C482.312 105.943 482.815 105.363 483.46 104.947C484.11 104.525 484.813 104.314 485.569 104.314C486.806 104.314 487.767 104.722 488.452 105.536C489.138 106.351 489.48 107.517 489.48 109.034V109.711H483.038C483.062 110.648 483.334 111.407 483.855 111.987C484.383 112.562 485.051 112.849 485.859 112.849C486.434 112.849 486.92 112.731 487.318 112.497C487.717 112.263 488.065 111.952 488.364 111.565L489.357 112.339C488.561 113.563 487.365 114.176 485.771 114.176ZM485.569 105.65C484.913 105.65 484.362 105.891 483.917 106.371C483.472 106.846 483.196 107.514 483.091 108.375H487.854V108.252C487.808 107.426 487.585 106.787 487.187 106.336C486.788 105.879 486.249 105.65 485.569 105.65Z" fill="black"/>
<path d="M399.717 88.1063C400.108 87.7158 400.108 87.0826 399.717 86.6921L393.353 80.3282C392.963 79.9376 392.329 79.9376 391.939 80.3282C391.548 80.7187 391.548 81.3519 391.939 81.7424L397.596 87.3992L391.939 93.0561C391.548 93.4466 391.548 94.0798 391.939 94.4703C392.329 94.8608 392.963 94.8608 393.353 94.4703L399.717 88.1063ZM175.97 88.3992H399.01V86.3992H175.97V88.3992Z" fill="black"/>
<path d="M175.132 158.887C174.852 159.357 175.015 159.969 175.494 160.254L183.309 164.897C183.788 165.182 184.403 165.032 184.683 164.562C184.962 164.092 184.799 163.48 184.32 163.195L177.374 159.068L181.419 152.259C181.699 151.789 181.536 151.177 181.057 150.892C180.577 150.608 179.962 150.758 179.683 151.228L175.132 158.887ZM398.744 104.033L175.744 158.437L176.256 160.37L399.256 105.967L398.744 104.033Z" fill="#FF0000"/>
<path d="M194.57 225.768C194.446 226.295 194.79 226.827 195.338 226.955L204.263 229.046C204.811 229.174 205.355 228.851 205.479 228.323C205.602 227.795 205.258 227.264 204.711 227.135L196.777 225.277L198.567 217.635C198.69 217.108 198.347 216.576 197.799 216.448C197.251 216.319 196.707 216.643 196.583 217.171L194.57 225.768ZM398.457 104.16L195.018 225.16L196.104 226.84L399.543 105.84L398.457 104.16Z" fill="#FF0000"/>
<path d="M124 129.259C91.0572 129.259 90.2709 166.192 90.2709 173.507C90.2709 180.817 105.374 186.741 124 186.741C142.631 186.741 157.729 180.812 157.729 173.507C157.729 166.192 156.948 129.259 124 129.259Z" fill="#FCC21B"/>
<path d="M120.09 153.814C120.09 153.83 120.085 153.846 120.085 153.862C120.085 153.846 120.085 153.83 120.09 153.814Z" fill="#2F2F2F"/>
<path d="M111.601 151.939H105.629C104.747 151.939 104.036 152.651 104.036 153.533C104.036 154.415 104.747 155.126 105.629 155.126H111.903C111.659 154.489 111.521 153.788 111.516 153.049C111.505 152.667 111.537 152.295 111.601 151.939Z" fill="#2F2F2F"/>
<path d="M118.523 155.126H111.898C112.583 156.927 114.113 158.175 115.872 158.154C118.002 158.133 119.75 156.279 120.079 153.856C119.936 154.584 119.293 155.126 118.523 155.126Z" fill="#2F2F2F"/>
<path d="M120.085 153.856C120.085 153.84 120.09 153.824 120.09 153.808C120.106 153.718 120.117 153.622 120.117 153.527C120.117 152.645 119.405 151.933 118.523 151.933H111.601C111.537 152.289 111.505 152.661 111.51 153.043C111.516 153.787 111.659 154.488 111.898 155.121H118.523C119.293 155.126 119.936 154.584 120.085 153.856Z" fill="#2F2F2F"/>
<path d="M143.938 153.814C143.938 153.83 143.932 153.846 143.932 153.862C143.938 153.846 143.932 153.83 143.938 153.814Z" fill="#2F2F2F"/>
<path d="M135.448 151.939H129.477C128.595 151.939 127.883 152.651 127.883 153.533C127.883 154.415 128.595 155.126 129.477 155.126H135.751C135.507 154.489 135.369 153.788 135.363 153.049C135.353 152.667 135.39 152.295 135.448 151.939Z" fill="#2F2F2F"/>
<path d="M142.371 155.126H135.746C136.431 156.927 137.961 158.175 139.72 158.154C141.85 158.133 143.598 156.279 143.927 153.856C143.784 154.584 143.141 155.126 142.371 155.126Z" fill="#2F2F2F"/>
<path d="M143.932 153.856C143.932 153.84 143.938 153.824 143.938 153.808C143.954 153.718 143.964 153.622 143.964 153.527C143.964 152.645 143.252 151.933 142.371 151.933H135.448C135.385 152.289 135.353 152.661 135.358 153.043C135.363 153.787 135.507 154.488 135.746 155.121H142.371C143.141 155.126 143.784 154.584 143.932 153.856Z" fill="#2F2F2F"/>
<path d="M116.573 169.215C120.472 165.517 127.527 165.517 131.422 169.215" stroke="#2F2F2F" stroke-width="6" stroke-miterlimit="10" stroke-linecap="round"/>
<path d="M128 197.259C95.0572 197.259 94.2709 234.192 94.2709 241.507C94.2709 248.817 109.374 254.741 128 254.741C146.631 254.741 161.729 248.812 161.729 241.507C161.729 234.192 160.948 197.259 128 197.259Z" fill="#FCC21B"/>
<path d="M124.09 221.814C124.09 221.83 124.085 221.846 124.085 221.862C124.085 221.846 124.085 221.83 124.09 221.814Z" fill="#2F2F2F"/>
<path d="M115.601 219.939H109.629C108.747 219.939 108.036 220.651 108.036 221.533C108.036 222.415 108.747 223.126 109.629 223.126H115.903C115.659 222.489 115.521 221.788 115.516 221.049C115.505 220.667 115.537 220.295 115.601 219.939Z" fill="#2F2F2F"/>
<path d="M122.523 223.126H115.898C116.583 224.927 118.113 226.175 119.872 226.154C122.002 226.133 123.75 224.279 124.079 221.856C123.936 222.584 123.293 223.126 122.523 223.126Z" fill="#2F2F2F"/>
<path d="M124.085 221.856C124.085 221.84 124.09 221.824 124.09 221.808C124.106 221.718 124.117 221.622 124.117 221.527C124.117 220.645 123.405 219.933 122.523 219.933H115.601C115.537 220.289 115.505 220.661 115.51 221.043C115.516 221.787 115.659 222.488 115.898 223.121H122.523C123.293 223.126 123.936 222.584 124.085 221.856Z" fill="#2F2F2F"/>
<path d="M147.938 221.814C147.938 221.83 147.932 221.846 147.932 221.862C147.938 221.846 147.932 221.83 147.938 221.814Z" fill="#2F2F2F"/>
<path d="M139.448 219.939H133.477C132.595 219.939 131.883 220.651 131.883 221.533C131.883 222.415 132.595 223.126 133.477 223.126H139.751C139.507 222.489 139.369 221.788 139.363 221.049C139.353 220.667 139.39 220.295 139.448 219.939Z" fill="#2F2F2F"/>
<path d="M146.371 223.126H139.746C140.431 224.927 141.961 226.175 143.72 226.154C145.85 226.133 147.598 224.279 147.927 221.856C147.784 222.584 147.141 223.126 146.371 223.126Z" fill="#2F2F2F"/>
<path d="M147.932 221.856C147.932 221.84 147.938 221.824 147.938 221.808C147.954 221.718 147.964 221.622 147.964 221.527C147.964 220.645 147.252 219.933 146.371 219.933H139.448C139.385 220.289 139.353 220.661 139.358 221.043C139.363 221.787 139.507 222.488 139.746 223.121H146.371C147.141 223.126 147.784 222.584 147.932 221.856Z" fill="#2F2F2F"/>
<path d="M120.573 237.215C124.472 233.517 131.527 233.517 135.422 237.215" stroke="#2F2F2F" stroke-width="6" stroke-miterlimit="10" stroke-linecap="round"/>
<path d="M226.759 30.2031L230.942 40.6445L235.126 30.2031H237.314V43H235.627V38.0166L235.785 32.6377L231.584 43H230.292L226.1 32.6641L226.267 38.0166V43H224.579V30.2031H226.759ZM245.91 43C245.816 42.8125 245.74 42.4785 245.682 41.998C244.926 42.7832 244.023 43.1758 242.975 43.1758C242.037 43.1758 241.267 42.9121 240.663 42.3848C240.065 41.8516 239.767 41.1777 239.767 40.3633C239.767 39.373 240.142 38.6055 240.892 38.0605C241.647 37.5098 242.708 37.2344 244.073 37.2344H245.655V36.4873C245.655 35.9189 245.485 35.4678 245.146 35.1338C244.806 34.7939 244.305 34.624 243.643 34.624C243.062 34.624 242.576 34.7705 242.184 35.0635C241.791 35.3564 241.595 35.7109 241.595 36.127H239.96C239.96 35.6523 240.127 35.1953 240.461 34.7559C240.801 34.3105 241.258 33.959 241.832 33.7012C242.412 33.4434 243.048 33.3145 243.739 33.3145C244.835 33.3145 245.693 33.5898 246.314 34.1406C246.936 34.6855 247.258 35.4385 247.281 36.3994V40.7764C247.281 41.6494 247.393 42.3438 247.615 42.8594V43H245.91ZM243.212 41.7607C243.722 41.7607 244.205 41.6289 244.662 41.3652C245.119 41.1016 245.45 40.7588 245.655 40.3369V38.3857H244.381C242.389 38.3857 241.393 38.9688 241.393 40.1348C241.393 40.6445 241.562 41.043 241.902 41.3301C242.242 41.6172 242.679 41.7607 243.212 41.7607ZM251.597 43H249.971V29.5H251.597V43ZM255.974 43H254.348V33.4902H255.974V43ZM254.216 30.9678C254.216 30.7041 254.295 30.4814 254.453 30.2998C254.617 30.1182 254.857 30.0273 255.174 30.0273C255.49 30.0273 255.73 30.1182 255.895 30.2998C256.059 30.4814 256.141 30.7041 256.141 30.9678C256.141 31.2314 256.059 31.4512 255.895 31.627C255.73 31.8027 255.49 31.8906 255.174 31.8906C254.857 31.8906 254.617 31.8027 254.453 31.627C254.295 31.4512 254.216 31.2314 254.216 30.9678ZM262.398 41.8486C262.979 41.8486 263.485 41.6729 263.919 41.3213C264.353 40.9697 264.593 40.5303 264.64 40.0029H266.178C266.148 40.5479 265.961 41.0664 265.615 41.5586C265.27 42.0508 264.807 42.4434 264.227 42.7363C263.652 43.0293 263.043 43.1758 262.398 43.1758C261.104 43.1758 260.072 42.7451 259.305 41.8838C258.543 41.0166 258.162 39.833 258.162 38.333V38.0605C258.162 37.1348 258.332 36.3115 258.672 35.5908C259.012 34.8701 259.498 34.3105 260.131 33.9121C260.77 33.5137 261.522 33.3145 262.39 33.3145C263.456 33.3145 264.341 33.6338 265.044 34.2725C265.753 34.9111 266.131 35.7402 266.178 36.7598H264.64C264.593 36.1445 264.358 35.6406 263.937 35.248C263.521 34.8496 263.005 34.6504 262.39 34.6504C261.563 34.6504 260.922 34.9492 260.465 35.5469C260.014 36.1387 259.788 36.9971 259.788 38.1221V38.4297C259.788 39.5254 260.014 40.3691 260.465 40.9609C260.916 41.5527 261.561 41.8486 262.398 41.8486ZM269.772 43H268.146V33.4902H269.772V43ZM268.015 30.9678C268.015 30.7041 268.094 30.4814 268.252 30.2998C268.416 30.1182 268.656 30.0273 268.973 30.0273C269.289 30.0273 269.529 30.1182 269.693 30.2998C269.857 30.4814 269.939 30.7041 269.939 30.9678C269.939 31.2314 269.857 31.4512 269.693 31.627C269.529 31.8027 269.289 31.8906 268.973 31.8906C268.656 31.8906 268.416 31.8027 268.252 31.627C268.094 31.4512 268.015 31.2314 268.015 30.9678ZM271.952 38.1572C271.952 37.2256 272.134 36.3877 272.497 35.6436C272.866 34.8994 273.376 34.3252 274.026 33.9209C274.683 33.5166 275.43 33.3145 276.268 33.3145C277.562 33.3145 278.608 33.7627 279.405 34.6592C280.208 35.5557 280.609 36.748 280.609 38.2363V38.3506C280.609 39.2764 280.431 40.1084 280.073 40.8467C279.722 41.5791 279.215 42.1504 278.553 42.5605C277.896 42.9707 277.141 43.1758 276.285 43.1758C274.996 43.1758 273.95 42.7275 273.147 41.8311C272.351 40.9346 271.952 39.748 271.952 38.2715V38.1572ZM273.587 38.3506C273.587 39.4053 273.83 40.252 274.316 40.8906C274.809 41.5293 275.465 41.8486 276.285 41.8486C277.111 41.8486 277.768 41.5264 278.254 40.8818C278.74 40.2314 278.983 39.3232 278.983 38.1572C278.983 37.1143 278.734 36.2705 278.236 35.626C277.744 34.9756 277.088 34.6504 276.268 34.6504C275.465 34.6504 274.817 34.9697 274.325 35.6084C273.833 36.2471 273.587 37.1611 273.587 38.3506ZM288.52 42.0596C287.887 42.8037 286.958 43.1758 285.733 43.1758C284.72 43.1758 283.946 42.8828 283.413 42.2969C282.886 41.7051 282.619 40.832 282.613 39.6777V33.4902H284.239V39.6338C284.239 41.0752 284.825 41.7959 285.997 41.7959C287.239 41.7959 288.065 41.333 288.476 40.4072V33.4902H290.102V43H288.555L288.52 42.0596ZM298.117 40.4775C298.117 40.0381 297.95 39.6982 297.616 39.458C297.288 39.2119 296.711 39.001 295.885 38.8252C295.064 38.6494 294.411 38.4385 293.925 38.1924C293.444 37.9463 293.087 37.6533 292.853 37.3135C292.624 36.9736 292.51 36.5693 292.51 36.1006C292.51 35.3213 292.838 34.6621 293.494 34.123C294.156 33.584 295 33.3145 296.025 33.3145C297.104 33.3145 297.977 33.5928 298.645 34.1494C299.318 34.7061 299.655 35.418 299.655 36.2852H298.021C298.021 35.8398 297.83 35.4561 297.449 35.1338C297.074 34.8115 296.6 34.6504 296.025 34.6504C295.434 34.6504 294.971 34.7793 294.637 35.0371C294.303 35.2949 294.136 35.6318 294.136 36.0479C294.136 36.4404 294.291 36.7363 294.602 36.9355C294.912 37.1348 295.472 37.3252 296.28 37.5068C297.095 37.6885 297.754 37.9053 298.258 38.1572C298.762 38.4092 299.134 38.7139 299.374 39.0713C299.62 39.4229 299.743 39.8535 299.743 40.3633C299.743 41.2129 299.403 41.8955 298.724 42.4111C298.044 42.9209 297.162 43.1758 296.078 43.1758C295.316 43.1758 294.643 43.041 294.057 42.7715C293.471 42.502 293.011 42.127 292.677 41.6465C292.349 41.1602 292.185 40.6357 292.185 40.0732H293.811C293.84 40.6182 294.057 41.0518 294.461 41.374C294.871 41.6904 295.41 41.8486 296.078 41.8486C296.693 41.8486 297.186 41.7256 297.555 41.4795C297.93 41.2275 298.117 40.8936 298.117 40.4775ZM315.388 34.9492C315.142 34.9082 314.875 34.8877 314.588 34.8877C313.521 34.8877 312.798 35.3418 312.417 36.25V43H310.791V33.4902H312.373L312.399 34.5889C312.933 33.7393 313.688 33.3145 314.667 33.3145C314.983 33.3145 315.224 33.3555 315.388 33.4375V34.9492ZM320.661 43.1758C319.372 43.1758 318.323 42.7539 317.515 41.9102C316.706 41.0605 316.302 39.9268 316.302 38.5088V38.21C316.302 37.2666 316.48 36.4258 316.838 35.6875C317.201 34.9434 317.705 34.3633 318.35 33.9473C319 33.5254 319.703 33.3145 320.459 33.3145C321.695 33.3145 322.656 33.7217 323.342 34.5361C324.027 35.3506 324.37 36.5166 324.37 38.0342V38.7109H317.928C317.951 39.6484 318.224 40.4072 318.745 40.9873C319.272 41.5615 319.94 41.8486 320.749 41.8486C321.323 41.8486 321.81 41.7314 322.208 41.4971C322.606 41.2627 322.955 40.9521 323.254 40.5654L324.247 41.3389C323.45 42.5635 322.255 43.1758 320.661 43.1758ZM320.459 34.6504C319.803 34.6504 319.252 34.8906 318.807 35.3711C318.361 35.8457 318.086 36.5137 317.98 37.375H322.744V37.252C322.697 36.4258 322.475 35.7871 322.076 35.3359C321.678 34.8789 321.139 34.6504 320.459 34.6504ZM325.864 38.166C325.864 36.6719 326.207 35.4912 326.893 34.624C327.578 33.751 328.498 33.3145 329.652 33.3145C330.777 33.3145 331.665 33.6924 332.315 34.4482L332.386 33.4902H333.88V46.6562H332.254V42.1211C331.598 42.8242 330.725 43.1758 329.635 43.1758C328.486 43.1758 327.569 42.7305 326.884 41.8398C326.204 40.9434 325.864 39.7568 325.864 38.2803V38.166ZM327.49 38.3506C327.49 39.4404 327.719 40.2959 328.176 40.917C328.639 41.5381 329.26 41.8486 330.039 41.8486C331.006 41.8486 331.744 41.4209 332.254 40.5654V35.9072C331.738 35.0693 331.006 34.6504 330.057 34.6504C329.271 34.6504 328.647 34.9639 328.185 35.5908C327.722 36.2119 327.49 37.1318 327.49 38.3506ZM342.361 42.0596C341.729 42.8037 340.8 43.1758 339.575 43.1758C338.562 43.1758 337.788 42.8828 337.255 42.2969C336.728 41.7051 336.461 40.832 336.455 39.6777V33.4902H338.081V39.6338C338.081 41.0752 338.667 41.7959 339.839 41.7959C341.081 41.7959 341.907 41.333 342.317 40.4072V33.4902H343.943V43H342.396L342.361 42.0596ZM350.368 43.1758C349.079 43.1758 348.03 42.7539 347.222 41.9102C346.413 41.0605 346.009 39.9268 346.009 38.5088V38.21C346.009 37.2666 346.188 36.4258 346.545 35.6875C346.908 34.9434 347.412 34.3633 348.057 33.9473C348.707 33.5254 349.41 33.3145 350.166 33.3145C351.402 33.3145 352.363 33.7217 353.049 34.5361C353.734 35.3506 354.077 36.5166 354.077 38.0342V38.7109H347.635C347.658 39.6484 347.931 40.4072 348.452 40.9873C348.979 41.5615 349.647 41.8486 350.456 41.8486C351.03 41.8486 351.517 41.7314 351.915 41.4971C352.313 41.2627 352.662 40.9521 352.961 40.5654L353.954 41.3389C353.157 42.5635 351.962 43.1758 350.368 43.1758ZM350.166 34.6504C349.51 34.6504 348.959 34.8906 348.514 35.3711C348.068 35.8457 347.793 36.5137 347.688 37.375H352.451V37.252C352.404 36.4258 352.182 35.7871 351.783 35.3359C351.385 34.8789 350.846 34.6504 350.166 34.6504ZM361.504 40.4775C361.504 40.0381 361.337 39.6982 361.003 39.458C360.675 39.2119 360.098 39.001 359.271 38.8252C358.451 38.6494 357.798 38.4385 357.312 38.1924C356.831 37.9463 356.474 37.6533 356.239 37.3135C356.011 36.9736 355.896 36.5693 355.896 36.1006C355.896 35.3213 356.225 34.6621 356.881 34.123C357.543 33.584 358.387 33.3145 359.412 33.3145C360.49 33.3145 361.363 33.5928 362.031 34.1494C362.705 34.7061 363.042 35.418 363.042 36.2852H361.407C361.407 35.8398 361.217 35.4561 360.836 35.1338C360.461 34.8115 359.986 34.6504 359.412 34.6504C358.82 34.6504 358.357 34.7793 358.023 35.0371C357.689 35.2949 357.522 35.6318 357.522 36.0479C357.522 36.4404 357.678 36.7363 357.988 36.9355C358.299 37.1348 358.858 37.3252 359.667 37.5068C360.481 37.6885 361.141 37.9053 361.645 38.1572C362.148 38.4092 362.521 38.7139 362.761 39.0713C363.007 39.4229 363.13 39.8535 363.13 40.3633C363.13 41.2129 362.79 41.8955 362.11 42.4111C361.431 42.9209 360.549 43.1758 359.465 43.1758C358.703 43.1758 358.029 43.041 357.443 42.7715C356.857 42.502 356.397 42.127 356.063 41.6465C355.735 41.1602 355.571 40.6357 355.571 40.0732H357.197C357.227 40.6182 357.443 41.0518 357.848 41.374C358.258 41.6904 358.797 41.8486 359.465 41.8486C360.08 41.8486 360.572 41.7256 360.941 41.4795C361.316 41.2275 361.504 40.8936 361.504 40.4775ZM367.454 31.1875V33.4902H369.229V34.7471H367.454V40.6445C367.454 41.0254 367.533 41.3125 367.691 41.5059C367.85 41.6934 368.119 41.7871 368.5 41.7871C368.688 41.7871 368.945 41.752 369.273 41.6816V43C368.846 43.1172 368.43 43.1758 368.025 43.1758C367.299 43.1758 366.751 42.9561 366.382 42.5166C366.013 42.0771 365.828 41.4531 365.828 40.6445V34.7471H364.097V33.4902H365.828V31.1875H367.454ZM244.794 61.7588L246.622 54.4902H248.248L245.479 64H244.161L241.85 56.793L239.6 64H238.281L235.521 54.4902H237.139L239.011 61.6094L241.226 54.4902H242.535L244.794 61.7588ZM251.676 64H250.05V54.4902H251.676V64ZM249.918 51.9678C249.918 51.7041 249.997 51.4814 250.155 51.2998C250.319 51.1182 250.56 51.0273 250.876 51.0273C251.192 51.0273 251.433 51.1182 251.597 51.2998C251.761 51.4814 251.843 51.7041 251.843 51.9678C251.843 52.2314 251.761 52.4512 251.597 52.627C251.433 52.8027 251.192 52.8906 250.876 52.8906C250.56 52.8906 250.319 52.8027 250.155 52.627C249.997 52.4512 249.918 52.2314 249.918 51.9678ZM256.492 52.1875V54.4902H258.268V55.7471H256.492V61.6445C256.492 62.0254 256.571 62.3125 256.729 62.5059C256.888 62.6934 257.157 62.7871 257.538 62.7871C257.726 62.7871 257.983 62.752 258.312 62.6816V64C257.884 64.1172 257.468 64.1758 257.063 64.1758C256.337 64.1758 255.789 63.9561 255.42 63.5166C255.051 63.0771 254.866 62.4531 254.866 61.6445V55.7471H253.135V54.4902H254.866V52.1875H256.492ZM261.801 55.6416C262.521 54.7568 263.459 54.3145 264.613 54.3145C266.623 54.3145 267.637 55.4482 267.654 57.7158V64H266.028V57.707C266.022 57.0215 265.864 56.5146 265.554 56.1865C265.249 55.8584 264.771 55.6943 264.121 55.6943C263.594 55.6943 263.131 55.835 262.732 56.1162C262.334 56.3975 262.023 56.7666 261.801 57.2236V64H260.175V50.5H261.801V55.6416ZM280.17 51.2031H281.866V60.2646C281.866 61.4893 281.497 62.4473 280.759 63.1387C280.026 63.8301 279.048 64.1758 277.823 64.1758C276.552 64.1758 275.562 63.8506 274.853 63.2002C274.144 62.5498 273.789 61.6387 273.789 60.4668H275.477C275.477 61.1992 275.676 61.7705 276.074 62.1807C276.479 62.5908 277.062 62.7959 277.823 62.7959C278.521 62.7959 279.083 62.5762 279.511 62.1367C279.944 61.6973 280.164 61.082 280.17 60.291V51.2031ZM290.356 64C290.263 63.8125 290.187 63.4785 290.128 62.998C289.372 63.7832 288.47 64.1758 287.421 64.1758C286.483 64.1758 285.713 63.9121 285.109 63.3848C284.512 62.8516 284.213 62.1777 284.213 61.3633C284.213 60.373 284.588 59.6055 285.338 59.0605C286.094 58.5098 287.154 58.2344 288.52 58.2344H290.102V57.4873C290.102 56.9189 289.932 56.4678 289.592 56.1338C289.252 55.7939 288.751 55.624 288.089 55.624C287.509 55.624 287.022 55.7705 286.63 56.0635C286.237 56.3564 286.041 56.7109 286.041 57.127H284.406C284.406 56.6523 284.573 56.1953 284.907 55.7559C285.247 55.3105 285.704 54.959 286.278 54.7012C286.858 54.4434 287.494 54.3145 288.186 54.3145C289.281 54.3145 290.14 54.5898 290.761 55.1406C291.382 55.6855 291.704 56.4385 291.728 57.3994V61.7764C291.728 62.6494 291.839 63.3438 292.062 63.8594V64H290.356ZM287.658 62.7607C288.168 62.7607 288.651 62.6289 289.108 62.3652C289.565 62.1016 289.896 61.7588 290.102 61.3369V59.3857H288.827C286.835 59.3857 285.839 59.9688 285.839 61.1348C285.839 61.6445 286.009 62.043 286.349 62.3301C286.688 62.6172 287.125 62.7607 287.658 62.7607ZM297.273 61.7939L299.629 54.4902H301.29L297.88 64H296.641L293.195 54.4902H294.856L297.273 61.7939ZM308.585 64C308.491 63.8125 308.415 63.4785 308.356 62.998C307.601 63.7832 306.698 64.1758 305.649 64.1758C304.712 64.1758 303.941 63.9121 303.338 63.3848C302.74 62.8516 302.441 62.1777 302.441 61.3633C302.441 60.373 302.816 59.6055 303.566 59.0605C304.322 58.5098 305.383 58.2344 306.748 58.2344H308.33V57.4873C308.33 56.9189 308.16 56.4678 307.82 56.1338C307.48 55.7939 306.979 55.624 306.317 55.624C305.737 55.624 305.251 55.7705 304.858 56.0635C304.466 56.3564 304.27 56.7109 304.27 57.127H302.635C302.635 56.6523 302.802 56.1953 303.136 55.7559C303.476 55.3105 303.933 54.959 304.507 54.7012C305.087 54.4434 305.723 54.3145 306.414 54.3145C307.51 54.3145 308.368 54.5898 308.989 55.1406C309.61 55.6855 309.933 56.4385 309.956 57.3994V61.7764C309.956 62.6494 310.067 63.3438 310.29 63.8594V64H308.585ZM305.887 62.7607C306.396 62.7607 306.88 62.6289 307.337 62.3652C307.794 62.1016 308.125 61.7588 308.33 61.3369V59.3857H307.056C305.063 59.3857 304.067 59.9688 304.067 61.1348C304.067 61.6445 304.237 62.043 304.577 62.3301C304.917 62.6172 305.354 62.7607 305.887 62.7607ZM316.53 58.2959C315.083 57.8799 314.028 57.3701 313.366 56.7666C312.71 56.1572 312.382 55.4072 312.382 54.5166C312.382 53.5088 312.783 52.6768 313.586 52.0205C314.395 51.3584 315.443 51.0273 316.732 51.0273C317.611 51.0273 318.394 51.1973 319.079 51.5371C319.771 51.877 320.304 52.3457 320.679 52.9434C321.06 53.541 321.25 54.1943 321.25 54.9033H319.554C319.554 54.1299 319.308 53.5234 318.815 53.084C318.323 52.6387 317.629 52.416 316.732 52.416C315.9 52.416 315.25 52.6006 314.781 52.9697C314.318 53.333 314.087 53.8398 314.087 54.4902C314.087 55.0117 314.307 55.4541 314.746 55.8174C315.191 56.1748 315.944 56.5029 317.005 56.8018C318.071 57.1006 318.903 57.4316 319.501 57.7949C320.104 58.1523 320.55 58.5713 320.837 59.0518C321.13 59.5322 321.276 60.0977 321.276 60.748C321.276 61.7852 320.872 62.6172 320.063 63.2441C319.255 63.8652 318.174 64.1758 316.82 64.1758C315.941 64.1758 315.121 64.0088 314.359 63.6748C313.598 63.335 313.009 62.8721 312.593 62.2861C312.183 61.7002 311.978 61.0352 311.978 60.291H313.674C313.674 61.0645 313.958 61.6768 314.526 62.1279C315.101 62.5732 315.865 62.7959 316.82 62.7959C317.711 62.7959 318.394 62.6143 318.868 62.251C319.343 61.8877 319.58 61.3926 319.58 60.7656C319.58 60.1387 319.36 59.6553 318.921 59.3154C318.481 58.9697 317.685 58.6299 316.53 58.2959ZM327.007 62.8486C327.587 62.8486 328.094 62.6729 328.527 62.3213C328.961 61.9697 329.201 61.5303 329.248 61.0029H330.786C330.757 61.5479 330.569 62.0664 330.224 62.5586C329.878 63.0508 329.415 63.4434 328.835 63.7363C328.261 64.0293 327.651 64.1758 327.007 64.1758C325.712 64.1758 324.681 63.7451 323.913 62.8838C323.151 62.0166 322.771 60.833 322.771 59.333V59.0605C322.771 58.1348 322.94 57.3115 323.28 56.5908C323.62 55.8701 324.106 55.3105 324.739 54.9121C325.378 54.5137 326.131 54.3145 326.998 54.3145C328.064 54.3145 328.949 54.6338 329.652 55.2725C330.361 55.9111 330.739 56.7402 330.786 57.7598H329.248C329.201 57.1445 328.967 56.6406 328.545 56.248C328.129 55.8496 327.613 55.6504 326.998 55.6504C326.172 55.6504 325.53 55.9492 325.073 56.5469C324.622 57.1387 324.396 57.9971 324.396 59.1221V59.4297C324.396 60.5254 324.622 61.3691 325.073 61.9609C325.524 62.5527 326.169 62.8486 327.007 62.8486ZM337.211 55.9492C336.965 55.9082 336.698 55.8877 336.411 55.8877C335.345 55.8877 334.621 56.3418 334.24 57.25V64H332.614V54.4902H334.196L334.223 55.5889C334.756 54.7393 335.512 54.3145 336.49 54.3145C336.807 54.3145 337.047 54.3555 337.211 54.4375V55.9492ZM340.48 64H338.854V54.4902H340.48V64ZM338.723 51.9678C338.723 51.7041 338.802 51.4814 338.96 51.2998C339.124 51.1182 339.364 51.0273 339.681 51.0273C339.997 51.0273 340.237 51.1182 340.401 51.2998C340.565 51.4814 340.647 51.7041 340.647 51.9678C340.647 52.2314 340.565 52.4512 340.401 52.627C340.237 52.8027 339.997 52.8906 339.681 52.8906C339.364 52.8906 339.124 52.8027 338.96 52.627C338.802 52.4512 338.723 52.2314 338.723 51.9678ZM351.124 59.3506C351.124 60.7979 350.793 61.9639 350.131 62.8486C349.469 63.7334 348.572 64.1758 347.441 64.1758C346.287 64.1758 345.379 63.8096 344.717 63.0771V67.6562H343.091V54.4902H344.576L344.655 55.5449C345.317 54.7246 346.237 54.3145 347.415 54.3145C348.558 54.3145 349.46 54.7451 350.122 55.6064C350.79 56.4678 351.124 57.666 351.124 59.2012V59.3506ZM349.498 59.166C349.498 58.0938 349.27 57.2471 348.812 56.626C348.355 56.0049 347.729 55.6943 346.932 55.6943C345.947 55.6943 345.209 56.1309 344.717 57.0039V61.5479C345.203 62.415 345.947 62.8486 346.949 62.8486C347.729 62.8486 348.347 62.541 348.804 61.9258C349.267 61.3047 349.498 60.3848 349.498 59.166ZM355.404 52.1875V54.4902H357.18V55.7471H355.404V61.6445C355.404 62.0254 355.483 62.3125 355.642 62.5059C355.8 62.6934 356.069 62.7871 356.45 62.7871C356.638 62.7871 356.896 62.752 357.224 62.6816V64C356.796 64.1172 356.38 64.1758 355.976 64.1758C355.249 64.1758 354.701 63.9561 354.332 63.5166C353.963 63.0771 353.778 62.4531 353.778 61.6445V55.7471H352.047V54.4902H353.778V52.1875H355.404Z" fill="black"/>
<path d="M285.675 202.085H280.129V206.62H286.571V208H278.441V195.203H286.483V196.592H280.129V200.705H285.675V202.085ZM291.607 201.962L293.717 198.49H295.615L292.504 203.192L295.712 208H293.831L291.634 204.44L289.437 208H287.547L290.755 203.192L287.644 198.49H289.524L291.607 201.962ZM301.117 208.176C299.828 208.176 298.779 207.754 297.971 206.91C297.162 206.061 296.758 204.927 296.758 203.509V203.21C296.758 202.267 296.937 201.426 297.294 200.688C297.657 199.943 298.161 199.363 298.806 198.947C299.456 198.525 300.159 198.314 300.915 198.314C302.151 198.314 303.112 198.722 303.798 199.536C304.483 200.351 304.826 201.517 304.826 203.034V203.711H298.384C298.407 204.648 298.68 205.407 299.201 205.987C299.729 206.562 300.396 206.849 301.205 206.849C301.779 206.849 302.266 206.731 302.664 206.497C303.062 206.263 303.411 205.952 303.71 205.565L304.703 206.339C303.906 207.563 302.711 208.176 301.117 208.176ZM300.915 199.65C300.259 199.65 299.708 199.891 299.263 200.371C298.817 200.846 298.542 201.514 298.437 202.375H303.2V202.252C303.153 201.426 302.931 200.787 302.532 200.336C302.134 199.879 301.595 199.65 300.915 199.65ZM310.53 206.849C311.11 206.849 311.617 206.673 312.051 206.321C312.484 205.97 312.725 205.53 312.771 205.003H314.31C314.28 205.548 314.093 206.066 313.747 206.559C313.401 207.051 312.938 207.443 312.358 207.736C311.784 208.029 311.175 208.176 310.53 208.176C309.235 208.176 308.204 207.745 307.437 206.884C306.675 206.017 306.294 204.833 306.294 203.333V203.061C306.294 202.135 306.464 201.312 306.804 200.591C307.144 199.87 307.63 199.311 308.263 198.912C308.901 198.514 309.654 198.314 310.521 198.314C311.588 198.314 312.473 198.634 313.176 199.272C313.885 199.911 314.263 200.74 314.31 201.76H312.771C312.725 201.145 312.49 200.641 312.068 200.248C311.652 199.85 311.137 199.65 310.521 199.65C309.695 199.65 309.054 199.949 308.597 200.547C308.146 201.139 307.92 201.997 307.92 203.122V203.43C307.92 204.525 308.146 205.369 308.597 205.961C309.048 206.553 309.692 206.849 310.53 206.849ZM322.009 207.06C321.376 207.804 320.447 208.176 319.223 208.176C318.209 208.176 317.436 207.883 316.902 207.297C316.375 206.705 316.108 205.832 316.103 204.678V198.49H317.729V204.634C317.729 206.075 318.314 206.796 319.486 206.796C320.729 206.796 321.555 206.333 321.965 205.407V198.49H323.591V208H322.044L322.009 207.06ZM328.275 196.188V198.49H330.051V199.747H328.275V205.645C328.275 206.025 328.354 206.312 328.513 206.506C328.671 206.693 328.94 206.787 329.321 206.787C329.509 206.787 329.767 206.752 330.095 206.682V208C329.667 208.117 329.251 208.176 328.847 208.176C328.12 208.176 327.572 207.956 327.203 207.517C326.834 207.077 326.649 206.453 326.649 205.645V199.747H324.918V198.49H326.649V196.188H328.275ZM335.904 208.176C334.615 208.176 333.566 207.754 332.758 206.91C331.949 206.061 331.545 204.927 331.545 203.509V203.21C331.545 202.267 331.724 201.426 332.081 200.688C332.444 199.943 332.948 199.363 333.593 198.947C334.243 198.525 334.946 198.314 335.702 198.314C336.938 198.314 337.899 198.722 338.585 199.536C339.271 200.351 339.613 201.517 339.613 203.034V203.711H333.171C333.194 204.648 333.467 205.407 333.988 205.987C334.516 206.562 335.184 206.849 335.992 206.849C336.566 206.849 337.053 206.731 337.451 206.497C337.85 206.263 338.198 205.952 338.497 205.565L339.49 206.339C338.693 207.563 337.498 208.176 335.904 208.176ZM335.702 199.65C335.046 199.65 334.495 199.891 334.05 200.371C333.604 200.846 333.329 201.514 333.224 202.375H337.987V202.252C337.94 201.426 337.718 200.787 337.319 200.336C336.921 199.879 336.382 199.65 335.702 199.65ZM351.584 195.203H353.28V204.265C353.28 205.489 352.911 206.447 352.173 207.139C351.44 207.83 350.462 208.176 349.237 208.176C347.966 208.176 346.976 207.851 346.267 207.2C345.558 206.55 345.203 205.639 345.203 204.467H346.891C346.891 205.199 347.09 205.771 347.488 206.181C347.893 206.591 348.476 206.796 349.237 206.796C349.935 206.796 350.497 206.576 350.925 206.137C351.358 205.697 351.578 205.082 351.584 204.291V195.203ZM361.771 208C361.677 207.812 361.601 207.479 361.542 206.998C360.786 207.783 359.884 208.176 358.835 208.176C357.897 208.176 357.127 207.912 356.523 207.385C355.926 206.852 355.627 206.178 355.627 205.363C355.627 204.373 356.002 203.605 356.752 203.061C357.508 202.51 358.568 202.234 359.934 202.234H361.516V201.487C361.516 200.919 361.346 200.468 361.006 200.134C360.666 199.794 360.165 199.624 359.503 199.624C358.923 199.624 358.437 199.771 358.044 200.063C357.651 200.356 357.455 200.711 357.455 201.127H355.82C355.82 200.652 355.987 200.195 356.321 199.756C356.661 199.311 357.118 198.959 357.692 198.701C358.272 198.443 358.908 198.314 359.6 198.314C360.695 198.314 361.554 198.59 362.175 199.141C362.796 199.686 363.118 200.438 363.142 201.399V205.776C363.142 206.649 363.253 207.344 363.476 207.859V208H361.771ZM359.072 206.761C359.582 206.761 360.065 206.629 360.522 206.365C360.979 206.102 361.311 205.759 361.516 205.337V203.386H360.241C358.249 203.386 357.253 203.969 357.253 205.135C357.253 205.645 357.423 206.043 357.763 206.33C358.103 206.617 358.539 206.761 359.072 206.761ZM368.688 205.794L371.043 198.49H372.704L369.294 208H368.055L364.609 198.49H366.271L368.688 205.794ZM379.999 208C379.905 207.812 379.829 207.479 379.771 206.998C379.015 207.783 378.112 208.176 377.063 208.176C376.126 208.176 375.355 207.912 374.752 207.385C374.154 206.852 373.855 206.178 373.855 205.363C373.855 204.373 374.23 203.605 374.98 203.061C375.736 202.51 376.797 202.234 378.162 202.234H379.744V201.487C379.744 200.919 379.574 200.468 379.234 200.134C378.895 199.794 378.394 199.624 377.731 199.624C377.151 199.624 376.665 199.771 376.272 200.063C375.88 200.356 375.684 200.711 375.684 201.127H374.049C374.049 200.652 374.216 200.195 374.55 199.756C374.89 199.311 375.347 198.959 375.921 198.701C376.501 198.443 377.137 198.314 377.828 198.314C378.924 198.314 379.782 198.59 380.403 199.141C381.024 199.686 381.347 200.438 381.37 201.399V205.776C381.37 206.649 381.481 207.344 381.704 207.859V208H379.999ZM377.301 206.761C377.811 206.761 378.294 206.629 378.751 206.365C379.208 206.102 379.539 205.759 379.744 205.337V203.386H378.47C376.478 203.386 375.481 203.969 375.481 205.135C375.481 205.645 375.651 206.043 375.991 206.33C376.331 206.617 376.768 206.761 377.301 206.761ZM387.944 202.296C386.497 201.88 385.442 201.37 384.78 200.767C384.124 200.157 383.796 199.407 383.796 198.517C383.796 197.509 384.197 196.677 385 196.021C385.809 195.358 386.857 195.027 388.146 195.027C389.025 195.027 389.808 195.197 390.493 195.537C391.185 195.877 391.718 196.346 392.093 196.943C392.474 197.541 392.664 198.194 392.664 198.903H390.968C390.968 198.13 390.722 197.523 390.229 197.084C389.737 196.639 389.043 196.416 388.146 196.416C387.314 196.416 386.664 196.601 386.195 196.97C385.732 197.333 385.501 197.84 385.501 198.49C385.501 199.012 385.721 199.454 386.16 199.817C386.605 200.175 387.358 200.503 388.419 200.802C389.485 201.101 390.317 201.432 390.915 201.795C391.519 202.152 391.964 202.571 392.251 203.052C392.544 203.532 392.69 204.098 392.69 204.748C392.69 205.785 392.286 206.617 391.478 207.244C390.669 207.865 389.588 208.176 388.234 208.176C387.355 208.176 386.535 208.009 385.773 207.675C385.012 207.335 384.423 206.872 384.007 206.286C383.597 205.7 383.392 205.035 383.392 204.291H385.088C385.088 205.064 385.372 205.677 385.94 206.128C386.515 206.573 387.279 206.796 388.234 206.796C389.125 206.796 389.808 206.614 390.282 206.251C390.757 205.888 390.994 205.393 390.994 204.766C390.994 204.139 390.774 203.655 390.335 203.315C389.896 202.97 389.099 202.63 387.944 202.296ZM398.421 206.849C399.001 206.849 399.508 206.673 399.941 206.321C400.375 205.97 400.615 205.53 400.662 205.003H402.2C402.171 205.548 401.983 206.066 401.638 206.559C401.292 207.051 400.829 207.443 400.249 207.736C399.675 208.029 399.065 208.176 398.421 208.176C397.126 208.176 396.095 207.745 395.327 206.884C394.565 206.017 394.185 204.833 394.185 203.333V203.061C394.185 202.135 394.354 201.312 394.694 200.591C395.034 199.87 395.521 199.311 396.153 198.912C396.792 198.514 397.545 198.314 398.412 198.314C399.479 198.314 400.363 198.634 401.066 199.272C401.775 199.911 402.153 200.74 402.2 201.76H400.662C400.615 201.145 400.381 200.641 399.959 200.248C399.543 199.85 399.027 199.65 398.412 199.65C397.586 199.65 396.944 199.949 396.487 200.547C396.036 201.139 395.811 201.997 395.811 203.122V203.43C395.811 204.525 396.036 205.369 396.487 205.961C396.938 206.553 397.583 206.849 398.421 206.849ZM408.625 199.949C408.379 199.908 408.112 199.888 407.825 199.888C406.759 199.888 406.035 200.342 405.654 201.25V208H404.028V198.49H405.61L405.637 199.589C406.17 198.739 406.926 198.314 407.904 198.314C408.221 198.314 408.461 198.355 408.625 198.438V199.949ZM411.895 208H410.269V198.49H411.895V208ZM410.137 195.968C410.137 195.704 410.216 195.481 410.374 195.3C410.538 195.118 410.778 195.027 411.095 195.027C411.411 195.027 411.651 195.118 411.815 195.3C411.979 195.481 412.062 195.704 412.062 195.968C412.062 196.231 411.979 196.451 411.815 196.627C411.651 196.803 411.411 196.891 411.095 196.891C410.778 196.891 410.538 196.803 410.374 196.627C410.216 196.451 410.137 196.231 410.137 195.968ZM422.538 203.351C422.538 204.798 422.207 205.964 421.545 206.849C420.883 207.733 419.986 208.176 418.855 208.176C417.701 208.176 416.793 207.81 416.131 207.077V211.656H414.505V198.49H415.99L416.069 199.545C416.731 198.725 417.651 198.314 418.829 198.314C419.972 198.314 420.874 198.745 421.536 199.606C422.204 200.468 422.538 201.666 422.538 203.201V203.351ZM420.912 203.166C420.912 202.094 420.684 201.247 420.227 200.626C419.77 200.005 419.143 199.694 418.346 199.694C417.361 199.694 416.623 200.131 416.131 201.004V205.548C416.617 206.415 417.361 206.849 418.363 206.849C419.143 206.849 419.761 206.541 420.218 205.926C420.681 205.305 420.912 204.385 420.912 203.166ZM426.818 196.188V198.49H428.594V199.747H426.818V205.645C426.818 206.025 426.897 206.312 427.056 206.506C427.214 206.693 427.483 206.787 427.864 206.787C428.052 206.787 428.31 206.752 428.638 206.682V208C428.21 208.117 427.794 208.176 427.39 208.176C426.663 208.176 426.115 207.956 425.746 207.517C425.377 207.077 425.192 206.453 425.192 205.645V199.747H423.461V198.49H425.192V196.188H426.818ZM436.732 208H435.106V198.49H436.732V208ZM434.975 195.968C434.975 195.704 435.054 195.481 435.212 195.3C435.376 195.118 435.616 195.027 435.933 195.027C436.249 195.027 436.489 195.118 436.653 195.3C436.817 195.481 436.899 195.704 436.899 195.968C436.899 196.231 436.817 196.451 436.653 196.627C436.489 196.803 436.249 196.891 435.933 196.891C435.616 196.891 435.376 196.803 435.212 196.627C435.054 196.451 434.975 196.231 434.975 195.968ZM440.881 198.49L440.934 199.686C441.66 198.771 442.609 198.314 443.781 198.314C445.791 198.314 446.805 199.448 446.822 201.716V208H445.196V201.707C445.19 201.021 445.032 200.515 444.722 200.187C444.417 199.858 443.939 199.694 443.289 199.694C442.762 199.694 442.299 199.835 441.9 200.116C441.502 200.397 441.191 200.767 440.969 201.224V208H439.343V198.49H440.881ZM281.052 217.188V219.49H282.827V220.747H281.052V226.645C281.052 227.025 281.131 227.312 281.289 227.506C281.447 227.693 281.717 227.787 282.098 227.787C282.285 227.787 282.543 227.752 282.871 227.682V229C282.443 229.117 282.027 229.176 281.623 229.176C280.896 229.176 280.349 228.956 279.979 228.517C279.61 228.077 279.426 227.453 279.426 226.645V220.747H277.694V219.49H279.426V217.188H281.052ZM286.36 220.642C287.081 219.757 288.019 219.314 289.173 219.314C291.183 219.314 292.196 220.448 292.214 222.716V229H290.588V222.707C290.582 222.021 290.424 221.515 290.113 221.187C289.809 220.858 289.331 220.694 288.681 220.694C288.153 220.694 287.69 220.835 287.292 221.116C286.894 221.397 286.583 221.767 286.36 222.224V229H284.734V215.5H286.36V220.642ZM298.595 229.176C297.306 229.176 296.257 228.754 295.448 227.91C294.64 227.061 294.235 225.927 294.235 224.509V224.21C294.235 223.267 294.414 222.426 294.771 221.688C295.135 220.943 295.639 220.363 296.283 219.947C296.934 219.525 297.637 219.314 298.393 219.314C299.629 219.314 300.59 219.722 301.275 220.536C301.961 221.351 302.304 222.517 302.304 224.034V224.711H295.861C295.885 225.648 296.157 226.407 296.679 226.987C297.206 227.562 297.874 227.849 298.683 227.849C299.257 227.849 299.743 227.731 300.142 227.497C300.54 227.263 300.889 226.952 301.188 226.565L302.181 227.339C301.384 228.563 300.188 229.176 298.595 229.176ZM298.393 220.65C297.736 220.65 297.186 220.891 296.74 221.371C296.295 221.846 296.02 222.514 295.914 223.375H300.678V223.252C300.631 222.426 300.408 221.787 300.01 221.336C299.611 220.879 299.072 220.65 298.393 220.65ZM311.796 226.794L314.151 219.49H315.812L312.402 229H311.163L307.718 219.49H309.379L311.796 226.794ZM319.144 229H317.518V219.49H319.144V229ZM317.386 216.968C317.386 216.704 317.465 216.481 317.623 216.3C317.787 216.118 318.027 216.027 318.344 216.027C318.66 216.027 318.9 216.118 319.064 216.3C319.229 216.481 319.311 216.704 319.311 216.968C319.311 217.231 319.229 217.451 319.064 217.627C318.9 217.803 318.66 217.891 318.344 217.891C318.027 217.891 317.787 217.803 317.623 217.627C317.465 217.451 317.386 217.231 317.386 216.968ZM325.568 227.849C326.148 227.849 326.655 227.673 327.089 227.321C327.522 226.97 327.763 226.53 327.81 226.003H329.348C329.318 226.548 329.131 227.066 328.785 227.559C328.439 228.051 327.977 228.443 327.396 228.736C326.822 229.029 326.213 229.176 325.568 229.176C324.273 229.176 323.242 228.745 322.475 227.884C321.713 227.017 321.332 225.833 321.332 224.333V224.061C321.332 223.135 321.502 222.312 321.842 221.591C322.182 220.87 322.668 220.311 323.301 219.912C323.939 219.514 324.692 219.314 325.56 219.314C326.626 219.314 327.511 219.634 328.214 220.272C328.923 220.911 329.301 221.74 329.348 222.76H327.81C327.763 222.145 327.528 221.641 327.106 221.248C326.69 220.85 326.175 220.65 325.56 220.65C324.733 220.65 324.092 220.949 323.635 221.547C323.184 222.139 322.958 222.997 322.958 224.122V224.43C322.958 225.525 323.184 226.369 323.635 226.961C324.086 227.553 324.73 227.849 325.568 227.849ZM333.382 217.188V219.49H335.157V220.747H333.382V226.645C333.382 227.025 333.461 227.312 333.619 227.506C333.777 227.693 334.047 227.787 334.428 227.787C334.615 227.787 334.873 227.752 335.201 227.682V229C334.773 229.117 334.357 229.176 333.953 229.176C333.227 229.176 332.679 228.956 332.31 228.517C331.94 228.077 331.756 227.453 331.756 226.645V220.747H330.024V219.49H331.756V217.188H333.382ZM338.831 229H337.205V219.49H338.831V229ZM337.073 216.968C337.073 216.704 337.152 216.481 337.311 216.3C337.475 216.118 337.715 216.027 338.031 216.027C338.348 216.027 338.588 216.118 338.752 216.3C338.916 216.481 338.998 216.704 338.998 216.968C338.998 217.231 338.916 217.451 338.752 217.627C338.588 217.803 338.348 217.891 338.031 217.891C337.715 217.891 337.475 217.803 337.311 217.627C337.152 217.451 337.073 217.231 337.073 216.968ZM342.971 219.49L343.015 220.545C343.712 219.725 344.652 219.314 345.836 219.314C347.166 219.314 348.071 219.824 348.552 220.844C348.868 220.387 349.278 220.018 349.782 219.736C350.292 219.455 350.893 219.314 351.584 219.314C353.67 219.314 354.73 220.419 354.766 222.628V229H353.14V222.725C353.14 222.045 352.984 221.538 352.674 221.204C352.363 220.864 351.842 220.694 351.109 220.694C350.506 220.694 350.005 220.876 349.606 221.239C349.208 221.597 348.977 222.08 348.912 222.689V229H347.277V222.769C347.277 221.386 346.601 220.694 345.247 220.694C344.181 220.694 343.451 221.148 343.059 222.057V229H341.433V219.49H342.971ZM362.764 226.478C362.764 226.038 362.597 225.698 362.263 225.458C361.935 225.212 361.357 225.001 360.531 224.825C359.711 224.649 359.058 224.438 358.571 224.192C358.091 223.946 357.733 223.653 357.499 223.313C357.271 222.974 357.156 222.569 357.156 222.101C357.156 221.321 357.484 220.662 358.141 220.123C358.803 219.584 359.646 219.314 360.672 219.314C361.75 219.314 362.623 219.593 363.291 220.149C363.965 220.706 364.302 221.418 364.302 222.285H362.667C362.667 221.84 362.477 221.456 362.096 221.134C361.721 220.812 361.246 220.65 360.672 220.65C360.08 220.65 359.617 220.779 359.283 221.037C358.949 221.295 358.782 221.632 358.782 222.048C358.782 222.44 358.938 222.736 359.248 222.936C359.559 223.135 360.118 223.325 360.927 223.507C361.741 223.688 362.4 223.905 362.904 224.157C363.408 224.409 363.78 224.714 364.021 225.071C364.267 225.423 364.39 225.854 364.39 226.363C364.39 227.213 364.05 227.896 363.37 228.411C362.69 228.921 361.809 229.176 360.725 229.176C359.963 229.176 359.289 229.041 358.703 228.771C358.117 228.502 357.657 228.127 357.323 227.646C356.995 227.16 356.831 226.636 356.831 226.073H358.457C358.486 226.618 358.703 227.052 359.107 227.374C359.518 227.69 360.057 227.849 360.725 227.849C361.34 227.849 361.832 227.726 362.201 227.479C362.576 227.228 362.764 226.894 362.764 226.478ZM366.622 219.807L365.699 219.174C366.244 218.412 366.525 217.609 366.543 216.766V215.5H368.151V216.643C368.146 217.229 367.999 217.814 367.712 218.4C367.431 218.98 367.067 219.449 366.622 219.807ZM382.627 224.351C382.627 225.804 382.293 226.973 381.625 227.857C380.957 228.736 380.061 229.176 378.936 229.176C377.734 229.176 376.806 228.751 376.149 227.901L376.07 229H374.576V215.5H376.202V220.536C376.858 219.722 377.764 219.314 378.918 219.314C380.072 219.314 380.978 219.751 381.634 220.624C382.296 221.497 382.627 222.692 382.627 224.21V224.351ZM381.001 224.166C381.001 223.059 380.787 222.203 380.359 221.6C379.932 220.996 379.316 220.694 378.514 220.694C377.441 220.694 376.671 221.192 376.202 222.188V226.302C376.7 227.298 377.477 227.796 378.531 227.796C379.311 227.796 379.917 227.494 380.351 226.891C380.784 226.287 381.001 225.379 381.001 224.166ZM389.28 220.949C389.034 220.908 388.768 220.888 388.48 220.888C387.414 220.888 386.69 221.342 386.31 222.25V229H384.684V219.49H386.266L386.292 220.589C386.825 219.739 387.581 219.314 388.56 219.314C388.876 219.314 389.116 219.355 389.28 219.438V220.949ZM390.177 224.157C390.177 223.226 390.358 222.388 390.722 221.644C391.091 220.899 391.601 220.325 392.251 219.921C392.907 219.517 393.654 219.314 394.492 219.314C395.787 219.314 396.833 219.763 397.63 220.659C398.433 221.556 398.834 222.748 398.834 224.236V224.351C398.834 225.276 398.655 226.108 398.298 226.847C397.946 227.579 397.439 228.15 396.777 228.561C396.121 228.971 395.365 229.176 394.51 229.176C393.221 229.176 392.175 228.728 391.372 227.831C390.575 226.935 390.177 225.748 390.177 224.271V224.157ZM391.812 224.351C391.812 225.405 392.055 226.252 392.541 226.891C393.033 227.529 393.689 227.849 394.51 227.849C395.336 227.849 395.992 227.526 396.479 226.882C396.965 226.231 397.208 225.323 397.208 224.157C397.208 223.114 396.959 222.271 396.461 221.626C395.969 220.976 395.312 220.65 394.492 220.65C393.689 220.65 393.042 220.97 392.55 221.608C392.058 222.247 391.812 223.161 391.812 224.351ZM409.293 226.759L411.121 219.49H412.747L409.979 229H408.66L406.349 221.793L404.099 229H402.78L400.021 219.49H401.638L403.51 226.609L405.725 219.49H407.034L409.293 226.759ZM419.945 226.478C419.945 226.038 419.778 225.698 419.444 225.458C419.116 225.212 418.539 225.001 417.713 224.825C416.893 224.649 416.239 224.438 415.753 224.192C415.272 223.946 414.915 223.653 414.681 223.313C414.452 222.974 414.338 222.569 414.338 222.101C414.338 221.321 414.666 220.662 415.322 220.123C415.984 219.584 416.828 219.314 417.854 219.314C418.932 219.314 419.805 219.593 420.473 220.149C421.146 220.706 421.483 221.418 421.483 222.285H419.849C419.849 221.84 419.658 221.456 419.277 221.134C418.902 220.812 418.428 220.65 417.854 220.65C417.262 220.65 416.799 220.779 416.465 221.037C416.131 221.295 415.964 221.632 415.964 222.048C415.964 222.44 416.119 222.736 416.43 222.936C416.74 223.135 417.3 223.325 418.108 223.507C418.923 223.688 419.582 223.905 420.086 224.157C420.59 224.409 420.962 224.714 421.202 225.071C421.448 225.423 421.571 225.854 421.571 226.363C421.571 227.213 421.231 227.896 420.552 228.411C419.872 228.921 418.99 229.176 417.906 229.176C417.145 229.176 416.471 229.041 415.885 228.771C415.299 228.502 414.839 228.127 414.505 227.646C414.177 227.16 414.013 226.636 414.013 226.073H415.639C415.668 226.618 415.885 227.052 416.289 227.374C416.699 227.69 417.238 227.849 417.906 227.849C418.521 227.849 419.014 227.726 419.383 227.479C419.758 227.228 419.945 226.894 419.945 226.478ZM427.636 229.176C426.347 229.176 425.298 228.754 424.489 227.91C423.681 227.061 423.276 225.927 423.276 224.509V224.21C423.276 223.267 423.455 222.426 423.812 221.688C424.176 220.943 424.68 220.363 425.324 219.947C425.975 219.525 426.678 219.314 427.434 219.314C428.67 219.314 429.631 219.722 430.316 220.536C431.002 221.351 431.345 222.517 431.345 224.034V224.711H424.902C424.926 225.648 425.198 226.407 425.72 226.987C426.247 227.562 426.915 227.849 427.724 227.849C428.298 227.849 428.784 227.731 429.183 227.497C429.581 227.263 429.93 226.952 430.229 226.565L431.222 227.339C430.425 228.563 429.229 229.176 427.636 229.176ZM427.434 220.65C426.777 220.65 426.227 220.891 425.781 221.371C425.336 221.846 425.061 222.514 424.955 223.375H429.719V223.252C429.672 222.426 429.449 221.787 429.051 221.336C428.652 220.879 428.113 220.65 427.434 220.65ZM437.831 220.949C437.585 220.908 437.318 220.888 437.031 220.888C435.965 220.888 435.241 221.342 434.86 222.25V229H433.234V219.49H434.816L434.843 220.589C435.376 219.739 436.132 219.314 437.11 219.314C437.427 219.314 437.667 219.355 437.831 219.438V220.949ZM444.871 226.478C444.871 226.038 444.704 225.698 444.37 225.458C444.042 225.212 443.465 225.001 442.639 224.825C441.818 224.649 441.165 224.438 440.679 224.192C440.198 223.946 439.841 223.653 439.606 223.313C439.378 222.974 439.264 222.569 439.264 222.101C439.264 221.321 439.592 220.662 440.248 220.123C440.91 219.584 441.754 219.314 442.779 219.314C443.857 219.314 444.73 219.593 445.398 220.149C446.072 220.706 446.409 221.418 446.409 222.285H444.774C444.774 221.84 444.584 221.456 444.203 221.134C443.828 220.812 443.354 220.65 442.779 220.65C442.188 220.65 441.725 220.779 441.391 221.037C441.057 221.295 440.89 221.632 440.89 222.048C440.89 222.44 441.045 222.736 441.355 222.936C441.666 223.135 442.226 223.325 443.034 223.507C443.849 223.688 444.508 223.905 445.012 224.157C445.516 224.409 445.888 224.714 446.128 225.071C446.374 225.423 446.497 225.854 446.497 226.363C446.497 227.213 446.157 227.896 445.478 228.411C444.798 228.921 443.916 229.176 442.832 229.176C442.07 229.176 441.396 229.041 440.811 228.771C440.225 228.502 439.765 228.127 439.431 227.646C439.103 227.16 438.938 226.636 438.938 226.073H440.564C440.594 226.618 440.811 227.052 441.215 227.374C441.625 227.69 442.164 227.849 442.832 227.849C443.447 227.849 443.939 227.726 444.309 227.479C444.684 227.228 444.871 226.894 444.871 226.478Z" fill="black"/>
</svg>
