<svg width="600" height="300" viewBox="0 0 600 300" fill="none" xmlns="http://www.w3.org/2000/svg">
<rect width="600" height="300" fill="white"/>
<path d="M98.0523 159.678L97.4337 158.396C97.4369 158.348 97.4393 158.299 97.4393 158.25C97.4393 156.798 95.9288 155.459 93.3875 154.387V155.278C93.1397 155.18 92.8817 155.084 92.6129 154.992V154.576C88.981 153.266 83.5743 152.435 77.5348 152.435C72.258 152.435 67.4638 153.07 63.9145 154.104V155.551H63.9144V153.799C60.2782 154.955 58.0237 156.56 58.0237 158.335C58.0237 158.615 58.0801 158.89 58.1886 159.161L57.8182 159.82C57.8182 159.82 57.5214 160.205 58.044 161.017C58.5049 161.733 60.8136 164.537 62.0321 166.005C62.5555 166.758 62.9105 167.221 62.9415 167.176C62.9905 167.105 62.6161 165.692 61.5766 164.08C61.0916 163.214 60.5124 162.067 60.1646 161.22C61.1353 161.834 66.8382 164.706 78.4707 164.694C90.359 164.682 95.6433 160.961 96.2233 160.454C96.0207 161.268 95.3282 162.916 94.7759 164.074C93.8686 165.731 93.5399 167.173 93.5822 167.244C93.609 167.289 93.9186 166.812 94.3752 166.038C95.4375 164.524 97.4507 161.634 97.853 160.898C98.3089 160.063 98.0523 159.678 98.0523 159.678Z" fill="#A52B00"/>
<path d="M101.646 159.67L97.5801 156.675C97.5419 156.542 97.5038 156.408 97.4643 156.276L98.7998 154.341C98.9361 154.145 98.9636 153.889 98.8751 153.664C98.7864 153.441 98.5925 153.281 98.3632 153.242L96.105 152.858C96.0175 152.68 95.9258 152.504 95.8338 152.33L96.7825 150.158C96.8801 149.936 96.8597 149.679 96.7302 149.478C96.6012 149.277 96.3824 149.159 96.1492 149.168L93.8573 149.251C93.7387 149.097 93.6182 148.944 93.4952 148.793L94.0219 146.465C94.0753 146.229 94.0078 145.981 93.8432 145.81C93.6795 145.638 93.4415 145.568 93.2153 145.623L90.983 146.172C90.8385 146.044 90.6915 145.918 90.5429 145.794L90.6232 143.404C90.6318 143.162 90.519 142.932 90.3254 142.798C90.1318 142.663 89.8862 142.643 89.6745 142.743L87.5921 143.733C87.4243 143.637 87.2557 143.542 87.0852 143.449L86.7172 141.094C86.6798 140.856 86.5263 140.653 86.3114 140.56C86.0969 140.467 85.8514 140.497 85.6632 140.639L83.8066 142.032C83.6237 141.971 83.44 141.913 83.2542 141.858L82.4539 139.624C82.3726 139.396 82.1849 139.229 81.956 139.182C81.728 139.136 81.4934 139.215 81.3353 139.391L79.7724 141.14C79.5835 141.118 79.3943 141.098 79.2048 141.082L77.998 139.049C77.8759 138.843 77.66 138.717 77.4272 138.717C77.1952 138.717 76.9789 138.843 76.8575 139.049L75.6505 141.082C75.4608 141.098 75.2708 141.118 75.0823 141.14L73.5194 139.391C73.361 139.215 73.1256 139.136 72.8982 139.182C72.6696 139.23 72.4817 139.396 72.4008 139.624L71.5999 141.858C71.4143 141.913 71.2307 141.972 71.0475 142.032L69.1914 140.639C69.0027 140.497 68.7569 140.467 68.5422 140.56C68.328 140.653 68.1739 140.856 68.1367 141.094L67.7685 143.449C67.5983 143.542 67.4296 143.636 67.2614 143.733L65.1792 142.743C64.9677 142.642 64.7208 142.663 64.5282 142.798C64.3348 142.932 64.2217 143.162 64.2305 143.404L64.3105 145.794C64.1622 145.918 64.0155 146.044 63.8703 146.172L61.6384 145.623C61.4117 145.568 61.174 145.638 61.0099 145.81C60.8448 145.981 60.7779 146.229 60.831 146.465L61.3566 148.793C61.2347 148.944 61.114 149.097 60.9957 149.251L58.7039 149.168C58.4726 149.161 58.2519 149.277 58.1226 149.478C57.9931 149.679 57.9735 149.936 58.0699 150.158L59.0193 152.33C58.9272 152.504 58.8356 152.68 58.7473 152.858L56.4893 153.242C56.2598 153.28 56.0665 153.44 55.9772 153.664C55.8886 153.889 55.9174 154.145 56.0527 154.341L57.3884 156.276C57.3781 156.31 57.3686 156.345 57.3584 156.379L53.5819 160.391C53.5819 160.391 53.003 160.844 53.8456 161.91C54.5887 162.851 58.4038 166.578 60.4188 168.531C61.2697 169.523 61.8528 170.137 61.9137 170.083C62.0098 169.999 61.5051 168.195 59.8289 166.079C58.5368 164.18 56.8598 161.259 57.2531 160.923C57.2531 160.923 57.7004 160.355 58.5978 159.946C58.6307 159.972 58.5639 159.92 58.5978 159.946C58.5978 159.946 77.5374 168.683 95.1056 160.094C97.1125 159.734 98.3274 160.809 98.3274 160.809C98.7464 161.052 97.6615 164.055 96.7693 166.043C95.5559 168.3 95.3779 170.062 95.4808 170.123C95.5458 170.162 95.9872 169.49 96.617 168.421C98.1709 166.255 101.108 162.128 101.646 161.125C102.256 159.988 101.646 159.67 101.646 159.67Z" fill="#F74C00"/>
<path d="M93.3643 158.549C93.3643 158.549 96.0894 158.423 99.6689 154.785L100.176 153.658C100.176 153.658 94.6204 148.132 103.257 144.317C103.257 144.317 102.501 145.553 102.723 150.327C102.723 150.327 105.327 149.422 106.09 145.205C106.09 145.205 109.888 150.213 101.965 154.91C101.965 154.91 98.2475 160.869 93.0071 160.298L93.3643 158.549Z" fill="#F74C00"/>
<path d="M81.0197 155.117C81.0197 155.117 82.9124 153.044 84.8051 155.117C84.8051 155.117 86.2923 157.88 84.8051 159.262C84.8051 159.262 82.3717 161.196 81.0197 159.262C81.0197 159.262 79.3974 157.742 81.0197 155.117Z" fill="black"/>
<path d="M83.2115 155.886C83.2115 156.693 82.7359 157.347 82.1491 157.347C81.5625 157.347 81.0868 156.693 81.0868 155.886C81.0868 155.079 81.5625 154.425 82.1491 154.425C82.7359 154.425 83.2115 155.079 83.2115 155.886Z" fill="white"/>
<path d="M72.5721 154.551C72.5721 154.551 75.8186 153.113 76.7048 156.322C76.7048 156.322 77.633 160.061 74.0386 160.272C74.0386 160.272 69.4551 159.39 72.5721 154.551Z" fill="black"/>
<path d="M74.2027 155.939C74.2027 156.771 73.7122 157.446 73.1071 157.446C72.5022 157.446 72.0115 156.771 72.0115 155.939C72.0115 155.107 72.5022 154.432 73.1071 154.432C73.7122 154.432 74.2027 155.107 74.2027 155.939Z" fill="white"/>
<path d="M76.7331 161.58L80.8734 161.248C80.8734 161.248 80.7331 161.915 80.1929 162.415C80.1929 162.415 78.7688 163.976 77.135 162.285C77.135 162.285 76.8677 161.997 76.7331 161.58Z" fill="black"/>
<path d="M60.1538 157.747C60.1196 157.747 60.0861 157.75 60.0527 157.752C58.7083 157.446 54.9296 156.462 53.9308 154.864C53.9308 154.864 59.0156 149.08 51.0683 145.383L51.9937 151.782C51.9937 151.782 49.5437 150.145 49.015 146.589C49.015 146.589 43.049 150.919 51.6482 155.068C51.6482 155.068 52.4281 157.999 59.9164 160.337L59.9218 160.315C59.9972 160.329 60.0744 160.337 60.1538 160.337C60.8613 160.337 61.435 159.757 61.435 159.042C61.435 158.327 60.8613 157.747 60.1538 157.747Z" fill="#F74C00"/>
<path d="M91.8314 152.015C94.62 148.415 108.908 138.591 97.488 142.107C97.488 142.107 95.6109 142.608 94.6597 142.524C92.2244 142.311 90.5375 140.578 89.4746 138.77C88.136 136.492 87.2274 134.211 85.1143 132.408C81.406 129.244 73.5761 129.152 69.3938 132.408C67.1871 134.126 66.3721 136.492 65.0336 138.77C63.9707 140.578 62.2838 142.311 59.8484 142.524C58.8973 142.608 57.0201 142.107 57.0201 142.107C45.6002 138.591 59.8881 148.415 62.6766 152.015C72.395 149.711 82.1133 149.87 91.8314 152.015V152.015Z" fill="black"/>
<path d="M81.5805 140.19C81.5805 142.292 79.6547 143.996 77.2791 143.996C74.9036 143.996 72.9778 142.292 72.9778 140.19C72.9778 138.087 74.9036 136.383 77.2791 136.383C79.6547 136.383 81.5805 138.087 81.5805 140.19Z" fill="white"/>
<path d="M80.4073 143.947C80.4073 145.476 79.0068 146.715 77.2791 146.715C75.5514 146.715 74.1509 145.476 74.1509 143.947C74.1509 142.418 75.5514 141.178 77.2791 141.178C79.0068 141.178 80.4073 142.418 80.4073 143.947V143.947Z" fill="white"/>
<path d="M76.9663 140.189C76.9663 140.954 76.266 141.574 75.4022 141.574C74.5383 141.574 73.838 140.954 73.838 140.189C73.838 139.425 74.5383 138.805 75.4022 138.805C76.266 138.805 76.9663 139.425 76.9663 140.189Z" fill="black"/>
<path d="M80.7201 140.189C80.7201 140.954 80.0199 141.574 79.156 141.574C78.2922 141.574 77.5919 140.954 77.5919 140.189C77.5919 139.425 78.2922 138.805 79.156 138.805C80.0199 138.805 80.7201 139.425 80.7201 140.189Z" fill="black"/>
<path d="M72.1278 137.606C72.3916 138.429 72.1979 139.187 71.6953 139.3C71.1926 139.412 70.5714 138.837 70.3076 138.014C70.0439 137.191 70.2376 136.433 70.7402 136.321C71.2428 136.208 71.8641 136.784 72.1278 137.606V137.606Z" fill="white"/>
<path d="M70.7584 139.8C69.8544 140.003 68.9978 139.781 68.845 139.305C68.6922 138.829 69.3011 138.279 70.2051 138.077C71.109 137.874 71.9657 138.096 72.1184 138.572C72.2712 139.048 71.6623 139.598 70.7584 139.8Z" fill="white"/>
<path d="M71.4735 137.817L70.6291 139.137L73.4037 140.573L74.2482 139.252L71.4735 137.817Z" fill="white"/>
<path d="M71.4141 142.999C72.3181 143.202 72.927 143.751 72.7742 144.227C72.6214 144.704 71.7648 144.926 70.8608 144.723C69.9569 144.521 69.3479 143.971 69.5007 143.495C69.6535 143.019 70.5102 142.797 71.4141 142.999Z" fill="white"/>
<path d="M72.7836 145.193C72.5199 146.016 71.8986 146.592 71.396 146.479C70.8934 146.367 70.6997 145.608 70.9634 144.786C71.2272 143.963 71.8484 143.388 72.3511 143.5C72.8537 143.613 73.0474 144.371 72.7836 145.193Z" fill="white"/>
<path d="M71.2932 143.675L72.1376 144.996L74.9123 143.56L74.0678 142.24L71.2932 143.675Z" fill="white"/>
<path d="M83.8039 139.807C82.8999 139.605 82.291 139.055 82.4438 138.579C82.5966 138.103 83.4532 137.881 84.3572 138.083C85.2611 138.285 85.8701 138.835 85.7173 139.311C85.5645 139.787 84.7078 140.009 83.8039 139.807V139.807Z" fill="white"/>
<path d="M82.4343 137.613C82.6981 136.79 83.3193 136.214 83.822 136.327C84.3246 136.44 84.5183 137.198 84.2545 138.02C83.9908 138.843 83.3695 139.419 82.8669 139.306C82.3643 139.193 82.1706 138.435 82.4343 137.613Z" fill="white"/>
<path d="M83.9248 139.131L83.0803 137.81L80.3057 139.246L81.1501 140.566L83.9248 139.131Z" fill="white"/>
<path d="M81.7762 145.2C81.5125 144.377 81.7062 143.619 82.2088 143.506C82.7114 143.394 83.3327 143.97 83.5964 144.792C83.8602 145.615 83.6665 146.373 83.1639 146.486C82.6612 146.598 82.04 146.022 81.7762 145.2Z" fill="white"/>
<path d="M83.1457 143.006C84.0496 142.804 84.9063 143.026 85.0591 143.502C85.2119 143.978 84.6029 144.527 83.699 144.73C82.7951 144.932 81.9384 144.71 81.7856 144.234C81.6328 143.758 82.2418 143.208 83.1457 143.006Z" fill="white"/>
<path d="M82.4305 144.989L83.275 143.669L80.5003 142.234L79.6559 143.554L82.4305 144.989Z" fill="white"/>
<path d="M76.4125 142.733L77.2791 141.494L78.1457 142.733H76.4125V142.733Z" fill="black"/>
<line x1="266.987" y1="8" x2="266.987" y2="292" stroke="black"/>
<rect x="226.5" y="110.5" width="79" height="79" rx="3.5" fill="white" stroke="black"/>
<path d="M251.33 131.592H247.217V143H245.538V131.592H241.434V130.203H251.33V131.592ZM257.843 143C257.749 142.812 257.673 142.479 257.614 141.998C256.858 142.783 255.956 143.176 254.907 143.176C253.97 143.176 253.199 142.912 252.596 142.385C251.998 141.852 251.699 141.178 251.699 140.363C251.699 139.373 252.074 138.605 252.824 138.061C253.58 137.51 254.641 137.234 256.006 137.234H257.588V136.487C257.588 135.919 257.418 135.468 257.078 135.134C256.738 134.794 256.237 134.624 255.575 134.624C254.995 134.624 254.509 134.771 254.116 135.063C253.724 135.356 253.527 135.711 253.527 136.127H251.893C251.893 135.652 252.06 135.195 252.394 134.756C252.733 134.311 253.19 133.959 253.765 133.701C254.345 133.443 254.98 133.314 255.672 133.314C256.768 133.314 257.626 133.59 258.247 134.141C258.868 134.686 259.19 135.438 259.214 136.399V140.776C259.214 141.649 259.325 142.344 259.548 142.859V143H257.843ZM255.145 141.761C255.654 141.761 256.138 141.629 256.595 141.365C257.052 141.102 257.383 140.759 257.588 140.337V138.386H256.313C254.321 138.386 253.325 138.969 253.325 140.135C253.325 140.645 253.495 141.043 253.835 141.33C254.175 141.617 254.611 141.761 255.145 141.761ZM266.359 134.949C266.113 134.908 265.847 134.888 265.56 134.888C264.493 134.888 263.77 135.342 263.389 136.25V143H261.763V133.49H263.345L263.371 134.589C263.904 133.739 264.66 133.314 265.639 133.314C265.955 133.314 266.195 133.355 266.359 133.438V134.949ZM267.3 138.166C267.3 136.684 267.643 135.506 268.328 134.633C269.014 133.754 269.922 133.314 271.053 133.314C272.213 133.314 273.118 133.725 273.769 134.545L273.848 133.49H275.333V142.771C275.333 144.002 274.967 144.972 274.234 145.681C273.508 146.39 272.529 146.744 271.299 146.744C270.613 146.744 269.942 146.598 269.286 146.305C268.63 146.012 268.129 145.61 267.783 145.101L268.627 144.125C269.324 144.986 270.177 145.417 271.185 145.417C271.976 145.417 272.591 145.194 273.03 144.749C273.476 144.304 273.698 143.677 273.698 142.868V142.051C273.048 142.801 272.16 143.176 271.035 143.176C269.922 143.176 269.02 142.728 268.328 141.831C267.643 140.935 267.3 139.713 267.3 138.166ZM268.935 138.351C268.935 139.423 269.154 140.267 269.594 140.882C270.033 141.491 270.648 141.796 271.439 141.796C272.465 141.796 273.218 141.33 273.698 140.398V136.057C273.2 135.148 272.453 134.694 271.457 134.694C270.666 134.694 270.048 135.002 269.603 135.617C269.157 136.232 268.935 137.144 268.935 138.351ZM281.74 143.176C280.451 143.176 279.402 142.754 278.594 141.91C277.785 141.061 277.381 139.927 277.381 138.509V138.21C277.381 137.267 277.56 136.426 277.917 135.688C278.28 134.943 278.784 134.363 279.429 133.947C280.079 133.525 280.782 133.314 281.538 133.314C282.774 133.314 283.735 133.722 284.421 134.536C285.106 135.351 285.449 136.517 285.449 138.034V138.711H279.007C279.03 139.648 279.303 140.407 279.824 140.987C280.352 141.562 281.02 141.849 281.828 141.849C282.402 141.849 282.889 141.731 283.287 141.497C283.686 141.263 284.034 140.952 284.333 140.565L285.326 141.339C284.529 142.563 283.334 143.176 281.74 143.176ZM281.538 134.65C280.882 134.65 280.331 134.891 279.886 135.371C279.44 135.846 279.165 136.514 279.06 137.375H283.823V137.252C283.776 136.426 283.554 135.787 283.155 135.336C282.757 134.879 282.218 134.65 281.538 134.65ZM289.545 131.188V133.49H291.32V134.747H289.545V140.645C289.545 141.025 289.624 141.312 289.782 141.506C289.94 141.693 290.21 141.787 290.591 141.787C290.778 141.787 291.036 141.752 291.364 141.682V143C290.937 143.117 290.521 143.176 290.116 143.176C289.39 143.176 288.842 142.956 288.473 142.517C288.104 142.077 287.919 141.453 287.919 140.645V134.747H286.188V133.49H287.919V131.188H289.545ZM245.011 161.759L246.839 154.49H248.465L245.696 164H244.378L242.066 156.793L239.816 164H238.498L235.738 154.49H237.355L239.228 161.609L241.442 154.49H242.752L245.011 161.759ZM254.072 164.176C252.783 164.176 251.734 163.754 250.926 162.91C250.117 162.061 249.713 160.927 249.713 159.509V159.21C249.713 158.267 249.892 157.426 250.249 156.688C250.612 155.943 251.116 155.363 251.761 154.947C252.411 154.525 253.114 154.314 253.87 154.314C255.106 154.314 256.067 154.722 256.753 155.536C257.438 156.351 257.781 157.517 257.781 159.034V159.711H251.339C251.362 160.648 251.635 161.407 252.156 161.987C252.684 162.562 253.352 162.849 254.16 162.849C254.734 162.849 255.221 162.731 255.619 162.497C256.018 162.263 256.366 161.952 256.665 161.565L257.658 162.339C256.861 163.563 255.666 164.176 254.072 164.176ZM253.87 155.65C253.214 155.65 252.663 155.891 252.218 156.371C251.772 156.846 251.497 157.514 251.392 158.375H256.155V158.252C256.108 157.426 255.886 156.787 255.487 156.336C255.089 155.879 254.55 155.65 253.87 155.65ZM267.722 159.351C267.722 160.804 267.388 161.973 266.72 162.857C266.052 163.736 265.155 164.176 264.03 164.176C262.829 164.176 261.9 163.751 261.244 162.901L261.165 164H259.671V150.5H261.297V155.536C261.953 154.722 262.858 154.314 264.013 154.314C265.167 154.314 266.072 154.751 266.729 155.624C267.391 156.497 267.722 157.692 267.722 159.21V159.351ZM266.096 159.166C266.096 158.059 265.882 157.203 265.454 156.6C265.026 155.996 264.411 155.694 263.608 155.694C262.536 155.694 261.766 156.192 261.297 157.188V161.302C261.795 162.298 262.571 162.796 263.626 162.796C264.405 162.796 265.012 162.494 265.445 161.891C265.879 161.287 266.096 160.379 266.096 159.166ZM275.315 161.478C275.315 161.038 275.148 160.698 274.814 160.458C274.486 160.212 273.909 160.001 273.083 159.825C272.263 159.649 271.609 159.438 271.123 159.192C270.643 158.946 270.285 158.653 270.051 158.313C269.822 157.974 269.708 157.569 269.708 157.101C269.708 156.321 270.036 155.662 270.692 155.123C271.354 154.584 272.198 154.314 273.224 154.314C274.302 154.314 275.175 154.593 275.843 155.149C276.517 155.706 276.854 156.418 276.854 157.285H275.219C275.219 156.84 275.028 156.456 274.647 156.134C274.272 155.812 273.798 155.65 273.224 155.65C272.632 155.65 272.169 155.779 271.835 156.037C271.501 156.295 271.334 156.632 271.334 157.048C271.334 157.44 271.489 157.736 271.8 157.936C272.11 158.135 272.67 158.325 273.479 158.507C274.293 158.688 274.952 158.905 275.456 159.157C275.96 159.409 276.332 159.714 276.572 160.071C276.818 160.423 276.941 160.854 276.941 161.363C276.941 162.213 276.602 162.896 275.922 163.411C275.242 163.921 274.36 164.176 273.276 164.176C272.515 164.176 271.841 164.041 271.255 163.771C270.669 163.502 270.209 163.127 269.875 162.646C269.547 162.16 269.383 161.636 269.383 161.073H271.009C271.038 161.618 271.255 162.052 271.659 162.374C272.069 162.69 272.608 162.849 273.276 162.849C273.892 162.849 274.384 162.726 274.753 162.479C275.128 162.228 275.315 161.894 275.315 161.478ZM280.826 164H279.2V154.49H280.826V164ZM279.068 151.968C279.068 151.704 279.147 151.481 279.306 151.3C279.47 151.118 279.71 151.027 280.026 151.027C280.343 151.027 280.583 151.118 280.747 151.3C280.911 151.481 280.993 151.704 280.993 151.968C280.993 152.231 280.911 152.451 280.747 152.627C280.583 152.803 280.343 152.891 280.026 152.891C279.71 152.891 279.47 152.803 279.306 152.627C279.147 152.451 279.068 152.231 279.068 151.968ZM285.643 152.188V154.49H287.418V155.747H285.643V161.645C285.643 162.025 285.722 162.312 285.88 162.506C286.038 162.693 286.308 162.787 286.688 162.787C286.876 162.787 287.134 162.752 287.462 162.682V164C287.034 164.117 286.618 164.176 286.214 164.176C285.487 164.176 284.939 163.956 284.57 163.517C284.201 163.077 284.017 162.453 284.017 161.645V155.747H282.285V154.49H284.017V152.188H285.643ZM293.271 164.176C291.982 164.176 290.934 163.754 290.125 162.91C289.316 162.061 288.912 160.927 288.912 159.509V159.21C288.912 158.267 289.091 157.426 289.448 156.688C289.812 155.943 290.315 155.363 290.96 154.947C291.61 154.525 292.313 154.314 293.069 154.314C294.306 154.314 295.267 154.722 295.952 155.536C296.638 156.351 296.98 157.517 296.98 159.034V159.711H290.538C290.562 160.648 290.834 161.407 291.355 161.987C291.883 162.562 292.551 162.849 293.359 162.849C293.934 162.849 294.42 162.731 294.818 162.497C295.217 162.263 295.565 161.952 295.864 161.565L296.857 162.339C296.061 163.563 294.865 164.176 293.271 164.176ZM293.069 155.65C292.413 155.65 291.862 155.891 291.417 156.371C290.972 156.846 290.696 157.514 290.591 158.375H295.354V158.252C295.308 157.426 295.085 156.787 294.687 156.336C294.288 155.879 293.749 155.65 293.069 155.65Z" fill="black"/>
<rect x="415.5" y="53.5" width="144" height="193" rx="3.5" fill="white" stroke="black"/>
<path d="M452.44 79.5771H447.29V85H445.066V72.2031H453.196V73.9961H447.29V77.8018H452.44V79.5771ZM457.028 85H454.893V75.4902H457.028V85ZM454.761 73.0205C454.761 72.6924 454.863 72.4199 455.068 72.2031C455.279 71.9863 455.578 71.8779 455.965 71.8779C456.352 71.8779 456.65 71.9863 456.861 72.2031C457.072 72.4199 457.178 72.6924 457.178 73.0205C457.178 73.3428 457.072 73.6123 456.861 73.8291C456.65 74.04 456.352 74.1455 455.965 74.1455C455.578 74.1455 455.279 74.04 455.068 73.8291C454.863 73.6123 454.761 73.3428 454.761 73.0205ZM461.634 85H459.498V71.5H461.634V85ZM468.155 85.1758C466.802 85.1758 465.703 84.751 464.859 83.9014C464.021 83.0459 463.603 81.9092 463.603 80.4912V80.2275C463.603 79.2783 463.784 78.4316 464.147 77.6875C464.517 76.9375 465.032 76.3545 465.694 75.9385C466.356 75.5225 467.095 75.3145 467.909 75.3145C469.204 75.3145 470.203 75.7275 470.906 76.5537C471.615 77.3799 471.97 78.5488 471.97 80.0605V80.9219H465.756C465.82 81.707 466.081 82.3281 466.538 82.7852C467.001 83.2422 467.581 83.4707 468.278 83.4707C469.257 83.4707 470.054 83.0752 470.669 82.2842L471.82 83.3828C471.439 83.9512 470.93 84.3936 470.291 84.71C469.658 85.0205 468.946 85.1758 468.155 85.1758ZM467.9 77.0283C467.314 77.0283 466.84 77.2334 466.477 77.6436C466.119 78.0537 465.891 78.625 465.791 79.3574H469.86V79.1992C469.813 78.4844 469.623 77.9453 469.289 77.582C468.955 77.2129 468.492 77.0283 467.9 77.0283ZM478.966 82.416C478.966 82.0352 478.808 81.7451 478.491 81.5459C478.181 81.3467 477.662 81.1709 476.936 81.0186C476.209 80.8662 475.603 80.6729 475.116 80.4385C474.05 79.9229 473.517 79.1758 473.517 78.1973C473.517 77.377 473.862 76.6914 474.554 76.1406C475.245 75.5898 476.124 75.3145 477.19 75.3145C478.327 75.3145 479.244 75.5957 479.941 76.1582C480.645 76.7207 480.996 77.4502 480.996 78.3467H478.86C478.86 77.9365 478.708 77.5967 478.403 77.3271C478.099 77.0518 477.694 76.9141 477.19 76.9141C476.722 76.9141 476.338 77.0225 476.039 77.2393C475.746 77.4561 475.6 77.7461 475.6 78.1094C475.6 78.4375 475.737 78.6924 476.013 78.874C476.288 79.0557 476.845 79.2402 477.683 79.4277C478.521 79.6094 479.177 79.8291 479.651 80.0869C480.132 80.3389 480.486 80.6436 480.715 81.001C480.949 81.3584 481.066 81.792 481.066 82.3018C481.066 83.1572 480.712 83.8516 480.003 84.3848C479.294 84.9121 478.365 85.1758 477.217 85.1758C476.438 85.1758 475.743 85.0352 475.134 84.7539C474.524 84.4727 474.05 84.0859 473.71 83.5938C473.37 83.1016 473.2 82.5713 473.2 82.0029H475.274C475.304 82.5068 475.494 82.8965 475.846 83.1719C476.197 83.4414 476.663 83.5762 477.243 83.5762C477.806 83.5762 478.233 83.4707 478.526 83.2598C478.819 83.043 478.966 82.7617 478.966 82.416ZM486.261 81.9414L488.194 75.4902H490.471L486.691 86.4414C486.111 88.041 485.127 88.8408 483.738 88.8408C483.428 88.8408 483.085 88.7881 482.71 88.6826V87.0303L483.114 87.0566C483.653 87.0566 484.058 86.957 484.327 86.7578C484.603 86.5645 484.819 86.2363 484.978 85.7734L485.285 84.9561L481.945 75.4902H484.248L486.261 81.9414ZM497.036 82.416C497.036 82.0352 496.878 81.7451 496.562 81.5459C496.251 81.3467 495.732 81.1709 495.006 81.0186C494.279 80.8662 493.673 80.6729 493.187 80.4385C492.12 79.9229 491.587 79.1758 491.587 78.1973C491.587 77.377 491.933 76.6914 492.624 76.1406C493.315 75.5898 494.194 75.3145 495.261 75.3145C496.397 75.3145 497.314 75.5957 498.012 76.1582C498.715 76.7207 499.066 77.4502 499.066 78.3467H496.931C496.931 77.9365 496.778 77.5967 496.474 77.3271C496.169 77.0518 495.765 76.9141 495.261 76.9141C494.792 76.9141 494.408 77.0225 494.109 77.2393C493.816 77.4561 493.67 77.7461 493.67 78.1094C493.67 78.4375 493.808 78.6924 494.083 78.874C494.358 79.0557 494.915 79.2402 495.753 79.4277C496.591 79.6094 497.247 79.8291 497.722 80.0869C498.202 80.3389 498.557 80.6436 498.785 81.001C499.02 81.3584 499.137 81.792 499.137 82.3018C499.137 83.1572 498.782 83.8516 498.073 84.3848C497.364 84.9121 496.436 85.1758 495.287 85.1758C494.508 85.1758 493.813 85.0352 493.204 84.7539C492.595 84.4727 492.12 84.0859 491.78 83.5938C491.44 83.1016 491.271 82.5713 491.271 82.0029H493.345C493.374 82.5068 493.564 82.8965 493.916 83.1719C494.268 83.4414 494.733 83.5762 495.313 83.5762C495.876 83.5762 496.304 83.4707 496.597 83.2598C496.89 83.043 497.036 82.7617 497.036 82.416ZM503.681 73.1787V75.4902H505.359V77.0723H503.681V82.3809C503.681 82.7441 503.751 83.0078 503.892 83.1719C504.038 83.3301 504.296 83.4092 504.665 83.4092C504.911 83.4092 505.16 83.3799 505.412 83.3213V84.9736C504.926 85.1084 504.457 85.1758 504.006 85.1758C502.365 85.1758 501.545 84.2705 501.545 82.46V77.0723H499.98V75.4902H501.545V73.1787H503.681ZM511.187 85.1758C509.833 85.1758 508.734 84.751 507.891 83.9014C507.053 83.0459 506.634 81.9092 506.634 80.4912V80.2275C506.634 79.2783 506.815 78.4316 507.179 77.6875C507.548 76.9375 508.063 76.3545 508.726 75.9385C509.388 75.5225 510.126 75.3145 510.94 75.3145C512.235 75.3145 513.234 75.7275 513.938 76.5537C514.646 77.3799 515.001 78.5488 515.001 80.0605V80.9219H508.787C508.852 81.707 509.112 82.3281 509.569 82.7852C510.032 83.2422 510.612 83.4707 511.31 83.4707C512.288 83.4707 513.085 83.0752 513.7 82.2842L514.852 83.3828C514.471 83.9512 513.961 84.3936 513.322 84.71C512.689 85.0205 511.978 85.1758 511.187 85.1758ZM510.932 77.0283C510.346 77.0283 509.871 77.2334 509.508 77.6436C509.15 78.0537 508.922 78.625 508.822 79.3574H512.892V79.1992C512.845 78.4844 512.654 77.9453 512.32 77.582C511.986 77.2129 511.523 77.0283 510.932 77.0283ZM518.675 75.4902L518.736 76.4834C519.404 75.7041 520.318 75.3145 521.479 75.3145C522.75 75.3145 523.62 75.8008 524.089 76.7734C524.78 75.8008 525.753 75.3145 527.007 75.3145C528.056 75.3145 528.835 75.6045 529.345 76.1846C529.86 76.7646 530.124 77.6201 530.136 78.751V85H528V78.8125C528 78.209 527.868 77.7666 527.604 77.4854C527.341 77.2041 526.904 77.0635 526.295 77.0635C525.809 77.0635 525.41 77.1953 525.1 77.459C524.795 77.7168 524.581 78.0566 524.458 78.4785L524.467 85H522.331V78.7422C522.302 77.623 521.73 77.0635 520.617 77.0635C519.762 77.0635 519.155 77.4121 518.798 78.1094V85H516.662V75.4902H518.675Z" fill="black"/>
<path d="M422.383 121.977H421.141L425.891 109.625H427.125L422.383 121.977ZM432.195 121.156C431.049 121.156 430.117 120.781 429.398 120.031C428.68 119.276 428.32 118.268 428.32 117.008V116.742C428.32 115.904 428.479 115.156 428.797 114.5C429.12 113.839 429.568 113.323 430.141 112.953C430.719 112.578 431.344 112.391 432.016 112.391C433.115 112.391 433.969 112.753 434.578 113.477C435.188 114.201 435.492 115.237 435.492 116.586V117.188H429.766C429.786 118.021 430.029 118.695 430.492 119.211C430.961 119.721 431.555 119.977 432.273 119.977C432.784 119.977 433.216 119.872 433.57 119.664C433.924 119.456 434.234 119.18 434.5 118.836L435.383 119.523C434.674 120.612 433.612 121.156 432.195 121.156ZM432.016 113.578C431.432 113.578 430.943 113.792 430.547 114.219C430.151 114.641 429.906 115.234 429.812 116H434.047V115.891C434.005 115.156 433.807 114.589 433.453 114.188C433.099 113.781 432.62 113.578 432.016 113.578ZM439.133 110.5V112.547H440.711V113.664H439.133V118.906C439.133 119.245 439.203 119.5 439.344 119.672C439.484 119.839 439.724 119.922 440.062 119.922C440.229 119.922 440.458 119.891 440.75 119.828V121C440.37 121.104 440 121.156 439.641 121.156C438.995 121.156 438.508 120.961 438.18 120.57C437.852 120.18 437.688 119.625 437.688 118.906V113.664H436.148V112.547H437.688V110.5H439.133ZM445.797 119.977C446.312 119.977 446.763 119.82 447.148 119.508C447.534 119.195 447.747 118.805 447.789 118.336H449.156C449.13 118.82 448.964 119.281 448.656 119.719C448.349 120.156 447.938 120.505 447.422 120.766C446.911 121.026 446.37 121.156 445.797 121.156C444.646 121.156 443.729 120.773 443.047 120.008C442.37 119.237 442.031 118.185 442.031 116.852V116.609C442.031 115.786 442.182 115.055 442.484 114.414C442.786 113.773 443.219 113.276 443.781 112.922C444.349 112.568 445.018 112.391 445.789 112.391C446.737 112.391 447.523 112.674 448.148 113.242C448.779 113.81 449.115 114.547 449.156 115.453H447.789C447.747 114.906 447.539 114.458 447.164 114.109C446.794 113.755 446.336 113.578 445.789 113.578C445.055 113.578 444.484 113.844 444.078 114.375C443.677 114.901 443.477 115.664 443.477 116.664V116.938C443.477 117.911 443.677 118.661 444.078 119.188C444.479 119.714 445.052 119.977 445.797 119.977ZM451.07 121.977H449.828L454.578 109.625H455.812L451.07 121.977ZM464.516 116.867C464.516 118.154 464.221 119.19 463.633 119.977C463.044 120.763 462.247 121.156 461.242 121.156C460.216 121.156 459.409 120.831 458.82 120.18V124.25H457.375V112.547H458.695L458.766 113.484C459.354 112.755 460.172 112.391 461.219 112.391C462.234 112.391 463.036 112.773 463.625 113.539C464.219 114.305 464.516 115.37 464.516 116.734V116.867ZM463.07 116.703C463.07 115.75 462.867 114.997 462.461 114.445C462.055 113.893 461.497 113.617 460.789 113.617C459.914 113.617 459.258 114.005 458.82 114.781V118.82C459.253 119.591 459.914 119.977 460.805 119.977C461.497 119.977 462.047 119.703 462.453 119.156C462.865 118.604 463.07 117.786 463.07 116.703ZM471.578 121C471.495 120.833 471.427 120.536 471.375 120.109C470.703 120.807 469.901 121.156 468.969 121.156C468.135 121.156 467.451 120.922 466.914 120.453C466.383 119.979 466.117 119.38 466.117 118.656C466.117 117.776 466.451 117.094 467.117 116.609C467.789 116.12 468.732 115.875 469.945 115.875H471.352V115.211C471.352 114.706 471.201 114.305 470.898 114.008C470.596 113.706 470.151 113.555 469.562 113.555C469.047 113.555 468.615 113.685 468.266 113.945C467.917 114.206 467.742 114.521 467.742 114.891H466.289C466.289 114.469 466.438 114.062 466.734 113.672C467.036 113.276 467.443 112.964 467.953 112.734C468.469 112.505 469.034 112.391 469.648 112.391C470.622 112.391 471.385 112.635 471.938 113.125C472.49 113.609 472.776 114.279 472.797 115.133V119.023C472.797 119.799 472.896 120.417 473.094 120.875V121H471.578ZM469.18 119.898C469.633 119.898 470.062 119.781 470.469 119.547C470.875 119.312 471.169 119.008 471.352 118.633V116.898H470.219C468.448 116.898 467.562 117.417 467.562 118.453C467.562 118.906 467.714 119.26 468.016 119.516C468.318 119.771 468.706 119.898 469.18 119.898ZM479.984 118.758C479.984 118.367 479.836 118.065 479.539 117.852C479.247 117.633 478.734 117.445 478 117.289C477.271 117.133 476.69 116.945 476.258 116.727C475.831 116.508 475.513 116.247 475.305 115.945C475.102 115.643 475 115.284 475 114.867C475 114.174 475.292 113.589 475.875 113.109C476.464 112.63 477.214 112.391 478.125 112.391C479.083 112.391 479.859 112.638 480.453 113.133C481.052 113.628 481.352 114.26 481.352 115.031H479.898C479.898 114.635 479.729 114.294 479.391 114.008C479.057 113.721 478.635 113.578 478.125 113.578C477.599 113.578 477.188 113.693 476.891 113.922C476.594 114.151 476.445 114.451 476.445 114.82C476.445 115.169 476.583 115.432 476.859 115.609C477.135 115.786 477.633 115.956 478.352 116.117C479.076 116.279 479.661 116.471 480.109 116.695C480.557 116.919 480.888 117.19 481.102 117.508C481.32 117.82 481.43 118.203 481.43 118.656C481.43 119.411 481.128 120.018 480.523 120.477C479.919 120.93 479.135 121.156 478.172 121.156C477.495 121.156 476.896 121.036 476.375 120.797C475.854 120.557 475.445 120.224 475.148 119.797C474.857 119.365 474.711 118.898 474.711 118.398H476.156C476.182 118.883 476.375 119.268 476.734 119.555C477.099 119.836 477.578 119.977 478.172 119.977C478.719 119.977 479.156 119.867 479.484 119.648C479.818 119.424 479.984 119.128 479.984 118.758ZM488.234 118.758C488.234 118.367 488.086 118.065 487.789 117.852C487.497 117.633 486.984 117.445 486.25 117.289C485.521 117.133 484.94 116.945 484.508 116.727C484.081 116.508 483.763 116.247 483.555 115.945C483.352 115.643 483.25 115.284 483.25 114.867C483.25 114.174 483.542 113.589 484.125 113.109C484.714 112.63 485.464 112.391 486.375 112.391C487.333 112.391 488.109 112.638 488.703 113.133C489.302 113.628 489.602 114.26 489.602 115.031H488.148C488.148 114.635 487.979 114.294 487.641 114.008C487.307 113.721 486.885 113.578 486.375 113.578C485.849 113.578 485.438 113.693 485.141 113.922C484.844 114.151 484.695 114.451 484.695 114.82C484.695 115.169 484.833 115.432 485.109 115.609C485.385 115.786 485.883 115.956 486.602 116.117C487.326 116.279 487.911 116.471 488.359 116.695C488.807 116.919 489.138 117.19 489.352 117.508C489.57 117.82 489.68 118.203 489.68 118.656C489.68 119.411 489.378 120.018 488.773 120.477C488.169 120.93 487.385 121.156 486.422 121.156C485.745 121.156 485.146 121.036 484.625 120.797C484.104 120.557 483.695 120.224 483.398 119.797C483.107 119.365 482.961 118.898 482.961 118.398H484.406C484.432 118.883 484.625 119.268 484.984 119.555C485.349 119.836 485.828 119.977 486.422 119.977C486.969 119.977 487.406 119.867 487.734 119.648C488.068 119.424 488.234 119.128 488.234 118.758ZM499.047 119.008L500.672 112.547H502.117L499.656 121H498.484L496.43 114.594L494.43 121H493.258L490.805 112.547H492.242L493.906 118.875L495.875 112.547H497.039L499.047 119.008ZM503.242 116.703C503.242 115.406 503.549 114.365 504.164 113.578C504.779 112.786 505.583 112.391 506.578 112.391C507.568 112.391 508.352 112.729 508.93 113.406V109H510.375V121H509.047L508.977 120.094C508.398 120.802 507.594 121.156 506.562 121.156C505.583 121.156 504.784 120.755 504.164 119.953C503.549 119.151 503.242 118.104 503.242 116.812V116.703ZM504.688 116.867C504.688 117.826 504.885 118.576 505.281 119.117C505.677 119.659 506.224 119.93 506.922 119.93C507.839 119.93 508.508 119.518 508.93 118.695V114.812C508.497 114.016 507.833 113.617 506.938 113.617C506.229 113.617 505.677 113.891 505.281 114.438C504.885 114.984 504.688 115.794 504.688 116.867ZM422.383 140.977H421.141L425.891 128.625H427.125L422.383 140.977ZM435.828 135.867C435.828 137.154 435.534 138.19 434.945 138.977C434.357 139.763 433.56 140.156 432.555 140.156C431.529 140.156 430.721 139.831 430.133 139.18V143.25H428.688V131.547H430.008L430.078 132.484C430.667 131.755 431.484 131.391 432.531 131.391C433.547 131.391 434.349 131.773 434.938 132.539C435.531 133.305 435.828 134.37 435.828 135.734V135.867ZM434.383 135.703C434.383 134.75 434.18 133.997 433.773 133.445C433.367 132.893 432.81 132.617 432.102 132.617C431.227 132.617 430.57 133.005 430.133 133.781V137.82C430.565 138.591 431.227 138.977 432.117 138.977C432.81 138.977 433.359 138.703 433.766 138.156C434.177 137.604 434.383 136.786 434.383 135.703ZM441.758 132.844C441.539 132.807 441.302 132.789 441.047 132.789C440.099 132.789 439.456 133.193 439.117 134V140H437.672V131.547H439.078L439.102 132.523C439.576 131.768 440.247 131.391 441.117 131.391C441.398 131.391 441.612 131.427 441.758 131.5V132.844ZM442.555 135.695C442.555 134.867 442.716 134.122 443.039 133.461C443.367 132.799 443.82 132.289 444.398 131.93C444.982 131.57 445.646 131.391 446.391 131.391C447.542 131.391 448.471 131.789 449.18 132.586C449.893 133.383 450.25 134.443 450.25 135.766V135.867C450.25 136.69 450.091 137.43 449.773 138.086C449.461 138.737 449.01 139.245 448.422 139.609C447.839 139.974 447.167 140.156 446.406 140.156C445.26 140.156 444.331 139.758 443.617 138.961C442.909 138.164 442.555 137.109 442.555 135.797V135.695ZM444.008 135.867C444.008 136.805 444.224 137.557 444.656 138.125C445.094 138.693 445.677 138.977 446.406 138.977C447.141 138.977 447.724 138.69 448.156 138.117C448.589 137.539 448.805 136.732 448.805 135.695C448.805 134.768 448.583 134.018 448.141 133.445C447.703 132.867 447.12 132.578 446.391 132.578C445.677 132.578 445.102 132.862 444.664 133.43C444.227 133.997 444.008 134.81 444.008 135.867ZM455.453 138.977C455.969 138.977 456.419 138.82 456.805 138.508C457.19 138.195 457.404 137.805 457.445 137.336H458.812C458.786 137.82 458.62 138.281 458.312 138.719C458.005 139.156 457.594 139.505 457.078 139.766C456.568 140.026 456.026 140.156 455.453 140.156C454.302 140.156 453.385 139.773 452.703 139.008C452.026 138.237 451.688 137.185 451.688 135.852V135.609C451.688 134.786 451.839 134.055 452.141 133.414C452.443 132.773 452.875 132.276 453.438 131.922C454.005 131.568 454.674 131.391 455.445 131.391C456.393 131.391 457.18 131.674 457.805 132.242C458.435 132.81 458.771 133.547 458.812 134.453H457.445C457.404 133.906 457.195 133.458 456.82 133.109C456.451 132.755 455.992 132.578 455.445 132.578C454.711 132.578 454.141 132.844 453.734 133.375C453.333 133.901 453.133 134.664 453.133 135.664V135.938C453.133 136.911 453.333 137.661 453.734 138.188C454.135 138.714 454.708 138.977 455.453 138.977ZM460.727 140.977H459.484L464.234 128.625H465.469L460.727 140.977ZM470.422 138.977C470.938 138.977 471.388 138.82 471.773 138.508C472.159 138.195 472.372 137.805 472.414 137.336H473.781C473.755 137.82 473.589 138.281 473.281 138.719C472.974 139.156 472.562 139.505 472.047 139.766C471.536 140.026 470.995 140.156 470.422 140.156C469.271 140.156 468.354 139.773 467.672 139.008C466.995 138.237 466.656 137.185 466.656 135.852V135.609C466.656 134.786 466.807 134.055 467.109 133.414C467.411 132.773 467.844 132.276 468.406 131.922C468.974 131.568 469.643 131.391 470.414 131.391C471.362 131.391 472.148 131.674 472.773 132.242C473.404 132.81 473.74 133.547 473.781 134.453H472.414C472.372 133.906 472.164 133.458 471.789 133.109C471.419 132.755 470.961 132.578 470.414 132.578C469.68 132.578 469.109 132.844 468.703 133.375C468.302 133.901 468.102 134.664 468.102 135.664V135.938C468.102 136.911 468.302 137.661 468.703 138.188C469.104 138.714 469.677 138.977 470.422 138.977ZM482.547 135.867C482.547 137.154 482.253 138.19 481.664 138.977C481.076 139.763 480.279 140.156 479.273 140.156C478.247 140.156 477.44 139.831 476.852 139.18V143.25H475.406V131.547H476.727L476.797 132.484C477.385 131.755 478.203 131.391 479.25 131.391C480.266 131.391 481.068 131.773 481.656 132.539C482.25 133.305 482.547 134.37 482.547 135.734V135.867ZM481.102 135.703C481.102 134.75 480.898 133.997 480.492 133.445C480.086 132.893 479.529 132.617 478.82 132.617C477.945 132.617 477.289 133.005 476.852 133.781V137.82C477.284 138.591 477.945 138.977 478.836 138.977C479.529 138.977 480.078 138.703 480.484 138.156C480.896 137.604 481.102 136.786 481.102 135.703ZM489.609 139.164C489.047 139.826 488.221 140.156 487.133 140.156C486.232 140.156 485.544 139.896 485.07 139.375C484.602 138.849 484.365 138.073 484.359 137.047V131.547H485.805V137.008C485.805 138.289 486.326 138.93 487.367 138.93C488.471 138.93 489.206 138.518 489.57 137.695V131.547H491.016V140H489.641L489.609 139.164ZM494.789 140H493.344V131.547H494.789V140ZM493.227 129.305C493.227 129.07 493.297 128.872 493.438 128.711C493.583 128.549 493.797 128.469 494.078 128.469C494.359 128.469 494.573 128.549 494.719 128.711C494.865 128.872 494.938 129.07 494.938 129.305C494.938 129.539 494.865 129.734 494.719 129.891C494.573 130.047 494.359 130.125 494.078 130.125C493.797 130.125 493.583 130.047 493.438 129.891C493.297 129.734 493.227 129.539 493.227 129.305ZM498.477 131.547L498.523 132.609C499.169 131.797 500.013 131.391 501.055 131.391C502.841 131.391 503.742 132.398 503.758 134.414V140H502.312V134.406C502.307 133.797 502.167 133.346 501.891 133.055C501.62 132.763 501.195 132.617 500.617 132.617C500.148 132.617 499.737 132.742 499.383 132.992C499.029 133.242 498.753 133.57 498.555 133.977V140H497.109V131.547H498.477ZM506.648 140V132.664H505.312V131.547H506.648V130.68C506.648 129.773 506.891 129.073 507.375 128.578C507.859 128.083 508.544 127.836 509.43 127.836C509.763 127.836 510.094 127.88 510.422 127.969L510.344 129.141C510.099 129.094 509.839 129.07 509.562 129.07C509.094 129.07 508.732 129.208 508.477 129.484C508.221 129.755 508.094 130.146 508.094 130.656V131.547H509.898V132.664H508.094V140H506.648ZM511.117 135.695C511.117 134.867 511.279 134.122 511.602 133.461C511.93 132.799 512.383 132.289 512.961 131.93C513.544 131.57 514.208 131.391 514.953 131.391C516.104 131.391 517.034 131.789 517.742 132.586C518.456 133.383 518.812 134.443 518.812 135.766V135.867C518.812 136.69 518.654 137.43 518.336 138.086C518.023 138.737 517.573 139.245 516.984 139.609C516.401 139.974 515.729 140.156 514.969 140.156C513.823 140.156 512.893 139.758 512.18 138.961C511.471 138.164 511.117 137.109 511.117 135.797V135.695ZM512.57 135.867C512.57 136.805 512.786 137.557 513.219 138.125C513.656 138.693 514.24 138.977 514.969 138.977C515.703 138.977 516.286 138.69 516.719 138.117C517.151 137.539 517.367 136.732 517.367 135.695C517.367 134.768 517.146 134.018 516.703 133.445C516.266 132.867 515.682 132.578 514.953 132.578C514.24 132.578 513.664 132.862 513.227 133.43C512.789 133.997 512.57 134.81 512.57 135.867ZM422.383 159.977H421.141L425.891 147.625H427.125L422.383 159.977ZM432.195 159.156C431.049 159.156 430.117 158.781 429.398 158.031C428.68 157.276 428.32 156.268 428.32 155.008V154.742C428.32 153.904 428.479 153.156 428.797 152.5C429.12 151.839 429.568 151.323 430.141 150.953C430.719 150.578 431.344 150.391 432.016 150.391C433.115 150.391 433.969 150.753 434.578 151.477C435.188 152.201 435.492 153.237 435.492 154.586V155.188H429.766C429.786 156.021 430.029 156.695 430.492 157.211C430.961 157.721 431.555 157.977 432.273 157.977C432.784 157.977 433.216 157.872 433.57 157.664C433.924 157.456 434.234 157.18 434.5 156.836L435.383 157.523C434.674 158.612 433.612 159.156 432.195 159.156ZM432.016 151.578C431.432 151.578 430.943 151.792 430.547 152.219C430.151 152.641 429.906 153.234 429.812 154H434.047V153.891C434.005 153.156 433.807 152.589 433.453 152.188C433.099 151.781 432.62 151.578 432.016 151.578ZM439.133 148.5V150.547H440.711V151.664H439.133V156.906C439.133 157.245 439.203 157.5 439.344 157.672C439.484 157.839 439.724 157.922 440.062 157.922C440.229 157.922 440.458 157.891 440.75 157.828V159C440.37 159.104 440 159.156 439.641 159.156C438.995 159.156 438.508 158.961 438.18 158.57C437.852 158.18 437.688 157.625 437.688 156.906V151.664H436.148V150.547H437.688V148.5H439.133ZM445.797 157.977C446.312 157.977 446.763 157.82 447.148 157.508C447.534 157.195 447.747 156.805 447.789 156.336H449.156C449.13 156.82 448.964 157.281 448.656 157.719C448.349 158.156 447.938 158.505 447.422 158.766C446.911 159.026 446.37 159.156 445.797 159.156C444.646 159.156 443.729 158.773 443.047 158.008C442.37 157.237 442.031 156.185 442.031 154.852V154.609C442.031 153.786 442.182 153.055 442.484 152.414C442.786 151.773 443.219 151.276 443.781 150.922C444.349 150.568 445.018 150.391 445.789 150.391C446.737 150.391 447.523 150.674 448.148 151.242C448.779 151.81 449.115 152.547 449.156 153.453H447.789C447.747 152.906 447.539 152.458 447.164 152.109C446.794 151.755 446.336 151.578 445.789 151.578C445.055 151.578 444.484 151.844 444.078 152.375C443.677 152.901 443.477 153.664 443.477 154.664V154.938C443.477 155.911 443.677 156.661 444.078 157.188C444.479 157.714 445.052 157.977 445.797 157.977ZM451.07 159.977H449.828L454.578 147.625H455.812L451.07 159.977ZM462.594 159C462.51 158.833 462.443 158.536 462.391 158.109C461.719 158.807 460.917 159.156 459.984 159.156C459.151 159.156 458.466 158.922 457.93 158.453C457.398 157.979 457.133 157.38 457.133 156.656C457.133 155.776 457.466 155.094 458.133 154.609C458.805 154.12 459.747 153.875 460.961 153.875H462.367V153.211C462.367 152.706 462.216 152.305 461.914 152.008C461.612 151.706 461.167 151.555 460.578 151.555C460.062 151.555 459.63 151.685 459.281 151.945C458.932 152.206 458.758 152.521 458.758 152.891H457.305C457.305 152.469 457.453 152.062 457.75 151.672C458.052 151.276 458.458 150.964 458.969 150.734C459.484 150.505 460.049 150.391 460.664 150.391C461.638 150.391 462.401 150.635 462.953 151.125C463.505 151.609 463.792 152.279 463.812 153.133V157.023C463.812 157.799 463.911 158.417 464.109 158.875V159H462.594ZM460.195 157.898C460.648 157.898 461.078 157.781 461.484 157.547C461.891 157.312 462.185 157.008 462.367 156.633V154.898H461.234C459.464 154.898 458.578 155.417 458.578 156.453C458.578 156.906 458.729 157.26 459.031 157.516C459.333 157.771 459.721 157.898 460.195 157.898ZM473.219 154.867C473.219 156.154 472.924 157.19 472.336 157.977C471.747 158.763 470.951 159.156 469.945 159.156C468.919 159.156 468.112 158.831 467.523 158.18V162.25H466.078V150.547H467.398L467.469 151.484C468.057 150.755 468.875 150.391 469.922 150.391C470.938 150.391 471.74 150.773 472.328 151.539C472.922 152.305 473.219 153.37 473.219 154.734V154.867ZM471.773 154.703C471.773 153.75 471.57 152.997 471.164 152.445C470.758 151.893 470.201 151.617 469.492 151.617C468.617 151.617 467.961 152.005 467.523 152.781V156.82C467.956 157.591 468.617 157.977 469.508 157.977C470.201 157.977 470.75 157.703 471.156 157.156C471.568 156.604 471.773 155.786 471.773 154.703ZM480.281 159C480.198 158.833 480.13 158.536 480.078 158.109C479.406 158.807 478.604 159.156 477.672 159.156C476.839 159.156 476.154 158.922 475.617 158.453C475.086 157.979 474.82 157.38 474.82 156.656C474.82 155.776 475.154 155.094 475.82 154.609C476.492 154.12 477.435 153.875 478.648 153.875H480.055V153.211C480.055 152.706 479.904 152.305 479.602 152.008C479.299 151.706 478.854 151.555 478.266 151.555C477.75 151.555 477.318 151.685 476.969 151.945C476.62 152.206 476.445 152.521 476.445 152.891H474.992C474.992 152.469 475.141 152.062 475.438 151.672C475.74 151.276 476.146 150.964 476.656 150.734C477.172 150.505 477.737 150.391 478.352 150.391C479.326 150.391 480.089 150.635 480.641 151.125C481.193 151.609 481.479 152.279 481.5 153.133V157.023C481.5 157.799 481.599 158.417 481.797 158.875V159H480.281ZM477.883 157.898C478.336 157.898 478.766 157.781 479.172 157.547C479.578 157.312 479.872 157.008 480.055 156.633V154.898H478.922C477.151 154.898 476.266 155.417 476.266 156.453C476.266 156.906 476.417 157.26 476.719 157.516C477.021 157.771 477.409 157.898 477.883 157.898ZM487.156 157.977C487.672 157.977 488.122 157.82 488.508 157.508C488.893 157.195 489.107 156.805 489.148 156.336H490.516C490.49 156.82 490.323 157.281 490.016 157.719C489.708 158.156 489.297 158.505 488.781 158.766C488.271 159.026 487.729 159.156 487.156 159.156C486.005 159.156 485.089 158.773 484.406 158.008C483.729 157.237 483.391 156.185 483.391 154.852V154.609C483.391 153.786 483.542 153.055 483.844 152.414C484.146 151.773 484.578 151.276 485.141 150.922C485.708 150.568 486.378 150.391 487.148 150.391C488.096 150.391 488.883 150.674 489.508 151.242C490.138 151.81 490.474 152.547 490.516 153.453H489.148C489.107 152.906 488.898 152.458 488.523 152.109C488.154 151.755 487.695 151.578 487.148 151.578C486.414 151.578 485.844 151.844 485.438 152.375C485.036 152.901 484.836 153.664 484.836 154.664V154.938C484.836 155.911 485.036 156.661 485.438 157.188C485.839 157.714 486.411 157.977 487.156 157.977ZM493.586 151.57C494.227 150.784 495.06 150.391 496.086 150.391C497.872 150.391 498.773 151.398 498.789 153.414V159H497.344V153.406C497.339 152.797 497.198 152.346 496.922 152.055C496.651 151.763 496.227 151.617 495.648 151.617C495.18 151.617 494.768 151.742 494.414 151.992C494.06 152.242 493.784 152.57 493.586 152.977V159H492.141V147H493.586V151.57ZM504.461 159.156C503.315 159.156 502.383 158.781 501.664 158.031C500.945 157.276 500.586 156.268 500.586 155.008V154.742C500.586 153.904 500.745 153.156 501.062 152.5C501.385 151.839 501.833 151.323 502.406 150.953C502.984 150.578 503.609 150.391 504.281 150.391C505.38 150.391 506.234 150.753 506.844 151.477C507.453 152.201 507.758 153.237 507.758 154.586V155.188H502.031C502.052 156.021 502.294 156.695 502.758 157.211C503.227 157.721 503.82 157.977 504.539 157.977C505.049 157.977 505.482 157.872 505.836 157.664C506.19 157.456 506.5 157.18 506.766 156.836L507.648 157.523C506.94 158.612 505.878 159.156 504.461 159.156ZM504.281 151.578C503.698 151.578 503.208 151.792 502.812 152.219C502.417 152.641 502.172 153.234 502.078 154H506.312V153.891C506.271 153.156 506.073 152.589 505.719 152.188C505.365 151.781 504.885 151.578 504.281 151.578ZM516.742 159H509.289V157.961L513.227 153.586C513.81 152.924 514.211 152.388 514.43 151.977C514.654 151.56 514.766 151.13 514.766 150.688C514.766 150.094 514.586 149.607 514.227 149.227C513.867 148.846 513.388 148.656 512.789 148.656C512.07 148.656 511.51 148.862 511.109 149.273C510.714 149.68 510.516 150.247 510.516 150.977H509.07C509.07 149.93 509.406 149.083 510.078 148.438C510.755 147.792 511.659 147.469 512.789 147.469C513.846 147.469 514.682 147.747 515.297 148.305C515.911 148.857 516.219 149.594 516.219 150.516C516.219 151.635 515.505 152.969 514.078 154.516L511.031 157.82H516.742V159ZM518.711 159.977H517.469L522.219 147.625H523.453L518.711 159.977ZM530.234 159C530.151 158.833 530.083 158.536 530.031 158.109C529.359 158.807 528.557 159.156 527.625 159.156C526.792 159.156 526.107 158.922 525.57 158.453C525.039 157.979 524.773 157.38 524.773 156.656C524.773 155.776 525.107 155.094 525.773 154.609C526.445 154.12 527.388 153.875 528.602 153.875H530.008V153.211C530.008 152.706 529.857 152.305 529.555 152.008C529.253 151.706 528.807 151.555 528.219 151.555C527.703 151.555 527.271 151.685 526.922 151.945C526.573 152.206 526.398 152.521 526.398 152.891H524.945C524.945 152.469 525.094 152.062 525.391 151.672C525.693 151.276 526.099 150.964 526.609 150.734C527.125 150.505 527.69 150.391 528.305 150.391C529.279 150.391 530.042 150.635 530.594 151.125C531.146 151.609 531.432 152.279 531.453 153.133V157.023C531.453 157.799 531.552 158.417 531.75 158.875V159H530.234ZM527.836 157.898C528.289 157.898 528.719 157.781 529.125 157.547C529.531 157.312 529.826 157.008 530.008 156.633V154.898H528.875C527.104 154.898 526.219 155.417 526.219 156.453C526.219 156.906 526.37 157.26 526.672 157.516C526.974 157.771 527.362 157.898 527.836 157.898ZM540.859 154.867C540.859 156.154 540.565 157.19 539.977 157.977C539.388 158.763 538.591 159.156 537.586 159.156C536.56 159.156 535.753 158.831 535.164 158.18V162.25H533.719V150.547H535.039L535.109 151.484C535.698 150.755 536.516 150.391 537.562 150.391C538.578 150.391 539.38 150.773 539.969 151.539C540.562 152.305 540.859 153.37 540.859 154.734V154.867ZM539.414 154.703C539.414 153.75 539.211 152.997 538.805 152.445C538.398 151.893 537.841 151.617 537.133 151.617C536.258 151.617 535.602 152.005 535.164 152.781V156.82C535.596 157.591 536.258 157.977 537.148 157.977C537.841 157.977 538.391 157.703 538.797 157.156C539.208 156.604 539.414 155.786 539.414 154.703ZM547.922 159C547.839 158.833 547.771 158.536 547.719 158.109C547.047 158.807 546.245 159.156 545.312 159.156C544.479 159.156 543.794 158.922 543.258 158.453C542.727 157.979 542.461 157.38 542.461 156.656C542.461 155.776 542.794 155.094 543.461 154.609C544.133 154.12 545.076 153.875 546.289 153.875H547.695V153.211C547.695 152.706 547.544 152.305 547.242 152.008C546.94 151.706 546.495 151.555 545.906 151.555C545.391 151.555 544.958 151.685 544.609 151.945C544.26 152.206 544.086 152.521 544.086 152.891H542.633C542.633 152.469 542.781 152.062 543.078 151.672C543.38 151.276 543.786 150.964 544.297 150.734C544.812 150.505 545.378 150.391 545.992 150.391C546.966 150.391 547.729 150.635 548.281 151.125C548.833 151.609 549.12 152.279 549.141 153.133V157.023C549.141 157.799 549.24 158.417 549.438 158.875V159H547.922ZM545.523 157.898C545.977 157.898 546.406 157.781 546.812 157.547C547.219 157.312 547.513 157.008 547.695 156.633V154.898H546.562C544.792 154.898 543.906 155.417 543.906 156.453C543.906 156.906 544.057 157.26 544.359 157.516C544.661 157.771 545.049 157.898 545.523 157.898ZM425.484 176.977C426 176.977 426.451 176.82 426.836 176.508C427.221 176.195 427.435 175.805 427.477 175.336H428.844C428.818 175.82 428.651 176.281 428.344 176.719C428.036 177.156 427.625 177.505 427.109 177.766C426.599 178.026 426.057 178.156 425.484 178.156C424.333 178.156 423.417 177.773 422.734 177.008C422.057 176.237 421.719 175.185 421.719 173.852V173.609C421.719 172.786 421.87 172.055 422.172 171.414C422.474 170.773 422.906 170.276 423.469 169.922C424.036 169.568 424.706 169.391 425.477 169.391C426.424 169.391 427.211 169.674 427.836 170.242C428.466 170.81 428.802 171.547 428.844 172.453H427.477C427.435 171.906 427.227 171.458 426.852 171.109C426.482 170.755 426.023 170.578 425.477 170.578C424.742 170.578 424.172 170.844 423.766 171.375C423.365 171.901 423.164 172.664 423.164 173.664V173.938C423.164 174.911 423.365 175.661 423.766 176.188C424.167 176.714 424.74 176.977 425.484 176.977ZM431.914 170.57C432.555 169.784 433.388 169.391 434.414 169.391C436.201 169.391 437.102 170.398 437.117 172.414V178H435.672V172.406C435.667 171.797 435.526 171.346 435.25 171.055C434.979 170.763 434.555 170.617 433.977 170.617C433.508 170.617 433.096 170.742 432.742 170.992C432.388 171.242 432.112 171.57 431.914 171.977V178H430.469V166H431.914V170.57ZM442.789 178.156C441.643 178.156 440.711 177.781 439.992 177.031C439.273 176.276 438.914 175.268 438.914 174.008V173.742C438.914 172.904 439.073 172.156 439.391 171.5C439.714 170.839 440.161 170.323 440.734 169.953C441.312 169.578 441.938 169.391 442.609 169.391C443.708 169.391 444.562 169.753 445.172 170.477C445.781 171.201 446.086 172.237 446.086 173.586V174.188H440.359C440.38 175.021 440.622 175.695 441.086 176.211C441.555 176.721 442.148 176.977 442.867 176.977C443.378 176.977 443.81 176.872 444.164 176.664C444.518 176.456 444.828 176.18 445.094 175.836L445.977 176.523C445.268 177.612 444.206 178.156 442.789 178.156ZM442.609 170.578C442.026 170.578 441.536 170.792 441.141 171.219C440.745 171.641 440.5 172.234 440.406 173H444.641V172.891C444.599 172.156 444.401 171.589 444.047 171.188C443.693 170.781 443.214 170.578 442.609 170.578ZM455.07 178H447.617V176.961L451.555 172.586C452.138 171.924 452.539 171.388 452.758 170.977C452.982 170.56 453.094 170.13 453.094 169.688C453.094 169.094 452.914 168.607 452.555 168.227C452.195 167.846 451.716 167.656 451.117 167.656C450.398 167.656 449.839 167.862 449.438 168.273C449.042 168.68 448.844 169.247 448.844 169.977H447.398C447.398 168.93 447.734 168.083 448.406 167.438C449.083 166.792 449.987 166.469 451.117 166.469C452.174 166.469 453.01 166.747 453.625 167.305C454.24 167.857 454.547 168.594 454.547 169.516C454.547 170.635 453.833 171.969 452.406 173.516L449.359 176.82H455.07V178ZM456.781 177.242C456.781 176.992 456.854 176.784 457 176.617C457.151 176.451 457.375 176.367 457.672 176.367C457.969 176.367 458.193 176.451 458.344 176.617C458.5 176.784 458.578 176.992 458.578 177.242C458.578 177.482 458.5 177.682 458.344 177.844C458.193 178.005 457.969 178.086 457.672 178.086C457.375 178.086 457.151 178.005 457 177.844C456.854 177.682 456.781 177.482 456.781 177.242ZM464.359 176.977C464.875 176.977 465.326 176.82 465.711 176.508C466.096 176.195 466.31 175.805 466.352 175.336H467.719C467.693 175.82 467.526 176.281 467.219 176.719C466.911 177.156 466.5 177.505 465.984 177.766C465.474 178.026 464.932 178.156 464.359 178.156C463.208 178.156 462.292 177.773 461.609 177.008C460.932 176.237 460.594 175.185 460.594 173.852V173.609C460.594 172.786 460.745 172.055 461.047 171.414C461.349 170.773 461.781 170.276 462.344 169.922C462.911 169.568 463.581 169.391 464.352 169.391C465.299 169.391 466.086 169.674 466.711 170.242C467.341 170.81 467.677 171.547 467.719 172.453H466.352C466.31 171.906 466.102 171.458 465.727 171.109C465.357 170.755 464.898 170.578 464.352 170.578C463.617 170.578 463.047 170.844 462.641 171.375C462.24 171.901 462.039 172.664 462.039 173.664V173.938C462.039 174.911 462.24 175.661 462.641 176.188C463.042 176.714 463.615 176.977 464.359 176.977ZM468.961 173.695C468.961 172.867 469.122 172.122 469.445 171.461C469.773 170.799 470.227 170.289 470.805 169.93C471.388 169.57 472.052 169.391 472.797 169.391C473.948 169.391 474.878 169.789 475.586 170.586C476.299 171.383 476.656 172.443 476.656 173.766V173.867C476.656 174.69 476.497 175.43 476.18 176.086C475.867 176.737 475.417 177.245 474.828 177.609C474.245 177.974 473.573 178.156 472.812 178.156C471.667 178.156 470.737 177.758 470.023 176.961C469.315 176.164 468.961 175.109 468.961 173.797V173.695ZM470.414 173.867C470.414 174.805 470.63 175.557 471.062 176.125C471.5 176.693 472.083 176.977 472.812 176.977C473.547 176.977 474.13 176.69 474.562 176.117C474.995 175.539 475.211 174.732 475.211 173.695C475.211 172.768 474.99 172.018 474.547 171.445C474.109 170.867 473.526 170.578 472.797 170.578C472.083 170.578 471.508 170.862 471.07 171.43C470.633 171.997 470.414 172.81 470.414 173.867ZM479.836 169.547L479.883 170.609C480.529 169.797 481.372 169.391 482.414 169.391C484.201 169.391 485.102 170.398 485.117 172.414V178H483.672V172.406C483.667 171.797 483.526 171.346 483.25 171.055C482.979 170.763 482.555 170.617 481.977 170.617C481.508 170.617 481.096 170.742 480.742 170.992C480.388 171.242 480.112 171.57 479.914 171.977V178H478.469V169.547H479.836ZM488.008 178V170.664H486.672V169.547H488.008V168.68C488.008 167.773 488.25 167.073 488.734 166.578C489.219 166.083 489.904 165.836 490.789 165.836C491.122 165.836 491.453 165.88 491.781 165.969L491.703 167.141C491.458 167.094 491.198 167.07 490.922 167.07C490.453 167.07 490.091 167.208 489.836 167.484C489.581 167.755 489.453 168.146 489.453 168.656V169.547H491.258V170.664H489.453V178H488.008ZM422.383 197.977H421.141L425.891 185.625H427.125L422.383 197.977ZM435.828 192.867C435.828 194.154 435.534 195.19 434.945 195.977C434.357 196.763 433.56 197.156 432.555 197.156C431.529 197.156 430.721 196.831 430.133 196.18V200.25H428.688V188.547H430.008L430.078 189.484C430.667 188.755 431.484 188.391 432.531 188.391C433.547 188.391 434.349 188.773 434.938 189.539C435.531 190.305 435.828 191.37 435.828 192.734V192.867ZM434.383 192.703C434.383 191.75 434.18 190.997 433.773 190.445C433.367 189.893 432.81 189.617 432.102 189.617C431.227 189.617 430.57 190.005 430.133 190.781V194.82C430.565 195.591 431.227 195.977 432.117 195.977C432.81 195.977 433.359 195.703 433.766 195.156C434.177 194.604 434.383 193.786 434.383 192.703ZM441.758 189.844C441.539 189.807 441.302 189.789 441.047 189.789C440.099 189.789 439.456 190.193 439.117 191V197H437.672V188.547H439.078L439.102 189.523C439.576 188.768 440.247 188.391 441.117 188.391C441.398 188.391 441.612 188.427 441.758 188.5V189.844ZM442.555 192.695C442.555 191.867 442.716 191.122 443.039 190.461C443.367 189.799 443.82 189.289 444.398 188.93C444.982 188.57 445.646 188.391 446.391 188.391C447.542 188.391 448.471 188.789 449.18 189.586C449.893 190.383 450.25 191.443 450.25 192.766V192.867C450.25 193.69 450.091 194.43 449.773 195.086C449.461 195.737 449.01 196.245 448.422 196.609C447.839 196.974 447.167 197.156 446.406 197.156C445.26 197.156 444.331 196.758 443.617 195.961C442.909 195.164 442.555 194.109 442.555 192.797V192.695ZM444.008 192.867C444.008 193.805 444.224 194.557 444.656 195.125C445.094 195.693 445.677 195.977 446.406 195.977C447.141 195.977 447.724 195.69 448.156 195.117C448.589 194.539 448.805 193.732 448.805 192.695C448.805 191.768 448.583 191.018 448.141 190.445C447.703 189.867 447.12 189.578 446.391 189.578C445.677 189.578 445.102 189.862 444.664 190.43C444.227 190.997 444.008 191.81 444.008 192.867ZM455.453 195.977C455.969 195.977 456.419 195.82 456.805 195.508C457.19 195.195 457.404 194.805 457.445 194.336H458.812C458.786 194.82 458.62 195.281 458.312 195.719C458.005 196.156 457.594 196.505 457.078 196.766C456.568 197.026 456.026 197.156 455.453 197.156C454.302 197.156 453.385 196.773 452.703 196.008C452.026 195.237 451.688 194.185 451.688 192.852V192.609C451.688 191.786 451.839 191.055 452.141 190.414C452.443 189.773 452.875 189.276 453.438 188.922C454.005 188.568 454.674 188.391 455.445 188.391C456.393 188.391 457.18 188.674 457.805 189.242C458.435 189.81 458.771 190.547 458.812 191.453H457.445C457.404 190.906 457.195 190.458 456.82 190.109C456.451 189.755 455.992 189.578 455.445 189.578C454.711 189.578 454.141 189.844 453.734 190.375C453.333 190.901 453.133 191.664 453.133 192.664V192.938C453.133 193.911 453.333 194.661 453.734 195.188C454.135 195.714 454.708 195.977 455.453 195.977ZM460.727 197.977H459.484L464.234 185.625H465.469L460.727 197.977ZM471.953 194.758C471.953 194.367 471.805 194.065 471.508 193.852C471.216 193.633 470.703 193.445 469.969 193.289C469.24 193.133 468.659 192.945 468.227 192.727C467.799 192.508 467.482 192.247 467.273 191.945C467.07 191.643 466.969 191.284 466.969 190.867C466.969 190.174 467.26 189.589 467.844 189.109C468.432 188.63 469.182 188.391 470.094 188.391C471.052 188.391 471.828 188.638 472.422 189.133C473.021 189.628 473.32 190.26 473.32 191.031H471.867C471.867 190.635 471.698 190.294 471.359 190.008C471.026 189.721 470.604 189.578 470.094 189.578C469.568 189.578 469.156 189.693 468.859 189.922C468.562 190.151 468.414 190.451 468.414 190.82C468.414 191.169 468.552 191.432 468.828 191.609C469.104 191.786 469.602 191.956 470.32 192.117C471.044 192.279 471.63 192.471 472.078 192.695C472.526 192.919 472.857 193.19 473.07 193.508C473.289 193.82 473.398 194.203 473.398 194.656C473.398 195.411 473.096 196.018 472.492 196.477C471.888 196.93 471.104 197.156 470.141 197.156C469.464 197.156 468.865 197.036 468.344 196.797C467.823 196.557 467.414 196.224 467.117 195.797C466.826 195.365 466.68 194.898 466.68 194.398H468.125C468.151 194.883 468.344 195.268 468.703 195.555C469.068 195.836 469.547 195.977 470.141 195.977C470.688 195.977 471.125 195.867 471.453 195.648C471.786 195.424 471.953 195.128 471.953 194.758ZM478.789 197.156C477.643 197.156 476.711 196.781 475.992 196.031C475.273 195.276 474.914 194.268 474.914 193.008V192.742C474.914 191.904 475.073 191.156 475.391 190.5C475.714 189.839 476.161 189.323 476.734 188.953C477.312 188.578 477.938 188.391 478.609 188.391C479.708 188.391 480.562 188.753 481.172 189.477C481.781 190.201 482.086 191.237 482.086 192.586V193.188H476.359C476.38 194.021 476.622 194.695 477.086 195.211C477.555 195.721 478.148 195.977 478.867 195.977C479.378 195.977 479.81 195.872 480.164 195.664C480.518 195.456 480.828 195.18 481.094 194.836L481.977 195.523C481.268 196.612 480.206 197.156 478.789 197.156ZM478.609 189.578C478.026 189.578 477.536 189.792 477.141 190.219C476.745 190.641 476.5 191.234 476.406 192H480.641V191.891C480.599 191.156 480.401 190.589 480.047 190.188C479.693 189.781 479.214 189.578 478.609 189.578ZM485.336 197H483.891V185H485.336V197ZM488.367 197V189.664H487.031V188.547H488.367V187.68C488.367 186.773 488.609 186.073 489.094 185.578C489.578 185.083 490.263 184.836 491.148 184.836C491.482 184.836 491.812 184.88 492.141 184.969L492.062 186.141C491.818 186.094 491.557 186.07 491.281 186.07C490.812 186.07 490.451 186.208 490.195 186.484C489.94 186.755 489.812 187.146 489.812 187.656V188.547H491.617V189.664H489.812V197H488.367ZM493.508 197.977H492.266L497.016 185.625H498.25L493.508 197.977ZM503.32 197.156C502.174 197.156 501.242 196.781 500.523 196.031C499.805 195.276 499.445 194.268 499.445 193.008V192.742C499.445 191.904 499.604 191.156 499.922 190.5C500.245 189.839 500.693 189.323 501.266 188.953C501.844 188.578 502.469 188.391 503.141 188.391C504.24 188.391 505.094 188.753 505.703 189.477C506.312 190.201 506.617 191.237 506.617 192.586V193.188H500.891C500.911 194.021 501.154 194.695 501.617 195.211C502.086 195.721 502.68 195.977 503.398 195.977C503.909 195.977 504.341 195.872 504.695 195.664C505.049 195.456 505.359 195.18 505.625 194.836L506.508 195.523C505.799 196.612 504.737 197.156 503.32 197.156ZM503.141 189.578C502.557 189.578 502.068 189.792 501.672 190.219C501.276 190.641 501.031 191.234 500.938 192H505.172V191.891C505.13 191.156 504.932 190.589 504.578 190.188C504.224 189.781 503.745 189.578 503.141 189.578ZM509.664 188.547L509.711 189.609C510.357 188.797 511.201 188.391 512.242 188.391C514.029 188.391 514.93 189.398 514.945 191.414V197H513.5V191.406C513.495 190.797 513.354 190.346 513.078 190.055C512.807 189.763 512.383 189.617 511.805 189.617C511.336 189.617 510.924 189.742 510.57 189.992C510.216 190.242 509.94 190.57 509.742 190.977V197H508.297V188.547H509.664ZM519.914 195.039L522.008 188.547H523.484L520.453 197H519.352L516.289 188.547H517.766L519.914 195.039ZM526.445 197H525V188.547H526.445V197ZM524.883 186.305C524.883 186.07 524.953 185.872 525.094 185.711C525.24 185.549 525.453 185.469 525.734 185.469C526.016 185.469 526.229 185.549 526.375 185.711C526.521 185.872 526.594 186.07 526.594 186.305C526.594 186.539 526.521 186.734 526.375 186.891C526.229 187.047 526.016 187.125 525.734 187.125C525.453 187.125 525.24 187.047 525.094 186.891C524.953 186.734 524.883 186.539 524.883 186.305ZM532.852 189.844C532.633 189.807 532.396 189.789 532.141 189.789C531.193 189.789 530.549 190.193 530.211 191V197H528.766V188.547H530.172L530.195 189.523C530.669 188.768 531.341 188.391 532.211 188.391C532.492 188.391 532.706 188.427 532.852 188.5V189.844ZM533.648 192.695C533.648 191.867 533.81 191.122 534.133 190.461C534.461 189.799 534.914 189.289 535.492 188.93C536.076 188.57 536.74 188.391 537.484 188.391C538.635 188.391 539.565 188.789 540.273 189.586C540.987 190.383 541.344 191.443 541.344 192.766V192.867C541.344 193.69 541.185 194.43 540.867 195.086C540.555 195.737 540.104 196.245 539.516 196.609C538.932 196.974 538.26 197.156 537.5 197.156C536.354 197.156 535.424 196.758 534.711 195.961C534.003 195.164 533.648 194.109 533.648 192.797V192.695ZM535.102 192.867C535.102 193.805 535.318 194.557 535.75 195.125C536.188 195.693 536.771 195.977 537.5 195.977C538.234 195.977 538.818 195.69 539.25 195.117C539.682 194.539 539.898 193.732 539.898 192.695C539.898 191.768 539.677 191.018 539.234 190.445C538.797 189.867 538.214 189.578 537.484 189.578C536.771 189.578 536.195 189.862 535.758 190.43C535.32 190.997 535.102 191.81 535.102 192.867ZM544.523 188.547L544.57 189.609C545.216 188.797 546.06 188.391 547.102 188.391C548.888 188.391 549.789 189.398 549.805 191.414V197H548.359V191.406C548.354 190.797 548.214 190.346 547.938 190.055C547.667 189.763 547.242 189.617 546.664 189.617C546.195 189.617 545.784 189.742 545.43 189.992C545.076 190.242 544.799 190.57 544.602 190.977V197H543.156V188.547H544.523ZM422.125 215.242C422.125 214.992 422.198 214.784 422.344 214.617C422.495 214.451 422.719 214.367 423.016 214.367C423.312 214.367 423.536 214.451 423.688 214.617C423.844 214.784 423.922 214.992 423.922 215.242C423.922 215.482 423.844 215.682 423.688 215.844C423.536 216.005 423.312 216.086 423.016 216.086C422.719 216.086 422.495 216.005 422.344 215.844C422.198 215.682 422.125 215.482 422.125 215.242ZM426.344 215.242C426.344 214.992 426.417 214.784 426.562 214.617C426.714 214.451 426.938 214.367 427.234 214.367C427.531 214.367 427.755 214.451 427.906 214.617C428.062 214.784 428.141 214.992 428.141 215.242C428.141 215.482 428.062 215.682 427.906 215.844C427.755 216.005 427.531 216.086 427.234 216.086C426.938 216.086 426.714 216.005 426.562 215.844C426.417 215.682 426.344 215.482 426.344 215.242ZM430.562 215.242C430.562 214.992 430.635 214.784 430.781 214.617C430.932 214.451 431.156 214.367 431.453 214.367C431.75 214.367 431.974 214.451 432.125 214.617C432.281 214.784 432.359 214.992 432.359 215.242C432.359 215.482 432.281 215.682 432.125 215.844C431.974 216.005 431.75 216.086 431.453 216.086C431.156 216.086 430.932 216.005 430.781 215.844C430.635 215.682 430.562 215.482 430.562 215.242Z" fill="black"/>
<path d="M218.707 142.707C219.098 142.317 219.098 141.683 218.707 141.293L212.343 134.929C211.953 134.538 211.319 134.538 210.929 134.929C210.538 135.319 210.538 135.953 210.929 136.343L216.586 142L210.929 147.657C210.538 148.047 210.538 148.681 210.929 149.071C211.319 149.462 211.953 149.462 212.343 149.071L218.707 142.707ZM118 143H218V141H118V143Z" fill="black"/>
<path d="M117.293 157.293C116.902 157.683 116.902 158.317 117.293 158.707L123.657 165.071C124.047 165.462 124.681 165.462 125.071 165.071C125.462 164.681 125.462 164.047 125.071 163.657L119.414 158L125.071 152.343C125.462 151.953 125.462 151.319 125.071 150.929C124.681 150.538 124.047 150.538 123.657 150.929L117.293 157.293ZM218 157H118V159H218V157Z" fill="#FF0000"/>
<path d="M123.896 83.2031L128.08 93.6445L132.264 83.2031H134.452V96H132.765V91.0166L132.923 85.6377L128.722 96H127.43L123.237 85.6641L123.404 91.0166V96H121.717V83.2031H123.896ZM143.048 96C142.954 95.8125 142.878 95.4785 142.819 94.998C142.063 95.7832 141.161 96.1758 140.112 96.1758C139.175 96.1758 138.404 95.9121 137.801 95.3848C137.203 94.8516 136.904 94.1777 136.904 93.3633C136.904 92.373 137.279 91.6055 138.029 91.0605C138.785 90.5098 139.846 90.2344 141.211 90.2344H142.793V89.4873C142.793 88.9189 142.623 88.4678 142.283 88.1338C141.943 87.7939 141.442 87.624 140.78 87.624C140.2 87.624 139.714 87.7705 139.321 88.0635C138.929 88.3564 138.732 88.7109 138.732 89.127H137.098C137.098 88.6523 137.265 88.1953 137.599 87.7559C137.938 87.3105 138.396 86.959 138.97 86.7012C139.55 86.4434 140.186 86.3145 140.877 86.3145C141.973 86.3145 142.831 86.5898 143.452 87.1406C144.073 87.6855 144.396 88.4385 144.419 89.3994V93.7764C144.419 94.6494 144.53 95.3438 144.753 95.8594V96H143.048ZM140.35 94.7607C140.859 94.7607 141.343 94.6289 141.8 94.3652C142.257 94.1016 142.588 93.7588 142.793 93.3369V91.3857H141.519C139.526 91.3857 138.53 91.9688 138.53 93.1348C138.53 93.6445 138.7 94.043 139.04 94.3301C139.38 94.6172 139.816 94.7607 140.35 94.7607ZM148.734 96H147.108V82.5H148.734V96ZM153.111 96H151.485V86.4902H153.111V96ZM151.354 83.9678C151.354 83.7041 151.433 83.4814 151.591 83.2998C151.755 83.1182 151.995 83.0273 152.312 83.0273C152.628 83.0273 152.868 83.1182 153.032 83.2998C153.196 83.4814 153.278 83.7041 153.278 83.9678C153.278 84.2314 153.196 84.4512 153.032 84.627C152.868 84.8027 152.628 84.8906 152.312 84.8906C151.995 84.8906 151.755 84.8027 151.591 84.627C151.433 84.4512 151.354 84.2314 151.354 83.9678ZM159.536 94.8486C160.116 94.8486 160.623 94.6729 161.057 94.3213C161.49 93.9697 161.73 93.5303 161.777 93.0029H163.315C163.286 93.5479 163.099 94.0664 162.753 94.5586C162.407 95.0508 161.944 95.4434 161.364 95.7363C160.79 96.0293 160.181 96.1758 159.536 96.1758C158.241 96.1758 157.21 95.7451 156.442 94.8838C155.681 94.0166 155.3 92.833 155.3 91.333V91.0605C155.3 90.1348 155.47 89.3115 155.81 88.5908C156.149 87.8701 156.636 87.3105 157.269 86.9121C157.907 86.5137 158.66 86.3145 159.527 86.3145C160.594 86.3145 161.479 86.6338 162.182 87.2725C162.891 87.9111 163.269 88.7402 163.315 89.7598H161.777C161.73 89.1445 161.496 88.6406 161.074 88.248C160.658 87.8496 160.143 87.6504 159.527 87.6504C158.701 87.6504 158.06 87.9492 157.603 88.5469C157.151 89.1387 156.926 89.9971 156.926 91.1221V91.4297C156.926 92.5254 157.151 93.3691 157.603 93.9609C158.054 94.5527 158.698 94.8486 159.536 94.8486ZM166.91 96H165.284V86.4902H166.91V96ZM165.152 83.9678C165.152 83.7041 165.231 83.4814 165.39 83.2998C165.554 83.1182 165.794 83.0273 166.11 83.0273C166.427 83.0273 166.667 83.1182 166.831 83.2998C166.995 83.4814 167.077 83.7041 167.077 83.9678C167.077 84.2314 166.995 84.4512 166.831 84.627C166.667 84.8027 166.427 84.8906 166.11 84.8906C165.794 84.8906 165.554 84.8027 165.39 84.627C165.231 84.4512 165.152 84.2314 165.152 83.9678ZM169.09 91.1572C169.09 90.2256 169.271 89.3877 169.635 88.6436C170.004 87.8994 170.514 87.3252 171.164 86.9209C171.82 86.5166 172.567 86.3145 173.405 86.3145C174.7 86.3145 175.746 86.7627 176.543 87.6592C177.346 88.5557 177.747 89.748 177.747 91.2363V91.3506C177.747 92.2764 177.568 93.1084 177.211 93.8467C176.859 94.5791 176.353 95.1504 175.69 95.5605C175.034 95.9707 174.278 96.1758 173.423 96.1758C172.134 96.1758 171.088 95.7275 170.285 94.8311C169.488 93.9346 169.09 92.748 169.09 91.2715V91.1572ZM170.725 91.3506C170.725 92.4053 170.968 93.252 171.454 93.8906C171.946 94.5293 172.603 94.8486 173.423 94.8486C174.249 94.8486 174.905 94.5264 175.392 93.8818C175.878 93.2314 176.121 92.3232 176.121 91.1572C176.121 90.1143 175.872 89.2705 175.374 88.626C174.882 87.9756 174.226 87.6504 173.405 87.6504C172.603 87.6504 171.955 87.9697 171.463 88.6084C170.971 89.2471 170.725 90.1611 170.725 91.3506ZM185.657 95.0596C185.024 95.8037 184.096 96.1758 182.871 96.1758C181.857 96.1758 181.084 95.8828 180.551 95.2969C180.023 94.7051 179.757 93.832 179.751 92.6777V86.4902H181.377V92.6338C181.377 94.0752 181.963 94.7959 183.135 94.7959C184.377 94.7959 185.203 94.333 185.613 93.4072V86.4902H187.239V96H185.692L185.657 95.0596ZM195.255 93.4775C195.255 93.0381 195.088 92.6982 194.754 92.458C194.426 92.2119 193.849 92.001 193.022 91.8252C192.202 91.6494 191.549 91.4385 191.062 91.1924C190.582 90.9463 190.225 90.6533 189.99 90.3135C189.762 89.9736 189.647 89.5693 189.647 89.1006C189.647 88.3213 189.976 87.6621 190.632 87.123C191.294 86.584 192.138 86.3145 193.163 86.3145C194.241 86.3145 195.114 86.5928 195.782 87.1494C196.456 87.7061 196.793 88.418 196.793 89.2852H195.158C195.158 88.8398 194.968 88.4561 194.587 88.1338C194.212 87.8115 193.737 87.6504 193.163 87.6504C192.571 87.6504 192.108 87.7793 191.774 88.0371C191.44 88.2949 191.273 88.6318 191.273 89.0479C191.273 89.4404 191.429 89.7363 191.739 89.9355C192.05 90.1348 192.609 90.3252 193.418 90.5068C194.232 90.6885 194.892 90.9053 195.396 91.1572C195.899 91.4092 196.271 91.7139 196.512 92.0713C196.758 92.4229 196.881 92.8535 196.881 93.3633C196.881 94.2129 196.541 94.8955 195.861 95.4111C195.182 95.9209 194.3 96.1758 193.216 96.1758C192.454 96.1758 191.78 96.041 191.194 95.7715C190.608 95.502 190.148 95.127 189.814 94.6465C189.486 94.1602 189.322 93.6357 189.322 93.0732H190.948C190.978 93.6182 191.194 94.0518 191.599 94.374C192.009 94.6904 192.548 94.8486 193.216 94.8486C193.831 94.8486 194.323 94.7256 194.692 94.4795C195.067 94.2275 195.255 93.8936 195.255 93.4775ZM115.143 117H113.446V111.085H106.995V117H105.308V104.203H106.995V109.705H113.446V104.203H115.143V117ZM126.718 105.592H122.604V117H120.926V105.592H116.821V104.203H126.718V105.592ZM137.599 105.592H133.485V117H131.807V105.592H127.702V104.203H137.599V105.592ZM141.185 111.99V117H139.497V104.203H144.217C145.617 104.203 146.713 104.561 147.504 105.275C148.301 105.99 148.699 106.937 148.699 108.114C148.699 109.356 148.31 110.314 147.53 110.988C146.757 111.656 145.646 111.99 144.199 111.99H141.185ZM141.185 110.61H144.217C145.119 110.61 145.811 110.399 146.291 109.978C146.771 109.55 147.012 108.935 147.012 108.132C147.012 107.37 146.771 106.761 146.291 106.304C145.811 105.847 145.151 105.609 144.313 105.592H141.185V110.61ZM159.659 108.949C159.413 108.908 159.146 108.888 158.859 108.888C157.793 108.888 157.069 109.342 156.688 110.25V117H155.062V107.49H156.645L156.671 108.589C157.204 107.739 157.96 107.314 158.938 107.314C159.255 107.314 159.495 107.355 159.659 107.438V108.949ZM164.933 117.176C163.644 117.176 162.595 116.754 161.786 115.91C160.978 115.061 160.573 113.927 160.573 112.509V112.21C160.573 111.267 160.752 110.426 161.109 109.688C161.473 108.943 161.977 108.363 162.621 107.947C163.271 107.525 163.975 107.314 164.73 107.314C165.967 107.314 166.928 107.722 167.613 108.536C168.299 109.351 168.642 110.517 168.642 112.034V112.711H162.199C162.223 113.648 162.495 114.407 163.017 114.987C163.544 115.562 164.212 115.849 165.021 115.849C165.595 115.849 166.081 115.731 166.479 115.497C166.878 115.263 167.227 114.952 167.525 114.565L168.519 115.339C167.722 116.563 166.526 117.176 164.933 117.176ZM164.73 108.65C164.074 108.65 163.523 108.891 163.078 109.371C162.633 109.846 162.357 110.514 162.252 111.375H167.016V111.252C166.969 110.426 166.746 109.787 166.348 109.336C165.949 108.879 165.41 108.65 164.73 108.65ZM170.136 112.166C170.136 110.672 170.479 109.491 171.164 108.624C171.85 107.751 172.77 107.314 173.924 107.314C175.049 107.314 175.937 107.692 176.587 108.448L176.657 107.49H178.151V120.656H176.525V116.121C175.869 116.824 174.996 117.176 173.906 117.176C172.758 117.176 171.841 116.73 171.155 115.84C170.476 114.943 170.136 113.757 170.136 112.28V112.166ZM171.762 112.351C171.762 113.44 171.99 114.296 172.447 114.917C172.91 115.538 173.531 115.849 174.311 115.849C175.277 115.849 176.016 115.421 176.525 114.565V109.907C176.01 109.069 175.277 108.65 174.328 108.65C173.543 108.65 172.919 108.964 172.456 109.591C171.993 110.212 171.762 111.132 171.762 112.351ZM186.633 116.06C186 116.804 185.071 117.176 183.847 117.176C182.833 117.176 182.06 116.883 181.526 116.297C180.999 115.705 180.732 114.832 180.727 113.678V107.49H182.353V113.634C182.353 115.075 182.938 115.796 184.11 115.796C185.353 115.796 186.179 115.333 186.589 114.407V107.49H188.215V117H186.668L186.633 116.06ZM194.64 117.176C193.351 117.176 192.302 116.754 191.493 115.91C190.685 115.061 190.28 113.927 190.28 112.509V112.21C190.28 111.267 190.459 110.426 190.816 109.688C191.18 108.943 191.684 108.363 192.328 107.947C192.979 107.525 193.682 107.314 194.438 107.314C195.674 107.314 196.635 107.722 197.32 108.536C198.006 109.351 198.349 110.517 198.349 112.034V112.711H191.906C191.93 113.648 192.202 114.407 192.724 114.987C193.251 115.562 193.919 115.849 194.728 115.849C195.302 115.849 195.788 115.731 196.187 115.497C196.585 115.263 196.934 114.952 197.232 114.565L198.226 115.339C197.429 116.563 196.233 117.176 194.64 117.176ZM194.438 108.65C193.781 108.65 193.23 108.891 192.785 109.371C192.34 109.846 192.064 110.514 191.959 111.375H196.723V111.252C196.676 110.426 196.453 109.787 196.055 109.336C195.656 108.879 195.117 108.65 194.438 108.65ZM205.775 114.478C205.775 114.038 205.608 113.698 205.274 113.458C204.946 113.212 204.369 113.001 203.543 112.825C202.723 112.649 202.069 112.438 201.583 112.192C201.103 111.946 200.745 111.653 200.511 111.313C200.282 110.974 200.168 110.569 200.168 110.101C200.168 109.321 200.496 108.662 201.152 108.123C201.814 107.584 202.658 107.314 203.684 107.314C204.762 107.314 205.635 107.593 206.303 108.149C206.977 108.706 207.313 109.418 207.313 110.285H205.679C205.679 109.84 205.488 109.456 205.107 109.134C204.732 108.812 204.258 108.65 203.684 108.65C203.092 108.65 202.629 108.779 202.295 109.037C201.961 109.295 201.794 109.632 201.794 110.048C201.794 110.44 201.949 110.736 202.26 110.936C202.57 111.135 203.13 111.325 203.938 111.507C204.753 111.688 205.412 111.905 205.916 112.157C206.42 112.409 206.792 112.714 207.032 113.071C207.278 113.423 207.401 113.854 207.401 114.363C207.401 115.213 207.062 115.896 206.382 116.411C205.702 116.921 204.82 117.176 203.736 117.176C202.975 117.176 202.301 117.041 201.715 116.771C201.129 116.502 200.669 116.127 200.335 115.646C200.007 115.16 199.843 114.636 199.843 114.073H201.469C201.498 114.618 201.715 115.052 202.119 115.374C202.529 115.69 203.068 115.849 203.736 115.849C204.352 115.849 204.844 115.726 205.213 115.479C205.588 115.228 205.775 114.894 205.775 114.478ZM211.726 105.188V107.49H213.501V108.747H211.726V114.645C211.726 115.025 211.805 115.312 211.963 115.506C212.121 115.693 212.391 115.787 212.771 115.787C212.959 115.787 213.217 115.752 213.545 115.682V117C213.117 117.117 212.701 117.176 212.297 117.176C211.57 117.176 211.022 116.956 210.653 116.517C210.284 116.077 210.1 115.453 210.1 114.645V108.747H208.368V107.49H210.1V105.188H211.726Z" fill="black"/>
<path d="M305.107 41.9717C305.107 41.2842 304.864 40.7542 304.377 40.3818C303.897 40.0094 303.027 39.6335 301.767 39.2539C300.506 38.8743 299.504 38.4518 298.759 37.9863C297.334 37.0911 296.621 35.9238 296.621 34.4844C296.621 33.224 297.133 32.1855 298.157 31.3691C299.188 30.5527 300.524 30.1445 302.164 30.1445C303.253 30.1445 304.223 30.3451 305.075 30.7461C305.927 31.1471 306.597 31.7201 307.084 32.4648C307.571 33.2025 307.814 34.0225 307.814 34.9248H305.107C305.107 34.1084 304.85 33.471 304.334 33.0127C303.826 32.5472 303.095 32.3145 302.143 32.3145C301.255 32.3145 300.563 32.5042 300.069 32.8838C299.582 33.2633 299.339 33.7933 299.339 34.4736C299.339 35.0465 299.604 35.5264 300.134 35.9131C300.664 36.2926 301.537 36.665 302.755 37.0303C303.972 37.3883 304.95 37.8001 305.688 38.2656C306.425 38.724 306.966 39.2539 307.31 39.8555C307.653 40.4499 307.825 41.1481 307.825 41.9502C307.825 43.2536 307.324 44.292 306.321 45.0654C305.326 45.8317 303.972 46.2148 302.261 46.2148C301.129 46.2148 300.087 46.0072 299.135 45.5918C298.189 45.1693 297.452 44.5892 296.922 43.8516C296.399 43.1139 296.138 42.2546 296.138 41.2734H298.855C298.855 42.1615 299.149 42.849 299.736 43.3359C300.324 43.8229 301.165 44.0664 302.261 44.0664C303.206 44.0664 303.915 43.8766 304.388 43.4971C304.868 43.1104 305.107 42.6019 305.107 41.9717ZM315.076 46.2148C313.422 46.2148 312.079 45.6956 311.048 44.6572C310.024 43.6117 309.512 42.2223 309.512 40.4893V40.167C309.512 39.0068 309.734 37.972 310.178 37.0625C310.629 36.1458 311.259 35.4333 312.068 34.9248C312.878 34.4163 313.78 34.1621 314.775 34.1621C316.358 34.1621 317.579 34.667 318.438 35.6768C319.305 36.6865 319.738 38.1152 319.738 39.9629V41.0156H312.144C312.222 41.9753 312.541 42.7344 313.1 43.293C313.665 43.8516 314.374 44.1309 315.227 44.1309C316.423 44.1309 317.396 43.6475 318.148 42.6807L319.556 44.0234C319.09 44.7181 318.467 45.2588 317.687 45.6455C316.913 46.0251 316.043 46.2148 315.076 46.2148ZM314.765 36.2568C314.049 36.2568 313.468 36.5075 313.024 37.0088C312.588 37.5101 312.308 38.2083 312.187 39.1035H317.16V38.9102C317.103 38.0365 316.87 37.3776 316.462 36.9336C316.054 36.4824 315.488 36.2568 314.765 36.2568ZM327.859 36.7617C327.516 36.7044 327.161 36.6758 326.796 36.6758C325.6 36.6758 324.794 37.1341 324.379 38.0508V46H321.769V34.377H324.261L324.325 35.6768C324.955 34.667 325.829 34.1621 326.946 34.1621C327.319 34.1621 327.627 34.2122 327.87 34.3125L327.859 36.7617ZM333.8 42.6914L336.26 34.377H338.956L334.928 46H332.661L328.601 34.377H331.308L333.8 42.6914ZM345.562 46.2148C343.908 46.2148 342.565 45.6956 341.534 44.6572C340.51 43.6117 339.998 42.2223 339.998 40.4893V40.167C339.998 39.0068 340.22 37.972 340.664 37.0625C341.115 36.1458 341.745 35.4333 342.555 34.9248C343.364 34.4163 344.266 34.1621 345.262 34.1621C346.844 34.1621 348.065 34.667 348.925 35.6768C349.791 36.6865 350.225 38.1152 350.225 39.9629V41.0156H342.63C342.709 41.9753 343.027 42.7344 343.586 43.293C344.152 43.8516 344.861 44.1309 345.713 44.1309C346.909 44.1309 347.883 43.6475 348.635 42.6807L350.042 44.0234C349.576 44.7181 348.953 45.2588 348.173 45.6455C347.399 46.0251 346.529 46.2148 345.562 46.2148ZM345.251 36.2568C344.535 36.2568 343.955 36.5075 343.511 37.0088C343.074 37.5101 342.795 38.2083 342.673 39.1035H347.646V38.9102C347.589 38.0365 347.356 37.3776 346.948 36.9336C346.54 36.4824 345.974 36.2568 345.251 36.2568ZM358.346 36.7617C358.002 36.7044 357.647 36.6758 357.282 36.6758C356.086 36.6758 355.281 37.1341 354.865 38.0508V46H352.255V34.377H354.747L354.812 35.6768C355.442 34.667 356.315 34.1621 357.433 34.1621C357.805 34.1621 358.113 34.2122 358.356 34.3125L358.346 36.7617Z" fill="black"/>
<path d="M279.224 202.842C279.101 203.895 278.711 204.708 278.055 205.282C277.403 205.852 276.535 206.137 275.45 206.137C274.274 206.137 273.331 205.715 272.62 204.872C271.914 204.029 271.561 202.901 271.561 201.488V200.531C271.561 199.606 271.725 198.793 272.053 198.091C272.385 197.389 272.855 196.851 273.461 196.478C274.067 196.099 274.769 195.91 275.566 195.91C276.624 195.91 277.471 196.206 278.109 196.799C278.747 197.387 279.119 198.202 279.224 199.246H277.904C277.79 198.453 277.542 197.879 277.159 197.523C276.781 197.168 276.25 196.99 275.566 196.99C274.728 196.99 274.069 197.3 273.591 197.92C273.117 198.54 272.88 199.422 272.88 200.565V201.529C272.88 202.609 273.105 203.468 273.557 204.106C274.008 204.744 274.639 205.063 275.45 205.063C276.179 205.063 276.738 204.899 277.125 204.571C277.517 204.239 277.777 203.662 277.904 202.842H279.224ZM280.488 202.233C280.488 201.509 280.63 200.857 280.912 200.278C281.199 199.7 281.596 199.253 282.102 198.938C282.612 198.624 283.193 198.467 283.845 198.467C284.852 198.467 285.665 198.815 286.285 199.513C286.91 200.21 287.222 201.137 287.222 202.295V202.384C287.222 203.104 287.083 203.751 286.805 204.325C286.531 204.895 286.137 205.339 285.622 205.658C285.112 205.977 284.524 206.137 283.858 206.137C282.856 206.137 282.042 205.788 281.418 205.091C280.798 204.394 280.488 203.471 280.488 202.322V202.233ZM281.76 202.384C281.76 203.204 281.949 203.863 282.327 204.359C282.71 204.856 283.22 205.104 283.858 205.104C284.501 205.104 285.011 204.854 285.39 204.353C285.768 203.847 285.957 203.14 285.957 202.233C285.957 201.422 285.763 200.766 285.376 200.265C284.993 199.759 284.483 199.506 283.845 199.506C283.22 199.506 282.717 199.754 282.334 200.251C281.951 200.748 281.76 201.459 281.76 202.384ZM290.004 198.604L290.045 199.533C290.61 198.822 291.348 198.467 292.26 198.467C293.823 198.467 294.611 199.349 294.625 201.112V206H293.36V201.105C293.356 200.572 293.233 200.178 292.991 199.923C292.754 199.668 292.383 199.54 291.877 199.54C291.467 199.54 291.107 199.649 290.797 199.868C290.487 200.087 290.245 200.374 290.072 200.729V206H288.808V198.604H290.004ZM298.248 196.812V198.604H299.629V199.581H298.248V204.168C298.248 204.464 298.31 204.688 298.433 204.838C298.556 204.984 298.765 205.057 299.062 205.057C299.207 205.057 299.408 205.029 299.663 204.975V206C299.33 206.091 299.007 206.137 298.692 206.137C298.127 206.137 297.701 205.966 297.414 205.624C297.127 205.282 296.983 204.797 296.983 204.168V199.581H295.637V198.604H296.983V196.812H298.248ZM304.182 206.137C303.179 206.137 302.363 205.809 301.734 205.152C301.105 204.492 300.791 203.61 300.791 202.507V202.274C300.791 201.541 300.93 200.887 301.208 200.312C301.491 199.734 301.882 199.283 302.384 198.959C302.89 198.631 303.437 198.467 304.024 198.467C304.986 198.467 305.733 198.784 306.267 199.417C306.8 200.05 307.066 200.957 307.066 202.138V202.664H302.056C302.074 203.393 302.286 203.983 302.691 204.435C303.102 204.881 303.621 205.104 304.25 205.104C304.697 205.104 305.075 205.013 305.385 204.831C305.695 204.649 305.966 204.407 306.198 204.106L306.971 204.708C306.351 205.66 305.421 206.137 304.182 206.137ZM304.024 199.506C303.514 199.506 303.086 199.693 302.739 200.066C302.393 200.436 302.179 200.955 302.097 201.625H305.802V201.529C305.765 200.887 305.592 200.39 305.282 200.039C304.972 199.684 304.553 199.506 304.024 199.506ZM309.732 198.604L309.773 199.533C310.339 198.822 311.077 198.467 311.988 198.467C313.551 198.467 314.34 199.349 314.354 201.112V206H313.089V201.105C313.084 200.572 312.961 200.178 312.72 199.923C312.483 199.668 312.111 199.54 311.605 199.54C311.195 199.54 310.835 199.649 310.525 199.868C310.215 200.087 309.974 200.374 309.801 200.729V206H308.536V198.604H309.732ZM317.977 196.812V198.604H319.357V199.581H317.977V204.168C317.977 204.464 318.038 204.688 318.161 204.838C318.284 204.984 318.494 205.057 318.79 205.057C318.936 205.057 319.136 205.029 319.392 204.975V206C319.059 206.091 318.735 206.137 318.421 206.137C317.856 206.137 317.43 205.966 317.143 205.624C316.855 205.282 316.712 204.797 316.712 204.168V199.581H315.365V198.604H316.712V196.812H317.977ZM323.979 202.233C323.979 201.509 324.12 200.857 324.402 200.278C324.689 199.7 325.086 199.253 325.592 198.938C326.102 198.624 326.683 198.467 327.335 198.467C328.342 198.467 329.156 198.815 329.775 199.513C330.4 200.21 330.712 201.137 330.712 202.295V202.384C330.712 203.104 330.573 203.751 330.295 204.325C330.021 204.895 329.627 205.339 329.112 205.658C328.602 205.977 328.014 206.137 327.349 206.137C326.346 206.137 325.533 205.788 324.908 205.091C324.288 204.394 323.979 203.471 323.979 202.322V202.233ZM325.25 202.384C325.25 203.204 325.439 203.863 325.817 204.359C326.2 204.856 326.711 205.104 327.349 205.104C327.991 205.104 328.502 204.854 328.88 204.353C329.258 203.847 329.447 203.14 329.447 202.233C329.447 201.422 329.254 200.766 328.866 200.265C328.483 199.759 327.973 199.506 327.335 199.506C326.711 199.506 326.207 199.754 325.824 200.251C325.441 200.748 325.25 201.459 325.25 202.384ZM332.92 206V199.581H331.751V198.604H332.92V197.845C332.92 197.052 333.132 196.439 333.556 196.006C333.979 195.573 334.579 195.356 335.354 195.356C335.645 195.356 335.935 195.395 336.222 195.473L336.153 196.498C335.939 196.457 335.711 196.437 335.47 196.437C335.06 196.437 334.743 196.557 334.52 196.799C334.296 197.036 334.185 197.378 334.185 197.824V198.604H335.764V199.581H334.185V206H332.92ZM346.886 202.384C346.886 203.509 346.628 204.416 346.113 205.104C345.598 205.793 344.901 206.137 344.021 206.137C343.124 206.137 342.417 205.852 341.902 205.282V208.844H340.638V198.604H341.793L341.854 199.424C342.369 198.786 343.085 198.467 344.001 198.467C344.89 198.467 345.591 198.802 346.106 199.472C346.626 200.142 346.886 201.074 346.886 202.268V202.384ZM345.621 202.24C345.621 201.406 345.443 200.748 345.088 200.265C344.732 199.782 344.245 199.54 343.625 199.54C342.859 199.54 342.285 199.88 341.902 200.559V204.093C342.281 204.767 342.859 205.104 343.639 205.104C344.245 205.104 344.726 204.865 345.081 204.387C345.441 203.904 345.621 203.188 345.621 202.24ZM352.074 199.738C351.883 199.706 351.675 199.69 351.452 199.69C350.623 199.69 350.06 200.044 349.764 200.75V206H348.499V198.604H349.729L349.75 199.458C350.165 198.797 350.753 198.467 351.514 198.467C351.76 198.467 351.947 198.499 352.074 198.562V199.738ZM354.617 206H353.353V198.604H354.617V206ZM353.25 196.642C353.25 196.437 353.312 196.263 353.435 196.122C353.562 195.981 353.749 195.91 353.995 195.91C354.241 195.91 354.428 195.981 354.556 196.122C354.683 196.263 354.747 196.437 354.747 196.642C354.747 196.847 354.683 197.018 354.556 197.154C354.428 197.291 354.241 197.359 353.995 197.359C353.749 197.359 353.562 197.291 353.435 197.154C353.312 197.018 353.25 196.847 353.25 196.642ZM359.088 204.284L360.92 198.604H362.212L359.56 206H358.596L355.916 198.604H357.208L359.088 204.284ZM367.886 206C367.813 205.854 367.754 205.594 367.708 205.221C367.12 205.831 366.418 206.137 365.603 206.137C364.873 206.137 364.274 205.932 363.805 205.521C363.34 205.107 363.107 204.583 363.107 203.949C363.107 203.179 363.399 202.582 363.982 202.158C364.57 201.73 365.395 201.516 366.457 201.516H367.688V200.935C367.688 200.493 367.555 200.142 367.291 199.882C367.027 199.618 366.637 199.485 366.122 199.485C365.671 199.485 365.293 199.599 364.987 199.827C364.682 200.055 364.529 200.331 364.529 200.654H363.258C363.258 200.285 363.388 199.93 363.647 199.588C363.912 199.242 364.267 198.968 364.714 198.768C365.165 198.567 365.66 198.467 366.197 198.467C367.049 198.467 367.717 198.681 368.2 199.109C368.683 199.533 368.934 200.119 368.952 200.866V204.271C368.952 204.95 369.039 205.49 369.212 205.891V206H367.886ZM365.787 205.036C366.184 205.036 366.56 204.934 366.915 204.729C367.271 204.523 367.528 204.257 367.688 203.929V202.411H366.696C365.147 202.411 364.372 202.865 364.372 203.771C364.372 204.168 364.504 204.478 364.769 204.701C365.033 204.924 365.372 205.036 365.787 205.036ZM372.65 196.812V198.604H374.031V199.581H372.65V204.168C372.65 204.464 372.712 204.688 372.835 204.838C372.958 204.984 373.168 205.057 373.464 205.057C373.61 205.057 373.81 205.029 374.065 204.975V206C373.733 206.091 373.409 206.137 373.095 206.137C372.53 206.137 372.104 205.966 371.816 205.624C371.529 205.282 371.386 204.797 371.386 204.168V199.581H370.039V198.604H371.386V196.812H372.65ZM378.584 206.137C377.581 206.137 376.766 205.809 376.137 205.152C375.508 204.492 375.193 203.61 375.193 202.507V202.274C375.193 201.541 375.332 200.887 375.61 200.312C375.893 199.734 376.285 199.283 376.786 198.959C377.292 198.631 377.839 198.467 378.427 198.467C379.388 198.467 380.136 198.784 380.669 199.417C381.202 200.05 381.469 200.957 381.469 202.138V202.664H376.458C376.476 203.393 376.688 203.983 377.094 204.435C377.504 204.881 378.023 205.104 378.652 205.104C379.099 205.104 379.477 205.013 379.787 204.831C380.097 204.649 380.368 204.407 380.601 204.106L381.373 204.708C380.753 205.66 379.824 206.137 378.584 206.137ZM378.427 199.506C377.916 199.506 377.488 199.693 377.142 200.066C376.795 200.436 376.581 200.955 376.499 201.625H380.204V201.529C380.168 200.887 379.994 200.39 379.685 200.039C379.375 199.684 378.955 199.506 378.427 199.506ZM386.835 206V199.581H385.666V198.604H386.835V197.975C386.835 197.15 387.07 196.507 387.539 196.047C388.013 195.587 388.681 195.356 389.542 195.356C390.052 195.356 390.697 195.495 391.477 195.773L391.265 196.84C390.695 196.612 390.153 196.498 389.638 196.498C389.095 196.498 388.703 196.621 388.462 196.867C388.225 197.109 388.106 197.473 388.106 197.961V198.604H389.617V199.581H388.106V206H386.835ZM392.105 206H390.834V198.604H392.105V206ZM395.537 206H394.272V195.5H395.537V206ZM400.637 206.137C399.634 206.137 398.818 205.809 398.189 205.152C397.561 204.492 397.246 203.61 397.246 202.507V202.274C397.246 201.541 397.385 200.887 397.663 200.312C397.946 199.734 398.338 199.283 398.839 198.959C399.345 198.631 399.892 198.467 400.479 198.467C401.441 198.467 402.188 198.784 402.722 199.417C403.255 200.05 403.521 200.957 403.521 202.138V202.664H398.511C398.529 203.393 398.741 203.983 399.146 204.435C399.557 204.881 400.076 205.104 400.705 205.104C401.152 205.104 401.53 205.013 401.84 204.831C402.15 204.649 402.421 204.407 402.653 204.106L403.426 204.708C402.806 205.66 401.876 206.137 400.637 206.137ZM400.479 199.506C399.969 199.506 399.541 199.693 399.194 200.066C398.848 200.436 398.634 200.955 398.552 201.625H402.257V201.529C402.22 200.887 402.047 200.39 401.737 200.039C401.427 199.684 401.008 199.506 400.479 199.506ZM409.298 204.038C409.298 203.696 409.168 203.432 408.908 203.245C408.653 203.054 408.204 202.89 407.562 202.753C406.924 202.616 406.415 202.452 406.037 202.261C405.663 202.069 405.385 201.841 405.203 201.577C405.025 201.313 404.937 200.998 404.937 200.634C404.937 200.028 405.192 199.515 405.702 199.096C406.217 198.676 406.873 198.467 407.671 198.467C408.509 198.467 409.188 198.683 409.708 199.116C410.232 199.549 410.494 200.103 410.494 200.777H409.223C409.223 200.431 409.075 200.132 408.778 199.882C408.487 199.631 408.118 199.506 407.671 199.506C407.211 199.506 406.851 199.606 406.591 199.807C406.331 200.007 406.201 200.269 406.201 200.593C406.201 200.898 406.322 201.128 406.563 201.283C406.805 201.438 407.24 201.586 407.869 201.728C408.503 201.869 409.015 202.037 409.407 202.233C409.799 202.429 410.089 202.666 410.275 202.944C410.467 203.218 410.562 203.553 410.562 203.949C410.562 204.61 410.298 205.141 409.77 205.542C409.241 205.938 408.555 206.137 407.712 206.137C407.119 206.137 406.595 206.032 406.14 205.822C405.684 205.613 405.326 205.321 405.066 204.947C404.811 204.569 404.684 204.161 404.684 203.724H405.948C405.971 204.147 406.14 204.485 406.454 204.735C406.773 204.981 407.192 205.104 407.712 205.104C408.19 205.104 408.573 205.009 408.86 204.817C409.152 204.621 409.298 204.362 409.298 204.038Z" fill="black"/>
<path d="M404.707 142.707C405.098 142.317 405.098 141.683 404.707 141.293L398.343 134.929C397.953 134.538 397.319 134.538 396.929 134.929C396.538 135.319 396.538 135.953 396.929 136.343L402.586 142L396.929 147.657C396.538 148.047 396.538 148.681 396.929 149.071C397.319 149.462 397.953 149.462 398.343 149.071L404.707 142.707ZM314 143H404V141H314V143Z" fill="black"/>
<path d="M313.293 157.293C312.902 157.683 312.902 158.317 313.293 158.707L319.657 165.071C320.047 165.462 320.681 165.462 321.071 165.071C321.462 164.681 321.462 164.047 321.071 163.657L315.414 158L321.071 152.343C321.462 151.953 321.462 151.319 321.071 150.929C320.681 150.538 320.047 150.538 319.657 150.929L313.293 157.293ZM404 157L314 157V159L404 159V157Z" fill="#FF0000"/>
</svg>
