<svg width="600" height="300" viewBox="0 0 600 300" fill="none" xmlns="http://www.w3.org/2000/svg">
<rect width="600" height="300" fill="white"/>
<path d="M109.815 107.097L109.042 105.496C109.046 105.435 109.049 105.374 109.049 105.313C109.049 103.497 107.161 101.824 103.984 100.484V101.598C103.675 101.475 103.352 101.355 103.016 101.24V100.72C98.4763 99.083 91.7179 98.0442 84.1685 98.0442C77.5725 98.0442 71.5798 98.8372 67.1432 100.129V101.939H67.143V99.7488C62.5977 101.193 59.7797 103.2 59.7797 105.419C59.7797 105.768 59.8502 106.113 59.9857 106.451L59.5227 107.275C59.5227 107.275 59.1517 107.756 59.805 108.771C60.3811 109.667 63.267 113.171 64.7902 115.006C65.4444 115.947 65.8881 116.527 65.9269 116.47C65.9881 116.382 65.5201 114.615 64.2208 112.6C63.6144 111.518 62.8905 110.084 62.4558 109.025C63.6691 109.793 70.7977 113.382 85.3384 113.368C100.199 113.353 106.804 108.701 107.529 108.068C107.276 109.086 106.41 111.145 105.72 112.593C104.586 114.664 104.175 116.466 104.228 116.556C104.261 116.612 104.648 116.015 105.219 115.048C106.547 113.155 109.063 109.543 109.566 108.623C110.136 107.579 109.815 107.097 109.815 107.097Z" fill="#A52B00"/>
<path d="M114.307 107.087L109.225 103.343C109.177 103.177 109.13 103.01 109.08 102.845L110.75 100.427C110.92 100.181 110.954 99.861 110.844 99.5805C110.733 99.3013 110.491 99.1012 110.204 99.0522L107.381 98.5731C107.272 98.3499 107.157 98.1301 107.042 97.9121L108.228 95.197C108.35 94.9204 108.325 94.599 108.163 94.348C108.001 94.0958 107.728 93.9485 107.436 93.9599L104.572 94.064C104.423 93.8708 104.273 93.6795 104.119 93.4916L104.777 90.5814C104.844 90.286 104.76 89.9765 104.554 89.7619C104.349 89.548 104.052 89.4594 103.769 89.5288L100.979 90.2148C100.798 90.0551 100.614 89.8975 100.429 89.743L100.529 86.7554C100.54 86.453 100.399 86.1656 100.157 85.9977C99.9148 85.8288 99.6078 85.8035 99.3432 85.9289L96.7401 87.1665C96.5304 87.0462 96.3196 86.9271 96.1065 86.8118L95.6465 83.8678C95.5998 83.5696 95.4079 83.3162 95.1392 83.2005C94.8712 83.0841 94.5643 83.1218 94.3291 83.2989L92.0082 85.0402C91.7796 84.9643 91.55 84.8916 91.3178 84.822L90.3174 82.0301C90.2157 81.7455 89.9811 81.5365 89.695 81.4777C89.41 81.4195 89.1168 81.5182 88.9191 81.7391L86.9655 83.9246C86.7294 83.8975 86.4929 83.8727 86.256 83.8521L84.7476 81.3107C84.5949 81.0533 84.325 80.8966 84.0341 80.8966C83.7439 80.8966 83.4736 81.0533 83.3219 81.3107L81.8131 83.8521C81.576 83.8727 81.3386 83.8975 81.1028 83.9246L79.1492 81.7391C78.9513 81.5182 78.657 81.4195 78.3727 81.4777C78.087 81.5373 77.8521 81.7455 77.751 82.0301L76.7498 84.822C76.5179 84.8916 76.2883 84.9648 76.0593 85.0402L73.7392 83.2989C73.5033 83.1212 73.1962 83.0836 72.9278 83.2005C72.66 83.3162 72.4674 83.5696 72.4209 83.8678L71.9606 86.8118C71.7478 86.9271 71.537 87.0456 71.3268 87.1665L68.724 85.9289C68.4596 85.803 68.151 85.8288 67.9102 85.9977C67.6686 86.1656 67.5272 86.453 67.5381 86.7554L67.6381 89.743C67.4527 89.8975 67.2694 90.0551 67.0878 90.2148L64.298 89.5288C64.0147 89.46 63.7175 89.548 63.5123 89.7619C63.306 89.9765 63.2224 90.286 63.2887 90.5814L63.9457 93.4916C63.7934 93.6802 63.6426 93.8708 63.4947 94.064L60.6299 93.9599C60.3408 93.9513 60.0648 94.0958 59.9033 94.348C59.7414 94.599 59.7169 94.9204 59.8374 95.197L61.0242 97.9121C60.9089 98.1301 60.7945 98.3499 60.6841 98.5731L57.8617 99.0522C57.5747 99.1005 57.3331 99.3005 57.2215 99.5805C57.1108 99.861 57.1467 100.181 57.3159 100.427L58.9856 102.845C58.9727 102.888 58.9608 102.931 58.948 102.974L54.2274 107.988C54.2274 107.988 53.5038 108.555 54.557 109.888C55.4858 111.063 60.2548 115.723 62.7735 118.164C63.8372 119.403 64.566 120.171 64.6421 120.104C64.7622 119.999 64.1314 117.744 62.0362 115.099C60.421 112.725 58.3248 109.074 58.8163 108.653C58.8163 108.653 59.3755 107.944 60.4973 107.433C60.5383 107.466 60.4549 107.4 60.4973 107.433C60.4973 107.433 84.1717 118.354 106.132 107.617C108.641 107.167 110.159 108.511 110.159 108.511C110.683 108.815 109.327 112.569 108.212 115.054C106.695 117.875 106.472 120.077 106.601 120.153C106.682 120.202 107.234 119.362 108.021 118.026C109.964 115.319 113.635 110.16 114.307 108.906C115.069 107.485 114.307 107.087 114.307 107.087Z" fill="#F74C00"/>
<path d="M103.955 105.687C103.955 105.687 107.362 105.529 111.836 100.981L112.47 99.5731C112.47 99.5731 105.526 92.6649 116.321 87.8965C116.321 87.8965 115.376 89.441 115.653 95.4084C115.653 95.4084 118.908 94.2778 119.863 89.0067C119.863 89.0067 124.61 95.2664 114.706 101.137C114.706 101.137 110.059 108.586 103.509 107.873L103.955 105.687Z" fill="#F74C00"/>
<path d="M88.5246 101.396C88.5246 101.396 90.8904 98.8052 93.2564 101.396C93.2564 101.396 95.1154 104.85 93.2564 106.577C93.2564 106.577 90.2146 108.995 88.5246 106.577C88.5246 106.577 86.4967 104.677 88.5246 101.396Z" fill="black"/>
<path d="M91.2644 102.357C91.2644 103.366 90.6698 104.184 89.9364 104.184C89.2031 104.184 88.6086 103.366 88.6086 102.357C88.6086 101.349 89.2031 100.531 89.9364 100.531C90.6698 100.531 91.2644 101.349 91.2644 102.357Z" fill="white"/>
<path d="M77.9651 100.688C77.9651 100.688 82.0233 98.8912 83.131 102.902C83.131 102.902 84.2913 107.577 79.7982 107.84C79.7982 107.84 74.0689 106.737 77.9651 100.688Z" fill="black"/>
<path d="M80.0034 102.424C80.0034 103.464 79.3902 104.308 78.6338 104.308C77.8777 104.308 77.2644 103.464 77.2644 102.424C77.2644 101.383 77.8777 100.54 78.6338 100.54C79.3902 100.54 80.0034 101.383 80.0034 102.424Z" fill="white"/>
<path d="M83.1663 109.475L88.3417 109.06C88.3417 109.06 88.1663 109.893 87.4911 110.518C87.4911 110.518 85.711 112.47 83.6688 110.356C83.6688 110.356 83.3346 109.996 83.1663 109.475Z" fill="black"/>
<path d="M62.4422 104.684C62.3995 104.684 62.3576 104.687 62.3158 104.69C60.6354 104.308 55.912 103.077 54.6635 101.08C54.6635 101.08 61.0195 93.8501 51.0854 89.2288L52.2421 97.2278C52.2421 97.2278 49.1797 95.1813 48.5188 90.7361C48.5188 90.7361 41.0613 96.1484 51.8102 101.336C51.8102 101.336 52.7851 104.999 62.1454 107.921L62.1523 107.893C62.2465 107.911 62.343 107.921 62.4422 107.921C63.3267 107.921 64.0438 107.197 64.0438 106.303C64.0438 105.409 63.3267 104.684 62.4422 104.684Z" fill="#F74C00"/>
<path d="M102.039 97.5187C105.525 93.0188 123.385 80.7387 109.11 85.1338C109.11 85.1338 106.764 85.7595 105.575 85.6552C102.531 85.3882 100.422 83.2221 99.0933 80.962C97.42 78.1156 96.2843 75.2632 93.6429 73.0096C89.0075 69.0545 79.2201 68.9395 73.9922 73.0096C71.2339 75.1571 70.2151 78.1156 68.5419 80.962C67.2134 83.2221 65.1047 85.3882 62.0605 85.6552C60.8716 85.7595 58.5251 85.1338 58.5251 85.1338C44.2502 80.7387 62.1101 93.0188 65.5958 97.5187C77.7437 94.639 89.8916 94.8376 102.039 97.5187Z" fill="black"/>
<path d="M89.2256 82.7369C89.2256 85.3649 86.8184 87.4954 83.8489 87.4954C80.8794 87.4954 78.4722 85.3649 78.4722 82.7369C78.4722 80.1089 80.8794 77.9785 83.8489 77.9785C86.8184 77.9785 89.2256 80.1089 89.2256 82.7369Z" fill="white"/>
<path d="M87.7592 87.4336C87.7592 89.3448 86.0085 90.8942 83.8489 90.8942C81.6893 90.8942 79.9386 89.3448 79.9386 87.4336C79.9386 85.5223 81.6893 83.9729 83.8489 83.9729C86.0085 83.9729 87.7592 85.5223 87.7592 87.4336Z" fill="white"/>
<path d="M83.4578 82.7369C83.4578 83.6926 82.5825 84.4673 81.5027 84.4673C80.4229 84.4673 79.5475 83.6926 79.5475 82.7369C79.5475 81.7813 80.4229 81.0066 81.5027 81.0066C82.5825 81.0066 83.4578 81.7813 83.4578 82.7369Z" fill="black"/>
<path d="M88.1502 82.7369C88.1502 83.6926 87.2748 84.4673 86.195 84.4673C85.1152 84.4673 84.2399 83.6926 84.2399 82.7369C84.2399 81.7813 85.1152 81.0066 86.195 81.0066C87.2748 81.0066 88.1502 81.7813 88.1502 82.7369Z" fill="black"/>
<path d="M77.4098 79.5078C77.7394 80.5361 77.4974 81.4838 76.8691 81.6245C76.2408 81.7652 75.4642 81.0457 75.1345 80.0173C74.8049 78.989 75.0469 78.0413 75.6752 77.9006C76.3035 77.7599 77.0801 78.4795 77.4098 79.5078Z" fill="white"/>
<path d="M75.6979 82.2503C74.568 82.5031 73.4972 82.2256 73.3062 81.6305C73.1152 81.0355 73.8764 80.3482 75.0063 80.0954C76.1362 79.8427 77.2071 80.1202 77.3981 80.7152C77.589 81.3103 76.8279 81.9976 75.6979 82.2503Z" fill="white"/>
<path d="M76.5919 79.7709L75.5363 81.4214L79.0046 83.2157L80.0602 81.5652L76.5919 79.7709Z" fill="white"/>
<path d="M76.5176 86.2493C77.6476 86.5021 78.4087 87.1894 78.2177 87.7844C78.0268 88.3795 76.9559 88.6569 75.826 88.4042C74.6961 88.1514 73.9349 87.4642 74.1259 86.8691C74.3169 86.274 75.3877 85.9966 76.5176 86.2493Z" fill="white"/>
<path d="M78.2295 88.9918C77.8999 90.0202 77.1233 90.7397 76.495 90.599C75.8667 90.4583 75.6246 89.5106 75.9543 88.4823C76.284 87.454 77.0606 86.7344 77.6888 86.8751C78.3171 87.0158 78.5592 87.9635 78.2295 88.9918Z" fill="white"/>
<path d="M76.3665 87.0941L77.422 88.7446L80.8903 86.9503L79.8348 85.2998L76.3665 87.0941Z" fill="white"/>
<path d="M92.0048 82.2582C90.8749 82.0055 90.1137 81.3182 90.3047 80.7232C90.4957 80.1281 91.5665 79.8506 92.6965 80.1034C93.8264 80.3561 94.5876 81.0434 94.3966 81.6385C94.2056 82.2335 93.1348 82.511 92.0048 82.2582Z" fill="white"/>
<path d="M90.2929 79.5157C90.6226 78.4874 91.3992 77.7679 92.0275 77.9086C92.6558 78.0493 92.8978 78.997 92.5682 80.0253C92.2385 81.0536 91.4619 81.7731 90.8336 81.6324C90.2053 81.4917 89.9632 80.544 90.2929 79.5157Z" fill="white"/>
<path d="M92.156 81.4133L91.1004 79.7628L87.6321 81.5571L88.6877 83.2076L92.156 81.4133Z" fill="white"/>
<path d="M89.4703 88.9999C89.1406 87.9716 89.3827 87.0239 90.011 86.8832C90.6393 86.7425 91.4159 87.462 91.7455 88.4903C92.0752 89.5187 91.8331 90.4664 91.2048 90.6071C90.5765 90.7478 89.8 90.0282 89.4703 88.9999Z" fill="white"/>
<path d="M91.1821 86.2574C92.3121 86.0046 93.3829 86.2821 93.5739 86.8772C93.7648 87.4722 93.0037 88.1595 91.8738 88.4122C90.7438 88.665 89.673 88.3875 89.482 87.7925C89.291 87.1974 90.0522 86.5101 91.1821 86.2574Z" fill="white"/>
<path d="M90.2882 88.7368L91.3437 87.0863L87.8754 85.292L86.8199 86.9425L90.2882 88.7368Z" fill="white"/>
<path d="M82.7656 85.9166L83.8489 84.3679L84.9321 85.9166H82.7656Z" fill="black"/>
<path d="M244.348 32.2031L248.531 42.6445L252.715 32.2031H254.903V45H253.216V40.0166L253.374 34.6377L249.173 45H247.881L243.688 34.6641L243.855 40.0166V45H242.168V32.2031H244.348ZM263.499 45C263.405 44.8125 263.329 44.4785 263.271 43.998C262.515 44.7832 261.612 45.1758 260.563 45.1758C259.626 45.1758 258.855 44.9121 258.252 44.3848C257.654 43.8516 257.355 43.1777 257.355 42.3633C257.355 41.373 257.73 40.6055 258.48 40.0605C259.236 39.5098 260.297 39.2344 261.662 39.2344H263.244V38.4873C263.244 37.9189 263.074 37.4678 262.734 37.1338C262.395 36.7939 261.894 36.624 261.231 36.624C260.651 36.624 260.165 36.7705 259.772 37.0635C259.38 37.3564 259.184 37.7109 259.184 38.127H257.549C257.549 37.6523 257.716 37.1953 258.05 36.7559C258.39 36.3105 258.847 35.959 259.421 35.7012C260.001 35.4434 260.637 35.3145 261.328 35.3145C262.424 35.3145 263.282 35.5898 263.903 36.1406C264.524 36.6855 264.847 37.4385 264.87 38.3994V42.7764C264.87 43.6494 264.981 44.3438 265.204 44.8594V45H263.499ZM260.801 43.7607C261.311 43.7607 261.794 43.6289 262.251 43.3652C262.708 43.1016 263.039 42.7588 263.244 42.3369V40.3857H261.97C259.978 40.3857 258.981 40.9688 258.981 42.1348C258.981 42.6445 259.151 43.043 259.491 43.3301C259.831 43.6172 260.268 43.7607 260.801 43.7607ZM269.186 45H267.56V31.5H269.186V45ZM273.562 45H271.937V35.4902H273.562V45ZM271.805 32.9678C271.805 32.7041 271.884 32.4814 272.042 32.2998C272.206 32.1182 272.446 32.0273 272.763 32.0273C273.079 32.0273 273.319 32.1182 273.483 32.2998C273.647 32.4814 273.729 32.7041 273.729 32.9678C273.729 33.2314 273.647 33.4512 273.483 33.627C273.319 33.8027 273.079 33.8906 272.763 33.8906C272.446 33.8906 272.206 33.8027 272.042 33.627C271.884 33.4512 271.805 33.2314 271.805 32.9678ZM279.987 43.8486C280.567 43.8486 281.074 43.6729 281.508 43.3213C281.941 42.9697 282.182 42.5303 282.229 42.0029H283.767C283.737 42.5479 283.55 43.0664 283.204 43.5586C282.858 44.0508 282.396 44.4434 281.815 44.7363C281.241 45.0293 280.632 45.1758 279.987 45.1758C278.692 45.1758 277.661 44.7451 276.894 43.8838C276.132 43.0166 275.751 41.833 275.751 40.333V40.0605C275.751 39.1348 275.921 38.3115 276.261 37.5908C276.601 36.8701 277.087 36.3105 277.72 35.9121C278.358 35.5137 279.111 35.3145 279.979 35.3145C281.045 35.3145 281.93 35.6338 282.633 36.2725C283.342 36.9111 283.72 37.7402 283.767 38.7598H282.229C282.182 38.1445 281.947 37.6406 281.525 37.248C281.109 36.8496 280.594 36.6504 279.979 36.6504C279.152 36.6504 278.511 36.9492 278.054 37.5469C277.603 38.1387 277.377 38.9971 277.377 40.1221V40.4297C277.377 41.5254 277.603 42.3691 278.054 42.9609C278.505 43.5527 279.149 43.8486 279.987 43.8486ZM287.361 45H285.735V35.4902H287.361V45ZM285.604 32.9678C285.604 32.7041 285.683 32.4814 285.841 32.2998C286.005 32.1182 286.245 32.0273 286.562 32.0273C286.878 32.0273 287.118 32.1182 287.282 32.2998C287.446 32.4814 287.528 32.7041 287.528 32.9678C287.528 33.2314 287.446 33.4512 287.282 33.627C287.118 33.8027 286.878 33.8906 286.562 33.8906C286.245 33.8906 286.005 33.8027 285.841 33.627C285.683 33.4512 285.604 33.2314 285.604 32.9678ZM289.541 40.1572C289.541 39.2256 289.723 38.3877 290.086 37.6436C290.455 36.8994 290.965 36.3252 291.615 35.9209C292.271 35.5166 293.019 35.3145 293.856 35.3145C295.151 35.3145 296.197 35.7627 296.994 36.6592C297.797 37.5557 298.198 38.748 298.198 40.2363V40.3506C298.198 41.2764 298.02 42.1084 297.662 42.8467C297.311 43.5791 296.804 44.1504 296.142 44.5605C295.485 44.9707 294.729 45.1758 293.874 45.1758C292.585 45.1758 291.539 44.7275 290.736 43.8311C289.939 42.9346 289.541 41.748 289.541 40.2715V40.1572ZM291.176 40.3506C291.176 41.4053 291.419 42.252 291.905 42.8906C292.397 43.5293 293.054 43.8486 293.874 43.8486C294.7 43.8486 295.356 43.5264 295.843 42.8818C296.329 42.2314 296.572 41.3232 296.572 40.1572C296.572 39.1143 296.323 38.2705 295.825 37.626C295.333 36.9756 294.677 36.6504 293.856 36.6504C293.054 36.6504 292.406 36.9697 291.914 37.6084C291.422 38.2471 291.176 39.1611 291.176 40.3506ZM306.108 44.0596C305.476 44.8037 304.547 45.1758 303.322 45.1758C302.309 45.1758 301.535 44.8828 301.002 44.2969C300.475 43.7051 300.208 42.832 300.202 41.6777V35.4902H301.828V41.6338C301.828 43.0752 302.414 43.7959 303.586 43.7959C304.828 43.7959 305.654 43.333 306.064 42.4072V35.4902H307.69V45H306.144L306.108 44.0596ZM315.706 42.4775C315.706 42.0381 315.539 41.6982 315.205 41.458C314.877 41.2119 314.3 41.001 313.474 40.8252C312.653 40.6494 312 40.4385 311.514 40.1924C311.033 39.9463 310.676 39.6533 310.441 39.3135C310.213 38.9736 310.099 38.5693 310.099 38.1006C310.099 37.3213 310.427 36.6621 311.083 36.123C311.745 35.584 312.589 35.3145 313.614 35.3145C314.692 35.3145 315.565 35.5928 316.233 36.1494C316.907 36.7061 317.244 37.418 317.244 38.2852H315.609C315.609 37.8398 315.419 37.4561 315.038 37.1338C314.663 36.8115 314.188 36.6504 313.614 36.6504C313.022 36.6504 312.56 36.7793 312.226 37.0371C311.892 37.2949 311.725 37.6318 311.725 38.0479C311.725 38.4404 311.88 38.7363 312.19 38.9355C312.501 39.1348 313.061 39.3252 313.869 39.5068C314.684 39.6885 315.343 39.9053 315.847 40.1572C316.351 40.4092 316.723 40.7139 316.963 41.0713C317.209 41.4229 317.332 41.8535 317.332 42.3633C317.332 43.2129 316.992 43.8955 316.312 44.4111C315.633 44.9209 314.751 45.1758 313.667 45.1758C312.905 45.1758 312.231 45.041 311.646 44.7715C311.06 44.502 310.6 44.127 310.266 43.6465C309.938 43.1602 309.773 42.6357 309.773 42.0732H311.399C311.429 42.6182 311.646 43.0518 312.05 43.374C312.46 43.6904 312.999 43.8486 313.667 43.8486C314.282 43.8486 314.774 43.7256 315.144 43.4795C315.519 43.2275 315.706 42.8936 315.706 42.4775ZM330.146 45H328.521V31.5H330.146V45ZM334.523 45H332.897V35.4902H334.523V45ZM332.766 32.9678C332.766 32.7041 332.845 32.4814 333.003 32.2998C333.167 32.1182 333.407 32.0273 333.724 32.0273C334.04 32.0273 334.28 32.1182 334.444 32.2998C334.608 32.4814 334.69 32.7041 334.69 32.9678C334.69 33.2314 334.608 33.4512 334.444 33.627C334.28 33.8027 334.04 33.8906 333.724 33.8906C333.407 33.8906 333.167 33.8027 333.003 33.627C332.845 33.4512 332.766 33.2314 332.766 32.9678ZM338.672 35.4902L338.725 36.6855C339.451 35.7715 340.4 35.3145 341.572 35.3145C343.582 35.3145 344.596 36.4482 344.613 38.7158V45H342.987V38.707C342.981 38.0215 342.823 37.5146 342.513 37.1865C342.208 36.8584 341.73 36.6943 341.08 36.6943C340.553 36.6943 340.09 36.835 339.691 37.1162C339.293 37.3975 338.982 37.7666 338.76 38.2236V45H337.134V35.4902H338.672ZM349.72 40.5967L348.7 41.6602V45H347.074V31.5H348.7V39.665L349.57 38.6191L352.532 35.4902H354.51L350.81 39.4629L354.94 45H353.033L349.72 40.5967ZM356.136 44.1475C356.136 43.8662 356.218 43.6318 356.382 43.4443C356.552 43.2568 356.804 43.1631 357.138 43.1631C357.472 43.1631 357.724 43.2568 357.894 43.4443C358.069 43.6318 358.157 43.8662 358.157 44.1475C358.157 44.417 358.069 44.6426 357.894 44.8242C357.724 45.0059 357.472 45.0967 357.138 45.0967C356.804 45.0967 356.552 45.0059 356.382 44.8242C356.218 44.6426 356.136 44.417 356.136 44.1475ZM356.145 36.3867C356.145 36.1055 356.227 35.8711 356.391 35.6836C356.561 35.4961 356.812 35.4023 357.146 35.4023C357.48 35.4023 357.732 35.4961 357.902 35.6836C358.078 35.8711 358.166 36.1055 358.166 36.3867C358.166 36.6562 358.078 36.8818 357.902 37.0635C357.732 37.2451 357.48 37.3359 357.146 37.3359C356.812 37.3359 356.561 37.2451 356.391 37.0635C356.227 36.8818 356.145 36.6562 356.145 36.3867ZM161.256 54.1875V56.4902H163.031V57.7471H161.256V63.6445C161.256 64.0254 161.335 64.3125 161.493 64.5059C161.651 64.6934 161.921 64.7871 162.302 64.7871C162.489 64.7871 162.747 64.752 163.075 64.6816V66C162.647 66.1172 162.231 66.1758 161.827 66.1758C161.101 66.1758 160.553 65.9561 160.184 65.5166C159.814 65.0771 159.63 64.4531 159.63 63.6445V57.7471H157.898V56.4902H159.63V54.1875H161.256ZM170.81 66C170.716 65.8125 170.64 65.4785 170.581 64.998C169.825 65.7832 168.923 66.1758 167.874 66.1758C166.937 66.1758 166.166 65.9121 165.562 65.3848C164.965 64.8516 164.666 64.1777 164.666 63.3633C164.666 62.373 165.041 61.6055 165.791 61.0605C166.547 60.5098 167.607 60.2344 168.973 60.2344H170.555V59.4873C170.555 58.9189 170.385 58.4678 170.045 58.1338C169.705 57.7939 169.204 57.624 168.542 57.624C167.962 57.624 167.476 57.7705 167.083 58.0635C166.69 58.3564 166.494 58.7109 166.494 59.127H164.859C164.859 58.6523 165.026 58.1953 165.36 57.7559C165.7 57.3105 166.157 56.959 166.731 56.7012C167.312 56.4434 167.947 56.3145 168.639 56.3145C169.734 56.3145 170.593 56.5898 171.214 57.1406C171.835 57.6855 172.157 58.4385 172.181 59.3994V63.7764C172.181 64.6494 172.292 65.3438 172.515 65.8594V66H170.81ZM168.111 64.7607C168.621 64.7607 169.104 64.6289 169.562 64.3652C170.019 64.1016 170.35 63.7588 170.555 63.3369V61.3857H169.28C167.288 61.3857 166.292 61.9688 166.292 63.1348C166.292 63.6445 166.462 64.043 166.802 64.3301C167.142 64.6172 167.578 64.7607 168.111 64.7607ZM179.326 57.9492C179.08 57.9082 178.813 57.8877 178.526 57.8877C177.46 57.8877 176.736 58.3418 176.355 59.25V66H174.729V56.4902H176.312L176.338 57.5889C176.871 56.7393 177.627 56.3145 178.605 56.3145C178.922 56.3145 179.162 56.3555 179.326 56.4375V57.9492ZM180.267 61.166C180.267 59.6836 180.609 58.5059 181.295 57.6328C181.98 56.7539 182.889 56.3145 184.02 56.3145C185.18 56.3145 186.085 56.7246 186.735 57.5449L186.814 56.4902H188.3V65.7715C188.3 67.002 187.934 67.9717 187.201 68.6807C186.475 69.3896 185.496 69.7441 184.266 69.7441C183.58 69.7441 182.909 69.5977 182.253 69.3047C181.597 69.0117 181.096 68.6104 180.75 68.1006L181.594 67.125C182.291 67.9863 183.144 68.417 184.151 68.417C184.942 68.417 185.558 68.1943 185.997 67.749C186.442 67.3037 186.665 66.6768 186.665 65.8682V65.0508C186.015 65.8008 185.127 66.1758 184.002 66.1758C182.889 66.1758 181.986 65.7275 181.295 64.8311C180.609 63.9346 180.267 62.7129 180.267 61.166ZM181.901 61.3506C181.901 62.4229 182.121 63.2666 182.561 63.8818C183 64.4912 183.615 64.7959 184.406 64.7959C185.432 64.7959 186.185 64.3301 186.665 63.3984V59.0566C186.167 58.1484 185.42 57.6943 184.424 57.6943C183.633 57.6943 183.015 58.002 182.569 58.6172C182.124 59.2324 181.901 60.1436 181.901 61.3506ZM194.707 66.1758C193.418 66.1758 192.369 65.7539 191.561 64.9102C190.752 64.0605 190.348 62.9268 190.348 61.5088V61.21C190.348 60.2666 190.526 59.4258 190.884 58.6875C191.247 57.9434 191.751 57.3633 192.396 56.9473C193.046 56.5254 193.749 56.3145 194.505 56.3145C195.741 56.3145 196.702 56.7217 197.388 57.5361C198.073 58.3506 198.416 59.5166 198.416 61.0342V61.7109H191.974C191.997 62.6484 192.27 63.4072 192.791 63.9873C193.318 64.5615 193.986 64.8486 194.795 64.8486C195.369 64.8486 195.855 64.7314 196.254 64.4971C196.652 64.2627 197.001 63.9521 197.3 63.5654L198.293 64.3389C197.496 65.5635 196.301 66.1758 194.707 66.1758ZM194.505 57.6504C193.849 57.6504 193.298 57.8906 192.853 58.3711C192.407 58.8457 192.132 59.5137 192.026 60.375H196.79V60.252C196.743 59.4258 196.521 58.7871 196.122 58.3359C195.724 57.8789 195.185 57.6504 194.505 57.6504ZM202.512 54.1875V56.4902H204.287V57.7471H202.512V63.6445C202.512 64.0254 202.591 64.3125 202.749 64.5059C202.907 64.6934 203.177 64.7871 203.558 64.7871C203.745 64.7871 204.003 64.752 204.331 64.6816V66C203.903 66.1172 203.487 66.1758 203.083 66.1758C202.356 66.1758 201.809 65.9561 201.439 65.5166C201.07 65.0771 200.886 64.4531 200.886 63.6445V57.7471H199.154V56.4902H200.886V54.1875H202.512ZM206.229 65.1475C206.229 64.8662 206.312 64.6318 206.476 64.4443C206.646 64.2568 206.897 64.1631 207.231 64.1631C207.565 64.1631 207.817 64.2568 207.987 64.4443C208.163 64.6318 208.251 64.8662 208.251 65.1475C208.251 65.417 208.163 65.6426 207.987 65.8242C207.817 66.0059 207.565 66.0967 207.231 66.0967C206.897 66.0967 206.646 66.0059 206.476 65.8242C206.312 65.6426 206.229 65.417 206.229 65.1475ZM214.755 64.8486C215.335 64.8486 215.842 64.6729 216.275 64.3213C216.709 63.9697 216.949 63.5303 216.996 63.0029H218.534C218.505 63.5479 218.317 64.0664 217.972 64.5586C217.626 65.0508 217.163 65.4434 216.583 65.7363C216.009 66.0293 215.399 66.1758 214.755 66.1758C213.46 66.1758 212.429 65.7451 211.661 64.8838C210.899 64.0166 210.519 62.833 210.519 61.333V61.0605C210.519 60.1348 210.688 59.3115 211.028 58.5908C211.368 57.8701 211.854 57.3105 212.487 56.9121C213.126 56.5137 213.879 56.3145 214.746 56.3145C215.812 56.3145 216.697 56.6338 217.4 57.2725C218.109 57.9111 218.487 58.7402 218.534 59.7598H216.996C216.949 59.1445 216.715 58.6406 216.293 58.248C215.877 57.8496 215.361 57.6504 214.746 57.6504C213.92 57.6504 213.278 57.9492 212.821 58.5469C212.37 59.1387 212.145 59.9971 212.145 61.1221V61.4297C212.145 62.5254 212.37 63.3691 212.821 63.9609C213.272 64.5527 213.917 64.8486 214.755 64.8486ZM219.932 61.1572C219.932 60.2256 220.113 59.3877 220.477 58.6436C220.846 57.8994 221.355 57.3252 222.006 56.9209C222.662 56.5166 223.409 56.3145 224.247 56.3145C225.542 56.3145 226.588 56.7627 227.385 57.6592C228.188 58.5557 228.589 59.748 228.589 61.2363V61.3506C228.589 62.2764 228.41 63.1084 228.053 63.8467C227.701 64.5791 227.194 65.1504 226.532 65.5605C225.876 65.9707 225.12 66.1758 224.265 66.1758C222.976 66.1758 221.93 65.7275 221.127 64.8311C220.33 63.9346 219.932 62.748 219.932 61.2715V61.1572ZM221.566 61.3506C221.566 62.4053 221.81 63.252 222.296 63.8906C222.788 64.5293 223.444 64.8486 224.265 64.8486C225.091 64.8486 225.747 64.5264 226.233 63.8818C226.72 63.2314 226.963 62.3232 226.963 61.1572C226.963 60.1143 226.714 59.2705 226.216 58.626C225.724 57.9756 225.067 57.6504 224.247 57.6504C223.444 57.6504 222.797 57.9697 222.305 58.6084C221.812 59.2471 221.566 60.1611 221.566 61.3506ZM232.157 56.4902L232.201 57.5449C232.898 56.7246 233.839 56.3145 235.022 56.3145C236.353 56.3145 237.258 56.8242 237.738 57.8438C238.055 57.3867 238.465 57.0176 238.969 56.7363C239.479 56.4551 240.079 56.3145 240.771 56.3145C242.856 56.3145 243.917 57.4189 243.952 59.6279V66H242.326V59.7246C242.326 59.0449 242.171 58.5381 241.86 58.2041C241.55 57.8643 241.028 57.6943 240.296 57.6943C239.692 57.6943 239.191 57.876 238.793 58.2393C238.395 58.5967 238.163 59.0801 238.099 59.6895V66H236.464V59.7686C236.464 58.3857 235.787 57.6943 234.434 57.6943C233.367 57.6943 232.638 58.1484 232.245 59.0566V66H230.619V56.4902H232.157ZM248.32 62.3965C248.332 61.6992 248.411 61.1484 248.558 60.7441C248.704 60.3398 249.003 59.8916 249.454 59.3994L250.605 58.2129C251.098 57.6562 251.344 57.0586 251.344 56.4199C251.344 55.8047 251.183 55.3242 250.86 54.9785C250.538 54.627 250.069 54.4512 249.454 54.4512C248.856 54.4512 248.376 54.6094 248.013 54.9258C247.649 55.2422 247.468 55.667 247.468 56.2002H245.842C245.854 55.251 246.19 54.4863 246.853 53.9062C247.521 53.3203 248.388 53.0273 249.454 53.0273C250.562 53.0273 251.423 53.3262 252.038 53.9238C252.659 54.5156 252.97 55.3301 252.97 56.3672C252.97 57.3926 252.495 58.4033 251.546 59.3994L250.588 60.3486C250.16 60.8232 249.946 61.5059 249.946 62.3965H248.32ZM248.25 65.1826C248.25 64.9189 248.329 64.6992 248.487 64.5234C248.651 64.3418 248.892 64.251 249.208 64.251C249.524 64.251 249.765 64.3418 249.929 64.5234C250.093 64.6992 250.175 64.9189 250.175 65.1826C250.175 65.4463 250.093 65.666 249.929 65.8418C249.765 66.0117 249.524 66.0967 249.208 66.0967C248.892 66.0967 248.651 66.0117 248.487 65.8418C248.329 65.666 248.25 65.4463 248.25 65.1826ZM259.518 57.9492C259.271 57.9082 259.005 57.8877 258.718 57.8877C257.651 57.8877 256.928 58.3418 256.547 59.25V66H254.921V56.4902H256.503L256.529 57.5889C257.062 56.7393 257.818 56.3145 258.797 56.3145C259.113 56.3145 259.354 56.3555 259.518 56.4375V57.9492ZM264.791 66.1758C263.502 66.1758 262.453 65.7539 261.645 64.9102C260.836 64.0605 260.432 62.9268 260.432 61.5088V61.21C260.432 60.2666 260.61 59.4258 260.968 58.6875C261.331 57.9434 261.835 57.3633 262.479 56.9473C263.13 56.5254 263.833 56.3145 264.589 56.3145C265.825 56.3145 266.786 56.7217 267.472 57.5361C268.157 58.3506 268.5 59.5166 268.5 61.0342V61.7109H262.058C262.081 62.6484 262.354 63.4072 262.875 63.9873C263.402 64.5615 264.07 64.8486 264.879 64.8486C265.453 64.8486 265.939 64.7314 266.338 64.4971C266.736 64.2627 267.085 63.9521 267.384 63.5654L268.377 64.3389C267.58 65.5635 266.385 66.1758 264.791 66.1758ZM264.589 57.6504C263.933 57.6504 263.382 57.8906 262.937 58.3711C262.491 58.8457 262.216 59.5137 262.11 60.375H266.874V60.252C266.827 59.4258 266.604 58.7871 266.206 58.3359C265.808 57.8789 265.269 57.6504 264.589 57.6504ZM269.994 61.166C269.994 59.707 270.34 58.5352 271.031 57.6504C271.723 56.7598 272.628 56.3145 273.747 56.3145C274.86 56.3145 275.742 56.6953 276.393 57.457V52.5H278.019V66H276.524L276.445 64.9805C275.795 65.7773 274.89 66.1758 273.729 66.1758C272.628 66.1758 271.729 65.7246 271.031 64.8223C270.34 63.9199 269.994 62.7422 269.994 61.2891V61.166ZM271.62 61.3506C271.62 62.4287 271.843 63.2725 272.288 63.8818C272.733 64.4912 273.349 64.7959 274.134 64.7959C275.165 64.7959 275.918 64.333 276.393 63.4072V59.0391C275.906 58.1426 275.159 57.6943 274.151 57.6943C273.354 57.6943 272.733 58.002 272.288 58.6172C271.843 59.2324 271.62 60.1436 271.62 61.3506ZM282.316 66H280.69V56.4902H282.316V66ZM280.559 53.9678C280.559 53.7041 280.638 53.4814 280.796 53.2998C280.96 53.1182 281.2 53.0273 281.517 53.0273C281.833 53.0273 282.073 53.1182 282.237 53.2998C282.401 53.4814 282.483 53.7041 282.483 53.9678C282.483 54.2314 282.401 54.4512 282.237 54.627C282.073 54.8027 281.833 54.8906 281.517 54.8906C281.2 54.8906 280.96 54.8027 280.796 54.627C280.638 54.4512 280.559 54.2314 280.559 53.9678ZM289.523 57.9492C289.277 57.9082 289.011 57.8877 288.724 57.8877C287.657 57.8877 286.934 58.3418 286.553 59.25V66H284.927V56.4902H286.509L286.535 57.5889C287.068 56.7393 287.824 56.3145 288.803 56.3145C289.119 56.3145 289.359 56.3555 289.523 56.4375V57.9492ZM294.797 66.1758C293.508 66.1758 292.459 65.7539 291.65 64.9102C290.842 64.0605 290.438 62.9268 290.438 61.5088V61.21C290.438 60.2666 290.616 59.4258 290.974 58.6875C291.337 57.9434 291.841 57.3633 292.485 56.9473C293.136 56.5254 293.839 56.3145 294.595 56.3145C295.831 56.3145 296.792 56.7217 297.478 57.5361C298.163 58.3506 298.506 59.5166 298.506 61.0342V61.7109H292.063C292.087 62.6484 292.359 63.4072 292.881 63.9873C293.408 64.5615 294.076 64.8486 294.885 64.8486C295.459 64.8486 295.945 64.7314 296.344 64.4971C296.742 64.2627 297.091 63.9521 297.39 63.5654L298.383 64.3389C297.586 65.5635 296.391 66.1758 294.797 66.1758ZM294.595 57.6504C293.938 57.6504 293.388 57.8906 292.942 58.3711C292.497 58.8457 292.222 59.5137 292.116 60.375H296.88V60.252C296.833 59.4258 296.61 58.7871 296.212 58.3359C295.813 57.8789 295.274 57.6504 294.595 57.6504ZM304.21 64.8486C304.79 64.8486 305.297 64.6729 305.73 64.3213C306.164 63.9697 306.404 63.5303 306.451 63.0029H307.989C307.96 63.5479 307.772 64.0664 307.427 64.5586C307.081 65.0508 306.618 65.4434 306.038 65.7363C305.464 66.0293 304.854 66.1758 304.21 66.1758C302.915 66.1758 301.884 65.7451 301.116 64.8838C300.354 64.0166 299.974 62.833 299.974 61.333V61.0605C299.974 60.1348 300.144 59.3115 300.483 58.5908C300.823 57.8701 301.31 57.3105 301.942 56.9121C302.581 56.5137 303.334 56.3145 304.201 56.3145C305.268 56.3145 306.152 56.6338 306.855 57.2725C307.564 57.9111 307.942 58.7402 307.989 59.7598H306.451C306.404 59.1445 306.17 58.6406 305.748 58.248C305.332 57.8496 304.816 57.6504 304.201 57.6504C303.375 57.6504 302.733 57.9492 302.276 58.5469C301.825 59.1387 301.6 59.9971 301.6 61.1221V61.4297C301.6 62.5254 301.825 63.3691 302.276 63.9609C302.728 64.5527 303.372 64.8486 304.21 64.8486ZM312.023 54.1875V56.4902H313.799V57.7471H312.023V63.6445C312.023 64.0254 312.103 64.3125 312.261 64.5059C312.419 64.6934 312.688 64.7871 313.069 64.7871C313.257 64.7871 313.515 64.752 313.843 64.6816V66C313.415 66.1172 312.999 66.1758 312.595 66.1758C311.868 66.1758 311.32 65.9561 310.951 65.5166C310.582 65.0771 310.397 64.4531 310.397 63.6445V57.7471H308.666V56.4902H310.397V54.1875H312.023ZM323.142 58.8457H315.812V57.4307H323.142V58.8457ZM323.142 62.4932H315.812V61.0869H323.142V62.4932ZM327.114 56.4902L327.158 57.5449C327.855 56.7246 328.796 56.3145 329.979 56.3145C331.31 56.3145 332.215 56.8242 332.695 57.8438C333.012 57.3867 333.422 57.0176 333.926 56.7363C334.436 56.4551 335.036 56.3145 335.728 56.3145C337.813 56.3145 338.874 57.4189 338.909 59.6279V66H337.283V59.7246C337.283 59.0449 337.128 58.5381 336.817 58.2041C336.507 57.8643 335.985 57.6943 335.253 57.6943C334.649 57.6943 334.148 57.876 333.75 58.2393C333.352 58.5967 333.12 59.0801 333.056 59.6895V66H331.421V59.7686C331.421 58.3857 330.744 57.6943 329.391 57.6943C328.324 57.6943 327.595 58.1484 327.202 59.0566V66H325.576V56.4902H327.114ZM347.241 66C347.147 65.8125 347.071 65.4785 347.013 64.998C346.257 65.7832 345.354 66.1758 344.306 66.1758C343.368 66.1758 342.598 65.9121 341.994 65.3848C341.396 64.8516 341.098 64.1777 341.098 63.3633C341.098 62.373 341.473 61.6055 342.223 61.0605C342.979 60.5098 344.039 60.2344 345.404 60.2344H346.986V59.4873C346.986 58.9189 346.816 58.4678 346.477 58.1338C346.137 57.7939 345.636 57.624 344.974 57.624C344.394 57.624 343.907 57.7705 343.515 58.0635C343.122 58.3564 342.926 58.7109 342.926 59.127H341.291C341.291 58.6523 341.458 58.1953 341.792 57.7559C342.132 57.3105 342.589 56.959 343.163 56.7012C343.743 56.4434 344.379 56.3145 345.07 56.3145C346.166 56.3145 347.024 56.5898 347.646 57.1406C348.267 57.6855 348.589 58.4385 348.612 59.3994V63.7764C348.612 64.6494 348.724 65.3438 348.946 65.8594V66H347.241ZM344.543 64.7607C345.053 64.7607 345.536 64.6289 345.993 64.3652C346.45 64.1016 346.781 63.7588 346.986 63.3369V61.3857H345.712C343.72 61.3857 342.724 61.9688 342.724 63.1348C342.724 63.6445 342.894 64.043 343.233 64.3301C343.573 64.6172 344.01 64.7607 344.543 64.7607ZM352.928 66H351.302V52.5H352.928V66ZM357.305 66H355.679V56.4902H357.305V66ZM355.547 53.9678C355.547 53.7041 355.626 53.4814 355.784 53.2998C355.948 53.1182 356.188 53.0273 356.505 53.0273C356.821 53.0273 357.062 53.1182 357.226 53.2998C357.39 53.4814 357.472 53.7041 357.472 53.9678C357.472 54.2314 357.39 54.4512 357.226 54.627C357.062 54.8027 356.821 54.8906 356.505 54.8906C356.188 54.8906 355.948 54.8027 355.784 54.627C355.626 54.4512 355.547 54.2314 355.547 53.9678ZM363.729 64.8486C364.31 64.8486 364.816 64.6729 365.25 64.3213C365.684 63.9697 365.924 63.5303 365.971 63.0029H367.509C367.479 63.5479 367.292 64.0664 366.946 64.5586C366.601 65.0508 366.138 65.4434 365.558 65.7363C364.983 66.0293 364.374 66.1758 363.729 66.1758C362.435 66.1758 361.403 65.7451 360.636 64.8838C359.874 64.0166 359.493 62.833 359.493 61.333V61.0605C359.493 60.1348 359.663 59.3115 360.003 58.5908C360.343 57.8701 360.829 57.3105 361.462 56.9121C362.101 56.5137 362.854 56.3145 363.721 56.3145C364.787 56.3145 365.672 56.6338 366.375 57.2725C367.084 57.9111 367.462 58.7402 367.509 59.7598H365.971C365.924 59.1445 365.689 58.6406 365.268 58.248C364.852 57.8496 364.336 57.6504 363.721 57.6504C362.895 57.6504 362.253 57.9492 361.796 58.5469C361.345 59.1387 361.119 59.9971 361.119 61.1221V61.4297C361.119 62.5254 361.345 63.3691 361.796 63.9609C362.247 64.5527 362.892 64.8486 363.729 64.8486ZM371.104 66H369.478V56.4902H371.104V66ZM369.346 53.9678C369.346 53.7041 369.425 53.4814 369.583 53.2998C369.747 53.1182 369.987 53.0273 370.304 53.0273C370.62 53.0273 370.86 53.1182 371.024 53.2998C371.188 53.4814 371.271 53.7041 371.271 53.9678C371.271 54.2314 371.188 54.4512 371.024 54.627C370.86 54.8027 370.62 54.8906 370.304 54.8906C369.987 54.8906 369.747 54.8027 369.583 54.627C369.425 54.4512 369.346 54.2314 369.346 53.9678ZM373.283 61.1572C373.283 60.2256 373.465 59.3877 373.828 58.6436C374.197 57.8994 374.707 57.3252 375.357 56.9209C376.014 56.5166 376.761 56.3145 377.599 56.3145C378.894 56.3145 379.939 56.7627 380.736 57.6592C381.539 58.5557 381.94 59.748 381.94 61.2363V61.3506C381.94 62.2764 381.762 63.1084 381.404 63.8467C381.053 64.5791 380.546 65.1504 379.884 65.5605C379.228 65.9707 378.472 66.1758 377.616 66.1758C376.327 66.1758 375.281 65.7275 374.479 64.8311C373.682 63.9346 373.283 62.748 373.283 61.2715V61.1572ZM374.918 61.3506C374.918 62.4053 375.161 63.252 375.647 63.8906C376.14 64.5293 376.796 64.8486 377.616 64.8486C378.442 64.8486 379.099 64.5264 379.585 63.8818C380.071 63.2314 380.314 62.3232 380.314 61.1572C380.314 60.1143 380.065 59.2705 379.567 58.626C379.075 57.9756 378.419 57.6504 377.599 57.6504C376.796 57.6504 376.148 57.9697 375.656 58.6084C375.164 59.2471 374.918 60.1611 374.918 61.3506ZM389.851 65.0596C389.218 65.8037 388.289 66.1758 387.064 66.1758C386.051 66.1758 385.277 65.8828 384.744 65.2969C384.217 64.7051 383.95 63.832 383.944 62.6777V56.4902H385.57V62.6338C385.57 64.0752 386.156 64.7959 387.328 64.7959C388.57 64.7959 389.396 64.333 389.807 63.4072V56.4902H391.433V66H389.886L389.851 65.0596ZM399.448 63.4775C399.448 63.0381 399.281 62.6982 398.947 62.458C398.619 62.2119 398.042 62.001 397.216 61.8252C396.396 61.6494 395.742 61.4385 395.256 61.1924C394.775 60.9463 394.418 60.6533 394.184 60.3135C393.955 59.9736 393.841 59.5693 393.841 59.1006C393.841 58.3213 394.169 57.6621 394.825 57.123C395.487 56.584 396.331 56.3145 397.356 56.3145C398.435 56.3145 399.308 56.5928 399.976 57.1494C400.649 57.7061 400.986 58.418 400.986 59.2852H399.352C399.352 58.8398 399.161 58.4561 398.78 58.1338C398.405 57.8115 397.931 57.6504 397.356 57.6504C396.765 57.6504 396.302 57.7793 395.968 58.0371C395.634 58.2949 395.467 58.6318 395.467 59.0479C395.467 59.4404 395.622 59.7363 395.933 59.9355C396.243 60.1348 396.803 60.3252 397.611 60.5068C398.426 60.6885 399.085 60.9053 399.589 61.1572C400.093 61.4092 400.465 61.7139 400.705 62.0713C400.951 62.4229 401.074 62.8535 401.074 63.3633C401.074 64.2129 400.734 64.8955 400.055 65.4111C399.375 65.9209 398.493 66.1758 397.409 66.1758C396.647 66.1758 395.974 66.041 395.388 65.7715C394.802 65.502 394.342 65.127 394.008 64.6465C393.68 64.1602 393.516 63.6357 393.516 63.0732H395.142C395.171 63.6182 395.388 64.0518 395.792 64.374C396.202 64.6904 396.741 64.8486 397.409 64.8486C398.024 64.8486 398.517 64.7256 398.886 64.4795C399.261 64.2275 399.448 63.8936 399.448 63.4775ZM403.228 65.1475C403.228 64.8662 403.31 64.6318 403.474 64.4443C403.644 64.2568 403.896 64.1631 404.229 64.1631C404.563 64.1631 404.815 64.2568 404.985 64.4443C405.161 64.6318 405.249 64.8662 405.249 65.1475C405.249 65.417 405.161 65.6426 404.985 65.8242C404.815 66.0059 404.563 66.0967 404.229 66.0967C403.896 66.0967 403.644 66.0059 403.474 65.8242C403.31 65.6426 403.228 65.417 403.228 65.1475ZM411.753 64.8486C412.333 64.8486 412.84 64.6729 413.273 64.3213C413.707 63.9697 413.947 63.5303 413.994 63.0029H415.532C415.503 63.5479 415.315 64.0664 414.97 64.5586C414.624 65.0508 414.161 65.4434 413.581 65.7363C413.007 66.0293 412.397 66.1758 411.753 66.1758C410.458 66.1758 409.427 65.7451 408.659 64.8838C407.897 64.0166 407.517 62.833 407.517 61.333V61.0605C407.517 60.1348 407.687 59.3115 408.026 58.5908C408.366 57.8701 408.853 57.3105 409.485 56.9121C410.124 56.5137 410.877 56.3145 411.744 56.3145C412.811 56.3145 413.695 56.6338 414.398 57.2725C415.107 57.9111 415.485 58.7402 415.532 59.7598H413.994C413.947 59.1445 413.713 58.6406 413.291 58.248C412.875 57.8496 412.359 57.6504 411.744 57.6504C410.918 57.6504 410.276 57.9492 409.819 58.5469C409.368 59.1387 409.143 59.9971 409.143 61.1221V61.4297C409.143 62.5254 409.368 63.3691 409.819 63.9609C410.271 64.5527 410.915 64.8486 411.753 64.8486ZM416.93 61.1572C416.93 60.2256 417.111 59.3877 417.475 58.6436C417.844 57.8994 418.354 57.3252 419.004 56.9209C419.66 56.5166 420.407 56.3145 421.245 56.3145C422.54 56.3145 423.586 56.7627 424.383 57.6592C425.186 58.5557 425.587 59.748 425.587 61.2363V61.3506C425.587 62.2764 425.408 63.1084 425.051 63.8467C424.699 64.5791 424.192 65.1504 423.53 65.5605C422.874 65.9707 422.118 66.1758 421.263 66.1758C419.974 66.1758 418.928 65.7275 418.125 64.8311C417.328 63.9346 416.93 62.748 416.93 61.2715V61.1572ZM418.564 61.3506C418.564 62.4053 418.808 63.252 419.294 63.8906C419.786 64.5293 420.442 64.8486 421.263 64.8486C422.089 64.8486 422.745 64.5264 423.231 63.8818C423.718 63.2314 423.961 62.3232 423.961 61.1572C423.961 60.1143 423.712 59.2705 423.214 58.626C422.722 57.9756 422.065 57.6504 421.245 57.6504C420.442 57.6504 419.795 57.9697 419.303 58.6084C418.811 59.2471 418.564 60.1611 418.564 61.3506ZM429.155 56.4902L429.199 57.5449C429.896 56.7246 430.837 56.3145 432.021 56.3145C433.351 56.3145 434.256 56.8242 434.736 57.8438C435.053 57.3867 435.463 57.0176 435.967 56.7363C436.477 56.4551 437.077 56.3145 437.769 56.3145C439.854 56.3145 440.915 57.4189 440.95 59.6279V66H439.324V59.7246C439.324 59.0449 439.169 58.5381 438.858 58.2041C438.548 57.8643 438.026 57.6943 437.294 57.6943C436.69 57.6943 436.189 57.876 435.791 58.2393C435.393 58.5967 435.161 59.0801 435.097 59.6895V66H433.462V59.7686C433.462 58.3857 432.785 57.6943 431.432 57.6943C430.365 57.6943 429.636 58.1484 429.243 59.0566V66H427.617V56.4902H429.155Z" fill="black"/>
<path d="M512 66.2594C479.057 66.2594 478.271 103.192 478.271 110.507C478.271 117.817 493.374 123.741 512 123.741C530.631 123.741 545.729 117.812 545.729 110.507C545.729 103.192 544.948 66.2594 512 66.2594Z" fill="#FCC21B"/>
<path d="M508.09 90.8137C508.09 90.8297 508.085 90.8456 508.085 90.8615C508.085 90.8456 508.085 90.8297 508.09 90.8137Z" fill="#2F2F2F"/>
<path d="M499.601 88.939H493.629C492.747 88.939 492.036 89.6508 492.036 90.5327C492.036 91.4146 492.747 92.1265 493.629 92.1265H499.903C499.659 91.489 499.521 90.7877 499.516 90.0493C499.505 89.6668 499.537 89.2949 499.601 88.939Z" fill="#2F2F2F"/>
<path d="M506.523 92.1259H499.898C500.583 93.9268 502.113 95.1753 503.872 95.154C506.002 95.1328 507.75 93.2787 508.079 90.8562C507.936 91.584 507.293 92.1259 506.523 92.1259Z" fill="#2F2F2F"/>
<path d="M508.085 90.8562C508.085 90.8403 508.09 90.8244 508.09 90.8084C508.106 90.7181 508.117 90.6225 508.117 90.5269C508.117 89.645 507.405 88.9331 506.523 88.9331H499.601C499.537 89.289 499.505 89.6609 499.51 90.0434C499.516 90.7872 499.659 91.4884 499.898 92.1206H506.523C507.293 92.1259 507.936 91.584 508.085 90.8562Z" fill="#2F2F2F"/>
<path d="M531.938 90.8137C531.938 90.8297 531.932 90.8456 531.932 90.8615C531.938 90.8456 531.932 90.8297 531.938 90.8137Z" fill="#2F2F2F"/>
<path d="M523.448 88.939H517.477C516.595 88.939 515.883 89.6508 515.883 90.5327C515.883 91.4146 516.595 92.1265 517.477 92.1265H523.751C523.507 91.489 523.369 90.7877 523.363 90.0493C523.353 89.6668 523.39 89.2949 523.448 88.939Z" fill="#2F2F2F"/>
<path d="M530.371 92.1259H523.746C524.431 93.9268 525.961 95.1753 527.72 95.154C529.85 95.1328 531.598 93.2787 531.927 90.8562C531.784 91.584 531.141 92.1259 530.371 92.1259Z" fill="#2F2F2F"/>
<path d="M531.932 90.8562C531.932 90.8403 531.938 90.8244 531.938 90.8084C531.954 90.7181 531.964 90.6225 531.964 90.5269C531.964 89.645 531.252 88.9331 530.371 88.9331H523.448C523.385 89.289 523.353 89.6609 523.358 90.0434C523.363 90.7872 523.507 91.4884 523.746 92.1206H530.371C531.141 92.1259 531.784 91.584 531.932 90.8562Z" fill="#2F2F2F"/>
<path d="M504.573 106.215C508.472 102.517 515.527 102.517 519.422 106.215" stroke="#2F2F2F" stroke-width="6" stroke-miterlimit="10" stroke-linecap="round"/>
<path d="M457.713 95.7071C458.104 95.3166 458.104 94.6834 457.713 94.2929L451.349 87.9289C450.959 87.5384 450.326 87.5384 449.935 87.9289C449.545 88.3195 449.545 88.9526 449.935 89.3431L455.592 95L449.935 100.657C449.545 101.047 449.545 101.681 449.935 102.071C450.326 102.462 450.959 102.462 451.349 102.071L457.713 95.7071ZM142 96H457.006V94H142V96Z" fill="black"/>
<rect x="237.5" y="124.5" width="124" height="124" rx="3.5" fill="white" stroke="black"/>
<path d="M243.347 183.49L243.391 184.545C244.088 183.725 245.028 183.314 246.212 183.314C247.542 183.314 248.447 183.824 248.928 184.844C249.244 184.387 249.654 184.018 250.158 183.736C250.668 183.455 251.269 183.314 251.96 183.314C254.046 183.314 255.106 184.419 255.142 186.628V193H253.516V186.725C253.516 186.045 253.36 185.538 253.05 185.204C252.739 184.864 252.218 184.694 251.485 184.694C250.882 184.694 250.381 184.876 249.982 185.239C249.584 185.597 249.353 186.08 249.288 186.689V193H247.653V186.769C247.653 185.386 246.977 184.694 245.623 184.694C244.557 184.694 243.827 185.148 243.435 186.057V193H241.809V183.49H243.347ZM263.474 193C263.38 192.812 263.304 192.479 263.245 191.998C262.489 192.783 261.587 193.176 260.538 193.176C259.601 193.176 258.83 192.912 258.227 192.385C257.629 191.852 257.33 191.178 257.33 190.363C257.33 189.373 257.705 188.605 258.455 188.061C259.211 187.51 260.271 187.234 261.637 187.234H263.219V186.487C263.219 185.919 263.049 185.468 262.709 185.134C262.369 184.794 261.868 184.624 261.206 184.624C260.626 184.624 260.14 184.771 259.747 185.063C259.354 185.356 259.158 185.711 259.158 186.127H257.523C257.523 185.652 257.69 185.195 258.024 184.756C258.364 184.311 258.821 183.959 259.396 183.701C259.976 183.443 260.611 183.314 261.303 183.314C262.398 183.314 263.257 183.59 263.878 184.141C264.499 184.686 264.821 185.438 264.845 186.399V190.776C264.845 191.649 264.956 192.344 265.179 192.859V193H263.474ZM260.775 191.761C261.285 191.761 261.769 191.629 262.226 191.365C262.683 191.102 263.014 190.759 263.219 190.337V188.386H261.944C259.952 188.386 258.956 188.969 258.956 190.135C258.956 190.645 259.126 191.043 259.466 191.33C259.806 191.617 260.242 191.761 260.775 191.761ZM269.16 193H267.534V179.5H269.16V193ZM273.537 193H271.911V183.49H273.537V193ZM271.779 180.968C271.779 180.704 271.858 180.481 272.017 180.3C272.181 180.118 272.421 180.027 272.737 180.027C273.054 180.027 273.294 180.118 273.458 180.3C273.622 180.481 273.704 180.704 273.704 180.968C273.704 181.231 273.622 181.451 273.458 181.627C273.294 181.803 273.054 181.891 272.737 181.891C272.421 181.891 272.181 181.803 272.017 181.627C271.858 181.451 271.779 181.231 271.779 180.968ZM279.962 191.849C280.542 191.849 281.049 191.673 281.482 191.321C281.916 190.97 282.156 190.53 282.203 190.003H283.741C283.712 190.548 283.524 191.066 283.179 191.559C282.833 192.051 282.37 192.443 281.79 192.736C281.216 193.029 280.606 193.176 279.962 193.176C278.667 193.176 277.636 192.745 276.868 191.884C276.106 191.017 275.726 189.833 275.726 188.333V188.061C275.726 187.135 275.896 186.312 276.235 185.591C276.575 184.87 277.062 184.311 277.694 183.912C278.333 183.514 279.086 183.314 279.953 183.314C281.02 183.314 281.904 183.634 282.607 184.272C283.316 184.911 283.694 185.74 283.741 186.76H282.203C282.156 186.145 281.922 185.641 281.5 185.248C281.084 184.85 280.568 184.65 279.953 184.65C279.127 184.65 278.485 184.949 278.028 185.547C277.577 186.139 277.352 186.997 277.352 188.122V188.43C277.352 189.525 277.577 190.369 278.028 190.961C278.479 191.553 279.124 191.849 279.962 191.849ZM287.336 193H285.71V183.49H287.336V193ZM285.578 180.968C285.578 180.704 285.657 180.481 285.815 180.3C285.979 180.118 286.22 180.027 286.536 180.027C286.853 180.027 287.093 180.118 287.257 180.3C287.421 180.481 287.503 180.704 287.503 180.968C287.503 181.231 287.421 181.451 287.257 181.627C287.093 181.803 286.853 181.891 286.536 181.891C286.22 181.891 285.979 181.803 285.815 181.627C285.657 181.451 285.578 181.231 285.578 180.968ZM289.516 188.157C289.516 187.226 289.697 186.388 290.061 185.644C290.43 184.899 290.939 184.325 291.59 183.921C292.246 183.517 292.993 183.314 293.831 183.314C295.126 183.314 296.172 183.763 296.969 184.659C297.771 185.556 298.173 186.748 298.173 188.236V188.351C298.173 189.276 297.994 190.108 297.637 190.847C297.285 191.579 296.778 192.15 296.116 192.561C295.46 192.971 294.704 193.176 293.849 193.176C292.56 193.176 291.514 192.728 290.711 191.831C289.914 190.935 289.516 189.748 289.516 188.271V188.157ZM291.15 188.351C291.15 189.405 291.394 190.252 291.88 190.891C292.372 191.529 293.028 191.849 293.849 191.849C294.675 191.849 295.331 191.526 295.817 190.882C296.304 190.231 296.547 189.323 296.547 188.157C296.547 187.114 296.298 186.271 295.8 185.626C295.308 184.976 294.651 184.65 293.831 184.65C293.028 184.65 292.381 184.97 291.889 185.608C291.396 186.247 291.15 187.161 291.15 188.351ZM306.083 192.06C305.45 192.804 304.521 193.176 303.297 193.176C302.283 193.176 301.51 192.883 300.977 192.297C300.449 191.705 300.183 190.832 300.177 189.678V183.49H301.803V189.634C301.803 191.075 302.389 191.796 303.561 191.796C304.803 191.796 305.629 191.333 306.039 190.407V183.49H307.665V193H306.118L306.083 192.06ZM315.681 190.478C315.681 190.038 315.514 189.698 315.18 189.458C314.852 189.212 314.274 189.001 313.448 188.825C312.628 188.649 311.975 188.438 311.488 188.192C311.008 187.946 310.65 187.653 310.416 187.313C310.188 186.974 310.073 186.569 310.073 186.101C310.073 185.321 310.401 184.662 311.058 184.123C311.72 183.584 312.563 183.314 313.589 183.314C314.667 183.314 315.54 183.593 316.208 184.149C316.882 184.706 317.219 185.418 317.219 186.285H315.584C315.584 185.84 315.394 185.456 315.013 185.134C314.638 184.812 314.163 184.65 313.589 184.65C312.997 184.65 312.534 184.779 312.2 185.037C311.866 185.295 311.699 185.632 311.699 186.048C311.699 186.44 311.854 186.736 312.165 186.936C312.476 187.135 313.035 187.325 313.844 187.507C314.658 187.688 315.317 187.905 315.821 188.157C316.325 188.409 316.697 188.714 316.938 189.071C317.184 189.423 317.307 189.854 317.307 190.363C317.307 191.213 316.967 191.896 316.287 192.411C315.607 192.921 314.726 193.176 313.642 193.176C312.88 193.176 312.206 193.041 311.62 192.771C311.034 192.502 310.574 192.127 310.24 191.646C309.912 191.16 309.748 190.636 309.748 190.073H311.374C311.403 190.618 311.62 191.052 312.024 191.374C312.435 191.69 312.974 191.849 313.642 191.849C314.257 191.849 314.749 191.726 315.118 191.479C315.493 191.228 315.681 190.894 315.681 190.478ZM319.46 192.147C319.46 191.866 319.542 191.632 319.706 191.444C319.876 191.257 320.128 191.163 320.462 191.163C320.796 191.163 321.048 191.257 321.218 191.444C321.394 191.632 321.481 191.866 321.481 192.147C321.481 192.417 321.394 192.643 321.218 192.824C321.048 193.006 320.796 193.097 320.462 193.097C320.128 193.097 319.876 193.006 319.706 192.824C319.542 192.643 319.46 192.417 319.46 192.147ZM327.985 191.849C328.565 191.849 329.072 191.673 329.506 191.321C329.939 190.97 330.18 190.53 330.227 190.003H331.765C331.735 190.548 331.548 191.066 331.202 191.559C330.856 192.051 330.394 192.443 329.813 192.736C329.239 193.029 328.63 193.176 327.985 193.176C326.69 193.176 325.659 192.745 324.892 191.884C324.13 191.017 323.749 189.833 323.749 188.333V188.061C323.749 187.135 323.919 186.312 324.259 185.591C324.599 184.87 325.085 184.311 325.718 183.912C326.356 183.514 327.109 183.314 327.977 183.314C329.043 183.314 329.928 183.634 330.631 184.272C331.34 184.911 331.718 185.74 331.765 186.76H330.227C330.18 186.145 329.945 185.641 329.523 185.248C329.107 184.85 328.592 184.65 327.977 184.65C327.15 184.65 326.509 184.949 326.052 185.547C325.601 186.139 325.375 186.997 325.375 188.122V188.43C325.375 189.525 325.601 190.369 326.052 190.961C326.503 191.553 327.147 191.849 327.985 191.849ZM333.162 188.157C333.162 187.226 333.344 186.388 333.707 185.644C334.076 184.899 334.586 184.325 335.236 183.921C335.893 183.517 336.64 183.314 337.478 183.314C338.772 183.314 339.818 183.763 340.615 184.659C341.418 185.556 341.819 186.748 341.819 188.236V188.351C341.819 189.276 341.641 190.108 341.283 190.847C340.932 191.579 340.425 192.15 339.763 192.561C339.106 192.971 338.351 193.176 337.495 193.176C336.206 193.176 335.16 192.728 334.357 191.831C333.561 190.935 333.162 189.748 333.162 188.271V188.157ZM334.797 188.351C334.797 189.405 335.04 190.252 335.526 190.891C336.019 191.529 336.675 191.849 337.495 191.849C338.321 191.849 338.978 191.526 339.464 190.882C339.95 190.231 340.193 189.323 340.193 188.157C340.193 187.114 339.944 186.271 339.446 185.626C338.954 184.976 338.298 184.65 337.478 184.65C336.675 184.65 336.027 184.97 335.535 185.608C335.043 186.247 334.797 187.161 334.797 188.351ZM345.388 183.49L345.432 184.545C346.129 183.725 347.069 183.314 348.253 183.314C349.583 183.314 350.488 183.824 350.969 184.844C351.285 184.387 351.695 184.018 352.199 183.736C352.709 183.455 353.31 183.314 354.001 183.314C356.087 183.314 357.147 184.419 357.183 186.628V193H355.557V186.725C355.557 186.045 355.401 185.538 355.091 185.204C354.78 184.864 354.259 184.694 353.526 184.694C352.923 184.694 352.422 184.876 352.023 185.239C351.625 185.597 351.394 186.08 351.329 186.689V193H349.694V186.769C349.694 185.386 349.018 184.694 347.664 184.694C346.598 184.694 345.868 185.148 345.476 186.057V193H343.85V183.49H345.388Z" fill="black"/>
<path d="M512 187V188H513V187H512ZM375.293 186.293C374.902 186.683 374.902 187.317 375.293 187.707L381.657 194.071C382.047 194.462 382.681 194.462 383.071 194.071C383.462 193.681 383.462 193.047 383.071 192.657L377.414 187L383.071 181.343C383.462 180.953 383.462 180.319 383.071 179.929C382.681 179.538 382.047 179.538 381.657 179.929L375.293 186.293ZM511 134V187H513V134H511ZM512 186L376 186V188L512 188V186Z" fill="#FF0000"/>
<path d="M404.128 210.823H401.122V216H399.426V203.203H403.662C405.104 203.203 406.211 203.531 406.984 204.188C407.764 204.844 408.153 205.799 408.153 207.053C408.153 207.85 407.937 208.544 407.503 209.136C407.075 209.728 406.478 210.17 405.71 210.463L408.716 215.895V216H406.905L404.128 210.823ZM401.122 209.443H403.715C404.553 209.443 405.218 209.227 405.71 208.793C406.208 208.359 406.457 207.779 406.457 207.053C406.457 206.262 406.22 205.655 405.745 205.233C405.276 204.812 404.597 204.598 403.706 204.592H401.122V209.443ZM414.218 216.176C412.929 216.176 411.88 215.754 411.071 214.91C410.263 214.061 409.858 212.927 409.858 211.509V211.21C409.858 210.267 410.037 209.426 410.395 208.688C410.758 207.943 411.262 207.363 411.906 206.947C412.557 206.525 413.26 206.314 414.016 206.314C415.252 206.314 416.213 206.722 416.898 207.536C417.584 208.351 417.927 209.517 417.927 211.034V211.711H411.484C411.508 212.648 411.78 213.407 412.302 213.987C412.829 214.562 413.497 214.849 414.306 214.849C414.88 214.849 415.366 214.731 415.765 214.497C416.163 214.263 416.512 213.952 416.811 213.565L417.804 214.339C417.007 215.563 415.812 216.176 414.218 216.176ZM414.016 207.65C413.359 207.65 412.809 207.891 412.363 208.371C411.918 208.846 411.643 209.514 411.537 210.375H416.301V210.252C416.254 209.426 416.031 208.787 415.633 208.336C415.234 207.879 414.695 207.65 414.016 207.65ZM419.421 211.166C419.421 209.707 419.767 208.535 420.458 207.65C421.149 206.76 422.055 206.314 423.174 206.314C424.287 206.314 425.169 206.695 425.819 207.457V202.5H427.445V216H425.951L425.872 214.98C425.222 215.777 424.316 216.176 423.156 216.176C422.055 216.176 421.155 215.725 420.458 214.822C419.767 213.92 419.421 212.742 419.421 211.289V211.166ZM421.047 211.351C421.047 212.429 421.27 213.272 421.715 213.882C422.16 214.491 422.775 214.796 423.561 214.796C424.592 214.796 425.345 214.333 425.819 213.407V209.039C425.333 208.143 424.586 207.694 423.578 207.694C422.781 207.694 422.16 208.002 421.715 208.617C421.27 209.232 421.047 210.144 421.047 211.351ZM431.743 216H430.117V206.49H431.743V216ZM429.985 203.968C429.985 203.704 430.064 203.481 430.223 203.3C430.387 203.118 430.627 203.027 430.943 203.027C431.26 203.027 431.5 203.118 431.664 203.3C431.828 203.481 431.91 203.704 431.91 203.968C431.91 204.231 431.828 204.451 431.664 204.627C431.5 204.803 431.26 204.891 430.943 204.891C430.627 204.891 430.387 204.803 430.223 204.627C430.064 204.451 429.985 204.231 429.985 203.968ZM438.95 207.949C438.704 207.908 438.438 207.888 438.15 207.888C437.084 207.888 436.36 208.342 435.979 209.25V216H434.354V206.49H435.936L435.962 207.589C436.495 206.739 437.251 206.314 438.229 206.314C438.546 206.314 438.786 206.355 438.95 206.438V207.949ZM444.224 216.176C442.935 216.176 441.886 215.754 441.077 214.91C440.269 214.061 439.864 212.927 439.864 211.509V211.21C439.864 210.267 440.043 209.426 440.4 208.688C440.764 207.943 441.268 207.363 441.912 206.947C442.562 206.525 443.266 206.314 444.021 206.314C445.258 206.314 446.219 206.722 446.904 207.536C447.59 208.351 447.933 209.517 447.933 211.034V211.711H441.49C441.514 212.648 441.786 213.407 442.308 213.987C442.835 214.562 443.503 214.849 444.312 214.849C444.886 214.849 445.372 214.731 445.771 214.497C446.169 214.263 446.518 213.952 446.816 213.565L447.81 214.339C447.013 215.563 445.817 216.176 444.224 216.176ZM444.021 207.65C443.365 207.65 442.814 207.891 442.369 208.371C441.924 208.846 441.648 209.514 441.543 210.375H446.307V210.252C446.26 209.426 446.037 208.787 445.639 208.336C445.24 207.879 444.701 207.65 444.021 207.65ZM453.637 214.849C454.217 214.849 454.724 214.673 455.157 214.321C455.591 213.97 455.831 213.53 455.878 213.003H457.416C457.387 213.548 457.199 214.066 456.854 214.559C456.508 215.051 456.045 215.443 455.465 215.736C454.891 216.029 454.281 216.176 453.637 216.176C452.342 216.176 451.311 215.745 450.543 214.884C449.781 214.017 449.4 212.833 449.4 211.333V211.061C449.4 210.135 449.57 209.312 449.91 208.591C450.25 207.87 450.736 207.311 451.369 206.912C452.008 206.514 452.761 206.314 453.628 206.314C454.694 206.314 455.579 206.634 456.282 207.272C456.991 207.911 457.369 208.74 457.416 209.76H455.878C455.831 209.145 455.597 208.641 455.175 208.248C454.759 207.85 454.243 207.65 453.628 207.65C452.802 207.65 452.16 207.949 451.703 208.547C451.252 209.139 451.026 209.997 451.026 211.122V211.43C451.026 212.525 451.252 213.369 451.703 213.961C452.154 214.553 452.799 214.849 453.637 214.849ZM461.45 204.188V206.49H463.226V207.747H461.45V213.645C461.45 214.025 461.529 214.312 461.688 214.506C461.846 214.693 462.115 214.787 462.496 214.787C462.684 214.787 462.941 214.752 463.27 214.682V216C462.842 216.117 462.426 216.176 462.021 216.176C461.295 216.176 460.747 215.956 460.378 215.517C460.009 215.077 459.824 214.453 459.824 213.645V207.747H458.093V206.49H459.824V204.188H461.45ZM469.079 216.176C467.79 216.176 466.741 215.754 465.933 214.91C465.124 214.061 464.72 212.927 464.72 211.509V211.21C464.72 210.267 464.898 209.426 465.256 208.688C465.619 207.943 466.123 207.363 466.768 206.947C467.418 206.525 468.121 206.314 468.877 206.314C470.113 206.314 471.074 206.722 471.76 207.536C472.445 208.351 472.788 209.517 472.788 211.034V211.711H466.346C466.369 212.648 466.642 213.407 467.163 213.987C467.69 214.562 468.358 214.849 469.167 214.849C469.741 214.849 470.228 214.731 470.626 214.497C471.024 214.263 471.373 213.952 471.672 213.565L472.665 214.339C471.868 215.563 470.673 216.176 469.079 216.176ZM468.877 207.65C468.221 207.65 467.67 207.891 467.225 208.371C466.779 208.846 466.504 209.514 466.398 210.375H471.162V210.252C471.115 209.426 470.893 208.787 470.494 208.336C470.096 207.879 469.557 207.65 468.877 207.65ZM474.282 211.166C474.282 209.707 474.628 208.535 475.319 207.65C476.011 206.76 476.916 206.314 478.035 206.314C479.148 206.314 480.03 206.695 480.681 207.457V202.5H482.307V216H480.812L480.733 214.98C480.083 215.777 479.178 216.176 478.018 216.176C476.916 216.176 476.017 215.725 475.319 214.822C474.628 213.92 474.282 212.742 474.282 211.289V211.166ZM475.908 211.351C475.908 212.429 476.131 213.272 476.576 213.882C477.021 214.491 477.637 214.796 478.422 214.796C479.453 214.796 480.206 214.333 480.681 213.407V209.039C480.194 208.143 479.447 207.694 478.439 207.694C477.643 207.694 477.021 208.002 476.576 208.617C476.131 209.232 475.908 210.144 475.908 211.351ZM491.509 204.188V206.49H493.284V207.747H491.509V213.645C491.509 214.025 491.588 214.312 491.746 214.506C491.904 214.693 492.174 214.787 492.555 214.787C492.742 214.787 493 214.752 493.328 214.682V216C492.9 216.117 492.484 216.176 492.08 216.176C491.354 216.176 490.806 215.956 490.437 215.517C490.067 215.077 489.883 214.453 489.883 213.645V207.747H488.151V206.49H489.883V204.188H491.509ZM494.585 211.157C494.585 210.226 494.767 209.388 495.13 208.644C495.499 207.899 496.009 207.325 496.659 206.921C497.315 206.517 498.062 206.314 498.9 206.314C500.195 206.314 501.241 206.763 502.038 207.659C502.841 208.556 503.242 209.748 503.242 211.236V211.351C503.242 212.276 503.063 213.108 502.706 213.847C502.354 214.579 501.848 215.15 501.186 215.561C500.529 215.971 499.773 216.176 498.918 216.176C497.629 216.176 496.583 215.728 495.78 214.831C494.983 213.935 494.585 212.748 494.585 211.271V211.157ZM496.22 211.351C496.22 212.405 496.463 213.252 496.949 213.891C497.441 214.529 498.098 214.849 498.918 214.849C499.744 214.849 500.4 214.526 500.887 213.882C501.373 213.231 501.616 212.323 501.616 211.157C501.616 210.114 501.367 209.271 500.869 208.626C500.377 207.976 499.721 207.65 498.9 207.65C498.098 207.65 497.45 207.97 496.958 208.608C496.466 209.247 496.22 210.161 496.22 211.351Z" fill="black"/>
</svg>
