<svg width="600" height="300" viewBox="0 0 600 300" fill="none" xmlns="http://www.w3.org/2000/svg">
<rect width="600" height="300" fill="white"/>
<path d="M82.0523 159.678L81.4337 158.396C81.4369 158.348 81.4393 158.299 81.4393 158.25C81.4393 156.798 79.9288 155.459 77.3875 154.387V155.278C77.1397 155.18 76.8817 155.084 76.6129 154.992V154.576C72.981 153.266 67.5743 152.435 61.5348 152.435C56.258 152.435 51.4638 153.07 47.9145 154.103V155.551H47.9144V153.799C44.2782 154.955 42.0237 156.56 42.0237 158.335C42.0237 158.615 42.0801 158.89 42.1886 159.161L41.8182 159.82C41.8182 159.82 41.5214 160.205 42.044 161.017C42.5049 161.733 44.8136 164.537 46.0321 166.005C46.5555 166.758 46.9105 167.221 46.9415 167.176C46.9905 167.105 46.6161 165.692 45.5766 164.08C45.0916 163.214 44.5124 162.067 44.1646 161.22C45.1353 161.834 50.8382 164.706 62.4707 164.694C74.359 164.682 79.6433 160.961 80.2233 160.454C80.0207 161.268 79.3282 162.916 78.7759 164.074C77.8686 165.731 77.5399 167.173 77.5822 167.244C77.609 167.289 77.9186 166.812 78.3752 166.038C79.4375 164.524 81.4507 161.634 81.853 160.898C82.3089 160.063 82.0523 159.678 82.0523 159.678Z" fill="#A52B00"/>
<path d="M85.646 159.67L81.5801 156.675C81.5419 156.541 81.5038 156.408 81.4643 156.276L82.7998 154.341C82.9361 154.145 82.9636 153.889 82.8751 153.664C82.7864 153.441 82.5925 153.281 82.3632 153.242L80.105 152.858C80.0175 152.68 79.9258 152.504 79.8338 152.33L80.7825 150.158C80.8801 149.936 80.8597 149.679 80.7302 149.478C80.6012 149.277 80.3824 149.159 80.1492 149.168L77.8573 149.251C77.7387 149.097 77.6182 148.944 77.4952 148.793L78.0219 146.465C78.0753 146.229 78.0078 145.981 77.8432 145.809C77.6795 145.638 77.4415 145.568 77.2153 145.623L74.983 146.172C74.8385 146.044 74.6915 145.918 74.5429 145.794L74.6232 143.404C74.6318 143.162 74.519 142.932 74.3254 142.798C74.1318 142.663 73.8862 142.643 73.6745 142.743L71.5921 143.733C71.4243 143.637 71.2557 143.542 71.0852 143.449L70.7172 141.094C70.6798 140.856 70.5263 140.653 70.3114 140.56C70.0969 140.467 69.8514 140.497 69.6632 140.639L67.8066 142.032C67.6237 141.971 67.44 141.913 67.2542 141.858L66.4539 139.624C66.3726 139.396 66.1849 139.229 65.956 139.182C65.728 139.136 65.4934 139.215 65.3353 139.391L63.7724 141.14C63.5835 141.118 63.3943 141.098 63.2048 141.082L61.998 139.048C61.8759 138.843 61.66 138.717 61.4272 138.717C61.1952 138.717 60.9789 138.843 60.8575 139.048L59.6505 141.082C59.4608 141.098 59.2708 141.118 59.0823 141.14L57.5194 139.391C57.361 139.215 57.1256 139.136 56.8982 139.182C56.6696 139.23 56.4817 139.396 56.4008 139.624L55.5999 141.858C55.4143 141.913 55.2307 141.972 55.0475 142.032L53.1914 140.639C53.0027 140.497 52.7569 140.467 52.5422 140.56C52.328 140.653 52.1739 140.856 52.1367 141.094L51.7685 143.449C51.5983 143.542 51.4296 143.636 51.2614 143.733L49.1792 142.743C48.9677 142.642 48.7208 142.663 48.5282 142.798C48.3348 142.932 48.2217 143.162 48.2305 143.404L48.3105 145.794C48.1622 145.918 48.0155 146.044 47.8703 146.172L45.6384 145.623C45.4117 145.568 45.174 145.638 45.0099 145.809C44.8448 145.981 44.7779 146.229 44.831 146.465L45.3566 148.793C45.2347 148.944 45.114 149.097 44.9957 149.251L42.7039 149.168C42.4726 149.161 42.2519 149.277 42.1226 149.478C41.9931 149.679 41.9735 149.936 42.0699 150.158L43.0193 152.33C42.9272 152.504 42.8356 152.68 42.7473 152.858L40.4893 153.242C40.2598 153.28 40.0665 153.44 39.9772 153.664C39.8886 153.889 39.9174 154.145 40.0527 154.341L41.3884 156.276C41.3781 156.31 41.3686 156.345 41.3584 156.379L37.5819 160.391C37.5819 160.391 37.003 160.844 37.8456 161.91C38.5887 162.85 42.4038 166.578 44.4188 168.531C45.2697 169.523 45.8528 170.137 45.9137 170.083C46.0098 169.999 45.5051 168.195 43.8289 166.079C42.5368 164.18 40.8598 161.259 41.2531 160.923C41.2531 160.923 41.7004 160.355 42.5978 159.946C42.6307 159.972 42.5639 159.92 42.5978 159.946C42.5978 159.946 61.5374 168.683 79.1056 160.094C81.1125 159.734 82.3274 160.809 82.3274 160.809C82.7464 161.052 81.6615 164.055 80.7693 166.043C79.5559 168.3 79.3779 170.062 79.4808 170.123C79.5458 170.161 79.9872 169.49 80.617 168.421C82.1709 166.255 85.1083 162.128 85.646 161.125C86.2555 159.988 85.646 159.67 85.646 159.67Z" fill="#F74C00"/>
<path d="M77.3643 158.549C77.3643 158.549 80.0894 158.423 83.6689 154.785L84.1762 153.658C84.1762 153.658 78.6204 148.132 87.2568 144.317C87.2568 144.317 86.5007 145.553 86.7226 150.327C86.7226 150.327 89.3265 149.422 90.09 145.205C90.09 145.205 93.8882 150.213 85.9648 154.91C85.9648 154.91 82.2475 160.869 77.0071 160.298L77.3643 158.549Z" fill="#F74C00"/>
<path d="M65.0197 155.117C65.0197 155.117 66.9124 153.044 68.8051 155.117C68.8051 155.117 70.2923 157.88 68.8051 159.262C68.8051 159.262 66.3717 161.196 65.0197 159.262C65.0197 159.262 63.3974 157.742 65.0197 155.117Z" fill="black"/>
<path d="M67.2115 155.886C67.2115 156.693 66.7359 157.347 66.1491 157.347C65.5625 157.347 65.0868 156.693 65.0868 155.886C65.0868 155.079 65.5625 154.425 66.1491 154.425C66.7359 154.425 67.2115 155.079 67.2115 155.886Z" fill="white"/>
<path d="M56.5721 154.55C56.5721 154.55 59.8186 153.113 60.7048 156.321C60.7048 156.321 61.633 160.061 58.0386 160.272C58.0386 160.272 53.4551 159.39 56.5721 154.55Z" fill="black"/>
<path d="M58.2027 155.939C58.2027 156.771 57.7122 157.446 57.1071 157.446C56.5022 157.446 56.0115 156.771 56.0115 155.939C56.0115 155.107 56.5022 154.432 57.1071 154.432C57.7122 154.432 58.2027 155.107 58.2027 155.939Z" fill="white"/>
<path d="M60.7331 161.58L64.8734 161.248C64.8734 161.248 64.7331 161.914 64.1929 162.415C64.1929 162.415 62.7688 163.976 61.135 162.285C61.135 162.285 60.8677 161.996 60.7331 161.58Z" fill="black"/>
<path d="M44.1538 157.747C44.1196 157.747 44.0861 157.75 44.0527 157.752C42.7083 157.446 38.9296 156.462 37.9308 154.864C37.9308 154.864 43.0156 149.08 35.0683 145.383L35.9937 151.782C35.9937 151.782 33.5437 150.145 33.015 146.589C33.015 146.589 27.049 150.919 35.6482 155.068C35.6482 155.068 36.4281 157.999 43.9164 160.337L43.9218 160.315C43.9972 160.329 44.0744 160.337 44.1538 160.337C44.8613 160.337 45.435 159.757 45.435 159.042C45.435 158.327 44.8613 157.747 44.1538 157.747Z" fill="#F74C00"/>
<path d="M75.8314 152.015C78.62 148.415 92.908 138.591 81.488 142.107C81.488 142.107 79.6109 142.608 78.6597 142.524C76.2244 142.311 74.5375 140.578 73.4746 138.77C72.136 136.492 71.2274 134.211 69.1143 132.408C65.406 129.244 57.5761 129.152 53.3938 132.408C51.1871 134.126 50.3721 136.492 49.0336 138.77C47.9707 140.578 46.2838 142.311 43.8484 142.524C42.8973 142.608 41.0201 142.107 41.0201 142.107C29.6002 138.591 43.8881 148.415 46.6766 152.015C56.395 149.711 66.1133 149.87 75.8314 152.015V152.015Z" fill="black"/>
<path d="M65.5805 140.19C65.5805 142.292 63.6547 143.996 61.2791 143.996C58.9036 143.996 56.9778 142.292 56.9778 140.19C56.9778 138.087 58.9036 136.383 61.2791 136.383C63.6547 136.383 65.5805 138.087 65.5805 140.19Z" fill="white"/>
<path d="M64.4073 143.947C64.4073 145.476 63.0068 146.715 61.2791 146.715C59.5514 146.715 58.1509 145.476 58.1509 143.947C58.1509 142.418 59.5514 141.178 61.2791 141.178C63.0068 141.178 64.4073 142.418 64.4073 143.947V143.947Z" fill="white"/>
<path d="M60.9663 140.19C60.9663 140.954 60.266 141.574 59.4022 141.574C58.5383 141.574 57.838 140.954 57.838 140.19C57.838 139.425 58.5383 138.805 59.4022 138.805C60.266 138.805 60.9663 139.425 60.9663 140.19Z" fill="black"/>
<path d="M64.7201 140.19C64.7201 140.954 64.0199 141.574 63.156 141.574C62.2922 141.574 61.5919 140.954 61.5919 140.19C61.5919 139.425 62.2922 138.805 63.156 138.805C64.0199 138.805 64.7201 139.425 64.7201 140.19Z" fill="black"/>
<path d="M56.1278 137.606C56.3916 138.429 56.1979 139.187 55.6953 139.3C55.1926 139.412 54.5714 138.837 54.3076 138.014C54.0439 137.191 54.2376 136.433 54.7402 136.321C55.2428 136.208 55.8641 136.784 56.1278 137.606V137.606Z" fill="white"/>
<path d="M54.7584 139.8C53.8544 140.003 52.9978 139.781 52.845 139.305C52.6922 138.828 53.3011 138.279 54.2051 138.076C55.109 137.874 55.9657 138.096 56.1184 138.572C56.2712 139.048 55.6623 139.598 54.7584 139.8Z" fill="white"/>
<path d="M55.4735 137.817L54.6291 139.137L57.4037 140.573L58.2482 139.252L55.4735 137.817Z" fill="white"/>
<path d="M55.4141 142.999C56.3181 143.202 56.927 143.751 56.7742 144.227C56.6214 144.703 55.7648 144.925 54.8608 144.723C53.9569 144.521 53.3479 143.971 53.5007 143.495C53.6535 143.019 54.5102 142.797 55.4141 142.999Z" fill="white"/>
<path d="M56.7836 145.193C56.5199 146.016 55.8986 146.592 55.396 146.479C54.8934 146.367 54.6997 145.608 54.9634 144.786C55.2272 143.963 55.8484 143.387 56.3511 143.5C56.8537 143.613 57.0474 144.371 56.7836 145.193Z" fill="white"/>
<path d="M55.2932 143.675L56.1376 144.996L58.9123 143.56L58.0678 142.24L55.2932 143.675Z" fill="white"/>
<path d="M67.8039 139.807C66.8999 139.604 66.291 139.055 66.4438 138.579C66.5966 138.103 67.4532 137.881 68.3572 138.083C69.2611 138.285 69.8701 138.835 69.7173 139.311C69.5645 139.787 68.7078 140.009 67.8039 139.807V139.807Z" fill="white"/>
<path d="M66.4343 137.613C66.6981 136.79 67.3193 136.214 67.822 136.327C68.3246 136.439 68.5183 137.198 68.2545 138.02C67.9908 138.843 67.3695 139.419 66.8669 139.306C66.3643 139.193 66.1706 138.435 66.4343 137.613Z" fill="white"/>
<path d="M67.9248 139.131L67.0803 137.81L64.3057 139.246L65.1501 140.566L67.9248 139.131Z" fill="white"/>
<path d="M65.7762 145.2C65.5125 144.377 65.7062 143.619 66.2088 143.506C66.7114 143.394 67.3327 143.97 67.5964 144.792C67.8602 145.615 67.6665 146.373 67.1639 146.486C66.6612 146.598 66.04 146.023 65.7762 145.2Z" fill="white"/>
<path d="M67.1457 143.006C68.0496 142.804 68.9063 143.026 69.0591 143.502C69.2119 143.978 68.6029 144.528 67.699 144.73C66.7951 144.932 65.9384 144.71 65.7856 144.234C65.6328 143.758 66.2418 143.208 67.1457 143.006Z" fill="white"/>
<path d="M66.4305 144.989L67.275 143.669L64.5003 142.234L63.6559 143.554L66.4305 144.989Z" fill="white"/>
<path d="M60.4125 142.733L61.2791 141.494L62.1457 142.733H60.4125V142.733Z" fill="black"/>
<line x1="300.5" y1="8" x2="300.5" y2="292" stroke="black"/>
<rect x="260.5" y="110.5" width="79" height="79" rx="3.5" fill="white" stroke="black"/>
<path d="M284.83 134.592H280.717V146H279.038V134.592H274.934V133.203H284.83V134.592ZM291.343 146C291.249 145.812 291.173 145.479 291.114 144.998C290.358 145.783 289.456 146.176 288.407 146.176C287.47 146.176 286.699 145.912 286.096 145.385C285.498 144.852 285.199 144.178 285.199 143.363C285.199 142.373 285.574 141.605 286.324 141.061C287.08 140.51 288.141 140.234 289.506 140.234H291.088V139.487C291.088 138.919 290.918 138.468 290.578 138.134C290.238 137.794 289.737 137.624 289.075 137.624C288.495 137.624 288.009 137.771 287.616 138.063C287.224 138.356 287.027 138.711 287.027 139.127H285.393C285.393 138.652 285.56 138.195 285.894 137.756C286.233 137.311 286.69 136.959 287.265 136.701C287.845 136.443 288.48 136.314 289.172 136.314C290.268 136.314 291.126 136.59 291.747 137.141C292.368 137.686 292.69 138.438 292.714 139.399V143.776C292.714 144.649 292.825 145.344 293.048 145.859V146H291.343ZM288.645 144.761C289.154 144.761 289.638 144.629 290.095 144.365C290.552 144.102 290.883 143.759 291.088 143.337V141.386H289.813C287.821 141.386 286.825 141.969 286.825 143.135C286.825 143.645 286.995 144.043 287.335 144.33C287.675 144.617 288.111 144.761 288.645 144.761ZM299.859 137.949C299.613 137.908 299.347 137.888 299.06 137.888C297.993 137.888 297.27 138.342 296.889 139.25V146H295.263V136.49H296.845L296.871 137.589C297.404 136.739 298.16 136.314 299.139 136.314C299.455 136.314 299.695 136.355 299.859 136.438V137.949ZM300.8 141.166C300.8 139.684 301.143 138.506 301.828 137.633C302.514 136.754 303.422 136.314 304.553 136.314C305.713 136.314 306.618 136.725 307.269 137.545L307.348 136.49H308.833V145.771C308.833 147.002 308.467 147.972 307.734 148.681C307.008 149.39 306.029 149.744 304.799 149.744C304.113 149.744 303.442 149.598 302.786 149.305C302.13 149.012 301.629 148.61 301.283 148.101L302.127 147.125C302.824 147.986 303.677 148.417 304.685 148.417C305.476 148.417 306.091 148.194 306.53 147.749C306.976 147.304 307.198 146.677 307.198 145.868V145.051C306.548 145.801 305.66 146.176 304.535 146.176C303.422 146.176 302.52 145.728 301.828 144.831C301.143 143.935 300.8 142.713 300.8 141.166ZM302.435 141.351C302.435 142.423 302.654 143.267 303.094 143.882C303.533 144.491 304.148 144.796 304.939 144.796C305.965 144.796 306.718 144.33 307.198 143.398V139.057C306.7 138.148 305.953 137.694 304.957 137.694C304.166 137.694 303.548 138.002 303.103 138.617C302.657 139.232 302.435 140.144 302.435 141.351ZM315.24 146.176C313.951 146.176 312.902 145.754 312.094 144.91C311.285 144.061 310.881 142.927 310.881 141.509V141.21C310.881 140.267 311.06 139.426 311.417 138.688C311.78 137.943 312.284 137.363 312.929 136.947C313.579 136.525 314.282 136.314 315.038 136.314C316.274 136.314 317.235 136.722 317.921 137.536C318.606 138.351 318.949 139.517 318.949 141.034V141.711H312.507C312.53 142.648 312.803 143.407 313.324 143.987C313.852 144.562 314.52 144.849 315.328 144.849C315.902 144.849 316.389 144.731 316.787 144.497C317.186 144.263 317.534 143.952 317.833 143.565L318.826 144.339C318.029 145.563 316.834 146.176 315.24 146.176ZM315.038 137.65C314.382 137.65 313.831 137.891 313.386 138.371C312.94 138.846 312.665 139.514 312.56 140.375H317.323V140.252C317.276 139.426 317.054 138.787 316.655 138.336C316.257 137.879 315.718 137.65 315.038 137.65ZM323.045 134.188V136.49H324.82V137.747H323.045V143.645C323.045 144.025 323.124 144.312 323.282 144.506C323.44 144.693 323.71 144.787 324.091 144.787C324.278 144.787 324.536 144.752 324.864 144.682V146C324.437 146.117 324.021 146.176 323.616 146.176C322.89 146.176 322.342 145.956 321.973 145.517C321.604 145.077 321.419 144.453 321.419 143.645V137.747H319.688V136.49H321.419V134.188H323.045ZM278.511 164.759L280.339 157.49H281.965L279.196 167H277.878L275.566 159.793L273.316 167H271.998L269.238 157.49H270.855L272.728 164.609L274.942 157.49H276.252L278.511 164.759ZM287.572 167.176C286.283 167.176 285.234 166.754 284.426 165.91C283.617 165.061 283.213 163.927 283.213 162.509V162.21C283.213 161.267 283.392 160.426 283.749 159.688C284.112 158.943 284.616 158.363 285.261 157.947C285.911 157.525 286.614 157.314 287.37 157.314C288.606 157.314 289.567 157.722 290.253 158.536C290.938 159.351 291.281 160.517 291.281 162.034V162.711H284.839C284.862 163.648 285.135 164.407 285.656 164.987C286.184 165.562 286.852 165.849 287.66 165.849C288.234 165.849 288.721 165.731 289.119 165.497C289.518 165.263 289.866 164.952 290.165 164.565L291.158 165.339C290.361 166.563 289.166 167.176 287.572 167.176ZM287.37 158.65C286.714 158.65 286.163 158.891 285.718 159.371C285.272 159.846 284.997 160.514 284.892 161.375H289.655V161.252C289.608 160.426 289.386 159.787 288.987 159.336C288.589 158.879 288.05 158.65 287.37 158.65ZM301.222 162.351C301.222 163.804 300.888 164.973 300.22 165.857C299.552 166.736 298.655 167.176 297.53 167.176C296.329 167.176 295.4 166.751 294.744 165.901L294.665 167H293.171V153.5H294.797V158.536C295.453 157.722 296.358 157.314 297.513 157.314C298.667 157.314 299.572 157.751 300.229 158.624C300.891 159.497 301.222 160.692 301.222 162.21V162.351ZM299.596 162.166C299.596 161.059 299.382 160.203 298.954 159.6C298.526 158.996 297.911 158.694 297.108 158.694C296.036 158.694 295.266 159.192 294.797 160.188V164.302C295.295 165.298 296.071 165.796 297.126 165.796C297.905 165.796 298.512 165.494 298.945 164.891C299.379 164.287 299.596 163.379 299.596 162.166ZM308.815 164.478C308.815 164.038 308.648 163.698 308.314 163.458C307.986 163.212 307.409 163.001 306.583 162.825C305.763 162.649 305.109 162.438 304.623 162.192C304.143 161.946 303.785 161.653 303.551 161.313C303.322 160.974 303.208 160.569 303.208 160.101C303.208 159.321 303.536 158.662 304.192 158.123C304.854 157.584 305.698 157.314 306.724 157.314C307.802 157.314 308.675 157.593 309.343 158.149C310.017 158.706 310.354 159.418 310.354 160.285H308.719C308.719 159.84 308.528 159.456 308.147 159.134C307.772 158.812 307.298 158.65 306.724 158.65C306.132 158.65 305.669 158.779 305.335 159.037C305.001 159.295 304.834 159.632 304.834 160.048C304.834 160.44 304.989 160.736 305.3 160.936C305.61 161.135 306.17 161.325 306.979 161.507C307.793 161.688 308.452 161.905 308.956 162.157C309.46 162.409 309.832 162.714 310.072 163.071C310.318 163.423 310.441 163.854 310.441 164.363C310.441 165.213 310.102 165.896 309.422 166.411C308.742 166.921 307.86 167.176 306.776 167.176C306.015 167.176 305.341 167.041 304.755 166.771C304.169 166.502 303.709 166.127 303.375 165.646C303.047 165.16 302.883 164.636 302.883 164.073H304.509C304.538 164.618 304.755 165.052 305.159 165.374C305.569 165.69 306.108 165.849 306.776 165.849C307.392 165.849 307.884 165.726 308.253 165.479C308.628 165.228 308.815 164.894 308.815 164.478ZM314.326 167H312.7V157.49H314.326V167ZM312.568 154.968C312.568 154.704 312.647 154.481 312.806 154.3C312.97 154.118 313.21 154.027 313.526 154.027C313.843 154.027 314.083 154.118 314.247 154.3C314.411 154.481 314.493 154.704 314.493 154.968C314.493 155.231 314.411 155.451 314.247 155.627C314.083 155.803 313.843 155.891 313.526 155.891C313.21 155.891 312.97 155.803 312.806 155.627C312.647 155.451 312.568 155.231 312.568 154.968ZM319.143 155.188V157.49H320.918V158.747H319.143V164.645C319.143 165.025 319.222 165.312 319.38 165.506C319.538 165.693 319.808 165.787 320.188 165.787C320.376 165.787 320.634 165.752 320.962 165.682V167C320.534 167.117 320.118 167.176 319.714 167.176C318.987 167.176 318.439 166.956 318.07 166.517C317.701 166.077 317.517 165.453 317.517 164.645V158.747H315.785V157.49H317.517V155.188H319.143ZM326.771 167.176C325.482 167.176 324.434 166.754 323.625 165.91C322.816 165.061 322.412 163.927 322.412 162.509V162.21C322.412 161.267 322.591 160.426 322.948 159.688C323.312 158.943 323.815 158.363 324.46 157.947C325.11 157.525 325.813 157.314 326.569 157.314C327.806 157.314 328.767 157.722 329.452 158.536C330.138 159.351 330.48 160.517 330.48 162.034V162.711H324.038C324.062 163.648 324.334 164.407 324.855 164.987C325.383 165.562 326.051 165.849 326.859 165.849C327.434 165.849 327.92 165.731 328.318 165.497C328.717 165.263 329.065 164.952 329.364 164.565L330.357 165.339C329.561 166.563 328.365 167.176 326.771 167.176ZM326.569 158.65C325.913 158.65 325.362 158.891 324.917 159.371C324.472 159.846 324.196 160.514 324.091 161.375H328.854V161.252C328.808 160.426 328.585 159.787 328.187 159.336C327.788 158.879 327.249 158.65 326.569 158.65Z" fill="black"/>
<rect x="489.5" y="110.5" width="79" height="79" rx="3.5" fill="white" stroke="black"/>
<path d="M502.062 146H500.374V133.203H502.062V146ZM506.438 136.49L506.491 137.686C507.218 136.771 508.167 136.314 509.339 136.314C511.349 136.314 512.362 137.448 512.38 139.716V146H510.754V139.707C510.748 139.021 510.59 138.515 510.279 138.187C509.975 137.858 509.497 137.694 508.847 137.694C508.319 137.694 507.856 137.835 507.458 138.116C507.06 138.397 506.749 138.767 506.526 139.224V146H504.9V136.49H506.438ZM517.038 134.188V136.49H518.813V137.747H517.038V143.645C517.038 144.025 517.117 144.312 517.275 144.506C517.434 144.693 517.703 144.787 518.084 144.787C518.271 144.787 518.529 144.752 518.857 144.682V146C518.43 146.117 518.014 146.176 517.609 146.176C516.883 146.176 516.335 145.956 515.966 145.517C515.597 145.077 515.412 144.453 515.412 143.645V137.747H513.681V136.49H515.412V134.188H517.038ZM524.667 146.176C523.378 146.176 522.329 145.754 521.521 144.91C520.712 144.061 520.308 142.927 520.308 141.509V141.21C520.308 140.267 520.486 139.426 520.844 138.688C521.207 137.943 521.711 137.363 522.355 136.947C523.006 136.525 523.709 136.314 524.465 136.314C525.701 136.314 526.662 136.722 527.348 137.536C528.033 138.351 528.376 139.517 528.376 141.034V141.711H521.934C521.957 142.648 522.229 143.407 522.751 143.987C523.278 144.562 523.946 144.849 524.755 144.849C525.329 144.849 525.815 144.731 526.214 144.497C526.612 144.263 526.961 143.952 527.26 143.565L528.253 144.339C527.456 145.563 526.261 146.176 524.667 146.176ZM524.465 137.65C523.809 137.65 523.258 137.891 522.812 138.371C522.367 138.846 522.092 139.514 521.986 140.375H526.75V140.252C526.703 139.426 526.48 138.787 526.082 138.336C525.684 137.879 525.145 137.65 524.465 137.65ZM534.862 137.949C534.616 137.908 534.35 137.888 534.062 137.888C532.996 137.888 532.272 138.342 531.892 139.25V146H530.266V136.49H531.848L531.874 137.589C532.407 136.739 533.163 136.314 534.142 136.314C534.458 136.314 534.698 136.355 534.862 136.438V137.949ZM537.903 136.49L537.956 137.686C538.683 136.771 539.632 136.314 540.804 136.314C542.813 136.314 543.827 137.448 543.845 139.716V146H542.219V139.707C542.213 139.021 542.055 138.515 541.744 138.187C541.439 137.858 540.962 137.694 540.312 137.694C539.784 137.694 539.321 137.835 538.923 138.116C538.524 138.397 538.214 138.767 537.991 139.224V146H536.365V136.49H537.903ZM552.168 146C552.074 145.812 551.998 145.479 551.939 144.998C551.184 145.783 550.281 146.176 549.232 146.176C548.295 146.176 547.524 145.912 546.921 145.385C546.323 144.852 546.024 144.178 546.024 143.363C546.024 142.373 546.399 141.605 547.149 141.061C547.905 140.51 548.966 140.234 550.331 140.234H551.913V139.487C551.913 138.919 551.743 138.468 551.403 138.134C551.063 137.794 550.562 137.624 549.9 137.624C549.32 137.624 548.834 137.771 548.441 138.063C548.049 138.356 547.853 138.711 547.853 139.127H546.218C546.218 138.652 546.385 138.195 546.719 137.756C547.059 137.311 547.516 136.959 548.09 136.701C548.67 136.443 549.306 136.314 549.997 136.314C551.093 136.314 551.951 136.59 552.572 137.141C553.193 137.686 553.516 138.438 553.539 139.399V143.776C553.539 144.649 553.65 145.344 553.873 145.859V146H552.168ZM549.47 144.761C549.979 144.761 550.463 144.629 550.92 144.365C551.377 144.102 551.708 143.759 551.913 143.337V141.386H550.639C548.646 141.386 547.65 141.969 547.65 143.135C547.65 143.645 547.82 144.043 548.16 144.33C548.5 144.617 548.937 144.761 549.47 144.761ZM557.854 146H556.229V132.5H557.854V146ZM507.194 164.478C507.194 164.038 507.027 163.698 506.693 163.458C506.365 163.212 505.788 163.001 504.962 162.825C504.142 162.649 503.488 162.438 503.002 162.192C502.521 161.946 502.164 161.653 501.93 161.313C501.701 160.974 501.587 160.569 501.587 160.101C501.587 159.321 501.915 158.662 502.571 158.123C503.233 157.584 504.077 157.314 505.103 157.314C506.181 157.314 507.054 157.593 507.722 158.149C508.396 158.706 508.732 159.418 508.732 160.285H507.098C507.098 159.84 506.907 159.456 506.526 159.134C506.151 158.812 505.677 158.65 505.103 158.65C504.511 158.65 504.048 158.779 503.714 159.037C503.38 159.295 503.213 159.632 503.213 160.048C503.213 160.44 503.368 160.736 503.679 160.936C503.989 161.135 504.549 161.325 505.357 161.507C506.172 161.688 506.831 161.905 507.335 162.157C507.839 162.409 508.211 162.714 508.451 163.071C508.697 163.423 508.82 163.854 508.82 164.363C508.82 165.213 508.48 165.896 507.801 166.411C507.121 166.921 506.239 167.176 505.155 167.176C504.394 167.176 503.72 167.041 503.134 166.771C502.548 166.502 502.088 166.127 501.754 165.646C501.426 165.16 501.262 164.636 501.262 164.073H502.888C502.917 164.618 503.134 165.052 503.538 165.374C503.948 165.69 504.487 165.849 505.155 165.849C505.771 165.849 506.263 165.726 506.632 165.479C507.007 165.228 507.194 164.894 507.194 164.478ZM514.885 167.176C513.596 167.176 512.547 166.754 511.738 165.91C510.93 165.061 510.525 163.927 510.525 162.509V162.21C510.525 161.267 510.704 160.426 511.062 159.688C511.425 158.943 511.929 158.363 512.573 157.947C513.224 157.525 513.927 157.314 514.683 157.314C515.919 157.314 516.88 157.722 517.565 158.536C518.251 159.351 518.594 160.517 518.594 162.034V162.711H512.151C512.175 163.648 512.447 164.407 512.969 164.987C513.496 165.562 514.164 165.849 514.973 165.849C515.547 165.849 516.033 165.731 516.432 165.497C516.83 165.263 517.179 164.952 517.478 164.565L518.471 165.339C517.674 166.563 516.479 167.176 514.885 167.176ZM514.683 158.65C514.026 158.65 513.476 158.891 513.03 159.371C512.585 159.846 512.31 160.514 512.204 161.375H516.968V161.252C516.921 160.426 516.698 159.787 516.3 159.336C515.901 158.879 515.362 158.65 514.683 158.65ZM525.08 158.949C524.834 158.908 524.567 158.888 524.28 158.888C523.214 158.888 522.49 159.342 522.109 160.25V167H520.483V157.49H522.065L522.092 158.589C522.625 157.739 523.381 157.314 524.359 157.314C524.676 157.314 524.916 157.355 525.08 157.438V158.949ZM529.879 164.794L532.234 157.49H533.896L530.485 167H529.246L525.801 157.49H527.462L529.879 164.794ZM537.227 167H535.601V157.49H537.227V167ZM535.469 154.968C535.469 154.704 535.548 154.481 535.706 154.3C535.87 154.118 536.11 154.027 536.427 154.027C536.743 154.027 536.983 154.118 537.147 154.3C537.312 154.481 537.394 154.704 537.394 154.968C537.394 155.231 537.312 155.451 537.147 155.627C536.983 155.803 536.743 155.891 536.427 155.891C536.11 155.891 535.87 155.803 535.706 155.627C535.548 155.451 535.469 155.231 535.469 154.968ZM543.651 165.849C544.231 165.849 544.738 165.673 545.172 165.321C545.605 164.97 545.846 164.53 545.893 164.003H547.431C547.401 164.548 547.214 165.066 546.868 165.559C546.522 166.051 546.06 166.443 545.479 166.736C544.905 167.029 544.296 167.176 543.651 167.176C542.356 167.176 541.325 166.745 540.558 165.884C539.796 165.017 539.415 163.833 539.415 162.333V162.061C539.415 161.135 539.585 160.312 539.925 159.591C540.265 158.87 540.751 158.311 541.384 157.912C542.022 157.514 542.775 157.314 543.643 157.314C544.709 157.314 545.594 157.634 546.297 158.272C547.006 158.911 547.384 159.74 547.431 160.76H545.893C545.846 160.145 545.611 159.641 545.189 159.248C544.773 158.85 544.258 158.65 543.643 158.65C542.816 158.65 542.175 158.949 541.718 159.547C541.267 160.139 541.041 160.997 541.041 162.122V162.43C541.041 163.525 541.267 164.369 541.718 164.961C542.169 165.553 542.813 165.849 543.651 165.849ZM553.205 167.176C551.916 167.176 550.867 166.754 550.059 165.91C549.25 165.061 548.846 163.927 548.846 162.509V162.21C548.846 161.267 549.024 160.426 549.382 159.688C549.745 158.943 550.249 158.363 550.894 157.947C551.544 157.525 552.247 157.314 553.003 157.314C554.239 157.314 555.2 157.722 555.886 158.536C556.571 159.351 556.914 160.517 556.914 162.034V162.711H550.472C550.495 163.648 550.768 164.407 551.289 164.987C551.816 165.562 552.484 165.849 553.293 165.849C553.867 165.849 554.354 165.731 554.752 165.497C555.15 165.263 555.499 164.952 555.798 164.565L556.791 165.339C555.994 166.563 554.799 167.176 553.205 167.176ZM553.003 158.65C552.347 158.65 551.796 158.891 551.351 159.371C550.905 159.846 550.63 160.514 550.524 161.375H555.288V161.252C555.241 160.426 555.019 159.787 554.62 159.336C554.222 158.879 553.683 158.65 553.003 158.65Z" fill="black"/>
<path d="M235.707 142.707C236.098 142.317 236.098 141.683 235.707 141.293L229.343 134.929C228.953 134.538 228.319 134.538 227.929 134.929C227.538 135.319 227.538 135.953 227.929 136.343L233.586 142L227.929 147.657C227.538 148.047 227.538 148.681 227.929 149.071C228.319 149.462 228.953 149.462 229.343 149.071L235.707 142.707ZM115 143H235V141H115V143Z" fill="black"/>
<path d="M114.298 157.293C113.908 157.683 113.908 158.317 114.298 158.707L120.662 165.071C121.053 165.462 121.686 165.462 122.076 165.071C122.467 164.681 122.467 164.047 122.076 163.657L116.419 158L122.076 152.343C122.467 151.953 122.467 151.319 122.076 150.929C121.686 150.538 121.053 150.538 120.662 150.929L114.298 157.293ZM235.005 157H115.005V159H235.005V157Z" fill="#FF0000"/>
<path d="M140.396 55.2031L144.58 65.6445L148.764 55.2031H150.952V68H149.265V63.0166L149.423 57.6377L145.222 68H143.93L139.737 57.6641L139.904 63.0166V68H138.217V55.2031H140.396ZM159.548 68C159.454 67.8125 159.378 67.4785 159.319 66.998C158.563 67.7832 157.661 68.1758 156.612 68.1758C155.675 68.1758 154.904 67.9121 154.301 67.3848C153.703 66.8516 153.404 66.1777 153.404 65.3633C153.404 64.373 153.779 63.6055 154.529 63.0605C155.285 62.5098 156.346 62.2344 157.711 62.2344H159.293V61.4873C159.293 60.9189 159.123 60.4678 158.783 60.1338C158.443 59.7939 157.942 59.624 157.28 59.624C156.7 59.624 156.214 59.7705 155.821 60.0635C155.429 60.3564 155.232 60.7109 155.232 61.127H153.598C153.598 60.6523 153.765 60.1953 154.099 59.7559C154.438 59.3105 154.896 58.959 155.47 58.7012C156.05 58.4434 156.686 58.3145 157.377 58.3145C158.473 58.3145 159.331 58.5898 159.952 59.1406C160.573 59.6855 160.896 60.4385 160.919 61.3994V65.7764C160.919 66.6494 161.03 67.3438 161.253 67.8594V68H159.548ZM156.85 66.7607C157.359 66.7607 157.843 66.6289 158.3 66.3652C158.757 66.1016 159.088 65.7588 159.293 65.3369V63.3857H158.019C156.026 63.3857 155.03 63.9688 155.03 65.1348C155.03 65.6445 155.2 66.043 155.54 66.3301C155.88 66.6172 156.316 66.7607 156.85 66.7607ZM165.234 68H163.608V54.5H165.234V68ZM169.611 68H167.985V58.4902H169.611V68ZM167.854 55.9678C167.854 55.7041 167.933 55.4814 168.091 55.2998C168.255 55.1182 168.495 55.0273 168.812 55.0273C169.128 55.0273 169.368 55.1182 169.532 55.2998C169.696 55.4814 169.778 55.7041 169.778 55.9678C169.778 56.2314 169.696 56.4512 169.532 56.627C169.368 56.8027 169.128 56.8906 168.812 56.8906C168.495 56.8906 168.255 56.8027 168.091 56.627C167.933 56.4512 167.854 56.2314 167.854 55.9678ZM176.036 66.8486C176.616 66.8486 177.123 66.6729 177.557 66.3213C177.99 65.9697 178.23 65.5303 178.277 65.0029H179.815C179.786 65.5479 179.599 66.0664 179.253 66.5586C178.907 67.0508 178.444 67.4434 177.864 67.7363C177.29 68.0293 176.681 68.1758 176.036 68.1758C174.741 68.1758 173.71 67.7451 172.942 66.8838C172.181 66.0166 171.8 64.833 171.8 63.333V63.0605C171.8 62.1348 171.97 61.3115 172.31 60.5908C172.649 59.8701 173.136 59.3105 173.769 58.9121C174.407 58.5137 175.16 58.3145 176.027 58.3145C177.094 58.3145 177.979 58.6338 178.682 59.2725C179.391 59.9111 179.769 60.7402 179.815 61.7598H178.277C178.23 61.1445 177.996 60.6406 177.574 60.248C177.158 59.8496 176.643 59.6504 176.027 59.6504C175.201 59.6504 174.56 59.9492 174.103 60.5469C173.651 61.1387 173.426 61.9971 173.426 63.1221V63.4297C173.426 64.5254 173.651 65.3691 174.103 65.9609C174.554 66.5527 175.198 66.8486 176.036 66.8486ZM183.41 68H181.784V58.4902H183.41V68ZM181.652 55.9678C181.652 55.7041 181.731 55.4814 181.89 55.2998C182.054 55.1182 182.294 55.0273 182.61 55.0273C182.927 55.0273 183.167 55.1182 183.331 55.2998C183.495 55.4814 183.577 55.7041 183.577 55.9678C183.577 56.2314 183.495 56.4512 183.331 56.627C183.167 56.8027 182.927 56.8906 182.61 56.8906C182.294 56.8906 182.054 56.8027 181.89 56.627C181.731 56.4512 181.652 56.2314 181.652 55.9678ZM185.59 63.1572C185.59 62.2256 185.771 61.3877 186.135 60.6436C186.504 59.8994 187.014 59.3252 187.664 58.9209C188.32 58.5166 189.067 58.3145 189.905 58.3145C191.2 58.3145 192.246 58.7627 193.043 59.6592C193.846 60.5557 194.247 61.748 194.247 63.2363V63.3506C194.247 64.2764 194.068 65.1084 193.711 65.8467C193.359 66.5791 192.853 67.1504 192.19 67.5605C191.534 67.9707 190.778 68.1758 189.923 68.1758C188.634 68.1758 187.588 67.7275 186.785 66.8311C185.988 65.9346 185.59 64.748 185.59 63.2715V63.1572ZM187.225 63.3506C187.225 64.4053 187.468 65.252 187.954 65.8906C188.446 66.5293 189.103 66.8486 189.923 66.8486C190.749 66.8486 191.405 66.5264 191.892 65.8818C192.378 65.2314 192.621 64.3232 192.621 63.1572C192.621 62.1143 192.372 61.2705 191.874 60.626C191.382 59.9756 190.726 59.6504 189.905 59.6504C189.103 59.6504 188.455 59.9697 187.963 60.6084C187.471 61.2471 187.225 62.1611 187.225 63.3506ZM202.157 67.0596C201.524 67.8037 200.596 68.1758 199.371 68.1758C198.357 68.1758 197.584 67.8828 197.051 67.2969C196.523 66.7051 196.257 65.832 196.251 64.6777V58.4902H197.877V64.6338C197.877 66.0752 198.463 66.7959 199.635 66.7959C200.877 66.7959 201.703 66.333 202.113 65.4072V58.4902H203.739V68H202.192L202.157 67.0596ZM211.755 65.4775C211.755 65.0381 211.588 64.6982 211.254 64.458C210.926 64.2119 210.349 64.001 209.522 63.8252C208.702 63.6494 208.049 63.4385 207.562 63.1924C207.082 62.9463 206.725 62.6533 206.49 62.3135C206.262 61.9736 206.147 61.5693 206.147 61.1006C206.147 60.3213 206.476 59.6621 207.132 59.123C207.794 58.584 208.638 58.3145 209.663 58.3145C210.741 58.3145 211.614 58.5928 212.282 59.1494C212.956 59.7061 213.293 60.418 213.293 61.2852H211.658C211.658 60.8398 211.468 60.4561 211.087 60.1338C210.712 59.8115 210.237 59.6504 209.663 59.6504C209.071 59.6504 208.608 59.7793 208.274 60.0371C207.94 60.2949 207.773 60.6318 207.773 61.0479C207.773 61.4404 207.929 61.7363 208.239 61.9355C208.55 62.1348 209.109 62.3252 209.918 62.5068C210.732 62.6885 211.392 62.9053 211.896 63.1572C212.399 63.4092 212.771 63.7139 213.012 64.0713C213.258 64.4229 213.381 64.8535 213.381 65.3633C213.381 66.2129 213.041 66.8955 212.361 67.4111C211.682 67.9209 210.8 68.1758 209.716 68.1758C208.954 68.1758 208.28 68.041 207.694 67.7715C207.108 67.502 206.648 67.127 206.314 66.6465C205.986 66.1602 205.822 65.6357 205.822 65.0732H207.448C207.478 65.6182 207.694 66.0518 208.099 66.374C208.509 66.6904 209.048 66.8486 209.716 66.8486C210.331 66.8486 210.823 66.7256 211.192 66.4795C211.567 66.2275 211.755 65.8936 211.755 65.4775ZM164.048 89H162.352V83.085H155.9V89H154.213V76.2031H155.9V81.7051H162.352V76.2031H164.048V89ZM175.623 77.5918H171.51V89H169.831V77.5918H165.727V76.2031H175.623V77.5918ZM186.504 77.5918H182.391V89H180.712V77.5918H176.607V76.2031H186.504V77.5918ZM190.09 83.9902V89H188.402V76.2031H193.122C194.522 76.2031 195.618 76.5605 196.409 77.2754C197.206 77.9902 197.604 78.9365 197.604 80.1143C197.604 81.3564 197.215 82.3145 196.436 82.9883C195.662 83.6562 194.552 83.9902 193.104 83.9902H190.09ZM190.09 82.6104H193.122C194.024 82.6104 194.716 82.3994 195.196 81.9775C195.677 81.5498 195.917 80.9346 195.917 80.1318C195.917 79.3701 195.677 78.7607 195.196 78.3037C194.716 77.8467 194.057 77.6094 193.219 77.5918H190.09V82.6104ZM151.154 101.949C150.908 101.908 150.642 101.888 150.354 101.888C149.288 101.888 148.564 102.342 148.184 103.25V110H146.558V100.49H148.14L148.166 101.589C148.699 100.739 149.455 100.314 150.434 100.314C150.75 100.314 150.99 100.355 151.154 100.438V101.949ZM156.428 110.176C155.139 110.176 154.09 109.754 153.281 108.91C152.473 108.061 152.068 106.927 152.068 105.509V105.21C152.068 104.267 152.247 103.426 152.604 102.688C152.968 101.943 153.472 101.363 154.116 100.947C154.767 100.525 155.47 100.314 156.226 100.314C157.462 100.314 158.423 100.722 159.108 101.536C159.794 102.351 160.137 103.517 160.137 105.034V105.711H153.694C153.718 106.648 153.99 107.407 154.512 107.987C155.039 108.562 155.707 108.849 156.516 108.849C157.09 108.849 157.576 108.731 157.975 108.497C158.373 108.263 158.722 107.952 159.021 107.565L160.014 108.339C159.217 109.563 158.021 110.176 156.428 110.176ZM156.226 101.65C155.569 101.65 155.019 101.891 154.573 102.371C154.128 102.846 153.853 103.514 153.747 104.375H158.511V104.252C158.464 103.426 158.241 102.787 157.843 102.336C157.444 101.879 156.905 101.65 156.226 101.65ZM161.631 105.166C161.631 103.672 161.974 102.491 162.659 101.624C163.345 100.751 164.265 100.314 165.419 100.314C166.544 100.314 167.432 100.692 168.082 101.448L168.152 100.49H169.646V113.656H168.021V109.121C167.364 109.824 166.491 110.176 165.401 110.176C164.253 110.176 163.336 109.73 162.65 108.84C161.971 107.943 161.631 106.757 161.631 105.28V105.166ZM163.257 105.351C163.257 106.44 163.485 107.296 163.942 107.917C164.405 108.538 165.026 108.849 165.806 108.849C166.772 108.849 167.511 108.421 168.021 107.565V102.907C167.505 102.069 166.772 101.65 165.823 101.65C165.038 101.65 164.414 101.964 163.951 102.591C163.488 103.212 163.257 104.132 163.257 105.351ZM178.128 109.06C177.495 109.804 176.566 110.176 175.342 110.176C174.328 110.176 173.555 109.883 173.021 109.297C172.494 108.705 172.228 107.832 172.222 106.678V100.49H173.848V106.634C173.848 108.075 174.434 108.796 175.605 108.796C176.848 108.796 177.674 108.333 178.084 107.407V100.49H179.71V110H178.163L178.128 109.06ZM186.135 110.176C184.846 110.176 183.797 109.754 182.988 108.91C182.18 108.061 181.775 106.927 181.775 105.509V105.21C181.775 104.267 181.954 103.426 182.312 102.688C182.675 101.943 183.179 101.363 183.823 100.947C184.474 100.525 185.177 100.314 185.933 100.314C187.169 100.314 188.13 100.722 188.815 101.536C189.501 102.351 189.844 103.517 189.844 105.034V105.711H183.401C183.425 106.648 183.697 107.407 184.219 107.987C184.746 108.562 185.414 108.849 186.223 108.849C186.797 108.849 187.283 108.731 187.682 108.497C188.08 108.263 188.429 107.952 188.728 107.565L189.721 108.339C188.924 109.563 187.729 110.176 186.135 110.176ZM185.933 101.65C185.276 101.65 184.726 101.891 184.28 102.371C183.835 102.846 183.56 103.514 183.454 104.375H188.218V104.252C188.171 103.426 187.948 102.787 187.55 102.336C187.151 101.879 186.612 101.65 185.933 101.65ZM197.271 107.478C197.271 107.038 197.104 106.698 196.77 106.458C196.441 106.212 195.864 106.001 195.038 105.825C194.218 105.649 193.564 105.438 193.078 105.192C192.598 104.946 192.24 104.653 192.006 104.313C191.777 103.974 191.663 103.569 191.663 103.101C191.663 102.321 191.991 101.662 192.647 101.123C193.31 100.584 194.153 100.314 195.179 100.314C196.257 100.314 197.13 100.593 197.798 101.149C198.472 101.706 198.809 102.418 198.809 103.285H197.174C197.174 102.84 196.983 102.456 196.603 102.134C196.228 101.812 195.753 101.65 195.179 101.65C194.587 101.65 194.124 101.779 193.79 102.037C193.456 102.295 193.289 102.632 193.289 103.048C193.289 103.44 193.444 103.736 193.755 103.936C194.065 104.135 194.625 104.325 195.434 104.507C196.248 104.688 196.907 104.905 197.411 105.157C197.915 105.409 198.287 105.714 198.527 106.071C198.773 106.423 198.896 106.854 198.896 107.363C198.896 108.213 198.557 108.896 197.877 109.411C197.197 109.921 196.315 110.176 195.231 110.176C194.47 110.176 193.796 110.041 193.21 109.771C192.624 109.502 192.164 109.127 191.83 108.646C191.502 108.16 191.338 107.636 191.338 107.073H192.964C192.993 107.618 193.21 108.052 193.614 108.374C194.024 108.69 194.563 108.849 195.231 108.849C195.847 108.849 196.339 108.726 196.708 108.479C197.083 108.228 197.271 107.894 197.271 107.478ZM203.221 98.1875V100.49H204.996V101.747H203.221V107.645C203.221 108.025 203.3 108.312 203.458 108.506C203.616 108.693 203.886 108.787 204.267 108.787C204.454 108.787 204.712 108.752 205.04 108.682V110C204.612 110.117 204.196 110.176 203.792 110.176C203.065 110.176 202.518 109.956 202.148 109.517C201.779 109.077 201.595 108.453 201.595 107.645V101.747H199.863V100.49H201.595V98.1875H203.221Z" fill="black"/>
<path d="M335.635 34H333.947V21.2031H335.635V34ZM340.012 24.4902L340.064 25.6855C340.791 24.7715 341.74 24.3145 342.912 24.3145C344.922 24.3145 345.936 25.4482 345.953 27.7158V34H344.327V27.707C344.321 27.0215 344.163 26.5146 343.853 26.1865C343.548 25.8584 343.07 25.6943 342.42 25.6943C341.893 25.6943 341.43 25.835 341.031 26.1162C340.633 26.3975 340.322 26.7666 340.1 27.2236V34H338.474V24.4902H340.012ZM350.611 22.1875V24.4902H352.387V25.7471H350.611V31.6445C350.611 32.0254 350.69 32.3125 350.849 32.5059C351.007 32.6934 351.276 32.7871 351.657 32.7871C351.845 32.7871 352.103 32.752 352.431 32.6816V34C352.003 34.1172 351.587 34.1758 351.183 34.1758C350.456 34.1758 349.908 33.9561 349.539 33.5166C349.17 33.0771 348.985 32.4531 348.985 31.6445V25.7471H347.254V24.4902H348.985V22.1875H350.611ZM358.24 34.1758C356.951 34.1758 355.902 33.7539 355.094 32.9102C354.285 32.0605 353.881 30.9268 353.881 29.5088V29.21C353.881 28.2666 354.06 27.4258 354.417 26.6875C354.78 25.9434 355.284 25.3633 355.929 24.9473C356.579 24.5254 357.282 24.3145 358.038 24.3145C359.274 24.3145 360.235 24.7217 360.921 25.5361C361.606 26.3506 361.949 27.5166 361.949 29.0342V29.7109H355.507C355.53 30.6484 355.803 31.4072 356.324 31.9873C356.852 32.5615 357.52 32.8486 358.328 32.8486C358.902 32.8486 359.389 32.7314 359.787 32.4971C360.186 32.2627 360.534 31.9521 360.833 31.5654L361.826 32.3389C361.029 33.5635 359.834 34.1758 358.24 34.1758ZM358.038 25.6504C357.382 25.6504 356.831 25.8906 356.386 26.3711C355.94 26.8457 355.665 27.5137 355.56 28.375H360.323V28.252C360.276 27.4258 360.054 26.7871 359.655 26.3359C359.257 25.8789 358.718 25.6504 358.038 25.6504ZM368.436 25.9492C368.189 25.9082 367.923 25.8877 367.636 25.8877C366.569 25.8877 365.846 26.3418 365.465 27.25V34H363.839V24.4902H365.421L365.447 25.5889C365.98 24.7393 366.736 24.3145 367.715 24.3145C368.031 24.3145 368.271 24.3555 368.436 24.4375V25.9492ZM371.477 24.4902L371.529 25.6855C372.256 24.7715 373.205 24.3145 374.377 24.3145C376.387 24.3145 377.4 25.4482 377.418 27.7158V34H375.792V27.707C375.786 27.0215 375.628 26.5146 375.317 26.1865C375.013 25.8584 374.535 25.6943 373.885 25.6943C373.357 25.6943 372.895 25.835 372.496 26.1162C372.098 26.3975 371.787 26.7666 371.564 27.2236V34H369.938V24.4902H371.477ZM385.741 34C385.647 33.8125 385.571 33.4785 385.513 32.998C384.757 33.7832 383.854 34.1758 382.806 34.1758C381.868 34.1758 381.098 33.9121 380.494 33.3848C379.896 32.8516 379.598 32.1777 379.598 31.3633C379.598 30.373 379.973 29.6055 380.723 29.0605C381.479 28.5098 382.539 28.2344 383.904 28.2344H385.486V27.4873C385.486 26.9189 385.316 26.4678 384.977 26.1338C384.637 25.7939 384.136 25.624 383.474 25.624C382.894 25.624 382.407 25.7705 382.015 26.0635C381.622 26.3564 381.426 26.7109 381.426 27.127H379.791C379.791 26.6523 379.958 26.1953 380.292 25.7559C380.632 25.3105 381.089 24.959 381.663 24.7012C382.243 24.4434 382.879 24.3145 383.57 24.3145C384.666 24.3145 385.524 24.5898 386.146 25.1406C386.767 25.6855 387.089 26.4385 387.112 27.3994V31.7764C387.112 32.6494 387.224 33.3438 387.446 33.8594V34H385.741ZM383.043 32.7607C383.553 32.7607 384.036 32.6289 384.493 32.3652C384.95 32.1016 385.281 31.7588 385.486 31.3369V29.3857H384.212C382.22 29.3857 381.224 29.9688 381.224 31.1348C381.224 31.6445 381.394 32.043 381.733 32.3301C382.073 32.6172 382.51 32.7607 383.043 32.7607ZM391.428 34H389.802V20.5H391.428V34ZM400.041 24.4902L400.094 25.6855C400.82 24.7715 401.77 24.3145 402.941 24.3145C404.951 24.3145 405.965 25.4482 405.982 27.7158V34H404.356V27.707C404.351 27.0215 404.192 26.5146 403.882 26.1865C403.577 25.8584 403.1 25.6943 402.449 25.6943C401.922 25.6943 401.459 25.835 401.061 26.1162C400.662 26.3975 400.352 26.7666 400.129 27.2236V34H398.503V24.4902H400.041ZM412.381 34.1758C411.092 34.1758 410.043 33.7539 409.234 32.9102C408.426 32.0605 408.021 30.9268 408.021 29.5088V29.21C408.021 28.2666 408.2 27.4258 408.558 26.6875C408.921 25.9434 409.425 25.3633 410.069 24.9473C410.72 24.5254 411.423 24.3145 412.179 24.3145C413.415 24.3145 414.376 24.7217 415.062 25.5361C415.747 26.3506 416.09 27.5166 416.09 29.0342V29.7109H409.647C409.671 30.6484 409.943 31.4072 410.465 31.9873C410.992 32.5615 411.66 32.8486 412.469 32.8486C413.043 32.8486 413.529 32.7314 413.928 32.4971C414.326 32.2627 414.675 31.9521 414.974 31.5654L415.967 32.3389C415.17 33.5635 413.975 34.1758 412.381 34.1758ZM412.179 25.6504C411.522 25.6504 410.972 25.8906 410.526 26.3711C410.081 26.8457 409.806 27.5137 409.7 28.375H414.464V28.252C414.417 27.4258 414.194 26.7871 413.796 26.3359C413.397 25.8789 412.858 25.6504 412.179 25.6504ZM420.186 22.1875V24.4902H421.961V25.7471H420.186V31.6445C420.186 32.0254 420.265 32.3125 420.423 32.5059C420.581 32.6934 420.851 32.7871 421.231 32.7871C421.419 32.7871 421.677 32.752 422.005 32.6816V34C421.577 34.1172 421.161 34.1758 420.757 34.1758C420.03 34.1758 419.482 33.9561 419.113 33.5166C418.744 33.0771 418.56 32.4531 418.56 31.6445V25.7471H416.828V24.4902H418.56V22.1875H420.186ZM432.288 31.7588L434.116 24.4902H435.742L432.974 34H431.655L429.344 26.793L427.094 34H425.775L423.016 24.4902H424.633L426.505 31.6094L428.72 24.4902H430.029L432.288 31.7588ZM436.973 29.1572C436.973 28.2256 437.154 27.3877 437.518 26.6436C437.887 25.8994 438.396 25.3252 439.047 24.9209C439.703 24.5166 440.45 24.3145 441.288 24.3145C442.583 24.3145 443.629 24.7627 444.426 25.6592C445.229 26.5557 445.63 27.748 445.63 29.2363V29.3506C445.63 30.2764 445.451 31.1084 445.094 31.8467C444.742 32.5791 444.235 33.1504 443.573 33.5605C442.917 33.9707 442.161 34.1758 441.306 34.1758C440.017 34.1758 438.971 33.7275 438.168 32.8311C437.371 31.9346 436.973 30.748 436.973 29.2715V29.1572ZM438.607 29.3506C438.607 30.4053 438.851 31.252 439.337 31.8906C439.829 32.5293 440.485 32.8486 441.306 32.8486C442.132 32.8486 442.788 32.5264 443.274 31.8818C443.761 31.2314 444.004 30.3232 444.004 29.1572C444.004 28.1143 443.755 27.2705 443.257 26.626C442.765 25.9756 442.108 25.6504 441.288 25.6504C440.485 25.6504 439.838 25.9697 439.346 26.6084C438.854 27.2471 438.607 28.1611 438.607 29.3506ZM452.266 25.9492C452.02 25.9082 451.753 25.8877 451.466 25.8877C450.399 25.8877 449.676 26.3418 449.295 27.25V34H447.669V24.4902H449.251L449.277 25.5889C449.811 24.7393 450.566 24.3145 451.545 24.3145C451.861 24.3145 452.102 24.3555 452.266 24.4375V25.9492ZM456.423 29.5967L455.403 30.6602V34H453.777V20.5H455.403V28.665L456.273 27.6191L459.235 24.4902H461.213L457.513 28.4629L461.644 34H459.736L456.423 29.5967Z" fill="black"/>
<path d="M364.094 190.296C362.646 189.88 361.592 189.37 360.93 188.767C360.273 188.157 359.945 187.407 359.945 186.517C359.945 185.509 360.347 184.677 361.149 184.021C361.958 183.358 363.007 183.027 364.296 183.027C365.175 183.027 365.957 183.197 366.643 183.537C367.334 183.877 367.867 184.346 368.242 184.943C368.623 185.541 368.813 186.194 368.813 186.903H367.117C367.117 186.13 366.871 185.523 366.379 185.084C365.887 184.639 365.192 184.416 364.296 184.416C363.464 184.416 362.813 184.601 362.345 184.97C361.882 185.333 361.65 185.84 361.65 186.49C361.65 187.012 361.87 187.454 362.31 187.817C362.755 188.175 363.508 188.503 364.568 188.802C365.635 189.101 366.467 189.432 367.064 189.795C367.668 190.152 368.113 190.571 368.4 191.052C368.693 191.532 368.84 192.098 368.84 192.748C368.84 193.785 368.436 194.617 367.627 195.244C366.818 195.865 365.737 196.176 364.384 196.176C363.505 196.176 362.685 196.009 361.923 195.675C361.161 195.335 360.572 194.872 360.156 194.286C359.746 193.7 359.541 193.035 359.541 192.291H361.237C361.237 193.064 361.521 193.677 362.09 194.128C362.664 194.573 363.429 194.796 364.384 194.796C365.274 194.796 365.957 194.614 366.432 194.251C366.906 193.888 367.144 193.393 367.144 192.766C367.144 192.139 366.924 191.655 366.484 191.315C366.045 190.97 365.248 190.63 364.094 190.296ZM374.702 196.176C373.413 196.176 372.364 195.754 371.556 194.91C370.747 194.061 370.343 192.927 370.343 191.509V191.21C370.343 190.267 370.521 189.426 370.879 188.688C371.242 187.943 371.746 187.363 372.391 186.947C373.041 186.525 373.744 186.314 374.5 186.314C375.736 186.314 376.697 186.722 377.383 187.536C378.068 188.351 378.411 189.517 378.411 191.034V191.711H371.969C371.992 192.648 372.265 193.407 372.786 193.987C373.313 194.562 373.981 194.849 374.79 194.849C375.364 194.849 375.851 194.731 376.249 194.497C376.647 194.263 376.996 193.952 377.295 193.565L378.288 194.339C377.491 195.563 376.296 196.176 374.702 196.176ZM374.5 187.65C373.844 187.65 373.293 187.891 372.848 188.371C372.402 188.846 372.127 189.514 372.021 190.375H376.785V190.252C376.738 189.426 376.516 188.787 376.117 188.336C375.719 187.879 375.18 187.65 374.5 187.65ZM381.839 186.49L381.892 187.686C382.618 186.771 383.567 186.314 384.739 186.314C386.749 186.314 387.763 187.448 387.78 189.716V196H386.154V189.707C386.148 189.021 385.99 188.515 385.68 188.187C385.375 187.858 384.897 187.694 384.247 187.694C383.72 187.694 383.257 187.835 382.858 188.116C382.46 188.397 382.149 188.767 381.927 189.224V196H380.301V186.49H381.839ZM395.77 193.478C395.77 193.038 395.603 192.698 395.269 192.458C394.94 192.212 394.363 192.001 393.537 191.825C392.717 191.649 392.063 191.438 391.577 191.192C391.097 190.946 390.739 190.653 390.505 190.313C390.276 189.974 390.162 189.569 390.162 189.101C390.162 188.321 390.49 187.662 391.146 187.123C391.809 186.584 392.652 186.314 393.678 186.314C394.756 186.314 395.629 186.593 396.297 187.149C396.971 187.706 397.308 188.418 397.308 189.285H395.673C395.673 188.84 395.482 188.456 395.102 188.134C394.727 187.812 394.252 187.65 393.678 187.65C393.086 187.65 392.623 187.779 392.289 188.037C391.955 188.295 391.788 188.632 391.788 189.048C391.788 189.44 391.943 189.736 392.254 189.936C392.564 190.135 393.124 190.325 393.933 190.507C394.747 190.688 395.406 190.905 395.91 191.157C396.414 191.409 396.786 191.714 397.026 192.071C397.272 192.423 397.396 192.854 397.396 193.363C397.396 194.213 397.056 194.896 396.376 195.411C395.696 195.921 394.814 196.176 393.73 196.176C392.969 196.176 392.295 196.041 391.709 195.771C391.123 195.502 390.663 195.127 390.329 194.646C390.001 194.16 389.837 193.636 389.837 193.073H391.463C391.492 193.618 391.709 194.052 392.113 194.374C392.523 194.69 393.062 194.849 393.73 194.849C394.346 194.849 394.838 194.726 395.207 194.479C395.582 194.228 395.77 193.894 395.77 193.478ZM401.28 196H399.654V186.49H401.28V196ZM399.522 183.968C399.522 183.704 399.602 183.481 399.76 183.3C399.924 183.118 400.164 183.027 400.48 183.027C400.797 183.027 401.037 183.118 401.201 183.3C401.365 183.481 401.447 183.704 401.447 183.968C401.447 184.231 401.365 184.451 401.201 184.627C401.037 184.803 400.797 184.891 400.48 184.891C400.164 184.891 399.924 184.803 399.76 184.627C399.602 184.451 399.522 184.231 399.522 183.968ZM406.097 184.188V186.49H407.872V187.747H406.097V193.645C406.097 194.025 406.176 194.312 406.334 194.506C406.492 194.693 406.762 194.787 407.143 194.787C407.33 194.787 407.588 194.752 407.916 194.682V196C407.488 196.117 407.072 196.176 406.668 196.176C405.941 196.176 405.394 195.956 405.024 195.517C404.655 195.077 404.471 194.453 404.471 193.645V187.747H402.739V186.49H404.471V184.188H406.097ZM411.546 196H409.92V186.49H411.546V196ZM409.788 183.968C409.788 183.704 409.867 183.481 410.025 183.3C410.189 183.118 410.43 183.027 410.746 183.027C411.062 183.027 411.303 183.118 411.467 183.3C411.631 183.481 411.713 183.704 411.713 183.968C411.713 184.231 411.631 184.451 411.467 184.627C411.303 184.803 411.062 184.891 410.746 184.891C410.43 184.891 410.189 184.803 410.025 184.627C409.867 184.451 409.788 184.231 409.788 183.968ZM417.294 193.794L419.649 186.49H421.311L417.9 196H416.661L413.216 186.49H414.877L417.294 193.794ZM426.698 196.176C425.409 196.176 424.36 195.754 423.552 194.91C422.743 194.061 422.339 192.927 422.339 191.509V191.21C422.339 190.267 422.518 189.426 422.875 188.688C423.238 187.943 423.742 187.363 424.387 186.947C425.037 186.525 425.74 186.314 426.496 186.314C427.732 186.314 428.693 186.722 429.379 187.536C430.064 188.351 430.407 189.517 430.407 191.034V191.711H423.965C423.988 192.648 424.261 193.407 424.782 193.987C425.31 194.562 425.978 194.849 426.786 194.849C427.36 194.849 427.847 194.731 428.245 194.497C428.644 194.263 428.992 193.952 429.291 193.565L430.284 194.339C429.487 195.563 428.292 196.176 426.698 196.176ZM426.496 187.65C425.84 187.65 425.289 187.891 424.844 188.371C424.398 188.846 424.123 189.514 424.018 190.375H428.781V190.252C428.734 189.426 428.512 188.787 428.113 188.336C427.715 187.879 427.176 187.65 426.496 187.65ZM436.366 191.166C436.366 189.707 436.712 188.535 437.403 187.65C438.095 186.76 439 186.314 440.119 186.314C441.232 186.314 442.114 186.695 442.765 187.457V182.5H444.391V196H442.896L442.817 194.98C442.167 195.777 441.262 196.176 440.102 196.176C439 196.176 438.101 195.725 437.403 194.822C436.712 193.92 436.366 192.742 436.366 191.289V191.166ZM437.992 191.351C437.992 192.429 438.215 193.272 438.66 193.882C439.105 194.491 439.721 194.796 440.506 194.796C441.537 194.796 442.29 194.333 442.765 193.407V189.039C442.278 188.143 441.531 187.694 440.523 187.694C439.727 187.694 439.105 188.002 438.66 188.617C438.215 189.232 437.992 190.144 437.992 191.351ZM452.793 196C452.699 195.812 452.623 195.479 452.564 194.998C451.809 195.783 450.906 196.176 449.857 196.176C448.92 196.176 448.149 195.912 447.546 195.385C446.948 194.852 446.649 194.178 446.649 193.363C446.649 192.373 447.024 191.605 447.774 191.061C448.53 190.51 449.591 190.234 450.956 190.234H452.538V189.487C452.538 188.919 452.368 188.468 452.028 188.134C451.688 187.794 451.188 187.624 450.525 187.624C449.945 187.624 449.459 187.771 449.066 188.063C448.674 188.356 448.478 188.711 448.478 189.127H446.843C446.843 188.652 447.01 188.195 447.344 187.756C447.684 187.311 448.141 186.959 448.715 186.701C449.295 186.443 449.931 186.314 450.622 186.314C451.718 186.314 452.576 186.59 453.197 187.141C453.818 187.686 454.141 188.438 454.164 189.399V193.776C454.164 194.649 454.275 195.344 454.498 195.859V196H452.793ZM450.095 194.761C450.604 194.761 451.088 194.629 451.545 194.365C452.002 194.102 452.333 193.759 452.538 193.337V191.386H451.264C449.271 191.386 448.275 191.969 448.275 193.135C448.275 193.645 448.445 194.043 448.785 194.33C449.125 194.617 449.562 194.761 450.095 194.761ZM458.919 184.188V186.49H460.694V187.747H458.919V193.645C458.919 194.025 458.998 194.312 459.156 194.506C459.314 194.693 459.584 194.787 459.965 194.787C460.152 194.787 460.41 194.752 460.738 194.682V196C460.311 196.117 459.895 196.176 459.49 196.176C458.764 196.176 458.216 195.956 457.847 195.517C457.478 195.077 457.293 194.453 457.293 193.645V187.747H455.562V186.49H457.293V184.188H458.919ZM468.473 196C468.379 195.812 468.303 195.479 468.244 194.998C467.488 195.783 466.586 196.176 465.537 196.176C464.6 196.176 463.829 195.912 463.226 195.385C462.628 194.852 462.329 194.178 462.329 193.363C462.329 192.373 462.704 191.605 463.454 191.061C464.21 190.51 465.271 190.234 466.636 190.234H468.218V189.487C468.218 188.919 468.048 188.468 467.708 188.134C467.368 187.794 466.867 187.624 466.205 187.624C465.625 187.624 465.139 187.771 464.746 188.063C464.354 188.356 464.157 188.711 464.157 189.127H462.522C462.522 188.652 462.689 188.195 463.023 187.756C463.363 187.311 463.82 186.959 464.395 186.701C464.975 186.443 465.61 186.314 466.302 186.314C467.397 186.314 468.256 186.59 468.877 187.141C469.498 187.686 469.82 188.438 469.844 189.399V193.776C469.844 194.649 469.955 195.344 470.178 195.859V196H468.473ZM465.774 194.761C466.284 194.761 466.768 194.629 467.225 194.365C467.682 194.102 468.013 193.759 468.218 193.337V191.386H466.943C464.951 191.386 463.955 191.969 463.955 193.135C463.955 193.645 464.125 194.043 464.465 194.33C464.805 194.617 465.241 194.761 465.774 194.761Z" fill="black"/>
<path d="M475.707 142.707C476.098 142.317 476.098 141.683 475.707 141.293L469.343 134.929C468.953 134.538 468.319 134.538 467.929 134.929C467.538 135.319 467.538 135.953 467.929 136.343L473.586 142L467.929 147.657C467.538 148.047 467.538 148.681 467.929 149.071C468.319 149.462 468.953 149.462 469.343 149.071L475.707 142.707ZM355 143H475V141H355V143Z" fill="black"/>
<path d="M354.293 157.293C353.902 157.683 353.902 158.317 354.293 158.707L360.657 165.071C361.047 165.462 361.681 165.462 362.071 165.071C362.462 164.681 362.462 164.047 362.071 163.657L356.414 158L362.071 152.343C362.462 151.953 362.462 151.319 362.071 150.929C361.681 150.538 361.047 150.538 360.657 150.929L354.293 157.293ZM475 157L355 157V159L475 159V157Z" fill="#FF0000"/>
</svg>
