<svg width="600" height="300" viewBox="0 0 600 300" fill="none" xmlns="http://www.w3.org/2000/svg">
<rect width="600" height="300" fill="white"/>
<path d="M104.07 158.571L103.245 156.862C103.249 156.798 103.252 156.733 103.252 156.667C103.252 154.731 101.238 152.946 97.85 151.516V152.705C97.5196 152.574 97.1756 152.446 96.8172 152.323V151.769C91.9747 150.022 84.7657 148.914 76.713 148.914C69.6773 148.914 63.2851 149.76 58.5527 151.138V153.068H58.5526V150.732C53.7042 152.273 50.6983 154.414 50.6983 156.78C50.6983 157.153 50.7735 157.521 50.9181 157.881L50.4242 158.76C50.4242 158.76 50.0285 159.273 50.7253 160.356C51.3398 161.311 54.4181 165.049 56.0428 167.007C56.7407 168.01 57.214 168.629 57.2554 168.569C57.3206 168.474 56.8214 166.59 55.4355 164.44C54.7887 163.286 54.0165 161.756 53.5529 160.626C54.8471 161.446 62.4509 165.275 77.9609 165.259C93.812 165.243 100.858 160.281 101.631 159.606C101.361 160.692 100.438 162.888 99.7012 164.432C98.4915 166.641 98.0532 168.565 98.1095 168.66C98.1453 168.72 98.5581 168.083 99.1669 167.051C100.583 165.033 103.268 161.179 103.804 160.198C104.412 159.085 104.07 158.571 104.07 158.571Z" fill="#A52B00"/>
<path d="M108.861 158.56L103.44 154.566C103.389 154.389 103.338 154.211 103.286 154.035L105.066 151.455C105.248 151.193 105.285 150.852 105.167 150.552C105.049 150.255 104.79 150.041 104.484 149.989L101.473 149.478C101.357 149.24 101.234 149.005 101.112 148.773L102.377 145.877C102.507 145.582 102.48 145.239 102.307 144.971C102.135 144.702 101.843 144.545 101.532 144.557L98.4764 144.668C98.3183 144.462 98.1576 144.258 97.9936 144.058L98.6958 140.954C98.767 140.638 98.6771 140.308 98.4576 140.079C98.2393 139.851 97.922 139.757 97.6204 139.831L94.644 140.562C94.4513 140.392 94.2554 140.224 94.0572 140.059L94.1643 136.872C94.1758 136.55 94.0254 136.243 93.7672 136.064C93.5091 135.884 93.1816 135.857 92.8994 135.991L90.1228 137.311C89.8991 137.183 89.6742 137.056 89.4469 136.933L88.9562 133.792C88.9064 133.474 88.7018 133.204 88.4152 133.081C88.1292 132.956 87.8019 132.997 87.551 133.185L85.0754 135.043C84.8316 134.962 84.5867 134.884 84.3389 134.81L83.2719 131.832C83.1634 131.529 82.9132 131.306 82.6081 131.243C82.304 131.181 81.9912 131.286 81.7804 131.522L79.6965 133.853C79.4447 133.824 79.1925 133.798 78.9397 133.776L77.3307 131.065C77.1678 130.79 76.88 130.623 76.5697 130.623C76.2602 130.623 75.9718 130.79 75.81 131.065L74.2006 133.776C73.9477 133.798 73.6945 133.824 73.443 133.853L71.3592 131.522C71.148 131.286 70.8341 131.181 70.5309 131.243C70.2262 131.306 69.9756 131.529 69.8677 131.832L68.7998 134.81C68.5524 134.884 68.3075 134.962 68.0633 135.043L65.5885 133.185C65.3369 132.996 65.0093 132.956 64.723 133.081C64.4373 133.204 64.2319 133.474 64.1823 133.792L63.6913 136.933C63.4644 137.056 63.2394 137.182 63.0153 137.311L60.2389 135.991C59.9569 135.857 59.6277 135.884 59.3709 136.064C59.1131 136.243 58.9623 136.55 58.9739 136.872L59.0807 140.059C58.8829 140.224 58.6874 140.392 58.4937 140.562L55.5178 139.831C55.2156 139.757 54.8987 139.851 54.6798 140.079C54.4597 140.308 54.3706 140.638 54.4413 140.954L55.1421 144.058C54.9796 144.259 54.8187 144.462 54.661 144.668L51.6052 144.557C51.2968 144.548 51.0025 144.702 50.8302 144.971C50.6575 145.239 50.6313 145.582 50.7599 145.877L52.0258 148.773C51.9029 149.005 51.7808 149.24 51.6631 149.478L48.6524 149.989C48.3464 150.041 48.0886 150.254 47.9696 150.552C47.8515 150.852 47.8898 151.193 48.0703 151.455L49.8513 154.035C49.8375 154.08 49.8248 154.126 49.8112 154.172L44.7758 159.521C44.7758 159.521 44.004 160.125 45.1275 161.547C46.1182 162.801 51.2051 167.771 53.8917 170.375C55.0263 171.697 55.8037 172.515 55.8849 172.445C56.0131 172.332 55.3402 169.927 53.1053 167.105C51.3824 164.573 49.1464 160.679 49.6708 160.23C49.6708 160.23 50.2672 159.473 51.4637 158.928C51.5075 158.963 51.4185 158.894 51.4637 158.928C51.4637 158.928 76.7165 170.577 100.141 159.125C102.817 158.645 104.437 160.079 104.437 160.079C104.995 160.403 103.549 164.407 102.359 167.057C100.741 170.067 100.504 172.416 100.641 172.497C100.728 172.549 101.316 171.653 102.156 170.227C104.228 167.34 108.144 161.837 108.861 160.5C109.674 158.984 108.861 158.56 108.861 158.56Z" fill="#F74C00"/>
<path d="M97.8191 157.066C97.8191 157.066 101.453 156.897 106.225 152.046L106.902 150.544C106.902 150.544 99.4939 143.176 111.009 138.089C111.009 138.089 110.001 139.737 110.297 146.102C110.297 146.102 113.769 144.896 114.787 139.274C114.787 139.274 119.851 145.951 109.286 152.213C109.286 152.213 104.33 160.158 97.3428 159.397L97.8191 157.066Z" fill="#F74C00"/>
<path d="M81.3595 152.489C81.3595 152.489 83.8831 149.726 86.4068 152.489C86.4068 152.489 88.3897 156.174 86.4068 158.016C86.4068 158.016 83.1622 160.595 81.3595 158.016C81.3595 158.016 79.1965 155.99 81.3595 152.489Z" fill="black"/>
<path d="M84.282 153.514C84.282 154.59 83.6478 155.463 82.8655 155.463C82.0833 155.463 81.4491 154.59 81.4491 153.514C81.4491 152.438 82.0833 151.566 82.8655 151.566C83.6478 151.566 84.282 152.438 84.282 153.514Z" fill="white"/>
<path d="M70.0961 151.734C70.0961 151.734 74.4249 149.818 75.6064 154.096C75.6064 154.096 76.844 159.082 72.0514 159.363C72.0514 159.363 65.9401 158.186 70.0961 151.734Z" fill="black"/>
<path d="M72.2703 153.586C72.2703 154.695 71.6163 155.595 70.8094 155.595C70.0029 155.595 69.3487 154.695 69.3487 153.586C69.3487 152.476 70.0029 151.576 70.8094 151.576C71.6163 151.576 72.2703 152.476 72.2703 153.586Z" fill="white"/>
<path d="M75.6441 161.107L81.1645 160.664C81.1645 160.664 80.9774 161.553 80.2572 162.22C80.2572 162.22 78.3585 164.302 76.18 162.047C76.18 162.047 75.8236 161.662 75.6441 161.107Z" fill="black"/>
<path d="M53.5384 155.996C53.4928 155.996 53.4481 155.999 53.4035 156.003C51.6111 155.595 46.5728 154.282 45.2411 152.152C45.2411 152.152 52.0208 144.44 41.4245 139.51L42.6582 148.043C42.6582 148.043 39.3916 145.86 38.6867 141.118C38.6867 141.118 30.7321 146.891 42.1976 152.424C42.1976 152.424 43.2375 156.331 53.2218 159.449L53.2291 159.419C53.3296 159.438 53.4325 159.449 53.5384 159.449C54.4818 159.449 55.2467 158.676 55.2467 157.722C55.2467 156.769 54.4818 155.996 53.5384 155.996Z" fill="#F74C00"/>
<path d="M95.7752 148.353C99.4933 143.553 118.544 130.455 103.317 135.143C103.317 135.143 100.814 135.81 99.5463 135.699C96.2992 135.414 94.0499 133.104 92.6329 130.693C90.848 127.657 89.6365 124.614 86.8191 122.21C81.8747 117.991 71.4348 117.869 65.8583 122.21C62.9161 124.501 61.8295 127.657 60.0447 130.693C58.6276 133.104 56.3784 135.414 53.1312 135.699C51.8631 135.81 49.3601 135.143 49.3601 135.143C34.1336 130.455 53.1841 143.553 56.9022 148.353C69.8599 145.282 82.8177 145.493 95.7752 148.353V148.353Z" fill="black"/>
<path d="M82.1073 132.586C82.1073 135.389 79.5396 137.662 76.3722 137.662C73.2047 137.662 70.637 135.389 70.637 132.586C70.637 129.783 73.2047 127.51 76.3722 127.51C79.5396 127.51 82.1073 129.783 82.1073 132.586Z" fill="white"/>
<path d="M80.5431 137.596C80.5431 139.634 78.6757 141.287 76.3721 141.287C74.0686 141.287 72.2012 139.634 72.2012 137.596C72.2012 135.557 74.0686 133.904 76.3721 133.904C78.6757 133.904 80.5431 135.557 80.5431 137.596V137.596Z" fill="white"/>
<path d="M75.955 132.586C75.955 133.605 75.0213 134.432 73.8695 134.432C72.7178 134.432 71.784 133.605 71.784 132.586C71.784 131.567 72.7178 130.74 73.8695 130.74C75.0213 130.74 75.955 131.567 75.955 132.586Z" fill="black"/>
<path d="M80.9602 132.586C80.9602 133.605 80.0265 134.432 78.8747 134.432C77.7229 134.432 76.7892 133.605 76.7892 132.586C76.7892 131.567 77.7229 130.74 78.8747 130.74C80.0265 130.74 80.9602 131.567 80.9602 132.586Z" fill="black"/>
<path d="M69.5038 129.142C69.8554 130.239 69.5972 131.25 68.927 131.4C68.2568 131.55 67.4285 130.783 67.0768 129.686C66.7252 128.589 66.9834 127.578 67.6536 127.428C68.3238 127.278 69.1521 128.045 69.5038 129.142V129.142Z" fill="white"/>
<path d="M67.6778 132.068C66.4725 132.337 65.3303 132.041 65.1266 131.407C64.9229 130.772 65.7348 130.039 66.9401 129.769C68.1453 129.5 69.2875 129.796 69.4913 130.43C69.695 131.065 68.8831 131.798 67.6778 132.068Z" fill="white"/>
<path d="M68.6314 129.423L67.5054 131.183L71.2049 133.097L72.3309 131.336L68.6314 129.423Z" fill="white"/>
<path d="M68.5521 136.333C69.7574 136.602 70.5693 137.335 70.3656 137.97C70.1619 138.605 69.0197 138.901 67.8144 138.631C66.6092 138.362 65.7972 137.629 66.001 136.994C66.2047 136.359 67.3469 136.063 68.5521 136.333Z" fill="white"/>
<path d="M70.3782 139.258C70.0265 140.355 69.1982 141.123 68.528 140.972C67.8578 140.822 67.5996 139.811 67.9512 138.715C68.3029 137.618 69.1312 136.85 69.8014 137C70.4716 137.15 70.7298 138.161 70.3782 139.258Z" fill="white"/>
<path d="M68.3909 137.234L69.5168 138.995L73.2163 137.081L72.0904 135.32L68.3909 137.234Z" fill="white"/>
<path d="M85.0718 132.075C83.8666 131.806 83.0547 131.073 83.2584 130.438C83.4621 129.803 84.6043 129.507 85.8096 129.777C87.0148 130.047 87.8267 130.78 87.623 131.414C87.4193 132.049 86.2771 132.345 85.0718 132.075V132.075Z" fill="white"/>
<path d="M83.2458 129.15C83.5974 128.053 84.4258 127.286 85.096 127.436C85.7662 127.586 86.0244 128.597 85.6727 129.694C85.3211 130.79 84.4927 131.558 83.8225 131.408C83.1523 131.258 82.8941 130.247 83.2458 129.15Z" fill="white"/>
<path d="M85.233 131.174L84.1071 129.414L80.4076 131.327L81.5335 133.088L85.233 131.174Z" fill="white"/>
<path d="M82.3683 139.266C82.0166 138.169 82.2749 137.158 82.945 137.008C83.6152 136.858 84.4436 137.626 84.7952 138.722C85.1469 139.819 84.8887 140.83 84.2185 140.98C83.5483 141.13 82.7199 140.363 82.3683 139.266Z" fill="white"/>
<path d="M84.1943 136.341C85.3995 136.071 86.5417 136.367 86.7455 137.002C86.9492 137.636 86.1373 138.369 84.932 138.639C83.7268 138.909 82.5845 138.613 82.3808 137.978C82.1771 137.343 82.989 136.61 84.1943 136.341Z" fill="white"/>
<path d="M83.2407 138.986L84.3667 137.225L80.6671 135.311L79.5412 137.072L83.2407 138.986Z" fill="white"/>
<path d="M75.2166 135.978L76.3721 134.326L77.5276 135.978H75.2166V135.978Z" fill="black"/>
<line x1="269.5" y1="8" x2="269.5" y2="292" stroke="black"/>
<rect x="229.5" y="110.5" width="79" height="79" rx="3.5" fill="white" stroke="black"/>
<path d="M253.83 134.592H249.717V146H248.038V134.592H243.934V133.203H253.83V134.592ZM260.343 146C260.249 145.812 260.173 145.479 260.114 144.998C259.358 145.783 258.456 146.176 257.407 146.176C256.47 146.176 255.699 145.912 255.096 145.385C254.498 144.852 254.199 144.178 254.199 143.363C254.199 142.373 254.574 141.605 255.324 141.061C256.08 140.51 257.141 140.234 258.506 140.234H260.088V139.487C260.088 138.919 259.918 138.468 259.578 138.134C259.238 137.794 258.737 137.624 258.075 137.624C257.495 137.624 257.009 137.771 256.616 138.063C256.224 138.356 256.027 138.711 256.027 139.127H254.393C254.393 138.652 254.56 138.195 254.894 137.756C255.233 137.311 255.69 136.959 256.265 136.701C256.845 136.443 257.48 136.314 258.172 136.314C259.268 136.314 260.126 136.59 260.747 137.141C261.368 137.686 261.69 138.438 261.714 139.399V143.776C261.714 144.649 261.825 145.344 262.048 145.859V146H260.343ZM257.645 144.761C258.154 144.761 258.638 144.629 259.095 144.365C259.552 144.102 259.883 143.759 260.088 143.337V141.386H258.813C256.821 141.386 255.825 141.969 255.825 143.135C255.825 143.645 255.995 144.043 256.335 144.33C256.675 144.617 257.111 144.761 257.645 144.761ZM268.859 137.949C268.613 137.908 268.347 137.888 268.06 137.888C266.993 137.888 266.27 138.342 265.889 139.25V146H264.263V136.49H265.845L265.871 137.589C266.404 136.739 267.16 136.314 268.139 136.314C268.455 136.314 268.695 136.355 268.859 136.438V137.949ZM269.8 141.166C269.8 139.684 270.143 138.506 270.828 137.633C271.514 136.754 272.422 136.314 273.553 136.314C274.713 136.314 275.618 136.725 276.269 137.545L276.348 136.49H277.833V145.771C277.833 147.002 277.467 147.972 276.734 148.681C276.008 149.39 275.029 149.744 273.799 149.744C273.113 149.744 272.442 149.598 271.786 149.305C271.13 149.012 270.629 148.61 270.283 148.101L271.127 147.125C271.824 147.986 272.677 148.417 273.685 148.417C274.476 148.417 275.091 148.194 275.53 147.749C275.976 147.304 276.198 146.677 276.198 145.868V145.051C275.548 145.801 274.66 146.176 273.535 146.176C272.422 146.176 271.52 145.728 270.828 144.831C270.143 143.935 269.8 142.713 269.8 141.166ZM271.435 141.351C271.435 142.423 271.654 143.267 272.094 143.882C272.533 144.491 273.148 144.796 273.939 144.796C274.965 144.796 275.718 144.33 276.198 143.398V139.057C275.7 138.148 274.953 137.694 273.957 137.694C273.166 137.694 272.548 138.002 272.103 138.617C271.657 139.232 271.435 140.144 271.435 141.351ZM284.24 146.176C282.951 146.176 281.902 145.754 281.094 144.91C280.285 144.061 279.881 142.927 279.881 141.509V141.21C279.881 140.267 280.06 139.426 280.417 138.688C280.78 137.943 281.284 137.363 281.929 136.947C282.579 136.525 283.282 136.314 284.038 136.314C285.274 136.314 286.235 136.722 286.921 137.536C287.606 138.351 287.949 139.517 287.949 141.034V141.711H281.507C281.53 142.648 281.803 143.407 282.324 143.987C282.852 144.562 283.52 144.849 284.328 144.849C284.902 144.849 285.389 144.731 285.787 144.497C286.186 144.263 286.534 143.952 286.833 143.565L287.826 144.339C287.029 145.563 285.834 146.176 284.24 146.176ZM284.038 137.65C283.382 137.65 282.831 137.891 282.386 138.371C281.94 138.846 281.665 139.514 281.56 140.375H286.323V140.252C286.276 139.426 286.054 138.787 285.655 138.336C285.257 137.879 284.718 137.65 284.038 137.65ZM292.045 134.188V136.49H293.82V137.747H292.045V143.645C292.045 144.025 292.124 144.312 292.282 144.506C292.44 144.693 292.71 144.787 293.091 144.787C293.278 144.787 293.536 144.752 293.864 144.682V146C293.437 146.117 293.021 146.176 292.616 146.176C291.89 146.176 291.342 145.956 290.973 145.517C290.604 145.077 290.419 144.453 290.419 143.645V137.747H288.688V136.49H290.419V134.188H292.045ZM247.511 164.759L249.339 157.49H250.965L248.196 167H246.878L244.566 159.793L242.316 167H240.998L238.238 157.49H239.855L241.728 164.609L243.942 157.49H245.252L247.511 164.759ZM256.572 167.176C255.283 167.176 254.234 166.754 253.426 165.91C252.617 165.061 252.213 163.927 252.213 162.509V162.21C252.213 161.267 252.392 160.426 252.749 159.688C253.112 158.943 253.616 158.363 254.261 157.947C254.911 157.525 255.614 157.314 256.37 157.314C257.606 157.314 258.567 157.722 259.253 158.536C259.938 159.351 260.281 160.517 260.281 162.034V162.711H253.839C253.862 163.648 254.135 164.407 254.656 164.987C255.184 165.562 255.852 165.849 256.66 165.849C257.234 165.849 257.721 165.731 258.119 165.497C258.518 165.263 258.866 164.952 259.165 164.565L260.158 165.339C259.361 166.563 258.166 167.176 256.572 167.176ZM256.37 158.65C255.714 158.65 255.163 158.891 254.718 159.371C254.272 159.846 253.997 160.514 253.892 161.375H258.655V161.252C258.608 160.426 258.386 159.787 257.987 159.336C257.589 158.879 257.05 158.65 256.37 158.65ZM270.222 162.351C270.222 163.804 269.888 164.973 269.22 165.857C268.552 166.736 267.655 167.176 266.53 167.176C265.329 167.176 264.4 166.751 263.744 165.901L263.665 167H262.171V153.5H263.797V158.536C264.453 157.722 265.358 157.314 266.513 157.314C267.667 157.314 268.572 157.751 269.229 158.624C269.891 159.497 270.222 160.692 270.222 162.21V162.351ZM268.596 162.166C268.596 161.059 268.382 160.203 267.954 159.6C267.526 158.996 266.911 158.694 266.108 158.694C265.036 158.694 264.266 159.192 263.797 160.188V164.302C264.295 165.298 265.071 165.796 266.126 165.796C266.905 165.796 267.512 165.494 267.945 164.891C268.379 164.287 268.596 163.379 268.596 162.166ZM277.815 164.478C277.815 164.038 277.648 163.698 277.314 163.458C276.986 163.212 276.409 163.001 275.583 162.825C274.763 162.649 274.109 162.438 273.623 162.192C273.143 161.946 272.785 161.653 272.551 161.313C272.322 160.974 272.208 160.569 272.208 160.101C272.208 159.321 272.536 158.662 273.192 158.123C273.854 157.584 274.698 157.314 275.724 157.314C276.802 157.314 277.675 157.593 278.343 158.149C279.017 158.706 279.354 159.418 279.354 160.285H277.719C277.719 159.84 277.528 159.456 277.147 159.134C276.772 158.812 276.298 158.65 275.724 158.65C275.132 158.65 274.669 158.779 274.335 159.037C274.001 159.295 273.834 159.632 273.834 160.048C273.834 160.44 273.989 160.736 274.3 160.936C274.61 161.135 275.17 161.325 275.979 161.507C276.793 161.688 277.452 161.905 277.956 162.157C278.46 162.409 278.832 162.714 279.072 163.071C279.318 163.423 279.441 163.854 279.441 164.363C279.441 165.213 279.102 165.896 278.422 166.411C277.742 166.921 276.86 167.176 275.776 167.176C275.015 167.176 274.341 167.041 273.755 166.771C273.169 166.502 272.709 166.127 272.375 165.646C272.047 165.16 271.883 164.636 271.883 164.073H273.509C273.538 164.618 273.755 165.052 274.159 165.374C274.569 165.69 275.108 165.849 275.776 165.849C276.392 165.849 276.884 165.726 277.253 165.479C277.628 165.228 277.815 164.894 277.815 164.478ZM283.326 167H281.7V157.49H283.326V167ZM281.568 154.968C281.568 154.704 281.647 154.481 281.806 154.3C281.97 154.118 282.21 154.027 282.526 154.027C282.843 154.027 283.083 154.118 283.247 154.3C283.411 154.481 283.493 154.704 283.493 154.968C283.493 155.231 283.411 155.451 283.247 155.627C283.083 155.803 282.843 155.891 282.526 155.891C282.21 155.891 281.97 155.803 281.806 155.627C281.647 155.451 281.568 155.231 281.568 154.968ZM288.143 155.188V157.49H289.918V158.747H288.143V164.645C288.143 165.025 288.222 165.312 288.38 165.506C288.538 165.693 288.808 165.787 289.188 165.787C289.376 165.787 289.634 165.752 289.962 165.682V167C289.534 167.117 289.118 167.176 288.714 167.176C287.987 167.176 287.439 166.956 287.07 166.517C286.701 166.077 286.517 165.453 286.517 164.645V158.747H284.785V157.49H286.517V155.188H288.143ZM295.771 167.176C294.482 167.176 293.434 166.754 292.625 165.91C291.816 165.061 291.412 163.927 291.412 162.509V162.21C291.412 161.267 291.591 160.426 291.948 159.688C292.312 158.943 292.815 158.363 293.46 157.947C294.11 157.525 294.813 157.314 295.569 157.314C296.806 157.314 297.767 157.722 298.452 158.536C299.138 159.351 299.48 160.517 299.48 162.034V162.711H293.038C293.062 163.648 293.334 164.407 293.855 164.987C294.383 165.562 295.051 165.849 295.859 165.849C296.434 165.849 296.92 165.731 297.318 165.497C297.717 165.263 298.065 164.952 298.364 164.565L299.357 165.339C298.561 166.563 297.365 167.176 295.771 167.176ZM295.569 158.65C294.913 158.65 294.362 158.891 293.917 159.371C293.472 159.846 293.196 160.514 293.091 161.375H297.854V161.252C297.808 160.426 297.585 159.787 297.187 159.336C296.788 158.879 296.249 158.65 295.569 158.65Z" fill="black"/>
<rect x="424" y="54" width="143" height="192" rx="7" fill="white" stroke="black" stroke-width="2"/>
<path d="M460.273 72.7705H455.211V78H452.574V65.2031H460.906V67.3389H455.211V70.6436H460.273V72.7705ZM464.949 78H462.4V68.4902H464.949V78ZM462.251 66.0293C462.251 65.6484 462.377 65.335 462.629 65.0889C462.887 64.8428 463.235 64.7197 463.675 64.7197C464.108 64.7197 464.454 64.8428 464.712 65.0889C464.97 65.335 465.099 65.6484 465.099 66.0293C465.099 66.416 464.967 66.7324 464.703 66.9785C464.445 67.2246 464.103 67.3477 463.675 67.3477C463.247 67.3477 462.901 67.2246 462.638 66.9785C462.38 66.7324 462.251 66.416 462.251 66.0293ZM469.73 78H467.182V64.5H469.73V78ZM476.208 78.1758C474.813 78.1758 473.677 77.748 472.798 76.8926C471.925 76.0371 471.488 74.8975 471.488 73.4736V73.2275C471.488 72.2725 471.673 71.4199 472.042 70.6699C472.411 69.9141 472.933 69.334 473.606 68.9297C474.286 68.5195 475.06 68.3145 475.927 68.3145C477.228 68.3145 478.25 68.7246 478.994 69.5449C479.744 70.3652 480.119 71.5283 480.119 73.0342V74.0713H474.063C474.146 74.6924 474.392 75.1904 474.802 75.5654C475.218 75.9404 475.742 76.1279 476.375 76.1279C477.354 76.1279 478.118 75.7734 478.669 75.0645L479.917 76.4619C479.536 77.001 479.021 77.4229 478.37 77.7275C477.72 78.0264 476.999 78.1758 476.208 78.1758ZM475.918 70.3711C475.414 70.3711 475.004 70.541 474.688 70.8809C474.377 71.2207 474.178 71.707 474.09 72.3398H477.623V72.1377C477.611 71.5752 477.459 71.1416 477.166 70.8369C476.873 70.5264 476.457 70.3711 475.918 70.3711ZM486.72 75.3721C486.72 75.0615 486.564 74.8184 486.254 74.6426C485.949 74.4609 485.457 74.2998 484.777 74.1592C482.516 73.6846 481.385 72.7236 481.385 71.2764C481.385 70.4326 481.733 69.7295 482.431 69.167C483.134 68.5986 484.051 68.3145 485.182 68.3145C486.389 68.3145 487.353 68.5986 488.073 69.167C488.8 69.7354 489.163 70.4736 489.163 71.3818H486.623C486.623 71.0186 486.506 70.7197 486.271 70.4854C486.037 70.2451 485.671 70.125 485.173 70.125C484.745 70.125 484.414 70.2217 484.18 70.415C483.945 70.6084 483.828 70.8545 483.828 71.1533C483.828 71.4346 483.96 71.6631 484.224 71.8389C484.493 72.0088 484.944 72.1582 485.577 72.2871C486.21 72.4102 486.743 72.5508 487.177 72.709C488.519 73.2012 489.189 74.0537 489.189 75.2666C489.189 76.1338 488.817 76.8369 488.073 77.376C487.329 77.9092 486.368 78.1758 485.19 78.1758C484.394 78.1758 483.685 78.0352 483.063 77.7539C482.448 77.4668 481.965 77.0771 481.613 76.585C481.262 76.0869 481.086 75.5508 481.086 74.9766H483.494C483.518 75.4277 483.685 75.7734 483.995 76.0137C484.306 76.2539 484.722 76.374 485.243 76.374C485.729 76.374 486.096 76.2832 486.342 76.1016C486.594 75.9141 486.72 75.6709 486.72 75.3721ZM494.384 74.4053L496.142 68.4902H498.866L495.043 79.4766L494.832 79.9775C494.264 81.2197 493.326 81.8408 492.02 81.8408C491.65 81.8408 491.275 81.7852 490.895 81.6738V79.749L491.281 79.7578C491.762 79.7578 492.119 79.6846 492.354 79.5381C492.594 79.3916 492.781 79.1484 492.916 78.8086L493.215 78.0264L489.884 68.4902H492.617L494.384 74.4053ZM505.019 75.3721C505.019 75.0615 504.863 74.8184 504.553 74.6426C504.248 74.4609 503.756 74.2998 503.076 74.1592C500.814 73.6846 499.684 72.7236 499.684 71.2764C499.684 70.4326 500.032 69.7295 500.729 69.167C501.433 68.5986 502.35 68.3145 503.48 68.3145C504.688 68.3145 505.651 68.5986 506.372 69.167C507.099 69.7354 507.462 70.4736 507.462 71.3818H504.922C504.922 71.0186 504.805 70.7197 504.57 70.4854C504.336 70.2451 503.97 70.125 503.472 70.125C503.044 70.125 502.713 70.2217 502.479 70.415C502.244 70.6084 502.127 70.8545 502.127 71.1533C502.127 71.4346 502.259 71.6631 502.522 71.8389C502.792 72.0088 503.243 72.1582 503.876 72.2871C504.509 72.4102 505.042 72.5508 505.476 72.709C506.817 73.2012 507.488 74.0537 507.488 75.2666C507.488 76.1338 507.116 76.8369 506.372 77.376C505.628 77.9092 504.667 78.1758 503.489 78.1758C502.692 78.1758 501.983 78.0352 501.362 77.7539C500.747 77.4668 500.264 77.0771 499.912 76.585C499.561 76.0869 499.385 75.5508 499.385 74.9766H501.793C501.816 75.4277 501.983 75.7734 502.294 76.0137C502.604 76.2539 503.021 76.374 503.542 76.374C504.028 76.374 504.395 76.2832 504.641 76.1016C504.893 75.9141 505.019 75.6709 505.019 75.3721ZM512.173 66.1523V68.4902H513.799V70.3535H512.173V75.0996C512.173 75.4512 512.24 75.7031 512.375 75.8555C512.51 76.0078 512.768 76.084 513.148 76.084C513.43 76.084 513.679 76.0635 513.896 76.0225V77.9473C513.397 78.0996 512.885 78.1758 512.357 78.1758C510.576 78.1758 509.668 77.2764 509.633 75.4775V70.3535H508.244V68.4902H509.633V66.1523H512.173ZM519.591 78.1758C518.196 78.1758 517.06 77.748 516.181 76.8926C515.308 76.0371 514.871 74.8975 514.871 73.4736V73.2275C514.871 72.2725 515.056 71.4199 515.425 70.6699C515.794 69.9141 516.315 69.334 516.989 68.9297C517.669 68.5195 518.442 68.3145 519.31 68.3145C520.61 68.3145 521.633 68.7246 522.377 69.5449C523.127 70.3652 523.502 71.5283 523.502 73.0342V74.0713H517.446C517.528 74.6924 517.774 75.1904 518.185 75.5654C518.601 75.9404 519.125 76.1279 519.758 76.1279C520.736 76.1279 521.501 75.7734 522.052 75.0645L523.3 76.4619C522.919 77.001 522.403 77.4229 521.753 77.7275C521.103 78.0264 520.382 78.1758 519.591 78.1758ZM519.301 70.3711C518.797 70.3711 518.387 70.541 518.07 70.8809C517.76 71.2207 517.561 71.707 517.473 72.3398H521.006V72.1377C520.994 71.5752 520.842 71.1416 520.549 70.8369C520.256 70.5264 519.84 70.3711 519.301 70.3711ZM527.334 68.4902L527.413 69.5537C528.087 68.7275 528.998 68.3145 530.146 68.3145C531.371 68.3145 532.212 68.7979 532.669 69.7646C533.337 68.7979 534.289 68.3145 535.525 68.3145C536.557 68.3145 537.324 68.6162 537.828 69.2197C538.332 69.8174 538.584 70.7197 538.584 71.9268V78H536.035V71.9355C536.035 71.3965 535.93 71.0039 535.719 70.7578C535.508 70.5059 535.136 70.3799 534.603 70.3799C533.841 70.3799 533.313 70.7432 533.021 71.4697L533.029 78H530.489V71.9443C530.489 71.3936 530.381 70.9951 530.164 70.749C529.947 70.5029 529.578 70.3799 529.057 70.3799C528.336 70.3799 527.814 70.6787 527.492 71.2764V78H524.952V68.4902H527.334Z" fill="black"/>
<path d="M438.383 120.977H437.141L441.891 108.625H443.125L438.383 120.977ZM448.773 112.844C448.555 112.807 448.318 112.789 448.062 112.789C447.115 112.789 446.471 113.193 446.133 114V120H444.688V111.547H446.094L446.117 112.523C446.591 111.768 447.263 111.391 448.133 111.391C448.414 111.391 448.628 111.427 448.773 111.5V112.844ZM449.57 115.695C449.57 114.867 449.732 114.122 450.055 113.461C450.383 112.799 450.836 112.289 451.414 111.93C451.997 111.57 452.661 111.391 453.406 111.391C454.557 111.391 455.487 111.789 456.195 112.586C456.909 113.383 457.266 114.443 457.266 115.766V115.867C457.266 116.69 457.107 117.43 456.789 118.086C456.477 118.737 456.026 119.245 455.438 119.609C454.854 119.974 454.182 120.156 453.422 120.156C452.276 120.156 451.346 119.758 450.633 118.961C449.924 118.164 449.57 117.109 449.57 115.797V115.695ZM451.023 115.867C451.023 116.805 451.24 117.557 451.672 118.125C452.109 118.693 452.693 118.977 453.422 118.977C454.156 118.977 454.74 118.69 455.172 118.117C455.604 117.539 455.82 116.732 455.82 115.695C455.82 114.768 455.599 114.018 455.156 113.445C454.719 112.867 454.135 112.578 453.406 112.578C452.693 112.578 452.117 112.862 451.68 113.43C451.242 113.997 451.023 114.81 451.023 115.867ZM458.695 115.695C458.695 114.867 458.857 114.122 459.18 113.461C459.508 112.799 459.961 112.289 460.539 111.93C461.122 111.57 461.786 111.391 462.531 111.391C463.682 111.391 464.612 111.789 465.32 112.586C466.034 113.383 466.391 114.443 466.391 115.766V115.867C466.391 116.69 466.232 117.43 465.914 118.086C465.602 118.737 465.151 119.245 464.562 119.609C463.979 119.974 463.307 120.156 462.547 120.156C461.401 120.156 460.471 119.758 459.758 118.961C459.049 118.164 458.695 117.109 458.695 115.797V115.695ZM460.148 115.867C460.148 116.805 460.365 117.557 460.797 118.125C461.234 118.693 461.818 118.977 462.547 118.977C463.281 118.977 463.865 118.69 464.297 118.117C464.729 117.539 464.945 116.732 464.945 115.695C464.945 114.768 464.724 114.018 464.281 113.445C463.844 112.867 463.26 112.578 462.531 112.578C461.818 112.578 461.242 112.862 460.805 113.43C460.367 113.997 460.148 114.81 460.148 115.867ZM470.164 109.5V111.547H471.742V112.664H470.164V117.906C470.164 118.245 470.234 118.5 470.375 118.672C470.516 118.839 470.755 118.922 471.094 118.922C471.26 118.922 471.49 118.891 471.781 118.828V120C471.401 120.104 471.031 120.156 470.672 120.156C470.026 120.156 469.539 119.961 469.211 119.57C468.883 119.18 468.719 118.625 468.719 117.906V112.664H467.18V111.547H468.719V109.5H470.164ZM473.727 120.977H472.484L477.234 108.625H478.469L473.727 120.977ZM480.062 119.242C480.062 118.992 480.135 118.784 480.281 118.617C480.432 118.451 480.656 118.367 480.953 118.367C481.25 118.367 481.474 118.451 481.625 118.617C481.781 118.784 481.859 118.992 481.859 119.242C481.859 119.482 481.781 119.682 481.625 119.844C481.474 120.005 481.25 120.086 480.953 120.086C480.656 120.086 480.432 120.005 480.281 119.844C480.135 119.682 480.062 119.482 480.062 119.242ZM489.172 117.758C489.172 117.367 489.023 117.065 488.727 116.852C488.435 116.633 487.922 116.445 487.188 116.289C486.458 116.133 485.878 115.945 485.445 115.727C485.018 115.508 484.701 115.247 484.492 114.945C484.289 114.643 484.188 114.284 484.188 113.867C484.188 113.174 484.479 112.589 485.062 112.109C485.651 111.63 486.401 111.391 487.312 111.391C488.271 111.391 489.047 111.638 489.641 112.133C490.24 112.628 490.539 113.26 490.539 114.031H489.086C489.086 113.635 488.917 113.294 488.578 113.008C488.245 112.721 487.823 112.578 487.312 112.578C486.786 112.578 486.375 112.693 486.078 112.922C485.781 113.151 485.633 113.451 485.633 113.82C485.633 114.169 485.771 114.432 486.047 114.609C486.323 114.786 486.82 114.956 487.539 115.117C488.263 115.279 488.849 115.471 489.297 115.695C489.745 115.919 490.076 116.19 490.289 116.508C490.508 116.82 490.617 117.203 490.617 117.656C490.617 118.411 490.315 119.018 489.711 119.477C489.107 119.93 488.323 120.156 487.359 120.156C486.682 120.156 486.083 120.036 485.562 119.797C485.042 119.557 484.633 119.224 484.336 118.797C484.044 118.365 483.898 117.898 483.898 117.398H485.344C485.37 117.883 485.562 118.268 485.922 118.555C486.286 118.836 486.766 118.977 487.359 118.977C487.906 118.977 488.344 118.867 488.672 118.648C489.005 118.424 489.172 118.128 489.172 117.758ZM497.422 117.758C497.422 117.367 497.273 117.065 496.977 116.852C496.685 116.633 496.172 116.445 495.438 116.289C494.708 116.133 494.128 115.945 493.695 115.727C493.268 115.508 492.951 115.247 492.742 114.945C492.539 114.643 492.438 114.284 492.438 113.867C492.438 113.174 492.729 112.589 493.312 112.109C493.901 111.63 494.651 111.391 495.562 111.391C496.521 111.391 497.297 111.638 497.891 112.133C498.49 112.628 498.789 113.26 498.789 114.031H497.336C497.336 113.635 497.167 113.294 496.828 113.008C496.495 112.721 496.073 112.578 495.562 112.578C495.036 112.578 494.625 112.693 494.328 112.922C494.031 113.151 493.883 113.451 493.883 113.82C493.883 114.169 494.021 114.432 494.297 114.609C494.573 114.786 495.07 114.956 495.789 115.117C496.513 115.279 497.099 115.471 497.547 115.695C497.995 115.919 498.326 116.19 498.539 116.508C498.758 116.82 498.867 117.203 498.867 117.656C498.867 118.411 498.565 119.018 497.961 119.477C497.357 119.93 496.573 120.156 495.609 120.156C494.932 120.156 494.333 120.036 493.812 119.797C493.292 119.557 492.883 119.224 492.586 118.797C492.294 118.365 492.148 117.898 492.148 117.398H493.594C493.62 117.883 493.812 118.268 494.172 118.555C494.536 118.836 495.016 118.977 495.609 118.977C496.156 118.977 496.594 118.867 496.922 118.648C497.255 118.424 497.422 118.128 497.422 117.758ZM502.195 112.57C502.836 111.784 503.669 111.391 504.695 111.391C506.482 111.391 507.383 112.398 507.398 114.414V120H505.953V114.406C505.948 113.797 505.807 113.346 505.531 113.055C505.26 112.763 504.836 112.617 504.258 112.617C503.789 112.617 503.378 112.742 503.023 112.992C502.669 113.242 502.393 113.57 502.195 113.977V120H500.75V108H502.195V112.57ZM509.852 120.977H508.609L513.359 108.625H514.594L509.852 120.977ZM443.312 139C443.229 138.833 443.161 138.536 443.109 138.109C442.438 138.807 441.635 139.156 440.703 139.156C439.87 139.156 439.185 138.922 438.648 138.453C438.117 137.979 437.852 137.38 437.852 136.656C437.852 135.776 438.185 135.094 438.852 134.609C439.523 134.12 440.466 133.875 441.68 133.875H443.086V133.211C443.086 132.706 442.935 132.305 442.633 132.008C442.331 131.706 441.885 131.555 441.297 131.555C440.781 131.555 440.349 131.685 440 131.945C439.651 132.206 439.477 132.521 439.477 132.891H438.023C438.023 132.469 438.172 132.062 438.469 131.672C438.771 131.276 439.177 130.964 439.688 130.734C440.203 130.505 440.768 130.391 441.383 130.391C442.357 130.391 443.12 130.635 443.672 131.125C444.224 131.609 444.51 132.279 444.531 133.133V137.023C444.531 137.799 444.63 138.417 444.828 138.875V139H443.312ZM440.914 137.898C441.367 137.898 441.797 137.781 442.203 137.547C442.609 137.312 442.904 137.008 443.086 136.633V134.898H441.953C440.182 134.898 439.297 135.417 439.297 136.453C439.297 136.906 439.448 137.26 439.75 137.516C440.052 137.771 440.44 137.898 440.914 137.898ZM452.016 138.164C451.453 138.826 450.628 139.156 449.539 139.156C448.638 139.156 447.951 138.896 447.477 138.375C447.008 137.849 446.771 137.073 446.766 136.047V130.547H448.211V136.008C448.211 137.289 448.732 137.93 449.773 137.93C450.878 137.93 451.612 137.518 451.977 136.695V130.547H453.422V139H452.047L452.016 138.164ZM457.586 128.5V130.547H459.164V131.664H457.586V136.906C457.586 137.245 457.656 137.5 457.797 137.672C457.938 137.839 458.177 137.922 458.516 137.922C458.682 137.922 458.911 137.891 459.203 137.828V139C458.823 139.104 458.453 139.156 458.094 139.156C457.448 139.156 456.961 138.961 456.633 138.57C456.305 138.18 456.141 137.625 456.141 136.906V131.664H454.602V130.547H456.141V128.5H457.586ZM462.305 131.57C462.945 130.784 463.779 130.391 464.805 130.391C466.591 130.391 467.492 131.398 467.508 133.414V139H466.062V133.406C466.057 132.797 465.917 132.346 465.641 132.055C465.37 131.763 464.945 131.617 464.367 131.617C463.898 131.617 463.487 131.742 463.133 131.992C462.779 132.242 462.503 132.57 462.305 132.977V139H460.859V127H462.305V131.57ZM469.289 134.695C469.289 133.867 469.451 133.122 469.773 132.461C470.102 131.799 470.555 131.289 471.133 130.93C471.716 130.57 472.38 130.391 473.125 130.391C474.276 130.391 475.206 130.789 475.914 131.586C476.628 132.383 476.984 133.443 476.984 134.766V134.867C476.984 135.69 476.826 136.43 476.508 137.086C476.195 137.737 475.745 138.245 475.156 138.609C474.573 138.974 473.901 139.156 473.141 139.156C471.995 139.156 471.065 138.758 470.352 137.961C469.643 137.164 469.289 136.109 469.289 134.797V134.695ZM470.742 134.867C470.742 135.805 470.958 136.557 471.391 137.125C471.828 137.693 472.411 137.977 473.141 137.977C473.875 137.977 474.458 137.69 474.891 137.117C475.323 136.539 475.539 135.732 475.539 134.695C475.539 133.768 475.318 133.018 474.875 132.445C474.438 131.867 473.854 131.578 473.125 131.578C472.411 131.578 471.836 131.862 471.398 132.43C470.961 132.997 470.742 133.81 470.742 134.867ZM482.883 131.844C482.664 131.807 482.427 131.789 482.172 131.789C481.224 131.789 480.581 132.193 480.242 133V139H478.797V130.547H480.203L480.227 131.523C480.701 130.768 481.372 130.391 482.242 130.391C482.523 130.391 482.737 130.427 482.883 130.5V131.844ZM485.789 139H484.344V130.547H485.789V139ZM484.227 128.305C484.227 128.07 484.297 127.872 484.438 127.711C484.583 127.549 484.797 127.469 485.078 127.469C485.359 127.469 485.573 127.549 485.719 127.711C485.865 127.872 485.938 128.07 485.938 128.305C485.938 128.539 485.865 128.734 485.719 128.891C485.573 129.047 485.359 129.125 485.078 129.125C484.797 129.125 484.583 129.047 484.438 128.891C484.297 128.734 484.227 128.539 484.227 128.305ZM489.469 137.82H494.414V139H487.703V137.938L492.367 131.742H487.773V130.547H494.18V131.57L489.469 137.82ZM499.43 139.156C498.284 139.156 497.352 138.781 496.633 138.031C495.914 137.276 495.555 136.268 495.555 135.008V134.742C495.555 133.904 495.714 133.156 496.031 132.5C496.354 131.839 496.802 131.323 497.375 130.953C497.953 130.578 498.578 130.391 499.25 130.391C500.349 130.391 501.203 130.753 501.812 131.477C502.422 132.201 502.727 133.237 502.727 134.586V135.188H497C497.021 136.021 497.263 136.695 497.727 137.211C498.195 137.721 498.789 137.977 499.508 137.977C500.018 137.977 500.451 137.872 500.805 137.664C501.159 137.456 501.469 137.18 501.734 136.836L502.617 137.523C501.909 138.612 500.846 139.156 499.43 139.156ZM499.25 131.578C498.667 131.578 498.177 131.792 497.781 132.219C497.385 132.641 497.141 133.234 497.047 134H501.281V133.891C501.24 133.156 501.042 132.589 500.688 132.188C500.333 131.781 499.854 131.578 499.25 131.578ZM504.055 134.703C504.055 133.406 504.362 132.365 504.977 131.578C505.591 130.786 506.396 130.391 507.391 130.391C508.38 130.391 509.164 130.729 509.742 131.406V127H511.188V139H509.859L509.789 138.094C509.211 138.802 508.406 139.156 507.375 139.156C506.396 139.156 505.596 138.755 504.977 137.953C504.362 137.151 504.055 136.104 504.055 134.812V134.703ZM505.5 134.867C505.5 135.826 505.698 136.576 506.094 137.117C506.49 137.659 507.036 137.93 507.734 137.93C508.651 137.93 509.32 137.518 509.742 136.695V132.812C509.31 132.016 508.646 131.617 507.75 131.617C507.042 131.617 506.49 131.891 506.094 132.438C505.698 132.984 505.5 133.794 505.5 134.867ZM519.531 140.18H512.375V139H519.531V140.18ZM523.016 135.086L522.109 136.031V139H520.664V127H522.109V134.258L522.883 133.328L525.516 130.547H527.273L523.984 134.078L527.656 139H525.961L523.016 135.086ZM532.117 139.156C530.971 139.156 530.039 138.781 529.32 138.031C528.602 137.276 528.242 136.268 528.242 135.008V134.742C528.242 133.904 528.401 133.156 528.719 132.5C529.042 131.839 529.49 131.323 530.062 130.953C530.641 130.578 531.266 130.391 531.938 130.391C533.036 130.391 533.891 130.753 534.5 131.477C535.109 132.201 535.414 133.237 535.414 134.586V135.188H529.688C529.708 136.021 529.951 136.695 530.414 137.211C530.883 137.721 531.477 137.977 532.195 137.977C532.706 137.977 533.138 137.872 533.492 137.664C533.846 137.456 534.156 137.18 534.422 136.836L535.305 137.523C534.596 138.612 533.534 139.156 532.117 139.156ZM531.938 131.578C531.354 131.578 530.865 131.792 530.469 132.219C530.073 132.641 529.828 133.234 529.734 134H533.969V133.891C533.927 133.156 533.729 132.589 533.375 132.188C533.021 131.781 532.542 131.578 531.938 131.578ZM539.75 136.883L541.719 130.547H543.266L539.867 140.305C539.341 141.711 538.505 142.414 537.359 142.414L537.086 142.391L536.547 142.289V141.117L536.938 141.148C537.427 141.148 537.807 141.049 538.078 140.852C538.354 140.654 538.581 140.292 538.758 139.766L539.078 138.906L536.062 130.547H537.641L539.75 136.883ZM549.484 136.758C549.484 136.367 549.336 136.065 549.039 135.852C548.747 135.633 548.234 135.445 547.5 135.289C546.771 135.133 546.19 134.945 545.758 134.727C545.331 134.508 545.013 134.247 544.805 133.945C544.602 133.643 544.5 133.284 544.5 132.867C544.5 132.174 544.792 131.589 545.375 131.109C545.964 130.63 546.714 130.391 547.625 130.391C548.583 130.391 549.359 130.638 549.953 131.133C550.552 131.628 550.852 132.26 550.852 133.031H549.398C549.398 132.635 549.229 132.294 548.891 132.008C548.557 131.721 548.135 131.578 547.625 131.578C547.099 131.578 546.688 131.693 546.391 131.922C546.094 132.151 545.945 132.451 545.945 132.82C545.945 133.169 546.083 133.432 546.359 133.609C546.635 133.786 547.133 133.956 547.852 134.117C548.576 134.279 549.161 134.471 549.609 134.695C550.057 134.919 550.388 135.19 550.602 135.508C550.82 135.82 550.93 136.203 550.93 136.656C550.93 137.411 550.628 138.018 550.023 138.477C549.419 138.93 548.635 139.156 547.672 139.156C546.995 139.156 546.396 139.036 545.875 138.797C545.354 138.557 544.945 138.224 544.648 137.797C544.357 137.365 544.211 136.898 544.211 136.398H545.656C545.682 136.883 545.875 137.268 546.234 137.555C546.599 137.836 547.078 137.977 547.672 137.977C548.219 137.977 548.656 137.867 548.984 137.648C549.318 137.424 549.484 137.128 549.484 136.758Z" fill="black"/>
<path d="M217.707 150.707C218.098 150.317 218.098 149.683 217.707 149.293L211.343 142.929C210.953 142.538 210.319 142.538 209.929 142.929C209.538 143.319 209.538 143.953 209.929 144.343L215.586 150L209.929 155.657C209.538 156.047 209.538 156.681 209.929 157.071C210.319 157.462 210.953 157.462 211.343 157.071L217.707 150.707ZM127 151H217V149H127V151Z" fill="black"/>
<path d="M137.396 99.2031L141.58 109.645L145.764 99.2031H147.952V112H146.265V107.017L146.423 101.638L142.222 112H140.93L136.737 101.664L136.904 107.017V112H135.217V99.2031H137.396ZM156.548 112C156.454 111.812 156.378 111.479 156.319 110.998C155.563 111.783 154.661 112.176 153.612 112.176C152.675 112.176 151.904 111.912 151.301 111.385C150.703 110.852 150.404 110.178 150.404 109.363C150.404 108.373 150.779 107.605 151.529 107.061C152.285 106.51 153.346 106.234 154.711 106.234H156.293V105.487C156.293 104.919 156.123 104.468 155.783 104.134C155.443 103.794 154.942 103.624 154.28 103.624C153.7 103.624 153.214 103.771 152.821 104.063C152.429 104.356 152.232 104.711 152.232 105.127H150.598C150.598 104.652 150.765 104.195 151.099 103.756C151.438 103.311 151.896 102.959 152.47 102.701C153.05 102.443 153.686 102.314 154.377 102.314C155.473 102.314 156.331 102.59 156.952 103.141C157.573 103.686 157.896 104.438 157.919 105.399V109.776C157.919 110.649 158.03 111.344 158.253 111.859V112H156.548ZM153.85 110.761C154.359 110.761 154.843 110.629 155.3 110.365C155.757 110.102 156.088 109.759 156.293 109.337V107.386H155.019C153.026 107.386 152.03 107.969 152.03 109.135C152.03 109.645 152.2 110.043 152.54 110.33C152.88 110.617 153.316 110.761 153.85 110.761ZM162.234 112H160.608V98.5H162.234V112ZM166.611 112H164.985V102.49H166.611V112ZM164.854 99.9678C164.854 99.7041 164.933 99.4814 165.091 99.2998C165.255 99.1182 165.495 99.0273 165.812 99.0273C166.128 99.0273 166.368 99.1182 166.532 99.2998C166.696 99.4814 166.778 99.7041 166.778 99.9678C166.778 100.231 166.696 100.451 166.532 100.627C166.368 100.803 166.128 100.891 165.812 100.891C165.495 100.891 165.255 100.803 165.091 100.627C164.933 100.451 164.854 100.231 164.854 99.9678ZM173.036 110.849C173.616 110.849 174.123 110.673 174.557 110.321C174.99 109.97 175.23 109.53 175.277 109.003H176.815C176.786 109.548 176.599 110.066 176.253 110.559C175.907 111.051 175.444 111.443 174.864 111.736C174.29 112.029 173.681 112.176 173.036 112.176C171.741 112.176 170.71 111.745 169.942 110.884C169.181 110.017 168.8 108.833 168.8 107.333V107.061C168.8 106.135 168.97 105.312 169.31 104.591C169.649 103.87 170.136 103.311 170.769 102.912C171.407 102.514 172.16 102.314 173.027 102.314C174.094 102.314 174.979 102.634 175.682 103.272C176.391 103.911 176.769 104.74 176.815 105.76H175.277C175.23 105.145 174.996 104.641 174.574 104.248C174.158 103.85 173.643 103.65 173.027 103.65C172.201 103.65 171.56 103.949 171.103 104.547C170.651 105.139 170.426 105.997 170.426 107.122V107.43C170.426 108.525 170.651 109.369 171.103 109.961C171.554 110.553 172.198 110.849 173.036 110.849ZM180.41 112H178.784V102.49H180.41V112ZM178.652 99.9678C178.652 99.7041 178.731 99.4814 178.89 99.2998C179.054 99.1182 179.294 99.0273 179.61 99.0273C179.927 99.0273 180.167 99.1182 180.331 99.2998C180.495 99.4814 180.577 99.7041 180.577 99.9678C180.577 100.231 180.495 100.451 180.331 100.627C180.167 100.803 179.927 100.891 179.61 100.891C179.294 100.891 179.054 100.803 178.89 100.627C178.731 100.451 178.652 100.231 178.652 99.9678ZM182.59 107.157C182.59 106.226 182.771 105.388 183.135 104.644C183.504 103.899 184.014 103.325 184.664 102.921C185.32 102.517 186.067 102.314 186.905 102.314C188.2 102.314 189.246 102.763 190.043 103.659C190.846 104.556 191.247 105.748 191.247 107.236V107.351C191.247 108.276 191.068 109.108 190.711 109.847C190.359 110.579 189.853 111.15 189.19 111.561C188.534 111.971 187.778 112.176 186.923 112.176C185.634 112.176 184.588 111.728 183.785 110.831C182.988 109.935 182.59 108.748 182.59 107.271V107.157ZM184.225 107.351C184.225 108.405 184.468 109.252 184.954 109.891C185.446 110.529 186.103 110.849 186.923 110.849C187.749 110.849 188.405 110.526 188.892 109.882C189.378 109.231 189.621 108.323 189.621 107.157C189.621 106.114 189.372 105.271 188.874 104.626C188.382 103.976 187.726 103.65 186.905 103.65C186.103 103.65 185.455 103.97 184.963 104.608C184.471 105.247 184.225 106.161 184.225 107.351ZM199.157 111.06C198.524 111.804 197.596 112.176 196.371 112.176C195.357 112.176 194.584 111.883 194.051 111.297C193.523 110.705 193.257 109.832 193.251 108.678V102.49H194.877V108.634C194.877 110.075 195.463 110.796 196.635 110.796C197.877 110.796 198.703 110.333 199.113 109.407V102.49H200.739V112H199.192L199.157 111.06ZM208.755 109.478C208.755 109.038 208.588 108.698 208.254 108.458C207.926 108.212 207.349 108.001 206.522 107.825C205.702 107.649 205.049 107.438 204.562 107.192C204.082 106.946 203.725 106.653 203.49 106.313C203.262 105.974 203.147 105.569 203.147 105.101C203.147 104.321 203.476 103.662 204.132 103.123C204.794 102.584 205.638 102.314 206.663 102.314C207.741 102.314 208.614 102.593 209.282 103.149C209.956 103.706 210.293 104.418 210.293 105.285H208.658C208.658 104.84 208.468 104.456 208.087 104.134C207.712 103.812 207.237 103.65 206.663 103.65C206.071 103.65 205.608 103.779 205.274 104.037C204.94 104.295 204.773 104.632 204.773 105.048C204.773 105.44 204.929 105.736 205.239 105.936C205.55 106.135 206.109 106.325 206.918 106.507C207.732 106.688 208.392 106.905 208.896 107.157C209.399 107.409 209.771 107.714 210.012 108.071C210.258 108.423 210.381 108.854 210.381 109.363C210.381 110.213 210.041 110.896 209.361 111.411C208.682 111.921 207.8 112.176 206.716 112.176C205.954 112.176 205.28 112.041 204.694 111.771C204.108 111.502 203.648 111.127 203.314 110.646C202.986 110.16 202.822 109.636 202.822 109.073H204.448C204.478 109.618 204.694 110.052 205.099 110.374C205.509 110.69 206.048 110.849 206.716 110.849C207.331 110.849 207.823 110.726 208.192 110.479C208.567 110.228 208.755 109.894 208.755 109.478ZM166.919 127.349H161.549V133H159.861V120.203H167.789V121.592H161.549V125.969H166.919V127.349ZM171.322 133H169.696V123.49H171.322V133ZM169.564 120.968C169.564 120.704 169.644 120.481 169.802 120.3C169.966 120.118 170.206 120.027 170.522 120.027C170.839 120.027 171.079 120.118 171.243 120.3C171.407 120.481 171.489 120.704 171.489 120.968C171.489 121.231 171.407 121.451 171.243 121.627C171.079 121.803 170.839 121.891 170.522 121.891C170.206 121.891 169.966 121.803 169.802 121.627C169.644 121.451 169.564 121.231 169.564 120.968ZM175.699 133H174.073V119.5H175.699V133ZM182.256 133.176C180.967 133.176 179.918 132.754 179.109 131.91C178.301 131.061 177.896 129.927 177.896 128.509V128.21C177.896 127.267 178.075 126.426 178.433 125.688C178.796 124.943 179.3 124.363 179.944 123.947C180.595 123.525 181.298 123.314 182.054 123.314C183.29 123.314 184.251 123.722 184.937 124.536C185.622 125.351 185.965 126.517 185.965 128.034V128.711H179.522C179.546 129.648 179.818 130.407 180.34 130.987C180.867 131.562 181.535 131.849 182.344 131.849C182.918 131.849 183.404 131.731 183.803 131.497C184.201 131.263 184.55 130.952 184.849 130.565L185.842 131.339C185.045 132.563 183.85 133.176 182.256 133.176ZM182.054 124.65C181.397 124.65 180.847 124.891 180.401 125.371C179.956 125.846 179.681 126.514 179.575 127.375H184.339V127.252C184.292 126.426 184.069 125.787 183.671 125.336C183.272 124.879 182.733 124.65 182.054 124.65Z" fill="black"/>
<path d="M411.707 150.707C412.098 150.317 412.098 149.683 411.707 149.293L405.343 142.929C404.953 142.538 404.319 142.538 403.929 142.929C403.538 143.319 403.538 143.953 403.929 144.343L409.586 150L403.929 155.657C403.538 156.047 403.538 156.681 403.929 157.071C404.319 157.462 404.953 157.462 405.343 157.071L411.707 150.707ZM321 151H411V149H321V151Z" fill="black"/>
<path d="M309.107 42.9717C309.107 42.2842 308.864 41.7542 308.377 41.3818C307.897 41.0094 307.027 40.6335 305.767 40.2539C304.506 39.8743 303.504 39.4518 302.759 38.9863C301.334 38.0911 300.621 36.9238 300.621 35.4844C300.621 34.224 301.133 33.1855 302.157 32.3691C303.188 31.5527 304.524 31.1445 306.164 31.1445C307.253 31.1445 308.223 31.3451 309.075 31.7461C309.927 32.1471 310.597 32.7201 311.084 33.4648C311.571 34.2025 311.814 35.0225 311.814 35.9248H309.107C309.107 35.1084 308.85 34.471 308.334 34.0127C307.826 33.5472 307.095 33.3145 306.143 33.3145C305.255 33.3145 304.563 33.5042 304.069 33.8838C303.582 34.2633 303.339 34.7933 303.339 35.4736C303.339 36.0465 303.604 36.5264 304.134 36.9131C304.664 37.2926 305.537 37.665 306.755 38.0303C307.972 38.3883 308.95 38.8001 309.688 39.2656C310.425 39.724 310.966 40.2539 311.31 40.8555C311.653 41.4499 311.825 42.1481 311.825 42.9502C311.825 44.2536 311.324 45.292 310.321 46.0654C309.326 46.8317 307.972 47.2148 306.261 47.2148C305.129 47.2148 304.087 47.0072 303.135 46.5918C302.189 46.1693 301.452 45.5892 300.922 44.8516C300.399 44.1139 300.138 43.2546 300.138 42.2734H302.855C302.855 43.1615 303.149 43.849 303.736 44.3359C304.324 44.8229 305.165 45.0664 306.261 45.0664C307.206 45.0664 307.915 44.8766 308.388 44.4971C308.868 44.1104 309.107 43.6019 309.107 42.9717ZM319.076 47.2148C317.422 47.2148 316.079 46.6956 315.048 45.6572C314.024 44.6117 313.512 43.2223 313.512 41.4893V41.167C313.512 40.0068 313.734 38.972 314.178 38.0625C314.629 37.1458 315.259 36.4333 316.068 35.9248C316.878 35.4163 317.78 35.1621 318.775 35.1621C320.358 35.1621 321.579 35.667 322.438 36.6768C323.305 37.6865 323.738 39.1152 323.738 40.9629V42.0156H316.144C316.222 42.9753 316.541 43.7344 317.1 44.293C317.665 44.8516 318.374 45.1309 319.227 45.1309C320.423 45.1309 321.396 44.6475 322.148 43.6807L323.556 45.0234C323.09 45.7181 322.467 46.2588 321.687 46.6455C320.913 47.0251 320.043 47.2148 319.076 47.2148ZM318.765 37.2568C318.049 37.2568 317.468 37.5075 317.024 38.0088C316.588 38.5101 316.308 39.2083 316.187 40.1035H321.16V39.9102C321.103 39.0365 320.87 38.3776 320.462 37.9336C320.054 37.4824 319.488 37.2568 318.765 37.2568ZM331.859 37.7617C331.516 37.7044 331.161 37.6758 330.796 37.6758C329.6 37.6758 328.794 38.1341 328.379 39.0508V47H325.769V35.377H328.261L328.325 36.6768C328.955 35.667 329.829 35.1621 330.946 35.1621C331.319 35.1621 331.627 35.2122 331.87 35.3125L331.859 37.7617ZM337.8 43.6914L340.26 35.377H342.956L338.928 47H336.661L332.601 35.377H335.308L337.8 43.6914ZM349.562 47.2148C347.908 47.2148 346.565 46.6956 345.534 45.6572C344.51 44.6117 343.998 43.2223 343.998 41.4893V41.167C343.998 40.0068 344.22 38.972 344.664 38.0625C345.115 37.1458 345.745 36.4333 346.555 35.9248C347.364 35.4163 348.266 35.1621 349.262 35.1621C350.844 35.1621 352.065 35.667 352.925 36.6768C353.791 37.6865 354.225 39.1152 354.225 40.9629V42.0156H346.63C346.709 42.9753 347.027 43.7344 347.586 44.293C348.152 44.8516 348.861 45.1309 349.713 45.1309C350.909 45.1309 351.883 44.6475 352.635 43.6807L354.042 45.0234C353.576 45.7181 352.953 46.2588 352.173 46.6455C351.399 47.0251 350.529 47.2148 349.562 47.2148ZM349.251 37.2568C348.535 37.2568 347.955 37.5075 347.511 38.0088C347.074 38.5101 346.795 39.2083 346.673 40.1035H351.646V39.9102C351.589 39.0365 351.356 38.3776 350.948 37.9336C350.54 37.4824 349.974 37.2568 349.251 37.2568ZM362.346 37.7617C362.002 37.7044 361.647 37.6758 361.282 37.6758C360.086 37.6758 359.281 38.1341 358.865 39.0508V47H356.255V35.377H358.747L358.812 36.6768C359.442 35.667 360.315 35.1621 361.433 35.1621C361.805 35.1621 362.113 35.2122 362.356 35.3125L362.346 37.7617Z" fill="black"/>
</svg>
