<svg width="600" height="400" viewBox="0 0 600 400" fill="none" xmlns="http://www.w3.org/2000/svg">
<rect width="600" height="400" fill="white"/>
<rect x="239.5" y="92.5" width="129" height="69" rx="3.5" fill="white" stroke="black"/>
<path d="M259.227 129.621L259.555 131.871L260.035 129.844L263.41 117.938H265.309L268.602 129.844L269.07 131.906L269.434 129.609L272.082 117.938H274.344L270.207 135H268.156L264.641 122.566L264.371 121.266L264.102 122.566L260.457 135H258.406L254.281 117.938H256.531L259.227 129.621ZM281.398 135.234C279.68 135.234 278.281 134.672 277.203 133.547C276.125 132.414 275.586 130.902 275.586 129.012V128.613C275.586 127.355 275.824 126.234 276.301 125.25C276.785 124.258 277.457 123.484 278.316 122.93C279.184 122.367 280.121 122.086 281.129 122.086C282.777 122.086 284.059 122.629 284.973 123.715C285.887 124.801 286.344 126.355 286.344 128.379V129.281H277.754C277.785 130.531 278.148 131.543 278.844 132.316C279.547 133.082 280.438 133.465 281.516 133.465C282.281 133.465 282.93 133.309 283.461 132.996C283.992 132.684 284.457 132.27 284.855 131.754L286.18 132.785C285.117 134.418 283.523 135.234 281.398 135.234ZM281.129 123.867C280.254 123.867 279.52 124.188 278.926 124.828C278.332 125.461 277.965 126.352 277.824 127.5H284.176V127.336C284.113 126.234 283.816 125.383 283.285 124.781C282.754 124.172 282.035 123.867 281.129 123.867ZM299.598 128.801C299.598 130.738 299.152 132.297 298.262 133.477C297.371 134.648 296.176 135.234 294.676 135.234C293.074 135.234 291.836 134.668 290.961 133.535L290.855 135H288.863V117H291.031V123.715C291.906 122.629 293.113 122.086 294.652 122.086C296.191 122.086 297.398 122.668 298.273 123.832C299.156 124.996 299.598 126.59 299.598 128.613V128.801ZM297.43 128.555C297.43 127.078 297.145 125.938 296.574 125.133C296.004 124.328 295.184 123.926 294.113 123.926C292.684 123.926 291.656 124.59 291.031 125.918V131.402C291.695 132.73 292.73 133.395 294.137 133.395C295.176 133.395 295.984 132.992 296.562 132.188C297.141 131.383 297.43 130.172 297.43 128.555ZM313.051 128.801C313.051 130.73 312.609 132.285 311.727 133.465C310.844 134.645 309.648 135.234 308.141 135.234C306.602 135.234 305.391 134.746 304.508 133.77V139.875H302.34V122.32H304.32L304.426 123.727C305.309 122.633 306.535 122.086 308.105 122.086C309.629 122.086 310.832 122.66 311.715 123.809C312.605 124.957 313.051 126.555 313.051 128.602V128.801ZM310.883 128.555C310.883 127.125 310.578 125.996 309.969 125.168C309.359 124.34 308.523 123.926 307.461 123.926C306.148 123.926 305.164 124.508 304.508 125.672V131.73C305.156 132.887 306.148 133.465 307.484 133.465C308.523 133.465 309.348 133.055 309.957 132.234C310.574 131.406 310.883 130.18 310.883 128.555ZM323.645 135C323.52 134.75 323.418 134.305 323.34 133.664C322.332 134.711 321.129 135.234 319.73 135.234C318.48 135.234 317.453 134.883 316.648 134.18C315.852 133.469 315.453 132.57 315.453 131.484C315.453 130.164 315.953 129.141 316.953 128.414C317.961 127.68 319.375 127.312 321.195 127.312H323.305V126.316C323.305 125.559 323.078 124.957 322.625 124.512C322.172 124.059 321.504 123.832 320.621 123.832C319.848 123.832 319.199 124.027 318.676 124.418C318.152 124.809 317.891 125.281 317.891 125.836H315.711C315.711 125.203 315.934 124.594 316.379 124.008C316.832 123.414 317.441 122.945 318.207 122.602C318.98 122.258 319.828 122.086 320.75 122.086C322.211 122.086 323.355 122.453 324.184 123.188C325.012 123.914 325.441 124.918 325.473 126.199V132.035C325.473 133.199 325.621 134.125 325.918 134.812V135H323.645ZM320.047 133.348C320.727 133.348 321.371 133.172 321.98 132.82C322.59 132.469 323.031 132.012 323.305 131.449V128.848H321.605C318.949 128.848 317.621 129.625 317.621 131.18C317.621 131.859 317.848 132.391 318.301 132.773C318.754 133.156 319.336 133.348 320.047 133.348ZM328.355 128.555C328.355 126.578 328.812 125.008 329.727 123.844C330.641 122.672 331.852 122.086 333.359 122.086C334.906 122.086 336.113 122.633 336.98 123.727L337.086 122.32H339.066V134.695C339.066 136.336 338.578 137.629 337.602 138.574C336.633 139.52 335.328 139.992 333.688 139.992C332.773 139.992 331.879 139.797 331.004 139.406C330.129 139.016 329.461 138.48 329 137.801L330.125 136.5C331.055 137.648 332.191 138.223 333.535 138.223C334.59 138.223 335.41 137.926 335.996 137.332C336.59 136.738 336.887 135.902 336.887 134.824V133.734C336.02 134.734 334.836 135.234 333.336 135.234C331.852 135.234 330.648 134.637 329.727 133.441C328.812 132.246 328.355 130.617 328.355 128.555ZM330.535 128.801C330.535 130.23 330.828 131.355 331.414 132.176C332 132.988 332.82 133.395 333.875 133.395C335.242 133.395 336.246 132.773 336.887 131.531V125.742C336.223 124.531 335.227 123.926 333.898 123.926C332.844 123.926 332.02 124.336 331.426 125.156C330.832 125.977 330.535 127.191 330.535 128.801ZM347.609 135.234C345.891 135.234 344.492 134.672 343.414 133.547C342.336 132.414 341.797 130.902 341.797 129.012V128.613C341.797 127.355 342.035 126.234 342.512 125.25C342.996 124.258 343.668 123.484 344.527 122.93C345.395 122.367 346.332 122.086 347.34 122.086C348.988 122.086 350.27 122.629 351.184 123.715C352.098 124.801 352.555 126.355 352.555 128.379V129.281H343.965C343.996 130.531 344.359 131.543 345.055 132.316C345.758 133.082 346.648 133.465 347.727 133.465C348.492 133.465 349.141 133.309 349.672 132.996C350.203 132.684 350.668 132.27 351.066 131.754L352.391 132.785C351.328 134.418 349.734 135.234 347.609 135.234ZM347.34 123.867C346.465 123.867 345.73 124.188 345.137 124.828C344.543 125.461 344.176 126.352 344.035 127.5H350.387V127.336C350.324 126.234 350.027 125.383 349.496 124.781C348.965 124.172 348.246 123.867 347.34 123.867Z" fill="black"/>
<path d="M273.422 49.0117L278.297 34.9375H280.758L274.43 52H272.438L266.121 34.9375H268.57L273.422 49.0117ZM285.07 52H282.902V39.3203H285.07V52ZM282.727 35.957C282.727 35.6055 282.832 35.3086 283.043 35.0664C283.262 34.8242 283.582 34.7031 284.004 34.7031C284.426 34.7031 284.746 34.8242 284.965 35.0664C285.184 35.3086 285.293 35.6055 285.293 35.957C285.293 36.3086 285.184 36.6016 284.965 36.8359C284.746 37.0703 284.426 37.1875 284.004 37.1875C283.582 37.1875 283.262 37.0703 283.043 36.8359C282.832 36.6016 282.727 36.3086 282.727 35.957ZM293.637 50.4648C294.41 50.4648 295.086 50.2305 295.664 49.7617C296.242 49.293 296.562 48.707 296.625 48.0039H298.676C298.637 48.7305 298.387 49.4219 297.926 50.0781C297.465 50.7344 296.848 51.2578 296.074 51.6484C295.309 52.0391 294.496 52.2344 293.637 52.2344C291.91 52.2344 290.535 51.6602 289.512 50.5117C288.496 49.3555 287.988 47.7773 287.988 45.7773V45.4141C287.988 44.1797 288.215 43.082 288.668 42.1211C289.121 41.1602 289.77 40.4141 290.613 39.8828C291.465 39.3516 292.469 39.0859 293.625 39.0859C295.047 39.0859 296.227 39.5117 297.164 40.3633C298.109 41.2148 298.613 42.3203 298.676 43.6797H296.625C296.562 42.8594 296.25 42.1875 295.688 41.6641C295.133 41.1328 294.445 40.8672 293.625 40.8672C292.523 40.8672 291.668 41.2656 291.059 42.0625C290.457 42.8516 290.156 43.9961 290.156 45.4961V45.9062C290.156 47.3672 290.457 48.4922 291.059 49.2812C291.66 50.0703 292.52 50.4648 293.637 50.4648ZM304.055 36.25V39.3203H306.422V40.9961H304.055V48.8594C304.055 49.3672 304.16 49.75 304.371 50.0078C304.582 50.2578 304.941 50.3828 305.449 50.3828C305.699 50.3828 306.043 50.3359 306.48 50.2422V52C305.91 52.1562 305.355 52.2344 304.816 52.2344C303.848 52.2344 303.117 51.9414 302.625 51.3555C302.133 50.7695 301.887 49.9375 301.887 48.8594V40.9961H299.578V39.3203H301.887V36.25H304.055ZM311.32 52H309.152V39.3203H311.32V52ZM308.977 35.957C308.977 35.6055 309.082 35.3086 309.293 35.0664C309.512 34.8242 309.832 34.7031 310.254 34.7031C310.676 34.7031 310.996 34.8242 311.215 35.0664C311.434 35.3086 311.543 35.6055 311.543 35.957C311.543 36.3086 311.434 36.6016 311.215 36.8359C310.996 37.0703 310.676 37.1875 310.254 37.1875C309.832 37.1875 309.512 37.0703 309.293 36.8359C309.082 36.6016 308.977 36.3086 308.977 35.957ZM316.84 39.3203L316.898 40.7266C317.828 39.6328 319.082 39.0859 320.66 39.0859C322.434 39.0859 323.641 39.7656 324.281 41.125C324.703 40.5156 325.25 40.0234 325.922 39.6484C326.602 39.2734 327.402 39.0859 328.324 39.0859C331.105 39.0859 332.52 40.5586 332.566 43.5039V52H330.398V43.6328C330.398 42.7266 330.191 42.0508 329.777 41.6055C329.363 41.1523 328.668 40.9258 327.691 40.9258C326.887 40.9258 326.219 41.168 325.688 41.6523C325.156 42.1289 324.848 42.7734 324.762 43.5859V52H322.582V43.6914C322.582 41.8477 321.68 40.9258 319.875 40.9258C318.453 40.9258 317.48 41.5312 316.957 42.7422V52H314.789V39.3203H316.84Z" fill="black"/>
<path d="M303.293 92.7232C303.683 93.1138 304.317 93.1138 304.707 92.7232L311.071 86.3593C311.462 85.9687 311.462 85.3356 311.071 84.9451C310.681 84.5545 310.047 84.5545 309.657 84.9451L304 90.6019L298.343 84.9451C297.953 84.5545 297.319 84.5545 296.929 84.9451C296.538 85.3356 296.538 85.9687 296.929 86.3593L303.293 92.7232ZM303 61V92.0161H305V61H303Z" fill="black"/>
<rect x="239.5" y="193.5" width="129" height="69" rx="3.5" fill="white" stroke="black"/>
<path d="M248.797 230.621L249.125 232.871L249.605 230.844L252.98 218.938H254.879L258.172 230.844L258.641 232.906L259.004 230.609L261.652 218.938H263.914L259.777 236H257.727L254.211 223.566L253.941 222.266L253.672 223.566L250.027 236H247.977L243.852 218.938H246.102L248.797 230.621ZM270.969 236.234C269.25 236.234 267.852 235.672 266.773 234.547C265.695 233.414 265.156 231.902 265.156 230.012V229.613C265.156 228.355 265.395 227.234 265.871 226.25C266.355 225.258 267.027 224.484 267.887 223.93C268.754 223.367 269.691 223.086 270.699 223.086C272.348 223.086 273.629 223.629 274.543 224.715C275.457 225.801 275.914 227.355 275.914 229.379V230.281H267.324C267.355 231.531 267.719 232.543 268.414 233.316C269.117 234.082 270.008 234.465 271.086 234.465C271.852 234.465 272.5 234.309 273.031 233.996C273.562 233.684 274.027 233.27 274.426 232.754L275.75 233.785C274.688 235.418 273.094 236.234 270.969 236.234ZM270.699 224.867C269.824 224.867 269.09 225.188 268.496 225.828C267.902 226.461 267.535 227.352 267.395 228.5H273.746V228.336C273.684 227.234 273.387 226.383 272.855 225.781C272.324 225.172 271.605 224.867 270.699 224.867ZM289.168 229.801C289.168 231.738 288.723 233.297 287.832 234.477C286.941 235.648 285.746 236.234 284.246 236.234C282.645 236.234 281.406 235.668 280.531 234.535L280.426 236H278.434V218H280.602V224.715C281.477 223.629 282.684 223.086 284.223 223.086C285.762 223.086 286.969 223.668 287.844 224.832C288.727 225.996 289.168 227.59 289.168 229.613V229.801ZM287 229.555C287 228.078 286.715 226.938 286.145 226.133C285.574 225.328 284.754 224.926 283.684 224.926C282.254 224.926 281.227 225.59 280.602 226.918V232.402C281.266 233.73 282.301 234.395 283.707 234.395C284.746 234.395 285.555 233.992 286.133 233.188C286.711 232.383 287 231.172 287 229.555ZM303.23 228.395C301.301 227.84 299.895 227.16 299.012 226.355C298.137 225.543 297.699 224.543 297.699 223.355C297.699 222.012 298.234 220.902 299.305 220.027C300.383 219.145 301.781 218.703 303.5 218.703C304.672 218.703 305.715 218.93 306.629 219.383C307.551 219.836 308.262 220.461 308.762 221.258C309.27 222.055 309.523 222.926 309.523 223.871H307.262C307.262 222.84 306.934 222.031 306.277 221.445C305.621 220.852 304.695 220.555 303.5 220.555C302.391 220.555 301.523 220.801 300.898 221.293C300.281 221.777 299.973 222.453 299.973 223.32C299.973 224.016 300.266 224.605 300.852 225.09C301.445 225.566 302.449 226.004 303.863 226.402C305.285 226.801 306.395 227.242 307.191 227.727C307.996 228.203 308.59 228.762 308.973 229.402C309.363 230.043 309.559 230.797 309.559 231.664C309.559 233.047 309.02 234.156 307.941 234.992C306.863 235.82 305.422 236.234 303.617 236.234C302.445 236.234 301.352 236.012 300.336 235.566C299.32 235.113 298.535 234.496 297.98 233.715C297.434 232.934 297.16 232.047 297.16 231.055H299.422C299.422 232.086 299.801 232.902 300.559 233.504C301.324 234.098 302.344 234.395 303.617 234.395C304.805 234.395 305.715 234.152 306.348 233.668C306.98 233.184 307.297 232.523 307.297 231.688C307.297 230.852 307.004 230.207 306.418 229.754C305.832 229.293 304.77 228.84 303.23 228.395ZM317.375 236.234C315.656 236.234 314.258 235.672 313.18 234.547C312.102 233.414 311.562 231.902 311.562 230.012V229.613C311.562 228.355 311.801 227.234 312.277 226.25C312.762 225.258 313.434 224.484 314.293 223.93C315.16 223.367 316.098 223.086 317.105 223.086C318.754 223.086 320.035 223.629 320.949 224.715C321.863 225.801 322.32 227.355 322.32 229.379V230.281H313.73C313.762 231.531 314.125 232.543 314.82 233.316C315.523 234.082 316.414 234.465 317.492 234.465C318.258 234.465 318.906 234.309 319.438 233.996C319.969 233.684 320.434 233.27 320.832 232.754L322.156 233.785C321.094 235.418 319.5 236.234 317.375 236.234ZM317.105 224.867C316.23 224.867 315.496 225.188 314.902 225.828C314.309 226.461 313.941 227.352 313.801 228.5H320.152V228.336C320.09 227.234 319.793 226.383 319.262 225.781C318.73 225.172 318.012 224.867 317.105 224.867ZM330.969 225.266C330.641 225.211 330.285 225.184 329.902 225.184C328.48 225.184 327.516 225.789 327.008 227V236H324.84V223.32H326.949L326.984 224.785C327.695 223.652 328.703 223.086 330.008 223.086C330.43 223.086 330.75 223.141 330.969 223.25V225.266ZM337.367 233.059L340.508 223.32H342.723L338.176 236H336.523L331.93 223.32H334.145L337.367 233.059ZM349.906 236.234C348.188 236.234 346.789 235.672 345.711 234.547C344.633 233.414 344.094 231.902 344.094 230.012V229.613C344.094 228.355 344.332 227.234 344.809 226.25C345.293 225.258 345.965 224.484 346.824 223.93C347.691 223.367 348.629 223.086 349.637 223.086C351.285 223.086 352.566 223.629 353.48 224.715C354.395 225.801 354.852 227.355 354.852 229.379V230.281H346.262C346.293 231.531 346.656 232.543 347.352 233.316C348.055 234.082 348.945 234.465 350.023 234.465C350.789 234.465 351.438 234.309 351.969 233.996C352.5 233.684 352.965 233.27 353.363 232.754L354.688 233.785C353.625 235.418 352.031 236.234 349.906 236.234ZM349.637 224.867C348.762 224.867 348.027 225.188 347.434 225.828C346.84 226.461 346.473 227.352 346.332 228.5H352.684V228.336C352.621 227.234 352.324 226.383 351.793 225.781C351.262 225.172 350.543 224.867 349.637 224.867ZM363.5 225.266C363.172 225.211 362.816 225.184 362.434 225.184C361.012 225.184 360.047 225.789 359.539 227V236H357.371V223.32H359.48L359.516 224.785C360.227 223.652 361.234 223.086 362.539 223.086C362.961 223.086 363.281 223.141 363.5 223.25V225.266Z" fill="black"/>
<path d="M303.293 193.723C303.683 194.114 304.317 194.114 304.707 193.723L311.071 187.359C311.462 186.969 311.462 186.336 311.071 185.945C310.681 185.555 310.047 185.555 309.657 185.945L304 191.602L298.343 185.945C297.953 185.555 297.319 185.555 296.929 185.945C296.538 186.336 296.538 186.969 296.929 187.359L303.293 193.723ZM303 162V193.016H305V162H303Z" fill="black"/>
<rect x="239.5" y="294.5" width="129" height="69" rx="3.5" fill="white" stroke="black"/>
<path d="M254.809 337V319.938H259.625C261.109 319.938 262.422 320.266 263.562 320.922C264.703 321.578 265.582 322.512 266.199 323.723C266.824 324.934 267.141 326.324 267.148 327.895V328.984C267.148 330.594 266.836 332.004 266.211 333.215C265.594 334.426 264.707 335.355 263.551 336.004C262.402 336.652 261.062 336.984 259.531 337H254.809ZM257.059 321.789V335.16H259.426C261.16 335.16 262.508 334.621 263.469 333.543C264.438 332.465 264.922 330.93 264.922 328.938V327.941C264.922 326.004 264.465 324.5 263.551 323.43C262.645 322.352 261.355 321.805 259.684 321.789H257.059ZM278.047 337C277.922 336.75 277.82 336.305 277.742 335.664C276.734 336.711 275.531 337.234 274.133 337.234C272.883 337.234 271.855 336.883 271.051 336.18C270.254 335.469 269.855 334.57 269.855 333.484C269.855 332.164 270.355 331.141 271.355 330.414C272.363 329.68 273.777 329.312 275.598 329.312H277.707V328.316C277.707 327.559 277.48 326.957 277.027 326.512C276.574 326.059 275.906 325.832 275.023 325.832C274.25 325.832 273.602 326.027 273.078 326.418C272.555 326.809 272.293 327.281 272.293 327.836H270.113C270.113 327.203 270.336 326.594 270.781 326.008C271.234 325.414 271.844 324.945 272.609 324.602C273.383 324.258 274.23 324.086 275.152 324.086C276.613 324.086 277.758 324.453 278.586 325.188C279.414 325.914 279.844 326.918 279.875 328.199V334.035C279.875 335.199 280.023 336.125 280.32 336.812V337H278.047ZM274.449 335.348C275.129 335.348 275.773 335.172 276.383 334.82C276.992 334.469 277.434 334.012 277.707 333.449V330.848H276.008C273.352 330.848 272.023 331.625 272.023 333.18C272.023 333.859 272.25 334.391 272.703 334.773C273.156 335.156 273.738 335.348 274.449 335.348ZM286.215 321.25V324.32H288.582V325.996H286.215V333.859C286.215 334.367 286.32 334.75 286.531 335.008C286.742 335.258 287.102 335.383 287.609 335.383C287.859 335.383 288.203 335.336 288.641 335.242V337C288.07 337.156 287.516 337.234 286.977 337.234C286.008 337.234 285.277 336.941 284.785 336.355C284.293 335.77 284.047 334.938 284.047 333.859V325.996H281.738V324.32H284.047V321.25H286.215ZM298.953 337C298.828 336.75 298.727 336.305 298.648 335.664C297.641 336.711 296.438 337.234 295.039 337.234C293.789 337.234 292.762 336.883 291.957 336.18C291.16 335.469 290.762 334.57 290.762 333.484C290.762 332.164 291.262 331.141 292.262 330.414C293.27 329.68 294.684 329.312 296.504 329.312H298.613V328.316C298.613 327.559 298.387 326.957 297.934 326.512C297.48 326.059 296.812 325.832 295.93 325.832C295.156 325.832 294.508 326.027 293.984 326.418C293.461 326.809 293.199 327.281 293.199 327.836H291.02C291.02 327.203 291.242 326.594 291.688 326.008C292.141 325.414 292.75 324.945 293.516 324.602C294.289 324.258 295.137 324.086 296.059 324.086C297.52 324.086 298.664 324.453 299.492 325.188C300.32 325.914 300.75 326.918 300.781 328.199V334.035C300.781 335.199 300.93 336.125 301.227 336.812V337H298.953ZM295.355 335.348C296.035 335.348 296.68 335.172 297.289 334.82C297.898 334.469 298.34 334.012 298.613 333.449V330.848H296.914C294.258 330.848 292.93 331.625 292.93 333.18C292.93 333.859 293.156 334.391 293.609 334.773C294.062 335.156 294.645 335.348 295.355 335.348ZM314.914 330.801C314.914 332.738 314.469 334.297 313.578 335.477C312.688 336.648 311.492 337.234 309.992 337.234C308.391 337.234 307.152 336.668 306.277 335.535L306.172 337H304.18V319H306.348V325.715C307.223 324.629 308.43 324.086 309.969 324.086C311.508 324.086 312.715 324.668 313.59 325.832C314.473 326.996 314.914 328.59 314.914 330.613V330.801ZM312.746 330.555C312.746 329.078 312.461 327.938 311.891 327.133C311.32 326.328 310.5 325.926 309.43 325.926C308 325.926 306.973 326.59 306.348 327.918V333.402C307.012 334.73 308.047 335.395 309.453 335.395C310.492 335.395 311.301 334.992 311.879 334.188C312.457 333.383 312.746 332.172 312.746 330.555ZM325.484 337C325.359 336.75 325.258 336.305 325.18 335.664C324.172 336.711 322.969 337.234 321.57 337.234C320.32 337.234 319.293 336.883 318.488 336.18C317.691 335.469 317.293 334.57 317.293 333.484C317.293 332.164 317.793 331.141 318.793 330.414C319.801 329.68 321.215 329.312 323.035 329.312H325.145V328.316C325.145 327.559 324.918 326.957 324.465 326.512C324.012 326.059 323.344 325.832 322.461 325.832C321.688 325.832 321.039 326.027 320.516 326.418C319.992 326.809 319.73 327.281 319.73 327.836H317.551C317.551 327.203 317.773 326.594 318.219 326.008C318.672 325.414 319.281 324.945 320.047 324.602C320.82 324.258 321.668 324.086 322.59 324.086C324.051 324.086 325.195 324.453 326.023 325.188C326.852 325.914 327.281 326.918 327.312 328.199V334.035C327.312 335.199 327.461 336.125 327.758 336.812V337H325.484ZM321.887 335.348C322.566 335.348 323.211 335.172 323.82 334.82C324.43 334.469 324.871 334.012 325.145 333.449V330.848H323.445C320.789 330.848 319.461 331.625 319.461 333.18C319.461 333.859 319.688 334.391 320.141 334.773C320.594 335.156 321.176 335.348 321.887 335.348ZM338.094 333.637C338.094 333.051 337.871 332.598 337.426 332.277C336.988 331.949 336.219 331.668 335.117 331.434C334.023 331.199 333.152 330.918 332.504 330.59C331.863 330.262 331.387 329.871 331.074 329.418C330.77 328.965 330.617 328.426 330.617 327.801C330.617 326.762 331.055 325.883 331.93 325.164C332.812 324.445 333.938 324.086 335.305 324.086C336.742 324.086 337.906 324.457 338.797 325.199C339.695 325.941 340.145 326.891 340.145 328.047H337.965C337.965 327.453 337.711 326.941 337.203 326.512C336.703 326.082 336.07 325.867 335.305 325.867C334.516 325.867 333.898 326.039 333.453 326.383C333.008 326.727 332.785 327.176 332.785 327.73C332.785 328.254 332.992 328.648 333.406 328.914C333.82 329.18 334.566 329.434 335.645 329.676C336.73 329.918 337.609 330.207 338.281 330.543C338.953 330.879 339.449 331.285 339.77 331.762C340.098 332.23 340.262 332.805 340.262 333.484C340.262 334.617 339.809 335.527 338.902 336.215C337.996 336.895 336.82 337.234 335.375 337.234C334.359 337.234 333.461 337.055 332.68 336.695C331.898 336.336 331.285 335.836 330.84 335.195C330.402 334.547 330.184 333.848 330.184 333.098H332.352C332.391 333.824 332.68 334.402 333.219 334.832C333.766 335.254 334.484 335.465 335.375 335.465C336.195 335.465 336.852 335.301 337.344 334.973C337.844 334.637 338.094 334.191 338.094 333.637ZM348.348 337.234C346.629 337.234 345.23 336.672 344.152 335.547C343.074 334.414 342.535 332.902 342.535 331.012V330.613C342.535 329.355 342.773 328.234 343.25 327.25C343.734 326.258 344.406 325.484 345.266 324.93C346.133 324.367 347.07 324.086 348.078 324.086C349.727 324.086 351.008 324.629 351.922 325.715C352.836 326.801 353.293 328.355 353.293 330.379V331.281H344.703C344.734 332.531 345.098 333.543 345.793 334.316C346.496 335.082 347.387 335.465 348.465 335.465C349.23 335.465 349.879 335.309 350.41 334.996C350.941 334.684 351.406 334.27 351.805 333.754L353.129 334.785C352.066 336.418 350.473 337.234 348.348 337.234ZM348.078 325.867C347.203 325.867 346.469 326.188 345.875 326.828C345.281 327.461 344.914 328.352 344.773 329.5H351.125V329.336C351.062 328.234 350.766 327.383 350.234 326.781C349.703 326.172 348.984 325.867 348.078 325.867Z" fill="black"/>
<path d="M303.293 294.723C303.683 295.114 304.317 295.114 304.707 294.723L311.071 288.359C311.462 287.969 311.462 287.336 311.071 286.945C310.681 286.555 310.047 286.555 309.657 286.945L304 292.602L298.343 286.945C297.953 286.555 297.319 286.555 296.929 286.945C296.538 287.336 296.538 287.969 296.929 288.359L303.293 294.723ZM303 263V294.016H305V263H303Z" fill="black"/>
</svg>
