<svg width="600" height="300" viewBox="0 0 600 300" fill="none" xmlns="http://www.w3.org/2000/svg">
<g clip-path="url(#clip0_701:25)">
<rect width="600" height="300" fill="white"/>
<line x1="427" y1="20.0038" x2="426.004" y2="280.002" stroke="black" stroke-width="2"/>
<rect x="105.5" y="110.5" width="79" height="79" rx="3.5" fill="white" stroke="black"/>
<path d="M128.969 153.586C128.758 155.391 128.09 156.785 126.965 157.77C125.848 158.746 124.359 159.234 122.5 159.234C120.484 159.234 118.867 158.512 117.648 157.066C116.438 155.621 115.832 153.688 115.832 151.266V149.625C115.832 148.039 116.113 146.645 116.676 145.441C117.246 144.238 118.051 143.316 119.09 142.676C120.129 142.027 121.332 141.703 122.699 141.703C124.512 141.703 125.965 142.211 127.059 143.227C128.152 144.234 128.789 145.633 128.969 147.422H126.707C126.512 146.062 126.086 145.078 125.43 144.469C124.781 143.859 123.871 143.555 122.699 143.555C121.262 143.555 120.133 144.086 119.312 145.148C118.5 146.211 118.094 147.723 118.094 149.684V151.336C118.094 153.188 118.48 154.66 119.254 155.754C120.027 156.848 121.109 157.395 122.5 157.395C123.75 157.395 124.707 157.113 125.371 156.551C126.043 155.98 126.488 154.992 126.707 153.586H128.969ZM134.066 159H131.898V141H134.066V159ZM139.902 159H137.734V146.32H139.902V159ZM137.559 142.957C137.559 142.605 137.664 142.309 137.875 142.066C138.094 141.824 138.414 141.703 138.836 141.703C139.258 141.703 139.578 141.824 139.797 142.066C140.016 142.309 140.125 142.605 140.125 142.957C140.125 143.309 140.016 143.602 139.797 143.836C139.578 144.07 139.258 144.188 138.836 144.188C138.414 144.188 138.094 144.07 137.875 143.836C137.664 143.602 137.559 143.309 137.559 142.957ZM148.645 159.234C146.926 159.234 145.527 158.672 144.449 157.547C143.371 156.414 142.832 154.902 142.832 153.012V152.613C142.832 151.355 143.07 150.234 143.547 149.25C144.031 148.258 144.703 147.484 145.562 146.93C146.43 146.367 147.367 146.086 148.375 146.086C150.023 146.086 151.305 146.629 152.219 147.715C153.133 148.801 153.59 150.355 153.59 152.379V153.281H145C145.031 154.531 145.395 155.543 146.09 156.316C146.793 157.082 147.684 157.465 148.762 157.465C149.527 157.465 150.176 157.309 150.707 156.996C151.238 156.684 151.703 156.27 152.102 155.754L153.426 156.785C152.363 158.418 150.77 159.234 148.645 159.234ZM148.375 147.867C147.5 147.867 146.766 148.188 146.172 148.828C145.578 149.461 145.211 150.352 145.07 151.5H151.422V151.336C151.359 150.234 151.062 149.383 150.531 148.781C150 148.172 149.281 147.867 148.375 147.867ZM158.16 146.32L158.23 147.914C159.199 146.695 160.465 146.086 162.027 146.086C164.707 146.086 166.059 147.598 166.082 150.621V159H163.914V150.609C163.906 149.695 163.695 149.02 163.281 148.582C162.875 148.145 162.238 147.926 161.371 147.926C160.668 147.926 160.051 148.113 159.52 148.488C158.988 148.863 158.574 149.355 158.277 149.965V159H156.109V146.32H158.16ZM172.293 143.25V146.32H174.66V147.996H172.293V155.859C172.293 156.367 172.398 156.75 172.609 157.008C172.82 157.258 173.18 157.383 173.688 157.383C173.938 157.383 174.281 157.336 174.719 157.242V159C174.148 159.156 173.594 159.234 173.055 159.234C172.086 159.234 171.355 158.941 170.863 158.355C170.371 157.77 170.125 156.938 170.125 155.859V147.996H167.816V146.32H170.125V143.25H172.293Z" fill="black"/>
<rect x="261.5" y="111.5" width="79" height="79" rx="3.5" fill="white" stroke="black"/>
<rect x="261.5" y="111.5" width="79" height="79" rx="3.5" fill="white" stroke="black"/>
<path d="M280.926 155.547H273.777L272.172 160H269.852L276.367 142.938H278.336L284.863 160H282.555L280.926 155.547ZM274.457 153.695H280.258L277.352 145.715L274.457 153.695ZM286.305 153.555C286.305 151.578 286.762 150.008 287.676 148.844C288.59 147.672 289.801 147.086 291.309 147.086C292.855 147.086 294.062 147.633 294.93 148.727L295.035 147.32H297.016V159.695C297.016 161.336 296.527 162.629 295.551 163.574C294.582 164.52 293.277 164.992 291.637 164.992C290.723 164.992 289.828 164.797 288.953 164.406C288.078 164.016 287.41 163.48 286.949 162.801L288.074 161.5C289.004 162.648 290.141 163.223 291.484 163.223C292.539 163.223 293.359 162.926 293.945 162.332C294.539 161.738 294.836 160.902 294.836 159.824V158.734C293.969 159.734 292.785 160.234 291.285 160.234C289.801 160.234 288.598 159.637 287.676 158.441C286.762 157.246 286.305 155.617 286.305 153.555ZM288.484 153.801C288.484 155.23 288.777 156.355 289.363 157.176C289.949 157.988 290.77 158.395 291.824 158.395C293.191 158.395 294.195 157.773 294.836 156.531V150.742C294.172 149.531 293.176 148.926 291.848 148.926C290.793 148.926 289.969 149.336 289.375 150.156C288.781 150.977 288.484 152.191 288.484 153.801ZM305.559 160.234C303.84 160.234 302.441 159.672 301.363 158.547C300.285 157.414 299.746 155.902 299.746 154.012V153.613C299.746 152.355 299.984 151.234 300.461 150.25C300.945 149.258 301.617 148.484 302.477 147.93C303.344 147.367 304.281 147.086 305.289 147.086C306.938 147.086 308.219 147.629 309.133 148.715C310.047 149.801 310.504 151.355 310.504 153.379V154.281H301.914C301.945 155.531 302.309 156.543 303.004 157.316C303.707 158.082 304.598 158.465 305.676 158.465C306.441 158.465 307.09 158.309 307.621 157.996C308.152 157.684 308.617 157.27 309.016 156.754L310.34 157.785C309.277 159.418 307.684 160.234 305.559 160.234ZM305.289 148.867C304.414 148.867 303.68 149.188 303.086 149.828C302.492 150.461 302.125 151.352 301.984 152.5H308.336V152.336C308.273 151.234 307.977 150.383 307.445 149.781C306.914 149.172 306.195 148.867 305.289 148.867ZM315.074 147.32L315.145 148.914C316.113 147.695 317.379 147.086 318.941 147.086C321.621 147.086 322.973 148.598 322.996 151.621V160H320.828V151.609C320.82 150.695 320.609 150.02 320.195 149.582C319.789 149.145 319.152 148.926 318.285 148.926C317.582 148.926 316.965 149.113 316.434 149.488C315.902 149.863 315.488 150.355 315.191 150.965V160H313.023V147.32H315.074ZM329.207 144.25V147.32H331.574V148.996H329.207V156.859C329.207 157.367 329.312 157.75 329.523 158.008C329.734 158.258 330.094 158.383 330.602 158.383C330.852 158.383 331.195 158.336 331.633 158.242V160C331.062 160.156 330.508 160.234 329.969 160.234C329 160.234 328.27 159.941 327.777 159.355C327.285 158.77 327.039 157.938 327.039 156.859V148.996H324.73V147.32H327.039V144.25H329.207Z" fill="black"/>
<rect x="516.5" y="110.5" width="79" height="79" rx="3.5" fill="white" stroke="black"/>
<rect x="516.5" y="110.5" width="79" height="79" rx="3.5" fill="white" stroke="black"/>
<path d="M535.926 154.547H528.777L527.172 159H524.852L531.367 141.938H533.336L539.863 159H537.555L535.926 154.547ZM529.457 152.695H535.258L532.352 144.715L529.457 152.695ZM541.305 152.555C541.305 150.578 541.762 149.008 542.676 147.844C543.59 146.672 544.801 146.086 546.309 146.086C547.855 146.086 549.062 146.633 549.93 147.727L550.035 146.32H552.016V158.695C552.016 160.336 551.527 161.629 550.551 162.574C549.582 163.52 548.277 163.992 546.637 163.992C545.723 163.992 544.828 163.797 543.953 163.406C543.078 163.016 542.41 162.48 541.949 161.801L543.074 160.5C544.004 161.648 545.141 162.223 546.484 162.223C547.539 162.223 548.359 161.926 548.945 161.332C549.539 160.738 549.836 159.902 549.836 158.824V157.734C548.969 158.734 547.785 159.234 546.285 159.234C544.801 159.234 543.598 158.637 542.676 157.441C541.762 156.246 541.305 154.617 541.305 152.555ZM543.484 152.801C543.484 154.23 543.777 155.355 544.363 156.176C544.949 156.988 545.77 157.395 546.824 157.395C548.191 157.395 549.195 156.773 549.836 155.531V149.742C549.172 148.531 548.176 147.926 546.848 147.926C545.793 147.926 544.969 148.336 544.375 149.156C543.781 149.977 543.484 151.191 543.484 152.801ZM560.559 159.234C558.84 159.234 557.441 158.672 556.363 157.547C555.285 156.414 554.746 154.902 554.746 153.012V152.613C554.746 151.355 554.984 150.234 555.461 149.25C555.945 148.258 556.617 147.484 557.477 146.93C558.344 146.367 559.281 146.086 560.289 146.086C561.938 146.086 563.219 146.629 564.133 147.715C565.047 148.801 565.504 150.355 565.504 152.379V153.281H556.914C556.945 154.531 557.309 155.543 558.004 156.316C558.707 157.082 559.598 157.465 560.676 157.465C561.441 157.465 562.09 157.309 562.621 156.996C563.152 156.684 563.617 156.27 564.016 155.754L565.34 156.785C564.277 158.418 562.684 159.234 560.559 159.234ZM560.289 147.867C559.414 147.867 558.68 148.188 558.086 148.828C557.492 149.461 557.125 150.352 556.984 151.5H563.336V151.336C563.273 150.234 562.977 149.383 562.445 148.781C561.914 148.172 561.195 147.867 560.289 147.867ZM570.074 146.32L570.145 147.914C571.113 146.695 572.379 146.086 573.941 146.086C576.621 146.086 577.973 147.598 577.996 150.621V159H575.828V150.609C575.82 149.695 575.609 149.02 575.195 148.582C574.789 148.145 574.152 147.926 573.285 147.926C572.582 147.926 571.965 148.113 571.434 148.488C570.902 148.863 570.488 149.355 570.191 149.965V159H568.023V146.32H570.074ZM584.207 143.25V146.32H586.574V147.996H584.207V155.859C584.207 156.367 584.312 156.75 584.523 157.008C584.734 157.258 585.094 157.383 585.602 157.383C585.852 157.383 586.195 157.336 586.633 157.242V159C586.062 159.156 585.508 159.234 584.969 159.234C584 159.234 583.27 158.941 582.777 158.355C582.285 157.77 582.039 156.938 582.039 155.859V147.996H579.73V146.32H582.039V143.25H584.207Z" fill="black"/>
<rect x="376.5" y="110.5" width="79" height="79" rx="3.5" fill="white" stroke="black"/>
<rect x="376.5" y="110.5" width="99" height="79" rx="3.5" fill="white" stroke="black"/>
<path d="M394.43 136.113H387.035V142.16H395.625V144H384.785V126.938H395.508V128.789H387.035V134.273H394.43V136.113ZM402.34 135.949L405.152 131.32H407.684L403.535 137.59L407.812 144H405.305L402.375 139.254L399.445 144H396.926L401.203 137.59L397.055 131.32H399.562L402.34 135.949ZM412.934 128.25V131.32H415.301V132.996H412.934V140.859C412.934 141.367 413.039 141.75 413.25 142.008C413.461 142.258 413.82 142.383 414.328 142.383C414.578 142.383 414.922 142.336 415.359 142.242V144C414.789 144.156 414.234 144.234 413.695 144.234C412.727 144.234 411.996 143.941 411.504 143.355C411.012 142.77 410.766 141.938 410.766 140.859V132.996H408.457V131.32H410.766V128.25H412.934ZM423.105 144.234C421.387 144.234 419.988 143.672 418.91 142.547C417.832 141.414 417.293 139.902 417.293 138.012V137.613C417.293 136.355 417.531 135.234 418.008 134.25C418.492 133.258 419.164 132.484 420.023 131.93C420.891 131.367 421.828 131.086 422.836 131.086C424.484 131.086 425.766 131.629 426.68 132.715C427.594 133.801 428.051 135.355 428.051 137.379V138.281H419.461C419.492 139.531 419.855 140.543 420.551 141.316C421.254 142.082 422.145 142.465 423.223 142.465C423.988 142.465 424.637 142.309 425.168 141.996C425.699 141.684 426.164 141.27 426.562 140.754L427.887 141.785C426.824 143.418 425.23 144.234 423.105 144.234ZM422.836 132.867C421.961 132.867 421.227 133.188 420.633 133.828C420.039 134.461 419.672 135.352 419.531 136.5H425.883V136.336C425.82 135.234 425.523 134.383 424.992 133.781C424.461 133.172 423.742 132.867 422.836 132.867ZM436.699 133.266C436.371 133.211 436.016 133.184 435.633 133.184C434.211 133.184 433.246 133.789 432.738 135V144H430.57V131.32H432.68L432.715 132.785C433.426 131.652 434.434 131.086 435.738 131.086C436.16 131.086 436.48 131.141 436.699 131.25V133.266ZM440.754 131.32L440.824 132.914C441.793 131.695 443.059 131.086 444.621 131.086C447.301 131.086 448.652 132.598 448.676 135.621V144H446.508V135.609C446.5 134.695 446.289 134.02 445.875 133.582C445.469 133.145 444.832 132.926 443.965 132.926C443.262 132.926 442.645 133.113 442.113 133.488C441.582 133.863 441.168 134.355 440.871 134.965V144H438.703V131.32H440.754ZM459.773 144C459.648 143.75 459.547 143.305 459.469 142.664C458.461 143.711 457.258 144.234 455.859 144.234C454.609 144.234 453.582 143.883 452.777 143.18C451.98 142.469 451.582 141.57 451.582 140.484C451.582 139.164 452.082 138.141 453.082 137.414C454.09 136.68 455.504 136.312 457.324 136.312H459.434V135.316C459.434 134.559 459.207 133.957 458.754 133.512C458.301 133.059 457.633 132.832 456.75 132.832C455.977 132.832 455.328 133.027 454.805 133.418C454.281 133.809 454.02 134.281 454.02 134.836H451.84C451.84 134.203 452.062 133.594 452.508 133.008C452.961 132.414 453.57 131.945 454.336 131.602C455.109 131.258 455.957 131.086 456.879 131.086C458.34 131.086 459.484 131.453 460.312 132.188C461.141 132.914 461.57 133.918 461.602 135.199V141.035C461.602 142.199 461.75 143.125 462.047 143.812V144H459.773ZM456.176 142.348C456.855 142.348 457.5 142.172 458.109 141.82C458.719 141.469 459.16 141.012 459.434 140.449V137.848H457.734C455.078 137.848 453.75 138.625 453.75 140.18C453.75 140.859 453.977 141.391 454.43 141.773C454.883 142.156 455.465 142.348 456.176 142.348ZM467.355 144H465.188V126H467.355V144ZM401.027 172V154.938H405.844C407.328 154.938 408.641 155.266 409.781 155.922C410.922 156.578 411.801 157.512 412.418 158.723C413.043 159.934 413.359 161.324 413.367 162.895V163.984C413.367 165.594 413.055 167.004 412.43 168.215C411.812 169.426 410.926 170.355 409.77 171.004C408.621 171.652 407.281 171.984 405.75 172H401.027ZM403.277 156.789V170.16H405.645C407.379 170.16 408.727 169.621 409.688 168.543C410.656 167.465 411.141 165.93 411.141 163.938V162.941C411.141 161.004 410.684 159.5 409.77 158.43C408.863 157.352 407.574 156.805 405.902 156.789H403.277ZM422.566 161.266C422.238 161.211 421.883 161.184 421.5 161.184C420.078 161.184 419.113 161.789 418.605 163V172H416.438V159.32H418.547L418.582 160.785C419.293 159.652 420.301 159.086 421.605 159.086C422.027 159.086 422.348 159.141 422.566 159.25V161.266ZM426.926 172H424.758V159.32H426.926V172ZM424.582 155.957C424.582 155.605 424.688 155.309 424.898 155.066C425.117 154.824 425.438 154.703 425.859 154.703C426.281 154.703 426.602 154.824 426.82 155.066C427.039 155.309 427.148 155.605 427.148 155.957C427.148 156.309 427.039 156.602 426.82 156.836C426.602 157.07 426.281 157.188 425.859 157.188C425.438 157.188 425.117 157.07 424.898 156.836C424.688 156.602 424.582 156.309 424.582 155.957ZM434.59 169.059L437.73 159.32H439.945L435.398 172H433.746L429.152 159.32H431.367L434.59 169.059ZM447.129 172.234C445.41 172.234 444.012 171.672 442.934 170.547C441.855 169.414 441.316 167.902 441.316 166.012V165.613C441.316 164.355 441.555 163.234 442.031 162.25C442.516 161.258 443.188 160.484 444.047 159.93C444.914 159.367 445.852 159.086 446.859 159.086C448.508 159.086 449.789 159.629 450.703 160.715C451.617 161.801 452.074 163.355 452.074 165.379V166.281H443.484C443.516 167.531 443.879 168.543 444.574 169.316C445.277 170.082 446.168 170.465 447.246 170.465C448.012 170.465 448.66 170.309 449.191 169.996C449.723 169.684 450.188 169.27 450.586 168.754L451.91 169.785C450.848 171.418 449.254 172.234 447.129 172.234ZM446.859 160.867C445.984 160.867 445.25 161.188 444.656 161.828C444.062 162.461 443.695 163.352 443.555 164.5H449.906V164.336C449.844 163.234 449.547 162.383 449.016 161.781C448.484 161.172 447.766 160.867 446.859 160.867Z" fill="black"/>
<path d="M20.1758 172.02C20.1758 173.691 19.8945 175.152 19.332 176.402C18.7695 177.645 17.9727 178.594 16.9414 179.25C15.9102 179.906 14.707 180.234 13.332 180.234C11.9883 180.234 10.7969 179.906 9.75781 179.25C8.71875 178.586 7.91016 177.645 7.33203 176.426C6.76172 175.199 6.46875 173.781 6.45312 172.172V170.941C6.45312 169.301 6.73828 167.852 7.30859 166.594C7.87891 165.336 8.68359 164.375 9.72266 163.711C10.7695 163.039 11.9648 162.703 13.3086 162.703C14.6758 162.703 15.8789 163.035 16.918 163.699C17.9648 164.355 18.7695 165.312 19.332 166.57C19.8945 167.82 20.1758 169.277 20.1758 170.941V172.02ZM17.9375 170.918C17.9375 168.895 17.5312 167.344 16.7188 166.266C15.9062 165.18 14.7695 164.637 13.3086 164.637C11.8867 164.637 10.7656 165.18 9.94531 166.266C9.13281 167.344 8.71484 168.844 8.69141 170.766V172.02C8.69141 173.98 9.10156 175.523 9.92188 176.648C10.75 177.766 11.8867 178.324 13.332 178.324C14.7852 178.324 15.9102 177.797 16.707 176.742C17.5039 175.68 17.9141 174.16 17.9375 172.184V170.918ZM33.9219 173.801C33.9219 175.73 33.4805 177.285 32.5977 178.465C31.7148 179.645 30.5195 180.234 29.0117 180.234C27.4727 180.234 26.2617 179.746 25.3789 178.77V184.875H23.2109V167.32H25.1914L25.2969 168.727C26.1797 167.633 27.4062 167.086 28.9766 167.086C30.5 167.086 31.7031 167.66 32.5859 168.809C33.4766 169.957 33.9219 171.555 33.9219 173.602V173.801ZM31.7539 173.555C31.7539 172.125 31.4492 170.996 30.8398 170.168C30.2305 169.34 29.3945 168.926 28.332 168.926C27.0195 168.926 26.0352 169.508 25.3789 170.672V176.73C26.0273 177.887 27.0195 178.465 28.3555 178.465C29.3945 178.465 30.2188 178.055 30.8281 177.234C31.4453 176.406 31.7539 175.18 31.7539 173.555ZM41.9492 180.234C40.2305 180.234 38.832 179.672 37.7539 178.547C36.6758 177.414 36.1367 175.902 36.1367 174.012V173.613C36.1367 172.355 36.375 171.234 36.8516 170.25C37.3359 169.258 38.0078 168.484 38.8672 167.93C39.7344 167.367 40.6719 167.086 41.6797 167.086C43.3281 167.086 44.6094 167.629 45.5234 168.715C46.4375 169.801 46.8945 171.355 46.8945 173.379V174.281H38.3047C38.3359 175.531 38.6992 176.543 39.3945 177.316C40.0977 178.082 40.9883 178.465 42.0664 178.465C42.832 178.465 43.4805 178.309 44.0117 177.996C44.543 177.684 45.0078 177.27 45.4062 176.754L46.7305 177.785C45.668 179.418 44.0742 180.234 41.9492 180.234ZM41.6797 168.867C40.8047 168.867 40.0703 169.188 39.4766 169.828C38.8828 170.461 38.5156 171.352 38.375 172.5H44.7266V172.336C44.6641 171.234 44.3672 170.383 43.8359 169.781C43.3047 169.172 42.5859 168.867 41.6797 168.867ZM55.543 169.266C55.2148 169.211 54.8594 169.184 54.4766 169.184C53.0547 169.184 52.0898 169.789 51.582 171V180H49.4141V167.32H51.5234L51.5586 168.785C52.2695 167.652 53.2773 167.086 54.582 167.086C55.0039 167.086 55.3242 167.141 55.543 167.25V169.266ZM64.9062 180C64.7812 179.75 64.6797 179.305 64.6016 178.664C63.5938 179.711 62.3906 180.234 60.9922 180.234C59.7422 180.234 58.7148 179.883 57.9102 179.18C57.1133 178.469 56.7148 177.57 56.7148 176.484C56.7148 175.164 57.2148 174.141 58.2148 173.414C59.2227 172.68 60.6367 172.312 62.457 172.312H64.5664V171.316C64.5664 170.559 64.3398 169.957 63.8867 169.512C63.4336 169.059 62.7656 168.832 61.8828 168.832C61.1094 168.832 60.4609 169.027 59.9375 169.418C59.4141 169.809 59.1523 170.281 59.1523 170.836H56.9727C56.9727 170.203 57.1953 169.594 57.6406 169.008C58.0938 168.414 58.7031 167.945 59.4688 167.602C60.2422 167.258 61.0898 167.086 62.0117 167.086C63.4727 167.086 64.6172 167.453 65.4453 168.188C66.2734 168.914 66.7031 169.918 66.7344 171.199V177.035C66.7344 178.199 66.8828 179.125 67.1797 179.812V180H64.9062ZM61.3086 178.348C61.9883 178.348 62.6328 178.172 63.2422 177.82C63.8516 177.469 64.293 177.012 64.5664 176.449V173.848H62.8672C60.2109 173.848 58.8828 174.625 58.8828 176.18C58.8828 176.859 59.1094 177.391 59.5625 177.773C60.0156 178.156 60.5977 178.348 61.3086 178.348ZM73.0742 164.25V167.32H75.4414V168.996H73.0742V176.859C73.0742 177.367 73.1797 177.75 73.3906 178.008C73.6016 178.258 73.9609 178.383 74.4688 178.383C74.7188 178.383 75.0625 178.336 75.5 178.242V180C74.9297 180.156 74.375 180.234 73.8359 180.234C72.8672 180.234 72.1367 179.941 71.6445 179.355C71.1523 178.77 70.9062 177.938 70.9062 176.859V168.996H68.5977V167.32H70.9062V164.25H73.0742ZM77.1758 173.543C77.1758 172.301 77.418 171.184 77.9023 170.191C78.3945 169.199 79.0742 168.434 79.9414 167.895C80.8164 167.355 81.8125 167.086 82.9297 167.086C84.6562 167.086 86.0508 167.684 87.1133 168.879C88.1836 170.074 88.7188 171.664 88.7188 173.648V173.801C88.7188 175.035 88.4805 176.145 88.0039 177.129C87.5352 178.105 86.8594 178.867 85.9766 179.414C85.1016 179.961 84.0938 180.234 82.9531 180.234C81.2344 180.234 79.8398 179.637 78.7695 178.441C77.707 177.246 77.1758 175.664 77.1758 173.695V173.543ZM79.3555 173.801C79.3555 175.207 79.6797 176.336 80.3281 177.188C80.9844 178.039 81.8594 178.465 82.9531 178.465C84.0547 178.465 84.9297 178.035 85.5781 177.176C86.2266 176.309 86.5508 175.098 86.5508 173.543C86.5508 172.152 86.2188 171.027 85.5547 170.168C84.8984 169.301 84.0234 168.867 82.9297 168.867C81.8594 168.867 80.9961 169.293 80.3398 170.145C79.6836 170.996 79.3555 172.215 79.3555 173.801ZM97.5664 169.266C97.2383 169.211 96.8828 169.184 96.5 169.184C95.0781 169.184 94.1133 169.789 93.6055 171V180H91.4375V167.32H93.5469L93.582 168.785C94.293 167.652 95.3008 167.086 96.6055 167.086C97.0273 167.086 97.3477 167.141 97.5664 167.25V169.266Z" fill="black"/>
<path d="M69.0523 144.678L68.4336 143.396C68.4369 143.348 68.4393 143.299 68.4393 143.25C68.4393 141.798 66.9288 140.459 64.3875 139.387V140.278C64.1397 140.18 63.8817 140.084 63.6129 139.992V139.576C59.981 138.266 54.5743 137.435 48.5347 137.435C43.258 137.435 38.4638 138.07 34.9145 139.104V140.551H34.9144V138.799C31.2781 139.955 29.0237 141.56 29.0237 143.335C29.0237 143.615 29.0801 143.89 29.1886 144.161L28.8182 144.82C28.8182 144.82 28.5214 145.205 29.0439 146.017C29.5048 146.733 31.8136 149.537 33.0321 151.005C33.5555 151.758 33.9105 152.221 33.9415 152.176C33.9904 152.105 33.616 150.692 32.5766 149.08C32.0915 148.214 31.5124 147.067 31.1646 146.22C32.1353 146.834 37.8382 149.706 49.4707 149.694C61.359 149.682 66.6433 145.961 67.2233 145.454C67.0206 146.268 66.3282 147.916 65.7759 149.074C64.8686 150.731 64.5399 152.173 64.5821 152.244C64.609 152.289 64.9186 151.812 65.3752 151.038C66.4375 149.524 68.4507 146.634 68.853 145.898C69.3088 145.063 69.0523 144.678 69.0523 144.678Z" fill="#A52B00"/>
<path d="M72.646 144.67L68.5801 141.675C68.5419 141.542 68.5038 141.408 68.4643 141.276L69.7998 139.341C69.9361 139.145 69.9636 138.889 69.8751 138.664C69.7864 138.441 69.5925 138.281 69.3632 138.242L67.1051 137.858C67.0175 137.68 66.9258 137.504 66.8338 137.33L67.7826 135.158C67.8801 134.936 67.8597 134.679 67.7302 134.478C67.6012 134.277 67.3824 134.159 67.1492 134.168L64.8573 134.251C64.7387 134.097 64.6182 133.944 64.4952 133.793L65.0219 131.465C65.0753 131.229 65.0078 130.981 64.8432 130.81C64.6795 130.638 64.4415 130.568 64.2153 130.623L61.983 131.172C61.8385 131.044 61.6915 130.918 61.5429 130.794L61.6232 128.404C61.6318 128.162 61.519 127.932 61.3254 127.798C61.1318 127.663 60.8862 127.643 60.6745 127.743L58.5921 128.733C58.4244 128.637 58.2557 128.542 58.0852 128.449L57.7172 126.094C57.6798 125.856 57.5264 125.653 57.3114 125.56C57.0969 125.467 56.8514 125.497 56.6633 125.639L54.8066 127.032C54.6237 126.971 54.44 126.913 54.2542 126.858L53.4539 124.624C53.3726 124.396 53.1849 124.229 52.9561 124.182C52.728 124.136 52.4934 124.215 52.3353 124.391L50.7724 126.14C50.5836 126.118 50.3944 126.098 50.2048 126.082L48.9981 124.049C48.8759 123.843 48.66 123.717 48.4273 123.717C48.1952 123.717 47.9789 123.843 47.8575 124.049L46.6505 126.082C46.4608 126.098 46.2709 126.118 46.0823 126.14L44.5194 124.391C44.361 124.215 44.1256 124.136 43.8982 124.182C43.6697 124.23 43.4817 124.396 43.4008 124.624L42.5999 126.858C42.4143 126.913 42.2307 126.972 42.0475 127.032L40.1914 125.639C40.0027 125.497 39.757 125.467 39.5422 125.56C39.328 125.653 39.1739 125.856 39.1368 126.094L38.7685 128.449C38.5983 128.542 38.4296 128.636 38.2615 128.733L36.1792 127.743C35.9677 127.642 35.7208 127.663 35.5282 127.798C35.3349 127.932 35.2218 128.162 35.2305 128.404L35.3105 130.794C35.1622 130.918 35.0156 131.044 34.8703 131.172L32.6384 130.623C32.4117 130.568 32.174 130.638 32.0099 130.81C31.8448 130.981 31.7779 131.229 31.831 131.465L32.3566 133.793C32.2347 133.944 32.1141 134.097 31.9957 134.251L29.7039 134.168C29.4726 134.161 29.2519 134.277 29.1226 134.478C28.9931 134.679 28.9735 134.936 29.0699 135.158L30.0194 137.33C29.9272 137.504 29.8356 137.68 29.7473 137.858L27.4893 138.242C27.2598 138.28 27.0665 138.44 26.9772 138.664C26.8886 138.889 26.9174 139.145 27.0527 139.341L28.3885 141.276C28.3782 141.31 28.3686 141.345 28.3584 141.379L24.5819 145.391C24.5819 145.391 24.003 145.844 24.8456 146.91C25.5887 147.851 29.4039 151.578 31.4188 153.531C32.2697 154.523 32.8528 155.137 32.9137 155.083C33.0098 154.999 32.5052 153.195 30.829 151.079C29.5368 149.18 27.8598 146.259 28.2531 145.923C28.2531 145.923 28.7004 145.355 29.5978 144.946C29.6307 144.972 29.5639 144.92 29.5978 144.946C29.5978 144.946 48.5374 153.683 66.1056 145.094C68.1125 144.734 69.3275 145.809 69.3275 145.809C69.7464 146.052 68.6615 149.055 67.7693 151.043C66.5559 153.3 66.378 155.062 66.4808 155.123C66.5458 155.162 66.9873 154.49 67.617 153.421C69.1709 151.255 72.1083 147.128 72.646 146.125C73.2555 144.988 72.646 144.67 72.646 144.67Z" fill="#F74C00"/>
<path d="M64.3643 143.549C64.3643 143.549 67.0894 143.423 70.6689 139.785L71.1762 138.658C71.1762 138.658 65.6204 133.132 74.2568 129.317C74.2568 129.317 73.5007 130.553 73.7226 135.327C73.7226 135.327 76.3265 134.422 77.09 130.205C77.09 130.205 80.8882 135.213 72.9648 139.91C72.9648 139.91 69.2475 145.869 64.0071 145.298L64.3643 143.549Z" fill="#F74C00"/>
<path d="M52.0197 140.117C52.0197 140.117 53.9124 138.044 55.8051 140.117C55.8051 140.117 57.2923 142.88 55.8051 144.262C55.8051 144.262 53.3717 146.196 52.0197 144.262C52.0197 144.262 50.3974 142.742 52.0197 140.117Z" fill="black"/>
<path d="M54.2115 140.886C54.2115 141.693 53.7359 142.347 53.1491 142.347C52.5625 142.347 52.0869 141.693 52.0869 140.886C52.0869 140.079 52.5625 139.425 53.1491 139.425C53.7359 139.425 54.2115 140.079 54.2115 140.886Z" fill="white"/>
<path d="M43.5721 139.551C43.5721 139.551 46.8186 138.113 47.7048 141.322C47.7048 141.322 48.633 145.061 45.0386 145.272C45.0386 145.272 40.4551 144.39 43.5721 139.551Z" fill="black"/>
<path d="M45.2027 140.939C45.2027 141.771 44.7122 142.446 44.1071 142.446C43.5022 142.446 43.0115 141.771 43.0115 140.939C43.0115 140.107 43.5022 139.432 44.1071 139.432C44.7122 139.432 45.2027 140.107 45.2027 140.939Z" fill="white"/>
<path d="M47.7331 146.58L51.8734 146.248C51.8734 146.248 51.7331 146.915 51.1929 147.415C51.1929 147.415 49.7688 148.976 48.135 147.285C48.135 147.285 47.8677 146.997 47.7331 146.58Z" fill="black"/>
<path d="M31.1538 142.747C31.1196 142.747 31.0861 142.75 31.0527 142.752C29.7083 142.446 25.9296 141.462 24.9308 139.864C24.9308 139.864 30.0156 134.08 22.0683 130.383L22.9937 136.782C22.9937 136.782 20.5437 135.145 20.015 131.589C20.015 131.589 14.049 135.919 22.6482 140.068C22.6482 140.068 23.4281 142.999 30.9164 145.337L30.9218 145.315C30.9972 145.329 31.0744 145.337 31.1538 145.337C31.8613 145.337 32.435 144.757 32.435 144.042C32.435 143.327 31.8613 142.747 31.1538 142.747Z" fill="#F74C00"/>
<path d="M62.8314 137.015C65.62 133.415 79.908 123.591 68.488 127.107C68.488 127.107 66.6109 127.608 65.6597 127.524C63.2244 127.311 61.5375 125.578 60.4747 123.77C59.136 121.492 58.2274 119.211 56.1143 117.408C52.406 114.244 44.5761 114.152 40.3938 117.408C38.1871 119.126 37.3721 121.492 36.0336 123.77C34.9708 125.578 33.2838 127.311 30.8484 127.524C29.8973 127.608 28.0201 127.107 28.0201 127.107C16.6002 123.591 30.8881 133.415 33.6767 137.015C43.395 134.711 53.1133 134.87 62.8314 137.015Z" fill="black"/>
<path d="M52.5805 125.19C52.5805 127.292 50.6547 128.996 48.2792 128.996C45.9036 128.996 43.9778 127.292 43.9778 125.19C43.9778 123.087 45.9036 121.383 48.2792 121.383C50.6547 121.383 52.5805 123.087 52.5805 125.19Z" fill="white"/>
<path d="M51.4074 128.947C51.4074 130.476 50.0068 131.715 48.2792 131.715C46.5515 131.715 45.1509 130.476 45.1509 128.947C45.1509 127.418 46.5515 126.178 48.2792 126.178C50.0068 126.178 51.4074 127.418 51.4074 128.947Z" fill="white"/>
<path d="M47.9663 125.189C47.9663 125.954 47.266 126.574 46.4022 126.574C45.5383 126.574 44.838 125.954 44.838 125.189C44.838 124.425 45.5383 123.805 46.4022 123.805C47.266 123.805 47.9663 124.425 47.9663 125.189Z" fill="black"/>
<path d="M51.7202 125.189C51.7202 125.954 51.0199 126.574 50.156 126.574C49.2922 126.574 48.5919 125.954 48.5919 125.189C48.5919 124.425 49.2922 123.805 50.156 123.805C51.0199 123.805 51.7202 124.425 51.7202 125.189Z" fill="black"/>
<path d="M43.1278 122.606C43.3916 123.429 43.1979 124.187 42.6953 124.3C42.1926 124.412 41.5714 123.837 41.3076 123.014C41.0439 122.191 41.2376 121.433 41.7402 121.321C42.2428 121.208 42.8641 121.784 43.1278 122.606Z" fill="white"/>
<path d="M41.7584 124.8C40.8545 125.003 39.9978 124.781 39.845 124.305C39.6922 123.829 40.3012 123.279 41.2051 123.077C42.109 122.874 42.9657 123.096 43.1185 123.572C43.2713 124.048 42.6623 124.598 41.7584 124.8Z" fill="white"/>
<path d="M42.4736 122.817L41.6291 124.137L44.4038 125.573L45.2482 124.252L42.4736 122.817Z" fill="white"/>
<path d="M42.4141 127.999C43.3181 128.202 43.927 128.751 43.7742 129.227C43.6214 129.704 42.7648 129.926 41.8608 129.723C40.9569 129.521 40.348 128.971 40.5007 128.495C40.6535 128.019 41.5102 127.797 42.4141 127.999Z" fill="white"/>
<path d="M43.7837 130.193C43.5199 131.016 42.8987 131.592 42.396 131.479C41.8934 131.367 41.6997 130.608 41.9635 129.786C42.2272 128.963 42.8485 128.388 43.3511 128.5C43.8537 128.613 44.0474 129.371 43.7837 130.193Z" fill="white"/>
<path d="M42.2932 128.675L43.1376 129.996L45.9123 128.56L45.0678 127.24L42.2932 128.675Z" fill="white"/>
<path d="M54.8039 124.807C53.8999 124.605 53.291 124.055 53.4438 123.579C53.5966 123.103 54.4532 122.881 55.3572 123.083C56.2611 123.285 56.8701 123.835 56.7173 124.311C56.5645 124.787 55.7078 125.009 54.8039 124.807Z" fill="white"/>
<path d="M53.4344 122.613C53.6981 121.79 54.3194 121.214 54.822 121.327C55.3246 121.44 55.5183 122.198 55.2546 123.02C54.9908 123.843 54.3696 124.419 53.8669 124.306C53.3643 124.193 53.1706 123.435 53.4344 122.613Z" fill="white"/>
<path d="M54.9248 124.131L54.0804 122.81L51.3057 124.246L52.1502 125.566L54.9248 124.131Z" fill="white"/>
<path d="M52.7762 130.2C52.5125 129.377 52.7062 128.619 53.2088 128.506C53.7114 128.394 54.3327 128.97 54.5964 129.792C54.8602 130.615 54.6665 131.373 54.1639 131.486C53.6612 131.598 53.04 131.022 52.7762 130.2Z" fill="white"/>
<path d="M54.1457 128.006C55.0497 127.804 55.9063 128.026 56.0591 128.502C56.2119 128.978 55.603 129.527 54.699 129.73C53.7951 129.932 52.9384 129.71 52.7856 129.234C52.6328 128.758 53.2418 128.208 54.1457 128.006Z" fill="white"/>
<path d="M53.4305 129.989L54.275 128.669L51.5003 127.234L50.6559 128.554L53.4305 129.989Z" fill="white"/>
<path d="M47.4125 127.733L48.2791 126.494L49.1457 127.733H47.4125Z" fill="black"/>
<path d="M223.775 41H221.068V25.3594H223.775V41ZM229.286 29.377L229.361 30.7197C230.221 29.6813 231.349 29.1621 232.745 29.1621C235.166 29.1621 236.397 30.5479 236.44 33.3193V41H233.83V33.4697C233.83 32.7321 233.669 32.1878 233.347 31.8369C233.032 31.4788 232.512 31.2998 231.789 31.2998C230.736 31.2998 229.952 31.776 229.437 32.7285V41H226.826V29.377H229.286ZM242.381 26.5518V29.377H244.433V31.3105H242.381V37.7988C242.381 38.2428 242.467 38.5651 242.639 38.7656C242.818 38.959 243.133 39.0557 243.584 39.0557C243.885 39.0557 244.189 39.0199 244.497 38.9482V40.9678C243.903 41.1325 243.33 41.2148 242.778 41.2148C240.773 41.2148 239.771 40.1084 239.771 37.8955V31.3105H237.858V29.377H239.771V26.5518H242.381ZM251.555 41.2148C249.9 41.2148 248.558 40.6956 247.526 39.6572C246.502 38.6117 245.99 37.2223 245.99 35.4893V35.167C245.99 34.0068 246.212 32.972 246.656 32.0625C247.107 31.1458 247.738 30.4333 248.547 29.9248C249.356 29.4163 250.258 29.1621 251.254 29.1621C252.837 29.1621 254.058 29.667 254.917 30.6768C255.784 31.6865 256.217 33.1152 256.217 34.9629V36.0156H248.622C248.701 36.9753 249.02 37.7344 249.578 38.293C250.144 38.8516 250.853 39.1309 251.705 39.1309C252.901 39.1309 253.875 38.6475 254.627 37.6807L256.034 39.0234C255.569 39.7181 254.946 40.2588 254.165 40.6455C253.392 41.0251 252.521 41.2148 251.555 41.2148ZM251.243 31.2568C250.527 31.2568 249.947 31.5075 249.503 32.0088C249.066 32.5101 248.787 33.2083 248.665 34.1035H253.639V33.9102C253.581 33.0365 253.349 32.3776 252.94 31.9336C252.532 31.4824 251.966 31.2568 251.243 31.2568ZM264.338 31.7617C263.994 31.7044 263.64 31.6758 263.274 31.6758C262.078 31.6758 261.273 32.1341 260.857 33.0508V41H258.247V29.377H260.739L260.804 30.6768C261.434 29.667 262.308 29.1621 263.425 29.1621C263.797 29.1621 264.105 29.2122 264.349 29.3125L264.338 31.7617ZM268.409 29.377L268.484 30.7197C269.344 29.6813 270.472 29.1621 271.868 29.1621C274.289 29.1621 275.521 30.5479 275.563 33.3193V41H272.953V33.4697C272.953 32.7321 272.792 32.1878 272.47 31.8369C272.155 31.4788 271.635 31.2998 270.912 31.2998C269.859 31.2998 269.075 31.776 268.56 32.7285V41H265.949V29.377H268.409ZM283.352 41.2148C281.697 41.2148 280.354 40.6956 279.323 39.6572C278.299 38.6117 277.787 37.2223 277.787 35.4893V35.167C277.787 34.0068 278.009 32.972 278.453 32.0625C278.904 31.1458 279.535 30.4333 280.344 29.9248C281.153 29.4163 282.055 29.1621 283.051 29.1621C284.633 29.1621 285.854 29.667 286.714 30.6768C287.58 31.6865 288.014 33.1152 288.014 34.9629V36.0156H280.419C280.498 36.9753 280.816 37.7344 281.375 38.293C281.941 38.8516 282.65 39.1309 283.502 39.1309C284.698 39.1309 285.672 38.6475 286.424 37.6807L287.831 39.0234C287.366 39.7181 286.743 40.2588 285.962 40.6455C285.188 41.0251 284.318 41.2148 283.352 41.2148ZM283.04 31.2568C282.324 31.2568 281.744 31.5075 281.3 32.0088C280.863 32.5101 280.584 33.2083 280.462 34.1035H285.436V33.9102C285.378 33.0365 285.146 32.3776 284.737 31.9336C284.329 31.4824 283.763 31.2568 283.04 31.2568ZM293.32 26.5518V29.377H295.372V31.3105H293.32V37.7988C293.32 38.2428 293.406 38.5651 293.578 38.7656C293.757 38.959 294.072 39.0557 294.523 39.0557C294.824 39.0557 295.129 39.0199 295.437 38.9482V40.9678C294.842 41.1325 294.269 41.2148 293.718 41.2148C291.713 41.2148 290.71 40.1084 290.71 37.8955V31.3105H288.798V29.377H290.71V26.5518H293.32ZM302.44 35.4033H296.801V33.2979H302.44V35.4033ZM309.369 39.1309C310.021 39.1309 310.562 38.9411 310.991 38.5615C311.421 38.182 311.65 37.7129 311.679 37.1543H314.139C314.11 37.8776 313.884 38.5544 313.462 39.1846C313.039 39.8076 312.466 40.3018 311.743 40.667C311.02 41.0322 310.239 41.2148 309.401 41.2148C307.776 41.2148 306.487 40.6885 305.534 39.6357C304.582 38.583 304.105 37.1292 304.105 35.2744V35.0059C304.105 33.237 304.578 31.8226 305.523 30.7627C306.469 29.6956 307.758 29.1621 309.391 29.1621C310.773 29.1621 311.897 29.5667 312.764 30.376C313.637 31.1781 314.096 32.2344 314.139 33.5449H311.679C311.65 32.8789 311.421 32.3311 310.991 31.9014C310.569 31.4717 310.028 31.2568 309.369 31.2568C308.524 31.2568 307.872 31.5648 307.414 32.1807C306.956 32.7894 306.723 33.7168 306.716 34.9629V35.3818C306.716 36.6423 306.941 37.584 307.393 38.207C307.851 38.8229 308.51 39.1309 309.369 39.1309ZM315.621 35.0811C315.621 33.9424 315.847 32.9183 316.298 32.0088C316.749 31.0921 317.383 30.3903 318.199 29.9033C319.016 29.4092 319.954 29.1621 321.014 29.1621C322.582 29.1621 323.853 29.667 324.827 30.6768C325.808 31.6865 326.338 33.0257 326.417 34.6943L326.428 35.3066C326.428 36.4525 326.206 37.4766 325.762 38.3789C325.325 39.2812 324.695 39.9795 323.871 40.4736C323.055 40.9678 322.109 41.2148 321.035 41.2148C319.395 41.2148 318.081 40.6706 317.093 39.582C316.112 38.4863 315.621 37.029 315.621 35.21V35.0811ZM318.231 35.3066C318.231 36.5026 318.479 37.4408 318.973 38.1211C319.467 38.7943 320.154 39.1309 321.035 39.1309C321.916 39.1309 322.6 38.7871 323.087 38.0996C323.581 37.4121 323.828 36.4059 323.828 35.0811C323.828 33.9066 323.574 32.9756 323.065 32.2881C322.564 31.6006 321.88 31.2568 321.014 31.2568C320.161 31.2568 319.485 31.597 318.983 32.2773C318.482 32.9505 318.231 33.9603 318.231 35.3066ZM331.058 29.377L331.133 30.7197C331.992 29.6813 333.12 29.1621 334.517 29.1621C336.937 29.1621 338.169 30.5479 338.212 33.3193V41H335.602V33.4697C335.602 32.7321 335.44 32.1878 335.118 31.8369C334.803 31.4788 334.284 31.2998 333.561 31.2998C332.508 31.2998 331.724 31.776 331.208 32.7285V41H328.598V29.377H331.058ZM343.304 29.377L343.379 30.7197C344.238 29.6813 345.366 29.1621 346.763 29.1621C349.183 29.1621 350.415 30.5479 350.458 33.3193V41H347.848V33.4697C347.848 32.7321 347.687 32.1878 347.364 31.8369C347.049 31.4788 346.53 31.2998 345.807 31.2998C344.754 31.2998 343.97 31.776 343.454 32.7285V41H340.844V29.377H343.304ZM358.246 41.2148C356.592 41.2148 355.249 40.6956 354.218 39.6572C353.194 38.6117 352.682 37.2223 352.682 35.4893V35.167C352.682 34.0068 352.904 32.972 353.348 32.0625C353.799 31.1458 354.429 30.4333 355.238 29.9248C356.048 29.4163 356.95 29.1621 357.945 29.1621C359.528 29.1621 360.749 29.667 361.608 30.6768C362.475 31.6865 362.908 33.1152 362.908 34.9629V36.0156H355.313C355.392 36.9753 355.711 37.7344 356.27 38.293C356.835 38.8516 357.544 39.1309 358.396 39.1309C359.592 39.1309 360.566 38.6475 361.318 37.6807L362.726 39.0234C362.26 39.7181 361.637 40.2588 360.856 40.6455C360.083 41.0251 359.213 41.2148 358.246 41.2148ZM357.935 31.2568C357.218 31.2568 356.638 31.5075 356.194 32.0088C355.757 32.5101 355.478 33.2083 355.356 34.1035H360.33V33.9102C360.273 33.0365 360.04 32.3776 359.632 31.9336C359.224 31.4824 358.658 31.2568 357.935 31.2568ZM369.719 39.1309C370.37 39.1309 370.911 38.9411 371.341 38.5615C371.771 38.182 372 37.7129 372.028 37.1543H374.488C374.46 37.8776 374.234 38.5544 373.812 39.1846C373.389 39.8076 372.816 40.3018 372.093 40.667C371.369 41.0322 370.589 41.2148 369.751 41.2148C368.125 41.2148 366.836 40.6885 365.884 39.6357C364.931 38.583 364.455 37.1292 364.455 35.2744V35.0059C364.455 33.237 364.928 31.8226 365.873 30.7627C366.818 29.6956 368.107 29.1621 369.74 29.1621C371.122 29.1621 372.247 29.5667 373.113 30.376C373.987 31.1781 374.445 32.2344 374.488 33.5449H372.028C372 32.8789 371.771 32.3311 371.341 31.9014C370.918 31.4717 370.378 31.2568 369.719 31.2568C368.874 31.2568 368.222 31.5648 367.764 32.1807C367.305 32.7894 367.073 33.7168 367.065 34.9629V35.3818C367.065 36.6423 367.291 37.584 367.742 38.207C368.201 38.8229 368.859 39.1309 369.719 39.1309ZM379.73 26.5518V29.377H381.782V31.3105H379.73V37.7988C379.73 38.2428 379.816 38.5651 379.988 38.7656C380.167 38.959 380.482 39.0557 380.934 39.0557C381.234 39.0557 381.539 39.0199 381.847 38.9482V40.9678C381.252 41.1325 380.679 41.2148 380.128 41.2148C378.123 41.2148 377.12 40.1084 377.12 37.8955V31.3105H375.208V29.377H377.12V26.5518H379.73ZM388.904 41.2148C387.25 41.2148 385.907 40.6956 384.876 39.6572C383.852 38.6117 383.34 37.2223 383.34 35.4893V35.167C383.34 34.0068 383.562 32.972 384.006 32.0625C384.457 31.1458 385.087 30.4333 385.896 29.9248C386.706 29.4163 387.608 29.1621 388.604 29.1621C390.186 29.1621 391.407 29.667 392.267 30.6768C393.133 31.6865 393.566 33.1152 393.566 34.9629V36.0156H385.972C386.05 36.9753 386.369 37.7344 386.928 38.293C387.493 38.8516 388.202 39.1309 389.055 39.1309C390.251 39.1309 391.225 38.6475 391.977 37.6807L393.384 39.0234C392.918 39.7181 392.295 40.2588 391.515 40.6455C390.741 41.0251 389.871 41.2148 388.904 41.2148ZM388.593 31.2568C387.877 31.2568 387.297 31.5075 386.853 32.0088C386.416 32.5101 386.136 33.2083 386.015 34.1035H390.988V33.9102C390.931 33.0365 390.698 32.3776 390.29 31.9336C389.882 31.4824 389.316 31.2568 388.593 31.2568ZM395.113 35.1025C395.113 33.3122 395.529 31.8763 396.359 30.7949C397.19 29.7064 398.304 29.1621 399.7 29.1621C400.932 29.1621 401.927 29.5918 402.687 30.4512V24.5H405.297V41H402.934L402.805 39.7969C402.024 40.7422 400.982 41.2148 399.679 41.2148C398.318 41.2148 397.215 40.667 396.37 39.5713C395.532 38.4756 395.113 36.986 395.113 35.1025ZM397.724 35.3281C397.724 36.5098 397.949 37.4336 398.4 38.0996C398.859 38.7585 399.507 39.0879 400.345 39.0879C401.412 39.0879 402.192 38.6117 402.687 37.6592V32.6963C402.207 31.7653 401.433 31.2998 400.366 31.2998C399.521 31.2998 398.869 31.6364 398.411 32.3096C397.953 32.9756 397.724 33.9818 397.724 35.3281ZM277.014 55.377L277.089 56.7197C277.948 55.6813 279.076 55.1621 280.473 55.1621C282.893 55.1621 284.125 56.5479 284.168 59.3193V67H281.558V59.4697C281.558 58.7321 281.396 58.1878 281.074 57.8369C280.759 57.4788 280.24 57.2998 279.517 57.2998C278.464 57.2998 277.68 57.776 277.164 58.7285V67H274.554V55.377H277.014ZM291.956 67.2148C290.302 67.2148 288.959 66.6956 287.928 65.6572C286.904 64.6117 286.392 63.2223 286.392 61.4893V61.167C286.392 60.0068 286.614 58.972 287.058 58.0625C287.509 57.1458 288.139 56.4333 288.948 55.9248C289.757 55.4163 290.66 55.1621 291.655 55.1621C293.238 55.1621 294.459 55.667 295.318 56.6768C296.185 57.6865 296.618 59.1152 296.618 60.9629V62.0156H289.023C289.102 62.9753 289.421 63.7344 289.979 64.293C290.545 64.8516 291.254 65.1309 292.106 65.1309C293.302 65.1309 294.276 64.6475 295.028 63.6807L296.436 65.0234C295.97 65.7181 295.347 66.2588 294.566 66.6455C293.793 67.0251 292.923 67.2148 291.956 67.2148ZM291.645 57.2568C290.928 57.2568 290.348 57.5075 289.904 58.0088C289.467 58.5101 289.188 59.2083 289.066 60.1035H294.04V59.9102C293.983 59.0365 293.75 58.3776 293.342 57.9336C292.934 57.4824 292.368 57.2568 291.645 57.2568ZM301.925 52.5518V55.377H303.977V57.3105H301.925V63.7988C301.925 64.2428 302.011 64.5651 302.183 64.7656C302.362 64.959 302.677 65.0557 303.128 65.0557C303.429 65.0557 303.733 65.0199 304.041 64.9482V66.9678C303.447 67.1325 302.874 67.2148 302.322 67.2148C300.317 67.2148 299.314 66.1084 299.314 63.8955V57.3105H297.402V55.377H299.314V52.5518H301.925ZM316.19 63.4014L318.038 55.377H320.584L317.415 67H315.267L312.774 59.0186L310.325 67H308.177L304.997 55.377H307.543L309.423 63.3154L311.808 55.377H313.773L316.19 63.4014ZM321.841 61.0811C321.841 59.9424 322.066 58.9183 322.518 58.0088C322.969 57.0921 323.603 56.3903 324.419 55.9033C325.235 55.4092 326.174 55.1621 327.233 55.1621C328.802 55.1621 330.073 55.667 331.047 56.6768C332.028 57.6865 332.558 59.0257 332.637 60.6943L332.647 61.3066C332.647 62.4525 332.425 63.4766 331.981 64.3789C331.545 65.2812 330.914 65.9795 330.091 66.4736C329.274 66.9678 328.329 67.2148 327.255 67.2148C325.615 67.2148 324.301 66.6706 323.312 65.582C322.331 64.4863 321.841 63.029 321.841 61.21V61.0811ZM324.451 61.3066C324.451 62.5026 324.698 63.4408 325.192 64.1211C325.687 64.7943 326.374 65.1309 327.255 65.1309C328.136 65.1309 328.82 64.7871 329.307 64.0996C329.801 63.4121 330.048 62.4059 330.048 61.0811C330.048 59.9066 329.794 58.9756 329.285 58.2881C328.784 57.6006 328.1 57.2568 327.233 57.2568C326.381 57.2568 325.704 57.597 325.203 58.2773C324.702 58.9505 324.451 59.9603 324.451 61.3066ZM340.94 57.7617C340.597 57.7044 340.242 57.6758 339.877 57.6758C338.681 57.6758 337.875 58.1341 337.46 59.0508V67H334.85V55.377H337.342L337.406 56.6768C338.036 55.667 338.91 55.1621 340.027 55.1621C340.4 55.1621 340.708 55.2122 340.951 55.3125L340.94 57.7617ZM346.365 62.0156L345.205 63.208V67H342.595V50.5H345.205V60.0176L346.021 58.9971L349.233 55.377H352.37L348.052 60.2217L352.832 67H349.813L346.365 62.0156Z" fill="black"/>
<path d="M469.521 37.3584H463.463L462.195 41H459.37L465.278 25.3594H467.717L473.636 41H470.8L469.521 37.3584ZM464.226 35.167H468.759L466.492 28.6787L464.226 35.167ZM477.943 41H475.333V29.377H477.943V41ZM475.172 26.3584C475.172 25.9574 475.297 25.6243 475.548 25.3594C475.806 25.0944 476.171 24.9619 476.644 24.9619C477.116 24.9619 477.481 25.0944 477.739 25.3594C477.997 25.6243 478.126 25.9574 478.126 26.3584C478.126 26.7523 477.997 27.0817 477.739 27.3467C477.481 27.6045 477.116 27.7334 476.644 27.7334C476.171 27.7334 475.806 27.6045 475.548 27.3467C475.297 27.0817 475.172 26.7523 475.172 26.3584ZM486.881 31.7617C486.537 31.7044 486.183 31.6758 485.817 31.6758C484.621 31.6758 483.816 32.1341 483.4 33.0508V41H480.79V29.377H483.282L483.347 30.6768C483.977 29.667 484.851 29.1621 485.968 29.1621C486.34 29.1621 486.648 29.2122 486.892 29.3125L486.881 31.7617ZM493.595 35.4033H487.955V33.2979H493.595V35.4033ZM495.292 35.1025C495.292 33.2979 495.715 31.8584 496.56 30.7842C497.412 29.7028 498.54 29.1621 499.943 29.1621C501.268 29.1621 502.31 29.624 503.069 30.5479L503.188 29.377H505.54V40.6455C505.54 42.1709 505.064 43.374 504.111 44.2549C503.166 45.1357 501.888 45.5762 500.276 45.5762C499.424 45.5762 498.59 45.3971 497.773 45.0391C496.964 44.6882 496.348 44.2262 495.926 43.6533L497.161 42.085C497.963 43.0374 498.951 43.5137 500.126 43.5137C500.993 43.5137 501.676 43.2773 502.178 42.8047C502.679 42.3392 502.93 41.6517 502.93 40.7422V39.958C502.178 40.7959 501.175 41.2148 499.922 41.2148C498.561 41.2148 497.448 40.6742 496.581 39.5928C495.722 38.5114 495.292 37.0146 495.292 35.1025ZM497.892 35.3281C497.892 36.4954 498.128 37.4157 498.601 38.0889C499.08 38.7549 499.743 39.0879 500.588 39.0879C501.641 39.0879 502.421 38.6367 502.93 37.7344V32.6211C502.436 31.7402 501.662 31.2998 500.609 31.2998C499.75 31.2998 499.08 31.64 498.601 32.3203C498.128 33.0007 497.892 34.0033 497.892 35.3281ZM515.176 41C515.061 40.778 514.961 40.4163 514.875 39.915C514.044 40.7816 513.027 41.2148 511.824 41.2148C510.657 41.2148 509.704 40.8818 508.967 40.2158C508.229 39.5498 507.86 38.7262 507.86 37.7451C507.86 36.5062 508.319 35.5573 509.235 34.8984C510.159 34.2324 511.477 33.8994 513.188 33.8994H514.789V33.1367C514.789 32.5352 514.621 32.0553 514.284 31.6973C513.948 31.332 513.436 31.1494 512.748 31.1494C512.154 31.1494 511.667 31.2998 511.287 31.6006C510.908 31.8942 510.718 32.2702 510.718 32.7285H508.107C508.107 32.0911 508.319 31.4967 508.741 30.9453C509.164 30.3867 509.737 29.9499 510.46 29.6348C511.19 29.3197 512.003 29.1621 512.898 29.1621C514.259 29.1621 515.344 29.5059 516.153 30.1934C516.963 30.8737 517.378 31.8333 517.399 33.0723V38.3145C517.399 39.36 517.546 40.1943 517.84 40.8174V41H515.176ZM512.308 39.1201C512.823 39.1201 513.307 38.9948 513.758 38.7441C514.216 38.4935 514.56 38.1569 514.789 37.7344V35.543H513.382C512.415 35.543 511.688 35.7113 511.201 36.0479C510.714 36.3844 510.471 36.8607 510.471 37.4766C510.471 37.9779 510.635 38.3789 510.965 38.6797C511.301 38.9733 511.749 39.1201 512.308 39.1201ZM530.312 35.3066C530.312 37.1042 529.903 38.54 529.087 39.6143C528.271 40.6813 527.175 41.2148 525.8 41.2148C524.525 41.2148 523.505 40.7959 522.738 39.958V45.4688H520.128V29.377H522.534L522.642 30.5586C523.408 29.6276 524.45 29.1621 525.768 29.1621C527.186 29.1621 528.296 29.6921 529.098 30.752C529.907 31.8047 530.312 33.2692 530.312 35.1455V35.3066ZM527.712 35.0811C527.712 33.9209 527.479 33.0007 527.014 32.3203C526.555 31.64 525.896 31.2998 525.037 31.2998C523.97 31.2998 523.204 31.7402 522.738 32.6211V37.7773C523.211 38.6797 523.984 39.1309 525.059 39.1309C525.889 39.1309 526.537 38.7979 527.003 38.1318C527.476 37.4587 527.712 36.4417 527.712 35.0811ZM542.708 35.3066C542.708 37.1042 542.3 38.54 541.483 39.6143C540.667 40.6813 539.571 41.2148 538.196 41.2148C536.922 41.2148 535.901 40.7959 535.135 39.958V45.4688H532.524V29.377H534.931L535.038 30.5586C535.804 29.6276 536.846 29.1621 538.164 29.1621C539.582 29.1621 540.692 29.6921 541.494 30.752C542.303 31.8047 542.708 33.2692 542.708 35.1455V35.3066ZM540.108 35.0811C540.108 33.9209 539.876 33.0007 539.41 32.3203C538.952 31.64 538.293 31.2998 537.434 31.2998C536.367 31.2998 535.6 31.7402 535.135 32.6211V37.7773C535.607 38.6797 536.381 39.1309 537.455 39.1309C538.286 39.1309 538.934 38.7979 539.399 38.1318C539.872 37.4587 540.108 36.4417 540.108 35.0811ZM550.045 41.2148C548.391 41.2148 547.048 40.6956 546.017 39.6572C544.993 38.6117 544.48 37.2223 544.48 35.4893V35.167C544.48 34.0068 544.702 32.972 545.146 32.0625C545.598 31.1458 546.228 30.4333 547.037 29.9248C547.846 29.4163 548.749 29.1621 549.744 29.1621C551.327 29.1621 552.548 29.667 553.407 30.6768C554.274 31.6865 554.707 33.1152 554.707 34.9629V36.0156H547.112C547.191 36.9753 547.51 37.7344 548.068 38.293C548.634 38.8516 549.343 39.1309 550.195 39.1309C551.391 39.1309 552.365 38.6475 553.117 37.6807L554.524 39.0234C554.059 39.7181 553.436 40.2588 552.655 40.6455C551.882 41.0251 551.012 41.2148 550.045 41.2148ZM549.733 31.2568C549.017 31.2568 548.437 31.5075 547.993 32.0088C547.556 32.5101 547.277 33.2083 547.155 34.1035H552.129V33.9102C552.072 33.0365 551.839 32.3776 551.431 31.9336C551.022 31.4824 550.457 31.2568 549.733 31.2568ZM556.254 35.1025C556.254 33.3122 556.669 31.8763 557.5 30.7949C558.331 29.7064 559.444 29.1621 560.841 29.1621C562.073 29.1621 563.068 29.5918 563.827 30.4512V24.5H566.438V41H564.074L563.945 39.7969C563.165 40.7422 562.123 41.2148 560.819 41.2148C559.459 41.2148 558.356 40.667 557.511 39.5713C556.673 38.4756 556.254 36.986 556.254 35.1025ZM558.864 35.3281C558.864 36.5098 559.09 37.4336 559.541 38.0996C559.999 38.7585 560.647 39.0879 561.485 39.0879C562.552 39.0879 563.333 38.6117 563.827 37.6592V32.6963C563.347 31.7653 562.574 31.2998 561.507 31.2998C560.662 31.2998 560.01 31.6364 559.552 32.3096C559.093 32.9756 558.864 33.9818 558.864 35.3281ZM477.514 55.377L477.589 56.7197C478.448 55.6813 479.576 55.1621 480.973 55.1621C483.393 55.1621 484.625 56.5479 484.668 59.3193V67H482.058V59.4697C482.058 58.7321 481.896 58.1878 481.574 57.8369C481.259 57.4788 480.74 57.2998 480.017 57.2998C478.964 57.2998 478.18 57.776 477.664 58.7285V67H475.054V55.377H477.514ZM492.456 67.2148C490.802 67.2148 489.459 66.6956 488.428 65.6572C487.404 64.6117 486.892 63.2223 486.892 61.4893V61.167C486.892 60.0068 487.114 58.972 487.558 58.0625C488.009 57.1458 488.639 56.4333 489.448 55.9248C490.257 55.4163 491.16 55.1621 492.155 55.1621C493.738 55.1621 494.959 55.667 495.818 56.6768C496.685 57.6865 497.118 59.1152 497.118 60.9629V62.0156H489.523C489.602 62.9753 489.921 63.7344 490.479 64.293C491.045 64.8516 491.754 65.1309 492.606 65.1309C493.802 65.1309 494.776 64.6475 495.528 63.6807L496.936 65.0234C496.47 65.7181 495.847 66.2588 495.066 66.6455C494.293 67.0251 493.423 67.2148 492.456 67.2148ZM492.145 57.2568C491.428 57.2568 490.848 57.5075 490.404 58.0088C489.967 58.5101 489.688 59.2083 489.566 60.1035H494.54V59.9102C494.483 59.0365 494.25 58.3776 493.842 57.9336C493.434 57.4824 492.868 57.2568 492.145 57.2568ZM502.425 52.5518V55.377H504.477V57.3105H502.425V63.7988C502.425 64.2428 502.511 64.5651 502.683 64.7656C502.862 64.959 503.177 65.0557 503.628 65.0557C503.929 65.0557 504.233 65.0199 504.541 64.9482V66.9678C503.947 67.1325 503.374 67.2148 502.822 67.2148C500.817 67.2148 499.814 66.1084 499.814 63.8955V57.3105H497.902V55.377H499.814V52.5518H502.425ZM516.69 63.4014L518.538 55.377H521.084L517.915 67H515.767L513.274 59.0186L510.825 67H508.677L505.497 55.377H508.043L509.923 63.3154L512.308 55.377H514.273L516.69 63.4014ZM522.341 61.0811C522.341 59.9424 522.566 58.9183 523.018 58.0088C523.469 57.0921 524.103 56.3903 524.919 55.9033C525.735 55.4092 526.674 55.1621 527.733 55.1621C529.302 55.1621 530.573 55.667 531.547 56.6768C532.528 57.6865 533.058 59.0257 533.137 60.6943L533.147 61.3066C533.147 62.4525 532.925 63.4766 532.481 64.3789C532.045 65.2812 531.414 65.9795 530.591 66.4736C529.774 66.9678 528.829 67.2148 527.755 67.2148C526.115 67.2148 524.801 66.6706 523.812 65.582C522.831 64.4863 522.341 63.029 522.341 61.21V61.0811ZM524.951 61.3066C524.951 62.5026 525.198 63.4408 525.692 64.1211C526.187 64.7943 526.874 65.1309 527.755 65.1309C528.636 65.1309 529.32 64.7871 529.807 64.0996C530.301 63.4121 530.548 62.4059 530.548 61.0811C530.548 59.9066 530.294 58.9756 529.785 58.2881C529.284 57.6006 528.6 57.2568 527.733 57.2568C526.881 57.2568 526.204 57.597 525.703 58.2773C525.202 58.9505 524.951 59.9603 524.951 61.3066ZM541.44 57.7617C541.097 57.7044 540.742 57.6758 540.377 57.6758C539.181 57.6758 538.375 58.1341 537.96 59.0508V67H535.35V55.377H537.842L537.906 56.6768C538.536 55.667 539.41 55.1621 540.527 55.1621C540.9 55.1621 541.208 55.2122 541.451 55.3125L541.44 57.7617ZM546.865 62.0156L545.705 63.208V67H543.095V50.5H545.705V60.0176L546.521 58.9971L549.733 55.377H552.87L548.552 60.2217L553.332 67H550.313L546.865 62.0156Z" fill="black"/>
<line x1="202" y1="20.0038" x2="201.004" y2="280.002" stroke="black" stroke-width="2"/>
<path d="M185.293 149.293C184.902 149.683 184.902 150.317 185.293 150.707L191.657 157.071C192.047 157.462 192.681 157.462 193.071 157.071C193.462 156.681 193.462 156.047 193.071 155.657L187.414 150L193.071 144.343C193.462 143.953 193.462 143.319 193.071 142.929C192.681 142.538 192.047 142.538 191.657 142.929L185.293 149.293ZM186 151L262 151V149L186 149V151Z" fill="black"/>
<path d="M476.293 150.293C475.902 150.683 475.902 151.317 476.293 151.707L482.657 158.071C483.047 158.462 483.681 158.462 484.071 158.071C484.462 157.681 484.462 157.047 484.071 156.657L478.414 151L484.071 145.343C484.462 144.953 484.462 144.319 484.071 143.929C483.681 143.538 483.047 143.538 482.657 143.929L476.293 150.293ZM477 152H517V150H477V152Z" fill="black"/>
<path d="M341.293 150.293C340.902 150.683 340.902 151.317 341.293 151.707L347.657 158.071C348.047 158.462 348.681 158.462 349.071 158.071C349.462 157.681 349.462 157.047 349.071 156.657L343.414 151L349.071 145.343C349.462 144.953 349.462 144.319 349.071 143.929C348.681 143.538 348.047 143.538 347.657 143.929L341.293 150.293ZM342 152L376 152L376 150L342 150L342 152Z" fill="black"/>
</g>
<defs>
<clipPath id="clip0_701:25">
<rect width="600" height="300" fill="white"/>
</clipPath>
</defs>
</svg>
