<svg width="600" height="300" viewBox="0 0 600 300" fill="none" xmlns="http://www.w3.org/2000/svg">
<rect width="600" height="300" fill="white"/>
<path d="M564.065 253.057C564.648 252.469 564.645 251.519 564.057 250.935L554.474 241.426C553.886 240.843 552.936 240.846 552.353 241.434C551.769 242.022 551.773 242.972 552.361 243.556L560.879 252.008L552.426 260.526C551.843 261.114 551.846 262.064 552.434 262.647C553.022 263.231 553.972 263.227 554.556 262.639L564.065 253.057ZM44.0058 255.5L563.006 253.5L562.994 250.5L43.9942 252.5L44.0058 255.5Z" fill="black"/>
<path d="M44 47L563 45" stroke="black" stroke-width="3"/>
<path d="M276.688 17.3945C274.758 16.8398 273.352 16.1602 272.469 15.3555C271.594 14.543 271.156 13.543 271.156 12.3555C271.156 11.0117 271.691 9.90234 272.762 9.02734C273.84 8.14453 275.238 7.70312 276.957 7.70312C278.129 7.70312 279.172 7.92969 280.086 8.38281C281.008 8.83594 281.719 9.46094 282.219 10.2578C282.727 11.0547 282.98 11.9258 282.98 12.8711H280.719C280.719 11.8398 280.391 11.0312 279.734 10.4453C279.078 9.85156 278.152 9.55469 276.957 9.55469C275.848 9.55469 274.98 9.80078 274.355 10.293C273.738 10.7773 273.43 11.4531 273.43 12.3203C273.43 13.0156 273.723 13.6055 274.309 14.0898C274.902 14.5664 275.906 15.0039 277.32 15.4023C278.742 15.8008 279.852 16.2422 280.648 16.7266C281.453 17.2031 282.047 17.7617 282.43 18.4023C282.82 19.043 283.016 19.7969 283.016 20.6641C283.016 22.0469 282.477 23.1562 281.398 23.9922C280.32 24.8203 278.879 25.2344 277.074 25.2344C275.902 25.2344 274.809 25.0117 273.793 24.5664C272.777 24.1133 271.992 23.4961 271.438 22.7148C270.891 21.9336 270.617 21.0469 270.617 20.0547H272.879C272.879 21.0859 273.258 21.9023 274.016 22.5039C274.781 23.0977 275.801 23.3945 277.074 23.3945C278.262 23.3945 279.172 23.1523 279.805 22.668C280.438 22.1836 280.754 21.5234 280.754 20.6875C280.754 19.8516 280.461 19.207 279.875 18.7539C279.289 18.293 278.227 17.8398 276.688 17.3945ZM290.832 25.2344C289.113 25.2344 287.715 24.6719 286.637 23.5469C285.559 22.4141 285.02 20.9023 285.02 19.0117V18.6133C285.02 17.3555 285.258 16.2344 285.734 15.25C286.219 14.2578 286.891 13.4844 287.75 12.9297C288.617 12.3672 289.555 12.0859 290.562 12.0859C292.211 12.0859 293.492 12.6289 294.406 13.7148C295.32 14.8008 295.777 16.3555 295.777 18.3789V19.2812H287.188C287.219 20.5312 287.582 21.543 288.277 22.3164C288.98 23.082 289.871 23.4648 290.949 23.4648C291.715 23.4648 292.363 23.3086 292.895 22.9961C293.426 22.6836 293.891 22.2695 294.289 21.7539L295.613 22.7852C294.551 24.418 292.957 25.2344 290.832 25.2344ZM290.562 13.8672C289.688 13.8672 288.953 14.1875 288.359 14.8281C287.766 15.4609 287.398 16.3516 287.258 17.5H293.609V17.3359C293.547 16.2344 293.25 15.3828 292.719 14.7812C292.188 14.1719 291.469 13.8672 290.562 13.8672ZM304.426 14.2656C304.098 14.2109 303.742 14.1836 303.359 14.1836C301.938 14.1836 300.973 14.7891 300.465 16V25H298.297V12.3203H300.406L300.441 13.7852C301.152 12.6523 302.16 12.0859 303.465 12.0859C303.887 12.0859 304.207 12.1406 304.426 12.25V14.2656ZM310.824 22.0586L313.965 12.3203H316.18L311.633 25H309.98L305.387 12.3203H307.602L310.824 22.0586ZM323.363 25.2344C321.645 25.2344 320.246 24.6719 319.168 23.5469C318.09 22.4141 317.551 20.9023 317.551 19.0117V18.6133C317.551 17.3555 317.789 16.2344 318.266 15.25C318.75 14.2578 319.422 13.4844 320.281 12.9297C321.148 12.3672 322.086 12.0859 323.094 12.0859C324.742 12.0859 326.023 12.6289 326.938 13.7148C327.852 14.8008 328.309 16.3555 328.309 18.3789V19.2812H319.719C319.75 20.5312 320.113 21.543 320.809 22.3164C321.512 23.082 322.402 23.4648 323.48 23.4648C324.246 23.4648 324.895 23.3086 325.426 22.9961C325.957 22.6836 326.422 22.2695 326.82 21.7539L328.145 22.7852C327.082 24.418 325.488 25.2344 323.363 25.2344ZM323.094 13.8672C322.219 13.8672 321.484 14.1875 320.891 14.8281C320.297 15.4609 319.93 16.3516 319.789 17.5H326.141V17.3359C326.078 16.2344 325.781 15.3828 325.25 14.7812C324.719 14.1719 324 13.8672 323.094 13.8672ZM336.957 14.2656C336.629 14.2109 336.273 14.1836 335.891 14.1836C334.469 14.1836 333.504 14.7891 332.996 16V25H330.828V12.3203H332.938L332.973 13.7852C333.684 12.6523 334.691 12.0859 335.996 12.0859C336.418 12.0859 336.738 12.1406 336.957 12.25V14.2656Z" fill="black"/>
<path d="M287.469 285.586C287.258 287.391 286.59 288.785 285.465 289.77C284.348 290.746 282.859 291.234 281 291.234C278.984 291.234 277.367 290.512 276.148 289.066C274.938 287.621 274.332 285.688 274.332 283.266V281.625C274.332 280.039 274.613 278.645 275.176 277.441C275.746 276.238 276.551 275.316 277.59 274.676C278.629 274.027 279.832 273.703 281.199 273.703C283.012 273.703 284.465 274.211 285.559 275.227C286.652 276.234 287.289 277.633 287.469 279.422H285.207C285.012 278.062 284.586 277.078 283.93 276.469C283.281 275.859 282.371 275.555 281.199 275.555C279.762 275.555 278.633 276.086 277.812 277.148C277 278.211 276.594 279.723 276.594 281.684V283.336C276.594 285.188 276.98 286.66 277.754 287.754C278.527 288.848 279.609 289.395 281 289.395C282.25 289.395 283.207 289.113 283.871 288.551C284.543 287.98 284.988 286.992 285.207 285.586H287.469ZM292.566 291H290.398V273H292.566V291ZM298.402 291H296.234V278.32H298.402V291ZM296.059 274.957C296.059 274.605 296.164 274.309 296.375 274.066C296.594 273.824 296.914 273.703 297.336 273.703C297.758 273.703 298.078 273.824 298.297 274.066C298.516 274.309 298.625 274.605 298.625 274.957C298.625 275.309 298.516 275.602 298.297 275.836C298.078 276.07 297.758 276.188 297.336 276.188C296.914 276.188 296.594 276.07 296.375 275.836C296.164 275.602 296.059 275.309 296.059 274.957ZM307.145 291.234C305.426 291.234 304.027 290.672 302.949 289.547C301.871 288.414 301.332 286.902 301.332 285.012V284.613C301.332 283.355 301.57 282.234 302.047 281.25C302.531 280.258 303.203 279.484 304.062 278.93C304.93 278.367 305.867 278.086 306.875 278.086C308.523 278.086 309.805 278.629 310.719 279.715C311.633 280.801 312.09 282.355 312.09 284.379V285.281H303.5C303.531 286.531 303.895 287.543 304.59 288.316C305.293 289.082 306.184 289.465 307.262 289.465C308.027 289.465 308.676 289.309 309.207 288.996C309.738 288.684 310.203 288.27 310.602 287.754L311.926 288.785C310.863 290.418 309.27 291.234 307.145 291.234ZM306.875 279.867C306 279.867 305.266 280.188 304.672 280.828C304.078 281.461 303.711 282.352 303.57 283.5H309.922V283.336C309.859 282.234 309.562 281.383 309.031 280.781C308.5 280.172 307.781 279.867 306.875 279.867ZM316.66 278.32L316.73 279.914C317.699 278.695 318.965 278.086 320.527 278.086C323.207 278.086 324.559 279.598 324.582 282.621V291H322.414V282.609C322.406 281.695 322.195 281.02 321.781 280.582C321.375 280.145 320.738 279.926 319.871 279.926C319.168 279.926 318.551 280.113 318.02 280.488C317.488 280.863 317.074 281.355 316.777 281.965V291H314.609V278.32H316.66ZM330.793 275.25V278.32H333.16V279.996H330.793V287.859C330.793 288.367 330.898 288.75 331.109 289.008C331.32 289.258 331.68 289.383 332.188 289.383C332.438 289.383 332.781 289.336 333.219 289.242V291C332.648 291.156 332.094 291.234 331.555 291.234C330.586 291.234 329.855 290.941 329.363 290.355C328.871 289.77 328.625 288.938 328.625 287.859V279.996H326.316V278.32H328.625V275.25H330.793Z" fill="black"/>
<path d="M84.7071 48.2929C84.3166 47.9024 83.6834 47.9024 83.2929 48.2929L76.9289 54.6569C76.5384 55.0474 76.5384 55.6805 76.9289 56.0711C77.3195 56.4616 77.9526 56.4616 78.3431 56.0711L84 50.4142L89.6569 56.0711C90.0474 56.4616 90.6805 56.4616 91.0711 56.0711C91.4616 55.6805 91.4616 55.0474 91.0711 54.6569L84.7071 48.2929ZM85 252L85 49H83L83 252H85Z" fill="black"/>
<path d="M106.293 251.707C106.683 252.098 107.317 252.098 107.707 251.707L114.071 245.343C114.462 244.953 114.462 244.319 114.071 243.929C113.681 243.538 113.047 243.538 112.657 243.929L107 249.586L101.343 243.929C100.953 243.538 100.319 243.538 99.9289 243.929C99.5384 244.319 99.5384 244.953 99.9289 245.343L106.293 251.707ZM106 49L106 251H108L108 49H106Z" fill="#FF0000"/>
<path d="M25.3462 141.728H21.3408V145.003H25.9937V146H20.1221V136.758H25.9302V137.761H21.3408V140.731H25.3462V141.728ZM31.3257 144.178C31.3257 143.861 31.2051 143.615 30.9639 143.442C30.7269 143.264 30.3101 143.112 29.7134 142.985C29.1209 142.858 28.6491 142.706 28.2979 142.528C27.9508 142.35 27.6927 142.139 27.5234 141.893C27.3584 141.648 27.2759 141.356 27.2759 141.017C27.2759 140.454 27.5129 139.978 27.9868 139.589C28.465 139.2 29.0744 139.005 29.8149 139.005C30.5936 139.005 31.2241 139.206 31.7065 139.608C32.1932 140.01 32.4365 140.524 32.4365 141.15H31.2559C31.2559 140.829 31.1183 140.552 30.8433 140.319C30.5724 140.086 30.2297 139.97 29.8149 139.97C29.3875 139.97 29.0532 140.063 28.812 140.249C28.5708 140.435 28.4502 140.679 28.4502 140.979C28.4502 141.263 28.5623 141.476 28.7866 141.62C29.0109 141.764 29.415 141.902 29.999 142.033C30.5872 142.164 31.0633 142.32 31.4272 142.502C31.7912 142.684 32.0599 142.904 32.2334 143.163C32.4111 143.417 32.5 143.728 32.5 144.096C32.5 144.709 32.2546 145.202 31.7637 145.575C31.2728 145.943 30.6359 146.127 29.853 146.127C29.3029 146.127 28.8162 146.03 28.3931 145.835C27.9699 145.64 27.6377 145.369 27.3965 145.022C27.1595 144.671 27.041 144.292 27.041 143.886H28.2153C28.2365 144.28 28.3931 144.593 28.6851 144.826C28.9813 145.054 29.3706 145.168 29.853 145.168C30.2974 145.168 30.6528 145.08 30.9194 144.902C31.1903 144.72 31.3257 144.479 31.3257 144.178ZM35.623 137.469V139.132H36.9053V140.04H35.623V144.299C35.623 144.574 35.6802 144.781 35.7944 144.921C35.9087 145.056 36.1034 145.124 36.3784 145.124C36.5138 145.124 36.7 145.099 36.937 145.048V146C36.6281 146.085 36.3276 146.127 36.0356 146.127C35.5109 146.127 35.1152 145.968 34.8486 145.651C34.582 145.333 34.4487 144.883 34.4487 144.299V140.04H33.1982V139.132H34.4487V137.469H35.623ZM42.5229 146C42.4552 145.865 42.4002 145.623 42.3579 145.276C41.812 145.843 41.1603 146.127 40.4028 146.127C39.7257 146.127 39.1693 145.937 38.7334 145.556C38.3018 145.171 38.0859 144.684 38.0859 144.096C38.0859 143.381 38.3568 142.826 38.8984 142.433C39.4443 142.035 40.2103 141.836 41.1963 141.836H42.3389V141.296C42.3389 140.886 42.2161 140.56 41.9707 140.319C41.7253 140.073 41.3634 139.951 40.8853 139.951C40.4663 139.951 40.1151 140.056 39.8315 140.268C39.548 140.48 39.4062 140.736 39.4062 141.036H38.2256C38.2256 140.693 38.3462 140.363 38.5874 140.046C38.8328 139.724 39.1629 139.47 39.5776 139.284C39.9966 139.098 40.4557 139.005 40.9551 139.005C41.7464 139.005 42.3664 139.204 42.8149 139.602C43.2635 139.995 43.4963 140.539 43.5132 141.233V144.394C43.5132 145.025 43.5936 145.526 43.7544 145.898V146H42.5229ZM40.5742 145.105C40.9424 145.105 41.2915 145.01 41.6216 144.819C41.9517 144.629 42.1908 144.381 42.3389 144.077V142.667H41.4185C39.9797 142.667 39.2603 143.089 39.2603 143.931C39.2603 144.299 39.383 144.587 39.6284 144.794C39.8739 145.001 40.1891 145.105 40.5742 145.105ZM51.1685 142.642C51.1685 143.692 50.9272 144.536 50.4448 145.175C49.9624 145.81 49.3149 146.127 48.5024 146.127C47.6349 146.127 46.9642 145.82 46.4902 145.207L46.4331 146H45.354V136.25H46.5283V139.887C47.0023 139.299 47.6561 139.005 48.4897 139.005C49.3234 139.005 49.9772 139.32 50.4512 139.951C50.9294 140.581 51.1685 141.444 51.1685 142.541V142.642ZM49.9941 142.509C49.9941 141.709 49.8397 141.091 49.5308 140.655C49.2218 140.219 48.7775 140.001 48.1978 140.001C47.4233 140.001 46.8669 140.361 46.5283 141.081V144.051C46.888 144.771 47.4487 145.13 48.2104 145.13C48.7733 145.13 49.2113 144.912 49.5244 144.477C49.8376 144.041 49.9941 143.385 49.9941 142.509ZM53.9297 146H52.7554V136.25H53.9297V146ZM57.0908 146H55.9165V139.132H57.0908V146ZM55.8213 137.31C55.8213 137.12 55.8784 136.959 55.9927 136.828C56.1112 136.696 56.2847 136.631 56.5132 136.631C56.7417 136.631 56.9152 136.696 57.0337 136.828C57.1522 136.959 57.2114 137.12 57.2114 137.31C57.2114 137.5 57.1522 137.659 57.0337 137.786C56.9152 137.913 56.7417 137.977 56.5132 137.977C56.2847 137.977 56.1112 137.913 55.9927 137.786C55.8784 137.659 55.8213 137.5 55.8213 137.31ZM62.9751 144.178C62.9751 143.861 62.8545 143.615 62.6133 143.442C62.3763 143.264 61.9595 143.112 61.3628 142.985C60.7703 142.858 60.2985 142.706 59.9473 142.528C59.6003 142.35 59.3421 142.139 59.1729 141.893C59.0078 141.648 58.9253 141.356 58.9253 141.017C58.9253 140.454 59.1623 139.978 59.6362 139.589C60.1144 139.2 60.7238 139.005 61.4644 139.005C62.243 139.005 62.8735 139.206 63.356 139.608C63.8426 140.01 64.0859 140.524 64.0859 141.15H62.9053C62.9053 140.829 62.7677 140.552 62.4927 140.319C62.2218 140.086 61.8791 139.97 61.4644 139.97C61.0369 139.97 60.7026 140.063 60.4614 140.249C60.2202 140.435 60.0996 140.679 60.0996 140.979C60.0996 141.263 60.2118 141.476 60.436 141.62C60.6603 141.764 61.0645 141.902 61.6484 142.033C62.2367 142.164 62.7127 142.32 63.0767 142.502C63.4406 142.684 63.7093 142.904 63.8828 143.163C64.0605 143.417 64.1494 143.728 64.1494 144.096C64.1494 144.709 63.904 145.202 63.4131 145.575C62.9222 145.943 62.2853 146.127 61.5024 146.127C60.9523 146.127 60.4657 146.03 60.0425 145.835C59.6193 145.64 59.2871 145.369 59.0459 145.022C58.8089 144.671 58.6904 144.292 58.6904 143.886H59.8647C59.8859 144.28 60.0425 144.593 60.3345 144.826C60.6307 145.054 61.02 145.168 61.5024 145.168C61.9468 145.168 62.3022 145.08 62.5688 144.902C62.8397 144.72 62.9751 144.479 62.9751 144.178ZM66.8535 139.963C67.374 139.324 68.0511 139.005 68.8848 139.005C70.3363 139.005 71.0684 139.824 71.0811 141.461V146H69.9067V141.455C69.9025 140.96 69.7882 140.594 69.564 140.357C69.3439 140.12 68.999 140.001 68.5293 140.001C68.1484 140.001 67.8141 140.103 67.5264 140.306C67.2386 140.509 67.0143 140.776 66.8535 141.106V146H65.6792V136.25H66.8535V139.963ZM17.0117 160.168C17.4307 160.168 17.7967 160.042 18.1099 159.788C18.423 159.534 18.5965 159.216 18.6304 158.835H19.7412C19.7201 159.229 19.5846 159.604 19.335 159.959C19.0853 160.314 18.751 160.598 18.332 160.81C17.9173 161.021 17.4772 161.127 17.0117 161.127C16.0765 161.127 15.3317 160.816 14.7773 160.194C14.2272 159.568 13.9521 158.713 13.9521 157.629V157.433C13.9521 156.764 14.0749 156.169 14.3203 155.649C14.5658 155.128 14.917 154.724 15.374 154.437C15.8353 154.149 16.3791 154.005 17.0054 154.005C17.7756 154.005 18.4146 154.236 18.9224 154.697C19.4344 155.158 19.7074 155.757 19.7412 156.493H18.6304C18.5965 156.049 18.4272 155.685 18.1226 155.401C17.8221 155.114 17.4497 154.97 17.0054 154.97C16.4087 154.97 15.9453 155.186 15.6152 155.617C15.2894 156.045 15.1265 156.665 15.1265 157.477V157.699C15.1265 158.491 15.2894 159.1 15.6152 159.527C15.9411 159.955 16.4066 160.168 17.0117 160.168ZM20.7505 157.502C20.7505 156.83 20.8817 156.224 21.144 155.687C21.4106 155.15 21.7788 154.735 22.2485 154.443C22.7225 154.151 23.262 154.005 23.8672 154.005C24.8024 154.005 25.5578 154.329 26.1333 154.976C26.7131 155.624 27.0029 156.485 27.0029 157.56V157.642C27.0029 158.311 26.8739 158.912 26.6157 159.445C26.3618 159.974 25.9958 160.386 25.5176 160.683C25.0436 160.979 24.4977 161.127 23.8799 161.127C22.9489 161.127 22.1935 160.803 21.6138 160.156C21.0382 159.508 20.7505 158.651 20.7505 157.585V157.502ZM21.9312 157.642C21.9312 158.404 22.1068 159.015 22.458 159.477C22.8135 159.938 23.2874 160.168 23.8799 160.168C24.4766 160.168 24.9505 159.936 25.3018 159.47C25.653 159 25.8286 158.345 25.8286 157.502C25.8286 156.749 25.6488 156.14 25.2891 155.674C24.9336 155.205 24.4596 154.97 23.8672 154.97C23.2874 154.97 22.8198 155.2 22.4644 155.662C22.1089 156.123 21.9312 156.783 21.9312 157.642ZM29.5864 154.132L29.6245 154.995C30.1493 154.335 30.8348 154.005 31.6812 154.005C33.1326 154.005 33.8647 154.824 33.8774 156.461V161H32.7031V156.455C32.6989 155.96 32.5846 155.594 32.3604 155.357C32.1403 155.12 31.7954 155.001 31.3257 155.001C30.9448 155.001 30.6105 155.103 30.3228 155.306C30.035 155.509 29.8107 155.776 29.6499 156.106V161H28.4756V154.132H29.5864ZM36.7593 154.132L36.7974 154.995C37.3221 154.335 38.0076 154.005 38.854 154.005C40.3055 154.005 41.0376 154.824 41.0503 156.461V161H39.876V156.455C39.8717 155.96 39.7575 155.594 39.5332 155.357C39.3132 155.12 38.9683 155.001 38.4985 155.001C38.1177 155.001 37.7834 155.103 37.4956 155.306C37.2078 155.509 36.9836 155.776 36.8228 156.106V161H35.6484V154.132H36.7593ZM45.6714 161.127C44.7404 161.127 43.9829 160.822 43.3989 160.213C42.8149 159.599 42.5229 158.78 42.5229 157.756V157.541C42.5229 156.859 42.652 156.252 42.9102 155.719C43.1725 155.181 43.5365 154.762 44.002 154.462C44.4717 154.157 44.9795 154.005 45.5254 154.005C46.4183 154.005 47.1123 154.299 47.6074 154.887C48.1025 155.475 48.3501 156.318 48.3501 157.414V157.902H43.6973C43.7142 158.579 43.911 159.127 44.2876 159.546C44.6685 159.961 45.1509 160.168 45.7349 160.168C46.1496 160.168 46.5008 160.084 46.7886 159.915C47.0763 159.745 47.3281 159.521 47.5439 159.242L48.2612 159.8C47.6857 160.685 46.8224 161.127 45.6714 161.127ZM45.5254 154.97C45.0514 154.97 44.6536 155.143 44.332 155.49C44.0104 155.833 43.8115 156.315 43.7354 156.938H47.1758V156.849C47.1419 156.252 46.9811 155.791 46.6934 155.465C46.4056 155.135 46.0163 154.97 45.5254 154.97ZM52.4697 160.168C52.8887 160.168 53.2547 160.042 53.5679 159.788C53.881 159.534 54.0545 159.216 54.0884 158.835H55.1992C55.1781 159.229 55.0426 159.604 54.793 159.959C54.5433 160.314 54.209 160.598 53.79 160.81C53.3753 161.021 52.9352 161.127 52.4697 161.127C51.5345 161.127 50.7897 160.816 50.2354 160.194C49.6852 159.568 49.4102 158.713 49.4102 157.629V157.433C49.4102 156.764 49.5329 156.169 49.7783 155.649C50.0238 155.128 50.375 154.724 50.832 154.437C51.2933 154.149 51.8371 154.005 52.4634 154.005C53.2336 154.005 53.8726 154.236 54.3804 154.697C54.8924 155.158 55.1654 155.757 55.1992 156.493H54.0884C54.0545 156.049 53.8853 155.685 53.5806 155.401C53.2801 155.114 52.9077 154.97 52.4634 154.97C51.8667 154.97 51.4033 155.186 51.0732 155.617C50.7474 156.045 50.5845 156.665 50.5845 157.477V157.699C50.5845 158.491 50.7474 159.1 51.0732 159.527C51.3991 159.955 51.8646 160.168 52.4697 160.168ZM58.1128 152.469V154.132H59.395V155.04H58.1128V159.299C58.1128 159.574 58.1699 159.781 58.2842 159.921C58.3984 160.056 58.5931 160.124 58.8682 160.124C59.0036 160.124 59.1898 160.099 59.4268 160.048V161C59.1178 161.085 58.8174 161.127 58.5254 161.127C58.0007 161.127 57.605 160.968 57.3384 160.651C57.0718 160.333 56.9385 159.883 56.9385 159.299V155.04H55.688V154.132H56.9385V152.469H58.1128ZM62.0483 161H60.874V154.132H62.0483V161ZM60.7788 152.31C60.7788 152.12 60.8359 151.959 60.9502 151.828C61.0687 151.696 61.2422 151.631 61.4707 151.631C61.6992 151.631 61.8727 151.696 61.9912 151.828C62.1097 151.959 62.1689 152.12 62.1689 152.31C62.1689 152.5 62.1097 152.659 61.9912 152.786C61.8727 152.913 61.6992 152.977 61.4707 152.977C61.2422 152.977 61.0687 152.913 60.9502 152.786C60.8359 152.659 60.7788 152.5 60.7788 152.31ZM63.6226 157.502C63.6226 156.83 63.7537 156.224 64.0161 155.687C64.2827 155.15 64.6509 154.735 65.1206 154.443C65.5946 154.151 66.1341 154.005 66.7393 154.005C67.6745 154.005 68.4299 154.329 69.0054 154.976C69.5851 155.624 69.875 156.485 69.875 157.56V157.642C69.875 158.311 69.7459 158.912 69.4878 159.445C69.2339 159.974 68.8678 160.386 68.3896 160.683C67.9157 160.979 67.3698 161.127 66.752 161.127C65.821 161.127 65.0656 160.803 64.4858 160.156C63.9103 159.508 63.6226 158.651 63.6226 157.585V157.502ZM64.8032 157.642C64.8032 158.404 64.9788 159.015 65.3301 159.477C65.6855 159.938 66.1595 160.168 66.752 160.168C67.3486 160.168 67.8226 159.936 68.1738 159.47C68.5251 159 68.7007 158.345 68.7007 157.502C68.7007 156.749 68.5208 156.14 68.1611 155.674C67.8057 155.205 67.3317 154.97 66.7393 154.97C66.1595 154.97 65.6919 155.2 65.3364 155.662C64.981 156.123 64.8032 156.783 64.8032 157.642ZM72.4585 154.132L72.4966 154.995C73.0213 154.335 73.7069 154.005 74.5532 154.005C76.0047 154.005 76.7368 154.824 76.7495 156.461V161H75.5752V156.455C75.571 155.96 75.4567 155.594 75.2324 155.357C75.0124 155.12 74.6675 155.001 74.1978 155.001C73.8169 155.001 73.4826 155.103 73.1948 155.306C72.9071 155.509 72.6828 155.776 72.522 156.106V161H71.3477V154.132H72.4585Z" fill="black"/>
<path d="M134.109 156V146.758H136.718C137.522 146.758 138.233 146.936 138.851 147.291C139.469 147.646 139.945 148.152 140.279 148.808C140.618 149.464 140.789 150.217 140.793 151.068V151.658C140.793 152.53 140.624 153.294 140.286 153.95C139.951 154.606 139.471 155.109 138.845 155.46C138.223 155.812 137.497 155.992 136.667 156H134.109ZM135.328 147.761V155.003H136.61C137.55 155.003 138.28 154.711 138.8 154.127C139.325 153.543 139.587 152.712 139.587 151.633V151.093C139.587 150.044 139.34 149.229 138.845 148.649C138.354 148.065 137.656 147.769 136.75 147.761H135.328ZM146.697 156C146.629 155.865 146.574 155.623 146.532 155.276C145.986 155.843 145.334 156.127 144.577 156.127C143.9 156.127 143.343 155.937 142.907 155.556C142.476 155.171 142.26 154.684 142.26 154.096C142.26 153.381 142.531 152.826 143.072 152.433C143.618 152.035 144.384 151.836 145.37 151.836H146.513V151.296C146.513 150.886 146.39 150.56 146.145 150.319C145.899 150.073 145.537 149.951 145.059 149.951C144.64 149.951 144.289 150.056 144.005 150.268C143.722 150.48 143.58 150.736 143.58 151.036H142.399C142.399 150.693 142.52 150.363 142.761 150.046C143.007 149.724 143.337 149.47 143.751 149.284C144.17 149.098 144.63 149.005 145.129 149.005C145.92 149.005 146.54 149.204 146.989 149.602C147.437 149.995 147.67 150.539 147.687 151.233V154.394C147.687 155.025 147.767 155.526 147.928 155.898V156H146.697ZM144.748 155.105C145.116 155.105 145.465 155.01 145.795 154.819C146.125 154.629 146.365 154.381 146.513 154.077V152.667H145.592C144.153 152.667 143.434 153.089 143.434 153.931C143.434 154.299 143.557 154.587 143.802 154.794C144.048 155.001 144.363 155.105 144.748 155.105ZM151.121 147.469V149.132H152.403V150.04H151.121V154.299C151.121 154.574 151.178 154.781 151.292 154.921C151.407 155.056 151.601 155.124 151.876 155.124C152.012 155.124 152.198 155.099 152.435 155.048V156C152.126 156.085 151.826 156.127 151.534 156.127C151.009 156.127 150.613 155.968 150.347 155.651C150.08 155.333 149.947 154.883 149.947 154.299V150.04H148.696V149.132H149.947V147.469H151.121ZM158.021 156C157.953 155.865 157.898 155.623 157.856 155.276C157.31 155.843 156.658 156.127 155.901 156.127C155.224 156.127 154.667 155.937 154.231 155.556C153.8 155.171 153.584 154.684 153.584 154.096C153.584 153.381 153.855 152.826 154.396 152.433C154.942 152.035 155.708 151.836 156.694 151.836H157.837V151.296C157.837 150.886 157.714 150.56 157.469 150.319C157.223 150.073 156.861 149.951 156.383 149.951C155.964 149.951 155.613 150.056 155.33 150.268C155.046 150.48 154.904 150.736 154.904 151.036H153.724C153.724 150.693 153.844 150.363 154.085 150.046C154.331 149.724 154.661 149.47 155.076 149.284C155.495 149.098 155.954 149.005 156.453 149.005C157.244 149.005 157.864 149.204 158.313 149.602C158.762 149.995 158.994 150.539 159.011 151.233V154.394C159.011 155.025 159.092 155.526 159.252 155.898V156H158.021ZM156.072 155.105C156.44 155.105 156.79 155.01 157.12 154.819C157.45 154.629 157.689 154.381 157.837 154.077V152.667H156.917C155.478 152.667 154.758 153.089 154.758 153.931C154.758 154.299 154.881 154.587 155.126 154.794C155.372 155.001 155.687 155.105 156.072 155.105Z" fill="#FF0000"/>
<path d="M226.293 250.707C226.683 251.098 227.317 251.098 227.707 250.707L234.071 244.343C234.462 243.953 234.462 243.319 234.071 242.929C233.681 242.538 233.047 242.538 232.657 242.929L227 248.586L221.343 242.929C220.953 242.538 220.319 242.538 219.929 242.929C219.538 243.319 219.538 243.953 219.929 244.343L226.293 250.707ZM226 47L226 250H228L228 47H226Z" fill="#FF0000"/>
<path d="M302.293 250.707C302.683 251.098 303.317 251.098 303.707 250.707L310.071 244.343C310.462 243.953 310.462 243.319 310.071 242.929C309.681 242.538 309.047 242.538 308.657 242.929L303 248.586L297.343 242.929C296.953 242.538 296.319 242.538 295.929 242.929C295.538 243.319 295.538 243.953 295.929 244.343L302.293 250.707ZM302 47V250H304V47H302Z" fill="#FF0000"/>
<path d="M378.293 250.707C378.683 251.098 379.317 251.098 379.707 250.707L386.071 244.343C386.462 243.953 386.462 243.319 386.071 242.929C385.681 242.538 385.047 242.538 384.657 242.929L379 248.586L373.343 242.929C372.953 242.538 372.319 242.538 371.929 242.929C371.538 243.319 371.538 243.953 371.929 244.343L378.293 250.707ZM378 47V250H380V47H378Z" fill="#FF0000"/>
<path d="M454.293 250.707C454.683 251.098 455.317 251.098 455.707 250.707L462.071 244.343C462.462 243.953 462.462 243.319 462.071 242.929C461.681 242.538 461.047 242.538 460.657 242.929L455 248.586L449.343 242.929C448.953 242.538 448.319 242.538 447.929 242.929C447.538 243.319 447.538 243.953 447.929 244.343L454.293 250.707ZM454 47L454 250H456L456 47H454Z" fill="#FF0000"/>
<path d="M503.293 250.707C503.683 251.098 504.317 251.098 504.707 250.707L511.071 244.343C511.462 243.953 511.462 243.319 511.071 242.929C510.681 242.538 510.047 242.538 509.657 242.929L504 248.586L498.343 242.929C497.953 242.538 497.319 242.538 496.929 242.929C496.538 243.319 496.538 243.953 496.929 244.343L503.293 250.707ZM503 47V250H505V47H503Z" fill="#FF0000"/>
<path d="M538.293 250.707C538.683 251.098 539.317 251.098 539.707 250.707L546.071 244.343C546.462 243.953 546.462 243.319 546.071 242.929C545.681 242.538 545.047 242.538 544.657 242.929L539 248.586L533.343 242.929C532.953 242.538 532.319 242.538 531.929 242.929C531.538 243.319 531.538 243.953 531.929 244.343L538.293 250.707ZM538 47V250H540V47H538Z" fill="#FF0000"/>
</svg>
