<svg width="600" height="300" viewBox="0 0 600 300" fill="none" xmlns="http://www.w3.org/2000/svg">
<rect width="600" height="300" fill="white"/>
<rect x="100.5" y="100.5" width="99" height="99" rx="3.5" fill="white" stroke="black"/>
<rect x="400.5" y="100.5" width="99" height="99" rx="3.5" fill="white" stroke="black"/>
<line x1="301" y1="10" x2="301" y2="290" stroke="black" stroke-width="2"/>
<path d="M114.193 151.219C114.193 149.715 114.395 148.289 114.799 146.941C115.202 145.587 115.795 144.38 116.576 143.318C117.357 142.251 118.184 141.502 119.057 141.072L119.525 142.459C118.607 143.156 117.862 144.22 117.289 145.652C116.723 147.078 116.413 148.712 116.361 150.555L116.352 151.395C116.352 153.367 116.628 155.128 117.182 156.678C117.742 158.221 118.523 159.396 119.525 160.203L119.057 161.521C118.184 161.092 117.354 160.34 116.566 159.266C115.785 158.198 115.193 156.993 114.789 155.652C114.392 154.305 114.193 152.827 114.193 151.219ZM123.832 151.717V157H121.361V142.781H126.801C128.389 142.781 129.649 143.195 130.58 144.021C131.518 144.848 131.986 145.942 131.986 147.303C131.986 148.696 131.527 149.78 130.609 150.555C129.698 151.329 128.419 151.717 126.771 151.717H123.832ZM123.832 149.734H126.801C127.68 149.734 128.35 149.529 128.812 149.119C129.275 148.702 129.506 148.104 129.506 147.322C129.506 146.554 129.271 145.942 128.803 145.486C128.334 145.024 127.689 144.786 126.869 144.773H123.832V149.734ZM134.154 157V142.781H139.027C140.635 142.781 141.859 143.104 142.699 143.748C143.539 144.393 143.959 145.353 143.959 146.629C143.959 147.28 143.783 147.866 143.432 148.387C143.08 148.908 142.566 149.311 141.889 149.598C142.657 149.806 143.249 150.2 143.666 150.779C144.089 151.352 144.301 152.042 144.301 152.85C144.301 154.184 143.871 155.21 143.012 155.926C142.159 156.642 140.935 157 139.34 157H134.154ZM136.625 150.584V155.027H139.369C140.144 155.027 140.749 154.835 141.186 154.451C141.622 154.067 141.84 153.533 141.84 152.85C141.84 151.372 141.085 150.617 139.574 150.584H136.625ZM136.625 148.768H139.047C139.815 148.768 140.414 148.595 140.844 148.25C141.28 147.898 141.498 147.404 141.498 146.766C141.498 146.062 141.296 145.555 140.893 145.242C140.495 144.93 139.874 144.773 139.027 144.773H136.625V148.768ZM151.117 151.375C151.117 152.82 150.919 154.217 150.521 155.564C150.124 156.906 149.522 158.126 148.715 159.227C147.908 160.333 147.064 161.098 146.186 161.521L145.717 160.203C146.693 159.448 147.465 158.296 148.031 156.746C148.604 155.19 148.891 153.416 148.891 151.424V151.199C148.891 149.389 148.643 147.742 148.148 146.258C147.654 144.767 146.944 143.572 146.02 142.674L145.717 142.4L146.186 141.072C147.019 141.476 147.826 142.192 148.607 143.221C149.389 144.249 149.988 145.402 150.404 146.678C150.821 147.947 151.055 149.259 151.107 150.613L151.117 151.375ZM157.904 150.857L156.293 152.566V157H153.822V142.781H156.293V149.451L157.66 147.762L161.82 142.781H164.809L159.525 149.08L165.111 157H162.182L157.904 150.857ZM166.439 157V142.781H170.639C171.895 142.781 173.008 143.061 173.979 143.621C174.955 144.181 175.71 144.975 176.244 146.004C176.778 147.033 177.045 148.211 177.045 149.539V150.252C177.045 151.6 176.775 152.785 176.234 153.807C175.701 154.829 174.936 155.617 173.939 156.17C172.95 156.723 171.814 157 170.531 157H166.439ZM168.91 144.773V155.027H170.521C171.817 155.027 172.81 154.624 173.5 153.816C174.197 153.003 174.551 151.837 174.564 150.32V149.529C174.564 147.986 174.229 146.808 173.559 145.994C172.888 145.18 171.915 144.773 170.639 144.773H168.91ZM187.699 150.975H181.977V157H179.506V142.781H188.539V144.773H181.977V149.002H187.699V150.975Z" fill="black"/>
<path d="M437.188 150.857L435.576 152.566V157H433.105V142.781H435.576V149.451L436.943 147.762L441.104 142.781H444.092L438.809 149.08L444.395 157H441.465L437.188 150.857ZM445.723 157V142.781H449.922C451.178 142.781 452.292 143.061 453.262 143.621C454.238 144.181 454.993 144.975 455.527 146.004C456.061 147.033 456.328 148.211 456.328 149.539V150.252C456.328 151.6 456.058 152.785 455.518 153.807C454.984 154.829 454.219 155.617 453.223 156.17C452.233 156.723 451.097 157 449.814 157H445.723ZM448.193 144.773V155.027H449.805C451.1 155.027 452.093 154.624 452.783 153.816C453.48 153.003 453.835 151.837 453.848 150.32V149.529C453.848 147.986 453.512 146.808 452.842 145.994C452.171 145.18 451.198 144.773 449.922 144.773H448.193ZM466.982 150.975H461.26V157H458.789V142.781H467.822V144.773H461.26V149.002H466.982V150.975Z" fill="black"/>
<path d="M122.744 216.66H117.383L116.179 220H114.438L119.325 207.203H120.802L125.697 220H123.966L122.744 216.66ZM117.893 215.271H122.243L120.063 209.286L117.893 215.271ZM131.762 211.949C131.516 211.908 131.249 211.888 130.962 211.888C129.896 211.888 129.172 212.342 128.791 213.25V220H127.165V210.49H128.747L128.773 211.589C129.307 210.739 130.062 210.314 131.041 210.314C131.357 210.314 131.598 210.355 131.762 210.438V211.949ZM132.702 215.166C132.702 213.684 133.045 212.506 133.73 211.633C134.416 210.754 135.324 210.314 136.455 210.314C137.615 210.314 138.521 210.725 139.171 211.545L139.25 210.49H140.735V219.771C140.735 221.002 140.369 221.972 139.637 222.681C138.91 223.39 137.932 223.744 136.701 223.744C136.016 223.744 135.345 223.598 134.688 223.305C134.032 223.012 133.531 222.61 133.186 222.101L134.029 221.125C134.727 221.986 135.579 222.417 136.587 222.417C137.378 222.417 137.993 222.194 138.433 221.749C138.878 221.304 139.101 220.677 139.101 219.868V219.051C138.45 219.801 137.562 220.176 136.438 220.176C135.324 220.176 134.422 219.728 133.73 218.831C133.045 217.935 132.702 216.713 132.702 215.166ZM134.337 215.351C134.337 216.423 134.557 217.267 134.996 217.882C135.436 218.491 136.051 218.796 136.842 218.796C137.867 218.796 138.62 218.33 139.101 217.398V213.057C138.603 212.148 137.855 211.694 136.859 211.694C136.068 211.694 135.45 212.002 135.005 212.617C134.56 213.232 134.337 214.144 134.337 215.351ZM142.766 215.157C142.766 214.226 142.947 213.388 143.311 212.644C143.68 211.899 144.189 211.325 144.84 210.921C145.496 210.517 146.243 210.314 147.081 210.314C148.376 210.314 149.422 210.763 150.219 211.659C151.021 212.556 151.423 213.748 151.423 215.236V215.351C151.423 216.276 151.244 217.108 150.887 217.847C150.535 218.579 150.028 219.15 149.366 219.561C148.71 219.971 147.954 220.176 147.099 220.176C145.81 220.176 144.764 219.728 143.961 218.831C143.164 217.935 142.766 216.748 142.766 215.271V215.157ZM144.4 215.351C144.4 216.405 144.644 217.252 145.13 217.891C145.622 218.529 146.278 218.849 147.099 218.849C147.925 218.849 148.581 218.526 149.067 217.882C149.554 217.231 149.797 216.323 149.797 215.157C149.797 214.114 149.548 213.271 149.05 212.626C148.558 211.976 147.901 211.65 147.081 211.65C146.278 211.65 145.631 211.97 145.139 212.608C144.646 213.247 144.4 214.161 144.4 215.351ZM155 210.49L155.053 211.686C155.779 210.771 156.729 210.314 157.9 210.314C159.91 210.314 160.924 211.448 160.941 213.716V220H159.315V213.707C159.31 213.021 159.151 212.515 158.841 212.187C158.536 211.858 158.059 211.694 157.408 211.694C156.881 211.694 156.418 211.835 156.02 212.116C155.621 212.397 155.311 212.767 155.088 213.224V220H153.462V210.49H155ZM171.611 220H163.227V218.831L167.656 213.909C168.312 213.165 168.764 212.562 169.01 212.099C169.262 211.63 169.388 211.146 169.388 210.648C169.388 209.98 169.186 209.433 168.781 209.005C168.377 208.577 167.838 208.363 167.164 208.363C166.355 208.363 165.726 208.595 165.274 209.058C164.829 209.515 164.606 210.153 164.606 210.974H162.98C162.98 209.796 163.358 208.844 164.114 208.117C164.876 207.391 165.893 207.027 167.164 207.027C168.354 207.027 169.294 207.341 169.985 207.968C170.677 208.589 171.022 209.418 171.022 210.455C171.022 211.715 170.22 213.215 168.614 214.955L165.187 218.673H171.611V220ZM175.268 220H173.642V210.49H175.268V220ZM173.51 207.968C173.51 207.704 173.589 207.481 173.747 207.3C173.911 207.118 174.151 207.027 174.468 207.027C174.784 207.027 175.024 207.118 175.188 207.3C175.353 207.481 175.435 207.704 175.435 207.968C175.435 208.231 175.353 208.451 175.188 208.627C175.024 208.803 174.784 208.891 174.468 208.891C174.151 208.891 173.911 208.803 173.747 208.627C173.589 208.451 173.51 208.231 173.51 207.968ZM177.482 215.166C177.482 213.707 177.828 212.535 178.52 211.65C179.211 210.76 180.116 210.314 181.235 210.314C182.349 210.314 183.23 210.695 183.881 211.457V206.5H185.507V220H184.013L183.934 218.98C183.283 219.777 182.378 220.176 181.218 220.176C180.116 220.176 179.217 219.725 178.52 218.822C177.828 217.92 177.482 216.742 177.482 215.289V215.166ZM179.108 215.351C179.108 216.429 179.331 217.272 179.776 217.882C180.222 218.491 180.837 218.796 181.622 218.796C182.653 218.796 183.406 218.333 183.881 217.407V213.039C183.395 212.143 182.647 211.694 181.64 211.694C180.843 211.694 180.222 212.002 179.776 212.617C179.331 213.232 179.108 214.144 179.108 215.351Z" fill="black"/>
<path d="M418.94 220V207.203H423.124C424.513 207.203 425.556 207.49 426.253 208.064C426.956 208.639 427.308 209.488 427.308 210.613C427.308 211.211 427.138 211.741 426.798 212.204C426.458 212.661 425.995 213.016 425.409 213.268C426.101 213.461 426.646 213.83 427.044 214.375C427.448 214.914 427.65 215.559 427.65 216.309C427.65 217.457 427.278 218.359 426.534 219.016C425.79 219.672 424.738 220 423.379 220H418.94ZM420.628 214.015V218.62H423.414C424.199 218.62 424.817 218.418 425.269 218.014C425.726 217.604 425.954 217.041 425.954 216.326C425.954 214.785 425.116 214.015 423.44 214.015H420.628ZM420.628 212.661H423.177C423.915 212.661 424.504 212.477 424.943 212.107C425.389 211.738 425.611 211.237 425.611 210.604C425.611 209.901 425.406 209.392 424.996 209.075C424.586 208.753 423.962 208.592 423.124 208.592H420.628V212.661ZM431.667 220H430.041V206.5H431.667V220ZM440.148 220C440.055 219.812 439.979 219.479 439.92 218.998C439.164 219.783 438.262 220.176 437.213 220.176C436.275 220.176 435.505 219.912 434.901 219.385C434.304 218.852 434.005 218.178 434.005 217.363C434.005 216.373 434.38 215.605 435.13 215.061C435.886 214.51 436.946 214.234 438.312 214.234H439.894V213.487C439.894 212.919 439.724 212.468 439.384 212.134C439.044 211.794 438.543 211.624 437.881 211.624C437.301 211.624 436.814 211.771 436.422 212.063C436.029 212.356 435.833 212.711 435.833 213.127H434.198C434.198 212.652 434.365 212.195 434.699 211.756C435.039 211.311 435.496 210.959 436.07 210.701C436.65 210.443 437.286 210.314 437.978 210.314C439.073 210.314 439.932 210.59 440.553 211.141C441.174 211.686 441.496 212.438 441.52 213.399V217.776C441.52 218.649 441.631 219.344 441.854 219.859V220H440.148ZM437.45 218.761C437.96 218.761 438.443 218.629 438.9 218.365C439.357 218.102 439.688 217.759 439.894 217.337V215.386H438.619C436.627 215.386 435.631 215.969 435.631 217.135C435.631 217.645 435.801 218.043 436.141 218.33C436.48 218.617 436.917 218.761 437.45 218.761ZM446.723 215.597L445.703 216.66V220H444.077V206.5H445.703V214.665L446.573 213.619L449.535 210.49H451.513L447.812 214.463L451.943 220H450.036L446.723 215.597ZM456.962 220.176C455.673 220.176 454.624 219.754 453.815 218.91C453.007 218.061 452.603 216.927 452.603 215.509V215.21C452.603 214.267 452.781 213.426 453.139 212.688C453.502 211.943 454.006 211.363 454.65 210.947C455.301 210.525 456.004 210.314 456.76 210.314C457.996 210.314 458.957 210.722 459.643 211.536C460.328 212.351 460.671 213.517 460.671 215.034V215.711H454.229C454.252 216.648 454.524 217.407 455.046 217.987C455.573 218.562 456.241 218.849 457.05 218.849C457.624 218.849 458.11 218.731 458.509 218.497C458.907 218.263 459.256 217.952 459.555 217.565L460.548 218.339C459.751 219.563 458.556 220.176 456.962 220.176ZM456.76 211.65C456.104 211.65 455.553 211.891 455.107 212.371C454.662 212.846 454.387 213.514 454.281 214.375H459.045V214.252C458.998 213.426 458.775 212.787 458.377 212.336C457.979 211.879 457.439 211.65 456.76 211.65ZM470.778 220H462.394V218.831L466.823 213.909C467.479 213.165 467.931 212.562 468.177 212.099C468.429 211.63 468.555 211.146 468.555 210.648C468.555 209.98 468.353 209.433 467.948 209.005C467.544 208.577 467.005 208.363 466.331 208.363C465.522 208.363 464.893 208.595 464.441 209.058C463.996 209.515 463.773 210.153 463.773 210.974H462.147C462.147 209.796 462.525 208.844 463.281 208.117C464.043 207.391 465.06 207.027 466.331 207.027C467.521 207.027 468.461 207.341 469.152 207.968C469.844 208.589 470.189 209.418 470.189 210.455C470.189 211.715 469.387 213.215 467.781 214.955L464.354 218.673H470.778V220ZM480.719 215.351C480.719 216.804 480.385 217.973 479.717 218.857C479.049 219.736 478.152 220.176 477.027 220.176C475.826 220.176 474.897 219.751 474.241 218.901L474.162 220H472.668V206.5H474.294V211.536C474.95 210.722 475.855 210.314 477.01 210.314C478.164 210.314 479.069 210.751 479.726 211.624C480.388 212.497 480.719 213.692 480.719 215.21V215.351ZM479.093 215.166C479.093 214.059 478.879 213.203 478.451 212.6C478.023 211.996 477.408 211.694 476.605 211.694C475.533 211.694 474.763 212.192 474.294 213.188V217.302C474.792 218.298 475.568 218.796 476.623 218.796C477.402 218.796 478.009 218.494 478.442 217.891C478.876 217.287 479.093 216.379 479.093 215.166Z" fill="black"/>
<path d="M94.4971 277H92.8008V271.085H86.3496V277H84.6621V264.203H86.3496V269.705H92.8008V264.203H94.4971V277ZM99.0059 277H97.3799V267.49H99.0059V277ZM97.248 264.968C97.248 264.704 97.3271 264.481 97.4854 264.3C97.6494 264.118 97.8896 264.027 98.2061 264.027C98.5225 264.027 98.7627 264.118 98.9268 264.3C99.0908 264.481 99.1729 264.704 99.1729 264.968C99.1729 265.231 99.0908 265.451 98.9268 265.627C98.7627 265.803 98.5225 265.891 98.2061 265.891C97.8896 265.891 97.6494 265.803 97.4854 265.627C97.3271 265.451 97.248 265.231 97.248 264.968ZM101.229 272.166C101.229 270.684 101.572 269.506 102.258 268.633C102.943 267.754 103.852 267.314 104.982 267.314C106.143 267.314 107.048 267.725 107.698 268.545L107.777 267.49H109.263V276.771C109.263 278.002 108.896 278.972 108.164 279.681C107.438 280.39 106.459 280.744 105.229 280.744C104.543 280.744 103.872 280.598 103.216 280.305C102.56 280.012 102.059 279.61 101.713 279.101L102.557 278.125C103.254 278.986 104.106 279.417 105.114 279.417C105.905 279.417 106.521 279.194 106.96 278.749C107.405 278.304 107.628 277.677 107.628 276.868V276.051C106.978 276.801 106.09 277.176 104.965 277.176C103.852 277.176 102.949 276.728 102.258 275.831C101.572 274.935 101.229 273.713 101.229 272.166ZM102.864 272.351C102.864 273.423 103.084 274.267 103.523 274.882C103.963 275.491 104.578 275.796 105.369 275.796C106.395 275.796 107.147 275.33 107.628 274.398V270.057C107.13 269.148 106.383 268.694 105.387 268.694C104.596 268.694 103.978 269.002 103.532 269.617C103.087 270.232 102.864 271.144 102.864 272.351ZM113.35 268.642C114.07 267.757 115.008 267.314 116.162 267.314C118.172 267.314 119.186 268.448 119.203 270.716V277H117.577V270.707C117.571 270.021 117.413 269.515 117.103 269.187C116.798 268.858 116.32 268.694 115.67 268.694C115.143 268.694 114.68 268.835 114.281 269.116C113.883 269.397 113.572 269.767 113.35 270.224V277H111.724V263.5H113.35V268.642ZM125.021 272.228H120.732V270.9H125.021V272.228ZM130.559 277.176C129.27 277.176 128.221 276.754 127.412 275.91C126.604 275.061 126.199 273.927 126.199 272.509V272.21C126.199 271.267 126.378 270.426 126.735 269.688C127.099 268.943 127.603 268.363 128.247 267.947C128.897 267.525 129.601 267.314 130.356 267.314C131.593 267.314 132.554 267.722 133.239 268.536C133.925 269.351 134.268 270.517 134.268 272.034V272.711H127.825C127.849 273.648 128.121 274.407 128.643 274.987C129.17 275.562 129.838 275.849 130.646 275.849C131.221 275.849 131.707 275.731 132.105 275.497C132.504 275.263 132.853 274.952 133.151 274.565L134.145 275.339C133.348 276.563 132.152 277.176 130.559 277.176ZM130.356 268.65C129.7 268.65 129.149 268.891 128.704 269.371C128.259 269.846 127.983 270.514 127.878 271.375H132.642V271.252C132.595 270.426 132.372 269.787 131.974 269.336C131.575 268.879 131.036 268.65 130.356 268.65ZM137.695 267.49L137.748 268.686C138.475 267.771 139.424 267.314 140.596 267.314C142.605 267.314 143.619 268.448 143.637 270.716V277H142.011V270.707C142.005 270.021 141.847 269.515 141.536 269.187C141.231 268.858 140.754 268.694 140.104 268.694C139.576 268.694 139.113 268.835 138.715 269.116C138.316 269.397 138.006 269.767 137.783 270.224V277H136.157V267.49H137.695ZM148.295 265.188V267.49H150.07V268.747H148.295V274.645C148.295 275.025 148.374 275.312 148.532 275.506C148.69 275.693 148.96 275.787 149.341 275.787C149.528 275.787 149.786 275.752 150.114 275.682V277C149.687 277.117 149.271 277.176 148.866 277.176C148.14 277.176 147.592 276.956 147.223 276.517C146.854 276.077 146.669 275.453 146.669 274.645V268.747H144.938V267.49H146.669V265.188H148.295ZM156.574 268.949C156.328 268.908 156.062 268.888 155.774 268.888C154.708 268.888 153.984 269.342 153.604 270.25V277H151.978V267.49H153.56L153.586 268.589C154.119 267.739 154.875 267.314 155.854 267.314C156.17 267.314 156.41 267.355 156.574 267.438V268.949ZM157.471 272.157C157.471 271.226 157.652 270.388 158.016 269.644C158.385 268.899 158.895 268.325 159.545 267.921C160.201 267.517 160.948 267.314 161.786 267.314C163.081 267.314 164.127 267.763 164.924 268.659C165.727 269.556 166.128 270.748 166.128 272.236V272.351C166.128 273.276 165.949 274.108 165.592 274.847C165.24 275.579 164.733 276.15 164.071 276.561C163.415 276.971 162.659 277.176 161.804 277.176C160.515 277.176 159.469 276.728 158.666 275.831C157.869 274.935 157.471 273.748 157.471 272.271V272.157ZM159.105 272.351C159.105 273.405 159.349 274.252 159.835 274.891C160.327 275.529 160.983 275.849 161.804 275.849C162.63 275.849 163.286 275.526 163.772 274.882C164.259 274.231 164.502 273.323 164.502 272.157C164.502 271.114 164.253 270.271 163.755 269.626C163.263 268.976 162.606 268.65 161.786 268.65C160.983 268.65 160.336 268.97 159.844 269.608C159.352 270.247 159.105 271.161 159.105 272.351ZM176.2 272.351C176.2 273.798 175.869 274.964 175.207 275.849C174.545 276.733 173.648 277.176 172.518 277.176C171.363 277.176 170.455 276.81 169.793 276.077V280.656H168.167V267.49H169.652L169.731 268.545C170.394 267.725 171.313 267.314 172.491 267.314C173.634 267.314 174.536 267.745 175.198 268.606C175.866 269.468 176.2 270.666 176.2 272.201V272.351ZM174.574 272.166C174.574 271.094 174.346 270.247 173.889 269.626C173.432 269.005 172.805 268.694 172.008 268.694C171.023 268.694 170.285 269.131 169.793 270.004V274.548C170.279 275.415 171.023 275.849 172.025 275.849C172.805 275.849 173.423 275.541 173.88 274.926C174.343 274.305 174.574 273.385 174.574 272.166ZM181.28 274.618L183.495 267.49H185.235L181.412 278.468C180.82 280.05 179.88 280.841 178.591 280.841L178.283 280.814L177.677 280.7V279.382L178.116 279.417C178.667 279.417 179.095 279.306 179.399 279.083C179.71 278.86 179.965 278.453 180.164 277.861L180.524 276.895L177.132 267.49H178.907L181.28 274.618ZM193.813 272.597L192.794 273.66V277H191.168V263.5H192.794V271.665L193.664 270.619L196.626 267.49H198.604L194.903 271.463L199.034 277H197.127L193.813 272.597ZM204.053 277.176C202.764 277.176 201.715 276.754 200.906 275.91C200.098 275.061 199.693 273.927 199.693 272.509V272.21C199.693 271.267 199.872 270.426 200.229 269.688C200.593 268.943 201.097 268.363 201.741 267.947C202.392 267.525 203.095 267.314 203.851 267.314C205.087 267.314 206.048 267.722 206.733 268.536C207.419 269.351 207.762 270.517 207.762 272.034V272.711H201.319C201.343 273.648 201.615 274.407 202.137 274.987C202.664 275.562 203.332 275.849 204.141 275.849C204.715 275.849 205.201 275.731 205.6 275.497C205.998 275.263 206.347 274.952 206.646 274.565L207.639 275.339C206.842 276.563 205.646 277.176 204.053 277.176ZM203.851 268.65C203.194 268.65 202.644 268.891 202.198 269.371C201.753 269.846 201.478 270.514 201.372 271.375H206.136V271.252C206.089 270.426 205.866 269.787 205.468 269.336C205.069 268.879 204.53 268.65 203.851 268.65ZM212.64 274.618L214.854 267.49H216.595L212.771 278.468C212.18 280.05 211.239 280.841 209.95 280.841L209.643 280.814L209.036 280.7V279.382L209.476 279.417C210.026 279.417 210.454 279.306 210.759 279.083C211.069 278.86 211.324 278.453 211.523 277.861L211.884 276.895L208.491 267.49H210.267L212.64 274.618Z" fill="black"/>
<path d="M394.497 277H392.801V271.085H386.35V277H384.662V264.203H386.35V269.705H392.801V264.203H394.497V277ZM399.006 277H397.38V267.49H399.006V277ZM397.248 264.968C397.248 264.704 397.327 264.481 397.485 264.3C397.649 264.118 397.89 264.027 398.206 264.027C398.522 264.027 398.763 264.118 398.927 264.3C399.091 264.481 399.173 264.704 399.173 264.968C399.173 265.231 399.091 265.451 398.927 265.627C398.763 265.803 398.522 265.891 398.206 265.891C397.89 265.891 397.649 265.803 397.485 265.627C397.327 265.451 397.248 265.231 397.248 264.968ZM401.229 272.166C401.229 270.684 401.572 269.506 402.258 268.633C402.943 267.754 403.852 267.314 404.982 267.314C406.143 267.314 407.048 267.725 407.698 268.545L407.777 267.49H409.263V276.771C409.263 278.002 408.896 278.972 408.164 279.681C407.438 280.39 406.459 280.744 405.229 280.744C404.543 280.744 403.872 280.598 403.216 280.305C402.56 280.012 402.059 279.61 401.713 279.101L402.557 278.125C403.254 278.986 404.106 279.417 405.114 279.417C405.905 279.417 406.521 279.194 406.96 278.749C407.405 278.304 407.628 277.677 407.628 276.868V276.051C406.978 276.801 406.09 277.176 404.965 277.176C403.852 277.176 402.949 276.728 402.258 275.831C401.572 274.935 401.229 273.713 401.229 272.166ZM402.864 272.351C402.864 273.423 403.084 274.267 403.523 274.882C403.963 275.491 404.578 275.796 405.369 275.796C406.395 275.796 407.147 275.33 407.628 274.398V270.057C407.13 269.148 406.383 268.694 405.387 268.694C404.596 268.694 403.978 269.002 403.532 269.617C403.087 270.232 402.864 271.144 402.864 272.351ZM413.35 268.642C414.07 267.757 415.008 267.314 416.162 267.314C418.172 267.314 419.186 268.448 419.203 270.716V277H417.577V270.707C417.571 270.021 417.413 269.515 417.103 269.187C416.798 268.858 416.32 268.694 415.67 268.694C415.143 268.694 414.68 268.835 414.281 269.116C413.883 269.397 413.572 269.767 413.35 270.224V277H411.724V263.5H413.35V268.642ZM425.021 272.228H420.732V270.9H425.021V272.228ZM430.559 277.176C429.27 277.176 428.221 276.754 427.412 275.91C426.604 275.061 426.199 273.927 426.199 272.509V272.21C426.199 271.267 426.378 270.426 426.735 269.688C427.099 268.943 427.603 268.363 428.247 267.947C428.897 267.525 429.601 267.314 430.356 267.314C431.593 267.314 432.554 267.722 433.239 268.536C433.925 269.351 434.268 270.517 434.268 272.034V272.711H427.825C427.849 273.648 428.121 274.407 428.643 274.987C429.17 275.562 429.838 275.849 430.646 275.849C431.221 275.849 431.707 275.731 432.105 275.497C432.504 275.263 432.853 274.952 433.151 274.565L434.145 275.339C433.348 276.563 432.152 277.176 430.559 277.176ZM430.356 268.65C429.7 268.65 429.149 268.891 428.704 269.371C428.259 269.846 427.983 270.514 427.878 271.375H432.642V271.252C432.595 270.426 432.372 269.787 431.974 269.336C431.575 268.879 431.036 268.65 430.356 268.65ZM437.695 267.49L437.748 268.686C438.475 267.771 439.424 267.314 440.596 267.314C442.605 267.314 443.619 268.448 443.637 270.716V277H442.011V270.707C442.005 270.021 441.847 269.515 441.536 269.187C441.231 268.858 440.754 268.694 440.104 268.694C439.576 268.694 439.113 268.835 438.715 269.116C438.316 269.397 438.006 269.767 437.783 270.224V277H436.157V267.49H437.695ZM448.295 265.188V267.49H450.07V268.747H448.295V274.645C448.295 275.025 448.374 275.312 448.532 275.506C448.69 275.693 448.96 275.787 449.341 275.787C449.528 275.787 449.786 275.752 450.114 275.682V277C449.687 277.117 449.271 277.176 448.866 277.176C448.14 277.176 447.592 276.956 447.223 276.517C446.854 276.077 446.669 275.453 446.669 274.645V268.747H444.938V267.49H446.669V265.188H448.295ZM456.574 268.949C456.328 268.908 456.062 268.888 455.774 268.888C454.708 268.888 453.984 269.342 453.604 270.25V277H451.978V267.49H453.56L453.586 268.589C454.119 267.739 454.875 267.314 455.854 267.314C456.17 267.314 456.41 267.355 456.574 267.438V268.949ZM457.471 272.157C457.471 271.226 457.652 270.388 458.016 269.644C458.385 268.899 458.895 268.325 459.545 267.921C460.201 267.517 460.948 267.314 461.786 267.314C463.081 267.314 464.127 267.763 464.924 268.659C465.727 269.556 466.128 270.748 466.128 272.236V272.351C466.128 273.276 465.949 274.108 465.592 274.847C465.24 275.579 464.733 276.15 464.071 276.561C463.415 276.971 462.659 277.176 461.804 277.176C460.515 277.176 459.469 276.728 458.666 275.831C457.869 274.935 457.471 273.748 457.471 272.271V272.157ZM459.105 272.351C459.105 273.405 459.349 274.252 459.835 274.891C460.327 275.529 460.983 275.849 461.804 275.849C462.63 275.849 463.286 275.526 463.772 274.882C464.259 274.231 464.502 273.323 464.502 272.157C464.502 271.114 464.253 270.271 463.755 269.626C463.263 268.976 462.606 268.65 461.786 268.65C460.983 268.65 460.336 268.97 459.844 269.608C459.352 270.247 459.105 271.161 459.105 272.351ZM476.2 272.351C476.2 273.798 475.869 274.964 475.207 275.849C474.545 276.733 473.648 277.176 472.518 277.176C471.363 277.176 470.455 276.81 469.793 276.077V280.656H468.167V267.49H469.652L469.731 268.545C470.394 267.725 471.313 267.314 472.491 267.314C473.634 267.314 474.536 267.745 475.198 268.606C475.866 269.468 476.2 270.666 476.2 272.201V272.351ZM474.574 272.166C474.574 271.094 474.346 270.247 473.889 269.626C473.432 269.005 472.805 268.694 472.008 268.694C471.023 268.694 470.285 269.131 469.793 270.004V274.548C470.279 275.415 471.023 275.849 472.025 275.849C472.805 275.849 473.423 275.541 473.88 274.926C474.343 274.305 474.574 273.385 474.574 272.166ZM481.28 274.618L483.495 267.49H485.235L481.412 278.468C480.82 280.05 479.88 280.841 478.591 280.841L478.283 280.814L477.677 280.7V279.382L478.116 279.417C478.667 279.417 479.095 279.306 479.399 279.083C479.71 278.86 479.965 278.453 480.164 277.861L480.524 276.895L477.132 267.49H478.907L481.28 274.618ZM493.813 272.597L492.794 273.66V277H491.168V263.5H492.794V271.665L493.664 270.619L496.626 267.49H498.604L494.903 271.463L499.034 277H497.127L493.813 272.597ZM504.053 277.176C502.764 277.176 501.715 276.754 500.906 275.91C500.098 275.061 499.693 273.927 499.693 272.509V272.21C499.693 271.267 499.872 270.426 500.229 269.688C500.593 268.943 501.097 268.363 501.741 267.947C502.392 267.525 503.095 267.314 503.851 267.314C505.087 267.314 506.048 267.722 506.733 268.536C507.419 269.351 507.762 270.517 507.762 272.034V272.711H501.319C501.343 273.648 501.615 274.407 502.137 274.987C502.664 275.562 503.332 275.849 504.141 275.849C504.715 275.849 505.201 275.731 505.6 275.497C505.998 275.263 506.347 274.952 506.646 274.565L507.639 275.339C506.842 276.563 505.646 277.176 504.053 277.176ZM503.851 268.65C503.194 268.65 502.644 268.891 502.198 269.371C501.753 269.846 501.478 270.514 501.372 271.375H506.136V271.252C506.089 270.426 505.866 269.787 505.468 269.336C505.069 268.879 504.53 268.65 503.851 268.65ZM512.64 274.618L514.854 267.49H516.595L512.771 278.468C512.18 280.05 511.239 280.841 509.95 280.841L509.643 280.814L509.036 280.7V279.382L509.476 279.417C510.026 279.417 510.454 279.306 510.759 279.083C511.069 278.86 511.324 278.453 511.523 277.861L511.884 276.895L508.491 267.49H510.267L512.64 274.618Z" fill="black"/>
<path d="M104.91 21.6201H110.975V23H103.214V10.2031H104.91V21.6201ZM112.214 18.1572C112.214 17.2256 112.396 16.3877 112.759 15.6436C113.128 14.8994 113.638 14.3252 114.288 13.9209C114.944 13.5166 115.691 13.3145 116.529 13.3145C117.824 13.3145 118.87 13.7627 119.667 14.6592C120.47 15.5557 120.871 16.748 120.871 18.2363V18.3506C120.871 19.2764 120.692 20.1084 120.335 20.8467C119.983 21.5791 119.477 22.1504 118.814 22.5605C118.158 22.9707 117.402 23.1758 116.547 23.1758C115.258 23.1758 114.212 22.7275 113.409 21.8311C112.612 20.9346 112.214 19.748 112.214 18.2715V18.1572ZM113.849 18.3506C113.849 19.4053 114.092 20.252 114.578 20.8906C115.07 21.5293 115.727 21.8486 116.547 21.8486C117.373 21.8486 118.029 21.5264 118.516 20.8818C119.002 20.2314 119.245 19.3232 119.245 18.1572C119.245 17.1143 118.996 16.2705 118.498 15.626C118.006 14.9756 117.35 14.6504 116.529 14.6504C115.727 14.6504 115.079 14.9697 114.587 15.6084C114.095 16.2471 113.849 17.1611 113.849 18.3506ZM131.33 20.7588L133.158 13.4902H134.784L132.016 23H130.697L128.386 15.793L126.136 23H124.817L122.058 13.4902H123.675L125.547 20.6094L127.762 13.4902H129.071L131.33 20.7588ZM139.829 18.2275H135.54V16.9004H139.829V18.2275ZM145.366 23.1758C144.077 23.1758 143.028 22.7539 142.22 21.9102C141.411 21.0605 141.007 19.9268 141.007 18.5088V18.21C141.007 17.2666 141.186 16.4258 141.543 15.6875C141.906 14.9434 142.41 14.3633 143.055 13.9473C143.705 13.5254 144.408 13.3145 145.164 13.3145C146.4 13.3145 147.361 13.7217 148.047 14.5361C148.732 15.3506 149.075 16.5166 149.075 18.0342V18.7109H142.633C142.656 19.6484 142.929 20.4072 143.45 20.9873C143.978 21.5615 144.646 21.8486 145.454 21.8486C146.028 21.8486 146.515 21.7314 146.913 21.4971C147.312 21.2627 147.66 20.9521 147.959 20.5654L148.952 21.3389C148.155 22.5635 146.96 23.1758 145.366 23.1758ZM145.164 14.6504C144.508 14.6504 143.957 14.8906 143.512 15.3711C143.066 15.8457 142.791 16.5137 142.686 17.375H147.449V17.252C147.402 16.4258 147.18 15.7871 146.781 15.3359C146.383 14.8789 145.844 14.6504 145.164 14.6504ZM152.503 13.4902L152.556 14.6855C153.282 13.7715 154.231 13.3145 155.403 13.3145C157.413 13.3145 158.427 14.4482 158.444 16.7158V23H156.818V16.707C156.812 16.0215 156.654 15.5146 156.344 15.1865C156.039 14.8584 155.562 14.6943 154.911 14.6943C154.384 14.6943 153.921 14.835 153.522 15.1162C153.124 15.3975 152.813 15.7666 152.591 16.2236V23H150.965V13.4902H152.503ZM163.103 11.1875V13.4902H164.878V14.7471H163.103V20.6445C163.103 21.0254 163.182 21.3125 163.34 21.5059C163.498 21.6934 163.768 21.7871 164.148 21.7871C164.336 21.7871 164.594 21.752 164.922 21.6816V23C164.494 23.1172 164.078 23.1758 163.674 23.1758C162.947 23.1758 162.399 22.9561 162.03 22.5166C161.661 22.0771 161.477 21.4531 161.477 20.6445V14.7471H159.745V13.4902H161.477V11.1875H163.103ZM171.382 14.9492C171.136 14.9082 170.869 14.8877 170.582 14.8877C169.516 14.8877 168.792 15.3418 168.411 16.25V23H166.785V13.4902H168.367L168.394 14.5889C168.927 13.7393 169.683 13.3145 170.661 13.3145C170.978 13.3145 171.218 13.3555 171.382 13.4375V14.9492ZM172.278 18.1572C172.278 17.2256 172.46 16.3877 172.823 15.6436C173.192 14.8994 173.702 14.3252 174.353 13.9209C175.009 13.5166 175.756 13.3145 176.594 13.3145C177.889 13.3145 178.935 13.7627 179.731 14.6592C180.534 15.5557 180.936 16.748 180.936 18.2363V18.3506C180.936 19.2764 180.757 20.1084 180.399 20.8467C180.048 21.5791 179.541 22.1504 178.879 22.5605C178.223 22.9707 177.467 23.1758 176.611 23.1758C175.322 23.1758 174.276 22.7275 173.474 21.8311C172.677 20.9346 172.278 19.748 172.278 18.2715V18.1572ZM173.913 18.3506C173.913 19.4053 174.156 20.252 174.643 20.8906C175.135 21.5293 175.791 21.8486 176.611 21.8486C177.438 21.8486 178.094 21.5264 178.58 20.8818C179.066 20.2314 179.31 19.3232 179.31 18.1572C179.31 17.1143 179.061 16.2705 178.562 15.626C178.07 14.9756 177.414 14.6504 176.594 14.6504C175.791 14.6504 175.144 14.9697 174.651 15.6084C174.159 16.2471 173.913 17.1611 173.913 18.3506ZM191.008 18.3506C191.008 19.7979 190.677 20.9639 190.015 21.8486C189.353 22.7334 188.456 23.1758 187.325 23.1758C186.171 23.1758 185.263 22.8096 184.601 22.0771V26.6562H182.975V13.4902H184.46L184.539 14.5449C185.201 13.7246 186.121 13.3145 187.299 13.3145C188.441 13.3145 189.344 13.7451 190.006 14.6064C190.674 15.4678 191.008 16.666 191.008 18.2012V18.3506ZM189.382 18.166C189.382 17.0938 189.153 16.2471 188.696 15.626C188.239 15.0049 187.612 14.6943 186.815 14.6943C185.831 14.6943 185.093 15.1309 184.601 16.0039V20.5479C185.087 21.415 185.831 21.8486 186.833 21.8486C187.612 21.8486 188.23 21.541 188.688 20.9258C189.15 20.3047 189.382 19.3848 189.382 18.166ZM196.088 20.6182L198.303 13.4902H200.043L196.22 24.4678C195.628 26.0498 194.688 26.8408 193.398 26.8408L193.091 26.8145L192.484 26.7002V25.3818L192.924 25.417C193.475 25.417 193.902 25.3057 194.207 25.083C194.518 24.8604 194.772 24.4531 194.972 23.8613L195.332 22.8945L191.939 13.4902H193.715L196.088 20.6182ZM113.84 39.3506C113.84 40.7979 113.509 41.9639 112.847 42.8486C112.185 43.7334 111.288 44.1758 110.157 44.1758C109.003 44.1758 108.095 43.8096 107.433 43.0771V47.6562H105.807V34.4902H107.292L107.371 35.5449C108.033 34.7246 108.953 34.3145 110.131 34.3145C111.273 34.3145 112.176 34.7451 112.838 35.6064C113.506 36.4678 113.84 37.666 113.84 39.2012V39.3506ZM112.214 39.166C112.214 38.0938 111.985 37.2471 111.528 36.626C111.071 36.0049 110.444 35.6943 109.647 35.6943C108.663 35.6943 107.925 36.1309 107.433 37.0039V41.5479C107.919 42.415 108.663 42.8486 109.665 42.8486C110.444 42.8486 111.062 42.541 111.52 41.9258C111.982 41.3047 112.214 40.3848 112.214 39.166ZM121.785 44C121.691 43.8125 121.615 43.4785 121.557 42.998C120.801 43.7832 119.898 44.1758 118.85 44.1758C117.912 44.1758 117.142 43.9121 116.538 43.3848C115.94 42.8516 115.642 42.1777 115.642 41.3633C115.642 40.373 116.017 39.6055 116.767 39.0605C117.522 38.5098 118.583 38.2344 119.948 38.2344H121.53V37.4873C121.53 36.9189 121.36 36.4678 121.021 36.1338C120.681 35.7939 120.18 35.624 119.518 35.624C118.938 35.624 118.451 35.7705 118.059 36.0635C117.666 36.3564 117.47 36.7109 117.47 37.127H115.835C115.835 36.6523 116.002 36.1953 116.336 35.7559C116.676 35.3105 117.133 34.959 117.707 34.7012C118.287 34.4434 118.923 34.3145 119.614 34.3145C120.71 34.3145 121.568 34.5898 122.189 35.1406C122.811 35.6855 123.133 36.4385 123.156 37.3994V41.7764C123.156 42.6494 123.268 43.3438 123.49 43.8594V44H121.785ZM119.087 42.7607C119.597 42.7607 120.08 42.6289 120.537 42.3652C120.994 42.1016 121.325 41.7588 121.53 41.3369V39.3857H120.256C118.264 39.3857 117.268 39.9688 117.268 41.1348C117.268 41.6445 117.438 42.043 117.777 42.3301C118.117 42.6172 118.554 42.7607 119.087 42.7607ZM131.242 41.4775C131.242 41.0381 131.075 40.6982 130.741 40.458C130.413 40.2119 129.836 40.001 129.01 39.8252C128.189 39.6494 127.536 39.4385 127.05 39.1924C126.569 38.9463 126.212 38.6533 125.978 38.3135C125.749 37.9736 125.635 37.5693 125.635 37.1006C125.635 36.3213 125.963 35.6621 126.619 35.123C127.281 34.584 128.125 34.3145 129.15 34.3145C130.229 34.3145 131.102 34.5928 131.77 35.1494C132.443 35.7061 132.78 36.418 132.78 37.2852H131.146C131.146 36.8398 130.955 36.4561 130.574 36.1338C130.199 35.8115 129.725 35.6504 129.15 35.6504C128.559 35.6504 128.096 35.7793 127.762 36.0371C127.428 36.2949 127.261 36.6318 127.261 37.0479C127.261 37.4404 127.416 37.7363 127.727 37.9355C128.037 38.1348 128.597 38.3252 129.405 38.5068C130.22 38.6885 130.879 38.9053 131.383 39.1572C131.887 39.4092 132.259 39.7139 132.499 40.0713C132.745 40.4229 132.868 40.8535 132.868 41.3633C132.868 42.2129 132.528 42.8955 131.849 43.4111C131.169 43.9209 130.287 44.1758 129.203 44.1758C128.441 44.1758 127.768 44.041 127.182 43.7715C126.596 43.502 126.136 43.127 125.802 42.6465C125.474 42.1602 125.31 41.6357 125.31 41.0732H126.936C126.965 41.6182 127.182 42.0518 127.586 42.374C127.996 42.6904 128.535 42.8486 129.203 42.8486C129.818 42.8486 130.311 42.7256 130.68 42.4795C131.055 42.2275 131.242 41.8936 131.242 41.4775ZM140.523 41.4775C140.523 41.0381 140.356 40.6982 140.022 40.458C139.694 40.2119 139.117 40.001 138.291 39.8252C137.471 39.6494 136.817 39.4385 136.331 39.1924C135.851 38.9463 135.493 38.6533 135.259 38.3135C135.03 37.9736 134.916 37.5693 134.916 37.1006C134.916 36.3213 135.244 35.6621 135.9 35.123C136.562 34.584 137.406 34.3145 138.432 34.3145C139.51 34.3145 140.383 34.5928 141.051 35.1494C141.725 35.7061 142.062 36.418 142.062 37.2852H140.427C140.427 36.8398 140.236 36.4561 139.855 36.1338C139.48 35.8115 139.006 35.6504 138.432 35.6504C137.84 35.6504 137.377 35.7793 137.043 36.0371C136.709 36.2949 136.542 36.6318 136.542 37.0479C136.542 37.4404 136.697 37.7363 137.008 37.9355C137.318 38.1348 137.878 38.3252 138.687 38.5068C139.501 38.6885 140.16 38.9053 140.664 39.1572C141.168 39.4092 141.54 39.7139 141.78 40.0713C142.026 40.4229 142.149 40.8535 142.149 41.3633C142.149 42.2129 141.81 42.8955 141.13 43.4111C140.45 43.9209 139.568 44.1758 138.484 44.1758C137.723 44.1758 137.049 44.041 136.463 43.7715C135.877 43.502 135.417 43.127 135.083 42.6465C134.755 42.1602 134.591 41.6357 134.591 41.0732H136.217C136.246 41.6182 136.463 42.0518 136.867 42.374C137.277 42.6904 137.816 42.8486 138.484 42.8486C139.1 42.8486 139.592 42.7256 139.961 42.4795C140.336 42.2275 140.523 41.8936 140.523 41.4775ZM152.301 39.3506C152.301 40.7979 151.97 41.9639 151.308 42.8486C150.646 43.7334 149.749 44.1758 148.618 44.1758C147.464 44.1758 146.556 43.8096 145.894 43.0771V47.6562H144.268V34.4902H145.753L145.832 35.5449C146.494 34.7246 147.414 34.3145 148.592 34.3145C149.734 34.3145 150.637 34.7451 151.299 35.6064C151.967 36.4678 152.301 37.666 152.301 39.2012V39.3506ZM150.675 39.166C150.675 38.0938 150.446 37.2471 149.989 36.626C149.532 36.0049 148.905 35.6943 148.108 35.6943C147.124 35.6943 146.386 36.1309 145.894 37.0039V41.5479C146.38 42.415 147.124 42.8486 148.126 42.8486C148.905 42.8486 149.523 42.541 149.98 41.9258C150.443 41.3047 150.675 40.3848 150.675 39.166ZM156.001 35.6416C156.722 34.7568 157.659 34.3145 158.813 34.3145C160.823 34.3145 161.837 35.4482 161.854 37.7158V44H160.229V37.707C160.223 37.0215 160.064 36.5146 159.754 36.1865C159.449 35.8584 158.972 35.6943 158.321 35.6943C157.794 35.6943 157.331 35.835 156.933 36.1162C156.534 36.3975 156.224 36.7666 156.001 37.2236V44H154.375V30.5H156.001V35.6416ZM168.886 35.9492C168.64 35.9082 168.373 35.8877 168.086 35.8877C167.02 35.8877 166.296 36.3418 165.915 37.25V44H164.289V34.4902H165.871L165.897 35.5889C166.431 34.7393 167.187 34.3145 168.165 34.3145C168.481 34.3145 168.722 34.3555 168.886 34.4375V35.9492ZM175.908 44C175.814 43.8125 175.738 43.4785 175.68 42.998C174.924 43.7832 174.021 44.1758 172.973 44.1758C172.035 44.1758 171.265 43.9121 170.661 43.3848C170.063 42.8516 169.765 42.1777 169.765 41.3633C169.765 40.373 170.14 39.6055 170.89 39.0605C171.646 38.5098 172.706 38.2344 174.071 38.2344H175.653V37.4873C175.653 36.9189 175.483 36.4678 175.144 36.1338C174.804 35.7939 174.303 35.624 173.641 35.624C173.061 35.624 172.574 35.7705 172.182 36.0635C171.789 36.3564 171.593 36.7109 171.593 37.127H169.958C169.958 36.6523 170.125 36.1953 170.459 35.7559C170.799 35.3105 171.256 34.959 171.83 34.7012C172.41 34.4434 173.046 34.3145 173.737 34.3145C174.833 34.3145 175.691 34.5898 176.312 35.1406C176.934 35.6855 177.256 36.4385 177.279 37.3994V41.7764C177.279 42.6494 177.391 43.3438 177.613 43.8594V44H175.908ZM173.21 42.7607C173.72 42.7607 174.203 42.6289 174.66 42.3652C175.117 42.1016 175.448 41.7588 175.653 41.3369V39.3857H174.379C172.387 39.3857 171.391 39.9688 171.391 41.1348C171.391 41.6445 171.561 42.043 171.9 42.3301C172.24 42.6172 172.677 42.7607 173.21 42.7607ZM185.365 41.4775C185.365 41.0381 185.198 40.6982 184.864 40.458C184.536 40.2119 183.959 40.001 183.133 39.8252C182.312 39.6494 181.659 39.4385 181.173 39.1924C180.692 38.9463 180.335 38.6533 180.101 38.3135C179.872 37.9736 179.758 37.5693 179.758 37.1006C179.758 36.3213 180.086 35.6621 180.742 35.123C181.404 34.584 182.248 34.3145 183.273 34.3145C184.352 34.3145 185.225 34.5928 185.893 35.1494C186.566 35.7061 186.903 36.418 186.903 37.2852H185.269C185.269 36.8398 185.078 36.4561 184.697 36.1338C184.322 35.8115 183.848 35.6504 183.273 35.6504C182.682 35.6504 182.219 35.7793 181.885 36.0371C181.551 36.2949 181.384 36.6318 181.384 37.0479C181.384 37.4404 181.539 37.7363 181.85 37.9355C182.16 38.1348 182.72 38.3252 183.528 38.5068C184.343 38.6885 185.002 38.9053 185.506 39.1572C186.01 39.4092 186.382 39.7139 186.622 40.0713C186.868 40.4229 186.991 40.8535 186.991 41.3633C186.991 42.2129 186.651 42.8955 185.972 43.4111C185.292 43.9209 184.41 44.1758 183.326 44.1758C182.564 44.1758 181.891 44.041 181.305 43.7715C180.719 43.502 180.259 43.127 179.925 42.6465C179.597 42.1602 179.433 41.6357 179.433 41.0732H181.059C181.088 41.6182 181.305 42.0518 181.709 42.374C182.119 42.6904 182.658 42.8486 183.326 42.8486C183.941 42.8486 184.434 42.7256 184.803 42.4795C185.178 42.2275 185.365 41.8936 185.365 41.4775ZM193.056 44.1758C191.767 44.1758 190.718 43.7539 189.909 42.9102C189.101 42.0605 188.696 40.9268 188.696 39.5088V39.21C188.696 38.2666 188.875 37.4258 189.232 36.6875C189.596 35.9434 190.1 35.3633 190.744 34.9473C191.395 34.5254 192.098 34.3145 192.854 34.3145C194.09 34.3145 195.051 34.7217 195.736 35.5361C196.422 36.3506 196.765 37.5166 196.765 39.0342V39.7109H190.322C190.346 40.6484 190.618 41.4072 191.14 41.9873C191.667 42.5615 192.335 42.8486 193.144 42.8486C193.718 42.8486 194.204 42.7314 194.603 42.4971C195.001 42.2627 195.35 41.9521 195.648 41.5654L196.642 42.3389C195.845 43.5635 194.649 44.1758 193.056 44.1758ZM192.854 35.6504C192.197 35.6504 191.646 35.8906 191.201 36.3711C190.756 36.8457 190.48 37.5137 190.375 38.375H195.139V38.252C195.092 37.4258 194.869 36.7871 194.471 36.3359C194.072 35.8789 193.533 35.6504 192.854 35.6504Z" fill="black"/>
<path d="M409.177 25H407.48V19.085H401.029V25H399.342V12.2031H401.029V17.7051H407.48V12.2031H409.177V25ZM413.686 25H412.06V15.4902H413.686V25ZM411.928 12.9678C411.928 12.7041 412.007 12.4814 412.165 12.2998C412.329 12.1182 412.569 12.0273 412.886 12.0273C413.202 12.0273 413.442 12.1182 413.606 12.2998C413.771 12.4814 413.853 12.7041 413.853 12.9678C413.853 13.2314 413.771 13.4512 413.606 13.627C413.442 13.8027 413.202 13.8906 412.886 13.8906C412.569 13.8906 412.329 13.8027 412.165 13.627C412.007 13.4512 411.928 13.2314 411.928 12.9678ZM415.909 20.166C415.909 18.6836 416.252 17.5059 416.938 16.6328C417.623 15.7539 418.531 15.3145 419.662 15.3145C420.822 15.3145 421.728 15.7246 422.378 16.5449L422.457 15.4902H423.942V24.7715C423.942 26.002 423.576 26.9717 422.844 27.6807C422.117 28.3896 421.139 28.7441 419.908 28.7441C419.223 28.7441 418.552 28.5977 417.896 28.3047C417.239 28.0117 416.738 27.6104 416.393 27.1006L417.236 26.125C417.934 26.9863 418.786 27.417 419.794 27.417C420.585 27.417 421.2 27.1943 421.64 26.749C422.085 26.3037 422.308 25.6768 422.308 24.8682V24.0508C421.657 24.8008 420.77 25.1758 419.645 25.1758C418.531 25.1758 417.629 24.7275 416.938 23.8311C416.252 22.9346 415.909 21.7129 415.909 20.166ZM417.544 20.3506C417.544 21.4229 417.764 22.2666 418.203 22.8818C418.643 23.4912 419.258 23.7959 420.049 23.7959C421.074 23.7959 421.827 23.3301 422.308 22.3984V18.0566C421.81 17.1484 421.062 16.6943 420.066 16.6943C419.275 16.6943 418.657 17.002 418.212 17.6172C417.767 18.2324 417.544 19.1436 417.544 20.3506ZM428.029 16.6416C428.75 15.7568 429.688 15.3145 430.842 15.3145C432.852 15.3145 433.865 16.4482 433.883 18.7158V25H432.257V18.707C432.251 18.0215 432.093 17.5146 431.782 17.1865C431.478 16.8584 431 16.6943 430.35 16.6943C429.822 16.6943 429.359 16.835 428.961 17.1162C428.562 17.3975 428.252 17.7666 428.029 18.2236V25H426.403V11.5H428.029V16.6416ZM439.701 20.2275H435.412V18.9004H439.701V20.2275ZM445.238 25.1758C443.949 25.1758 442.9 24.7539 442.092 23.9102C441.283 23.0605 440.879 21.9268 440.879 20.5088V20.21C440.879 19.2666 441.058 18.4258 441.415 17.6875C441.778 16.9434 442.282 16.3633 442.927 15.9473C443.577 15.5254 444.28 15.3145 445.036 15.3145C446.272 15.3145 447.233 15.7217 447.919 16.5361C448.604 17.3506 448.947 18.5166 448.947 20.0342V20.7109H442.505C442.528 21.6484 442.801 22.4072 443.322 22.9873C443.85 23.5615 444.518 23.8486 445.326 23.8486C445.9 23.8486 446.387 23.7314 446.785 23.4971C447.184 23.2627 447.532 22.9521 447.831 22.5654L448.824 23.3389C448.027 24.5635 446.832 25.1758 445.238 25.1758ZM445.036 16.6504C444.38 16.6504 443.829 16.8906 443.384 17.3711C442.938 17.8457 442.663 18.5137 442.558 19.375H447.321V19.252C447.274 18.4258 447.052 17.7871 446.653 17.3359C446.255 16.8789 445.716 16.6504 445.036 16.6504ZM452.375 15.4902L452.428 16.6855C453.154 15.7715 454.104 15.3145 455.275 15.3145C457.285 15.3145 458.299 16.4482 458.316 18.7158V25H456.69V18.707C456.685 18.0215 456.526 17.5146 456.216 17.1865C455.911 16.8584 455.434 16.6943 454.783 16.6943C454.256 16.6943 453.793 16.835 453.395 17.1162C452.996 17.3975 452.686 17.7666 452.463 18.2236V25H450.837V15.4902H452.375ZM462.975 13.1875V15.4902H464.75V16.7471H462.975V22.6445C462.975 23.0254 463.054 23.3125 463.212 23.5059C463.37 23.6934 463.64 23.7871 464.021 23.7871C464.208 23.7871 464.466 23.752 464.794 23.6816V25C464.366 25.1172 463.95 25.1758 463.546 25.1758C462.819 25.1758 462.271 24.9561 461.902 24.5166C461.533 24.0771 461.349 23.4531 461.349 22.6445V16.7471H459.617V15.4902H461.349V13.1875H462.975ZM471.254 16.9492C471.008 16.9082 470.741 16.8877 470.454 16.8877C469.388 16.8877 468.664 17.3418 468.283 18.25V25H466.657V15.4902H468.239L468.266 16.5889C468.799 15.7393 469.555 15.3145 470.533 15.3145C470.85 15.3145 471.09 15.3555 471.254 15.4375V16.9492ZM472.15 20.1572C472.15 19.2256 472.332 18.3877 472.695 17.6436C473.064 16.8994 473.574 16.3252 474.225 15.9209C474.881 15.5166 475.628 15.3145 476.466 15.3145C477.761 15.3145 478.807 15.7627 479.604 16.6592C480.406 17.5557 480.808 18.748 480.808 20.2363V20.3506C480.808 21.2764 480.629 22.1084 480.271 22.8467C479.92 23.5791 479.413 24.1504 478.751 24.5605C478.095 24.9707 477.339 25.1758 476.483 25.1758C475.194 25.1758 474.148 24.7275 473.346 23.8311C472.549 22.9346 472.15 21.748 472.15 20.2715V20.1572ZM473.785 20.3506C473.785 21.4053 474.028 22.252 474.515 22.8906C475.007 23.5293 475.663 23.8486 476.483 23.8486C477.31 23.8486 477.966 23.5264 478.452 22.8818C478.938 22.2314 479.182 21.3232 479.182 20.1572C479.182 19.1143 478.933 18.2705 478.435 17.626C477.942 16.9756 477.286 16.6504 476.466 16.6504C475.663 16.6504 475.016 16.9697 474.523 17.6084C474.031 18.2471 473.785 19.1611 473.785 20.3506ZM490.88 20.3506C490.88 21.7979 490.549 22.9639 489.887 23.8486C489.225 24.7334 488.328 25.1758 487.197 25.1758C486.043 25.1758 485.135 24.8096 484.473 24.0771V28.6562H482.847V15.4902H484.332L484.411 16.5449C485.073 15.7246 485.993 15.3145 487.171 15.3145C488.313 15.3145 489.216 15.7451 489.878 16.6064C490.546 17.4678 490.88 18.666 490.88 20.2012V20.3506ZM489.254 20.166C489.254 19.0938 489.025 18.2471 488.568 17.626C488.111 17.0049 487.484 16.6943 486.688 16.6943C485.703 16.6943 484.965 17.1309 484.473 18.0039V22.5479C484.959 23.415 485.703 23.8486 486.705 23.8486C487.484 23.8486 488.103 23.541 488.56 22.9258C489.022 22.3047 489.254 21.3848 489.254 20.166ZM495.96 22.6182L498.175 15.4902H499.915L496.092 26.4678C495.5 28.0498 494.56 28.8408 493.271 28.8408L492.963 28.8145L492.356 28.7002V27.3818L492.796 27.417C493.347 27.417 493.774 27.3057 494.079 27.083C494.39 26.8604 494.645 26.4531 494.844 25.8613L495.204 24.8945L491.812 15.4902H493.587L495.96 22.6182ZM432.02 41.166C432.02 39.707 432.365 38.5352 433.057 37.6504C433.748 36.7598 434.653 36.3145 435.772 36.3145C436.886 36.3145 437.768 36.6953 438.418 37.457V32.5H440.044V46H438.55L438.471 44.9805C437.82 45.7773 436.915 46.1758 435.755 46.1758C434.653 46.1758 433.754 45.7246 433.057 44.8223C432.365 43.9199 432.02 42.7422 432.02 41.2891V41.166ZM433.646 41.3506C433.646 42.4287 433.868 43.2725 434.313 43.8818C434.759 44.4912 435.374 44.7959 436.159 44.7959C437.19 44.7959 437.943 44.333 438.418 43.4072V39.0391C437.932 38.1426 437.185 37.6943 436.177 37.6943C435.38 37.6943 434.759 38.002 434.313 38.6172C433.868 39.2324 433.646 40.1436 433.646 41.3506ZM448.446 46C448.353 45.8125 448.276 45.4785 448.218 44.998C447.462 45.7832 446.56 46.1758 445.511 46.1758C444.573 46.1758 443.803 45.9121 443.199 45.3848C442.602 44.8516 442.303 44.1777 442.303 43.3633C442.303 42.373 442.678 41.6055 443.428 41.0605C444.184 40.5098 445.244 40.2344 446.609 40.2344H448.191V39.4873C448.191 38.9189 448.021 38.4678 447.682 38.1338C447.342 37.7939 446.841 37.624 446.179 37.624C445.599 37.624 445.112 37.7705 444.72 38.0635C444.327 38.3564 444.131 38.7109 444.131 39.127H442.496C442.496 38.6523 442.663 38.1953 442.997 37.7559C443.337 37.3105 443.794 36.959 444.368 36.7012C444.948 36.4434 445.584 36.3145 446.275 36.3145C447.371 36.3145 448.229 36.5898 448.851 37.1406C449.472 37.6855 449.794 38.4385 449.817 39.3994V43.7764C449.817 44.6494 449.929 45.3438 450.151 45.8594V46H448.446ZM445.748 44.7607C446.258 44.7607 446.741 44.6289 447.198 44.3652C447.655 44.1016 447.986 43.7588 448.191 43.3369V41.3857H446.917C444.925 41.3857 443.929 41.9688 443.929 43.1348C443.929 43.6445 444.099 44.043 444.438 44.3301C444.778 44.6172 445.215 44.7607 445.748 44.7607ZM454.572 34.1875V36.4902H456.348V37.7471H454.572V43.6445C454.572 44.0254 454.651 44.3125 454.81 44.5059C454.968 44.6934 455.237 44.7871 455.618 44.7871C455.806 44.7871 456.063 44.752 456.392 44.6816V46C455.964 46.1172 455.548 46.1758 455.144 46.1758C454.417 46.1758 453.869 45.9561 453.5 45.5166C453.131 45.0771 452.946 44.4531 452.946 43.6445V37.7471H451.215V36.4902H452.946V34.1875H454.572ZM464.126 46C464.032 45.8125 463.956 45.4785 463.897 44.998C463.142 45.7832 462.239 46.1758 461.19 46.1758C460.253 46.1758 459.482 45.9121 458.879 45.3848C458.281 44.8516 457.982 44.1777 457.982 43.3633C457.982 42.373 458.357 41.6055 459.107 41.0605C459.863 40.5098 460.924 40.2344 462.289 40.2344H463.871V39.4873C463.871 38.9189 463.701 38.4678 463.361 38.1338C463.021 37.7939 462.521 37.624 461.858 37.624C461.278 37.624 460.792 37.7705 460.399 38.0635C460.007 38.3564 459.811 38.7109 459.811 39.127H458.176C458.176 38.6523 458.343 38.1953 458.677 37.7559C459.017 37.3105 459.474 36.959 460.048 36.7012C460.628 36.4434 461.264 36.3145 461.955 36.3145C463.051 36.3145 463.909 36.5898 464.53 37.1406C465.151 37.6855 465.474 38.4385 465.497 39.3994V43.7764C465.497 44.6494 465.608 45.3438 465.831 45.8594V46H464.126ZM461.428 44.7607C461.938 44.7607 462.421 44.6289 462.878 44.3652C463.335 44.1016 463.666 43.7588 463.871 43.3369V41.3857H462.597C460.604 41.3857 459.608 41.9688 459.608 43.1348C459.608 43.6445 459.778 44.043 460.118 44.3301C460.458 44.6172 460.895 44.7607 461.428 44.7607Z" fill="black"/>
<path d="M150.293 253.787C150.683 254.178 151.317 254.178 151.707 253.787L158.071 247.423C158.462 247.032 158.462 246.399 158.071 246.009C157.681 245.618 157.047 245.618 156.657 246.009L151 251.666L145.343 246.009C144.953 245.618 144.319 245.618 143.929 246.009C143.538 246.399 143.538 247.032 143.929 247.423L150.293 253.787ZM150 228V253.08H152V228H150Z" fill="black"/>
<path d="M449.293 253.787C449.683 254.178 450.317 254.178 450.707 253.787L457.071 247.423C457.462 247.032 457.462 246.399 457.071 246.009C456.681 245.618 456.047 245.618 455.657 246.009L450 251.666L444.343 246.009C443.953 245.618 443.319 245.618 442.929 246.009C442.538 246.399 442.538 247.032 442.929 247.423L449.293 253.787ZM449 228V253.08H451V228H449Z" fill="black"/>
<path d="M150.293 93.7071C150.683 94.0976 151.317 94.0976 151.707 93.7071L158.071 87.3431C158.462 86.9526 158.462 86.3195 158.071 85.9289C157.681 85.5384 157.047 85.5384 156.657 85.9289L151 91.5858L145.343 85.9289C144.953 85.5384 144.319 85.5384 143.929 85.9289C143.538 86.3195 143.538 86.9526 143.929 87.3431L150.293 93.7071ZM150 54V93H152V54H150Z" fill="black"/>
<path d="M449.293 93.7071C449.683 94.0976 450.317 94.0976 450.707 93.7071L457.071 87.3431C457.462 86.9526 457.462 86.3195 457.071 85.9289C456.681 85.5384 456.047 85.5384 455.657 85.9289L450 91.5858L444.343 85.9289C443.953 85.5384 443.319 85.5384 442.929 85.9289C442.538 86.3195 442.538 86.9526 442.929 87.3431L449.293 93.7071ZM449 54V93H451V54H449Z" fill="black"/>
</svg>
