<svg width="600" height="300" viewBox="0 0 600 300" fill="none" xmlns="http://www.w3.org/2000/svg">
<rect width="600" height="300" fill="white"/>
<rect x="50.5" y="29.5" width="499" height="240" rx="5.5" fill="white" stroke="black"/>
<path d="M238.929 58H236.222V42.3594H238.929V58ZM244.439 46.377L244.515 47.7197C245.374 46.6813 246.502 46.1621 247.898 46.1621C250.319 46.1621 251.551 47.5479 251.594 50.3193V58H248.983V50.4697C248.983 49.7321 248.822 49.1878 248.5 48.8369C248.185 48.4788 247.666 48.2998 246.942 48.2998C245.89 48.2998 245.105 48.776 244.59 49.7285V58H241.979V46.377H244.439ZM255.182 58V48.3105H253.409V46.377H255.182V45.3135C255.182 44.0244 255.54 43.029 256.256 42.3271C256.972 41.6253 257.975 41.2744 259.264 41.2744C259.722 41.2744 260.209 41.3389 260.725 41.4678L260.66 43.5088C260.374 43.4515 260.041 43.4229 259.661 43.4229C258.415 43.4229 257.792 44.0638 257.792 45.3457V46.377H260.155V48.3105H257.792V58H255.182ZM266.923 58.2148C265.269 58.2148 263.926 57.6956 262.895 56.6572C261.87 55.6117 261.358 54.2223 261.358 52.4893V52.167C261.358 51.0068 261.58 49.972 262.024 49.0625C262.476 48.1458 263.106 47.4333 263.915 46.9248C264.724 46.4163 265.627 46.1621 266.622 46.1621C268.205 46.1621 269.426 46.667 270.285 47.6768C271.152 48.6865 271.585 50.1152 271.585 51.9629V53.0156H263.99C264.069 53.9753 264.388 54.7344 264.946 55.293C265.512 55.8516 266.221 56.1309 267.073 56.1309C268.269 56.1309 269.243 55.6475 269.995 54.6807L271.402 56.0234C270.937 56.7181 270.314 57.2588 269.533 57.6455C268.76 58.0251 267.89 58.2148 266.923 58.2148ZM266.611 48.2568C265.895 48.2568 265.315 48.5075 264.871 49.0088C264.434 49.5101 264.155 50.2083 264.033 51.1035H269.007V50.9102C268.95 50.0365 268.717 49.3776 268.309 48.9336C267.9 48.4824 267.335 48.2568 266.611 48.2568ZM278.396 56.1309C279.047 56.1309 279.588 55.9411 280.018 55.5615C280.447 55.182 280.676 54.7129 280.705 54.1543H283.165C283.136 54.8776 282.911 55.5544 282.488 56.1846C282.066 56.8076 281.493 57.3018 280.77 57.667C280.046 58.0322 279.266 58.2148 278.428 58.2148C276.802 58.2148 275.513 57.6885 274.561 56.6357C273.608 55.583 273.132 54.1292 273.132 52.2744V52.0059C273.132 50.237 273.604 48.8226 274.55 47.7627C275.495 46.6956 276.784 46.1621 278.417 46.1621C279.799 46.1621 280.924 46.5667 281.79 47.376C282.664 48.1781 283.122 49.2344 283.165 50.5449H280.705C280.676 49.8789 280.447 49.3311 280.018 48.9014C279.595 48.4717 279.054 48.2568 278.396 48.2568C277.55 48.2568 276.899 48.5648 276.44 49.1807C275.982 49.7894 275.749 50.7168 275.742 51.9629V52.3818C275.742 53.6423 275.968 54.584 276.419 55.207C276.877 55.8229 277.536 56.1309 278.396 56.1309ZM288.407 43.5518V46.377H290.459V48.3105H288.407V54.7988C288.407 55.2428 288.493 55.5651 288.665 55.7656C288.844 55.959 289.159 56.0557 289.61 56.0557C289.911 56.0557 290.215 56.0199 290.523 55.9482V57.9678C289.929 58.1325 289.356 58.2148 288.805 58.2148C286.799 58.2148 285.797 57.1084 285.797 54.8955V48.3105H283.885V46.377H285.797V43.5518H288.407ZM297.581 58.2148C295.927 58.2148 294.584 57.6956 293.553 56.6572C292.529 55.6117 292.017 54.2223 292.017 52.4893V52.167C292.017 51.0068 292.239 49.972 292.683 49.0625C293.134 48.1458 293.764 47.4333 294.573 46.9248C295.382 46.4163 296.285 46.1621 297.28 46.1621C298.863 46.1621 300.084 46.667 300.943 47.6768C301.81 48.6865 302.243 50.1152 302.243 51.9629V53.0156H294.648C294.727 53.9753 295.046 54.7344 295.604 55.293C296.17 55.8516 296.879 56.1309 297.731 56.1309C298.927 56.1309 299.901 55.6475 300.653 54.6807L302.061 56.0234C301.595 56.7181 300.972 57.2588 300.191 57.6455C299.418 58.0251 298.548 58.2148 297.581 58.2148ZM297.27 48.2568C296.553 48.2568 295.973 48.5075 295.529 49.0088C295.092 49.5101 294.813 50.2083 294.691 51.1035H299.665V50.9102C299.608 50.0365 299.375 49.3776 298.967 48.9336C298.559 48.4824 297.993 48.2568 297.27 48.2568ZM303.79 52.1025C303.79 50.3122 304.205 48.8763 305.036 47.7949C305.867 46.7064 306.98 46.1621 308.377 46.1621C309.609 46.1621 310.604 46.5918 311.363 47.4512V41.5H313.974V58H311.61L311.481 56.7969C310.701 57.7422 309.659 58.2148 308.355 58.2148C306.995 58.2148 305.892 57.667 305.047 56.5713C304.209 55.4756 303.79 53.986 303.79 52.1025ZM306.4 52.3281C306.4 53.5098 306.626 54.4336 307.077 55.0996C307.535 55.7585 308.184 56.0879 309.021 56.0879C310.089 56.0879 310.869 55.6117 311.363 54.6592V49.6963C310.883 48.7653 310.11 48.2998 309.043 48.2998C308.198 48.2998 307.546 48.6364 307.088 49.3096C306.63 49.9756 306.4 50.9818 306.4 52.3281ZM324.748 47.6445C325.6 46.6562 326.678 46.1621 327.981 46.1621C330.459 46.1621 331.716 47.5765 331.752 50.4053V58H329.142V50.502C329.142 49.6999 328.966 49.1341 328.615 48.8047C328.271 48.4681 327.763 48.2998 327.09 48.2998C326.044 48.2998 325.264 48.7653 324.748 49.6963V58H322.138V41.5H324.748V47.6445ZM333.911 52.0811C333.911 50.9424 334.137 49.9183 334.588 49.0088C335.039 48.0921 335.673 47.3903 336.489 46.9033C337.306 46.4092 338.244 46.1621 339.304 46.1621C340.872 46.1621 342.143 46.667 343.117 47.6768C344.098 48.6865 344.628 50.0257 344.707 51.6943L344.718 52.3066C344.718 53.4525 344.496 54.4766 344.052 55.3789C343.615 56.2812 342.985 56.9795 342.161 57.4736C341.345 57.9678 340.399 58.2148 339.325 58.2148C337.685 58.2148 336.371 57.6706 335.383 56.582C334.402 55.4863 333.911 54.029 333.911 52.21V52.0811ZM336.521 52.3066C336.521 53.5026 336.769 54.4408 337.263 55.1211C337.757 55.7943 338.444 56.1309 339.325 56.1309C340.206 56.1309 340.89 55.7871 341.377 55.0996C341.871 54.4121 342.118 53.4059 342.118 52.0811C342.118 50.9066 341.864 49.9756 341.355 49.2881C340.854 48.6006 340.17 48.2568 339.304 48.2568C338.451 48.2568 337.775 48.597 337.273 49.2773C336.772 49.9505 336.521 50.9603 336.521 52.3066ZM353.44 54.8418C353.44 54.3763 353.247 54.0218 352.86 53.7783C352.481 53.5348 351.847 53.32 350.959 53.1338C350.071 52.9476 349.33 52.7113 348.735 52.4248C347.432 51.7946 346.78 50.8815 346.78 49.6855C346.78 48.6829 347.203 47.8451 348.048 47.1719C348.893 46.4987 349.967 46.1621 351.271 46.1621C352.66 46.1621 353.781 46.5059 354.633 47.1934C355.492 47.8809 355.922 48.7725 355.922 49.8682H353.312C353.312 49.3669 353.125 48.9515 352.753 48.6221C352.381 48.2855 351.886 48.1172 351.271 48.1172C350.698 48.1172 350.229 48.2497 349.863 48.5146C349.505 48.7796 349.326 49.1341 349.326 49.5781C349.326 49.9792 349.494 50.2907 349.831 50.5127C350.168 50.7347 350.848 50.9603 351.872 51.1895C352.896 51.4115 353.698 51.68 354.278 51.9951C354.866 52.3031 355.299 52.6755 355.578 53.1123C355.865 53.5492 356.008 54.0791 356.008 54.7021C356.008 55.7477 355.575 56.5964 354.708 57.248C353.841 57.8926 352.706 58.2148 351.303 58.2148C350.35 58.2148 349.502 58.043 348.757 57.6992C348.012 57.3555 347.432 56.8828 347.017 56.2812C346.601 55.6797 346.394 55.0316 346.394 54.3369H348.929C348.965 54.9528 349.197 55.429 349.627 55.7656C350.057 56.0951 350.626 56.2598 351.335 56.2598C352.022 56.2598 352.545 56.1309 352.903 55.873C353.261 55.6081 353.44 55.2643 353.44 54.8418ZM361.562 43.5518V46.377H363.613V48.3105H361.562V54.7988C361.562 55.2428 361.647 55.5651 361.819 55.7656C361.998 55.959 362.313 56.0557 362.765 56.0557C363.065 56.0557 363.37 56.0199 363.678 55.9482V57.9678C363.083 58.1325 362.51 58.2148 361.959 58.2148C359.954 58.2148 358.951 57.1084 358.951 54.8955V48.3105H357.039V46.377H358.951V43.5518H361.562Z" fill="black"/>
<rect x="374.5" y="150.5" width="144" height="86" rx="3.5" fill="white" stroke="black"/>
<path d="M396.912 184.085H391.366V188.62H397.809V190H389.679V177.203H397.721V178.592H391.366V182.705H396.912V184.085ZM401.192 180.49L401.245 181.686C401.972 180.771 402.921 180.314 404.093 180.314C406.103 180.314 407.116 181.448 407.134 183.716V190H405.508V183.707C405.502 183.021 405.344 182.515 405.033 182.187C404.729 181.858 404.251 181.694 403.601 181.694C403.073 181.694 402.61 181.835 402.212 182.116C401.813 182.397 401.503 182.767 401.28 183.224V190H399.654V180.49H401.192ZM413.4 188.849C413.98 188.849 414.487 188.673 414.921 188.321C415.354 187.97 415.595 187.53 415.642 187.003H417.18C417.15 187.548 416.963 188.066 416.617 188.559C416.271 189.051 415.809 189.443 415.229 189.736C414.654 190.029 414.045 190.176 413.4 190.176C412.105 190.176 411.074 189.745 410.307 188.884C409.545 188.017 409.164 186.833 409.164 185.333V185.061C409.164 184.135 409.334 183.312 409.674 182.591C410.014 181.87 410.5 181.311 411.133 180.912C411.771 180.514 412.524 180.314 413.392 180.314C414.458 180.314 415.343 180.634 416.046 181.272C416.755 181.911 417.133 182.74 417.18 183.76H415.642C415.595 183.145 415.36 182.641 414.938 182.248C414.522 181.85 414.007 181.65 413.392 181.65C412.565 181.65 411.924 181.949 411.467 182.547C411.016 183.139 410.79 183.997 410.79 185.122V185.43C410.79 186.525 411.016 187.369 411.467 187.961C411.918 188.553 412.562 188.849 413.4 188.849ZM423.604 181.949C423.358 181.908 423.092 181.888 422.805 181.888C421.738 181.888 421.015 182.342 420.634 183.25V190H419.008V180.49H420.59L420.616 181.589C421.149 180.739 421.905 180.314 422.884 180.314C423.2 180.314 423.44 180.355 423.604 180.438V181.949ZM428.377 187.618L430.592 180.49H432.332L428.509 191.468C427.917 193.05 426.977 193.841 425.688 193.841L425.38 193.814L424.773 193.7V192.382L425.213 192.417C425.764 192.417 426.191 192.306 426.496 192.083C426.807 191.86 427.062 191.453 427.261 190.861L427.621 189.895L424.229 180.49H426.004L428.377 187.618ZM441.824 185.351C441.824 186.798 441.493 187.964 440.831 188.849C440.169 189.733 439.272 190.176 438.142 190.176C436.987 190.176 436.079 189.81 435.417 189.077V193.656H433.791V180.49H435.276L435.355 181.545C436.018 180.725 436.938 180.314 438.115 180.314C439.258 180.314 440.16 180.745 440.822 181.606C441.49 182.468 441.824 183.666 441.824 185.201V185.351ZM440.198 185.166C440.198 184.094 439.97 183.247 439.513 182.626C439.056 182.005 438.429 181.694 437.632 181.694C436.647 181.694 435.909 182.131 435.417 183.004V187.548C435.903 188.415 436.647 188.849 437.649 188.849C438.429 188.849 439.047 188.541 439.504 187.926C439.967 187.305 440.198 186.385 440.198 185.166ZM446.104 178.188V180.49H447.88V181.747H446.104V187.645C446.104 188.025 446.184 188.312 446.342 188.506C446.5 188.693 446.77 188.787 447.15 188.787C447.338 188.787 447.596 188.752 447.924 188.682V190C447.496 190.117 447.08 190.176 446.676 190.176C445.949 190.176 445.401 189.956 445.032 189.517C444.663 189.077 444.479 188.453 444.479 187.645V181.747H442.747V180.49H444.479V178.188H446.104ZM453.733 190.176C452.444 190.176 451.396 189.754 450.587 188.91C449.778 188.061 449.374 186.927 449.374 185.509V185.21C449.374 184.267 449.553 183.426 449.91 182.688C450.273 181.943 450.777 181.363 451.422 180.947C452.072 180.525 452.775 180.314 453.531 180.314C454.768 180.314 455.729 180.722 456.414 181.536C457.1 182.351 457.442 183.517 457.442 185.034V185.711H451C451.023 186.648 451.296 187.407 451.817 187.987C452.345 188.562 453.013 188.849 453.821 188.849C454.396 188.849 454.882 188.731 455.28 188.497C455.679 188.263 456.027 187.952 456.326 187.565L457.319 188.339C456.522 189.563 455.327 190.176 453.733 190.176ZM453.531 181.65C452.875 181.65 452.324 181.891 451.879 182.371C451.434 182.846 451.158 183.514 451.053 184.375H455.816V184.252C455.77 183.426 455.547 182.787 455.148 182.336C454.75 181.879 454.211 181.65 453.531 181.65ZM458.937 185.166C458.937 183.707 459.282 182.535 459.974 181.65C460.665 180.76 461.57 180.314 462.689 180.314C463.803 180.314 464.685 180.695 465.335 181.457V176.5H466.961V190H465.467L465.388 188.98C464.737 189.777 463.832 190.176 462.672 190.176C461.57 190.176 460.671 189.725 459.974 188.822C459.282 187.92 458.937 186.742 458.937 185.289V185.166ZM460.562 185.351C460.562 186.429 460.785 187.272 461.23 187.882C461.676 188.491 462.291 188.796 463.076 188.796C464.107 188.796 464.86 188.333 465.335 187.407V183.039C464.849 182.143 464.102 181.694 463.094 181.694C462.297 181.694 461.676 182.002 461.23 182.617C460.785 183.232 460.562 184.144 460.562 185.351ZM478.905 184.823H475.899V190H474.203V177.203H478.439C479.881 177.203 480.988 177.531 481.762 178.188C482.541 178.844 482.931 179.799 482.931 181.053C482.931 181.85 482.714 182.544 482.28 183.136C481.853 183.728 481.255 184.17 480.487 184.463L483.493 189.895V190H481.683L478.905 184.823ZM475.899 183.443H478.492C479.33 183.443 479.995 183.227 480.487 182.793C480.985 182.359 481.234 181.779 481.234 181.053C481.234 180.262 480.997 179.655 480.522 179.233C480.054 178.812 479.374 178.598 478.483 178.592H475.899V183.443ZM492.37 186.66H487.009L485.805 190H484.064L488.951 177.203H490.428L495.323 190H493.592L492.37 186.66ZM487.519 185.271H491.869L489.689 179.286L487.519 185.271ZM504.745 178.592H500.632V190H498.953V178.592H494.849V177.203H504.745V178.592ZM379.817 205.806C379.817 204.481 379.993 203.21 380.345 201.991C380.702 200.772 381.232 199.665 381.936 198.669C382.639 197.673 383.368 196.97 384.124 196.56L384.458 197.632C383.603 198.288 382.899 199.29 382.349 200.638C381.804 201.985 381.505 203.494 381.452 205.164L381.443 205.911C381.443 208.173 381.856 210.136 382.683 211.8C383.181 212.796 383.772 213.575 384.458 214.138L384.124 215.131C383.345 214.697 382.601 213.971 381.892 212.951C380.509 210.959 379.817 208.577 379.817 205.806ZM386.286 211V198.203H389.898C391.012 198.203 391.996 198.449 392.852 198.941C393.707 199.434 394.366 200.134 394.829 201.042C395.298 201.95 395.535 202.993 395.541 204.171V204.988C395.541 206.195 395.307 207.253 394.838 208.161C394.375 209.069 393.71 209.767 392.843 210.253C391.981 210.739 390.977 210.988 389.828 211H386.286ZM387.974 199.592V209.62H389.749C391.05 209.62 392.061 209.216 392.781 208.407C393.508 207.599 393.871 206.447 393.871 204.953V204.206C393.871 202.753 393.528 201.625 392.843 200.822C392.163 200.014 391.196 199.604 389.942 199.592H387.974ZM400.955 208.618L403.17 201.49H404.91L401.087 212.468C400.495 214.05 399.555 214.841 398.266 214.841L397.958 214.814L397.352 214.7V213.382L397.791 213.417C398.342 213.417 398.77 213.306 399.074 213.083C399.385 212.86 399.64 212.453 399.839 211.861L400.199 210.895L396.807 201.49H398.582L400.955 208.618ZM407.907 201.49L407.96 202.686C408.687 201.771 409.636 201.314 410.808 201.314C412.817 201.314 413.831 202.448 413.849 204.716V211H412.223V204.707C412.217 204.021 412.059 203.515 411.748 203.187C411.443 202.858 410.966 202.694 410.315 202.694C409.788 202.694 409.325 202.835 408.927 203.116C408.528 203.397 408.218 203.767 407.995 204.224V211H406.369V201.49H407.907ZM422.172 211C422.078 210.812 422.002 210.479 421.943 209.998C421.188 210.783 420.285 211.176 419.236 211.176C418.299 211.176 417.528 210.912 416.925 210.385C416.327 209.852 416.028 209.178 416.028 208.363C416.028 207.373 416.403 206.605 417.153 206.061C417.909 205.51 418.97 205.234 420.335 205.234H421.917V204.487C421.917 203.919 421.747 203.468 421.407 203.134C421.067 202.794 420.566 202.624 419.904 202.624C419.324 202.624 418.838 202.771 418.445 203.063C418.053 203.356 417.856 203.711 417.856 204.127H416.222C416.222 203.652 416.389 203.195 416.723 202.756C417.062 202.311 417.52 201.959 418.094 201.701C418.674 201.443 419.31 201.314 420.001 201.314C421.097 201.314 421.955 201.59 422.576 202.141C423.197 202.686 423.52 203.438 423.543 204.399V208.776C423.543 209.649 423.654 210.344 423.877 210.859V211H422.172ZM419.474 209.761C419.983 209.761 420.467 209.629 420.924 209.365C421.381 209.102 421.712 208.759 421.917 208.337V206.386H420.643C418.65 206.386 417.654 206.969 417.654 208.135C417.654 208.645 417.824 209.043 418.164 209.33C418.504 209.617 418.94 209.761 419.474 209.761ZM427.621 201.49L427.665 202.545C428.362 201.725 429.303 201.314 430.486 201.314C431.816 201.314 432.722 201.824 433.202 202.844C433.519 202.387 433.929 202.018 434.433 201.736C434.942 201.455 435.543 201.314 436.234 201.314C438.32 201.314 439.381 202.419 439.416 204.628V211H437.79V204.725C437.79 204.045 437.635 203.538 437.324 203.204C437.014 202.864 436.492 202.694 435.76 202.694C435.156 202.694 434.655 202.876 434.257 203.239C433.858 203.597 433.627 204.08 433.562 204.689V211H431.928V204.769C431.928 203.386 431.251 202.694 429.897 202.694C428.831 202.694 428.102 203.148 427.709 204.057V211H426.083V201.49H427.621ZM443.644 211H442.018V201.49H443.644V211ZM441.886 198.968C441.886 198.704 441.965 198.481 442.123 198.3C442.287 198.118 442.527 198.027 442.844 198.027C443.16 198.027 443.4 198.118 443.564 198.3C443.729 198.481 443.811 198.704 443.811 198.968C443.811 199.231 443.729 199.451 443.564 199.627C443.4 199.803 443.16 199.891 442.844 199.891C442.527 199.891 442.287 199.803 442.123 199.627C441.965 199.451 441.886 199.231 441.886 198.968ZM450.068 209.849C450.648 209.849 451.155 209.673 451.589 209.321C452.022 208.97 452.263 208.53 452.31 208.003H453.848C453.818 208.548 453.631 209.066 453.285 209.559C452.939 210.051 452.477 210.443 451.896 210.736C451.322 211.029 450.713 211.176 450.068 211.176C448.773 211.176 447.742 210.745 446.975 209.884C446.213 209.017 445.832 207.833 445.832 206.333V206.061C445.832 205.135 446.002 204.312 446.342 203.591C446.682 202.87 447.168 202.311 447.801 201.912C448.439 201.514 449.192 201.314 450.06 201.314C451.126 201.314 452.011 201.634 452.714 202.272C453.423 202.911 453.801 203.74 453.848 204.76H452.31C452.263 204.145 452.028 203.641 451.606 203.248C451.19 202.85 450.675 202.65 450.06 202.65C449.233 202.65 448.592 202.949 448.135 203.547C447.684 204.139 447.458 204.997 447.458 206.122V206.43C447.458 207.525 447.684 208.369 448.135 208.961C448.586 209.553 449.23 209.849 450.068 209.849ZM461.907 211H460.281V197.5H461.907V211ZM466.284 211H464.658V201.49H466.284V211ZM464.526 198.968C464.526 198.704 464.605 198.481 464.764 198.3C464.928 198.118 465.168 198.027 465.484 198.027C465.801 198.027 466.041 198.118 466.205 198.3C466.369 198.481 466.451 198.704 466.451 198.968C466.451 199.231 466.369 199.451 466.205 199.627C466.041 199.803 465.801 199.891 465.484 199.891C465.168 199.891 464.928 199.803 464.764 199.627C464.605 199.451 464.526 199.231 464.526 198.968ZM476.945 206.351C476.945 207.804 476.611 208.973 475.943 209.857C475.275 210.736 474.379 211.176 473.254 211.176C472.053 211.176 471.124 210.751 470.468 209.901L470.389 211H468.895V197.5H470.521V202.536C471.177 201.722 472.082 201.314 473.236 201.314C474.391 201.314 475.296 201.751 475.952 202.624C476.614 203.497 476.945 204.692 476.945 206.21V206.351ZM475.319 206.166C475.319 205.059 475.105 204.203 474.678 203.6C474.25 202.996 473.635 202.694 472.832 202.694C471.76 202.694 470.989 203.192 470.521 204.188V208.302C471.019 209.298 471.795 209.796 472.85 209.796C473.629 209.796 474.235 209.494 474.669 208.891C475.103 208.287 475.319 207.379 475.319 206.166ZM483.599 202.949C483.353 202.908 483.086 202.888 482.799 202.888C481.732 202.888 481.009 203.342 480.628 204.25V211H479.002V201.49H480.584L480.61 202.589C481.144 201.739 481.899 201.314 482.878 201.314C483.194 201.314 483.435 201.355 483.599 201.438V202.949ZM490.621 211C490.527 210.812 490.451 210.479 490.393 209.998C489.637 210.783 488.734 211.176 487.686 211.176C486.748 211.176 485.978 210.912 485.374 210.385C484.776 209.852 484.478 209.178 484.478 208.363C484.478 207.373 484.853 206.605 485.603 206.061C486.358 205.51 487.419 205.234 488.784 205.234H490.366V204.487C490.366 203.919 490.196 203.468 489.856 203.134C489.517 202.794 489.016 202.624 488.354 202.624C487.773 202.624 487.287 202.771 486.895 203.063C486.502 203.356 486.306 203.711 486.306 204.127H484.671C484.671 203.652 484.838 203.195 485.172 202.756C485.512 202.311 485.969 201.959 486.543 201.701C487.123 201.443 487.759 201.314 488.45 201.314C489.546 201.314 490.404 201.59 491.025 202.141C491.646 202.686 491.969 203.438 491.992 204.399V208.776C491.992 209.649 492.104 210.344 492.326 210.859V211H490.621ZM487.923 209.761C488.433 209.761 488.916 209.629 489.373 209.365C489.83 209.102 490.161 208.759 490.366 208.337V206.386H489.092C487.1 206.386 486.104 206.969 486.104 208.135C486.104 208.645 486.273 209.043 486.613 209.33C486.953 209.617 487.39 209.761 487.923 209.761ZM499.138 202.949C498.892 202.908 498.625 202.888 498.338 202.888C497.271 202.888 496.548 203.342 496.167 204.25V211H494.541V201.49H496.123L496.149 202.589C496.683 201.739 497.438 201.314 498.417 201.314C498.733 201.314 498.974 201.355 499.138 201.438V202.949ZM503.91 208.618L506.125 201.49H507.865L504.042 212.468C503.45 214.05 502.51 214.841 501.221 214.841L500.913 214.814L500.307 214.7V213.382L500.746 213.417C501.297 213.417 501.725 213.306 502.029 213.083C502.34 212.86 502.595 212.453 502.794 211.861L503.154 210.895L499.762 201.49H501.537L503.91 208.618ZM513.077 205.894C513.077 207.2 512.904 208.454 512.559 209.655C512.219 210.851 511.694 211.955 510.985 212.969C510.282 213.982 509.544 214.703 508.771 215.131L508.428 214.138C509.33 213.446 510.054 212.374 510.599 210.921C511.149 209.462 511.431 207.845 511.442 206.069V205.788C511.442 204.558 511.313 203.415 511.056 202.36C510.798 201.3 510.438 200.351 509.975 199.513C509.518 198.675 509.002 198.021 508.428 197.553L508.771 196.56C509.544 196.987 510.279 197.702 510.977 198.704C511.68 199.706 512.204 200.811 512.55 202.018C512.901 203.225 513.077 204.517 513.077 205.894Z" fill="black"/>
<rect x="81.5" y="150.5" width="144" height="86" rx="3.5" fill="white" stroke="black"/>
<path d="M132.696 194.296C131.249 193.88 130.194 193.37 129.532 192.767C128.876 192.157 128.548 191.407 128.548 190.517C128.548 189.509 128.949 188.677 129.752 188.021C130.561 187.358 131.609 187.027 132.898 187.027C133.777 187.027 134.56 187.197 135.245 187.537C135.937 187.877 136.47 188.346 136.845 188.943C137.226 189.541 137.416 190.194 137.416 190.903H135.72C135.72 190.13 135.474 189.523 134.981 189.084C134.489 188.639 133.795 188.416 132.898 188.416C132.066 188.416 131.416 188.601 130.947 188.97C130.484 189.333 130.253 189.84 130.253 190.49C130.253 191.012 130.473 191.454 130.912 191.817C131.357 192.175 132.11 192.503 133.171 192.802C134.237 193.101 135.069 193.432 135.667 193.795C136.271 194.152 136.716 194.571 137.003 195.052C137.296 195.532 137.442 196.098 137.442 196.748C137.442 197.785 137.038 198.617 136.229 199.244C135.421 199.865 134.34 200.176 132.986 200.176C132.107 200.176 131.287 200.009 130.525 199.675C129.764 199.335 129.175 198.872 128.759 198.286C128.349 197.7 128.144 197.035 128.144 196.291H129.84C129.84 197.064 130.124 197.677 130.692 198.128C131.267 198.573 132.031 198.796 132.986 198.796C133.877 198.796 134.56 198.614 135.034 198.251C135.509 197.888 135.746 197.393 135.746 196.766C135.746 196.139 135.526 195.655 135.087 195.315C134.647 194.97 133.851 194.63 132.696 194.296ZM141.564 188.188V190.49H143.34V191.747H141.564V197.645C141.564 198.025 141.644 198.312 141.802 198.506C141.96 198.693 142.229 198.787 142.61 198.787C142.798 198.787 143.056 198.752 143.384 198.682V200C142.956 200.117 142.54 200.176 142.136 200.176C141.409 200.176 140.861 199.956 140.492 199.517C140.123 199.077 139.938 198.453 139.938 197.645V191.747H138.207V190.49H139.938V188.188H141.564ZM151.118 200C151.024 199.812 150.948 199.479 150.89 198.998C150.134 199.783 149.231 200.176 148.183 200.176C147.245 200.176 146.475 199.912 145.871 199.385C145.273 198.852 144.975 198.178 144.975 197.363C144.975 196.373 145.35 195.605 146.1 195.061C146.855 194.51 147.916 194.234 149.281 194.234H150.863V193.487C150.863 192.919 150.693 192.468 150.354 192.134C150.014 191.794 149.513 191.624 148.851 191.624C148.271 191.624 147.784 191.771 147.392 192.063C146.999 192.356 146.803 192.711 146.803 193.127H145.168C145.168 192.652 145.335 192.195 145.669 191.756C146.009 191.311 146.466 190.959 147.04 190.701C147.62 190.443 148.256 190.314 148.947 190.314C150.043 190.314 150.901 190.59 151.522 191.141C152.144 191.686 152.466 192.438 152.489 193.399V197.776C152.489 198.649 152.601 199.344 152.823 199.859V200H151.118ZM148.42 198.761C148.93 198.761 149.413 198.629 149.87 198.365C150.327 198.102 150.658 197.759 150.863 197.337V195.386H149.589C147.597 195.386 146.601 195.969 146.601 197.135C146.601 197.645 146.771 198.043 147.11 198.33C147.45 198.617 147.887 198.761 148.42 198.761ZM154.651 195.166C154.651 193.684 154.994 192.506 155.68 191.633C156.365 190.754 157.273 190.314 158.404 190.314C159.564 190.314 160.47 190.725 161.12 191.545L161.199 190.49H162.685V199.771C162.685 201.002 162.318 201.972 161.586 202.681C160.859 203.39 159.881 203.744 158.65 203.744C157.965 203.744 157.294 203.598 156.638 203.305C155.981 203.012 155.48 202.61 155.135 202.101L155.979 201.125C156.676 201.986 157.528 202.417 158.536 202.417C159.327 202.417 159.942 202.194 160.382 201.749C160.827 201.304 161.05 200.677 161.05 199.868V199.051C160.399 199.801 159.512 200.176 158.387 200.176C157.273 200.176 156.371 199.728 155.68 198.831C154.994 197.935 154.651 196.713 154.651 195.166ZM156.286 195.351C156.286 196.423 156.506 197.267 156.945 197.882C157.385 198.491 158 198.796 158.791 198.796C159.816 198.796 160.569 198.33 161.05 197.398V193.057C160.552 192.148 159.805 191.694 158.809 191.694C158.018 191.694 157.399 192.002 156.954 192.617C156.509 193.232 156.286 194.144 156.286 195.351ZM169.092 200.176C167.803 200.176 166.754 199.754 165.945 198.91C165.137 198.061 164.732 196.927 164.732 195.509V195.21C164.732 194.267 164.911 193.426 165.269 192.688C165.632 191.943 166.136 191.363 166.78 190.947C167.431 190.525 168.134 190.314 168.89 190.314C170.126 190.314 171.087 190.722 171.772 191.536C172.458 192.351 172.801 193.517 172.801 195.034V195.711H166.358C166.382 196.648 166.654 197.407 167.176 197.987C167.703 198.562 168.371 198.849 169.18 198.849C169.754 198.849 170.24 198.731 170.639 198.497C171.037 198.263 171.386 197.952 171.685 197.565L172.678 198.339C171.881 199.563 170.686 200.176 169.092 200.176ZM168.89 191.65C168.233 191.65 167.683 191.891 167.237 192.371C166.792 192.846 166.517 193.514 166.411 194.375H171.175V194.252C171.128 193.426 170.905 192.787 170.507 192.336C170.108 191.879 169.569 191.65 168.89 191.65ZM179.287 191.949C179.041 191.908 178.774 191.888 178.487 191.888C177.421 191.888 176.697 192.342 176.316 193.25V200H174.69V190.49H176.272L176.299 191.589C176.832 190.739 177.588 190.314 178.566 190.314C178.883 190.314 179.123 190.355 179.287 190.438V191.949Z" fill="black"/>
<path d="M374.707 194.707C375.098 194.317 375.098 193.683 374.707 193.293L368.343 186.929C367.953 186.538 367.319 186.538 366.929 186.929C366.538 187.319 366.538 187.953 366.929 188.343L372.586 194L366.929 199.657C366.538 200.047 366.538 200.681 366.929 201.071C367.319 201.462 367.953 201.462 368.343 201.071L374.707 194.707ZM226 195L374 195V193L226 193V195Z" fill="black"/>
<path d="M229.484 142V129.203H233.097C234.21 129.203 235.194 129.449 236.05 129.941C236.905 130.434 237.564 131.134 238.027 132.042C238.496 132.95 238.733 133.993 238.739 135.171V135.988C238.739 137.195 238.505 138.253 238.036 139.161C237.573 140.069 236.908 140.767 236.041 141.253C235.18 141.739 234.175 141.988 233.026 142H229.484ZM231.172 130.592V140.62H232.947C234.248 140.62 235.259 140.216 235.979 139.407C236.706 138.599 237.069 137.447 237.069 135.953V135.206C237.069 133.753 236.727 132.625 236.041 131.822C235.361 131.014 234.395 130.604 233.141 130.592H231.172ZM244.988 142.176C243.699 142.176 242.65 141.754 241.842 140.91C241.033 140.061 240.629 138.927 240.629 137.509V137.21C240.629 136.267 240.808 135.426 241.165 134.688C241.528 133.943 242.032 133.363 242.677 132.947C243.327 132.525 244.03 132.314 244.786 132.314C246.022 132.314 246.983 132.722 247.669 133.536C248.354 134.351 248.697 135.517 248.697 137.034V137.711H242.255C242.278 138.648 242.551 139.407 243.072 139.987C243.6 140.562 244.268 140.849 245.076 140.849C245.65 140.849 246.137 140.731 246.535 140.497C246.934 140.263 247.282 139.952 247.581 139.565L248.574 140.339C247.777 141.563 246.582 142.176 244.988 142.176ZM244.786 133.65C244.13 133.65 243.579 133.891 243.134 134.371C242.688 134.846 242.413 135.514 242.308 136.375H247.071V136.252C247.024 135.426 246.802 134.787 246.403 134.336C246.005 133.879 245.466 133.65 244.786 133.65ZM254.401 140.849C254.981 140.849 255.488 140.673 255.922 140.321C256.355 139.97 256.596 139.53 256.643 139.003H258.181C258.151 139.548 257.964 140.066 257.618 140.559C257.272 141.051 256.81 141.443 256.229 141.736C255.655 142.029 255.046 142.176 254.401 142.176C253.106 142.176 252.075 141.745 251.308 140.884C250.546 140.017 250.165 138.833 250.165 137.333V137.061C250.165 136.135 250.335 135.312 250.675 134.591C251.015 133.87 251.501 133.311 252.134 132.912C252.772 132.514 253.525 132.314 254.393 132.314C255.459 132.314 256.344 132.634 257.047 133.272C257.756 133.911 258.134 134.74 258.181 135.76H256.643C256.596 135.145 256.361 134.641 255.939 134.248C255.523 133.85 255.008 133.65 254.393 133.65C253.566 133.65 252.925 133.949 252.468 134.547C252.017 135.139 251.791 135.997 251.791 137.122V137.43C251.791 138.525 252.017 139.369 252.468 139.961C252.919 140.553 253.563 140.849 254.401 140.849ZM264.605 133.949C264.359 133.908 264.093 133.888 263.806 133.888C262.739 133.888 262.016 134.342 261.635 135.25V142H260.009V132.49H261.591L261.617 133.589C262.15 132.739 262.906 132.314 263.885 132.314C264.201 132.314 264.441 132.355 264.605 132.438V133.949ZM269.378 139.618L271.593 132.49H273.333L269.51 143.468C268.918 145.05 267.978 145.841 266.688 145.841L266.381 145.814L265.774 145.7V144.382L266.214 144.417C266.765 144.417 267.192 144.306 267.497 144.083C267.808 143.86 268.062 143.453 268.262 142.861L268.622 141.895L265.229 132.49H267.005L269.378 139.618ZM282.825 137.351C282.825 138.798 282.494 139.964 281.832 140.849C281.17 141.733 280.273 142.176 279.143 142.176C277.988 142.176 277.08 141.81 276.418 141.077V145.656H274.792V132.49H276.277L276.356 133.545C277.019 132.725 277.938 132.314 279.116 132.314C280.259 132.314 281.161 132.745 281.823 133.606C282.491 134.468 282.825 135.666 282.825 137.201V137.351ZM281.199 137.166C281.199 136.094 280.971 135.247 280.514 134.626C280.057 134.005 279.43 133.694 278.633 133.694C277.648 133.694 276.91 134.131 276.418 135.004V139.548C276.904 140.415 277.648 140.849 278.65 140.849C279.43 140.849 280.048 140.541 280.505 139.926C280.968 139.305 281.199 138.385 281.199 137.166ZM287.105 130.188V132.49H288.881V133.747H287.105V139.645C287.105 140.025 287.185 140.312 287.343 140.506C287.501 140.693 287.771 140.787 288.151 140.787C288.339 140.787 288.597 140.752 288.925 140.682V142C288.497 142.117 288.081 142.176 287.677 142.176C286.95 142.176 286.402 141.956 286.033 141.517C285.664 141.077 285.479 140.453 285.479 139.645V133.747H283.748V132.49H285.479V130.188H287.105ZM294.91 138.563C294.91 137.948 295.08 137.383 295.42 136.867C295.766 136.352 296.422 135.751 297.389 135.065C296.82 134.374 296.439 133.817 296.246 133.396C296.053 132.974 295.956 132.555 295.956 132.139C295.956 131.166 296.243 130.404 296.817 129.854C297.392 129.303 298.171 129.027 299.155 129.027C300.034 129.027 300.761 129.285 301.335 129.801C301.909 130.311 302.196 130.955 302.196 131.734C302.196 132.25 302.064 132.728 301.801 133.167C301.543 133.601 301.089 134.058 300.438 134.538L299.498 135.232L302.346 138.634C302.744 137.872 302.943 137.025 302.943 136.094H304.411C304.411 137.588 304.051 138.827 303.33 139.812L305.158 142H303.207L302.354 140.989C301.921 141.376 301.411 141.672 300.825 141.877C300.245 142.076 299.653 142.176 299.05 142.176C297.802 142.176 296.8 141.845 296.044 141.183C295.288 140.521 294.91 139.647 294.91 138.563ZM299.05 140.849C299.911 140.849 300.699 140.521 301.414 139.864L298.294 136.129L298.004 136.34C297.025 137.061 296.536 137.802 296.536 138.563C296.536 139.255 296.759 139.809 297.204 140.225C297.655 140.641 298.271 140.849 299.05 140.849ZM297.582 132.086C297.582 132.648 297.928 133.352 298.619 134.195L299.656 133.466C300.055 133.185 300.327 132.918 300.474 132.666C300.62 132.408 300.693 132.098 300.693 131.734C300.693 131.342 300.547 131.017 300.254 130.759C299.961 130.495 299.592 130.363 299.146 130.363C298.666 130.363 298.285 130.527 298.004 130.855C297.723 131.178 297.582 131.588 297.582 132.086ZM318.403 136.085H312.857V140.62H319.3V142H311.17V129.203H319.212V130.592H312.857V134.705H318.403V136.085ZM324.336 135.962L326.445 132.49H328.344L325.232 137.192L328.44 142H326.56L324.362 138.44L322.165 142H320.275L323.483 137.192L320.372 132.49H322.253L324.336 135.962ZM333.846 142.176C332.557 142.176 331.508 141.754 330.699 140.91C329.891 140.061 329.486 138.927 329.486 137.509V137.21C329.486 136.267 329.665 135.426 330.022 134.688C330.386 133.943 330.89 133.363 331.534 132.947C332.185 132.525 332.888 132.314 333.644 132.314C334.88 132.314 335.841 132.722 336.526 133.536C337.212 134.351 337.555 135.517 337.555 137.034V137.711H331.112C331.136 138.648 331.408 139.407 331.93 139.987C332.457 140.562 333.125 140.849 333.934 140.849C334.508 140.849 334.994 140.731 335.393 140.497C335.791 140.263 336.14 139.952 336.438 139.565L337.432 140.339C336.635 141.563 335.439 142.176 333.846 142.176ZM333.644 133.65C332.987 133.65 332.437 133.891 331.991 134.371C331.546 134.846 331.271 135.514 331.165 136.375H335.929V136.252C335.882 135.426 335.659 134.787 335.261 134.336C334.862 133.879 334.323 133.65 333.644 133.65ZM343.259 140.849C343.839 140.849 344.346 140.673 344.779 140.321C345.213 139.97 345.453 139.53 345.5 139.003H347.038C347.009 139.548 346.821 140.066 346.476 140.559C346.13 141.051 345.667 141.443 345.087 141.736C344.513 142.029 343.903 142.176 343.259 142.176C341.964 142.176 340.933 141.745 340.165 140.884C339.403 140.017 339.022 138.833 339.022 137.333V137.061C339.022 136.135 339.192 135.312 339.532 134.591C339.872 133.87 340.358 133.311 340.991 132.912C341.63 132.514 342.383 132.314 343.25 132.314C344.316 132.314 345.201 132.634 345.904 133.272C346.613 133.911 346.991 134.74 347.038 135.76H345.5C345.453 135.145 345.219 134.641 344.797 134.248C344.381 133.85 343.865 133.65 343.25 133.65C342.424 133.65 341.782 133.949 341.325 134.547C340.874 135.139 340.648 135.997 340.648 137.122V137.43C340.648 138.525 340.874 139.369 341.325 139.961C341.776 140.553 342.421 140.849 343.259 140.849ZM354.737 141.06C354.104 141.804 353.176 142.176 351.951 142.176C350.938 142.176 350.164 141.883 349.631 141.297C349.104 140.705 348.837 139.832 348.831 138.678V132.49H350.457V138.634C350.457 140.075 351.043 140.796 352.215 140.796C353.457 140.796 354.283 140.333 354.693 139.407V132.49H356.319V142H354.772L354.737 141.06ZM361.004 130.188V132.49H362.779V133.747H361.004V139.645C361.004 140.025 361.083 140.312 361.241 140.506C361.399 140.693 361.669 140.787 362.05 140.787C362.237 140.787 362.495 140.752 362.823 140.682V142C362.396 142.117 361.979 142.176 361.575 142.176C360.849 142.176 360.301 141.956 359.932 141.517C359.562 141.077 359.378 140.453 359.378 139.645V133.747H357.646V132.49H359.378V130.188H361.004ZM368.633 142.176C367.344 142.176 366.295 141.754 365.486 140.91C364.678 140.061 364.273 138.927 364.273 137.509V137.21C364.273 136.267 364.452 135.426 364.81 134.688C365.173 133.943 365.677 133.363 366.321 132.947C366.972 132.525 367.675 132.314 368.431 132.314C369.667 132.314 370.628 132.722 371.313 133.536C371.999 134.351 372.342 135.517 372.342 137.034V137.711H365.899C365.923 138.648 366.195 139.407 366.717 139.987C367.244 140.562 367.912 140.849 368.721 140.849C369.295 140.849 369.781 140.731 370.18 140.497C370.578 140.263 370.927 139.952 371.226 139.565L372.219 140.339C371.422 141.563 370.227 142.176 368.633 142.176ZM368.431 133.65C367.774 133.65 367.224 133.891 366.778 134.371C366.333 134.846 366.058 135.514 365.952 136.375H370.716V136.252C370.669 135.426 370.446 134.787 370.048 134.336C369.649 133.879 369.11 133.65 368.431 133.65ZM261.028 163H259.402V153.49H261.028V163ZM259.271 150.968C259.271 150.704 259.35 150.481 259.508 150.3C259.672 150.118 259.912 150.027 260.229 150.027C260.545 150.027 260.785 150.118 260.949 150.3C261.113 150.481 261.195 150.704 261.195 150.968C261.195 151.231 261.113 151.451 260.949 151.627C260.785 151.803 260.545 151.891 260.229 151.891C259.912 151.891 259.672 151.803 259.508 151.627C259.35 151.451 259.271 151.231 259.271 150.968ZM265.177 153.49L265.229 154.686C265.956 153.771 266.905 153.314 268.077 153.314C270.087 153.314 271.101 154.448 271.118 156.716V163H269.492V156.707C269.486 156.021 269.328 155.515 269.018 155.187C268.713 154.858 268.235 154.694 267.585 154.694C267.058 154.694 266.595 154.835 266.196 155.116C265.798 155.397 265.487 155.767 265.265 156.224V163H263.639V153.49H265.177ZM279.564 153.49L279.608 154.545C280.306 153.725 281.246 153.314 282.43 153.314C283.76 153.314 284.665 153.824 285.146 154.844C285.462 154.387 285.872 154.018 286.376 153.736C286.886 153.455 287.486 153.314 288.178 153.314C290.264 153.314 291.324 154.419 291.359 156.628V163H289.733V156.725C289.733 156.045 289.578 155.538 289.268 155.204C288.957 154.864 288.436 154.694 287.703 154.694C287.1 154.694 286.599 154.876 286.2 155.239C285.802 155.597 285.57 156.08 285.506 156.689V163H283.871V156.769C283.871 155.386 283.194 154.694 281.841 154.694C280.774 154.694 280.045 155.148 279.652 156.057V163H278.026V153.49H279.564ZM297.767 163.176C296.478 163.176 295.429 162.754 294.62 161.91C293.812 161.061 293.407 159.927 293.407 158.509V158.21C293.407 157.267 293.586 156.426 293.943 155.688C294.307 154.943 294.811 154.363 295.455 153.947C296.105 153.525 296.809 153.314 297.564 153.314C298.801 153.314 299.762 153.722 300.447 154.536C301.133 155.351 301.476 156.517 301.476 158.034V158.711H295.033C295.057 159.648 295.329 160.407 295.851 160.987C296.378 161.562 297.046 161.849 297.854 161.849C298.429 161.849 298.915 161.731 299.313 161.497C299.712 161.263 300.061 160.952 300.359 160.565L301.353 161.339C300.556 162.563 299.36 163.176 297.767 163.176ZM297.564 154.65C296.908 154.65 296.357 154.891 295.912 155.371C295.467 155.846 295.191 156.514 295.086 157.375H299.85V157.252C299.803 156.426 299.58 155.787 299.182 155.336C298.783 154.879 298.244 154.65 297.564 154.65ZM304.895 153.49L304.938 154.545C305.636 153.725 306.576 153.314 307.76 153.314C309.09 153.314 309.995 153.824 310.476 154.844C310.792 154.387 311.202 154.018 311.706 153.736C312.216 153.455 312.816 153.314 313.508 153.314C315.594 153.314 316.654 154.419 316.689 156.628V163H315.063V156.725C315.063 156.045 314.908 155.538 314.598 155.204C314.287 154.864 313.766 154.694 313.033 154.694C312.43 154.694 311.929 154.876 311.53 155.239C311.132 155.597 310.9 156.08 310.836 156.689V163H309.201V156.769C309.201 155.386 308.524 154.694 307.171 154.694C306.104 154.694 305.375 155.148 304.982 156.057V163H303.356V153.49H304.895ZM318.72 158.157C318.72 157.226 318.901 156.388 319.265 155.644C319.634 154.899 320.144 154.325 320.794 153.921C321.45 153.517 322.197 153.314 323.035 153.314C324.33 153.314 325.376 153.763 326.173 154.659C326.976 155.556 327.377 156.748 327.377 158.236V158.351C327.377 159.276 327.198 160.108 326.841 160.847C326.489 161.579 325.982 162.15 325.32 162.561C324.664 162.971 323.908 163.176 323.053 163.176C321.764 163.176 320.718 162.728 319.915 161.831C319.118 160.935 318.72 159.748 318.72 158.271V158.157ZM320.354 158.351C320.354 159.405 320.598 160.252 321.084 160.891C321.576 161.529 322.232 161.849 323.053 161.849C323.879 161.849 324.535 161.526 325.021 160.882C325.508 160.231 325.751 159.323 325.751 158.157C325.751 157.114 325.502 156.271 325.004 155.626C324.512 154.976 323.855 154.65 323.035 154.65C322.232 154.65 321.585 154.97 321.093 155.608C320.601 156.247 320.354 157.161 320.354 158.351ZM334.013 154.949C333.767 154.908 333.5 154.888 333.213 154.888C332.146 154.888 331.423 155.342 331.042 156.25V163H329.416V153.49H330.998L331.024 154.589C331.558 153.739 332.313 153.314 333.292 153.314C333.608 153.314 333.849 153.355 334.013 153.438V154.949ZM338.785 160.618L341 153.49H342.74L338.917 164.468C338.325 166.05 337.385 166.841 336.096 166.841L335.788 166.814L335.182 166.7V165.382L335.621 165.417C336.172 165.417 336.6 165.306 336.904 165.083C337.215 164.86 337.47 164.453 337.669 163.861L338.029 162.895L334.637 153.49H336.412L338.785 160.618Z" fill="black"/>
</svg>
