<svg width="600" height="300" viewBox="0 0 600 300" fill="none" xmlns="http://www.w3.org/2000/svg">
<rect width="600" height="300" fill="white"/>
<circle cx="223" cy="149" r="139" fill="white" stroke="black" stroke-width="2"/>
<circle cx="377" cy="149" r="139" stroke="black" stroke-width="2"/>
<rect x="255.5" y="104.5" width="89" height="89" rx="3.5" fill="white" stroke="black"/>
<path d="M282.94 137.781V142.791H281.253V129.994H285.973C287.373 129.994 288.469 130.352 289.26 131.067C290.057 131.781 290.455 132.728 290.455 133.905C290.455 135.148 290.065 136.106 289.286 136.779C288.513 137.447 287.402 137.781 285.955 137.781H282.94ZM282.94 136.402H285.973C286.875 136.402 287.566 136.191 288.047 135.769C288.527 135.341 288.768 134.726 288.768 133.923C288.768 133.161 288.527 132.552 288.047 132.095C287.566 131.638 286.907 131.401 286.069 131.383H282.94V136.402ZM294.12 142.791H292.494V133.281H294.12V142.791ZM292.362 130.759C292.362 130.495 292.441 130.273 292.6 130.091C292.764 129.909 293.004 129.819 293.32 129.819C293.637 129.819 293.877 129.909 294.041 130.091C294.205 130.273 294.287 130.495 294.287 130.759C294.287 131.023 294.205 131.242 294.041 131.418C293.877 131.594 293.637 131.682 293.32 131.682C293.004 131.682 292.764 131.594 292.6 131.418C292.441 131.242 292.362 131.023 292.362 130.759ZM299.868 140.585L302.224 133.281H303.885L300.475 142.791H299.235L295.79 133.281H297.451L299.868 140.585ZM304.878 137.948C304.878 137.017 305.06 136.179 305.423 135.435C305.792 134.691 306.302 134.116 306.952 133.712C307.608 133.308 308.355 133.106 309.193 133.106C310.488 133.106 311.534 133.554 312.331 134.45C313.134 135.347 313.535 136.539 313.535 138.028V138.142C313.535 139.068 313.356 139.9 312.999 140.638C312.647 141.37 312.141 141.942 311.479 142.352C310.822 142.762 310.066 142.967 309.211 142.967C307.922 142.967 306.876 142.519 306.073 141.622C305.276 140.726 304.878 139.539 304.878 138.063V137.948ZM306.513 138.142C306.513 139.196 306.756 140.043 307.242 140.682C307.734 141.32 308.391 141.64 309.211 141.64C310.037 141.64 310.693 141.318 311.18 140.673C311.666 140.023 311.909 139.114 311.909 137.948C311.909 136.905 311.66 136.062 311.162 135.417C310.67 134.767 310.014 134.442 309.193 134.442C308.391 134.442 307.743 134.761 307.251 135.4C306.759 136.038 306.513 136.952 306.513 138.142ZM317.78 130.979V133.281H319.556V134.538H317.78V140.436C317.78 140.817 317.859 141.104 318.018 141.297C318.176 141.485 318.445 141.578 318.826 141.578C319.014 141.578 319.271 141.543 319.6 141.473V142.791C319.172 142.908 318.756 142.967 318.352 142.967C317.625 142.967 317.077 142.747 316.708 142.308C316.339 141.868 316.154 141.244 316.154 140.436V134.538H314.423V133.281H316.154V130.979H317.78ZM292.187 163.791H290.49V157.876H284.039V163.791H282.352V150.994H284.039V156.496H290.49V150.994H292.187V163.791ZM294.498 158.948C294.498 158.017 294.68 157.179 295.043 156.435C295.412 155.691 295.922 155.116 296.572 154.712C297.229 154.308 297.976 154.106 298.813 154.106C300.108 154.106 301.154 154.554 301.951 155.45C302.754 156.347 303.155 157.539 303.155 159.028V159.142C303.155 160.068 302.977 160.9 302.619 161.638C302.268 162.37 301.761 162.942 301.099 163.352C300.442 163.762 299.687 163.967 298.831 163.967C297.542 163.967 296.496 163.519 295.693 162.622C294.896 161.726 294.498 160.539 294.498 159.063V158.948ZM296.133 159.142C296.133 160.196 296.376 161.043 296.862 161.682C297.354 162.32 298.011 162.64 298.831 162.64C299.657 162.64 300.313 162.318 300.8 161.673C301.286 161.023 301.529 160.114 301.529 158.948C301.529 157.905 301.28 157.062 300.782 156.417C300.29 155.767 299.634 155.442 298.813 155.442C298.011 155.442 297.363 155.761 296.871 156.4C296.379 157.038 296.133 157.952 296.133 159.142ZM310.731 161.269C310.731 160.829 310.564 160.489 310.23 160.249C309.902 160.003 309.325 159.792 308.499 159.616C307.679 159.441 307.025 159.23 306.539 158.984C306.059 158.737 305.701 158.445 305.467 158.105C305.238 157.765 305.124 157.361 305.124 156.892C305.124 156.112 305.452 155.453 306.108 154.914C306.771 154.375 307.614 154.106 308.64 154.106C309.718 154.106 310.591 154.384 311.259 154.941C311.933 155.497 312.27 156.209 312.27 157.076H310.635C310.635 156.631 310.444 156.247 310.063 155.925C309.688 155.603 309.214 155.442 308.64 155.442C308.048 155.442 307.585 155.57 307.251 155.828C306.917 156.086 306.75 156.423 306.75 156.839C306.75 157.232 306.905 157.528 307.216 157.727C307.526 157.926 308.086 158.116 308.895 158.298C309.709 158.48 310.368 158.696 310.872 158.948C311.376 159.2 311.748 159.505 311.988 159.862C312.234 160.214 312.357 160.645 312.357 161.154C312.357 162.004 312.018 162.687 311.338 163.202C310.658 163.712 309.776 163.967 308.692 163.967C307.931 163.967 307.257 163.832 306.671 163.563C306.085 163.293 305.625 162.918 305.291 162.438C304.963 161.951 304.799 161.427 304.799 160.864H306.425C306.454 161.409 306.671 161.843 307.075 162.165C307.485 162.482 308.024 162.64 308.692 162.64C309.308 162.64 309.8 162.517 310.169 162.271C310.544 162.019 310.731 161.685 310.731 161.269ZM316.682 151.979V154.281H318.457V155.538H316.682V161.436C316.682 161.817 316.761 162.104 316.919 162.297C317.077 162.485 317.347 162.578 317.728 162.578C317.915 162.578 318.173 162.543 318.501 162.473V163.791C318.073 163.908 317.657 163.967 317.253 163.967C316.526 163.967 315.979 163.747 315.609 163.308C315.24 162.868 315.056 162.244 315.056 161.436V155.538H313.324V154.281H315.056V151.979H316.682Z" fill="black"/>
<rect x="115.5" y="105.5" width="89" height="89" rx="3.5" fill="white" stroke="black"/>
<path d="M130.574 143.791H128.887V130.994H130.574V143.791ZM134.951 134.281L135.004 135.477C135.73 134.563 136.68 134.106 137.852 134.106C139.861 134.106 140.875 135.239 140.893 137.507V143.791H139.267V137.498C139.261 136.813 139.103 136.306 138.792 135.978C138.487 135.65 138.01 135.486 137.359 135.486C136.832 135.486 136.369 135.626 135.971 135.907C135.572 136.189 135.262 136.558 135.039 137.015V143.791H133.413V134.281H134.951ZM144.145 143.791V135.538H142.642V134.281H144.145V133.306C144.145 132.286 144.417 131.498 144.962 130.942C145.507 130.385 146.277 130.107 147.273 130.107C147.648 130.107 148.021 130.156 148.39 130.256L148.302 131.574C148.026 131.522 147.733 131.495 147.423 131.495C146.896 131.495 146.488 131.651 146.201 131.961C145.914 132.266 145.771 132.705 145.771 133.279V134.281H147.801V135.538H145.771V143.791H144.145ZM153.338 143.967C152.049 143.967 151 143.545 150.191 142.701C149.383 141.852 148.979 140.718 148.979 139.3V139.001C148.979 138.058 149.157 137.217 149.515 136.479C149.878 135.735 150.382 135.154 151.026 134.738C151.677 134.317 152.38 134.106 153.136 134.106C154.372 134.106 155.333 134.513 156.019 135.327C156.704 136.142 157.047 137.308 157.047 138.825V139.502H150.604C150.628 140.44 150.9 141.198 151.422 141.779C151.949 142.353 152.617 142.64 153.426 142.64C154 142.64 154.486 142.523 154.885 142.288C155.283 142.054 155.632 141.743 155.931 141.357L156.924 142.13C156.127 143.355 154.932 143.967 153.338 143.967ZM153.136 135.442C152.479 135.442 151.929 135.682 151.483 136.162C151.038 136.637 150.763 137.305 150.657 138.166H155.421V138.043C155.374 137.217 155.151 136.578 154.753 136.127C154.354 135.67 153.815 135.442 153.136 135.442ZM162.751 142.64C163.331 142.64 163.838 142.464 164.271 142.112C164.705 141.761 164.945 141.321 164.992 140.794H166.53C166.501 141.339 166.313 141.858 165.968 142.35C165.622 142.842 165.159 143.235 164.579 143.528C164.005 143.82 163.396 143.967 162.751 143.967C161.456 143.967 160.425 143.536 159.657 142.675C158.896 141.808 158.515 140.624 158.515 139.124V138.852C158.515 137.926 158.685 137.103 159.024 136.382C159.364 135.661 159.851 135.102 160.483 134.703C161.122 134.305 161.875 134.106 162.742 134.106C163.809 134.106 164.693 134.425 165.396 135.064C166.105 135.702 166.483 136.531 166.53 137.551H164.992C164.945 136.936 164.711 136.432 164.289 136.039C163.873 135.641 163.357 135.442 162.742 135.442C161.916 135.442 161.274 135.74 160.817 136.338C160.366 136.93 160.141 137.788 160.141 138.913V139.221C160.141 140.317 160.366 141.16 160.817 141.752C161.269 142.344 161.913 142.64 162.751 142.64ZM170.564 131.979V134.281H172.34V135.538H170.564V141.436C170.564 141.817 170.644 142.104 170.802 142.297C170.96 142.485 171.229 142.578 171.61 142.578C171.798 142.578 172.056 142.543 172.384 142.473V143.791C171.956 143.908 171.54 143.967 171.136 143.967C170.409 143.967 169.861 143.747 169.492 143.308C169.123 142.868 168.938 142.244 168.938 141.436V135.538H167.207V134.281H168.938V131.979H170.564ZM178.193 143.967C176.904 143.967 175.855 143.545 175.047 142.701C174.238 141.852 173.834 140.718 173.834 139.3V139.001C173.834 138.058 174.013 137.217 174.37 136.479C174.733 135.735 175.237 135.154 175.882 134.738C176.532 134.317 177.235 134.106 177.991 134.106C179.228 134.106 180.188 134.513 180.874 135.327C181.56 136.142 181.902 137.308 181.902 138.825V139.502H175.46C175.483 140.44 175.756 141.198 176.277 141.779C176.805 142.353 177.473 142.64 178.281 142.64C178.855 142.64 179.342 142.523 179.74 142.288C180.139 142.054 180.487 141.743 180.786 141.357L181.779 142.13C180.982 143.355 179.787 143.967 178.193 143.967ZM177.991 135.442C177.335 135.442 176.784 135.682 176.339 136.162C175.894 136.637 175.618 137.305 175.513 138.166H180.276V138.043C180.229 137.217 180.007 136.578 179.608 136.127C179.21 135.67 178.671 135.442 177.991 135.442ZM183.396 138.957C183.396 137.498 183.742 136.326 184.434 135.442C185.125 134.551 186.03 134.106 187.149 134.106C188.263 134.106 189.145 134.487 189.795 135.248V130.291H191.421V143.791H189.927L189.848 142.772C189.197 143.569 188.292 143.967 187.132 143.967C186.03 143.967 185.131 143.516 184.434 142.613C183.742 141.711 183.396 140.533 183.396 139.08V138.957ZM185.022 139.142C185.022 140.22 185.245 141.064 185.69 141.673C186.136 142.282 186.751 142.587 187.536 142.587C188.567 142.587 189.32 142.124 189.795 141.198V136.83C189.309 135.934 188.562 135.486 187.554 135.486C186.757 135.486 186.136 135.793 185.69 136.408C185.245 137.024 185.022 137.935 185.022 139.142ZM144.9 164.791H143.204V158.876H136.753V164.791H135.065V151.994H136.753V157.496H143.204V151.994H144.9V164.791ZM147.212 159.948C147.212 159.017 147.394 158.179 147.757 157.435C148.126 156.691 148.636 156.116 149.286 155.712C149.942 155.308 150.689 155.106 151.527 155.106C152.822 155.106 153.868 155.554 154.665 156.45C155.468 157.347 155.869 158.539 155.869 160.028V160.142C155.869 161.068 155.69 161.9 155.333 162.638C154.981 163.37 154.475 163.942 153.812 164.352C153.156 164.762 152.4 164.967 151.545 164.967C150.256 164.967 149.21 164.519 148.407 163.622C147.61 162.726 147.212 161.539 147.212 160.063V159.948ZM148.847 160.142C148.847 161.196 149.09 162.043 149.576 162.682C150.068 163.32 150.725 163.64 151.545 163.64C152.371 163.64 153.027 163.318 153.514 162.673C154 162.023 154.243 161.114 154.243 159.948C154.243 158.905 153.994 158.062 153.496 157.417C153.004 156.767 152.348 156.442 151.527 156.442C150.725 156.442 150.077 156.761 149.585 157.4C149.093 158.038 148.847 158.952 148.847 160.142ZM163.445 162.269C163.445 161.829 163.278 161.489 162.944 161.249C162.616 161.003 162.039 160.792 161.213 160.616C160.393 160.441 159.739 160.23 159.253 159.984C158.772 159.737 158.415 159.445 158.181 159.105C157.952 158.765 157.838 158.361 157.838 157.892C157.838 157.112 158.166 156.453 158.822 155.914C159.484 155.375 160.328 155.106 161.354 155.106C162.432 155.106 163.305 155.384 163.973 155.941C164.646 156.497 164.983 157.209 164.983 158.076H163.349C163.349 157.631 163.158 157.247 162.777 156.925C162.402 156.603 161.928 156.442 161.354 156.442C160.762 156.442 160.299 156.57 159.965 156.828C159.631 157.086 159.464 157.423 159.464 157.839C159.464 158.232 159.619 158.528 159.93 158.727C160.24 158.926 160.8 159.116 161.608 159.298C162.423 159.48 163.082 159.696 163.586 159.948C164.09 160.2 164.462 160.505 164.702 160.862C164.948 161.214 165.071 161.645 165.071 162.154C165.071 163.004 164.731 163.687 164.052 164.202C163.372 164.712 162.49 164.967 161.406 164.967C160.645 164.967 159.971 164.832 159.385 164.563C158.799 164.293 158.339 163.918 158.005 163.438C157.677 162.951 157.513 162.427 157.513 161.864H159.139C159.168 162.409 159.385 162.843 159.789 163.165C160.199 163.482 160.738 163.64 161.406 163.64C162.021 163.64 162.514 163.517 162.883 163.271C163.258 163.019 163.445 162.685 163.445 162.269ZM169.396 152.979V155.281H171.171V156.538H169.396V162.436C169.396 162.817 169.475 163.104 169.633 163.297C169.791 163.485 170.061 163.578 170.441 163.578C170.629 163.578 170.887 163.543 171.215 163.473V164.791C170.787 164.908 170.371 164.967 169.967 164.967C169.24 164.967 168.692 164.747 168.323 164.308C167.954 163.868 167.77 163.244 167.77 162.436V156.538H166.038V155.281H167.77V152.979H169.396ZM182.72 164.791H181.085V153.954L177.807 155.158V153.682L182.465 151.933H182.72V164.791Z" fill="black"/>
<rect x="398.5" y="104.5" width="89" height="89" rx="3.5" fill="white" stroke="black"/>
<path d="M427.83 142.383H423.717V153.791H422.038V142.383H417.934V140.994H427.83V142.383ZM434.343 153.791C434.249 153.604 434.173 153.27 434.114 152.789C433.358 153.574 432.456 153.967 431.407 153.967C430.47 153.967 429.699 153.703 429.096 153.176C428.498 152.643 428.199 151.969 428.199 151.154C428.199 150.164 428.574 149.397 429.324 148.852C430.08 148.301 431.141 148.026 432.506 148.026H434.088V147.279C434.088 146.71 433.918 146.259 433.578 145.925C433.238 145.585 432.737 145.415 432.075 145.415C431.495 145.415 431.009 145.562 430.616 145.855C430.224 146.148 430.027 146.502 430.027 146.918H428.393C428.393 146.444 428.56 145.987 428.894 145.547C429.233 145.102 429.69 144.75 430.265 144.492C430.845 144.235 431.48 144.106 432.172 144.106C433.268 144.106 434.126 144.381 434.747 144.932C435.368 145.477 435.69 146.23 435.714 147.191V151.568C435.714 152.441 435.825 153.135 436.048 153.651V153.791H434.343ZM431.645 152.552C432.154 152.552 432.638 152.42 433.095 152.156C433.552 151.893 433.883 151.55 434.088 151.128V149.177H432.813C430.821 149.177 429.825 149.76 429.825 150.926C429.825 151.436 429.995 151.834 430.335 152.121C430.675 152.408 431.111 152.552 431.645 152.552ZM442.859 145.74C442.613 145.699 442.347 145.679 442.06 145.679C440.993 145.679 440.27 146.133 439.889 147.041V153.791H438.263V144.281H439.845L439.871 145.38C440.404 144.53 441.16 144.106 442.139 144.106C442.455 144.106 442.695 144.147 442.859 144.229V145.74ZM443.8 148.957C443.8 147.475 444.143 146.297 444.828 145.424C445.514 144.545 446.422 144.106 447.553 144.106C448.713 144.106 449.618 144.516 450.269 145.336L450.348 144.281H451.833V153.563C451.833 154.793 451.467 155.763 450.734 156.472C450.008 157.181 449.029 157.535 447.799 157.535C447.113 157.535 446.442 157.389 445.786 157.096C445.13 156.803 444.629 156.402 444.283 155.892L445.127 154.916C445.824 155.778 446.677 156.208 447.685 156.208C448.476 156.208 449.091 155.986 449.53 155.54C449.976 155.095 450.198 154.468 450.198 153.659V152.842C449.548 153.592 448.66 153.967 447.535 153.967C446.422 153.967 445.52 153.519 444.828 152.622C444.143 151.726 443.8 150.504 443.8 148.957ZM445.435 149.142C445.435 150.214 445.654 151.058 446.094 151.673C446.533 152.282 447.148 152.587 447.939 152.587C448.965 152.587 449.718 152.121 450.198 151.19V146.848C449.7 145.94 448.953 145.486 447.957 145.486C447.166 145.486 446.548 145.793 446.103 146.408C445.657 147.024 445.435 147.935 445.435 149.142ZM458.24 153.967C456.951 153.967 455.902 153.545 455.094 152.701C454.285 151.852 453.881 150.718 453.881 149.3V149.001C453.881 148.058 454.06 147.217 454.417 146.479C454.78 145.735 455.284 145.154 455.929 144.738C456.579 144.317 457.282 144.106 458.038 144.106C459.274 144.106 460.235 144.513 460.921 145.327C461.606 146.142 461.949 147.308 461.949 148.825V149.502H455.507C455.53 150.44 455.803 151.198 456.324 151.779C456.852 152.353 457.52 152.64 458.328 152.64C458.902 152.64 459.389 152.523 459.787 152.288C460.186 152.054 460.534 151.743 460.833 151.357L461.826 152.13C461.029 153.355 459.834 153.967 458.24 153.967ZM458.038 145.442C457.382 145.442 456.831 145.682 456.386 146.162C455.94 146.637 455.665 147.305 455.56 148.166H460.323V148.043C460.276 147.217 460.054 146.578 459.655 146.127C459.257 145.67 458.718 145.442 458.038 145.442ZM466.045 141.979V144.281H467.82V145.538H466.045V151.436C466.045 151.817 466.124 152.104 466.282 152.297C466.44 152.485 466.71 152.578 467.091 152.578C467.278 152.578 467.536 152.543 467.864 152.473V153.791C467.437 153.908 467.021 153.967 466.616 153.967C465.89 153.967 465.342 153.747 464.973 153.308C464.604 152.868 464.419 152.244 464.419 151.436V145.538H462.688V144.281H464.419V141.979H466.045Z" fill="black"/>
<path d="M174.073 53H171.355L164.384 41.9033V53H161.666V37.3594H164.384L171.377 48.499V37.3594H174.073V53ZM182.151 53.2148C180.497 53.2148 179.154 52.6956 178.123 51.6572C177.099 50.6117 176.587 49.2223 176.587 47.4893V47.167C176.587 46.0068 176.809 44.972 177.253 44.0625C177.704 43.1458 178.334 42.4333 179.144 41.9248C179.953 41.4163 180.855 41.1621 181.851 41.1621C183.433 41.1621 184.654 41.667 185.514 42.6768C186.38 43.6865 186.813 45.1152 186.813 46.9629V48.0156H179.219C179.298 48.9753 179.616 49.7344 180.175 50.293C180.741 50.8516 181.45 51.1309 182.302 51.1309C183.498 51.1309 184.472 50.6475 185.224 49.6807L186.631 51.0234C186.165 51.7181 185.542 52.2588 184.762 52.6455C183.988 53.0251 183.118 53.2148 182.151 53.2148ZM181.84 43.2568C181.124 43.2568 180.544 43.5075 180.1 44.0088C179.663 44.5101 179.383 45.2083 179.262 46.1035H184.235V45.9102C184.178 45.0365 183.945 44.3776 183.537 43.9336C183.129 43.4824 182.563 43.2568 181.84 43.2568ZM192.12 38.5518V41.377H194.172V43.3105H192.12V49.7988C192.12 50.2428 192.206 50.5651 192.378 50.7656C192.557 50.959 192.872 51.0557 193.323 51.0557C193.624 51.0557 193.928 51.0199 194.236 50.9482V52.9678C193.642 53.1325 193.069 53.2148 192.518 53.2148C190.512 53.2148 189.51 52.1084 189.51 49.8955V43.3105H187.598V41.377H189.51V38.5518H192.12ZM206.386 49.4014L208.233 41.377H210.779L207.61 53H205.462L202.97 45.0186L200.521 53H198.372L195.192 41.377H197.738L199.618 49.3154L202.003 41.377H203.969L206.386 49.4014ZM212.036 47.0811C212.036 45.9424 212.262 44.9183 212.713 44.0088C213.164 43.0921 213.798 42.3903 214.614 41.9033C215.431 41.4092 216.369 41.1621 217.429 41.1621C218.997 41.1621 220.268 41.667 221.242 42.6768C222.223 43.6865 222.753 45.0257 222.832 46.6943L222.843 47.3066C222.843 48.4525 222.621 49.4766 222.177 50.3789C221.74 51.2812 221.11 51.9795 220.286 52.4736C219.47 52.9678 218.524 53.2148 217.45 53.2148C215.81 53.2148 214.496 52.6706 213.508 51.582C212.527 50.4863 212.036 49.029 212.036 47.21V47.0811ZM214.646 47.3066C214.646 48.5026 214.894 49.4408 215.388 50.1211C215.882 50.7943 216.569 51.1309 217.45 51.1309C218.331 51.1309 219.015 50.7871 219.502 50.0996C219.996 49.4121 220.243 48.4059 220.243 47.0811C220.243 45.9066 219.989 44.9756 219.48 44.2881C218.979 43.6006 218.295 43.2568 217.429 43.2568C216.576 43.2568 215.9 43.597 215.398 44.2773C214.897 44.9505 214.646 45.9603 214.646 47.3066ZM231.136 43.7617C230.792 43.7044 230.438 43.6758 230.072 43.6758C228.876 43.6758 228.071 44.1341 227.655 45.0508V53H225.045V41.377H227.537L227.602 42.6768C228.232 41.667 229.105 41.1621 230.223 41.1621C230.595 41.1621 230.903 41.2122 231.146 41.3125L231.136 43.7617ZM236.561 48.0156L235.4 49.208V53H232.79V36.5H235.4V46.0176L236.217 44.9971L239.429 41.377H242.565L238.247 46.2217L243.027 53H240.009L236.561 48.0156ZM256.659 53H254.06V40.4424L250.225 41.7529V39.5508L256.326 37.3057H256.659V53Z" fill="black"/>
<path d="M359.073 53H356.355L349.384 41.9033V53H346.666V37.3594H349.384L356.377 48.499V37.3594H359.073V53ZM367.151 53.2148C365.497 53.2148 364.154 52.6956 363.123 51.6572C362.099 50.6117 361.587 49.2223 361.587 47.4893V47.167C361.587 46.0068 361.809 44.972 362.253 44.0625C362.704 43.1458 363.334 42.4333 364.144 41.9248C364.953 41.4163 365.855 41.1621 366.851 41.1621C368.433 41.1621 369.654 41.667 370.514 42.6768C371.38 43.6865 371.813 45.1152 371.813 46.9629V48.0156H364.219C364.298 48.9753 364.616 49.7344 365.175 50.293C365.741 50.8516 366.45 51.1309 367.302 51.1309C368.498 51.1309 369.472 50.6475 370.224 49.6807L371.631 51.0234C371.165 51.7181 370.542 52.2588 369.762 52.6455C368.988 53.0251 368.118 53.2148 367.151 53.2148ZM366.84 43.2568C366.124 43.2568 365.544 43.5075 365.1 44.0088C364.663 44.5101 364.383 45.2083 364.262 46.1035H369.235V45.9102C369.178 45.0365 368.945 44.3776 368.537 43.9336C368.129 43.4824 367.563 43.2568 366.84 43.2568ZM377.12 38.5518V41.377H379.172V43.3105H377.12V49.7988C377.12 50.2428 377.206 50.5651 377.378 50.7656C377.557 50.959 377.872 51.0557 378.323 51.0557C378.624 51.0557 378.928 51.0199 379.236 50.9482V52.9678C378.642 53.1325 378.069 53.2148 377.518 53.2148C375.512 53.2148 374.51 52.1084 374.51 49.8955V43.3105H372.598V41.377H374.51V38.5518H377.12ZM391.386 49.4014L393.233 41.377H395.779L392.61 53H390.462L387.97 45.0186L385.521 53H383.372L380.192 41.377H382.738L384.618 49.3154L387.003 41.377H388.969L391.386 49.4014ZM397.036 47.0811C397.036 45.9424 397.262 44.9183 397.713 44.0088C398.164 43.0921 398.798 42.3903 399.614 41.9033C400.431 41.4092 401.369 41.1621 402.429 41.1621C403.997 41.1621 405.268 41.667 406.242 42.6768C407.223 43.6865 407.753 45.0257 407.832 46.6943L407.843 47.3066C407.843 48.4525 407.621 49.4766 407.177 50.3789C406.74 51.2812 406.11 51.9795 405.286 52.4736C404.47 52.9678 403.524 53.2148 402.45 53.2148C400.81 53.2148 399.496 52.6706 398.508 51.582C397.527 50.4863 397.036 49.029 397.036 47.21V47.0811ZM399.646 47.3066C399.646 48.5026 399.894 49.4408 400.388 50.1211C400.882 50.7943 401.569 51.1309 402.45 51.1309C403.331 51.1309 404.015 50.7871 404.502 50.0996C404.996 49.4121 405.243 48.4059 405.243 47.0811C405.243 45.9066 404.989 44.9756 404.48 44.2881C403.979 43.6006 403.295 43.2568 402.429 43.2568C401.576 43.2568 400.9 43.597 400.398 44.2773C399.897 44.9505 399.646 45.9603 399.646 47.3066ZM416.136 43.7617C415.792 43.7044 415.438 43.6758 415.072 43.6758C413.876 43.6758 413.071 44.1341 412.655 45.0508V53H410.045V41.377H412.537L412.602 42.6768C413.232 41.667 414.105 41.1621 415.223 41.1621C415.595 41.1621 415.903 41.2122 416.146 41.3125L416.136 43.7617ZM421.561 48.0156L420.4 49.208V53H417.79V36.5H420.4V46.0176L421.217 44.9971L424.429 41.377H427.565L423.247 46.2217L428.027 53H425.009L421.561 48.0156ZM445.107 53H434.591V51.2061L439.801 45.5234C440.553 44.6855 441.086 43.9873 441.401 43.4287C441.724 42.863 441.885 42.2972 441.885 41.7314C441.885 40.9867 441.674 40.3851 441.251 39.9268C440.836 39.4684 440.273 39.2393 439.564 39.2393C438.719 39.2393 438.064 39.4971 437.599 40.0127C437.133 40.5283 436.9 41.2337 436.9 42.1289H434.29C434.29 41.1764 434.505 40.3206 434.935 39.5615C435.371 38.7952 435.991 38.2008 436.793 37.7783C437.602 37.3558 438.533 37.1445 439.586 37.1445C441.104 37.1445 442.3 37.5277 443.174 38.2939C444.055 39.0531 444.495 40.1058 444.495 41.4521C444.495 42.2327 444.273 43.0527 443.829 43.9121C443.392 44.7643 442.673 45.7347 441.67 46.8232L437.846 50.916H445.107V53Z" fill="black"/>
<path d="M255.707 150.707C256.098 150.317 256.098 149.683 255.707 149.293L249.343 142.929C248.953 142.538 248.319 142.538 247.929 142.929C247.538 143.319 247.538 143.953 247.929 144.343L253.586 150L247.929 155.657C247.538 156.047 247.538 156.681 247.929 157.071C248.319 157.462 248.953 157.462 249.343 157.071L255.707 150.707ZM205 151H255V149H205V151Z" fill="black"/>
<path d="M397.707 150.707C398.098 150.317 398.098 149.683 397.707 149.293L391.343 142.929C390.953 142.538 390.319 142.538 389.929 142.929C389.538 143.319 389.538 143.953 389.929 144.343L395.586 150L389.929 155.657C389.538 156.047 389.538 156.681 389.929 157.071C390.319 157.462 390.953 157.462 391.343 157.071L397.707 150.707ZM345 151H397V149H345V151Z" fill="black"/>
</svg>
