<svg width="600" height="300" viewBox="0 0 600 300" fill="none" xmlns="http://www.w3.org/2000/svg">
<rect width="600" height="300" fill="white"/>
<rect x="250.5" y="48.5" width="99" height="99" rx="3.5" stroke="black"/>
<path d="M259.938 104V91.2031H264.122C265.511 91.2031 266.554 91.4902 267.251 92.0645C267.954 92.6387 268.306 93.4883 268.306 94.6133C268.306 95.2109 268.136 95.7412 267.796 96.2041C267.456 96.6611 266.993 97.0156 266.407 97.2676C267.099 97.4609 267.644 97.8301 268.042 98.375C268.446 98.9141 268.648 99.5586 268.648 100.309C268.648 101.457 268.276 102.359 267.532 103.016C266.788 103.672 265.736 104 264.377 104H259.938ZM261.626 98.0146V102.62H264.412C265.197 102.62 265.815 102.418 266.267 102.014C266.724 101.604 266.952 101.041 266.952 100.326C266.952 98.7852 266.114 98.0146 264.438 98.0146H261.626ZM261.626 96.6611H264.175C264.913 96.6611 265.502 96.4766 265.941 96.1074C266.387 95.7383 266.609 95.2373 266.609 94.6045C266.609 93.9014 266.404 93.3916 265.994 93.0752C265.584 92.7529 264.96 92.5918 264.122 92.5918H261.626V96.6611ZM275.495 95.9492C275.249 95.9082 274.982 95.8877 274.695 95.8877C273.629 95.8877 272.905 96.3418 272.524 97.25V104H270.898V94.4902H272.48L272.507 95.5889C273.04 94.7393 273.796 94.3145 274.774 94.3145C275.091 94.3145 275.331 94.3555 275.495 94.4375V95.9492ZM282.869 103.06C282.236 103.804 281.308 104.176 280.083 104.176C279.069 104.176 278.296 103.883 277.763 103.297C277.235 102.705 276.969 101.832 276.963 100.678V94.4902H278.589V100.634C278.589 102.075 279.175 102.796 280.347 102.796C281.589 102.796 282.415 102.333 282.825 101.407V94.4902H284.451V104H282.904L282.869 103.06ZM289.136 92.1875V94.4902H290.911V95.7471H289.136V101.645C289.136 102.025 289.215 102.312 289.373 102.506C289.531 102.693 289.801 102.787 290.182 102.787C290.369 102.787 290.627 102.752 290.955 102.682V104C290.527 104.117 290.111 104.176 289.707 104.176C288.98 104.176 288.433 103.956 288.063 103.517C287.694 103.077 287.51 102.453 287.51 101.645V95.7471H285.778V94.4902H287.51V92.1875H289.136ZM296.765 104.176C295.476 104.176 294.427 103.754 293.618 102.91C292.81 102.061 292.405 100.927 292.405 99.5088V99.21C292.405 98.2666 292.584 97.4258 292.941 96.6875C293.305 95.9434 293.809 95.3633 294.453 94.9473C295.104 94.5254 295.807 94.3145 296.562 94.3145C297.799 94.3145 298.76 94.7217 299.445 95.5361C300.131 96.3506 300.474 97.5166 300.474 99.0342V99.7109H294.031C294.055 100.648 294.327 101.407 294.849 101.987C295.376 102.562 296.044 102.849 296.853 102.849C297.427 102.849 297.913 102.731 298.312 102.497C298.71 102.263 299.059 101.952 299.357 101.565L300.351 102.339C299.554 103.563 298.358 104.176 296.765 104.176ZM296.562 95.6504C295.906 95.6504 295.355 95.8906 294.91 96.3711C294.465 96.8457 294.189 97.5137 294.084 98.375H298.848V98.252C298.801 97.4258 298.578 96.7871 298.18 96.3359C297.781 95.8789 297.242 95.6504 296.562 95.6504ZM303.163 104V95.7471H301.66V94.4902H303.163V93.5146C303.163 92.4951 303.436 91.707 303.98 91.1504C304.525 90.5938 305.296 90.3154 306.292 90.3154C306.667 90.3154 307.039 90.3652 307.408 90.4648L307.32 91.7832C307.045 91.7305 306.752 91.7041 306.441 91.7041C305.914 91.7041 305.507 91.8594 305.22 92.1699C304.933 92.4746 304.789 92.9141 304.789 93.4883V94.4902H306.819V95.7471H304.789V104H303.163ZM308.19 99.1572C308.19 98.2256 308.372 97.3877 308.735 96.6436C309.104 95.8994 309.614 95.3252 310.265 94.9209C310.921 94.5166 311.668 94.3145 312.506 94.3145C313.801 94.3145 314.847 94.7627 315.644 95.6592C316.446 96.5557 316.848 97.748 316.848 99.2363V99.3506C316.848 100.276 316.669 101.108 316.312 101.847C315.96 102.579 315.453 103.15 314.791 103.561C314.135 103.971 313.379 104.176 312.523 104.176C311.234 104.176 310.188 103.728 309.386 102.831C308.589 101.935 308.19 100.748 308.19 99.2715V99.1572ZM309.825 99.3506C309.825 100.405 310.068 101.252 310.555 101.891C311.047 102.529 311.703 102.849 312.523 102.849C313.35 102.849 314.006 102.526 314.492 101.882C314.979 101.231 315.222 100.323 315.222 99.1572C315.222 98.1143 314.973 97.2705 314.475 96.626C313.982 95.9756 313.326 95.6504 312.506 95.6504C311.703 95.6504 311.056 95.9697 310.563 96.6084C310.071 97.2471 309.825 98.1611 309.825 99.3506ZM323.483 95.9492C323.237 95.9082 322.971 95.8877 322.684 95.8877C321.617 95.8877 320.894 96.3418 320.513 97.25V104H318.887V94.4902H320.469L320.495 95.5889C321.028 94.7393 321.784 94.3145 322.763 94.3145C323.079 94.3145 323.319 94.3555 323.483 94.4375V95.9492ZM328.625 102.849C329.205 102.849 329.712 102.673 330.146 102.321C330.579 101.97 330.819 101.53 330.866 101.003H332.404C332.375 101.548 332.188 102.066 331.842 102.559C331.496 103.051 331.033 103.443 330.453 103.736C329.879 104.029 329.27 104.176 328.625 104.176C327.33 104.176 326.299 103.745 325.531 102.884C324.77 102.017 324.389 100.833 324.389 99.333V99.0605C324.389 98.1348 324.559 97.3115 324.898 96.5908C325.238 95.8701 325.725 95.3105 326.357 94.9121C326.996 94.5137 327.749 94.3145 328.616 94.3145C329.683 94.3145 330.567 94.6338 331.271 95.2725C331.979 95.9111 332.357 96.7402 332.404 97.7598H330.866C330.819 97.1445 330.585 96.6406 330.163 96.248C329.747 95.8496 329.231 95.6504 328.616 95.6504C327.79 95.6504 327.148 95.9492 326.691 96.5469C326.24 97.1387 326.015 97.9971 326.015 99.1221V99.4297C326.015 100.525 326.24 101.369 326.691 101.961C327.143 102.553 327.787 102.849 328.625 102.849ZM338.179 104.176C336.89 104.176 335.841 103.754 335.032 102.91C334.224 102.061 333.819 100.927 333.819 99.5088V99.21C333.819 98.2666 333.998 97.4258 334.355 96.6875C334.719 95.9434 335.223 95.3633 335.867 94.9473C336.518 94.5254 337.221 94.3145 337.977 94.3145C339.213 94.3145 340.174 94.7217 340.859 95.5361C341.545 96.3506 341.888 97.5166 341.888 99.0342V99.7109H335.445C335.469 100.648 335.741 101.407 336.263 101.987C336.79 102.562 337.458 102.849 338.267 102.849C338.841 102.849 339.327 102.731 339.726 102.497C340.124 102.263 340.473 101.952 340.771 101.565L341.765 102.339C340.968 103.563 339.772 104.176 338.179 104.176ZM337.977 95.6504C337.32 95.6504 336.77 95.8906 336.324 96.3711C335.879 96.8457 335.604 97.5137 335.498 98.375H340.262V98.252C340.215 97.4258 339.992 96.7871 339.594 96.3359C339.195 95.8789 338.656 95.6504 337.977 95.6504Z" fill="black"/>
<path d="M276.49 238.085H270.944V242.62H277.387V244H269.257V231.203H277.299V232.592H270.944V236.705H276.49V238.085ZM282.423 237.962L284.532 234.49H286.431L283.319 239.192L286.527 244H284.646L282.449 240.44L280.252 244H278.362L281.57 239.192L278.459 234.49H280.34L282.423 237.962ZM296.195 239.351C296.195 240.798 295.864 241.964 295.202 242.849C294.54 243.733 293.644 244.176 292.513 244.176C291.358 244.176 290.45 243.81 289.788 243.077V247.656H288.162V234.49H289.647L289.727 235.545C290.389 234.725 291.309 234.314 292.486 234.314C293.629 234.314 294.531 234.745 295.193 235.606C295.861 236.468 296.195 237.666 296.195 239.201V239.351ZM294.569 239.166C294.569 238.094 294.341 237.247 293.884 236.626C293.427 236.005 292.8 235.694 292.003 235.694C291.019 235.694 290.28 236.131 289.788 237.004V241.548C290.274 242.415 291.019 242.849 292.021 242.849C292.8 242.849 293.418 242.541 293.875 241.926C294.338 241.305 294.569 240.385 294.569 239.166ZM300.036 244H298.41V230.5H300.036V244ZM302.216 239.157C302.216 238.226 302.397 237.388 302.761 236.644C303.13 235.899 303.64 235.325 304.29 234.921C304.946 234.517 305.693 234.314 306.531 234.314C307.826 234.314 308.872 234.763 309.669 235.659C310.472 236.556 310.873 237.748 310.873 239.236V239.351C310.873 240.276 310.694 241.108 310.337 241.847C309.985 242.579 309.479 243.15 308.816 243.561C308.16 243.971 307.404 244.176 306.549 244.176C305.26 244.176 304.214 243.728 303.411 242.831C302.614 241.935 302.216 240.748 302.216 239.271V239.157ZM303.851 239.351C303.851 240.405 304.094 241.252 304.58 241.891C305.072 242.529 305.729 242.849 306.549 242.849C307.375 242.849 308.031 242.526 308.518 241.882C309.004 241.231 309.247 240.323 309.247 239.157C309.247 238.114 308.998 237.271 308.5 236.626C308.008 235.976 307.352 235.65 306.531 235.65C305.729 235.65 305.081 235.97 304.589 236.608C304.097 237.247 303.851 238.161 303.851 239.351ZM314.679 244H313.053V234.49H314.679V244ZM312.921 231.968C312.921 231.704 313 231.481 313.158 231.3C313.322 231.118 313.562 231.027 313.879 231.027C314.195 231.027 314.436 231.118 314.6 231.3C314.764 231.481 314.846 231.704 314.846 231.968C314.846 232.231 314.764 232.451 314.6 232.627C314.436 232.803 314.195 232.891 313.879 232.891C313.562 232.891 313.322 232.803 313.158 232.627C313 232.451 312.921 232.231 312.921 231.968ZM319.495 232.188V234.49H321.271V235.747H319.495V241.645C319.495 242.025 319.574 242.312 319.732 242.506C319.891 242.693 320.16 242.787 320.541 242.787C320.729 242.787 320.986 242.752 321.314 242.682V244C320.887 244.117 320.471 244.176 320.066 244.176C319.34 244.176 318.792 243.956 318.423 243.517C318.054 243.077 317.869 242.453 317.869 241.645V235.747H316.138V234.49H317.869V232.188H319.495ZM328.715 241.478C328.715 241.038 328.548 240.698 328.214 240.458C327.886 240.212 327.309 240.001 326.482 239.825C325.662 239.649 325.009 239.438 324.522 239.192C324.042 238.946 323.685 238.653 323.45 238.313C323.222 237.974 323.107 237.569 323.107 237.101C323.107 236.321 323.436 235.662 324.092 235.123C324.754 234.584 325.598 234.314 326.623 234.314C327.701 234.314 328.574 234.593 329.242 235.149C329.916 235.706 330.253 236.418 330.253 237.285H328.618C328.618 236.84 328.428 236.456 328.047 236.134C327.672 235.812 327.197 235.65 326.623 235.65C326.031 235.65 325.568 235.779 325.234 236.037C324.9 236.295 324.733 236.632 324.733 237.048C324.733 237.44 324.889 237.736 325.199 237.936C325.51 238.135 326.069 238.325 326.878 238.507C327.692 238.688 328.352 238.905 328.855 239.157C329.359 239.409 329.731 239.714 329.972 240.071C330.218 240.423 330.341 240.854 330.341 241.363C330.341 242.213 330.001 242.896 329.321 243.411C328.642 243.921 327.76 244.176 326.676 244.176C325.914 244.176 325.24 244.041 324.654 243.771C324.068 243.502 323.608 243.127 323.274 242.646C322.946 242.16 322.782 241.636 322.782 241.073H324.408C324.438 241.618 324.654 242.052 325.059 242.374C325.469 242.69 326.008 242.849 326.676 242.849C327.291 242.849 327.783 242.726 328.152 242.479C328.527 242.228 328.715 241.894 328.715 241.478Z" fill="black"/>
<rect x="249.5" y="188.5" width="99" height="99" rx="3.5" stroke="black"/>
<path d="M104.865 27.9717C104.865 27.2842 104.622 26.7542 104.135 26.3818C103.655 26.0094 102.785 25.6335 101.524 25.2539C100.264 24.8743 99.2614 24.4518 98.5166 23.9863C97.0915 23.0911 96.3789 21.9238 96.3789 20.4844C96.3789 19.224 96.891 18.1855 97.915 17.3691C98.9463 16.5527 100.282 16.1445 101.922 16.1445C103.01 16.1445 103.981 16.3451 104.833 16.7461C105.685 17.1471 106.355 17.7201 106.842 18.4648C107.329 19.2025 107.572 20.0225 107.572 20.9248H104.865C104.865 20.1084 104.607 19.471 104.092 19.0127C103.583 18.5472 102.853 18.3145 101.9 18.3145C101.012 18.3145 100.321 18.5042 99.8271 18.8838C99.3402 19.2633 99.0967 19.7933 99.0967 20.4736C99.0967 21.0465 99.3617 21.5264 99.8916 21.9131C100.422 22.2926 101.295 22.665 102.513 23.0303C103.73 23.3883 104.708 23.8001 105.445 24.2656C106.183 24.724 106.724 25.2539 107.067 25.8555C107.411 26.4499 107.583 27.1481 107.583 27.9502C107.583 29.2536 107.082 30.292 106.079 31.0654C105.084 31.8317 103.73 32.2148 102.019 32.2148C100.887 32.2148 99.8451 32.0072 98.8926 31.5918C97.9473 31.1693 97.2096 30.5892 96.6797 29.8516C96.1569 29.1139 95.8955 28.2546 95.8955 27.2734H98.6133C98.6133 28.1615 98.9069 28.849 99.4941 29.3359C100.081 29.8229 100.923 30.0664 102.019 30.0664C102.964 30.0664 103.673 29.8766 104.146 29.4971C104.625 29.1104 104.865 28.6019 104.865 27.9717ZM112.986 17.5518V20.377H115.038V22.3105H112.986V28.7988C112.986 29.2428 113.072 29.5651 113.244 29.7656C113.423 29.959 113.738 30.0557 114.189 30.0557C114.49 30.0557 114.795 30.0199 115.103 29.9482V31.9678C114.508 32.1325 113.935 32.2148 113.384 32.2148C111.379 32.2148 110.376 31.1084 110.376 28.8955V22.3105H108.464V20.377H110.376V17.5518H112.986ZM122.16 32.2148C120.506 32.2148 119.163 31.6956 118.132 30.6572C117.108 29.6117 116.596 28.2223 116.596 26.4893V26.167C116.596 25.0068 116.818 23.972 117.262 23.0625C117.713 22.1458 118.343 21.4333 119.152 20.9248C119.962 20.4163 120.864 20.1621 121.859 20.1621C123.442 20.1621 124.663 20.667 125.522 21.6768C126.389 22.6865 126.822 24.1152 126.822 25.9629V27.0156H119.228C119.306 27.9753 119.625 28.7344 120.184 29.293C120.749 29.8516 121.458 30.1309 122.311 30.1309C123.507 30.1309 124.48 29.6475 125.232 28.6807L126.64 30.0234C126.174 30.7181 125.551 31.2588 124.771 31.6455C123.997 32.0251 123.127 32.2148 122.16 32.2148ZM121.849 22.2568C121.132 22.2568 120.552 22.5075 120.108 23.0088C119.672 23.5101 119.392 24.2083 119.271 25.1035H124.244V24.9102C124.187 24.0365 123.954 23.3776 123.546 22.9336C123.138 22.4824 122.572 22.2568 121.849 22.2568ZM139.036 26.3066C139.036 28.1042 138.628 29.54 137.812 30.6143C136.995 31.6813 135.899 32.2148 134.524 32.2148C133.25 32.2148 132.229 31.7959 131.463 30.958V36.4688H128.853V20.377H131.259L131.366 21.5586C132.132 20.6276 133.174 20.1621 134.492 20.1621C135.91 20.1621 137.02 20.6921 137.822 21.752C138.632 22.8047 139.036 24.2692 139.036 26.1455V26.3066ZM136.437 26.0811C136.437 24.9209 136.204 24.0007 135.738 23.3203C135.28 22.64 134.621 22.2998 133.762 22.2998C132.695 22.2998 131.928 22.7402 131.463 23.6211V28.7773C131.936 29.6797 132.709 30.1309 133.783 30.1309C134.614 30.1309 135.262 29.7979 135.728 29.1318C136.2 28.4587 136.437 27.4417 136.437 26.0811ZM153.635 32H151.035V19.4424L147.2 20.7529V18.5508L153.302 16.3057H153.635V32Z" fill="black"/>
<path d="M277.865 27.9717C277.865 27.2842 277.622 26.7542 277.135 26.3818C276.655 26.0094 275.785 25.6335 274.524 25.2539C273.264 24.8743 272.261 24.4518 271.517 23.9863C270.091 23.0911 269.379 21.9238 269.379 20.4844C269.379 19.224 269.891 18.1855 270.915 17.3691C271.946 16.5527 273.282 16.1445 274.922 16.1445C276.01 16.1445 276.981 16.3451 277.833 16.7461C278.685 17.1471 279.355 17.7201 279.842 18.4648C280.329 19.2025 280.572 20.0225 280.572 20.9248H277.865C277.865 20.1084 277.607 19.471 277.092 19.0127C276.583 18.5472 275.853 18.3145 274.9 18.3145C274.012 18.3145 273.321 18.5042 272.827 18.8838C272.34 19.2633 272.097 19.7933 272.097 20.4736C272.097 21.0465 272.362 21.5264 272.892 21.9131C273.422 22.2926 274.295 22.665 275.513 23.0303C276.73 23.3883 277.708 23.8001 278.445 24.2656C279.183 24.724 279.724 25.2539 280.067 25.8555C280.411 26.4499 280.583 27.1481 280.583 27.9502C280.583 29.2536 280.082 30.292 279.079 31.0654C278.084 31.8317 276.73 32.2148 275.019 32.2148C273.887 32.2148 272.845 32.0072 271.893 31.5918C270.947 31.1693 270.21 30.5892 269.68 29.8516C269.157 29.1139 268.896 28.2546 268.896 27.2734H271.613C271.613 28.1615 271.907 28.849 272.494 29.3359C273.081 29.8229 273.923 30.0664 275.019 30.0664C275.964 30.0664 276.673 29.8766 277.146 29.4971C277.625 29.1104 277.865 28.6019 277.865 27.9717ZM285.986 17.5518V20.377H288.038V22.3105H285.986V28.7988C285.986 29.2428 286.072 29.5651 286.244 29.7656C286.423 29.959 286.738 30.0557 287.189 30.0557C287.49 30.0557 287.795 30.0199 288.103 29.9482V31.9678C287.508 32.1325 286.935 32.2148 286.384 32.2148C284.379 32.2148 283.376 31.1084 283.376 28.8955V22.3105H281.464V20.377H283.376V17.5518H285.986ZM295.16 32.2148C293.506 32.2148 292.163 31.6956 291.132 30.6572C290.108 29.6117 289.596 28.2223 289.596 26.4893V26.167C289.596 25.0068 289.818 23.972 290.262 23.0625C290.713 22.1458 291.343 21.4333 292.152 20.9248C292.962 20.4163 293.864 20.1621 294.859 20.1621C296.442 20.1621 297.663 20.667 298.522 21.6768C299.389 22.6865 299.822 24.1152 299.822 25.9629V27.0156H292.228C292.306 27.9753 292.625 28.7344 293.184 29.293C293.749 29.8516 294.458 30.1309 295.311 30.1309C296.507 30.1309 297.48 29.6475 298.232 28.6807L299.64 30.0234C299.174 30.7181 298.551 31.2588 297.771 31.6455C296.997 32.0251 296.127 32.2148 295.16 32.2148ZM294.849 22.2568C294.132 22.2568 293.552 22.5075 293.108 23.0088C292.672 23.5101 292.392 24.2083 292.271 25.1035H297.244V24.9102C297.187 24.0365 296.954 23.3776 296.546 22.9336C296.138 22.4824 295.572 22.2568 294.849 22.2568ZM312.036 26.3066C312.036 28.1042 311.628 29.54 310.812 30.6143C309.995 31.6813 308.899 32.2148 307.524 32.2148C306.25 32.2148 305.229 31.7959 304.463 30.958V36.4688H301.853V20.377H304.259L304.366 21.5586C305.132 20.6276 306.174 20.1621 307.492 20.1621C308.91 20.1621 310.02 20.6921 310.822 21.752C311.632 22.8047 312.036 24.2692 312.036 26.1455V26.3066ZM309.437 26.0811C309.437 24.9209 309.204 24.0007 308.738 23.3203C308.28 22.64 307.621 22.2998 306.762 22.2998C305.695 22.2998 304.928 22.7402 304.463 23.6211V28.7773C304.936 29.6797 305.709 30.1309 306.783 30.1309C307.614 30.1309 308.262 29.7979 308.728 29.1318C309.2 28.4587 309.437 27.4417 309.437 26.0811ZM330.083 32H319.566V30.2061L324.776 24.5234C325.528 23.6855 326.062 22.9873 326.377 22.4287C326.699 21.863 326.86 21.2972 326.86 20.7314C326.86 19.9867 326.649 19.3851 326.227 18.9268C325.811 18.4684 325.249 18.2393 324.54 18.2393C323.695 18.2393 323.04 18.4971 322.574 19.0127C322.109 19.5283 321.876 20.2337 321.876 21.1289H319.266C319.266 20.1764 319.48 19.3206 319.91 18.5615C320.347 17.7952 320.966 17.2008 321.769 16.7783C322.578 16.3558 323.509 16.1445 324.562 16.1445C326.08 16.1445 327.276 16.5277 328.149 17.2939C329.03 18.0531 329.471 19.1058 329.471 20.4521C329.471 21.2327 329.249 22.0527 328.805 22.9121C328.368 23.7643 327.648 24.7347 326.646 25.8232L322.821 29.916H330.083V32Z" fill="black"/>
<path d="M302.11 168.588C302.11 170.12 301.845 171.467 301.315 172.627C300.785 173.78 300.026 174.668 299.038 175.291C298.057 175.907 296.925 176.215 295.644 176.215C294.376 176.215 293.244 175.907 292.249 175.291C291.261 174.668 290.494 173.784 289.95 172.638C289.413 171.492 289.141 170.171 289.134 168.674V167.793C289.134 166.268 289.402 164.921 289.939 163.754C290.484 162.587 291.246 161.695 292.228 161.079C293.216 160.456 294.347 160.145 295.622 160.145C296.897 160.145 298.025 160.452 299.006 161.068C299.994 161.677 300.757 162.558 301.294 163.711C301.831 164.857 302.103 166.192 302.11 167.718V168.588ZM299.393 167.771C299.393 166.038 299.063 164.71 298.404 163.786C297.753 162.862 296.825 162.4 295.622 162.4C294.448 162.4 293.527 162.862 292.861 163.786C292.202 164.703 291.866 166.003 291.852 167.686V168.588C291.852 170.307 292.185 171.635 292.851 172.573C293.524 173.511 294.455 173.98 295.644 173.98C296.847 173.98 297.771 173.522 298.415 172.605C299.067 171.689 299.393 170.35 299.393 168.588V167.771ZM310.65 166.762C310.307 166.704 309.952 166.676 309.587 166.676C308.391 166.676 307.585 167.134 307.17 168.051V176H304.56V164.377H307.052L307.116 165.677C307.746 164.667 308.62 164.162 309.737 164.162C310.11 164.162 310.418 164.212 310.661 164.312L310.65 166.762Z" fill="black"/>
<path d="M451.865 27.9717C451.865 27.2842 451.622 26.7542 451.135 26.3818C450.655 26.0094 449.785 25.6335 448.524 25.2539C447.264 24.8743 446.261 24.4518 445.517 23.9863C444.091 23.0911 443.379 21.9238 443.379 20.4844C443.379 19.224 443.891 18.1855 444.915 17.3691C445.946 16.5527 447.282 16.1445 448.922 16.1445C450.01 16.1445 450.981 16.3451 451.833 16.7461C452.685 17.1471 453.355 17.7201 453.842 18.4648C454.329 19.2025 454.572 20.0225 454.572 20.9248H451.865C451.865 20.1084 451.607 19.471 451.092 19.0127C450.583 18.5472 449.853 18.3145 448.9 18.3145C448.012 18.3145 447.321 18.5042 446.827 18.8838C446.34 19.2633 446.097 19.7933 446.097 20.4736C446.097 21.0465 446.362 21.5264 446.892 21.9131C447.422 22.2926 448.295 22.665 449.513 23.0303C450.73 23.3883 451.708 23.8001 452.445 24.2656C453.183 24.724 453.724 25.2539 454.067 25.8555C454.411 26.4499 454.583 27.1481 454.583 27.9502C454.583 29.2536 454.082 30.292 453.079 31.0654C452.084 31.8317 450.73 32.2148 449.019 32.2148C447.887 32.2148 446.845 32.0072 445.893 31.5918C444.947 31.1693 444.21 30.5892 443.68 29.8516C443.157 29.1139 442.896 28.2546 442.896 27.2734H445.613C445.613 28.1615 445.907 28.849 446.494 29.3359C447.081 29.8229 447.923 30.0664 449.019 30.0664C449.964 30.0664 450.673 29.8766 451.146 29.4971C451.625 29.1104 451.865 28.6019 451.865 27.9717ZM459.986 17.5518V20.377H462.038V22.3105H459.986V28.7988C459.986 29.2428 460.072 29.5651 460.244 29.7656C460.423 29.959 460.738 30.0557 461.189 30.0557C461.49 30.0557 461.795 30.0199 462.103 29.9482V31.9678C461.508 32.1325 460.935 32.2148 460.384 32.2148C458.379 32.2148 457.376 31.1084 457.376 28.8955V22.3105H455.464V20.377H457.376V17.5518H459.986ZM469.16 32.2148C467.506 32.2148 466.163 31.6956 465.132 30.6572C464.108 29.6117 463.596 28.2223 463.596 26.4893V26.167C463.596 25.0068 463.818 23.972 464.262 23.0625C464.713 22.1458 465.343 21.4333 466.152 20.9248C466.962 20.4163 467.864 20.1621 468.859 20.1621C470.442 20.1621 471.663 20.667 472.522 21.6768C473.389 22.6865 473.822 24.1152 473.822 25.9629V27.0156H466.228C466.306 27.9753 466.625 28.7344 467.184 29.293C467.749 29.8516 468.458 30.1309 469.311 30.1309C470.507 30.1309 471.48 29.6475 472.232 28.6807L473.64 30.0234C473.174 30.7181 472.551 31.2588 471.771 31.6455C470.997 32.0251 470.127 32.2148 469.16 32.2148ZM468.849 22.2568C468.132 22.2568 467.552 22.5075 467.108 23.0088C466.672 23.5101 466.392 24.2083 466.271 25.1035H471.244V24.9102C471.187 24.0365 470.954 23.3776 470.546 22.9336C470.138 22.4824 469.572 22.2568 468.849 22.2568ZM486.036 26.3066C486.036 28.1042 485.628 29.54 484.812 30.6143C483.995 31.6813 482.899 32.2148 481.524 32.2148C480.25 32.2148 479.229 31.7959 478.463 30.958V36.4688H475.853V20.377H478.259L478.366 21.5586C479.132 20.6276 480.174 20.1621 481.492 20.1621C482.91 20.1621 484.02 20.6921 484.822 21.752C485.632 22.8047 486.036 24.2692 486.036 26.1455V26.3066ZM483.437 26.0811C483.437 24.9209 483.204 24.0007 482.738 23.3203C482.28 22.64 481.621 22.2998 480.762 22.2998C479.695 22.2998 478.928 22.7402 478.463 23.6211V28.7773C478.936 29.6797 479.709 30.1309 480.783 30.1309C481.614 30.1309 482.262 29.7979 482.728 29.1318C483.2 28.4587 483.437 27.4417 483.437 26.0811ZM496.585 22.9873H498.175C498.977 22.9801 499.611 22.7725 500.076 22.3643C500.549 21.9561 500.785 21.3652 500.785 20.5918C500.785 19.847 500.588 19.2705 500.194 18.8623C499.808 18.4469 499.213 18.2393 498.411 18.2393C497.709 18.2393 497.133 18.4434 496.682 18.8516C496.23 19.2526 496.005 19.779 496.005 20.4307H493.395C493.395 19.6286 493.606 18.8981 494.028 18.2393C494.458 17.5804 495.052 17.0684 495.812 16.7031C496.578 16.3307 497.434 16.1445 498.379 16.1445C499.94 16.1445 501.165 16.5384 502.053 17.3262C502.948 18.1068 503.396 19.1953 503.396 20.5918C503.396 21.2936 503.17 21.9561 502.719 22.5791C502.275 23.195 501.698 23.6605 500.989 23.9756C501.849 24.2692 502.5 24.7311 502.944 25.3613C503.396 25.9915 503.621 26.7435 503.621 27.6172C503.621 29.0208 503.138 30.138 502.171 30.9688C501.211 31.7995 499.947 32.2148 498.379 32.2148C496.875 32.2148 495.643 31.8138 494.684 31.0117C493.724 30.2096 493.244 29.1426 493.244 27.8105H495.854C495.854 28.498 496.084 29.0566 496.542 29.4863C497.007 29.916 497.631 30.1309 498.411 30.1309C499.22 30.1309 499.858 29.916 500.323 29.4863C500.789 29.0566 501.021 28.4336 501.021 27.6172C501.021 26.7936 500.778 26.1598 500.291 25.7158C499.804 25.2718 499.081 25.0498 498.121 25.0498H496.585V22.9873Z" fill="black"/>
<rect x="66.5" y="110.5" width="119" height="119" rx="3.5" fill="white" stroke="black"/>
<path d="M113.74 170.896C112.293 170.48 111.238 169.97 110.576 169.367C109.92 168.757 109.591 168.007 109.591 167.117C109.591 166.109 109.993 165.277 110.796 164.621C111.604 163.958 112.653 163.627 113.942 163.627C114.821 163.627 115.603 163.797 116.289 164.137C116.98 164.477 117.513 164.946 117.888 165.543C118.269 166.141 118.46 166.794 118.46 167.503H116.763C116.763 166.73 116.517 166.123 116.025 165.684C115.533 165.239 114.838 165.016 113.942 165.016C113.11 165.016 112.46 165.201 111.991 165.57C111.528 165.933 111.296 166.44 111.296 167.09C111.296 167.612 111.516 168.054 111.956 168.417C112.401 168.775 113.154 169.103 114.214 169.402C115.281 169.701 116.113 170.032 116.711 170.395C117.314 170.752 117.759 171.171 118.046 171.652C118.339 172.132 118.486 172.698 118.486 173.348C118.486 174.385 118.082 175.217 117.273 175.844C116.464 176.465 115.383 176.776 114.03 176.776C113.151 176.776 112.331 176.609 111.569 176.275C110.807 175.935 110.218 175.472 109.802 174.886C109.392 174.3 109.187 173.635 109.187 172.891H110.883C110.883 173.664 111.168 174.277 111.736 174.728C112.31 175.173 113.075 175.396 114.03 175.396C114.921 175.396 115.603 175.214 116.078 174.851C116.552 174.488 116.79 173.993 116.79 173.366C116.79 172.739 116.57 172.255 116.13 171.915C115.691 171.57 114.894 171.23 113.74 170.896ZM124.216 175.449C124.796 175.449 125.303 175.273 125.737 174.921C126.171 174.57 126.411 174.13 126.458 173.603H127.996C127.966 174.148 127.779 174.666 127.433 175.159C127.087 175.651 126.625 176.043 126.045 176.336C125.47 176.629 124.861 176.776 124.216 176.776C122.921 176.776 121.89 176.345 121.123 175.484C120.361 174.617 119.98 173.433 119.98 171.933V171.661C119.98 170.735 120.15 169.912 120.49 169.191C120.83 168.47 121.316 167.911 121.949 167.512C122.587 167.114 123.34 166.914 124.208 166.914C125.274 166.914 126.159 167.234 126.862 167.872C127.571 168.511 127.949 169.34 127.996 170.36H126.458C126.411 169.745 126.176 169.241 125.754 168.848C125.338 168.45 124.823 168.25 124.208 168.25C123.381 168.25 122.74 168.549 122.283 169.147C121.832 169.739 121.606 170.597 121.606 171.722V172.03C121.606 173.125 121.832 173.969 122.283 174.561C122.734 175.153 123.379 175.449 124.216 175.449ZM135.695 176.6C135.601 176.412 135.525 176.079 135.466 175.598C134.711 176.383 133.808 176.776 132.759 176.776C131.822 176.776 131.051 176.512 130.448 175.985C129.85 175.452 129.551 174.778 129.551 173.963C129.551 172.973 129.926 172.205 130.676 171.661C131.432 171.11 132.493 170.834 133.858 170.834H135.44V170.087C135.44 169.519 135.27 169.068 134.93 168.734C134.59 168.394 134.089 168.224 133.427 168.224C132.847 168.224 132.361 168.371 131.968 168.663C131.576 168.956 131.379 169.311 131.379 169.727H129.745C129.745 169.252 129.912 168.795 130.246 168.356C130.586 167.911 131.043 167.559 131.617 167.301C132.197 167.043 132.833 166.914 133.524 166.914C134.62 166.914 135.478 167.19 136.099 167.741C136.72 168.286 137.043 169.038 137.066 169.999V174.376C137.066 175.249 137.177 175.944 137.4 176.459V176.6H135.695ZM132.997 175.361C133.506 175.361 133.99 175.229 134.447 174.965C134.904 174.702 135.235 174.359 135.44 173.937V171.986H134.166C132.173 171.986 131.177 172.569 131.177 173.735C131.177 174.245 131.347 174.643 131.687 174.93C132.027 175.217 132.463 175.361 132.997 175.361ZM141.153 167.09L141.206 168.286C141.932 167.371 142.881 166.914 144.053 166.914C146.063 166.914 147.077 168.048 147.094 170.316V176.6H145.468V170.307C145.462 169.621 145.304 169.115 144.994 168.787C144.689 168.458 144.212 168.294 143.561 168.294C143.034 168.294 142.571 168.435 142.172 168.716C141.774 168.997 141.463 169.367 141.241 169.824V176.6H139.615V167.09H141.153Z" fill="black"/>
<path d="M249.998 97.9335C249.961 97.3824 249.485 96.9655 248.933 97.0022L239.953 97.6009C239.402 97.6376 238.985 98.1141 239.022 98.6652C239.059 99.2163 239.535 99.6332 240.086 99.5965L248.069 99.0643L248.601 107.047C248.638 107.598 249.114 108.015 249.665 107.978C250.216 107.941 250.633 107.465 250.596 106.914L249.998 97.9335ZM186.753 170.659L249.753 98.6585L248.247 97.3415L185.247 169.341L186.753 170.659Z" fill="black"/>
<path d="M413.97 167C414.522 167.016 414.983 166.582 415 166.03L415.272 157.034C415.289 156.482 414.855 156.021 414.303 156.005C413.751 155.988 413.29 156.422 413.273 156.974L413.031 164.97L405.034 164.728C404.482 164.711 404.021 165.145 404.005 165.697C403.988 166.249 404.422 166.71 404.974 166.727L413.97 167ZM349.272 98.6854L413.272 166.685L414.728 165.315L350.728 97.3146L349.272 98.6854Z" fill="black"/>
<path d="M414.999 177.032C415.017 176.48 414.584 176.018 414.032 176.001L405.036 175.715C404.484 175.697 404.023 176.131 404.005 176.683C403.988 177.235 404.421 177.696 404.973 177.714L412.969 177.968L412.715 185.964C412.697 186.516 413.131 186.977 413.683 186.995C414.235 187.012 414.696 186.579 414.714 186.027L414.999 177.032ZM349.684 238.729L414.684 177.729L413.316 176.271L348.316 237.271L349.684 238.729Z" fill="black"/>
<path d="M248.962 238.999C249.514 239.02 249.978 238.59 249.999 238.038L250.343 229.045C250.364 228.493 249.933 228.028 249.381 228.007C248.83 227.986 248.365 228.417 248.344 228.968L248.039 236.963L240.045 236.657C239.493 236.636 239.028 237.067 239.007 237.619C238.986 238.17 239.417 238.635 239.968 238.656L248.962 238.999ZM185.266 170.68L248.266 238.68L249.734 237.32L186.734 169.32L185.266 170.68Z" fill="black"/>
<path d="M451.348 171.296C449.901 170.88 448.846 170.37 448.184 169.767C447.528 169.157 447.2 168.407 447.2 167.517C447.2 166.509 447.601 165.677 448.404 165.021C449.213 164.358 450.262 164.027 451.551 164.027C452.429 164.027 453.212 164.197 453.897 164.537C454.589 164.877 455.122 165.346 455.497 165.943C455.878 166.541 456.068 167.194 456.068 167.903H454.372C454.372 167.13 454.126 166.523 453.634 166.084C453.141 165.639 452.447 165.416 451.551 165.416C450.719 165.416 450.068 165.601 449.599 165.97C449.137 166.333 448.905 166.84 448.905 167.49C448.905 168.012 449.125 168.454 449.564 168.817C450.01 169.175 450.763 169.503 451.823 169.802C452.889 170.101 453.721 170.432 454.319 170.795C454.923 171.152 455.368 171.571 455.655 172.052C455.948 172.532 456.095 173.098 456.095 173.748C456.095 174.785 455.69 175.617 454.882 176.244C454.073 176.865 452.992 177.176 451.638 177.176C450.76 177.176 449.939 177.009 449.178 176.675C448.416 176.335 447.827 175.872 447.411 175.286C447.001 174.7 446.796 174.035 446.796 173.291H448.492C448.492 174.064 448.776 174.677 449.345 175.128C449.919 175.573 450.683 175.796 451.638 175.796C452.529 175.796 453.212 175.614 453.686 175.251C454.161 174.888 454.398 174.393 454.398 173.766C454.398 173.139 454.179 172.655 453.739 172.315C453.3 171.97 452.503 171.63 451.348 171.296ZM466.044 172.351C466.044 173.798 465.713 174.964 465.051 175.849C464.388 176.733 463.492 177.176 462.361 177.176C461.207 177.176 460.299 176.81 459.637 176.077V180.656H458.011V167.49H459.496L459.575 168.545C460.237 167.725 461.157 167.314 462.335 167.314C463.477 167.314 464.38 167.745 465.042 168.606C465.71 169.468 466.044 170.666 466.044 172.201V172.351ZM464.418 172.166C464.418 171.094 464.189 170.247 463.732 169.626C463.275 169.005 462.648 168.694 461.851 168.694C460.867 168.694 460.129 169.131 459.637 170.004V174.548C460.123 175.415 460.867 175.849 461.869 175.849C462.648 175.849 463.266 175.541 463.723 174.926C464.186 174.305 464.418 173.385 464.418 172.166ZM472.715 168.949C472.469 168.908 472.202 168.888 471.915 168.888C470.848 168.888 470.125 169.342 469.744 170.25V177H468.118V167.49H469.7L469.726 168.589C470.26 167.739 471.015 167.314 471.994 167.314C472.31 167.314 472.551 167.355 472.715 167.438V168.949ZM477.988 177.176C476.699 177.176 475.65 176.754 474.842 175.91C474.033 175.061 473.629 173.927 473.629 172.509V172.21C473.629 171.267 473.807 170.426 474.165 169.688C474.528 168.943 475.032 168.363 475.677 167.947C476.327 167.525 477.03 167.314 477.786 167.314C479.022 167.314 479.983 167.722 480.669 168.536C481.354 169.351 481.697 170.517 481.697 172.034V172.711H475.255C475.278 173.648 475.551 174.407 476.072 174.987C476.599 175.562 477.267 175.849 478.076 175.849C478.65 175.849 479.137 175.731 479.535 175.497C479.933 175.263 480.282 174.952 480.581 174.565L481.574 175.339C480.777 176.563 479.582 177.176 477.988 177.176ZM477.786 168.65C477.13 168.65 476.579 168.891 476.134 169.371C475.688 169.846 475.413 170.514 475.307 171.375H480.071V171.252C480.024 170.426 479.802 169.787 479.403 169.336C479.005 168.879 478.466 168.65 477.786 168.65ZM489.458 177C489.364 176.812 489.288 176.479 489.229 175.998C488.473 176.783 487.571 177.176 486.522 177.176C485.585 177.176 484.814 176.912 484.211 176.385C483.613 175.852 483.314 175.178 483.314 174.363C483.314 173.373 483.689 172.605 484.439 172.061C485.195 171.51 486.256 171.234 487.621 171.234H489.203V170.487C489.203 169.919 489.033 169.468 488.693 169.134C488.353 168.794 487.852 168.624 487.19 168.624C486.61 168.624 486.124 168.771 485.731 169.063C485.339 169.356 485.142 169.711 485.142 170.127H483.508C483.508 169.652 483.675 169.195 484.009 168.756C484.348 168.311 484.805 167.959 485.38 167.701C485.96 167.443 486.596 167.314 487.287 167.314C488.383 167.314 489.241 167.59 489.862 168.141C490.483 168.686 490.805 169.438 490.829 170.399V174.776C490.829 175.649 490.94 176.344 491.163 176.859V177H489.458ZM486.76 175.761C487.269 175.761 487.753 175.629 488.21 175.365C488.667 175.102 488.998 174.759 489.203 174.337V172.386H487.929C485.936 172.386 484.94 172.969 484.94 174.135C484.94 174.645 485.11 175.043 485.45 175.33C485.79 175.617 486.226 175.761 486.76 175.761ZM492.982 172.166C492.982 170.707 493.328 169.535 494.019 168.65C494.711 167.76 495.616 167.314 496.735 167.314C497.848 167.314 498.73 167.695 499.381 168.457V163.5H501.007V177H499.513L499.433 175.98C498.783 176.777 497.878 177.176 496.718 177.176C495.616 177.176 494.717 176.725 494.019 175.822C493.328 174.92 492.982 173.742 492.982 172.289V172.166ZM494.608 172.351C494.608 173.429 494.831 174.272 495.276 174.882C495.721 175.491 496.337 175.796 497.122 175.796C498.153 175.796 498.906 175.333 499.381 174.407V170.039C498.894 169.143 498.147 168.694 497.139 168.694C496.343 168.694 495.721 169.002 495.276 169.617C494.831 170.232 494.608 171.144 494.608 172.351Z" fill="black"/>
<rect x="414.5" y="110.5" width="119" height="119" rx="3.5" stroke="black"/>
</svg>
