<svg width="600" height="300" viewBox="0 0 600 300" fill="none" xmlns="http://www.w3.org/2000/svg">
<rect width="600" height="300" fill="white"/>
<path d="M166.894 228.104C166.894 228.104 223 67.8522 359.5 42C496 16.1479 537 25 537 25" stroke="#3EA6E1" stroke-width="3"/>
<path d="M166 231L166 25" stroke="black" stroke-width="4"/>
<path d="M164 229H536.999" stroke="black" stroke-width="4"/>
<path d="M24.7539 142.637H20.3125V140.305H24.7539C25.5273 140.305 26.1523 140.18 26.6289 139.93C27.1055 139.68 27.4531 139.336 27.6719 138.898C27.8984 138.453 28.0117 137.945 28.0117 137.375C28.0117 136.836 27.8984 136.332 27.6719 135.863C27.4531 135.387 27.1055 135.004 26.6289 134.715C26.1523 134.426 25.5273 134.281 24.7539 134.281H21.2148V149H18.2734V131.938H24.7539C26.0742 131.938 27.1953 132.172 28.1172 132.641C29.0469 133.102 29.7539 133.742 30.2383 134.562C30.7227 135.375 30.9648 136.305 30.9648 137.352C30.9648 138.453 30.7227 139.398 30.2383 140.188C29.7539 140.977 29.0469 141.582 28.1172 142.004C27.1953 142.426 26.0742 142.637 24.7539 142.637ZM38.7461 149.234C37.8086 149.234 36.9609 149.082 36.2031 148.777C35.4531 148.465 34.8125 148.031 34.2812 147.477C33.7578 146.922 33.3555 146.27 33.0742 145.52C32.793 144.77 32.6523 143.961 32.6523 143.094V142.625C32.6523 141.633 32.7969 140.734 33.0859 139.93C33.375 139.125 33.7773 138.438 34.293 137.867C34.8086 137.289 35.418 136.848 36.1211 136.543C36.8242 136.238 37.5859 136.086 38.4062 136.086C39.3125 136.086 40.1055 136.238 40.7852 136.543C41.4648 136.848 42.0273 137.277 42.4727 137.832C42.9258 138.379 43.2617 139.031 43.4805 139.789C43.707 140.547 43.8203 141.383 43.8203 142.297V143.504H34.0234V141.477H41.0312V141.254C41.0156 140.746 40.9141 140.27 40.7266 139.824C40.5469 139.379 40.2695 139.02 39.8945 138.746C39.5195 138.473 39.0195 138.336 38.3945 138.336C37.9258 138.336 37.5078 138.438 37.1406 138.641C36.7812 138.836 36.4805 139.121 36.2383 139.496C35.9961 139.871 35.8086 140.324 35.6758 140.855C35.5508 141.379 35.4883 141.969 35.4883 142.625V143.094C35.4883 143.648 35.5625 144.164 35.7109 144.641C35.8672 145.109 36.0938 145.52 36.3906 145.871C36.6875 146.223 37.0469 146.5 37.4688 146.703C37.8906 146.898 38.3711 146.996 38.9102 146.996C39.5898 146.996 40.1953 146.859 40.7266 146.586C41.2578 146.312 41.7188 145.926 42.1094 145.426L43.5977 146.867C43.3242 147.266 42.9688 147.648 42.5312 148.016C42.0938 148.375 41.5586 148.668 40.9258 148.895C40.3008 149.121 39.5742 149.234 38.7461 149.234ZM48.8594 138.734V149H46.0352V136.32H48.7305L48.8594 138.734ZM52.7383 136.238L52.7148 138.863C52.543 138.832 52.3555 138.809 52.1523 138.793C51.957 138.777 51.7617 138.77 51.5664 138.77C51.082 138.77 50.6562 138.84 50.2891 138.98C49.9219 139.113 49.6133 139.309 49.3633 139.566C49.1211 139.816 48.9336 140.121 48.8008 140.48C48.668 140.84 48.5898 141.242 48.5664 141.688L47.9219 141.734C47.9219 140.938 48 140.199 48.1562 139.52C48.3125 138.84 48.5469 138.242 48.8594 137.727C49.1797 137.211 49.5781 136.809 50.0547 136.52C50.5391 136.23 51.0977 136.086 51.7305 136.086C51.9023 136.086 52.0859 136.102 52.2812 136.133C52.4844 136.164 52.6367 136.199 52.7383 136.238ZM58.5391 149H55.7148V135.102C55.7148 134.156 55.8906 133.363 56.2422 132.723C56.6016 132.074 57.1133 131.586 57.7773 131.258C58.4414 130.922 59.2266 130.754 60.1328 130.754C60.4141 130.754 60.6914 130.773 60.9648 130.812C61.2383 130.844 61.5039 130.895 61.7617 130.965L61.6914 133.145C61.5352 133.105 61.3633 133.078 61.1758 133.062C60.9961 133.047 60.8008 133.039 60.5898 133.039C60.1602 133.039 59.7891 133.121 59.4766 133.285C59.1719 133.441 58.9375 133.672 58.7734 133.977C58.6172 134.281 58.5391 134.656 58.5391 135.102V149ZM61.1523 136.32V138.383H53.7695V136.32H61.1523ZM62.6641 142.801V142.531C62.6641 141.617 62.7969 140.77 63.0625 139.988C63.3281 139.199 63.7109 138.516 64.2109 137.938C64.7188 137.352 65.3359 136.898 66.0625 136.578C66.7969 136.25 67.625 136.086 68.5469 136.086C69.4766 136.086 70.3047 136.25 71.0312 136.578C71.7656 136.898 72.3867 137.352 72.8945 137.938C73.4023 138.516 73.7891 139.199 74.0547 139.988C74.3203 140.77 74.4531 141.617 74.4531 142.531V142.801C74.4531 143.715 74.3203 144.562 74.0547 145.344C73.7891 146.125 73.4023 146.809 72.8945 147.395C72.3867 147.973 71.7695 148.426 71.043 148.754C70.3164 149.074 69.4922 149.234 68.5703 149.234C67.6406 149.234 66.8086 149.074 66.0742 148.754C65.3477 148.426 64.7305 147.973 64.2227 147.395C63.7148 146.809 63.3281 146.125 63.0625 145.344C62.7969 144.562 62.6641 143.715 62.6641 142.801ZM65.4883 142.531V142.801C65.4883 143.371 65.5469 143.91 65.6641 144.418C65.7812 144.926 65.9648 145.371 66.2148 145.754C66.4648 146.137 66.7852 146.438 67.1758 146.656C67.5664 146.875 68.0312 146.984 68.5703 146.984C69.0938 146.984 69.5469 146.875 69.9297 146.656C70.3203 146.438 70.6406 146.137 70.8906 145.754C71.1406 145.371 71.3242 144.926 71.4414 144.418C71.5664 143.91 71.6289 143.371 71.6289 142.801V142.531C71.6289 141.969 71.5664 141.438 71.4414 140.938C71.3242 140.43 71.1367 139.98 70.8789 139.59C70.6289 139.199 70.3086 138.895 69.918 138.676C69.5352 138.449 69.0781 138.336 68.5469 138.336C68.0156 138.336 67.5547 138.449 67.1641 138.676C66.7812 138.895 66.4648 139.199 66.2148 139.59C65.9648 139.98 65.7812 140.43 65.6641 140.938C65.5469 141.438 65.4883 141.969 65.4883 142.531ZM79.6562 138.734V149H76.832V136.32H79.5273L79.6562 138.734ZM83.5352 136.238L83.5117 138.863C83.3398 138.832 83.1523 138.809 82.9492 138.793C82.7539 138.777 82.5586 138.77 82.3633 138.77C81.8789 138.77 81.4531 138.84 81.0859 138.98C80.7188 139.113 80.4102 139.309 80.1602 139.566C79.918 139.816 79.7305 140.121 79.5977 140.48C79.4648 140.84 79.3867 141.242 79.3633 141.688L78.7188 141.734C78.7188 140.938 78.7969 140.199 78.9531 139.52C79.1094 138.84 79.3438 138.242 79.6562 137.727C79.9766 137.211 80.375 136.809 80.8516 136.52C81.3359 136.23 81.8945 136.086 82.5273 136.086C82.6992 136.086 82.8828 136.102 83.0781 136.133C83.2812 136.164 83.4336 136.199 83.5352 136.238ZM88.1289 138.898V149H85.3047V136.32H87.9648L88.1289 138.898ZM87.6719 142.191L86.7109 142.18C86.7109 141.305 86.8203 140.496 87.0391 139.754C87.2578 139.012 87.5781 138.367 88 137.82C88.4219 137.266 88.9453 136.84 89.5703 136.543C90.2031 136.238 90.9336 136.086 91.7617 136.086C92.3398 136.086 92.8672 136.172 93.3438 136.344C93.8281 136.508 94.2461 136.77 94.5977 137.129C94.957 137.488 95.2305 137.949 95.418 138.512C95.6133 139.074 95.7109 139.754 95.7109 140.551V149H92.8867V140.797C92.8867 140.18 92.793 139.695 92.6055 139.344C92.4258 138.992 92.1641 138.742 91.8203 138.594C91.4844 138.438 91.082 138.359 90.6133 138.359C90.082 138.359 89.6289 138.461 89.2539 138.664C88.8867 138.867 88.5859 139.145 88.3516 139.496C88.1172 139.848 87.9453 140.254 87.8359 140.715C87.7266 141.176 87.6719 141.668 87.6719 142.191ZM95.5352 141.441L94.2109 141.734C94.2109 140.969 94.3164 140.246 94.5273 139.566C94.7461 138.879 95.0625 138.277 95.4766 137.762C95.8984 137.238 96.418 136.828 97.0352 136.531C97.6523 136.234 98.3594 136.086 99.1562 136.086C99.8047 136.086 100.383 136.176 100.891 136.355C101.406 136.527 101.844 136.801 102.203 137.176C102.562 137.551 102.836 138.039 103.023 138.641C103.211 139.234 103.305 139.953 103.305 140.797V149H100.469V140.785C100.469 140.145 100.375 139.648 100.188 139.297C100.008 138.945 99.75 138.703 99.4141 138.57C99.0781 138.43 98.6758 138.359 98.207 138.359C97.7695 138.359 97.3828 138.441 97.0469 138.605C96.7188 138.762 96.4414 138.984 96.2148 139.273C95.9883 139.555 95.8164 139.879 95.6992 140.246C95.5898 140.613 95.5352 141.012 95.5352 141.441ZM113.359 146.457V140.41C113.359 139.957 113.277 139.566 113.113 139.238C112.949 138.91 112.699 138.656 112.363 138.477C112.035 138.297 111.621 138.207 111.121 138.207C110.66 138.207 110.262 138.285 109.926 138.441C109.59 138.598 109.328 138.809 109.141 139.074C108.953 139.34 108.859 139.641 108.859 139.977H106.047C106.047 139.477 106.168 138.992 106.41 138.523C106.652 138.055 107.004 137.637 107.465 137.27C107.926 136.902 108.477 136.613 109.117 136.402C109.758 136.191 110.477 136.086 111.273 136.086C112.227 136.086 113.07 136.246 113.805 136.566C114.547 136.887 115.129 137.371 115.551 138.02C115.98 138.66 116.195 139.465 116.195 140.434V146.07C116.195 146.648 116.234 147.168 116.312 147.629C116.398 148.082 116.52 148.477 116.676 148.812V149H113.781C113.648 148.695 113.543 148.309 113.465 147.84C113.395 147.363 113.359 146.902 113.359 146.457ZM113.77 141.289L113.793 143.035H111.766C111.242 143.035 110.781 143.086 110.383 143.188C109.984 143.281 109.652 143.422 109.387 143.609C109.121 143.797 108.922 144.023 108.789 144.289C108.656 144.555 108.59 144.855 108.59 145.191C108.59 145.527 108.668 145.836 108.824 146.117C108.98 146.391 109.207 146.605 109.504 146.762C109.809 146.918 110.176 146.996 110.605 146.996C111.184 146.996 111.688 146.879 112.117 146.645C112.555 146.402 112.898 146.109 113.148 145.766C113.398 145.414 113.531 145.082 113.547 144.77L114.461 146.023C114.367 146.344 114.207 146.688 113.98 147.055C113.754 147.422 113.457 147.773 113.09 148.109C112.73 148.438 112.297 148.707 111.789 148.918C111.289 149.129 110.711 149.234 110.055 149.234C109.227 149.234 108.488 149.07 107.84 148.742C107.191 148.406 106.684 147.957 106.316 147.395C105.949 146.824 105.766 146.18 105.766 145.461C105.766 144.789 105.891 144.195 106.141 143.68C106.398 143.156 106.773 142.719 107.266 142.367C107.766 142.016 108.375 141.75 109.094 141.57C109.812 141.383 110.633 141.289 111.555 141.289H113.77ZM121.949 139.027V149H119.125V136.32H121.785L121.949 139.027ZM121.445 142.191L120.531 142.18C120.539 141.281 120.664 140.457 120.906 139.707C121.156 138.957 121.5 138.312 121.938 137.773C122.383 137.234 122.914 136.82 123.531 136.531C124.148 136.234 124.836 136.086 125.594 136.086C126.203 136.086 126.754 136.172 127.246 136.344C127.746 136.508 128.172 136.777 128.523 137.152C128.883 137.527 129.156 138.016 129.344 138.617C129.531 139.211 129.625 139.941 129.625 140.809V149H126.789V140.797C126.789 140.188 126.699 139.707 126.52 139.355C126.348 138.996 126.094 138.742 125.758 138.594C125.43 138.438 125.02 138.359 124.527 138.359C124.043 138.359 123.609 138.461 123.227 138.664C122.844 138.867 122.52 139.145 122.254 139.496C121.996 139.848 121.797 140.254 121.656 140.715C121.516 141.176 121.445 141.668 121.445 142.191ZM137.688 146.984C138.148 146.984 138.562 146.895 138.93 146.715C139.305 146.527 139.605 146.27 139.832 145.941C140.066 145.613 140.195 145.234 140.219 144.805H142.879C142.863 145.625 142.621 146.371 142.152 147.043C141.684 147.715 141.062 148.25 140.289 148.648C139.516 149.039 138.66 149.234 137.723 149.234C136.754 149.234 135.91 149.07 135.191 148.742C134.473 148.406 133.875 147.945 133.398 147.359C132.922 146.773 132.562 146.098 132.32 145.332C132.086 144.566 131.969 143.746 131.969 142.871V142.461C131.969 141.586 132.086 140.766 132.32 140C132.562 139.227 132.922 138.547 133.398 137.961C133.875 137.375 134.473 136.918 135.191 136.59C135.91 136.254 136.75 136.086 137.711 136.086C138.727 136.086 139.617 136.289 140.383 136.695C141.148 137.094 141.75 137.652 142.188 138.371C142.633 139.082 142.863 139.91 142.879 140.855H140.219C140.195 140.387 140.078 139.965 139.867 139.59C139.664 139.207 139.375 138.902 139 138.676C138.633 138.449 138.191 138.336 137.676 138.336C137.105 138.336 136.633 138.453 136.258 138.688C135.883 138.914 135.59 139.227 135.379 139.625C135.168 140.016 135.016 140.457 134.922 140.949C134.836 141.434 134.793 141.938 134.793 142.461V142.871C134.793 143.395 134.836 143.902 134.922 144.395C135.008 144.887 135.156 145.328 135.367 145.719C135.586 146.102 135.883 146.41 136.258 146.645C136.633 146.871 137.109 146.984 137.688 146.984ZM150.637 149.234C149.699 149.234 148.852 149.082 148.094 148.777C147.344 148.465 146.703 148.031 146.172 147.477C145.648 146.922 145.246 146.27 144.965 145.52C144.684 144.77 144.543 143.961 144.543 143.094V142.625C144.543 141.633 144.688 140.734 144.977 139.93C145.266 139.125 145.668 138.438 146.184 137.867C146.699 137.289 147.309 136.848 148.012 136.543C148.715 136.238 149.477 136.086 150.297 136.086C151.203 136.086 151.996 136.238 152.676 136.543C153.355 136.848 153.918 137.277 154.363 137.832C154.816 138.379 155.152 139.031 155.371 139.789C155.598 140.547 155.711 141.383 155.711 142.297V143.504H145.914V141.477H152.922V141.254C152.906 140.746 152.805 140.27 152.617 139.824C152.438 139.379 152.16 139.02 151.785 138.746C151.41 138.473 150.91 138.336 150.285 138.336C149.816 138.336 149.398 138.438 149.031 138.641C148.672 138.836 148.371 139.121 148.129 139.496C147.887 139.871 147.699 140.324 147.566 140.855C147.441 141.379 147.379 141.969 147.379 142.625V143.094C147.379 143.648 147.453 144.164 147.602 144.641C147.758 145.109 147.984 145.52 148.281 145.871C148.578 146.223 148.938 146.5 149.359 146.703C149.781 146.898 150.262 146.996 150.801 146.996C151.48 146.996 152.086 146.859 152.617 146.586C153.148 146.312 153.609 145.926 154 145.426L155.488 146.867C155.215 147.266 154.859 147.648 154.422 148.016C153.984 148.375 153.449 148.668 152.816 148.895C152.191 149.121 151.465 149.234 150.637 149.234Z" fill="black"/>
<path d="M327.723 272.668V275H318.664V272.668H327.723ZM319.496 257.938V275H316.555V257.938H319.496ZM326.539 265.062V267.359H318.664V265.062H326.539ZM327.664 257.938V260.281H318.664V257.938H327.664ZM333.453 275H330.629V261.102C330.629 260.156 330.805 259.363 331.156 258.723C331.516 258.074 332.027 257.586 332.691 257.258C333.355 256.922 334.141 256.754 335.047 256.754C335.328 256.754 335.605 256.773 335.879 256.812C336.152 256.844 336.418 256.895 336.676 256.965L336.605 259.145C336.449 259.105 336.277 259.078 336.09 259.062C335.91 259.047 335.715 259.039 335.504 259.039C335.074 259.039 334.703 259.121 334.391 259.285C334.086 259.441 333.852 259.672 333.688 259.977C333.531 260.281 333.453 260.656 333.453 261.102V275ZM336.066 262.32V264.383H328.684V262.32H336.066ZM341.938 275H339.113V261.102C339.113 260.156 339.289 259.363 339.641 258.723C340 258.074 340.512 257.586 341.176 257.258C341.84 256.922 342.625 256.754 343.531 256.754C343.812 256.754 344.09 256.773 344.363 256.812C344.637 256.844 344.902 256.895 345.16 256.965L345.09 259.145C344.934 259.105 344.762 259.078 344.574 259.062C344.395 259.047 344.199 259.039 343.988 259.039C343.559 259.039 343.188 259.121 342.875 259.285C342.57 259.441 342.336 259.672 342.172 259.977C342.016 260.281 341.938 260.656 341.938 261.102V275ZM344.551 262.32V264.383H337.168V262.32H344.551ZM346.062 268.801V268.531C346.062 267.617 346.195 266.77 346.461 265.988C346.727 265.199 347.109 264.516 347.609 263.938C348.117 263.352 348.734 262.898 349.461 262.578C350.195 262.25 351.023 262.086 351.945 262.086C352.875 262.086 353.703 262.25 354.43 262.578C355.164 262.898 355.785 263.352 356.293 263.938C356.801 264.516 357.188 265.199 357.453 265.988C357.719 266.77 357.852 267.617 357.852 268.531V268.801C357.852 269.715 357.719 270.562 357.453 271.344C357.188 272.125 356.801 272.809 356.293 273.395C355.785 273.973 355.168 274.426 354.441 274.754C353.715 275.074 352.891 275.234 351.969 275.234C351.039 275.234 350.207 275.074 349.473 274.754C348.746 274.426 348.129 273.973 347.621 273.395C347.113 272.809 346.727 272.125 346.461 271.344C346.195 270.562 346.062 269.715 346.062 268.801ZM348.887 268.531V268.801C348.887 269.371 348.945 269.91 349.062 270.418C349.18 270.926 349.363 271.371 349.613 271.754C349.863 272.137 350.184 272.438 350.574 272.656C350.965 272.875 351.43 272.984 351.969 272.984C352.492 272.984 352.945 272.875 353.328 272.656C353.719 272.438 354.039 272.137 354.289 271.754C354.539 271.371 354.723 270.926 354.84 270.418C354.965 269.91 355.027 269.371 355.027 268.801V268.531C355.027 267.969 354.965 267.438 354.84 266.938C354.723 266.43 354.535 265.98 354.277 265.59C354.027 265.199 353.707 264.895 353.316 264.676C352.934 264.449 352.477 264.336 351.945 264.336C351.414 264.336 350.953 264.449 350.562 264.676C350.18 264.895 349.863 265.199 349.613 265.59C349.363 265.98 349.18 266.43 349.062 266.938C348.945 267.438 348.887 267.969 348.887 268.531ZM363.055 264.734V275H360.23V262.32H362.926L363.055 264.734ZM366.934 262.238L366.91 264.863C366.738 264.832 366.551 264.809 366.348 264.793C366.152 264.777 365.957 264.77 365.762 264.77C365.277 264.77 364.852 264.84 364.484 264.98C364.117 265.113 363.809 265.309 363.559 265.566C363.316 265.816 363.129 266.121 362.996 266.48C362.863 266.84 362.785 267.242 362.762 267.688L362.117 267.734C362.117 266.938 362.195 266.199 362.352 265.52C362.508 264.84 362.742 264.242 363.055 263.727C363.375 263.211 363.773 262.809 364.25 262.52C364.734 262.23 365.293 262.086 365.926 262.086C366.098 262.086 366.281 262.102 366.477 262.133C366.68 262.164 366.832 262.199 366.934 262.238ZM375.102 262.32V264.383H367.953V262.32H375.102ZM370.016 259.215H372.84V271.496C372.84 271.887 372.895 272.188 373.004 272.398C373.121 272.602 373.281 272.738 373.484 272.809C373.688 272.879 373.926 272.914 374.199 272.914C374.395 272.914 374.582 272.902 374.762 272.879C374.941 272.855 375.086 272.832 375.195 272.809L375.207 274.965C374.973 275.035 374.699 275.098 374.387 275.152C374.082 275.207 373.73 275.234 373.332 275.234C372.684 275.234 372.109 275.121 371.609 274.895C371.109 274.66 370.719 274.281 370.438 273.758C370.156 273.234 370.016 272.539 370.016 271.672V259.215ZM384.395 271.566C384.395 271.285 384.324 271.031 384.184 270.805C384.043 270.57 383.773 270.359 383.375 270.172C382.984 269.984 382.406 269.812 381.641 269.656C380.969 269.508 380.352 269.332 379.789 269.129C379.234 268.918 378.758 268.664 378.359 268.367C377.961 268.07 377.652 267.719 377.434 267.312C377.215 266.906 377.105 266.438 377.105 265.906C377.105 265.391 377.219 264.902 377.445 264.441C377.672 263.98 377.996 263.574 378.418 263.223C378.84 262.871 379.352 262.594 379.953 262.391C380.562 262.188 381.242 262.086 381.992 262.086C383.055 262.086 383.965 262.266 384.723 262.625C385.488 262.977 386.074 263.457 386.48 264.066C386.887 264.668 387.09 265.348 387.09 266.105H384.266C384.266 265.77 384.18 265.457 384.008 265.168C383.844 264.871 383.594 264.633 383.258 264.453C382.922 264.266 382.5 264.172 381.992 264.172C381.508 264.172 381.105 264.25 380.785 264.406C380.473 264.555 380.238 264.75 380.082 264.992C379.934 265.234 379.859 265.5 379.859 265.789C379.859 266 379.898 266.191 379.977 266.363C380.062 266.527 380.203 266.68 380.398 266.82C380.594 266.953 380.859 267.078 381.195 267.195C381.539 267.312 381.969 267.426 382.484 267.535C383.453 267.738 384.285 268 384.98 268.32C385.684 268.633 386.223 269.039 386.598 269.539C386.973 270.031 387.16 270.656 387.16 271.414C387.16 271.977 387.039 272.492 386.797 272.961C386.562 273.422 386.219 273.824 385.766 274.168C385.312 274.504 384.77 274.766 384.137 274.953C383.512 275.141 382.809 275.234 382.027 275.234C380.879 275.234 379.906 275.031 379.109 274.625C378.312 274.211 377.707 273.684 377.293 273.043C376.887 272.395 376.684 271.723 376.684 271.027H379.414C379.445 271.551 379.59 271.969 379.848 272.281C380.113 272.586 380.441 272.809 380.832 272.949C381.23 273.082 381.641 273.148 382.062 273.148C382.57 273.148 382.996 273.082 383.34 272.949C383.684 272.809 383.945 272.621 384.125 272.387C384.305 272.145 384.395 271.871 384.395 271.566Z" fill="black"/>
</svg>
