<svg width="600" height="300" viewBox="0 0 600 300" fill="none" xmlns="http://www.w3.org/2000/svg">
<g clip-path="url(#clip0_203_2)">
<rect width="600" height="300" fill="white"/>
<path d="M172 33.0002C172 33.0002 203 137.74 288.5 176C374 214.26 524.5 223.5 524.5 223.5" stroke="#3EA6E1" stroke-width="3"/>
<path d="M166 231L166 25" stroke="black" stroke-width="4"/>
<path d="M164 229H536.999" stroke="black" stroke-width="4"/>
<path d="M28.5391 117.938V135H25.5977V117.938H28.5391ZM34.7148 125.027V135H31.8906V122.32H34.5508L34.7148 125.027ZM34.2109 128.191L33.2969 128.18C33.3047 127.281 33.4297 126.457 33.6719 125.707C33.9219 124.957 34.2656 124.312 34.7031 123.773C35.1484 123.234 35.6797 122.82 36.2969 122.531C36.9141 122.234 37.6016 122.086 38.3594 122.086C38.9688 122.086 39.5195 122.172 40.0117 122.344C40.5117 122.508 40.9375 122.777 41.2891 123.152C41.6484 123.527 41.9219 124.016 42.1094 124.617C42.2969 125.211 42.3906 125.941 42.3906 126.809V135H39.5547V126.797C39.5547 126.188 39.4648 125.707 39.2852 125.355C39.1133 124.996 38.8594 124.742 38.5234 124.594C38.1953 124.438 37.7852 124.359 37.293 124.359C36.8086 124.359 36.375 124.461 35.9922 124.664C35.6094 124.867 35.2852 125.145 35.0195 125.496C34.7617 125.848 34.5625 126.254 34.4219 126.715C34.2812 127.176 34.2109 127.668 34.2109 128.191ZM49.0938 135H46.2695V121.102C46.2695 120.156 46.4453 119.363 46.7969 118.723C47.1562 118.074 47.668 117.586 48.332 117.258C48.9961 116.922 49.7812 116.754 50.6875 116.754C50.9688 116.754 51.2461 116.773 51.5195 116.812C51.793 116.844 52.0586 116.895 52.3164 116.965L52.2461 119.145C52.0898 119.105 51.918 119.078 51.7305 119.062C51.5508 119.047 51.3555 119.039 51.1445 119.039C50.7148 119.039 50.3438 119.121 50.0312 119.285C49.7266 119.441 49.4922 119.672 49.3281 119.977C49.1719 120.281 49.0938 120.656 49.0938 121.102V135ZM51.707 122.32V124.383H44.3242V122.32H51.707ZM53.2188 128.801V128.531C53.2188 127.617 53.3516 126.77 53.6172 125.988C53.8828 125.199 54.2656 124.516 54.7656 123.938C55.2734 123.352 55.8906 122.898 56.6172 122.578C57.3516 122.25 58.1797 122.086 59.1016 122.086C60.0312 122.086 60.8594 122.25 61.5859 122.578C62.3203 122.898 62.9414 123.352 63.4492 123.938C63.957 124.516 64.3438 125.199 64.6094 125.988C64.875 126.77 65.0078 127.617 65.0078 128.531V128.801C65.0078 129.715 64.875 130.562 64.6094 131.344C64.3438 132.125 63.957 132.809 63.4492 133.395C62.9414 133.973 62.3242 134.426 61.5977 134.754C60.8711 135.074 60.0469 135.234 59.125 135.234C58.1953 135.234 57.3633 135.074 56.6289 134.754C55.9023 134.426 55.2852 133.973 54.7773 133.395C54.2695 132.809 53.8828 132.125 53.6172 131.344C53.3516 130.562 53.2188 129.715 53.2188 128.801ZM56.043 128.531V128.801C56.043 129.371 56.1016 129.91 56.2188 130.418C56.3359 130.926 56.5195 131.371 56.7695 131.754C57.0195 132.137 57.3398 132.438 57.7305 132.656C58.1211 132.875 58.5859 132.984 59.125 132.984C59.6484 132.984 60.1016 132.875 60.4844 132.656C60.875 132.438 61.1953 132.137 61.4453 131.754C61.6953 131.371 61.8789 130.926 61.9961 130.418C62.1211 129.91 62.1836 129.371 62.1836 128.801V128.531C62.1836 127.969 62.1211 127.438 61.9961 126.938C61.8789 126.43 61.6914 125.98 61.4336 125.59C61.1836 125.199 60.8633 124.895 60.4727 124.676C60.0898 124.449 59.6328 124.336 59.1016 124.336C58.5703 124.336 58.1094 124.449 57.7188 124.676C57.3359 124.895 57.0195 125.199 56.7695 125.59C56.5195 125.98 56.3359 126.43 56.2188 126.938C56.1016 127.438 56.043 127.969 56.043 128.531ZM70.2109 124.734V135H67.3867V122.32H70.082L70.2109 124.734ZM74.0898 122.238L74.0664 124.863C73.8945 124.832 73.707 124.809 73.5039 124.793C73.3086 124.777 73.1133 124.77 72.918 124.77C72.4336 124.77 72.0078 124.84 71.6406 124.98C71.2734 125.113 70.9648 125.309 70.7148 125.566C70.4727 125.816 70.2852 126.121 70.1523 126.48C70.0195 126.84 69.9414 127.242 69.918 127.688L69.2734 127.734C69.2734 126.938 69.3516 126.199 69.5078 125.52C69.6641 124.84 69.8984 124.242 70.2109 123.727C70.5312 123.211 70.9297 122.809 71.4062 122.52C71.8906 122.23 72.4492 122.086 73.082 122.086C73.2539 122.086 73.4375 122.102 73.6328 122.133C73.8359 122.164 73.9883 122.199 74.0898 122.238ZM78.6836 124.898V135H75.8594V122.32H78.5195L78.6836 124.898ZM78.2266 128.191L77.2656 128.18C77.2656 127.305 77.375 126.496 77.5938 125.754C77.8125 125.012 78.1328 124.367 78.5547 123.82C78.9766 123.266 79.5 122.84 80.125 122.543C80.7578 122.238 81.4883 122.086 82.3164 122.086C82.8945 122.086 83.4219 122.172 83.8984 122.344C84.3828 122.508 84.8008 122.77 85.1523 123.129C85.5117 123.488 85.7852 123.949 85.9727 124.512C86.168 125.074 86.2656 125.754 86.2656 126.551V135H83.4414V126.797C83.4414 126.18 83.3477 125.695 83.1602 125.344C82.9805 124.992 82.7188 124.742 82.375 124.594C82.0391 124.438 81.6367 124.359 81.168 124.359C80.6367 124.359 80.1836 124.461 79.8086 124.664C79.4414 124.867 79.1406 125.145 78.9062 125.496C78.6719 125.848 78.5 126.254 78.3906 126.715C78.2812 127.176 78.2266 127.668 78.2266 128.191ZM86.0898 127.441L84.7656 127.734C84.7656 126.969 84.8711 126.246 85.082 125.566C85.3008 124.879 85.6172 124.277 86.0312 123.762C86.4531 123.238 86.9727 122.828 87.5898 122.531C88.207 122.234 88.9141 122.086 89.7109 122.086C90.3594 122.086 90.9375 122.176 91.4453 122.355C91.9609 122.527 92.3984 122.801 92.7578 123.176C93.1172 123.551 93.3906 124.039 93.5781 124.641C93.7656 125.234 93.8594 125.953 93.8594 126.797V135H91.0234V126.785C91.0234 126.145 90.9297 125.648 90.7422 125.297C90.5625 124.945 90.3047 124.703 89.9688 124.57C89.6328 124.43 89.2305 124.359 88.7617 124.359C88.3242 124.359 87.9375 124.441 87.6016 124.605C87.2734 124.762 86.9961 124.984 86.7695 125.273C86.543 125.555 86.3711 125.879 86.2539 126.246C86.1445 126.613 86.0898 127.012 86.0898 127.441ZM103.914 132.457V126.41C103.914 125.957 103.832 125.566 103.668 125.238C103.504 124.91 103.254 124.656 102.918 124.477C102.59 124.297 102.176 124.207 101.676 124.207C101.215 124.207 100.816 124.285 100.48 124.441C100.145 124.598 99.8828 124.809 99.6953 125.074C99.5078 125.34 99.4141 125.641 99.4141 125.977H96.6016C96.6016 125.477 96.7227 124.992 96.9648 124.523C97.207 124.055 97.5586 123.637 98.0195 123.27C98.4805 122.902 99.0312 122.613 99.6719 122.402C100.312 122.191 101.031 122.086 101.828 122.086C102.781 122.086 103.625 122.246 104.359 122.566C105.102 122.887 105.684 123.371 106.105 124.02C106.535 124.66 106.75 125.465 106.75 126.434V132.07C106.75 132.648 106.789 133.168 106.867 133.629C106.953 134.082 107.074 134.477 107.23 134.812V135H104.336C104.203 134.695 104.098 134.309 104.02 133.84C103.949 133.363 103.914 132.902 103.914 132.457ZM104.324 127.289L104.348 129.035H102.32C101.797 129.035 101.336 129.086 100.938 129.188C100.539 129.281 100.207 129.422 99.9414 129.609C99.6758 129.797 99.4766 130.023 99.3438 130.289C99.2109 130.555 99.1445 130.855 99.1445 131.191C99.1445 131.527 99.2227 131.836 99.3789 132.117C99.5352 132.391 99.7617 132.605 100.059 132.762C100.363 132.918 100.73 132.996 101.16 132.996C101.738 132.996 102.242 132.879 102.672 132.645C103.109 132.402 103.453 132.109 103.703 131.766C103.953 131.414 104.086 131.082 104.102 130.77L105.016 132.023C104.922 132.344 104.762 132.688 104.535 133.055C104.309 133.422 104.012 133.773 103.645 134.109C103.285 134.438 102.852 134.707 102.344 134.918C101.844 135.129 101.266 135.234 100.609 135.234C99.7812 135.234 99.043 135.07 98.3945 134.742C97.7461 134.406 97.2383 133.957 96.8711 133.395C96.5039 132.824 96.3203 132.18 96.3203 131.461C96.3203 130.789 96.4453 130.195 96.6953 129.68C96.9531 129.156 97.3281 128.719 97.8203 128.367C98.3203 128.016 98.9297 127.75 99.6484 127.57C100.367 127.383 101.188 127.289 102.109 127.289H104.324ZM115.516 122.32V124.383H108.367V122.32H115.516ZM110.43 119.215H113.254V131.496C113.254 131.887 113.309 132.188 113.418 132.398C113.535 132.602 113.695 132.738 113.898 132.809C114.102 132.879 114.34 132.914 114.613 132.914C114.809 132.914 114.996 132.902 115.176 132.879C115.355 132.855 115.5 132.832 115.609 132.809L115.621 134.965C115.387 135.035 115.113 135.098 114.801 135.152C114.496 135.207 114.145 135.234 113.746 135.234C113.098 135.234 112.523 135.121 112.023 134.895C111.523 134.66 111.133 134.281 110.852 133.758C110.57 133.234 110.43 132.539 110.43 131.672V119.215ZM120.719 122.32V135H117.883V122.32H120.719ZM117.695 118.992C117.695 118.562 117.836 118.207 118.117 117.926C118.406 117.637 118.805 117.492 119.312 117.492C119.812 117.492 120.207 117.637 120.496 117.926C120.785 118.207 120.93 118.562 120.93 118.992C120.93 119.414 120.785 119.766 120.496 120.047C120.207 120.328 119.812 120.469 119.312 120.469C118.805 120.469 118.406 120.328 118.117 120.047C117.836 119.766 117.695 119.414 117.695 118.992ZM123.273 128.801V128.531C123.273 127.617 123.406 126.77 123.672 125.988C123.938 125.199 124.32 124.516 124.82 123.938C125.328 123.352 125.945 122.898 126.672 122.578C127.406 122.25 128.234 122.086 129.156 122.086C130.086 122.086 130.914 122.25 131.641 122.578C132.375 122.898 132.996 123.352 133.504 123.938C134.012 124.516 134.398 125.199 134.664 125.988C134.93 126.77 135.062 127.617 135.062 128.531V128.801C135.062 129.715 134.93 130.562 134.664 131.344C134.398 132.125 134.012 132.809 133.504 133.395C132.996 133.973 132.379 134.426 131.652 134.754C130.926 135.074 130.102 135.234 129.18 135.234C128.25 135.234 127.418 135.074 126.684 134.754C125.957 134.426 125.34 133.973 124.832 133.395C124.324 132.809 123.938 132.125 123.672 131.344C123.406 130.562 123.273 129.715 123.273 128.801ZM126.098 128.531V128.801C126.098 129.371 126.156 129.91 126.273 130.418C126.391 130.926 126.574 131.371 126.824 131.754C127.074 132.137 127.395 132.438 127.785 132.656C128.176 132.875 128.641 132.984 129.18 132.984C129.703 132.984 130.156 132.875 130.539 132.656C130.93 132.438 131.25 132.137 131.5 131.754C131.75 131.371 131.934 130.926 132.051 130.418C132.176 129.91 132.238 129.371 132.238 128.801V128.531C132.238 127.969 132.176 127.438 132.051 126.938C131.934 126.43 131.746 125.98 131.488 125.59C131.238 125.199 130.918 124.895 130.527 124.676C130.145 124.449 129.688 124.336 129.156 124.336C128.625 124.336 128.164 124.449 127.773 124.676C127.391 124.895 127.074 125.199 126.824 125.59C126.574 125.98 126.391 126.43 126.273 126.938C126.156 127.438 126.098 127.969 126.098 128.531ZM140.23 125.027V135H137.406V122.32H140.066L140.23 125.027ZM139.727 128.191L138.812 128.18C138.82 127.281 138.945 126.457 139.188 125.707C139.438 124.957 139.781 124.312 140.219 123.773C140.664 123.234 141.195 122.82 141.812 122.531C142.43 122.234 143.117 122.086 143.875 122.086C144.484 122.086 145.035 122.172 145.527 122.344C146.027 122.508 146.453 122.777 146.805 123.152C147.164 123.527 147.438 124.016 147.625 124.617C147.812 125.211 147.906 125.941 147.906 126.809V135H145.07V126.797C145.07 126.188 144.98 125.707 144.801 125.355C144.629 124.996 144.375 124.742 144.039 124.594C143.711 124.438 143.301 124.359 142.809 124.359C142.324 124.359 141.891 124.461 141.508 124.664C141.125 124.867 140.801 125.145 140.535 125.496C140.277 125.848 140.078 126.254 139.938 126.715C139.797 127.176 139.727 127.668 139.727 128.191ZM40.8438 145.938H46.8789C48.1758 145.938 49.2812 146.133 50.1953 146.523C51.1094 146.914 51.8086 147.492 52.293 148.258C52.7852 149.016 53.0312 149.953 53.0312 151.07C53.0312 151.922 52.875 152.672 52.5625 153.32C52.25 153.969 51.8086 154.516 51.2383 154.961C50.668 155.398 49.9883 155.738 49.1992 155.98L48.3086 156.414H42.8828L42.8594 154.082H46.9258C47.6289 154.082 48.2148 153.957 48.6836 153.707C49.1523 153.457 49.5039 153.117 49.7383 152.688C49.9805 152.25 50.1016 151.758 50.1016 151.211C50.1016 150.617 49.9844 150.102 49.75 149.664C49.5234 149.219 49.1719 148.879 48.6953 148.645C48.2188 148.402 47.6133 148.281 46.8789 148.281H43.7852V163H40.8438V145.938ZM50.582 163L46.5742 155.336L49.6562 155.324L53.7227 162.848V163H50.582ZM61.2695 163.234C60.332 163.234 59.4844 163.082 58.7266 162.777C57.9766 162.465 57.3359 162.031 56.8047 161.477C56.2812 160.922 55.8789 160.27 55.5977 159.52C55.3164 158.77 55.1758 157.961 55.1758 157.094V156.625C55.1758 155.633 55.3203 154.734 55.6094 153.93C55.8984 153.125 56.3008 152.438 56.8164 151.867C57.332 151.289 57.9414 150.848 58.6445 150.543C59.3477 150.238 60.1094 150.086 60.9297 150.086C61.8359 150.086 62.6289 150.238 63.3086 150.543C63.9883 150.848 64.5508 151.277 64.9961 151.832C65.4492 152.379 65.7852 153.031 66.0039 153.789C66.2305 154.547 66.3438 155.383 66.3438 156.297V157.504H56.5469V155.477H63.5547V155.254C63.5391 154.746 63.4375 154.27 63.25 153.824C63.0703 153.379 62.793 153.02 62.418 152.746C62.043 152.473 61.543 152.336 60.918 152.336C60.4492 152.336 60.0312 152.438 59.6641 152.641C59.3047 152.836 59.0039 153.121 58.7617 153.496C58.5195 153.871 58.332 154.324 58.1992 154.855C58.0742 155.379 58.0117 155.969 58.0117 156.625V157.094C58.0117 157.648 58.0859 158.164 58.2344 158.641C58.3906 159.109 58.6172 159.52 58.9141 159.871C59.2109 160.223 59.5703 160.5 59.9922 160.703C60.4141 160.898 60.8945 160.996 61.4336 160.996C62.1133 160.996 62.7188 160.859 63.25 160.586C63.7812 160.312 64.2422 159.926 64.6328 159.426L66.1211 160.867C65.8477 161.266 65.4922 161.648 65.0547 162.016C64.6172 162.375 64.082 162.668 63.4492 162.895C62.8242 163.121 62.0977 163.234 61.2695 163.234ZM74.3594 150.32V152.383H67.2109V150.32H74.3594ZM69.2734 147.215H72.0977V159.496C72.0977 159.887 72.1523 160.188 72.2617 160.398C72.3789 160.602 72.5391 160.738 72.7422 160.809C72.9453 160.879 73.1836 160.914 73.457 160.914C73.6523 160.914 73.8398 160.902 74.0195 160.879C74.1992 160.855 74.3438 160.832 74.4531 160.809L74.4648 162.965C74.2305 163.035 73.957 163.098 73.6445 163.152C73.3398 163.207 72.9883 163.234 72.5898 163.234C71.9414 163.234 71.3672 163.121 70.8672 162.895C70.3672 162.66 69.9766 162.281 69.6953 161.758C69.4141 161.234 69.2734 160.539 69.2734 159.672V147.215ZM83.6875 160.457V154.41C83.6875 153.957 83.6055 153.566 83.4414 153.238C83.2773 152.91 83.0273 152.656 82.6914 152.477C82.3633 152.297 81.9492 152.207 81.4492 152.207C80.9883 152.207 80.5898 152.285 80.2539 152.441C79.918 152.598 79.6562 152.809 79.4688 153.074C79.2812 153.34 79.1875 153.641 79.1875 153.977H76.375C76.375 153.477 76.4961 152.992 76.7383 152.523C76.9805 152.055 77.332 151.637 77.793 151.27C78.2539 150.902 78.8047 150.613 79.4453 150.402C80.0859 150.191 80.8047 150.086 81.6016 150.086C82.5547 150.086 83.3984 150.246 84.1328 150.566C84.875 150.887 85.457 151.371 85.8789 152.02C86.3086 152.66 86.5234 153.465 86.5234 154.434V160.07C86.5234 160.648 86.5625 161.168 86.6406 161.629C86.7266 162.082 86.8477 162.477 87.0039 162.812V163H84.1094C83.9766 162.695 83.8711 162.309 83.793 161.84C83.7227 161.363 83.6875 160.902 83.6875 160.457ZM84.0977 155.289L84.1211 157.035H82.0938C81.5703 157.035 81.1094 157.086 80.7109 157.188C80.3125 157.281 79.9805 157.422 79.7148 157.609C79.4492 157.797 79.25 158.023 79.1172 158.289C78.9844 158.555 78.918 158.855 78.918 159.191C78.918 159.527 78.9961 159.836 79.1523 160.117C79.3086 160.391 79.5352 160.605 79.832 160.762C80.1367 160.918 80.5039 160.996 80.9336 160.996C81.5117 160.996 82.0156 160.879 82.4453 160.645C82.8828 160.402 83.2266 160.109 83.4766 159.766C83.7266 159.414 83.8594 159.082 83.875 158.77L84.7891 160.023C84.6953 160.344 84.5352 160.688 84.3086 161.055C84.082 161.422 83.7852 161.773 83.418 162.109C83.0586 162.438 82.625 162.707 82.1172 162.918C81.6172 163.129 81.0391 163.234 80.3828 163.234C79.5547 163.234 78.8164 163.07 78.168 162.742C77.5195 162.406 77.0117 161.957 76.6445 161.395C76.2773 160.824 76.0938 160.18 76.0938 159.461C76.0938 158.789 76.2188 158.195 76.4688 157.68C76.7266 157.156 77.1016 156.719 77.5938 156.367C78.0938 156.016 78.7031 155.75 79.4219 155.57C80.1406 155.383 80.9609 155.289 81.8828 155.289H84.0977ZM92.5 150.32V163H89.6641V150.32H92.5ZM89.4766 146.992C89.4766 146.562 89.6172 146.207 89.8984 145.926C90.1875 145.637 90.5859 145.492 91.0938 145.492C91.5938 145.492 91.9883 145.637 92.2773 145.926C92.5664 146.207 92.7109 146.562 92.7109 146.992C92.7109 147.414 92.5664 147.766 92.2773 148.047C91.9883 148.328 91.5938 148.469 91.0938 148.469C90.5859 148.469 90.1875 148.328 89.8984 148.047C89.6172 147.766 89.4766 147.414 89.4766 146.992ZM98.3945 153.027V163H95.5703V150.32H98.2305L98.3945 153.027ZM97.8906 156.191L96.9766 156.18C96.9844 155.281 97.1094 154.457 97.3516 153.707C97.6016 152.957 97.9453 152.312 98.3828 151.773C98.8281 151.234 99.3594 150.82 99.9766 150.531C100.594 150.234 101.281 150.086 102.039 150.086C102.648 150.086 103.199 150.172 103.691 150.344C104.191 150.508 104.617 150.777 104.969 151.152C105.328 151.527 105.602 152.016 105.789 152.617C105.977 153.211 106.07 153.941 106.07 154.809V163H103.234V154.797C103.234 154.188 103.145 153.707 102.965 153.355C102.793 152.996 102.539 152.742 102.203 152.594C101.875 152.438 101.465 152.359 100.973 152.359C100.488 152.359 100.055 152.461 99.6719 152.664C99.2891 152.867 98.9648 153.145 98.6992 153.496C98.4414 153.848 98.2422 154.254 98.1016 154.715C97.9609 155.176 97.8906 155.668 97.8906 156.191ZM114.543 163.234C113.605 163.234 112.758 163.082 112 162.777C111.25 162.465 110.609 162.031 110.078 161.477C109.555 160.922 109.152 160.27 108.871 159.52C108.59 158.77 108.449 157.961 108.449 157.094V156.625C108.449 155.633 108.594 154.734 108.883 153.93C109.172 153.125 109.574 152.438 110.09 151.867C110.605 151.289 111.215 150.848 111.918 150.543C112.621 150.238 113.383 150.086 114.203 150.086C115.109 150.086 115.902 150.238 116.582 150.543C117.262 150.848 117.824 151.277 118.27 151.832C118.723 152.379 119.059 153.031 119.277 153.789C119.504 154.547 119.617 155.383 119.617 156.297V157.504H109.82V155.477H116.828V155.254C116.812 154.746 116.711 154.27 116.523 153.824C116.344 153.379 116.066 153.02 115.691 152.746C115.316 152.473 114.816 152.336 114.191 152.336C113.723 152.336 113.305 152.438 112.938 152.641C112.578 152.836 112.277 153.121 112.035 153.496C111.793 153.871 111.605 154.324 111.473 154.855C111.348 155.379 111.285 155.969 111.285 156.625V157.094C111.285 157.648 111.359 158.164 111.508 158.641C111.664 159.109 111.891 159.52 112.188 159.871C112.484 160.223 112.844 160.5 113.266 160.703C113.688 160.898 114.168 160.996 114.707 160.996C115.387 160.996 115.992 160.859 116.523 160.586C117.055 160.312 117.516 159.926 117.906 159.426L119.395 160.867C119.121 161.266 118.766 161.648 118.328 162.016C117.891 162.375 117.355 162.668 116.723 162.895C116.098 163.121 115.371 163.234 114.543 163.234ZM129.555 160.375V145H132.391V163H129.824L129.555 160.375ZM121.305 156.801V156.555C121.305 155.594 121.418 154.719 121.645 153.93C121.871 153.133 122.199 152.449 122.629 151.879C123.059 151.301 123.582 150.859 124.199 150.555C124.816 150.242 125.512 150.086 126.285 150.086C127.051 150.086 127.723 150.234 128.301 150.531C128.879 150.828 129.371 151.254 129.777 151.809C130.184 152.355 130.508 153.012 130.75 153.777C130.992 154.535 131.164 155.379 131.266 156.309V157.094C131.164 158 130.992 158.828 130.75 159.578C130.508 160.328 130.184 160.977 129.777 161.523C129.371 162.07 128.875 162.492 128.289 162.789C127.711 163.086 127.035 163.234 126.262 163.234C125.496 163.234 124.805 163.074 124.188 162.754C123.578 162.434 123.059 161.984 122.629 161.406C122.199 160.828 121.871 160.148 121.645 159.367C121.418 158.578 121.305 157.723 121.305 156.801ZM124.129 156.555V156.801C124.129 157.379 124.18 157.918 124.281 158.418C124.391 158.918 124.559 159.359 124.785 159.742C125.012 160.117 125.305 160.414 125.664 160.633C126.031 160.844 126.469 160.949 126.977 160.949C127.617 160.949 128.145 160.809 128.559 160.527C128.973 160.246 129.297 159.867 129.531 159.391C129.773 158.906 129.938 158.367 130.023 157.773V155.652C129.977 155.191 129.879 154.762 129.73 154.363C129.59 153.965 129.398 153.617 129.156 153.32C128.914 153.016 128.613 152.781 128.254 152.617C127.902 152.445 127.484 152.359 127 152.359C126.484 152.359 126.047 152.469 125.688 152.688C125.328 152.906 125.031 153.207 124.797 153.59C124.57 153.973 124.402 154.418 124.293 154.926C124.184 155.434 124.129 155.977 124.129 156.555Z" fill="black"/>
<path d="M332.996 257.938V275H330.078V257.938H332.996ZM338.352 257.938V260.281H324.77V257.938H338.352ZM343.344 262.32V275H340.508V262.32H343.344ZM340.32 258.992C340.32 258.562 340.461 258.207 340.742 257.926C341.031 257.637 341.43 257.492 341.938 257.492C342.438 257.492 342.832 257.637 343.121 257.926C343.41 258.207 343.555 258.562 343.555 258.992C343.555 259.414 343.41 259.766 343.121 260.047C342.832 260.328 342.438 260.469 341.938 260.469C341.43 260.469 341.031 260.328 340.742 260.047C340.461 259.766 340.32 259.414 340.32 258.992ZM349.262 264.898V275H346.438V262.32H349.098L349.262 264.898ZM348.805 268.191L347.844 268.18C347.844 267.305 347.953 266.496 348.172 265.754C348.391 265.012 348.711 264.367 349.133 263.82C349.555 263.266 350.078 262.84 350.703 262.543C351.336 262.238 352.066 262.086 352.895 262.086C353.473 262.086 354 262.172 354.477 262.344C354.961 262.508 355.379 262.77 355.73 263.129C356.09 263.488 356.363 263.949 356.551 264.512C356.746 265.074 356.844 265.754 356.844 266.551V275H354.02V266.797C354.02 266.18 353.926 265.695 353.738 265.344C353.559 264.992 353.297 264.742 352.953 264.594C352.617 264.438 352.215 264.359 351.746 264.359C351.215 264.359 350.762 264.461 350.387 264.664C350.02 264.867 349.719 265.145 349.484 265.496C349.25 265.848 349.078 266.254 348.969 266.715C348.859 267.176 348.805 267.668 348.805 268.191ZM356.668 267.441L355.344 267.734C355.344 266.969 355.449 266.246 355.66 265.566C355.879 264.879 356.195 264.277 356.609 263.762C357.031 263.238 357.551 262.828 358.168 262.531C358.785 262.234 359.492 262.086 360.289 262.086C360.938 262.086 361.516 262.176 362.023 262.355C362.539 262.527 362.977 262.801 363.336 263.176C363.695 263.551 363.969 264.039 364.156 264.641C364.344 265.234 364.438 265.953 364.438 266.797V275H361.602V266.785C361.602 266.145 361.508 265.648 361.32 265.297C361.141 264.945 360.883 264.703 360.547 264.57C360.211 264.43 359.809 264.359 359.34 264.359C358.902 264.359 358.516 264.441 358.18 264.605C357.852 264.762 357.574 264.984 357.348 265.273C357.121 265.555 356.949 265.879 356.832 266.246C356.723 266.613 356.668 267.012 356.668 267.441ZM372.934 275.234C371.996 275.234 371.148 275.082 370.391 274.777C369.641 274.465 369 274.031 368.469 273.477C367.945 272.922 367.543 272.27 367.262 271.52C366.98 270.77 366.84 269.961 366.84 269.094V268.625C366.84 267.633 366.984 266.734 367.273 265.93C367.562 265.125 367.965 264.438 368.48 263.867C368.996 263.289 369.605 262.848 370.309 262.543C371.012 262.238 371.773 262.086 372.594 262.086C373.5 262.086 374.293 262.238 374.973 262.543C375.652 262.848 376.215 263.277 376.66 263.832C377.113 264.379 377.449 265.031 377.668 265.789C377.895 266.547 378.008 267.383 378.008 268.297V269.504H368.211V267.477H375.219V267.254C375.203 266.746 375.102 266.27 374.914 265.824C374.734 265.379 374.457 265.02 374.082 264.746C373.707 264.473 373.207 264.336 372.582 264.336C372.113 264.336 371.695 264.438 371.328 264.641C370.969 264.836 370.668 265.121 370.426 265.496C370.184 265.871 369.996 266.324 369.863 266.855C369.738 267.379 369.676 267.969 369.676 268.625V269.094C369.676 269.648 369.75 270.164 369.898 270.641C370.055 271.109 370.281 271.52 370.578 271.871C370.875 272.223 371.234 272.5 371.656 272.703C372.078 272.898 372.559 272.996 373.098 272.996C373.777 272.996 374.383 272.859 374.914 272.586C375.445 272.312 375.906 271.926 376.297 271.426L377.785 272.867C377.512 273.266 377.156 273.648 376.719 274.016C376.281 274.375 375.746 274.668 375.113 274.895C374.488 275.121 373.762 275.234 372.934 275.234Z" fill="black"/>
</g>
<defs>
<clipPath id="clip0_203_2">
<rect width="600" height="300" fill="white"/>
</clipPath>
</defs>
</svg>
