<svg width="600" height="300" viewBox="0 0 600 300" fill="none" xmlns="http://www.w3.org/2000/svg">
<rect width="600" height="300" fill="white"/>
<path d="M58.2461 145H55.209L55.2285 143.057H58.2461C59.125 143.057 59.8607 142.865 60.4531 142.48C61.0521 142.096 61.5013 141.546 61.8008 140.83C62.1068 140.114 62.2598 139.261 62.2598 138.271V137.5C62.2598 136.732 62.1719 136.051 61.9961 135.459C61.8268 134.867 61.5729 134.368 61.2344 133.965C60.9023 133.561 60.4922 133.255 60.0039 133.047C59.5221 132.839 58.9655 132.734 58.334 132.734H55.1504V130.781H58.334C59.278 130.781 60.1406 130.941 60.9219 131.26C61.7031 131.572 62.377 132.025 62.9434 132.617C63.5163 133.21 63.9557 133.919 64.2617 134.746C64.5677 135.573 64.7207 136.497 64.7207 137.52V138.271C64.7207 139.294 64.5677 140.218 64.2617 141.045C63.9557 141.872 63.5163 142.581 62.9434 143.174C62.3704 143.76 61.6868 144.212 60.8926 144.531C60.1048 144.844 59.2227 145 58.2461 145ZM56.5664 130.781V145H54.1152V130.781H56.5664ZM72.9043 142.881V137.842C72.9043 137.464 72.8359 137.139 72.6992 136.865C72.5625 136.592 72.3542 136.38 72.0742 136.23C71.8008 136.081 71.4557 136.006 71.0391 136.006C70.6549 136.006 70.3229 136.071 70.043 136.201C69.763 136.331 69.5449 136.507 69.3887 136.729C69.2324 136.95 69.1543 137.201 69.1543 137.48H66.8105C66.8105 137.064 66.9115 136.66 67.1133 136.27C67.3151 135.879 67.6081 135.531 67.9922 135.225C68.3763 134.919 68.8353 134.678 69.3691 134.502C69.903 134.326 70.502 134.238 71.166 134.238C71.9603 134.238 72.6634 134.372 73.2754 134.639C73.8939 134.906 74.3789 135.309 74.7305 135.85C75.0885 136.383 75.2676 137.054 75.2676 137.861V142.559C75.2676 143.04 75.3001 143.473 75.3652 143.857C75.4368 144.235 75.5378 144.564 75.668 144.844V145H73.2559C73.1452 144.746 73.0573 144.424 72.9922 144.033C72.9336 143.636 72.9043 143.252 72.9043 142.881ZM73.2461 138.574L73.2656 140.029H71.5762C71.14 140.029 70.7559 140.072 70.4238 140.156C70.0918 140.234 69.8151 140.352 69.5938 140.508C69.3724 140.664 69.2064 140.853 69.0957 141.074C68.985 141.296 68.9297 141.546 68.9297 141.826C68.9297 142.106 68.9948 142.363 69.125 142.598C69.2552 142.826 69.444 143.005 69.6914 143.135C69.9453 143.265 70.2513 143.33 70.6094 143.33C71.0911 143.33 71.5111 143.232 71.8691 143.037C72.2337 142.835 72.5202 142.591 72.7285 142.305C72.9368 142.012 73.0475 141.735 73.0605 141.475L73.8223 142.52C73.7441 142.786 73.6107 143.073 73.4219 143.379C73.2331 143.685 72.9857 143.978 72.6797 144.258C72.3802 144.531 72.0189 144.756 71.5957 144.932C71.179 145.107 70.6973 145.195 70.1504 145.195C69.4603 145.195 68.8451 145.059 68.3047 144.785C67.7643 144.505 67.3411 144.131 67.0352 143.662C66.7292 143.187 66.5762 142.65 66.5762 142.051C66.5762 141.491 66.6803 140.996 66.8887 140.566C67.1035 140.13 67.416 139.766 67.8262 139.473C68.2428 139.18 68.7507 138.958 69.3496 138.809C69.9486 138.652 70.6322 138.574 71.4004 138.574H73.2461ZM82.5723 134.434V136.152H76.6152V134.434H82.5723ZM78.334 131.846H80.6875V142.08C80.6875 142.406 80.7331 142.656 80.8242 142.832C80.9219 143.001 81.0553 143.115 81.2246 143.174C81.3939 143.232 81.5924 143.262 81.8203 143.262C81.9831 143.262 82.1393 143.252 82.2891 143.232C82.4388 143.213 82.5592 143.193 82.6504 143.174L82.6602 144.971C82.4648 145.029 82.237 145.081 81.9766 145.127C81.7227 145.173 81.4297 145.195 81.0977 145.195C80.5573 145.195 80.0788 145.101 79.6621 144.912C79.2454 144.717 78.9199 144.401 78.6855 143.965C78.4512 143.529 78.334 142.949 78.334 142.227V131.846ZM90.3457 142.881V137.842C90.3457 137.464 90.2773 137.139 90.1406 136.865C90.0039 136.592 89.7956 136.38 89.5156 136.23C89.2422 136.081 88.8971 136.006 88.4805 136.006C88.0964 136.006 87.7643 136.071 87.4844 136.201C87.2044 136.331 86.9863 136.507 86.8301 136.729C86.6738 136.95 86.5957 137.201 86.5957 137.48H84.252C84.252 137.064 84.3529 136.66 84.5547 136.27C84.7565 135.879 85.0495 135.531 85.4336 135.225C85.8177 134.919 86.2767 134.678 86.8105 134.502C87.3444 134.326 87.9434 134.238 88.6074 134.238C89.4017 134.238 90.1048 134.372 90.7168 134.639C91.3353 134.906 91.8203 135.309 92.1719 135.85C92.5299 136.383 92.709 137.054 92.709 137.861V142.559C92.709 143.04 92.7415 143.473 92.8066 143.857C92.8783 144.235 92.9792 144.564 93.1094 144.844V145H90.6973C90.5866 144.746 90.4987 144.424 90.4336 144.033C90.375 143.636 90.3457 143.252 90.3457 142.881ZM90.6875 138.574L90.707 140.029H89.0176C88.5814 140.029 88.1973 140.072 87.8652 140.156C87.5332 140.234 87.2565 140.352 87.0352 140.508C86.8138 140.664 86.6478 140.853 86.5371 141.074C86.4264 141.296 86.3711 141.546 86.3711 141.826C86.3711 142.106 86.4362 142.363 86.5664 142.598C86.6966 142.826 86.8854 143.005 87.1328 143.135C87.3867 143.265 87.6927 143.33 88.0508 143.33C88.5326 143.33 88.9525 143.232 89.3105 143.037C89.6751 142.835 89.9616 142.591 90.1699 142.305C90.3783 142.012 90.4889 141.735 90.502 141.475L91.2637 142.52C91.1855 142.786 91.0521 143.073 90.8633 143.379C90.6745 143.685 90.4271 143.978 90.1211 144.258C89.8216 144.531 89.4603 144.756 89.0371 144.932C88.6204 145.107 88.1387 145.195 87.5918 145.195C86.9017 145.195 86.2865 145.059 85.7461 144.785C85.2057 144.505 84.7826 144.131 84.4766 143.662C84.1706 143.187 84.0176 142.65 84.0176 142.051C84.0176 141.491 84.1217 140.996 84.3301 140.566C84.5449 140.13 84.8574 139.766 85.2676 139.473C85.6842 139.18 86.1921 138.958 86.791 138.809C87.39 138.652 88.0736 138.574 88.8418 138.574H90.6875ZM102.67 134.434V145H100.307V134.434H102.67ZM100.15 131.66C100.15 131.302 100.268 131.006 100.502 130.771C100.743 130.531 101.075 130.41 101.498 130.41C101.915 130.41 102.243 130.531 102.484 130.771C102.725 131.006 102.846 131.302 102.846 131.66C102.846 132.012 102.725 132.305 102.484 132.539C102.243 132.773 101.915 132.891 101.498 132.891C101.075 132.891 100.743 132.773 100.502 132.539C100.268 132.305 100.15 132.012 100.15 131.66ZM111.176 142.139C111.176 141.904 111.117 141.693 111 141.504C110.883 141.309 110.658 141.133 110.326 140.977C110.001 140.82 109.519 140.677 108.881 140.547C108.321 140.423 107.807 140.277 107.338 140.107C106.876 139.932 106.479 139.72 106.146 139.473C105.814 139.225 105.557 138.932 105.375 138.594C105.193 138.255 105.102 137.865 105.102 137.422C105.102 136.992 105.196 136.585 105.385 136.201C105.574 135.817 105.844 135.479 106.195 135.186C106.547 134.893 106.973 134.661 107.475 134.492C107.982 134.323 108.549 134.238 109.174 134.238C110.059 134.238 110.818 134.388 111.449 134.688C112.087 134.98 112.576 135.381 112.914 135.889C113.253 136.39 113.422 136.956 113.422 137.588H111.068C111.068 137.308 110.997 137.048 110.854 136.807C110.717 136.559 110.508 136.361 110.229 136.211C109.949 136.055 109.597 135.977 109.174 135.977C108.77 135.977 108.435 136.042 108.168 136.172C107.908 136.296 107.712 136.458 107.582 136.66C107.458 136.862 107.396 137.083 107.396 137.324C107.396 137.5 107.429 137.66 107.494 137.803C107.566 137.939 107.683 138.066 107.846 138.184C108.008 138.294 108.23 138.398 108.51 138.496C108.796 138.594 109.154 138.688 109.584 138.779C110.391 138.949 111.085 139.167 111.664 139.434C112.25 139.694 112.699 140.033 113.012 140.449C113.324 140.859 113.48 141.38 113.48 142.012C113.48 142.48 113.38 142.91 113.178 143.301C112.982 143.685 112.696 144.02 112.318 144.307C111.941 144.587 111.488 144.805 110.961 144.961C110.44 145.117 109.854 145.195 109.203 145.195C108.246 145.195 107.436 145.026 106.771 144.688C106.107 144.342 105.603 143.903 105.258 143.369C104.919 142.829 104.75 142.269 104.75 141.689H107.025C107.051 142.126 107.172 142.474 107.387 142.734C107.608 142.988 107.882 143.174 108.207 143.291C108.539 143.402 108.881 143.457 109.232 143.457C109.656 143.457 110.01 143.402 110.297 143.291C110.583 143.174 110.801 143.018 110.951 142.822C111.101 142.62 111.176 142.393 111.176 142.139ZM48.1191 166.32C48.5033 166.32 48.8483 166.245 49.1543 166.096C49.4668 165.939 49.7174 165.725 49.9062 165.451C50.1016 165.178 50.209 164.862 50.2285 164.504H52.4453C52.4323 165.188 52.2305 165.809 51.8398 166.369C51.4492 166.929 50.9316 167.375 50.2871 167.707C49.6426 168.033 48.9297 168.195 48.1484 168.195C47.3411 168.195 46.638 168.059 46.0391 167.785C45.4401 167.505 44.9421 167.121 44.5449 166.633C44.1478 166.145 43.8483 165.581 43.6465 164.943C43.4512 164.305 43.3535 163.622 43.3535 162.893V162.551C43.3535 161.822 43.4512 161.138 43.6465 160.5C43.8483 159.855 44.1478 159.289 44.5449 158.801C44.9421 158.312 45.4401 157.932 46.0391 157.658C46.638 157.378 47.3379 157.238 48.1387 157.238C48.985 157.238 49.7272 157.408 50.3652 157.746C51.0033 158.078 51.5046 158.544 51.8691 159.143C52.2402 159.735 52.4323 160.425 52.4453 161.213H50.2285C50.209 160.822 50.1113 160.471 49.9355 160.158C49.7663 159.839 49.5254 159.585 49.2129 159.396C48.9069 159.208 48.5391 159.113 48.1094 159.113C47.6341 159.113 47.2402 159.211 46.9277 159.406C46.6152 159.595 46.3711 159.855 46.1953 160.188C46.0195 160.513 45.8926 160.881 45.8145 161.291C45.7428 161.695 45.707 162.115 45.707 162.551V162.893C45.707 163.329 45.7428 163.752 45.8145 164.162C45.8861 164.572 46.0098 164.94 46.1855 165.266C46.3678 165.585 46.6152 165.842 46.9277 166.037C47.2402 166.226 47.6374 166.32 48.1191 166.32ZM53.8027 162.834V162.609C53.8027 161.848 53.9134 161.141 54.1348 160.49C54.3561 159.833 54.6751 159.263 55.0918 158.781C55.515 158.293 56.0293 157.915 56.6348 157.648C57.2467 157.375 57.9368 157.238 58.7051 157.238C59.4798 157.238 60.1699 157.375 60.7754 157.648C61.3874 157.915 61.9049 158.293 62.3281 158.781C62.7513 159.263 63.0736 159.833 63.2949 160.49C63.5163 161.141 63.627 161.848 63.627 162.609V162.834C63.627 163.596 63.5163 164.302 63.2949 164.953C63.0736 165.604 62.7513 166.174 62.3281 166.662C61.9049 167.144 61.3906 167.521 60.7852 167.795C60.1797 168.062 59.4928 168.195 58.7246 168.195C57.9499 168.195 57.2565 168.062 56.6445 167.795C56.0391 167.521 55.5247 167.144 55.1016 166.662C54.6784 166.174 54.3561 165.604 54.1348 164.953C53.9134 164.302 53.8027 163.596 53.8027 162.834ZM56.1562 162.609V162.834C56.1562 163.309 56.2051 163.758 56.3027 164.182C56.4004 164.605 56.5534 164.976 56.7617 165.295C56.9701 165.614 57.237 165.865 57.5625 166.047C57.888 166.229 58.2754 166.32 58.7246 166.32C59.1608 166.32 59.5384 166.229 59.8574 166.047C60.1829 165.865 60.4499 165.614 60.6582 165.295C60.8665 164.976 61.0195 164.605 61.1172 164.182C61.2214 163.758 61.2734 163.309 61.2734 162.834V162.609C61.2734 162.141 61.2214 161.698 61.1172 161.281C61.0195 160.858 60.8633 160.484 60.6484 160.158C60.4401 159.833 60.1732 159.579 59.8477 159.396C59.5286 159.208 59.1478 159.113 58.7051 159.113C58.2624 159.113 57.8783 159.208 57.5527 159.396C57.2337 159.579 56.9701 159.833 56.7617 160.158C56.5534 160.484 56.4004 160.858 56.3027 161.281C56.2051 161.698 56.1562 162.141 56.1562 162.609ZM68.1191 153V168H65.7559V153H68.1191ZM73.2168 153V168H70.8535V153H73.2168ZM80.4531 168.195C79.6719 168.195 78.9655 168.068 78.334 167.814C77.709 167.554 77.1751 167.193 76.7324 166.73C76.2962 166.268 75.9609 165.725 75.7266 165.1C75.4922 164.475 75.375 163.801 75.375 163.078V162.688C75.375 161.861 75.4954 161.112 75.7363 160.441C75.9772 159.771 76.3125 159.198 76.7422 158.723C77.1719 158.241 77.6797 157.873 78.2656 157.619C78.8516 157.365 79.4863 157.238 80.1699 157.238C80.9251 157.238 81.5859 157.365 82.1523 157.619C82.7188 157.873 83.1875 158.231 83.5586 158.693C83.9362 159.149 84.2161 159.693 84.3984 160.324C84.5872 160.956 84.6816 161.652 84.6816 162.414V163.42H76.5176V161.73H82.3574V161.545C82.3444 161.122 82.2598 160.725 82.1035 160.354C81.9538 159.982 81.7227 159.683 81.4102 159.455C81.0977 159.227 80.681 159.113 80.1602 159.113C79.7695 159.113 79.4212 159.198 79.1152 159.367C78.8158 159.53 78.5651 159.768 78.3633 160.08C78.1615 160.393 78.0052 160.77 77.8945 161.213C77.7904 161.649 77.7383 162.141 77.7383 162.688V163.078C77.7383 163.54 77.8001 163.97 77.9238 164.367C78.054 164.758 78.2428 165.1 78.4902 165.393C78.7376 165.686 79.0371 165.917 79.3887 166.086C79.7402 166.249 80.1406 166.33 80.5898 166.33C81.1562 166.33 81.6608 166.216 82.1035 165.988C82.5462 165.76 82.9303 165.438 83.2559 165.021L84.4961 166.223C84.2682 166.555 83.972 166.874 83.6074 167.18C83.2428 167.479 82.7969 167.723 82.2695 167.912C81.7487 168.101 81.1432 168.195 80.4531 168.195ZM90.834 166.32C91.2181 166.32 91.5632 166.245 91.8691 166.096C92.1816 165.939 92.4323 165.725 92.6211 165.451C92.8164 165.178 92.9238 164.862 92.9434 164.504H95.1602C95.1471 165.188 94.9453 165.809 94.5547 166.369C94.1641 166.929 93.6465 167.375 93.002 167.707C92.3574 168.033 91.6445 168.195 90.8633 168.195C90.056 168.195 89.3529 168.059 88.7539 167.785C88.1549 167.505 87.6569 167.121 87.2598 166.633C86.8626 166.145 86.5632 165.581 86.3613 164.943C86.166 164.305 86.0684 163.622 86.0684 162.893V162.551C86.0684 161.822 86.166 161.138 86.3613 160.5C86.5632 159.855 86.8626 159.289 87.2598 158.801C87.6569 158.312 88.1549 157.932 88.7539 157.658C89.3529 157.378 90.0527 157.238 90.8535 157.238C91.6999 157.238 92.4421 157.408 93.0801 157.746C93.7181 158.078 94.2194 158.544 94.584 159.143C94.9551 159.735 95.1471 160.425 95.1602 161.213H92.9434C92.9238 160.822 92.8262 160.471 92.6504 160.158C92.4811 159.839 92.2402 159.585 91.9277 159.396C91.6217 159.208 91.2539 159.113 90.8242 159.113C90.349 159.113 89.9551 159.211 89.6426 159.406C89.3301 159.595 89.0859 159.855 88.9102 160.188C88.7344 160.513 88.6074 160.881 88.5293 161.291C88.4577 161.695 88.4219 162.115 88.4219 162.551V162.893C88.4219 163.329 88.4577 163.752 88.5293 164.162C88.6009 164.572 88.7246 164.94 88.9004 165.266C89.0827 165.585 89.3301 165.842 89.6426 166.037C89.9551 166.226 90.3522 166.32 90.834 166.32ZM101.811 157.434V159.152H95.8535V157.434H101.811ZM97.5723 154.846H99.9258V165.08C99.9258 165.406 99.9714 165.656 100.062 165.832C100.16 166.001 100.294 166.115 100.463 166.174C100.632 166.232 100.831 166.262 101.059 166.262C101.221 166.262 101.378 166.252 101.527 166.232C101.677 166.213 101.798 166.193 101.889 166.174L101.898 167.971C101.703 168.029 101.475 168.081 101.215 168.127C100.961 168.173 100.668 168.195 100.336 168.195C99.7956 168.195 99.3171 168.101 98.9004 167.912C98.4837 167.717 98.1582 167.401 97.9238 166.965C97.6895 166.529 97.5723 165.949 97.5723 165.227V154.846ZM108.285 168.195C107.504 168.195 106.798 168.068 106.166 167.814C105.541 167.554 105.007 167.193 104.564 166.73C104.128 166.268 103.793 165.725 103.559 165.1C103.324 164.475 103.207 163.801 103.207 163.078V162.688C103.207 161.861 103.327 161.112 103.568 160.441C103.809 159.771 104.145 159.198 104.574 158.723C105.004 158.241 105.512 157.873 106.098 157.619C106.684 157.365 107.318 157.238 108.002 157.238C108.757 157.238 109.418 157.365 109.984 157.619C110.551 157.873 111.02 158.231 111.391 158.693C111.768 159.149 112.048 159.693 112.23 160.324C112.419 160.956 112.514 161.652 112.514 162.414V163.42H104.35V161.73H110.189V161.545C110.176 161.122 110.092 160.725 109.936 160.354C109.786 159.982 109.555 159.683 109.242 159.455C108.93 159.227 108.513 159.113 107.992 159.113C107.602 159.113 107.253 159.198 106.947 159.367C106.648 159.53 106.397 159.768 106.195 160.08C105.993 160.393 105.837 160.77 105.727 161.213C105.622 161.649 105.57 162.141 105.57 162.688V163.078C105.57 163.54 105.632 163.97 105.756 164.367C105.886 164.758 106.075 165.1 106.322 165.393C106.57 165.686 106.869 165.917 107.221 166.086C107.572 166.249 107.973 166.33 108.422 166.33C108.988 166.33 109.493 166.216 109.936 165.988C110.378 165.76 110.762 165.438 111.088 165.021L112.328 166.223C112.1 166.555 111.804 166.874 111.439 167.18C111.075 167.479 110.629 167.723 110.102 167.912C109.581 168.101 108.975 168.195 108.285 168.195ZM120.795 165.812V153H123.158V168H121.02L120.795 165.812ZM113.92 162.834V162.629C113.92 161.828 114.014 161.099 114.203 160.441C114.392 159.777 114.665 159.208 115.023 158.732C115.382 158.251 115.818 157.883 116.332 157.629C116.846 157.368 117.426 157.238 118.07 157.238C118.708 157.238 119.268 157.362 119.75 157.609C120.232 157.857 120.642 158.212 120.98 158.674C121.319 159.13 121.589 159.676 121.791 160.314C121.993 160.946 122.136 161.649 122.221 162.424V163.078C122.136 163.833 121.993 164.523 121.791 165.148C121.589 165.773 121.319 166.314 120.98 166.77C120.642 167.225 120.229 167.577 119.74 167.824C119.258 168.072 118.695 168.195 118.051 168.195C117.413 168.195 116.837 168.062 116.322 167.795C115.814 167.528 115.382 167.154 115.023 166.672C114.665 166.19 114.392 165.624 114.203 164.973C114.014 164.315 113.92 163.602 113.92 162.834ZM116.273 162.629V162.834C116.273 163.316 116.316 163.765 116.4 164.182C116.492 164.598 116.632 164.966 116.82 165.285C117.009 165.598 117.253 165.845 117.553 166.027C117.859 166.203 118.223 166.291 118.646 166.291C119.18 166.291 119.62 166.174 119.965 165.939C120.31 165.705 120.58 165.389 120.775 164.992C120.977 164.589 121.114 164.139 121.186 163.645V161.877C121.146 161.493 121.065 161.135 120.941 160.803C120.824 160.471 120.665 160.181 120.463 159.934C120.261 159.68 120.01 159.484 119.711 159.348C119.418 159.204 119.07 159.133 118.666 159.133C118.236 159.133 117.872 159.224 117.572 159.406C117.273 159.589 117.025 159.839 116.83 160.158C116.641 160.477 116.501 160.848 116.41 161.271C116.319 161.695 116.273 162.147 116.273 162.629Z" fill="black"/>
<path d="M280.674 141.809C280.674 141.516 280.628 141.255 280.537 141.028C280.452 140.8 280.299 140.591 280.078 140.403C279.857 140.214 279.544 140.032 279.141 139.856C278.743 139.673 278.236 139.488 277.617 139.299C276.94 139.091 276.315 138.86 275.742 138.606C275.176 138.345 274.681 138.046 274.258 137.707C273.835 137.362 273.506 136.968 273.271 136.526C273.037 136.076 272.92 135.559 272.92 134.973C272.92 134.393 273.04 133.866 273.281 133.391C273.529 132.916 273.877 132.505 274.326 132.16C274.782 131.809 275.319 131.539 275.938 131.35C276.556 131.155 277.24 131.057 277.988 131.057C279.043 131.057 279.951 131.252 280.713 131.643C281.481 132.033 282.07 132.558 282.48 133.215C282.897 133.873 283.105 134.599 283.105 135.393H280.674C280.674 134.924 280.573 134.511 280.371 134.153C280.176 133.788 279.876 133.502 279.473 133.293C279.076 133.085 278.571 132.981 277.959 132.981C277.38 132.981 276.898 133.069 276.514 133.244C276.13 133.42 275.843 133.658 275.654 133.957C275.465 134.257 275.371 134.595 275.371 134.973C275.371 135.24 275.433 135.484 275.557 135.705C275.68 135.92 275.869 136.122 276.123 136.311C276.377 136.493 276.696 136.666 277.08 136.828C277.464 136.991 277.917 137.147 278.438 137.297C279.225 137.532 279.912 137.792 280.498 138.078C281.084 138.358 281.572 138.677 281.963 139.035C282.354 139.393 282.646 139.8 282.842 140.256C283.037 140.705 283.135 141.216 283.135 141.789C283.135 142.388 283.014 142.929 282.773 143.41C282.533 143.886 282.188 144.293 281.738 144.631C281.296 144.963 280.762 145.22 280.137 145.403C279.518 145.578 278.828 145.666 278.066 145.666C277.383 145.666 276.709 145.575 276.045 145.393C275.387 145.211 274.788 144.934 274.248 144.563C273.708 144.185 273.278 143.716 272.959 143.157C272.64 142.59 272.48 141.929 272.48 141.174H274.932C274.932 141.636 275.01 142.03 275.166 142.356C275.329 142.681 275.553 142.948 275.84 143.157C276.126 143.358 276.458 143.508 276.836 143.606C277.22 143.703 277.63 143.752 278.066 143.752C278.639 143.752 279.118 143.671 279.502 143.508C279.893 143.345 280.186 143.117 280.381 142.824C280.576 142.532 280.674 142.193 280.674 141.809ZM289.385 143.791C289.769 143.791 290.114 143.716 290.42 143.567C290.732 143.41 290.983 143.196 291.172 142.922C291.367 142.649 291.475 142.333 291.494 141.975H293.711C293.698 142.658 293.496 143.28 293.105 143.84C292.715 144.4 292.197 144.846 291.553 145.178C290.908 145.504 290.195 145.666 289.414 145.666C288.607 145.666 287.904 145.53 287.305 145.256C286.706 144.976 286.208 144.592 285.811 144.104C285.413 143.615 285.114 143.052 284.912 142.414C284.717 141.776 284.619 141.093 284.619 140.364V140.022C284.619 139.293 284.717 138.609 284.912 137.971C285.114 137.326 285.413 136.76 285.811 136.272C286.208 135.783 286.706 135.403 287.305 135.129C287.904 134.849 288.604 134.709 289.404 134.709C290.251 134.709 290.993 134.879 291.631 135.217C292.269 135.549 292.77 136.015 293.135 136.614C293.506 137.206 293.698 137.896 293.711 138.684H291.494C291.475 138.293 291.377 137.942 291.201 137.629C291.032 137.31 290.791 137.056 290.479 136.867C290.173 136.679 289.805 136.584 289.375 136.584C288.9 136.584 288.506 136.682 288.193 136.877C287.881 137.066 287.637 137.326 287.461 137.658C287.285 137.984 287.158 138.352 287.08 138.762C287.008 139.166 286.973 139.586 286.973 140.022V140.364C286.973 140.8 287.008 141.223 287.08 141.633C287.152 142.043 287.275 142.411 287.451 142.737C287.633 143.056 287.881 143.313 288.193 143.508C288.506 143.697 288.903 143.791 289.385 143.791ZM295.068 140.305V140.08C295.068 139.319 295.179 138.612 295.4 137.961C295.622 137.304 295.941 136.734 296.357 136.252C296.781 135.764 297.295 135.386 297.9 135.119C298.512 134.846 299.202 134.709 299.971 134.709C300.745 134.709 301.436 134.846 302.041 135.119C302.653 135.386 303.171 135.764 303.594 136.252C304.017 136.734 304.339 137.304 304.561 137.961C304.782 138.612 304.893 139.319 304.893 140.08V140.305C304.893 141.067 304.782 141.773 304.561 142.424C304.339 143.075 304.017 143.645 303.594 144.133C303.171 144.615 302.656 144.992 302.051 145.266C301.445 145.533 300.758 145.666 299.99 145.666C299.215 145.666 298.522 145.533 297.91 145.266C297.305 144.992 296.79 144.615 296.367 144.133C295.944 143.645 295.622 143.075 295.4 142.424C295.179 141.773 295.068 141.067 295.068 140.305ZM297.422 140.08V140.305C297.422 140.78 297.471 141.229 297.568 141.653C297.666 142.076 297.819 142.447 298.027 142.766C298.236 143.085 298.503 143.336 298.828 143.518C299.154 143.7 299.541 143.791 299.99 143.791C300.426 143.791 300.804 143.7 301.123 143.518C301.449 143.336 301.715 143.085 301.924 142.766C302.132 142.447 302.285 142.076 302.383 141.653C302.487 141.229 302.539 140.78 302.539 140.305V140.08C302.539 139.612 302.487 139.169 302.383 138.752C302.285 138.329 302.129 137.955 301.914 137.629C301.706 137.304 301.439 137.05 301.113 136.867C300.794 136.679 300.413 136.584 299.971 136.584C299.528 136.584 299.144 136.679 298.818 136.867C298.499 137.05 298.236 137.304 298.027 137.629C297.819 137.955 297.666 138.329 297.568 138.752C297.471 139.169 297.422 139.612 297.422 140.08ZM309.229 136.916V145.471H306.875V134.905H309.121L309.229 136.916ZM312.461 134.836L312.441 137.024C312.298 136.998 312.142 136.978 311.973 136.965C311.81 136.952 311.647 136.946 311.484 136.946C311.081 136.946 310.726 137.004 310.42 137.121C310.114 137.232 309.857 137.395 309.648 137.61C309.447 137.818 309.29 138.072 309.18 138.371C309.069 138.671 309.004 139.006 308.984 139.377L308.447 139.416C308.447 138.752 308.512 138.137 308.643 137.571C308.773 137.004 308.968 136.506 309.229 136.076C309.495 135.647 309.827 135.311 310.225 135.071C310.628 134.83 311.094 134.709 311.621 134.709C311.764 134.709 311.917 134.722 312.08 134.748C312.249 134.774 312.376 134.804 312.461 134.836ZM318.398 145.666C317.617 145.666 316.911 145.539 316.279 145.285C315.654 145.025 315.12 144.664 314.678 144.201C314.242 143.739 313.906 143.196 313.672 142.571C313.438 141.946 313.32 141.272 313.32 140.549V140.158C313.32 139.332 313.441 138.583 313.682 137.912C313.923 137.242 314.258 136.669 314.688 136.194C315.117 135.712 315.625 135.344 316.211 135.09C316.797 134.836 317.432 134.709 318.115 134.709C318.87 134.709 319.531 134.836 320.098 135.09C320.664 135.344 321.133 135.702 321.504 136.164C321.882 136.62 322.161 137.164 322.344 137.795C322.533 138.427 322.627 139.123 322.627 139.885V140.891H314.463V139.201H320.303V139.016C320.29 138.593 320.205 138.196 320.049 137.824C319.899 137.453 319.668 137.154 319.355 136.926C319.043 136.698 318.626 136.584 318.105 136.584C317.715 136.584 317.367 136.669 317.061 136.838C316.761 137.001 316.51 137.239 316.309 137.551C316.107 137.864 315.951 138.241 315.84 138.684C315.736 139.12 315.684 139.612 315.684 140.158V140.549C315.684 141.011 315.745 141.441 315.869 141.838C315.999 142.229 316.188 142.571 316.436 142.864C316.683 143.157 316.982 143.388 317.334 143.557C317.686 143.72 318.086 143.801 318.535 143.801C319.102 143.801 319.606 143.687 320.049 143.459C320.492 143.231 320.876 142.909 321.201 142.492L322.441 143.694C322.214 144.026 321.917 144.345 321.553 144.651C321.188 144.95 320.742 145.194 320.215 145.383C319.694 145.572 319.089 145.666 318.398 145.666ZM237.236 162.856V162.69C237.236 161.296 237.386 160.033 237.686 158.901C237.992 157.761 238.389 156.765 238.877 155.912C239.365 155.053 239.886 154.343 240.439 153.783C240.999 153.217 241.536 152.81 242.051 152.563L242.52 153.91C242.142 154.19 241.764 154.578 241.387 155.073C241.016 155.567 240.674 156.176 240.361 156.899C240.055 157.615 239.808 158.455 239.619 159.418C239.437 160.375 239.346 161.459 239.346 162.67V162.875C239.346 164.086 239.437 165.173 239.619 166.137C239.808 167.094 240.055 167.934 240.361 168.657C240.674 169.379 241.016 169.991 241.387 170.492C241.764 171 242.142 171.404 242.52 171.703L242.051 172.992C241.536 172.739 240.999 172.328 240.439 171.762C239.886 171.202 239.365 170.492 238.877 169.633C238.389 168.78 237.992 167.787 237.686 166.655C237.386 165.515 237.236 164.249 237.236 162.856ZM250.049 165.61C250.049 165.375 249.99 165.164 249.873 164.975C249.756 164.78 249.531 164.604 249.199 164.448C248.874 164.291 248.392 164.148 247.754 164.018C247.194 163.894 246.68 163.748 246.211 163.578C245.749 163.403 245.352 163.191 245.02 162.944C244.688 162.696 244.43 162.403 244.248 162.065C244.066 161.726 243.975 161.336 243.975 160.893C243.975 160.463 244.069 160.056 244.258 159.672C244.447 159.288 244.717 158.949 245.068 158.657C245.42 158.364 245.846 158.132 246.348 157.963C246.855 157.794 247.422 157.709 248.047 157.709C248.932 157.709 249.691 157.859 250.322 158.158C250.96 158.451 251.449 158.852 251.787 159.36C252.126 159.861 252.295 160.427 252.295 161.059H249.941C249.941 160.779 249.87 160.518 249.727 160.278C249.59 160.03 249.382 159.832 249.102 159.682C248.822 159.526 248.47 159.448 248.047 159.448C247.643 159.448 247.308 159.513 247.041 159.643C246.781 159.767 246.585 159.929 246.455 160.131C246.331 160.333 246.27 160.554 246.27 160.795C246.27 160.971 246.302 161.13 246.367 161.274C246.439 161.41 246.556 161.537 246.719 161.655C246.882 161.765 247.103 161.869 247.383 161.967C247.669 162.065 248.027 162.159 248.457 162.25C249.264 162.42 249.958 162.638 250.537 162.905C251.123 163.165 251.572 163.504 251.885 163.92C252.197 164.33 252.354 164.851 252.354 165.483C252.354 165.951 252.253 166.381 252.051 166.772C251.855 167.156 251.569 167.491 251.191 167.778C250.814 168.058 250.361 168.276 249.834 168.432C249.313 168.588 248.727 168.666 248.076 168.666C247.119 168.666 246.309 168.497 245.645 168.158C244.98 167.813 244.476 167.374 244.131 166.84C243.792 166.3 243.623 165.74 243.623 165.16H245.898C245.924 165.597 246.045 165.945 246.26 166.205C246.481 166.459 246.755 166.645 247.08 166.762C247.412 166.873 247.754 166.928 248.105 166.928C248.529 166.928 248.883 166.873 249.17 166.762C249.456 166.645 249.674 166.489 249.824 166.293C249.974 166.091 250.049 165.864 250.049 165.61ZM253.965 163.305V163.08C253.965 162.319 254.076 161.612 254.297 160.961C254.518 160.304 254.837 159.734 255.254 159.252C255.677 158.764 256.191 158.386 256.797 158.119C257.409 157.846 258.099 157.709 258.867 157.709C259.642 157.709 260.332 157.846 260.938 158.119C261.549 158.386 262.067 158.764 262.49 159.252C262.913 159.734 263.236 160.304 263.457 160.961C263.678 161.612 263.789 162.319 263.789 163.08V163.305C263.789 164.067 263.678 164.773 263.457 165.424C263.236 166.075 262.913 166.645 262.49 167.133C262.067 167.615 261.553 167.992 260.947 168.266C260.342 168.533 259.655 168.666 258.887 168.666C258.112 168.666 257.419 168.533 256.807 168.266C256.201 167.992 255.687 167.615 255.264 167.133C254.84 166.645 254.518 166.075 254.297 165.424C254.076 164.773 253.965 164.067 253.965 163.305ZM256.318 163.08V163.305C256.318 163.78 256.367 164.229 256.465 164.653C256.562 165.076 256.715 165.447 256.924 165.766C257.132 166.085 257.399 166.336 257.725 166.518C258.05 166.7 258.438 166.791 258.887 166.791C259.323 166.791 259.701 166.7 260.02 166.518C260.345 166.336 260.612 166.085 260.82 165.766C261.029 165.447 261.182 165.076 261.279 164.653C261.383 164.229 261.436 163.78 261.436 163.305V163.08C261.436 162.612 261.383 162.169 261.279 161.752C261.182 161.329 261.025 160.955 260.811 160.629C260.602 160.304 260.335 160.05 260.01 159.867C259.691 159.679 259.31 159.584 258.867 159.584C258.424 159.584 258.04 159.679 257.715 159.867C257.396 160.05 257.132 160.304 256.924 160.629C256.715 160.955 256.562 161.329 256.465 161.752C256.367 162.169 256.318 162.612 256.318 163.08ZM270.078 166.791C270.462 166.791 270.807 166.716 271.113 166.567C271.426 166.41 271.676 166.196 271.865 165.922C272.061 165.649 272.168 165.333 272.188 164.975H274.404C274.391 165.658 274.189 166.28 273.799 166.84C273.408 167.4 272.891 167.846 272.246 168.178C271.602 168.504 270.889 168.666 270.107 168.666C269.3 168.666 268.597 168.53 267.998 168.256C267.399 167.976 266.901 167.592 266.504 167.104C266.107 166.615 265.807 166.052 265.605 165.414C265.41 164.776 265.312 164.093 265.312 163.364V163.022C265.312 162.293 265.41 161.609 265.605 160.971C265.807 160.326 266.107 159.76 266.504 159.272C266.901 158.783 267.399 158.403 267.998 158.129C268.597 157.849 269.297 157.709 270.098 157.709C270.944 157.709 271.686 157.879 272.324 158.217C272.962 158.549 273.464 159.015 273.828 159.614C274.199 160.206 274.391 160.896 274.404 161.684H272.188C272.168 161.293 272.07 160.942 271.895 160.629C271.725 160.31 271.484 160.056 271.172 159.867C270.866 159.679 270.498 159.584 270.068 159.584C269.593 159.584 269.199 159.682 268.887 159.877C268.574 160.066 268.33 160.326 268.154 160.658C267.979 160.984 267.852 161.352 267.773 161.762C267.702 162.166 267.666 162.586 267.666 163.022V163.364C267.666 163.8 267.702 164.223 267.773 164.633C267.845 165.043 267.969 165.411 268.145 165.737C268.327 166.056 268.574 166.313 268.887 166.508C269.199 166.697 269.596 166.791 270.078 166.791ZM278.73 157.905V168.471H276.367V157.905H278.73ZM276.211 155.131C276.211 154.773 276.328 154.477 276.562 154.242C276.803 154.002 277.135 153.881 277.559 153.881C277.975 153.881 278.304 154.002 278.545 154.242C278.786 154.477 278.906 154.773 278.906 155.131C278.906 155.483 278.786 155.776 278.545 156.01C278.304 156.244 277.975 156.362 277.559 156.362C277.135 156.362 276.803 156.244 276.562 156.01C276.328 155.776 276.211 155.483 276.211 155.131ZM287.266 166.352V161.313C287.266 160.935 287.197 160.61 287.061 160.336C286.924 160.063 286.715 159.851 286.436 159.701C286.162 159.552 285.817 159.477 285.4 159.477C285.016 159.477 284.684 159.542 284.404 159.672C284.124 159.802 283.906 159.978 283.75 160.199C283.594 160.421 283.516 160.671 283.516 160.951H281.172C281.172 160.535 281.273 160.131 281.475 159.74C281.676 159.35 281.969 159.002 282.354 158.696C282.738 158.39 283.197 158.149 283.73 157.973C284.264 157.797 284.863 157.709 285.527 157.709C286.322 157.709 287.025 157.843 287.637 158.11C288.255 158.377 288.74 158.78 289.092 159.321C289.45 159.854 289.629 160.525 289.629 161.332V166.03C289.629 166.511 289.661 166.944 289.727 167.328C289.798 167.706 289.899 168.035 290.029 168.315V168.471H287.617C287.507 168.217 287.419 167.895 287.354 167.504C287.295 167.107 287.266 166.723 287.266 166.352ZM287.607 162.045L287.627 163.5H285.938C285.501 163.5 285.117 163.543 284.785 163.627C284.453 163.705 284.176 163.823 283.955 163.979C283.734 164.135 283.568 164.324 283.457 164.545C283.346 164.767 283.291 165.017 283.291 165.297C283.291 165.577 283.356 165.834 283.486 166.069C283.617 166.296 283.805 166.476 284.053 166.606C284.307 166.736 284.613 166.801 284.971 166.801C285.452 166.801 285.872 166.703 286.23 166.508C286.595 166.306 286.882 166.062 287.09 165.776C287.298 165.483 287.409 165.206 287.422 164.946L288.184 165.99C288.105 166.257 287.972 166.544 287.783 166.85C287.594 167.156 287.347 167.449 287.041 167.729C286.742 168.002 286.38 168.227 285.957 168.403C285.54 168.578 285.059 168.666 284.512 168.666C283.822 168.666 283.206 168.53 282.666 168.256C282.126 167.976 281.702 167.602 281.396 167.133C281.09 166.658 280.938 166.121 280.938 165.522C280.938 164.962 281.042 164.467 281.25 164.037C281.465 163.601 281.777 163.237 282.188 162.944C282.604 162.651 283.112 162.429 283.711 162.28C284.31 162.123 284.993 162.045 285.762 162.045H287.607ZM294.609 153.471V168.471H292.246V153.471H294.609ZM306.484 166.791C306.868 166.791 307.214 166.716 307.52 166.567C307.832 166.41 308.083 166.196 308.271 165.922C308.467 165.649 308.574 165.333 308.594 164.975H310.811C310.798 165.658 310.596 166.28 310.205 166.84C309.814 167.4 309.297 167.846 308.652 168.178C308.008 168.504 307.295 168.666 306.514 168.666C305.706 168.666 305.003 168.53 304.404 168.256C303.805 167.976 303.307 167.592 302.91 167.104C302.513 166.615 302.214 166.052 302.012 165.414C301.816 164.776 301.719 164.093 301.719 163.364V163.022C301.719 162.293 301.816 161.609 302.012 160.971C302.214 160.326 302.513 159.76 302.91 159.272C303.307 158.783 303.805 158.403 304.404 158.129C305.003 157.849 305.703 157.709 306.504 157.709C307.35 157.709 308.092 157.879 308.73 158.217C309.368 158.549 309.87 159.015 310.234 159.614C310.605 160.206 310.798 160.896 310.811 161.684H308.594C308.574 161.293 308.477 160.942 308.301 160.629C308.132 160.31 307.891 160.056 307.578 159.867C307.272 159.679 306.904 159.584 306.475 159.584C305.999 159.584 305.605 159.682 305.293 159.877C304.98 160.066 304.736 160.326 304.561 160.658C304.385 160.984 304.258 161.352 304.18 161.762C304.108 162.166 304.072 162.586 304.072 163.022V163.364C304.072 163.8 304.108 164.223 304.18 164.633C304.251 165.043 304.375 165.411 304.551 165.737C304.733 166.056 304.98 166.313 305.293 166.508C305.605 166.697 306.003 166.791 306.484 166.791ZM314.98 159.916V168.471H312.627V157.905H314.873L314.98 159.916ZM318.213 157.836L318.193 160.024C318.05 159.998 317.894 159.978 317.725 159.965C317.562 159.952 317.399 159.946 317.236 159.946C316.833 159.946 316.478 160.004 316.172 160.121C315.866 160.232 315.609 160.395 315.4 160.61C315.199 160.818 315.042 161.072 314.932 161.371C314.821 161.671 314.756 162.006 314.736 162.377L314.199 162.416C314.199 161.752 314.264 161.137 314.395 160.571C314.525 160.004 314.72 159.506 314.98 159.076C315.247 158.647 315.579 158.311 315.977 158.071C316.38 157.83 316.846 157.709 317.373 157.709C317.516 157.709 317.669 157.722 317.832 157.748C318.001 157.774 318.128 157.804 318.213 157.836ZM324.15 168.666C323.369 168.666 322.663 168.539 322.031 168.285C321.406 168.025 320.872 167.664 320.43 167.201C319.993 166.739 319.658 166.196 319.424 165.571C319.189 164.946 319.072 164.272 319.072 163.549V163.158C319.072 162.332 319.193 161.583 319.434 160.912C319.674 160.242 320.01 159.669 320.439 159.194C320.869 158.712 321.377 158.344 321.963 158.09C322.549 157.836 323.184 157.709 323.867 157.709C324.622 157.709 325.283 157.836 325.85 158.09C326.416 158.344 326.885 158.702 327.256 159.164C327.633 159.62 327.913 160.164 328.096 160.795C328.285 161.427 328.379 162.123 328.379 162.885V163.891H320.215V162.201H326.055V162.016C326.042 161.593 325.957 161.196 325.801 160.824C325.651 160.453 325.42 160.154 325.107 159.926C324.795 159.698 324.378 159.584 323.857 159.584C323.467 159.584 323.118 159.669 322.812 159.838C322.513 160.001 322.262 160.239 322.061 160.551C321.859 160.864 321.702 161.241 321.592 161.684C321.488 162.12 321.436 162.612 321.436 163.158V163.549C321.436 164.011 321.497 164.441 321.621 164.838C321.751 165.229 321.94 165.571 322.188 165.864C322.435 166.157 322.734 166.388 323.086 166.557C323.438 166.72 323.838 166.801 324.287 166.801C324.854 166.801 325.358 166.687 325.801 166.459C326.243 166.231 326.628 165.909 326.953 165.492L328.193 166.694C327.965 167.026 327.669 167.345 327.305 167.651C326.94 167.95 326.494 168.194 325.967 168.383C325.446 168.572 324.84 168.666 324.15 168.666ZM336.66 166.283V153.471H339.023V168.471H336.885L336.66 166.283ZM329.785 163.305V163.1C329.785 162.299 329.88 161.57 330.068 160.912C330.257 160.248 330.531 159.679 330.889 159.203C331.247 158.722 331.683 158.354 332.197 158.1C332.712 157.839 333.291 157.709 333.936 157.709C334.574 157.709 335.133 157.833 335.615 158.08C336.097 158.328 336.507 158.683 336.846 159.145C337.184 159.601 337.454 160.147 337.656 160.785C337.858 161.417 338.001 162.12 338.086 162.895V163.549C338.001 164.304 337.858 164.994 337.656 165.619C337.454 166.244 337.184 166.785 336.846 167.24C336.507 167.696 336.094 168.048 335.605 168.295C335.124 168.543 334.561 168.666 333.916 168.666C333.278 168.666 332.702 168.533 332.188 168.266C331.68 167.999 331.247 167.625 330.889 167.143C330.531 166.661 330.257 166.095 330.068 165.444C329.88 164.786 329.785 164.073 329.785 163.305ZM332.139 163.1V163.305C332.139 163.787 332.181 164.236 332.266 164.653C332.357 165.069 332.497 165.437 332.686 165.756C332.874 166.069 333.118 166.316 333.418 166.498C333.724 166.674 334.089 166.762 334.512 166.762C335.046 166.762 335.485 166.645 335.83 166.41C336.175 166.176 336.445 165.86 336.641 165.463C336.842 165.06 336.979 164.61 337.051 164.115V162.348C337.012 161.964 336.93 161.606 336.807 161.274C336.689 160.942 336.53 160.652 336.328 160.405C336.126 160.151 335.876 159.955 335.576 159.819C335.283 159.675 334.935 159.604 334.531 159.604C334.102 159.604 333.737 159.695 333.438 159.877C333.138 160.06 332.891 160.31 332.695 160.629C332.507 160.948 332.367 161.319 332.275 161.742C332.184 162.166 332.139 162.618 332.139 163.1ZM344.004 157.905V168.471H341.641V157.905H344.004ZM341.484 155.131C341.484 154.773 341.602 154.477 341.836 154.242C342.077 154.002 342.409 153.881 342.832 153.881C343.249 153.881 343.577 154.002 343.818 154.242C344.059 154.477 344.18 154.773 344.18 155.131C344.18 155.483 344.059 155.776 343.818 156.01C343.577 156.244 343.249 156.362 342.832 156.362C342.409 156.362 342.077 156.244 341.836 156.01C341.602 155.776 341.484 155.483 341.484 155.131ZM351.426 157.905V159.623H345.469V157.905H351.426ZM347.188 155.317H349.541V165.551C349.541 165.877 349.587 166.127 349.678 166.303C349.775 166.472 349.909 166.586 350.078 166.645C350.247 166.703 350.446 166.733 350.674 166.733C350.837 166.733 350.993 166.723 351.143 166.703C351.292 166.684 351.413 166.664 351.504 166.645L351.514 168.442C351.318 168.5 351.09 168.552 350.83 168.598C350.576 168.643 350.283 168.666 349.951 168.666C349.411 168.666 348.932 168.572 348.516 168.383C348.099 168.188 347.773 167.872 347.539 167.436C347.305 167 347.188 166.42 347.188 165.698V155.317ZM357.783 162.69V162.856C357.783 164.229 357.627 165.483 357.314 166.615C357.008 167.748 356.608 168.744 356.113 169.604C355.625 170.463 355.094 171.179 354.521 171.752C353.955 172.325 353.411 172.739 352.891 172.992L352.412 171.703C352.79 171.417 353.164 171.023 353.535 170.522C353.913 170.027 354.255 169.412 354.561 168.676C354.873 167.947 355.12 167.101 355.303 166.137C355.492 165.173 355.586 164.086 355.586 162.875V162.67C355.586 161.459 355.488 160.372 355.293 159.408C355.104 158.438 354.85 157.592 354.531 156.869C354.212 156.14 353.867 155.525 353.496 155.024C353.125 154.522 352.764 154.132 352.412 153.852L352.891 152.563C353.411 152.81 353.955 153.22 354.521 153.793C355.094 154.366 355.625 155.086 356.113 155.951C356.608 156.811 357.008 157.807 357.314 158.94C357.627 160.073 357.783 161.323 357.783 162.69Z" fill="black"/>
<path d="M223.061 151.532C223.646 150.946 223.646 149.996 223.061 149.41L213.515 139.864C212.929 139.279 211.979 139.279 211.393 139.864C210.808 140.45 210.808 141.4 211.393 141.986L219.879 150.471L211.393 158.956C210.808 159.542 210.808 160.492 211.393 161.078C211.979 161.663 212.929 161.663 213.515 161.078L223.061 151.532ZM139 151.971L222 151.971V148.971L139 148.971V151.971Z" fill="black"/>
<path d="M492.609 152.371H495.051C494.973 153.302 494.712 154.132 494.27 154.861C493.827 155.584 493.205 156.154 492.404 156.57C491.604 156.987 490.63 157.195 489.484 157.195C488.605 157.195 487.814 157.039 487.111 156.727C486.408 156.408 485.806 155.958 485.305 155.379C484.803 154.793 484.419 154.087 484.152 153.26C483.892 152.433 483.762 151.508 483.762 150.486V149.305C483.762 148.283 483.895 147.358 484.162 146.531C484.436 145.704 484.826 144.998 485.334 144.412C485.842 143.82 486.451 143.367 487.16 143.055C487.876 142.742 488.68 142.586 489.572 142.586C490.705 142.586 491.662 142.794 492.443 143.211C493.225 143.628 493.83 144.204 494.26 144.939C494.696 145.675 494.963 146.518 495.061 147.469H492.619C492.554 146.857 492.411 146.333 492.189 145.896C491.975 145.46 491.656 145.128 491.232 144.9C490.809 144.666 490.256 144.549 489.572 144.549C489.012 144.549 488.524 144.653 488.107 144.861C487.691 145.07 487.342 145.376 487.062 145.779C486.783 146.183 486.571 146.681 486.428 147.273C486.291 147.859 486.223 148.53 486.223 149.285V150.486C486.223 151.202 486.285 151.854 486.408 152.439C486.538 153.019 486.734 153.517 486.994 153.934C487.261 154.35 487.6 154.673 488.01 154.9C488.42 155.128 488.911 155.242 489.484 155.242C490.181 155.242 490.744 155.132 491.174 154.91C491.61 154.689 491.939 154.367 492.16 153.943C492.388 153.514 492.538 152.99 492.609 152.371ZM496.594 151.834V151.609C496.594 150.848 496.704 150.141 496.926 149.49C497.147 148.833 497.466 148.263 497.883 147.781C498.306 147.293 498.82 146.915 499.426 146.648C500.038 146.375 500.728 146.238 501.496 146.238C502.271 146.238 502.961 146.375 503.566 146.648C504.178 146.915 504.696 147.293 505.119 147.781C505.542 148.263 505.865 148.833 506.086 149.49C506.307 150.141 506.418 150.848 506.418 151.609V151.834C506.418 152.596 506.307 153.302 506.086 153.953C505.865 154.604 505.542 155.174 505.119 155.662C504.696 156.144 504.182 156.521 503.576 156.795C502.971 157.062 502.284 157.195 501.516 157.195C500.741 157.195 500.048 157.062 499.436 156.795C498.83 156.521 498.316 156.144 497.893 155.662C497.469 155.174 497.147 154.604 496.926 153.953C496.704 153.302 496.594 152.596 496.594 151.834ZM498.947 151.609V151.834C498.947 152.309 498.996 152.758 499.094 153.182C499.191 153.605 499.344 153.976 499.553 154.295C499.761 154.614 500.028 154.865 500.354 155.047C500.679 155.229 501.066 155.32 501.516 155.32C501.952 155.32 502.329 155.229 502.648 155.047C502.974 154.865 503.241 154.614 503.449 154.295C503.658 153.976 503.811 153.605 503.908 153.182C504.012 152.758 504.064 152.309 504.064 151.834V151.609C504.064 151.141 504.012 150.698 503.908 150.281C503.811 149.858 503.654 149.484 503.439 149.158C503.231 148.833 502.964 148.579 502.639 148.396C502.32 148.208 501.939 148.113 501.496 148.113C501.053 148.113 500.669 148.208 500.344 148.396C500.025 148.579 499.761 148.833 499.553 149.158C499.344 149.484 499.191 149.858 499.094 150.281C498.996 150.698 498.947 151.141 498.947 151.609ZM510.725 148.689V157H508.371V146.434H510.588L510.725 148.689ZM510.305 151.326L509.543 151.316C509.549 150.568 509.654 149.881 509.855 149.256C510.064 148.631 510.35 148.094 510.715 147.645C511.086 147.195 511.529 146.85 512.043 146.609C512.557 146.362 513.13 146.238 513.762 146.238C514.27 146.238 514.729 146.31 515.139 146.453C515.555 146.59 515.91 146.814 516.203 147.127C516.503 147.439 516.73 147.846 516.887 148.348C517.043 148.842 517.121 149.451 517.121 150.174V157H514.758V150.164C514.758 149.656 514.683 149.256 514.533 148.963C514.39 148.663 514.178 148.452 513.898 148.328C513.625 148.198 513.283 148.133 512.873 148.133C512.469 148.133 512.108 148.217 511.789 148.387C511.47 148.556 511.2 148.787 510.979 149.08C510.764 149.373 510.598 149.712 510.48 150.096C510.363 150.48 510.305 150.89 510.305 151.326ZM524.367 146.434V148.152H518.41V146.434H524.367ZM520.129 143.846H522.482V154.08C522.482 154.406 522.528 154.656 522.619 154.832C522.717 155.001 522.85 155.115 523.02 155.174C523.189 155.232 523.387 155.262 523.615 155.262C523.778 155.262 523.934 155.252 524.084 155.232C524.234 155.213 524.354 155.193 524.445 155.174L524.455 156.971C524.26 157.029 524.032 157.081 523.771 157.127C523.518 157.173 523.225 157.195 522.893 157.195C522.352 157.195 521.874 157.101 521.457 156.912C521.04 156.717 520.715 156.401 520.48 155.965C520.246 155.529 520.129 154.949 520.129 154.227V143.846ZM528.547 148.445V157H526.193V146.434H528.439L528.547 148.445ZM531.779 146.365L531.76 148.553C531.617 148.527 531.46 148.507 531.291 148.494C531.128 148.481 530.965 148.475 530.803 148.475C530.399 148.475 530.044 148.533 529.738 148.65C529.432 148.761 529.175 148.924 528.967 149.139C528.765 149.347 528.609 149.601 528.498 149.9C528.387 150.2 528.322 150.535 528.303 150.906L527.766 150.945C527.766 150.281 527.831 149.666 527.961 149.1C528.091 148.533 528.286 148.035 528.547 147.605C528.814 147.176 529.146 146.84 529.543 146.6C529.947 146.359 530.412 146.238 530.939 146.238C531.083 146.238 531.236 146.251 531.398 146.277C531.568 146.303 531.695 146.333 531.779 146.365ZM532.551 151.834V151.609C532.551 150.848 532.661 150.141 532.883 149.49C533.104 148.833 533.423 148.263 533.84 147.781C534.263 147.293 534.777 146.915 535.383 146.648C535.995 146.375 536.685 146.238 537.453 146.238C538.228 146.238 538.918 146.375 539.523 146.648C540.135 146.915 540.653 147.293 541.076 147.781C541.499 148.263 541.822 148.833 542.043 149.49C542.264 150.141 542.375 150.848 542.375 151.609V151.834C542.375 152.596 542.264 153.302 542.043 153.953C541.822 154.604 541.499 155.174 541.076 155.662C540.653 156.144 540.139 156.521 539.533 156.795C538.928 157.062 538.241 157.195 537.473 157.195C536.698 157.195 536.005 157.062 535.393 156.795C534.787 156.521 534.273 156.144 533.85 155.662C533.426 155.174 533.104 154.604 532.883 153.953C532.661 153.302 532.551 152.596 532.551 151.834ZM534.904 151.609V151.834C534.904 152.309 534.953 152.758 535.051 153.182C535.148 153.605 535.301 153.976 535.51 154.295C535.718 154.614 535.985 154.865 536.311 155.047C536.636 155.229 537.023 155.32 537.473 155.32C537.909 155.32 538.286 155.229 538.605 155.047C538.931 154.865 539.198 154.614 539.406 154.295C539.615 153.976 539.768 153.605 539.865 153.182C539.969 152.758 540.021 152.309 540.021 151.834V151.609C540.021 151.141 539.969 150.698 539.865 150.281C539.768 149.858 539.611 149.484 539.396 149.158C539.188 148.833 538.921 148.579 538.596 148.396C538.277 148.208 537.896 148.113 537.453 148.113C537.01 148.113 536.626 148.208 536.301 148.396C535.982 148.579 535.718 148.833 535.51 149.158C535.301 149.484 535.148 149.858 535.051 150.281C534.953 150.698 534.904 151.141 534.904 151.609ZM546.867 142V157H544.504V142H546.867Z" fill="black"/>
<path d="M459.061 151.532C459.646 150.946 459.646 149.996 459.061 149.41L449.515 139.864C448.929 139.279 447.979 139.279 447.393 139.864C446.808 140.45 446.808 141.4 447.393 141.986L455.879 150.471L447.393 158.956C446.808 159.542 446.808 160.492 447.393 161.078C447.979 161.663 448.929 161.663 449.515 161.078L459.061 151.532ZM375 151.971L458 151.971V148.971L375 148.971V151.971Z" fill="black"/>
</svg>
