<svg width="600" height="300" viewBox="0 0 600 300" fill="none" xmlns="http://www.w3.org/2000/svg">
<rect width="600" height="300" fill="white"/>
<path d="M326.052 205.678L325.434 204.396C325.437 204.348 325.439 204.299 325.439 204.25C325.439 202.798 323.929 201.459 321.388 200.387V201.278C321.14 201.18 320.882 201.084 320.613 200.992V200.576C316.981 199.266 311.574 198.435 305.535 198.435C300.258 198.435 295.464 199.07 291.915 200.104V201.551H291.914V199.799C288.278 200.955 286.024 202.56 286.024 204.335C286.024 204.615 286.08 204.89 286.189 205.161L285.818 205.82C285.818 205.82 285.521 206.205 286.044 207.017C286.505 207.733 288.814 210.537 290.032 212.005C290.556 212.758 290.911 213.221 290.942 213.176C290.99 213.105 290.616 211.692 289.577 210.08C289.092 209.214 288.512 208.067 288.165 207.22C289.135 207.834 294.838 210.706 306.471 210.694C318.359 210.682 323.643 206.961 324.223 206.454C324.021 207.268 323.328 208.916 322.776 210.074C321.869 211.731 321.54 213.173 321.582 213.244C321.609 213.289 321.919 212.812 322.375 212.038C323.438 210.524 325.451 207.634 325.853 206.898C326.309 206.063 326.052 205.678 326.052 205.678Z" fill="#A52B00"/>
<path d="M329.646 205.67L325.58 202.675C325.542 202.542 325.504 202.408 325.464 202.276L326.8 200.341C326.936 200.145 326.964 199.889 326.875 199.664C326.786 199.441 326.592 199.281 326.363 199.242L324.105 198.858C324.017 198.68 323.926 198.504 323.834 198.33L324.783 196.158C324.88 195.936 324.86 195.679 324.73 195.478C324.601 195.277 324.382 195.159 324.149 195.168L321.857 195.251C321.739 195.097 321.618 194.944 321.495 194.793L322.022 192.465C322.075 192.229 322.008 191.981 321.843 191.81C321.679 191.638 321.442 191.568 321.215 191.623L318.983 192.172C318.838 192.044 318.692 191.918 318.543 191.794L318.623 189.404C318.632 189.162 318.519 188.932 318.325 188.798C318.132 188.663 317.886 188.643 317.675 188.743L315.592 189.733C315.424 189.637 315.256 189.542 315.085 189.449L314.717 187.094C314.68 186.856 314.526 186.653 314.311 186.56C314.097 186.467 313.851 186.497 313.663 186.639L311.807 188.032C311.624 187.971 311.44 187.913 311.254 187.858L310.454 185.624C310.373 185.396 310.185 185.229 309.956 185.182C309.728 185.136 309.493 185.215 309.335 185.391L307.772 187.14C307.584 187.118 307.394 187.098 307.205 187.082L305.998 185.049C305.876 184.843 305.66 184.717 305.427 184.717C305.195 184.717 304.979 184.843 304.858 185.049L303.65 187.082C303.461 187.098 303.271 187.118 303.082 187.14L301.519 185.391C301.361 185.215 301.126 185.136 300.898 185.182C300.67 185.23 300.482 185.396 300.401 185.624L299.6 187.858C299.414 187.913 299.231 187.972 299.047 188.032L297.191 186.639C297.003 186.497 296.757 186.467 296.542 186.56C296.328 186.653 296.174 186.856 296.137 187.094L295.769 189.449C295.598 189.542 295.43 189.636 295.261 189.733L293.179 188.743C292.968 188.642 292.721 188.663 292.528 188.798C292.335 188.932 292.222 189.162 292.23 189.404L292.31 191.794C292.162 191.918 292.016 192.044 291.87 192.172L289.638 191.623C289.412 191.568 289.174 191.638 289.01 191.81C288.845 191.981 288.778 192.229 288.831 192.465L289.357 194.793C289.235 194.944 289.114 195.097 288.996 195.251L286.704 195.168C286.473 195.161 286.252 195.277 286.123 195.478C285.993 195.679 285.974 195.936 286.07 196.158L287.019 198.33C286.927 198.504 286.836 198.68 286.747 198.858L284.489 199.242C284.26 199.28 284.066 199.44 283.977 199.664C283.889 199.889 283.917 200.145 284.053 200.341L285.388 202.276C285.378 202.31 285.369 202.345 285.358 202.379L281.582 206.391C281.582 206.391 281.003 206.844 281.846 207.91C282.589 208.851 286.404 212.578 288.419 214.531C289.27 215.523 289.853 216.137 289.914 216.083C290.01 215.999 289.505 214.195 287.829 212.079C286.537 210.18 284.86 207.259 285.253 206.923C285.253 206.923 285.7 206.355 286.598 205.946C286.631 205.972 286.564 205.92 286.598 205.946C286.598 205.946 305.537 214.683 323.106 206.094C325.113 205.734 326.327 206.809 326.327 206.809C326.746 207.052 325.661 210.055 324.769 212.043C323.556 214.3 323.378 216.062 323.481 216.123C323.546 216.162 323.987 215.49 324.617 214.421C326.171 212.255 329.108 208.128 329.646 207.125C330.256 205.988 329.646 205.67 329.646 205.67Z" fill="#F74C00"/>
<path d="M321.364 204.549C321.364 204.549 324.089 204.423 327.669 200.785L328.176 199.658C328.176 199.658 322.62 194.132 331.257 190.317C331.257 190.317 330.501 191.553 330.723 196.327C330.723 196.327 333.327 195.422 334.09 191.205C334.09 191.205 337.888 196.213 329.965 200.91C329.965 200.91 326.248 206.869 321.007 206.298L321.364 204.549Z" fill="#F74C00"/>
<path d="M309.02 201.117C309.02 201.117 310.912 199.044 312.805 201.117C312.805 201.117 314.292 203.88 312.805 205.262C312.805 205.262 310.372 207.196 309.02 205.262C309.02 205.262 307.397 203.742 309.02 201.117Z" fill="black"/>
<path d="M311.211 201.886C311.211 202.693 310.736 203.347 310.149 203.347C309.562 203.347 309.087 202.693 309.087 201.886C309.087 201.079 309.562 200.425 310.149 200.425C310.736 200.425 311.211 201.079 311.211 201.886Z" fill="white"/>
<path d="M300.572 200.551C300.572 200.551 303.819 199.113 304.705 202.322C304.705 202.322 305.633 206.061 302.039 206.272C302.039 206.272 297.455 205.39 300.572 200.551Z" fill="black"/>
<path d="M302.203 201.939C302.203 202.771 301.712 203.446 301.107 203.446C300.502 203.446 300.012 202.771 300.012 201.939C300.012 201.107 300.502 200.432 301.107 200.432C301.712 200.432 302.203 201.107 302.203 201.939Z" fill="white"/>
<path d="M304.733 207.58L308.873 207.248C308.873 207.248 308.733 207.915 308.193 208.415C308.193 208.415 306.769 209.976 305.135 208.285C305.135 208.285 304.868 207.997 304.733 207.58Z" fill="black"/>
<path d="M288.154 203.747C288.12 203.747 288.086 203.75 288.053 203.752C286.708 203.446 282.93 202.462 281.931 200.864C281.931 200.864 287.016 195.08 279.068 191.383L279.994 197.782C279.994 197.782 277.544 196.145 277.015 192.589C277.015 192.589 271.049 196.919 279.648 201.068C279.648 201.068 280.428 203.999 287.916 206.337L287.922 206.315C287.997 206.329 288.074 206.337 288.154 206.337C288.861 206.337 289.435 205.757 289.435 205.042C289.435 204.327 288.861 203.747 288.154 203.747Z" fill="#F74C00"/>
<path d="M319.831 198.015C322.62 194.415 336.908 184.591 325.488 188.107C325.488 188.107 323.611 188.608 322.66 188.524C320.224 188.311 318.537 186.578 317.475 184.77C316.136 182.492 315.227 180.211 313.114 178.408C309.406 175.244 301.576 175.152 297.394 178.408C295.187 180.126 294.372 182.492 293.034 184.77C291.971 186.578 290.284 188.311 287.848 188.524C286.897 188.608 285.02 188.107 285.02 188.107C273.6 184.591 287.888 194.415 290.677 198.015C300.395 195.711 310.113 195.87 319.831 198.015Z" fill="black"/>
<path d="M309.58 186.19C309.58 188.292 307.655 189.996 305.279 189.996C302.904 189.996 300.978 188.292 300.978 186.19C300.978 184.087 302.904 182.383 305.279 182.383C307.655 182.383 309.58 184.087 309.58 186.19Z" fill="white"/>
<path d="M308.407 189.947C308.407 191.476 307.007 192.715 305.279 192.715C303.551 192.715 302.151 191.476 302.151 189.947C302.151 188.418 303.551 187.178 305.279 187.178C307.007 187.178 308.407 188.418 308.407 189.947Z" fill="white"/>
<path d="M304.966 186.189C304.966 186.954 304.266 187.574 303.402 187.574C302.538 187.574 301.838 186.954 301.838 186.189C301.838 185.425 302.538 184.805 303.402 184.805C304.266 184.805 304.966 185.425 304.966 186.189Z" fill="black"/>
<path d="M308.72 186.189C308.72 186.954 308.02 187.574 307.156 187.574C306.292 187.574 305.592 186.954 305.592 186.189C305.592 185.425 306.292 184.805 307.156 184.805C308.02 184.805 308.72 185.425 308.72 186.189Z" fill="black"/>
<path d="M300.128 183.606C300.392 184.429 300.198 185.187 299.695 185.3C299.193 185.412 298.571 184.837 298.308 184.014C298.044 183.191 298.238 182.433 298.74 182.321C299.243 182.208 299.864 182.784 300.128 183.606Z" fill="white"/>
<path d="M298.758 185.8C297.854 186.003 296.998 185.781 296.845 185.305C296.692 184.829 297.301 184.279 298.205 184.077C299.109 183.874 299.966 184.096 300.118 184.572C300.271 185.048 299.662 185.598 298.758 185.8Z" fill="white"/>
<path d="M299.474 183.817L298.629 185.137L301.404 186.573L302.248 185.252L299.474 183.817Z" fill="white"/>
<path d="M299.414 188.999C300.318 189.202 300.927 189.751 300.774 190.227C300.621 190.704 299.765 190.926 298.861 190.723C297.957 190.521 297.348 189.971 297.501 189.495C297.654 189.019 298.51 188.797 299.414 188.999Z" fill="white"/>
<path d="M300.784 191.193C300.52 192.016 299.899 192.592 299.396 192.479C298.893 192.367 298.7 191.608 298.963 190.786C299.227 189.963 299.848 189.388 300.351 189.5C300.854 189.613 301.047 190.371 300.784 191.193Z" fill="white"/>
<path d="M299.293 189.675L300.138 190.996L302.912 189.56L302.068 188.24L299.293 189.675Z" fill="white"/>
<path d="M311.804 185.807C310.9 185.605 310.291 185.055 310.444 184.579C310.597 184.103 311.453 183.881 312.357 184.083C313.261 184.285 313.87 184.835 313.717 185.311C313.564 185.787 312.708 186.009 311.804 185.807Z" fill="white"/>
<path d="M310.434 183.613C310.698 182.79 311.319 182.214 311.822 182.327C312.325 182.44 312.518 183.198 312.255 184.02C311.991 184.843 311.37 185.419 310.867 185.306C310.364 185.193 310.171 184.435 310.434 183.613Z" fill="white"/>
<path d="M311.925 185.131L311.08 183.81L308.306 185.246L309.15 186.566L311.925 185.131Z" fill="white"/>
<path d="M309.776 191.2C309.512 190.377 309.706 189.619 310.209 189.506C310.711 189.394 311.333 189.97 311.596 190.792C311.86 191.615 311.667 192.373 311.164 192.486C310.661 192.598 310.04 192.022 309.776 191.2Z" fill="white"/>
<path d="M311.146 189.006C312.05 188.804 312.906 189.026 313.059 189.502C313.212 189.978 312.603 190.527 311.699 190.73C310.795 190.932 309.938 190.71 309.786 190.234C309.633 189.758 310.242 189.208 311.146 189.006Z" fill="white"/>
<path d="M310.431 190.989L311.275 189.669L308.5 188.234L307.656 189.554L310.431 190.989Z" fill="white"/>
<path d="M304.412 188.733L305.279 187.494L306.146 188.733H304.412Z" fill="black"/>
<rect x="67.5" y="120.5" width="99" height="99" rx="3.5" fill="white" stroke="black"/>
<path d="M77.7098 164.62H83.7742V166H76.0135V153.203H77.7098V164.62ZM89.3904 166.176C88.1014 166.176 87.0526 165.754 86.244 164.91C85.4354 164.061 85.0311 162.927 85.0311 161.509V161.21C85.0311 160.267 85.2098 159.426 85.5672 158.688C85.9305 157.943 86.4344 157.363 87.0789 156.947C87.7293 156.525 88.4324 156.314 89.1883 156.314C90.4246 156.314 91.3856 156.722 92.0711 157.536C92.7567 158.351 93.0994 159.517 93.0994 161.034V161.711H86.657C86.6805 162.648 86.9529 163.407 87.4744 163.987C88.0018 164.562 88.6697 164.849 89.4783 164.849C90.0526 164.849 90.5389 164.731 90.9373 164.497C91.3358 164.263 91.6844 163.952 91.9832 163.565L92.9764 164.339C92.1795 165.563 90.9842 166.176 89.3904 166.176ZM89.1883 157.65C88.532 157.65 87.9813 157.891 87.5359 158.371C87.0906 158.846 86.8152 159.514 86.7098 160.375H91.4734V160.252C91.4266 159.426 91.2039 158.787 90.8055 158.336C90.407 157.879 89.868 157.65 89.1883 157.65ZM94.6024 161.166C94.6024 159.684 94.9451 158.506 95.6307 157.633C96.3162 156.754 97.2244 156.314 98.3553 156.314C99.5154 156.314 100.421 156.725 101.071 157.545L101.15 156.49H102.636V165.771C102.636 167.002 102.269 167.972 101.537 168.681C100.81 169.39 99.8318 169.744 98.6014 169.744C97.9158 169.744 97.2449 169.598 96.5887 169.305C95.9324 169.012 95.4315 168.61 95.0858 168.101L95.9295 167.125C96.6268 167.986 97.4793 168.417 98.4871 168.417C99.2781 168.417 99.8934 168.194 100.333 167.749C100.778 167.304 101.001 166.677 101.001 165.868V165.051C100.35 165.801 99.4627 166.176 98.3377 166.176C97.2244 166.176 96.3221 165.728 95.6307 164.831C94.9451 163.935 94.6024 162.713 94.6024 161.166ZM96.2371 161.351C96.2371 162.423 96.4568 163.267 96.8963 163.882C97.3358 164.491 97.951 164.796 98.742 164.796C99.7674 164.796 100.52 164.33 101.001 163.398V159.057C100.503 158.148 99.7557 157.694 98.7596 157.694C97.9686 157.694 97.3504 158.002 96.9051 158.617C96.4598 159.232 96.2371 160.144 96.2371 161.351ZM106.863 166H105.237V156.49H106.863V166ZM105.105 153.968C105.105 153.704 105.184 153.481 105.343 153.3C105.507 153.118 105.747 153.027 106.063 153.027C106.38 153.027 106.62 153.118 106.784 153.3C106.948 153.481 107.03 153.704 107.03 153.968C107.03 154.231 106.948 154.451 106.784 154.627C106.62 154.803 106.38 154.891 106.063 154.891C105.747 154.891 105.507 154.803 105.343 154.627C105.184 154.451 105.105 154.231 105.105 153.968ZM111.68 154.188V156.49H113.455V157.747H111.68V163.645C111.68 164.025 111.759 164.312 111.917 164.506C112.075 164.693 112.345 164.787 112.725 164.787C112.913 164.787 113.171 164.752 113.499 164.682V166C113.071 166.117 112.655 166.176 112.251 166.176C111.524 166.176 110.976 165.956 110.607 165.517C110.238 165.077 110.054 164.453 110.054 163.645V157.747H108.322V156.49H110.054V154.188H111.68ZM117.129 166H115.503V156.49H117.129V166ZM115.371 153.968C115.371 153.704 115.45 153.481 115.608 153.3C115.772 153.118 116.013 153.027 116.329 153.027C116.645 153.027 116.886 153.118 117.05 153.3C117.214 153.481 117.296 153.704 117.296 153.968C117.296 154.231 117.214 154.451 117.05 154.627C116.886 154.803 116.645 154.891 116.329 154.891C116.013 154.891 115.772 154.803 115.608 154.627C115.45 154.451 115.371 154.231 115.371 153.968ZM121.268 156.49L121.312 157.545C122.01 156.725 122.95 156.314 124.134 156.314C125.464 156.314 126.369 156.824 126.849 157.844C127.166 157.387 127.576 157.018 128.08 156.736C128.59 156.455 129.19 156.314 129.882 156.314C131.968 156.314 133.028 157.419 133.063 159.628V166H131.437V159.725C131.437 159.045 131.282 158.538 130.971 158.204C130.661 157.864 130.139 157.694 129.407 157.694C128.804 157.694 128.303 157.876 127.904 158.239C127.506 158.597 127.274 159.08 127.21 159.689V166H125.575V159.769C125.575 158.386 124.898 157.694 123.545 157.694C122.478 157.694 121.749 158.148 121.356 159.057V166H119.73V156.49H121.268ZM141.395 166C141.302 165.812 141.225 165.479 141.167 164.998C140.411 165.783 139.509 166.176 138.46 166.176C137.522 166.176 136.752 165.912 136.148 165.385C135.551 164.852 135.252 164.178 135.252 163.363C135.252 162.373 135.627 161.605 136.377 161.061C137.133 160.51 138.193 160.234 139.558 160.234H141.14V159.487C141.14 158.919 140.971 158.468 140.631 158.134C140.291 157.794 139.79 157.624 139.128 157.624C138.548 157.624 138.061 157.771 137.669 158.063C137.276 158.356 137.08 158.711 137.08 159.127H135.445C135.445 158.652 135.612 158.195 135.946 157.756C136.286 157.311 136.743 156.959 137.317 156.701C137.897 156.443 138.533 156.314 139.224 156.314C140.32 156.314 141.179 156.59 141.8 157.141C142.421 157.686 142.743 158.438 142.766 159.399V163.776C142.766 164.649 142.878 165.344 143.1 165.859V166H141.395ZM138.697 164.761C139.207 164.761 139.69 164.629 140.147 164.365C140.604 164.102 140.935 163.759 141.14 163.337V161.386H139.866C137.874 161.386 136.878 161.969 136.878 163.135C136.878 163.645 137.048 164.043 137.388 164.33C137.727 164.617 138.164 164.761 138.697 164.761ZM147.521 154.188V156.49H149.297V157.747H147.521V163.645C147.521 164.025 147.6 164.312 147.759 164.506C147.917 164.693 148.186 164.787 148.567 164.787C148.755 164.787 149.013 164.752 149.341 164.682V166C148.913 166.117 148.497 166.176 148.093 166.176C147.366 166.176 146.818 165.956 146.449 165.517C146.08 165.077 145.895 164.453 145.895 163.645V157.747H144.164V156.49H145.895V154.188H147.521ZM155.15 166.176C153.861 166.176 152.812 165.754 152.004 164.91C151.195 164.061 150.791 162.927 150.791 161.509V161.21C150.791 160.267 150.97 159.426 151.327 158.688C151.69 157.943 152.194 157.363 152.839 156.947C153.489 156.525 154.192 156.314 154.948 156.314C156.184 156.314 157.145 156.722 157.831 157.536C158.516 158.351 158.859 159.517 158.859 161.034V161.711H152.417C152.44 162.648 152.713 163.407 153.234 163.987C153.762 164.562 154.43 164.849 155.238 164.849C155.812 164.849 156.299 164.731 156.697 164.497C157.096 164.263 157.444 163.952 157.743 163.565L158.736 164.339C157.939 165.563 156.744 166.176 155.15 166.176ZM154.948 157.65C154.292 157.65 153.741 157.891 153.296 158.371C152.85 158.846 152.575 159.514 152.47 160.375H157.233V160.252C157.186 159.426 156.964 158.787 156.565 158.336C156.167 157.879 155.628 157.65 154.948 157.65ZM89.074 178.642C89.7947 177.757 90.7322 177.314 91.8865 177.314C93.8963 177.314 94.91 178.448 94.9276 180.716V187H93.3016V180.707C93.2957 180.021 93.1375 179.515 92.827 179.187C92.5223 178.858 92.0447 178.694 91.3943 178.694C90.867 178.694 90.4041 178.835 90.0057 179.116C89.6072 179.397 89.2967 179.767 89.074 180.224V187H87.4481V173.5H89.074V178.642ZM96.9315 182.157C96.9315 181.226 97.1131 180.388 97.4764 179.644C97.8455 178.899 98.3553 178.325 99.0057 177.921C99.6619 177.517 100.409 177.314 101.247 177.314C102.542 177.314 103.588 177.763 104.385 178.659C105.187 179.556 105.589 180.748 105.589 182.236V182.351C105.589 183.276 105.41 184.108 105.053 184.847C104.701 185.579 104.194 186.15 103.532 186.561C102.876 186.971 102.12 187.176 101.264 187.176C99.9754 187.176 98.9295 186.728 98.1268 185.831C97.3299 184.935 96.9315 183.748 96.9315 182.271V182.157ZM98.5662 182.351C98.5662 183.405 98.8094 184.252 99.2957 184.891C99.7879 185.529 100.444 185.849 101.264 185.849C102.091 185.849 102.747 185.526 103.233 184.882C103.72 184.231 103.963 183.323 103.963 182.157C103.963 181.114 103.714 180.271 103.216 179.626C102.723 178.976 102.067 178.65 101.247 178.65C100.444 178.65 99.7967 178.97 99.3045 179.608C98.8123 180.247 98.5662 181.161 98.5662 182.351ZM109.834 175.188V177.49H111.609V178.747H109.834V184.645C109.834 185.025 109.913 185.312 110.071 185.506C110.229 185.693 110.499 185.787 110.88 185.787C111.067 185.787 111.325 185.752 111.653 185.682V187C111.225 187.117 110.809 187.176 110.405 187.176C109.679 187.176 109.131 186.956 108.762 186.517C108.392 186.077 108.208 185.453 108.208 184.645V178.747H106.476V177.49H108.208V175.188H109.834ZM119.054 184.478C119.054 184.038 118.887 183.698 118.553 183.458C118.224 183.212 117.647 183.001 116.821 182.825C116.001 182.649 115.347 182.438 114.861 182.192C114.381 181.946 114.023 181.653 113.789 181.313C113.56 180.974 113.446 180.569 113.446 180.101C113.446 179.321 113.774 178.662 114.43 178.123C115.093 177.584 115.936 177.314 116.962 177.314C118.04 177.314 118.913 177.593 119.581 178.149C120.255 178.706 120.592 179.418 120.592 180.285H118.957C118.957 179.84 118.766 179.456 118.386 179.134C118.011 178.812 117.536 178.65 116.962 178.65C116.37 178.65 115.907 178.779 115.573 179.037C115.239 179.295 115.072 179.632 115.072 180.048C115.072 180.44 115.227 180.736 115.538 180.936C115.848 181.135 116.408 181.325 117.217 181.507C118.031 181.688 118.69 181.905 119.194 182.157C119.698 182.409 120.07 182.714 120.31 183.071C120.556 183.423 120.68 183.854 120.68 184.363C120.68 185.213 120.34 185.896 119.66 186.411C118.98 186.921 118.098 187.176 117.014 187.176C116.253 187.176 115.579 187.041 114.993 186.771C114.407 186.502 113.947 186.127 113.613 185.646C113.285 185.16 113.121 184.636 113.121 184.073H114.747C114.776 184.618 114.993 185.052 115.397 185.374C115.807 185.69 116.346 185.849 117.014 185.849C117.63 185.849 118.122 185.726 118.491 185.479C118.866 185.228 119.054 184.894 119.054 184.478ZM130.831 182.351C130.831 183.798 130.5 184.964 129.838 185.849C129.176 186.733 128.279 187.176 127.148 187.176C125.994 187.176 125.086 186.81 124.424 186.077V190.656H122.798V177.49H124.283L124.362 178.545C125.024 177.725 125.944 177.314 127.122 177.314C128.264 177.314 129.167 177.745 129.829 178.606C130.497 179.468 130.831 180.666 130.831 182.201V182.351ZM129.205 182.166C129.205 181.094 128.976 180.247 128.519 179.626C128.062 179.005 127.435 178.694 126.638 178.694C125.654 178.694 124.916 179.131 124.424 180.004V184.548C124.91 185.415 125.654 185.849 126.656 185.849C127.435 185.849 128.054 185.541 128.511 184.926C128.973 184.305 129.205 183.385 129.205 182.166ZM132.474 182.157C132.474 181.226 132.656 180.388 133.019 179.644C133.388 178.899 133.898 178.325 134.549 177.921C135.205 177.517 135.952 177.314 136.79 177.314C138.085 177.314 139.131 177.763 139.928 178.659C140.73 179.556 141.132 180.748 141.132 182.236V182.351C141.132 183.276 140.953 184.108 140.596 184.847C140.244 185.579 139.737 186.15 139.075 186.561C138.419 186.971 137.663 187.176 136.807 187.176C135.518 187.176 134.472 186.728 133.67 185.831C132.873 184.935 132.474 183.748 132.474 182.271V182.157ZM134.109 182.351C134.109 183.405 134.352 184.252 134.839 184.891C135.331 185.529 135.987 185.849 136.807 185.849C137.634 185.849 138.29 185.526 138.776 184.882C139.263 184.231 139.506 183.323 139.506 182.157C139.506 181.114 139.257 180.271 138.759 179.626C138.266 178.976 137.61 178.65 136.79 178.65C135.987 178.65 135.34 178.97 134.847 179.608C134.355 180.247 134.109 181.161 134.109 182.351ZM145.377 175.188V177.49H147.152V178.747H145.377V184.645C145.377 185.025 145.456 185.312 145.614 185.506C145.772 185.693 146.042 185.787 146.423 185.787C146.61 185.787 146.868 185.752 147.196 185.682V187C146.768 187.117 146.352 187.176 145.948 187.176C145.221 187.176 144.674 186.956 144.305 186.517C143.935 186.077 143.751 185.453 143.751 184.645V178.747H142.019V177.49H143.751V175.188H145.377Z" fill="black"/>
<rect x="482.5" y="153.5" width="99" height="99" rx="3.5" fill="white" stroke="black"/>
<path d="M512.691 203.259L516.348 192.703H518.193L513.447 205.5H511.953L507.216 192.703H509.053L512.691 203.259ZM521.428 205.5H519.802V195.99H521.428V205.5ZM519.67 193.468C519.67 193.204 519.749 192.981 519.907 192.8C520.071 192.618 520.312 192.527 520.628 192.527C520.944 192.527 521.185 192.618 521.349 192.8C521.513 192.981 521.595 193.204 521.595 193.468C521.595 193.731 521.513 193.951 521.349 194.127C521.185 194.303 520.944 194.391 520.628 194.391C520.312 194.391 520.071 194.303 519.907 194.127C519.749 193.951 519.67 193.731 519.67 193.468ZM527.853 204.349C528.433 204.349 528.939 204.173 529.373 203.821C529.807 203.47 530.047 203.03 530.094 202.503H531.632C531.603 203.048 531.415 203.566 531.069 204.059C530.724 204.551 530.261 204.943 529.681 205.236C529.106 205.529 528.497 205.676 527.853 205.676C526.558 205.676 525.526 205.245 524.759 204.384C523.997 203.517 523.616 202.333 523.616 200.833V200.561C523.616 199.635 523.786 198.812 524.126 198.091C524.466 197.37 524.952 196.811 525.585 196.412C526.224 196.014 526.977 195.814 527.844 195.814C528.91 195.814 529.795 196.134 530.498 196.772C531.207 197.411 531.585 198.24 531.632 199.26H530.094C530.047 198.645 529.812 198.141 529.391 197.748C528.975 197.35 528.459 197.15 527.844 197.15C527.018 197.15 526.376 197.449 525.919 198.047C525.468 198.639 525.242 199.497 525.242 200.622V200.93C525.242 202.025 525.468 202.869 525.919 203.461C526.37 204.053 527.015 204.349 527.853 204.349ZM535.666 193.688V195.99H537.441V197.247H535.666V203.145C535.666 203.525 535.745 203.812 535.903 204.006C536.062 204.193 536.331 204.287 536.712 204.287C536.899 204.287 537.157 204.252 537.485 204.182V205.5C537.058 205.617 536.642 205.676 536.237 205.676C535.511 205.676 534.963 205.456 534.594 205.017C534.225 204.577 534.04 203.953 534.04 203.145V197.247H532.309V195.99H534.04V193.688H535.666ZM541.115 205.5H539.489V195.99H541.115V205.5ZM539.357 193.468C539.357 193.204 539.437 192.981 539.595 192.8C539.759 192.618 539.999 192.527 540.315 192.527C540.632 192.527 540.872 192.618 541.036 192.8C541.2 192.981 541.282 193.204 541.282 193.468C541.282 193.731 541.2 193.951 541.036 194.127C540.872 194.303 540.632 194.391 540.315 194.391C539.999 194.391 539.759 194.303 539.595 194.127C539.437 193.951 539.357 193.731 539.357 193.468ZM545.255 195.99L545.299 197.045C545.996 196.225 546.937 195.814 548.12 195.814C549.45 195.814 550.355 196.324 550.836 197.344C551.152 196.887 551.562 196.518 552.066 196.236C552.576 195.955 553.177 195.814 553.868 195.814C555.954 195.814 557.015 196.919 557.05 199.128V205.5H555.424V199.225C555.424 198.545 555.269 198.038 554.958 197.704C554.647 197.364 554.126 197.194 553.394 197.194C552.79 197.194 552.289 197.376 551.891 197.739C551.492 198.097 551.261 198.58 551.196 199.189V205.5H549.562V199.269C549.562 197.886 548.885 197.194 547.531 197.194C546.465 197.194 545.735 197.648 545.343 198.557V205.5H543.717V195.99H545.255Z" fill="black"/>
<path d="M260.793 236.085H255.247V240.62H261.689V242H253.56V229.203H261.602V230.592H255.247V234.705H260.793V236.085ZM266.444 239.794L268.8 232.49H270.461L267.051 242H265.812L262.366 232.49H264.027L266.444 239.794ZM273.792 242H272.166V232.49H273.792V242ZM272.034 229.968C272.034 229.704 272.113 229.481 272.271 229.3C272.436 229.118 272.676 229.027 272.992 229.027C273.309 229.027 273.549 229.118 273.713 229.3C273.877 229.481 273.959 229.704 273.959 229.968C273.959 230.231 273.877 230.451 273.713 230.627C273.549 230.803 273.309 230.891 272.992 230.891C272.676 230.891 272.436 230.803 272.271 230.627C272.113 230.451 272.034 230.231 272.034 229.968ZM278.169 242H276.543V228.5H278.169V242ZM287.45 230.188V232.49H289.226V233.747H287.45V239.645C287.45 240.025 287.529 240.312 287.688 240.506C287.846 240.693 288.115 240.787 288.496 240.787C288.684 240.787 288.941 240.752 289.27 240.682V242C288.842 242.117 288.426 242.176 288.021 242.176C287.295 242.176 286.747 241.956 286.378 241.517C286.009 241.077 285.824 240.453 285.824 239.645V233.747H284.093V232.49H285.824V230.188H287.45ZM299.553 239.759L301.381 232.49H303.007L300.238 242H298.92L296.608 234.793L294.358 242H293.04L290.28 232.49H291.897L293.77 239.609L295.984 232.49H297.294L299.553 239.759ZM306.435 242H304.809V232.49H306.435V242ZM304.677 229.968C304.677 229.704 304.756 229.481 304.914 229.3C305.078 229.118 305.318 229.027 305.635 229.027C305.951 229.027 306.191 229.118 306.355 229.3C306.52 229.481 306.602 229.704 306.602 229.968C306.602 230.231 306.52 230.451 306.355 230.627C306.191 230.803 305.951 230.891 305.635 230.891C305.318 230.891 305.078 230.803 304.914 230.627C304.756 230.451 304.677 230.231 304.677 229.968ZM310.583 232.49L310.636 233.686C311.362 232.771 312.312 232.314 313.483 232.314C315.493 232.314 316.507 233.448 316.524 235.716V242H314.898V235.707C314.893 235.021 314.734 234.515 314.424 234.187C314.119 233.858 313.642 233.694 312.991 233.694C312.464 233.694 312.001 233.835 311.603 234.116C311.204 234.397 310.894 234.767 310.671 235.224V242H309.045V232.49H310.583ZM331.861 239.759L333.689 232.49H335.315L332.547 242H331.229L328.917 234.793L326.667 242H325.349L322.589 232.49H324.206L326.078 239.609L328.293 232.49H329.603L331.861 239.759ZM338.743 242H337.117V232.49H338.743V242ZM336.985 229.968C336.985 229.704 337.064 229.481 337.223 229.3C337.387 229.118 337.627 229.027 337.943 229.027C338.26 229.027 338.5 229.118 338.664 229.3C338.828 229.481 338.91 229.704 338.91 229.968C338.91 230.231 338.828 230.451 338.664 230.627C338.5 230.803 338.26 230.891 337.943 230.891C337.627 230.891 337.387 230.803 337.223 230.627C337.064 230.451 336.985 230.231 336.985 229.968ZM343.56 230.188V232.49H345.335V233.747H343.56V239.645C343.56 240.025 343.639 240.312 343.797 240.506C343.955 240.693 344.225 240.787 344.605 240.787C344.793 240.787 345.051 240.752 345.379 240.682V242C344.951 242.117 344.535 242.176 344.131 242.176C343.404 242.176 342.856 241.956 342.487 241.517C342.118 241.077 341.934 240.453 341.934 239.645V233.747H340.202V232.49H341.934V230.188H343.56ZM348.868 233.642C349.589 232.757 350.526 232.314 351.681 232.314C353.69 232.314 354.704 233.448 354.722 235.716V242H353.096V235.707C353.09 235.021 352.932 234.515 352.621 234.187C352.316 233.858 351.839 233.694 351.188 233.694C350.661 233.694 350.198 233.835 349.8 234.116C349.401 234.397 349.091 234.767 348.868 235.224V242H347.242V228.5H348.868V233.642ZM253.542 258.351C253.542 259.798 253.211 260.964 252.549 261.849C251.887 262.733 250.99 263.176 249.859 263.176C248.705 263.176 247.797 262.81 247.135 262.077V266.656H245.509V253.49H246.994L247.073 254.545C247.735 253.725 248.655 253.314 249.833 253.314C250.976 253.314 251.878 253.745 252.54 254.606C253.208 255.468 253.542 256.666 253.542 258.201V258.351ZM251.916 258.166C251.916 257.094 251.688 256.247 251.23 255.626C250.773 255.005 250.146 254.694 249.35 254.694C248.365 254.694 247.627 255.131 247.135 256.004V260.548C247.621 261.415 248.365 261.849 249.367 261.849C250.146 261.849 250.765 261.541 251.222 260.926C251.685 260.305 251.916 259.385 251.916 258.166ZM257.242 254.642C257.963 253.757 258.9 253.314 260.055 253.314C262.064 253.314 263.078 254.448 263.096 256.716V263H261.47V256.707C261.464 256.021 261.306 255.515 260.995 255.187C260.69 254.858 260.213 254.694 259.562 254.694C259.035 254.694 258.572 254.835 258.174 255.116C257.775 255.397 257.465 255.767 257.242 256.224V263H255.616V249.5H257.242V254.642ZM267.297 263H265.671V253.49H267.297V263ZM265.539 250.968C265.539 250.704 265.618 250.481 265.776 250.3C265.94 250.118 266.181 250.027 266.497 250.027C266.813 250.027 267.054 250.118 267.218 250.3C267.382 250.481 267.464 250.704 267.464 250.968C267.464 251.231 267.382 251.451 267.218 251.627C267.054 251.803 266.813 251.891 266.497 251.891C266.181 251.891 265.94 251.803 265.776 251.627C265.618 251.451 265.539 251.231 265.539 250.968ZM275.444 260.478C275.444 260.038 275.277 259.698 274.943 259.458C274.615 259.212 274.038 259.001 273.212 258.825C272.392 258.649 271.738 258.438 271.252 258.192C270.771 257.946 270.414 257.653 270.18 257.313C269.951 256.974 269.837 256.569 269.837 256.101C269.837 255.321 270.165 254.662 270.821 254.123C271.483 253.584 272.327 253.314 273.353 253.314C274.431 253.314 275.304 253.593 275.972 254.149C276.646 254.706 276.982 255.418 276.982 256.285H275.348C275.348 255.84 275.157 255.456 274.776 255.134C274.401 254.812 273.927 254.65 273.353 254.65C272.761 254.65 272.298 254.779 271.964 255.037C271.63 255.295 271.463 255.632 271.463 256.048C271.463 256.44 271.618 256.736 271.929 256.936C272.239 257.135 272.799 257.325 273.607 257.507C274.422 257.688 275.081 257.905 275.585 258.157C276.089 258.409 276.461 258.714 276.701 259.071C276.947 259.423 277.07 259.854 277.07 260.363C277.07 261.213 276.73 261.896 276.051 262.411C275.371 262.921 274.489 263.176 273.405 263.176C272.644 263.176 271.97 263.041 271.384 262.771C270.798 262.502 270.338 262.127 270.004 261.646C269.676 261.16 269.512 260.636 269.512 260.073H271.138C271.167 260.618 271.384 261.052 271.788 261.374C272.198 261.69 272.737 261.849 273.405 261.849C274.021 261.849 274.513 261.726 274.882 261.479C275.257 261.228 275.444 260.894 275.444 260.478ZM280.814 254.642C281.535 253.757 282.473 253.314 283.627 253.314C285.637 253.314 286.65 254.448 286.668 256.716V263H285.042V256.707C285.036 256.021 284.878 255.515 284.567 255.187C284.263 254.858 283.785 254.694 283.135 254.694C282.607 254.694 282.145 254.835 281.746 255.116C281.348 255.397 281.037 255.767 280.814 256.224V263H279.188V249.5H280.814V254.642ZM290.869 263H289.243V253.49H290.869V263ZM289.111 250.968C289.111 250.704 289.19 250.481 289.349 250.3C289.513 250.118 289.753 250.027 290.069 250.027C290.386 250.027 290.626 250.118 290.79 250.3C290.954 250.481 291.036 250.704 291.036 250.968C291.036 251.231 290.954 251.451 290.79 251.627C290.626 251.803 290.386 251.891 290.069 251.891C289.753 251.891 289.513 251.803 289.349 251.627C289.19 251.451 289.111 251.231 289.111 250.968ZM295.018 253.49L295.07 254.686C295.797 253.771 296.746 253.314 297.918 253.314C299.928 253.314 300.941 254.448 300.959 256.716V263H299.333V256.707C299.327 256.021 299.169 255.515 298.858 255.187C298.554 254.858 298.076 254.694 297.426 254.694C296.898 254.694 296.436 254.835 296.037 255.116C295.639 255.397 295.328 255.767 295.105 256.224V263H293.479V253.49H295.018ZM303.024 258.166C303.024 256.684 303.367 255.506 304.053 254.633C304.738 253.754 305.646 253.314 306.777 253.314C307.938 253.314 308.843 253.725 309.493 254.545L309.572 253.49H311.058V262.771C311.058 264.002 310.691 264.972 309.959 265.681C309.232 266.39 308.254 266.744 307.023 266.744C306.338 266.744 305.667 266.598 305.011 266.305C304.354 266.012 303.854 265.61 303.508 265.101L304.352 264.125C305.049 264.986 305.901 265.417 306.909 265.417C307.7 265.417 308.315 265.194 308.755 264.749C309.2 264.304 309.423 263.677 309.423 262.868V262.051C308.772 262.801 307.885 263.176 306.76 263.176C305.646 263.176 304.744 262.728 304.053 261.831C303.367 260.935 303.024 259.713 303.024 258.166ZM304.659 258.351C304.659 259.423 304.879 260.267 305.318 260.882C305.758 261.491 306.373 261.796 307.164 261.796C308.189 261.796 308.942 261.33 309.423 260.398V256.057C308.925 255.148 308.178 254.694 307.182 254.694C306.391 254.694 305.772 255.002 305.327 255.617C304.882 256.232 304.659 257.144 304.659 258.351ZM326.017 258.351C326.017 259.798 325.686 260.964 325.023 261.849C324.361 262.733 323.465 263.176 322.334 263.176C321.18 263.176 320.271 262.81 319.609 262.077V266.656H317.983V253.49H319.469L319.548 254.545C320.21 253.725 321.13 253.314 322.308 253.314C323.45 253.314 324.353 253.745 325.015 254.606C325.683 255.468 326.017 256.666 326.017 258.201V258.351ZM324.391 258.166C324.391 257.094 324.162 256.247 323.705 255.626C323.248 255.005 322.621 254.694 321.824 254.694C320.84 254.694 320.102 255.131 319.609 256.004V260.548C320.096 261.415 320.84 261.849 321.842 261.849C322.621 261.849 323.239 261.541 323.696 260.926C324.159 260.305 324.391 259.385 324.391 258.166ZM327.66 258.157C327.66 257.226 327.842 256.388 328.205 255.644C328.574 254.899 329.084 254.325 329.734 253.921C330.391 253.517 331.138 253.314 331.976 253.314C333.271 253.314 334.316 253.763 335.113 254.659C335.916 255.556 336.317 256.748 336.317 258.236V258.351C336.317 259.276 336.139 260.108 335.781 260.847C335.43 261.579 334.923 262.15 334.261 262.561C333.604 262.971 332.849 263.176 331.993 263.176C330.704 263.176 329.658 262.728 328.855 261.831C328.059 260.935 327.66 259.748 327.66 258.271V258.157ZM329.295 258.351C329.295 259.405 329.538 260.252 330.024 260.891C330.517 261.529 331.173 261.849 331.993 261.849C332.819 261.849 333.476 261.526 333.962 260.882C334.448 260.231 334.691 259.323 334.691 258.157C334.691 257.114 334.442 256.271 333.944 255.626C333.452 254.976 332.796 254.65 331.976 254.65C331.173 254.65 330.525 254.97 330.033 255.608C329.541 256.247 329.295 257.161 329.295 258.351ZM342.953 254.949C342.707 254.908 342.44 254.888 342.153 254.888C341.087 254.888 340.363 255.342 339.982 256.25V263H338.356V253.49H339.938L339.965 254.589C340.498 253.739 341.254 253.314 342.232 253.314C342.549 253.314 342.789 253.355 342.953 253.438V254.949ZM347.102 251.188V253.49H348.877V254.747H347.102V260.645C347.102 261.025 347.181 261.312 347.339 261.506C347.497 261.693 347.767 261.787 348.147 261.787C348.335 261.787 348.593 261.752 348.921 261.682V263C348.493 263.117 348.077 263.176 347.673 263.176C346.946 263.176 346.398 262.956 346.029 262.517C345.66 262.077 345.476 261.453 345.476 260.645V254.747H343.744V253.49H345.476V251.188H347.102ZM356.655 263C356.562 262.812 356.485 262.479 356.427 261.998C355.671 262.783 354.769 263.176 353.72 263.176C352.782 263.176 352.012 262.912 351.408 262.385C350.811 261.852 350.512 261.178 350.512 260.363C350.512 259.373 350.887 258.605 351.637 258.061C352.393 257.51 353.453 257.234 354.818 257.234H356.4V256.487C356.4 255.919 356.23 255.468 355.891 255.134C355.551 254.794 355.05 254.624 354.388 254.624C353.808 254.624 353.321 254.771 352.929 255.063C352.536 255.356 352.34 255.711 352.34 256.127H350.705C350.705 255.652 350.872 255.195 351.206 254.756C351.546 254.311 352.003 253.959 352.577 253.701C353.157 253.443 353.793 253.314 354.484 253.314C355.58 253.314 356.438 253.59 357.06 254.141C357.681 254.686 358.003 255.438 358.026 256.399V260.776C358.026 261.649 358.138 262.344 358.36 262.859V263H356.655ZM353.957 261.761C354.467 261.761 354.95 261.629 355.407 261.365C355.864 261.102 356.195 260.759 356.4 260.337V258.386H355.126C353.134 258.386 352.138 258.969 352.138 260.135C352.138 260.645 352.308 261.043 352.647 261.33C352.987 261.617 353.424 261.761 353.957 261.761ZM362.342 263H360.716V249.5H362.342V263Z" fill="black"/>
<path d="M388.682 148.939C388.523 150.293 388.022 151.339 387.179 152.077C386.341 152.81 385.225 153.176 383.83 153.176C382.318 153.176 381.105 152.634 380.191 151.55C379.283 150.466 378.829 149.016 378.829 147.199V145.969C378.829 144.779 379.04 143.733 379.462 142.831C379.89 141.929 380.493 141.237 381.272 140.757C382.052 140.271 382.954 140.027 383.979 140.027C385.339 140.027 386.429 140.408 387.249 141.17C388.069 141.926 388.547 142.975 388.682 144.316H386.985C386.839 143.297 386.52 142.559 386.027 142.102C385.541 141.645 384.858 141.416 383.979 141.416C382.901 141.416 382.055 141.814 381.439 142.611C380.83 143.408 380.525 144.542 380.525 146.013V147.252C380.525 148.641 380.815 149.745 381.396 150.565C381.976 151.386 382.787 151.796 383.83 151.796C384.768 151.796 385.485 151.585 385.983 151.163C386.487 150.735 386.821 149.994 386.985 148.939H388.682ZM390.308 148.157C390.308 147.226 390.489 146.388 390.853 145.644C391.222 144.899 391.731 144.325 392.382 143.921C393.038 143.517 393.785 143.314 394.623 143.314C395.918 143.314 396.964 143.763 397.761 144.659C398.563 145.556 398.965 146.748 398.965 148.236V148.351C398.965 149.276 398.786 150.108 398.429 150.847C398.077 151.579 397.57 152.15 396.908 152.561C396.252 152.971 395.496 153.176 394.641 153.176C393.352 153.176 392.306 152.728 391.503 151.831C390.706 150.935 390.308 149.748 390.308 148.271V148.157ZM391.942 148.351C391.942 149.405 392.186 150.252 392.672 150.891C393.164 151.529 393.82 151.849 394.641 151.849C395.467 151.849 396.123 151.526 396.609 150.882C397.096 150.231 397.339 149.323 397.339 148.157C397.339 147.114 397.09 146.271 396.592 145.626C396.1 144.976 395.443 144.65 394.623 144.65C393.82 144.65 393.173 144.97 392.681 145.608C392.188 146.247 391.942 147.161 391.942 148.351ZM402.542 143.49L402.595 144.686C403.321 143.771 404.271 143.314 405.442 143.314C407.452 143.314 408.466 144.448 408.483 146.716V153H406.857V146.707C406.852 146.021 406.693 145.515 406.383 145.187C406.078 144.858 405.601 144.694 404.95 144.694C404.423 144.694 403.96 144.835 403.562 145.116C403.163 145.397 402.853 145.767 402.63 146.224V153H401.004V143.49H402.542ZM412.474 143.49L412.526 144.686C413.253 143.771 414.202 143.314 415.374 143.314C417.384 143.314 418.397 144.448 418.415 146.716V153H416.789V146.707C416.783 146.021 416.625 145.515 416.314 145.187C416.01 144.858 415.532 144.694 414.882 144.694C414.354 144.694 413.892 144.835 413.493 145.116C413.095 145.397 412.784 145.767 412.562 146.224V153H410.936V143.49H412.474ZM424.813 153.176C423.524 153.176 422.476 152.754 421.667 151.91C420.858 151.061 420.454 149.927 420.454 148.509V148.21C420.454 147.267 420.633 146.426 420.99 145.688C421.354 144.943 421.857 144.363 422.502 143.947C423.152 143.525 423.855 143.314 424.611 143.314C425.848 143.314 426.809 143.722 427.494 144.536C428.18 145.351 428.522 146.517 428.522 148.034V148.711H422.08C422.104 149.648 422.376 150.407 422.897 150.987C423.425 151.562 424.093 151.849 424.901 151.849C425.476 151.849 425.962 151.731 426.36 151.497C426.759 151.263 427.107 150.952 427.406 150.565L428.399 151.339C427.603 152.563 426.407 153.176 424.813 153.176ZM424.611 144.65C423.955 144.65 423.404 144.891 422.959 145.371C422.514 145.846 422.238 146.514 422.133 147.375H426.896V147.252C426.85 146.426 426.627 145.787 426.229 145.336C425.83 144.879 425.291 144.65 424.611 144.65ZM434.227 151.849C434.807 151.849 435.313 151.673 435.747 151.321C436.181 150.97 436.421 150.53 436.468 150.003H438.006C437.977 150.548 437.789 151.066 437.443 151.559C437.098 152.051 436.635 152.443 436.055 152.736C435.48 153.029 434.871 153.176 434.227 153.176C432.932 153.176 431.9 152.745 431.133 151.884C430.371 151.017 429.99 149.833 429.99 148.333V148.061C429.99 147.135 430.16 146.312 430.5 145.591C430.84 144.87 431.326 144.311 431.959 143.912C432.598 143.514 433.351 143.314 434.218 143.314C435.284 143.314 436.169 143.634 436.872 144.272C437.581 144.911 437.959 145.74 438.006 146.76H436.468C436.421 146.145 436.187 145.641 435.765 145.248C435.349 144.85 434.833 144.65 434.218 144.65C433.392 144.65 432.75 144.949 432.293 145.547C431.842 146.139 431.616 146.997 431.616 148.122V148.43C431.616 149.525 431.842 150.369 432.293 150.961C432.744 151.553 433.389 151.849 434.227 151.849ZM442.04 141.188V143.49H443.815V144.747H442.04V150.645C442.04 151.025 442.119 151.312 442.277 151.506C442.436 151.693 442.705 151.787 443.086 151.787C443.273 151.787 443.531 151.752 443.859 151.682V153C443.432 153.117 443.016 153.176 442.611 153.176C441.885 153.176 441.337 152.956 440.968 152.517C440.599 152.077 440.414 151.453 440.414 150.645V144.747H438.683V143.49H440.414V141.188H442.04ZM451.26 150.478C451.26 150.038 451.093 149.698 450.759 149.458C450.431 149.212 449.854 149.001 449.027 148.825C448.207 148.649 447.554 148.438 447.067 148.192C446.587 147.946 446.229 147.653 445.995 147.313C445.767 146.974 445.652 146.569 445.652 146.101C445.652 145.321 445.98 144.662 446.637 144.123C447.299 143.584 448.143 143.314 449.168 143.314C450.246 143.314 451.119 143.593 451.787 144.149C452.461 144.706 452.798 145.418 452.798 146.285H451.163C451.163 145.84 450.973 145.456 450.592 145.134C450.217 144.812 449.742 144.65 449.168 144.65C448.576 144.65 448.113 144.779 447.779 145.037C447.445 145.295 447.278 145.632 447.278 146.048C447.278 146.44 447.434 146.736 447.744 146.936C448.055 147.135 448.614 147.325 449.423 147.507C450.237 147.688 450.896 147.905 451.4 148.157C451.904 148.409 452.276 148.714 452.517 149.071C452.763 149.423 452.886 149.854 452.886 150.363C452.886 151.213 452.546 151.896 451.866 152.411C451.187 152.921 450.305 153.176 449.221 153.176C448.459 153.176 447.785 153.041 447.199 152.771C446.613 152.502 446.153 152.127 445.819 151.646C445.491 151.16 445.327 150.636 445.327 150.073H446.953C446.982 150.618 447.199 151.052 447.604 151.374C448.014 151.69 448.553 151.849 449.221 151.849C449.836 151.849 450.328 151.726 450.697 151.479C451.072 151.228 451.26 150.894 451.26 150.478ZM461.675 141.188V143.49H463.45V144.747H461.675V150.645C461.675 151.025 461.754 151.312 461.912 151.506C462.07 151.693 462.34 151.787 462.721 151.787C462.908 151.787 463.166 151.752 463.494 151.682V153C463.066 153.117 462.65 153.176 462.246 153.176C461.52 153.176 460.972 152.956 460.603 152.517C460.233 152.077 460.049 151.453 460.049 150.645V144.747H458.317V143.49H460.049V141.188H461.675ZM464.751 148.157C464.751 147.226 464.933 146.388 465.296 145.644C465.665 144.899 466.175 144.325 466.825 143.921C467.481 143.517 468.229 143.314 469.066 143.314C470.361 143.314 471.407 143.763 472.204 144.659C473.007 145.556 473.408 146.748 473.408 148.236V148.351C473.408 149.276 473.229 150.108 472.872 150.847C472.521 151.579 472.014 152.15 471.352 152.561C470.695 152.971 469.939 153.176 469.084 153.176C467.795 153.176 466.749 152.728 465.946 151.831C465.149 150.935 464.751 149.748 464.751 148.271V148.157ZM466.386 148.351C466.386 149.405 466.629 150.252 467.115 150.891C467.607 151.529 468.264 151.849 469.084 151.849C469.91 151.849 470.566 151.526 471.053 150.882C471.539 150.231 471.782 149.323 471.782 148.157C471.782 147.114 471.533 146.271 471.035 145.626C470.543 144.976 469.887 144.65 469.066 144.65C468.264 144.65 467.616 144.97 467.124 145.608C466.632 146.247 466.386 147.161 466.386 148.351Z" fill="black"/>
<path d="M24.7588 53.2959C23.3115 52.8799 22.2568 52.3701 21.5947 51.7666C20.9385 51.1572 20.6104 50.4072 20.6104 49.5166C20.6104 48.5088 21.0117 47.6768 21.8145 47.0205C22.623 46.3584 23.6719 46.0273 24.9609 46.0273C25.8398 46.0273 26.6221 46.1973 27.3076 46.5371C27.999 46.877 28.5322 47.3457 28.9072 47.9434C29.2881 48.541 29.4785 49.1943 29.4785 49.9033H27.7822C27.7822 49.1299 27.5361 48.5234 27.0439 48.084C26.5518 47.6387 25.8574 47.416 24.9609 47.416C24.1289 47.416 23.4785 47.6006 23.0098 47.9697C22.5469 48.333 22.3154 48.8398 22.3154 49.4902C22.3154 50.0117 22.5352 50.4541 22.9746 50.8174C23.4199 51.1748 24.1729 51.5029 25.2334 51.8018C26.2998 52.1006 27.1318 52.4316 27.7295 52.7949C28.333 53.1523 28.7783 53.5713 29.0654 54.0518C29.3584 54.5322 29.5049 55.0977 29.5049 55.748C29.5049 56.7852 29.1006 57.6172 28.292 58.2441C27.4834 58.8652 26.4023 59.1758 25.0488 59.1758C24.1699 59.1758 23.3496 59.0088 22.5879 58.6748C21.8262 58.335 21.2373 57.8721 20.8213 57.2861C20.4111 56.7002 20.2061 56.0352 20.2061 55.291H21.9023C21.9023 56.0645 22.1865 56.6768 22.7549 57.1279C23.3291 57.5732 24.0938 57.7959 25.0488 57.7959C25.9395 57.7959 26.6221 57.6143 27.0967 57.251C27.5713 56.8877 27.8086 56.3926 27.8086 55.7656C27.8086 55.1387 27.5889 54.6553 27.1494 54.3154C26.71 53.9697 25.9131 53.6299 24.7588 53.2959ZM35.4463 53.2959C33.999 52.8799 32.9443 52.3701 32.2822 51.7666C31.626 51.1572 31.2979 50.4072 31.2979 49.5166C31.2979 48.5088 31.6992 47.6768 32.502 47.0205C33.3105 46.3584 34.3594 46.0273 35.6484 46.0273C36.5273 46.0273 37.3096 46.1973 37.9951 46.5371C38.6865 46.877 39.2197 47.3457 39.5947 47.9434C39.9756 48.541 40.166 49.1943 40.166 49.9033H38.4697C38.4697 49.1299 38.2236 48.5234 37.7314 48.084C37.2393 47.6387 36.5449 47.416 35.6484 47.416C34.8164 47.416 34.166 47.6006 33.6973 47.9697C33.2344 48.333 33.0029 48.8398 33.0029 49.4902C33.0029 50.0117 33.2227 50.4541 33.6621 50.8174C34.1074 51.1748 34.8604 51.5029 35.9209 51.8018C36.9873 52.1006 37.8193 52.4316 38.417 52.7949C39.0205 53.1523 39.4658 53.5713 39.7529 54.0518C40.0459 54.5322 40.1924 55.0977 40.1924 55.748C40.1924 56.7852 39.7881 57.6172 38.9795 58.2441C38.1709 58.8652 37.0898 59.1758 35.7363 59.1758C34.8574 59.1758 34.0371 59.0088 33.2754 58.6748C32.5137 58.335 31.9248 57.8721 31.5088 57.2861C31.0986 56.7002 30.8936 56.0352 30.8936 55.291H32.5898C32.5898 56.0645 32.874 56.6768 33.4424 57.1279C34.0166 57.5732 34.7812 57.7959 35.7363 57.7959C36.627 57.7959 37.3096 57.6143 37.7842 57.251C38.2588 56.8877 38.4961 56.3926 38.4961 55.7656C38.4961 55.1387 38.2764 54.6553 37.8369 54.3154C37.3975 53.9697 36.6006 53.6299 35.4463 53.2959ZM44.1738 59H42.4863V46.2031H44.1738V59ZM47.2676 59V46.2031H50.8799C51.9932 46.2031 52.9775 46.4492 53.833 46.9414C54.6885 47.4336 55.3477 48.1338 55.8105 49.042C56.2793 49.9502 56.5166 50.9932 56.5225 52.1709V52.9883C56.5225 54.1953 56.2881 55.2529 55.8193 56.1611C55.3564 57.0693 54.6914 57.7666 53.8242 58.2529C52.9629 58.7393 51.958 58.9883 50.8096 59H47.2676ZM48.9551 47.5918V57.6201H50.7305C52.0312 57.6201 53.042 57.2158 53.7627 56.4072C54.4893 55.5986 54.8525 54.4473 54.8525 52.9531V52.2061C54.8525 50.7529 54.5098 49.625 53.8242 48.8223C53.1445 48.0137 52.1777 47.6035 50.9238 47.5918H48.9551ZM58.7725 58.1475C58.7725 57.8662 58.8545 57.6318 59.0186 57.4443C59.1885 57.2568 59.4404 57.1631 59.7744 57.1631C60.1084 57.1631 60.3604 57.2568 60.5303 57.4443C60.7061 57.6318 60.7939 57.8662 60.7939 58.1475C60.7939 58.417 60.7061 58.6426 60.5303 58.8242C60.3604 59.0059 60.1084 59.0967 59.7744 59.0967C59.4404 59.0967 59.1885 59.0059 59.0186 58.8242C58.8545 58.6426 58.7725 58.417 58.7725 58.1475ZM58.7812 50.3867C58.7812 50.1055 58.8633 49.8711 59.0273 49.6836C59.1973 49.4961 59.4492 49.4023 59.7832 49.4023C60.1172 49.4023 60.3691 49.4961 60.5391 49.6836C60.7148 49.8711 60.8027 50.1055 60.8027 50.3867C60.8027 50.6562 60.7148 50.8818 60.5391 51.0635C60.3691 51.2451 60.1172 51.3359 59.7832 51.3359C59.4492 51.3359 59.1973 51.2451 59.0273 51.0635C58.8633 50.8818 58.7812 50.6562 58.7812 50.3867ZM74.9707 55.6602H69.6094L68.4053 59H66.665L71.5518 46.2031H73.0283L77.9238 59H76.1924L74.9707 55.6602ZM70.1191 54.2715H74.4697L72.29 48.2861L70.1191 54.2715ZM81.457 59H79.7695V46.2031H81.457V59ZM89.2441 53.8232H86.2383V59H84.542V46.2031H88.7783C90.2197 46.2031 91.3271 46.5312 92.1006 47.1875C92.8799 47.8438 93.2695 48.7988 93.2695 50.0527C93.2695 50.8496 93.0527 51.5439 92.6191 52.1357C92.1914 52.7275 91.5938 53.1699 90.8262 53.4629L93.832 58.8945V59H92.0215L89.2441 53.8232ZM86.2383 52.4434H88.8311C89.6689 52.4434 90.334 52.2266 90.8262 51.793C91.3242 51.3594 91.5732 50.7793 91.5732 50.0527C91.5732 49.2617 91.3359 48.6553 90.8613 48.2334C90.3926 47.8115 89.7129 47.5977 88.8223 47.5918H86.2383V52.4434ZM97.3301 53.9902V59H95.6426V46.2031H100.362C101.763 46.2031 102.858 46.5605 103.649 47.2754C104.446 47.9902 104.845 48.9365 104.845 50.1143C104.845 51.3564 104.455 52.3145 103.676 52.9883C102.902 53.6562 101.792 53.9902 100.345 53.9902H97.3301ZM97.3301 52.6104H100.362C101.265 52.6104 101.956 52.3994 102.437 51.9775C102.917 51.5498 103.157 50.9346 103.157 50.1318C103.157 49.3701 102.917 48.7607 102.437 48.3037C101.956 47.8467 101.297 47.6094 100.459 47.5918H97.3301V52.6104ZM116.842 53.0146C116.842 54.2686 116.631 55.3643 116.209 56.3018C115.787 57.2334 115.189 57.9453 114.416 58.4375C113.643 58.9297 112.74 59.1758 111.709 59.1758C110.701 59.1758 109.808 58.9297 109.028 58.4375C108.249 57.9395 107.643 57.2334 107.209 56.3193C106.781 55.3994 106.562 54.3359 106.55 53.1289V52.2061C106.55 50.9756 106.764 49.8887 107.191 48.9453C107.619 48.002 108.223 47.2812 109.002 46.7832C109.787 46.2793 110.684 46.0273 111.691 46.0273C112.717 46.0273 113.619 46.2764 114.398 46.7744C115.184 47.2666 115.787 47.9844 116.209 48.9277C116.631 49.8652 116.842 50.958 116.842 52.2061V53.0146ZM115.163 52.1885C115.163 50.6709 114.858 49.5078 114.249 48.6992C113.64 47.8848 112.787 47.4775 111.691 47.4775C110.625 47.4775 109.784 47.8848 109.169 48.6992C108.56 49.5078 108.246 50.6328 108.229 52.0742V53.0146C108.229 54.4854 108.536 55.6426 109.151 56.4863C109.772 57.3242 110.625 57.7432 111.709 57.7432C112.799 57.7432 113.643 57.3477 114.24 56.5566C114.838 55.7598 115.146 54.6201 115.163 53.1377V52.1885ZM124.066 53.8232H121.061V59H119.364V46.2031H123.601C125.042 46.2031 126.149 46.5312 126.923 47.1875C127.702 47.8438 128.092 48.7988 128.092 50.0527C128.092 50.8496 127.875 51.5439 127.441 52.1357C127.014 52.7275 126.416 53.1699 125.648 53.4629L128.654 58.8945V59H126.844L124.066 53.8232ZM121.061 52.4434H123.653C124.491 52.4434 125.156 52.2266 125.648 51.793C126.146 51.3594 126.396 50.7793 126.396 50.0527C126.396 49.2617 126.158 48.6553 125.684 48.2334C125.215 47.8115 124.535 47.5977 123.645 47.5918H121.061V52.4434ZM138.604 47.5918H134.49V59H132.812V47.5918H128.707V46.2031H138.604V47.5918ZM147.103 60.3271H139.052V59H147.103V60.3271ZM155.681 53.3486H150.311V59H148.623V46.2031H156.551V47.5918H150.311V51.9688H155.681V53.3486ZM163.266 53.8232H160.26V59H158.563V46.2031H162.8C164.241 46.2031 165.349 46.5312 166.122 47.1875C166.901 47.8438 167.291 48.7988 167.291 50.0527C167.291 50.8496 167.074 51.5439 166.641 52.1357C166.213 52.7275 165.615 53.1699 164.848 53.4629L167.854 58.8945V59H166.043L163.266 53.8232ZM160.26 52.4434H162.853C163.69 52.4434 164.355 52.2266 164.848 51.793C165.346 51.3594 165.595 50.7793 165.595 50.0527C165.595 49.2617 165.357 48.6553 164.883 48.2334C164.414 47.8115 163.734 47.5977 162.844 47.5918H160.26V52.4434ZM176.897 53.085H171.352V57.6201H177.794V59H169.664V46.2031H177.706V47.5918H171.352V51.7051H176.897V53.085ZM187.128 53.085H181.582V57.6201H188.024V59H179.895V46.2031H187.937V47.5918H181.582V51.7051H187.128V53.085ZM196.726 60.3271H188.675V59H196.726V60.3271ZM201.006 54.9658L201.252 56.6533L201.612 55.1328L204.144 46.2031H205.567L208.037 55.1328L208.389 56.6797L208.661 54.957L210.647 46.2031H212.344L209.241 59H207.703L205.066 49.6748L204.864 48.6992L204.662 49.6748L201.929 59H200.391L197.297 46.2031H198.984L201.006 54.9658ZM216.035 59H214.348V46.2031H216.035V59ZM226.187 53.3486H220.816V59H219.129V46.2031H227.057V47.5918H220.816V51.9688H226.187V53.3486ZM230.889 59H229.201V46.2031H230.889V59Z" fill="black"/>
<path d="M201.759 104.296C200.312 103.88 199.257 103.37 198.595 102.767C197.938 102.157 197.61 101.407 197.61 100.517C197.61 99.5088 198.012 98.6768 198.814 98.0205C199.623 97.3584 200.672 97.0273 201.961 97.0273C202.84 97.0273 203.622 97.1973 204.308 97.5371C204.999 97.877 205.532 98.3457 205.907 98.9434C206.288 99.541 206.479 100.194 206.479 100.903H204.782C204.782 100.13 204.536 99.5234 204.044 99.084C203.552 98.6387 202.857 98.416 201.961 98.416C201.129 98.416 200.479 98.6006 200.01 98.9697C199.547 99.333 199.315 99.8398 199.315 100.49C199.315 101.012 199.535 101.454 199.975 101.817C200.42 102.175 201.173 102.503 202.233 102.802C203.3 103.101 204.132 103.432 204.729 103.795C205.333 104.152 205.778 104.571 206.065 105.052C206.358 105.532 206.505 106.098 206.505 106.748C206.505 107.785 206.101 108.617 205.292 109.244C204.483 109.865 203.402 110.176 202.049 110.176C201.17 110.176 200.35 110.009 199.588 109.675C198.826 109.335 198.237 108.872 197.821 108.286C197.411 107.7 197.206 107.035 197.206 106.291H198.902C198.902 107.064 199.187 107.677 199.755 108.128C200.329 108.573 201.094 108.796 202.049 108.796C202.939 108.796 203.622 108.614 204.097 108.251C204.571 107.888 204.809 107.393 204.809 106.766C204.809 106.139 204.589 105.655 204.149 105.315C203.71 104.97 202.913 104.63 201.759 104.296ZM212.446 104.296C210.999 103.88 209.944 103.37 209.282 102.767C208.626 102.157 208.298 101.407 208.298 100.517C208.298 99.5088 208.699 98.6768 209.502 98.0205C210.311 97.3584 211.359 97.0273 212.648 97.0273C213.527 97.0273 214.31 97.1973 214.995 97.5371C215.687 97.877 216.22 98.3457 216.595 98.9434C216.976 99.541 217.166 100.194 217.166 100.903H215.47C215.47 100.13 215.224 99.5234 214.731 99.084C214.239 98.6387 213.545 98.416 212.648 98.416C211.816 98.416 211.166 98.6006 210.697 98.9697C210.234 99.333 210.003 99.8398 210.003 100.49C210.003 101.012 210.223 101.454 210.662 101.817C211.107 102.175 211.86 102.503 212.921 102.802C213.987 103.101 214.819 103.432 215.417 103.795C216.021 104.152 216.466 104.571 216.753 105.052C217.046 105.532 217.192 106.098 217.192 106.748C217.192 107.785 216.788 108.617 215.979 109.244C215.171 109.865 214.09 110.176 212.736 110.176C211.857 110.176 211.037 110.009 210.275 109.675C209.514 109.335 208.925 108.872 208.509 108.286C208.099 107.7 207.894 107.035 207.894 106.291H209.59C209.59 107.064 209.874 107.677 210.442 108.128C211.017 108.573 211.781 108.796 212.736 108.796C213.627 108.796 214.31 108.614 214.784 108.251C215.259 107.888 215.496 107.393 215.496 106.766C215.496 106.139 215.276 105.655 214.837 105.315C214.397 104.97 213.601 104.63 212.446 104.296ZM221.174 110H219.486V97.2031H221.174V110ZM224.268 110V97.2031H227.88C228.993 97.2031 229.978 97.4492 230.833 97.9414C231.688 98.4336 232.348 99.1338 232.811 100.042C233.279 100.95 233.517 101.993 233.522 103.171V103.988C233.522 105.195 233.288 106.253 232.819 107.161C232.356 108.069 231.691 108.767 230.824 109.253C229.963 109.739 228.958 109.988 227.81 110H224.268ZM225.955 98.5918V108.62H227.73C229.031 108.62 230.042 108.216 230.763 107.407C231.489 106.599 231.853 105.447 231.853 103.953V103.206C231.853 101.753 231.51 100.625 230.824 99.8223C230.145 99.0137 229.178 98.6035 227.924 98.5918H225.955ZM235.772 109.147C235.772 108.866 235.854 108.632 236.019 108.444C236.188 108.257 236.44 108.163 236.774 108.163C237.108 108.163 237.36 108.257 237.53 108.444C237.706 108.632 237.794 108.866 237.794 109.147C237.794 109.417 237.706 109.643 237.53 109.824C237.36 110.006 237.108 110.097 236.774 110.097C236.44 110.097 236.188 110.006 236.019 109.824C235.854 109.643 235.772 109.417 235.772 109.147ZM235.781 101.387C235.781 101.105 235.863 100.871 236.027 100.684C236.197 100.496 236.449 100.402 236.783 100.402C237.117 100.402 237.369 100.496 237.539 100.684C237.715 100.871 237.803 101.105 237.803 101.387C237.803 101.656 237.715 101.882 237.539 102.063C237.369 102.245 237.117 102.336 236.783 102.336C236.449 102.336 236.197 102.245 236.027 102.063C235.863 101.882 235.781 101.656 235.781 101.387ZM251.971 106.66H246.609L245.405 110H243.665L248.552 97.2031H250.028L254.924 110H253.192L251.971 106.66ZM247.119 105.271H251.47L249.29 99.2861L247.119 105.271ZM258.457 110H256.77V97.2031H258.457V110ZM266.244 104.823H263.238V110H261.542V97.2031H265.778C267.22 97.2031 268.327 97.5312 269.101 98.1875C269.88 98.8438 270.27 99.7988 270.27 101.053C270.27 101.85 270.053 102.544 269.619 103.136C269.191 103.728 268.594 104.17 267.826 104.463L270.832 109.895V110H269.021L266.244 104.823ZM263.238 103.443H265.831C266.669 103.443 267.334 103.227 267.826 102.793C268.324 102.359 268.573 101.779 268.573 101.053C268.573 100.262 268.336 99.6553 267.861 99.2334C267.393 98.8115 266.713 98.5977 265.822 98.5918H263.238V103.443ZM274.33 104.99V110H272.643V97.2031H277.362C278.763 97.2031 279.858 97.5605 280.649 98.2754C281.446 98.9902 281.845 99.9365 281.845 101.114C281.845 102.356 281.455 103.314 280.676 103.988C279.902 104.656 278.792 104.99 277.345 104.99H274.33ZM274.33 103.61H277.362C278.265 103.61 278.956 103.399 279.437 102.978C279.917 102.55 280.157 101.935 280.157 101.132C280.157 100.37 279.917 99.7607 279.437 99.3037C278.956 98.8467 278.297 98.6094 277.459 98.5918H274.33V103.61ZM293.842 104.015C293.842 105.269 293.631 106.364 293.209 107.302C292.787 108.233 292.189 108.945 291.416 109.438C290.643 109.93 289.74 110.176 288.709 110.176C287.701 110.176 286.808 109.93 286.028 109.438C285.249 108.939 284.643 108.233 284.209 107.319C283.781 106.399 283.562 105.336 283.55 104.129V103.206C283.55 101.976 283.764 100.889 284.191 99.9453C284.619 99.002 285.223 98.2812 286.002 97.7832C286.787 97.2793 287.684 97.0273 288.691 97.0273C289.717 97.0273 290.619 97.2764 291.398 97.7744C292.184 98.2666 292.787 98.9844 293.209 99.9277C293.631 100.865 293.842 101.958 293.842 103.206V104.015ZM292.163 103.188C292.163 101.671 291.858 100.508 291.249 99.6992C290.64 98.8848 289.787 98.4775 288.691 98.4775C287.625 98.4775 286.784 98.8848 286.169 99.6992C285.56 100.508 285.246 101.633 285.229 103.074V104.015C285.229 105.485 285.536 106.643 286.151 107.486C286.772 108.324 287.625 108.743 288.709 108.743C289.799 108.743 290.643 108.348 291.24 107.557C291.838 106.76 292.146 105.62 292.163 104.138V103.188ZM301.066 104.823H298.061V110H296.364V97.2031H300.601C302.042 97.2031 303.149 97.5312 303.923 98.1875C304.702 98.8438 305.092 99.7988 305.092 101.053C305.092 101.85 304.875 102.544 304.441 103.136C304.014 103.728 303.416 104.17 302.648 104.463L305.654 109.895V110H303.844L301.066 104.823ZM298.061 103.443H300.653C301.491 103.443 302.156 103.227 302.648 102.793C303.146 102.359 303.396 101.779 303.396 101.053C303.396 100.262 303.158 99.6553 302.684 99.2334C302.215 98.8115 301.535 98.5977 300.645 98.5918H298.061V103.443ZM315.604 98.5918H311.49V110H309.812V98.5918H305.707V97.2031H315.604V98.5918ZM324.103 111.327H316.052V110H324.103V111.327ZM332.681 104.349H327.311V110H325.623V97.2031H333.551V98.5918H327.311V102.969H332.681V104.349ZM340.266 104.823H337.26V110H335.563V97.2031H339.8C341.241 97.2031 342.349 97.5312 343.122 98.1875C343.901 98.8438 344.291 99.7988 344.291 101.053C344.291 101.85 344.074 102.544 343.641 103.136C343.213 103.728 342.615 104.17 341.848 104.463L344.854 109.895V110H343.043L340.266 104.823ZM337.26 103.443H339.853C340.69 103.443 341.355 103.227 341.848 102.793C342.346 102.359 342.595 101.779 342.595 101.053C342.595 100.262 342.357 99.6553 341.883 99.2334C341.414 98.8115 340.734 98.5977 339.844 98.5918H337.26V103.443ZM353.897 104.085H348.352V108.62H354.794V110H346.664V97.2031H354.706V98.5918H348.352V102.705H353.897V104.085ZM364.128 104.085H358.582V108.62H365.024V110H356.895V97.2031H364.937V98.5918H358.582V102.705H364.128V104.085ZM373.726 111.327H365.675V110H373.726V111.327ZM378.006 105.966L378.252 107.653L378.612 106.133L381.144 97.2031H382.567L385.037 106.133L385.389 107.68L385.661 105.957L387.647 97.2031H389.344L386.241 110H384.703L382.066 100.675L381.864 99.6992L381.662 100.675L378.929 110H377.391L374.297 97.2031H375.984L378.006 105.966ZM393.035 110H391.348V97.2031H393.035V110ZM403.187 104.349H397.816V110H396.129V97.2031H404.057V98.5918H397.816V102.969H403.187V104.349ZM407.889 110H406.201V97.2031H407.889V110Z" fill="black"/>
<path d="M282 135L286 139C295.94 129.06 312.06 129.06 322 139L326 135C313.86 122.86 294.16 122.86 282 135ZM298 151L304 157L310 151C306.7 147.68 301.32 147.68 298 151ZM290 143L294 147C299.52 141.48 308.48 141.48 314 147L318 143C310.28 135.28 297.74 135.28 290 143Z" fill="black"/>
<path d="M95 84L99 88C108.94 78.06 125.06 78.06 135 88L139 84C126.86 71.86 107.16 71.86 95 84ZM111 100L117 106L123 100C119.7 96.68 114.32 96.68 111 100ZM103 92L107 96C112.52 90.48 121.48 90.48 127 96L131 92C123.28 84.28 110.74 84.28 103 92Z" fill="black"/>
<path d="M334.52 152.123C334.036 152.388 333.858 152.995 334.123 153.48L338.442 161.376C338.707 161.86 339.314 162.038 339.799 161.773C340.283 161.508 340.461 160.901 340.196 160.416L336.357 153.397L343.376 149.559C343.86 149.293 344.038 148.686 343.773 148.201C343.508 147.717 342.901 147.539 342.416 147.804L334.52 152.123ZM475.281 193.04L335.281 152.04L334.719 153.96L474.719 194.96L475.281 193.04Z" fill="black"/>
</svg>
