<svg width="600" height="300" viewBox="0 0 600 300" fill="none" xmlns="http://www.w3.org/2000/svg">
<rect width="600" height="300" fill="white"/>
<path d="M153.369 230.336L156.201 219.31H157.686L157.52 222.152L154.492 233.529H152.949L153.369 230.336ZM151.25 219.31L153.545 230.248L153.75 233.529H152.109L148.818 219.31H151.25ZM160.898 230.218L163.164 219.31H165.605L162.314 233.529H160.674L160.898 230.218ZM158.262 219.31L161.064 230.365L161.475 233.529H159.932L156.953 222.152L156.797 219.31H158.262ZM169.512 218.529V233.529H167.168V218.529H169.512ZM169.102 227.855L168.34 227.845C168.346 227.116 168.447 226.442 168.643 225.824C168.844 225.205 169.124 224.668 169.482 224.213C169.847 223.75 170.283 223.396 170.791 223.148C171.299 222.894 171.862 222.767 172.48 222.767C173.001 222.767 173.47 222.839 173.887 222.982C174.31 223.125 174.674 223.357 174.98 223.676C175.286 223.988 175.518 224.398 175.674 224.906C175.837 225.407 175.918 226.019 175.918 226.742V233.529H173.555V226.722C173.555 226.215 173.48 225.811 173.33 225.511C173.187 225.212 172.975 224.997 172.695 224.867C172.415 224.73 172.074 224.662 171.67 224.662C171.247 224.662 170.872 224.746 170.547 224.916C170.228 225.085 169.961 225.316 169.746 225.609C169.531 225.902 169.368 226.241 169.258 226.625C169.154 227.009 169.102 227.419 169.102 227.855ZM184.258 231.41V226.371C184.258 225.993 184.189 225.668 184.053 225.394C183.916 225.121 183.708 224.909 183.428 224.76C183.154 224.61 182.809 224.535 182.393 224.535C182.008 224.535 181.676 224.6 181.396 224.73C181.117 224.86 180.898 225.036 180.742 225.258C180.586 225.479 180.508 225.73 180.508 226.01H178.164C178.164 225.593 178.265 225.189 178.467 224.799C178.669 224.408 178.962 224.06 179.346 223.754C179.73 223.448 180.189 223.207 180.723 223.031C181.257 222.855 181.855 222.767 182.52 222.767C183.314 222.767 184.017 222.901 184.629 223.168C185.247 223.435 185.732 223.838 186.084 224.379C186.442 224.913 186.621 225.583 186.621 226.39V231.088C186.621 231.569 186.654 232.002 186.719 232.386C186.79 232.764 186.891 233.093 187.021 233.373V233.529H184.609C184.499 233.275 184.411 232.953 184.346 232.562C184.287 232.165 184.258 231.781 184.258 231.41ZM184.6 227.103L184.619 228.558H182.93C182.493 228.558 182.109 228.601 181.777 228.685C181.445 228.763 181.169 228.881 180.947 229.037C180.726 229.193 180.56 229.382 180.449 229.603C180.339 229.825 180.283 230.075 180.283 230.355C180.283 230.635 180.348 230.892 180.479 231.127C180.609 231.355 180.798 231.534 181.045 231.664C181.299 231.794 181.605 231.859 181.963 231.859C182.445 231.859 182.865 231.761 183.223 231.566C183.587 231.364 183.874 231.12 184.082 230.834C184.29 230.541 184.401 230.264 184.414 230.004L185.176 231.049C185.098 231.315 184.964 231.602 184.775 231.908C184.587 232.214 184.339 232.507 184.033 232.787C183.734 233.06 183.372 233.285 182.949 233.461C182.533 233.636 182.051 233.724 181.504 233.724C180.814 233.724 180.199 233.588 179.658 233.314C179.118 233.034 178.695 232.66 178.389 232.191C178.083 231.716 177.93 231.179 177.93 230.58C177.93 230.02 178.034 229.525 178.242 229.095C178.457 228.659 178.77 228.295 179.18 228.002C179.596 227.709 180.104 227.487 180.703 227.338C181.302 227.181 181.986 227.103 182.754 227.103H184.6ZM193.926 222.963V224.681H187.969V222.963H193.926ZM189.688 220.375H192.041V230.609C192.041 230.935 192.087 231.185 192.178 231.361C192.275 231.53 192.409 231.644 192.578 231.703C192.747 231.761 192.946 231.791 193.174 231.791C193.337 231.791 193.493 231.781 193.643 231.761C193.792 231.742 193.913 231.722 194.004 231.703L194.014 233.5C193.818 233.558 193.59 233.61 193.33 233.656C193.076 233.702 192.783 233.724 192.451 233.724C191.911 233.724 191.432 233.63 191.016 233.441C190.599 233.246 190.273 232.93 190.039 232.494C189.805 232.058 189.688 231.478 189.688 230.756V220.375ZM203.789 232.377L206.66 222.963H209.18L204.941 235.14C204.844 235.401 204.717 235.684 204.561 235.99C204.404 236.296 204.199 236.586 203.945 236.859C203.698 237.139 203.389 237.364 203.018 237.533C202.646 237.709 202.197 237.797 201.67 237.797C201.462 237.797 201.26 237.777 201.064 237.738C200.876 237.705 200.697 237.67 200.527 237.631L200.518 235.834C200.583 235.84 200.661 235.847 200.752 235.853C200.85 235.86 200.928 235.863 200.986 235.863C201.377 235.863 201.702 235.814 201.963 235.717C202.223 235.625 202.435 235.476 202.598 235.267C202.767 235.059 202.91 234.779 203.027 234.427L203.789 232.377ZM202.168 222.963L204.678 230.873L205.098 233.353L203.467 233.773L199.629 222.963H202.168ZM209.922 228.363V228.138C209.922 227.377 210.033 226.67 210.254 226.019C210.475 225.362 210.794 224.792 211.211 224.31C211.634 223.822 212.148 223.444 212.754 223.177C213.366 222.904 214.056 222.767 214.824 222.767C215.599 222.767 216.289 222.904 216.895 223.177C217.507 223.444 218.024 223.822 218.447 224.31C218.87 224.792 219.193 225.362 219.414 226.019C219.635 226.67 219.746 227.377 219.746 228.138V228.363C219.746 229.125 219.635 229.831 219.414 230.482C219.193 231.133 218.87 231.703 218.447 232.191C218.024 232.673 217.51 233.051 216.904 233.324C216.299 233.591 215.612 233.724 214.844 233.724C214.069 233.724 213.376 233.591 212.764 233.324C212.158 233.051 211.644 232.673 211.221 232.191C210.798 231.703 210.475 231.133 210.254 230.482C210.033 229.831 209.922 229.125 209.922 228.363ZM212.275 228.138V228.363C212.275 228.838 212.324 229.288 212.422 229.711C212.52 230.134 212.673 230.505 212.881 230.824C213.089 231.143 213.356 231.394 213.682 231.576C214.007 231.758 214.395 231.849 214.844 231.849C215.28 231.849 215.658 231.758 215.977 231.576C216.302 231.394 216.569 231.143 216.777 230.824C216.986 230.505 217.139 230.134 217.236 229.711C217.34 229.288 217.393 228.838 217.393 228.363V228.138C217.393 227.67 217.34 227.227 217.236 226.81C217.139 226.387 216.982 226.013 216.768 225.687C216.559 225.362 216.292 225.108 215.967 224.926C215.648 224.737 215.267 224.642 214.824 224.642C214.382 224.642 213.997 224.737 213.672 224.926C213.353 225.108 213.089 225.362 212.881 225.687C212.673 226.013 212.52 226.387 212.422 226.81C212.324 227.227 212.275 227.67 212.275 228.138ZM228.076 231.039V222.963H230.439V233.529H228.213L228.076 231.039ZM228.408 228.842L229.199 228.822C229.199 229.532 229.121 230.186 228.965 230.785C228.809 231.377 228.568 231.895 228.242 232.338C227.917 232.774 227.5 233.116 226.992 233.363C226.484 233.604 225.876 233.724 225.166 233.724C224.652 233.724 224.18 233.649 223.75 233.5C223.32 233.35 222.949 233.119 222.637 232.806C222.331 232.494 222.093 232.087 221.924 231.586C221.755 231.084 221.67 230.485 221.67 229.789V222.963H224.023V229.808C224.023 230.192 224.069 230.515 224.16 230.775C224.251 231.029 224.375 231.234 224.531 231.39C224.688 231.547 224.87 231.657 225.078 231.722C225.286 231.788 225.508 231.82 225.742 231.82C226.413 231.82 226.94 231.69 227.324 231.429C227.715 231.163 227.992 230.804 228.154 230.355C228.324 229.906 228.408 229.401 228.408 228.842ZM172.373 254.185L174.814 245.963H176.318L175.908 248.424L173.447 256.529H172.1L172.373 254.185ZM170.938 245.963L172.842 254.224L172.998 256.529H171.494L168.633 245.963H170.938ZM178.604 254.127L180.449 245.963H182.744L179.893 256.529H178.389L178.604 254.127ZM176.572 245.963L178.984 254.088L179.287 256.529H177.939L175.449 248.414L175.039 245.963H176.572ZM190.303 254.41V249.371C190.303 248.993 190.234 248.668 190.098 248.394C189.961 248.121 189.753 247.909 189.473 247.76C189.199 247.61 188.854 247.535 188.438 247.535C188.053 247.535 187.721 247.6 187.441 247.73C187.161 247.86 186.943 248.036 186.787 248.258C186.631 248.479 186.553 248.73 186.553 249.01H184.209C184.209 248.593 184.31 248.189 184.512 247.799C184.714 247.408 185.007 247.06 185.391 246.754C185.775 246.448 186.234 246.207 186.768 246.031C187.301 245.855 187.9 245.767 188.564 245.767C189.359 245.767 190.062 245.901 190.674 246.168C191.292 246.435 191.777 246.838 192.129 247.379C192.487 247.913 192.666 248.583 192.666 249.39V254.088C192.666 254.569 192.699 255.002 192.764 255.386C192.835 255.764 192.936 256.093 193.066 256.373V256.529H190.654C190.544 256.275 190.456 255.953 190.391 255.562C190.332 255.165 190.303 254.781 190.303 254.41ZM190.645 250.103L190.664 251.558H188.975C188.538 251.558 188.154 251.601 187.822 251.685C187.49 251.763 187.214 251.881 186.992 252.037C186.771 252.193 186.605 252.382 186.494 252.603C186.383 252.825 186.328 253.075 186.328 253.355C186.328 253.635 186.393 253.892 186.523 254.127C186.654 254.355 186.842 254.534 187.09 254.664C187.344 254.794 187.65 254.859 188.008 254.859C188.49 254.859 188.91 254.761 189.268 254.566C189.632 254.364 189.919 254.12 190.127 253.834C190.335 253.541 190.446 253.264 190.459 253.004L191.221 254.049C191.143 254.315 191.009 254.602 190.82 254.908C190.632 255.214 190.384 255.507 190.078 255.787C189.779 256.06 189.417 256.285 188.994 256.461C188.577 256.636 188.096 256.724 187.549 256.724C186.859 256.724 186.243 256.588 185.703 256.314C185.163 256.034 184.74 255.66 184.434 255.191C184.128 254.716 183.975 254.179 183.975 253.58C183.975 253.02 184.079 252.525 184.287 252.095C184.502 251.659 184.814 251.295 185.225 251.002C185.641 250.709 186.149 250.487 186.748 250.338C187.347 250.181 188.031 250.103 188.799 250.103H190.645ZM197.461 248.218V256.529H195.107V245.963H197.324L197.461 248.218ZM197.041 250.855L196.279 250.845C196.286 250.097 196.39 249.41 196.592 248.785C196.8 248.16 197.087 247.623 197.451 247.174C197.822 246.724 198.265 246.379 198.779 246.138C199.294 245.891 199.867 245.767 200.498 245.767C201.006 245.767 201.465 245.839 201.875 245.982C202.292 246.119 202.646 246.343 202.939 246.656C203.239 246.968 203.467 247.375 203.623 247.877C203.779 248.371 203.857 248.98 203.857 249.703V256.529H201.494V249.693C201.494 249.185 201.419 248.785 201.27 248.492C201.126 248.192 200.915 247.981 200.635 247.857C200.361 247.727 200.02 247.662 199.609 247.662C199.206 247.662 198.844 247.746 198.525 247.916C198.206 248.085 197.936 248.316 197.715 248.609C197.5 248.902 197.334 249.241 197.217 249.625C197.1 250.009 197.041 250.419 197.041 250.855ZM211.104 245.963V247.681H205.146V245.963H211.104ZM206.865 243.375H209.219V253.609C209.219 253.935 209.264 254.185 209.355 254.361C209.453 254.53 209.587 254.644 209.756 254.703C209.925 254.761 210.124 254.791 210.352 254.791C210.514 254.791 210.671 254.781 210.82 254.761C210.97 254.742 211.09 254.722 211.182 254.703L211.191 256.5C210.996 256.558 210.768 256.61 210.508 256.656C210.254 256.702 209.961 256.724 209.629 256.724C209.089 256.724 208.61 256.63 208.193 256.441C207.777 256.246 207.451 255.93 207.217 255.494C206.982 255.058 206.865 254.478 206.865 253.756V243.375Z" fill="black"/>
<path d="M319.369 230.336L322.201 219.31H323.686L323.52 222.152L320.492 233.529H318.949L319.369 230.336ZM317.25 219.31L319.545 230.248L319.75 233.529H318.109L314.818 219.31H317.25ZM326.898 230.218L329.164 219.31H331.605L328.314 233.529H326.674L326.898 230.218ZM324.262 219.31L327.064 230.365L327.475 233.529H325.932L322.953 222.152L322.797 219.31H324.262ZM335.512 218.529V233.529H333.168V218.529H335.512ZM335.102 227.855L334.34 227.845C334.346 227.116 334.447 226.442 334.643 225.824C334.844 225.205 335.124 224.668 335.482 224.213C335.847 223.75 336.283 223.396 336.791 223.148C337.299 222.894 337.862 222.767 338.48 222.767C339.001 222.767 339.47 222.839 339.887 222.982C340.31 223.125 340.674 223.357 340.98 223.676C341.286 223.988 341.518 224.398 341.674 224.906C341.837 225.407 341.918 226.019 341.918 226.742V233.529H339.555V226.722C339.555 226.215 339.48 225.811 339.33 225.511C339.187 225.212 338.975 224.997 338.695 224.867C338.415 224.73 338.074 224.662 337.67 224.662C337.247 224.662 336.872 224.746 336.547 224.916C336.228 225.085 335.961 225.316 335.746 225.609C335.531 225.902 335.368 226.241 335.258 226.625C335.154 227.009 335.102 227.419 335.102 227.855ZM350.258 231.41V226.371C350.258 225.993 350.189 225.668 350.053 225.394C349.916 225.121 349.708 224.909 349.428 224.76C349.154 224.61 348.809 224.535 348.393 224.535C348.008 224.535 347.676 224.6 347.396 224.73C347.117 224.86 346.898 225.036 346.742 225.258C346.586 225.479 346.508 225.73 346.508 226.01H344.164C344.164 225.593 344.265 225.189 344.467 224.799C344.669 224.408 344.962 224.06 345.346 223.754C345.73 223.448 346.189 223.207 346.723 223.031C347.257 222.855 347.855 222.767 348.52 222.767C349.314 222.767 350.017 222.901 350.629 223.168C351.247 223.435 351.732 223.838 352.084 224.379C352.442 224.913 352.621 225.583 352.621 226.39V231.088C352.621 231.569 352.654 232.002 352.719 232.386C352.79 232.764 352.891 233.093 353.021 233.373V233.529H350.609C350.499 233.275 350.411 232.953 350.346 232.562C350.287 232.165 350.258 231.781 350.258 231.41ZM350.6 227.103L350.619 228.558H348.93C348.493 228.558 348.109 228.601 347.777 228.685C347.445 228.763 347.169 228.881 346.947 229.037C346.726 229.193 346.56 229.382 346.449 229.603C346.339 229.825 346.283 230.075 346.283 230.355C346.283 230.635 346.348 230.892 346.479 231.127C346.609 231.355 346.798 231.534 347.045 231.664C347.299 231.794 347.605 231.859 347.963 231.859C348.445 231.859 348.865 231.761 349.223 231.566C349.587 231.364 349.874 231.12 350.082 230.834C350.29 230.541 350.401 230.264 350.414 230.004L351.176 231.049C351.098 231.315 350.964 231.602 350.775 231.908C350.587 232.214 350.339 232.507 350.033 232.787C349.734 233.06 349.372 233.285 348.949 233.461C348.533 233.636 348.051 233.724 347.504 233.724C346.814 233.724 346.199 233.588 345.658 233.314C345.118 233.034 344.695 232.66 344.389 232.191C344.083 231.716 343.93 231.179 343.93 230.58C343.93 230.02 344.034 229.525 344.242 229.095C344.457 228.659 344.77 228.295 345.18 228.002C345.596 227.709 346.104 227.487 346.703 227.338C347.302 227.181 347.986 227.103 348.754 227.103H350.6ZM359.926 222.963V224.681H353.969V222.963H359.926ZM355.688 220.375H358.041V230.609C358.041 230.935 358.087 231.185 358.178 231.361C358.275 231.53 358.409 231.644 358.578 231.703C358.747 231.761 358.946 231.791 359.174 231.791C359.337 231.791 359.493 231.781 359.643 231.761C359.792 231.742 359.913 231.722 360.004 231.703L360.014 233.5C359.818 233.558 359.59 233.61 359.33 233.656C359.076 233.702 358.783 233.724 358.451 233.724C357.911 233.724 357.432 233.63 357.016 233.441C356.599 233.246 356.273 232.93 356.039 232.494C355.805 232.058 355.688 231.478 355.688 230.756V220.375ZM369.789 232.377L372.66 222.963H375.18L370.941 235.14C370.844 235.401 370.717 235.684 370.561 235.99C370.404 236.296 370.199 236.586 369.945 236.859C369.698 237.139 369.389 237.364 369.018 237.533C368.646 237.709 368.197 237.797 367.67 237.797C367.462 237.797 367.26 237.777 367.064 237.738C366.876 237.705 366.697 237.67 366.527 237.631L366.518 235.834C366.583 235.84 366.661 235.847 366.752 235.853C366.85 235.86 366.928 235.863 366.986 235.863C367.377 235.863 367.702 235.814 367.963 235.717C368.223 235.625 368.435 235.476 368.598 235.267C368.767 235.059 368.91 234.779 369.027 234.427L369.789 232.377ZM368.168 222.963L370.678 230.873L371.098 233.353L369.467 233.773L365.629 222.963H368.168ZM375.922 228.363V228.138C375.922 227.377 376.033 226.67 376.254 226.019C376.475 225.362 376.794 224.792 377.211 224.31C377.634 223.822 378.148 223.444 378.754 223.177C379.366 222.904 380.056 222.767 380.824 222.767C381.599 222.767 382.289 222.904 382.895 223.177C383.507 223.444 384.024 223.822 384.447 224.31C384.87 224.792 385.193 225.362 385.414 226.019C385.635 226.67 385.746 227.377 385.746 228.138V228.363C385.746 229.125 385.635 229.831 385.414 230.482C385.193 231.133 384.87 231.703 384.447 232.191C384.024 232.673 383.51 233.051 382.904 233.324C382.299 233.591 381.612 233.724 380.844 233.724C380.069 233.724 379.376 233.591 378.764 233.324C378.158 233.051 377.644 232.673 377.221 232.191C376.798 231.703 376.475 231.133 376.254 230.482C376.033 229.831 375.922 229.125 375.922 228.363ZM378.275 228.138V228.363C378.275 228.838 378.324 229.288 378.422 229.711C378.52 230.134 378.673 230.505 378.881 230.824C379.089 231.143 379.356 231.394 379.682 231.576C380.007 231.758 380.395 231.849 380.844 231.849C381.28 231.849 381.658 231.758 381.977 231.576C382.302 231.394 382.569 231.143 382.777 230.824C382.986 230.505 383.139 230.134 383.236 229.711C383.34 229.288 383.393 228.838 383.393 228.363V228.138C383.393 227.67 383.34 227.227 383.236 226.81C383.139 226.387 382.982 226.013 382.768 225.687C382.559 225.362 382.292 225.108 381.967 224.926C381.648 224.737 381.267 224.642 380.824 224.642C380.382 224.642 379.997 224.737 379.672 224.926C379.353 225.108 379.089 225.362 378.881 225.687C378.673 226.013 378.52 226.387 378.422 226.81C378.324 227.227 378.275 227.67 378.275 228.138ZM394.076 231.039V222.963H396.439V233.529H394.213L394.076 231.039ZM394.408 228.842L395.199 228.822C395.199 229.532 395.121 230.186 394.965 230.785C394.809 231.377 394.568 231.895 394.242 232.338C393.917 232.774 393.5 233.116 392.992 233.363C392.484 233.604 391.876 233.724 391.166 233.724C390.652 233.724 390.18 233.649 389.75 233.5C389.32 233.35 388.949 233.119 388.637 232.806C388.331 232.494 388.093 232.087 387.924 231.586C387.755 231.084 387.67 230.485 387.67 229.789V222.963H390.023V229.808C390.023 230.192 390.069 230.515 390.16 230.775C390.251 231.029 390.375 231.234 390.531 231.39C390.688 231.547 390.87 231.657 391.078 231.722C391.286 231.788 391.508 231.82 391.742 231.82C392.413 231.82 392.94 231.69 393.324 231.429C393.715 231.163 393.992 230.804 394.154 230.355C394.324 229.906 394.408 229.401 394.408 228.842ZM336.898 254.664L339.486 245.963H341.928L338.256 256.529H336.732L336.898 254.664ZM334.916 245.963L337.553 254.703L337.68 256.529H336.156L332.465 245.963H334.916ZM349.184 254.41V249.371C349.184 248.993 349.115 248.668 348.979 248.394C348.842 248.121 348.633 247.909 348.354 247.76C348.08 247.61 347.735 247.535 347.318 247.535C346.934 247.535 346.602 247.6 346.322 247.73C346.042 247.86 345.824 248.036 345.668 248.258C345.512 248.479 345.434 248.73 345.434 249.01H343.09C343.09 248.593 343.191 248.189 343.393 247.799C343.594 247.408 343.887 247.06 344.271 246.754C344.656 246.448 345.115 246.207 345.648 246.031C346.182 245.855 346.781 245.767 347.445 245.767C348.24 245.767 348.943 245.901 349.555 246.168C350.173 246.435 350.658 246.838 351.01 247.379C351.368 247.913 351.547 248.583 351.547 249.39V254.088C351.547 254.569 351.579 255.002 351.645 255.386C351.716 255.764 351.817 256.093 351.947 256.373V256.529H349.535C349.424 256.275 349.337 255.953 349.271 255.562C349.213 255.165 349.184 254.781 349.184 254.41ZM349.525 250.103L349.545 251.558H347.855C347.419 251.558 347.035 251.601 346.703 251.685C346.371 251.763 346.094 251.881 345.873 252.037C345.652 252.193 345.486 252.382 345.375 252.603C345.264 252.825 345.209 253.075 345.209 253.355C345.209 253.635 345.274 253.892 345.404 254.127C345.535 254.355 345.723 254.534 345.971 254.664C346.225 254.794 346.531 254.859 346.889 254.859C347.37 254.859 347.79 254.761 348.148 254.566C348.513 254.364 348.799 254.12 349.008 253.834C349.216 253.541 349.327 253.264 349.34 253.004L350.102 254.049C350.023 254.315 349.89 254.602 349.701 254.908C349.512 255.214 349.265 255.507 348.959 255.787C348.66 256.06 348.298 256.285 347.875 256.461C347.458 256.636 346.977 256.724 346.43 256.724C345.74 256.724 345.124 256.588 344.584 256.314C344.044 256.034 343.62 255.66 343.314 255.191C343.008 254.716 342.855 254.179 342.855 253.58C342.855 253.02 342.96 252.525 343.168 252.095C343.383 251.659 343.695 251.295 344.105 251.002C344.522 250.709 345.03 250.487 345.629 250.338C346.228 250.181 346.911 250.103 347.68 250.103H349.525ZM356.527 241.529V256.529H354.164V241.529H356.527ZM365.463 254.039V245.963H367.826V256.529H365.6L365.463 254.039ZM365.795 251.842L366.586 251.822C366.586 252.532 366.508 253.186 366.352 253.785C366.195 254.377 365.954 254.895 365.629 255.338C365.303 255.774 364.887 256.116 364.379 256.363C363.871 256.604 363.262 256.724 362.553 256.724C362.038 256.724 361.566 256.649 361.137 256.5C360.707 256.35 360.336 256.119 360.023 255.806C359.717 255.494 359.48 255.087 359.311 254.586C359.141 254.084 359.057 253.485 359.057 252.789V245.963H361.41V252.808C361.41 253.192 361.456 253.515 361.547 253.775C361.638 254.029 361.762 254.234 361.918 254.39C362.074 254.547 362.257 254.657 362.465 254.722C362.673 254.788 362.895 254.82 363.129 254.82C363.799 254.82 364.327 254.69 364.711 254.429C365.102 254.163 365.378 253.804 365.541 253.355C365.71 252.906 365.795 252.401 365.795 251.842ZM374.896 256.724C374.115 256.724 373.409 256.597 372.777 256.343C372.152 256.083 371.618 255.722 371.176 255.26C370.74 254.797 370.404 254.254 370.17 253.629C369.936 253.004 369.818 252.33 369.818 251.607V251.217C369.818 250.39 369.939 249.641 370.18 248.97C370.421 248.3 370.756 247.727 371.186 247.252C371.615 246.77 372.123 246.402 372.709 246.148C373.295 245.894 373.93 245.767 374.613 245.767C375.368 245.767 376.029 245.894 376.596 246.148C377.162 246.402 377.631 246.76 378.002 247.222C378.38 247.678 378.66 248.222 378.842 248.853C379.031 249.485 379.125 250.181 379.125 250.943V251.949H370.961V250.26H376.801V250.074C376.788 249.651 376.703 249.254 376.547 248.883C376.397 248.511 376.166 248.212 375.854 247.984C375.541 247.756 375.124 247.642 374.604 247.642C374.213 247.642 373.865 247.727 373.559 247.896C373.259 248.059 373.008 248.297 372.807 248.609C372.605 248.922 372.449 249.299 372.338 249.742C372.234 250.178 372.182 250.67 372.182 251.217V251.607C372.182 252.069 372.243 252.499 372.367 252.896C372.497 253.287 372.686 253.629 372.934 253.922C373.181 254.215 373.48 254.446 373.832 254.615C374.184 254.778 374.584 254.859 375.033 254.859C375.6 254.859 376.104 254.745 376.547 254.517C376.99 254.289 377.374 253.967 377.699 253.551L378.939 254.752C378.712 255.084 378.415 255.403 378.051 255.709C377.686 256.008 377.24 256.252 376.713 256.441C376.192 256.63 375.587 256.724 374.896 256.724Z" fill="black"/>
<path d="M485.369 230.336L488.201 219.31H489.686L489.52 222.152L486.492 233.529H484.949L485.369 230.336ZM483.25 219.31L485.545 230.248L485.75 233.529H484.109L480.818 219.31H483.25ZM492.898 230.218L495.164 219.31H497.605L494.314 233.529H492.674L492.898 230.218ZM490.262 219.31L493.064 230.365L493.475 233.529H491.932L488.953 222.152L488.797 219.31H490.262ZM501.512 218.529V233.529H499.168V218.529H501.512ZM501.102 227.855L500.34 227.845C500.346 227.116 500.447 226.442 500.643 225.824C500.844 225.205 501.124 224.668 501.482 224.213C501.847 223.75 502.283 223.396 502.791 223.148C503.299 222.894 503.862 222.767 504.48 222.767C505.001 222.767 505.47 222.839 505.887 222.982C506.31 223.125 506.674 223.357 506.98 223.676C507.286 223.988 507.518 224.398 507.674 224.906C507.837 225.407 507.918 226.019 507.918 226.742V233.529H505.555V226.722C505.555 226.215 505.48 225.811 505.33 225.511C505.187 225.212 504.975 224.997 504.695 224.867C504.415 224.73 504.074 224.662 503.67 224.662C503.247 224.662 502.872 224.746 502.547 224.916C502.228 225.085 501.961 225.316 501.746 225.609C501.531 225.902 501.368 226.241 501.258 226.625C501.154 227.009 501.102 227.419 501.102 227.855ZM516.258 231.41V226.371C516.258 225.993 516.189 225.668 516.053 225.394C515.916 225.121 515.708 224.909 515.428 224.76C515.154 224.61 514.809 224.535 514.393 224.535C514.008 224.535 513.676 224.6 513.396 224.73C513.117 224.86 512.898 225.036 512.742 225.258C512.586 225.479 512.508 225.73 512.508 226.01H510.164C510.164 225.593 510.265 225.189 510.467 224.799C510.669 224.408 510.962 224.06 511.346 223.754C511.73 223.448 512.189 223.207 512.723 223.031C513.257 222.855 513.855 222.767 514.52 222.767C515.314 222.767 516.017 222.901 516.629 223.168C517.247 223.435 517.732 223.838 518.084 224.379C518.442 224.913 518.621 225.583 518.621 226.39V231.088C518.621 231.569 518.654 232.002 518.719 232.386C518.79 232.764 518.891 233.093 519.021 233.373V233.529H516.609C516.499 233.275 516.411 232.953 516.346 232.562C516.287 232.165 516.258 231.781 516.258 231.41ZM516.6 227.103L516.619 228.558H514.93C514.493 228.558 514.109 228.601 513.777 228.685C513.445 228.763 513.169 228.881 512.947 229.037C512.726 229.193 512.56 229.382 512.449 229.603C512.339 229.825 512.283 230.075 512.283 230.355C512.283 230.635 512.348 230.892 512.479 231.127C512.609 231.355 512.798 231.534 513.045 231.664C513.299 231.794 513.605 231.859 513.963 231.859C514.445 231.859 514.865 231.761 515.223 231.566C515.587 231.364 515.874 231.12 516.082 230.834C516.29 230.541 516.401 230.264 516.414 230.004L517.176 231.049C517.098 231.315 516.964 231.602 516.775 231.908C516.587 232.214 516.339 232.507 516.033 232.787C515.734 233.06 515.372 233.285 514.949 233.461C514.533 233.636 514.051 233.724 513.504 233.724C512.814 233.724 512.199 233.588 511.658 233.314C511.118 233.034 510.695 232.66 510.389 232.191C510.083 231.716 509.93 231.179 509.93 230.58C509.93 230.02 510.034 229.525 510.242 229.095C510.457 228.659 510.77 228.295 511.18 228.002C511.596 227.709 512.104 227.487 512.703 227.338C513.302 227.181 513.986 227.103 514.754 227.103H516.6ZM525.926 222.963V224.681H519.969V222.963H525.926ZM521.688 220.375H524.041V230.609C524.041 230.935 524.087 231.185 524.178 231.361C524.275 231.53 524.409 231.644 524.578 231.703C524.747 231.761 524.946 231.791 525.174 231.791C525.337 231.791 525.493 231.781 525.643 231.761C525.792 231.742 525.913 231.722 526.004 231.703L526.014 233.5C525.818 233.558 525.59 233.61 525.33 233.656C525.076 233.702 524.783 233.724 524.451 233.724C523.911 233.724 523.432 233.63 523.016 233.441C522.599 233.246 522.273 232.93 522.039 232.494C521.805 232.058 521.688 231.478 521.688 230.756V220.375ZM535.789 232.377L538.66 222.963H541.18L536.941 235.14C536.844 235.401 536.717 235.684 536.561 235.99C536.404 236.296 536.199 236.586 535.945 236.859C535.698 237.139 535.389 237.364 535.018 237.533C534.646 237.709 534.197 237.797 533.67 237.797C533.462 237.797 533.26 237.777 533.064 237.738C532.876 237.705 532.697 237.67 532.527 237.631L532.518 235.834C532.583 235.84 532.661 235.847 532.752 235.853C532.85 235.86 532.928 235.863 532.986 235.863C533.377 235.863 533.702 235.814 533.963 235.717C534.223 235.625 534.435 235.476 534.598 235.267C534.767 235.059 534.91 234.779 535.027 234.427L535.789 232.377ZM534.168 222.963L536.678 230.873L537.098 233.353L535.467 233.773L531.629 222.963H534.168ZM541.922 228.363V228.138C541.922 227.377 542.033 226.67 542.254 226.019C542.475 225.362 542.794 224.792 543.211 224.31C543.634 223.822 544.148 223.444 544.754 223.177C545.366 222.904 546.056 222.767 546.824 222.767C547.599 222.767 548.289 222.904 548.895 223.177C549.507 223.444 550.024 223.822 550.447 224.31C550.87 224.792 551.193 225.362 551.414 226.019C551.635 226.67 551.746 227.377 551.746 228.138V228.363C551.746 229.125 551.635 229.831 551.414 230.482C551.193 231.133 550.87 231.703 550.447 232.191C550.024 232.673 549.51 233.051 548.904 233.324C548.299 233.591 547.612 233.724 546.844 233.724C546.069 233.724 545.376 233.591 544.764 233.324C544.158 233.051 543.644 232.673 543.221 232.191C542.798 231.703 542.475 231.133 542.254 230.482C542.033 229.831 541.922 229.125 541.922 228.363ZM544.275 228.138V228.363C544.275 228.838 544.324 229.288 544.422 229.711C544.52 230.134 544.673 230.505 544.881 230.824C545.089 231.143 545.356 231.394 545.682 231.576C546.007 231.758 546.395 231.849 546.844 231.849C547.28 231.849 547.658 231.758 547.977 231.576C548.302 231.394 548.569 231.143 548.777 230.824C548.986 230.505 549.139 230.134 549.236 229.711C549.34 229.288 549.393 228.838 549.393 228.363V228.138C549.393 227.67 549.34 227.227 549.236 226.81C549.139 226.387 548.982 226.013 548.768 225.687C548.559 225.362 548.292 225.108 547.967 224.926C547.648 224.737 547.267 224.642 546.824 224.642C546.382 224.642 545.997 224.737 545.672 224.926C545.353 225.108 545.089 225.362 544.881 225.687C544.673 226.013 544.52 226.387 544.422 226.81C544.324 227.227 544.275 227.67 544.275 228.138ZM560.076 231.039V222.963H562.439V233.529H560.213L560.076 231.039ZM560.408 228.842L561.199 228.822C561.199 229.532 561.121 230.186 560.965 230.785C560.809 231.377 560.568 231.895 560.242 232.338C559.917 232.774 559.5 233.116 558.992 233.363C558.484 233.604 557.876 233.724 557.166 233.724C556.652 233.724 556.18 233.649 555.75 233.5C555.32 233.35 554.949 233.119 554.637 232.806C554.331 232.494 554.093 232.087 553.924 231.586C553.755 231.084 553.67 230.485 553.67 229.789V222.963H556.023V229.808C556.023 230.192 556.069 230.515 556.16 230.775C556.251 231.029 556.375 231.234 556.531 231.39C556.688 231.547 556.87 231.657 557.078 231.722C557.286 231.788 557.508 231.82 557.742 231.82C558.413 231.82 558.94 231.69 559.324 231.429C559.715 231.163 559.992 230.804 560.154 230.355C560.324 229.906 560.408 229.401 560.408 228.842ZM518.348 254.342V241.529H520.711V256.529H518.572L518.348 254.342ZM511.473 251.363V251.158C511.473 250.357 511.567 249.628 511.756 248.97C511.945 248.306 512.218 247.737 512.576 247.261C512.934 246.78 513.37 246.412 513.885 246.158C514.399 245.898 514.979 245.767 515.623 245.767C516.261 245.767 516.821 245.891 517.303 246.138C517.785 246.386 518.195 246.741 518.533 247.203C518.872 247.659 519.142 248.205 519.344 248.843C519.546 249.475 519.689 250.178 519.773 250.953V251.607C519.689 252.362 519.546 253.052 519.344 253.677C519.142 254.302 518.872 254.843 518.533 255.299C518.195 255.754 517.781 256.106 517.293 256.353C516.811 256.601 516.248 256.724 515.604 256.724C514.965 256.724 514.389 256.591 513.875 256.324C513.367 256.057 512.934 255.683 512.576 255.201C512.218 254.719 511.945 254.153 511.756 253.502C511.567 252.844 511.473 252.131 511.473 251.363ZM513.826 251.158V251.363C513.826 251.845 513.868 252.294 513.953 252.711C514.044 253.127 514.184 253.495 514.373 253.814C514.562 254.127 514.806 254.374 515.105 254.556C515.411 254.732 515.776 254.82 516.199 254.82C516.733 254.82 517.173 254.703 517.518 254.468C517.863 254.234 518.133 253.918 518.328 253.521C518.53 253.118 518.667 252.668 518.738 252.174V250.406C518.699 250.022 518.618 249.664 518.494 249.332C518.377 249 518.217 248.71 518.016 248.463C517.814 248.209 517.563 248.013 517.264 247.877C516.971 247.733 516.622 247.662 516.219 247.662C515.789 247.662 515.424 247.753 515.125 247.935C514.826 248.118 514.578 248.368 514.383 248.687C514.194 249.006 514.054 249.377 513.963 249.801C513.872 250.224 513.826 250.676 513.826 251.158ZM522.723 251.363V251.138C522.723 250.377 522.833 249.67 523.055 249.019C523.276 248.362 523.595 247.792 524.012 247.31C524.435 246.822 524.949 246.444 525.555 246.177C526.167 245.904 526.857 245.767 527.625 245.767C528.4 245.767 529.09 245.904 529.695 246.177C530.307 246.444 530.825 246.822 531.248 247.31C531.671 247.792 531.993 248.362 532.215 249.019C532.436 249.67 532.547 250.377 532.547 251.138V251.363C532.547 252.125 532.436 252.831 532.215 253.482C531.993 254.133 531.671 254.703 531.248 255.191C530.825 255.673 530.311 256.051 529.705 256.324C529.1 256.591 528.413 256.724 527.645 256.724C526.87 256.724 526.176 256.591 525.564 256.324C524.959 256.051 524.445 255.673 524.021 255.191C523.598 254.703 523.276 254.133 523.055 253.482C522.833 252.831 522.723 252.125 522.723 251.363ZM525.076 251.138V251.363C525.076 251.838 525.125 252.288 525.223 252.711C525.32 253.134 525.473 253.505 525.682 253.824C525.89 254.143 526.157 254.394 526.482 254.576C526.808 254.758 527.195 254.849 527.645 254.849C528.081 254.849 528.458 254.758 528.777 254.576C529.103 254.394 529.37 254.143 529.578 253.824C529.786 253.505 529.939 253.134 530.037 252.711C530.141 252.288 530.193 251.838 530.193 251.363V251.138C530.193 250.67 530.141 250.227 530.037 249.81C529.939 249.387 529.783 249.013 529.568 248.687C529.36 248.362 529.093 248.108 528.768 247.926C528.449 247.737 528.068 247.642 527.625 247.642C527.182 247.642 526.798 247.737 526.473 247.926C526.154 248.108 525.89 248.362 525.682 248.687C525.473 249.013 525.32 249.387 525.223 249.81C525.125 250.227 525.076 250.67 525.076 251.138Z" fill="black"/>
<path d="M30.5938 155.248V157.191H23.0449V155.248H30.5938ZM23.6504 149.31V163.529H21.1992V149.31H23.6504ZM32.4785 149.31V163.529H30.0371V149.31H32.4785ZM41.1211 161.41V156.371C41.1211 155.993 41.0527 155.668 40.916 155.394C40.7793 155.121 40.571 154.909 40.291 154.76C40.0176 154.61 39.6725 154.535 39.2559 154.535C38.8717 154.535 38.5397 154.6 38.2598 154.73C37.9798 154.86 37.7617 155.036 37.6055 155.258C37.4492 155.479 37.3711 155.73 37.3711 156.01H35.0273C35.0273 155.593 35.1283 155.189 35.3301 154.799C35.5319 154.408 35.8249 154.06 36.209 153.754C36.5931 153.448 37.0521 153.207 37.5859 153.031C38.1198 152.855 38.7188 152.767 39.3828 152.767C40.1771 152.767 40.8802 152.901 41.4922 153.168C42.1107 153.435 42.5957 153.838 42.9473 154.379C43.3053 154.913 43.4844 155.583 43.4844 156.39V161.088C43.4844 161.569 43.5169 162.002 43.582 162.386C43.6536 162.764 43.7546 163.093 43.8848 163.373V163.529H41.4727C41.362 163.275 41.2741 162.953 41.209 162.562C41.1504 162.165 41.1211 161.781 41.1211 161.41ZM41.4629 157.103L41.4824 158.558H39.793C39.3568 158.558 38.9727 158.601 38.6406 158.685C38.3086 158.763 38.0319 158.881 37.8105 159.037C37.5892 159.193 37.4232 159.382 37.3125 159.603C37.2018 159.825 37.1465 160.075 37.1465 160.355C37.1465 160.635 37.2116 160.892 37.3418 161.127C37.472 161.355 37.6608 161.534 37.9082 161.664C38.1621 161.794 38.4681 161.859 38.8262 161.859C39.3079 161.859 39.7279 161.761 40.0859 161.566C40.4505 161.364 40.737 161.12 40.9453 160.834C41.1536 160.541 41.2643 160.264 41.2773 160.004L42.0391 161.049C41.9609 161.315 41.8275 161.602 41.6387 161.908C41.4499 162.214 41.2025 162.507 40.8965 162.787C40.597 163.06 40.2357 163.285 39.8125 163.461C39.3958 163.636 38.9141 163.724 38.3672 163.724C37.6771 163.724 37.0618 163.588 36.5215 163.314C35.9811 163.034 35.5579 162.66 35.252 162.191C34.946 161.716 34.793 161.179 34.793 160.58C34.793 160.02 34.8971 159.525 35.1055 159.095C35.3203 158.659 35.6328 158.295 36.043 158.002C36.4596 157.709 36.9674 157.487 37.5664 157.338C38.1654 157.181 38.849 157.103 39.6172 157.103H41.4629ZM48.3086 154.994V167.592H45.9551V152.963H48.123L48.3086 154.994ZM55.1934 158.148V158.353C55.1934 159.121 55.1022 159.834 54.9199 160.492C54.7441 161.143 54.4805 161.713 54.1289 162.201C53.7839 162.683 53.3574 163.057 52.8496 163.324C52.3418 163.591 51.7559 163.724 51.0918 163.724C50.4342 163.724 49.8581 163.604 49.3633 163.363C48.875 163.116 48.4616 162.767 48.123 162.318C47.7845 161.869 47.5111 161.342 47.3027 160.736C47.1009 160.124 46.9577 159.454 46.873 158.724V157.933C46.9577 157.159 47.1009 156.455 47.3027 155.824C47.5111 155.192 47.7845 154.649 48.123 154.193C48.4616 153.737 48.875 153.386 49.3633 153.138C49.8516 152.891 50.4212 152.767 51.0723 152.767C51.7363 152.767 52.3255 152.898 52.8398 153.158C53.3542 153.412 53.7871 153.776 54.1387 154.252C54.4902 154.72 54.7539 155.287 54.9297 155.951C55.1055 156.608 55.1934 157.341 55.1934 158.148ZM52.8398 158.353V158.148C52.8398 157.66 52.7943 157.207 52.7031 156.791C52.612 156.368 52.4688 155.996 52.2734 155.677C52.0781 155.358 51.8275 155.111 51.5215 154.935C51.222 154.753 50.8607 154.662 50.4375 154.662C50.0208 154.662 49.6628 154.733 49.3633 154.877C49.0638 155.013 48.8132 155.205 48.6113 155.453C48.4095 155.7 48.2533 155.99 48.1426 156.322C48.0319 156.648 47.9538 157.002 47.9082 157.386V159.281C47.9863 159.75 48.1198 160.179 48.3086 160.57C48.4974 160.961 48.7643 161.273 49.1094 161.508C49.4609 161.735 49.9102 161.849 50.457 161.849C50.8802 161.849 51.2415 161.758 51.541 161.576C51.8405 161.394 52.0846 161.143 52.2734 160.824C52.4688 160.498 52.612 160.124 52.7031 159.701C52.7943 159.278 52.8398 158.829 52.8398 158.353ZM59.5586 154.994V167.592H57.2051V152.963H59.373L59.5586 154.994ZM66.4434 158.148V158.353C66.4434 159.121 66.3522 159.834 66.1699 160.492C65.9941 161.143 65.7305 161.713 65.3789 162.201C65.0339 162.683 64.6074 163.057 64.0996 163.324C63.5918 163.591 63.0059 163.724 62.3418 163.724C61.6842 163.724 61.1081 163.604 60.6133 163.363C60.125 163.116 59.7116 162.767 59.373 162.318C59.0345 161.869 58.7611 161.342 58.5527 160.736C58.3509 160.124 58.2077 159.454 58.123 158.724V157.933C58.2077 157.159 58.3509 156.455 58.5527 155.824C58.7611 155.192 59.0345 154.649 59.373 154.193C59.7116 153.737 60.125 153.386 60.6133 153.138C61.1016 152.891 61.6712 152.767 62.3223 152.767C62.9863 152.767 63.5755 152.898 64.0898 153.158C64.6042 153.412 65.0371 153.776 65.3887 154.252C65.7402 154.72 66.0039 155.287 66.1797 155.951C66.3555 156.608 66.4434 157.341 66.4434 158.148ZM64.0898 158.353V158.148C64.0898 157.66 64.0443 157.207 63.9531 156.791C63.862 156.368 63.7188 155.996 63.5234 155.677C63.3281 155.358 63.0775 155.111 62.7715 154.935C62.472 154.753 62.1107 154.662 61.6875 154.662C61.2708 154.662 60.9128 154.733 60.6133 154.877C60.3138 155.013 60.0632 155.205 59.8613 155.453C59.6595 155.7 59.5033 155.99 59.3926 156.322C59.2819 156.648 59.2038 157.002 59.1582 157.386V159.281C59.2363 159.75 59.3698 160.179 59.5586 160.57C59.7474 160.961 60.0143 161.273 60.3594 161.508C60.7109 161.735 61.1602 161.849 61.707 161.849C62.1302 161.849 62.4915 161.758 62.791 161.576C63.0905 161.394 63.3346 161.143 63.5234 160.824C63.7188 160.498 63.862 160.124 63.9531 159.701C64.0443 159.278 64.0898 158.829 64.0898 158.353ZM70.9648 152.963V163.529H68.6016V152.963H70.9648ZM68.4453 150.189C68.4453 149.831 68.5625 149.535 68.7969 149.301C69.0378 149.06 69.3698 148.939 69.793 148.939C70.2096 148.939 70.5384 149.06 70.7793 149.301C71.0202 149.535 71.1406 149.831 71.1406 150.189C71.1406 150.541 71.0202 150.834 70.7793 151.068C70.5384 151.302 70.2096 151.42 69.793 151.42C69.3698 151.42 69.0378 151.302 68.7969 151.068C68.5625 150.834 68.4453 150.541 68.4453 150.189ZM75.877 155.218V163.529H73.5234V152.963H75.7402L75.877 155.218ZM75.457 157.855L74.6953 157.845C74.7018 157.097 74.806 156.41 75.0078 155.785C75.2161 155.16 75.5026 154.623 75.8672 154.174C76.2383 153.724 76.681 153.379 77.1953 153.138C77.7096 152.891 78.2826 152.767 78.9141 152.767C79.4219 152.767 79.8809 152.839 80.291 152.982C80.7077 153.119 81.0625 153.343 81.3555 153.656C81.6549 153.968 81.8828 154.375 82.0391 154.877C82.1953 155.371 82.2734 155.98 82.2734 156.703V163.529H79.9102V156.693C79.9102 156.185 79.8353 155.785 79.6855 155.492C79.5423 155.192 79.3307 154.981 79.0508 154.857C78.7773 154.727 78.4355 154.662 78.0254 154.662C77.6217 154.662 77.2604 154.746 76.9414 154.916C76.6224 155.085 76.3522 155.316 76.1309 155.609C75.916 155.902 75.75 156.241 75.6328 156.625C75.5156 157.009 75.457 157.419 75.457 157.855ZM89.334 163.724C88.5527 163.724 87.8464 163.597 87.2148 163.343C86.5898 163.083 86.056 162.722 85.6133 162.26C85.1771 161.797 84.8418 161.254 84.6074 160.629C84.373 160.004 84.2559 159.33 84.2559 158.607V158.217C84.2559 157.39 84.3763 156.641 84.6172 155.97C84.8581 155.3 85.1934 154.727 85.623 154.252C86.0527 153.77 86.5605 153.402 87.1465 153.148C87.7324 152.894 88.3672 152.767 89.0508 152.767C89.806 152.767 90.4668 152.894 91.0332 153.148C91.5996 153.402 92.0684 153.76 92.4395 154.222C92.8171 154.678 93.097 155.222 93.2793 155.853C93.4681 156.485 93.5625 157.181 93.5625 157.943V158.949H85.3984V157.26H91.2383V157.074C91.2253 156.651 91.1406 156.254 90.9844 155.883C90.8346 155.511 90.6035 155.212 90.291 154.984C89.9785 154.756 89.5618 154.642 89.041 154.642C88.6504 154.642 88.3021 154.727 87.9961 154.896C87.6966 155.059 87.446 155.297 87.2441 155.609C87.0423 155.922 86.8861 156.299 86.7754 156.742C86.6712 157.178 86.6191 157.67 86.6191 158.217V158.607C86.6191 159.069 86.681 159.499 86.8047 159.896C86.9349 160.287 87.1237 160.629 87.3711 160.922C87.6185 161.215 87.918 161.446 88.2695 161.615C88.6211 161.778 89.0215 161.859 89.4707 161.859C90.0371 161.859 90.5417 161.745 90.9844 161.517C91.4271 161.289 91.8112 160.967 92.1367 160.551L93.377 161.752C93.1491 162.084 92.8529 162.403 92.4883 162.709C92.1237 163.008 91.6777 163.252 91.1504 163.441C90.6296 163.63 90.0241 163.724 89.334 163.724ZM101.326 160.668C101.326 160.433 101.268 160.222 101.15 160.033C101.033 159.838 100.809 159.662 100.477 159.506C100.151 159.349 99.6693 159.206 99.0312 159.076C98.4714 158.952 97.957 158.806 97.4883 158.636C97.026 158.461 96.6289 158.249 96.2969 158.002C95.9648 157.754 95.7077 157.461 95.5254 157.123C95.3431 156.784 95.252 156.394 95.252 155.951C95.252 155.521 95.3464 155.114 95.5352 154.73C95.724 154.346 95.9941 154.008 96.3457 153.715C96.6973 153.422 97.1237 153.19 97.625 153.021C98.1328 152.852 98.6992 152.767 99.3242 152.767C100.21 152.767 100.968 152.917 101.6 153.217C102.238 153.51 102.726 153.91 103.064 154.418C103.403 154.919 103.572 155.485 103.572 156.117H101.219C101.219 155.837 101.147 155.577 101.004 155.336C100.867 155.088 100.659 154.89 100.379 154.74C100.099 154.584 99.7474 154.506 99.3242 154.506C98.9206 154.506 98.5853 154.571 98.3184 154.701C98.0579 154.825 97.8626 154.987 97.7324 155.189C97.6087 155.391 97.5469 155.612 97.5469 155.853C97.5469 156.029 97.5794 156.189 97.6445 156.332C97.7161 156.468 97.8333 156.595 97.9961 156.713C98.1589 156.823 98.3802 156.927 98.6602 157.025C98.9466 157.123 99.3047 157.217 99.7344 157.308C100.542 157.478 101.235 157.696 101.814 157.963C102.4 158.223 102.85 158.562 103.162 158.978C103.475 159.388 103.631 159.909 103.631 160.541C103.631 161.01 103.53 161.439 103.328 161.83C103.133 162.214 102.846 162.549 102.469 162.836C102.091 163.116 101.639 163.334 101.111 163.49C100.59 163.646 100.005 163.724 99.3535 163.724C98.3965 163.724 97.5859 163.555 96.9219 163.217C96.2578 162.871 95.7533 162.432 95.4082 161.898C95.0697 161.358 94.9004 160.798 94.9004 160.218H97.1758C97.2018 160.655 97.3223 161.003 97.5371 161.263C97.7585 161.517 98.0319 161.703 98.3574 161.82C98.6895 161.931 99.0312 161.986 99.3828 161.986C99.806 161.986 100.161 161.931 100.447 161.82C100.734 161.703 100.952 161.547 101.102 161.351C101.251 161.149 101.326 160.922 101.326 160.668ZM111.619 160.668C111.619 160.433 111.561 160.222 111.443 160.033C111.326 159.838 111.102 159.662 110.77 159.506C110.444 159.349 109.962 159.206 109.324 159.076C108.764 158.952 108.25 158.806 107.781 158.636C107.319 158.461 106.922 158.249 106.59 158.002C106.258 157.754 106.001 157.461 105.818 157.123C105.636 156.784 105.545 156.394 105.545 155.951C105.545 155.521 105.639 155.114 105.828 154.73C106.017 154.346 106.287 154.008 106.639 153.715C106.99 153.422 107.417 153.19 107.918 153.021C108.426 152.852 108.992 152.767 109.617 152.767C110.503 152.767 111.261 152.917 111.893 153.217C112.531 153.51 113.019 153.91 113.357 154.418C113.696 154.919 113.865 155.485 113.865 156.117H111.512C111.512 155.837 111.44 155.577 111.297 155.336C111.16 155.088 110.952 154.89 110.672 154.74C110.392 154.584 110.04 154.506 109.617 154.506C109.214 154.506 108.878 154.571 108.611 154.701C108.351 154.825 108.156 154.987 108.025 155.189C107.902 155.391 107.84 155.612 107.84 155.853C107.84 156.029 107.872 156.189 107.938 156.332C108.009 156.468 108.126 156.595 108.289 156.713C108.452 156.823 108.673 156.927 108.953 157.025C109.24 157.123 109.598 157.217 110.027 157.308C110.835 157.478 111.528 157.696 112.107 157.963C112.693 158.223 113.143 158.562 113.455 158.978C113.768 159.388 113.924 159.909 113.924 160.541C113.924 161.01 113.823 161.439 113.621 161.83C113.426 162.214 113.139 162.549 112.762 162.836C112.384 163.116 111.932 163.334 111.404 163.49C110.883 163.646 110.298 163.724 109.646 163.724C108.689 163.724 107.879 163.555 107.215 163.217C106.551 162.871 106.046 162.432 105.701 161.898C105.363 161.358 105.193 160.798 105.193 160.218H107.469C107.495 160.655 107.615 161.003 107.83 161.263C108.051 161.517 108.325 161.703 108.65 161.82C108.982 161.931 109.324 161.986 109.676 161.986C110.099 161.986 110.454 161.931 110.74 161.82C111.027 161.703 111.245 161.547 111.395 161.351C111.544 161.149 111.619 160.922 111.619 160.668ZM118.191 161.263L118.182 162.943C118.182 163.607 118.016 164.291 117.684 164.994C117.352 165.697 116.912 166.276 116.365 166.732L115.105 166C115.288 165.707 115.454 165.411 115.604 165.111C115.753 164.812 115.874 164.493 115.965 164.154C116.056 163.815 116.102 163.441 116.102 163.031V161.263H118.191ZM40.7012 182.867C40.7012 182.574 40.6556 182.314 40.5645 182.086C40.4798 181.858 40.3268 181.649 40.1055 181.461C39.8841 181.272 39.5716 181.09 39.168 180.914C38.7708 180.732 38.263 180.546 37.6445 180.357C36.9674 180.149 36.3424 179.918 35.7695 179.664C35.2031 179.403 34.7083 179.104 34.2852 178.765C33.862 178.42 33.5332 178.026 33.2988 177.584C33.0645 177.135 32.9473 176.617 32.9473 176.031C32.9473 175.452 33.0677 174.924 33.3086 174.449C33.556 173.974 33.9043 173.564 34.3535 173.218C34.8092 172.867 35.3464 172.597 35.9648 172.408C36.5833 172.213 37.2669 172.115 38.0156 172.115C39.0703 172.115 39.9785 172.31 40.7402 172.701C41.5085 173.092 42.0977 173.616 42.5078 174.273C42.9245 174.931 43.1328 175.657 43.1328 176.451H40.7012C40.7012 175.982 40.6003 175.569 40.3984 175.211C40.2031 174.846 39.9036 174.56 39.5 174.351C39.1029 174.143 38.5983 174.039 37.9863 174.039C37.4069 174.039 36.9251 174.127 36.541 174.302C36.1569 174.478 35.8704 174.716 35.6816 175.015C35.4928 175.315 35.3984 175.653 35.3984 176.031C35.3984 176.298 35.4603 176.542 35.584 176.763C35.7077 176.978 35.8965 177.18 36.1504 177.369C36.4043 177.551 36.7233 177.724 37.1074 177.886C37.4915 178.049 37.944 178.205 38.4648 178.355C39.2526 178.59 39.9395 178.85 40.5254 179.136C41.1113 179.416 41.5996 179.735 41.9902 180.093C42.3809 180.452 42.6738 180.858 42.8691 181.314C43.0645 181.763 43.1621 182.274 43.1621 182.847C43.1621 183.446 43.0417 183.987 42.8008 184.468C42.5599 184.944 42.2148 185.351 41.7656 185.689C41.3229 186.021 40.7891 186.278 40.1641 186.461C39.5456 186.636 38.8555 186.724 38.0938 186.724C37.4102 186.724 36.7363 186.633 36.0723 186.451C35.4147 186.269 34.8158 185.992 34.2754 185.621C33.735 185.243 33.3053 184.774 32.9863 184.215C32.6673 183.648 32.5078 182.987 32.5078 182.232H34.959C34.959 182.694 35.0371 183.088 35.1934 183.414C35.3561 183.739 35.5807 184.006 35.8672 184.215C36.1536 184.416 36.4857 184.566 36.8633 184.664C37.2474 184.761 37.6576 184.81 38.0938 184.81C38.6667 184.81 39.1452 184.729 39.5293 184.566C39.9199 184.403 40.2129 184.176 40.4082 183.883C40.6035 183.59 40.7012 183.251 40.7012 182.867ZM51.4531 184.039V175.963H53.8164V186.529H51.5898L51.4531 184.039ZM51.7852 181.842L52.5762 181.822C52.5762 182.532 52.498 183.186 52.3418 183.785C52.1855 184.377 51.9447 184.895 51.6191 185.338C51.2936 185.774 50.877 186.116 50.3691 186.363C49.8613 186.604 49.2526 186.724 48.543 186.724C48.0286 186.724 47.5566 186.649 47.127 186.5C46.6973 186.35 46.3262 186.119 46.0137 185.806C45.7077 185.494 45.4701 185.087 45.3008 184.586C45.1315 184.084 45.0469 183.485 45.0469 182.789V175.963H47.4004V182.808C47.4004 183.192 47.446 183.515 47.5371 183.775C47.6283 184.029 47.752 184.234 47.9082 184.39C48.0645 184.547 48.2467 184.657 48.4551 184.722C48.6634 184.788 48.8848 184.82 49.1191 184.82C49.7897 184.82 50.3171 184.69 50.7012 184.429C51.0918 184.163 51.3685 183.804 51.5312 183.355C51.7005 182.906 51.7852 182.401 51.7852 181.842ZM60.5449 184.849C60.929 184.849 61.2741 184.774 61.5801 184.625C61.8926 184.468 62.1432 184.254 62.332 183.98C62.5273 183.707 62.6348 183.391 62.6543 183.033H64.8711C64.8581 183.717 64.6562 184.338 64.2656 184.898C63.875 185.458 63.3574 185.904 62.7129 186.236C62.0684 186.562 61.3555 186.724 60.5742 186.724C59.7669 186.724 59.0638 186.588 58.4648 186.314C57.8659 186.034 57.3678 185.65 56.9707 185.162C56.5736 184.674 56.2741 184.11 56.0723 183.472C55.877 182.834 55.7793 182.151 55.7793 181.422V181.08C55.7793 180.351 55.877 179.667 56.0723 179.029C56.2741 178.385 56.5736 177.818 56.9707 177.33C57.3678 176.842 57.8659 176.461 58.4648 176.187C59.0638 175.907 59.7637 175.767 60.5645 175.767C61.4108 175.767 62.153 175.937 62.791 176.275C63.429 176.607 63.9303 177.073 64.2949 177.672C64.666 178.264 64.8581 178.954 64.8711 179.742H62.6543C62.6348 179.351 62.5371 179 62.3613 178.687C62.1921 178.368 61.9512 178.114 61.6387 177.926C61.3327 177.737 60.9648 177.642 60.5352 177.642C60.0599 177.642 59.666 177.74 59.3535 177.935C59.041 178.124 58.7969 178.385 58.6211 178.717C58.4453 179.042 58.3184 179.41 58.2402 179.82C58.1686 180.224 58.1328 180.644 58.1328 181.08V181.422C58.1328 181.858 58.1686 182.281 58.2402 182.691C58.3118 183.101 58.4355 183.469 58.6113 183.795C58.7936 184.114 59.041 184.371 59.3535 184.566C59.666 184.755 60.0632 184.849 60.5449 184.849ZM70.9941 184.849C71.3783 184.849 71.7233 184.774 72.0293 184.625C72.3418 184.468 72.5924 184.254 72.7812 183.98C72.9766 183.707 73.084 183.391 73.1035 183.033H75.3203C75.3073 183.717 75.1055 184.338 74.7148 184.898C74.3242 185.458 73.8066 185.904 73.1621 186.236C72.5176 186.562 71.8047 186.724 71.0234 186.724C70.2161 186.724 69.513 186.588 68.9141 186.314C68.3151 186.034 67.8171 185.65 67.4199 185.162C67.0228 184.674 66.7233 184.11 66.5215 183.472C66.3262 182.834 66.2285 182.151 66.2285 181.422V181.08C66.2285 180.351 66.3262 179.667 66.5215 179.029C66.7233 178.385 67.0228 177.818 67.4199 177.33C67.8171 176.842 68.3151 176.461 68.9141 176.187C69.513 175.907 70.2129 175.767 71.0137 175.767C71.86 175.767 72.6022 175.937 73.2402 176.275C73.8783 176.607 74.3796 177.073 74.7441 177.672C75.1152 178.264 75.3073 178.954 75.3203 179.742H73.1035C73.084 179.351 72.9863 179 72.8105 178.687C72.6413 178.368 72.4004 178.114 72.0879 177.926C71.7819 177.737 71.4141 177.642 70.9844 177.642C70.5091 177.642 70.1152 177.74 69.8027 177.935C69.4902 178.124 69.2461 178.385 69.0703 178.717C68.8945 179.042 68.7676 179.41 68.6895 179.82C68.6178 180.224 68.582 180.644 68.582 181.08V181.422C68.582 181.858 68.6178 182.281 68.6895 182.691C68.7611 183.101 68.8848 183.469 69.0605 183.795C69.2428 184.114 69.4902 184.371 69.8027 184.566C70.1152 184.755 70.5124 184.849 70.9941 184.849ZM81.7852 186.724C81.0039 186.724 80.2975 186.597 79.666 186.343C79.041 186.083 78.5072 185.722 78.0645 185.26C77.6283 184.797 77.293 184.254 77.0586 183.629C76.8242 183.004 76.707 182.33 76.707 181.607V181.217C76.707 180.39 76.8275 179.641 77.0684 178.97C77.3092 178.3 77.6445 177.727 78.0742 177.252C78.5039 176.77 79.0117 176.402 79.5977 176.148C80.1836 175.894 80.8184 175.767 81.502 175.767C82.2572 175.767 82.918 175.894 83.4844 176.148C84.0508 176.402 84.5195 176.76 84.8906 177.222C85.2682 177.678 85.5482 178.222 85.7305 178.853C85.9193 179.485 86.0137 180.181 86.0137 180.943V181.949H77.8496V180.26H83.6895V180.074C83.6764 179.651 83.5918 179.254 83.4355 178.883C83.2858 178.511 83.0547 178.212 82.7422 177.984C82.4297 177.756 82.013 177.642 81.4922 177.642C81.1016 177.642 80.7533 177.727 80.4473 177.896C80.1478 178.059 79.8971 178.297 79.6953 178.609C79.4935 178.922 79.3372 179.299 79.2266 179.742C79.1224 180.178 79.0703 180.67 79.0703 181.217V181.607C79.0703 182.069 79.1322 182.499 79.2559 182.896C79.3861 183.287 79.5749 183.629 79.8223 183.922C80.0697 184.215 80.3691 184.446 80.7207 184.615C81.0723 184.778 81.4727 184.859 81.9219 184.859C82.4883 184.859 82.9928 184.745 83.4355 184.517C83.8783 184.289 84.2624 183.967 84.5879 183.551L85.8281 184.752C85.6003 185.084 85.304 185.403 84.9395 185.709C84.5749 186.008 84.1289 186.252 83.6016 186.441C83.0807 186.63 82.4753 186.724 81.7852 186.724ZM93.7773 183.668C93.7773 183.433 93.7188 183.222 93.6016 183.033C93.4844 182.838 93.2598 182.662 92.9277 182.506C92.6022 182.349 92.1204 182.206 91.4824 182.076C90.9225 181.952 90.4082 181.806 89.9395 181.636C89.4772 181.461 89.0801 181.249 88.748 181.002C88.416 180.754 88.1589 180.461 87.9766 180.123C87.7943 179.784 87.7031 179.394 87.7031 178.951C87.7031 178.521 87.7975 178.114 87.9863 177.73C88.1751 177.346 88.4453 177.008 88.7969 176.715C89.1484 176.422 89.5749 176.19 90.0762 176.021C90.584 175.852 91.1504 175.767 91.7754 175.767C92.6608 175.767 93.4193 175.917 94.0508 176.217C94.6888 176.51 95.1771 176.91 95.5156 177.418C95.8542 177.919 96.0234 178.485 96.0234 179.117H93.6699C93.6699 178.837 93.5983 178.577 93.4551 178.336C93.3184 178.088 93.11 177.89 92.8301 177.74C92.5501 177.584 92.1986 177.506 91.7754 177.506C91.3717 177.506 91.0365 177.571 90.7695 177.701C90.5091 177.825 90.3138 177.987 90.1836 178.189C90.0599 178.391 89.998 178.612 89.998 178.853C89.998 179.029 90.0306 179.189 90.0957 179.332C90.1673 179.468 90.2845 179.595 90.4473 179.713C90.61 179.823 90.8314 179.927 91.1113 180.025C91.3978 180.123 91.7559 180.217 92.1855 180.308C92.9928 180.478 93.6862 180.696 94.2656 180.963C94.8516 181.223 95.3008 181.562 95.6133 181.978C95.9258 182.388 96.082 182.909 96.082 183.541C96.082 184.01 95.9811 184.439 95.7793 184.83C95.584 185.214 95.2975 185.549 94.9199 185.836C94.5423 186.116 94.0898 186.334 93.5625 186.49C93.0417 186.646 92.4557 186.724 91.8047 186.724C90.8477 186.724 90.0371 186.555 89.373 186.217C88.709 185.871 88.2044 185.432 87.8594 184.898C87.5208 184.358 87.3516 183.798 87.3516 183.218H89.627C89.653 183.655 89.7734 184.003 89.9883 184.263C90.2096 184.517 90.4831 184.703 90.8086 184.82C91.1406 184.931 91.4824 184.986 91.834 184.986C92.2572 184.986 92.612 184.931 92.8984 184.82C93.1849 184.703 93.403 184.547 93.5527 184.351C93.7025 184.149 93.7773 183.922 93.7773 183.668ZM104.07 183.668C104.07 183.433 104.012 183.222 103.895 183.033C103.777 182.838 103.553 182.662 103.221 182.506C102.895 182.349 102.413 182.206 101.775 182.076C101.215 181.952 100.701 181.806 100.232 181.636C99.7702 181.461 99.373 181.249 99.041 181.002C98.709 180.754 98.4518 180.461 98.2695 180.123C98.0872 179.784 97.9961 179.394 97.9961 178.951C97.9961 178.521 98.0905 178.114 98.2793 177.73C98.4681 177.346 98.7383 177.008 99.0898 176.715C99.4414 176.422 99.8678 176.19 100.369 176.021C100.877 175.852 101.443 175.767 102.068 175.767C102.954 175.767 103.712 175.917 104.344 176.217C104.982 176.51 105.47 176.91 105.809 177.418C106.147 177.919 106.316 178.485 106.316 179.117H103.963C103.963 178.837 103.891 178.577 103.748 178.336C103.611 178.088 103.403 177.89 103.123 177.74C102.843 177.584 102.492 177.506 102.068 177.506C101.665 177.506 101.329 177.571 101.062 177.701C100.802 177.825 100.607 177.987 100.477 178.189C100.353 178.391 100.291 178.612 100.291 178.853C100.291 179.029 100.324 179.189 100.389 179.332C100.46 179.468 100.577 179.595 100.74 179.713C100.903 179.823 101.124 179.927 101.404 180.025C101.691 180.123 102.049 180.217 102.479 180.308C103.286 180.478 103.979 180.696 104.559 180.963C105.145 181.223 105.594 181.562 105.906 181.978C106.219 182.388 106.375 182.909 106.375 183.541C106.375 184.01 106.274 184.439 106.072 184.83C105.877 185.214 105.59 185.549 105.213 185.836C104.835 186.116 104.383 186.334 103.855 186.49C103.335 186.646 102.749 186.724 102.098 186.724C101.141 186.724 100.33 186.555 99.666 186.217C99.002 185.871 98.4974 185.432 98.1523 184.898C97.8138 184.358 97.6445 183.798 97.6445 183.218H99.9199C99.946 183.655 100.066 184.003 100.281 184.263C100.503 184.517 100.776 184.703 101.102 184.82C101.434 184.931 101.775 184.986 102.127 184.986C102.55 184.986 102.905 184.931 103.191 184.82C103.478 184.703 103.696 184.547 103.846 184.351C103.995 184.149 104.07 183.922 104.07 183.668Z" fill="black"/>
<path d="M54.2754 73.2263H50.5742V71.2829H54.2754C54.9199 71.2829 55.4408 71.1788 55.8379 70.9704C56.235 70.7621 56.5247 70.4757 56.707 70.1111C56.8958 69.74 56.9902 69.3168 56.9902 68.8415C56.9902 68.3923 56.8958 67.9724 56.707 67.5818C56.5247 67.1846 56.235 66.8656 55.8379 66.6247C55.4408 66.3839 54.9199 66.2634 54.2754 66.2634H51.3262V78.529H48.875V64.3103H54.2754C55.3757 64.3103 56.3099 64.5056 57.0781 64.8962C57.8529 65.2803 58.4421 65.8142 58.8457 66.4978C59.2493 67.1749 59.4512 67.9496 59.4512 68.822C59.4512 69.74 59.2493 70.5277 58.8457 71.1853C58.4421 71.8428 57.8529 72.3474 57.0781 72.699C56.3099 73.0505 55.3757 73.2263 54.2754 73.2263ZM67.2539 76.4099V71.3708C67.2539 70.9932 67.1855 70.6677 67.0488 70.3943C66.9121 70.1208 66.7038 69.9092 66.4238 69.7595C66.1504 69.6098 65.8053 69.5349 65.3887 69.5349C65.0046 69.5349 64.6725 69.6 64.3926 69.7302C64.1126 69.8604 63.8945 70.0362 63.7383 70.2576C63.582 70.4789 63.5039 70.7296 63.5039 71.0095H61.1602C61.1602 70.5928 61.2611 70.1892 61.4629 69.7986C61.6647 69.4079 61.9577 69.0596 62.3418 68.7536C62.7259 68.4477 63.1849 68.2068 63.7188 68.031C64.2526 67.8552 64.8516 67.7673 65.5156 67.7673C66.3099 67.7673 67.013 67.9008 67.625 68.1677C68.2435 68.4346 68.7285 68.8383 69.0801 69.3786C69.4382 69.9125 69.6172 70.5831 69.6172 71.3904V76.0876C69.6172 76.5694 69.6497 77.0023 69.7148 77.3865C69.7865 77.7641 69.8874 78.0928 70.0176 78.3728V78.529H67.6055C67.4948 78.2751 67.4069 77.9529 67.3418 77.5622C67.2832 77.1651 67.2539 76.781 67.2539 76.4099ZM67.5957 72.1033L67.6152 73.5583H65.9258C65.4896 73.5583 65.1055 73.6007 64.7734 73.6853C64.4414 73.7634 64.1647 73.8806 63.9434 74.0368C63.722 74.1931 63.556 74.3819 63.4453 74.6033C63.3346 74.8246 63.2793 75.0753 63.2793 75.3552C63.2793 75.6352 63.3444 75.8923 63.4746 76.1267C63.6048 76.3546 63.7936 76.5336 64.041 76.6638C64.2949 76.794 64.6009 76.8591 64.959 76.8591C65.4408 76.8591 65.8607 76.7615 66.2188 76.5661C66.5833 76.3643 66.8698 76.1202 67.0781 75.8337C67.2865 75.5408 67.3971 75.2641 67.4102 75.0036L68.1719 76.0486C68.0938 76.3155 67.9603 76.602 67.7715 76.9079C67.5827 77.2139 67.3353 77.5069 67.0293 77.7868C66.7298 78.0603 66.3685 78.2849 65.9453 78.4607C65.5286 78.6365 65.0469 78.7243 64.5 78.7243C63.8099 78.7243 63.1947 78.5876 62.6543 78.3142C62.1139 78.0342 61.6908 77.6599 61.3848 77.1911C61.0788 76.7159 60.9258 76.1788 60.9258 75.5798C60.9258 75.0199 61.0299 74.5251 61.2383 74.0954C61.4531 73.6592 61.7656 73.2947 62.1758 73.0017C62.5924 72.7087 63.1003 72.4874 63.6992 72.3376C64.2982 72.1814 64.9818 72.1033 65.75 72.1033H67.5957ZM74.5977 67.9626V78.529H72.2344V67.9626H74.5977ZM72.0781 65.1892C72.0781 64.8311 72.1953 64.5349 72.4297 64.3005C72.6706 64.0596 73.0026 63.9392 73.4258 63.9392C73.8424 63.9392 74.1712 64.0596 74.4121 64.3005C74.653 64.5349 74.7734 64.8311 74.7734 65.1892C74.7734 65.5408 74.653 65.8337 74.4121 66.0681C74.1712 66.3025 73.8424 66.4197 73.4258 66.4197C73.0026 66.4197 72.6706 66.3025 72.4297 66.0681C72.1953 65.8337 72.0781 65.5408 72.0781 65.1892ZM79.5098 70.2185V78.529H77.1562V67.9626H79.373L79.5098 70.2185ZM79.0898 72.8552L78.3281 72.8454C78.3346 72.0967 78.4388 71.4099 78.6406 70.7849C78.849 70.1599 79.1354 69.6228 79.5 69.1736C79.8711 68.7243 80.3138 68.3793 80.8281 68.1384C81.3424 67.891 81.9154 67.7673 82.5469 67.7673C83.0547 67.7673 83.5137 67.8389 83.9238 67.9822C84.3405 68.1189 84.6953 68.3435 84.9883 68.656C85.2878 68.9685 85.5156 69.3754 85.6719 69.8767C85.8281 70.3715 85.9062 70.9802 85.9062 71.7029V78.529H83.543V71.6931C83.543 71.1853 83.4681 70.7849 83.3184 70.4919C83.1751 70.1924 82.9635 69.9809 82.6836 69.8572C82.4102 69.727 82.0684 69.6618 81.6582 69.6618C81.2546 69.6618 80.8932 69.7465 80.5742 69.9158C80.2552 70.085 79.985 70.3161 79.7637 70.6091C79.5488 70.9021 79.3828 71.2406 79.2656 71.6247C79.1484 72.0089 79.0898 72.419 79.0898 72.8552ZM90.5156 76.2634L90.5059 77.9431C90.5059 78.6072 90.3398 79.2908 90.0078 79.9939C89.6758 80.697 89.2363 81.2764 88.6895 81.7322L87.4297 80.9997C87.612 80.7068 87.778 80.4105 87.9277 80.1111C88.0775 79.8116 88.1979 79.4926 88.2891 79.154C88.3802 78.8155 88.4258 78.4411 88.4258 78.031V76.2634H90.5156ZM37.166 97.8669C37.166 97.574 37.1204 97.3135 37.0293 97.0857C36.9447 96.8578 36.7917 96.6495 36.5703 96.4607C36.349 96.2719 36.0365 96.0896 35.6328 95.9138C35.2357 95.7315 34.7279 95.546 34.1094 95.3572C33.4323 95.1488 32.8073 94.9177 32.2344 94.6638C31.668 94.4034 31.1732 94.1039 30.75 93.7654C30.3268 93.4203 29.998 93.0264 29.7637 92.5837C29.5293 92.1345 29.4121 91.6169 29.4121 91.031C29.4121 90.4516 29.5326 89.9242 29.7734 89.449C30.0208 88.9737 30.3691 88.5635 30.8184 88.2185C31.2741 87.8669 31.8112 87.5967 32.4297 87.4079C33.0482 87.2126 33.7318 87.115 34.4805 87.115C35.5352 87.115 36.4434 87.3103 37.2051 87.7009C37.9733 88.0915 38.5625 88.6156 38.9727 89.2732C39.3893 89.9307 39.5977 90.6566 39.5977 91.4509H37.166C37.166 90.9822 37.0651 90.5688 36.8633 90.2107C36.668 89.8461 36.3685 89.5596 35.9648 89.3513C35.5677 89.143 35.0632 89.0388 34.4512 89.0388C33.8717 89.0388 33.39 89.1267 33.0059 89.3025C32.6217 89.4783 32.3353 89.7159 32.1465 90.0154C31.9577 90.3148 31.8633 90.6534 31.8633 91.031C31.8633 91.2979 31.9251 91.5421 32.0488 91.7634C32.1725 91.9783 32.3613 92.1801 32.6152 92.3689C32.8691 92.5512 33.1882 92.7237 33.5723 92.8865C33.9564 93.0492 34.4089 93.2055 34.9297 93.3552C35.7174 93.5896 36.4043 93.85 36.9902 94.1365C37.5762 94.4164 38.0645 94.7354 38.4551 95.0935C38.8457 95.4516 39.1387 95.8585 39.334 96.3142C39.5293 96.7634 39.627 97.2745 39.627 97.8474C39.627 98.4464 39.5065 98.9867 39.2656 99.4685C39.0247 99.9438 38.6797 100.351 38.2305 100.689C37.7878 101.021 37.2539 101.278 36.6289 101.461C36.0104 101.636 35.3203 101.724 34.5586 101.724C33.875 101.724 33.2012 101.633 32.5371 101.451C31.8796 101.269 31.2806 100.992 30.7402 100.621C30.1999 100.243 29.7702 99.7745 29.4512 99.2146C29.1322 98.6482 28.9727 97.9874 28.9727 97.2322H31.4238C31.4238 97.6944 31.502 98.0883 31.6582 98.4138C31.821 98.7393 32.0456 99.0063 32.332 99.2146C32.6185 99.4164 32.9505 99.5661 33.3281 99.6638C33.7122 99.7615 34.1224 99.8103 34.5586 99.8103C35.1315 99.8103 35.61 99.7289 35.9941 99.5661C36.3848 99.4034 36.6777 99.1755 36.873 98.8826C37.0684 98.5896 37.166 98.251 37.166 97.8669ZM47.918 99.0388V90.9626H50.2812V101.529H48.0547L47.918 99.0388ZM48.25 96.8415L49.041 96.822C49.041 97.5316 48.9629 98.1859 48.8066 98.7849C48.6504 99.3773 48.4095 99.8949 48.084 100.338C47.7585 100.774 47.3418 101.116 46.834 101.363C46.3262 101.604 45.7174 101.724 45.0078 101.724C44.4935 101.724 44.0215 101.649 43.5918 101.5C43.1621 101.35 42.791 101.119 42.4785 100.806C42.1725 100.494 41.9349 100.087 41.7656 99.5857C41.5964 99.0844 41.5117 98.4854 41.5117 97.7888V90.9626H43.8652V97.8083C43.8652 98.1924 43.9108 98.5147 44.002 98.7751C44.0931 99.029 44.2168 99.2341 44.373 99.3904C44.5293 99.5466 44.7116 99.6573 44.9199 99.7224C45.1283 99.7875 45.3496 99.8201 45.584 99.8201C46.2546 99.8201 46.7819 99.6898 47.166 99.4294C47.5566 99.1625 47.8333 98.8044 47.9961 98.3552C48.1654 97.906 48.25 97.4014 48.25 96.8415ZM55.877 101.529H53.5234V89.947C53.5234 89.1592 53.6699 88.4984 53.9629 87.9646C54.2624 87.4242 54.6888 87.0173 55.2422 86.7439C55.7956 86.4639 56.4499 86.324 57.2051 86.324C57.4395 86.324 57.6706 86.3402 57.8984 86.3728C58.1263 86.3988 58.3477 86.4411 58.5625 86.4997L58.5039 88.3161C58.3737 88.2836 58.2305 88.2608 58.0742 88.2478C57.9245 88.2348 57.7617 88.2283 57.5859 88.2283C57.2279 88.2283 56.9186 88.2966 56.6582 88.4333C56.4043 88.5635 56.209 88.7556 56.0723 89.0095C55.9421 89.2634 55.877 89.5759 55.877 89.947V101.529ZM58.0547 90.9626V92.6814H51.9023V90.9626H58.0547ZM62.9473 101.529H60.5938V89.947C60.5938 89.1592 60.7402 88.4984 61.0332 87.9646C61.3327 87.4242 61.7591 87.0173 62.3125 86.7439C62.8659 86.4639 63.5202 86.324 64.2754 86.324C64.5098 86.324 64.7409 86.3402 64.9688 86.3728C65.1966 86.3988 65.418 86.4411 65.6328 86.4997L65.5742 88.3161C65.444 88.2836 65.3008 88.2608 65.1445 88.2478C64.9948 88.2348 64.832 88.2283 64.6562 88.2283C64.2982 88.2283 63.9889 88.2966 63.7285 88.4333C63.4746 88.5635 63.2793 88.7556 63.1426 89.0095C63.0124 89.2634 62.9473 89.5759 62.9473 89.947V101.529ZM65.125 90.9626V92.6814H58.9727V90.9626H65.125ZM71.2578 101.724C70.4766 101.724 69.7702 101.597 69.1387 101.343C68.5137 101.083 67.9798 100.722 67.5371 100.26C67.1009 99.7973 66.7656 99.2536 66.5312 98.6286C66.2969 98.0036 66.1797 97.3298 66.1797 96.6072V96.2165C66.1797 95.3897 66.3001 94.641 66.541 93.9704C66.7819 93.2999 67.1172 92.727 67.5469 92.2517C67.9766 91.7699 68.4844 91.4021 69.0703 91.1482C69.6562 90.8943 70.291 90.7673 70.9746 90.7673C71.7298 90.7673 72.3906 90.8943 72.957 91.1482C73.5234 91.4021 73.9922 91.7602 74.3633 92.2224C74.7409 92.6781 75.0208 93.2217 75.2031 93.8533C75.3919 94.4848 75.4863 95.1814 75.4863 95.9431V96.949H67.3223V95.2595H73.1621V95.074C73.1491 94.6508 73.0645 94.2536 72.9082 93.8826C72.7585 93.5115 72.5273 93.212 72.2148 92.9841C71.9023 92.7563 71.4857 92.6423 70.9648 92.6423C70.5742 92.6423 70.2259 92.727 69.9199 92.8962C69.6204 93.059 69.3698 93.2966 69.168 93.6091C68.9661 93.9216 68.8099 94.2992 68.6992 94.7419C68.5951 95.1781 68.543 95.6697 68.543 96.2165V96.6072C68.543 97.0694 68.6048 97.4991 68.7285 97.8962C68.8587 98.2868 69.0475 98.6286 69.2949 98.9216C69.5423 99.2146 69.8418 99.4457 70.1934 99.615C70.5449 99.7777 70.9453 99.8591 71.3945 99.8591C71.9609 99.8591 72.4655 99.7452 72.9082 99.5173C73.3509 99.2895 73.735 98.9672 74.0605 98.5505L75.3008 99.7517C75.0729 100.084 74.7767 100.403 74.4121 100.709C74.0475 101.008 73.6016 101.252 73.0742 101.441C72.5534 101.63 71.9479 101.724 71.2578 101.724ZM79.6855 92.9743V101.529H77.332V90.9626H79.5781L79.6855 92.9743ZM82.918 90.8943L82.8984 93.0818C82.7552 93.0557 82.599 93.0362 82.4297 93.0232C82.2669 93.0102 82.1042 93.0036 81.9414 93.0036C81.5378 93.0036 81.1829 93.0622 80.877 93.1794C80.571 93.2901 80.3138 93.4529 80.1055 93.6677C79.9036 93.876 79.7474 94.1299 79.6367 94.4294C79.526 94.7289 79.4609 95.0642 79.4414 95.4353L78.9043 95.4743C78.9043 94.8103 78.9694 94.1951 79.0996 93.6286C79.2298 93.0622 79.4251 92.5642 79.6855 92.1345C79.9525 91.7048 80.2845 91.3695 80.6816 91.1286C81.0853 90.8878 81.5508 90.7673 82.0781 90.7673C82.2214 90.7673 82.3743 90.7803 82.5371 90.8064C82.7064 90.8324 82.8333 90.8617 82.918 90.8943ZM86.9121 90.9626V101.529H84.5488V90.9626H86.9121ZM84.3926 88.1892C84.3926 87.8311 84.5098 87.5349 84.7441 87.3005C84.985 87.0596 85.3171 86.9392 85.7402 86.9392C86.1569 86.9392 86.4857 87.0596 86.7266 87.3005C86.9674 87.5349 87.0879 87.8311 87.0879 88.1892C87.0879 88.5408 86.9674 88.8337 86.7266 89.0681C86.4857 89.3025 86.1569 89.4197 85.7402 89.4197C85.3171 89.4197 84.985 89.3025 84.7441 89.0681C84.5098 88.8337 84.3926 88.5408 84.3926 88.1892ZM91.8242 93.2185V101.529H89.4707V90.9626H91.6875L91.8242 93.2185ZM91.4043 95.8552L90.6426 95.8454C90.6491 95.0967 90.7533 94.4099 90.9551 93.7849C91.1634 93.1599 91.4499 92.6228 91.8145 92.1736C92.1855 91.7243 92.6283 91.3793 93.1426 91.1384C93.6569 90.891 94.2298 90.7673 94.8613 90.7673C95.3691 90.7673 95.8281 90.8389 96.2383 90.9822C96.6549 91.1189 97.0098 91.3435 97.3027 91.656C97.6022 91.9685 97.8301 92.3754 97.9863 92.8767C98.1426 93.3715 98.2207 93.9802 98.2207 94.7029V101.529H95.8574V94.6931C95.8574 94.1853 95.7826 93.7849 95.6328 93.4919C95.4896 93.1924 95.278 92.9809 94.998 92.8572C94.7246 92.727 94.3828 92.6618 93.9727 92.6618C93.569 92.6618 93.2077 92.7465 92.8887 92.9158C92.5697 93.085 92.2995 93.3161 92.0781 93.6091C91.8633 93.9021 91.6973 94.2406 91.5801 94.6247C91.4629 95.0089 91.4043 95.419 91.4043 95.8552ZM107.391 90.9626H109.529V101.236C109.529 102.187 109.327 102.994 108.924 103.658C108.52 104.322 107.957 104.827 107.234 105.172C106.512 105.523 105.675 105.699 104.725 105.699C104.321 105.699 103.872 105.64 103.377 105.523C102.889 105.406 102.413 105.217 101.951 104.957C101.495 104.703 101.115 104.368 100.809 103.951L101.912 102.564C102.29 103.013 102.706 103.342 103.162 103.551C103.618 103.759 104.096 103.863 104.598 103.863C105.138 103.863 105.597 103.762 105.975 103.56C106.359 103.365 106.655 103.075 106.863 102.691C107.072 102.307 107.176 101.838 107.176 101.285V93.3552L107.391 90.9626ZM100.213 96.363V96.1579C100.213 95.3572 100.311 94.628 100.506 93.9704C100.701 93.3064 100.981 92.7367 101.346 92.2615C101.71 91.7797 102.153 91.4118 102.674 91.1579C103.195 90.8975 103.784 90.7673 104.441 90.7673C105.125 90.7673 105.708 90.891 106.189 91.1384C106.678 91.3858 107.085 91.7406 107.41 92.2029C107.736 92.6586 107.99 93.2055 108.172 93.8435C108.361 94.475 108.501 95.1781 108.592 95.9529V96.6072C108.507 97.3624 108.364 98.0525 108.162 98.6775C107.96 99.3025 107.693 99.8428 107.361 100.299C107.029 100.754 106.619 101.106 106.131 101.353C105.649 101.601 105.079 101.724 104.422 101.724C103.777 101.724 103.195 101.591 102.674 101.324C102.16 101.057 101.717 100.683 101.346 100.201C100.981 99.7191 100.701 99.1527 100.506 98.5017C100.311 97.8441 100.213 97.1313 100.213 96.363ZM102.566 96.1579V96.363C102.566 96.8448 102.612 97.294 102.703 97.7107C102.801 98.1273 102.947 98.4952 103.143 98.8142C103.344 99.1267 103.598 99.3741 103.904 99.5564C104.217 99.7322 104.585 99.8201 105.008 99.8201C105.561 99.8201 106.014 99.7029 106.365 99.4685C106.723 99.2341 106.997 98.9184 107.186 98.5212C107.381 98.1176 107.518 97.6684 107.596 97.1736V95.406C107.557 95.0219 107.475 94.6638 107.352 94.3318C107.234 93.9997 107.075 93.71 106.873 93.4626C106.671 93.2087 106.417 93.0134 106.111 92.8767C105.805 92.7335 105.444 92.6618 105.027 92.6618C104.604 92.6618 104.236 92.753 103.924 92.9353C103.611 93.1176 103.354 93.3682 103.152 93.6872C102.957 94.0063 102.811 94.3773 102.713 94.8005C102.615 95.2237 102.566 95.6762 102.566 96.1579Z" fill="black"/>
<path d="M163.504 57.1135C162.722 57.3877 162.31 58.2436 162.585 59.0254L167.052 71.7649C167.326 72.5467 168.182 72.9582 168.963 72.684C169.745 72.4099 170.157 71.554 169.883 70.7722L165.912 59.4482L177.236 55.4774C178.018 55.2033 178.429 54.3474 178.155 53.5656C177.881 52.7838 177.025 52.3723 176.243 52.6464L163.504 57.1135ZM216.65 82.1772L164.65 57.1772L163.35 59.8809L215.35 84.8809L216.65 82.1772Z" fill="black"/>
<path d="M540.281 89.7252C541.106 89.802 541.837 89.1956 541.913 88.3707L543.165 74.9289C543.242 74.104 542.636 73.3731 541.811 73.2963C540.986 73.2195 540.255 73.8259 540.178 74.6507L539.065 86.599L527.117 85.4864C526.292 85.4096 525.561 86.016 525.485 86.8409C525.408 87.6657 526.014 88.3967 526.839 88.4735L540.281 89.7252ZM502.426 44.7841L539.265 89.1894L541.574 87.2739L504.735 42.8686L502.426 44.7841Z" fill="black"/>
<path d="M362.612 30.1396C362.137 29.461 361.201 29.2961 360.523 29.7713L349.464 37.5145C348.786 37.9897 348.621 38.925 349.096 39.6036C349.571 40.2822 350.506 40.4472 351.185 39.972L361.015 33.0891L367.898 42.9189C368.373 43.5975 369.308 43.7624 369.987 43.2873C370.665 42.8121 370.83 41.8768 370.355 41.1982L362.612 30.1396ZM352.094 92.3185L362.86 31.2605L359.906 30.7395L349.14 91.7976L352.094 92.3185Z" fill="black"/>
<path d="M222.061 169.59C222.646 169.004 222.646 168.054 222.061 167.468L212.515 157.922C211.929 157.337 210.979 157.337 210.393 157.922C209.808 158.508 209.808 159.458 210.393 160.044L218.879 168.529L210.393 177.014C209.808 177.6 209.808 178.55 210.393 179.136C210.979 179.721 211.929 179.721 212.515 179.136L222.061 169.59ZM159 170.029H221V167.029H159V170.029Z" fill="black"/>
<path d="M388.061 169.59C388.646 169.004 388.646 168.054 388.061 167.468L378.515 157.922C377.929 157.337 376.979 157.337 376.393 157.922C375.808 158.508 375.808 159.458 376.393 160.044L384.879 168.529L376.393 177.014C375.808 177.6 375.808 178.55 376.393 179.136C376.979 179.721 377.929 179.721 378.515 179.136L388.061 169.59ZM325 170.029H387V167.029H325V170.029Z" fill="black"/>
<path d="M554.061 169.59C554.646 169.004 554.646 168.054 554.061 167.468L544.515 157.922C543.929 157.337 542.979 157.337 542.393 157.922C541.808 158.508 541.808 159.458 542.393 160.044L550.879 168.529L542.393 177.014C541.808 177.6 541.808 178.55 542.393 179.136C542.979 179.721 543.929 179.721 544.515 179.136L554.061 169.59ZM491 170.029H553V167.029H491V170.029Z" fill="black"/>
</svg>
