<svg width="697" height="928" viewBox="0 0 697 928" fill="none" xmlns="http://www.w3.org/2000/svg">
<g clip-path="url(#clip0_33_106)">
<rect width="697" height="928" fill="url(#paint0_radial_33_106)"/>
<path fill-rule="evenodd" clip-rule="evenodd" d="M364.889 147.631C266.308 152.99 191.87 224.306 181.686 323.151C180.024 339.274 165.667 342.399 143.806 331.399C136.183 327.563 132.286 325.19 109.403 310.439C85.7199 295.172 78.3016 292.729 68.9304 297.114C43.9736 308.794 37.4951 350.367 49.5456 421.532C51.0174 430.228 52.2231 437.491 52.2231 437.671C52.2231 438.985 54.8289 437.174 60.1734 432.146C90.2716 403.829 105.572 397.963 131.125 404.937C146.657 409.176 149.175 409.559 161.278 409.527L172.725 409.498L173.113 412.665C173.327 414.408 173.881 420.558 174.345 426.333C192.836 656.447 218.732 676.797 446.188 633.5C484.364 626.234 391.811 632.514 426.5 655.5C436.753 662.294 425.12 651.912 424 645.5C416.678 603.579 509.146 665.164 433.279 655.5C394.847 650.605 458.37 631.777 469 591C482.5 553.5 479.692 490.624 500.027 463.573C506.595 454.835 510.041 453.666 518.243 457.385C531.315 463.312 541.107 463.819 559.014 459.499C586.841 452.784 604.136 459.271 639.287 489.607C643.692 493.408 647.416 496.39 647.561 496.231C648.144 495.601 652.683 480.567 655.278 470.667C673.373 401.659 664.667 340.726 636.723 340.803C631.011 340.819 625.917 343.309 610.956 353.391C566.963 383.039 535.223 393.483 535.223 378.311C535.223 376.669 536.938 370.091 539.036 363.691C576.037 250.799 510.128 156.428 388.354 147.943C376.918 147.145 374.442 147.111 364.889 147.631ZM302.659 281.534C323.197 301.782 340 318.627 340 318.967C340 321.739 322.152 326.154 310.833 326.182C267.685 326.29 243.271 285.762 262.783 246.422C264.283 243.4 261.404 240.866 302.659 281.534ZM500.057 294.25C501.76 345.462 441.883 369.258 404.741 332.13C399.708 327.099 396.677 329.092 430.612 315.115C446.439 308.594 467.964 299.652 478.444 295.24C501.333 285.608 499.772 285.68 500.057 294.25ZM247.864 356.527C281.559 411.584 358.825 432.759 433.279 407.343C437.739 405.821 441.512 404.697 441.663 404.848C443.964 407.149 415.077 450.196 412.361 448.516C411.992 448.288 409.519 444.589 406.866 440.294C404.211 436 401.787 432.589 401.481 432.715C401.173 432.841 395.568 438.894 389.023 446.167C382.478 453.438 376.773 459.388 376.344 459.388C375.917 459.388 371.815 452.828 367.232 444.807L358.9 430.226L346.144 446.515C339.129 455.475 333.175 462.563 332.913 462.264C332.65 461.966 330.412 453.498 327.937 443.444C325.465 433.392 323.321 424.943 323.174 424.67C323.025 424.397 317.415 429.733 310.705 436.525C303.996 443.318 298.306 448.677 298.065 448.435C297.822 448.192 295.627 437.83 293.186 425.409C290.746 412.987 288.585 402.659 288.386 402.459C288.184 402.258 282.129 407.202 274.926 413.444L261.833 424.794L261.345 419.924C261.075 417.247 260.599 407.968 260.286 399.306C259.974 390.643 259.537 383.556 259.315 383.556C259.094 383.556 256.494 385.349 253.536 387.542C250.579 389.735 247.973 391.343 247.749 391.119C246.571 389.941 243.528 351.667 244.611 351.667C244.765 351.667 246.228 353.855 247.864 356.527Z" fill="white" fill-opacity="0.2"/>
<g filter="url(#filter0_d_33_106)">
<path d="M80.85 118.83L73.02 123.33V123.51L80.85 128.01V149.97L70.41 156H38.1V93H70.41L80.85 99.03V118.83ZM47.1 127.47V147.9H71.85V127.47H47.1ZM47.1 101.1V119.37H71.85V101.1H47.1ZM106.615 156L96.1746 149.97V90.3H104.905V148.17H115.705V156H106.615ZM131.669 137.55V148.62H149.759V137.55H131.669ZM133.379 156.45L122.939 150.42V135.75L133.379 129.72H149.759V118.83H127.439V111H148.049L158.489 117.03V156.45H156.149L149.759 152.76L143.369 156.45H133.379ZM181.633 118.83V148.17H206.653V156H183.343L172.903 149.97V117.03L183.343 111H206.653V118.83H181.633ZM227.951 90.3V133.41H228.131L246.671 111H257.111L239.741 131.34L259.811 156H249.101L234.521 137.55L227.951 145.29V156H219.221V90.3H227.951ZM300.313 127.65V156H291.313V93H300.313V119.55H330.463V93H339.463V156H330.463V127.65H300.313ZM361.679 137.55V148.62H379.769V137.55H361.679ZM363.389 156.45L352.949 150.42V135.75L363.389 129.72H379.769V118.83H357.449V111H378.059L388.499 117.03V156.45H386.159L379.769 152.76L373.379 156.45H363.389ZM399.313 118.83V111H407.593V103.44L416.323 98.4V111H427.123V118.83H416.323V148.17H427.123V156H418.033L407.593 149.97V118.83H399.313ZM486.608 130.89H473.018V156H464.018V93H496.328L506.768 99.03V124.86L496.328 130.89L510.818 156H500.828L486.608 130.89ZM473.018 101.1V122.79H497.768V101.1H473.018ZM522.093 150.42V111H530.823V148.62H551.613V111H560.343V156.45H553.773L551.613 152.76L545.223 156.45H532.533L522.093 150.42ZM608.579 135.3V149.97L598.139 156H574.739V148.17H599.849V137.1H585.179L574.739 131.07V117.03L585.179 111H607.679V118.83H583.469V129.27H598.139L608.579 135.3ZM619.391 118.83V111H627.671V103.44L636.401 98.4V111H647.201V118.83H636.401V148.17H647.201V156H638.111L627.671 149.97V118.83H619.391Z" fill="white"/>
</g>
<g filter="url(#filter1_d_33_106)">
<path d="M100.326 229.434H91.3906L89.3838 235H86.4834L94.6279 213.672H97.0889L105.248 235H102.362L100.326 229.434ZM92.2402 227.119H99.4912L95.8584 217.144L92.2402 227.119ZM121.083 227.251C121.083 229.663 120.531 231.606 119.428 233.081C118.324 234.556 116.83 235.293 114.945 235.293C113.021 235.293 111.508 234.683 110.404 233.462V241.094H107.694V219.15H110.17L110.302 220.908C111.405 219.541 112.938 218.857 114.901 218.857C116.806 218.857 118.31 219.575 119.413 221.011C120.526 222.446 121.083 224.443 121.083 227.002V227.251ZM118.373 226.943C118.373 225.156 117.992 223.745 117.23 222.71C116.469 221.675 115.424 221.157 114.096 221.157C112.455 221.157 111.225 221.885 110.404 223.34V230.913C111.215 232.358 112.455 233.081 114.125 233.081C115.424 233.081 116.454 232.568 117.216 231.543C117.987 230.508 118.373 228.975 118.373 226.943ZM137.929 227.251C137.929 229.663 137.377 231.606 136.273 233.081C135.17 234.556 133.676 235.293 131.791 235.293C129.867 235.293 128.354 234.683 127.25 233.462V241.094H124.54V219.15H127.016L127.147 220.908C128.251 219.541 129.784 218.857 131.747 218.857C133.651 218.857 135.155 219.575 136.259 221.011C137.372 222.446 137.929 224.443 137.929 227.002V227.251ZM135.219 226.943C135.219 225.156 134.838 223.745 134.076 222.71C133.314 221.675 132.27 221.157 130.941 221.157C129.301 221.157 128.07 221.885 127.25 223.34V230.913C128.061 232.358 129.301 233.081 130.971 233.081C132.27 233.081 133.3 232.568 134.062 231.543C134.833 230.508 135.219 228.975 135.219 226.943ZM144.33 235H141.62V212.5H144.33V235ZM151.625 235H148.915V219.15H151.625V235ZM148.695 214.946C148.695 214.507 148.827 214.136 149.091 213.833C149.364 213.53 149.765 213.379 150.292 213.379C150.819 213.379 151.22 213.53 151.493 213.833C151.767 214.136 151.903 214.507 151.903 214.946C151.903 215.386 151.767 215.752 151.493 216.045C151.22 216.338 150.819 216.484 150.292 216.484C149.765 216.484 149.364 216.338 149.091 216.045C148.827 215.752 148.695 215.386 148.695 214.946ZM162.553 235.293C160.404 235.293 158.656 234.59 157.309 233.184C155.961 231.768 155.287 229.878 155.287 227.515V227.017C155.287 225.444 155.585 224.043 156.181 222.812C156.786 221.572 157.626 220.605 158.7 219.912C159.784 219.209 160.956 218.857 162.216 218.857C164.276 218.857 165.878 219.536 167.021 220.894C168.163 222.251 168.734 224.194 168.734 226.724V227.852H157.997C158.036 229.414 158.49 230.679 159.359 231.646C160.238 232.603 161.352 233.081 162.699 233.081C163.656 233.081 164.467 232.886 165.131 232.495C165.795 232.104 166.376 231.587 166.874 230.942L168.529 232.231C167.201 234.272 165.209 235.293 162.553 235.293ZM162.216 221.084C161.122 221.084 160.204 221.484 159.462 222.285C158.72 223.076 158.261 224.189 158.085 225.625H166.024V225.42C165.946 224.043 165.575 222.979 164.911 222.227C164.247 221.465 163.349 221.084 162.216 221.084ZM171.225 226.943C171.225 224.512 171.801 222.559 172.953 221.084C174.105 219.6 175.614 218.857 177.479 218.857C179.335 218.857 180.805 219.492 181.889 220.762V212.5H184.599V235H182.108L181.977 233.301C180.893 234.629 179.384 235.293 177.45 235.293C175.614 235.293 174.115 234.541 172.953 233.037C171.801 231.533 171.225 229.57 171.225 227.148V226.943ZM173.935 227.251C173.935 229.048 174.306 230.454 175.048 231.47C175.79 232.485 176.815 232.993 178.124 232.993C179.843 232.993 181.098 232.222 181.889 230.679V223.398C181.078 221.904 179.833 221.157 178.153 221.157C176.825 221.157 175.79 221.67 175.048 222.695C174.306 223.721 173.935 225.239 173.935 227.251ZM195.541 226.929C195.541 225.376 195.844 223.979 196.449 222.739C197.064 221.499 197.914 220.542 198.998 219.868C200.092 219.194 201.337 218.857 202.733 218.857C204.892 218.857 206.635 219.604 207.963 221.099C209.301 222.593 209.97 224.58 209.97 227.061V227.251C209.97 228.794 209.672 230.181 209.076 231.411C208.49 232.632 207.646 233.584 206.542 234.268C205.448 234.951 204.188 235.293 202.763 235.293C200.614 235.293 198.871 234.546 197.533 233.052C196.205 231.558 195.541 229.58 195.541 227.119V226.929ZM198.266 227.251C198.266 229.009 198.671 230.42 199.481 231.484C200.302 232.549 201.396 233.081 202.763 233.081C204.14 233.081 205.233 232.544 206.044 231.47C206.854 230.386 207.26 228.872 207.26 226.929C207.26 225.19 206.845 223.784 206.015 222.71C205.194 221.626 204.101 221.084 202.733 221.084C201.396 221.084 200.316 221.616 199.496 222.681C198.676 223.745 198.266 225.269 198.266 227.251ZM214.701 235V221.245H212.196V219.15H214.701V217.524C214.701 215.825 215.155 214.512 216.063 213.584C216.972 212.656 218.256 212.192 219.916 212.192C220.541 212.192 221.161 212.275 221.776 212.441L221.63 214.639C221.171 214.551 220.683 214.507 220.165 214.507C219.286 214.507 218.607 214.766 218.129 215.283C217.65 215.791 217.411 216.523 217.411 217.48V219.15H220.795V221.245H217.411V235H214.701ZM225.131 235V221.245H222.626V219.15H225.131V217.524C225.131 215.825 225.585 214.512 226.493 213.584C227.401 212.656 228.686 212.192 230.346 212.192C230.971 212.192 231.591 212.275 232.206 212.441L232.06 214.639C231.601 214.551 231.112 214.507 230.595 214.507C229.716 214.507 229.037 214.766 228.559 215.283C228.08 215.791 227.841 216.523 227.841 217.48V219.15H231.225V221.245H227.841V235H225.131ZM240.453 235.293C238.305 235.293 236.557 234.59 235.209 233.184C233.861 231.768 233.188 229.878 233.188 227.515V227.017C233.188 225.444 233.485 224.043 234.081 222.812C234.687 221.572 235.526 220.605 236.601 219.912C237.685 219.209 238.856 218.857 240.116 218.857C242.177 218.857 243.778 219.536 244.921 220.894C246.063 222.251 246.635 224.194 246.635 226.724V227.852H235.897C235.937 229.414 236.391 230.679 237.26 231.646C238.139 232.603 239.252 233.081 240.6 233.081C241.557 233.081 242.367 232.886 243.031 232.495C243.695 232.104 244.276 231.587 244.774 230.942L246.43 232.231C245.102 234.272 243.109 235.293 240.453 235.293ZM240.116 221.084C239.022 221.084 238.104 221.484 237.362 222.285C236.62 223.076 236.161 224.189 235.985 225.625H243.925V225.42C243.847 224.043 243.476 222.979 242.812 222.227C242.147 221.465 241.249 221.084 240.116 221.084ZM252.348 219.15L252.436 221.143C253.646 219.619 255.229 218.857 257.182 218.857C260.531 218.857 262.221 220.747 262.25 224.526V235H259.54V224.512C259.53 223.369 259.267 222.524 258.749 221.978C258.241 221.431 257.445 221.157 256.361 221.157C255.482 221.157 254.711 221.392 254.047 221.86C253.383 222.329 252.865 222.944 252.494 223.706V235H249.784V219.15H252.348ZM275.565 230.796C275.565 230.063 275.287 229.497 274.73 229.097C274.184 228.687 273.222 228.335 271.845 228.042C270.478 227.749 269.389 227.397 268.578 226.987C267.777 226.577 267.182 226.089 266.791 225.522C266.41 224.956 266.22 224.282 266.22 223.501C266.22 222.202 266.767 221.104 267.86 220.205C268.964 219.307 270.37 218.857 272.079 218.857C273.876 218.857 275.331 219.321 276.444 220.249C277.567 221.177 278.129 222.363 278.129 223.809H275.404C275.404 223.066 275.087 222.427 274.452 221.89C273.827 221.353 273.036 221.084 272.079 221.084C271.093 221.084 270.321 221.299 269.765 221.729C269.208 222.158 268.93 222.72 268.93 223.413C268.93 224.067 269.188 224.561 269.706 224.893C270.224 225.225 271.156 225.542 272.504 225.845C273.861 226.147 274.96 226.509 275.8 226.929C276.64 227.349 277.26 227.856 277.66 228.452C278.07 229.038 278.275 229.756 278.275 230.605C278.275 232.021 277.709 233.159 276.576 234.019C275.443 234.868 273.974 235.293 272.167 235.293C270.897 235.293 269.774 235.068 268.798 234.619C267.821 234.17 267.055 233.545 266.498 232.744C265.951 231.934 265.678 231.06 265.678 230.122H268.388C268.437 231.03 268.798 231.753 269.472 232.29C270.155 232.817 271.054 233.081 272.167 233.081C273.192 233.081 274.013 232.876 274.628 232.466C275.253 232.046 275.565 231.489 275.565 230.796ZM284.75 235H282.04V219.15H284.75V235ZM281.82 214.946C281.82 214.507 281.952 214.136 282.216 213.833C282.489 213.53 282.89 213.379 283.417 213.379C283.944 213.379 284.345 213.53 284.618 213.833C284.892 214.136 285.028 214.507 285.028 214.946C285.028 215.386 284.892 215.752 284.618 216.045C284.345 216.338 283.944 216.484 283.417 216.484C282.89 216.484 282.489 216.338 282.216 216.045C281.952 215.752 281.82 215.386 281.82 214.946ZM294.33 231.323L298.256 219.15H301.024L295.341 235H293.275L287.533 219.15H290.302L294.33 231.323ZM310.004 235.293C307.855 235.293 306.107 234.59 304.76 233.184C303.412 231.768 302.738 229.878 302.738 227.515V227.017C302.738 225.444 303.036 224.043 303.632 222.812C304.237 221.572 305.077 220.605 306.151 219.912C307.235 219.209 308.407 218.857 309.667 218.857C311.728 218.857 313.329 219.536 314.472 220.894C315.614 222.251 316.186 224.194 316.186 226.724V227.852H305.448C305.487 229.414 305.941 230.679 306.811 231.646C307.689 232.603 308.803 233.081 310.15 233.081C311.107 233.081 311.918 232.886 312.582 232.495C313.246 232.104 313.827 231.587 314.325 230.942L315.98 232.231C314.652 234.272 312.66 235.293 310.004 235.293ZM309.667 221.084C308.573 221.084 307.655 221.484 306.913 222.285C306.171 223.076 305.712 224.189 305.536 225.625H313.476V225.42C313.397 224.043 313.026 222.979 312.362 222.227C311.698 221.465 310.8 221.084 309.667 221.084ZM336.005 230.796C336.005 230.063 335.727 229.497 335.17 229.097C334.623 228.687 333.661 228.335 332.284 228.042C330.917 227.749 329.828 227.397 329.018 226.987C328.217 226.577 327.621 226.089 327.23 225.522C326.85 224.956 326.659 224.282 326.659 223.501C326.659 222.202 327.206 221.104 328.3 220.205C329.403 219.307 330.81 218.857 332.519 218.857C334.315 218.857 335.771 219.321 336.884 220.249C338.007 221.177 338.568 222.363 338.568 223.809H335.844C335.844 223.066 335.526 222.427 334.892 221.89C334.267 221.353 333.476 221.084 332.519 221.084C331.532 221.084 330.761 221.299 330.204 221.729C329.647 222.158 329.369 222.72 329.369 223.413C329.369 224.067 329.628 224.561 330.146 224.893C330.663 225.225 331.596 225.542 332.943 225.845C334.301 226.147 335.399 226.509 336.239 226.929C337.079 227.349 337.699 227.856 338.1 228.452C338.51 229.038 338.715 229.756 338.715 230.605C338.715 232.021 338.148 233.159 337.016 234.019C335.883 234.868 334.413 235.293 332.606 235.293C331.337 235.293 330.214 235.068 329.237 234.619C328.261 234.17 327.494 233.545 326.938 232.744C326.391 231.934 326.117 231.06 326.117 230.122H328.827C328.876 231.03 329.237 231.753 329.911 232.29C330.595 232.817 331.493 233.081 332.606 233.081C333.632 233.081 334.452 232.876 335.067 232.466C335.692 232.046 336.005 231.489 336.005 230.796ZM348.822 235.293C346.674 235.293 344.926 234.59 343.578 233.184C342.23 231.768 341.557 229.878 341.557 227.515V227.017C341.557 225.444 341.854 224.043 342.45 222.812C343.056 221.572 343.896 220.605 344.97 219.912C346.054 219.209 347.226 218.857 348.485 218.857C350.546 218.857 352.147 219.536 353.29 220.894C354.433 222.251 355.004 224.194 355.004 226.724V227.852H344.267C344.306 229.414 344.76 230.679 345.629 231.646C346.508 232.603 347.621 233.081 348.969 233.081C349.926 233.081 350.736 232.886 351.4 232.495C352.064 232.104 352.646 231.587 353.144 230.942L354.799 232.231C353.471 234.272 351.479 235.293 348.822 235.293ZM348.485 221.084C347.392 221.084 346.474 221.484 345.731 222.285C344.989 223.076 344.53 224.189 344.354 225.625H352.294V225.42C352.216 224.043 351.845 222.979 351.181 222.227C350.517 221.465 349.618 221.084 348.485 221.084ZM364.511 233.081C365.478 233.081 366.322 232.788 367.045 232.202C367.768 231.616 368.168 230.884 368.246 230.005H370.81C370.761 230.913 370.448 231.777 369.872 232.598C369.296 233.418 368.524 234.072 367.558 234.561C366.601 235.049 365.585 235.293 364.511 235.293C362.353 235.293 360.634 234.575 359.354 233.14C358.085 231.694 357.45 229.722 357.45 227.222V226.768C357.45 225.225 357.733 223.853 358.3 222.651C358.866 221.45 359.677 220.518 360.731 219.854C361.796 219.189 363.051 218.857 364.496 218.857C366.273 218.857 367.748 219.39 368.92 220.454C370.102 221.519 370.731 222.9 370.81 224.6H368.246C368.168 223.574 367.777 222.734 367.074 222.08C366.381 221.416 365.521 221.084 364.496 221.084C363.119 221.084 362.05 221.582 361.288 222.578C360.536 223.564 360.16 224.995 360.16 226.87V227.383C360.16 229.209 360.536 230.615 361.288 231.602C362.04 232.588 363.114 233.081 364.511 233.081ZM383.642 233.433C382.587 234.673 381.039 235.293 378.998 235.293C377.309 235.293 376.02 234.805 375.131 233.828C374.252 232.842 373.808 231.387 373.798 229.463V219.15H376.508V229.39C376.508 231.792 377.484 232.993 379.438 232.993C381.508 232.993 382.885 232.222 383.568 230.679V219.15H386.278V235H383.7L383.642 233.433ZM398.07 221.582C397.66 221.514 397.216 221.479 396.737 221.479C394.96 221.479 393.754 222.236 393.119 223.75V235H390.409V219.15H393.046L393.09 220.981C393.979 219.565 395.238 218.857 396.869 218.857C397.396 218.857 397.797 218.926 398.07 219.062V221.582ZM403.52 235H400.81V219.15H403.52V235ZM400.59 214.946C400.59 214.507 400.722 214.136 400.985 213.833C401.259 213.53 401.659 213.379 402.187 213.379C402.714 213.379 403.114 213.53 403.388 213.833C403.661 214.136 403.798 214.507 403.798 214.946C403.798 215.386 403.661 215.752 403.388 216.045C403.114 216.338 402.714 216.484 402.187 216.484C401.659 216.484 401.259 216.338 400.985 216.045C400.722 215.752 400.59 215.386 400.59 214.946ZM411.547 215.312V219.15H414.506V221.245H411.547V231.074C411.547 231.709 411.679 232.188 411.942 232.51C412.206 232.822 412.655 232.979 413.29 232.979C413.603 232.979 414.032 232.92 414.579 232.803V235C413.866 235.195 413.173 235.293 412.499 235.293C411.288 235.293 410.375 234.927 409.76 234.194C409.145 233.462 408.837 232.422 408.837 231.074V221.245H405.951V219.15H408.837V215.312H411.547ZM422.87 231.03L426.562 219.15H429.462L423.09 237.446C422.104 240.083 420.536 241.401 418.388 241.401L417.875 241.357L416.864 241.167V238.97L417.597 239.028C418.515 239.028 419.228 238.843 419.735 238.472C420.253 238.101 420.678 237.422 421.01 236.436L421.61 234.824L415.956 219.15H418.915L422.87 231.03ZM453.368 231.265L456.415 219.15H459.125L454.511 235H452.313L448.461 222.988L444.711 235H442.514L437.914 219.15H440.609L443.729 231.016L447.421 219.15H449.604L453.368 231.265ZM464.838 235H462.128V219.15H464.838V235ZM461.908 214.946C461.908 214.507 462.04 214.136 462.304 213.833C462.577 213.53 462.978 213.379 463.505 213.379C464.032 213.379 464.433 213.53 464.706 213.833C464.979 214.136 465.116 214.507 465.116 214.946C465.116 215.386 464.979 215.752 464.706 216.045C464.433 216.338 464.032 216.484 463.505 216.484C462.978 216.484 462.577 216.338 462.304 216.045C462.04 215.752 461.908 215.386 461.908 214.946ZM472.865 215.312V219.15H475.824V221.245H472.865V231.074C472.865 231.709 472.997 232.188 473.261 232.51C473.524 232.822 473.974 232.979 474.608 232.979C474.921 232.979 475.351 232.92 475.897 232.803V235C475.185 235.195 474.491 235.293 473.817 235.293C472.606 235.293 471.693 234.927 471.078 234.194C470.463 233.462 470.155 232.422 470.155 231.074V221.245H467.27V219.15H470.155V215.312H472.865ZM481.713 221.069C482.914 219.595 484.477 218.857 486.4 218.857C489.75 218.857 491.439 220.747 491.469 224.526V235H488.759V224.512C488.749 223.369 488.485 222.524 487.968 221.978C487.46 221.431 486.664 221.157 485.58 221.157C484.701 221.157 483.93 221.392 483.266 221.86C482.602 222.329 482.084 222.944 481.713 223.706V235H479.003V212.5H481.713V221.069ZM506.645 215.312V219.15H509.604V221.245H506.645V231.074C506.645 231.709 506.776 232.188 507.04 232.51C507.304 232.822 507.753 232.979 508.388 232.979C508.7 232.979 509.13 232.92 509.677 232.803V235C508.964 235.195 508.271 235.293 507.597 235.293C506.386 235.293 505.473 234.927 504.857 234.194C504.242 233.462 503.935 232.422 503.935 231.074V221.245H501.049V219.15H503.935V215.312H506.645ZM515.492 221.069C516.693 219.595 518.256 218.857 520.18 218.857C523.529 218.857 525.219 220.747 525.248 224.526V235H522.538V224.512C522.528 223.369 522.265 222.524 521.747 221.978C521.239 221.431 520.443 221.157 519.359 221.157C518.48 221.157 517.709 221.392 517.045 221.86C516.381 222.329 515.863 222.944 515.492 223.706V235H512.782V212.5H515.492V221.069ZM535.883 235.293C533.734 235.293 531.986 234.59 530.639 233.184C529.291 231.768 528.617 229.878 528.617 227.515V227.017C528.617 225.444 528.915 224.043 529.511 222.812C530.116 221.572 530.956 220.605 532.03 219.912C533.114 219.209 534.286 218.857 535.546 218.857C537.606 218.857 539.208 219.536 540.351 220.894C541.493 222.251 542.064 224.194 542.064 226.724V227.852H531.327C531.366 229.414 531.82 230.679 532.689 231.646C533.568 232.603 534.682 233.081 536.029 233.081C536.986 233.081 537.797 232.886 538.461 232.495C539.125 232.104 539.706 231.587 540.204 230.942L541.859 232.231C540.531 234.272 538.539 235.293 535.883 235.293ZM535.546 221.084C534.452 221.084 533.534 221.484 532.792 222.285C532.05 223.076 531.591 224.189 531.415 225.625H539.354V225.42C539.276 224.043 538.905 222.979 538.241 222.227C537.577 221.465 536.679 221.084 535.546 221.084ZM560.902 226.372H555.893V235H553.065V213.672H560.126C562.528 213.672 564.374 214.219 565.663 215.312C566.962 216.406 567.611 217.998 567.611 220.088C567.611 221.416 567.25 222.573 566.527 223.56C565.814 224.546 564.818 225.283 563.539 225.771L568.549 234.824V235H565.531L560.902 226.372ZM555.893 224.072H560.214C561.61 224.072 562.719 223.711 563.539 222.988C564.369 222.266 564.784 221.299 564.784 220.088C564.784 218.77 564.389 217.759 563.598 217.056C562.816 216.353 561.684 215.996 560.199 215.986H555.893V224.072ZM580.927 233.433C579.872 234.673 578.324 235.293 576.283 235.293C574.594 235.293 573.305 234.805 572.416 233.828C571.537 232.842 571.093 231.387 571.083 229.463V219.15H573.793V229.39C573.793 231.792 574.77 232.993 576.723 232.993C578.793 232.993 580.17 232.222 580.854 230.679V219.15H583.563V235H580.985L580.927 233.433ZM596.923 230.796C596.923 230.063 596.645 229.497 596.088 229.097C595.541 228.687 594.579 228.335 593.202 228.042C591.835 227.749 590.746 227.397 589.936 226.987C589.135 226.577 588.539 226.089 588.148 225.522C587.768 224.956 587.577 224.282 587.577 223.501C587.577 222.202 588.124 221.104 589.218 220.205C590.321 219.307 591.728 218.857 593.437 218.857C595.233 218.857 596.688 219.321 597.802 220.249C598.925 221.177 599.486 222.363 599.486 223.809H596.762C596.762 223.066 596.444 222.427 595.81 221.89C595.185 221.353 594.394 221.084 593.437 221.084C592.45 221.084 591.679 221.299 591.122 221.729C590.565 222.158 590.287 222.72 590.287 223.413C590.287 224.067 590.546 224.561 591.063 224.893C591.581 225.225 592.514 225.542 593.861 225.845C595.219 226.147 596.317 226.509 597.157 226.929C597.997 227.349 598.617 227.856 599.018 228.452C599.428 229.038 599.633 229.756 599.633 230.605C599.633 232.021 599.066 233.159 597.934 234.019C596.801 234.868 595.331 235.293 593.524 235.293C592.255 235.293 591.132 235.068 590.155 234.619C589.179 234.17 588.412 233.545 587.855 232.744C587.309 231.934 587.035 231.06 587.035 230.122H589.745C589.794 231.03 590.155 231.753 590.829 232.29C591.513 232.817 592.411 233.081 593.524 233.081C594.55 233.081 595.37 232.876 595.985 232.466C596.61 232.046 596.923 231.489 596.923 230.796ZM606.84 215.312V219.15H609.799V221.245H606.84V231.074C606.84 231.709 606.972 232.188 607.235 232.51C607.499 232.822 607.948 232.979 608.583 232.979C608.896 232.979 609.325 232.92 609.872 232.803V235C609.159 235.195 608.466 235.293 607.792 235.293C606.581 235.293 605.668 234.927 605.053 234.194C604.438 233.462 604.13 232.422 604.13 231.074V221.245H601.244V219.15H604.13V215.312H606.84ZM208.959 262.251C208.959 264.663 208.407 266.606 207.304 268.081C206.2 269.556 204.706 270.293 202.821 270.293C200.897 270.293 199.384 269.683 198.28 268.462V276.094H195.57V254.15H198.046L198.178 255.908C199.281 254.541 200.814 253.857 202.777 253.857C204.682 253.857 206.186 254.575 207.289 256.011C208.402 257.446 208.959 259.443 208.959 262.002V262.251ZM206.249 261.943C206.249 260.156 205.868 258.745 205.106 257.71C204.345 256.675 203.3 256.157 201.972 256.157C200.331 256.157 199.101 256.885 198.28 258.34V265.913C199.091 267.358 200.331 268.081 202.001 268.081C203.3 268.081 204.33 267.568 205.092 266.543C205.863 265.508 206.249 263.975 206.249 261.943ZM220.077 256.582C219.667 256.514 219.223 256.479 218.744 256.479C216.967 256.479 215.761 257.236 215.126 258.75V270H212.416V254.15H215.053L215.097 255.981C215.985 254.565 217.245 253.857 218.876 253.857C219.403 253.857 219.804 253.926 220.077 254.062V256.582ZM221.571 261.929C221.571 260.376 221.874 258.979 222.479 257.739C223.095 256.499 223.944 255.542 225.028 254.868C226.122 254.194 227.367 253.857 228.764 253.857C230.922 253.857 232.665 254.604 233.993 256.099C235.331 257.593 236 259.58 236 262.061V262.251C236 263.794 235.702 265.181 235.106 266.411C234.521 267.632 233.676 268.584 232.572 269.268C231.479 269.951 230.219 270.293 228.793 270.293C226.645 270.293 224.901 269.546 223.563 268.052C222.235 266.558 221.571 264.58 221.571 262.119V261.929ZM224.296 262.251C224.296 264.009 224.701 265.42 225.512 266.484C226.332 267.549 227.426 268.081 228.793 268.081C230.17 268.081 231.264 267.544 232.074 266.47C232.885 265.386 233.29 263.872 233.29 261.929C233.29 260.19 232.875 258.784 232.045 257.71C231.225 256.626 230.131 256.084 228.764 256.084C227.426 256.084 226.347 256.616 225.526 257.681C224.706 258.745 224.296 260.269 224.296 262.251ZM238.754 261.943C238.754 259.473 239.325 257.51 240.468 256.055C241.61 254.59 243.124 253.857 245.009 253.857C246.942 253.857 248.451 254.541 249.535 255.908L249.667 254.15H252.143V269.619C252.143 271.67 251.532 273.286 250.312 274.468C249.101 275.649 247.47 276.24 245.419 276.24C244.276 276.24 243.158 275.996 242.064 275.508C240.971 275.02 240.136 274.351 239.56 273.501L240.966 271.875C242.128 273.311 243.549 274.028 245.229 274.028C246.547 274.028 247.572 273.657 248.305 272.915C249.047 272.173 249.418 271.128 249.418 269.78V268.418C248.334 269.668 246.854 270.293 244.979 270.293C243.124 270.293 241.62 269.546 240.468 268.052C239.325 266.558 238.754 264.521 238.754 261.943ZM241.479 262.251C241.479 264.038 241.845 265.444 242.577 266.47C243.31 267.485 244.335 267.993 245.653 267.993C247.362 267.993 248.617 267.217 249.418 265.664V258.428C248.588 256.914 247.343 256.157 245.683 256.157C244.364 256.157 243.334 256.67 242.592 257.695C241.85 258.721 241.479 260.239 241.479 262.251ZM263.905 256.582C263.495 256.514 263.051 256.479 262.572 256.479C260.795 256.479 259.589 257.236 258.954 258.75V270H256.244V254.15H258.881L258.925 255.981C259.813 254.565 261.073 253.857 262.704 253.857C263.231 253.857 263.632 253.926 263.905 254.062V256.582ZM275.609 270C275.453 269.688 275.326 269.131 275.229 268.33C273.969 269.639 272.465 270.293 270.717 270.293C269.154 270.293 267.87 269.854 266.864 268.975C265.868 268.086 265.37 266.963 265.37 265.605C265.37 263.955 265.995 262.676 267.245 261.768C268.505 260.85 270.272 260.391 272.548 260.391H275.185V259.146C275.185 258.198 274.901 257.446 274.335 256.89C273.769 256.323 272.934 256.04 271.83 256.04C270.863 256.04 270.053 256.284 269.398 256.772C268.744 257.261 268.417 257.852 268.417 258.545H265.692C265.692 257.754 265.971 256.992 266.527 256.26C267.094 255.518 267.855 254.932 268.812 254.502C269.779 254.072 270.839 253.857 271.991 253.857C273.817 253.857 275.248 254.316 276.283 255.234C277.318 256.143 277.855 257.397 277.895 258.999V266.294C277.895 267.749 278.08 268.906 278.451 269.766V270H275.609ZM271.112 267.935C271.962 267.935 272.768 267.715 273.529 267.275C274.291 266.836 274.843 266.265 275.185 265.562V262.31H273.061C269.74 262.31 268.08 263.281 268.08 265.225C268.08 266.074 268.363 266.738 268.93 267.217C269.496 267.695 270.224 267.935 271.112 267.935ZM284.691 254.15L284.765 255.908C285.927 254.541 287.494 253.857 289.467 253.857C291.684 253.857 293.192 254.707 293.993 256.406C294.521 255.645 295.204 255.029 296.044 254.561C296.894 254.092 297.895 253.857 299.047 253.857C302.523 253.857 304.291 255.698 304.35 259.38V270H301.64V259.541C301.64 258.408 301.381 257.563 300.863 257.007C300.346 256.44 299.477 256.157 298.256 256.157C297.25 256.157 296.415 256.46 295.751 257.065C295.087 257.661 294.701 258.467 294.594 259.482V270H291.869V259.614C291.869 257.31 290.741 256.157 288.485 256.157C286.708 256.157 285.492 256.914 284.838 258.428V270H282.128V254.15H284.691ZM311 254.15L311.073 255.908C312.235 254.541 313.803 253.857 315.775 253.857C317.992 253.857 319.501 254.707 320.302 256.406C320.829 255.645 321.513 255.029 322.353 254.561C323.202 254.092 324.203 253.857 325.355 253.857C328.832 253.857 330.6 255.698 330.658 259.38V270H327.948V259.541C327.948 258.408 327.689 257.563 327.172 257.007C326.654 256.44 325.785 256.157 324.564 256.157C323.559 256.157 322.724 256.46 322.06 257.065C321.396 257.661 321.01 258.467 320.902 259.482V270H318.178V259.614C318.178 257.31 317.05 256.157 314.794 256.157C313.017 256.157 311.801 256.914 311.146 258.428V270H308.437V254.15H311ZM337.704 270H334.994V254.15H337.704V270ZM334.774 249.946C334.774 249.507 334.906 249.136 335.17 248.833C335.443 248.53 335.844 248.379 336.371 248.379C336.898 248.379 337.299 248.53 337.572 248.833C337.846 249.136 337.982 249.507 337.982 249.946C337.982 250.386 337.846 250.752 337.572 251.045C337.299 251.338 336.898 251.484 336.371 251.484C335.844 251.484 335.443 251.338 335.17 251.045C334.906 250.752 334.774 250.386 334.774 249.946ZM344.618 254.15L344.706 256.143C345.917 254.619 347.499 253.857 349.452 253.857C352.802 253.857 354.491 255.747 354.521 259.526V270H351.811V259.512C351.801 258.369 351.537 257.524 351.02 256.978C350.512 256.431 349.716 256.157 348.632 256.157C347.753 256.157 346.981 256.392 346.317 256.86C345.653 257.329 345.136 257.944 344.765 258.706V270H342.055V254.15H344.618ZM357.963 261.943C357.963 259.473 358.534 257.51 359.677 256.055C360.819 254.59 362.333 253.857 364.218 253.857C366.151 253.857 367.66 254.541 368.744 255.908L368.876 254.15H371.352V269.619C371.352 271.67 370.741 273.286 369.521 274.468C368.31 275.649 366.679 276.24 364.628 276.24C363.485 276.24 362.367 275.996 361.273 275.508C360.18 275.02 359.345 274.351 358.769 273.501L360.175 271.875C361.337 273.311 362.758 274.028 364.438 274.028C365.756 274.028 366.781 273.657 367.514 272.915C368.256 272.173 368.627 271.128 368.627 269.78V268.418C367.543 269.668 366.063 270.293 364.188 270.293C362.333 270.293 360.829 269.546 359.677 268.052C358.534 266.558 357.963 264.521 357.963 261.943ZM360.688 262.251C360.688 264.038 361.054 265.444 361.786 266.47C362.519 267.485 363.544 267.993 364.862 267.993C366.571 267.993 367.826 267.217 368.627 265.664V258.428C367.797 256.914 366.552 256.157 364.892 256.157C363.573 256.157 362.543 256.67 361.801 257.695C361.059 258.721 360.688 260.239 360.688 262.251ZM385.839 270H383.129V247.5H385.839V270ZM399.975 270C399.818 269.688 399.691 269.131 399.594 268.33C398.334 269.639 396.83 270.293 395.082 270.293C393.52 270.293 392.235 269.854 391.229 268.975C390.233 268.086 389.735 266.963 389.735 265.605C389.735 263.955 390.36 262.676 391.61 261.768C392.87 260.85 394.638 260.391 396.913 260.391H399.55V259.146C399.55 258.198 399.267 257.446 398.7 256.89C398.134 256.323 397.299 256.04 396.195 256.04C395.229 256.04 394.418 256.284 393.764 256.772C393.109 257.261 392.782 257.852 392.782 258.545H390.058C390.058 257.754 390.336 256.992 390.893 256.26C391.459 255.518 392.221 254.932 393.178 254.502C394.145 254.072 395.204 253.857 396.356 253.857C398.183 253.857 399.613 254.316 400.648 255.234C401.684 256.143 402.221 257.397 402.26 258.999V266.294C402.26 267.749 402.445 268.906 402.816 269.766V270H399.975ZM395.478 267.935C396.327 267.935 397.133 267.715 397.895 267.275C398.656 266.836 399.208 266.265 399.55 265.562V262.31H397.426C394.105 262.31 392.445 263.281 392.445 265.225C392.445 266.074 392.729 266.738 393.295 267.217C393.861 267.695 394.589 267.935 395.478 267.935ZM409.071 254.15L409.159 256.143C410.37 254.619 411.952 253.857 413.905 253.857C417.255 253.857 418.944 255.747 418.974 259.526V270H416.264V259.512C416.254 258.369 415.99 257.524 415.473 256.978C414.965 256.431 414.169 256.157 413.085 256.157C412.206 256.157 411.435 256.392 410.771 256.86C410.106 257.329 409.589 257.944 409.218 258.706V270H406.508V254.15H409.071ZM422.416 261.943C422.416 259.473 422.987 257.51 424.13 256.055C425.272 254.59 426.786 253.857 428.671 253.857C430.604 253.857 432.113 254.541 433.197 255.908L433.329 254.15H435.805V269.619C435.805 271.67 435.194 273.286 433.974 274.468C432.763 275.649 431.132 276.24 429.081 276.24C427.938 276.24 426.82 275.996 425.727 275.508C424.633 275.02 423.798 274.351 423.222 273.501L424.628 271.875C425.79 273.311 427.211 274.028 428.891 274.028C430.209 274.028 431.234 273.657 431.967 272.915C432.709 272.173 433.08 271.128 433.08 269.78V268.418C431.996 269.668 430.517 270.293 428.642 270.293C426.786 270.293 425.282 269.546 424.13 268.052C422.987 266.558 422.416 264.521 422.416 261.943ZM425.141 262.251C425.141 264.038 425.507 265.444 426.239 266.47C426.972 267.485 427.997 267.993 429.315 267.993C431.024 267.993 432.279 267.217 433.08 265.664V258.428C432.25 256.914 431.005 256.157 429.345 256.157C428.026 256.157 426.996 256.67 426.254 257.695C425.512 258.721 425.141 260.239 425.141 262.251ZM449.691 268.433C448.637 269.673 447.089 270.293 445.048 270.293C443.358 270.293 442.069 269.805 441.181 268.828C440.302 267.842 439.857 266.387 439.848 264.463V254.15H442.558V264.39C442.558 266.792 443.534 267.993 445.487 267.993C447.558 267.993 448.935 267.222 449.618 265.679V254.15H452.328V270H449.75L449.691 268.433ZM466.244 270C466.088 269.688 465.961 269.131 465.863 268.33C464.604 269.639 463.1 270.293 461.352 270.293C459.789 270.293 458.505 269.854 457.499 268.975C456.503 268.086 456.005 266.963 456.005 265.605C456.005 263.955 456.63 262.676 457.88 261.768C459.14 260.85 460.907 260.391 463.183 260.391H465.819V259.146C465.819 258.198 465.536 257.446 464.97 256.89C464.403 256.323 463.568 256.04 462.465 256.04C461.498 256.04 460.688 256.284 460.033 256.772C459.379 257.261 459.052 257.852 459.052 258.545H456.327C456.327 257.754 456.605 256.992 457.162 256.26C457.729 255.518 458.49 254.932 459.447 254.502C460.414 254.072 461.474 253.857 462.626 253.857C464.452 253.857 465.883 254.316 466.918 255.234C467.953 256.143 468.49 257.397 468.529 258.999V266.294C468.529 267.749 468.715 268.906 469.086 269.766V270H466.244ZM461.747 267.935C462.597 267.935 463.402 267.715 464.164 267.275C464.926 266.836 465.478 266.265 465.819 265.562V262.31H463.695C460.375 262.31 458.715 263.281 458.715 265.225C458.715 266.074 458.998 266.738 459.564 267.217C460.131 267.695 460.858 267.935 461.747 267.935ZM472.133 261.943C472.133 259.473 472.704 257.51 473.847 256.055C474.989 254.59 476.503 253.857 478.388 253.857C480.321 253.857 481.83 254.541 482.914 255.908L483.046 254.15H485.521V269.619C485.521 271.67 484.911 273.286 483.69 274.468C482.479 275.649 480.849 276.24 478.798 276.24C477.655 276.24 476.537 275.996 475.443 275.508C474.35 275.02 473.515 274.351 472.938 273.501L474.345 271.875C475.507 273.311 476.928 274.028 478.607 274.028C479.926 274.028 480.951 273.657 481.684 272.915C482.426 272.173 482.797 271.128 482.797 269.78V268.418C481.713 269.668 480.233 270.293 478.358 270.293C476.503 270.293 474.999 269.546 473.847 268.052C472.704 266.558 472.133 264.521 472.133 261.943ZM474.857 262.251C474.857 264.038 475.224 265.444 475.956 266.47C476.688 267.485 477.714 267.993 479.032 267.993C480.741 267.993 481.996 267.217 482.797 265.664V258.428C481.967 256.914 480.722 256.157 479.062 256.157C477.743 256.157 476.713 256.67 475.971 257.695C475.229 258.721 474.857 260.239 474.857 262.251ZM496.2 270.293C494.052 270.293 492.304 269.59 490.956 268.184C489.608 266.768 488.935 264.878 488.935 262.515V262.017C488.935 260.444 489.232 259.043 489.828 257.812C490.434 256.572 491.273 255.605 492.348 254.912C493.432 254.209 494.604 253.857 495.863 253.857C497.924 253.857 499.525 254.536 500.668 255.894C501.811 257.251 502.382 259.194 502.382 261.724V262.852H491.645C491.684 264.414 492.138 265.679 493.007 266.646C493.886 267.603 494.999 268.081 496.347 268.081C497.304 268.081 498.114 267.886 498.778 267.495C499.442 267.104 500.023 266.587 500.521 265.942L502.177 267.231C500.849 269.272 498.856 270.293 496.2 270.293ZM495.863 256.084C494.77 256.084 493.852 256.484 493.109 257.285C492.367 258.076 491.908 259.189 491.732 260.625H499.672V260.42C499.594 259.043 499.223 257.979 498.559 257.227C497.895 256.465 496.996 256.084 495.863 256.084Z" fill="white"/>
</g>
<g filter="url(#filter2_d_33_106)">
<path d="M238.779 832.909C235.965 832.1 233.914 831.109 232.626 829.935C231.35 828.75 230.712 827.292 230.712 825.56C230.712 823.6 231.493 821.983 233.054 820.707C234.626 819.419 236.665 818.775 239.172 818.775C240.881 818.775 242.402 819.106 243.735 819.767C245.079 820.427 246.116 821.339 246.845 822.501C247.586 823.663 247.956 824.933 247.956 826.312H244.658C244.658 824.808 244.179 823.629 243.222 822.774C242.265 821.909 240.915 821.476 239.172 821.476C237.554 821.476 236.289 821.834 235.378 822.552C234.478 823.259 234.028 824.244 234.028 825.509C234.028 826.523 234.455 827.383 235.31 828.089C236.175 828.784 237.639 829.422 239.702 830.003C241.775 830.584 243.393 831.228 244.555 831.935C245.729 832.63 246.595 833.444 247.153 834.378C247.722 835.313 248.007 836.412 248.007 837.677C248.007 839.693 247.221 841.311 245.649 842.53C244.077 843.738 241.975 844.342 239.343 844.342C237.634 844.342 236.039 844.017 234.558 843.368C233.076 842.707 231.931 841.807 231.123 840.667C230.325 839.528 229.926 838.235 229.926 836.788H233.225C233.225 838.292 233.777 839.483 234.882 840.36C235.999 841.226 237.486 841.659 239.343 841.659C241.075 841.659 242.402 841.306 243.325 840.599C244.248 839.893 244.709 838.93 244.709 837.711C244.709 836.492 244.282 835.552 243.427 834.891C242.573 834.219 241.023 833.558 238.779 832.909ZM257.783 839.369L262.089 825.509H265.473L258.039 846.854C256.888 849.93 255.06 851.468 252.553 851.468L251.955 851.417L250.776 851.195V848.631L251.63 848.7C252.701 848.7 253.533 848.483 254.125 848.05C254.729 847.617 255.225 846.826 255.612 845.675L256.313 843.795L249.716 825.509H253.168L257.783 839.369ZM271.745 844H268.583V817.75H271.745V844ZM282.922 839.71L287.502 825.509H290.732L284.101 844H281.691L274.992 825.509H278.222L282.922 839.71ZM304.917 844C304.734 843.635 304.586 842.986 304.472 842.052C303.002 843.578 301.248 844.342 299.208 844.342C297.386 844.342 295.887 843.829 294.714 842.804C293.552 841.767 292.971 840.457 292.971 838.873C292.971 836.948 293.7 835.455 295.158 834.396C296.628 833.325 298.69 832.789 301.345 832.789H304.421V831.336C304.421 830.231 304.09 829.354 303.43 828.705C302.769 828.044 301.795 827.713 300.507 827.713C299.379 827.713 298.434 827.998 297.67 828.568C296.907 829.138 296.525 829.827 296.525 830.636H293.347C293.347 829.713 293.671 828.824 294.321 827.97C294.982 827.104 295.87 826.42 296.987 825.919C298.115 825.418 299.351 825.167 300.695 825.167C302.826 825.167 304.495 825.702 305.703 826.773C306.91 827.833 307.537 829.297 307.583 831.166V839.676C307.583 841.374 307.799 842.724 308.232 843.727V844H304.917ZM299.67 841.59C300.661 841.59 301.601 841.334 302.49 840.821C303.378 840.309 304.022 839.642 304.421 838.822V835.028H301.943C298.069 835.028 296.132 836.161 296.132 838.429C296.132 839.42 296.463 840.195 297.124 840.753C297.784 841.311 298.633 841.59 299.67 841.59ZM315.974 844H312.812V825.509H315.974V844ZM312.556 820.604C312.556 820.091 312.709 819.658 313.017 819.305C313.336 818.952 313.803 818.775 314.418 818.775C315.034 818.775 315.501 818.952 315.82 819.305C316.139 819.658 316.298 820.091 316.298 820.604C316.298 821.117 316.139 821.544 315.82 821.886C315.501 822.228 315.034 822.398 314.418 822.398C313.803 822.398 313.336 822.228 313.017 821.886C312.709 821.544 312.556 821.117 312.556 820.604ZM324.04 825.509L324.143 827.833C325.555 826.056 327.401 825.167 329.68 825.167C333.588 825.167 335.559 827.372 335.593 831.781V844H332.431V831.764C332.42 830.431 332.112 829.445 331.508 828.807C330.916 828.169 329.987 827.85 328.723 827.85C327.697 827.85 326.797 828.124 326.022 828.67C325.248 829.217 324.644 829.935 324.211 830.824V844H321.049V825.509H324.04ZM355.861 832.43L352.819 835.592V844H349.538V819.117H352.819V831.422L363.876 819.117H367.841L358.049 830.106L368.61 844H364.68L355.861 832.43ZM378.215 844.342C375.708 844.342 373.669 843.521 372.097 841.881C370.524 840.229 369.738 838.024 369.738 835.267V834.686C369.738 832.852 370.086 831.217 370.781 829.781C371.487 828.334 372.467 827.206 373.72 826.397C374.985 825.577 376.352 825.167 377.822 825.167C380.226 825.167 382.094 825.959 383.427 827.542C384.76 829.126 385.427 831.393 385.427 834.344V835.66H372.9C372.945 837.483 373.475 838.958 374.489 840.086C375.515 841.203 376.813 841.761 378.386 841.761C379.502 841.761 380.448 841.533 381.223 841.078C381.997 840.622 382.675 840.018 383.256 839.266L385.188 840.77C383.638 843.151 381.314 844.342 378.215 844.342ZM377.822 827.765C376.546 827.765 375.475 828.232 374.609 829.166C373.743 830.089 373.208 831.388 373.002 833.062H382.265V832.823C382.174 831.217 381.741 829.975 380.966 829.098C380.192 828.209 379.143 827.765 377.822 827.765ZM398.039 828.346C397.561 828.266 397.042 828.226 396.484 828.226C394.41 828.226 393.003 829.109 392.263 830.875V844H389.101V825.509H392.177L392.229 827.645C393.265 825.993 394.735 825.167 396.638 825.167C397.253 825.167 397.72 825.247 398.039 825.406V828.346ZM406.123 835.438L404.14 837.506V844H400.979V817.75H404.14V833.626L405.832 831.593L411.591 825.509H415.437L408.242 833.233L416.274 844H412.565L406.123 835.438ZM417.863 834.583C417.863 832.772 418.216 831.143 418.923 829.696C419.641 828.249 420.632 827.132 421.896 826.346C423.173 825.56 424.625 825.167 426.254 825.167C428.772 825.167 430.806 826.039 432.355 827.782C433.916 829.525 434.697 831.843 434.697 834.737V834.959C434.697 836.76 434.349 838.377 433.654 839.813C432.971 841.237 431.985 842.348 430.698 843.146C429.422 843.943 427.952 844.342 426.289 844.342C423.782 844.342 421.748 843.47 420.188 841.727C418.638 839.984 417.863 837.677 417.863 834.806V834.583ZM421.042 834.959C421.042 837.01 421.515 838.657 422.46 839.898C423.417 841.14 424.694 841.761 426.289 841.761C427.895 841.761 429.171 841.135 430.117 839.881C431.062 838.617 431.535 836.851 431.535 834.583C431.535 832.556 431.051 830.915 430.083 829.662C429.125 828.397 427.849 827.765 426.254 827.765C424.694 827.765 423.435 828.386 422.478 829.627C421.521 830.869 421.042 832.647 421.042 834.959ZM450.078 842.171C448.847 843.618 447.041 844.342 444.66 844.342C442.689 844.342 441.185 843.772 440.148 842.633C439.123 841.482 438.605 839.785 438.593 837.54V825.509H441.755V837.455C441.755 840.257 442.894 841.659 445.173 841.659C447.588 841.659 449.195 840.759 449.992 838.958V825.509H453.154V844H450.146L450.078 842.171ZM466.911 828.346C466.433 828.266 465.914 828.226 465.356 828.226C463.282 828.226 461.875 829.109 461.135 830.875V844H457.973V825.509H461.049L461.101 827.645C462.137 825.993 463.607 825.167 465.51 825.167C466.125 825.167 466.592 825.247 466.911 825.406V828.346Z" fill="white"/>
</g>
<g filter="url(#filter3_d_33_106)">
<path d="M467.575 656.918L464.054 649.624C464.072 649.348 464.086 649.071 464.086 648.792C464.086 640.525 455.489 632.905 441.024 626.804V631.877C439.614 631.317 438.145 630.772 436.615 630.245V627.881C415.944 620.426 385.17 615.695 350.795 615.695C320.761 615.695 293.474 619.306 273.273 625.19V633.429H273.272V623.457C252.575 630.034 239.744 639.171 239.744 649.274C239.744 650.867 240.065 652.435 240.682 653.974L238.574 657.727C238.574 657.727 236.885 659.918 239.859 664.54C242.482 668.617 255.623 684.574 262.559 692.93C265.538 697.214 267.558 699.852 267.735 699.597C268.013 699.193 265.882 691.15 259.966 681.974C257.205 677.046 253.909 670.516 251.929 665.693C257.454 669.19 289.913 685.535 356.122 685.468C423.787 685.401 453.864 664.22 457.165 661.337C456.011 665.971 452.07 675.346 448.927 681.94C443.763 691.369 441.892 699.579 442.132 699.985C442.285 700.241 444.047 697.523 446.646 693.118C452.693 684.502 464.151 668.053 466.441 663.863C469.035 659.113 467.575 656.918 467.575 656.918Z" fill="#A52B00"/>
<path d="M488.029 656.872L464.887 639.825C464.67 639.067 464.453 638.308 464.228 637.555L471.83 626.544C472.605 625.424 472.762 623.968 472.258 622.691C471.753 621.42 470.649 620.508 469.344 620.285L456.492 618.104C455.993 617.087 455.471 616.087 454.948 615.094L460.348 602.731C460.903 601.472 460.787 600.008 460.05 598.865C459.316 597.717 458.07 597.046 456.743 597.098L443.698 597.572C443.023 596.693 442.337 595.821 441.637 594.966L444.635 581.715C444.939 580.369 444.555 578.96 443.618 577.983C442.686 577.009 441.332 576.606 440.044 576.922L427.338 580.045C426.516 579.318 425.679 578.601 424.834 577.897L425.291 564.293C425.34 562.916 424.698 561.608 423.595 560.843C422.494 560.074 421.096 559.959 419.891 560.53L408.038 566.165C407.084 565.618 406.123 565.075 405.153 564.55L403.059 551.145C402.846 549.787 401.972 548.633 400.749 548.106C399.528 547.577 398.131 547.748 397.06 548.554L386.492 556.483C385.451 556.138 384.406 555.807 383.348 555.49L378.793 542.777C378.33 541.482 377.262 540.53 375.96 540.262C374.662 539.997 373.326 540.446 372.426 541.452L363.531 551.403C362.456 551.28 361.379 551.167 360.3 551.074L353.432 539.501C352.736 538.33 351.508 537.616 350.183 537.616C348.862 537.616 347.631 538.33 346.94 539.501L340.07 551.074C338.991 551.167 337.909 551.28 336.836 551.403L327.94 541.452C327.039 540.446 325.699 539.997 324.405 540.262C323.104 540.533 322.034 541.482 321.574 542.777L317.015 555.49C315.959 555.807 314.914 556.14 313.871 556.483L303.307 548.554C302.233 547.745 300.834 547.574 299.612 548.106C298.393 548.633 297.516 549.787 297.304 551.145L295.208 564.55C294.239 565.075 293.279 565.615 292.322 566.165L280.471 560.53C279.267 559.957 277.862 560.074 276.765 560.843C275.665 561.608 275.021 562.916 275.071 564.293L275.526 577.897C274.682 578.601 273.847 579.318 273.02 580.045L260.317 576.922C259.027 576.608 257.674 577.009 256.74 577.983C255.8 578.96 255.42 580.369 255.722 581.715L258.713 594.966C258.02 595.825 257.333 596.693 256.659 597.572L243.615 597.098C242.299 597.059 241.042 597.717 240.307 598.865C239.57 600.008 239.458 601.472 240.006 602.731L245.41 615.094C244.886 616.087 244.365 617.087 243.862 618.104L231.01 620.285C229.704 620.505 228.603 621.416 228.095 622.691C227.591 623.968 227.755 625.424 228.525 626.544L236.128 637.555C236.069 637.75 236.015 637.946 235.957 638.141L214.462 660.974C214.462 660.974 211.167 663.556 215.963 669.623C220.192 674.976 241.907 696.193 253.376 707.308C258.219 712.951 261.538 716.446 261.884 716.144C262.431 715.664 259.559 705.396 250.018 693.35C242.664 682.542 233.119 665.919 235.357 664.003C235.357 664.003 237.903 660.771 243.011 658.445C243.198 658.594 242.818 658.297 243.011 658.445C243.011 658.445 350.81 708.171 450.803 659.286C462.226 657.237 469.141 663.356 469.141 663.356C471.526 664.739 465.35 681.832 460.272 693.146C453.366 705.994 452.353 716.019 452.939 716.367C453.308 716.588 455.821 712.764 459.405 706.679C468.25 694.355 484.969 670.861 488.029 665.155C491.498 658.685 488.029 656.872 488.029 656.872Z" fill="#F74C00"/>
<path d="M440.893 650.494C440.893 650.494 456.403 649.775 476.777 629.067L479.664 622.657C479.664 622.657 448.042 591.201 497.198 569.489C497.198 569.489 492.895 576.521 494.157 603.693C494.157 603.693 508.978 598.545 513.324 574.544C513.324 574.544 534.942 603.047 489.844 629.779C489.844 629.779 468.687 663.696 438.859 660.448L440.893 650.494Z" fill="#F74C00"/>
<path d="M370.63 630.957C370.63 630.957 381.403 619.161 392.176 630.957C392.176 630.957 400.641 646.686 392.176 654.549C392.176 654.549 378.326 665.559 370.63 654.549C370.63 654.549 361.397 645.898 370.63 630.957Z" fill="black"/>
<path d="M383.106 635.335C383.106 639.928 380.399 643.652 377.059 643.652C373.72 643.652 371.013 639.928 371.013 635.335C371.013 630.741 373.72 627.017 377.059 627.017C380.399 627.017 383.106 630.741 383.106 635.335Z" fill="white"/>
<path d="M322.549 627.734C322.549 627.734 341.028 619.552 346.071 637.814C346.071 637.814 351.355 659.1 330.896 660.302C330.896 660.302 304.808 655.277 322.549 627.734Z" fill="black"/>
<path d="M331.83 635.638C331.83 640.375 329.038 644.216 325.594 644.216C322.151 644.216 319.358 640.375 319.358 635.638C319.358 630.9 322.151 627.06 325.594 627.06C329.038 627.06 331.83 630.9 331.83 635.638Z" fill="white"/>
<path d="M346.232 667.745L369.797 665.854C369.797 665.854 368.999 669.647 365.924 672.495C365.924 672.495 357.819 681.382 348.52 671.756C348.52 671.756 346.998 670.114 346.232 667.745Z" fill="black"/>
<path d="M251.867 645.929C251.673 645.929 251.482 645.943 251.292 645.959C243.64 644.217 222.133 638.613 216.448 629.519C216.448 629.519 245.39 596.598 200.156 575.556L205.422 611.978C205.422 611.978 191.478 602.66 188.469 582.419C188.469 582.419 154.512 607.063 203.456 630.682C203.456 630.682 207.895 647.362 250.516 660.67L250.547 660.543C250.976 660.622 251.416 660.67 251.867 660.67C255.895 660.67 259.16 657.371 259.16 653.299C259.16 649.229 255.895 645.929 251.867 645.929Z" fill="#F74C00"/>
<path d="M432.167 613.303C448.039 592.813 529.362 536.897 464.363 556.91C464.363 556.91 453.679 559.759 448.265 559.284C434.404 558.068 424.803 548.205 418.753 537.914C411.134 524.953 405.963 511.965 393.936 501.704C372.829 483.695 328.263 483.171 304.459 501.704C291.899 511.482 287.26 524.953 279.642 537.914C273.592 548.205 263.991 558.068 250.129 559.284C244.716 559.759 234.031 556.91 234.031 556.91C169.032 536.897 250.355 592.813 266.227 613.303C321.541 600.19 376.855 601.095 432.167 613.303Z" fill="black" stroke="black"/>
<path d="M373.822 545.996C373.822 557.962 362.861 567.663 349.34 567.663C335.819 567.663 324.858 557.962 324.858 545.996C324.858 534.029 335.819 524.329 349.34 524.329C362.861 524.329 373.822 534.029 373.822 545.996Z" fill="white"/>
<path d="M367.145 567.381C367.145 576.084 359.173 583.139 349.34 583.139C339.506 583.139 331.535 576.084 331.535 567.381C331.535 558.679 339.506 551.624 349.34 551.624C359.173 551.624 367.145 558.679 367.145 567.381Z" fill="white"/>
<path d="M347.559 545.996C347.559 550.347 343.573 553.875 338.656 553.875C333.74 553.875 329.754 550.347 329.754 545.996C329.754 541.644 333.74 538.117 338.656 538.117C343.573 538.117 347.559 541.644 347.559 545.996Z" fill="black"/>
<path d="M368.925 545.996C368.925 550.347 364.939 553.875 360.023 553.875C355.106 553.875 351.12 550.347 351.12 545.996C351.12 541.644 355.106 538.117 360.023 538.117C364.939 538.117 368.925 541.644 368.925 545.996Z" fill="black"/>
<path d="M320.02 531.293C321.522 535.975 320.419 540.29 317.558 540.931C314.698 541.572 311.162 538.295 309.66 533.613C308.159 528.931 309.262 524.615 312.122 523.975C314.983 523.334 318.519 526.61 320.02 531.293Z" fill="white"/>
<path d="M312.226 543.781C307.081 544.932 302.205 543.668 301.335 540.959C300.466 538.249 303.932 535.12 309.077 533.969C314.222 532.818 319.097 534.081 319.967 536.791C320.837 539.5 317.371 542.63 312.226 543.781Z" fill="white"/>
<path d="M316.297 532.49L311.49 540.006L327.283 548.176L332.089 540.66L316.297 532.49Z" fill="white"/>
<path d="M315.958 561.989C321.103 563.14 324.569 566.269 323.699 568.978C322.83 571.688 317.954 572.951 312.809 571.801C307.664 570.65 304.198 567.52 305.068 564.811C305.937 562.101 310.813 560.838 315.958 561.989Z" fill="white"/>
<path d="M323.753 574.476C322.252 579.159 318.716 582.435 315.855 581.794C312.994 581.154 311.892 576.839 313.393 572.156C314.894 567.474 318.43 564.198 321.291 564.838C324.152 565.479 325.254 569.794 323.753 574.476Z" fill="white"/>
<path d="M315.27 565.836L320.076 573.351L335.869 565.181L331.062 557.666L315.27 565.836Z" fill="white"/>
<path d="M386.477 543.817C381.332 542.666 377.866 539.537 378.736 536.827C379.605 534.118 384.481 532.854 389.626 534.005C394.771 535.156 398.237 538.285 397.367 540.995C396.498 543.704 391.622 544.968 386.477 543.817Z" fill="white"/>
<path d="M378.682 531.329C380.183 526.647 383.719 523.37 386.58 524.011C389.441 524.652 390.543 528.967 389.042 533.649C387.541 538.331 384.005 541.608 381.144 540.967C378.283 540.327 377.181 536.011 378.682 531.329Z" fill="white"/>
<path d="M387.165 539.969L382.358 532.454L366.566 540.624L371.372 548.14L387.165 539.969Z" fill="white"/>
<path d="M374.936 574.513C373.435 569.831 374.537 565.516 377.398 564.875C380.259 564.234 383.795 567.511 385.296 572.193C386.797 576.876 385.695 581.191 382.834 581.831C379.973 582.472 376.437 579.196 374.936 574.513Z" fill="white"/>
<path d="M382.731 562.025C387.876 560.875 392.752 562.138 393.621 564.848C394.491 567.557 391.025 570.687 385.88 571.837C380.735 572.988 375.859 571.725 374.99 569.015C374.12 566.306 377.586 563.176 382.731 562.025Z" fill="white"/>
<path d="M378.66 573.316L383.466 565.8L367.674 557.63L362.868 565.146L378.66 573.316Z" fill="white"/>
<path d="M344.407 560.474L349.34 553.423L354.272 560.474H344.407Z" fill="black" stroke="black" stroke-width="0.974859"/>
</g>
</g>
<defs>
<filter id="filter0_d_33_106" x="32.1001" y="90.3" width="621.101" height="78.1499" filterUnits="userSpaceOnUse" color-interpolation-filters="sRGB">
<feFlood flood-opacity="0" result="BackgroundImageFix"/>
<feColorMatrix in="SourceAlpha" type="matrix" values="0 0 0 0 0 0 0 0 0 0 0 0 0 0 0 0 0 0 127 0" result="hardAlpha"/>
<feOffset dy="6"/>
<feGaussianBlur stdDeviation="3"/>
<feColorMatrix type="matrix" values="0 0 0 0 0 0 0 0 0 0 0 0 0 0 0 0 0 0 0.25 0"/>
<feBlend mode="normal" in2="BackgroundImageFix" result="effect1_dropShadow_33_106"/>
<feBlend mode="normal" in="SourceGraphic" in2="effect1_dropShadow_33_106" result="shape"/>
</filter>
<filter id="filter1_d_33_106" x="82.4834" y="212.192" width="531.389" height="72.0479" filterUnits="userSpaceOnUse" color-interpolation-filters="sRGB">
<feFlood flood-opacity="0" result="BackgroundImageFix"/>
<feColorMatrix in="SourceAlpha" type="matrix" values="0 0 0 0 0 0 0 0 0 0 0 0 0 0 0 0 0 0 127 0" result="hardAlpha"/>
<feOffset dy="4"/>
<feGaussianBlur stdDeviation="2"/>
<feColorMatrix type="matrix" values="0 0 0 0 0 0 0 0 0 0 0 0 0 0 0 0 0 0 0.25 0"/>
<feBlend mode="normal" in2="BackgroundImageFix" result="effect1_dropShadow_33_106"/>
<feBlend mode="normal" in="SourceGraphic" in2="effect1_dropShadow_33_106" result="shape"/>
</filter>
<filter id="filter2_d_33_106" x="223.926" y="817.75" width="248.985" height="45.7183" filterUnits="userSpaceOnUse" color-interpolation-filters="sRGB">
<feFlood flood-opacity="0" result="BackgroundImageFix"/>
<feColorMatrix in="SourceAlpha" type="matrix" values="0 0 0 0 0 0 0 0 0 0 0 0 0 0 0 0 0 0 127 0" result="hardAlpha"/>
<feOffset dy="6"/>
<feGaussianBlur stdDeviation="3"/>
<feColorMatrix type="matrix" values="0 0 0 0 0 0 0 0 0 0 0 0 0 0 0 0 0 0 0.25 0"/>
<feBlend mode="normal" in2="BackgroundImageFix" result="effect1_dropShadow_33_106"/>
<feBlend mode="normal" in="SourceGraphic" in2="effect1_dropShadow_33_106" result="shape"/>
</filter>
<filter id="filter3_d_33_106" x="169" y="487.5" width="357.503" height="244.876" filterUnits="userSpaceOnUse" color-interpolation-filters="sRGB">
<feFlood flood-opacity="0" result="BackgroundImageFix"/>
<feColorMatrix in="SourceAlpha" type="matrix" values="0 0 0 0 0 0 0 0 0 0 0 0 0 0 0 0 0 0 127 0" result="hardAlpha"/>
<feOffset dy="8"/>
<feGaussianBlur stdDeviation="4"/>
<feColorMatrix type="matrix" values="0 0 0 0 0 0 0 0 0 0 0 0 0 0 0 0 0 0 0.25 0"/>
<feBlend mode="normal" in2="BackgroundImageFix" result="effect1_dropShadow_33_106"/>
<feBlend mode="normal" in="SourceGraphic" in2="effect1_dropShadow_33_106" result="shape"/>
</filter>
<radialGradient id="paint0_radial_33_106" cx="0" cy="0" r="1" gradientUnits="userSpaceOnUse" gradientTransform="translate(348.5 464) rotate(90.0423) scale(676.5 508.104)">
<stop stop-color="#A431FF"/>
<stop offset="1"/>
</radialGradient>
<clipPath id="clip0_33_106">
<rect width="697" height="928" fill="white"/>
</clipPath>
</defs>
</svg>
