<svg width="1024" height="1024" viewBox="0 0 1024 1024" fill="none" xmlns="http://www.w3.org/2000/svg">
<circle cx="512" cy="512" r="512" fill="white"/>
<path d="M434.18 211.255C348.305 223.251 257.378 269.458 209.619 325.439C193.087 344.988 167.37 387.641 170.585 390.751C171.503 391.639 186.198 386.752 203.19 380.088C225.232 371.646 236.713 364.093 242.683 354.763C256 333.437 296.871 299.67 322.588 288.563C388.716 259.239 463.111 268.57 525.106 314.776C537.046 323.662 551.741 330.771 557.711 330.771C569.651 330.771 570.569 325.884 575.621 248.132L577.917 211.7L563.681 209.034C544.393 205.48 467.244 206.813 434.18 211.255Z" fill="#2D313C"/>
<path d="M589.397 257.906C587.561 282.343 585.724 369.869 585.724 452.952C585.724 536.035 587.561 623.561 589.397 647.997L593.071 691.538L611.44 689.317C621.543 687.984 632.565 684.43 635.32 681.764C642.668 674.655 642.668 231.249 635.32 224.14C632.565 221.474 621.543 217.92 611.44 216.587L593.071 214.365L589.397 257.906Z" fill="#2D313C"/>
<path d="M647.26 460.505V504.935L682.306 494.164C701.037 488.33 722.79 483.393 730.041 483.393C756.628 483.393 762.066 478.905 762.066 458.261C762.066 438.963 761.462 438.515 742.73 438.515C731.854 438.515 695.76 429.762 675.82 423.928C655.88 417.645 649.677 416.076 649.072 416.076C647.864 416.076 647.26 435.822 647.26 460.505Z" fill="#2D313C"/>
<path fill-rule="evenodd" clip-rule="evenodd" d="M681.242 358.827C679.405 371.569 677.568 417.184 677.568 460.505C677.568 503.826 679.405 549.463 681.242 562.205L684.916 584.908L703.285 583.749C713.388 583.054 724.409 581.201 727.165 579.811C734.512 576.104 734.512 344.906 727.165 341.199C724.409 339.809 713.388 337.956 703.285 337.261L684.916 336.102" fill="#2D313C"/>
<path fill-rule="evenodd" clip-rule="evenodd" d="M259.674 357.873C278.962 330.327 310.189 307.223 344.172 295.672C377.695 284.12 422.699 284.12 455.763 294.783C481.939 303.669 515.922 323.662 527.402 336.991C531.076 341.434 540.72 344.1 551.282 344.1H569.192V452.952V561.804H552.66C540.26 561.804 531.535 565.803 517.299 577.355C437.853 643.555 318.914 629.781 260.133 548.475C253.959 539.729 227.952 493.943 227.419 452.952C226.843 408.573 252.274 368.728 259.674 357.873ZM509.952 356.096C488.368 333.881 460.815 319.219 426.832 312.999C413.409 310.578 406.749 309.356 400.094 309.388C393.317 309.42 386.546 310.753 372.644 313.443C326.721 321.885 290.442 349.876 267.94 392.972C256.919 413.41 255.082 422.74 255.082 452.952C255.541 484.053 257.378 492.05 269.777 515.598C301.923 576.466 368.511 607.122 434.18 591.572C546.69 564.47 587.561 437.402 509.952 356.096Z" fill="#2D313C"/>
<path d="M387.798 509.313C370.807 484.433 356.111 461.774 355.193 458.664C353.815 455.553 360.704 451.999 373.103 449.333L393.309 445.335L383.665 402.238C377.695 378.246 373.562 358.697 374.48 358.697C375.858 358.697 445.201 463.995 445.201 466.661C445.201 467.549 437.394 470.215 428.21 471.992C418.566 473.77 409.381 475.991 408.004 476.88C406.167 477.768 408.922 494.651 413.514 514.645C418.566 534.638 421.78 551.965 420.403 552.854C419.484 554.187 404.789 534.638 387.798 509.313Z" fill="#2D313C"/>
<path d="M792.431 413.854C769.47 425.406 760.285 451.175 771.307 473.834C789.216 509.822 842.946 508.489 859.018 471.168C866.825 452.952 863.152 436.513 847.997 422.296C831.465 406.745 812.637 404.079 792.431 413.854Z" fill="#2D313C"/>
<path d="M224.773 540.034C224.773 543.588 217.885 544.477 204.108 543.144C192.627 541.811 183.443 542.255 183.443 544.032C183.443 552.918 224.314 599.125 250.49 619.563C301.923 659.993 319.833 717.752 298.708 776.399L289.524 801.724L300.545 808.832C308.352 813.72 323.506 816.385 345.09 816.83L378.613 817.274L379.532 790.172C380.45 755.073 387.339 732.858 402.952 710.643C416.27 691.983 417.188 691.983 453.467 697.758C464.488 699.536 468.162 702.201 468.162 709.31C468.162 714.197 470.458 726.193 473.673 735.524C477.806 749.297 480.102 751.962 485.153 747.964C489.746 743.965 490.664 736.856 488.368 721.306L485.153 699.536H521.432C541.638 699.536 562.303 698.203 567.814 696.87C579.294 693.76 579.294 694.648 571.028 602.235L568.273 574.244L554.496 576.91C546.689 578.243 530.617 586.685 518.677 595.126C437.394 652.885 338.661 647.109 268.399 580.465C256.46 568.913 244.06 554.251 240.387 547.142C233.498 535.146 224.773 530.704 224.773 540.034Z" fill="#2D313C"/>
<path fill-rule="evenodd" clip-rule="evenodd" d="M249.236 352.282C235.126 369.302 222.643 387.108 217.948 409.495C214.662 425.162 211.739 448.122 213.383 468.187C214.887 486.546 220.533 501.813 226.619 520.683C227.803 524.353 235.938 538.863 239.454 547.513C241.12 551.614 239.454 553.146 239.454 553.146C239.454 553.146 224.008 555.124 217.948 556.199C211.888 557.274 189.26 554.652 189.26 554.652C189.26 554.652 182.92 546.227 181.21 541.671C169.354 510.082 165.253 484.819 163.711 468.187C162.116 450.983 162.685 420.8 170.896 388.09C171.768 384.618 176.417 382.637 176.417 382.637C176.417 382.637 180.815 386.417 182.98 384.771C186.419 382.156 189.75 379.627 192.975 377.183C265.085 322.531 283.634 310.792 249.236 352.282Z" fill="#2D313C"/>
</svg>
