<svg width="697" height="928" viewBox="0 0 697 928" fill="none" xmlns="http://www.w3.org/2000/svg">
<rect width="697" height="928" fill="#FFF100"/>
<path d="M508.74 155.36C508.74 167.25 515.89 173.03 528.93 173.03C532.945 172.93 536.935 172.366 540.82 171.35V157.56C538.337 158.347 535.745 158.738 533.14 158.72C527.77 158.72 525.78 157.04 525.78 151.99V130.86H541.34V116.66H525.78V98.66L508.78 102.34V116.66H497.49V130.86H508.74V155.36ZM455.74 155.68C455.74 152 459.43 150.21 465 150.21C468.405 150.23 471.795 150.653 475.1 151.47V158.62C471.843 160.399 468.181 161.305 464.47 161.25C459.01 161.25 455.74 159.15 455.74 155.68V155.68ZM460.94 173.24C466.94 173.24 471.78 171.98 476.3 168.93V172.3H493.12V136.64C493.12 123.08 483.98 115.64 468.73 115.64C460.21 115.64 451.79 117.64 442.73 121.74L448.83 134.26C455.35 131.52 460.83 129.84 465.66 129.84C472.66 129.84 476.28 132.57 476.28 138.15V140.88C472.159 139.813 467.917 139.282 463.66 139.3C449.35 139.3 440.73 145.3 440.73 156.03C440.73 165.81 448.51 173.27 460.92 173.27L460.94 173.24ZM368.48 172.33H386.57V143.48H416.86V172.3H435V98.68H416.93V126.97H386.64V98.68H368.55L368.48 172.33ZM299.62 144.43C299.62 136.43 305.93 130.33 314.24 130.33C318.563 130.242 322.761 131.785 326 134.65V154.1C324.431 155.582 322.584 156.74 320.566 157.505C318.547 158.271 316.397 158.629 314.24 158.56C306.04 158.56 299.62 152.46 299.62 144.47V144.43ZM326.23 172.34H343.06V95L326.06 98.68V119.61C321.732 117.157 316.834 115.887 311.86 115.93C295.67 115.93 282.94 128.44 282.94 144.43C282.893 148.182 283.595 151.905 285.003 155.383C286.411 158.861 288.498 162.024 291.142 164.686C293.786 167.348 296.934 169.458 300.402 170.89C303.869 172.323 307.588 173.05 311.34 173.03C316.705 173.056 321.937 171.363 326.27 168.2L326.23 172.34ZM249 129.56C254.36 129.56 258.88 133.03 260.67 138.39H237.47C239.15 132.86 243.36 129.56 249 129.56ZM220.33 144.56C220.33 160.76 233.58 173.38 250.61 173.38C259.97 173.38 266.81 170.85 273.86 164.96L262.6 154.96C259.97 157.7 256.08 159.17 251.46 159.17C248.555 159.252 245.693 158.452 243.251 156.876C240.809 155.3 238.902 153.021 237.78 150.34H277.43V146.11C277.43 128.44 265.55 115.72 249.35 115.72C245.542 115.663 241.761 116.367 238.229 117.792C234.697 119.217 231.485 121.334 228.783 124.018C226.081 126.703 223.944 129.9 222.495 133.423C221.047 136.945 220.318 140.722 220.35 144.53L220.33 144.56ZM191 114.14C197 114.14 200.36 117.92 200.36 122.45C200.36 126.98 197 130.76 191 130.76H173.11V114.14H191ZM155 172.3H173.09V145.48H186.86L200.75 172.3H221L204.8 142.85C208.917 141.176 212.439 138.308 214.912 134.615C217.386 130.923 218.698 126.574 218.68 122.13C218.68 108.88 208.27 98.68 192.68 98.68H155V172.3Z" fill="#FF0000"/>
<path d="M81.9277 281.283H69.125V316H58.8418V281.283H46.2734V273.344H81.9277V281.283ZM95.4922 287.699C97.6016 285.043 100.297 283.715 103.578 283.715C107.074 283.715 109.711 284.75 111.488 286.82C113.266 288.891 114.174 291.947 114.213 295.99V316H104.311V296.225C104.311 294.545 103.969 293.314 103.285 292.533C102.602 291.732 101.439 291.332 99.7988 291.332C97.7676 291.332 96.332 291.977 95.4922 293.266V316H85.6191V271H95.4922V287.699ZM135.043 316.586C130.18 316.586 126.244 315.141 123.236 312.25C120.229 309.34 118.725 305.561 118.725 300.912V300.092C118.725 296.85 119.32 293.988 120.512 291.508C121.723 289.027 123.48 287.113 125.785 285.766C128.09 284.398 130.824 283.715 133.988 283.715C138.441 283.715 141.957 285.102 144.535 287.875C147.113 290.629 148.402 294.477 148.402 299.418V303.256H128.773C129.125 305.033 129.896 306.43 131.088 307.445C132.279 308.461 133.822 308.969 135.717 308.969C138.842 308.969 141.283 307.875 143.041 305.688L147.553 311.02C146.322 312.719 144.574 314.076 142.309 315.092C140.062 316.088 137.641 316.586 135.043 316.586ZM133.93 291.332C131.039 291.332 129.32 293.246 128.773 297.074H138.734V296.312C138.773 294.73 138.373 293.51 137.533 292.65C136.693 291.771 135.492 291.332 133.93 291.332ZM183.646 300.941H178.08V316H167.797V273.344H184.584C189.643 273.344 193.598 274.467 196.449 276.713C199.301 278.959 200.727 282.133 200.727 286.234C200.727 289.203 200.121 291.664 198.91 293.617C197.719 295.57 195.844 297.152 193.285 298.363L202.191 315.561V316H191.176L183.646 300.941ZM178.08 293.002H184.584C186.537 293.002 188.002 292.494 188.979 291.479C189.975 290.443 190.473 289.008 190.473 287.172C190.473 285.336 189.975 283.9 188.979 282.865C187.982 281.811 186.518 281.283 184.584 281.283H178.08V293.002ZM225.365 312.572C223.275 315.248 220.453 316.586 216.898 316.586C213.422 316.586 210.785 315.58 208.988 313.568C207.211 311.537 206.322 308.627 206.322 304.838V284.301H216.195V304.896C216.195 307.611 217.514 308.969 220.15 308.969C222.416 308.969 224.027 308.158 224.984 306.537V284.301H234.916V316H225.658L225.365 312.572ZM256.947 307.094C256.947 306.254 256.508 305.58 255.629 305.072C254.75 304.564 253.08 304.037 250.619 303.49C248.158 302.943 246.127 302.23 244.525 301.352C242.924 300.453 241.703 299.369 240.863 298.1C240.023 296.83 239.604 295.375 239.604 293.734C239.604 290.824 240.805 288.432 243.207 286.557C245.609 284.662 248.754 283.715 252.641 283.715C256.82 283.715 260.18 284.662 262.719 286.557C265.258 288.451 266.527 290.941 266.527 294.027H256.625C256.625 291.488 255.287 290.219 252.611 290.219C251.576 290.219 250.707 290.512 250.004 291.098C249.301 291.664 248.949 292.377 248.949 293.236C248.949 294.115 249.379 294.828 250.238 295.375C251.098 295.922 252.465 296.371 254.34 296.723C256.234 297.074 257.895 297.494 259.32 297.982C264.086 299.623 266.469 302.562 266.469 306.801C266.469 309.691 265.18 312.045 262.602 313.861C260.043 315.678 256.723 316.586 252.641 316.586C249.926 316.586 247.504 316.098 245.375 315.121C243.246 314.145 241.586 312.816 240.395 311.137C239.203 309.457 238.607 307.689 238.607 305.834H247.836C247.875 307.299 248.363 308.373 249.301 309.057C250.238 309.721 251.439 310.053 252.904 310.053C254.252 310.053 255.258 309.779 255.922 309.232C256.605 308.686 256.947 307.973 256.947 307.094ZM282.611 276.42V284.301H287.826V291.156H282.611V305.658C282.611 306.85 282.826 307.68 283.256 308.148C283.686 308.617 284.535 308.852 285.805 308.852C286.781 308.852 287.602 308.793 288.266 308.676V315.736C286.488 316.303 284.633 316.586 282.699 316.586C279.301 316.586 276.791 315.785 275.17 314.184C273.549 312.582 272.738 310.15 272.738 306.889V291.156H268.695V284.301H272.738V276.42H282.611ZM309.594 316C309.242 315.355 308.93 314.408 308.656 313.158C306.84 315.443 304.301 316.586 301.039 316.586C298.051 316.586 295.512 315.688 293.422 313.891C291.332 312.074 290.287 309.799 290.287 307.064C290.287 303.627 291.557 301.029 294.096 299.271C296.635 297.514 300.326 296.635 305.17 296.635H308.217V294.965C308.217 292.055 306.957 290.6 304.438 290.6C302.094 290.6 300.922 291.752 300.922 294.057H291.049C291.049 290.99 292.348 288.5 294.945 286.586C297.562 284.672 300.893 283.715 304.936 283.715C308.979 283.715 312.172 284.701 314.516 286.674C316.859 288.646 318.061 291.352 318.119 294.789V308.822C318.158 311.732 318.607 313.959 319.467 315.502V316H309.594ZM303.412 309.555C304.643 309.555 305.658 309.291 306.459 308.764C307.279 308.236 307.865 307.641 308.217 306.977V301.908H305.346C301.908 301.908 300.189 303.451 300.189 306.537C300.189 307.436 300.492 308.168 301.098 308.734C301.703 309.281 302.475 309.555 303.412 309.555ZM337.016 308.969C338.402 308.969 339.477 308.598 340.238 307.855C341 307.094 341.371 306.039 341.352 304.691H350.609C350.609 308.168 349.359 311.02 346.859 313.246C344.379 315.473 341.176 316.586 337.25 316.586C332.641 316.586 329.008 315.141 326.352 312.25C323.695 309.359 322.367 305.355 322.367 300.238V299.828C322.367 296.625 322.953 293.803 324.125 291.361C325.316 288.9 327.025 287.016 329.252 285.707C331.479 284.379 334.115 283.715 337.162 283.715C341.283 283.715 344.555 284.857 346.977 287.143C349.398 289.428 350.609 292.523 350.609 296.43H341.352C341.352 294.789 340.951 293.529 340.15 292.65C339.35 291.771 338.275 291.332 336.928 291.332C334.369 291.332 332.875 292.963 332.445 296.225C332.309 297.26 332.24 298.686 332.24 300.502C332.24 303.686 332.621 305.893 333.383 307.123C334.145 308.354 335.355 308.969 337.016 308.969ZM370.121 316.586C365.258 316.586 361.322 315.141 358.314 312.25C355.307 309.34 353.803 305.561 353.803 300.912V300.092C353.803 296.85 354.398 293.988 355.59 291.508C356.801 289.027 358.559 287.113 360.863 285.766C363.168 284.398 365.902 283.715 369.066 283.715C373.52 283.715 377.035 285.102 379.613 287.875C382.191 290.629 383.48 294.477 383.48 299.418V303.256H363.852C364.203 305.033 364.975 306.43 366.166 307.445C367.357 308.461 368.9 308.969 370.795 308.969C373.92 308.969 376.361 307.875 378.119 305.688L382.631 311.02C381.4 312.719 379.652 314.076 377.387 315.092C375.141 316.088 372.719 316.586 370.121 316.586ZM369.008 291.332C366.117 291.332 364.398 293.246 363.852 297.074H373.812V296.312C373.852 294.73 373.451 293.51 372.611 292.65C371.771 291.771 370.57 291.332 369.008 291.332ZM405.336 316C404.984 315.355 404.672 314.408 404.398 313.158C402.582 315.443 400.043 316.586 396.781 316.586C393.793 316.586 391.254 315.688 389.164 313.891C387.074 312.074 386.029 309.799 386.029 307.064C386.029 303.627 387.299 301.029 389.838 299.271C392.377 297.514 396.068 296.635 400.912 296.635H403.959V294.965C403.959 292.055 402.699 290.6 400.18 290.6C397.836 290.6 396.664 291.752 396.664 294.057H386.791C386.791 290.99 388.09 288.5 390.688 286.586C393.305 284.672 396.635 283.715 400.678 283.715C404.721 283.715 407.914 284.701 410.258 286.674C412.602 288.646 413.803 291.352 413.861 294.789V308.822C413.9 311.732 414.35 313.959 415.209 315.502V316H405.336ZM399.154 309.555C400.385 309.555 401.4 309.291 402.201 308.764C403.021 308.236 403.607 307.641 403.959 306.977V301.908H401.088C397.65 301.908 395.932 303.451 395.932 306.537C395.932 307.436 396.234 308.168 396.84 308.734C397.445 309.281 398.217 309.555 399.154 309.555ZM428.422 284.301L428.744 288.021C430.932 285.15 433.949 283.715 437.797 283.715C441.098 283.715 443.559 284.701 445.18 286.674C446.82 288.646 447.67 291.615 447.729 295.58V316H437.826V295.99C437.826 294.389 437.504 293.217 436.859 292.475C436.215 291.713 435.043 291.332 433.344 291.332C431.41 291.332 429.975 292.094 429.037 293.617V316H419.164V284.301H428.422ZM453.207 286.703L448.871 284.359C450.492 281.547 451.322 278.793 451.361 276.098V271H458.568V275.775C458.568 277.592 458.041 279.535 456.986 281.605C455.951 283.656 454.691 285.355 453.207 286.703ZM474.096 307.094C474.096 306.254 473.656 305.58 472.777 305.072C471.898 304.564 470.229 304.037 467.768 303.49C465.307 302.943 463.275 302.23 461.674 301.352C460.072 300.453 458.852 299.369 458.012 298.1C457.172 296.83 456.752 295.375 456.752 293.734C456.752 290.824 457.953 288.432 460.355 286.557C462.758 284.662 465.902 283.715 469.789 283.715C473.969 283.715 477.328 284.662 479.867 286.557C482.406 288.451 483.676 290.941 483.676 294.027H473.773C473.773 291.488 472.436 290.219 469.76 290.219C468.725 290.219 467.855 290.512 467.152 291.098C466.449 291.664 466.098 292.377 466.098 293.236C466.098 294.115 466.527 294.828 467.387 295.375C468.246 295.922 469.613 296.371 471.488 296.723C473.383 297.074 475.043 297.494 476.469 297.982C481.234 299.623 483.617 302.562 483.617 306.801C483.617 309.691 482.328 312.045 479.75 313.861C477.191 315.678 473.871 316.586 469.789 316.586C467.074 316.586 464.652 316.098 462.523 315.121C460.395 314.145 458.734 312.816 457.543 311.137C456.352 309.457 455.756 307.689 455.756 305.834H464.984C465.023 307.299 465.512 308.373 466.449 309.057C467.387 309.721 468.588 310.053 470.053 310.053C471.4 310.053 472.406 309.779 473.07 309.232C473.754 308.686 474.096 307.973 474.096 307.094ZM502.045 299.916C502.045 296.713 502.572 293.881 503.627 291.42C504.682 288.959 506.195 287.064 508.168 285.736C510.141 284.389 512.436 283.715 515.053 283.715C518.354 283.715 520.932 284.828 522.787 287.055L523.139 284.301H532.104V314.799C532.104 317.592 531.449 320.014 530.141 322.064C528.852 324.135 526.977 325.717 524.516 326.811C522.055 327.924 519.203 328.48 515.961 328.48C513.637 328.48 511.381 328.041 509.193 327.162C507.025 326.283 505.365 325.141 504.213 323.734L508.344 317.934C510.18 320.102 512.602 321.186 515.609 321.186C519.984 321.186 522.172 318.939 522.172 314.447V313.451C520.277 315.541 517.885 316.586 514.994 316.586C511.127 316.586 508.002 315.111 505.619 312.162C503.236 309.193 502.045 305.229 502.045 300.268V299.916ZM511.947 300.531C511.947 303.129 512.436 305.189 513.412 306.713C514.389 308.217 515.756 308.969 517.514 308.969C519.643 308.969 521.195 308.256 522.172 306.83V293.5C521.215 292.055 519.682 291.332 517.572 291.332C515.814 291.332 514.438 292.123 513.441 293.705C512.445 295.268 511.947 297.543 511.947 300.531ZM556.596 312.572C554.506 315.248 551.684 316.586 548.129 316.586C544.652 316.586 542.016 315.58 540.219 313.568C538.441 311.537 537.553 308.627 537.553 304.838V284.301H547.426V304.896C547.426 307.611 548.744 308.969 551.381 308.969C553.646 308.969 555.258 308.158 556.215 306.537V284.301H566.146V316H556.889L556.596 312.572ZM581.996 316H572.094V284.301H581.996V316ZM571.508 276.127C571.508 274.721 572.016 273.568 573.031 272.67C574.047 271.771 575.365 271.322 576.986 271.322C578.607 271.322 579.926 271.771 580.941 272.67C581.957 273.568 582.465 274.721 582.465 276.127C582.465 277.533 581.957 278.686 580.941 279.584C579.926 280.482 578.607 280.932 576.986 280.932C575.365 280.932 574.047 280.482 573.031 279.584C572.016 278.686 571.508 277.533 571.508 276.127ZM586.859 299.916C586.859 294.896 587.943 290.941 590.111 288.051C592.279 285.16 595.307 283.715 599.193 283.715C602.025 283.715 604.408 284.828 606.342 287.055V271H616.244V316H607.367L606.869 312.602C604.838 315.258 602.26 316.586 599.135 316.586C595.365 316.586 592.377 315.141 590.17 312.25C587.963 309.359 586.859 305.248 586.859 299.916ZM596.732 300.531C596.732 306.156 598.373 308.969 601.654 308.969C603.842 308.969 605.404 308.051 606.342 306.215V294.145C605.443 292.27 603.9 291.332 601.713 291.332C598.666 291.332 597.016 293.793 596.762 298.715L596.732 300.531ZM637.191 316.586C632.328 316.586 628.393 315.141 625.385 312.25C622.377 309.34 620.873 305.561 620.873 300.912V300.092C620.873 296.85 621.469 293.988 622.66 291.508C623.871 289.027 625.629 287.113 627.934 285.766C630.238 284.398 632.973 283.715 636.137 283.715C640.59 283.715 644.105 285.102 646.684 287.875C649.262 290.629 650.551 294.477 650.551 299.418V303.256H630.922C631.273 305.033 632.045 306.43 633.236 307.445C634.428 308.461 635.971 308.969 637.865 308.969C640.99 308.969 643.432 307.875 645.189 305.688L649.701 311.02C648.471 312.719 646.723 314.076 644.457 315.092C642.211 316.088 639.789 316.586 637.191 316.586ZM636.078 291.332C633.188 291.332 631.469 293.246 630.922 297.074H640.883V296.312C640.922 294.73 640.521 293.51 639.682 292.65C638.842 291.771 637.641 291.332 636.078 291.332ZM41.5566 346.42V354.301H46.7715V361.156H41.5566V375.658C41.5566 376.85 41.7715 377.68 42.2012 378.148C42.6309 378.617 43.4805 378.852 44.75 378.852C45.7266 378.852 46.5469 378.793 47.2109 378.676V385.736C45.4336 386.303 43.5781 386.586 41.6445 386.586C38.2461 386.586 35.7363 385.785 34.1152 384.184C32.4941 382.582 31.6836 380.15 31.6836 376.889V361.156H27.6406V354.301H31.6836V346.42H41.5566ZM48.5586 369.857C48.5586 366.693 49.1738 363.881 50.4043 361.42C51.6348 358.939 53.4023 357.035 55.707 355.707C58.0117 354.379 60.7168 353.715 63.8223 353.715C68.5684 353.715 72.3086 355.189 75.043 358.139C77.7773 361.068 79.1445 365.062 79.1445 370.121V370.473C79.1445 375.414 77.7676 379.34 75.0137 382.25C72.2793 385.141 68.5684 386.586 63.8809 386.586C59.3691 386.586 55.7461 385.238 53.0117 382.543C50.2773 379.828 48.8027 376.156 48.5879 371.527L48.5586 369.857ZM58.4316 370.473C58.4316 373.402 58.8906 375.551 59.8086 376.918C60.7266 378.285 62.084 378.969 63.8809 378.969C67.3965 378.969 69.1934 376.264 69.2715 370.854V369.857C69.2715 364.174 67.4551 361.332 63.8223 361.332C60.5215 361.332 58.7344 363.783 58.4609 368.686L58.4316 370.473ZM111.84 378.969C113.227 378.969 114.301 378.598 115.062 377.855C115.824 377.094 116.195 376.039 116.176 374.691H125.434C125.434 378.168 124.184 381.02 121.684 383.246C119.203 385.473 116 386.586 112.074 386.586C107.465 386.586 103.832 385.141 101.176 382.25C98.5195 379.359 97.1914 375.355 97.1914 370.238V369.828C97.1914 366.625 97.7773 363.803 98.9492 361.361C100.141 358.9 101.85 357.016 104.076 355.707C106.303 354.379 108.939 353.715 111.986 353.715C116.107 353.715 119.379 354.857 121.801 357.143C124.223 359.428 125.434 362.523 125.434 366.43H116.176C116.176 364.789 115.775 363.529 114.975 362.65C114.174 361.771 113.1 361.332 111.752 361.332C109.193 361.332 107.699 362.963 107.27 366.225C107.133 367.26 107.064 368.686 107.064 370.502C107.064 373.686 107.445 375.893 108.207 377.123C108.969 378.354 110.18 378.969 111.84 378.969ZM128.363 369.857C128.363 366.693 128.979 363.881 130.209 361.42C131.439 358.939 133.207 357.035 135.512 355.707C137.816 354.379 140.521 353.715 143.627 353.715C148.373 353.715 152.113 355.189 154.848 358.139C157.582 361.068 158.949 365.062 158.949 370.121V370.473C158.949 375.414 157.572 379.34 154.818 382.25C152.084 385.141 148.373 386.586 143.686 386.586C139.174 386.586 135.551 385.238 132.816 382.543C130.082 379.828 128.607 376.156 128.393 371.527L128.363 369.857ZM138.236 370.473C138.236 373.402 138.695 375.551 139.613 376.918C140.531 378.285 141.889 378.969 143.686 378.969C147.201 378.969 148.998 376.264 149.076 370.854V369.857C149.076 364.174 147.26 361.332 143.627 361.332C140.326 361.332 138.539 363.783 138.266 368.686L138.236 370.473ZM172.367 354.301L172.689 358.021C174.877 355.15 177.895 353.715 181.742 353.715C185.043 353.715 187.504 354.701 189.125 356.674C190.766 358.646 191.615 361.615 191.674 365.58V386H181.771V365.99C181.771 364.389 181.449 363.217 180.805 362.475C180.16 361.713 178.988 361.332 177.289 361.332C175.355 361.332 173.92 362.094 172.982 363.617V386H163.109V354.301H172.367ZM195.922 369.828C195.922 364.789 197.016 360.844 199.203 357.992C201.391 355.141 204.408 353.715 208.256 353.715C211.498 353.715 214.096 355.043 216.049 357.699L216.752 354.301H225.307V398.188H215.404V383.363C213.51 385.512 211.107 386.586 208.197 386.586C204.447 386.586 201.459 385.141 199.232 382.25C197.025 379.34 195.922 375.199 195.922 369.828ZM205.795 370.443C205.795 376.127 207.436 378.969 210.717 378.969C212.982 378.969 214.545 378.109 215.404 376.391V363.852C214.584 362.172 213.041 361.332 210.775 361.332C207.709 361.332 206.059 363.783 205.824 368.686L205.795 370.443ZM249.799 382.572C247.709 385.248 244.887 386.586 241.332 386.586C237.855 386.586 235.219 385.58 233.422 383.568C231.645 381.537 230.756 378.627 230.756 374.838V354.301H240.629V374.896C240.629 377.611 241.947 378.969 244.584 378.969C246.85 378.969 248.461 378.158 249.418 376.537V354.301H259.35V386H250.092L249.799 382.572ZM280.121 386.586C275.258 386.586 271.322 385.141 268.314 382.25C265.307 379.34 263.803 375.561 263.803 370.912V370.092C263.803 366.85 264.398 363.988 265.59 361.508C266.801 359.027 268.559 357.113 270.863 355.766C273.168 354.398 275.902 353.715 279.066 353.715C283.52 353.715 287.035 355.102 289.613 357.875C292.191 360.629 293.48 364.477 293.48 369.418V373.256H273.852C274.203 375.033 274.975 376.43 276.166 377.445C277.357 378.461 278.9 378.969 280.795 378.969C283.92 378.969 286.361 377.875 288.119 375.688L292.631 381.02C291.4 382.719 289.652 384.076 287.387 385.092C285.141 386.088 282.719 386.586 280.121 386.586ZM279.008 361.332C276.117 361.332 274.398 363.246 273.852 367.074H283.812V366.312C283.852 364.73 283.451 363.51 282.611 362.65C281.771 361.771 280.57 361.332 279.008 361.332ZM316.654 363.236L313.402 363.002C310.297 363.002 308.305 363.979 307.426 365.932V386H297.553V354.301H306.811L307.133 358.373C308.793 355.268 311.107 353.715 314.076 353.715C315.131 353.715 316.049 353.832 316.83 354.066L316.654 363.236ZM330.629 386H320.727V354.301H330.629V386ZM320.141 346.127C320.141 344.721 320.648 343.568 321.664 342.67C322.68 341.771 323.998 341.322 325.619 341.322C327.24 341.322 328.559 341.771 329.574 342.67C330.59 343.568 331.098 344.721 331.098 346.127C331.098 347.533 330.59 348.686 329.574 349.584C328.559 350.482 327.24 350.932 325.619 350.932C323.998 350.932 322.68 350.482 321.664 349.584C320.648 348.686 320.141 347.533 320.141 346.127ZM345.805 354.301L346.127 358.021C348.314 355.15 351.332 353.715 355.18 353.715C358.48 353.715 360.941 354.701 362.562 356.674C364.203 358.646 365.053 361.615 365.111 365.58V386H355.209V365.99C355.209 364.389 354.887 363.217 354.242 362.475C353.598 361.713 352.426 361.332 350.727 361.332C348.793 361.332 347.357 362.094 346.42 363.617V386H336.547V354.301H345.805ZM369.447 369.916C369.447 366.713 369.975 363.881 371.029 361.42C372.084 358.959 373.598 357.064 375.57 355.736C377.543 354.389 379.838 353.715 382.455 353.715C385.756 353.715 388.334 354.828 390.189 357.055L390.541 354.301H399.506V384.799C399.506 387.592 398.852 390.014 397.543 392.064C396.254 394.135 394.379 395.717 391.918 396.811C389.457 397.924 386.605 398.48 383.363 398.48C381.039 398.48 378.783 398.041 376.596 397.162C374.428 396.283 372.768 395.141 371.615 393.734L375.746 387.934C377.582 390.102 380.004 391.186 383.012 391.186C387.387 391.186 389.574 388.939 389.574 384.447V383.451C387.68 385.541 385.287 386.586 382.396 386.586C378.529 386.586 375.404 385.111 373.021 382.162C370.639 379.193 369.447 375.229 369.447 370.268V369.916ZM379.35 370.531C379.35 373.129 379.838 375.189 380.814 376.713C381.791 378.217 383.158 378.969 384.916 378.969C387.045 378.969 388.598 378.256 389.574 376.83V363.5C388.617 362.055 387.084 361.332 384.975 361.332C383.217 361.332 381.84 362.123 380.844 363.705C379.848 365.268 379.35 367.543 379.35 370.531ZM431.557 346.42V354.301H436.771V361.156H431.557V375.658C431.557 376.85 431.771 377.68 432.201 378.148C432.631 378.617 433.48 378.852 434.75 378.852C435.727 378.852 436.547 378.793 437.211 378.676V385.736C435.434 386.303 433.578 386.586 431.645 386.586C428.246 386.586 425.736 385.785 424.115 384.184C422.494 382.582 421.684 380.15 421.684 376.889V361.156H417.641V354.301H421.684V346.42H431.557ZM450.336 357.699C452.445 355.043 455.141 353.715 458.422 353.715C461.918 353.715 464.555 354.75 466.332 356.82C468.109 358.891 469.018 361.947 469.057 365.99V386H459.154V366.225C459.154 364.545 458.812 363.314 458.129 362.533C457.445 361.732 456.283 361.332 454.643 361.332C452.611 361.332 451.176 361.977 450.336 363.266V386H440.463V341H450.336V357.699ZM489.887 386.586C485.023 386.586 481.088 385.141 478.08 382.25C475.072 379.34 473.568 375.561 473.568 370.912V370.092C473.568 366.85 474.164 363.988 475.355 361.508C476.566 359.027 478.324 357.113 480.629 355.766C482.934 354.398 485.668 353.715 488.832 353.715C493.285 353.715 496.801 355.102 499.379 357.875C501.957 360.629 503.246 364.477 503.246 369.418V373.256H483.617C483.969 375.033 484.74 376.43 485.932 377.445C487.123 378.461 488.666 378.969 490.561 378.969C493.686 378.969 496.127 377.875 497.885 375.688L502.396 381.02C501.166 382.719 499.418 384.076 497.152 385.092C494.906 386.088 492.484 386.586 489.887 386.586ZM488.773 361.332C485.883 361.332 484.164 363.246 483.617 367.074H493.578V366.312C493.617 364.73 493.217 363.51 492.377 362.65C491.537 361.771 490.336 361.332 488.773 361.332ZM549.564 372.992L552.758 354.301H562.221L554.75 386H546.4L541.156 367.191L535.883 386H527.533L520.062 354.301H529.525L532.66 373.432L537.699 354.301H544.584L549.564 372.992ZM564.535 369.857C564.535 366.693 565.15 363.881 566.381 361.42C567.611 358.939 569.379 357.035 571.684 355.707C573.988 354.379 576.693 353.715 579.799 353.715C584.545 353.715 588.285 355.189 591.02 358.139C593.754 361.068 595.121 365.062 595.121 370.121V370.473C595.121 375.414 593.744 379.34 590.99 382.25C588.256 385.141 584.545 386.586 579.857 386.586C575.346 386.586 571.723 385.238 568.988 382.543C566.254 379.828 564.779 376.156 564.564 371.527L564.535 369.857ZM574.408 370.473C574.408 373.402 574.867 375.551 575.785 376.918C576.703 378.285 578.061 378.969 579.857 378.969C583.373 378.969 585.17 376.264 585.248 370.854V369.857C585.248 364.174 583.432 361.332 579.799 361.332C576.498 361.332 574.711 363.783 574.438 368.686L574.408 370.473ZM618.646 363.236L615.395 363.002C612.289 363.002 610.297 363.979 609.418 365.932V386H599.545V354.301H608.803L609.125 358.373C610.785 355.268 613.1 353.715 616.068 353.715C617.123 353.715 618.041 353.832 618.822 354.066L618.646 363.236ZM632.621 386H622.719V341H632.621V386ZM637.484 369.916C637.484 364.896 638.568 360.941 640.736 358.051C642.904 355.16 645.932 353.715 649.818 353.715C652.65 353.715 655.033 354.828 656.967 357.055V341H666.869V386H657.992L657.494 382.602C655.463 385.258 652.885 386.586 649.76 386.586C645.99 386.586 643.002 385.141 640.795 382.25C638.588 379.359 637.484 375.248 637.484 369.916ZM647.357 370.531C647.357 376.156 648.998 378.969 652.279 378.969C654.467 378.969 656.029 378.051 656.967 376.215V364.145C656.068 362.27 654.525 361.332 652.338 361.332C649.291 361.332 647.641 363.793 647.387 368.715L647.357 370.531ZM139.936 442.992L143.129 424.301H152.592L145.121 456H136.771L131.527 437.191L126.254 456H117.904L110.434 424.301H119.896L123.031 443.432L128.07 424.301H134.955L139.936 442.992ZM166.566 456H156.664V424.301H166.566V456ZM156.078 416.127C156.078 414.721 156.586 413.568 157.602 412.67C158.617 411.771 159.936 411.322 161.557 411.322C163.178 411.322 164.496 411.771 165.512 412.67C166.527 413.568 167.035 414.721 167.035 416.127C167.035 417.533 166.527 418.686 165.512 419.584C164.496 420.482 163.178 420.932 161.557 420.932C159.936 420.932 158.617 420.482 157.602 419.584C156.586 418.686 156.078 417.533 156.078 416.127ZM184.174 416.42V424.301H189.389V431.156H184.174V445.658C184.174 446.85 184.389 447.68 184.818 448.148C185.248 448.617 186.098 448.852 187.367 448.852C188.344 448.852 189.164 448.793 189.828 448.676V455.736C188.051 456.303 186.195 456.586 184.262 456.586C180.863 456.586 178.354 455.785 176.732 454.184C175.111 452.582 174.301 450.15 174.301 446.889V431.156H170.258V424.301H174.301V416.42H184.174ZM202.953 427.699C205.062 425.043 207.758 423.715 211.039 423.715C214.535 423.715 217.172 424.75 218.949 426.82C220.727 428.891 221.635 431.947 221.674 435.99V456H211.771V436.225C211.771 434.545 211.43 433.314 210.746 432.533C210.062 431.732 208.9 431.332 207.26 431.332C205.229 431.332 203.793 431.977 202.953 433.266V456H193.08V411H202.953V427.699ZM278.686 435.551C278.686 439.711 277.914 443.393 276.371 446.596C274.828 449.799 272.631 452.27 269.779 454.008C266.947 455.727 263.715 456.586 260.082 456.586C256.449 456.586 253.227 455.756 250.414 454.096C247.602 452.416 245.404 450.023 243.822 446.918C242.26 443.812 241.439 440.248 241.361 436.225V433.822C241.361 429.643 242.123 425.961 243.646 422.777C245.189 419.574 247.387 417.104 250.238 415.365C253.109 413.627 256.371 412.758 260.023 412.758C263.637 412.758 266.859 413.617 269.691 415.336C272.523 417.055 274.721 419.506 276.283 422.689C277.865 425.854 278.666 429.486 278.686 433.588V435.551ZM268.227 433.764C268.227 429.525 267.514 426.312 266.088 424.125C264.682 421.918 262.66 420.814 260.023 420.814C254.867 420.814 252.143 424.682 251.85 432.416L251.82 435.551C251.82 439.73 252.514 442.943 253.9 445.189C255.287 447.436 257.348 448.559 260.082 448.559C262.68 448.559 264.682 447.455 266.088 445.248C267.494 443.041 268.207 439.867 268.227 435.727V433.764ZM312.963 440.385C312.963 445.307 311.85 449.242 309.623 452.191C307.416 455.121 304.428 456.586 300.658 456.586C297.748 456.586 295.355 455.521 293.48 453.393V468.188H283.607V424.301H292.836L293.129 427.23C295.023 424.887 297.514 423.715 300.6 423.715C304.506 423.715 307.543 425.16 309.711 428.051C311.879 430.922 312.963 434.877 312.963 439.916V440.385ZM303.09 439.77C303.09 434.145 301.449 431.332 298.168 431.332C295.824 431.332 294.262 432.172 293.48 433.852V446.332C294.34 448.09 295.922 448.969 298.227 448.969C301.371 448.969 302.992 446.254 303.09 440.824V439.77ZM332.68 456.586C327.816 456.586 323.881 455.141 320.873 452.25C317.865 449.34 316.361 445.561 316.361 440.912V440.092C316.361 436.85 316.957 433.988 318.148 431.508C319.359 429.027 321.117 427.113 323.422 425.766C325.727 424.398 328.461 423.715 331.625 423.715C336.078 423.715 339.594 425.102 342.172 427.875C344.75 430.629 346.039 434.477 346.039 439.418V443.256H326.41C326.762 445.033 327.533 446.43 328.725 447.445C329.916 448.461 331.459 448.969 333.354 448.969C336.479 448.969 338.92 447.875 340.678 445.688L345.189 451.02C343.959 452.719 342.211 454.076 339.945 455.092C337.699 456.088 335.277 456.586 332.68 456.586ZM331.566 431.332C328.676 431.332 326.957 433.246 326.41 437.074H336.371V436.312C336.41 434.73 336.01 433.51 335.17 432.65C334.33 431.771 333.129 431.332 331.566 431.332ZM359.105 424.301L359.428 428.021C361.615 425.15 364.633 423.715 368.48 423.715C371.781 423.715 374.242 424.701 375.863 426.674C377.504 428.646 378.354 431.615 378.412 435.58V456H368.51V435.99C368.51 434.389 368.188 433.217 367.543 432.475C366.898 431.713 365.727 431.332 364.027 431.332C362.094 431.332 360.658 432.094 359.721 433.617V456H349.848V424.301H359.105ZM421.303 444.662C421.303 443.158 420.766 441.986 419.691 441.146C418.637 440.307 416.771 439.438 414.096 438.539C411.42 437.641 409.232 436.771 407.533 435.932C402.006 433.217 399.242 429.486 399.242 424.74C399.242 422.377 399.926 420.297 401.293 418.5C402.68 416.684 404.633 415.277 407.152 414.281C409.672 413.266 412.504 412.758 415.648 412.758C418.715 412.758 421.459 413.305 423.881 414.398C426.322 415.492 428.217 417.055 429.564 419.086C430.912 421.098 431.586 423.402 431.586 426H421.332C421.332 424.262 420.795 422.914 419.721 421.957C418.666 421 417.23 420.521 415.414 420.521C413.578 420.521 412.123 420.932 411.049 421.752C409.994 422.553 409.467 423.578 409.467 424.828C409.467 425.922 410.053 426.918 411.225 427.816C412.396 428.695 414.457 429.613 417.406 430.57C420.355 431.508 422.777 432.523 424.672 433.617C429.281 436.273 431.586 439.936 431.586 444.604C431.586 448.334 430.18 451.264 427.367 453.393C424.555 455.521 420.697 456.586 415.795 456.586C412.338 456.586 409.203 455.971 406.391 454.74C403.598 453.49 401.488 451.791 400.062 449.643C398.656 447.475 397.953 444.984 397.953 442.172H408.266C408.266 444.457 408.852 446.146 410.023 447.24C411.215 448.314 413.139 448.852 415.795 448.852C417.494 448.852 418.832 448.49 419.809 447.768C420.805 447.025 421.303 445.99 421.303 444.662ZM435.16 439.857C435.16 436.693 435.775 433.881 437.006 431.42C438.236 428.939 440.004 427.035 442.309 425.707C444.613 424.379 447.318 423.715 450.424 423.715C455.17 423.715 458.91 425.189 461.645 428.139C464.379 431.068 465.746 435.062 465.746 440.121V440.473C465.746 445.414 464.369 449.34 461.615 452.25C458.881 455.141 455.17 456.586 450.482 456.586C445.971 456.586 442.348 455.238 439.613 452.543C436.879 449.828 435.404 446.156 435.189 441.527L435.16 439.857ZM445.033 440.473C445.033 443.402 445.492 445.551 446.41 446.918C447.328 448.285 448.686 448.969 450.482 448.969C453.998 448.969 455.795 446.264 455.873 440.854V439.857C455.873 434.174 454.057 431.332 450.424 431.332C447.123 431.332 445.336 433.783 445.062 438.686L445.033 440.473ZM488.979 452.572C486.889 455.248 484.066 456.586 480.512 456.586C477.035 456.586 474.398 455.58 472.602 453.568C470.824 451.537 469.936 448.627 469.936 444.838V424.301H479.809V444.896C479.809 447.611 481.127 448.969 483.764 448.969C486.029 448.969 487.641 448.158 488.598 446.537V424.301H498.529V456H489.271L488.979 452.572ZM523.139 433.236L519.887 433.002C516.781 433.002 514.789 433.979 513.91 435.932V456H504.037V424.301H513.295L513.617 428.373C515.277 425.268 517.592 423.715 520.561 423.715C521.615 423.715 522.533 423.832 523.314 424.066L523.139 433.236ZM539.516 448.969C540.902 448.969 541.977 448.598 542.738 447.855C543.5 447.094 543.871 446.039 543.852 444.691H553.109C553.109 448.168 551.859 451.02 549.359 453.246C546.879 455.473 543.676 456.586 539.75 456.586C535.141 456.586 531.508 455.141 528.852 452.25C526.195 449.359 524.867 445.355 524.867 440.238V439.828C524.867 436.625 525.453 433.803 526.625 431.361C527.816 428.9 529.525 427.016 531.752 425.707C533.979 424.379 536.615 423.715 539.662 423.715C543.783 423.715 547.055 424.857 549.477 427.143C551.898 429.428 553.109 432.523 553.109 436.43H543.852C543.852 434.789 543.451 433.529 542.65 432.65C541.85 431.771 540.775 431.332 539.428 431.332C536.869 431.332 535.375 432.963 534.945 436.225C534.809 437.26 534.74 438.686 534.74 440.502C534.74 443.686 535.121 445.893 535.883 447.123C536.645 448.354 537.855 448.969 539.516 448.969ZM572.621 456.586C567.758 456.586 563.822 455.141 560.814 452.25C557.807 449.34 556.303 445.561 556.303 440.912V440.092C556.303 436.85 556.898 433.988 558.09 431.508C559.301 429.027 561.059 427.113 563.363 425.766C565.668 424.398 568.402 423.715 571.566 423.715C576.02 423.715 579.535 425.102 582.113 427.875C584.691 430.629 585.98 434.477 585.98 439.418V443.256H566.352C566.703 445.033 567.475 446.43 568.666 447.445C569.857 448.461 571.4 448.969 573.295 448.969C576.42 448.969 578.861 447.875 580.619 445.688L585.131 451.02C583.9 452.719 582.152 454.076 579.887 455.092C577.641 456.088 575.219 456.586 572.621 456.586ZM571.508 431.332C568.617 431.332 566.898 433.246 566.352 437.074H576.312V436.312C576.352 434.73 575.951 433.51 575.111 432.65C574.271 431.771 573.07 431.332 571.508 431.332Z" fill="#006BE8"/>
<g filter="url(#filter0_d_501_3)">
<path d="M468.575 754.918L465.054 747.624C465.072 747.348 465.086 747.071 465.086 746.792C465.086 738.525 456.489 730.905 442.025 724.804V729.877C440.614 729.317 439.145 728.772 437.615 728.245V725.881C416.944 718.426 386.17 713.695 351.795 713.695C321.761 713.695 294.474 717.306 274.273 723.19V731.429H274.272V721.457C253.575 728.034 240.744 737.171 240.744 747.274C240.744 748.866 241.065 750.435 241.682 751.974L239.574 755.727C239.574 755.727 237.885 757.918 240.859 762.54C243.482 766.617 256.623 782.574 263.559 790.93C266.538 795.214 268.558 797.852 268.735 797.597C269.013 797.193 266.882 789.15 260.966 779.974C258.205 775.046 254.909 768.516 252.929 763.693C258.454 767.19 290.913 783.535 357.122 783.468C424.787 783.401 454.864 762.22 458.165 759.337C457.012 763.971 453.07 773.346 449.927 779.94C444.763 789.369 442.892 797.579 443.132 797.985C443.285 798.241 445.047 795.523 447.646 791.118C453.693 782.502 465.151 766.053 467.441 761.863C470.035 757.113 468.575 754.918 468.575 754.918Z" fill="#A52B00"/>
<path d="M489.029 754.872L465.888 737.825C465.67 737.067 465.453 736.308 465.228 735.555L472.83 724.544C473.606 723.424 473.762 721.968 473.258 720.691C472.753 719.42 471.65 718.508 470.344 718.285L457.492 716.104C456.993 715.087 456.472 714.087 455.948 713.094L461.348 700.731C461.903 699.472 461.787 698.008 461.05 696.865C460.316 695.717 459.071 695.046 457.743 695.098L444.699 695.572C444.023 694.693 443.337 693.821 442.637 692.966L445.635 679.715C445.939 678.369 445.555 676.96 444.618 675.983C443.686 675.009 442.332 674.606 441.044 674.922L428.339 678.045C427.516 677.318 426.68 676.601 425.834 675.897L426.291 662.293C426.34 660.916 425.698 659.608 424.596 658.843C423.494 658.074 422.096 657.959 420.891 658.53L409.038 664.165C408.084 663.618 407.124 663.075 406.153 662.55L404.059 649.145C403.846 647.787 402.973 646.633 401.749 646.106C400.529 645.577 399.131 645.748 398.06 646.554L387.492 654.483C386.452 654.138 385.406 653.807 384.349 653.49L379.794 640.777C379.33 639.482 378.262 638.53 376.96 638.262C375.662 637.997 374.327 638.446 373.427 639.452L364.531 649.403C363.456 649.28 362.379 649.167 361.301 649.074L354.432 637.501C353.737 636.33 352.508 635.616 351.183 635.616C349.862 635.616 348.631 636.33 347.94 637.501L341.07 649.074C339.991 649.167 338.91 649.28 337.836 649.403L328.941 639.452C328.039 638.446 326.7 637.997 325.405 638.262C324.104 638.533 323.034 639.482 322.574 640.777L318.015 653.49C316.959 653.807 315.914 654.14 314.871 654.483L304.307 646.554C303.233 645.745 301.834 645.574 300.612 646.106C299.393 646.633 298.516 647.787 298.304 649.145L296.208 662.55C295.239 663.075 294.279 663.615 293.322 664.165L281.471 658.53C280.267 657.957 278.862 658.074 277.765 658.843C276.665 659.608 276.021 660.916 276.071 662.293L276.526 675.897C275.682 676.601 274.848 677.318 274.021 678.045L261.317 674.922C260.027 674.608 258.674 675.009 257.74 675.983C256.801 676.96 256.42 678.369 256.722 679.715L259.714 692.966C259.02 693.825 258.333 694.693 257.66 695.572L244.615 695.098C243.299 695.059 242.042 695.717 241.307 696.865C240.57 698.008 240.458 699.472 241.007 700.731L246.411 713.094C245.886 714.087 245.365 715.087 244.862 716.104L232.011 718.285C230.704 718.505 229.604 719.416 229.096 720.691C228.592 721.968 228.755 723.424 229.526 724.544L237.128 735.555C237.069 735.75 237.015 735.946 236.957 736.141L215.462 758.974C215.462 758.974 212.168 761.556 216.963 767.623C221.193 772.976 242.907 794.193 254.376 805.308C259.219 810.951 262.538 814.446 262.884 814.144C263.431 813.664 260.559 803.396 251.019 791.35C243.664 780.542 234.119 763.919 236.358 762.003C236.358 762.003 238.903 758.771 244.011 756.445C244.198 756.594 243.818 756.297 244.011 756.445C244.011 756.445 351.81 806.171 451.803 757.286C463.226 755.237 470.141 761.356 470.141 761.356C472.526 762.739 466.351 779.832 461.272 791.146C454.366 803.994 453.353 814.019 453.939 814.367C454.309 814.588 456.821 810.764 460.406 804.679C469.25 792.355 485.969 768.861 489.029 763.155C492.499 756.685 489.029 754.872 489.029 754.872Z" fill="#F74C00"/>
<path d="M441.892 748.494C441.892 748.494 457.403 747.775 477.777 727.067L480.664 720.657C480.664 720.657 449.042 689.201 498.198 667.489C498.198 667.489 493.894 674.521 495.157 701.693C495.157 701.693 509.978 696.545 514.324 672.544C514.324 672.544 535.942 701.047 490.844 727.779C490.844 727.779 469.686 761.696 439.859 758.448L441.892 748.494Z" fill="#F74C00"/>
<path d="M371.63 728.957C371.63 728.957 382.403 717.161 393.176 728.957C393.176 728.957 401.641 744.686 393.176 752.549C393.176 752.549 379.326 763.559 371.63 752.549C371.63 752.549 362.397 743.898 371.63 728.957Z" fill="black"/>
<path d="M384.106 733.335C384.106 737.928 381.398 741.652 378.059 741.652C374.72 741.652 372.012 737.928 372.012 733.335C372.012 728.741 374.72 725.017 378.059 725.017C381.398 725.017 384.106 728.741 384.106 733.335Z" fill="white"/>
<path d="M323.549 725.734C323.549 725.734 342.028 717.552 347.071 735.814C347.071 735.814 352.355 757.1 331.896 758.302C331.896 758.302 305.808 753.277 323.549 725.734Z" fill="black"/>
<path d="M332.83 733.638C332.83 738.375 330.038 742.216 326.594 742.216C323.151 742.216 320.358 738.375 320.358 733.638C320.358 728.9 323.151 725.06 326.594 725.06C330.038 725.06 332.83 728.9 332.83 733.638Z" fill="white"/>
<path d="M347.232 765.745L370.798 763.854C370.798 763.854 369.999 767.647 366.925 770.495C366.925 770.495 358.819 779.382 349.52 769.756C349.52 769.756 347.998 768.114 347.232 765.745Z" fill="black"/>
<path d="M252.867 743.929C252.673 743.929 252.482 743.943 252.292 743.959C244.64 742.217 223.133 736.613 217.448 727.519C217.448 727.519 246.39 694.598 201.156 673.556L206.422 709.978C206.422 709.978 192.478 700.66 189.469 680.419C189.469 680.419 155.512 705.063 204.456 728.682C204.456 728.682 208.895 745.362 251.516 758.67L251.547 758.543C251.976 758.622 252.416 758.67 252.867 758.67C256.895 758.67 260.16 755.371 260.16 751.299C260.16 747.229 256.895 743.929 252.867 743.929Z" fill="#F74C00"/>
</g>
<path d="M409.42 630.97C411.15 639.16 411.15 640.02 411.15 641.1C411.15 655.1 395.41 662.87 374.72 662.87C327.96 662.9 287 635.5 287 617.39C286.997 614.869 287.511 612.375 288.51 610.06L292.17 601C292.002 601.619 291.928 602.259 291.95 602.9C291.95 612.12 328.25 642.35 376.89 642.35C389.4 642.35 407.5 639.77 407.5 624.89C407.537 623.742 407.433 622.593 407.19 621.47L409.42 630.97Z" fill="black"/>
<path d="M376.97 641.99C389.48 641.99 407.58 639.41 407.58 624.53C407.617 623.382 407.513 622.233 407.27 621.11L399.82 588.75C398.1 581.63 396.59 578.4 384.09 572.15C374.39 567.19 353.26 559 347.01 559C341.19 559 339.5 566.5 332.56 566.5C325.88 566.5 320.92 560.9 314.67 560.9C308.67 560.9 304.76 564.99 301.74 573.4C301.74 573.4 293.33 597.12 292.25 600.56C292.078 601.192 292.004 601.846 292.03 602.5C292.03 611.72 328.33 641.95 376.97 641.95V641.99ZM409.5 630.57C411.23 638.76 411.23 639.62 411.23 640.7C411.23 654.7 395.49 662.47 374.8 662.47C328.04 662.5 287.08 635.1 287.08 616.99C287.077 614.469 287.591 611.975 288.59 609.66C271.77 610.5 250 613.5 250 632.72C250 664.2 324.59 703 383.65 703C428.93 703 440.35 682.52 440.35 666.35C440.35 653.63 429.35 639.19 409.52 630.57" fill="#EE0000"/>
<defs>
<filter id="filter0_d_501_3" x="170" y="635.616" width="357.503" height="194.76" filterUnits="userSpaceOnUse" color-interpolation-filters="sRGB">
<feFlood flood-opacity="0" result="BackgroundImageFix"/>
<feColorMatrix in="SourceAlpha" type="matrix" values="0 0 0 0 0 0 0 0 0 0 0 0 0 0 0 0 0 0 127 0" result="hardAlpha"/>
<feOffset dy="8"/>
<feGaussianBlur stdDeviation="4"/>
<feColorMatrix type="matrix" values="0 0 0 0 0 0 0 0 0 0 0 0 0 0 0 0 0 0 0.25 0"/>
<feBlend mode="normal" in2="BackgroundImageFix" result="effect1_dropShadow_501_3"/>
<feBlend mode="normal" in="SourceGraphic" in2="effect1_dropShadow_501_3" result="shape"/>
</filter>
</defs>
</svg>
