<svg width="600" height="300" viewBox="0 0 600 300" fill="none" xmlns="http://www.w3.org/2000/svg">
<rect width="600" height="300" fill="white"/>
<path d="M147.518 229.124L228 203L263.5 174L281 135.5L315.5 131L348.5 108.5L380.5 103L403 93.5L426.5 83L443 57.5L482.5 36L518.518 25.1237" stroke="#0094FF" stroke-width="2"/>
<path d="M149.414 24.5858C148.633 23.8047 147.367 23.8047 146.586 24.5858L133.858 37.3137C133.077 38.0947 133.077 39.3611 133.858 40.1421C134.639 40.9232 135.905 40.9232 136.687 40.1421L148 28.8284L159.314 40.1421C160.095 40.9232 161.361 40.9232 162.142 40.1422C162.923 39.3611 162.923 38.0948 162.142 37.3137L149.414 24.5858ZM150 232L150 26L146 26L146 232L150 232Z" fill="black"/>
<path d="M520.413 231.414C521.194 230.633 521.194 229.367 520.413 228.586L507.685 215.858C506.904 215.077 505.638 215.077 504.857 215.858C504.076 216.639 504.076 217.905 504.857 218.686L516.17 230L504.857 241.314C504.076 242.095 504.076 243.361 504.857 244.142C505.638 244.923 506.904 244.923 507.685 244.142L520.413 231.414ZM146 232H518.999V228H146V232Z" fill="black"/>
<path d="M37.4648 132.938V150H33.9492V132.938H37.4648ZM44.2617 140.227V142.969H36.5039V140.227H44.2617ZM45.082 132.938V135.691H36.5039V132.938H45.082ZM52.4883 150.234C51.5039 150.234 50.6211 150.078 49.8398 149.766C49.0586 149.445 48.3945 149.004 47.8477 148.441C47.3086 147.879 46.8945 147.227 46.6055 146.484C46.3164 145.734 46.1719 144.938 46.1719 144.094V143.625C46.1719 142.664 46.3086 141.785 46.582 140.988C46.8555 140.191 47.2461 139.5 47.7539 138.914C48.2695 138.328 48.8945 137.879 49.6289 137.566C50.3633 137.246 51.1914 137.086 52.1133 137.086C53.0117 137.086 53.8086 137.234 54.5039 137.531C55.1992 137.828 55.7812 138.25 56.25 138.797C56.7266 139.344 57.0859 140 57.3281 140.766C57.5703 141.523 57.6914 142.367 57.6914 143.297V144.703H47.6133V142.453H54.375V142.195C54.375 141.727 54.2891 141.309 54.1172 140.941C53.9531 140.566 53.7031 140.27 53.3672 140.051C53.0312 139.832 52.6016 139.723 52.0781 139.723C51.6328 139.723 51.25 139.82 50.9297 140.016C50.6094 140.211 50.3477 140.484 50.1445 140.836C49.9492 141.188 49.8008 141.602 49.6992 142.078C49.6055 142.547 49.5586 143.062 49.5586 143.625V144.094C49.5586 144.602 49.6289 145.07 49.7695 145.5C49.918 145.93 50.125 146.301 50.3906 146.613C50.6641 146.926 50.9922 147.168 51.375 147.34C51.7656 147.512 52.207 147.598 52.6992 147.598C53.3086 147.598 53.875 147.48 54.3984 147.246C54.9297 147.004 55.3867 146.641 55.7695 146.156L57.4102 147.938C57.1445 148.32 56.7812 148.688 56.3203 149.039C55.8672 149.391 55.3203 149.68 54.6797 149.906C54.0391 150.125 53.3086 150.234 52.4883 150.234ZM66.457 147.141V141.492C66.457 141.086 66.3906 140.738 66.2578 140.449C66.125 140.152 65.918 139.922 65.6367 139.758C65.3633 139.594 65.0078 139.512 64.5703 139.512C64.1953 139.512 63.8711 139.578 63.5977 139.711C63.3242 139.836 63.1133 140.02 62.9648 140.262C62.8164 140.496 62.7422 140.773 62.7422 141.094H59.3672C59.3672 140.555 59.4922 140.043 59.7422 139.559C59.9922 139.074 60.3555 138.648 60.832 138.281C61.3086 137.906 61.875 137.613 62.5312 137.402C63.1953 137.191 63.9375 137.086 64.7578 137.086C65.7422 137.086 66.6172 137.25 67.3828 137.578C68.1484 137.906 68.75 138.398 69.1875 139.055C69.6328 139.711 69.8555 140.531 69.8555 141.516V146.941C69.8555 147.637 69.8984 148.207 69.9844 148.652C70.0703 149.09 70.1953 149.473 70.3594 149.801V150H66.9492C66.7852 149.656 66.6602 149.227 66.5742 148.711C66.4961 148.188 66.457 147.664 66.457 147.141ZM66.9023 142.277L66.9258 144.188H65.0391C64.5938 144.188 64.207 144.238 63.8789 144.34C63.5508 144.441 63.2812 144.586 63.0703 144.773C62.8594 144.953 62.7031 145.164 62.6016 145.406C62.5078 145.648 62.4609 145.914 62.4609 146.203C62.4609 146.492 62.5273 146.754 62.6602 146.988C62.793 147.215 62.9844 147.395 63.2344 147.527C63.4844 147.652 63.7773 147.715 64.1133 147.715C64.6211 147.715 65.0625 147.613 65.4375 147.41C65.8125 147.207 66.1016 146.957 66.3047 146.66C66.5156 146.363 66.625 146.082 66.6328 145.816L67.5234 147.246C67.3984 147.566 67.2266 147.898 67.0078 148.242C66.7969 148.586 66.5273 148.91 66.1992 149.215C65.8711 149.512 65.4766 149.758 65.0156 149.953C64.5547 150.141 64.0078 150.234 63.375 150.234C62.5703 150.234 61.8398 150.074 61.1836 149.754C60.5352 149.426 60.0195 148.977 59.6367 148.406C59.2617 147.828 59.0742 147.172 59.0742 146.438C59.0742 145.773 59.1992 145.184 59.4492 144.668C59.6992 144.152 60.0664 143.719 60.5508 143.367C61.043 143.008 61.6562 142.738 62.3906 142.559C63.125 142.371 63.9766 142.277 64.9453 142.277H66.9023ZM78.668 137.32V139.711H71.2852V137.32H78.668ZM73.1133 134.191H76.4883V146.18C76.4883 146.547 76.5352 146.828 76.6289 147.023C76.7305 147.219 76.8789 147.355 77.0742 147.434C77.2695 147.504 77.5156 147.539 77.8125 147.539C78.0234 147.539 78.2109 147.531 78.375 147.516C78.5469 147.492 78.6914 147.469 78.8086 147.445L78.8203 149.93C78.5312 150.023 78.2188 150.098 77.8828 150.152C77.5469 150.207 77.1758 150.234 76.7695 150.234C76.0273 150.234 75.3789 150.113 74.8242 149.871C74.2773 149.621 73.8555 149.223 73.5586 148.676C73.2617 148.129 73.1133 147.41 73.1133 146.52V134.191ZM88.0898 146.965V137.32H91.4648V150H88.2891L88.0898 146.965ZM88.4648 144.363L89.4609 144.34C89.4609 145.184 89.3633 145.969 89.168 146.695C88.9727 147.414 88.6797 148.039 88.2891 148.57C87.8984 149.094 87.4062 149.504 86.8125 149.801C86.2188 150.09 85.5195 150.234 84.7148 150.234C84.0977 150.234 83.5273 150.148 83.0039 149.977C82.4883 149.797 82.043 149.52 81.668 149.145C81.3008 148.762 81.0117 148.273 80.8008 147.68C80.5977 147.078 80.4961 146.355 80.4961 145.512V137.32H83.8711V145.535C83.8711 145.91 83.9141 146.227 84 146.484C84.0938 146.742 84.2227 146.953 84.3867 147.117C84.5508 147.281 84.7422 147.398 84.9609 147.469C85.1875 147.539 85.4375 147.574 85.7109 147.574C86.4062 147.574 86.9531 147.434 87.3516 147.152C87.7578 146.871 88.043 146.488 88.207 146.004C88.3789 145.512 88.4648 144.965 88.4648 144.363ZM97.418 140.086V150H94.043V137.32H97.2188L97.418 140.086ZM101.238 137.238L101.18 140.367C101.016 140.344 100.816 140.324 100.582 140.309C100.355 140.285 100.148 140.273 99.9609 140.273C99.4844 140.273 99.0703 140.336 98.7188 140.461C98.375 140.578 98.0859 140.754 97.8516 140.988C97.625 141.223 97.4531 141.508 97.3359 141.844C97.2266 142.18 97.1641 142.562 97.1484 142.992L96.4688 142.781C96.4688 141.961 96.5508 141.207 96.7148 140.52C96.8789 139.824 97.1172 139.219 97.4297 138.703C97.75 138.188 98.1406 137.789 98.6016 137.508C99.0625 137.227 99.5898 137.086 100.184 137.086C100.371 137.086 100.562 137.102 100.758 137.133C100.953 137.156 101.113 137.191 101.238 137.238ZM108.434 150.234C107.449 150.234 106.566 150.078 105.785 149.766C105.004 149.445 104.34 149.004 103.793 148.441C103.254 147.879 102.84 147.227 102.551 146.484C102.262 145.734 102.117 144.938 102.117 144.094V143.625C102.117 142.664 102.254 141.785 102.527 140.988C102.801 140.191 103.191 139.5 103.699 138.914C104.215 138.328 104.84 137.879 105.574 137.566C106.309 137.246 107.137 137.086 108.059 137.086C108.957 137.086 109.754 137.234 110.449 137.531C111.145 137.828 111.727 138.25 112.195 138.797C112.672 139.344 113.031 140 113.273 140.766C113.516 141.523 113.637 142.367 113.637 143.297V144.703H103.559V142.453H110.32V142.195C110.32 141.727 110.234 141.309 110.062 140.941C109.898 140.566 109.648 140.27 109.312 140.051C108.977 139.832 108.547 139.723 108.023 139.723C107.578 139.723 107.195 139.82 106.875 140.016C106.555 140.211 106.293 140.484 106.09 140.836C105.895 141.188 105.746 141.602 105.645 142.078C105.551 142.547 105.504 143.062 105.504 143.625V144.094C105.504 144.602 105.574 145.07 105.715 145.5C105.863 145.93 106.07 146.301 106.336 146.613C106.609 146.926 106.938 147.168 107.32 147.34C107.711 147.512 108.152 147.598 108.645 147.598C109.254 147.598 109.82 147.48 110.344 147.246C110.875 147.004 111.332 146.641 111.715 146.156L113.355 147.938C113.09 148.32 112.727 148.688 112.266 149.039C111.812 149.391 111.266 149.68 110.625 149.906C109.984 150.125 109.254 150.234 108.434 150.234ZM122.414 146.496C122.414 146.254 122.344 146.035 122.203 145.84C122.062 145.645 121.801 145.465 121.418 145.301C121.043 145.129 120.5 144.973 119.789 144.832C119.148 144.691 118.551 144.516 117.996 144.305C117.449 144.086 116.973 143.824 116.566 143.52C116.168 143.215 115.855 142.855 115.629 142.441C115.402 142.02 115.289 141.539 115.289 141C115.289 140.469 115.402 139.969 115.629 139.5C115.863 139.031 116.195 138.617 116.625 138.258C117.062 137.891 117.594 137.605 118.219 137.402C118.852 137.191 119.562 137.086 120.352 137.086C121.453 137.086 122.398 137.262 123.188 137.613C123.984 137.965 124.594 138.449 125.016 139.066C125.445 139.676 125.66 140.371 125.66 141.152H122.285C122.285 140.824 122.215 140.531 122.074 140.273C121.941 140.008 121.73 139.801 121.441 139.652C121.16 139.496 120.793 139.418 120.34 139.418C119.965 139.418 119.641 139.484 119.367 139.617C119.094 139.742 118.883 139.914 118.734 140.133C118.594 140.344 118.523 140.578 118.523 140.836C118.523 141.031 118.562 141.207 118.641 141.363C118.727 141.512 118.863 141.648 119.051 141.773C119.238 141.898 119.48 142.016 119.777 142.125C120.082 142.227 120.457 142.32 120.902 142.406C121.816 142.594 122.633 142.84 123.352 143.145C124.07 143.441 124.641 143.848 125.062 144.363C125.484 144.871 125.695 145.539 125.695 146.367C125.695 146.93 125.57 147.445 125.32 147.914C125.07 148.383 124.711 148.793 124.242 149.145C123.773 149.488 123.211 149.758 122.555 149.953C121.906 150.141 121.176 150.234 120.363 150.234C119.184 150.234 118.184 150.023 117.363 149.602C116.551 149.18 115.934 148.645 115.512 147.996C115.098 147.34 114.891 146.668 114.891 145.98H118.09C118.105 146.441 118.223 146.812 118.441 147.094C118.668 147.375 118.953 147.578 119.297 147.703C119.648 147.828 120.027 147.891 120.434 147.891C120.871 147.891 121.234 147.832 121.523 147.715C121.812 147.59 122.031 147.426 122.18 147.223C122.336 147.012 122.414 146.77 122.414 146.496Z" fill="black"/>
<path d="M293.715 272.438L297.734 258.938H301.648L295.707 276H293.129L293.715 272.438ZM290.012 258.938L294.02 272.438L294.629 276H292.027L286.121 258.938H290.012ZM308.352 276.234C307.367 276.234 306.484 276.078 305.703 275.766C304.922 275.445 304.258 275.004 303.711 274.441C303.172 273.879 302.758 273.227 302.469 272.484C302.18 271.734 302.035 270.938 302.035 270.094V269.625C302.035 268.664 302.172 267.785 302.445 266.988C302.719 266.191 303.109 265.5 303.617 264.914C304.133 264.328 304.758 263.879 305.492 263.566C306.227 263.246 307.055 263.086 307.977 263.086C308.875 263.086 309.672 263.234 310.367 263.531C311.062 263.828 311.645 264.25 312.113 264.797C312.59 265.344 312.949 266 313.191 266.766C313.434 267.523 313.555 268.367 313.555 269.297V270.703H303.477V268.453H310.238V268.195C310.238 267.727 310.152 267.309 309.98 266.941C309.816 266.566 309.566 266.27 309.23 266.051C308.895 265.832 308.465 265.723 307.941 265.723C307.496 265.723 307.113 265.82 306.793 266.016C306.473 266.211 306.211 266.484 306.008 266.836C305.812 267.188 305.664 267.602 305.562 268.078C305.469 268.547 305.422 269.062 305.422 269.625V270.094C305.422 270.602 305.492 271.07 305.633 271.5C305.781 271.93 305.988 272.301 306.254 272.613C306.527 272.926 306.855 273.168 307.238 273.34C307.629 273.512 308.07 273.598 308.562 273.598C309.172 273.598 309.738 273.48 310.262 273.246C310.793 273.004 311.25 272.641 311.633 272.156L313.273 273.938C313.008 274.32 312.645 274.688 312.184 275.039C311.73 275.391 311.184 275.68 310.543 275.906C309.902 276.125 309.172 276.234 308.352 276.234ZM318.852 266.086V276H315.477V263.32H318.652L318.852 266.086ZM322.672 263.238L322.613 266.367C322.449 266.344 322.25 266.324 322.016 266.309C321.789 266.285 321.582 266.273 321.395 266.273C320.918 266.273 320.504 266.336 320.152 266.461C319.809 266.578 319.52 266.754 319.285 266.988C319.059 267.223 318.887 267.508 318.77 267.844C318.66 268.18 318.598 268.562 318.582 268.992L317.902 268.781C317.902 267.961 317.984 267.207 318.148 266.52C318.312 265.824 318.551 265.219 318.863 264.703C319.184 264.188 319.574 263.789 320.035 263.508C320.496 263.227 321.023 263.086 321.617 263.086C321.805 263.086 321.996 263.102 322.191 263.133C322.387 263.156 322.547 263.191 322.672 263.238ZM331.121 272.496C331.121 272.254 331.051 272.035 330.91 271.84C330.77 271.645 330.508 271.465 330.125 271.301C329.75 271.129 329.207 270.973 328.496 270.832C327.855 270.691 327.258 270.516 326.703 270.305C326.156 270.086 325.68 269.824 325.273 269.52C324.875 269.215 324.562 268.855 324.336 268.441C324.109 268.02 323.996 267.539 323.996 267C323.996 266.469 324.109 265.969 324.336 265.5C324.57 265.031 324.902 264.617 325.332 264.258C325.77 263.891 326.301 263.605 326.926 263.402C327.559 263.191 328.27 263.086 329.059 263.086C330.16 263.086 331.105 263.262 331.895 263.613C332.691 263.965 333.301 264.449 333.723 265.066C334.152 265.676 334.367 266.371 334.367 267.152H330.992C330.992 266.824 330.922 266.531 330.781 266.273C330.648 266.008 330.438 265.801 330.148 265.652C329.867 265.496 329.5 265.418 329.047 265.418C328.672 265.418 328.348 265.484 328.074 265.617C327.801 265.742 327.59 265.914 327.441 266.133C327.301 266.344 327.23 266.578 327.23 266.836C327.23 267.031 327.27 267.207 327.348 267.363C327.434 267.512 327.57 267.648 327.758 267.773C327.945 267.898 328.188 268.016 328.484 268.125C328.789 268.227 329.164 268.32 329.609 268.406C330.523 268.594 331.34 268.84 332.059 269.145C332.777 269.441 333.348 269.848 333.77 270.363C334.191 270.871 334.402 271.539 334.402 272.367C334.402 272.93 334.277 273.445 334.027 273.914C333.777 274.383 333.418 274.793 332.949 275.145C332.48 275.488 331.918 275.758 331.262 275.953C330.613 276.141 329.883 276.234 329.07 276.234C327.891 276.234 326.891 276.023 326.07 275.602C325.258 275.18 324.641 274.645 324.219 273.996C323.805 273.34 323.598 272.668 323.598 271.98H326.797C326.812 272.441 326.93 272.812 327.148 273.094C327.375 273.375 327.66 273.578 328.004 273.703C328.355 273.828 328.734 273.891 329.141 273.891C329.578 273.891 329.941 273.832 330.23 273.715C330.52 273.59 330.738 273.426 330.887 273.223C331.043 273.012 331.121 272.77 331.121 272.496ZM340.156 263.32V276H336.77V263.32H340.156ZM336.559 260.016C336.559 259.523 336.73 259.117 337.074 258.797C337.418 258.477 337.879 258.316 338.457 258.316C339.027 258.316 339.484 258.477 339.828 258.797C340.18 259.117 340.355 259.523 340.355 260.016C340.355 260.508 340.18 260.914 339.828 261.234C339.484 261.555 339.027 261.715 338.457 261.715C337.879 261.715 337.418 261.555 337.074 261.234C336.73 260.914 336.559 260.508 336.559 260.016ZM342.406 269.789V269.543C342.406 268.613 342.539 267.758 342.805 266.977C343.07 266.188 343.457 265.504 343.965 264.926C344.473 264.348 345.098 263.898 345.84 263.578C346.582 263.25 347.434 263.086 348.395 263.086C349.355 263.086 350.211 263.25 350.961 263.578C351.711 263.898 352.34 264.348 352.848 264.926C353.363 265.504 353.754 266.188 354.02 266.977C354.285 267.758 354.418 268.613 354.418 269.543V269.789C354.418 270.711 354.285 271.566 354.02 272.355C353.754 273.137 353.363 273.82 352.848 274.406C352.34 274.984 351.715 275.434 350.973 275.754C350.23 276.074 349.379 276.234 348.418 276.234C347.457 276.234 346.602 276.074 345.852 275.754C345.109 275.434 344.48 274.984 343.965 274.406C343.457 273.82 343.07 273.137 342.805 272.355C342.539 271.566 342.406 270.711 342.406 269.789ZM345.781 269.543V269.789C345.781 270.32 345.828 270.816 345.922 271.277C346.016 271.738 346.164 272.145 346.367 272.496C346.578 272.84 346.852 273.109 347.188 273.305C347.523 273.5 347.934 273.598 348.418 273.598C348.887 273.598 349.289 273.5 349.625 273.305C349.961 273.109 350.23 272.84 350.434 272.496C350.637 272.145 350.785 271.738 350.879 271.277C350.98 270.816 351.031 270.32 351.031 269.789V269.543C351.031 269.027 350.98 268.543 350.879 268.09C350.785 267.629 350.633 267.223 350.422 266.871C350.219 266.512 349.949 266.23 349.613 266.027C349.277 265.824 348.871 265.723 348.395 265.723C347.918 265.723 347.512 265.824 347.176 266.027C346.848 266.23 346.578 266.512 346.367 266.871C346.164 267.223 346.016 267.629 345.922 268.09C345.828 268.543 345.781 269.027 345.781 269.543ZM359.797 266.027V276H356.422V263.32H359.586L359.797 266.027ZM359.305 269.215H358.391C358.391 268.277 358.512 267.434 358.754 266.684C358.996 265.926 359.336 265.281 359.773 264.75C360.211 264.211 360.73 263.801 361.332 263.52C361.941 263.23 362.621 263.086 363.371 263.086C363.965 263.086 364.508 263.172 365 263.344C365.492 263.516 365.914 263.789 366.266 264.164C366.625 264.539 366.898 265.035 367.086 265.652C367.281 266.27 367.379 267.023 367.379 267.914V276H363.98V267.902C363.98 267.34 363.902 266.902 363.746 266.59C363.59 266.277 363.359 266.059 363.055 265.934C362.758 265.801 362.391 265.734 361.953 265.734C361.5 265.734 361.105 265.824 360.77 266.004C360.441 266.184 360.168 266.434 359.949 266.754C359.738 267.066 359.578 267.434 359.469 267.855C359.359 268.277 359.305 268.73 359.305 269.215ZM376.801 272.496C376.801 272.254 376.73 272.035 376.59 271.84C376.449 271.645 376.188 271.465 375.805 271.301C375.43 271.129 374.887 270.973 374.176 270.832C373.535 270.691 372.938 270.516 372.383 270.305C371.836 270.086 371.359 269.824 370.953 269.52C370.555 269.215 370.242 268.855 370.016 268.441C369.789 268.02 369.676 267.539 369.676 267C369.676 266.469 369.789 265.969 370.016 265.5C370.25 265.031 370.582 264.617 371.012 264.258C371.449 263.891 371.98 263.605 372.605 263.402C373.238 263.191 373.949 263.086 374.738 263.086C375.84 263.086 376.785 263.262 377.574 263.613C378.371 263.965 378.98 264.449 379.402 265.066C379.832 265.676 380.047 266.371 380.047 267.152H376.672C376.672 266.824 376.602 266.531 376.461 266.273C376.328 266.008 376.117 265.801 375.828 265.652C375.547 265.496 375.18 265.418 374.727 265.418C374.352 265.418 374.027 265.484 373.754 265.617C373.48 265.742 373.27 265.914 373.121 266.133C372.98 266.344 372.91 266.578 372.91 266.836C372.91 267.031 372.949 267.207 373.027 267.363C373.113 267.512 373.25 267.648 373.438 267.773C373.625 267.898 373.867 268.016 374.164 268.125C374.469 268.227 374.844 268.32 375.289 268.406C376.203 268.594 377.02 268.84 377.738 269.145C378.457 269.441 379.027 269.848 379.449 270.363C379.871 270.871 380.082 271.539 380.082 272.367C380.082 272.93 379.957 273.445 379.707 273.914C379.457 274.383 379.098 274.793 378.629 275.145C378.16 275.488 377.598 275.758 376.941 275.953C376.293 276.141 375.562 276.234 374.75 276.234C373.57 276.234 372.57 276.023 371.75 275.602C370.938 275.18 370.32 274.645 369.898 273.996C369.484 273.34 369.277 272.668 369.277 271.98H372.477C372.492 272.441 372.609 272.812 372.828 273.094C373.055 273.375 373.34 273.578 373.684 273.703C374.035 273.828 374.414 273.891 374.82 273.891C375.258 273.891 375.621 273.832 375.91 273.715C376.199 273.59 376.418 273.426 376.566 273.223C376.723 273.012 376.801 272.77 376.801 272.496Z" fill="black"/>
</svg>
