<svg width="600" height="300" viewBox="0 0 600 300" fill="none" xmlns="http://www.w3.org/2000/svg">
<rect width="600" height="300" fill="white"/>
<path d="M131.523 99.9375V117H128.008V99.9375H131.523ZM138.32 107.227V109.969H130.562V107.227H138.32ZM139.141 99.9375V102.691H130.562V99.9375H139.141ZM146.547 117.234C145.562 117.234 144.68 117.078 143.898 116.766C143.117 116.445 142.453 116.004 141.906 115.441C141.367 114.879 140.953 114.227 140.664 113.484C140.375 112.734 140.23 111.938 140.23 111.094V110.625C140.23 109.664 140.367 108.785 140.641 107.988C140.914 107.191 141.305 106.5 141.812 105.914C142.328 105.328 142.953 104.879 143.688 104.566C144.422 104.246 145.25 104.086 146.172 104.086C147.07 104.086 147.867 104.234 148.562 104.531C149.258 104.828 149.84 105.25 150.309 105.797C150.785 106.344 151.145 107 151.387 107.766C151.629 108.523 151.75 109.367 151.75 110.297V111.703H141.672V109.453H148.434V109.195C148.434 108.727 148.348 108.309 148.176 107.941C148.012 107.566 147.762 107.27 147.426 107.051C147.09 106.832 146.66 106.723 146.137 106.723C145.691 106.723 145.309 106.82 144.988 107.016C144.668 107.211 144.406 107.484 144.203 107.836C144.008 108.188 143.859 108.602 143.758 109.078C143.664 109.547 143.617 110.062 143.617 110.625V111.094C143.617 111.602 143.688 112.07 143.828 112.5C143.977 112.93 144.184 113.301 144.449 113.613C144.723 113.926 145.051 114.168 145.434 114.34C145.824 114.512 146.266 114.598 146.758 114.598C147.367 114.598 147.934 114.48 148.457 114.246C148.988 114.004 149.445 113.641 149.828 113.156L151.469 114.938C151.203 115.32 150.84 115.688 150.379 116.039C149.926 116.391 149.379 116.68 148.738 116.906C148.098 117.125 147.367 117.234 146.547 117.234ZM157.293 113.719L159.93 104.32H162.074L161.383 108.012L158.746 117H156.953L157.293 113.719ZM155.957 104.32L157.844 113.707L158.02 117H155.91L152.699 104.32H155.957ZM164.488 113.555L166.328 104.32H169.598L166.387 117H164.289L164.488 113.555ZM162.367 104.32L164.992 113.648L165.355 117H163.551L160.914 108.023L160.246 104.32H162.367ZM181.574 117H178.176V103.195C178.176 102.234 178.363 101.426 178.738 100.77C179.121 100.105 179.656 99.6055 180.344 99.2695C181.039 98.9258 181.863 98.7539 182.816 98.7539C183.129 98.7539 183.43 98.7773 183.719 98.8242C184.008 98.8633 184.289 98.9141 184.562 98.9766L184.527 101.52C184.379 101.48 184.223 101.453 184.059 101.438C183.895 101.422 183.703 101.414 183.484 101.414C183.078 101.414 182.73 101.484 182.441 101.625C182.16 101.758 181.945 101.957 181.797 102.223C181.648 102.488 181.574 102.812 181.574 103.195V117ZM184.105 104.32V106.711H176.289V104.32H184.105ZM191.43 117.234C190.445 117.234 189.562 117.078 188.781 116.766C188 116.445 187.336 116.004 186.789 115.441C186.25 114.879 185.836 114.227 185.547 113.484C185.258 112.734 185.113 111.938 185.113 111.094V110.625C185.113 109.664 185.25 108.785 185.523 107.988C185.797 107.191 186.188 106.5 186.695 105.914C187.211 105.328 187.836 104.879 188.57 104.566C189.305 104.246 190.133 104.086 191.055 104.086C191.953 104.086 192.75 104.234 193.445 104.531C194.141 104.828 194.723 105.25 195.191 105.797C195.668 106.344 196.027 107 196.27 107.766C196.512 108.523 196.633 109.367 196.633 110.297V111.703H186.555V109.453H193.316V109.195C193.316 108.727 193.23 108.309 193.059 107.941C192.895 107.566 192.645 107.27 192.309 107.051C191.973 106.832 191.543 106.723 191.02 106.723C190.574 106.723 190.191 106.82 189.871 107.016C189.551 107.211 189.289 107.484 189.086 107.836C188.891 108.188 188.742 108.602 188.641 109.078C188.547 109.547 188.5 110.062 188.5 110.625V111.094C188.5 111.602 188.57 112.07 188.711 112.5C188.859 112.93 189.066 113.301 189.332 113.613C189.605 113.926 189.934 114.168 190.316 114.34C190.707 114.512 191.148 114.598 191.641 114.598C192.25 114.598 192.816 114.48 193.34 114.246C193.871 114.004 194.328 113.641 194.711 113.156L196.352 114.938C196.086 115.32 195.723 115.688 195.262 116.039C194.809 116.391 194.262 116.68 193.621 116.906C192.98 117.125 192.25 117.234 191.43 117.234ZM205.398 114.141V108.492C205.398 108.086 205.332 107.738 205.199 107.449C205.066 107.152 204.859 106.922 204.578 106.758C204.305 106.594 203.949 106.512 203.512 106.512C203.137 106.512 202.812 106.578 202.539 106.711C202.266 106.836 202.055 107.02 201.906 107.262C201.758 107.496 201.684 107.773 201.684 108.094H198.309C198.309 107.555 198.434 107.043 198.684 106.559C198.934 106.074 199.297 105.648 199.773 105.281C200.25 104.906 200.816 104.613 201.473 104.402C202.137 104.191 202.879 104.086 203.699 104.086C204.684 104.086 205.559 104.25 206.324 104.578C207.09 104.906 207.691 105.398 208.129 106.055C208.574 106.711 208.797 107.531 208.797 108.516V113.941C208.797 114.637 208.84 115.207 208.926 115.652C209.012 116.09 209.137 116.473 209.301 116.801V117H205.891C205.727 116.656 205.602 116.227 205.516 115.711C205.438 115.188 205.398 114.664 205.398 114.141ZM205.844 109.277L205.867 111.188H203.98C203.535 111.188 203.148 111.238 202.82 111.34C202.492 111.441 202.223 111.586 202.012 111.773C201.801 111.953 201.645 112.164 201.543 112.406C201.449 112.648 201.402 112.914 201.402 113.203C201.402 113.492 201.469 113.754 201.602 113.988C201.734 114.215 201.926 114.395 202.176 114.527C202.426 114.652 202.719 114.715 203.055 114.715C203.562 114.715 204.004 114.613 204.379 114.41C204.754 114.207 205.043 113.957 205.246 113.66C205.457 113.363 205.566 113.082 205.574 112.816L206.465 114.246C206.34 114.566 206.168 114.898 205.949 115.242C205.738 115.586 205.469 115.91 205.141 116.215C204.812 116.512 204.418 116.758 203.957 116.953C203.496 117.141 202.949 117.234 202.316 117.234C201.512 117.234 200.781 117.074 200.125 116.754C199.477 116.426 198.961 115.977 198.578 115.406C198.203 114.828 198.016 114.172 198.016 113.438C198.016 112.773 198.141 112.184 198.391 111.668C198.641 111.152 199.008 110.719 199.492 110.367C199.984 110.008 200.598 109.738 201.332 109.559C202.066 109.371 202.918 109.277 203.887 109.277H205.844ZM217.609 104.32V106.711H210.227V104.32H217.609ZM212.055 101.191H215.43V113.18C215.43 113.547 215.477 113.828 215.57 114.023C215.672 114.219 215.82 114.355 216.016 114.434C216.211 114.504 216.457 114.539 216.754 114.539C216.965 114.539 217.152 114.531 217.316 114.516C217.488 114.492 217.633 114.469 217.75 114.445L217.762 116.93C217.473 117.023 217.16 117.098 216.824 117.152C216.488 117.207 216.117 117.234 215.711 117.234C214.969 117.234 214.32 117.113 213.766 116.871C213.219 116.621 212.797 116.223 212.5 115.676C212.203 115.129 212.055 114.41 212.055 113.52V101.191ZM227.031 113.965V104.32H230.406V117H227.23L227.031 113.965ZM227.406 111.363L228.402 111.34C228.402 112.184 228.305 112.969 228.109 113.695C227.914 114.414 227.621 115.039 227.23 115.57C226.84 116.094 226.348 116.504 225.754 116.801C225.16 117.09 224.461 117.234 223.656 117.234C223.039 117.234 222.469 117.148 221.945 116.977C221.43 116.797 220.984 116.52 220.609 116.145C220.242 115.762 219.953 115.273 219.742 114.68C219.539 114.078 219.438 113.355 219.438 112.512V104.32H222.812V112.535C222.812 112.91 222.855 113.227 222.941 113.484C223.035 113.742 223.164 113.953 223.328 114.117C223.492 114.281 223.684 114.398 223.902 114.469C224.129 114.539 224.379 114.574 224.652 114.574C225.348 114.574 225.895 114.434 226.293 114.152C226.699 113.871 226.984 113.488 227.148 113.004C227.32 112.512 227.406 111.965 227.406 111.363ZM236.359 107.086V117H232.984V104.32H236.16L236.359 107.086ZM240.18 104.238L240.121 107.367C239.957 107.344 239.758 107.324 239.523 107.309C239.297 107.285 239.09 107.273 238.902 107.273C238.426 107.273 238.012 107.336 237.66 107.461C237.316 107.578 237.027 107.754 236.793 107.988C236.566 108.223 236.395 108.508 236.277 108.844C236.168 109.18 236.105 109.562 236.09 109.992L235.41 109.781C235.41 108.961 235.492 108.207 235.656 107.52C235.82 106.824 236.059 106.219 236.371 105.703C236.691 105.188 237.082 104.789 237.543 104.508C238.004 104.227 238.531 104.086 239.125 104.086C239.312 104.086 239.504 104.102 239.699 104.133C239.895 104.156 240.055 104.191 240.18 104.238ZM247.375 117.234C246.391 117.234 245.508 117.078 244.727 116.766C243.945 116.445 243.281 116.004 242.734 115.441C242.195 114.879 241.781 114.227 241.492 113.484C241.203 112.734 241.059 111.938 241.059 111.094V110.625C241.059 109.664 241.195 108.785 241.469 107.988C241.742 107.191 242.133 106.5 242.641 105.914C243.156 105.328 243.781 104.879 244.516 104.566C245.25 104.246 246.078 104.086 247 104.086C247.898 104.086 248.695 104.234 249.391 104.531C250.086 104.828 250.668 105.25 251.137 105.797C251.613 106.344 251.973 107 252.215 107.766C252.457 108.523 252.578 109.367 252.578 110.297V111.703H242.5V109.453H249.262V109.195C249.262 108.727 249.176 108.309 249.004 107.941C248.84 107.566 248.59 107.27 248.254 107.051C247.918 106.832 247.488 106.723 246.965 106.723C246.52 106.723 246.137 106.82 245.816 107.016C245.496 107.211 245.234 107.484 245.031 107.836C244.836 108.188 244.688 108.602 244.586 109.078C244.492 109.547 244.445 110.062 244.445 110.625V111.094C244.445 111.602 244.516 112.07 244.656 112.5C244.805 112.93 245.012 113.301 245.277 113.613C245.551 113.926 245.879 114.168 246.262 114.34C246.652 114.512 247.094 114.598 247.586 114.598C248.195 114.598 248.762 114.48 249.285 114.246C249.816 114.004 250.273 113.641 250.656 113.156L252.297 114.938C252.031 115.32 251.668 115.688 251.207 116.039C250.754 116.391 250.207 116.68 249.566 116.906C248.926 117.125 248.195 117.234 247.375 117.234ZM261.355 113.496C261.355 113.254 261.285 113.035 261.145 112.84C261.004 112.645 260.742 112.465 260.359 112.301C259.984 112.129 259.441 111.973 258.73 111.832C258.09 111.691 257.492 111.516 256.938 111.305C256.391 111.086 255.914 110.824 255.508 110.52C255.109 110.215 254.797 109.855 254.57 109.441C254.344 109.02 254.23 108.539 254.23 108C254.23 107.469 254.344 106.969 254.57 106.5C254.805 106.031 255.137 105.617 255.566 105.258C256.004 104.891 256.535 104.605 257.16 104.402C257.793 104.191 258.504 104.086 259.293 104.086C260.395 104.086 261.34 104.262 262.129 104.613C262.926 104.965 263.535 105.449 263.957 106.066C264.387 106.676 264.602 107.371 264.602 108.152H261.227C261.227 107.824 261.156 107.531 261.016 107.273C260.883 107.008 260.672 106.801 260.383 106.652C260.102 106.496 259.734 106.418 259.281 106.418C258.906 106.418 258.582 106.484 258.309 106.617C258.035 106.742 257.824 106.914 257.676 107.133C257.535 107.344 257.465 107.578 257.465 107.836C257.465 108.031 257.504 108.207 257.582 108.363C257.668 108.512 257.805 108.648 257.992 108.773C258.18 108.898 258.422 109.016 258.719 109.125C259.023 109.227 259.398 109.32 259.844 109.406C260.758 109.594 261.574 109.84 262.293 110.145C263.012 110.441 263.582 110.848 264.004 111.363C264.426 111.871 264.637 112.539 264.637 113.367C264.637 113.93 264.512 114.445 264.262 114.914C264.012 115.383 263.652 115.793 263.184 116.145C262.715 116.488 262.152 116.758 261.496 116.953C260.848 117.141 260.117 117.234 259.305 117.234C258.125 117.234 257.125 117.023 256.305 116.602C255.492 116.18 254.875 115.645 254.453 114.996C254.039 114.34 253.832 113.668 253.832 112.98H257.031C257.047 113.441 257.164 113.812 257.383 114.094C257.609 114.375 257.895 114.578 258.238 114.703C258.59 114.828 258.969 114.891 259.375 114.891C259.812 114.891 260.176 114.832 260.465 114.715C260.754 114.59 260.973 114.426 261.121 114.223C261.277 114.012 261.355 113.77 261.355 113.496Z" fill="black"/>
<path d="M129.332 220.258V223H120.742V220.258H129.332ZM121.879 205.938V223H118.363V205.938H121.879ZM130.598 216.789V216.543C130.598 215.613 130.73 214.758 130.996 213.977C131.262 213.188 131.648 212.504 132.156 211.926C132.664 211.348 133.289 210.898 134.031 210.578C134.773 210.25 135.625 210.086 136.586 210.086C137.547 210.086 138.402 210.25 139.152 210.578C139.902 210.898 140.531 211.348 141.039 211.926C141.555 212.504 141.945 213.188 142.211 213.977C142.477 214.758 142.609 215.613 142.609 216.543V216.789C142.609 217.711 142.477 218.566 142.211 219.355C141.945 220.137 141.555 220.82 141.039 221.406C140.531 221.984 139.906 222.434 139.164 222.754C138.422 223.074 137.57 223.234 136.609 223.234C135.648 223.234 134.793 223.074 134.043 222.754C133.301 222.434 132.672 221.984 132.156 221.406C131.648 220.82 131.262 220.137 130.996 219.355C130.73 218.566 130.598 217.711 130.598 216.789ZM133.973 216.543V216.789C133.973 217.32 134.02 217.816 134.113 218.277C134.207 218.738 134.355 219.145 134.559 219.496C134.77 219.84 135.043 220.109 135.379 220.305C135.715 220.5 136.125 220.598 136.609 220.598C137.078 220.598 137.48 220.5 137.816 220.305C138.152 220.109 138.422 219.84 138.625 219.496C138.828 219.145 138.977 218.738 139.07 218.277C139.172 217.816 139.223 217.32 139.223 216.789V216.543C139.223 216.027 139.172 215.543 139.07 215.09C138.977 214.629 138.824 214.223 138.613 213.871C138.41 213.512 138.141 213.23 137.805 213.027C137.469 212.824 137.062 212.723 136.586 212.723C136.109 212.723 135.703 212.824 135.367 213.027C135.039 213.23 134.77 213.512 134.559 213.871C134.355 214.223 134.207 214.629 134.113 215.09C134.02 215.543 133.973 216.027 133.973 216.543ZM150.895 210.32V212.711H143.512V210.32H150.895ZM145.34 207.191H148.715V219.18C148.715 219.547 148.762 219.828 148.855 220.023C148.957 220.219 149.105 220.355 149.301 220.434C149.496 220.504 149.742 220.539 150.039 220.539C150.25 220.539 150.438 220.531 150.602 220.516C150.773 220.492 150.918 220.469 151.035 220.445L151.047 222.93C150.758 223.023 150.445 223.098 150.109 223.152C149.773 223.207 149.402 223.234 148.996 223.234C148.254 223.234 147.605 223.113 147.051 222.871C146.504 222.621 146.082 222.223 145.785 221.676C145.488 221.129 145.34 220.41 145.34 219.52V207.191ZM158.254 216.789V216.543C158.254 215.613 158.387 214.758 158.652 213.977C158.918 213.188 159.305 212.504 159.812 211.926C160.32 211.348 160.945 210.898 161.688 210.578C162.43 210.25 163.281 210.086 164.242 210.086C165.203 210.086 166.059 210.25 166.809 210.578C167.559 210.898 168.188 211.348 168.695 211.926C169.211 212.504 169.602 213.188 169.867 213.977C170.133 214.758 170.266 215.613 170.266 216.543V216.789C170.266 217.711 170.133 218.566 169.867 219.355C169.602 220.137 169.211 220.82 168.695 221.406C168.188 221.984 167.562 222.434 166.82 222.754C166.078 223.074 165.227 223.234 164.266 223.234C163.305 223.234 162.449 223.074 161.699 222.754C160.957 222.434 160.328 221.984 159.812 221.406C159.305 220.82 158.918 220.137 158.652 219.355C158.387 218.566 158.254 217.711 158.254 216.789ZM161.629 216.543V216.789C161.629 217.32 161.676 217.816 161.77 218.277C161.863 218.738 162.012 219.145 162.215 219.496C162.426 219.84 162.699 220.109 163.035 220.305C163.371 220.5 163.781 220.598 164.266 220.598C164.734 220.598 165.137 220.5 165.473 220.305C165.809 220.109 166.078 219.84 166.281 219.496C166.484 219.145 166.633 218.738 166.727 218.277C166.828 217.816 166.879 217.32 166.879 216.789V216.543C166.879 216.027 166.828 215.543 166.727 215.09C166.633 214.629 166.48 214.223 166.27 213.871C166.066 213.512 165.797 213.23 165.461 213.027C165.125 212.824 164.719 212.723 164.242 212.723C163.766 212.723 163.359 212.824 163.023 213.027C162.695 213.23 162.426 213.512 162.215 213.871C162.012 214.223 161.863 214.629 161.77 215.09C161.676 215.543 161.629 216.027 161.629 216.543ZM176.641 223H173.242V209.195C173.242 208.234 173.43 207.426 173.805 206.77C174.188 206.105 174.723 205.605 175.41 205.27C176.105 204.926 176.93 204.754 177.883 204.754C178.195 204.754 178.496 204.777 178.785 204.824C179.074 204.863 179.355 204.914 179.629 204.977L179.594 207.52C179.445 207.48 179.289 207.453 179.125 207.438C178.961 207.422 178.77 207.414 178.551 207.414C178.145 207.414 177.797 207.484 177.508 207.625C177.227 207.758 177.012 207.957 176.863 208.223C176.715 208.488 176.641 208.812 176.641 209.195V223ZM179.172 210.32V212.711H171.355V210.32H179.172ZM191.219 223H187.82V209.195C187.82 208.234 188.008 207.426 188.383 206.77C188.766 206.105 189.301 205.605 189.988 205.27C190.684 204.926 191.508 204.754 192.461 204.754C192.773 204.754 193.074 204.777 193.363 204.824C193.652 204.863 193.934 204.914 194.207 204.977L194.172 207.52C194.023 207.48 193.867 207.453 193.703 207.438C193.539 207.422 193.348 207.414 193.129 207.414C192.723 207.414 192.375 207.484 192.086 207.625C191.805 207.758 191.59 207.957 191.441 208.223C191.293 208.488 191.219 208.812 191.219 209.195V223ZM193.75 210.32V212.711H185.934V210.32H193.75ZM201.074 223.234C200.09 223.234 199.207 223.078 198.426 222.766C197.645 222.445 196.98 222.004 196.434 221.441C195.895 220.879 195.48 220.227 195.191 219.484C194.902 218.734 194.758 217.938 194.758 217.094V216.625C194.758 215.664 194.895 214.785 195.168 213.988C195.441 213.191 195.832 212.5 196.34 211.914C196.855 211.328 197.48 210.879 198.215 210.566C198.949 210.246 199.777 210.086 200.699 210.086C201.598 210.086 202.395 210.234 203.09 210.531C203.785 210.828 204.367 211.25 204.836 211.797C205.312 212.344 205.672 213 205.914 213.766C206.156 214.523 206.277 215.367 206.277 216.297V217.703H196.199V215.453H202.961V215.195C202.961 214.727 202.875 214.309 202.703 213.941C202.539 213.566 202.289 213.27 201.953 213.051C201.617 212.832 201.188 212.723 200.664 212.723C200.219 212.723 199.836 212.82 199.516 213.016C199.195 213.211 198.934 213.484 198.73 213.836C198.535 214.188 198.387 214.602 198.285 215.078C198.191 215.547 198.145 216.062 198.145 216.625V217.094C198.145 217.602 198.215 218.07 198.355 218.5C198.504 218.93 198.711 219.301 198.977 219.613C199.25 219.926 199.578 220.168 199.961 220.34C200.352 220.512 200.793 220.598 201.285 220.598C201.895 220.598 202.461 220.48 202.984 220.246C203.516 220.004 203.973 219.641 204.355 219.156L205.996 220.938C205.73 221.32 205.367 221.688 204.906 222.039C204.453 222.391 203.906 222.68 203.266 222.906C202.625 223.125 201.895 223.234 201.074 223.234ZM215.043 220.141V214.492C215.043 214.086 214.977 213.738 214.844 213.449C214.711 213.152 214.504 212.922 214.223 212.758C213.949 212.594 213.594 212.512 213.156 212.512C212.781 212.512 212.457 212.578 212.184 212.711C211.91 212.836 211.699 213.02 211.551 213.262C211.402 213.496 211.328 213.773 211.328 214.094H207.953C207.953 213.555 208.078 213.043 208.328 212.559C208.578 212.074 208.941 211.648 209.418 211.281C209.895 210.906 210.461 210.613 211.117 210.402C211.781 210.191 212.523 210.086 213.344 210.086C214.328 210.086 215.203 210.25 215.969 210.578C216.734 210.906 217.336 211.398 217.773 212.055C218.219 212.711 218.441 213.531 218.441 214.516V219.941C218.441 220.637 218.484 221.207 218.57 221.652C218.656 222.09 218.781 222.473 218.945 222.801V223H215.535C215.371 222.656 215.246 222.227 215.16 221.711C215.082 221.188 215.043 220.664 215.043 220.141ZM215.488 215.277L215.512 217.188H213.625C213.18 217.188 212.793 217.238 212.465 217.34C212.137 217.441 211.867 217.586 211.656 217.773C211.445 217.953 211.289 218.164 211.188 218.406C211.094 218.648 211.047 218.914 211.047 219.203C211.047 219.492 211.113 219.754 211.246 219.988C211.379 220.215 211.57 220.395 211.82 220.527C212.07 220.652 212.363 220.715 212.699 220.715C213.207 220.715 213.648 220.613 214.023 220.41C214.398 220.207 214.688 219.957 214.891 219.66C215.102 219.363 215.211 219.082 215.219 218.816L216.109 220.246C215.984 220.566 215.812 220.898 215.594 221.242C215.383 221.586 215.113 221.91 214.785 222.215C214.457 222.512 214.062 222.758 213.602 222.953C213.141 223.141 212.594 223.234 211.961 223.234C211.156 223.234 210.426 223.074 209.77 222.754C209.121 222.426 208.605 221.977 208.223 221.406C207.848 220.828 207.66 220.172 207.66 219.438C207.66 218.773 207.785 218.184 208.035 217.668C208.285 217.152 208.652 216.719 209.137 216.367C209.629 216.008 210.242 215.738 210.977 215.559C211.711 215.371 212.562 215.277 213.531 215.277H215.488ZM227.254 210.32V212.711H219.871V210.32H227.254ZM221.699 207.191H225.074V219.18C225.074 219.547 225.121 219.828 225.215 220.023C225.316 220.219 225.465 220.355 225.66 220.434C225.855 220.504 226.102 220.539 226.398 220.539C226.609 220.539 226.797 220.531 226.961 220.516C227.133 220.492 227.277 220.469 227.395 220.445L227.406 222.93C227.117 223.023 226.805 223.098 226.469 223.152C226.133 223.207 225.762 223.234 225.355 223.234C224.613 223.234 223.965 223.113 223.41 222.871C222.863 222.621 222.441 222.223 222.145 221.676C221.848 221.129 221.699 220.41 221.699 219.52V207.191ZM236.676 219.965V210.32H240.051V223H236.875L236.676 219.965ZM237.051 217.363L238.047 217.34C238.047 218.184 237.949 218.969 237.754 219.695C237.559 220.414 237.266 221.039 236.875 221.57C236.484 222.094 235.992 222.504 235.398 222.801C234.805 223.09 234.105 223.234 233.301 223.234C232.684 223.234 232.113 223.148 231.59 222.977C231.074 222.797 230.629 222.52 230.254 222.145C229.887 221.762 229.598 221.273 229.387 220.68C229.184 220.078 229.082 219.355 229.082 218.512V210.32H232.457V218.535C232.457 218.91 232.5 219.227 232.586 219.484C232.68 219.742 232.809 219.953 232.973 220.117C233.137 220.281 233.328 220.398 233.547 220.469C233.773 220.539 234.023 220.574 234.297 220.574C234.992 220.574 235.539 220.434 235.938 220.152C236.344 219.871 236.629 219.488 236.793 219.004C236.965 218.512 237.051 217.965 237.051 217.363ZM246.004 213.086V223H242.629V210.32H245.805L246.004 213.086ZM249.824 210.238L249.766 213.367C249.602 213.344 249.402 213.324 249.168 213.309C248.941 213.285 248.734 213.273 248.547 213.273C248.07 213.273 247.656 213.336 247.305 213.461C246.961 213.578 246.672 213.754 246.438 213.988C246.211 214.223 246.039 214.508 245.922 214.844C245.812 215.18 245.75 215.562 245.734 215.992L245.055 215.781C245.055 214.961 245.137 214.207 245.301 213.52C245.465 212.824 245.703 212.219 246.016 211.703C246.336 211.188 246.727 210.789 247.188 210.508C247.648 210.227 248.176 210.086 248.77 210.086C248.957 210.086 249.148 210.102 249.344 210.133C249.539 210.156 249.699 210.191 249.824 210.238ZM257.02 223.234C256.035 223.234 255.152 223.078 254.371 222.766C253.59 222.445 252.926 222.004 252.379 221.441C251.84 220.879 251.426 220.227 251.137 219.484C250.848 218.734 250.703 217.938 250.703 217.094V216.625C250.703 215.664 250.84 214.785 251.113 213.988C251.387 213.191 251.777 212.5 252.285 211.914C252.801 211.328 253.426 210.879 254.16 210.566C254.895 210.246 255.723 210.086 256.645 210.086C257.543 210.086 258.34 210.234 259.035 210.531C259.73 210.828 260.312 211.25 260.781 211.797C261.258 212.344 261.617 213 261.859 213.766C262.102 214.523 262.223 215.367 262.223 216.297V217.703H252.145V215.453H258.906V215.195C258.906 214.727 258.82 214.309 258.648 213.941C258.484 213.566 258.234 213.27 257.898 213.051C257.562 212.832 257.133 212.723 256.609 212.723C256.164 212.723 255.781 212.82 255.461 213.016C255.141 213.211 254.879 213.484 254.676 213.836C254.48 214.188 254.332 214.602 254.23 215.078C254.137 215.547 254.09 216.062 254.09 216.625V217.094C254.09 217.602 254.16 218.07 254.301 218.5C254.449 218.93 254.656 219.301 254.922 219.613C255.195 219.926 255.523 220.168 255.906 220.34C256.297 220.512 256.738 220.598 257.23 220.598C257.84 220.598 258.406 220.48 258.93 220.246C259.461 220.004 259.918 219.641 260.301 219.156L261.941 220.938C261.676 221.32 261.312 221.688 260.852 222.039C260.398 222.391 259.852 222.68 259.211 222.906C258.57 223.125 257.84 223.234 257.02 223.234ZM271 219.496C271 219.254 270.93 219.035 270.789 218.84C270.648 218.645 270.387 218.465 270.004 218.301C269.629 218.129 269.086 217.973 268.375 217.832C267.734 217.691 267.137 217.516 266.582 217.305C266.035 217.086 265.559 216.824 265.152 216.52C264.754 216.215 264.441 215.855 264.215 215.441C263.988 215.02 263.875 214.539 263.875 214C263.875 213.469 263.988 212.969 264.215 212.5C264.449 212.031 264.781 211.617 265.211 211.258C265.648 210.891 266.18 210.605 266.805 210.402C267.438 210.191 268.148 210.086 268.938 210.086C270.039 210.086 270.984 210.262 271.773 210.613C272.57 210.965 273.18 211.449 273.602 212.066C274.031 212.676 274.246 213.371 274.246 214.152H270.871C270.871 213.824 270.801 213.531 270.66 213.273C270.527 213.008 270.316 212.801 270.027 212.652C269.746 212.496 269.379 212.418 268.926 212.418C268.551 212.418 268.227 212.484 267.953 212.617C267.68 212.742 267.469 212.914 267.32 213.133C267.18 213.344 267.109 213.578 267.109 213.836C267.109 214.031 267.148 214.207 267.227 214.363C267.312 214.512 267.449 214.648 267.637 214.773C267.824 214.898 268.066 215.016 268.363 215.125C268.668 215.227 269.043 215.32 269.488 215.406C270.402 215.594 271.219 215.84 271.938 216.145C272.656 216.441 273.227 216.848 273.648 217.363C274.07 217.871 274.281 218.539 274.281 219.367C274.281 219.93 274.156 220.445 273.906 220.914C273.656 221.383 273.297 221.793 272.828 222.145C272.359 222.488 271.797 222.758 271.141 222.953C270.492 223.141 269.762 223.234 268.949 223.234C267.77 223.234 266.77 223.023 265.949 222.602C265.137 222.18 264.52 221.645 264.098 220.996C263.684 220.34 263.477 219.668 263.477 218.98H266.676C266.691 219.441 266.809 219.812 267.027 220.094C267.254 220.375 267.539 220.578 267.883 220.703C268.234 220.828 268.613 220.891 269.02 220.891C269.457 220.891 269.82 220.832 270.109 220.715C270.398 220.59 270.617 220.426 270.766 220.223C270.922 220.012 271 219.77 271 219.496Z" fill="black"/>
<line x1="440.48" y1="67.1428" x2="479.669" y2="130.656" stroke="black"/>
<line x1="392.757" y1="130.419" x2="479.243" y2="130.419" stroke="black"/>
<line x1="392.355" y1="130.622" x2="438.301" y2="68.4596" stroke="black"/>
<circle cx="440.054" cy="68.7568" r="6.75676" fill="#FF0000"/>
<circle cx="479.243" cy="130.919" r="6.75676" fill="#FF0000"/>
<circle cx="392.757" cy="130.919" r="6.75676" fill="#FF0000"/>
<path d="M442.199 168.541L472.199 181.541" stroke="black"/>
<line x1="440.5" y1="165.005" x2="439.5" y2="258.005" stroke="black"/>
<line x1="467.224" y1="244.447" x2="439.224" y2="258.447" stroke="black"/>
<line x1="416.479" y1="181.855" x2="439.479" y2="257.855" stroke="black"/>
<line x1="472.459" y1="182.199" x2="439.459" y2="258.199" stroke="black"/>
<line x1="486.338" y1="215.369" x2="439.337" y2="258.369" stroke="black"/>
<line x1="394.365" y1="209.658" x2="439.365" y2="257.658" stroke="black"/>
<line x1="408.206" y1="243.544" x2="439.206" y2="257.544" stroke="black"/>
<line x1="440.266" y1="165.423" x2="413.266" y2="182.423" stroke="black"/>
<line x1="440.371" y1="164.665" x2="486.371" y2="215.665" stroke="black"/>
<line x1="440.477" y1="164.849" x2="465.477" y2="243.849" stroke="black"/>
<line x1="440.463" y1="165.188" x2="408.463" y2="244.188" stroke="black"/>
<line x1="440.346" y1="165.361" x2="394.346" y2="209.361" stroke="black"/>
<line x1="393.453" y1="211.788" x2="408.453" y2="243.788" stroke="black"/>
<line x1="392.584" y1="211.723" x2="412.584" y2="181.723" stroke="black"/>
<line x1="485.54" y1="215.195" x2="471.54" y2="182.195" stroke="black"/>
<line x1="486.405" y1="215.293" x2="465.405" y2="244.293" stroke="black"/>
<line x1="485.973" y1="215.499" x2="393.973" y2="210.499" stroke="black"/>
<line x1="485.794" y1="215.456" x2="412.794" y2="182.456" stroke="black"/>
<line x1="486.174" y1="215.469" x2="408.174" y2="244.469" stroke="black"/>
<line x1="472.348" y1="182.359" x2="408.348" y2="244.359" stroke="black"/>
<line x1="472.169" y1="182.471" x2="394.169" y2="210.471" stroke="black"/>
<line x1="464.784" y1="244.451" x2="393.784" y2="210.451" stroke="black"/>
<circle cx="440.054" cy="167.757" r="6.75676" fill="#FF0000"/>
<circle cx="439.757" cy="257.757" r="6.75676" fill="#FF0000"/>
<circle cx="471.757" cy="181.757" r="6.75676" fill="#FF0000"/>
<circle cx="485.757" cy="215.757" r="6.75676" fill="#FF0000"/>
<circle cx="466.757" cy="243.757" r="6.75676" fill="#FF0000"/>
<circle cx="439.459" cy="257.757" r="6.75676" transform="rotate(-180 439.459 257.757)" fill="#FF0000"/>
<circle cx="439.757" cy="167.757" r="6.75676" transform="rotate(-180 439.757 167.757)" fill="#FF0000"/>
<circle cx="407.757" cy="243.757" r="6.75676" transform="rotate(-180 407.757 243.757)" fill="#FF0000"/>
<circle cx="393.757" cy="209.757" r="6.75676" transform="rotate(-180 393.757 209.757)" fill="#FF0000"/>
<circle cx="412.757" cy="181.757" r="6.75676" transform="rotate(-180 412.757 181.757)" fill="#FF0000"/>
</svg>
